<?xml version="1.0" encoding="iso-8859-1"?>
<!-- Generator: Adobe Illustrator 19.0.0, SVG Export Plug-In . SVG Version: 6.00 Build 0)  -->
<svg version="1.1" id="Layer_1" xmlns="http://www.w3.org/2000/svg" xmlns:xlink="http://www.w3.org/1999/xlink" x="0px" y="0px"
	 viewBox="0 0 512 512" style="enable-background:new 0 0 512 512;" xml:space="preserve">
<path style="fill:#B1E9F1;" d="M256,0c141.386,0,256,114.614,256,256c0,141.386-114.614,256-256,256C114.614,512,0,397.386,0,256
	C0,114.614,114.614,0,256,0z"/>
<path style="fill:#FFFF00;" d="M193.457,14.864c31.682,0,57.366,25.685,57.366,57.366c0,31.684-25.685,57.369-57.366,57.369
	c-31.684,0-57.368-25.685-57.368-57.369C136.088,40.548,161.773,14.864,193.457,14.864z"/>
<g>
	<path style="fill:#FFFFFF;" d="M116.895,70.313c4.238,0,8.235,1.008,11.774,2.792c3.83-3.752,9.078-6.068,14.867-6.068
		c10.021,0,18.426,6.938,20.673,16.273c5.01,1.505,9.028,5.287,10.862,10.143c0.603-0.069,1.212-0.098,1.833-0.098
		c9.256,0,16.77,7.509,16.77,16.774c0,9.261-7.513,16.769-16.77,16.769c-2.888,0-5.603-0.728-7.971-2.011
		c-2.039,6.97-8.474,12.06-16.106,12.06c-4.657,0-8.872-1.899-11.911-4.972c-3.042,3.074-7.259,4.972-11.918,4.972
		c-4.428,0-8.459-1.72-11.46-4.521c-3.063,3.351-7.472,5.454-12.376,5.454c-4.588,0-8.746-1.837-11.767-4.824
		c-1.386,0.309-2.831,0.468-4.304,0.468c-11.038,0-19.981-8.948-19.981-19.981c0-11.036,8.942-19.981,19.981-19.981
		c0.6,0,1.198,0.03,1.785,0.085C92.291,80.524,103.401,70.313,116.895,70.313z"/>
	<path style="fill:#FFFFFF;" d="M291.285,30.452c4.238,0,8.235,1.008,11.774,2.792c3.83-3.752,9.078-6.068,14.866-6.068
		c10.022,0,18.426,6.938,20.673,16.273c5.009,1.505,9.028,5.286,10.862,10.143c0.602-0.069,1.211-0.098,1.833-0.098
		c9.256,0,16.769,7.508,16.769,16.774c0,9.261-7.513,16.77-16.769,16.77c-2.889,0-5.603-0.728-7.972-2.011
		c-2.038,6.97-8.473,12.06-16.105,12.06c-4.657,0-8.872-1.899-11.911-4.973c-3.042,3.074-7.259,4.973-11.918,4.973
		c-4.428,0-8.46-1.721-11.46-4.522c-3.063,3.351-7.472,5.455-12.376,5.455c-4.588,0-8.745-1.837-11.766-4.824
		c-1.386,0.309-2.832,0.467-4.304,0.467c-11.038,0-19.981-8.947-19.981-19.981c0-11.036,8.943-19.981,19.981-19.981
		c0.6,0,1.198,0.03,1.785,0.085C266.681,40.663,277.791,30.452,291.285,30.452z"/>
</g>
<path style="fill:#388D3C;" d="M19.646,157.51c9.179-0.77,18.167-0.367,15.936,4.631c-1.956,4.384-12.983,11.966-24.432,18.935
	c-1.528,4.994-2.9,10.051-4.124,15.171c6.316,0.875,10.823,3.159,8.572,8.299c-1.601,3.656-6.46,8.003-12.633,12.372
	c-1.042,6.785-1.8,13.661-2.298,20.611c8.068,0.948,12.491,3.727,6.29,10.157c-1.833,1.899-4.187,3.942-6.929,6.07
	C0.023,254.504,0,255.249,0,256c0,3.729,0.096,7.436,0.255,11.126h511.491c0.059-1.382,0.117-2.761,0.156-4.146
	c-0.52-0.561-1.008-1.107-1.457-1.643c-1.404-1.674-2.176-3.085-2.428-4.272c-0.153-0.749-0.02-1.314-0.03-1.452
	c0.303-1.532,1.75-2.561,3.967-3.204c-0.128-9.303-0.747-18.485-1.841-27.522c-2.476-2.561-4.265-4.98-5.017-7.11
	c-1.164-3.299,0.233-5.317,3.005-6.487c-1.356-7.694-3.063-15.265-5.09-22.705c-7.442-5.653-13.446-11.009-14.642-14.328
	c-1.322-3.663,2.912-4.63,8.759-4.4c-7.307-20.453-17.138-39.71-29.125-57.385c-5.119,8.551-11.96,19.837-22.412,31.904
	c-12.839-8.656-27.298-19.331-29.229-24.691c-3.566-9.882,33.26-0.168,33.26-0.168c-31.01-26.07-42.395-53.355-49.945-67.702
	c-8.617,13.858-22.043,40.393-54.952,64.524c0,0,37.475-7.463,33.17,2.184c-2.989,6.702-27.178,20.879-41.662,28.905
	c-21.152-21.942-30.211-43.149-36.559-55.209c-4.231,6.804-9.62,16.66-17.905,27.79c-12.793-8.633-27.123-19.232-29.045-24.567
	c-3.566-9.882,33.26-0.168,33.26-0.168c-31.01-26.07-42.395-53.355-49.945-67.702c-8.617,13.858-22.042,40.393-54.952,64.524
	c0,0,37.475-7.463,33.171,2.184c-2.882,6.46-25.463,19.866-40.061,28.014c-13.879-17.445-20.86-33.369-26.037-43.208
	c-8.617,13.859-22.043,40.393-54.952,64.525c0,0,37.475-7.463,33.17,2.183c-1.715,3.846-10.406,10.15-20.245,16.344
	c-30.123-25.768-41.318-52.542-48.771-66.705c-5.511,8.862-12.99,22.913-26.278,38.203C26.874,141.361,23.06,149.331,19.646,157.51z
	 M446.252,177.505c-4.024-3.163-7.531-6.311-9.971-9.208c8.301-0.504,15.663,0.222,13.622,4.799
	C449.349,174.337,448.064,175.837,446.252,177.505z M346.372,254.937c-3.216-2.765-5.937-5.388-7.935-7.768
	c-0.458-0.545-0.841-1.06-1.171-1.55c6.082,1.308,9.822,3.892,9.245,8.411C346.473,254.337,346.427,254.637,346.372,254.937z
	 M339.6,212.205c-3.248-3.111-5.616-6.057-6.512-8.597c-2.579-7.309,7.412-8.338,17.068-7.758c2.714,1.61,2.991,4.201-0.882,8.216
	C346.857,206.575,343.527,209.329,339.6,212.205z M336.93,178.779c-9.996-7.145-19.067-14.523-20.567-18.689
	c-3.566-9.882,33.26-0.167,33.26-0.167c-3.07-2.582-5.946-5.172-8.645-7.763c9.829-0.05,20.114,1.514,16.937,8.768
	C355.638,166.123,346.789,172.711,336.93,178.779z M223.98,262.945l-2.694-1.771c1.418,0.32,2.641,0.714,3.633,1.193L223.98,262.945
	z M269.714,134.528c0.238-0.35,0.535-0.669,0.884-0.958L269.714,134.528z M172.065,155.288c-3.766-3.301-6.46-6.226-7.218-8.331
	c-2.302-6.374,12.211-4.595,22.799-2.526C183.474,147.997,177.905,151.749,172.065,155.288z M191.388,140.848
	c-4.648-4.325-8.794-8.657-12.507-12.926c9.325,0.124,18.407,1.887,15.395,8.764C193.704,137.994,192.708,139.391,191.388,140.848z
	 M105.653,189.585c-4.751-3.161-9.855-6.675-14.555-10.147c9.293,0.133,18.302,1.91,15.298,8.762
	C106.2,188.651,105.946,189.114,105.653,189.585z M84.845,174.63c-5.596-4.508-9.815-8.604-10.796-11.327
	c-3.065-8.491,23.696-2.513,31.287-0.661C98.304,167.039,90.775,171.341,84.845,174.63z"/>
<path style="fill:#429F46;" d="M353.567,145.984c4.819,1.134,9.176,3.372,11.201,7.749c1.516,3.276,1.25,6.87-0.174,10.122
	c-3.633,8.295-16.303,16.495-23.841,21.136l-4.123,2.538l-3.94-2.817c-6.496-4.641-20.455-14.568-23.188-22.148
	c-0.96-2.662-0.946-5.513,0.355-8.065c2.531-4.973,9.225-6.322,16.703-6.07l-3.615-3.47l1.186-0.007
	c-6.707-7.825-12.674-16.187-17.99-25.094c-2.526-4.231-4.796-8.496-7.016-12.789c-3.596,5.844-7.252,11.586-11.503,17.297
	l-4.158,5.586l-5.772-3.896c-8.06-5.438-28.555-19.069-31.826-28.138c-0.96-2.662-0.946-5.514,0.355-8.065
	c2.602-5.118,9.621-6.396,17.368-6.043c-6.416-7.087-12.246-14.687-17.5-22.824c-3.988-6.178-7.319-12.333-10.581-18.598
	c-3.743,6.077-7.543,12.04-12,17.977c-5.836,7.772-12.204,14.976-19.113,21.639c6.735-0.055,14.158,1.129,16.731,7.087
	c1.152,2.662,0.962,5.547-0.204,8.162c-3.187,7.137-18.678,17.221-31.006,24.486c4.785,1.116,9.172,3.336,11.215,7.749
	c1.514,3.271,1.251,6.865-0.167,10.11l2.893,0.566l-8.908,7.619l-3.115,3.438l-0.443-0.413c-4.808,3.972-10.244,7.504-15.546,10.716
	l-4.569,2.769l-4.018-3.523c-3.358-2.943-7.728-7.069-9.27-11.338c-0.96-2.66-0.944-5.505,0.35-8.056
	c2.815-5.539,10.106-6.535,17.336-6.084c-0.774-0.854-1.539-1.715-2.296-2.586l-0.936-1.076l-0.094,0.052l-1.505-1.892l-8.154-9.378
	l0.96,0.014c-6.306-8.798-11.096-17.351-15.982-26.585c-3.754,6.097-7.565,12.08-12.037,18.036
	c-5.837,7.773-12.205,14.976-19.114,21.64c6.735-0.055,14.159,1.129,16.731,7.087c1.152,2.662,0.962,5.548-0.204,8.162
	c-1.539,3.45-5.55,7.238-10.001,10.683l0.83,0.202l-14.667,9.174c-0.011,0.007-0.022,0.014-0.032,0.02l-3.695,2.327l-0.034-0.03
	c-1.157,0.703-2.316,1.399-3.479,2.091c4.813,1.109,9.236,3.33,11.288,7.77c0.667,1.443,0.989,2.946,1.02,4.455l-0.504,2.71
	l-5.415,10.892c-1.143,1.839-7.765-4.048-12.401-7.229c-3.097-2.128-6.164-4.297-9.185-6.529l-2.627-1.94l-0.046,0.026l-0.896-0.721
	l-12.122-10.809c-1.727-1.982-3.154-4.054-3.885-6.082c-0.96-2.658-0.944-5.505,0.353-8.054c2.648-5.211,9.701-6.446,17.361-6.068
	c-6.537-7.225-12.463-14.976-17.791-23.282c-3.88-6.047-7.135-12.078-10.326-18.21c-8.81,14.005-16.967,25.902-30.012,38.684
	c-0.16,0.341-0.319,0.683-0.476,1.023c6.578,0.018,13.656,1.304,16.153,7.094c1.147,2.66,0.958,5.539-0.206,8.148
	c-3.502,7.846-20.962,18.5-30.292,24.006c-0.055,0.204-0.112,0.41-0.167,0.616c4.512,1.134,8.679,3.321,10.667,7.614
	c1.517,3.276,1.251,6.872-0.174,10.124c-2.813,6.425-10.871,12.594-17.294,16.925c-0.261,2.094-0.497,4.188-0.708,6.288
	c5.247,0.971,10.351,3.142,12.248,8.207c1.968,5.252-0.733,10.138-4.316,13.854c-2.444,2.534-5.238,4.891-8.102,7.085h201.859
	l-22.267-14.637l39.194,8.865c1.777,0.404,3.553,0.946,5.195,1.741l8.354,4.031h104.441c-2.828-2.462-5.63-5.112-8.033-7.974
	c-0.582-0.694-1.129-1.415-1.635-2.166l-10.095-15.006l17.679,3.803c8.347,1.796,16.178,6.819,14.946,16.465
	c-0.055,0.435-0.121,0.868-0.2,1.299l-0.655,3.58h147.832l-0.898-0.52l0.584-2.964l-1.963-9.24l5.585,1.418
	c1.337-1.201,2.973-2.078,4.739-2.714c-0.167-4.298-0.437-8.59-0.82-12.874c-3.927-3.557-8.068-8.019-9.733-12.734
	c-2.483-7.039,0.52-12.072,5.69-14.875c-0.57-2.795-1.189-5.578-1.853-8.352c-6.904-5.003-18.126-13.542-20.545-20.247
	c-0.96-2.657-0.944-5.504,0.353-8.053c1.855-3.653,5.435-5.264,9.392-5.864c-5.621-14.179-12.527-27.826-20.616-40.759
	c-5.884,9.426-11.861,18.24-19.532,27.098l-4.232,4.883l-5.358-3.613c-8.09-5.456-28.731-19.168-32.011-28.264
	c-0.96-2.662-0.946-5.514,0.355-8.065c2.604-5.118,9.62-6.398,17.367-6.043c-6.416-7.087-12.246-14.687-17.5-22.824
	c-3.988-6.178-7.318-12.333-10.58-18.597c-3.743,6.077-7.543,12.039-12.001,17.977c-5.836,7.772-12.204,14.976-19.113,21.639
	c6.735-0.055,14.158,1.13,16.731,7.087c1.152,2.662,0.962,5.546-0.204,8.162C381.395,128.581,366.147,138.571,353.567,145.984z
	 M435.839,161.017c6.863-0.417,17.668-0.671,20.932,6.899c1.147,2.659,0.958,5.538-0.206,8.15c-1.164,2.609-3.292,4.888-5.374,6.806
	l-4.566,4.203l-4.881-3.837c-3.876-3.046-7.862-6.466-11.044-10.244l-9.343-11.098L435.839,161.017z M334.557,217.474
	c-3.282-3.145-6.814-7.097-8.347-11.439c-1.173-3.326-1.18-6.861,0.529-10.012c4.277-7.887,16.085-7.919,23.854-7.451l1.764,0.105
	l1.521,0.903c8.177,4.852,6.501,13.48,0.646,19.55c-3.175,3.294-6.927,6.258-10.613,8.959l-4.936,3.617L334.557,217.474z
	 M263.683,130.428c0.63-0.93,1.397-1.755,2.261-2.472l5.253-4.354l9.389,9.905l-10.106,10.945l-10.604-8.423L263.683,130.428z"/>
<path style="fill:#7FC583;" d="M0.255,267.126h511.491C505.918,403.348,393.657,512,256,512S6.082,403.348,0.255,267.126z"/>
<path style="fill:#66B96A;" d="M248.993,340.819c117.151,0,212.123,17.23,212.123,38.485s-94.971,38.485-212.123,38.485
	S36.87,400.559,36.87,379.304S131.841,340.819,248.993,340.819z"/>
<g>
	<g>
		<path style="fill:#F98B00;" d="M317.432,305.365v52.017c0,8.67,7.03,15.7,15.699,15.7H362.5c8.672,0,15.7-7.03,15.7-15.7v-52.017
			H317.432z"/>
		<path style="fill:#F98B00;" d="M119.786,305.365v52.017c0,8.67,7.029,15.7,15.702,15.7h29.366c8.672,0,15.702-7.03,15.702-15.7
			v-52.017H119.786z"/>
	</g>
	<polygon style="fill:#FFEF76;" points="379.685,156.715 118.304,156.715 118.304,97.358 379.685,97.358 	"/>
	<g>
		<polygon style="fill:#606060;" points="151.655,156.715 169.403,156.715 169.403,97.358 151.655,97.358 		"/>
		<polygon style="fill:#606060;" points="328.583,156.715 346.333,156.715 346.333,97.358 328.583,97.358 		"/>
	</g>
	<g>
		<path style="fill:#FFD34E;" d="M164.854,276.02h-29.366c-8.673,0-15.702,7.03-15.702,15.7v13.645h60.77V291.72
			C180.556,283.05,173.526,276.02,164.854,276.02z"/>
		<path style="fill:#FFD34E;" d="M333.132,276.02H362.5c8.672,0,15.7,7.03,15.7,15.7v13.645h-60.768V291.72
			C317.432,283.05,324.462,276.02,333.132,276.02z"/>
	</g>
	<path style="fill:#BD360C;" d="M248.993,194.3c-20.723,0-37.585-16.861-37.585-37.585c0-20.726,16.861-37.585,37.585-37.585
		c20.726,0,37.587,16.859,37.587,37.585C286.579,177.439,269.719,194.3,248.993,194.3z M248.993,134.831L248.993,134.831
		c-12.067,0-21.885,9.818-21.885,21.885s9.818,21.885,21.885,21.885s21.887-9.818,21.887-21.885S261.06,134.831,248.993,134.831z"/>
	<path style="fill:#FF8964;" d="M347.318,383.379c0,8.67-7.03,15.7-15.699,15.7H166.37c-8.67,0-15.7-7.03-15.7-15.7V172.415
		c0-8.673,7.03-15.7,15.7-15.7h165.248c8.669,0,15.699,7.027,15.699,15.7V383.379z"/>
	<path style="fill:#FF7042;" d="M347.318,243.312c0,8.67-7.03,15.7-15.699,15.7H166.37c-8.67,0-15.7-7.03-15.7-15.7v-70.897
		c0-8.673,7.03-15.7,15.7-15.7h165.248c8.669,0,15.699,7.027,15.699,15.7V243.312z"/>
	<path style="fill:#FFD34E;" d="M272.289,305.365h-46.591c-8.67,0-15.7,7.03-15.7,15.7v26.023h77.993v-26.023
		C287.991,312.395,280.961,305.365,272.289,305.365z"/>
	<polygon style="fill:#F98B00;" points="209.997,347.089 209.997,399.079 287.991,399.079 287.991,347.089 	"/>
	<polygon style="fill:#606060;" points="180.423,156.715 180.423,287.425 192.199,300.878 203.973,287.425 203.973,156.715 	"/>
	<path style="fill:#FFFFFF;" d="M205.327,272.449h-26.256c-1.445,0-2.615-1.171-2.615-2.616v-26.255
		c0-1.446,1.171-2.616,2.615-2.616h26.256c1.445,0,2.615,1.171,2.615,2.616v26.255C207.943,271.278,206.772,272.449,205.327,272.449
		z M181.688,267.215L181.688,267.215h21.023v-21.021h-21.023V267.215z"/>
	<polygon style="fill:#606060;" points="294.013,156.715 294.013,287.425 305.789,300.878 317.563,287.425 317.563,156.715 	"/>
	<path style="fill:#FFFFFF;" d="M318.916,272.449h-26.255c-1.445,0-2.618-1.171-2.618-2.616v-26.255
		c0-1.446,1.173-2.616,2.618-2.616h26.255c1.444,0,2.616,1.171,2.616,2.616v26.255C321.532,271.278,320.36,272.449,318.916,272.449z
		 M295.277,267.215L295.277,267.215h21.021v-21.021h-21.021V267.215z"/>
	<polygon style="fill:#606060;" points="237.219,334.362 237.219,378.211 248.993,391.664 260.769,378.211 260.769,334.362 	"/>
	<path style="fill:#FFFFFF;" d="M262.12,363.235h-26.255c-1.443,0-2.616-1.173-2.616-2.618v-26.255c0-1.444,1.173-2.616,2.616-2.616
		h26.255c1.446,0,2.618,1.173,2.618,2.616v26.255C264.738,362.063,263.566,363.235,262.12,363.235z M238.483,358.001
		L238.483,358.001h21.021V336.98h-21.021V358.001z"/>
</g>
<g>
</g>
<g>
</g>
<g>
</g>
<g>
</g>
<g>
</g>
<g>
</g>
<g>
</g>
<g>
</g>
<g>
</g>
<g>
</g>
<g>
</g>
<g>
</g>
<g>
</g>
<g>
</g>
<g>
</g>
</svg>
