<?xml version="1.0" encoding="iso-8859-1"?>
<!-- Generator: Adobe Illustrator 19.0.0, SVG Export Plug-In . SVG Version: 6.00 Build 0)  -->
<svg version="1.1" id="Layer_1" xmlns="http://www.w3.org/2000/svg" xmlns:xlink="http://www.w3.org/1999/xlink" x="0px" y="0px"
	 viewBox="0 0 512 512" style="enable-background:new 0 0 512 512;" xml:space="preserve">
<path style="fill:#B1E3FB;" d="M256,0c141.386,0,256,114.614,256,256S397.386,512,256,512S0,397.386,0,256S114.614,0,256,0z"/>
<path style="fill:#9BCB64;" d="M256,254.531c95.558,0,183.651,11.681,254.255,31.344C495.457,413.181,387.28,512,256,512
	S16.543,413.181,1.745,285.875C72.345,266.212,160.438,254.531,256,254.531z"/>
<path style="fill:#ADD37F;" d="M0.306,268.382c34.512-53.628,67.759-100.602,102.827-138.04c11.919-12.73,33.319-13.575,47.051-4.59
	c91.715,59.989,130.006,122.236,155.283,185.027L10.373,328.294C4.747,309.161,1.291,289.094,0.306,268.382z"/>
<path style="fill:#689D38;" d="M137.169,120.55c4.688,0.926,9.159,2.679,13.014,5.201
	c91.715,59.989,130.006,122.236,155.283,185.027l-152.328,9.04c0,0-10.488-20.046-35.667-50.592
	c-25.179-30.551,49.153-27.26,26.16-69.368C120.639,157.754,137.169,120.55,137.169,120.55z"/>
<path style="fill:#ADD37F;" d="M239.92,318.133c28.572-82.943,63.844-167.996,156.574-271.108c0.977-1.087,1.979-2.106,2.998-3.053
	C467.382,90.008,512,167.792,512,256c0,18.831-2.055,37.183-5.915,54.859C418.013,313.088,326.85,316.235,239.92,318.133z"/>
<path style="fill:#689D38;" d="M506.022,311.165l-125.578,3.894c-31.357-44.754,0.425-75.559,8.025-76.744
	c8.713-1.363,63.534-71.835,25.901-92.08c-27.502-14.798-13.732-67.432-4.323-94.704C471.968,98.254,512,172.45,512,256
	C512,274.942,509.924,293.395,506.022,311.165z"/>
<path style="fill:#FFFF00;" d="M264.076,59.891c20.632,0,37.361,16.73,37.361,37.365s-16.73,37.361-37.361,37.361
	c-20.636,0-37.365-16.725-37.365-37.361S243.44,59.891,264.076,59.891z"/>
<path style="fill:#FFFFFF;" d="M174.603,46.006c4.093,0,7.961,0.972,11.375,2.696c3.703-3.626,8.768-5.86,14.364-5.86
	c9.681,0,17.8,6.7,19.969,15.719c4.841,1.456,8.721,5.112,10.496,9.8c0.582-0.068,1.168-0.093,1.766-0.093
	c8.942,0,16.203,7.252,16.203,16.203c0,8.946-7.261,16.199-16.203,16.199c-2.79,0-5.414-0.705-7.698-1.94
	c-1.97,6.734-8.186,11.651-15.562,11.651c-4.497,0-8.569-1.834-11.507-4.802c-2.938,2.968-7.01,4.802-11.515,4.802
	c-4.272,0-8.169-1.664-11.065-4.369c-2.96,3.236-7.223,5.269-11.957,5.269c-4.433,0-8.45-1.775-11.371-4.662
	c-1.338,0.301-2.734,0.454-4.157,0.454c-10.666,0-19.307-8.645-19.307-19.303c0-10.662,8.641-19.303,19.307-19.303
	c0.577,0,1.159,0.025,1.724,0.081C150.833,55.87,161.567,46.006,174.603,46.006z"/>
<path style="fill:#785448;" d="M441.931,298.053c-0.17,0.633-3.652,26.317-3.652,26.317l7.405,0.624l-0.081-25.927L441.931,298.053z
	"/>
<path style="fill:#2E7C32;" d="M429.189,251.92c0,0,12.237-2.437,10.836,0.713c-1.405,3.146-17.15,11.354-17.15,11.354
	s12.496-1.792,10.624,2.492c-1.881,4.284-17.443,11.477-17.443,11.477s20.126-3.095,14.619,2.611
	c-5.503,5.707-25.442,15.32-25.442,15.32s25.353-5.363,24.538,0.998c-0.811,6.361-11.154,8.182-13.307,12.203
	c0,0,25.018-4.446,27.748-1.04c2.849,0.004,28.084,4.412,28.126,3.312c-1.843-4.144-12.547-7.184-12.878-13.579
	c-0.327-6.395,24.564,0.488,24.564,0.488s-19.171-10.794-24.228-16.819c-5.057-6.025,14.785-1.724,14.785-1.724
	s-14.984-8.118-16.53-12.505c-1.55-4.386,10.781-1.847,10.781-1.847s-15.082-9.138-16.25-12.365
	c-1.159-3.227,10.866-0.055,10.866-0.055c-10.127-8.513-13.842-17.426-16.309-22.109C444.322,235.373,439.94,244.039,429.189,251.92
	z"/>
<path style="fill:#388D3C;" d="M429.189,251.92c0,0,12.237-2.437,10.836,0.713c-1.405,3.146-17.15,11.354-17.15,11.354
	s12.496-1.792,10.624,2.492c-1.881,4.284-17.443,11.477-17.443,11.477s20.126-3.095,14.619,2.611
	c-5.503,5.707-25.442,15.32-25.442,15.32s25.353-5.363,24.538,0.998c-0.811,6.361-11.154,8.182-13.307,12.203
	c-5.117,1.758,20.67-3.112,27.748-1.04l3.155-76.765l-0.229-0.437C444.322,235.373,439.94,244.039,429.189,251.92z"/>
<path style="fill:#785448;" d="M113.693,300.337c-0.166,0.633-3.652,26.317-3.652,26.317l7.405,0.624l-0.076-25.927L113.693,300.337
	z"/>
<path style="fill:#2E7C32;" d="M100.95,254.204c0,0,12.241-2.437,10.836,0.713c-1.405,3.151-17.15,11.354-17.15,11.354
	s12.5-1.792,10.624,2.492c-1.877,4.289-17.443,11.477-17.443,11.477s20.122-3.095,14.619,2.616
	c-5.503,5.702-25.442,15.316-25.442,15.316s25.353-5.363,24.538,0.998c-0.811,6.361-11.154,8.182-13.307,12.203
	c0,0,25.018-4.441,27.748-1.036c2.849,0.004,28.079,4.412,28.126,3.312c-1.843-4.144-12.547-7.189-12.874-13.579
	c-0.331-6.395,24.559,0.488,24.559,0.488s-19.167-10.794-24.228-16.823c-5.057-6.025,14.785-1.724,14.785-1.724
	s-14.984-8.114-16.53-12.5c-1.55-4.39,10.785-1.847,10.785-1.847s-15.086-9.138-16.25-12.369
	c-1.163-3.223,10.861-0.055,10.861-0.055c-10.127-8.513-13.842-17.422-16.309-22.109
	C116.083,237.657,111.701,246.323,100.95,254.204z"/>
<path style="fill:#388D3C;" d="M100.95,254.204c0,0,12.241-2.437,10.836,0.713c-1.405,3.151-17.15,11.358-17.15,11.358
	s12.5-1.796,10.624,2.492c-1.877,4.284-17.443,11.473-17.443,11.473s20.122-3.095,14.619,2.616
	c-5.503,5.702-25.442,15.311-25.442,15.311s25.353-5.359,24.538,1.002c-0.811,6.361-11.154,8.182-13.307,12.203
	c-5.117,1.758,20.67-3.108,27.748-1.036l3.155-76.769l-0.229-0.437C116.083,237.657,111.701,246.323,100.95,254.204z"/>
<path style="fill:#D3DF56;" d="M240.752,195.6l76.383,153.963c1.333,2.692,1.193,5.639-0.391,8.191
	c-1.584,2.552-4.161,3.987-7.167,3.987H177.341c-2.96,0-5.503-1.393-7.099-3.885c-1.592-2.497-1.796-5.388-0.556-8.076
	L240.752,195.6z"/>
<polygon style="fill:#817616;" points="240.752,195.6 210.329,361.74 271.337,361.74 "/>
<g>
	<path style="fill:#785448;" d="M79.559,339.822c0.408-7.142,10.573-6.327,11.036,0v19.464H79.559V339.822z"/>
	<path style="fill:#785448;" d="M404.358,337.427c-0.403-7.138-10.573-6.327-11.031,0v19.473h11.031V337.427z"/>
</g>
<path style="fill:#E5ED9B;" d="M240.752,195.6l115.85,109.697l-47.751,27.574L240.752,195.6z M240.752,195.6L128.805,307.552
	l47.751,27.57L240.752,195.6z"/>
<g>
	<path style="fill:#FFD500;" d="M404.277,340.085h-10.798l-37.59-34.372l-2.127,1.227l39.522,35.968l3.303,0.013h7.69V340.085z
		 M79.639,342.476h10.802l38.69-34.737l2.157,1.248l-40.694,36.465l-3.261-0.14h-7.694V342.476z"/>
	<path style="fill:#FFD500;" d="M375.727,209.807v43.573c14.933-9.002,30.5-9.859,46.728-2.199
		c-0.815-3.422-10.131-21.846-10.131-21.846l20.118-20.687C432.441,208.648,385.136,223.008,375.727,209.807z"/>
</g>
<path style="fill:#785448;" d="M374.971,231.292c0.204-47.866,5.286-42.423,5.516,0v130.533h-5.516V231.292z"/>
<path style="fill:#606060;" d="M256.828,447.893c2.412-1.121,5.388-0.471,7.078,1.72l44.172,57.08
	c-4.284,0.883-8.603,1.664-12.959,2.331l-33.502-43.293v46.197C259.749,511.97,257.877,512,256,512c-2.03,0-4.047-0.03-6.059-0.081
	v-46.622l-33.247,43.696c-4.339-0.667-8.637-1.448-12.9-2.327l44.261-58.18c1.945-2.552,5.626-3.049,8.186-1.108l0,0
	C256.45,447.54,256.641,447.706,256.828,447.893z"/>
<path style="fill:#424242;" d="M256.752,427.991c39.764,0,72.001,9.095,72.001,20.317c0,11.227-32.236,20.33-72.001,20.33
	s-72.001-9.104-72.001-20.33C184.751,437.087,216.987,427.991,256.752,427.991z"/>
<path style="fill:#606060;" d="M343.885,357.502c0,46.21-36.13,93.065-83.597,93.065s-90.675-46.855-90.675-93.065H343.885z"/>
<g>
	<path style="fill:#424242;" d="M162.153,346.692h8.654c2.734,0,4.972,2.238,4.972,4.976v11.46c0,2.73-2.238,4.968-4.972,4.968
		h-8.654c-2.734,0-4.972-2.238-4.972-4.968v-11.46C157.181,348.93,159.419,346.692,162.153,346.692z M163.716,350.543h5.528
		c1.749,0,3.18,1.439,3.18,3.189v7.324c0,1.754-1.431,3.185-3.18,3.185h-5.528c-1.754,0-3.185-1.431-3.185-3.185v-7.324
		C160.531,351.982,161.962,350.543,163.716,350.543z"/>
	<path style="fill:#424242;" d="M348.968,346.692h-8.649c-2.739,0-4.972,2.238-4.972,4.976v11.46c0,2.73,2.233,4.968,4.972,4.968
		h8.649c2.734,0,4.976-2.238,4.976-4.968v-11.46C353.944,348.93,351.702,346.692,348.968,346.692z M347.409,350.543h-5.528
		c-1.749,0-3.185,1.439-3.185,3.189v7.324c0,1.754,1.435,3.185,3.185,3.185h5.528c1.754,0,3.18-1.431,3.18-3.185v-7.324
		C350.59,351.982,349.163,350.543,347.409,350.543z"/>
</g>
<path style="fill:#202020;" d="M256.752,316.85c48.125,0,87.134,18.199,87.134,40.652c0,22.449-39.009,40.648-87.134,40.648
	s-87.138-18.199-87.138-40.648C169.614,335.049,208.627,316.85,256.752,316.85z"/>
<path style="fill:#FFFFFF;" d="M256.752,316.744c46.061,0,83.406,16.347,83.406,36.504c0,20.165-37.344,36.503-83.406,36.503
	s-83.406-16.339-83.406-36.503C173.346,333.092,210.69,316.744,256.752,316.744z"/>
<path style="fill:#BBBBBB;" d="M256.752,319.555c42.516,0,76.981,15.086,76.981,33.693c0,18.615-34.465,33.697-76.981,33.697
	s-76.981-15.082-76.981-33.697C179.77,334.642,214.236,319.555,256.752,319.555z"/>
<path style="fill:#FFFFFF;" d="M182.836,362.683l0.773,0.013l3.478-23.133l-0.705,0.009c0.268-0.263,0.539-0.527,0.828-0.786l0,0
	c0.794-0.735,1.652-1.452,2.565-2.153l-0.034,0.221l6.755-0.123l0.514-4.73c0.773-0.412,1.563-0.819,2.378-1.219l-0.65,5.911
	l7.286-0.136l0.994-9.019c0.764-0.293,1.541-0.569,2.327-0.836l-1.078,9.817l7.29-0.136l1.312-11.961
	c0.76-0.195,1.533-0.395,2.31-0.582l-1.376,12.505l7.29-0.136l1.533-13.974c0.752-0.14,1.516-0.276,2.284-0.403l-1.575,14.339
	l7.286-0.132l1.681-15.282c0.752-0.089,1.507-0.174,2.267-0.255l-1.698,15.494l7.681-0.14l1.359-15.965
	c0.747-0.047,1.495-0.089,2.255-0.127l-1.367,16.054l6.046-0.115l0.289-16.11c1.635-0.03,2.259-0.038,3.618-0.038
	c0.318,0,0.633,0.004,0.947,0.008l-0.191,16.054l6.887-0.127l-1.741-15.834c0.756,0.025,1.503,0.051,2.255,0.085l1.724,15.706
	l7.257-0.127l-1.656-15.086c0.76,0.072,1.516,0.144,2.267,0.221l1.626,14.823l7.257-0.127l-1.507-13.757
	c0.76,0.115,1.524,0.238,2.276,0.361l1.469,13.35l7.257-0.132l-1.295-11.774c0.777,0.17,1.546,0.348,2.306,0.535l1.227,11.201
	l7.257-0.136l-0.985-9.01c0.786,0.251,1.558,0.51,2.323,0.764l0.9,8.208l7.257-0.132l-0.565-5.155
	c0.807,0.357,1.597,0.718,2.361,1.087l0.442,4.025l6.564-0.119c1.287,0.836,2.488,1.698,3.605,2.59l-0.904,0.013l4.204,27.956
	l1.308,0.017c-0.357,0.42-0.73,0.828-1.121,1.231l0,0c-0.335,0.361-0.696,0.713-1.066,1.066v0.004l-0.064,0.055l-0.021,0.017
	l-0.009,0.013l-0.03,0.03h-0.004l-0.03,0.03l-0.013,0.013l-0.017,0.013l-0.025,0.025l-0.009,0.008l-0.119,0.11l0,0
	c-0.183,0.17-0.365,0.331-0.548,0.497l-0.081-0.505l-8-0.132l0.65,5.932c-0.688,0.395-1.393,0.79-2.115,1.176l-0.786-7.142
	l-7.282-0.115l1.151,10.484c-0.705,0.289-1.422,0.573-2.153,0.845l-1.248-11.367l-7.286-0.119l1.529,13.859
	c-0.722,0.212-1.444,0.425-2.174,0.628l-1.597-14.526l-7.282-0.115l1.796,16.39c-0.722,0.153-1.452,0.306-2.187,0.454l-1.86-16.882
	l-7.286-0.119l2.013,18.245c-0.735,0.106-1.469,0.212-2.212,0.31l-2.042-18.589l-7.282-0.119l2.14,19.515
	c-0.739,0.064-1.478,0.123-2.221,0.178l-2.17-19.732l-10.687-0.174l-0.238,20.407c-4.794,0.161-0.2,0.166-4.972-0.068l0.365-20.415
	l-8.085-0.132l-1.707,20.037c-0.747-0.068-1.482-0.14-2.221-0.221l1.69-19.855l-8.411-0.132l-2.076,18.921
	c-0.739-0.11-1.478-0.221-2.204-0.352l2.047-18.606l-7.261-0.119l-1.906,17.354c-0.739-0.166-1.465-0.331-2.182-0.505l1.851-16.882
	l-7.257-0.119l-1.664,15.095c-0.726-0.225-1.452-0.45-2.17-0.684l1.588-14.445l-7.257-0.119l-1.312,11.982
	c-0.726-0.297-1.439-0.611-2.14-0.921l1.214-11.099l-7.257-0.115l-0.841,7.664c-0.726-0.429-1.422-0.866-2.102-1.312l0.705-6.386
	l-7.885-0.127l-0.076,0.501c-0.157-0.17-0.314-0.34-0.463-0.514l0,0C184.135,364.491,183.439,363.595,182.836,362.683z
	 M185.846,362.734l7.775,0.123l2.573-23.464l-6.853,0.123L185.846,362.734z M195.863,362.895l7.257,0.119l2.616-23.799l-7.29,0.136
	L195.863,362.895z M205.361,363.048l7.257,0.119l2.645-24.126l-7.286,0.132L205.361,363.048z M214.856,363.201l7.257,0.115
	l2.688-24.445l-7.286,0.132L214.856,363.201z M224.346,363.358l7.265,0.115l2.722-24.776l-7.291,0.132L224.346,363.358z
	 M233.848,363.511l8.344,0.136l2.136-25.137l-7.749,0.14L233.848,363.511z M244.425,363.68l7.91,0.127l0.463-25.447l-6.225,0.11
	L244.425,363.68z M257.172,363.888l10.356,0.166l-2.841-25.91l-7.206,0.127L257.172,363.888z M269.774,364.092l7.291,0.115
	l-2.887-26.236l-7.257,0.132L269.774,364.092z M279.307,364.245l7.282,0.119l-2.917-26.568l-7.252,0.132L279.307,364.245z
	 M288.839,364.398l7.286,0.119l-2.96-26.895l-7.252,0.132L288.839,364.398z M298.367,364.551l7.282,0.123l-2.985-27.226
	l-7.257,0.132L298.367,364.551z M307.9,364.704l7.286,0.123l-3.032-27.553l-7.252,0.132L307.9,364.704z M317.428,364.861
	l7.898,0.132l-4.195-27.88l-6.73,0.119L317.428,364.861z"/>
<path style="fill:#F3501E;" d="M226.218,368.05c-8.611-2.306-14.585-7.953-13.333-12.611c1.248-4.654,9.244-6.56,17.855-4.25
	c4.255,1.146,31.064,11.112,31.064,14.492c0,4.497-6.31,8.14-14.101,8.14C244.527,373.82,231.381,369.438,226.218,368.05z"/>
<g>
	<g>
		<path style="fill:#FFFFFF;" d="M224.893,308.745c-22.504-24.22,8.059-30.049-4.615-51.114
			C243.398,271.948,219.271,283.476,224.893,308.745z"/>
		<path style="fill:#FFFFFF;" d="M254.794,292.249c-22.508-24.215,8.059-30.045-4.615-51.106
			C273.299,255.461,249.168,266.985,254.794,292.249z"/>
		<path style="fill:#FFFFFF;" d="M281.107,309.611c-22.5-24.22,8.063-30.049-4.611-51.11
			C299.616,272.814,275.494,284.343,281.107,309.611z"/>
	</g>
	<path style="fill:#FF8964;" d="M230.316,369.239c-7.019-6.288-2.989-12.534-3.669-18.84c1.329,0.153,2.701,0.42,4.093,0.79
		c0.268,0.072,0.628,0.187,1.066,0.318c0.569,5.1-0.896,11.677,2.48,18.929C232.901,370.02,231.555,369.612,230.316,369.239z
		 M241.024,354.832c1.758,0.684,3.605,1.414,5.448,2.178c0.836,4.501-0.493,10.314,1.418,16.81h-0.187
		c-0.968,0-2.862-0.408-5.172-1.011C238.854,366.823,242.909,360.861,241.024,354.832z"/>
</g>
<path style="fill:#F3501E;" d="M278.496,331.054c8.615,2.306,14.585,7.957,13.337,12.611c-1.248,4.654-9.239,6.56-17.855,4.25
	c-4.255-1.142-31.073-11.108-31.073-14.492c0-4.492,6.318-8.14,14.11-8.14C260.191,325.283,273.341,329.669,278.496,331.054z"/>
<path style="fill:#FF8964;" d="M274.398,329.869c7.023,6.288,2.989,12.534,3.673,18.84c-1.333-0.157-2.705-0.425-4.093-0.794
	c-0.272-0.072-0.633-0.183-1.07-0.323c-0.569-5.091,0.904-11.672-2.475-18.925C271.817,329.083,273.167,329.491,274.398,329.869z
	 M263.694,344.276c-1.758-0.688-3.609-1.418-5.448-2.182c-0.841-4.497,0.497-10.318-1.414-16.81h0.183
	c0.964,0,2.858,0.412,5.167,1.015C265.855,332.281,261.804,338.242,263.694,344.276z"/>
<g>
</g>
<g>
</g>
<g>
</g>
<g>
</g>
<g>
</g>
<g>
</g>
<g>
</g>
<g>
</g>
<g>
</g>
<g>
</g>
<g>
</g>
<g>
</g>
<g>
</g>
<g>
</g>
<g>
</g>
</svg>
