<?xml version="1.0" encoding="iso-8859-1"?>
<!-- Generator: Adobe Illustrator 19.0.0, SVG Export Plug-In . SVG Version: 6.00 Build 0)  -->
<svg version="1.1" id="Layer_1" xmlns="http://www.w3.org/2000/svg" xmlns:xlink="http://www.w3.org/1999/xlink" x="0px" y="0px"
	 viewBox="0 0 512 512" style="enable-background:new 0 0 512 512;" xml:space="preserve">
<g>
	<g>
		<path style="fill:#BBBBBB;" d="M255.997,0C397.385,0,512,114.615,512,255.997C512,397.385,397.385,512,255.997,512
			C114.615,512,0,397.385,0,255.997C0,114.615,114.615,0,255.997,0z"/>
		<path style="fill:#BBBBBB;" d="M419.056,453.36L128.169,34.151c-12.121,7.003-23.615,14.974-34.38,23.802l319.509,400.02
			C415.235,456.465,417.16,454.927,419.056,453.36z M317.02,7.337c14.98,3.669,29.449,8.64,43.267,14.81l92.497,397.59
			c-2.213,2.647-4.473,5.259-6.786,7.825L317.02,7.337z M451.605,90.872c12.65,14.968,23.62,31.404,32.601,49.019l-1.538,235.165
			c-3.41,6.469-7.067,12.79-11,18.924L451.605,90.872z M433.813,440.147c-1.737,1.679-3.487,3.334-5.271,4.966L192.796,7.872
			c12.368-3.14,25.094-5.377,38.107-6.645L433.813,440.147z"/>
	</g>
	<path style="fill:#F9F9F9;" d="M40.326,393.974l218.289,117.99c2.964-0.029,5.917-0.106,8.852-0.235L1.467,228.538
		C0.505,237.56,0,246.723,0,255.997C0,306.813,14.804,354.159,40.326,393.974z M256.684,0.012
		c42.328,0.112,82.231,10.495,117.362,28.786l-94.834,482.14l-2.583,0.229L256.684,0.012z M454.105,93.865
		c26.18,31.944,44.77,70.339,53.058,112.432L285.534,510.292c-1.285,0.153-2.559,0.299-3.851,0.429L454.105,93.865z M501.411,329.03
		c-28.181,94.822-109.796,166.634-209.954,180.51L501.411,329.03z M274.546,511.325c-1.25,0.088-2.506,0.164-3.763,0.241
		L36.616,124.007c28.187-46.742,70.896-83.74,121.876-104.766L274.546,511.325z"/>
</g>
<path d="M172.21,120.438L183.809,119l-10.219,4.173c-0.018,0.029-0.041,0.17-0.053,0.205c-0.405,0.91,2.477,0.07-1.074,1.115
	c-2.806,0.822-4.25,1.01-6.874,1.896c-2.131,0.716-5.394,1.667-6.932,2.683l11.27-1.08c-2.97,1.632-6.445,2.242-9.867,3.61
	c-1.655,0.669-3.311,1.239-4.919,1.808c-3.633,1.297-6.357,2.929-9.544,4.931c-1.808,1.139-3.405,1.52-4.966,2.518
	c-2.019,1.285-5.676,7.243-6.797,9.82c3.698-4.009,9.357-8.699,14.276-11.17l1.426-0.61c-1.708,1.937-3.522,2.97-5.148,4.901
	c0.775-0.769,4.625-3.088,5.882-3.851c1.303-0.781,1.679-1.104,3.281-1.978c0.763-0.411,0.763-0.481,1.462-0.892l2.225-0.886
	c-3.24,3.857-9.398,6.856-12.949,11.493c2.137-0.628,3.88-2.066,5.981-3.099c4.385-2.154,14.81-6.903,19.212-7.76
	c-3.892,2.154-11.053,5.67-14.422,8.752c4.737-0.258,9.486-2.019,14.27-2.459c5.694-0.522,9.685-0.728,14.956,0.458
	c-3.076-0.863-18.878,2.248-21.542,3.422c5.741,0.487,24.818-6.821,32.695,2.542c-5.289-2.225-9.615-3.915-14.686-2.43
	c9.944,3.622,20.627,9.092,27.917,16.359c-5.171-4.59-16.717-9.603-23.914-11.346c-2.994-0.722-6.979-0.675-8.611-1.039
	c4.391,2.189,16.764,5.318,20.269,8.623c-0.106-0.129-1.015-0.569-2.225-0.922l0.886,1.239c-3.498-1.379-4.555-2.753-9.251-3.862
	c1.08,1.467,9.756,6.081,10.783,6.445c-6.551-2.189-21.325-9.227-27.753-7.895c5.083,1.644,19.236,4.866,22.364,7.836
	c-4.802-1.303-13.929-3.692-18.866-3.786l7.29,3.868l-10.032-2.964l5.852,3.164c-2.354-0.417-4.532-1.227-6.768-1.755
	c-3.903-0.927-4.526-1.209-6.516-0.828l6.152,2.09l-7.326-0.669l5.453,2.683c-0.123,0.029-0.288-0.076-0.399,0.065l-8.024-1.186
	c-2.172-0.264-6.034-0.241-7.49-0.481l9.949,4.872c-3.903-0.47-8.288-2.506-11.804-2.201l7.83,3.393
	c-2.947-0.229-6.263-1.655-9.175-0.992l3.851,1.526l-5.529,0.082c-2.101-0.059-4.132-0.047-5.934,0.229l4.526,1.955
	c0,0.006-0.053,0.006-0.065,0.029c14.499,3.68,20.909,5.113,33.4,14.798c7.273,5.635,13.818,12.215,19.787,19.177l2.319,3.475
	c-2.894-1.931-8.042-7.648-11.37-10.56c-2.113-1.843-10.155-8.476-12.515-9.157c0.875,0.522,1.685,2.184,2.589,3.27
	c3.504,4.209,5.882,4.49,9.345,11.211c2.712,5.259,6.304,11.206,6.592,17.692c-2.718-5.124-4.402-10.548-8.711-14.986
	c0.288,2.078,0.734,2.63,0.822,4.802c-0.088-0.112-0.153-0.423-0.223-0.352l-2.371-2.853c-0.487-0.288-0.499-0.552-0.775-1.127
	c-2.483-5.201-7.496-14.041-12.526-17.287c1.914,4.684,6.005,7.695,8.793,17.334c-1.086-2.407-6.915-12.233-9.838-14.141
	c1.356,1.062,4.919,9.151,5.218,11.775c-2.63-3.446-4.737-10.918-11.904-16.318c2.189,3.78,5.799,7.355,6.158,11.523
	c-2.894-4.074-9.486-14.422-15.96-16.582c3.498,1.121,11.388,11.071,12.086,14.733c-3.17-3.463-5.788-7.889-10.707-10.818
	c2.653,4.449,10.014,10.965,11.904,17.334c-3.358-4.262-8.053-11.376-12.978-15.062l3.164,4.391c0.112,0.182,0.475,0.839,0.54,0.969
	c0.405,0.863,0.176,0.182,0.452,1.168c-1.779-1.415-1.978-2.301-3.815-3.686c0.276,0.628,0.135,0.411,0.575,1.092
	c0.399,0.622,0.493,0.693,0.892,1.186l4.537,6.621c2.078,3.892,3.193,5.165,4.602,9.779c-0.763-0.91-3.381-5.547-3.833-6.668
	l-0.599,0.1c-0.023,0.006-0.153,0.029-0.176,0.035c-2.066,0.34,1.462,0.517-0.393,0.047c-1.315-2.677-7.061-9.451-10.824-11.581
	l8.095,9.85c1.01,1.362,2.019,2.465,2.501,4.08c-4.038-3.416-7.76-8.805-12.309-12.72c-3.745-3.217-11.041-8.787-16.224-10.079
	c5.976,2.049,25.651,21.824,29.15,30.148c-4.614-4.473-16.172-19.523-22.599-21.76c3.158,0.904,10.519,10.296,12.955,13.618
	c1.368,1.861,2.008,3.727,3.657,5.142c5.342,4.59,9.996,8.57,14.581,13.636c4.919,5.436,3.909,2.606,8.599,9.65
	c1.162,1.749,2.148,3.522,3.299,5.342c4.807,7.578,9.585,16.723,12.127,25.329c0.863,2.911,2.066,5.788,2.389,8.846
	c0.059-1.139-0.669-2.354-1.109-3.68c-1.614-4.913-1.509-2.389-2.624-4.849c-3.311-7.296-7.93-13.812-13.213-19.723
	c0.804,1.391,1.661,3.14,2.688,4.802c2.436,3.939,5.43,12.761,6.463,17.322c1.438,6.375,3.851,18.561,2.471,26.033
	c-1.186-4.948-1.086-18.848-5.418-26.855c-0.141,6.187,1.702,14.375-0.07,21.255c-0.176-7.079-1.849-27.289-5.852-34.221
	c-0.704-1.215,0-0.305-0.992-1.332c-0.023,4.449,5.999,21.818,2.923,34.691c0.863-10.871-2.266-22.323-5.224-32.49
	c-0.276-0.951-0.205-1.209-0.663-2.324l-1.456-2.313c0.059,7.954,3.581,15.397,1.861,24.742c-0.217-0.81,0,0.581-0.241-1.174
	c-0.816-5.987-0.775-12.004-2.295-17.856l-1.315-2.823c-0.434,4.044,1.737,11.129,0.751,16.13c0.558-1.239-0.37-4.784-0.616-6.557
	c-0.153-1.109-0.317-2.119-0.528-3.223c-0.264-1.438-0.276-2.366-0.47-3.639c-0.511-3.322-1.767-6.322-2.571-9.58
	c-0.141-0.564-0.235-1.197-0.428-1.726l-0.904-1.714c0.188,7.173,4.138,21.56,1.79,33.135c1.092-4.69-0.957-15.972-2.236-21.02
	c-0.986-3.874-1.902-8.605-3.381-12.297c-0.182,3.275,0.939,9.404,0.329,12.08c-0.64-0.035,0.886,0.323-0.205-0.546
	c-1.233-1.004,0.652-0.745-0.957-0.358c0.135,2.542,0.616,6.386,0.082,9.251c-0.734-4.42-0.74-9.11-1.303-13.536
	c-0.446-3.557-1.661-10.114-2.712-13.014c-0.053,3.275,1.808,10.096,0.64,11.904c-0.91,1.403,0.217,9.374-0.792,13.266
	c-0.258-1.673-0.288-4.843-0.293-6.721c-0.029-6.357-2.054-13.225-3.281-19.071l-0.452,5.524c-0.657,5.811,0.593,12.585-0.663,19.03
	c-0.035-0.135-0.029-0.458-0.082-0.399c-0.053,0.059-0.07-0.305-0.082-0.393c-1.268-9.539,1.021-16.964-4.402-28.88
	c0.188,7.866,3.164,19.335,1.626,27.289c-1.027-8.265-1.62-22.675-5.43-27.993c0.076,6.034,1.872,14.422,0.581,20.797
	c-0.517-4.866-0.781-10.055-1.644-14.98c-0.616-3.504-3.24-12.385-3.264-14.769c-0.599,0.54-0.323,0.088-0.757,1.227
	c-0.64,1.679,0.382,3.146,0.616,4.807c0.376,2.641-0.299,0.464-0.194,2.794c0.258,5.653,1.966,12.89,0.916,18.566
	c-0.904-3.997-1.068-10.096-1.931-14.575c-0.282-1.426-0.323-3.874-1.268-5.06c-0.023-0.029-0.129-0.117-0.158-0.141l-0.37-0.129
	c-1.127-0.558-2.542-4.837-3.369-6.169c0.176,3.874,0.963,12.057,0.147,15.866c-2.389-11.757,0.558-9.292-4.537-22.476
	c-0.329-0.834-1.115-2.254-1.262-2.865c-0.264,1.884,0.646,6.199,1.115,8.376c0.47,2.154,0.616,6.034,1.01,8.811
	c0.517,3.669,1.503,14.416,0.845,18.038c-0.558-4.127-0.939-8.306-1.644-12.591c-0.599-3.622-1.462-9.703-2.671-12.62
	c-0.376,2.894-0.112,6.968-0.335,10.255c-0.229,3.381-0.505,7.942-1.286,11.182c-1.209-8.1,0.892-16.383-1.773-26.649
	c-1.062,6.533-0.252,15.467-1.814,22.388l-0.364-2.025c-0.652-5.113-1.837-25.305-4.22-28.263
	c-0.211,4.443,0.616,9.902,0.552,15.021c-0.065,4.743-0.188,11.822-1.426,16.553c-0.059-0.141-0.065-0.493-0.129-0.429
	l-0.487-16.265c-0.429-5.623-1.297-10.531-2.137-15.731l-0.106,13.266c-0.599-0.329-0.687-1.28-0.81-1.831l-0.963-6.093
	c-0.428-2.741-0.528-5.136-1.274-7.93c-16.758,63.753-48.033,112.796-81.914,165.39c-2.536-4.984-4.907-10.055-7.114-15.221
	c34.163-45.615,68.46-99.565,79.284-155.634c-3.475,2.049-11.904,5.987-13.847,10.337c-2.829,6.339-4.203,12.62-6.533,19.013
	c0.558-3.504,3.07-11.881,2.618-14.751c-4.226,7.66-5.207,14.182-8.171,22.047l2.424-12.256l-3.821,9.004
	c-0.534-5.835,7.361-19.001,9.474-25.464c-5.641,7.161-8.494,17.011-12.133,26.027c-0.311-4.355,3.457-12.661,4.614-17.475
	c-3.616,6.111-3.945,7.308-6.521,13.19l2.166-8.729c-2.553,2.706-6.31,12.697-8.024,17.04c1.579-6.938,4.602-13.806,7.079-20.192
	l-1.015,0.845c-3.463,3.686-8.423,14.816-10.29,19.294c0.546-0.945,2.125-6.287,2.853-8.095c1.203-3.011,2.571-5.741,3.669-8.74
	c-4.273,3.857-6.433,14.152-9.873,19.224c1.914-6.75,4.367-13.465,7.654-19.629c0.669-1.25,2.013-3.088,2.307-4.62
	c0.481-2.524,0.34-0.622-0.106-1.878c-2.677,4.766-5.729,9.04-8.658,14.733c-2.677,5.183-5.4,11.112-7.607,16.588
	c0.012-0.012,6.956-18.596,7.455-20.292c-1.685,3.199-9.063,16.224-8.94,19.259c1.814-7.83,3.992-12.714,6.938-19.916
	c-4.972,3.487-13.149,24.988-14.839,29.578c0.387-5.318,3.475-11.464,5.013-16.817c-0.522,1.52-5.242,12.644-6.563,13.841
	c2.107-7.29,5.042-13.436,7.466-20.322c-3.305,1.209-7.496,12.427-9.286,16.4c-0.446,0.992-0.798,1.867-1.186,2.818
	c-1.409,3.446-0.035,1.514-1.784,3.082l5.207-15.168c-0.047,0.112-0.153,0.129-0.252,0.317c-0.094,0.194-0.229,0.223-0.288,0.305
	c-2.565,3.076-8.629,18.519-12.556,25.141l7.472-20.31c-5.4,3.61-9.721,16.535-12.532,23.767c0.669-5.365,3.111-10.724,4.884-15.913
	c-2.16,2.413-8.652,17.075-8.993,20.556l2.647-10.718c-2.166,2.242-3.164,6.093-4.895,8.764l4.162-11.476
	c-2.324,3.035-4.443,6.533-6.404,10.155c-1.855,3.44-3.898,8.875-5.729,11.64c4.121-13.477,7.138-16.307,11.969-27.266
	c-2.307,1.732-11.857,13.97-13.73,17.064c3.205-7.742,9.421-15.109,12.697-21.965l-5.477,3.804l2.606-3.405
	c3.997-4.995,9.779-9.421,13.689-14.17c-3,1.403-5.529,3.293-8.118,5.154l-2.06,1.409c-0.675,0.346-0.382,0.2-1.109,0.452
	c1.514-1.872,3.592-2.782,4.737-4.156c2.524-3.035-1.673,2.019,0.229-1.338c0.47-0.828,1.426-1.262,2.342-1.996
	c3.088-2.495,6.909-4.984,9.468-7.842c-2.859,1.08-4.743,3.581-7.478,5.048c-0.106,0.053-0.288,0.129-0.376,0.17
	c-0.082,0.041-0.247,0.123-0.376,0.176c2.741-3.545,7.936-8.012,11.317-10.472c2.712-1.972,1.661-3.158,5.723-5.606
	c6.48-3.898,13.031-8.018,20.075-11.006l13.53-6.116c-4.937,0.834-10.026,2.941-15.062,3.639c0.998-0.998,0.018-0.294,1.327-0.992
	c0.599-0.323,0.657-0.258,1.344-0.505c1.186-0.44,1.79-0.804,2.865-1.186c4.872-1.737,11.722-4.672,16.794-5.406
	c-4.367-0.182-9.081,2.084-13.019,2.342c1.861-1.239,3.387-2.242,4.772-4.08c-1.197,0.546-2.87,1.532-3.992,2.483l3.193-4.074
	c-1.702,0.323-6.656,3.651-8.177,5.858c-0.012-0.123,0.065-0.423,0.041-0.358l0.176-1.01c0.205-0.875,0.252-0.023,0.317-1.145
	l-5.389,5.336c1.291-3.322,4.068-6.081,5.823-8.887c-2.272,1.215-12.632,9.867-14.716,12.491l2.559-4.033
	c-3,2.577-10.032,9.486-11.892,13.237c0.845-1.409,1.614-3.498,2.542-5.13c1.127-1.978,2.506-3.721,3.44-5.653
	c-0.769,0.487-1.826,1.286-2.571,1.914c1.591-3.217,4.408-5.835,6.375-8.582c-5.993,2.489-11.863,9.345-15.884,14.634
	c-1.573,2.072-2.923,4.866-4.579,6.815c0.652-2.548,2.072-4.667,3.07-6.973l0.364-2.418l-7.249,8.588
	c1.233-3.851,6.968-11.681,9.533-14.686c4.285-5.036,7.472-7.49,11.881-11.135c5.218-4.314,7.185-5.259,13.107-7.913
	c2.542-1.139,4.291-2.072,6.991-3.07l5.529-1.808c2.43-1.397-0.475,0.828,0.34-0.358c0.006-0.018,0.053-0.117,0.059-0.129
	l11.681-1.156c-2.606-2.231-6.674-2.342-9.832-3.493c-0.112-0.041-0.241-0.094-0.346-0.141c-0.1-0.047-0.241-0.123-0.329-0.17
	l-0.605-0.405c5.477,0.423,8.042,1.25,13.601,2.829c-7.883-5.124-18.109-6.433-26.467-6.809c4.091-0.1,9.333-0.493,13.835,0.17
	c0.88,0.129,1.767,0.37,2.518,0.475l2.747-0.018c-8.024-3.082-14.992-3.909-22.446-4.379c3.592,0.276,13.031-0.88,16.97,0.564
	c-7.466-3.557-13.718-2.231-20.104-3.51c5.488-0.751,9.134-0.61,15.009-0.158c-4.79-4.573-15.185-3.557-20.556-3.381l9.404-1.491
	c-5.025-2.16-10.754-3.774-15.72-3.352l0.317-0.957l2.495-0.622c-8.547-3.322-14.927-4.279-22.176-4.849l0.464-0.992
	c6.204-0.252,11.106,0.27,19.793,1.861c-4.291-3.493-11.605-4.79-17.774-5.934l0.622-1.256c7.754,0.675,17.962,4.813,24.477,7.103
	c-4.485-4.015-15.256-6.703-21.56-9.104l1.274-0.059c5.036,0.434,10.214,3.093,15.027,4.021c-3.768-3.046-10.836-5.465-15.919-7.314
	c6.152,2.16,7.05,0.569,19.717,6.204c5.623,2.506,12.567,7.443,17.181,9.216c-2.888-1.708-8.106-6.152-12.203-8.717
	c-3.915-2.448-10.994-5.664-14.158-7.995c5.007,1.62,11.276,4.702,15.766,7.214c3.974,2.231,10.636,6.58,14.135,8.083L53.95,135.26
	c10.167,4.156,20.697,14.563,28.61,19.065c-3.117-3.422-13.178-13.788-17.762-15.303c4.185,1.368,10.255,6.069,13.536,8.758
	c4.308,3.516,7.308,7.161,10.771,10.261c-1.814-2.489-9.632-12.685-12.468-14.064c7.66,3.956,14.909,14.628,20.057,21.079
	c-0.687-5.095-4.743-10.02-7.995-14.317c-0.558-0.734-1.145-1.597-1.661-2.266l-1.467-2.195c-0.053-0.088-0.135-0.252-0.2-0.387
	l6.574,5.359c1.679,1.221,4.514,3.851,6.504,4.561c-0.922-0.517-5.817-6.833-7.637-7.625c3.135,0.863,5.981,3.598,8.676,4.96
	c-1.415-1.332-2.976-3.399-4.778-5.03c-0.904-0.816-1.884-1.673-2.87-2.436c-0.505-0.393-1.004-0.687-1.556-1.156l7.918,2.958
	c-1.021-0.91-2.272-2.759-3.493-4.033l-12.526-12.18l9.497,5.471c-2.407-2.8-6.791-6.768-9.838-9.069l1.943,0.534
	c1.391,0.205,0.487,0.153,1.133,0.047c-1.644-1.156-1.467-1.485-2.759-2.606c-2.841-2.477-6.615-5.717-10.266-6.879
	c0.957-0.047,0.669,0.123,1.45,0.141c1.556,0.041,0.205,0.346,1.585-0.082c-3.451-3.557-8.494-5.283-10.883-7.196
	c6.956-0.716,18.156,7.226,23.967,10.037c-0.751-1.327-1.867-2.219-3.469-3.064c14.393,7.783,11.998,9.785,17.674,13.43
	c-0.147-1.462-1.796-4.085-2.459-4.655c2.994,1.996,5.277,5.852,6.721,9.004l2.366,5.03c0.863,2.278,1.297,3.393,2.747,5.371
	c0.135-3.786-0.963-7.261-1.538-10.296c0.828,2.143,2.307,3.974,3.187,6.586c0.704,2.096,1.421,5.835,2.448,7.478
	c1.966-7.472,2.653-13.395,5.899-20.973l-0.035,2.189l3.833-7.003l-2.16,7.713c0.112-0.082,0.276-0.37,0.276-0.294
	c-0.012,1.121,0.423-0.493,0.505-0.605l2.148-2.565l-1.262,6.827l10.624-15.039l-3.645,6.938c2.594-2.43,6.416-7.396,9.421-9.286
	c2.013-1.274-0.81-0.364,0.699-0.07c0.61,0.117,2.87-3.129,3.369-3.704l-2.436,4.895c1.608-1.297,5.083-4.502,6.351-5.846
	l-4.279,6.04l9.926-7.789c0.734-0.376,0.346-0.194,1.133-0.464c-2.947,4.05-7.807,7.795-10.448,12.432
	c1.532-0.681,2.724-1.814,4.455-2.976l13.524-8.153c0.088-0.041,0.258-0.106,0.393-0.147c-2.536,2.823-6.527,5.805-9.345,8.1
	c3.093-0.605,9.497-3.528,11.769-5.136l0.012,1.52c2.184-0.945,6.539-1.972,9.157-2.236c-1.268,1.062-2.647,1.186-3.716,2.242
	c4.361-0.27,10.73-3.07,15.367-1.503C185.312,114.85,173.69,119.2,172.21,120.438z"/>
<path style="fill:#FFFFFF;" d="M215.853,38.771c19.635,0,35.548,15.919,35.548,35.548c0,19.635-15.913,35.548-35.548,35.548
	s-35.548-15.913-35.548-35.548C180.305,54.69,196.218,38.771,215.853,38.771z"/>
<path style="fill:#E5E5E5;" d="M184.889,91.793c-2.189-3.868-3.675-8.188-4.279-12.785c3.311,1.197,5.67,4.367,5.67,8.095
	C186.281,88.835,185.77,90.443,184.889,91.793z M207.993,51.256c-2.307,0-4.185-1.872-4.185-4.185c0-2.307,1.878-4.179,4.185-4.179
	c2.313,0,4.185,1.872,4.185,4.179C212.178,49.383,210.306,51.256,207.993,51.256z M190.748,59.016c2.571,0,4.661,2.084,4.661,4.661
	c0,2.571-2.09,4.655-4.661,4.655c-2.571,0-4.661-2.084-4.661-4.655C186.087,61.1,188.176,59.016,190.748,59.016z M206.508,70.227
	c-2.6,0-4.708-2.107-4.708-4.708c0-2.594,2.107-4.702,4.708-4.702s4.708,2.107,4.708,4.702
	C211.216,68.12,209.108,70.227,206.508,70.227z M227.863,54.795c-2.313,0-4.185-1.872-4.185-4.185c0-2.313,1.872-4.185,4.185-4.185
	c2.307,0,4.185,1.872,4.185,4.185C232.048,52.923,230.17,54.795,227.863,54.795z M221.195,72.487c-2.313,0-4.185-1.878-4.185-4.185
	c0-2.313,1.872-4.185,4.185-4.185c2.313,0,4.185,1.872,4.185,4.185C225.38,70.609,223.507,72.487,221.195,72.487z M241.921,50.158
	c3.522,3.798,6.228,8.365,7.825,13.424c-0.933,0.393-1.961,0.616-3.046,0.616c-4.326,0-7.83-3.51-7.83-7.836
	C238.869,53.839,240.066,51.59,241.921,50.158z M237.384,79.185c-2.307,0-4.179-1.872-4.179-4.185c0-2.307,1.872-4.185,4.179-4.185
	c2.313,0,4.185,1.878,4.185,4.185C241.569,77.312,239.696,79.185,237.384,79.185z M238.751,95.614c-2.319,0-4.185-1.872-4.185-4.179
	c0-2.313,1.867-4.185,4.185-4.185c2.307,0,4.179,1.872,4.179,4.185C242.931,93.742,241.058,95.614,238.751,95.614z M222.627,101.995
	c-2.307,0-4.179-1.872-4.179-4.185c0-2.307,1.872-4.179,4.179-4.179c2.313,0,4.185,1.872,4.185,4.179
	C226.812,100.122,224.94,101.995,222.627,101.995z M218.459,85.571c-1.092,0-1.972-0.88-1.972-1.972s0.88-1.972,1.972-1.972
	s1.978,0.88,1.978,1.972S219.551,85.571,218.459,85.571z M205.275,97.692c-2.313,0-4.185-1.878-4.185-4.185
	c0-2.313,1.872-4.185,4.185-4.185c2.307,0,4.185,1.872,4.185,4.185C209.461,95.814,207.582,97.692,205.275,97.692z M196.6,79.185
	c1.35,0,2.448,1.098,2.448,2.448c0,1.356-1.098,2.454-2.448,2.454s-2.454-1.098-2.454-2.454
	C194.146,80.282,195.25,79.185,196.6,79.185z"/>
<path d="M143.736,264.831c-4.526-0.076-8.2,3.052-11.951,5.183c-1.18,0.839-2.008,2.09-3.322,2.776
	c-1.145,0.593-0.951-0.047-1.855-0.704c-1.403,0.006-2.143,0.922-3.181,1.655c-8.928,6.386-12.121,18.156-16.119,27.964
	c-4.402,10.83-8.775,22.041-10.642,33.634c-0.751,4.631,0.798,6.005,4.942,7.425c4.567,1.567,9.304,2.418,14.105,2.818
	c5.588,0.464,11.165,0.317,16.758,0.211c3.821-0.241,10.161-2.16,12.855,0.969c2.923,3.657,2.189,8.905,2.911,13.295
	c0.834,5.048,1.978,8.981,5.882,12.473c1.919,1.726,3.557,3.54,5.189,5.529c1.45,1.737,2.606,4.038,4.132,5.5
	c3.581,3.405,8.394,5.717,11.399,9.703c1.943,2.589,3.117,6.105,3.739,9.245c1.027,5.3-2.577,9.069-6.246,12.432
	c-3.821,4.438-8.03,8.623-10.848,13.818c0.094,0,0.188,0,0.276,0c-0.1,0.223-0.282,0.364-0.552,0.411
	c0.07-0.117,0.141-0.229,0.205-0.346c-0.065-0.023-0.135-0.047-0.205-0.065c0,1.784-2.407,4.068-3.316,5.524
	c-1.761,2.917-3.522,5.835-5.277,8.758c-3.328,5.535-6.316,11.2-9.21,16.982c-2.665,5.318-5.077,9.163-3.774,15.232
	c0.704,3.264,1.327,6.51,1.914,9.779c9.163,4.584,18.643,8.64,28.393,12.121c-0.387-2.424-0.863-4.831-1.597-7.238
	c-0.734-2.395-3.005-7.566-1.467-9.973c7.877-7.778,16.013-15.25,23.761-23.116c7.701-7.819,16.418-15.256,23.245-23.867
	c3.51-4.443,6.698-10.073,6.498-15.884c-0.217-6.134-1.344-11.986-3.481-17.751c-2.09-5.623-4.966-10.912-8.2-15.96
	c-2.729-4.267-0.54-8.306-1.379-13.09c-1.039-5.87-6.04-10.484-9.773-14.798c-1.925-2.213-4.555-4.314-5.923-6.897
	c-1.573-2.958-3.164-5.893-4.931-8.734c-3.399-5.482-7.085-9.668-12.591-13.049c-2.665-1.649-5.042-3.598-7.778-5.154
	c-2.941-1.667,1.321-4.127,3.252-4.796c-0.094,0.775-1.18,1.685-1.18,2.283c2.477,0.158,3.628-0.81,4.696-3.14
	c1.098-2.407,2.389-4.737,3.616-7.091c1.133-2.172,2.09-3.146,3.945-4.661c1.667-1.362,1.849-3.058,0.869-4.919
	c-0.845-1.591-2.096-3.158-2.413-4.96c-0.364-2.072-2.401-2.571-3.346-4.279c-1.074-1.937-2.776-1.268-4.291-2.589
	c-1.409-1.227-3.581-0.587-4.749-1.497c-0.992-0.775-1.955-1.602-2.906-2.43c-1.35-1.186-0.023-1.884,0.569-2.982
	c0.417-2.724,2.776-8.306-2.219-8.077c-2.577,0.112-6.891,2.882-9.18,0.951C149.758,270.748,147.774,266.557,143.736,264.831
	C139.703,264.761,147.058,266.258,143.736,264.831z M427.45,446.093c-8.253,7.449-16.993,14.358-26.168,20.691
	c0.282-1.057,0.634-2.101,1.062-3.129c1.086-2.612,3.581-4.719,2.724-7.678c-1.473-5.107-5.183-9.386-8.64-13.507
	c-0.352,3.264-1.15,6.158-2.97,6.351c-1.779-1.802,2.154-5.735,0.293-7.596c-1.186,0.992-1.62,2.577-2.935,3.604
	c-1.72,1.344-3.915,2.213-6.105,2.36c-1.015-1.415-1.925-1.861-0.569-3.363c1.039-1.168,2.166-0.916,3.199-1.914
	c1.843-1.779,2.272-4.989,2.277-7.414c-0.74-0.023-0.006,3.041,0,0c-1.426-0.041-1.696-0.728-1.479-1.632
	c-0.481-0.247-0.98-0.405-1.491-0.423c-3.487-0.141-1.397-2.424-2.383-4.438c-1.004,0.845-2.013,1.691-3.023,2.536
	c-1.638-1.133-3.211-2.706-3.669-4.708c0-2.101-0.37-3.117-0.98-5.007c-0.722-2.242,1.597-4.637,1.691-6.897l0.194-4.89
	c-0.299-0.305-0.605-0.593-0.904-0.875c-0.493-0.458-0.963-0.927-1.421-1.409c-0.123,0.135-0.247,0.305-0.376,0.517
	c-0.616-0.528-0.751-1.068-0.622-1.585c-2.377-2.636-4.52-5.5-7.009-8.059c-3.316-3.393-7.038-6.193-10.824-9.028
	c-1.297-0.963-2.266-0.763-3.845-0.816c-0.998-0.898-1.99-1.796-2.982-2.694c-1.092-0.217-2.178-0.452-3.27-0.675
	c-0.734-0.657-1.444-1.526-2.377-1.896c-9.627-3.745-16.565,6.187-21.231,13.09c-2.847,4.209-5.676,7.866-9.163,11.534
	c-4.062,4.273-7.343,9.128-11.54,13.319c-2.641,5.242-5.57,10.419-7.637,15.907c-1.544,4.08-3.798,7.543-6.51,10.965
	c-1.051,1.332-2.172,2.759-3.54,3.792c-0.957,0.646-1.919,1.285-2.882,1.919c-0.029,1.28-0.065,2.565-0.094,3.851
	c-1.039,0.487-2.278,0.235-3.369,0.376c-0.663,1.004-1.115,1.714-2.066,2.454c-2.078,1.638-2.289,4.995-3.716,7.22
	c-2.483,3.862-7.455,8.095-8.529,12.603c-0.399,1.649-0.211,3.534-1.732,4.672c-1.309,0.969-0.863,1.104-0.458,2.718
	c0.252,1.021,0.528,2.078,1.027,3.017c1.509-1.004,3.845,4.579,5.083,5.753c2.624,2.489,4.749,5.171,7.056,7.948
	c1.978,2.377,4.015,4.702,5.999,7.073c-8.4,0.834-16.923,1.268-25.552,1.268c-3.246,0-6.474-0.076-9.691-0.205
	c-0.211-0.534-0.546-0.98-1.062-0.98c-0.258,0.1,0.129,0,0,0l0,0c-0.716,0.276-0.951,0.593-0.904,0.91
	c-10.401-0.47-20.644-1.556-30.694-3.234c-2.002-8.476-3.992-16.976-6.404-25.323c-1.691-5.846-5.829-15.655-2.518-21.484
	c2.624-4.625,6.527-8.77,9.767-12.978c3.704-4.825,7.625-9.462,11.435-14.205c7.883-9.116,18.285-14.622,27.054-22.681
	c2.025-1.867,4.003-3.622,5.729-5.77c1.726-2.178,4.573-3.622,6.844-5.207c1.914-1.332,4.132-2.137,5.447-4.127
	c1.479-2.231,2.389-4.843,3.099-7.408c0.693-2.524,0.769-5.148,1.415-7.678c0.564-2.201,2.583-2.448,3.275-4.326
	c1.303-3.516-2.888-5.794-5.477-7.02c-4.127-1.949-8.241-3.945-12.339-5.981c-5.324-2.647-9.128-6.433-13.753-10.079
	c-2.835-2.225-7.666-4.919-5.758-9.11c1.972-4.297,6.163-8.335,9.433-11.599c2.26-2.248,4.537-4.485,6.762-6.768
	c2.002-2.037,3.757-2.882,4.432-5.817c0.587-2.559,1.62-4.232,3.739-5.829c1.104-0.839,1.027-0.704,1.99,0.153
	c1.702,1.509,2.195,0.751,3.997-0.27c2.841-1.602,5.782-3.041,8.758-4.379c2.964-1.344,5.025-3.692,8.329-2.313
	c1.127,0.475,2.336,0.294,3.54,0.294c1.667,0,2.594,0.534,4.074,1.233c2.847,1.35,5.735,0.293,8.705,0.787
	c5.042,0.834,9.562,1.127,11.065,6.574c0.569,2.101,0.939,4.25,1.35,6.386c0.546,2.87,3.135,0.745,5.271,1.068
	c0,1.109-0.904,2.594-1.303,3.616c-0.311,0.763-0.552,1.538-0.716,2.342c-0.64-0.041-1.151,0.176-1.538,0.675
	c1.239,2.418,5.136,2.906,6.803,5.042c2.812,3.61,4.661,7.249,6.615,11.358c1.045,2.207,2.788,7.795,5.612,7.819
	c2.06,0.018,1.826,0.2,3.029,1.649c0.564,0.675,1.473,0.599,2.231,0.916c2.277,0.974,5.136,3.98,6.733,5.899
	c1.109,1.315,2.354,0.71,3.399,1.966c0.675,0.828,1.385,1.626,2.084,2.436c0.217-0.481,0.475-0.939,0.775-1.368
	c0.44-0.634,1.004-1.203,1.691-1.544c1.168-0.587,0.745-1.626,0.787-2.894c-0.628,0.053-1.25,0.123-1.878,0.188
	c0-1.127,0.481-1.52-1.045-1.749c-1.315-0.2-2.413-0.053-3.099-1.456c0.135-3.046,3.252-0.969,5.089-0.475
	c0.434-4.397,5.524-0.886,7.789,0.065c1.896,0.787,3.187,0.299,5.113-0.158c0-2.606-1.321-1.679-2.823-3.293
	c0.217-0.446,2.072-0.569,2.542-0.657c0-2.137-4.009-1.961-4.807-3.299c0.323-1.467,2.266-1.708,3.575-2.266
	c-0.493-1.303-0.904-3.328,0.288-4.414c0,1.027,1.186,4.355,2.354,4.602c0-1.802-0.558-3.598-0.464-5.482
	c0.135-2.659,0.599-5.347,1.45-7.877c2.008-6.017,6.246-5.301,11.728-6.228c-0.628-0.963-1.174-1.902-1.462-3.035
	c0.182-0.974-0.1-1.327-0.828-1.033c-0.657,0.059-1.104-0.153-0.916-0.916c1.08-1.391-0.147-2.407,0.704-3.815
	c0.593-0.974,1.667-1.614,1.937-2.782c0.235-1.016-0.587-1.767-0.428-2.818c0.264-1.691,0.98-1.456,2.06-2.448
	c1.814-1.661,2.495-4.15,4.35-5.899c1.344-1.268,1.649-1.509,1.649-3.34c0.164-1.033,0.687-1.82-0.029-2.794
	c-1.591-2.131,0.581-3.639,0.076-5.87c-0.329-1.444,0.464-2.982,0.552-4.584c0.082-1.509,0.464-2.847,1.08-4.232
	c1.702-3.839,6.187-9.257,10.66-9.838c0.387,2.612-1.638,5.794-2.823,7.971c-1.086,1.984-4.138,5.042-3.581,7.296
	c4.473-2.418,8.629-2.553,13.272-0.293c1.503,0.74,3.334,1.796,4.056,3.399c0.798,1.761,1.749,4.954,1.315,6.68
	c0,0.687,0.452,1.28,0.757,1.884c0.082,2.002,0.282,2.354,1.726,3.739c2.06,1.984,3.299,5.142,4.708,7.625
	c1.315,2.324,2.413,4.097,2.518,6.797c0.112,2.636-0.734,5.254-0.182,7.825c0.393,1.855,1.004,3.81,2.847,4.238
	c2.172,0.511,3.768,1.99,5.471,3.34c2.031,1.608,4.244,2.947,6.216,4.631c2.348,2.013,3.316,4.473,5.042,6.921
	c1.174,1.667,9.098,9.568,10.413,8.488c2.266-1.867,3.046-0.47,4.385,1.503c1.456-0.029,2.107-0.781,3.669-0.616
	c1.62,0.17,2.577-0.428,4.144-0.61c0.364,1.82-0.834,2.324-0.123,4.179c0.704,1.837,1.802,3.07,0.029,4.485
	c0.335,1.015,2.818,1.415,4.05,1.978c1.972,0.182,3.639,0.916,3.675,3.293c-1.391,0.035-0.029-1.503,0,0
	c-1.057,0.023-1.925-0.317-2.917-0.564c-0.528,0.693,0.088,1.761,0,2.636c-2.448,0-0.822,2.436-3.211,0.851
	c0.229,2.917,1.878,3.046,1.415,6.398c-2.154,0.376-0.47-0.012-1.626-0.839c-1.021-0.728-0.012-1.039-0.634-2.26
	c-0.44,0.217-0.88,0.434-1.315,0.657c-0.693-1.127-1.385-2.26-2.078-3.393c-2.747,0.217-0.493,3.017-3.299,3.017
	c-1.949-3.616-1.379,2.054-1.309,3.299c-0.716,0.399-1.614,0.781-2.454,0.564c-0.088-0.188-0.74-1.696-0.939-1.696
	c-0.117,1.89-0.293,1.602-2.166,1.602c-0.188,1.761-0.376,3.51-0.564,5.277c-0.54-0.376-1.074-0.757-1.608-1.139
	c-0.082-1.239,0.27-1.344-1.127-1.597c-0.481-1.567-0.816-3.34-2.823-3.393c-1.045,0.98-1.52,0.922-1.133,2.401
	c0.458,1.761-0.98,1.503-1.127,3.246c0.358,0.534,0.687,1.015,0.787,1.673c0.2,1.262,0.839,1.52,1.004,3.041
	c-0.822,0.035-1.638,0.065-2.454,0.094c-0.076,1.127-0.1,2.213,0.288,3.299c-0.241,0.475-2.366,0.34-2.929,0.376
	c0,0.98,1.556,3.093,2.078,4.244c-1.691,0.528-3.722-0.182-4.802,1.215c-1.45,1.867-3.581-0.528-5.659,0.282
	c0.904,0.851,1.426,1.285,1.984,2.548c-0.317,0.059-0.634,0.135-0.939,0.188c1.168,5.711,2.336,11.429,3.51,17.14
	c0.493,2.448,1.297,4.849,1.702,7.308c0.147,0.875,0.241,1.814,0.035,2.7c-0.317,1.374-3.082,1.18-4.297,1.379
	c-1.344,0.211-2.694,0.423-4.038,0.646c-1.849,0.294-1.567,0.834-2.16,2.471c-0.957,2.653-1.89,5.301-2.724,8.001L427.45,446.093z
	 M375.519,386.044c-0.053-0.399-0.311-0.634-0.781-0.698C375.026,385.539,375.279,385.78,375.519,386.044z M374.222,385.058
	c0.076-0.546,0.223-1.074,0.423-1.591c0.452-1.156,0.933-2.213,0.951-3.498c-0.663-0.129-1.315-0.247-1.978-0.382
	c-0.229,0.933-0.728,1.561-1.514,2.078l-0.892-0.047l0.423,0.399c1.209,0.969,1.015,2.401,2.553,3.023L374.222,385.058z
	 M369.004,379.54v-0.229c-0.053,0.023-0.1,0.059-0.147,0.1L369.004,379.54z M364.918,376.676c-0.065-0.37-0.112-0.798-0.158-1.327
	c-0.135-1.644-0.687-1.239-2.166-1.503l-0.023,0.153c0.229,0.082,0.47,0.164,0.71,0.235
	C363.739,375.537,364.167,376.124,364.918,376.676z M437.006,367.818L437.006,367.818c0-0.505,0-0.998,0-1.509
	c1.661-0.035,3.07,0.839,4.702,0.892c1.162,0.047,2.712-1.996,3.768-2.87c-2.976-2.594-5.958-5.189-8.934-7.783
	c-1.726-1.491-4.532-4.397-7.073-2.917c-0.998,0.575-1.679,1.532-2.665,2.125c-1.485,0.904-0.564,4.021-0.446,5.776
	c0.282,4.044,0.569,8.083,0.845,12.127c1.321-0.687,2.272-0.974,2.841-2.401c0.37-0.904,0.816-1.426,1.779-1.743
	c0.059-1.25,0.352-1.661,1.409-2.295c0.522-0.311,1.033-0.634,1.509-1.004C436.76,366.65,435.439,367.818,437.006,367.818
	C437.006,367.313,436.754,367.818,437.006,367.818z M282.253,320.12L282.253,320.12c-2.143,1.961-4.854-1.192-6.122,1.421
	c-1.321,2.735-4.232,5.494-6.281,7.725c-2.553,2.782-5.706,5.389-7.314,8.875c-0.34,0.787-0.669,1.567-0.986,2.36
	c-0.587,1.409-1.18,1.421-1.984,2.495c-0.434,0.669-0.734,1.409-0.875,2.201c-0.429,2.007,0.276,0.974,1.397,2.025
	c2.131,1.99,5.324,0.992,7.015,3.311c1.843,2.536,8.547,0.74,11.487,1.338c3.158,0.64,4.813,1.074,7.901,0.088
	c1.972-0.628,2.835-0.646,4.344,0.575c1.074,0.863,2.8,1.884,4.197,1.133c-0.428-1.421-0.869-2.512-2.401-2.982
	c-0.235-1.737-0.992-3.768-2.019-5.189c-2.342,2.043-2.747-0.851-2.665-2.7c0.059-1.802,0.939-4.901-0.904-5.518
	c-0.781-0.27-1.309-0.898-1.597-1.649c-0.511-1.332-1.456-0.728-2.759-0.428c-2.33,0.546-4.561,1.532-6.968,1.743
	c0-1.702,5.265-3.833,6.639-5.013c1.532-1.303,1.027-3.005,1.227-4.895c0.241-2.324,0.716-4.608,1.068-6.915
	C283.855,320.12,283.051,320.12,282.253,320.12C279.711,322.444,283.051,320.12,282.253,320.12z M318.006,336.843L318.006,336.843
	c-0.276,0.094-2.418,3.146-2.559,3.827c-0.188,0.834,1.691,2.906,2.078,3.733c1.004,2.137,1.315,2.113,3.651,2.53
	c-0.569-1.966-0.839-3.375-0.734-5.412C320.554,339.302,320.073,337.618,318.006,336.843
	C317.813,336.907,318.517,337.031,318.006,336.843z M244.568,457.087L244.568,457.087c-3.14,2.618-6.099,5.036-8.593,8.288
	c-1.027,1.35-2.008,2.741-2.906,4.179c-1.397,2.225-0.992,2.841-3.78,2.143c0.998,2.806,3.586,4.543,5.165,6.968
	c1.145,1.761,0.241,5.594,2.812,5.623c0.64-4.537,1.896-8.957,3.44-13.26c1.62-4.52,4.003-9.034,4.537-13.841
	C245.02,457.152,244.797,457.122,244.568,457.087C243.031,458.373,244.797,457.122,244.568,457.087z M122.463,291.639
	L122.463,291.639c1.385,2.002,4.637,4.22,3.34,6.809c-1.162,2.313-3.234,4.091-2.512,6.938c4.672,1.62,8.547-1.074,11.74-2.559
	c-0.235,1.174,1.35,2.354,0.763,3.522c-0.628,1.244-1.708,1.966-0.417,3.316c1.262,1.315,1.227,1.773,1.15,3.663
	c-0.053,1.297,0.188,1.426,0.922,2.413c0.176,0.622-0.869,0.728-0.475,1.456c0.822,1.532,1.79,1.579,1.914,3.592
	c0.094,1.538,0.81,2.647,2.401,2.988c1.784,0.393,3.622-0.029,5.418,0.182c0.745,1.444,2.636,3.152,2.418,4.837
	c-4.655-0.082-8.564-0.282-13.143,0.869c-2.225,0.552-4.438,1.156-6.686,1.626c-2.107,0.428-4.262-0.023-6.381,0.241
	c-2.33,0.288-4.485,0.552-6.868,0.511c-1.526-0.029-4.608,0.352-5.952-0.546c-0.757-7.596,0.922-14.745,2.09-22.188
	c0.475-3.076,0.464-6.568,2.119-9.31C116.699,297.943,119.446,291.985,122.463,291.639
	C123.714,293.447,122.064,291.68,122.463,291.639z"/>
<path d="M371.281,131.879l-11.411-1.415l10.055,4.109c0.018,0.035,0.041,0.17,0.059,0.205c0.393,0.898-2.442,0.07,1.057,1.092
	c2.759,0.816,4.179,0.998,6.762,1.867c2.101,0.71,5.312,1.649,6.827,2.647l-11.094-1.062c2.923,1.608,6.345,2.207,9.709,3.551
	c1.632,0.657,3.264,1.215,4.849,1.779c3.575,1.28,6.263,2.882,9.398,4.854c1.779,1.127,3.352,1.497,4.89,2.477
	c1.984,1.268,5.588,7.132,6.692,9.674c-3.645-3.95-9.21-8.564-14.058-11l-1.403-0.605c1.679,1.908,3.469,2.935,5.072,4.831
	c-0.763-0.757-4.561-3.041-5.799-3.786c-1.274-0.775-1.649-1.098-3.228-1.949c-0.751-0.411-0.751-0.481-1.438-0.886l-2.184-0.869
	c3.187,3.798,9.251,6.75,12.743,11.317c-2.107-0.622-3.821-2.037-5.887-3.058c-4.32-2.119-14.581-6.791-18.913-7.637
	c3.833,2.125,10.877,5.588,14.193,8.617c-4.661-0.252-9.333-1.984-14.047-2.418c-5.606-0.517-9.539-0.716-14.728,0.446
	c3.035-0.851,18.59,2.213,21.214,3.369c-5.653,0.481-24.436-6.715-32.19,2.506c5.207-2.189,9.462-3.857,14.457-2.395
	c-9.791,3.569-20.304,8.952-27.483,16.107c5.089-4.514,16.453-9.451,23.544-11.17c2.953-0.716,6.868-0.663,8.47-1.021
	c-4.314,2.154-16.494,5.236-19.946,8.488c0.1-0.129,0.992-0.564,2.189-0.91l-0.875,1.221c3.446-1.356,4.485-2.712,9.104-3.804
	c-1.062,1.444-9.597,5.987-10.613,6.345c6.445-2.154,20.997-9.087,27.324-7.772c-5.007,1.62-18.942,4.796-22.018,7.719
	c4.725-1.286,13.706-3.633,18.572-3.733l-7.179,3.81l9.879-2.917l-5.764,3.117c2.324-0.411,4.467-1.209,6.662-1.732
	c3.839-0.91,4.455-1.186,6.416-0.81l-6.058,2.054l7.214-0.657l-5.371,2.641c0.123,0.029,0.288-0.076,0.399,0.059l7.895-1.168
	c2.143-0.252,5.94-0.235,7.378-0.464l-9.797,4.79c3.839-0.464,8.159-2.465,11.622-2.166l-7.713,3.346
	c2.906-0.229,6.163-1.638,9.034-0.986l-3.786,1.509l5.441,0.082c2.066-0.059,4.068-0.047,5.841,0.223l-4.455,1.919
	c0,0.006,0.053,0.012,0.065,0.035c-14.276,3.622-20.586,5.036-32.883,14.569c-7.161,5.547-13.601,12.021-19.488,18.878l-2.277,3.422
	c2.847-1.902,7.918-7.531,11.194-10.396c2.084-1.82,10.002-8.347,12.321-9.01c-0.863,0.511-1.661,2.143-2.548,3.211
	c-3.446,4.144-5.794,4.42-9.204,11.041c-2.665,5.177-6.199,11.029-6.486,17.416c2.677-5.042,4.332-10.384,8.576-14.757
	c-0.282,2.049-0.722,2.589-0.81,4.731c0.088-0.112,0.153-0.417,0.223-0.346l2.33-2.806c0.481-0.288,0.493-0.546,0.763-1.109
	c2.448-5.124,7.384-13.824,12.338-17.023c-1.89,4.608-5.917,7.578-8.664,17.064c1.068-2.366,6.809-12.039,9.691-13.917
	c-1.332,1.039-4.849,9.004-5.142,11.587c2.594-3.393,4.667-10.748,11.722-16.06c-2.154,3.716-5.706,7.238-6.064,11.341
	c2.847-4.015,9.339-14.199,15.714-16.324c-3.446,1.104-11.211,10.9-11.898,14.504c3.117-3.41,5.7-7.772,10.536-10.648
	c-2.612,4.379-9.856,10.789-11.716,17.064c3.305-4.197,7.93-11.2,12.773-14.827l-3.105,4.32c-0.112,0.17-0.475,0.828-0.534,0.957
	c-0.405,0.845-0.17,0.176-0.446,1.145c1.749-1.391,1.949-2.266,3.757-3.628c-0.276,0.622-0.135,0.405-0.564,1.074
	c-0.399,0.61-0.487,0.687-0.88,1.168l-4.467,6.516c-2.049,3.833-3.146,5.089-4.532,9.632c0.745-0.898,3.328-5.465,3.774-6.568
	l0.587,0.106c0.023,0,0.153,0.023,0.176,0.029c2.031,0.34-1.438,0.511,0.382,0.047c1.303-2.636,6.956-9.304,10.66-11.399
	l-7.965,9.691c-0.998,1.344-1.99,2.43-2.465,4.021c3.98-3.369,7.643-8.676,12.121-12.526c3.68-3.164,10.865-8.652,15.972-9.92
	c-5.887,2.013-25.258,21.484-28.698,29.678c4.543-4.402,15.919-19.218,22.247-21.419c-3.105,0.892-10.349,10.137-12.749,13.407
	c-1.35,1.831-1.978,3.669-3.604,5.06c-5.254,4.52-9.844,8.447-14.352,13.424c-4.849,5.353-3.851,2.565-8.47,9.503
	c-1.145,1.72-2.113,3.469-3.246,5.259c-4.731,7.461-9.433,16.465-11.939,24.935c-0.851,2.87-2.037,5.7-2.348,8.711
	c-0.065-1.121,0.657-2.319,1.086-3.628c1.591-4.831,1.485-2.348,2.589-4.766c3.252-7.185,7.801-13.601,13.002-19.423
	c-0.792,1.368-1.638,3.093-2.647,4.725c-2.395,3.886-5.347,12.567-6.363,17.058c-1.415,6.275-3.792,18.273-2.43,25.634
	c1.168-4.872,1.068-18.561,5.33-26.444c0.141,6.099-1.667,14.152,0.07,20.932c0.182-6.979,1.826-26.872,5.764-33.693
	c0.693-1.197,0-0.305,0.974-1.315c0.023,4.373-5.899,21.478-2.87,34.157c-0.857-10.707,2.231-21.977,5.136-31.997
	c0.276-0.927,0.2-1.186,0.657-2.283l1.426-2.277c-0.053,7.83-3.516,15.156-1.826,24.36c0.205-0.798,0,0.569,0.235-1.151
	c0.804-5.899,0.763-11.822,2.26-17.586l1.291-2.776c0.434,3.98-1.708,10.959-0.74,15.878c-0.546-1.221,0.37-4.708,0.61-6.451
	c0.147-1.098,0.311-2.09,0.517-3.176c0.264-1.415,0.276-2.33,0.47-3.586c0.499-3.27,1.737-6.222,2.53-9.427
	c0.135-0.558,0.229-1.18,0.417-1.696l0.892-1.691c-0.188,7.061-4.08,21.225-1.761,32.625c-1.074-4.62,0.939-15.725,2.201-20.697
	c0.969-3.815,1.872-8.476,3.328-12.11c0.176,3.228-0.922,9.263-0.323,11.892c0.628-0.035-0.875,0.323,0.2-0.534
	c1.215-0.986-0.64-0.734,0.945-0.352c-0.135,2.506-0.61,6.287-0.082,9.11c0.722-4.35,0.728-8.975,1.28-13.33
	c0.44-3.498,1.644-9.961,2.671-12.814c0.053,3.228-1.779,9.944-0.622,11.722c0.886,1.379-0.217,9.227,0.769,13.06
	c0.258-1.644,0.288-4.766,0.293-6.615c0.029-6.257,2.025-13.019,3.228-18.778l0.446,5.436c0.652,5.723-0.581,12.397,0.657,18.737
	c0.029-0.129,0.029-0.452,0.082-0.393c0.053,0.065,0.065-0.294,0.076-0.387c1.25-9.386-1.004-16.706,4.332-28.434
	c-0.182,7.742-3.111,19.042-1.597,26.872c1.01-8.142,1.591-22.329,5.342-27.559c-0.076,5.934-1.843,14.193-0.569,20.474
	c0.511-4.79,0.763-9.902,1.62-14.751c0.605-3.446,3.187-12.192,3.211-14.546c0.587,0.54,0.317,0.094,0.745,1.215
	c0.634,1.649-0.376,3.093-0.605,4.725c-0.376,2.606,0.288,0.464,0.188,2.759c-0.247,5.559-1.931,12.685-0.904,18.279
	c0.892-3.933,1.057-9.944,1.908-14.352c0.276-1.403,0.317-3.81,1.244-4.984c0.023-0.029,0.129-0.112,0.158-0.135l0.358-0.129
	c1.115-0.546,2.512-4.755,3.322-6.069c-0.17,3.81-0.945,11.863-0.141,15.62c2.348-11.581-0.552-9.151,4.467-22.124
	c0.323-0.828,1.098-2.231,1.239-2.823c0.258,1.849-0.634,6.099-1.098,8.241c-0.458,2.119-0.605,5.946-0.992,8.676
	c-0.511,3.616-1.479,14.193-0.834,17.756c0.552-4.062,0.922-8.171,1.614-12.391c0.587-3.569,1.444-9.55,2.636-12.427
	c0.37,2.847,0.106,6.862,0.323,10.096c0.229,3.328,0.499,7.819,1.268,11.006c1.192-7.977-0.875-16.125,1.743-26.232
	c1.045,6.433,0.252,15.226,1.79,22.036l0.352-1.99c0.646-5.03,1.814-24.912,4.162-27.823c0.205,4.373-0.61,9.744-0.546,14.786
	c0.065,4.667,0.182,11.64,1.409,16.295c0.059-0.141,0.065-0.481,0.123-0.423l0.481-16.013c0.423-5.535,1.28-10.36,2.101-15.491
	l0.106,13.066c0.587-0.323,0.675-1.262,0.798-1.802l0.945-5.999c0.428-2.7,0.522-5.06,1.25-7.807
	c13.207,50.223,36.704,92.938,61.469,132.847c1.843-4.696,3.54-9.462,5.113-14.287c-24.83-36.769-48.626-80.652-56.985-123.942
	c3.422,2.013,11.722,5.893,13.636,10.173c2.782,6.251,4.132,12.432,6.433,18.725c-0.552-3.451-3.029-11.699-2.583-14.528
	c4.162,7.549,5.13,13.97,8.048,21.707l-2.389-12.068l3.763,8.869c0.528-5.747-7.243-18.707-9.327-25.07
	c5.553,7.05,8.359,16.747,11.945,25.628c0.311-4.291-3.399-12.468-4.537-17.21c3.563,6.017,3.88,7.196,6.416,12.99l-2.131-8.593
	c2.512,2.659,6.21,12.503,7.901,16.776c-1.561-6.833-4.532-13.589-6.973-19.875l0.998,0.828c3.41,3.628,8.294,14.587,10.137,18.995
	c-0.534-0.927-2.096-6.193-2.812-7.971c-1.186-2.964-2.53-5.653-3.61-8.605c4.203,3.798,6.334,13.935,9.721,18.924
	c-1.884-6.645-4.303-13.254-7.531-19.318c-0.663-1.239-1.984-3.041-2.277-4.549c-0.475-2.483-0.329-0.616,0.1-1.849
	c2.641,4.69,5.647,8.899,8.535,14.504c2.63,5.107,5.312,10.936,7.478,16.33c0-0.006-6.844-18.308-7.331-19.981
	c1.661,3.152,8.922,15.978,8.793,18.971c-1.784-7.713-3.927-12.526-6.821-19.611c4.89,3.428,12.943,24.601,14.604,29.12
	c-0.382-5.236-3.422-11.294-4.937-16.559c0.517,1.497,5.16,12.444,6.463,13.63c-2.078-7.179-4.966-13.231-7.349-20.016
	c3.252,1.197,7.378,12.239,9.139,16.154c0.44,0.969,0.787,1.837,1.168,2.771c1.385,3.393,0.035,1.491,1.755,3.035l-5.124-14.933
	c0.047,0.112,0.153,0.129,0.247,0.317c0.094,0.182,0.229,0.217,0.293,0.294c1.591,1.919,4.561,8.693,7.508,15.062l0.082-3.246
	l-2.589-7.056c0.916,0.61,1.802,1.497,2.653,2.577l0.006-0.628c0-5.641-0.205-11.229-0.564-16.776
	c-0.898-0.775-1.737-1.561-2.471-2.383c0.88,0.329,1.661,0.798,2.407,1.332l-0.135-2.019c-1.878-1.667-3.78-3.199-5.318-4.308
	c-2.671-1.949-1.632-3.117-5.635-5.524c-6.381-3.839-12.826-7.895-19.764-10.836l-13.319-6.022c4.86,0.822,9.873,2.894,14.833,3.581
	c-0.986-0.98-0.018-0.288-1.309-0.974c-0.587-0.317-0.652-0.252-1.321-0.499c-1.168-0.428-1.761-0.787-2.823-1.168
	c-4.796-1.708-11.546-4.602-16.535-5.318c4.303-0.182,8.94,2.049,12.82,2.307c-1.831-1.221-3.334-2.207-4.696-4.021
	c1.174,0.54,2.829,1.509,3.927,2.442l-3.146-4.009c1.679,0.323,6.557,3.598,8.053,5.77c0.012-0.123-0.065-0.417-0.035-0.352
	l-0.182-0.998c-0.194-0.857-0.247-0.023-0.305-1.127l5.301,5.259c-1.268-3.275-4.003-5.987-5.729-8.752
	c2.236,1.197,12.432,9.715,14.487,12.297l-2.524-3.974c2.958,2.542,9.879,9.339,11.71,13.037c-0.828-1.385-1.585-3.446-2.501-5.054
	c-1.109-1.949-2.465-3.663-3.387-5.565c0.763,0.487,1.796,1.268,2.53,1.884c-1.567-3.17-4.338-5.741-6.275-8.447
	c5.905,2.448,11.675,9.198,15.637,14.405c1.55,2.043,2.876,4.79,4.508,6.709c-0.646-2.506-2.043-4.596-3.023-6.862l-0.358-2.383
	l2.735,3.234c-0.153-1.098-0.299-2.195-0.464-3.287c-1.679-2.413-3.405-4.643-4.514-5.952c-4.226-4.96-7.367-7.373-11.705-10.959
	c-5.136-4.25-7.073-5.183-12.902-7.795c-2.506-1.121-4.226-2.037-6.885-3.017l-5.447-1.784c-2.383-1.374,0.475,0.816-0.329-0.352
	c-0.012-0.018-0.053-0.112-0.059-0.129l-11.505-1.133c2.571-2.201,6.574-2.313,9.685-3.44c0.112-0.041,0.241-0.094,0.34-0.141
	c0.1-0.047,0.235-0.123,0.323-0.17l0.599-0.399c-5.394,0.417-7.918,1.233-13.395,2.788c7.76-5.042,17.827-6.334,26.062-6.703
	c-4.027-0.094-9.192-0.487-13.624,0.17c-0.869,0.123-1.743,0.364-2.477,0.47l-2.706-0.023c7.895-3.029,14.763-3.851,22.1-4.308
	c-3.545,0.27-12.832-0.869-16.706,0.558c7.343-3.498,13.501-2.195,19.787-3.457c-5.406-0.74-8.993-0.605-14.769-0.158
	c4.714-4.502,14.945-3.504,20.228-3.328l-9.257-1.473c4.068-1.737,8.599-3.123,12.796-3.334c-0.845-2.184-1.72-4.361-2.624-6.516
	c-0.986,0.358-1.919,0.693-2.788,0.998c0.693-0.616,1.526-1.203,2.477-1.755c-0.581-1.362-1.18-2.712-1.779-4.062
	c-5.394,2.559-11.828,7.061-16.172,8.734c2.847-1.679,7.983-6.058,12.016-8.582c0.969-0.605,2.125-1.256,3.375-1.925l-0.552-1.186
	c-1.579,0.798-3.07,1.591-4.408,2.342c-3.915,2.195-10.472,6.48-13.912,7.96l17.105-12.902l-0.029-0.059
	c-9.938,4.156-20.198,14.281-27.929,18.672c3.07-3.369,12.967-13.571,17.486-15.068c-4.121,1.35-10.096,5.981-13.331,8.623
	c-4.238,3.463-7.191,7.05-10.601,10.108c1.784-2.454,9.48-12.497,12.274-13.853c-7.543,3.898-14.681,14.405-19.746,20.756
	c0.675-5.019,4.667-9.867,7.871-14.094c0.546-0.728,1.127-1.573,1.632-2.231l1.45-2.166c0.053-0.088,0.135-0.247,0.194-0.376
	l-6.474,5.277c-1.655,1.203-4.444,3.792-6.404,4.49c0.91-0.511,5.729-6.727,7.519-7.519c-3.088,0.857-5.887,3.545-8.541,4.89
	c1.397-1.309,2.929-3.34,4.708-4.954c0.892-0.804,1.855-1.649,2.829-2.401c0.493-0.382,0.98-0.675,1.526-1.139l-7.801,2.917
	c1.01-0.892,2.242-2.718,3.446-3.968l12.327-11.992l-9.345,5.383c2.366-2.753,6.686-6.662,9.679-8.928l-1.908,0.528
	c-1.374,0.205-0.481,0.153-1.115,0.047c1.614-1.139,1.45-1.467,2.718-2.565c2.8-2.442,6.51-5.629,10.102-6.774
	c-0.939-0.047-0.657,0.123-1.426,0.141c-1.532,0.035-0.205,0.34-1.556-0.088c2.589-2.665,6.081-4.285,8.64-5.735l-0.728-1.227
	c-6.768,1.086-15.808,7.349-20.803,9.767c0.745-1.309,1.843-2.189,3.416-3.017c-14.164,7.654-11.804,9.632-17.392,13.219
	c0.141-1.438,1.767-4.027,2.418-4.584c-2.947,1.966-5.195,5.77-6.615,8.869l-2.33,4.948c-0.851,2.242-1.28,3.346-2.706,5.289
	c-0.135-3.722,0.945-7.15,1.514-10.137c-0.816,2.113-2.272,3.915-3.14,6.486c-0.693,2.06-1.397,5.741-2.407,7.355
	c-1.937-7.349-2.618-13.184-5.805-20.638l0.029,2.154l-3.768-6.897l2.125,7.596c-0.112-0.082-0.276-0.364-0.276-0.288
	c0.018,1.104-0.411-0.487-0.493-0.599l-2.119-2.524l1.244,6.715l-10.46-14.798l3.592,6.833c-2.559-2.395-6.322-7.285-9.274-9.145
	c-1.99-1.256,0.792-0.358-0.687-0.07c-0.605,0.112-2.835-3.082-3.322-3.651l2.401,4.819c-1.585-1.274-5.007-4.426-6.257-5.747
	l4.215,5.94l-9.773-7.666c-0.722-0.376-0.34-0.188-1.109-0.458c2.894,3.986,7.678,7.672,10.284,12.239
	c-1.514-0.669-2.683-1.784-4.391-2.929l-13.313-8.03c-0.088-0.035-0.252-0.1-0.387-0.141c2.501,2.776,6.428,5.711,9.204,7.971
	c-3.046-0.593-9.351-3.475-11.587-5.054l-0.012,1.497c-2.154-0.927-6.445-1.943-9.016-2.201c1.244,1.045,2.606,1.162,3.651,2.213
	c-4.291-0.276-10.56-3.029-15.121-1.485C358.385,126.378,369.826,130.658,371.281,131.879z"/>
<g>
</g>
<g>
</g>
<g>
</g>
<g>
</g>
<g>
</g>
<g>
</g>
<g>
</g>
<g>
</g>
<g>
</g>
<g>
</g>
<g>
</g>
<g>
</g>
<g>
</g>
<g>
</g>
<g>
</g>
</svg>
