<?xml version="1.0" encoding="iso-8859-1"?>
<!-- Generator: Adobe Illustrator 19.0.0, SVG Export Plug-In . SVG Version: 6.00 Build 0)  -->
<svg version="1.1" id="Layer_1" xmlns="http://www.w3.org/2000/svg" xmlns:xlink="http://www.w3.org/1999/xlink" x="0px" y="0px"
	 viewBox="0 0 512 512" style="enable-background:new 0 0 512 512;" xml:space="preserve">
<path style="fill:#0299E3;" d="M256.005,0C397.384,0,512,114.616,512,256.005C512,397.384,397.384,512,256.005,512
	C114.616,512,0,397.384,0,256.005C0,114.616,114.616,0,256.005,0z"/>
<path style="fill:#4EC1F5;" d="M0.147,247.761c64.712-12.093,271.741-42.275,511.824,10.53C510.74,398.625,396.622,512,256.005,512
	C114.616,512,0,397.384,0,256.005C0,253.241,0.059,250.496,0.147,247.761z"/>
<path style="fill:#B9DDF9;" d="M354.279,272.346c65.259,0,118.152,2.569,118.152,5.743c0,3.184-52.893,5.753-118.152,5.753
	s-118.152-2.569-118.152-5.753C236.127,274.915,289.02,272.346,354.279,272.346z M508.435,298.72
	c-0.244,1.475-0.508,2.96-0.781,4.425c-11.79,1.524-32.419,2.559-65.161,2.559c-33.484,0-70.963-2.159-70.963-4.825
	c0-2.667,37.137-4.825,70.963-4.825C475.498,296.053,496.909,297.137,508.435,298.72z M497.172,342.03
	c-0.83,2.325-1.68,4.63-2.579,6.925c-13.851,0.996-28.092,1.621-60.297,1.621c-33.728,0-79.158-2.325-79.158-5.187
	c0-2.852,44.834-5.167,79.158-5.167C467.429,340.223,483.077,340.926,497.172,342.03z M16.068,345.439
	c-1.104-2.969-2.159-5.968-3.155-8.986c31.609-2.491,93.087-5.441,164.373-5.441c78.817,0,167.508,3.604,167.508,8.058
	c0,4.444-89.551,8.049-167.508,8.049C107.339,347.119,48.058,347.217,16.068,345.439z M0.02,257.861c0-0.625-0.02-1.241-0.02-1.856
	v-0.234c23.169-2.364,129.385-4.142,254.042-4.142c128.125,0,244.264,2.325,244.264,5.187c0,2.852-116.315,5.167-244.264,5.167
	C129.238,261.983,23.179,260.215,0.02,257.861z M190.844,288.444c94.074,0,170.331,2.061,170.331,4.61
	c0,2.54-76.257,4.601-170.331,4.601c-94.064,0-170.331-2.061-170.331-4.601C20.512,290.505,96.78,288.444,190.844,288.444z
	 M346.953,311.467c26.432,0,47.862,1.788,47.862,4.015c0,2.227-21.431,4.034-47.862,4.034c-26.441,0-47.872-1.807-47.872-4.034
	C299.081,313.254,320.512,311.467,346.953,311.467z"/>
<path style="fill:#F9BF2C;" d="M510.564,283.199c-80.038-3.165-183.274-10.969-183.274-10.969l-1.084-5.206l-5.704-27.379
	c0,0,17.436-31.921,55.198-46.749c37.762-14.818,80.223-47.159,83.124-52.395c2.901-5.226,26.559,11.927,39.14,32.849
	c0.283,0.459,0.567,0.908,0.85,1.348C507.36,200.24,512,227.581,512,256.005C512,265.187,511.512,274.261,510.564,283.199z"/>
<path style="fill:#FFC928;" d="M510.545,283.404c-80.028-2.374-183.254-8.234-183.254-8.234l-1.084-3.907l-5.704-20.542
	c0,0,17.436-23.951,55.198-35.076c37.762-11.116,80.223-35.389,83.124-39.315c2.901-3.927,26.559,8.957,39.14,24.654
	c2.794,3.477,6.144,5.968,9.67,7.756c2.852,15.316,4.366,31.111,4.366,47.266C512,265.255,511.502,274.398,510.545,283.404z"/>
<path style="fill:#FFFF00;" d="M275.609,48.468c21.196,0,38.378,17.143,38.378,38.29c0,21.157-17.182,38.3-38.378,38.3
	s-38.368-17.143-38.368-38.3C237.241,65.61,254.413,48.468,275.609,48.468z"/>
<path style="fill:#FFEF76;" d="M44.375,400.08c138.049-50.597,331.061-18.803,408.295,19.799
	C405.716,476.172,335.046,512,256.005,512C168.046,512,90.46,467.644,44.375,400.08z"/>
<path style="fill:#F9BF2C;" d="M221.495,409.799c-1.231,0-2.227,0.381-2.227,0.86c0,0.479,0.996,0.869,2.227,0.869
	c1.221,0,2.217-0.391,2.217-0.869C223.712,410.18,222.716,409.799,221.495,409.799z M190.16,394.591
	c-2.354,0-4.269,1.319-4.269,2.94s1.915,2.94,4.269,2.94c2.354,0,4.259-1.319,4.259-2.94S192.514,394.591,190.16,394.591z
	 M234.467,401.155c-2.247,0-4.073,1.006-4.073,2.247s1.827,2.247,4.073,2.247c2.256,0,4.083-1.006,4.083-2.247
	S236.723,401.155,234.467,401.155z M334.216,466.462c-1.426,0-2.588,0.615-2.588,1.377c0,0.772,1.162,1.387,2.588,1.387
	c1.436,0,2.598-0.615,2.598-1.387C336.814,467.078,335.652,466.462,334.216,466.462z M290.837,460.24
	c-1.026,0-1.856,0.313-1.856,0.694s0.83,0.694,1.856,0.694c1.026,0,1.856-0.313,1.856-0.694S291.863,460.24,290.837,460.24z
	 M294.91,486.848c-2.657,0-4.816,0.772-4.816,1.729s2.159,1.729,4.816,1.729c2.667,0,4.825-0.772,4.825-1.729
	S297.577,486.848,294.91,486.848z M368.706,408.412c-2.041,0-3.702,0.537-3.702,1.211c0,0.664,1.661,1.211,3.702,1.211
	c2.051,0,3.712-0.547,3.712-1.211C372.418,408.949,370.757,408.412,368.706,408.412z M128.418,404.954
	c-2.462,0-4.444,0.928-4.444,2.071c0,1.153,1.983,2.081,4.444,2.081c2.452,0,4.444-0.928,4.444-2.081
	C132.862,405.882,130.869,404.954,128.418,404.954z M163.65,416.705c-1.231,0-2.227,0.772-2.227,1.729s0.996,1.729,2.227,1.729
	c1.221,0,2.217-0.772,2.217-1.729S164.871,416.705,163.65,416.705z M174.395,401.506c-0.811,0-1.485,0.303-1.485,0.684
	s0.674,0.694,1.485,0.694c0.82,0,1.485-0.313,1.485-0.694S175.215,401.506,174.395,401.506z M74.646,416.363
	c-0.82,0-1.485,0.381-1.485,0.86c0,0.479,0.664,0.86,1.485,0.86c0.821,0,1.485-0.381,1.485-0.86
	C76.13,416.744,75.466,416.363,74.646,416.363z M154,469.569c-1.436,0-2.588,0.078-2.588,0.176s1.153,0.176,2.588,0.176
	s2.598-0.078,2.598-0.176S155.435,469.569,154,469.569z M165.496,486.154c-1.221,0-2.217,0.313-2.217,0.694s0.996,0.694,2.217,0.694
	c1.231,0,2.227-0.313,2.227-0.694S166.727,486.154,165.496,486.154z M114.323,461.276c-1.602,0-2.93,0.41-3.253,0.957l0.742,0.488
	l1.397,0.908c0.352,0.039,0.723,0.068,1.114,0.068c1.846,0,3.341-0.547,3.341-1.211
	C117.663,461.823,116.169,461.276,114.323,461.276z M264.327,463.005c-1.954,0-3.526,0.772-3.526,1.729s1.573,1.729,3.526,1.729
	c1.944,0,3.516-0.772,3.516-1.729S266.271,463.005,264.327,463.005z M196.831,459.557c-1.534,0-2.784,0.615-2.784,1.377
	s1.25,1.377,2.784,1.377c1.534,0,2.784-0.615,2.784-1.377S198.365,459.557,196.831,459.557z M207.215,473.72
	c-1.739,0-3.155,0.615-3.155,1.377c0,0.762,1.416,1.387,3.155,1.387s3.155-0.625,3.155-1.387
	C210.37,474.335,208.953,473.72,207.215,473.72z M266.73,489.612c-1.631,0-2.96,0.459-2.96,1.035s1.328,1.035,2.96,1.035
	c1.641,0,2.969-0.459,2.969-1.035S268.371,489.612,266.73,489.612z M370.748,425.692c-1.328,0-2.413,0.381-2.413,0.86
	c0,0.479,1.084,0.869,2.413,0.869s2.413-0.391,2.413-0.869C373.16,426.072,372.076,425.692,370.748,425.692z M101.537,434.326
	c-1.748,0-3.155,0.772-3.155,1.729c0,0.957,1.407,1.729,3.155,1.729c1.739,0,3.145-0.772,3.145-1.729
	C104.682,435.098,103.275,434.326,101.537,434.326z M110.064,418.082c-1.338,0-2.413,0.703-2.413,1.563
	c0,0.86,1.074,1.553,2.413,1.553c1.328,0,2.413-0.694,2.413-1.553C112.476,418.786,111.392,418.082,110.064,418.082z
	 M148.256,405.648c-1.739,0-3.155,0.928-3.155,2.071c0,1.153,1.416,2.081,3.155,2.081c1.739,0,3.155-0.928,3.155-2.081
	C151.411,406.576,149.995,405.648,148.256,405.648z M133.79,451.254c-1.534,0-2.774,0.625-2.774,1.387s1.241,1.377,2.774,1.377
	c1.543,0,2.784-0.615,2.784-1.377S135.333,451.254,133.79,451.254z M130.273,422.234c-5.529,0-10.012,2.784-10.012,6.222
	c0,3.438,4.483,6.222,10.012,6.222c5.529,0,10.012-2.784,10.012-6.222C140.285,425.018,135.802,422.234,130.273,422.234z
	 M178.107,444.348c-1.641,0-2.969,0.537-2.969,1.211c0,0.664,1.328,1.201,2.969,1.201c1.641,0,2.969-0.537,2.969-1.201
	C181.076,444.885,179.747,444.348,178.107,444.348z M177.55,461.276c-1.739,0-3.155,0.86-3.155,1.905
	c0,1.045,1.416,1.895,3.155,1.895c1.739,0,3.155-0.85,3.155-1.895C180.705,462.135,179.288,461.276,177.55,461.276z
	 M167.352,450.219c-0.615,0-1.114,0.156-1.114,0.352c0,0.186,0.498,0.342,1.114,0.342s1.114-0.156,1.114-0.342
	C168.466,450.375,167.967,450.219,167.352,450.219z M180.705,433.643c-0.82,0-1.485,0.381-1.485,0.86c0,0.479,0.664,0.86,1.485,0.86
	s1.475-0.381,1.475-0.86C182.18,434.023,181.525,433.643,180.705,433.643z M199.244,413.599c-3.888,0-7.043,1.309-7.043,2.93
	c0,1.621,3.155,2.94,7.043,2.94c3.888,0,7.043-1.319,7.043-2.94C206.287,414.908,203.132,413.599,199.244,413.599z M211.112,399.084
	c-2.462,0-4.454,0.928-4.454,2.071c0,1.143,1.993,2.071,4.454,2.071c2.452,0,4.444-0.928,4.444-2.071
	C215.556,400.012,213.564,399.084,211.112,399.084z M408.022,411.528c-2.061,0-3.712,1.543-3.712,3.448
	c0,1.914,1.651,3.458,3.712,3.458c0.947,0,1.807-0.332,2.461-0.879l0.908-1.153c0.215-0.43,0.332-0.918,0.332-1.426
	C411.724,413.072,410.063,411.528,408.022,411.528z"/>
<path style="fill:#FFBF06;" d="M277.055,427.85h35.193h35.203c9.905-53.156,26.422-213.495-35.203-269.885
	C251.512,217.881,267.15,374.694,277.055,427.85z"/>
<path style="fill:#FFE900;" d="M312.375,164.998c-49.894,55.169-43.418,188.499-31.179,257.91h62.114
	C355.314,354.875,363.256,217.774,312.375,164.998z"/>
<g>
	<path style="fill:#0287CF;" d="M135.216,363.519c-4.22,14.368,3.145,25.728,5.128,39.833c1.973,14.105,19.047,12.044,21.138,3.048
		c2.1-8.986-4.249-13.235-0.059-26.578C169.706,342.753,139.426,349.141,135.216,363.519z"/>
	<path style="fill:#0287CF;" d="M200.26,361.361c5.148,10.149-2.276,34.06-1.563,43.135c0.772,8.938-15.414,10.96-18.119,3.643
		c-2.706-7.326-0.039-8.977-3.751-19.34c-5.275-20.014-3.389-26.647,1.016-31.55C182.717,351.817,195.112,351.212,200.26,361.361z"
		/>
</g>
<path style="fill:#81AFFF;" d="M202.487,359.231c5.148,10.149-2.276,34.06-1.563,43.144c0.762,8.938-15.423,10.96-18.119,3.634
	c-2.706-7.316-0.039-8.977-3.751-19.331c-5.275-20.024-3.399-26.647,1.016-31.55C184.944,349.698,197.339,349.092,202.487,359.231z
	 M137.209,361.663c-4.22,14.378,3.145,25.728,5.128,39.833c1.973,14.105,19.037,12.044,21.138,3.057
	c2.1-8.996-4.249-13.245-0.059-26.588C171.709,340.897,141.419,347.295,137.209,361.663z"/>
<path style="fill:#FFFFFF;" d="M136.828,363.08h27.838c0.166,1.514,0.215,3.165,0.137,4.982h-28.776
	C136.154,366.44,136.408,364.779,136.828,363.08z M176.192,363.08h27.565c0.313,1.534,0.479,3.204,0.537,4.982H175.86
	C175.821,366.166,175.948,364.525,176.192,363.08z M204.187,373.238c-0.098,1.631-0.254,3.302-0.449,4.991h-26.656
	c-0.352-1.807-0.615-3.458-0.82-4.991H204.187z M203.063,383.407c-0.244,1.69-0.508,3.36-0.752,4.982H179.63
	c-0.176-0.547-0.371-1.114-0.576-1.709c-0.303-1.133-0.576-2.227-0.83-3.272H203.063z M201.54,393.565
	c-0.244,1.797-0.449,3.477-0.557,4.982h-19.624c-0.078-1.494-0.127-3.038-0.449-4.982H201.54z M200.905,403.724
	c-0.244,2.168-1.563,3.839-3.389,4.982h-12.659c-0.928-0.684-1.641-1.582-2.051-2.696c-0.303-0.83-0.547-1.582-0.733-2.286H200.905z
	 M178.019,357.903c0.596-1.016,1.28-1.924,2.051-2.774c0.772-0.869,1.739-1.612,2.842-2.208h13.528
	c2.022,1.074,3.858,2.706,5.284,4.982H178.019z M136.027,373.238c0.117,1.68,0.352,3.341,0.664,4.991h26.647l0.078-0.264
	c0.371-1.661,0.664-3.233,0.889-4.728H136.027z M137.883,383.407c0.44,1.651,0.908,3.311,1.387,4.982h22.739
	c-0.098-1.504-0.068-3.145,0.176-4.982H137.883z M140.696,393.565c0.42,1.631,0.811,3.292,1.143,4.982h21.939
	c-0.205-1.68-0.606-3.282-0.967-4.982H140.696z M142.806,403.724c0.615,2.1,1.612,3.741,2.852,4.982h15.375
	c1.192-1.123,2.061-2.52,2.442-4.151c0.068-0.283,0.127-0.557,0.176-0.83H142.806z M163.465,357.903
	c-0.83-2.149-1.993-3.78-3.37-4.982h-15.834c-2.081,1.289-3.927,2.999-5.265,4.982H163.465z"/>
<g>
	<path style="fill:#606060;" d="M183.254,390.635c-0.02-0.039-6.359-14.3-3.126-24.986c3.331-10.999,13.773-8.781,15.228-8.42
		c1.661-0.078,12.708-0.264,12.913,10.149c0.195,10.764-10.793,23.56-10.725,23.492c-0.606,0.557-2.335-0.615-1.797-1.309
		c0.029-0.039,10.11-11.79,9.924-21.509c-0.147-7.844-7.971-8.352-10.334-8.322l-3.682,2.901c-0.547,0.694-2.383-0.469-1.856-1.25
		l2.901-1.954c-2.725-0.313-8.156-0.068-10.09,6.339c-2.969,9.817,3.839,23.374,3.858,23.413
		C186.243,390.791,183.684,391.358,183.254,390.635z"/>
	<path style="fill:#606060;" d="M144.828,392.676c-0.01-0.039-6.642-16.049-3.282-27.174c3.468-11.448,14.339-9.133,15.853-8.752
		c1.729-0.088,13.226-0.283,13.441,10.549c0.215,11.213-11.233,24.527-11.165,24.468c-0.625,0.576-2.432-0.645-1.866-1.377
		c0.029-0.029,10.53-12.268,10.334-22.388c-0.166-8.166-8.303-8.684-10.754-8.664l-4.308,3.468
		c-0.576,0.733-2.481-0.479-1.934-1.299l3.487-2.471c-2.833-0.332-8.488-0.078-10.51,6.593c-3.087,10.217,3.243,25.572,3.262,25.611
		C147.162,392.911,145.277,393.428,144.828,392.676z"/>
</g>
<path style="fill:#FFFFFF;" d="M297.733,186.155c16.664,8.332,31.374,19.995,43.271,34.109
	c13.997,50.031,12.933,115.124,7.541,165.213c-10.432,14.945-23.794,27.702-39.257,37.43h-28.092
	c-1.182-6.681-2.305-13.968-3.331-21.714c35.965-15.746,61.088-51.642,61.088-93.41c0-38.944-21.841-72.78-53.928-89.942
	C288.424,206.375,292.615,195.698,297.733,186.155z M278.715,244.577c20.532,12.288,34.295,34.744,34.295,60.414
	c0,27.438-15.716,51.213-38.632,62.807c-0.498-6.437-0.918-13.03-1.231-19.741c13.48-9.563,22.271-25.279,22.271-43.066
	c0-16.596-7.668-31.404-19.653-41.074C276.576,257.363,277.553,250.906,278.715,244.577z"/>
<path style="fill:#F9BF2C;" d="M280.346,421.599c4.669,0,8.957,1.621,12.327,4.327c3.604-4.63,9.221-7.599,15.541-7.599
	c6.789,0,12.776,3.428,16.312,8.645c3.575-3.712,8.557-6.027,14.183-6.027c5.626,0,15.873,3.946,21.011,12.64
	c-9.387-6.251-27.584-5.001-35.692,3.419c-7.218-10.637-25.416-11.985-33.836-1.153c-3.38-2.715-7.658-4.327-12.327-4.327
	c-7.384,0-13.812,4.054-17.182,10.061C260.527,430.595,269.318,421.599,280.346,421.599z"/>
<path style="fill:#FFFFFF;" d="M180.255,76.638c2.237,0,4.337,0.527,6.203,1.465c2.022-1.973,4.786-3.194,7.834-3.194
	c5.284,0,9.709,3.653,10.891,8.576c2.637,0.791,4.757,2.784,5.724,5.343c0.322-0.039,0.645-0.049,0.967-0.049
	c4.884,0,8.84,3.956,8.84,8.84c0,4.874-3.956,8.83-8.84,8.83c-1.524,0-2.95-0.381-4.2-1.055c-1.074,3.673-4.464,6.349-8.478,6.349
	c-2.462,0-4.679-0.996-6.281-2.618c-1.602,1.621-3.829,2.618-6.281,2.618c-2.335,0-4.454-0.899-6.037-2.383
	c-1.621,1.768-3.936,2.882-6.525,2.882c-2.413,0-4.61-0.977-6.203-2.549c-0.733,0.166-1.485,0.244-2.266,0.244
	c-5.812,0-10.53-4.708-10.53-10.52c0-5.822,4.718-10.53,10.53-10.53c0.322,0,0.635,0.01,0.947,0.039
	C167.294,82.02,173.144,76.638,180.255,76.638z"/>
<path style="fill:#B1E3FB;" d="M146.644,69.918c2.227,0,4.327,0.537,6.203,1.475c2.012-1.983,4.776-3.194,7.824-3.194
	c5.284,0,9.709,3.653,10.901,8.566c2.637,0.791,4.757,2.784,5.714,5.343c0.322-0.029,0.645-0.049,0.967-0.049
	c4.884,0,8.84,3.956,8.84,8.84c0,4.874-3.956,8.83-8.84,8.83c-1.524,0-2.95-0.381-4.2-1.055c-1.065,3.673-4.464,6.359-8.478,6.359
	c-2.462,0-4.679-1.006-6.281-2.628c-1.602,1.621-3.819,2.628-6.281,2.628c-2.335,0-4.454-0.908-6.037-2.383
	c-1.612,1.768-3.936,2.872-6.525,2.872c-2.413,0-4.601-0.967-6.193-2.54c-0.733,0.156-1.494,0.244-2.276,0.244
	c-5.812,0-10.52-4.718-10.52-10.53c0-5.812,4.708-10.53,10.52-10.53c0.322,0,0.635,0.02,0.947,0.049
	C133.673,75.3,139.533,69.918,146.644,69.918z"/>
<path style="fill:#FFFFFF;" d="M368.95,117.653c2.921,0,5.685,0.694,8.127,1.924c2.647-2.588,6.271-4.19,10.266-4.19
	c6.925,0,12.727,4.796,14.271,11.243c3.458,1.035,6.242,3.643,7.502,6.994c0.42-0.039,0.84-0.068,1.27-0.068
	c6.388,0,11.575,5.187,11.575,11.585c0,6.398-5.187,11.585-11.575,11.585c-1.993,0-3.868-0.508-5.509-1.387
	c-1.407,4.806-5.851,8.322-11.116,8.322c-3.214,0-6.124-1.309-8.225-3.428c-2.1,2.12-5.011,3.428-8.234,3.428
	c-3.057,0-5.841-1.192-7.912-3.126c-2.11,2.315-5.157,3.77-8.547,3.77c-3.165,0-6.037-1.27-8.127-3.331
	c-0.957,0.215-1.944,0.322-2.969,0.322c-7.619,0-13.792-6.173-13.792-13.802c0-7.619,6.173-13.792,13.792-13.792
	c0.42,0,0.83,0.02,1.241,0.059C351.964,124.706,359.632,117.653,368.95,117.653z"/>
<path style="fill:#FF7042;" d="M372.701,379.04c22.066-16.459,44.893-16.146,68.453,0c0.86,0.596,1.885-0.86,1.885-1.914
	c0-2.364,0-4.728,0-7.082c0-1.055-0.977-1.407-1.885-1.924c-21.724-12.474-44.502-12.933-68.453,0
	c-0.918,0.498-1.885,0.869-1.885,1.924c0,2.354,0,4.718,0,7.082C370.816,378.181,371.861,379.666,372.701,379.04z"/>
<path style="fill:#E54A18;" d="M436.798,381.697v47.052c0,5.665-4.63,10.295-10.295,10.295H387.05
	c-5.665,0-10.295-4.63-10.295-10.295v-47.423C376.755,379.617,436.612,385.829,436.798,381.697z"/>
<path style="fill:#BD360C;" d="M371.881,368.267c22.495,16.469,45.772,16.156,69.781,0c0.879-0.586,1.924,0.869,1.924,1.924
	c0,2.364,0,4.718,0,7.082c0,1.055-0.996,1.397-1.924,1.914c-22.144,12.483-45.362,12.933-69.781,0
	c-0.928-0.488-1.914-0.86-1.914-1.914c0-2.364,0-4.718,0-7.082C369.966,369.136,371.031,367.651,371.881,368.267z"/>
<path style="fill:#FFFFFF;" d="M438.409,380.154c14.232,22.29-11.594,40.849-31.814,40.849c-21.382,0-46.124-18.471-30.817-41.767
	c-0.01-0.078-0.01-0.147-0.01-0.225c0-1.153,0.938-2.09,2.09-2.09c1.153,0,2.09,0.938,2.09,2.09c0,1.104-0.85,2.012-1.924,2.09
	c-12.991,21.177,8.996,37.577,28.571,37.577c18.451,0,41.66-16.596,29.382-36.942c-0.967-0.186-1.7-1.035-1.7-2.061
	c0-1.153,0.938-2.09,2.09-2.09c1.153,0,2.09,0.938,2.09,2.09C438.458,379.841,438.448,380.007,438.409,380.154z"/>
<path style="fill:#424242;" d="M427.606,351.554l-10.95,17.094l-1.69-1.084l10.95-17.094l-3.096-1.983
	c-1.348-0.86-1.241-2.462-0.889-4.024l1.299-5.714c0.352-1.563,2.676-1.748,4.024-0.889l11.165,7.15
	c1.358,0.869,2.237,3.165,0.889,4.024l-5.128,3.262c-1.358,0.869-2.686,1.748-4.034,0.889L427.606,351.554z M425.77,340.252
	l-1.094,4.835c-0.059,0.225-0.176,0.811-0.166,1.143l6.916,4.435c0.381-0.166,0.996-0.586,1.241-0.733l4.122-2.628L425.77,340.252z"
	/>
<path style="fill:#FFD500;" d="M380.681,373.834c16.81,8.986,34.051,8.82,51.701-0.088c-7.677-3.829-11.36-10.92-17.162-11.526
	c-5.831-0.615-13.792,5.255-23.199-0.586C389.863,360.286,383.035,372.525,380.681,373.834z"/>
<path style="fill:#FFFFFF;" d="M154.439,120.261l73.005,263.721c0.742,2.696-0.44,5.49-2.842,6.261
	c-2.403,0.772-5.167-0.752-5.9-3.458L146.849,122.41C145.277,116.569,152.847,115.016,154.439,120.261z"/>
<path style="fill:#E54A18;" d="M162.331,149.741c44.346-12.132,79.539-8.771,129.697,48.595
	c-27.047-24.185-71.481-8.703-71.481-8.703h-0.02c-59.681-13.226-94.797,25.943-94.797,25.943
	c-35.096-2.461-52.766,40.839-52.766,40.839c14.154-60.004,37.118-86.602,71.315-100.618
	C149.985,153.462,155.992,151.47,162.331,149.741z"/>
<path style="fill:#F9BF2C;" d="M162.331,149.741c5.49-1.504,10.842-2.764,16.097-3.722c25.123,12.132,35.145,26.422,42.099,43.613
	c-59.681-13.226-94.797,25.943-94.797,25.943c-5.304-34.891,18.549-59.779,18.549-59.779
	C149.985,153.462,155.992,151.47,162.331,149.741z"/>
<path style="fill:#FFED58;" d="M156.734,129.277c44.346-12.122,79.012-10.696,126.288,36.131
	c-47.462-23.472-195.278,18.285-218.995,58.343c16.439-51.672,40.234-75.261,74.607-88.584
	C144.368,132.95,150.405,131.006,156.734,129.277z"/>
<path style="fill:#FF3C00;" d="M156.734,129.277c5.49-1.494,10.833-2.794,16.068-3.819c24.361,9.309,33.689,21.079,39.862,35.438
	c-32.566,4.767-64.468,13.011-94.797,25.953v-0.01c-3.829-29.499,20.766-51.672,20.766-51.672
	C144.368,132.95,150.405,131.006,156.734,129.277z"/>
<g>
	<path style="fill:#FBD734;" d="M72.966,256.415c4.435-13.968,16.498-48.273,22.075-58.48c-15.189,7.599-28.2,19.663-31.013,25.816
		C64.028,223.752,79.451,227.834,72.966,256.415z"/>
	<path style="fill:#FBD734;" d="M292.029,198.336c-10.256-11.77-28.297-30.056-44.248-39.687c5.529-0.479,26.598,1.397,35.242,6.759
		C283.023,165.408,279.047,169.755,292.029,198.336z"/>
</g>
<path style="fill:#F9BF2C;" d="M150.493,405.589c4.669,0,8.957,1.621,12.327,4.327c3.595-4.63,9.221-7.599,15.541-7.599
	c6.789,0,12.776,3.428,16.312,8.645c3.575-3.712,8.557-6.027,14.183-6.027c5.617,0,15.873,3.946,21.011,12.64
	c-9.387-6.251-27.584-5.001-35.692,3.419c-7.218-10.637-25.416-11.985-33.846-1.153c-3.37-2.715-7.648-4.327-12.317-4.327
	c-7.384,0-13.812,4.054-17.182,10.061C130.674,414.586,139.455,405.589,150.493,405.589z"/>
<g>
</g>
<g>
</g>
<g>
</g>
<g>
</g>
<g>
</g>
<g>
</g>
<g>
</g>
<g>
</g>
<g>
</g>
<g>
</g>
<g>
</g>
<g>
</g>
<g>
</g>
<g>
</g>
<g>
</g>
</svg>
