<?xml version="1.0" encoding="iso-8859-1"?>
<!-- Generator: Adobe Illustrator 19.0.0, SVG Export Plug-In . SVG Version: 6.00 Build 0)  -->
<svg version="1.1" id="Layer_1" xmlns="http://www.w3.org/2000/svg" xmlns:xlink="http://www.w3.org/1999/xlink" x="0px" y="0px"
	 viewBox="0 0 512 512" style="enable-background:new 0 0 512 512;" xml:space="preserve">
<path style="fill:#B9DDF9;" d="M512,230.2v55.145c-0.144,1.358-0.298,2.707-0.463,4.059l-0.339,2.648
	c-0.142,1.084-0.293,2.162-0.449,3.243c-0.188,1.297-0.387,2.588-0.595,3.88l-0.137,0.841l-0.14,0.841l-0.039,0.233
	c-0.27,1.601-0.555,3.2-0.855,4.79l-0.158,0.834c-0.373,1.947-0.767,3.885-1.182,5.811l-0.059,0.282l-0.062,0.282l-0.062,0.282
	l-0.061,0.282l-0.014,0.073l-0.034,0.151l-0.016,0.074c-0.302,1.37-0.616,2.735-0.941,4.095l-0.018,0.073l-0.016,0.076l-0.018,0.073
	l-0.018,0.073l-0.018,0.076l-0.066,0.28l-0.067,0.279l-0.071,0.28l-0.067,0.28l-0.069,0.277l-0.069,0.28l-0.016,0.059l-0.014,0.062
	l-0.014,0.059c-0.307,1.239-0.623,2.476-0.948,3.709l-0.073,0.277l-0.073,0.275l-0.073,0.277l-0.225,0.829l-0.073,0.275
	l-0.076,0.278l-0.075,0.274l-0.076,0.278l-0.014,0.05c-0.293,1.07-0.595,2.135-0.902,3.195l-0.017,0.053l-0.08,0.275
	c-2.424,8.317-5.255,16.46-8.466,24.406l-0.135,0.328c-3.198,7.875-6.773,15.562-10.699,23.026l-0.117,0.224
	c-0.774,1.464-1.56,2.923-2.36,4.37l-0.073,0.131c-3.251,5.873-6.721,11.605-10.399,17.185l-0.216,0.325
	c-0.852,1.29-1.718,2.57-2.593,3.844l-0.403,0.579c-0.88,1.27-1.766,2.534-2.666,3.787l-0.229,0.316
	c-3.812,5.284-7.821,10.418-12.012,15.393l-0.584,0.694c-0.907,1.072-1.825,2.135-2.751,3.189l-0.82,0.93
	c-0.944,1.065-1.892,2.125-2.854,3.177l-0.293,0.316c-3.196,3.479-6.485,6.867-9.864,10.164l-0.683,0.669
	c-0.95,0.921-1.908,1.833-2.872,2.737l-1.212,1.131c-0.902,0.836-1.812,1.67-2.728,2.492l-1.374,1.226
	c-0.93,0.827-1.862,1.651-2.803,2.464l-0.648,0.552c-2.147,1.842-4.325,3.647-6.531,5.415l-0.847,0.683
	c-0.872,0.694-1.752,1.372-2.632,2.053l-1.864,1.438l-2.506,1.874l-2.039,1.494c-0.857,0.621-1.715,1.241-2.584,1.85l-1.889,1.318
	c-0.9,0.623-1.798,1.25-2.705,1.862c-0.6,0.406-1.209,0.8-1.814,1.201c-1.73,1.145-3.475,2.272-5.234,3.376l-1.92,1.203
	c-0.902,0.557-1.814,1.102-2.726,1.647l-2.226,1.322c-0.827,0.483-1.649,0.962-2.483,1.434l-2.618,1.471l-2.366,1.303
	c-0.965,0.52-1.94,1.033-2.914,1.544c-0.705,0.371-1.406,0.747-2.116,1.111c-1.603,0.822-3.216,1.624-4.835,2.412
	c-0.687,0.337-1.382,0.658-2.073,0.987c-1.031,0.491-2.063,0.976-3.102,1.452l-2.38,1.074c-0.978,0.435-1.956,0.866-2.941,1.288
	l-2.276,0.975c-1.104,0.463-2.217,0.914-3.328,1.363l-2.036,0.818c-1.386,0.547-2.783,1.076-4.18,1.599l-2.034,0.752
	c-1.494,0.54-2.994,1.074-4.499,1.589l-1.977,0.658c-1.198,0.401-2.402,0.795-3.61,1.177l-2.124,0.66
	c-1.17,0.361-2.348,0.71-3.525,1.053l-2.224,0.64c-1.319,0.371-2.646,0.728-3.974,1.078l-1.572,0.419
	c-1.874,0.481-3.756,0.946-5.646,1.386l-1.569,0.348c-1.397,0.318-2.799,0.625-4.208,0.921l-2.151,0.433
	c-1.239,0.247-2.479,0.486-3.725,0.715l-2.229,0.401l-1.342,0.231h-85.987l-1.881-0.326l-1.171-0.21
	c-1.674-0.303-3.34-0.625-5.003-0.962l-1.312-0.268c-1.585-0.33-3.166-0.676-4.74-1.035l-1.718-0.401
	c-1.489-0.351-2.973-0.712-4.453-1.091l-1.64-0.423c-1.466-0.385-2.932-0.781-4.391-1.191l-1.988-0.568
	c-1.317-0.382-2.627-0.774-3.937-1.175l-2.428-0.762c-1.15-0.367-2.295-0.74-3.438-1.12l-2.511-0.854
	c-1.056-0.367-2.11-0.738-3.163-1.118c-1.026-0.369-2.048-0.747-3.067-1.13l-2.442-0.932c-1.262-0.488-2.515-0.985-3.768-1.494
	l-1.855-0.763c-1.278-0.527-2.548-1.065-3.816-1.614l-1.825-0.805c-1.388-0.616-2.772-1.241-4.146-1.883l-0.007-0.002l-1.583-0.743
	c-1.143-0.538-2.281-1.09-3.415-1.647l-0.065-0.03l-0.059-0.03l-0.064-0.032l-0.06-0.03l-0.061-0.03l-0.062-0.03l-0.062-0.032
	l-0.062-0.03l-0.061-0.032l-0.06-0.027l-0.064-0.032l-0.059-0.03l-0.065-0.032l-0.059-0.03l-0.059-0.03l-0.064-0.032l-0.06-0.03
	l-0.064-0.03l-0.307-0.154l-0.06-0.032l-0.123-0.06l-0.062-0.032l-0.062-0.03l-0.062-0.032l-0.059-0.03l-0.062-0.03l-0.062-0.032
	l-0.061-0.032l-0.062-0.027l-0.059-0.032l-0.062-0.032l-0.062-0.032l-0.062-0.028l-0.062-0.032l-0.059-0.032l-0.123-0.06
	l-0.062-0.032c-0.981-0.495-1.954-0.996-2.93-1.505l-0.066-0.037l-0.069-0.034l-0.066-0.034l-0.065-0.037l-0.069-0.034l-0.067-0.036
	l-0.066-0.032l-0.069-0.036l-0.067-0.035l-0.064-0.036l-0.069-0.034l-0.066-0.034l-0.067-0.037l-0.133-0.069l-0.066-0.037
	l-0.669-0.353l-0.064-0.036l-0.135-0.069l-0.066-0.037l-0.067-0.036l-0.067-0.035l-0.067-0.034l-0.066-0.036l-0.067-0.037
	c-1.132-0.605-2.259-1.221-3.378-1.841l-0.062-0.037l-0.064-0.032l-0.06-0.034l-0.064-0.036l-0.062-0.034l-0.059-0.032l-0.064-0.037
	l-0.062-0.034l-0.062-0.032l-0.062-0.037l-0.061-0.034l-0.062-0.037l-0.062-0.032l-1.093-0.617l-0.05-0.027l-0.053-0.03
	l-0.053-0.032l-0.053-0.03l-0.053-0.028l-0.053-0.03l-0.053-0.032l-0.105-0.057l-0.051-0.03l-2.721-1.571l-0.051-0.03l-0.052-0.03
	l-1.349-0.797l-0.236-0.142c-1.285-0.765-2.559-1.539-3.828-2.323l-0.039-0.025l-0.078-0.048l-0.037-0.025l-0.039-0.023
	l-0.039-0.023l-0.039-0.025l-0.039-0.025l-0.037-0.023l-0.039-0.025l-0.039-0.023l-0.039-0.023l-0.039-0.025l-0.039-0.025
	l-0.036-0.023l-0.039-0.022l-0.04-0.026l-0.039-0.022l-0.039-0.026l-0.245-0.156c-1.29-0.804-2.568-1.619-3.841-2.446l-0.042-0.028
	l-0.044-0.03l-0.044-0.028l-0.044-0.028l-0.044-0.027l-0.041-0.03l-0.044-0.028l-0.042-0.028l-0.046-0.027l-0.344-0.225
	l-1.374-0.909l-0.353-0.233l-0.044-0.032l-0.046-0.03l-0.041-0.03l-0.046-0.028l-0.046-0.03l-0.042-0.03l-0.046-0.03l-0.044-0.03
	l-0.044-0.028l-0.044-0.03l-0.046-0.032c-0.93-0.623-1.853-1.255-2.774-1.889l-0.701-0.481l-1.115-0.781l-0.044-0.03l-0.039-0.028
	l-0.044-0.03l-0.042-0.03l-0.039-0.03l-0.044-0.028l-0.039-0.028l-0.044-0.03l-0.039-0.03l-0.041-0.03l-0.044-0.028l-0.039-0.03
	l-0.044-0.03l-0.985-0.701l-1.422-1.022l-0.168-0.119l-2.089-1.533l-0.048-0.034l-0.046-0.036l-0.096-0.069l-0.048-0.037
	l-0.046-0.032l-0.048-0.036l-0.048-0.034l-0.046-0.037l-0.52-0.387l-0.872-0.653l-0.47-0.357l-0.053-0.039l-0.053-0.041l-0.05-0.039
	l-0.055-0.039l-0.05-0.042l-0.053-0.039l-0.053-0.039l-0.053-0.042l-0.05-0.039c-0.667-0.499-1.324-1.01-1.977-1.521l-0.05-0.039
	l-0.158-0.119l-0.05-0.041l-0.053-0.042l-0.051-0.039l-0.053-0.041L98.732,461l-1.415-1.12l-0.057-0.046l-0.057-0.046l-0.055-0.044
	l-0.057-0.046l-0.055-0.046l-0.057-0.044l-1.853-1.494l-0.131-0.105l-0.018-0.014l-0.08-0.069l-0.282-0.231l-0.057-0.046
	l-0.057-0.046l-0.057-0.048l-0.055-0.046l-0.057-0.046l-0.055-0.046l-0.059-0.046c-0.547-0.447-1.088-0.898-1.629-1.354
	l-0.055-0.046l-0.055-0.047l-0.057-0.048l-0.055-0.046l-0.057-0.048l-0.055-0.046l-0.057-0.046l-0.893-0.754l-0.502-0.426
	l-1.189-1.019l-1.658-1.439c-1.033-0.905-2.058-1.818-3.074-2.739l-1.427-1.299c-1.115-1.026-2.226-2.064-3.324-3.109l-1.012-0.969
	c-1.189-1.143-2.368-2.3-3.534-3.468l-0.825-0.829c-1.193-1.202-2.371-2.414-3.539-3.638l-0.669-0.706
	c-1.171-1.237-2.327-2.488-3.473-3.747l-0.721-0.795c-1.175-1.301-2.335-2.613-3.484-3.942l-0.47-0.543
	c-1.2-1.395-2.383-2.801-3.555-4.222c-21.5-26.081-37.956-56.488-47.934-89.719l-0.174-0.589l-0.577-1.94l-0.062-0.215l-0.666-2.355
	l-0.06-0.213l-0.059-0.218l-0.057-0.213l-0.754-2.799l-0.055-0.215l-0.059-0.216l-0.644-2.528l-0.018-0.069l-0.055-0.216
	l-0.632-2.607l-0.053-0.22l-0.051-0.218l-0.052-0.216l-0.319-1.308l-0.112-0.518l-0.101-0.47l-0.014-0.069l-0.014-0.067
	l-0.016-0.067l-0.016-0.069l-0.016-0.067l-0.014-0.069l-0.016-0.066l-0.014-0.069l-0.676-3.111l-0.013-0.069l-0.016-0.067
	l-0.011-0.069l-0.048-0.22l-0.002-0.014l-0.222-1.026l-0.014-0.055l-0.044-0.227l-0.071-0.371l-0.053-0.28l-0.018-0.094
	l-0.018-0.096l-0.018-0.096l-0.018-0.094c-0.266-1.333-0.522-2.669-0.768-4.009l-0.018-0.098l-0.014-0.094l-0.018-0.096
	l-0.018-0.094l-0.018-0.098l-0.177-0.956l-0.048-0.293l-0.016-0.104l-0.016-0.098l-0.018-0.101l-0.016-0.101l-0.018-0.1
	c-0.25-1.434-0.488-2.879-0.715-4.325l-0.016-0.101l-0.016-0.101l-0.014-0.101l-0.016-0.101l-0.185-1.211l-0.012-0.089
	c-0.257-1.709-0.495-3.427-0.714-5.147l-0.119-0.923c-0.241-1.92-0.46-3.843-0.657-5.772l-0.057-0.561
	c-0.204-2.02-0.382-4.05-0.538-6.086l-0.03-0.369c-0.154-2.062-0.286-4.135-0.392-6.212v-0.011l-0.009-0.14l-0.005-0.124
	c-0.106-2.132-0.19-4.274-0.243-6.421l-0.002-0.069v-0.073C0.03,262.197,0,260.001,0,257.804c0-2.164,0.03-4.32,0.082-6.473
	l0.007-0.323c0.053-2.112,0.133-4.217,0.239-6.312l0.02-0.374c0.106-2.043,0.233-4.081,0.384-6.113l0.04-0.493
	c0.153-2.007,0.332-4.008,0.531-6.001l0.048-0.495c0.202-1.967,0.424-3.93,0.671-5.884l0.106-0.82
	c0.229-1.8,0.481-3.596,0.749-5.388l0.192-1.248c0.264-1.709,0.543-3.411,0.841-5.108l0.197-1.105
	c0.297-1.658,0.616-3.315,0.946-4.961l0.36-1.755c0.295-1.427,0.605-2.847,0.925-4.267l0.493-2.151
	c0.322-1.372,0.653-2.739,0.996-4.1l0.602-2.339c0.286-1.09,0.58-2.181,0.88-3.266c0.293-1.056,0.591-2.105,0.894-3.154
	c0.286-0.987,0.577-1.976,0.874-2.962l0.958-3.09l0.843-2.602c0.412-1.253,0.829-2.501,1.257-3.743l0.026-0.069l0.568-1.622
	l0.087-0.245c0.543-1.535,1.104-3.06,1.674-4.581l0.607-1.603c9.33-24.315,22.214-46.855,38.027-66.969l0.103-0.131l0.103-0.131
	c0.891-1.134,1.796-2.259,2.708-3.377l0.106-0.131l0.105-0.128l0.848-1.026l0.107-0.129l0.106-0.128l0.105-0.126l0.108-0.129
	c0.744-0.898,1.493-1.791,2.251-2.673l0.107-0.126C108.956,34.883,178.792,0.001,256.73,0.001
	c62.174,0,119.191,22.196,163.61,59.128c1.209,1.006,2.408,2.025,3.596,3.056l0.124,0.105l0.123,0.108l1.349,1.179l0.121,0.106
	l0.122,0.108l0.121,0.107l1.823,1.624l0.122,0.108l0.121,0.107l0.121,0.112l0.121,0.107c15.761,14.216,29.764,30.344,41.634,48.051
	c0.935,1.397,1.858,2.806,2.77,4.224l0.756,1.184c0.864,1.359,1.711,2.724,2.548,4.098l0.762,1.26
	c0.836,1.388,1.659,2.786,2.467,4.192l0.468,0.814c0.863,1.509,1.706,3.032,2.54,4.56l0.627,1.159
	c0.818,1.521,1.62,3.049,2.41,4.588l0.447,0.882c0.748,1.475,1.484,2.964,2.206,4.457l0.476,0.987
	c0.747,1.562,1.477,3.136,2.195,4.715l0.513,1.136c0.714,1.596,1.413,3.202,2.096,4.815l0.396,0.953
	c0.658,1.566,1.298,3.142,1.924,4.725l0.355,0.896c0.646,1.654,1.271,3.315,1.885,4.984l0.367,1.001
	c0.625,1.723,1.235,3.454,1.821,5.195l0.231,0.687c0.584,1.746,1.152,3.502,1.7,5.264l0.169,0.532
	c0.552,1.793,1.086,3.596,1.601,5.406l0.259,0.914c0.52,1.848,1.022,3.699,1.5,5.564l0.11,0.433
	c0.479,1.881,0.939,3.771,1.376,5.668l0.104,0.442c0.444,1.936,0.863,3.878,1.264,5.83l0.105,0.515
	c0.392,1.94,0.762,3.885,1.113,5.841l0.096,0.545c0.346,1.956,0.671,3.926,0.973,5.896l0.03,0.174l0.016,0.107
	c0.307,2.023,0.586,4.054,0.847,6.093l0.051,0.399C511.626,226.823,511.821,228.509,512,230.2z"/>
<path style="fill:#F9BF2C;" d="M512,230.2v55.145c-0.144,1.358-0.298,2.707-0.463,4.059l-0.339,2.648
	c-0.142,1.084-0.293,2.162-0.449,3.243c-0.188,1.297-0.387,2.588-0.595,3.88l-0.137,0.841l-0.14,0.841l-0.039,0.233
	c-0.27,1.601-0.555,3.2-0.855,4.79l-0.158,0.834c-0.373,1.947-0.767,3.885-1.182,5.811l-0.059,0.282l-0.062,0.282l-0.062,0.282
	l-0.061,0.282l-0.014,0.073l-0.034,0.151l-0.016,0.074c-0.302,1.37-0.616,2.735-0.941,4.095l-0.018,0.073l-0.016,0.076l-0.018,0.073
	l-0.018,0.073l-0.018,0.076l-0.066,0.28l-0.067,0.279l-0.071,0.28l-0.067,0.28l-0.069,0.277l-0.069,0.28l-0.016,0.059l-0.014,0.062
	l-0.014,0.059l-0.034,0.135c-76.937-2.714-189.43-12.198-189.43-12.198l-1.024-5.486l-5.381-28.814c0,0,16.451-33.596,52.087-49.193
	c35.635-15.599,75.705-49.633,78.444-55.139c2.742-5.503,25.057,12.552,36.934,34.572c10.227,18.957,28.458,17.115,33.326,16.238
	c0.208,1.45,0.406,2.9,0.591,4.356l0.051,0.399C511.626,226.823,511.821,228.509,512,230.2z"/>
<path style="fill:#FFED58;" d="M256.181,31.491c12.548,0,22.718,10.214,22.718,22.814c0,12.603-10.17,22.819-22.718,22.819
	c-12.548,0-22.723-10.216-22.723-22.819C233.458,41.704,243.633,31.491,256.181,31.491z"/>
<path style="fill:#F7F9E5;" d="M275.411,57.695c4.373,0,8.267,1.976,10.805,5.053c0.307,0.378,0.779,0.584,1.329,0.584
	c0.549,0,1.023-0.206,1.328-0.584c2.538-3.076,6.432-5.053,10.803-5.053c5.172,0,9.68,2.763,12.051,6.851
	c0.255,0.44,0.74,0.712,1.329,0.751c1.606,0.096,3.282,0.446,4.794,1.045c1.624,1.347,3.209,2.733,4.773,4.143
	c0.204,0.532,0.312,1.097,0.312,1.707c0,4.625-6.162,6.996-11.199,6.913c-0.552-0.009-1.037,0.195-1.353,0.57
	c-2.538,3.012-6.389,4.938-10.707,4.938c-4.37,0-8.265-1.972-10.803-5.053c-0.305-0.373-0.779-0.58-1.328-0.58
	c-0.55,0-1.022,0.206-1.329,0.58c-2.538,3.081-6.432,5.053-10.805,5.053c-4.343,0-8.221-1.951-10.759-5
	c-0.339-0.41-0.882-0.617-1.482-0.57c-5.365,0.435-12.285-1.903-12.285-6.851c0-4.572,6.027-6.948,11.027-6.915
	c0.639,0.002,1.186-0.28,1.461-0.752C265.751,60.449,270.252,57.695,275.411,57.695z"/>
<path style="fill:#FFC928;" d="M512,245.213v40.132c-0.144,1.358-0.298,2.707-0.463,4.059l-0.339,2.648
	c-0.142,1.084-0.293,2.162-0.449,3.243c-0.188,1.297-0.387,2.588-0.595,3.88l-0.137,0.841l-0.14,0.841l-0.039,0.233
	c-0.27,1.601-0.555,3.2-0.855,4.79l-0.158,0.834c-0.373,1.947-0.767,3.885-1.182,5.811l-0.059,0.282l-0.062,0.282l-0.062,0.282
	l-0.061,0.282l-0.014,0.073l-0.034,0.151l-0.016,0.074c-0.302,1.37-0.616,2.735-0.941,4.095l-0.018,0.073l-0.016,0.076l-0.018,0.073
	l-0.018,0.073l-0.018,0.076l-0.066,0.28l-0.067,0.279l-0.071,0.28l-0.067,0.28l-0.069,0.277l-0.069,0.28l-0.016,0.059l-0.014,0.062
	l-0.014,0.059l-0.048,0.188c-76.935-2.036-189.416-9.155-189.416-9.155l-1.024-4.112l-5.381-21.621c0,0,16.451-25.213,52.087-36.916
	c35.635-11.703,75.705-37.241,78.444-41.371c2.742-4.132,25.057,9.417,36.934,25.936C489.327,249.745,512,245.213,512,245.213z"/>
<path style="fill:#64B3F5;" d="M512,276.094v9.25c-0.144,1.358-0.298,2.707-0.463,4.059l-0.339,2.648
	c-0.142,1.084-0.293,2.162-0.449,3.243c-0.188,1.297-0.387,2.588-0.595,3.88l-0.137,0.841l-0.14,0.841l-0.039,0.233
	c-0.27,1.601-0.555,3.2-0.855,4.79l-0.158,0.834c-0.373,1.947-0.767,3.885-1.182,5.811l-0.059,0.282l-0.062,0.282l-0.062,0.282
	l-0.061,0.282l-0.014,0.073l-0.034,0.151l-0.016,0.074c-0.302,1.37-0.616,2.735-0.941,4.095l-0.018,0.073l-0.016,0.076l-0.018,0.073
	l-0.018,0.073l-0.018,0.076l-0.066,0.28l-0.067,0.279l-0.071,0.28l-0.067,0.28l-0.069,0.277l-0.069,0.28l-0.016,0.059l-0.014,0.062
	l-0.014,0.059c-0.307,1.239-0.623,2.476-0.948,3.709l-0.073,0.277l-0.073,0.275l-0.073,0.277l-0.225,0.829l-0.073,0.275
	l-0.076,0.278l-0.075,0.274l-0.076,0.278l-0.014,0.05c-0.293,1.07-0.595,2.135-0.902,3.195l-0.017,0.053l-0.08,0.275
	c-2.424,8.317-5.255,16.46-8.466,24.406l-0.135,0.328c-3.198,7.875-6.773,15.562-10.699,23.026l-0.117,0.224
	c-0.774,1.464-1.56,2.923-2.36,4.37l-0.073,0.131c-2.373,4.291-4.866,8.505-7.47,12.642c-88.48-7.726-309.82-23.786-436.828-4.256
	c-11.011-18.259-19.823-38.001-26.086-58.855l-0.174-0.589l-0.577-1.94l-0.062-0.215l-0.666-2.355l-0.06-0.213l-0.059-0.218
	l-0.057-0.213l-0.754-2.799l-0.055-0.215l-0.059-0.216l-0.644-2.528l-0.018-0.069l-0.055-0.216l-0.632-2.607l-0.053-0.22
	l-0.051-0.218l-0.052-0.216l-0.319-1.308l-0.112-0.518l-0.101-0.47l-0.014-0.069l-0.014-0.067l-0.016-0.067l-0.016-0.069
	l-0.016-0.067l-0.014-0.069l-0.016-0.066l-0.014-0.069l-0.676-3.111l-0.013-0.069l-0.016-0.067l-0.011-0.069l-0.048-0.22
	l-0.002-0.014l-0.222-1.026l-0.014-0.055l-0.044-0.227l-0.071-0.371l-0.053-0.28l-0.018-0.094l-0.018-0.096l-0.018-0.096
	l-0.018-0.094c-0.266-1.333-0.522-2.669-0.768-4.009l-0.018-0.098l-0.014-0.094l-0.018-0.096l-0.018-0.094l-0.018-0.098
	l-0.177-0.956l-0.048-0.293l-0.016-0.104l-0.016-0.098l-0.018-0.101l-0.016-0.101l-0.018-0.1c-0.25-1.434-0.488-2.879-0.715-4.325
	l-0.016-0.101l-0.016-0.101l-0.014-0.101l-0.016-0.101l-0.185-1.211l-0.012-0.089c-0.257-1.709-0.495-3.427-0.714-5.147
	l-0.119-0.923c-0.213-1.698-0.408-3.397-0.586-5.104c21.658-1.163,166.903-8.787,308.551-11.21
	C384.49,272.634,457.998,272.798,512,276.094z"/>
<path style="fill:#FFEF76;" d="M299.698,511.999H213.74l-1.894-0.328l-1.171-0.21c-1.674-0.303-3.34-0.625-5.003-0.962l-1.312-0.268
	c-1.585-0.33-3.166-0.676-4.74-1.035l-1.718-0.401c-1.489-0.351-2.973-0.712-4.453-1.091l-1.64-0.423
	c-1.466-0.385-2.932-0.781-4.391-1.191l-1.988-0.568c-1.317-0.382-2.627-0.774-3.937-1.175l-2.428-0.762
	c-1.15-0.367-2.295-0.74-3.438-1.12l-2.511-0.854c-1.056-0.367-2.11-0.738-3.163-1.118c-1.026-0.369-2.048-0.747-3.067-1.13
	l-2.442-0.932c-1.262-0.488-2.515-0.985-3.768-1.494l-1.855-0.763c-1.278-0.527-2.548-1.065-3.816-1.614l-1.825-0.805
	c-1.388-0.616-2.772-1.241-4.146-1.883l-0.007-0.002l-1.583-0.743c-1.143-0.538-2.281-1.09-3.415-1.647l-0.065-0.03l-0.059-0.03
	l-0.064-0.032l-0.06-0.03l-0.061-0.03l-0.062-0.03l-0.062-0.032l-0.062-0.03l-0.061-0.032l-0.06-0.027l-0.064-0.032l-0.059-0.03
	l-0.065-0.032l-0.059-0.03l-0.059-0.03l-0.064-0.032l-0.06-0.03l-0.064-0.03l-0.307-0.154l-0.06-0.032l-0.123-0.06l-0.062-0.032
	l-0.062-0.03l-0.062-0.032l-0.059-0.03l-0.062-0.03l-0.062-0.032l-0.061-0.032l-0.062-0.027l-0.059-0.032l-0.062-0.032l-0.062-0.032
	l-0.062-0.028l-0.062-0.032l-0.059-0.032l-0.123-0.06l-0.062-0.032c-0.981-0.495-1.954-0.996-2.93-1.505l-0.066-0.037l-0.069-0.034
	l-0.066-0.034l-0.065-0.037l-0.069-0.034l-0.067-0.036l-0.066-0.032l-0.069-0.036l-0.067-0.035l-0.064-0.036l-0.069-0.034
	l-0.066-0.034l-0.067-0.037l-0.133-0.069l-0.066-0.037l-0.669-0.353l-0.064-0.036l-0.135-0.069l-0.066-0.037l-0.067-0.036
	l-0.067-0.035l-0.067-0.034l-0.066-0.036l-0.067-0.037c-1.132-0.605-2.259-1.221-3.378-1.841l-0.062-0.037l-0.064-0.032l-0.06-0.034
	l-0.064-0.036l-0.062-0.034l-0.059-0.032l-0.064-0.037l-0.062-0.034l-0.062-0.032l-0.062-0.037l-0.061-0.034l-0.062-0.037
	l-0.062-0.032l-1.093-0.617l-0.05-0.027l-0.053-0.03l-0.053-0.032l-0.053-0.03l-0.053-0.028l-0.053-0.03l-0.053-0.032l-0.105-0.057
	l-0.051-0.03l-2.721-1.571l-0.051-0.03l-0.052-0.03l-1.349-0.797l-0.236-0.142c-1.285-0.765-2.559-1.539-3.828-2.323l-0.039-0.025
	l-0.078-0.048l-0.037-0.025l-0.039-0.023l-0.039-0.023l-0.039-0.025l-0.039-0.025l-0.037-0.023l-0.039-0.025l-0.039-0.023
	l-0.039-0.023l-0.039-0.025l-0.039-0.025l-0.036-0.023l-0.039-0.022l-0.04-0.026l-0.039-0.022l-0.039-0.026l-0.245-0.156
	c-1.29-0.804-2.568-1.619-3.841-2.446l-0.042-0.028l-0.044-0.03l-0.044-0.028l-0.044-0.028l-0.044-0.027l-0.041-0.03l-0.044-0.028
	l-0.042-0.028l-0.046-0.027l-0.344-0.225l-1.374-0.909l-0.353-0.233l-0.044-0.032l-0.046-0.03l-0.041-0.03l-0.046-0.028l-0.046-0.03
	l-0.042-0.03l-0.046-0.03l-0.044-0.03l-0.044-0.028l-0.044-0.03l-0.046-0.032c-0.93-0.623-1.853-1.255-2.774-1.889l-0.701-0.481
	l-1.115-0.781l-0.044-0.03l-0.039-0.028l-0.044-0.03l-0.042-0.03l-0.039-0.03l-0.044-0.028l-0.039-0.028l-0.044-0.03l-0.039-0.03
	l-0.041-0.03l-0.044-0.028l-0.039-0.03l-0.044-0.03l-0.985-0.701l-1.422-1.022l-0.168-0.119l-2.089-1.533l-0.048-0.034l-0.046-0.036
	l-0.096-0.069l-0.048-0.037l-0.046-0.032l-0.048-0.036l-0.048-0.034l-0.046-0.037l-0.52-0.387l-0.872-0.653l-0.47-0.357
	l-0.053-0.039l-0.053-0.041l-0.05-0.039l-0.055-0.039l-0.05-0.042l-0.053-0.039l-0.053-0.039l-0.053-0.042l-0.05-0.039
	c-0.667-0.499-1.324-1.01-1.977-1.521l-0.05-0.039l-0.158-0.119l-0.05-0.041l-0.053-0.042l-0.051-0.039l-0.053-0.041L98.732,461
	l-1.415-1.12l-0.057-0.046l-0.057-0.046l-0.055-0.044l-0.057-0.046l-0.055-0.046l-0.057-0.044l-1.853-1.494l-0.131-0.105
	l-0.018-0.014l-0.08-0.069l-0.282-0.231l-0.057-0.046l-0.057-0.046l-0.057-0.048l-0.055-0.046l-0.057-0.046l-0.055-0.046
	l-0.059-0.046c-0.547-0.447-1.088-0.898-1.629-1.354l-0.055-0.046l-0.055-0.047l-0.057-0.048l-0.055-0.046l-0.057-0.048
	l-0.055-0.046l-0.057-0.046l-0.893-0.754l-0.502-0.426l-1.189-1.019l-1.658-1.439c-1.033-0.905-2.058-1.818-3.074-2.739
	l-1.427-1.299c-1.115-1.026-2.226-2.064-3.324-3.109l-1.012-0.969c-1.189-1.143-2.368-2.3-3.534-3.468l-0.825-0.829
	c-1.193-1.202-2.371-2.414-3.539-3.638l-0.669-0.706c-1.171-1.237-2.327-2.488-3.473-3.747l-0.721-0.795
	c-1.175-1.301-2.335-2.613-3.484-3.942l-0.47-0.543c-1.2-1.395-2.383-2.801-3.555-4.222c-7.765-9.419-14.87-19.402-21.252-29.879
	c75.109-11.607,249.382-31.017,438.115,0.229c-1.56,2.557-3.165,5.088-4.812,7.585l-0.216,0.325c-0.852,1.29-1.718,2.57-2.593,3.844
	l-0.403,0.579c-0.88,1.27-1.766,2.534-2.666,3.787l-0.229,0.316c-3.812,5.284-7.821,10.418-12.012,15.393l-0.584,0.694
	c-0.907,1.072-1.825,2.135-2.751,3.189l-0.82,0.93c-0.944,1.065-1.892,2.125-2.854,3.177l-0.293,0.316
	c-3.196,3.479-6.485,6.867-9.864,10.164l-0.683,0.669c-0.95,0.921-1.908,1.833-2.872,2.737l-1.212,1.131
	c-0.902,0.836-1.812,1.67-2.728,2.492l-1.374,1.226c-0.93,0.827-1.862,1.651-2.803,2.464l-0.648,0.552
	c-2.147,1.842-4.325,3.647-6.531,5.415l-0.847,0.683c-0.872,0.694-1.752,1.372-2.632,2.053l-1.864,1.438l-2.506,1.874l-2.039,1.494
	c-0.857,0.621-1.715,1.241-2.584,1.85l-1.889,1.318c-0.9,0.623-1.798,1.25-2.705,1.862c-0.6,0.406-1.209,0.8-1.814,1.201
	c-1.73,1.145-3.475,2.272-5.234,3.376l-1.92,1.203c-0.902,0.557-1.814,1.102-2.726,1.647l-2.226,1.322
	c-0.827,0.483-1.649,0.962-2.483,1.434l-2.618,1.471l-2.366,1.303c-0.965,0.52-1.94,1.033-2.914,1.544
	c-0.705,0.371-1.406,0.747-2.116,1.111c-1.603,0.822-3.216,1.624-4.835,2.412c-0.687,0.337-1.382,0.658-2.073,0.987
	c-1.031,0.491-2.063,0.976-3.102,1.452l-2.38,1.074c-0.978,0.435-1.956,0.866-2.941,1.288l-2.276,0.975
	c-1.104,0.463-2.217,0.914-3.328,1.363l-2.036,0.818c-1.386,0.547-2.783,1.076-4.18,1.599l-2.034,0.752
	c-1.494,0.54-2.994,1.074-4.499,1.589l-1.977,0.658c-1.198,0.401-2.402,0.795-3.61,1.177l-2.124,0.66
	c-1.17,0.361-2.348,0.71-3.525,1.053l-2.224,0.64c-1.319,0.371-2.646,0.728-3.974,1.078l-1.572,0.419
	c-1.874,0.481-3.756,0.946-5.646,1.386l-1.569,0.348c-1.397,0.318-2.799,0.625-4.208,0.921l-2.151,0.433
	c-1.239,0.247-2.479,0.486-3.725,0.715l-2.229,0.401L299.698,511.999z"/>
<path style="fill:#F9BF2C;" d="M274.29,401.172c1.459,0,2.639,0.495,2.639,1.107c0,0.607-1.18,1.101-2.639,1.101
	c-1.454,0-2.634-0.495-2.634-1.101C271.656,401.666,272.836,401.172,274.29,401.172z M311.428,381.752
	c2.792,0,5.056,1.679,5.056,3.754c0,2.069-2.263,3.752-5.056,3.752s-5.051-1.684-5.051-3.752
	C306.378,383.431,308.636,381.752,311.428,381.752z M258.911,390.138c2.666,0,4.833,1.285,4.833,2.867
	c0,1.587-2.167,2.871-4.833,2.871c-2.671,0-4.838-1.283-4.838-2.871C254.073,391.423,256.24,390.138,258.911,390.138z
	 M140.683,473.551c1.7,0,3.074,0.79,3.074,1.763c0,0.979-1.374,1.766-3.074,1.766c-1.699,0-3.078-0.787-3.078-1.766
	C137.604,474.341,138.983,473.551,140.683,473.551z M192.105,465.607c1.211,0,2.197,0.396,2.197,0.882
	c0,0.488-0.985,0.884-2.197,0.884c-1.216,0-2.199-0.396-2.199-0.884C189.907,466.003,190.889,465.607,192.105,465.607z
	 M187.27,499.588c3.154,0,5.715,0.99,5.715,2.211c0,1.216-2.561,2.206-5.715,2.206c-3.157,0-5.713-0.99-5.713-2.206
	C181.557,500.578,184.113,499.588,187.27,499.588z M99.809,399.408c2.426,0,4.393,0.689,4.393,1.541
	c0,0.857-1.968,1.546-4.393,1.546c-2.426,0-4.396-0.69-4.396-1.546C95.413,400.097,97.384,399.408,99.809,399.408z M384.611,394.992
	c2.907,0,5.269,1.186,5.269,2.65c0,1.463-2.362,2.648-5.269,2.648c-2.916,0-5.278-1.184-5.278-2.648
	C379.334,396.178,381.695,394.992,384.611,394.992z M342.854,409.997c1.459,0,2.636,0.99,2.636,2.206
	c0,1.221-1.177,2.208-2.636,2.208c-1.455,0-2.635-0.987-2.635-2.208C340.219,410.987,341.399,409.997,342.854,409.997z
	 M330.111,390.58c0.969,0,1.757,0.394,1.757,0.88c0,0.49-0.788,0.882-1.757,0.882c-0.971,0-1.759-0.392-1.759-0.882
	C328.351,390.974,329.139,390.58,330.111,390.58z M448.339,409.555c0.969,0,1.757,0.495,1.757,1.104
	c0,0.611-0.788,1.104-1.757,1.104c-0.974,0-1.759-0.493-1.759-1.104C446.58,410.05,447.365,409.555,448.339,409.555z
	 M354.281,477.525c1.702,0,3.076,0.096,3.076,0.22c0,0.121-1.374,0.22-3.076,0.22c-1.697,0-3.076-0.098-3.076-0.22
	C351.205,477.621,352.584,477.525,354.281,477.525z M340.657,498.706c1.454,0,2.639,0.396,2.639,0.882
	c0,0.488-1.184,0.886-2.639,0.886c-1.453,0-2.637-0.398-2.637-0.886C338.02,499.103,339.204,498.706,340.657,498.706z
	 M401.31,466.931c1.897,0,3.482,0.522,3.865,1.219l-0.887,0.627l-1.658,1.157c-0.413,0.057-0.857,0.087-1.32,0.087
	c-2.187,0-3.956-0.692-3.956-1.541C397.354,467.623,399.123,466.931,401.31,466.931z M223.528,469.137
	c2.309,0,4.178,0.992,4.178,2.208c0,1.219-1.87,2.206-4.178,2.206c-2.304,0-4.173-0.987-4.173-2.206
	C219.355,470.129,221.224,469.137,223.528,469.137z M303.517,464.725c1.825,0,3.298,0.793,3.298,1.763
	c0,0.979-1.473,1.766-3.298,1.766c-1.819,0-3.294-0.787-3.294-1.766C300.223,465.518,301.698,464.725,303.517,464.725z
	 M291.214,482.821c2.064,0,3.736,0.793,3.736,1.761c0,0.976-1.672,1.768-3.736,1.768s-3.736-0.792-3.736-1.768
	C287.478,483.614,289.149,482.821,291.214,482.821z M220.672,503.12c1.94,0,3.516,0.594,3.516,1.329
	c0,0.726-1.576,1.319-3.516,1.319c-1.943,0-3.514-0.593-3.514-1.319C217.158,503.714,218.729,503.12,220.672,503.12z M97.39,421.475
	c1.578,0,2.861,0.491,2.861,1.102c0,0.609-1.283,1.104-2.861,1.104c-1.576,0-2.859-0.495-2.859-1.104
	C94.532,421.966,95.814,421.475,97.39,421.475z M416.472,432.505c2.063,0,3.738,0.992,3.738,2.208c0,1.219-1.674,2.206-3.738,2.206
	c-2.062,0-3.737-0.987-3.737-2.206C412.735,433.497,414.41,432.505,416.472,432.505z M406.361,411.763
	c1.581,0,2.856,0.889,2.856,1.988c0,1.095-1.275,1.982-2.856,1.982c-1.574,0-2.854-0.887-2.854-1.982
	C403.507,412.652,404.787,411.763,406.361,411.763z M361.096,395.876c2.062,0,3.733,1.184,3.733,2.648
	c0,1.463-1.672,2.648-3.733,2.648c-2.064,0-3.739-1.184-3.739-2.648C357.357,397.06,359.032,395.876,361.096,395.876z
	 M378.236,454.131c1.817,0,3.294,0.793,3.294,1.769c0,0.973-1.477,1.763-3.294,1.763c-1.821,0-3.298-0.79-3.298-1.763
	C374.938,454.923,376.416,454.131,378.236,454.131z M382.41,417.062c6.553,0,11.868,3.555,11.868,7.944
	c0,4.387-5.315,7.944-11.868,7.944c-6.554,0-11.865-3.557-11.865-7.944C370.545,420.617,375.856,417.062,382.41,417.062z
	 M325.715,445.307c1.942,0,3.516,0.689,3.516,1.546c0,0.85-1.574,1.539-3.516,1.539c-1.943,0-3.516-0.689-3.516-1.539
	C322.199,445.997,323.772,445.307,325.715,445.307z M326.372,466.931c2.066,0,3.739,1.088,3.739,2.428s-1.672,2.426-3.739,2.426
	c-2.063,0-3.733-1.085-3.733-2.426S324.309,466.931,326.372,466.931z M338.46,452.809c0.728,0,1.319,0.197,1.319,0.443
	c0,0.24-0.591,0.442-1.319,0.442c-0.729,0-1.318-0.202-1.318-0.442C337.143,453.006,337.732,452.809,338.46,452.809z
	 M322.639,431.625c0.969,0,1.754,0.493,1.754,1.104c0,0.607-0.785,1.102-1.754,1.102c-0.971,0-1.757-0.495-1.757-1.102
	C320.882,432.118,321.667,431.625,322.639,431.625z M300.66,406.025c4.614,0,8.354,1.682,8.354,3.752
	c0,2.073-3.741,3.754-8.354,3.754c-4.611,0-8.349-1.682-8.349-3.754C292.311,407.707,296.049,406.025,300.66,406.025z
	 M286.598,387.489c2.912,0,5.275,1.184,5.275,2.648c0,1.461-2.364,2.648-5.275,2.648c-2.914,0-5.273-1.186-5.273-2.648
	C281.325,388.674,283.684,387.489,286.598,387.489z M53.218,403.379c2.432,0,4.398,1.972,4.398,4.41
	c0,2.439-1.966,4.414-4.398,4.414c-1.125,0-2.151-0.424-2.927-1.122l-1.074-1.466c-0.25-0.557-0.392-1.175-0.392-1.825
	C48.825,405.352,50.792,403.379,53.218,403.379z"/>
<path style="fill:#8FC9F7;" d="M349.775,302.421c66.511,0,120.425,1.974,120.425,4.414c0,2.437-53.915,4.412-120.425,4.412
	s-120.424-1.974-120.424-4.412C229.351,304.395,283.265,302.421,349.775,302.421z M247.616,294.475
	c137.492,0,248.954-1.778,248.954-3.97c0-2.194-111.462-3.974-248.954-3.974c-123.671,0-226.256,1.441-245.644,3.326l0.046,0.367
	l0.119,0.923l0.002,0.023C21.939,293.048,124.296,294.475,247.616,294.475z M183.204,314.779c95.879,0,173.606,1.578,173.606,3.532
	c0,1.947-77.728,3.53-173.606,3.53c-95.878,0-173.606-1.583-173.606-3.53C9.598,316.357,87.325,314.779,183.204,314.779z
	 M169.384,347.436c94.287,0,170.723,2.767,170.723,6.181c0,3.411-76.436,6.177-170.723,6.177c-64.625,0-120.853-1.3-149.846-3.214
	c-0.79-1.912-1.56-3.837-2.304-5.772C45.478,348.806,103.007,347.436,169.384,347.436z M431.329,354.498
	c-44.555,0-80.671,1.78-80.671,3.972c0,2.192,36.117,3.972,80.671,3.972c24.189,0,45.89-0.525,60.676-1.354
	c0.738-1.693,1.459-3.395,2.16-5.108C479.376,355.08,456.727,354.498,431.329,354.498z M342.304,332.435
	c26.945,0,48.786,1.379,48.786,3.083c0,1.709-21.841,3.095-48.786,3.095c-26.942,0-48.788-1.386-48.788-3.095
	C293.516,333.814,315.362,332.435,342.304,332.435z M439.68,320.613c-39.946,0-72.324,1.659-72.324,3.702
	c0,2.048,32.378,3.704,72.324,3.704c28.308,0,52.815-0.834,64.69-2.045l0.016-0.06l0.073-0.275l0.225-0.829l0.073-0.277l0.073-0.275
	l0.073-0.277l0.32-1.233C493.696,321.488,468.686,320.613,439.68,320.613z"/>
<path style="fill:#FFFFFF;" d="M120.06,87.492l140.388,354.547c1.436,3.633,0.227,7.686-2.974,9.119
	c-3.202,1.429-7.254-0.268-8.675-3.913L109.897,91.624C106.849,83.76,117.064,80.462,120.06,87.492z"/>
<path style="fill:#E7B32E;" d="M36.865,390.967c16.398-3.834,103.071-22.735,219.288-22.808l22.455,61.792l27.517,18.206
	l23.893,28.697l-104.006,1.766l3.026,7.724l-138.31-31.89l-1.118-0.96l-1.658-1.439c-1.033-0.905-2.058-1.818-3.074-2.739
	l-1.427-1.299c-1.115-1.026-2.226-2.064-3.324-3.109l-1.012-0.969c-1.189-1.143-2.368-2.3-3.534-3.468l-0.825-0.829
	c-1.193-1.202-2.371-2.414-3.539-3.638l-0.669-0.706c-1.171-1.237-2.327-2.488-3.473-3.747l-0.721-0.795
	c-1.175-1.301-2.335-2.613-3.484-3.942l-0.47-0.543c-1.2-1.395-2.383-2.801-3.555-4.222
	C50.785,412.272,43.432,401.884,36.865,390.967z"/>
<polygon style="fill:#FFFFFF;" points="294.76,417.286 297.964,424.264 172.413,460.13 169.208,453.16 "/>
<path style="fill:#FFCBBB;" d="M123.348,285.594h102.251c23.754,38.661,24.989,126.639,81.528,132.884l-86.373,31.752
	C166.036,445.339,153.089,334.32,123.348,285.594z"/>
<g>
	<polygon style="fill:#FFFFFF;" points="124.115,302.066 131.436,302.066 135.93,441.235 128.609,441.235 	"/>
	<path style="fill:#FFFFFF;" d="M224.765,470.676h96.032c2.174,0,4.109,1.785,4.3,3.969v0.003c0.19,2.183-1.434,3.972-3.608,3.972
		h-96.03c-2.176,0-4.111-1.789-4.302-3.972v-0.003C220.967,472.461,222.591,470.676,224.765,470.676z"/>
</g>
<path style="fill:#FF6E40;" d="M210.371,285.594c21.715,35.34,25.749,108.086,69.477,125.082l26.995,7.802
	c-56.537-6.245-57.774-94.223-81.53-132.884H210.371z M123.348,285.594c21.717,35.34,44.882,163.805,97.406,164.636l11.948-13.76
	l16.733-9.1c-44.578-8.233-60.732-103.115-84.49-141.776h-14.944c21.722,35.34,49.535,145.228,82.701,150.876
	c-48.3,4.589-69.9-110.288-93.824-150.876H123.348z M180.329,285.594c21.718,35.34,34.942,120.684,75.224,138.45l16.735-9.098
	c-47.749-7.147-53.262-90.691-77.013-129.352H180.329z"/>
<path style="fill:#E54A18;" d="M135.378,127.165c59.387-23.497,108.477-24.155,186.335,47.792
	c-40.974-29.435-99.985-1.274-99.985-1.274l-0.025-0.005c-84.368-9.325-126.96,50.275-126.96,50.275
	c-48.816,1.885-66.708,64.563-66.708,64.563c10.532-85.307,38.242-125.649,83.33-150.233
	C118.885,134.186,126.889,130.523,135.378,127.165z"/>
<path style="fill:#F9BF2C;" d="M135.378,127.165c7.35-2.909,14.545-5.47,21.653-7.582c36.512,13.023,52.492,31.32,64.671,54.095
	c-84.368-9.325-126.96,50.275-126.96,50.275c-12.564-47.563,16.623-85.67,16.623-85.67
	C118.885,134.186,126.889,130.523,135.378,127.165z"/>
<g>
	<path style="fill:#FFFFFF;" d="M218.06,279.796L218.06,279.796c2.254,0,5.106,1.851,6.336,4.114l107.909,198.32
		c1.232,2.263,0.396,4.114-1.858,4.114l0,0c-2.254,0-5.106-1.851-6.338-4.114L216.2,283.91
		C214.971,281.647,215.806,279.796,218.06,279.796z"/>
	<polygon style="fill:#FFFFFF;" points="226.85,411.227 229.596,417.204 104.04,453.073 100.837,446.098 	"/>
	<path style="fill:#FFFFFF;" d="M116.096,279.796L116.096,279.796c2.254,0,5.106,1.851,6.336,4.114L230.34,482.23
		c1.233,2.263,0.396,4.114-1.858,4.114l0,0c-2.254,0-5.106-1.851-6.338-4.114L114.235,283.91
		C113.005,281.647,113.842,279.796,116.096,279.796z"/>
</g>
<path style="fill:#FFED58;" d="M124.582,99.65c59.384-23.5,107.457-26.743,179.752,31.02
	C235.293,105.299,37.516,185.482,10.8,244.594c14.928-74.109,44.225-110.395,89.68-134.047
	C108.063,106.605,116.093,103.006,124.582,99.65z"/>
<path style="fill:#FF3C00;" d="M124.582,99.65c7.35-2.909,14.53-5.505,21.6-7.717c35.021,9.229,49.672,24.129,60.353,43.098
	c-44.238,11.531-87.041,27.769-126.955,50.277l-0.002-0.009c-9.721-40.308,20.902-74.752,20.902-74.752
	C108.063,106.605,116.093,103.006,124.582,99.65z"/>
<g>
	<polygon style="fill:#FFFFFF;" points="341.481,419.171 349.835,419.171 329.465,476.854 321.113,476.854 	"/>
	<path style="fill:#FFFFFF;" d="M226.11,411.227h122.603c2.174,0,4.107,1.787,4.293,3.97v0.002c0.188,2.185-1.439,3.972-3.615,3.972
		H226.79c-2.176,0-4.107-1.787-4.294-3.972v-0.002C222.307,413.014,223.933,411.227,226.11,411.227z"/>
</g>
<path style="fill:#DB2C00;" d="M236.33,419.174c37.507,0,61.167,0,98.671,0c4.854,14.594-7.369,20.309-19.456,28.736l-94.791,2.32
	C223.296,438.428,232.654,417.935,236.33,419.174z"/>
<path style="fill:#FBD734;" d="M28.035,288.516c4.031-20.022,15.526-69.394,21.69-84.391c-19.818,12.823-35.97,31.508-38.925,40.469
	C10.8,244.594,32.701,247.929,28.035,288.516z"/>
<polygon style="fill:#FFFFFF;" points="228.863,412.565 237.217,412.565 224.667,470.972 216.439,470.25 "/>
<path style="fill:#FBD734;" d="M254.667,126.629c12.958,7.037,52.391,36.615,67.046,48.328
	c-16.671-15.762-17.378-44.287-17.378-44.287C296.988,126.173,268.752,124.478,254.667,126.629z"/>
<g>
	<path style="fill:#F7F9E5;" d="M179.026,28.857c6.097,0,11.536,2.749,15.07,7.046c0.429,0.524,1.088,0.815,1.853,0.815
		c0.77,0,1.425-0.291,1.856-0.815c3.532-4.297,8.97-7.046,15.07-7.046c7.211,0,13.501,3.848,16.807,9.556
		c0.357,0.611,1.033,0.994,1.855,1.044c2.238,0.135,4.579,0.628,6.689,1.455c2.261,1.881,4.476,3.816,6.659,5.782
		c0.277,0.74,0.433,1.533,0.433,2.382c0,6.448-8.596,9.756-15.624,9.643c-0.77-0.011-1.446,0.27-1.883,0.795
		c-3.539,4.205-8.915,6.892-14.935,6.892c-6.099,0-11.537-2.753-15.07-7.052c-0.431-0.522-1.086-0.811-1.856-0.811
		c-0.765,0-1.424,0.289-1.853,0.811c-3.534,4.299-8.972,7.052-15.07,7.052c-6.061,0-11.47-2.721-15.008-6.979
		c-0.474-0.568-1.23-0.861-2.066-0.793c-7.484,0.605-17.14-2.655-17.14-9.559c0-6.379,8.408-9.687,15.386-9.648
		c0.892,0.005,1.652-0.387,2.036-1.047C165.55,32.693,171.828,28.857,179.026,28.857z"/>
	<path style="fill:#F7F9E5;" d="M357.289,38.447c2.36,0,4.46,1.062,5.83,2.726c0.165,0.199,0.419,0.314,0.717,0.314
		c0.295,0,0.55-0.115,0.719-0.314c1.365-1.663,3.47-2.726,5.83-2.726c2.79,0,5.227,1.488,6.503,3.697
		c0.137,0.236,0.4,0.382,0.717,0.401c0.868,0.055,1.775,0.245,2.59,0.563c0.872,0.731,1.73,1.477,2.577,2.238
		c0.105,0.288,0.165,0.593,0.165,0.923c0,2.495-3.324,3.777-6.047,3.729c-0.298-0.005-0.557,0.107-0.726,0.309
		c-1.37,1.629-3.45,2.666-5.779,2.666c-2.36,0-4.465-1.065-5.83-2.728c-0.169-0.199-0.424-0.314-0.719-0.314
		c-0.298,0-0.552,0.115-0.717,0.314c-1.37,1.663-3.47,2.728-5.83,2.728c-2.346,0-4.442-1.051-5.807-2.701
		c-0.188-0.216-0.479-0.332-0.804-0.309c-2.893,0.238-6.632-1.024-6.632-3.695c0-2.471,3.255-3.752,5.956-3.736
		c0.344,0.003,0.639-0.146,0.783-0.403C352.073,39.934,354.501,38.447,357.289,38.447z"/>
</g>
<g>
	<path style="fill:#747474;" d="M129.088,304.288c1.684,0,3.049,1.367,3.049,3.058c0,1.69-1.365,3.065-3.049,3.065
		s-3.049-1.374-3.049-3.065C126.039,305.655,127.404,304.288,129.088,304.288z"/>
	<path style="fill:#747474;" d="M132.27,439.75c0.815,0,1.477,0.665,1.477,1.484c0,0.82-0.662,1.486-1.477,1.486
		c-0.818,0-1.48-0.666-1.48-1.486C130.79,440.415,131.452,439.75,132.27,439.75z"/>
	<path style="fill:#747474;" d="M193.447,421.961c0.818,0,1.48,0.667,1.48,1.486c0,0.822-0.662,1.484-1.48,1.484
		c-0.815,0-1.477-0.662-1.477-1.484C191.97,422.628,192.632,421.961,193.447,421.961z"/>
	<path style="fill:#747474;" d="M231.52,413.683c1.095,0,1.981,0.886,1.981,1.984c0,1.099-0.886,1.988-1.981,1.988
		c-1.09,0-1.974-0.889-1.974-1.988C229.546,414.569,230.43,413.683,231.52,413.683z"/>
	<path style="fill:#747474;" d="M322.027,472.483c0.816-0.059,1.523,0.557,1.583,1.374c0.06,0.82-0.554,1.528-1.367,1.587
		c-0.816,0.062-1.523-0.552-1.583-1.372C320.6,473.255,321.214,472.545,322.027,472.483z"/>
	<path style="fill:#747474;" d="M223.801,473.512c0.815-0.059,1.523,0.554,1.583,1.37c0.059,0.82-0.552,1.533-1.365,1.59
		c-0.816,0.061-1.526-0.553-1.583-1.37C222.376,474.283,222.988,473.571,223.801,473.512z"/>
	<path style="fill:#747474;" d="M346.317,413.683c1.093,0,1.979,0.886,1.979,1.984c0,1.099-0.886,1.988-1.979,1.988
		c-1.095,0-1.979-0.889-1.979-1.988C344.337,414.569,345.222,413.683,346.317,413.683z"/>
</g>
<path style="fill:#949A2C;" d="M509.574,212.898l-1.711,26.603l-6.318-58.206l-5.083,78.769l-5.257-49.315l-6.352,73.048
	l-4.201-61.235l-10.876,91.625l-2.295-59.524l-11.061,76.86l0.142-56.924l-24.906,76.025l13.446-84.231l-19.228,33.821
	c3.005-22.561,9.432-45.144,26.088-67.93c-11.79,5.484-20.728,21.63-31.095,32.444c6.169-20.865,14.797-42.905,40.59-62.644
	c-14.632,5.113-32.571,19.512-36.061,22.739c19.138-24.615,27.554-39.85,46.866-53.504l-50.531,25.403
	c14.525-18.994,32.813-35.09,58.395-45.547l-52.29,11.192l55.619-25.605c0.584,1.104,1.163,2.211,1.734,3.324l0.447,0.882
	c0.748,1.475,1.484,2.964,2.206,4.457l0.476,0.987c0.747,1.562,1.477,3.136,2.195,4.715l0.513,1.136
	c0.714,1.596,1.413,3.202,2.096,4.815l0.396,0.953c0.658,1.566,1.298,3.142,1.924,4.725l0.355,0.896
	c0.646,1.654,1.271,3.315,1.885,4.984l0.367,1.001c0.625,1.723,1.235,3.454,1.821,5.195l0.231,0.687
	c0.584,1.746,1.152,3.502,1.7,5.264l0.169,0.532c0.552,1.793,1.086,3.596,1.601,5.406l0.259,0.914c0.52,1.848,1.022,3.699,1.5,5.564
	l0.11,0.433c0.479,1.881,0.939,3.771,1.376,5.668l0.104,0.442c0.444,1.936,0.863,3.878,1.264,5.83l0.105,0.515
	c0.392,1.94,0.762,3.885,1.113,5.841l0.096,0.545L509.574,212.898z M482.068,134.188l-30.791-0.02l26.477-7.58l1.388,2.377
	l0.468,0.814C480.444,131.24,481.262,132.713,482.068,134.188z M350.688,17.816L299.82,41.084l43.643-25.994
	C345.886,15.965,348.298,16.869,350.688,17.816z M441.88,79.232l-41.967,111.127l-6.272-73.937l-12.005,108.837l-4.279-91.7
	l-19.439,136.383l-1.477-89.047l-19.218,114.309l2.112-85.044l-40.04,112.389l26.416-128.474l-46.724,53.039l38.918-97.374
	l-43.462,37.266l58.411-81.808l-55.156,27.49l88.732-76.085l-76.953,35.521l82.387-64.802c17.381,8.771,33.633,19.468,48.479,31.808
	c1.209,1.006,2.408,2.025,3.596,3.056l0.124,0.105l0.123,0.108l1.349,1.179l0.121,0.106l0.122,0.108l0.121,0.107l1.823,1.624
	l0.122,0.108l0.121,0.107l0.121,0.112l0.121,0.107C432.923,70.213,437.486,74.641,441.88,79.232z M446.939,84.672l-29.169,75.513
	l25.98-78.979C444.823,82.352,445.886,83.508,446.939,84.672z M454.088,92.925l-12.697,33.308l10.55-35.86
	C452.661,91.221,453.378,92.07,454.088,92.925z M469.472,113.465l-1.349,2.758l0.903-3.422L469.472,113.465z"/>
<g>
</g>
<g>
</g>
<g>
</g>
<g>
</g>
<g>
</g>
<g>
</g>
<g>
</g>
<g>
</g>
<g>
</g>
<g>
</g>
<g>
</g>
<g>
</g>
<g>
</g>
<g>
</g>
<g>
</g>
</svg>
