<?xml version="1.0" encoding="iso-8859-1"?>
<!-- Generator: Adobe Illustrator 19.0.0, SVG Export Plug-In . SVG Version: 6.00 Build 0)  -->
<svg version="1.1" id="Layer_1" xmlns="http://www.w3.org/2000/svg" xmlns:xlink="http://www.w3.org/1999/xlink" x="0px" y="0px"
	 viewBox="0 0 512 512" style="enable-background:new 0 0 512 512;" xml:space="preserve">
<path style="fill:#FFD34E;" d="M256,0c141.386,0,256,114.614,256,256c0,141.386-114.614,256-256,256C114.614,512,0,397.386,0,256
	C0,114.614,114.614,0,256,0z"/>
<path style="fill:#FFFFFF;" d="M109.87,120.709c-58.832,0-106.525,47.693-106.525,106.528c0,58.832,47.693,106.525,106.525,106.525
	c58.835,0,106.528-47.693,106.528-106.525C216.398,168.402,168.705,120.709,109.87,120.709z"/>
<path style="fill:#69A3B6;" d="M410.356,256c-47.444,12.289-83.704,38.087-154.214,38.183c-32.77,0.046-69.938-4.435-114.256-16.807
	C83.225,261,38.373,256.918,0.034,258.689c0.527,50.973,15.947,98.368,42.115,138.056h30.174c7.042-24.121-0.923-28.58,52.43,0
	H469.85C496.483,356.359,512,307.995,512,256H410.356z"/>
<path style="fill:#B9DDF9;" d="M366.66,256c-45.32,12.688-81.48,36.898-149.777,36.991c-32.77,0.044-69.937-4.434-114.256-16.806
	c-39.799-11.112-73.24-16.561-102.604-18.364c0.355,50.792,15.5,98.061,41.341,137.73h31.301c6.359-22.737-0.181-26.794,49.862,0
	h348.108C496.788,355.408,512,307.484,512,256H366.66z"/>
<polygon style="fill:#903B13;" points="408.734,313.137 412.39,312.686 398.662,201.25 395.006,201.701 "/>
<path style="fill:#F3F3F3;" d="M402.513,231.13c18.547,16.028,33.942,34.522,41.497,59.126l-49.468,6.096
	C405.119,289.956,416.039,264.668,402.513,231.13z"/>
<path style="fill:#FFA142;" d="M408.674,257.276c0.316,0.005,0.673-0.018,1.081-0.048c-0.408,0.208-0.762,0.41-1.047,0.594
	C408.699,257.642,408.688,257.466,408.674,257.276z M408.807,261.014L408.807,261.014c0.144,0.128,0.296,0.259,0.463,0.405
	c-0.165-0.052-0.319-0.107-0.463-0.153C408.807,261.181,408.807,261.099,408.807,261.014z"/>
<path style="fill:#FFFFFF;" d="M395.006,201.701c-22.095,30.745-40.695,62.999-39.25,103.919l76.988-9.483
	C414.465,291.355,386.476,251.249,395.006,201.701z"/>
<path style="fill:#785448;" d="M412.47,327.348l9.057,12.353l9.648-1.189l-1.942-15.782c10.083-3.379,19.97-7.667,28.951-11.992
	l4.002,12.051l2.918-0.359l-1.752-14.229l-1.134-9.19l-105.671,13.017C369.306,329.902,390.423,331.955,412.47,327.348z"/>
<g>
	<path style="fill:#FB7569;" d="M388.189,328.225c-0.148,0.165-0.307,0.332-0.467,0.479
		C387.882,328.558,388.041,328.39,388.189,328.225z"/>
	<path style="fill:#FB7569;" d="M385.429,317.716c0.014,0.03,0.036,0.048,0.053,0.078
		C385.466,317.764,385.443,317.746,385.429,317.716z"/>
	<path style="fill:#FB7569;" d="M385.809,324.659c-0.018,0.023-0.034,0.057-0.052,0.08
		C385.775,324.716,385.791,324.682,385.809,324.659z"/>
	<path style="fill:#FB7569;" d="M385.255,325.372c-0.018,0.022-0.037,0.046-0.067,0.071
		C385.218,325.417,385.237,325.394,385.255,325.372z"/>
	<path style="fill:#FB7569;" d="M384.813,317.086c0.025,0.018,0.047,0.037,0.073,0.064
		C384.861,317.123,384.838,317.104,384.813,317.086z"/>
	<path style="fill:#FB7569;" d="M384.424,312.125c0.199,0.082,0.401,0.162,0.6,0.254
		C384.824,312.287,384.623,312.207,384.424,312.125z"/>
	<path style="fill:#FB7569;" d="M385.17,312.445c0.202,0.101,0.392,0.193,0.595,0.305
		C385.562,312.638,385.372,312.546,385.17,312.445z"/>
	<path style="fill:#FB7569;" d="M384.103,316.529c0.022,0.018,0.046,0.037,0.08,0.053
		C384.149,316.566,384.125,316.548,384.103,316.529z"/>
	<path style="fill:#FB7569;" d="M385.766,312.75c0.195,0.115,0.376,0.229,0.57,0.353
		C386.141,312.979,385.961,312.865,385.766,312.75z"/>
	<path style="fill:#FB7569;" d="M389.589,326.313c-0.113,0.204-0.227,0.387-0.353,0.57
		C389.362,326.7,389.476,326.517,389.589,326.313z"/>
	<path style="fill:#FB7569;" d="M386.231,323.889c-0.007,0.023-0.023,0.057-0.042,0.08
		C386.208,323.947,386.224,323.912,386.231,323.889z"/>
	<path style="fill:#FB7569;" d="M390.214,324.982c-0.08,0.199-0.172,0.401-0.264,0.6
		C390.042,325.383,390.134,325.181,390.214,324.982z"/>
	<path style="fill:#FB7569;" d="M387.667,314.152c0.168,0.146,0.334,0.305,0.481,0.467
		C388.001,314.457,387.834,314.298,387.667,314.152z"/>
	<path style="fill:#FB7569;" d="M384.625,325.985c-0.03,0.026-0.06,0.039-0.078,0.062
		C384.565,326.024,384.596,326.011,384.625,325.985z"/>
	<path style="fill:#FB7569;" d="M388.686,315.238c0.137,0.174,0.275,0.346,0.392,0.52
		C388.961,315.584,388.824,315.412,388.686,315.238z"/>
	<path style="fill:#FB7569;" d="M387.548,314.028c-0.168-0.149-0.344-0.295-0.518-0.431c-0.186-0.146-0.371-0.282-0.557-0.408
		c0.185,0.126,0.371,0.261,0.557,0.408C387.205,313.733,387.381,313.879,387.548,314.028z"/>
	<path style="fill:#FB7569;" d="M383.333,316.108c0.022,0.009,0.055,0.025,0.08,0.044
		C383.388,316.133,383.356,316.117,383.333,316.108z"/>
	<path style="fill:#FB7569;" d="M385.512,325.064c0.011,0,0.011,0,0.011,0H385.512z"/>
	<path style="fill:#FB7569;" d="M388.148,314.619c0.156,0.16,0.302,0.321,0.44,0.495C388.45,314.94,388.304,314.779,388.148,314.619
		z"/>
	<path style="fill:#FB7569;" d="M388.741,327.577c0.138-0.176,0.273-0.361,0.399-0.545
		C389.014,327.216,388.879,327.401,388.741,327.577z"/>
	<path style="fill:#FB7569;" d="M387.092,329.245c-0.172,0.137-0.346,0.275-0.522,0.392
		C386.746,329.52,386.92,329.382,387.092,329.245z"/>
	<path style="fill:#FB7569;" d="M387.722,328.704c-0.16,0.156-0.332,0.305-0.506,0.443
		C387.39,329.009,387.562,328.86,387.722,328.704z"/>
	<path style="fill:#FB7569;" d="M389.885,325.728c-0.092,0.2-0.195,0.392-0.295,0.584
		C389.689,326.12,389.793,325.928,389.885,325.728z"/>
	<path style="fill:#FB7569;" d="M388.744,327.586c-0.146,0.177-0.293,0.353-0.442,0.52
		C388.45,327.939,388.597,327.763,388.744,327.586z"/>
</g>
<path style="fill:#8B6E62;" d="M462.6,302.113l-103.816,12.79c-0.772-0.909-1.519-1.867-2.238-2.875l105.671-13.017L462.6,302.113z"
	/>
<path style="fill:#6C4C40;" d="M462.6,302.113l-103.813,12.789c1.209,1.424,2.478,2.73,3.805,3.921l100.542-12.388L462.6,302.113z"
	/>
<path style="fill:#5C4036;" d="M456.226,311.676L367.551,322.6c-1.727-1.107-3.383-2.364-4.959-3.777l100.542-12.388l0.218,1.766
	C461.047,309.355,458.667,310.519,456.226,311.676z"/>
<path style="fill:#4E342E;" d="M456.226,311.676L367.551,322.6c2.208,1.413,4.533,2.581,6.957,3.53l68.024-8.379
	C447.244,315.813,451.834,313.756,456.226,311.676z"/>
<path style="fill:#3E2622;" d="M429.359,323.761l-42.869,5.28c-4.19-0.488-8.205-1.432-11.982-2.912l68.024-8.379
	c-4.352,1.789-8.807,3.475-13.299,4.98L429.359,323.761z"/>
<path style="fill:#FF8964;" d="M441.121,282.067c-1.897,1.031-4.017,1.729-6.29,2.009c-9.729,1.198-18.586-5.715-19.784-15.444
	c-0.85-6.904,2.387-13.366,7.813-16.966C430.323,260.725,436.592,270.719,441.121,282.067z M378.418,226.707l16.195,9.156
	c2.27,15.113,7.6,28.316,14.039,38.521l-42.347-23.946C369.738,242.267,373.85,234.388,378.418,226.707z M361.373,263.96
	c-1.679,5.445-3.03,11.032-3.995,16.786l35.832,20.26l27.655-3.406L361.373,263.96z"/>
<path style="fill:#1E87E3;" d="M504.967,315.767c-108.44,2.219-176.98,38.29-341.98-13.004
	C93.625,281.199,43.998,279.754,1.699,285.487c4.62,40.271,18.582,77.698,39.665,110.064h31.301c6.359-22.737-0.181-26.794,49.862,0
	h348.108C486.331,371.456,498.082,344.558,504.967,315.767z"/>
<path style="fill:#64B3F5;" d="M492.712,353.615c-57.678,6.173-120.088,3.493-254.263-19.548
	c-91.776-15.759-139.341-5.83-196.063,5.841c-7.314,1.502-16.458,3.142-26.617,4.734c6.943,18.808,16.039,36.572,26.974,53.003
	h29.316c7.593-25.167-1.514-29.941,54.379,0h342.819C478.435,383.851,486.313,369.118,492.712,353.615z"/>
<polygon style="fill:#903B13;" points="210.813,344.395 217.504,345.238 243.209,141.226 236.518,140.383 "/>
<path style="fill:#FF8964;" d="M236.616,196.004c25.729,36.792,44.747,76.543,47.102,123.622l-90.56-11.412
	C214.812,301.613,245.559,261.624,236.616,196.004z"/>
<path style="fill:#FFA142;" d="M235.808,245.195c0.561,0.147,1.203,0.266,1.94,0.399c-0.818,0.185-1.537,0.384-2.124,0.582
	C235.687,245.855,235.746,245.534,235.808,245.195z M234.365,251.889L234.365,251.889c0.197,0.295,0.41,0.593,0.637,0.93
	c-0.268-0.169-0.516-0.337-0.752-0.481C234.289,252.189,234.328,252.037,234.365,251.889z"/>
<path style="fill:#F3501E;" d="M236.518,140.383c-53.046,44.656-100.56,93.563-116.382,166.861L261.08,325
	C230.773,308.299,199.108,224.52,236.518,140.383z"/>
<path style="fill:#785448;" d="M211.058,371.303l10.53,26.003l17.663,2.224l3.64-28.892c19.422-1.466,38.904-4.636,56.789-8.278
	l1.69,23.19l5.344,0.673l3.28-26.049l2.121-16.827l-193.459-24.375C133.278,356.439,169.845,369.574,211.058,371.303z"/>
<g>
	<path style="fill:#FB7569;" d="M167.556,361.948c-0.336,0.229-0.694,0.454-1.047,0.641
		C166.863,362.402,167.22,362.177,167.556,361.948z"/>
	<path style="fill:#FB7569;" d="M167.378,342.052c0.013,0.059,0.046,0.103,0.057,0.163
		C167.424,342.155,167.391,342.111,167.378,342.052z"/>
	<path style="fill:#FB7569;" d="M164.934,354.549c-0.041,0.034-0.087,0.087-0.131,0.119
		C164.847,354.636,164.893,354.584,164.934,354.549z"/>
	<path style="fill:#FB7569;" d="M163.629,355.562c-0.042,0.034-0.085,0.067-0.147,0.098
		C163.543,355.628,163.587,355.596,163.629,355.562z"/>
	<path style="fill:#FB7569;" d="M166.569,340.654c0.035,0.044,0.067,0.087,0.099,0.149
		C166.636,340.741,166.604,340.698,166.569,340.654z"/>
	<path style="fill:#FB7569;" d="M168.106,331.675c0.319,0.234,0.637,0.465,0.953,0.717
		C168.743,332.14,168.425,331.909,168.106,331.675z"/>
	<path style="fill:#FB7569;" d="M169.288,332.578c0.312,0.27,0.609,0.52,0.921,0.81C169.897,333.097,169.6,332.848,169.288,332.578z
		"/>
	<path style="fill:#FB7569;" d="M165.557,339.349c0.032,0.044,0.067,0.087,0.117,0.131
		C165.623,339.436,165.589,339.392,165.557,339.349z"/>
	<path style="fill:#FB7569;" d="M170.209,333.388c0.291,0.289,0.566,0.573,0.854,0.88
		C170.775,333.961,170.5,333.677,170.209,333.388z"/>
	<path style="fill:#FB7569;" d="M170.899,359.184c-0.291,0.311-0.575,0.584-0.88,0.854
		C170.324,359.767,170.608,359.495,170.899,359.184z"/>
	<path style="fill:#FB7569;" d="M166.029,353.374c-0.023,0.034-0.069,0.087-0.112,0.121
		C165.96,353.461,166.006,353.409,166.029,353.374z"/>
	<path style="fill:#FB7569;" d="M172.61,357.101c-0.233,0.319-0.486,0.634-0.738,0.948
		C172.124,357.735,172.376,357.419,172.61,357.101z"/>
	<path style="fill:#FB7569;" d="M172.955,336.728c0.227,0.336,0.454,0.694,0.642,1.047
		C173.409,337.422,173.182,337.065,172.955,336.728z"/>
	<path style="fill:#FB7569;" d="M162.233,356.373c-0.062,0.03-0.121,0.044-0.165,0.075
		C162.112,356.416,162.171,356.403,162.233,356.373z"/>
	<path style="fill:#FB7569;" d="M174.277,339.115c0.166,0.369,0.332,0.737,0.461,1.102
		C174.609,339.852,174.443,339.484,174.277,339.115z"/>
	<path style="fill:#FB7569;" d="M172.798,336.455c-0.23-0.336-0.477-0.675-0.726-0.998c-0.266-0.342-0.534-0.667-0.805-0.969
		c0.27,0.302,0.539,0.627,0.805,0.969C172.321,335.78,172.568,336.119,172.798,336.455z"/>
	<path style="fill:#FB7569;" d="M164.38,338.254c0.036,0.025,0.089,0.071,0.121,0.112
		C164.469,338.325,164.416,338.279,164.38,338.254z"/>
	<path style="fill:#FB7569;" d="M164.224,355.136c0.018,0.002,0.018,0.002,0.018,0.002L164.224,355.136z"/>
	<path style="fill:#FB7569;" d="M173.597,337.775c0.206,0.353,0.394,0.706,0.559,1.074
		C173.991,338.481,173.803,338.128,173.597,337.775z"/>
	<path style="fill:#FB7569;" d="M168.83,361.048c0.32-0.25,0.644-0.518,0.948-0.788C169.474,360.53,169.151,360.798,168.83,361.048z
		"/>
	<path style="fill:#FB7569;" d="M165.149,363.268c-0.369,0.167-0.738,0.332-1.102,0.46
		C164.411,363.599,164.781,363.434,165.149,363.268z"/>
	<path style="fill:#FB7569;" d="M166.51,362.589c-0.355,0.206-0.726,0.392-1.095,0.559
		C165.784,362.981,166.155,362.795,166.51,362.589z"/>
	<path style="fill:#FB7569;" d="M171.689,358.279c-0.252,0.316-0.522,0.609-0.79,0.905
		C171.167,358.887,171.437,358.595,171.689,358.279z"/>
	<path style="fill:#FB7569;" d="M168.828,361.066c-0.341,0.247-0.683,0.492-1.019,0.721
		C168.145,361.558,168.487,361.314,168.828,361.066z"/>
</g>
<path style="fill:#8B6E62;" d="M311.399,349.029l-190.06-23.946c-0.962-1.961-1.857-3.997-2.682-6.109l193.459,24.375
	L311.399,349.029z"/>
<path style="fill:#6C4C40;" d="M311.399,349.029l-190.056-23.946c1.505,3.072,3.175,5.958,4.994,8.667l184.066,23.193
	L311.399,349.029z"/>
<path style="fill:#5C4036;" d="M295.786,363.142l-162.343-20.456c-2.57-2.739-4.943-5.715-7.106-8.936l184.066,23.193l-0.408,3.232
	C305.386,361.188,300.637,362.184,295.786,363.142z"/>
<path style="fill:#4E342E;" d="M295.786,363.142l-162.343-20.456c3.285,3.502,6.888,6.62,10.764,9.394l124.536,15.693
	C277.976,366.452,287.052,364.862,295.786,363.142z"/>
<path style="fill:#3E2622;" d="M242.653,372.524l-78.481-9.889c-7.218-2.751-13.925-6.231-19.965-10.556l124.536,15.693
	c-8.53,1.221-17.198,2.213-25.852,2.865L242.653,372.524z"/>
<path style="fill:#FFFFFF;" d="M282.273,303.792c-3.832,0.973-7.909,1.262-12.072,0.737c-17.807-2.245-30.426-18.499-28.181-36.309
	c1.592-12.637,10.242-22.659,21.493-26.615C272.694,261.046,279.332,281.607,282.273,303.792z M195.83,177.324l24.633,23.534
	c-2.758,27.852,0.767,53.69,7.618,74.699l-64.421-61.542C173.428,201.048,184.269,188.91,195.83,177.324z M148.829,235.803
	c-5.431,8.911-10.34,18.222-14.637,28.003l54.51,52.075l50.627,6.38L148.829,235.803z"/>
<path style="fill:#8FC9F7;" d="M486.596,367.308c-65.605,10.626-132.18,24.306-245.268,2.46
	c-100.994-19.509-161.061-13.805-217.415-5.628c8.359,17.908,18.715,34.692,30.805,50.055c7.705-2.19,14.264-6.748,16.985-15.395
	c8.642-27.449-3.049-32.023,63.538,3.557c12.919,6.904,25.723,12.003,37.898,15.65h28.727c10.04,4.977,27.939,2.249,36.82,1.645
	c4.455-0.303,6.57-0.561,7.548-1.645h8.991c1.365-1.713,1.432-3.588-0.028-5.484c-3.669-4.771,14.921-0.398,41.156,5.484h49.72
	c32.637,5.577,47.336,10.292,70.478,0h12.232c6.659-7.534,17.477-7.873,29.803-5.505
	C469.406,398.513,478.823,383.384,486.596,367.308z"/>
<path style="fill:#64B3F5;" d="M54.718,414.195c7.705-2.19,14.264-6.748,16.985-15.395c8.642-27.449-3.049-32.023,63.538,3.557
	c66.586,35.581,130.121,23.38,119.955,10.166c-10.166-13.215,150.455,43.715,171.295,8.643c6.279-10.567,18.234-11.327,32.094-8.663
	c1.828-2.364,3.619-4.755,5.367-7.186c-9.32-1.771-20.812-2.772-26.899,1.194c-39.334,25.632-51.154,17.773-98.549,10.248
	c-26.622-4.227-58.603-10.535-70.391-13.238c-15.501-3.557-21.292-1.466-21.163,6.796c0.126,8.261,1.076,8.7-8.265,9.335
	c-9.341,0.636-28.656,3.619-38.313-2.479c-9.657-6.099-2.797-8.644-24.4-8.642c-21.6,0.003-17.395-16.344-34.309-17.917
	c-23.069-2.144-55.545-31.81-70.144-13.342c-4.318,5.463-3.94,24.269-15.122,25.795c-3.111,0.423-5.573,1.713-7.681,3.167
	C50.671,408.924,52.664,411.583,54.718,414.195z"/>
<path style="fill:#FFEF76;" d="M54.718,414.195c7.705-2.19,14.264-6.748,16.985-15.395c8.642-27.449-3.049-32.023,63.538,3.557
	c66.586,35.581,130.121,23.38,119.955,10.166c-10.166-13.215,150.455,43.715,171.295,8.643c6.279-10.567,18.234-11.327,32.094-8.663
	C411.762,473.022,338.439,512,256,512C174.328,512,101.591,473.753,54.718,414.195z"/>
<g>
	<path style="fill:#F9BF67;" d="M5.674,276.57c0,0,14.463-17.169,27.577-18.467c13.114-1.301,7.344,4.819,25.389,5.101
		c18.046,0.282,17.21,12.647,17.21,12.647S28.873,284.493,5.674,276.57z"/>
	<path style="fill:#C49A6D;" d="M56.189,178.068c0,0-0.678,1.36-1.739,3.764c-0.51,1.207-1.163,2.659-1.823,4.345
		c-0.335,0.841-0.69,1.734-1.066,2.677c-0.352,0.944-0.721,1.938-1.109,2.976c-0.779,2.069-1.519,4.325-2.327,6.693
		c-0.726,2.385-1.58,4.879-2.27,7.473c-0.364,1.294-0.733,2.607-1.106,3.935c-0.328,1.329-0.66,2.674-0.994,4.027
		c-0.715,2.705-1.23,5.445-1.816,8.173c-0.309,1.366-0.532,2.726-0.761,4.078c-0.231,1.351-0.46,2.694-0.689,4.029
		c-0.429,2.659-0.701,5.255-1.047,7.767c-0.312,2.506-0.438,4.897-0.653,7.172c-0.241,2.279-0.241,4.382-0.328,6.336
		c-0.034,0.976-0.069,1.911-0.101,2.797c-0.041,0.891-0.062,1.729-0.03,2.501c0.025,1.555,0.048,2.909,0.067,4.025
		c0.036,2.224,0.057,3.495,0.057,3.495l-11.238,3.53c0,0,0.158-1.418,0.435-3.897c0.137-1.237,0.307-2.737,0.502-4.457
		c0.08-0.857,0.218-1.777,0.382-2.755c0.158-0.974,0.321-1.998,0.493-3.065c0.364-2.137,0.661-4.428,1.218-6.895
		c0.532-2.458,0.992-5.03,1.649-7.708c0.69-2.685,1.32-5.44,2.11-8.249c0.41-1.401,0.82-2.817,1.235-4.235
		c0.41-1.418,0.816-2.838,1.306-4.26c0.951-2.84,1.826-5.672,2.888-8.452c0.511-1.388,1.015-2.765,1.514-4.126
		c0.543-1.354,1.082-2.691,1.608-4.006c1.018-2.629,2.181-5.149,3.2-7.538c1.099-2.377,2.107-4.625,3.133-6.679
		c0.509-1.026,0.996-2.009,1.459-2.944c0.485-0.927,0.944-1.81,1.374-2.637c0.855-1.653,1.672-3.074,2.316-4.249
		C55.369,179.371,56.189,178.068,56.189,178.068z"/>
	<g>
		<path style="fill:#006736;" d="M51.814,181.602c0,0-0.679,0.177-1.865,0.483c-0.572,0.142-1.264,0.348-2.02,0.55
			c-0.758,0.202-1.601,0.47-2.484,0.733c-0.886,0.284-1.821,0.612-2.783,0.956c-0.941,0.369-1.936,0.762-2.964,1.166
			c-1.01,0.417-2.073,0.762-3.163,1.283c-0.555,0.222-1.09,0.554-1.651,0.838c-0.545,0.334-1.097,0.678-1.635,1.07
			c-0.532,0.404-1.079,0.788-1.592,1.246l-0.786,0.659l-0.758,0.708c-0.515,0.461-0.996,0.962-1.479,1.457
			c-0.497,0.483-0.962,0.994-1.413,1.509c-0.461,0.506-0.907,1.015-1.32,1.542c-0.412,0.524-0.852,1.015-1.23,1.535
			c-0.779,1.022-1.514,2.002-2.142,2.949c-0.659,0.93-1.225,1.807-1.725,2.595c-0.511,0.779-0.935,1.473-1.276,2.05
			c-0.696,1.154-1.093,1.814-1.093,1.814l-0.532-0.122c0,0,0.257-0.705,0.704-1.944c0.112-0.309,0.238-0.653,0.373-1.029
			c0.156-0.371,0.322-0.774,0.504-1.203c0.359-0.863,0.756-1.844,1.278-2.892c0.488-1.063,1.088-2.199,1.741-3.404
			c0.311-0.611,0.706-1.209,1.076-1.837c0.367-0.63,0.779-1.26,1.214-1.894c0.421-0.644,0.869-1.295,1.359-1.931
			c0.472-0.651,0.976-1.292,1.521-1.915l0.811-0.95l0.866-0.921c0.568-0.627,1.193-1.202,1.812-1.793
			c0.614-0.6,1.281-1.122,1.922-1.705c0.667-0.52,1.322-1.097,2.014-1.574c1.358-1.028,2.792-1.85,4.189-2.46
			c1.405-0.587,2.763-0.909,4.006-1.061c1.244-0.137,2.375-0.126,3.365,0.016c1.984,0.277,3.394,0.98,4.258,1.637
			c0.871,0.639,1.233,1.208,1.233,1.208L51.814,181.602z"/>
		<path style="fill:#006736;" d="M52.902,177.349c0,0-0.144-0.039-0.419-0.112c-0.261-0.076-0.644-0.19-1.13-0.334
			c-0.472-0.149-1.051-0.307-1.67-0.516c-0.611-0.192-1.301-0.41-2.054-0.648c-0.722-0.217-1.505-0.456-2.332-0.705
			c-0.813-0.241-1.668-0.452-2.506-0.745c-0.852-0.257-1.688-0.621-2.604-0.88c-0.454-0.146-0.937-0.227-1.421-0.328
			c-0.497-0.055-0.996-0.126-1.523-0.112l-0.783,0.005l-0.804,0.067c-0.534,0.027-1.081,0.137-1.624,0.224
			c-1.09,0.206-2.187,0.491-3.268,0.836c-0.538,0.181-1.07,0.401-1.597,0.594c-0.524,0.204-1.035,0.462-1.542,0.673
			c-0.508,0.206-0.992,0.483-1.468,0.721c-0.474,0.247-0.939,0.474-1.374,0.745c-0.875,0.513-1.696,0.971-2.396,1.452
			c-0.713,0.463-1.343,0.861-1.844,1.23c-1.02,0.719-1.601,1.13-1.601,1.13l-0.295-0.444c0,0,0.515-0.547,1.415-1.505
			c0.446-0.495,1.024-1.043,1.693-1.677c0.659-0.65,1.438-1.331,2.307-2.063c0.428-0.379,0.898-0.726,1.381-1.1
			c0.488-0.366,0.983-0.774,1.521-1.124c1.06-0.758,2.219-1.457,3.445-2.142c0.618-0.309,1.246-0.655,1.894-0.948
			c0.648-0.272,1.308-0.582,1.979-0.797c0.669-0.227,1.349-0.477,2.029-0.635l1.029-0.266l1.022-0.192
			c1.368-0.252,2.733-0.406,4.059-0.454c1.333-0.064,2.595,0.064,3.725,0.364c1.104,0.344,2.094,0.822,2.9,1.446
			c0.825,0.596,1.514,1.264,2.066,1.965c1.122,1.382,1.727,2.836,2.016,3.942c0.295,1.097,0.302,1.848,0.302,1.848L52.902,177.349z"
			/>
		<path style="fill:#006736;" d="M56.077,174.704c0,0-0.092-0.127-0.227-0.381c-0.14-0.252-0.317-0.632-0.497-1.141
			c-0.172-0.51-0.373-1.143-0.502-1.906c-0.144-0.76-0.238-1.649-0.261-2.646c-0.016-0.998,0.026-2.11,0.202-3.315
			c0.144-1.198,0.444-2.499,0.898-3.845c0.476-1.349,1.126-2.737,1.91-4.11c0.777-1.374,1.622-2.744,2.538-4.072
			c0.886-1.34,1.922-2.602,2.96-3.791c0.535-0.58,1.079-1.147,1.631-1.674c0.577-0.502,1.115-1.031,1.692-1.471
			c1.134-0.911,2.259-1.707,3.345-2.339c0.547-0.3,1.067-0.628,1.583-0.87c0.51-0.243,1.006-0.477,1.48-0.701
			c0.474-0.204,0.93-0.362,1.358-0.527c0.431-0.167,0.834-0.311,1.217-0.41c0.76-0.213,1.415-0.442,1.954-0.522
			c1.062-0.21,1.672-0.332,1.672-0.332l-0.02,0.63c0,0-0.594,0.289-1.629,0.793c-0.515,0.231-1.129,0.619-1.828,0.992
			c-0.7,0.364-1.461,0.916-2.286,1.432c-0.401,0.291-0.818,0.596-1.25,0.909c-0.429,0.307-0.841,0.692-1.279,1.044
			c-0.854,0.738-1.718,1.553-2.536,2.456c-0.421,0.435-0.792,0.942-1.193,1.407c-0.374,0.499-0.756,0.992-1.118,1.502
			c-0.701,1.04-1.382,2.105-1.934,3.23c-0.577,1.113-1.022,2.272-1.381,3.411c-0.362,1.14-0.648,2.261-1.001,3.342
			c-0.342,1.086-0.733,2.142-1.111,3.168c-0.389,1.045-0.756,2.034-1.095,2.946c-0.692,1.86-1.34,3.491-1.849,4.678
			c-0.497,1.182-0.838,1.901-0.838,1.903L56.077,174.704z"/>
		<path style="fill:#006736;" d="M60.081,174.44c0,0,0.05-0.229,0.183-0.648c0.128-0.421,0.341-1.026,0.653-1.791
			c0.321-0.758,0.721-1.686,1.273-2.705c0.538-1.029,1.212-2.162,2.013-3.367c0.813-1.198,1.743-2.476,2.838-3.745
			c1.076-1.285,2.311-2.568,3.697-3.748c1.37-1.2,2.932-2.222,4.512-3.179c1.613-0.9,3.239-1.787,4.903-2.48
			c0.82-0.396,1.661-0.66,2.48-0.979c0.827-0.257,1.649-0.515,2.458-0.705c1.615-0.369,3.187-0.58,4.631-0.568
			c0.362-0.002,0.722-0.005,1.077-0.009c0.344,0.03,0.685,0.06,1.02,0.09c0.334,0.032,0.664,0.064,0.989,0.096
			c0.319,0.05,0.623,0.126,0.925,0.185c1.228,0.213,2.279,0.623,3.258,0.958c0.923,0.435,1.791,0.781,2.466,1.235
			c0.692,0.426,1.31,0.758,1.748,1.141c0.907,0.703,1.424,1.104,1.424,1.104l-0.412,0.596c0,0-0.619-0.227-1.699-0.623
			c-0.525-0.22-1.226-0.371-1.991-0.596c-0.751-0.254-1.695-0.341-2.654-0.541c-1.006-0.094-2.073-0.24-3.258-0.183
			c-0.291,0.005-0.586,0.009-0.886,0.013c-0.305,0.03-0.611,0.06-0.921,0.09c-0.309,0.03-0.621,0.062-0.937,0.094
			c-0.319,0.06-0.641,0.121-0.967,0.183c-0.641,0.096-1.305,0.284-1.97,0.474c-0.661,0.16-1.335,0.44-2.006,0.66
			c-0.671,0.252-1.347,0.563-2.018,0.863c-0.671,0.359-1.343,0.655-2.002,1.074c-1.326,0.74-2.6,1.732-3.814,2.708
			c-1.201,1.044-2.358,2.057-3.477,3.078c-1.152,0.998-2.263,1.963-3.319,2.879c-1.072,0.925-2.085,1.844-3.047,2.685
			c-1.908,1.704-3.559,3.189-4.769,4.233c-1.198,1.051-1.934,1.663-1.934,1.663L60.081,174.44z"/>
		<path style="fill:#006736;" d="M60.328,178.37c0,0,0.378-0.625,1.182-1.546c0.404-0.47,0.919-0.996,1.54-1.569
			c0.621-0.578,1.358-1.166,2.192-1.753c0.836-0.572,1.771-1.143,2.785-1.628c1.015-0.483,2.108-0.917,3.227-1.15
			c1.118-0.243,2.254-0.323,3.349-0.243c1.107,0.042,2.16,0.247,3.196,0.458c1.017,0.247,1.99,0.575,2.879,0.998
			c0.894,0.41,1.697,0.925,2.419,1.477c0.731,0.543,1.365,1.144,1.945,1.73c0.534,0.639,1.065,1.205,1.468,1.81
			c0.211,0.293,0.41,0.575,0.603,0.841c0.174,0.282,0.339,0.549,0.493,0.801c0.313,0.495,0.57,0.942,0.748,1.338
			c0.378,0.765,0.596,1.205,0.596,1.205l-0.38,0.341c0,0-0.319-0.336-0.875-0.923c-0.27-0.3-0.619-0.642-1.026-1.02
			c-0.202-0.193-0.415-0.394-0.642-0.607c-0.238-0.197-0.492-0.4-0.756-0.613c-0.508-0.449-1.138-0.83-1.766-1.267
			c-0.673-0.376-1.351-0.802-2.121-1.127c-0.758-0.344-1.581-0.617-2.424-0.847c-0.845-0.229-1.741-0.357-2.648-0.424
			c-0.923-0.028-1.858,0.009-2.801,0.204c-0.937,0.169-1.851,0.401-2.735,0.63c-0.879,0.197-1.738,0.433-2.567,0.632
			c-0.83,0.222-1.626,0.468-2.38,0.696c-1.5,0.488-2.82,0.96-3.773,1.312c-0.971,0.362-1.53,0.57-1.53,0.57L60.328,178.37z"/>
		<path style="fill:#006736;" d="M59.132,183.09c0,0,0.055-0.042,0.174-0.108c0.117-0.073,0.289-0.158,0.499-0.245
			c0.22-0.096,0.47-0.169,0.765-0.245c0.284-0.05,0.619-0.117,0.956-0.11c0.348-0.013,0.698,0.042,1.062,0.129
			c0.353,0.098,0.713,0.249,1.022,0.488c0.305,0.247,0.574,0.559,0.774,0.946c0.235,0.346,0.375,0.783,0.559,1.169
			c0.158,0.403,0.259,0.845,0.367,1.262c0.055,0.446,0.107,0.884,0.123,1.312c-0.018,0.444-0.03,0.863-0.057,1.264
			c-0.055,0.406-0.133,0.793-0.193,1.141c-0.099,0.696-0.319,1.287-0.429,1.69c-0.123,0.401-0.192,0.63-0.192,0.63l-0.255,0.03
			c0,0-0.002-0.216-0.005-0.592c0-0.185,0.003-0.41,0.003-0.669c0.016-0.261-0.005-0.543-0.044-0.838
			c-0.037-0.298-0.06-0.623-0.113-0.951c-0.073-0.311-0.148-0.639-0.229-0.978c-0.103-0.321-0.252-0.618-0.357-0.939
			c-0.165-0.28-0.314-0.575-0.504-0.824c-0.216-0.229-0.406-0.472-0.678-0.614c-0.243-0.174-0.504-0.305-0.731-0.463
			c-0.216-0.169-0.438-0.322-0.63-0.506c-0.208-0.174-0.408-0.342-0.589-0.493c-0.401-0.346-0.733-0.634-0.967-0.836
			c-0.249-0.222-0.406-0.371-0.406-0.371L59.132,183.09z"/>
	</g>
	<path style="fill:#A57C52;" d="M73.325,210.799c0,0,0.053,0.81,0.057,2.265c-0.011,0.731-0.002,1.614-0.055,2.648
		c-0.03,1.026-0.101,2.194-0.199,3.477c-0.085,1.28-0.25,2.682-0.404,4.167c-0.208,1.491-0.371,3.065-0.666,4.709
		c-0.138,0.82-0.275,1.656-0.415,2.504c-0.169,0.847-0.342,1.709-0.516,2.577c-0.321,1.738-0.774,3.509-1.188,5.289
		c-0.408,1.778-0.956,3.56-1.422,5.319c-0.502,1.757-1.088,3.487-1.608,5.168c-0.538,1.679-1.163,3.294-1.704,4.836
		c-0.527,1.546-1.155,2.985-1.688,4.327c-0.557,1.335-1.01,2.582-1.519,3.656c-0.49,1.081-0.919,2.025-1.271,2.801
		c-0.708,1.558-1.114,2.449-1.114,2.449l-5.822-2.078c0,0,0.465-0.801,1.281-2.203c0.408-0.703,0.905-1.558,1.475-2.536
		c0.588-0.976,1.136-2.112,1.802-3.335c0.639-1.231,1.388-2.557,2.048-3.988c0.676-1.432,1.448-2.934,2.145-4.51
		c0.675-1.578,1.426-3.209,2.105-4.879c0.644-1.674,1.372-3.374,1.972-5.088c0.6-1.711,1.251-3.431,1.764-5.126
		c0.272-0.85,0.54-1.69,0.809-2.524c0.236-0.832,0.472-1.654,0.703-2.462c0.486-1.624,0.838-3.186,1.228-4.677
		c0.336-1.484,0.671-2.896,0.919-4.19c0.261-1.297,0.479-2.483,0.641-3.532c0.186-1.054,0.291-1.961,0.399-2.714
		C73.267,211.649,73.325,210.799,73.325,210.799z"/>
	<g>
		<path style="fill:#006736;" d="M74.839,212.574c0,0,0.099-0.082,0.305-0.226c0.208-0.152,0.513-0.342,0.898-0.548
			c0.392-0.215,0.866-0.417,1.418-0.623c0.547-0.183,1.177-0.374,1.844-0.452c0.683-0.135,1.379-0.096,2.128-0.066
			c0.708,0.131,1.488,0.235,2.135,0.636c0.316,0.208,0.683,0.351,0.953,0.637c0.284,0.266,0.547,0.561,0.815,0.847
			c0.289,0.266,0.461,0.658,0.69,0.983c0.197,0.355,0.47,0.644,0.625,1.026l0.49,1.118l0.236,0.555l0.154,0.597
			c0.094,0.401,0.188,0.795,0.28,1.187c0.039,0.199,0.094,0.387,0.119,0.586c0.016,0.206,0.032,0.408,0.046,0.611
			c0.044,0.811,0.154,1.56,0.126,2.313c-0.048,0.756-0.094,1.471-0.138,2.131c-0.018,0.648-0.126,1.262-0.222,1.802
			c-0.086,0.541-0.167,1.01-0.24,1.395c-0.14,0.77-0.22,1.209-0.22,1.209l-0.378,0.082c0,0-0.025-0.408-0.069-1.12
			c-0.028-0.355-0.048-0.785-0.069-1.278c-0.018-0.493-0.034-1.049-0.151-1.612c-0.092-0.566-0.193-1.182-0.295-1.833
			c-0.133-0.63-0.351-1.242-0.527-1.895l-0.14-0.488c-0.057-0.156-0.142-0.295-0.208-0.444c-0.14-0.295-0.278-0.596-0.417-0.898
			l-0.206-0.451l-0.28-0.387l-0.549-0.777c-0.181-0.254-0.443-0.426-0.667-0.63c-0.247-0.176-0.435-0.419-0.724-0.524
			c-0.268-0.138-0.534-0.261-0.772-0.41c-0.243-0.144-0.527-0.222-0.772-0.346c-0.465-0.288-0.996-0.437-1.438-0.719
			c-0.502-0.163-0.946-0.417-1.418-0.552c-0.454-0.181-0.898-0.3-1.297-0.443c-0.404-0.119-0.77-0.231-1.079-0.318
			c-0.312-0.09-0.559-0.161-0.726-0.209c-0.172-0.057-0.278-0.073-0.278-0.073L74.839,212.574z"/>
		<path style="fill:#006736;" d="M75.495,210.004c0,0,0.061-0.109,0.201-0.316c0.14-0.211,0.357-0.506,0.646-0.85
			c0.286-0.359,0.659-0.74,1.102-1.184c0.451-0.415,0.969-0.896,1.571-1.32c0.298-0.222,0.617-0.435,0.946-0.664
			c0.339-0.197,0.689-0.404,1.054-0.596c0.726-0.431,1.525-0.689,2.34-0.96c0.816-0.142,1.661-0.334,2.472-0.257
			c0.408,0.016,0.818,0.018,1.219,0.046l1.173,0.187l0.584,0.09c0.186,0.048,0.362,0.114,0.543,0.171
			c0.355,0.121,0.708,0.241,1.058,0.36c0.678,0.277,1.244,0.708,1.821,1.047c0.513,0.433,0.971,0.889,1.402,1.312
			c0.421,0.433,0.696,0.967,1.01,1.391c0.3,0.435,0.575,0.827,0.735,1.25c0.183,0.398,0.339,0.749,0.46,1.04
			c0.245,0.577,0.385,0.907,0.385,0.907l-0.344,0.282c0,0-0.231-0.243-0.635-0.667c-0.204-0.206-0.442-0.465-0.708-0.763
			c-0.247-0.318-0.611-0.586-0.998-0.875c-0.399-0.277-0.765-0.652-1.258-0.898c-0.504-0.231-0.987-0.527-1.523-0.763
			c-0.589-0.146-1.152-0.364-1.763-0.479c-0.314-0.036-0.632-0.073-0.948-0.109c-0.158-0.016-0.314-0.042-0.472-0.053l-0.502,0.03
			c-0.336,0.025-0.662,0.034-0.994,0.071c-0.339,0.069-0.683,0.165-1.015,0.243c-0.657,0.128-1.331,0.444-1.949,0.568
			c-0.634,0.236-1.241,0.319-1.841,0.511c-0.598,0.153-1.173,0.314-1.721,0.472c-1.141,0.32-2.091,0.589-2.758,0.777
			c-0.723,0.19-1.138,0.3-1.138,0.3L75.495,210.004z"/>
		<path style="fill:#006736;" d="M74.29,208.552c0,0,0.036-0.449,0.148-1.189c0.104-0.737,0.275-1.759,0.5-2.923
			c0.226-1.166,0.462-2.467,0.787-3.82c0.181-0.681,0.369-1.382,0.559-2.094c0.179-0.712,0.309-1.436,0.342-2.128
			c0.055-0.706,0.004-1.365-0.067-2.013c-0.099-0.63-0.222-1.246-0.419-1.8c-0.195-0.561-0.451-1.06-0.721-1.516
			c-0.27-0.466-0.591-0.85-0.891-1.208c-0.334-0.319-0.623-0.648-0.937-0.868c-0.309-0.22-0.559-0.456-0.801-0.596
			c-0.472-0.305-0.743-0.479-0.743-0.479l0.211-0.394c0,0,0.339,0.067,0.934,0.186c0.311,0.044,0.641,0.181,1.042,0.309
			c0.406,0.119,0.813,0.346,1.283,0.564c0.443,0.259,0.923,0.547,1.377,0.941c0.463,0.381,0.886,0.869,1.276,1.427
			c0.389,0.561,0.723,1.212,0.973,1.94c0.231,0.733,0.435,1.517,0.515,2.35c0.106,0.825,0.152,1.677,0.149,2.531
			c0.009,0.855-0.084,1.723-0.259,2.563c-0.387,1.693-1.13,3.243-1.858,4.499c-0.74,1.258-1.51,2.233-2.1,2.877
			c-0.587,0.644-0.996,0.967-0.996,0.967L74.29,208.552z"/>
		<path style="fill:#006736;" d="M71.786,208.717c0,0-0.247-0.373-0.625-1.023c-0.185-0.319-0.41-0.706-0.669-1.15
			c-0.247-0.433-0.525-0.921-0.827-1.455c-0.3-0.51-0.623-1.065-0.967-1.651c-0.337-0.563-0.694-1.157-1.063-1.771
			c-0.336-0.634-0.714-1.248-1.095-1.894c-0.419-0.601-0.866-1.209-1.438-1.657c-0.555-0.479-1.182-0.861-1.844-1.171
			c-0.676-0.279-1.365-0.543-2.1-0.661c-0.36-0.08-0.726-0.135-1.1-0.152c-0.366-0.036-0.733-0.057-1.101-0.044
			c-0.726-0.025-1.45,0.078-2.117,0.149c-0.678,0.133-1.303,0.211-1.867,0.383c-0.561,0.154-1.056,0.259-1.466,0.403
			c-0.822,0.266-1.292,0.415-1.292,0.415l-0.048-0.369c0,0,0.47-0.261,1.29-0.715c0.412-0.247,0.921-0.462,1.51-0.735
			c0.584-0.295,1.253-0.513,1.99-0.804c0.735-0.227,1.544-0.499,2.394-0.653c0.431-0.107,0.864-0.167,1.306-0.204
			c0.449-0.062,0.898-0.085,1.351-0.08c0.914-0.025,1.828,0.087,2.714,0.3c0.878,0.227,1.734,0.55,2.511,0.996
			c0.802,0.415,1.51,0.953,2.203,1.5c0.66,0.578,1.271,1.209,1.714,1.943c0.907,1.459,1.275,3.156,1.448,4.636
			c0.156,1.498,0.059,2.831-0.092,3.784c-0.146,0.951-0.339,1.525-0.339,1.525L71.786,208.717z"/>
		<path style="fill:#006736;" d="M70.37,211.252c0,0-0.071-0.041-0.206-0.094c-0.128-0.057-0.316-0.14-0.557-0.245
			c-0.233-0.101-0.516-0.22-0.841-0.359c-0.33-0.126-0.673-0.284-1.074-0.41c-0.375-0.16-0.818-0.259-1.244-0.415
			c-0.465-0.087-0.898-0.277-1.397-0.355c-0.238-0.064-0.483-0.124-0.723-0.211c-0.257-0.034-0.513-0.094-0.777-0.148l-0.396-0.08
			l-0.423-0.014l-0.866-0.011c-0.6,0.094-1.207,0.156-1.819,0.307c-0.616,0.208-1.23,0.323-1.828,0.566
			c-0.602,0.252-1.186,0.497-1.738,0.729c-0.552,0.297-1.077,0.58-1.558,0.838c-0.245,0.133-0.479,0.257-0.701,0.378
			c-0.215,0.142-0.421,0.28-0.614,0.406c-0.387,0.255-0.726,0.476-1.006,0.659c-0.566,0.365-0.888,0.573-0.888,0.573l-0.117-0.208
			c0,0,0.295-0.273,0.813-0.749c0.261-0.236,0.579-0.525,0.946-0.855c0.183-0.167,0.381-0.341,0.586-0.527
			c0.218-0.165,0.447-0.339,0.687-0.52c0.483-0.364,1.006-0.758,1.56-1.175c0.588-0.353,1.205-0.724,1.844-1.109
			c0.648-0.373,1.345-0.642,2.05-0.962c0.708-0.275,1.436-0.46,2.166-0.671l1.091-0.185l0.549-0.101l0.532-0.03
			c0.355-0.016,0.71-0.039,1.056-0.039c0.335,0.03,0.651,0.094,0.967,0.146c0.314,0.062,0.609,0.147,0.866,0.286
			c0.266,0.127,0.534,0.234,0.763,0.385c0.449,0.32,0.863,0.623,1.168,0.998c0.33,0.342,0.561,0.733,0.763,1.068
			c0.183,0.359,0.328,0.676,0.412,0.969c0.09,0.284,0.142,0.522,0.165,0.696c0.028,0.169,0.028,0.259,0.028,0.259L70.37,211.252z"/>
		<path style="fill:#006736;" d="M69.628,214.175c0,0-0.593,0.369-1.292,0.774c-0.353,0.204-0.731,0.443-1.124,0.648
			c-0.202,0.099-0.41,0.199-0.623,0.303c-0.224,0.089-0.426,0.254-0.648,0.394c-0.206,0.16-0.406,0.346-0.609,0.527
			c-0.19,0.202-0.378,0.401-0.559,0.596c-0.172,0.213-0.337,0.421-0.493,0.619c-0.151,0.206-0.282,0.412-0.41,0.6
			c-0.27,0.373-0.415,0.719-0.563,0.951c-0.135,0.238-0.213,0.373-0.213,0.373l-0.149-0.016c0,0,0.036-0.144,0.103-0.396
			c0.076-0.252,0.146-0.618,0.33-1.056c0.09-0.22,0.177-0.462,0.286-0.719c0.133-0.253,0.273-0.518,0.415-0.795
			c0.163-0.27,0.353-0.547,0.545-0.829c0.218-0.264,0.437-0.543,0.68-0.799c0.491-0.502,1.027-1.038,1.592-1.349
			c0.566-0.298,1.107-0.419,1.533-0.41c0.429-0.007,0.754,0.087,0.956,0.197c0.208,0.103,0.3,0.213,0.3,0.213L69.628,214.175z"/>
	</g>
	<path d="M126.263,91.217c0,0,5.782-1.239,10.619-0.314c4.849,0.928,9.9,4.95,15.368,5.262c5.466,0.307,4.327-1.757,4.327-1.757
		s-3.504,0.52-4.434-2.472c-0.923-2.989,2.89-5.365,8.764-9.483c5.88-4.126,7.016-8.251,5.88-10.833c0,0-1.033,1.651-5.88,4.231
		c-4.844,2.58-8.347,7.323-12.161,10.72c-3.816,3.406-4.025,3.61-7.633,2.888C137.506,88.739,129.771,87.607,126.263,91.217z"/>
	<path d="M321.523,120.051c0,0,5.78-1.239,10.619-0.311c4.849,0.928,9.9,4.95,15.368,5.259c5.463,0.307,4.327-1.755,4.327-1.755
		s-3.504,0.518-4.434-2.471c-0.925-2.992,2.888-5.367,8.764-9.486c5.88-4.125,7.014-8.249,5.88-10.83c0,0-1.033,1.649-5.88,4.229
		c-4.844,2.579-8.35,7.325-12.163,10.72c-3.816,3.406-4.025,3.61-7.632,2.891C332.766,117.573,325.03,116.441,321.523,120.051z"/>
	<path d="M273.674,66.641c0,0,5.782-1.239,10.619-0.314c4.849,0.93,9.9,4.95,15.368,5.261c5.466,0.307,4.329-1.754,4.329-1.754
		s-3.507,0.518-4.437-2.472c-0.923-2.991,2.89-5.367,8.764-9.485c5.883-4.126,7.016-8.251,5.883-10.833c0,0-1.035,1.651-5.883,4.231
		c-4.844,2.579-8.347,7.323-12.161,10.72c-3.816,3.406-4.025,3.61-7.633,2.888C284.917,64.163,277.183,63.031,273.674,66.641z"/>
</g>
<g>
</g>
<g>
</g>
<g>
</g>
<g>
</g>
<g>
</g>
<g>
</g>
<g>
</g>
<g>
</g>
<g>
</g>
<g>
</g>
<g>
</g>
<g>
</g>
<g>
</g>
<g>
</g>
<g>
</g>
</svg>
