<?xml version="1.0" encoding="iso-8859-1"?>
<!-- Generator: Adobe Illustrator 19.0.0, SVG Export Plug-In . SVG Version: 6.00 Build 0)  -->
<svg version="1.1" id="Layer_1" xmlns="http://www.w3.org/2000/svg" xmlns:xlink="http://www.w3.org/1999/xlink" x="0px" y="0px"
	 viewBox="0 0 512 512" style="enable-background:new 0 0 512 512;" xml:space="preserve">
<path style="fill:#B1E9F1;" d="M256,0c141.386,0,256,114.614,256,256c0,141.386-114.614,256-256,256C114.614,512,0,397.386,0,256
	C0,114.614,114.614,0,256,0z"/>
<path style="fill:#FFFFFF;" d="M212.265,35.097c2.075,0,4.032,0.492,5.766,1.365c1.874-1.835,4.444-2.969,7.275-2.969
	c4.906,0,9.02,3.397,10.122,7.964c2.451,0.738,4.418,2.591,5.316,4.966c0.295-0.032,0.594-0.048,0.896-0.048
	c4.533,0,8.21,3.676,8.21,8.212c0,4.533-3.677,8.21-8.21,8.21c-1.413,0-2.741-0.357-3.901-0.985
	c-0.996,3.413-4.148,5.905-7.884,5.905c-2.279,0-4.343-0.93-5.832-2.435c-1.486,1.505-3.553,2.435-5.834,2.435
	c-2.167,0-4.14-0.843-5.61-2.215c-1.498,1.64-3.655,2.671-6.059,2.671c-2.247,0-4.281-0.9-5.76-2.362
	c-0.679,0.151-1.384,0.229-2.106,0.229c-5.403,0-9.781-4.38-9.781-9.783c0-5.401,4.378-9.781,9.781-9.781
	c0.293,0,0.587,0.016,0.873,0.042C200.221,40.095,205.659,35.097,212.265,35.097z"/>
<path style="fill:#FFFF00;" d="M270.06,30.325c19.116,0,34.609,15.494,34.609,34.607s-15.494,34.607-34.609,34.607
	c-19.111,0-34.607-15.494-34.607-34.607S250.949,30.325,270.06,30.325z"/>
<path style="fill:#E6E6E6;" d="M143.649,309.591c-5.822,1.18-11.957,1.814-18.297,1.814c-37.527,0-67.949-22.123-67.949-49.408
	c0-22.43,20.558-41.369,48.721-47.4c1.78-4.446,4.666-8.548,8.425-12.145c-13.487-6.743-22.331-18.036-22.331-30.836
	c0-20.654,23.027-37.397,51.431-37.397c14.472,0,27.548,4.343,36.893,11.339c8.123-3.905,17.855-6.18,28.324-6.18
	c8.803,0,17.086,1.608,24.331,4.444c6.299-15.478,25.996-26.771,49.321-26.771c27.183,0,49.439,15.331,51.305,34.754
	c2.813-0.344,5.699-0.527,8.645-0.527c28.406,0,51.434,16.742,51.434,37.397c0,2.503-0.342,4.945-0.987,7.312
	c1.61-0.107,3.239-0.168,4.888-0.168c28.408,0,51.434,16.745,51.434,37.399c0,5.566-1.676,10.848-4.675,15.595
	c14.665,6.587,24.436,18.382,24.436,31.835c0,20.655-23.025,37.399-51.434,37.399c-11.936,0-22.92-2.955-31.645-7.917h-242.27
	V309.591z"/>
<path style="fill:#FFFFFF;" d="M143.649,317.842c-5.822,1.18-11.957,1.814-18.297,1.814c-37.527,0-67.949-22.123-67.949-49.408
	c0-22.43,20.558-41.369,48.721-47.4c1.78-4.446,4.666-8.549,8.425-12.145c-13.487-6.744-22.331-18.037-22.331-30.836
	c0-20.655,23.027-37.397,51.431-37.397c14.472,0,27.548,4.343,36.893,11.338c8.123-3.905,17.855-6.18,28.324-6.18
	c8.803,0,17.086,1.608,24.331,4.444c6.299-15.48,25.996-26.771,49.321-26.771c27.183,0,49.439,15.331,51.305,34.754
	c2.813-0.344,5.699-0.527,8.645-0.527c28.406,0,51.434,16.742,51.434,37.397c0,2.503-0.342,4.945-0.987,7.312
	c1.61-0.107,3.239-0.167,4.888-0.167c28.408,0,51.434,16.744,51.434,37.399c0,5.566-1.676,10.848-4.675,15.595
	c14.665,6.587,24.436,18.382,24.436,31.835c0,20.655-23.025,37.399-51.434,37.399c-11.936,0-22.92-2.955-31.645-7.916h-242.27
	V317.842z"/>
<path style="fill:#8FC9F7;" d="M0.037,253.221h511.926c0.009,0.928,0.037,1.851,0.037,2.778c0,141.386-114.614,256-256,256
	C114.614,512,0,397.386,0,256C0,255.072,0.028,254.149,0.037,253.221z"/>
<path style="fill:#B9DDF9;" d="M385.204,268.873c51.298,0,92.883,2.226,92.883,4.975c0,2.749-41.584,4.975-92.883,4.975
	s-92.882-2.226-92.882-4.975C292.322,271.1,333.906,268.873,385.204,268.873z M56.677,270.14c28.172,0,51.01,1.807,51.01,4.038
	c0,2.231-22.838,4.039-51.01,4.039c-28.173,0-51.01-1.808-51.01-4.039C5.667,271.947,28.504,270.14,56.677,270.14z M161.567,320.293
	c62.598,0,113.342,1.486,113.342,3.319s-50.744,3.319-113.342,3.319c-62.599,0-113.342-1.486-113.342-3.319
	S98.968,320.293,161.567,320.293z M135.465,339.837c46.023,0,83.333,1.356,83.333,3.03s-37.31,3.031-83.333,3.031
	s-83.333-1.357-83.333-3.031S89.442,339.837,135.465,339.837z M257.047,359.08c51.062,0,92.458,1.67,92.458,3.731
	s-41.396,3.732-92.458,3.732c-51.063,0-92.459-1.67-92.459-3.732S205.984,359.08,257.047,359.08z M390.986,324.833
	c48.834,0,88.42,2.453,88.42,5.482c0,3.028-39.586,5.482-88.42,5.482c-48.833,0-88.42-2.453-88.42-5.482
	C302.566,327.286,342.153,324.833,390.986,324.833z"/>
<path style="fill:#64B3F5;" d="M119.584,284.353c0,0-71.112,6.221-29.192,30.463c41.921,24.242,75.251,21.213,96.464,18.687
	c21.214-2.526,23.234-12.122,51.516-4.041c28.283,8.081,70.201,13.634,77.778-0.506c7.577-14.14,27.528,21.267,31.819,17.677
	c4.291-3.59,103.52-4.167,80.303-23.738c-70.751-59.643-80.722-14.571-116.162-47.979
	C295.6,259.351,119.584,284.353,119.584,284.353z"/>
<path style="fill:#8B6E62;" d="M95.926,192.694c97.489,13.739,194.983,11.859,292.474,0c4.87-0.594,10.709,4.356,8.915,8.915
	l-38.789,98.533c-1.792,4.554-4.02,8.915-8.915,8.915H134.716c-4.895,0-7.122-4.353-8.915-8.915l-38.79-98.533
	C85.218,197.046,91.071,192.009,95.926,192.694z"/>
<path style="fill:#6C4C40;" d="M377.002,194.034l-40.938,115.023h13.213c4.895,0,7.122-4.353,8.915-8.915l38.789-98.533
	c1.759-4.473-3.786-8.743-8.624-8.91C384.57,193.159,380.789,193.606,377.002,194.034z M95.926,192.694
	c3.706,0.522,7.412,1.017,11.121,1.496l40.881,114.868h-13.213c-4.895,0-7.122-4.353-8.915-8.915l-38.79-98.533l-0.078-0.213v-0.002
	l-0.069-0.211v-0.002c-0.042-0.142-0.078-0.282-0.104-0.424v-0.007c-0.053-0.278-0.078-0.557-0.082-0.834v-0.027l0.003-0.181
	l0.002-0.034l0.012-0.171l0.002-0.044l0.018-0.163C87.181,195.681,91.865,192.694,95.926,192.694z M86.865,201.181
	c-0.042-0.142-0.078-0.282-0.104-0.424L86.865,201.181z"/>
<path style="fill:#4E342E;" d="M242.165,179.177c12.651,0,22.92,10.209,23.026,22.836l-8.634,0.144
	c-0.027-7.926-6.46-14.344-14.392-14.344c-7.949,0-14.392,6.446-14.392,14.394v0.087c-2.884-0.009-5.759-0.032-8.638-0.062v-0.025
	C219.134,189.489,229.447,179.177,242.165,179.177z"/>
<path style="fill:#5C4036;" d="M339.961,280.773l30.616-86.024l6.425-0.714l-30.871,86.739l-10.068,28.285h-6.171L339.961,280.773z
	 M107.048,194.19l6.46,0.81l30.525,85.772l10.067,28.285h-6.171l-10.068-28.285L107.048,194.19z"/>
<path style="fill:#6C4C40;" d="M159.113,291.026c56.235,12.791,111.483,11.65,166.111,1.528c0.981-0.181,1.803,1.037,1.803,2.288
	v0.002c0,1.251-0.825,2.069-1.803,2.257c-52.393,10.065-107.309,11.371-166.111-1.528
	C156.777,295.062,156.782,290.497,159.113,291.026z M137.467,206.422c70.885,12.79,140.529,11.65,209.39,1.528
	c1.237-0.181,2.273,1.037,2.273,2.288v0.002c0,1.25-1.038,2.068-2.273,2.256c-66.043,10.065-135.268,11.371-209.39-1.527
	C134.521,210.458,134.528,205.892,137.467,206.422z M142.788,223.343c67.285,12.79,133.39,11.65,198.751,1.528
	c1.175-0.181,2.158,1.037,2.158,2.288v0.002c0,1.251-0.985,2.069-2.158,2.256c-62.688,10.066-128.394,11.371-198.751-1.527
	C139.991,227.379,139.998,222.814,142.788,223.343z M145.757,240.263c65.273,12.79,129.406,11.65,192.817,1.528
	c1.139-0.181,2.091,1.037,2.091,2.288v0.002c0,1.251-0.955,2.069-2.091,2.256c-60.816,10.066-124.561,11.371-192.817-1.527
	C143.042,244.299,143.049,239.734,145.757,240.263z M150.21,257.184c62.262,12.791,123.43,11.65,183.912,1.528
	c1.088-0.181,1.998,1.037,1.998,2.288v0.002c0,1.251-0.912,2.069-1.998,2.257c-58.008,10.065-118.807,11.371-183.912-1.528
	C147.621,261.22,147.626,256.655,150.21,257.184z M154.413,274.105c59.417,12.791,117.791,11.65,175.508,1.528
	c1.037-0.181,1.906,1.037,1.906,2.288v0.002c0,1.251-0.87,2.069-1.906,2.257c-55.356,10.065-113.379,11.371-175.508-1.528
	C151.944,278.141,151.949,273.576,154.413,274.105z"/>
<path style="fill:#FFFFFF;" d="M338.409,63.302c2.075,0,4.031,0.492,5.766,1.365c1.874-1.835,4.444-2.969,7.275-2.969
	c4.906,0,9.021,3.397,10.122,7.964c2.451,0.738,4.419,2.591,5.317,4.966c0.295-0.032,0.594-0.048,0.896-0.048
	c4.533,0,8.21,3.677,8.21,8.212c0,4.533-3.677,8.21-8.21,8.21c-1.413,0-2.741-0.357-3.901-0.985
	c-0.996,3.413-4.148,5.906-7.885,5.906c-2.279,0-4.343-0.931-5.832-2.435c-1.486,1.505-3.553,2.435-5.834,2.435
	c-2.166,0-4.139-0.843-5.609-2.215c-1.498,1.64-3.656,2.671-6.059,2.671c-2.247,0-4.281-0.9-5.761-2.362
	c-0.678,0.151-1.384,0.229-2.105,0.229c-5.404,0-9.781-4.38-9.781-9.783c0-5.401,4.377-9.781,9.781-9.781
	c0.293,0,0.586,0.016,0.873,0.041C326.365,68.3,331.803,63.302,338.409,63.302z"/>
<g>
	<path style="fill:#5C4036;" d="M195.713,155.084v-0.003c0-3.159,5.756-2.615,8.108-0.506l156.635,140.662
		c2.352,2.11,0.506,4.95,0.506,8.106v0.003c0,3.159-5.759,2.62-8.109,0.506l-156.637-140.66
		C193.869,161.081,193.619,157.455,195.713,155.084z"/>
	<path style="fill:#5C4036;" d="M339.085,299.036l14.454-16.381c7.875-8.924,20.634-8.493,30.539-1.908l59.421,39.52
		c9.9,6.586,9.506,21.392,1.906,30.538l-27.16,32.687c-7.6,9.146-22.902,11.034-30.539,1.908l-46.714-55.829
		C333.354,320.447,331.21,307.958,339.085,299.036z"/>
</g>
<path style="fill:#64B3F5;" d="M36.336,387.516c10.724-7.742,49.546-29.198,119.818,1.281c83.837,36.363,97.288-0.584,151.515-15.15
	c54.229-14.566,1.159-21.942,83.408,11.755c40.723,16.685,66.234,10.747,84.311,2.584C430.587,462.298,349.1,512,256,512
	C162.705,512,81.079,462.087,36.336,387.516z"/>
<path style="fill:#B9DDF9;" d="M42.743,397.647c16.176-8.842,53.278-20.792,113.411,5.289c83.837,36.364,97.288-0.584,151.515-15.15
	c54.229-14.566,1.159-21.942,83.408,11.756c32.122,13.159,54.778,12.245,71.788,7.265c4.439-6.079,8.624-12.353,12.523-18.822
	c-15.732,7.106-37.092,12.523-69.206,2.813c-6.719,1.555-13.945,0.018-18.476-5.397l-1.784-2.133
	c-74.844-31.241-25.199-23.872-78.252-9.622c-54.228,14.566-67.678,51.513-151.515,15.15
	c-70.272-30.479-109.093-9.023-119.818-1.281C38.395,390.945,40.531,394.324,42.743,397.647z"/>
<path style="fill:#1E87E3;" d="M89.098,403.962c2.65,0,4.799,1.583,4.799,3.535c0,1.951-2.149,3.534-4.799,3.534
	c-2.65,0-4.799-1.583-4.799-3.534C84.299,405.545,86.448,403.962,89.098,403.962z M343.396,454.466c2.648,0,4.796,2.034,4.796,4.544
	s-2.149,4.544-4.796,4.544c-2.648,0-4.797-2.034-4.797-4.544S340.749,454.466,343.396,454.466z M389.61,423.153
	c7.252,0,13.132,4.749,13.132,10.606c0,5.857-5.88,10.606-13.132,10.606s-13.132-4.748-13.132-10.606
	C376.478,427.902,382.357,423.153,389.61,423.153z M328.244,413.052c1.812,0,3.283,0.678,3.283,1.514
	c0,0.836-1.471,1.514-3.283,1.514c-1.812,0-3.282-0.679-3.282-1.514C324.961,413.73,326.432,413.052,328.244,413.052z
	 M277.992,449.415c9.762,0,17.677,5.314,17.677,11.868c0,6.553-7.914,11.868-17.677,11.868c-9.763,0-17.677-5.315-17.677-11.868
	C260.315,454.729,268.23,449.415,277.992,449.415z M178.368,430.73c11.925,0,21.591,5.708,21.591,12.752
	c0,7.044-9.666,12.752-21.591,12.752c-11.925,0-21.591-5.708-21.591-12.752C156.777,436.439,166.443,430.73,178.368,430.73z"/>
<g>
	<path style="fill:#B9DDF9;" d="M113.448,287.61c-0.369,1.691-42.686,16.779-1.54,28.413c0.435,0.121,0.887,0.247,1.345,0.371
		C113.711,316.52,90.312,304.82,113.448,287.61z"/>
	<path style="fill:#B9DDF9;" d="M115.871,308.865c6.21,0.646,36.178,44.901,107.35,6.301c0.747-0.41,1.516-0.834,2.29-1.264
		S166.427,334.566,115.871,308.865z"/>
	<path style="fill:#B9DDF9;" d="M238.687,314.168c5.415,0.646,27.371,39.598,89.415,0.998c0.65-0.408-16.314,6.029-15.638,5.594
		C313.14,320.33,282.764,339.869,238.687,314.168z"/>
</g>
<g>
</g>
<g>
</g>
<g>
</g>
<g>
</g>
<g>
</g>
<g>
</g>
<g>
</g>
<g>
</g>
<g>
</g>
<g>
</g>
<g>
</g>
<g>
</g>
<g>
</g>
<g>
</g>
<g>
</g>
</svg>
