<?xml version="1.0" encoding="iso-8859-1"?>
<!-- Generator: Adobe Illustrator 19.0.0, SVG Export Plug-In . SVG Version: 6.00 Build 0)  -->
<svg version="1.1" id="Layer_1" xmlns="http://www.w3.org/2000/svg" xmlns:xlink="http://www.w3.org/1999/xlink" x="0px" y="0px"
	 viewBox="0 0 512 512" style="enable-background:new 0 0 512 512;" xml:space="preserve">
<path style="fill:#B1E9F1;" d="M255.995,0C397.384,0,512,114.616,512,255.995C512,397.384,397.384,512,255.995,512
	C114.616,512,0,397.384,0,255.995C0,114.616,114.616,0,255.995,0z"/>
<path style="fill:#EFF3C1;" d="M4.906,205.982h502.188c3.204,16.171,4.906,32.902,4.906,50.013C512,397.384,397.384,512,255.995,512
	C114.616,512,0,397.384,0,255.995C0,238.883,1.702,222.152,4.906,205.982z"/>
<path style="fill:#BBBBBB;" d="M9.112,323.871l5.767,2.563l-0.38-6.028l10.483,5.998l-0.38-6.028l4.756-4.676l0.631-1.282
	l8.721,7.139l2.493-5.056l3.054-1.382l0.691-1.952l1.312,1.422l3.815-1.812l3.444,7.71l2.043-0.961l2.874-1.993l0.12-0.13
	l0.611-0.641l2.053-0.421l-2.053,0.421l-2.984-0.671l-2.673-0.601l-6.328-1.432l0.591-1.612l0.781,1.061l4.175-0.731l1.442,8.381
	l0.09-0.02l3.685-3.745l1.622,2.393l1.702,0.04l3.204-4.325l6.448,4.846l3.234-7.209l0.971,2.523l6.238-4.946l-2.143,15.77
	l6.228-4.946l5.948,1.802l3.975-0.22l1.552-0.07l0.12-0.01l0.481-0.03l12.646-0.681l1.242-0.07l0.581-0.04l-0.581,0.04l-1.242,0.07
	l-12.646,0.681l-0.481,0.03l0.481-0.02l12.766-0.601l1.242-0.05l0.561-0.03h391.207C474.072,431.558,374.445,512,255.995,512
	C138.115,512,38.859,432.319,9.112,323.871z"/>
<path style="fill:#818181;" d="M5.897,205.18l501.196,0.791c-4.386-22.178-11.645-43.315-21.367-63.03v0.03h-6.238
	c0.04-1.892,0.14-8.331-0.29-8.951l-9.021-0.07c-0.08-5.617,0.35-11.154,1.011-16.671c-4.366-6.759-9.041-13.287-13.998-19.595
	c-3.795,0.16-7.209,0.1-11.485-0.25l-1.182,1.372l-11.575-2.023c0.931,5.487,3.885,16.661,2.924,21.637
	c-0.491,0.511-2.693,1.061-3.735,1.812c-2.543,1.842-2.123-0.611-2.013,5.066c0.05,2.323,1.081,2.834-1.462,3.214
	c-1.932-1.272-0.441-46.159-0.711-51.616l-9.212-0.06l3.184-7.74c-3.274-2.233-5.887-1.312-11.895-1.572
	c-0.11-3.324,0.1-14.408-1.702-16.701l-1.482,16.751c-7.239,0.05-7.149-0.521-12.135,1.262l3.284,8.01h-9.422l-0.02,73.523
	c-1.912,0.01-0.941,0.11-1.932-0.471c-0.961-0.561-0.711-0.461-0.411-1.312c0.11-0.32,0.23-0.05,0.24-0.581l-0.401-1.131
	c0.14-1.252,0.531-0.22,0.18-1.512l-0.02-2.053c-0.26-0.921,0.31-0.981-0.01-2.063c-0.01-0.08-0.09-0.33-0.05-0.551
	c0.13-0.741,0.531,0.481,0.27-0.961l-0.37-0.741c-0.09-1.041,0.611,0.16,0.38-1.322c-0.03-0.18-0.581,0.07-0.22-1.121
	c0.811-2.663-0.04,0.16-0.681-2.193c-1.802-0.19-2.353-0.11-3.915-0.37c-1.021-0.17,0.531-0.09-1.762-0.3
	c-0.991-0.08-1.922-0.04-2.924-0.04c0.571-7.149,1.882-11.845-0.621-19.074c-2.573-7.439-5.897-9.672-9.812-15.89l-2.954,0.681
	l-2.183-2.703c-2.543,0.651-7.129,2.393-9.512,2.663l-0.831-10.714l-1.432,11.455c-5.707,2.423-11.124,2.273-13.347,6.288
	c-0.981,1.772-0.461,1.973-3.855,2.553l0.03-27.605c-2.213,0.441-3.765,1.252-5.837,1.752c-1.021-3.665,0.22-16.301-1.322-18.333
	l-1.242,19.325c-2.834,0.781-21.317,6.769-22.178,7.77c-0.731,1.762,0.16,26.203-0.04,30.539l-3.314,0.04
	c-0.431,3.194-1.612-0.521-2.213,2.573c-0.1,0.501,0.16,1.302,0.03,1.832c-0.4,1.592-1.462,0.871-1.512,2.974
	c-0.05,1.942-0.941,1.622-1.282,3.314c-0.31,1.532,0.851,1.011-1.151,1.462c-1.722-1.662-0.25-38.949-0.541-44.527
	c-0.961-0.26-0.581-0.11-1.212-0.27l-1.182-6.899c-1.812-0.501-1.191,0.03-2.844-0.601l0.01-7.309l-3.835-0.03l-0.2-2.593
	l-6.929-0.03l-0.581-9.282c-0.04,0.441-0.761,8.14-1.031,9.302l-5.847,0.03v2.443l-3.905,0.21l-0.04,14.769
	c-3.124,0.05-1.722-0.17-2.353,0.561c-0.661,1.612-0.01,27.585,0,33.483c0,1.071,0.571,2.513-0.11,3.565
	c-0.571,0.871,0.431,0.34-1.131,0.741c-1.902-0.481-1.001-1.422-1.282-2.493c-0.3-1.141-0.02-0.541-1.111-1.161
	c-1.592-0.891-4.576-1.051-6.288-0.32c-0.1,0.05-0.21,0.11-0.3,0.16l-0.541,0.33c-1.482,1.061-0.561,1.792-1.061,3.274l-4.926,0.27
	l0.421,1.882c0.02,0.05,0.09,0.13,0.1,0.18s0.04,0.13,0.04,0.17c0.02,0.631-0.26,0.05-0.641,1.202
	c-0.35,1.041-0.08,3.544-0.08,4.756l0.04,7.169c0.02,2.243,1.051,0.791-0.821,2.283c-2.453-0.591-1.462-0.06-1.432-4.075
	c0-1.492,0.02-2.994-0.03-4.486l-2.473-0.461c0.21-4.956,0.951-7.009-8.401-9.202c-5.487,1.432-4.746,1.812-8.03,3.534
	c-1.111,0.581-0.02,4.205-0.34,5.237c-0.19,0.621-0.781,0.531-1.722,0.881c-1.862,0.701-3.615,0.631-6.098,0.471l-0.08-4.065h-7.039
	l-0.02-11.074h-11.024l-0.03,4.886c-4.325,0.1-3.094-0.05-5.387,1.282c-0.651,0.37-1.161,0.23-1.382,0.741
	c0,1.161,0.3,2.463-0.491,3.314c-1.011,1.071-0.551-0.731-1.041,1.171c-0.13,0.531,0.1,1.232-0.05,1.802
	c-0.741,2.914-1.332-0.471-1.222,6.628l-0.451-0.461c-0.03-0.06-0.13-0.16-0.17-0.24c-0.03-0.08-0.08-0.17-0.11-0.26
	c-0.09-0.27-0.06-0.851-0.08-1.141l-8.681-0.03l-0.08,2.974l-4.586,0.04c0.921-2.033,0.26-4.055,0.31-6.158
	c0.04-1.762,0.971-0.981-1.472-1.662l0.911-0.431c0.581-0.33,0.17,0.04,0.731-0.471c-0.11-0.05-0.27-0.22-0.32-0.16l-0.411-0.881
	c0.571-0.32,0.15,0.05,0.721-0.451c-0.851-0.441,0.551-0.07-1.612-0.601l1.612-0.891l-1.612-0.901
	c2.663-0.581,0.521-0.01,1.612-0.591c-0.601-0.551-0.06-0.11-0.721-0.461l-0.911-0.441c2.243-0.521,0.801-0.18,1.642-0.601
	c-0.591-0.531-0.08-0.12-0.721-0.461l-0.601-0.29c-0.06-0.03-0.22-0.09-0.32-0.14l1.642-0.601l-1.692-0.901
	c2.233-0.631,1.021,0.19,1.612-0.891c-2.033-0.591-1.852-1.552-3.454-2.353c-0.14-0.07-0.821-0.37-0.911-0.421l-2.884-1.622
	c-0.11-0.03-0.34-0.05-0.491-0.09h-1.171c-1.532,0.501-1.071-0.01-2.223,0.571c-1.512,0.761,0.32,0.09-1.071,1.111
	c-3.985,0.3-12.716,0.871-16.02,2.083l-1.822,0.721c0.441,0.591,1.001,0.511,0.981,0.961l-1.071,0.831l1.702,0.601
	c-1.632,0.911-0.861-0.13-1.712,0.891c1.362,1.342,1.182,0.12,0,1.502c0.481,0.491,0.861,0.421,0.771,1.292
	c-0.01,0.05-0.02,0.14-0.02,0.18l0.02,1.872c0.11,0.15,0.821,0.461,0.931,0.531c-1.602,0.38-1.031,0.32-1.692,0.601
	c1.242,0.901,0.36,0.15,1.702,0.901l-1.272,0.421c-0.09,0.04-0.28,0.12-0.421,0.18l0.621,0.35c0.03,0.03,0.19,0.13,0.22,0.17
	l0.02,1.672c0.01,0.03,0.02,0.12,0.02,0.16c0,0.03-0.02,0.12-0.03,0.16c-0.01,0.03-0.07,0.12-0.07,0.16l0.11,1.041
	c0.01,0.03,0.03,0.12,0.03,0.16l-0.18,4.045c0.19,0.811,0.641-0.22,0.23,0.661c-0.02,0.03-0.701,0.501-0.931,0.681l0.781,0.33
	c0.08,0.03,0.841,0.26,0.871,0.27l-1.662,0.891l1.111,0.471c1.021,0.591-0.08-0.471,0.531,0.431c-0.721,0.15-0.571,0.13-1.192,0.34
	c-1.792,0.601,0.39-0.02-1.021,0.38c-0.19-2.623-0.861-6.769-0.03-8.491c-0.15-0.05-0.411-0.19-0.491-0.12
	c-0.32,0.27-2.954-1.272-3.174-1.392l0.751-0.721c0.07-0.03,0.24-0.11,0.36-0.16l-0.01-1.492c-1.091-1.041,0.19-0.05-1.732-0.901
	c2.163-0.891,0.721,0.16,1.712-0.901c-0.11-0.04-0.3-0.19-0.36-0.14l-0.391-0.831c0.641-0.35,0.2,0.04,0.781-0.521l-1.712-0.591
	l1.712-0.901l-0.791-1.001c0.571-0.31,0.22,0,0.791-0.491c-0.12-0.06-0.31-0.23-0.37-0.17l-1.322-0.431l0.971-1.222
	c-0.07-0.03-0.901-0.26-0.951-0.27c0.09-0.05,0.25-0.19,0.29-0.14l1.382-0.761c-0.871-0.421,0.05-0.19-1.652-0.601l1.652-0.891
	l-1.762-0.961c2.343-0.22,0.861,0.07,1.762-0.531l-1.382-0.761c-0.05-0.03-0.19-0.09-0.27-0.14c1.592-0.36,0.921-0.25,1.652-0.601
	l-1.672-0.891c2.483-0.701,1.532,0.501,1.452-1.101c-15.309-0.01-3.384-0.701-12.496-1.452c-2.283-0.18-4.406-0.35-6.739-0.481
	l-0.12-7.129l-2.133-0.35c-0.13-0.03-0.31-0.06-0.431-0.08l-0.851-7.94c-0.27-1.212-0.831-0.29-2.223-1.522
	c-0.861-0.751-1.192-1.041-2.894-1.572c-2.393-0.751-4.376-1.612-6.668-2.293c-8.13,1.792-9.342,3.755-10.523,4.446
	c-0.08,0.05-0.2,0.11-0.29,0.15l-1.442,0.491v7.77c-0.741,0.851,0.16,0.19-1.362,0.561c-1.001,0.25-0.461-0.2-2.033,0.34
	l-0.05,19.124l-3.044,0.601c-0.39,2.483,0.661,7.169-0.11,9.282c-0.32,0.881,0.25,0.581-1.121,0.971
	c-1.882-0.421-1.422,0.521-1.322-3.074c0.07-2.753-1.171-9.132,0.821-11.064c-0.11-0.05-0.32-0.19-0.37-0.14
	c-0.631,0.691-1.852-1.582-1.252-3.394c0.641-1.942,1.662-1.071-1.222-3.124l-7.239-6.068c-0.1,0.07-0.22,0.1-0.26,0.23
	l-4.776,4.275l-16.251-0.01c-0.471,2.193,0.751,4.976-0.931,6.759c-1.712,1.812-0.09,4.015-0.801,5.958
	c-0.891,1.192,0.29,0.05-2.123,0.891l-0.07,14.548l-2.393-0.01c-1.482-0.971,0.09-0.05-0.581-0.811
	c-0.661-0.751-0.24-0.35-0.911-0.721c-1.322-0.741-1.532,0.731-1.512-1.952c-2.884-0.09-2.583,0.3-3.414-0.591l-0.02-12.516
	l-6.438-0.02c0.01-1.402-0.481-1.702-0.851-2.303c-13.417,23.199-23.28,48.702-28.887,75.766L5.897,205.18z"/>
<path style="fill:#FFCF7F;" d="M39.01,391.857H472.99C427.723,464.019,347.471,512,255.995,512
	C164.529,512,84.277,464.019,39.01,391.857z"/>
<path style="fill:#8B6E62;" d="M171.187,419.432c6.358,0,11.515,3.524,11.515,7.88c0,4.346-5.157,7.87-11.515,7.87
	c-6.358,0-11.515-3.524-11.515-7.87C159.673,422.957,164.829,419.432,171.187,419.432z M413.315,404.273
	c2.503,0,4.536,2.043,4.536,4.546c0,2.513-2.033,4.546-4.536,4.546c-2.513,0-4.546-2.033-4.546-4.546
	C408.769,406.316,410.802,404.273,413.315,404.273z M327.245,403.672c1.842,0,3.334,0.27,3.334,0.601
	c0,0.34-1.492,0.611-3.334,0.611s-3.324-0.27-3.324-0.611C323.921,403.943,325.403,403.672,327.245,403.672z M286.344,406.706
	c4.346,0,7.88,1.622,7.88,3.635c0,2.003-3.534,3.635-7.88,3.635c-4.356,0-7.88-1.632-7.88-3.635
	C278.464,408.328,281.988,406.706,286.344,406.706z M206.042,414.586c1.842,0,3.334,0.811,3.334,1.812
	c0,1.011-1.492,1.822-3.334,1.822c-1.842,0-3.334-0.811-3.334-1.822C202.707,415.397,204.199,414.586,206.042,414.586z
	 M143.913,460.034c2.013,0,3.635,0.681,3.635,1.512c0,0.841-1.622,1.522-3.635,1.522c-2.003,0-3.635-0.681-3.635-1.522
	C140.278,460.715,141.91,460.034,143.913,460.034z M111.792,414.586c3.685,0,6.668,2.033,6.668,4.536
	c0,2.513-2.984,4.546-6.668,4.546c-3.675,0-6.668-2.033-6.668-4.546C105.123,416.619,108.117,414.586,111.792,414.586z
	 M402.1,415.798c4.686,0,8.481,3.384,8.481,7.57c0,4.185-3.795,7.58-8.481,7.58c-4.686,0-8.481-3.394-8.481-7.58
	C393.62,419.182,397.415,415.798,402.1,415.798z M298.909,472.76c3.925,0,7.109,1.061,7.109,2.363c0,1.312-3.184,2.363-7.109,2.363
	c-3.935,0-7.119-1.051-7.119-2.363C291.79,473.822,294.974,472.76,298.909,472.76z M383.757,438.707c0.09,0,0.16,1.382,0.16,3.084
	c0,1.712-0.07,3.094-0.16,3.094c-0.09,0-0.16-1.382-0.16-3.094C383.597,440.089,383.667,438.707,383.757,438.707z M352.097,424.889
	c6.188,0,11.214,4.065,11.214,9.092c0,5.016-5.026,9.092-11.214,9.092c-6.188,0-11.214-4.075-11.214-9.092
	C340.883,428.955,345.909,424.889,352.097,424.889z M313.919,432.159c3.845,0,6.969,1.762,6.969,3.935
	c0,2.183-3.124,3.945-6.969,3.945c-3.855,0-6.969-1.762-6.969-3.945C306.95,433.921,310.064,432.159,313.919,432.159z
	 M287.855,451.553c2.173,0,3.935,0.811,3.935,1.812c0,1.001-1.762,1.822-3.935,1.822s-3.935-0.821-3.935-1.822
	C283.92,452.364,285.683,451.553,287.855,451.553z M192.705,460.645c2.844,0,5.157,2.303,5.157,5.147
	c0,2.854-2.313,5.157-5.157,5.157c-2.844,0-5.147-2.303-5.147-5.157C187.558,462.948,189.861,460.645,192.705,460.645z
	 M243.008,440.039c2.173,0,3.935,4.476,3.935,9.993c0,5.527-1.762,10.003-3.935,10.003c-2.173,0-3.935-4.476-3.935-10.003
	C239.074,444.514,240.836,440.039,243.008,440.039z M251.189,409.73c4.015,0,7.269,3.534,7.269,7.88c0,4.356-3.254,7.88-7.269,7.88
	c-4.015,0-7.269-3.524-7.269-7.88C243.92,413.265,247.174,409.73,251.189,409.73z"/>
<g>
	<path style="fill:#9BCB64;" d="M77.308,168.684c0.12,0.471-0.29,0.871-0.431,0.981c0.791-0.631,1.171,0.14,1.171,0.14
		c1.151,0.18-0.06,1.101-0.06,1.101c-0.421,0.16-0.691-0.28-0.691-0.28c-1.051,0.521-0.461,0.821-0.461,0.821
		c0.781-0.18,0.31,0.491,0.31,0.491l-0.481,0.08l-0.571,0.31l0.03,0.2l0.431-0.06l0.05,0.34l-0.521,0.24l0.16,0.39
		c0.591,0.841-1.402,1.252-1.402,1.252c-0.32,2.543-2.693,1.632-3.254,1.372c-0.431,0.21-0.881,0.35-1.362,0.421
		c-1.222,0.16-2.373-0.16-3.304-0.811c-0.701,0.14-1.462-0.06-1.462-0.06c-0.811,0.08-0.491-1.101-0.491-1.101
		c-0.631,1.312-1.552,0.18-1.552,0.18c-0.891-0.941,0.18-1.502,0.18-1.502c-0.511-0.571,0.19-1.051,0.19-1.051
		c-1.342-0.25-1.652-0.941-1.712-1.362c-0.571-0.18-1.031-0.37-1.322-0.501c-1.031,0.501-2.173,0.841-3.374,1.011
		c-2.994,0.411-5.867-0.37-8.15-1.993c-1.742,0.35-3.625-0.14-3.625-0.14c-2.013,0.2-1.212-2.733-1.212-2.733
		c-1.081,2.253-2.503,1.612-3.274,0.991c0.14,0.691-1.512,1.031-1.512,1.031c-0.31,2.553-2.693,1.632-3.244,1.382
		c-0.421,0.2-0.891,0.34-1.372,0.401c-1.212,0.17-2.373-0.15-3.294-0.791c-0.701,0.13-1.462-0.07-1.462-0.07
		c-0.821,0.09-0.491-1.101-0.491-1.101c-0.631,1.322-1.562,0.18-1.562,0.18c-0.881-0.941,0.19-1.492,0.19-1.492
		c-0.511-0.591,0.18-1.061,0.18-1.061c-1.993-0.37-1.712-1.722-1.712-1.722c-0.911-1.192-0.01-2.213-0.01-2.213
		c-0.13-0.1-0.22-0.21-0.28-0.31c-1.121,0.1-2.203-0.21-3.064-0.821c-0.711,0.13-1.482-0.07-1.482-0.07
		c-0.811,0.09-0.491-1.111-0.491-1.111c-0.631,1.342-1.562,0.19-1.562,0.19c-0.891-0.951,0.18-1.512,0.18-1.512
		c-0.511-0.581,0.2-1.061,0.2-1.061c-0.2-0.04-0.38-0.08-0.531-0.14c1.402-3.334,2.874-6.638,4.416-9.903
		c0.18-0.03,0.32-0.03,0.32-0.03c0.28-0.16,0.541-0.18,0.761-0.12c0-0.13,0.02-0.21,0.02-0.21c-0.31-0.411-0.411-0.791-0.411-1.121
		c2.944-6.178,6.138-12.205,9.562-18.093c0.991,0.13,1.902,0.621,1.902,0.621c-0.971-2.053,2.113-2.073,2.113-2.073
		c2.063-1.151,3.504,1.302,3.504,1.302c1.232-1.602,2.243-2.163,3.054-2.193c-0.681-2.233,1.572-2.503,1.572-2.503
		c0.511-1.452,1.752-0.571,1.752-0.571c0.641-1.602,2.834-0.39,2.834-0.39c-0.641-1.372,1.422-1.392,1.422-1.392
		c1.382-0.771,2.343,0.871,2.343,0.871c2.453-3.194,3.645-0.17,3.645-0.17c4.155-2.043,4.836,1.812,4.836,1.812
		c0.851-1.091,1.983,0.03,3.084,1.582c0.721,1.041,0.25,1.973-0.15,2.493c0.731,0.411,1.161,1.151,1.161,1.151
		c3.234-4.225,4.816-0.23,4.816-0.23c5.487-2.703,6.378,2.393,6.378,2.393c1.111-1.442,2.613,0.03,4.065,2.093
		c1.442,2.063-0.701,3.815-0.701,3.815c1.522,1.322-0.781,2.213-0.781,2.213c1.232,1.171,0.01,2.343-0.3,2.613
		c1.452-1.182,2.163,0.25,2.163,0.25c2.143,0.35-0.1,2.053-0.1,2.053c-0.781,0.3-1.282-0.511-1.282-0.511
		c-1.061,0.521-1.232,0.921-1.161,1.171c2.683-0.611,3.154,2.093,3.154,2.093c0.761-0.981,1.792,0.02,2.784,1.432
		c0.991,1.412-0.481,2.613-0.481,2.613c1.041,0.901-0.531,1.522-0.531,1.522c0.841,0.801,0,1.602-0.21,1.782
		c1.001-0.821,1.482,0.17,1.482,0.17c1.472,0.24-0.07,1.412-0.07,1.412c-0.541,0.2-0.881-0.36-0.881-0.36
		c-0.38,0.19-0.591,0.36-0.701,0.501c0.991,0.4,1.202,1.602,1.202,1.602c0.591-0.781,1.402,0.01,2.193,1.131
		c0.781,1.101-0.38,2.063-0.38,2.063c0.821,0.711-0.421,1.192-0.421,1.192c0.661,0.631,0.01,1.272-0.17,1.412
		c0.801-0.651,1.171,0.13,1.171,0.13c1.161,0.19-0.05,1.111-0.05,1.111c-0.431,0.16-0.691-0.27-0.691-0.27
		c-1.071,0.521-0.481,0.811-0.481,0.811c0.811-0.18,0.33,0.511,0.33,0.511l-0.491,0.06l-0.581,0.33l0.04,0.19l0.441-0.05l0.04,0.33
		l-0.521,0.24l0.16,0.4c0.601,0.841-1.422,1.262-1.422,1.262c-0.31,2.553-2.703,1.632-3.254,1.382
		c-0.431,0.2-0.891,0.34-1.382,0.411c-1.222,0.16-2.383-0.16-3.314-0.811L77.308,168.684z"/>
	<path style="fill:#4E342E;" d="M53.908,208.975c0,0-0.21-1.222,0.13-5.387l-1.192-13.467c0,0-0.21-4.956,0.431-6.388
		c0,0,9.702-9.412,11.675-9.933c0,0,1.412-12.336,3.174-12.586l-1.762-1.031c0,0-1.572,11.645-2.723,13.417
		c0,0-4.476-16.841-3.775-18.614l-0.651,0.511c0,0,2.103,16.801,1.712,17.973l-2.864,2.944c0,0-0.981,2.974-1.582,1.632
		c0,0-5.467-3.344-2.764-20.927l-2.203-1.422l-1.822,11.575c0,0,1.272,0,0.711,2.934c0,0,2.233,6.999,1.882,7.69
		c0,0-0.531,3.324-1.993,2.343L47.23,173c0,0-2.583-10.333-0.841-11.925l-0.661-0.831c0,0-1.151,5.126-0.22,8.871
		c0,0-4.696-5.197-6.158-5.187l0.04,0.931c0,0,0.901-1.842,5.747,5.237c0,0,3.334,9.382,3.444,11.224c0,0-0.39,5.607-0.15,6.668
		c0,0,2.914,14.969-1.902,19.475L53.908,208.975z"/>
	<path style="fill:#9BCB64;" d="M477.807,180.98c0.09,0.36-0.23,0.681-0.34,0.761c0.621-0.491,0.921,0.12,0.921,0.12
		c0.911,0.14-0.05,0.861-0.05,0.861c-0.33,0.13-0.541-0.22-0.541-0.22c-0.831,0.411-0.36,0.641-0.36,0.641
		c0.621-0.14,0.24,0.401,0.24,0.401l-0.37,0.05l-0.461,0.24l0.03,0.16l0.34-0.04l0.04,0.27l-0.411,0.18l0.12,0.31
		c0.471,0.661-1.101,0.981-1.101,0.981c-0.25,2.003-2.123,1.282-2.553,1.081c-0.34,0.16-0.701,0.28-1.081,0.33
		c-0.951,0.13-1.862-0.12-2.593-0.641c-0.551,0.12-1.151-0.04-1.151-0.04c-0.631,0.06-0.38-0.871-0.38-0.871
		c-0.501,1.031-1.222,0.14-1.222,0.14c-0.701-0.741,0.14-1.181,0.14-1.181c-0.401-0.451,0.15-0.821,0.15-0.821
		c-1.061-0.2-1.302-0.741-1.352-1.081c-0.441-0.14-0.811-0.29-1.031-0.391c-0.821,0.401-1.712,0.671-2.653,0.801
		c-2.353,0.32-4.616-0.29-6.418-1.562c-1.362,0.27-2.854-0.12-2.854-0.12c-1.572,0.16-0.951-2.143-0.951-2.143
		c-0.841,1.762-1.962,1.262-2.573,0.781c0.12,0.541-1.182,0.811-1.182,0.811c-0.25,2.003-2.123,1.282-2.553,1.081
		c-0.33,0.16-0.701,0.27-1.081,0.32c-0.951,0.13-1.862-0.12-2.593-0.631c-0.551,0.11-1.151-0.05-1.151-0.05
		c-0.641,0.07-0.38-0.871-0.38-0.871c-0.501,1.041-1.232,0.14-1.232,0.14c-0.691-0.741,0.15-1.171,0.15-1.171
		c-0.401-0.461,0.15-0.831,0.15-0.831c-1.572-0.3-1.352-1.362-1.352-1.362c-0.721-0.931-0.01-1.732-0.01-1.732
		c-0.1-0.08-0.17-0.17-0.22-0.24c-0.881,0.07-1.732-0.17-2.413-0.651c-0.551,0.11-1.151-0.05-1.151-0.05
		c-0.651,0.07-0.391-0.871-0.391-0.871c-0.501,1.041-1.232,0.14-1.232,0.14c-0.701-0.751,0.14-1.182,0.14-1.182
		c-0.401-0.461,0.16-0.841,0.16-0.841c-1.582-0.29-1.362-1.362-1.362-1.362c-0.721-0.941-0.01-1.752-0.01-1.752
		c-0.631-0.511-0.05-1.011-0.05-1.011c-0.2-0.631,0.681-0.601,0.681-0.601c-0.881-1.692,0.681-1.882,0.681-1.882
		c0.29-0.811,0.991-0.32,0.991-0.32c0.35-0.901,1.582-0.22,1.582-0.22c-0.36-0.771,0.791-0.771,0.791-0.771
		c0.22-0.13,0.431-0.14,0.601-0.09c0-0.11,0.01-0.17,0.01-0.17c-0.721-0.941-0.01-1.742-0.01-1.742
		c-0.621-0.511-0.05-1.021-0.05-1.021c-0.09-0.27,0.03-0.421,0.19-0.501c-0.701-1.632,0.421-2.904,0.421-2.904
		c-1.312-1.061-0.1-2.133-0.1-2.133c-0.431-1.312,1.422-1.262,1.422-1.262c-1.852-3.534,1.432-3.935,1.432-3.935
		c0.601-1.692,2.063-0.671,2.063-0.671c0.751-1.872,3.334-0.451,3.334-0.451c-0.761-1.622,1.662-1.632,1.662-1.632
		c1.612-0.911,2.754,1.021,2.754,1.021c0.971-1.262,1.762-1.702,2.403-1.722c-0.541-1.762,1.232-1.973,1.232-1.973
		c0.4-1.141,1.382-0.451,1.382-0.451c0.511-1.262,2.233-0.3,2.233-0.3c-0.511-1.081,1.111-1.091,1.111-1.091
		c1.081-0.611,1.842,0.681,1.842,0.681c1.932-2.513,2.874-0.14,2.874-0.14c3.264-1.602,3.795,1.432,3.795,1.432
		c0.671-0.861,1.562,0.02,2.423,1.242c0.571,0.821,0.2,1.552-0.11,1.962c0.571,0.32,0.911,0.901,0.911,0.901
		c2.543-3.324,3.785-0.18,3.785-0.18c4.315-2.123,5.016,1.882,5.016,1.882c0.871-1.131,2.063,0.02,3.204,1.642
		c1.131,1.622-0.551,3.004-0.551,3.004c1.191,1.041-0.621,1.742-0.621,1.742c0.971,0.921,0.01,1.842-0.23,2.053
		c1.141-0.931,1.692,0.2,1.692,0.2c1.692,0.27-0.08,1.612-0.08,1.612c-0.611,0.24-1.001-0.401-1.001-0.401
		c-0.841,0.411-0.971,0.721-0.921,0.921c2.113-0.491,2.493,1.642,2.493,1.642c0.591-0.771,1.402,0.02,2.183,1.131
		c0.781,1.101-0.38,2.053-0.38,2.053c0.821,0.711-0.421,1.192-0.421,1.192c0.671,0.631,0.01,1.262-0.16,1.402
		c0.791-0.641,1.172,0.14,1.172,0.14c1.151,0.19-0.06,1.111-0.06,1.111c-0.421,0.15-0.691-0.29-0.691-0.29
		c-0.3,0.16-0.471,0.29-0.561,0.401c0.781,0.31,0.951,1.252,0.951,1.252c0.471-0.611,1.101,0.02,1.722,0.891
		c0.611,0.881-0.3,1.622-0.3,1.622c0.651,0.561-0.33,0.941-0.33,0.941c0.531,0.501,0.01,1.001-0.13,1.111
		c0.631-0.511,0.921,0.1,0.921,0.1c0.911,0.15-0.04,0.881-0.04,0.881c-0.34,0.12-0.541-0.22-0.541-0.22
		c-0.841,0.411-0.38,0.641-0.38,0.641c0.631-0.14,0.26,0.401,0.26,0.401l-0.38,0.05l-0.461,0.26l0.03,0.15l0.35-0.04l0.03,0.26
		l-0.411,0.19l0.13,0.31c0.471,0.661-1.121,0.991-1.121,0.991c-0.25,2.013-2.133,1.292-2.563,1.081
		c-0.34,0.16-0.701,0.28-1.081,0.33c-0.961,0.13-1.882-0.12-2.613-0.631L477.807,180.98z"/>
	<path style="fill:#4E342E;" d="M459.403,212.66c0,0-0.17-0.961,0.1-4.235l-0.931-10.593c0,0-0.17-3.895,0.33-5.016
		c0,0,7.63-7.409,9.182-7.82c0,0,1.111-9.702,2.503-9.893l-1.382-0.821c0,0-1.242,9.162-2.153,10.563c0,0-3.514-13.247-2.974-14.649
		l-0.511,0.4c0,0,1.652,13.227,1.352,14.138l-2.253,2.323c0,0-0.771,2.333-1.242,1.282c0,0-4.295-2.633-2.173-16.461l-1.732-1.111
		l-1.432,9.102c0,0,1.001-0.01,0.551,2.303c0,0,1.762,5.497,1.482,6.038c0,0-0.421,2.623-1.562,1.852l-2.413-5.687
		c0,0-2.023-8.13-0.661-9.382l-0.521-0.651c0,0-0.901,4.025-0.17,6.969c0,0-3.695-4.085-4.846-4.085l0.04,0.741
		c0,0,0.701-1.452,4.516,4.115c0,0,2.623,7.379,2.713,8.831c0,0-0.31,4.406-0.13,5.237c0,0,2.303,11.785-1.482,15.329
		L459.403,212.66z"/>
</g>
<path style="fill:#FFCB00;" d="M235.088,151.602h98.936c5.867,0,8.741,5.948,10.664,12.496l18.343,62.529l95.261,20.426
	c17.472,3.735,27.435,8.18,27.435,47.861v37.247l-30.889-0.24c0.07-1.141,0.11-2.283,0.11-3.444
	c0-30.148-24.451-54.599-54.599-54.599c-30.158,0-54.599,24.451-54.599,54.599c0,1.161,0.04,2.303,0.11,3.444H230.903
	c1.081-4.886,1.662-9.963,1.662-15.169c0-5.026-0.541-9.923-1.552-14.649c-2.053-14.198-11.014-27.825-21.868-37.478l15.279-100.528
	C225.446,157.34,229.221,151.602,235.088,151.602z"/>
<path style="fill:#FFD500;" d="M485.727,309.333v22.829l-30.889-0.24c0.07-1.141,0.11-2.283,0.11-3.444
	c0-30.148-24.451-54.599-54.599-54.599c-30.158,0-54.599,24.451-54.599,54.599c0,1.161,0.04,2.303,0.11,3.444H230.903
	c1.081-4.886,1.662-9.963,1.662-15.169c0-5.026-0.541-9.923-1.552-14.649c-2.053-14.198-11.014-27.825-21.868-37.478l15.279-100.528
	c0.26-1.722,0.701-3.374,1.302-4.886L485.727,309.333z"/>
<path style="fill:#3E2622;" d="M397.535,248.355c0,1.872-2.433,3.414-5.417,3.414l0,0c-2.974,0-5.407-1.542-5.407-3.414v-74.344
	v-3.915c0-6.378,10.964-10.193,16.661-9.152v11.885c-3.474-0.4-5.867,1.171-5.867,2.343
	C397.575,201.205,397.535,222.322,397.535,248.355z"/>
<path style="fill:#606060;" d="M485.727,301.583v30.579l-30.889-0.24c0.07-1.141,0.11-2.283,0.11-3.444
	c0-9.772-2.573-18.964-7.079-26.894H485.727z M352.828,301.583c-4.506,7.93-7.079,17.122-7.079,26.894
	c0,1.161,0.04,2.303,0.11,3.444h-12.876v-30.339H352.828z"/>
<path style="fill:#333333;" d="M152.914,250.999c-36.326,0-65.753,29.437-65.753,65.753c0,36.306,29.427,65.753,65.753,65.753
	c36.306,0,65.743-29.447,65.743-65.753C218.658,280.436,189.22,250.999,152.914,250.999z"/>
<g>
	<path style="fill:#FFCB00;" d="M152.914,256.145c-33.392,0-60.457,27.064-60.457,60.457c0,33.382,27.064,60.457,60.457,60.457
		c33.382,0,60.447-27.074,60.447-60.457C213.361,283.21,186.297,256.145,152.914,256.145z"/>
	<path style="fill:#FFCB00;" d="M92.457,316.752c0,33.382,27.064,60.457,60.457,60.457c33.382,0,60.447-27.074,60.447-60.457H92.457
		z"/>
</g>
<path style="fill:#606060;" d="M162.626,301.583h190.201c-4.506,7.93-7.079,17.122-7.079,26.894c0,1.161,0.04,2.303,0.11,3.444
	H162.626c-8.351,0-15.179-6.829-15.179-15.169l0,0C147.447,308.402,154.276,301.583,162.626,301.583z"/>
<polygon style="fill:#747474;" points="75.526,295.195 223.914,295.195 223.914,336.898 75.526,336.898 "/>
<path style="fill:#333333;" d="M396.704,281.307c-1.582,0.12-3.154,0.32-4.686,0.591l-1.342-2.663
	c-0.411-0.801-1.131-1.402-2.003-1.171l-2.543,0.641c-0.871,0.23-1.212,1.101-1.171,2.003l0.1,2.984
	c-1.502,0.511-2.964,1.091-4.396,1.752l-1.962-2.253c-0.591-0.681-1.432-1.081-2.223-0.641l-2.303,1.262
	c-0.781,0.431-0.901,1.362-0.641,2.223l0.851,2.874c-1.322,0.871-2.603,1.802-3.825,2.784l-2.463-1.692
	c-0.741-0.511-1.662-0.691-2.323-0.07l-1.912,1.792c-0.651,0.621-0.531,1.552-0.07,2.323l1.542,2.573
	c-1.061,1.161-2.073,2.373-3.014,3.645l-2.804-1.031c-0.851-0.31-1.782-0.25-2.263,0.511l-1.412,2.213
	c-0.481,0.761-0.13,1.622,0.511,2.263l2.123,2.103c-0.741,1.392-1.412,2.814-2.013,4.285l-2.964-0.3
	c-0.901-0.09-1.792,0.2-2.073,1.051l-0.811,2.503c-0.28,0.851,0.28,1.612,1.051,2.063l2.583,1.512
	c-0.36,1.522-0.661,3.074-0.871,4.646l-2.964,0.451c-0.891,0.14-1.682,0.631-1.732,1.532l-0.17,2.623
	c-0.06,0.901,0.671,1.492,1.532,1.742l2.894,0.821c0.02,1.592,0.12,3.164,0.29,4.716l-2.743,1.171
	c-0.831,0.35-1.482,1.031-1.312,1.922l0.491,2.573c0.17,0.881,1.021,1.282,1.922,1.302l2.984,0.08
	c0.421,1.532,0.911,3.034,1.472,4.506l-2.373,1.812c-0.711,0.551-1.172,1.362-0.781,2.183l1.111,2.373
	c0.38,0.811,1.302,0.981,2.183,0.791l2.914-0.671c0.781,1.372,1.632,2.703,2.543,3.985l-1.842,2.353
	c-0.561,0.711-0.791,1.612-0.22,2.313l1.672,2.023c0.571,0.691,1.512,0.631,2.313,0.22l2.663-1.382
	c1.091,1.131,2.243,2.213,3.444,3.234l-1.202,2.743c-0.36,0.821-0.37,1.762,0.36,2.293l2.123,1.542
	c0.731,0.531,1.612,0.23,2.293-0.36l2.233-1.993c1.342,0.821,2.723,1.582,4.145,2.283l-0.481,2.944
	c-0.15,0.881,0.08,1.792,0.921,2.123l2.433,0.971c0.841,0.33,1.632-0.17,2.133-0.921l1.662-2.473
	c1.502,0.461,3.034,0.851,4.586,1.161l0.27,2.974c0.08,0.901,0.521,1.722,1.422,1.832l2.603,0.33
	c0.891,0.12,1.522-0.571,1.832-1.412l1.001-2.834c0.771,0.04,1.552,0.06,2.343,0.06c0.801,0,1.592-0.02,2.383-0.06l1.001,2.824
	c0.3,0.841,0.931,1.532,1.822,1.422l2.603-0.33c0.901-0.11,1.352-0.931,1.432-1.832l0.26-2.974c1.562-0.32,3.094-0.711,4.586-1.182
	l1.662,2.473c0.501,0.751,1.292,1.262,2.123,0.921l2.443-0.961c0.841-0.33,1.071-1.232,0.931-2.123l-0.481-2.954
	c1.422-0.691,2.804-1.462,4.135-2.283l2.233,1.983c0.671,0.601,1.562,0.901,2.283,0.37l2.133-1.542
	c0.731-0.531,0.721-1.462,0.36-2.293l-1.202-2.743c1.202-1.021,2.353-2.103,3.444-3.234l2.653,1.372
	c0.801,0.411,1.732,0.481,2.313-0.22l1.672-2.023c0.581-0.691,0.34-1.592-0.21-2.303l-1.852-2.363
	c0.911-1.282,1.752-2.613,2.533-3.985l2.914,0.661c0.881,0.2,1.802,0.03,2.183-0.781l1.121-2.373c0.38-0.821-0.07-1.632-0.781-2.183
	l-2.373-1.822c0.561-1.472,1.041-2.974,1.462-4.506l2.974-0.07c0.911-0.02,1.752-0.421,1.922-1.302l0.501-2.583
	c0.17-0.881-0.481-1.562-1.302-1.912l-2.763-1.182c0.18-1.552,0.27-3.124,0.29-4.716l2.884-0.821
	c0.871-0.24,1.592-0.831,1.542-1.732l-0.17-2.623c-0.05-0.901-0.841-1.402-1.732-1.542l-2.964-0.451
	c-0.22-1.572-0.511-3.124-0.881-4.646l2.573-1.502c0.781-0.451,1.332-1.212,1.061-2.063l-0.811-2.503
	c-0.28-0.851-1.171-1.141-2.063-1.051l-2.974,0.29c-0.611-1.462-1.282-2.894-2.023-4.275l2.123-2.103
	c0.641-0.631,0.991-1.502,0.511-2.263l-1.402-2.213c-0.481-0.761-1.422-0.821-2.263-0.511l-2.814,1.021
	c-0.951-1.262-1.952-2.473-3.024-3.635l1.542-2.563c0.471-0.771,0.591-1.702-0.07-2.323l-1.912-1.802
	c-0.651-0.611-1.572-0.431-2.313,0.08l-2.473,1.692c-1.232-0.991-2.503-1.912-3.825-2.784l0.851-2.864
	c0.26-0.861,0.15-1.792-0.641-2.223l-2.303-1.272c-0.781-0.431-1.632-0.03-2.223,0.641l-1.973,2.253
	c-1.432-0.651-2.894-1.242-4.396-1.742l0.11-2.974c0.03-0.911-0.3-1.782-1.182-2.003l-2.533-0.661
	c-0.881-0.22-1.592,0.38-2.003,1.182l-1.352,2.673c-1.552-0.28-3.144-0.471-4.756-0.591l-0.631-2.924
	c-0.19-0.881-0.741-1.642-1.642-1.642h-2.623c-0.901,0-1.452,0.761-1.642,1.642L396.704,281.307z"/>
<path style="fill:#FFCB00;" d="M400.348,300.361c-15.53,0-28.116,12.586-28.116,28.116c0,15.53,12.586,28.116,28.116,28.116
	c15.53,0,28.116-12.586,28.116-28.116C428.464,312.947,415.878,300.361,400.348,300.361z"/>
<polygon style="fill:#FFD500;" points="221.822,147.888 345.629,147.888 345.629,159.212 221.822,159.212 "/>
<path style="fill:#666666;" d="M238.863,166.561h38.269c3.244,0,5.567,2.293,5.557,5.096l-0.19,63.871
	c-0.01,2.804-1.562,3.575-4.806,3.575h-49.763c-3.234,0-6.018-2.303-5.557-5.106l10.263-62.339
	C233.096,168.864,235.629,166.561,238.863,166.561z"/>
<path style="fill:#64B3F5;" d="M237.021,169.675c-0.19,0.12-0.29,0.481-0.32,0.651l-11.204,65.513c0.07,0.08,0.25,0.14,0.36,0.14
	h52.987c0.13,0,0.26-0.1,0.27-0.21l0.32-65.884c0.01-0.1-0.11-0.21-0.23-0.21H237.021z"/>
<path style="fill:#E1F1FB;" d="M228.34,219.238l51.065-42.784l0.03-6.568c0.01-0.1-0.11-0.21-0.23-0.21h-18.213l-28.226,23.65
	L228.34,219.238z M227.559,223.814l-1.222,7.119l53.017-44.426l0.03-6.118L227.559,223.814z"/>
<path style="fill:#666666;" d="M329.909,166.561H291.64c-3.234,0-5.557,2.293-5.557,5.096l0.19,63.871
	c0.01,2.804,1.562,3.575,4.806,3.575h49.763c3.234,0,6.018-2.303,5.557-5.106l-10.263-62.339
	C335.676,168.864,333.153,166.561,329.909,166.561z"/>
<path style="fill:#64B3F5;" d="M331.751,169.675c0.19,0.12,0.29,0.481,0.32,0.651l11.204,65.513c-0.07,0.08-0.25,0.14-0.36,0.14
	h-52.987c-0.13,0-0.26-0.1-0.27-0.21l-0.32-65.884c-0.01-0.1,0.11-0.21,0.23-0.21H331.751z"/>
<path style="fill:#E1F1FB;" d="M289.588,220.49l45.057-35.105l-2.573-15.059c-0.03-0.17-0.13-0.531-0.32-0.651h-4.315
	l-37.958,28.596L289.588,220.49z M335.236,188.86l0.931,5.397l-46.529,36.316l-0.03-6.138L335.236,188.86z"/>
<polygon style="fill:#FFB100;" points="78.48,297.257 220.951,297.257 220.951,334.845 78.48,334.845 "/>
<polygon style="fill:#FF9F00;" points="220.951,316.051 220.951,334.845 78.48,334.845 78.48,316.051 "/>
<path style="fill:#B3B3B3;" d="M151.462,308.371c4.235,0,7.68,3.434,7.68,7.68c0,4.235-3.444,7.68-7.68,7.68
	c-4.245,0-7.68-3.444-7.68-7.68C143.783,311.806,147.217,308.371,151.462,308.371z"/>
<path style="fill:#666666;" d="M151.462,310.334c3.154,0,5.717,2.553,5.717,5.717c0,3.154-2.563,5.717-5.717,5.717
	c-3.164,0-5.727-2.563-5.727-5.717C145.735,312.887,148.298,310.334,151.462,310.334z"/>
<path style="fill:#FFFFFF;" d="M160.654,38.068c3.234,0,6.288,0.771,8.981,2.133c2.924-2.864,6.929-4.626,11.344-4.626
	c7.64,0,14.048,5.297,15.77,12.416c3.815,1.141,6.889,4.025,8.281,7.73c0.461-0.05,0.921-0.07,1.402-0.07
	c7.059,0,12.786,5.727,12.786,12.796c0,7.059-5.727,12.786-12.786,12.786c-2.203,0-4.275-0.551-6.088-1.532
	c-1.552,5.317-6.458,9.202-12.276,9.202c-3.555,0-6.769-1.452-9.092-3.795c-2.323,2.343-5.537,3.795-9.092,3.795
	c-3.374,0-6.448-1.312-8.741-3.454c-2.333,2.563-5.697,4.165-9.442,4.165c-3.504,0-6.668-1.402-8.971-3.685
	c-1.061,0.24-2.163,0.36-3.284,0.36c-8.421,0-15.239-6.819-15.239-15.239s6.819-15.239,15.239-15.239c0.451,0,0.911,0.02,1.362,0.06
	C141.89,45.858,150.361,38.068,160.654,38.068z"/>
<g>
	<path style="fill:#9BCB64;" d="M119.211,178.286c0.09,0.35-0.23,0.661-0.33,0.741c0.601-0.481,0.881,0.11,0.881,0.11
		c0.891,0.14-0.04,0.831-0.04,0.831c-0.32,0.13-0.521-0.21-0.521-0.21c-0.811,0.401-0.36,0.621-0.36,0.621
		c0.601-0.13,0.24,0.38,0.24,0.38l-0.36,0.06l-0.441,0.23l0.02,0.16l0.33-0.04l0.04,0.25l-0.39,0.18l0.11,0.3
		c0.461,0.641-1.061,0.961-1.061,0.961c-0.24,1.932-2.053,1.232-2.483,1.041c-0.32,0.16-0.671,0.26-1.041,0.31
		c-0.921,0.13-1.802-0.11-2.513-0.611c-0.531,0.11-1.111-0.05-1.111-0.05c-0.621,0.07-0.37-0.831-0.37-0.831
		c-0.481,1.001-1.192,0.13-1.192,0.13c-0.671-0.711,0.14-1.141,0.14-1.141c-0.39-0.441,0.14-0.791,0.14-0.791
		c-1.011-0.2-1.252-0.721-1.302-1.051c-0.431-0.13-0.781-0.28-1.001-0.37c-0.791,0.37-1.652,0.641-2.563,0.761
		c-2.283,0.31-4.476-0.28-6.218-1.512c-1.322,0.26-2.764-0.11-2.764-0.11c-1.532,0.15-0.921-2.083-0.921-2.083
		c-0.821,1.712-1.902,1.232-2.493,0.761c0.11,0.521-1.151,0.781-1.151,0.781c-0.24,1.942-2.053,1.242-2.473,1.051
		c-0.32,0.15-0.671,0.26-1.041,0.31c-0.921,0.13-1.812-0.12-2.513-0.611c-0.541,0.11-1.121-0.05-1.121-0.05
		c-0.611,0.07-0.37-0.841-0.37-0.841c-0.471,1.011-1.192,0.14-1.192,0.14c-0.661-0.721,0.15-1.141,0.15-1.141
		c-0.39-0.441,0.14-0.801,0.14-0.801c-1.512-0.29-1.302-1.312-1.302-1.312c-0.701-0.911-0.01-1.692-0.01-1.692
		c-0.1-0.08-0.17-0.16-0.21-0.23c-0.861,0.07-1.682-0.16-2.343-0.631c-0.541,0.11-1.121-0.05-1.121-0.05
		c-0.621,0.07-0.38-0.841-0.38-0.841c-0.481,1.011-1.192,0.14-1.192,0.14c-0.681-0.721,0.14-1.151,0.14-1.151
		c-0.38-0.441,0.15-0.811,0.15-0.811c-1.532-0.28-1.312-1.322-1.312-1.322c-0.701-0.911-0.01-1.692-0.01-1.692
		c-0.611-0.491-0.05-0.991-0.05-0.991c-0.2-0.601,0.661-0.571,0.661-0.571c-0.861-1.642,0.661-1.822,0.661-1.822
		c0.27-0.791,0.951-0.31,0.951-0.31c0.35-0.871,1.542-0.21,1.542-0.21c-0.36-0.751,0.761-0.751,0.761-0.751
		c0.22-0.12,0.411-0.14,0.591-0.09c-0.01-0.1,0.01-0.17,0.01-0.17c-0.701-0.901-0.02-1.682-0.02-1.682
		c-0.601-0.501-0.04-0.991-0.04-0.991c-0.09-0.26,0.02-0.401,0.18-0.491c-0.681-1.562,0.411-2.804,0.411-2.804
		c-1.272-1.031-0.1-2.073-0.1-2.073c-0.421-1.262,1.382-1.222,1.382-1.222c-1.802-3.424,1.382-3.805,1.382-3.805
		c0.581-1.642,2.003-0.651,2.003-0.651c0.721-1.822,3.224-0.441,3.224-0.441c-0.741-1.562,1.612-1.582,1.612-1.582
		c1.572-0.871,2.663,0.991,2.663,0.991c0.941-1.222,1.712-1.642,2.333-1.672c-0.531-1.702,1.192-1.902,1.192-1.902
		c0.39-1.111,1.342-0.441,1.342-0.441c0.491-1.212,2.153-0.29,2.153-0.29c-0.491-1.051,1.081-1.061,1.081-1.061
		c1.051-0.581,1.782,0.661,1.782,0.661c1.872-2.433,2.784-0.13,2.784-0.13c3.164-1.552,3.685,1.382,3.685,1.382
		c0.641-0.831,1.512,0.02,2.343,1.212c0.551,0.791,0.2,1.502-0.1,1.892c0.541,0.31,0.871,0.871,0.871,0.871
		c2.473-3.214,3.675-0.17,3.675-0.17c4.175-2.063,4.856,1.822,4.856,1.822c0.851-1.091,1.993,0.03,3.104,1.592
		c1.091,1.572-0.541,2.914-0.541,2.914c1.161,1.001-0.591,1.682-0.591,1.682c0.931,0.901,0.01,1.792-0.23,1.993
		c1.111-0.901,1.642,0.19,1.642,0.19c1.642,0.27-0.08,1.562-0.08,1.562c-0.591,0.23-0.971-0.391-0.971-0.391
		c-0.811,0.401-0.941,0.701-0.891,0.901c2.053-0.471,2.413,1.582,2.413,1.582c0.581-0.741,1.362,0.02,2.123,1.101
		c0.751,1.071-0.37,1.993-0.37,1.993c0.791,0.681-0.411,1.151-0.411,1.151c0.651,0.611,0.01,1.222-0.15,1.362
		c0.761-0.621,1.131,0.13,1.131,0.13c1.111,0.18-0.06,1.071-0.06,1.071c-0.411,0.15-0.661-0.27-0.661-0.27
		c-0.3,0.14-0.461,0.27-0.541,0.38c0.751,0.3,0.911,1.212,0.911,1.212c0.451-0.591,1.071,0.02,1.672,0.871
		c0.591,0.841-0.29,1.572-0.29,1.572c0.621,0.541-0.32,0.911-0.32,0.911c0.511,0.481,0.01,0.961-0.12,1.071
		c0.601-0.491,0.891,0.1,0.891,0.1c0.881,0.14-0.04,0.841-0.04,0.841c-0.33,0.13-0.531-0.21-0.531-0.21
		c-0.811,0.401-0.36,0.631-0.36,0.631c0.611-0.14,0.25,0.38,0.25,0.38l-0.38,0.05l-0.441,0.25l0.03,0.15l0.33-0.04l0.04,0.25
		l-0.401,0.18l0.12,0.3c0.461,0.651-1.081,0.961-1.081,0.961c-0.24,1.952-2.063,1.252-2.483,1.051c-0.33,0.16-0.671,0.27-1.051,0.32
		c-0.931,0.12-1.812-0.12-2.523-0.611L119.211,178.286z"/>
	<path style="fill:#4E342E;" d="M101.379,208.975c0,0-0.16-0.931,0.1-4.105l-0.911-10.263c0,0-0.16-3.765,0.33-4.856
		c0,0,7.389-7.179,8.891-7.58c0,0,1.081-9.392,2.423-9.582l-1.342-0.791c0,0-1.202,8.871-2.083,10.233
		c0,0-3.404-12.836-2.874-14.188l-0.491,0.391c0,0,1.592,12.806,1.292,13.687l-2.173,2.253c0,0-0.751,2.263-1.202,1.232
		c0,0-4.165-2.543-2.103-15.93l-1.682-1.081l-1.392,8.811c0,0,0.971,0,0.541,2.233c0,0,1.702,5.327,1.432,5.857
		c0,0-0.401,2.533-1.512,1.792l-2.333-5.517c0,0-1.962-7.87-0.641-9.092l-0.511-0.631c0,0-0.871,3.905-0.16,6.759
		c0,0-3.585-3.965-4.696-3.955l0.03,0.711c0,0,0.681-1.402,4.376,3.995c0,0,2.543,7.149,2.633,8.551c0,0-0.3,4.265-0.12,5.076
		c0,0,2.223,11.404-1.442,14.839L101.379,208.975z"/>
</g>
<path style="fill:#FFFF00;" d="M228.29,30.839c14.518,0,26.273,11.765,26.273,26.273c0,14.518-11.755,26.283-26.273,26.283
	c-14.508,0-26.283-11.765-26.283-26.283C202.006,42.604,213.781,30.839,228.29,30.839z"/>
<g>
	<path d="M339.591,68.657c0,0,4.185-0.891,7.69-0.23c3.504,0.681,7.169,3.585,11.124,3.815c3.955,0.22,3.134-1.272,3.134-1.272
		s-2.543,0.37-3.214-1.792c-0.671-2.163,2.093-3.885,6.348-6.869c4.255-2.984,5.076-5.968,4.255-7.84c0,0-0.751,1.202-4.255,3.064
		c-3.504,1.862-6.048,5.307-8.811,7.76c-2.754,2.473-2.914,2.613-5.517,2.093C347.731,66.865,342.134,66.044,339.591,68.657z"/>
	<path d="M317.733,53.258c0,0,4.185-0.901,7.69-0.23c3.514,0.681,7.169,3.585,11.124,3.815c3.955,0.22,3.134-1.272,3.134-1.272
		s-2.533,0.37-3.214-1.792c-0.661-2.163,2.093-3.885,6.348-6.869s5.076-5.968,4.255-7.84c0,0-0.741,1.202-4.255,3.064
		c-3.504,1.862-6.038,5.307-8.801,7.76c-2.764,2.463-2.914,2.613-5.527,2.093C325.874,51.465,320.277,50.644,317.733,53.258z"/>
</g>
<g>
</g>
<g>
</g>
<g>
</g>
<g>
</g>
<g>
</g>
<g>
</g>
<g>
</g>
<g>
</g>
<g>
</g>
<g>
</g>
<g>
</g>
<g>
</g>
<g>
</g>
<g>
</g>
<g>
</g>
</svg>
