<?xml version="1.0" encoding="iso-8859-1"?>
<!-- Generator: Adobe Illustrator 19.0.0, SVG Export Plug-In . SVG Version: 6.00 Build 0)  -->
<svg version="1.1" id="Layer_1" xmlns="http://www.w3.org/2000/svg" xmlns:xlink="http://www.w3.org/1999/xlink" x="0px" y="0px"
	 viewBox="0 0 512 512" style="enable-background:new 0 0 512 512;" xml:space="preserve">
<path style="fill:#424242;" d="M255.997,0C397.385,0,512,114.615,512,255.997C512,397.385,397.385,512,255.997,512
	C114.615,512,0,397.385,0,255.997C0,114.615,114.615,0,255.997,0z"/>
<path style="fill:#7885C9;" d="M507.78,302.457c-127.329-7.02-357.605-16.383-504.046-2.753C1.291,285.505,0,270.901,0,255.997
	c0-19.083,2.107-37.679,6.069-55.57c77.547-2.413,212.625-3.657,334.366-5.119c51.203-0.616,115.989-2.465,163.764-2.213
	c5.089,20.122,7.801,41.201,7.801,62.902C512,271.869,510.544,287.389,507.78,302.457z"/>
<path style="fill:#689D38;" d="M255.762,254.553c95.926,0,184.208,11.945,254.418,31.985C495.077,413.527,387.048,512,255.997,512
	C124.905,512,16.841,413.457,1.808,286.403C71.935,266.445,160.048,254.553,255.762,254.553z"/>
<path style="fill:#785448;" d="M39.909,271.728c-0.17,0.622-3.598,25.927-3.598,25.927l7.29,0.616l-0.076-25.546L39.909,271.728z"/>
<path style="fill:#2E7C32;" d="M27.354,226.278c0,0,12.057-2.395,10.671,0.704c-1.379,3.105-16.894,11.188-16.894,11.188
	s12.315-1.767,10.466,2.459c-1.849,4.215-17.181,11.3-17.181,11.3s19.823-3.046,14.405,2.577
	c-5.424,5.623-25.07,15.091-25.07,15.091s24.976-5.283,24.178,0.98c-0.798,6.263-10.994,8.059-13.113,12.027
	c0,0,24.648-4.385,27.336-1.027c2.806,0,27.665,4.344,27.706,3.258c-1.814-4.08-12.356-7.073-12.679-13.372
	c-0.329-6.298,24.196,0.481,24.196,0.481s-18.883-10.636-23.867-16.571c-4.984-5.94,14.563-1.702,14.563-1.702
	s-14.763-7.995-16.289-12.315c-1.526-4.32,10.63-1.814,10.63-1.814s-14.863-9.004-16.013-12.186
	c-1.145-3.181,10.701-0.053,10.701-0.053c-9.973-8.388-13.636-17.169-16.066-21.783C42.263,209.983,37.943,218.518,27.354,226.278z"
	/>
<path style="fill:#388D3C;" d="M27.354,226.278c0,0,12.057-2.395,10.671,0.704c-1.379,3.105-16.894,11.188-16.894,11.188
	s12.315-1.767,10.466,2.459c-1.849,4.215-17.181,11.3-17.181,11.3s19.823-3.046,14.405,2.577
	c-5.424,5.623-25.07,15.091-25.07,15.091s24.976-5.283,24.178,0.98c-0.798,6.263-10.994,8.059-13.113,12.022
	c-5.036,1.737,20.363-3.064,27.336-1.021l3.105-75.627l-0.223-0.428C42.263,209.983,37.943,218.518,27.354,226.278z"/>
<path style="fill:#BBBBBB;" d="M6.627,197.891c40.485-31.104,77.635-58.135,117.515-78.398c10.343-5.254,28.903-5.606,40.813-1.896
	c79.554,24.771,113.177,52.26,135.101,78.187L5.659,202.299C5.976,200.826,6.287,199.353,6.627,197.891z"/>
<path style="fill:#747474;" d="M153.667,115.449c4.068,0.387,7.942,1.109,11.288,2.148c79.554,24.771,113.664,52.829,135.588,78.75
	l-133.029,1.379c0,0-9.092-8.277-30.934-20.891s42.633-11.253,22.693-28.639C139.327,130.81,153.667,115.449,153.667,115.449z"/>
<path style="fill:#BBBBBB;" d="M242.796,197.028c24.777-34.245,55.376-69.358,135.811-111.933
	c10.589-5.606,24.425-6.821,32.989-2.888c32.325,14.821,53.557,31.533,68.044,49.154c10.812,19.359,19.189,40.273,24.706,62.315
	C418.616,194.586,328.343,196.136,242.796,197.028z"/>
<path style="fill:#54892E;" d="M257.905,320.501c119.798,0,216.915,16.624,216.915,37.121c0,20.503-97.117,37.121-216.915,37.121
	c-119.804,0-216.921-16.618-216.921-37.121C40.983,337.125,138.101,320.501,257.905,320.501z"/>
<path style="fill:#D3DF56;" d="M258.239,192.597l75.246,151.672c1.315,2.647,1.174,5.553-0.382,8.071
	c-1.561,2.512-4.103,3.927-7.061,3.927h-130.27c-2.917,0-5.424-1.374-6.997-3.827c-1.567-2.459-1.767-5.306-0.546-7.96
	L258.239,192.597z"/>
<polygon style="fill:#817616;" points="258.239,192.597 228.268,356.266 288.369,356.266 "/>
<path style="fill:#785448;" d="M99.442,334.671c0.399-7.038,10.419-6.234,10.871,0v19.177H99.442V334.671z"/>
<path style="fill:#747474;" d="M395.864,80.071c5.852-0.511,11.452,0.17,15.731,2.137c32.026,14.686,53.111,30.999,67.562,48.297
	c11.053,19.605,19.594,40.819,25.188,63.189l-139.662,2.066c-27.201-18.478,0.37-31.198,6.956-31.686
	c7.56-0.564,55.112-29.66,22.47-38.019S395.864,80.071,395.864,80.071z"/>
<path style="fill:#785448;" d="M380.485,239.79c-0.17,0.628-3.598,25.927-3.598,25.927l7.296,0.616l-0.076-25.54L380.485,239.79z"/>
<path style="fill:#2E7C32;" d="M367.93,194.346c0,0,12.057-2.401,10.677,0.704c-1.385,3.099-16.899,11.182-16.899,11.182
	s12.315-1.761,10.466,2.459c-1.849,4.22-17.181,11.305-17.181,11.305s19.828-3.052,14.405,2.571
	c-5.424,5.623-25.064,15.091-25.064,15.091s24.976-5.283,24.172,0.986c-0.798,6.263-10.988,8.059-13.113,12.021
	c0,0,24.648-4.379,27.336-1.027c2.806,0.006,27.665,4.35,27.712,3.264c-1.82-4.08-12.362-7.079-12.685-13.377
	c-0.329-6.298,24.196,0.481,24.196,0.481s-18.883-10.63-23.867-16.571c-4.984-5.934,14.563-1.696,14.563-1.696
	s-14.757-7.995-16.283-12.321c-1.526-4.32,10.624-1.814,10.624-1.814s-14.863-9.004-16.007-12.186
	c-1.151-3.176,10.701-0.053,10.701-0.053c-9.979-8.388-13.642-17.164-16.072-21.783C382.839,178.045,378.525,186.58,367.93,194.346z
	"/>
<path style="fill:#388D3C;" d="M367.93,194.346c0,0,12.057-2.401,10.677,0.704c-1.385,3.099-16.899,11.188-16.899,11.188
	s12.315-1.767,10.466,2.454c-1.849,4.22-17.181,11.305-17.181,11.305s19.828-3.052,14.405,2.571
	c-5.424,5.623-25.064,15.091-25.064,15.091s24.976-5.283,24.172,0.986c-0.798,6.263-10.988,8.059-13.113,12.021
	c-5.036,1.732,20.363-3.064,27.336-1.027l3.111-75.622l-0.229-0.434C382.839,178.045,378.525,186.58,367.93,194.346z"/>
<path style="fill:#785448;" d="M419.414,332.311c-0.399-7.032-10.413-6.228-10.871,0v19.183h10.871V332.311z"/>
<path style="fill:#E5ED9B;" d="M258.239,192.597l114.128,108.064l-47.041,27.16L258.239,192.597z M258.239,192.597L147.95,302.88
	l47.047,27.16L258.239,192.597z"/>
<path style="fill:#FFD500;" d="M419.332,334.929h-10.636l-37.033-33.857l-2.096,1.209l38.935,35.436l3.252,0.006h7.578V334.929z
	 M99.518,337.289h10.642l38.119-34.221l2.125,1.227l-40.091,35.924l-3.211-0.135h-7.584V337.289z"/>
<path style="fill:#785448;" d="M120.761,245.578c-0.164,0.622-3.598,25.927-3.598,25.927l7.296,0.616l-0.076-25.546L120.761,245.578
	z"/>
<path style="fill:#2E7C32;" d="M108.211,200.133c0,0,12.057-2.401,10.671,0.699c-1.385,3.105-16.894,11.188-16.894,11.188
	s12.315-1.767,10.466,2.454c-1.849,4.22-17.181,11.305-17.181,11.305s19.823-3.046,14.399,2.577
	c-5.418,5.623-25.064,15.091-25.064,15.091s24.976-5.283,24.178,0.98c-0.804,6.269-10.994,8.065-13.113,12.027
	c0,0,24.648-4.379,27.336-1.027c2.806,0.006,27.665,4.344,27.706,3.264c-1.814-4.085-12.356-7.079-12.685-13.377
	c-0.323-6.298,24.196,0.481,24.196,0.481s-18.883-10.636-23.861-16.571c-4.989-5.94,14.563-1.702,14.563-1.702
	s-14.763-7.995-16.289-12.315c-1.526-4.32,10.624-1.814,10.624-1.814s-14.857-9.004-16.007-12.186
	c-1.145-3.181,10.701-0.053,10.701-0.053c-9.979-8.388-13.636-17.169-16.066-21.783C123.121,183.833,118.8,192.368,108.211,200.133z
	"/>
<path style="fill:#388D3C;" d="M108.211,200.133c0,0,12.057-2.401,10.671,0.699c-1.385,3.105-16.894,11.188-16.894,11.188
	s12.315-1.767,10.466,2.459c-1.849,4.215-17.181,11.3-17.181,11.3s19.823-3.046,14.399,2.577
	c-5.418,5.623-25.064,15.091-25.064,15.091s24.976-5.283,24.178,0.98c-0.804,6.269-10.994,8.065-13.113,12.021
	c-5.036,1.737,20.363-3.058,27.336-1.021l3.105-75.627l-0.223-0.428C123.121,183.833,118.8,192.368,108.211,200.133z"/>
<path style="fill:#785448;" d="M430.462,248.349c-0.164,0.628-3.598,25.927-3.598,25.927l7.296,0.616l-0.076-25.54L430.462,248.349z
	"/>
<path style="fill:#2E7C32;" d="M417.912,202.904c0,0,12.057-2.401,10.671,0.704c-1.385,3.099-16.893,11.182-16.893,11.182
	s12.315-1.761,10.46,2.459c-1.849,4.22-17.175,11.305-17.175,11.305s19.823-3.052,14.399,2.571s-25.064,15.091-25.064,15.091
	s24.976-5.283,24.178,0.98c-0.804,6.269-10.994,8.065-13.113,12.027c0,0,24.648-4.379,27.33-1.027
	c2.806,0.006,27.665,4.35,27.712,3.264c-1.814-4.08-12.362-7.073-12.685-13.377c-0.323-6.298,24.196,0.481,24.196,0.481
	s-18.883-10.63-23.867-16.571c-4.984-5.934,14.563-1.696,14.563-1.696s-14.757-7.995-16.283-12.321
	c-1.526-4.32,10.624-1.814,10.624-1.814s-14.863-9.004-16.007-12.186c-1.145-3.176,10.701-0.053,10.701-0.053
	c-9.979-8.388-13.642-17.169-16.066-21.783C432.815,186.603,428.501,195.138,417.912,202.904z"/>
<path style="fill:#388D3C;" d="M417.912,202.904c0,0,12.057-2.401,10.671,0.704c-1.385,3.099-16.893,11.182-16.893,11.182
	s12.315-1.761,10.46,2.459c-1.849,4.22-17.175,11.305-17.175,11.305s19.823-3.052,14.399,2.571s-25.064,15.091-25.064,15.091
	s24.976-5.283,24.178,0.98c-0.804,6.269-10.994,8.065-13.119,12.027c-5.036,1.732,20.368-3.064,27.336-1.027l3.111-75.628
	l-0.223-0.428C432.815,186.603,428.501,195.138,417.912,202.904z"/>
<path style="fill:#785448;" d="M473.981,267.602c-0.164,0.622-3.598,25.921-3.598,25.921l7.296,0.622l-0.076-25.546L473.981,267.602
	z"/>
<path style="fill:#2E7C32;" d="M461.431,222.151c0,0,12.057-2.401,10.671,0.704c-1.385,3.099-16.894,11.188-16.894,11.188
	s12.315-1.767,10.46,2.454c-1.849,4.22-17.175,11.305-17.175,11.305s19.823-3.046,14.399,2.571
	c-5.424,5.623-25.064,15.091-25.064,15.091s24.976-5.283,24.178,0.986c-0.804,6.263-10.994,8.059-13.113,12.022
	c0,0,24.648-4.379,27.33-1.021c2.812,0,27.665,4.344,27.712,3.258c-1.814-4.08-12.362-7.073-12.685-13.372
	c-0.241-4.755,13.671-2.06,20.503-0.452l0.041-1.192c-5.741-3.405-16.612-10.155-20.216-14.452
	c-4.984-5.934,14.563-1.696,14.563-1.696s-14.757-7.995-16.283-12.315c-1.526-4.326,10.624-1.82,10.624-1.82
	s-14.863-9.004-16.007-12.18c-1.145-3.181,10.701-0.059,10.701-0.059c-9.979-8.382-13.642-17.164-16.066-21.777
	C476.335,205.851,472.02,214.385,461.431,222.151z"/>
<path style="fill:#388D3C;" d="M461.431,222.151c0,0,12.057-2.401,10.671,0.704c-1.385,3.099-16.894,11.188-16.894,11.188
	s12.315-1.767,10.46,2.454c-1.849,4.22-17.175,11.305-17.175,11.305s19.823-3.046,14.399,2.577
	c-5.424,5.617-25.064,15.086-25.064,15.086s24.976-5.283,24.178,0.986c-0.804,6.263-10.994,8.059-13.119,12.022
	c-5.036,1.732,20.368-3.064,27.336-1.021l3.111-75.627l-0.223-0.428C476.335,205.851,472.02,214.385,461.431,222.151z"/>
<path style="fill:#FFD500;" d="M391.21,206.59v42.926c14.71-8.869,30.042-9.715,46.032-2.172
	c-0.804-3.369-9.985-21.513-9.985-21.513l19.823-20.38C447.079,205.452,400.478,219.598,391.21,206.59z"/>
<path style="fill:#785448;" d="M390.458,227.757c0.205-47.153,5.212-41.794,5.436,0v128.591h-5.436V227.757z"/>
<path style="fill:#FFFFFF;" d="M263.716,62.808c20.333,0,36.81,16.483,36.81,36.804c0,20.333-16.477,36.81-36.81,36.81
	c-20.327,0-36.804-16.477-36.804-36.81C226.912,79.29,243.389,62.808,263.716,62.808z"/>
<path style="fill:#F1EAE3;" d="M250.385,140.812c0.135,0,0.241,0.106,0.241,0.247c0,0.135-0.106,0.247-0.241,0.247
	c-0.141,0-0.252-0.112-0.252-0.247C250.133,140.918,250.245,140.812,250.385,140.812z"/>
<path style="fill:#FFFFFF;" d="M191.605,58.517c1.139,0,2.066,0.927,2.066,2.072c0,1.139-0.927,2.066-2.066,2.066
	c-1.145,0-2.066-0.927-2.066-2.066C189.538,59.444,190.46,58.517,191.605,58.517z M355.474,65.754c1.145,0,2.066,0.927,2.066,2.072
	c0,1.139-0.922,2.066-2.066,2.066c-1.139,0-2.066-0.927-2.066-2.066C353.408,66.682,354.335,65.754,355.474,65.754z M88.218,68.86
	c1.139,0,2.066,0.922,2.066,2.066c0,1.139-0.927,2.072-2.066,2.072c-1.145,0-2.072-0.933-2.072-2.072
	C86.146,69.781,87.074,68.86,88.218,68.86z M62.884,92.638c1.145,0,2.066,0.922,2.066,2.066c0,1.139-0.922,2.072-2.066,2.072
	c-1.139,0-2.066-0.933-2.066-2.072C60.818,93.56,61.745,92.638,62.884,92.638z M123.367,95.221c1.145,0,2.072,0.927,2.072,2.066
	c0,1.145-0.927,2.072-2.072,2.072c-1.145,0-2.066-0.927-2.066-2.072C121.301,96.149,122.223,95.221,123.367,95.221z M170.408,82.812
	c1.145,0,2.066,0.927,2.066,2.072s-0.922,2.066-2.066,2.066c-1.139,0-2.066-0.922-2.066-2.066S169.27,82.812,170.408,82.812z
	 M146.63,47.663c1.145,0,2.066,0.927,2.066,2.066c0,1.145-0.922,2.072-2.066,2.072c-1.139,0-2.066-0.927-2.066-2.072
	C144.563,48.591,145.491,47.663,146.63,47.663z M93.384,110.213c1.145,0,2.066,0.927,2.066,2.066c0,1.145-0.922,2.072-2.066,2.072
	c-1.139,0-2.066-0.927-2.066-2.072C91.318,111.14,92.245,110.213,93.384,110.213z M129.055,65.238c1.139,0,2.066,0.927,2.066,2.072
	c0,1.139-0.927,2.066-2.066,2.066c-1.145,0-2.066-0.927-2.066-2.066C126.989,66.165,127.91,65.238,129.055,65.238z M59.268,127.271
	c1.139,0,2.066,0.927,2.066,2.066c0,1.145-0.927,2.072-2.066,2.072c-1.145,0-2.072-0.927-2.072-2.072
	C57.196,128.198,58.124,127.271,59.268,127.271z M386.49,54.901c1.145,0,2.072,0.927,2.072,2.066c0,1.145-0.927,2.066-2.072,2.066
	c-1.139,0-2.066-0.922-2.066-2.066C384.424,55.828,385.352,54.901,386.49,54.901z M316.703,60.072c1.145,0,2.066,0.922,2.066,2.066
	c0,1.145-0.922,2.066-2.066,2.066c-1.139,0-2.066-0.922-2.066-2.066C314.637,60.994,315.565,60.072,316.703,60.072z M222.621,22.335
	c1.145,0,2.066,0.922,2.066,2.066c0,1.139-0.922,2.066-2.066,2.066c-1.139,0-2.066-0.927-2.066-2.066
	C220.555,23.256,221.482,22.335,222.621,22.335z M303.784,25.434c1.139,0,2.066,0.927,2.066,2.072c0,1.139-0.927,2.066-2.066,2.066
	c-1.145,0-2.072-0.927-2.072-2.066C301.712,26.362,302.639,25.434,303.784,25.434z"/>
<g>
</g>
<g>
</g>
<g>
</g>
<g>
</g>
<g>
</g>
<g>
</g>
<g>
</g>
<g>
</g>
<g>
</g>
<g>
</g>
<g>
</g>
<g>
</g>
<g>
</g>
<g>
</g>
<g>
</g>
</svg>
