<?xml version="1.0" encoding="iso-8859-1"?>
<!-- Generator: Adobe Illustrator 19.0.0, SVG Export Plug-In . SVG Version: 6.00 Build 0)  -->
<svg version="1.1" id="Layer_1" xmlns="http://www.w3.org/2000/svg" xmlns:xlink="http://www.w3.org/1999/xlink" x="0px" y="0px"
	 viewBox="0 0 512 512" style="enable-background:new 0 0 512 512;" xml:space="preserve">
<path style="fill:#666666;" d="M256,0c141.386,0,256,114.614,256,256c0,141.386-114.614,256-256,256C114.614,512,0,397.386,0,256
	C0,114.614,114.614,0,256,0z"/>
<path style="fill:#5C793B;" d="M263.785,381.361c73.903,0,143.253,7.119,203.24,19.578C420.869,468.015,343.577,512,256,512
	c-86.297,0-162.618-42.7-208.992-108.125C110,389.607,184.258,381.361,263.785,381.361z"/>
<path style="fill:#6C4C40;" d="M27.774,372.077c28.617-43.165,56.649-81.283,85.987-112.6c11.698-12.491,32.699-13.322,46.177-4.504
	c90.01,58.876,127.588,119.967,152.395,181.591l-223.558,13.27C63.737,428.213,42.933,401.823,27.774,372.077z"/>
<path style="fill:#4B342C;" d="M147.163,249.87c4.604,0.909,8.988,2.627,12.775,5.104c90.01,58.876,127.588,119.967,152.395,181.591
	l-149.497,8.872c0,0-10.292-19.674-35.003-49.656c-24.714-29.98,48.238-26.75,25.675-68.077
	C130.941,286.38,147.163,249.87,147.163,249.87z"/>
<path style="fill:#6C4C40;" d="M248.006,443.781c28.039-81.402,62.658-164.872,153.667-266.07c3.257-3.621,6.787-6.471,10.395-8.514
	c44.255,30.78,78.493,74.954,96.838,126.653c-8.681,55.55-35.232,105.167-73.575,142.816
	C372.519,440.477,309.195,442.445,248.006,443.781z"/>
<path style="fill:#5C4036;" d="M434.733,439.25l-48.816,1.516c-30.775-43.922,0.417-74.156,7.875-75.318
	c8.555-1.34,62.358-70.5,25.421-90.374c-30.305-16.307-9.549-79.422-1.118-101.562c41.339,30.527,73.309,73.012,90.81,122.347
	C500.173,351.691,473.398,401.532,434.733,439.25z"/>
<path style="fill:#61443B;" d="M446.264,424.074c-0.039,0.142-0.257,1.628-0.564,3.823c0.956-1.056,1.899-2.125,2.838-3.196
	L446.264,424.074z"/>
<path style="fill:#256529;" d="M433.759,378.798c0,0,12.01-2.391,10.631,0.699c-1.379,3.09-16.831,11.144-16.831,11.144
	s12.268-1.757,10.427,2.449c-1.842,4.203-17.118,11.26-17.118,11.26s19.75-3.038,14.348,2.565
	c-5.401,5.601-24.97,15.033-24.97,15.033s24.881-5.263,24.083,0.981c-0.797,6.24-10.949,8.028-13.064,11.978
	c0,0,11.9-2.114,20.034-2.273c7.811-8.191,15.07-16.914,21.751-26.083c-0.254-0.829,0.241-1.34,1.184-1.624
	c1.255-1.75,2.488-3.516,3.7-5.298c-2.829-2.044-5.282-4.188-5.855-5.812c-1.521-4.306,10.585-1.81,10.585-1.81
	s-14.804-8.969-15.947-12.138c-1.143-3.168,10.661-0.055,10.661-0.055c-9.942-8.354-13.588-17.102-16.009-21.699
	C448.609,362.559,444.307,371.063,433.759,378.798z"/>
<path style="fill:#2D7231;" d="M433.759,378.798c0,0,12.01-2.391,10.631,0.699c-1.379,3.09-16.831,11.146-16.831,11.146
	s12.268-1.759,10.427,2.447c-1.842,4.203-17.118,11.26-17.118,11.26s19.75-3.038,14.348,2.565
	c-5.401,5.601-24.97,15.033-24.97,15.033s24.881-5.263,24.083,0.981c-0.797,6.24-10.949,8.028-13.064,11.975
	c-3.754,1.292,9.452-1.054,19.253-1.471c2.866-2.976,5.656-6.02,8.375-9.132l2.701-65.757l-0.224-0.428
	C448.609,362.559,444.307,371.063,433.759,378.798z"/>
<path style="fill:#61443B;" d="M124.124,426.317c-0.165,0.621-3.585,25.827-3.585,25.827l7.268,0.614l-0.078-25.446L124.124,426.317
	z"/>
<path style="fill:#256529;" d="M111.62,381.04c0,0,12.01-2.391,10.633,0.698c-1.379,3.092-16.834,11.144-16.834,11.144
	s12.269-1.757,10.427,2.447c-1.841,4.205-17.118,11.265-17.118,11.265s19.753-3.038,14.351,2.563
	c-5.401,5.6-24.972,15.033-24.972,15.033s24.883-5.264,24.084,0.981c-0.795,6.239-10.949,8.03-13.062,11.977
	c0,0,24.554-4.364,27.234-1.022c2.794,0.005,27.558,4.329,27.602,3.248c-1.81-4.064-12.312-7.048-12.635-13.325
	c-0.325-6.274,24.104,0.481,24.104,0.481s-18.813-10.594-23.777-16.509c-4.964-5.914,14.508-1.693,14.508-1.693
	s-14.704-7.964-16.224-12.271c-1.519-4.306,10.587-1.81,10.587-1.81s-14.807-8.97-15.949-12.138
	c-1.141-3.167,10.66-0.055,10.66-0.055c-9.939-8.354-13.586-17.099-16.007-21.699C126.472,364.802,122.17,373.307,111.62,381.04z"/>
<path style="fill:#2D7231;" d="M111.62,381.04c0,0,12.01-2.391,10.633,0.701c-1.379,3.09-16.834,11.144-16.834,11.144
	s12.269-1.759,10.427,2.446c-1.841,4.203-17.118,11.263-17.118,11.263s19.753-3.038,14.351,2.563
	c-5.401,5.6-24.972,15.031-24.972,15.031s24.883-5.261,24.084,0.983c-0.795,6.239-10.949,8.03-13.062,11.975
	c-5.019,1.727,20.286-3.051,27.234-1.02l3.094-75.341l-0.224-0.429C126.472,364.802,122.17,373.307,111.62,381.04z"/>
<path style="fill:#ABB545;" d="M248.823,301.979l74.96,151.101c1.31,2.639,1.173,5.532-0.382,8.038
	c-1.553,2.503-4.084,3.915-7.032,3.915H186.592c-2.905,0-5.402-1.368-6.969-3.814c-1.566-2.449-1.763-5.287-0.547-7.928
	L248.823,301.979z"/>
<polygon style="fill:#685F12;" points="248.823,301.979 218.965,465.033 278.837,465.033 "/>
<g>
	<path style="fill:#61443B;" d="M90.626,443.517c0.396-7.007,10.377-6.208,10.828,0v16.571c-3.69-2.797-7.3-5.699-10.828-8.689
		V443.517z"/>
	<path style="fill:#61443B;" d="M409.389,441.169c-0.396-7.005-10.377-6.208-10.828,0v19.11h10.828V441.169z"/>
</g>
<path style="fill:#B9C07E;" d="M248.823,301.979l113.7,107.659l-46.866,27.06L248.823,301.979z M248.823,301.979l-109.87,109.87
	l46.863,27.057L248.823,301.979z"/>
<g>
	<path style="fill:#CFAD00;" d="M409.309,443.776h-10.596l-36.895-33.729l-2.085,1.202l38.787,35.301l3.241,0.011h7.548V443.776z
		 M90.704,446.124h10.599l37.974-34.087l2.116,1.221l-39.939,35.784l-3.2-0.133h-7.55V446.124z"/>
	<path style="fill:#CFAD00;" d="M381.288,315.92v42.764c14.655-8.83,29.932-9.673,45.86-2.158
		c-0.799-3.36-9.944-21.438-9.944-21.438l19.745-20.302C436.95,314.786,390.524,328.878,381.288,315.92z"/>
</g>
<path style="fill:#61443B;" d="M380.546,337.007c0.199-46.974,5.188-41.634,5.415,0v128.105h-5.415V337.007z"/>
<g>
	<path style="fill:#FFFFFF;" d="M163.136,71.108c3.752,0,6.791,3.04,6.791,6.792c0,3.752-3.04,6.791-6.791,6.791
		c-3.752,0-6.792-3.04-6.792-6.791C156.344,74.147,159.384,71.108,163.136,71.108z"/>
	<path style="fill:#FFFFFF;" d="M199.362,118.906c3.752,0,6.791,3.04,6.791,6.791c0,3.752-3.04,6.792-6.791,6.792
		c-3.752,0-6.792-3.04-6.792-6.792C192.57,121.946,195.61,118.906,199.362,118.906z"/>
	<path style="fill:#FFFFFF;" d="M199.115,165.445c3.752,0,6.791,3.04,6.791,6.792c0,3.752-3.04,6.789-6.791,6.789
		c-3.752,0-6.792-3.038-6.792-6.789C192.323,168.484,195.362,165.445,199.115,165.445z"/>
	<path style="fill:#FFFFFF;" d="M193.83,202.427c3.752,0,6.792,3.04,6.792,6.789c0,3.752-3.04,6.792-6.792,6.792
		c-3.752,0-6.791-3.04-6.791-6.792C187.039,205.466,190.078,202.427,193.83,202.427z"/>
	<path style="fill:#FFFFFF;" d="M162.637,224.815c3.75,0,6.789,3.04,6.789,6.789c0,3.752-3.04,6.792-6.789,6.792
		c-3.752,0-6.792-3.04-6.792-6.792C155.845,227.855,158.884,224.815,162.637,224.815z"/>
	<path style="fill:#FFFFFF;" d="M217.856,270.479c3.752,0,6.792,3.04,6.792,6.791c0,3.752-3.04,6.792-6.792,6.792
		c-3.752,0-6.792-3.039-6.792-6.792C211.064,273.519,214.105,270.479,217.856,270.479z"/>
	<path style="fill:#FFFFFF;" d="M254.083,236.012c3.752,0,6.792,3.04,6.792,6.792s-3.039,6.792-6.792,6.792
		c-3.752,0-6.792-3.04-6.792-6.792S250.331,236.012,254.083,236.012z"/>
	<path style="fill:#FFFFFF;" d="M136.2,72.501c1.244,0,2.251,1.006,2.251,2.249s-1.008,2.249-2.251,2.249
		c-1.244,0-2.249-1.006-2.249-2.249S134.957,72.501,136.2,72.501z"/>
	<path style="fill:#FFFFFF;" d="M208.085,139.549c1.493,0,2.705,1.209,2.705,2.705c0,1.498-1.212,2.71-2.705,2.71
		c-1.496,0-2.708-1.211-2.708-2.71C205.377,140.759,206.589,139.549,208.085,139.549z M422.613,149.023
		c1.493,0,2.705,1.212,2.705,2.71c0,1.491-1.212,2.703-2.705,2.703c-1.496,0-2.708-1.212-2.708-2.703
		C419.905,150.235,421.117,149.023,422.613,149.023z M72.737,153.082c1.491,0,2.707,1.211,2.707,2.71
		c0,1.491-1.216,2.708-2.707,2.708c-1.498,0-2.71-1.217-2.71-2.708C70.027,154.294,71.238,153.082,72.737,153.082z M39.575,184.214
		c1.494,0,2.705,1.212,2.705,2.705c0,1.496-1.211,2.71-2.705,2.71c-1.496,0-2.707-1.214-2.707-2.71
		C36.868,185.426,38.079,184.214,39.575,184.214z M118.753,187.595c1.498,0,2.71,1.214,2.71,2.71s-1.211,2.705-2.71,2.705
		c-1.496,0-2.708-1.209-2.708-2.705S117.257,187.595,118.753,187.595z M180.336,171.354c1.496,0,2.707,1.212,2.707,2.71
		c0,1.494-1.211,2.706-2.707,2.706c-1.494,0-2.705-1.212-2.705-2.706C177.631,172.566,178.843,171.354,180.336,171.354z
		 M149.207,125.336c1.494,0,2.705,1.211,2.705,2.71c0,1.491-1.211,2.705-2.705,2.705c-1.496,0-2.708-1.214-2.708-2.705
		C146.499,126.548,147.711,125.336,149.207,125.336z M79.503,207.224c1.494,0,2.705,1.211,2.705,2.705
		c0,1.498-1.211,2.71-2.705,2.71c-1.496,0-2.707-1.212-2.707-2.71C76.796,208.435,78.007,207.224,79.503,207.224z M126.197,148.345
		c1.496,0,2.707,1.211,2.707,2.71c0,1.494-1.211,2.705-2.707,2.705c-1.496,0-2.708-1.211-2.708-2.705
		C123.49,149.557,124.701,148.345,126.197,148.345z M34.838,229.557c1.494,0,2.708,1.212,2.708,2.705
		c0,1.496-1.214,2.708-2.708,2.708c-1.496,0-2.707-1.212-2.707-2.708C32.131,230.769,33.342,229.557,34.838,229.557z
		 M463.214,134.815c1.496,0,2.707,1.209,2.707,2.705s-1.211,2.707-2.707,2.707c-1.494,0-2.705-1.211-2.705-2.707
		S461.72,134.815,463.214,134.815z M371.855,141.581c1.496,0,2.708,1.211,2.708,2.705c0,1.498-1.211,2.708-2.708,2.708
		c-1.493,0-2.705-1.209-2.705-2.708C369.149,142.792,370.362,141.581,371.855,141.581z M248.688,92.177
		c1.496,0,2.708,1.212,2.708,2.708c0,1.494-1.212,2.705-2.708,2.705c-1.493,0-2.705-1.211-2.705-2.705
		C245.983,93.389,247.195,92.177,248.688,92.177z M354.936,96.238c1.496,0,2.707,1.211,2.707,2.707c0,1.494-1.211,2.706-2.707,2.706
		c-1.494,0-2.705-1.212-2.705-2.706C352.231,97.45,353.443,96.238,354.936,96.238z"/>
	<path style="fill:#FFFFFF;" d="M120.922,95.391c1.244,0,2.249,1.006,2.249,2.249s-1.006,2.251-2.249,2.251
		s-2.251-1.008-2.251-2.251S119.678,95.391,120.922,95.391z"/>
	<path style="fill:#FFFFFF;" d="M214.771,36.787c1.244,0,2.252,1.006,2.252,2.249s-1.008,2.251-2.252,2.251
		c-1.244,0-2.249-1.008-2.249-2.251S213.527,36.787,214.771,36.787z"/>
	<path style="fill:#FFFFFF;" d="M364.949,55.642c1.242,0,2.249,1.005,2.249,2.249c0,1.244-1.008,2.249-2.249,2.249
		c-1.244,0-2.251-1.005-2.251-2.249C362.697,56.647,363.705,55.642,364.949,55.642z"/>
	<path style="fill:#FFFFFF;" d="M273.138,150.233c1.244,0,2.249,1.008,2.249,2.249c0,1.244-1.006,2.251-2.249,2.251
		s-2.251-1.008-2.251-2.251C270.887,151.24,271.894,150.233,273.138,150.233z"/>
	<path style="fill:#FFFFFF;" d="M321.942,197.291c1.244,0,2.249,1.008,2.249,2.251c0,1.242-1.006,2.249-2.249,2.249
		c-1.244,0-2.249-1.008-2.249-2.249C319.693,198.299,320.699,197.291,321.942,197.291z"/>
	<path style="fill:#FFFFFF;" d="M252.509,192.765c1.244,0,2.249,1.006,2.249,2.249c0,1.244-1.006,2.249-2.249,2.249
		c-1.244,0-2.249-1.006-2.249-2.249C250.26,193.77,251.265,192.765,252.509,192.765z"/>
	<path style="fill:#FFFFFF;" d="M317.414,144.698c1.244,0,2.251,1.008,2.251,2.252c0,1.244-1.008,2.249-2.251,2.249
		s-2.249-1.006-2.249-2.249C315.164,145.707,316.17,144.698,317.414,144.698z"/>
</g>
<g>
</g>
<g>
</g>
<g>
</g>
<g>
</g>
<g>
</g>
<g>
</g>
<g>
</g>
<g>
</g>
<g>
</g>
<g>
</g>
<g>
</g>
<g>
</g>
<g>
</g>
<g>
</g>
<g>
</g>
</svg>
