<?xml version="1.0" encoding="iso-8859-1"?>
<!-- Generator: Adobe Illustrator 19.0.0, SVG Export Plug-In . SVG Version: 6.00 Build 0)  -->
<svg version="1.1" id="Layer_1" xmlns="http://www.w3.org/2000/svg" xmlns:xlink="http://www.w3.org/1999/xlink" x="0px" y="0px"
	 viewBox="0 0 512 512" style="enable-background:new 0 0 512 512;" xml:space="preserve">
<path style="fill:#666666;" d="M255.998,0C397.386,0,512,114.614,512,255.998C512,397.386,397.386,512,255.998,512
	C114.614,512,0,397.386,0,255.998C0,114.614,114.614,0,255.998,0z"/>
<path style="fill:#7EA551;" d="M255.998,254.554c95.826,0,184.022,11.918,254.189,31.917C495.121,413.493,387.075,512,255.998,512
	C124.925,512,16.879,413.493,1.814,286.472C71.975,266.472,160.177,254.554,255.998,254.554z"/>
<path style="fill:#8CAB67;" d="M0.617,273.631c35.252-55.092,69.061-103.281,104.788-141.425
	c11.745-12.535,32.827-13.371,46.353-4.518c90.353,59.098,128.072,120.42,152.973,182.277L10.118,327.452
	C5.116,310.194,1.877,292.186,0.617,273.631z"/>
<path style="fill:#4D7229;" d="M138.935,122.563c4.618,0.914,9.022,2.636,12.823,5.125
	c90.353,59.098,128.072,120.42,152.973,182.277l-150.063,8.908c0,0-10.333-19.748-35.138-49.843
	c-24.805-30.095,48.422-26.856,25.773-68.339C122.65,159.213,138.935,122.563,138.935,122.563z"/>
<path style="fill:#8CAB67;" d="M240.16,317.211c28.144-81.71,62.894-165.499,154.247-267.08c1.905-2.115,3.901-3.974,5.952-5.559
	C467.762,90.682,512,168.171,512,255.998c0,18.51-1.983,36.554-5.715,53.95C418.308,312.149,327.087,315.315,240.16,317.211z"/>
<path style="fill:#4D7229;" d="M506.226,310.221l-127.633,3.961c-30.89-44.087,0.42-74.438,7.907-75.602
	c8.588-1.343,62.592-70.765,25.518-90.714c-28.427-15.294-12.096-71.614-2.933-97.068C471.558,97.479,512,172.013,512,255.998
	C512,274.608,509.995,292.744,506.226,310.221z"/>
<path style="fill:#FFFFFF;" d="M267.806,6.985c20.333,0,36.81,16.482,36.81,36.81s-16.477,36.81-36.81,36.81
	c-20.328,0-36.805-16.482-36.805-36.81S247.478,6.985,267.806,6.985z"/>
<path style="fill:#E6E6E6;" d="M148.66,35.517c4.034,0,7.839,0.959,11.206,2.659c3.65-3.572,8.643-5.774,14.152-5.774
	c9.538,0,17.532,6.601,19.67,15.486c4.769,1.43,8.593,5.034,10.338,9.652c0.576-0.064,1.156-0.091,1.745-0.091
	c8.812,0,15.961,7.145,15.961,15.966c0,8.812-7.149,15.956-15.961,15.956c-2.75,0-5.331-0.69-7.588-1.914
	c-1.937,6.633-8.063,11.48-15.326,11.48c-4.431,0-8.442-1.809-11.334-4.733c-2.896,2.924-6.912,4.733-11.347,4.733
	c-4.212,0-8.049-1.64-10.904-4.303c-2.914,3.189-7.113,5.194-11.777,5.194c-4.372,0-8.328-1.754-11.201-4.596
	c-1.32,0.292-2.695,0.443-4.098,0.443c-10.502,0-19.017-8.51-19.017-19.013c0-10.507,8.515-19.017,19.017-19.017
	c0.571,0,1.142,0.027,1.699,0.082C125.249,45.238,135.819,35.517,148.66,35.517z"/>
<path style="fill:#785448;" d="M439.17,297.426c-0.169,0.626-3.6,25.929-3.6,25.929l7.295,0.617l-0.078-25.545L439.17,297.426z"/>
<path style="fill:#2E7C32;" d="M426.617,251.978c0,0,12.055-2.398,10.671,0.703s-16.893,11.187-16.893,11.187
	s12.311-1.763,10.466,2.458c-1.85,4.221-17.185,11.306-17.185,11.306s19.826-3.052,14.403,2.572s-25.065,15.093-25.065,15.093
	s24.978-5.285,24.174,0.982c-0.799,6.263-10.991,8.058-13.111,12.023c0,0,24.65-4.381,27.336-1.028
	c2.805,0.005,27.665,4.349,27.71,3.262c-1.818-4.079-12.361-7.076-12.686-13.375c-0.324-6.299,24.197,0.484,24.197,0.484
	s-18.885-10.635-23.868-16.573s14.563-1.699,14.563-1.699s-14.76-7.994-16.285-12.316c-1.526-4.321,10.625-1.818,10.625-1.818
	s-14.86-9.004-16.007-12.183c-1.147-3.179,10.703-0.055,10.703-0.055c-9.981-8.387-13.64-17.167-16.071-21.781
	C441.523,235.679,437.206,244.217,426.617,251.978z"/>
<path style="fill:#388D3C;" d="M426.617,251.978c0,0,12.055-2.398,10.671,0.703s-16.893,11.187-16.893,11.187
	s12.311-1.763,10.466,2.458c-1.85,4.221-17.185,11.306-17.185,11.306s19.826-3.052,14.403,2.572s-25.065,15.093-25.065,15.093
	s24.978-5.285,24.174,0.982c-0.799,6.263-10.991,8.058-13.111,12.019c-5.039,1.736,20.365-3.061,27.336-1.023l3.106-75.625
	l-0.224-0.429C441.523,235.679,437.206,244.217,426.617,251.978z"/>
<path style="fill:#785448;" d="M115.811,299.678c-0.169,0.626-3.6,25.929-3.6,25.929l7.295,0.612l-0.078-25.54L115.811,299.678z"/>
<path style="fill:#2E7C32;" d="M103.258,254.23c0,0,12.055-2.398,10.671,0.703c-1.384,3.102-16.897,11.187-16.897,11.187
	s12.316-1.763,10.466,2.453c-1.846,4.225-17.181,11.306-17.181,11.306s19.826-3.047,14.403,2.576
	c-5.422,5.623-25.065,15.093-25.065,15.093s24.979-5.285,24.175,0.982c-0.799,6.263-10.991,8.058-13.111,12.023
	c0,0,24.645-4.381,27.336-1.028c2.805,0.005,27.665,4.349,27.706,3.262c-1.814-4.079-12.357-7.076-12.681-13.375
	c-0.324-6.299,24.197,0.48,24.197,0.48s-18.885-10.63-23.868-16.569s14.563-1.699,14.563-1.699s-14.76-7.994-16.285-12.316
	c-1.526-4.321,10.625-1.818,10.625-1.818s-14.86-9.004-16.007-12.183s10.699-0.055,10.699-0.055
	c-9.977-8.387-13.636-17.167-16.066-21.781C118.164,237.931,113.847,246.469,103.258,254.23z"/>
<path style="fill:#388D3C;" d="M103.258,254.23c0,0,12.055-2.398,10.671,0.703c-1.384,3.102-16.897,11.187-16.897,11.187
	s12.316-1.763,10.466,2.458c-1.846,4.221-17.181,11.302-17.181,11.302s19.826-3.047,14.403,2.576
	c-5.422,5.623-25.065,15.089-25.065,15.089s24.979-5.281,24.175,0.987c-0.799,6.263-10.991,8.058-13.111,12.019
	c-5.039,1.736,20.365-3.061,27.336-1.023l3.106-75.625l-0.224-0.429C118.164,237.931,113.847,246.469,103.258,254.23z"/>
<path style="fill:#D3DF56;" d="M240.982,174.872l75.242,151.671c1.316,2.65,1.179,5.555-0.384,8.072
	c-1.558,2.512-4.098,3.929-7.058,3.929H178.513c-2.914,0-5.422-1.375-6.994-3.828c-1.571-2.458-1.772-5.308-0.548-7.958
	L240.982,174.872z"/>
<polygon style="fill:#817616;" points="240.982,174.872 211.011,338.544 271.109,338.544 "/>
<g>
	<path style="fill:#785448;" d="M82.185,316.946c0.397-7.035,10.415-6.231,10.868,0v19.182H82.185V316.946z"/>
	<path style="fill:#785448;" d="M402.155,314.588c-0.397-7.03-10.415-6.231-10.868,0v19.182h10.868V314.588z"/>
</g>
<path style="fill:#E5ED9B;" d="M240.982,174.872l114.13,108.064l-47.043,27.162L240.982,174.872z M240.982,174.872L130.694,285.156
	l47.043,27.162L240.982,174.872z"/>
<g>
	<path style="fill:#FFD500;" d="M402.077,317.206h-10.639l-37.034-33.859l-2.092,1.206l38.934,35.44l3.253,0.009h7.579V317.206z
		 M82.263,319.563h10.639l38.116-34.22l2.124,1.229l-40.09,35.919l-3.211-0.132h-7.579V319.563z"/>
	<path style="fill:#FFD500;" d="M373.947,188.865v42.927c14.714-8.867,30.045-9.712,46.033-2.17
		c-0.799-3.371-9.977-21.516-9.977-21.516l19.817-20.378C429.819,187.727,383.22,201.875,373.947,188.865z"/>
</g>
<path style="fill:#785448;" d="M373.202,210.033c0.201-47.152,5.208-41.794,5.436,0v128.588h-5.436V210.033z"/>
<path style="fill:#8B6E62;" d="M255.998,392.863c67.572,0,122.348,18.218,122.348,40.688s-54.776,40.684-122.348,40.684
	S133.65,456.022,133.65,433.552S188.426,392.863,255.998,392.863z"/>
<path style="fill:#5C4036;" d="M207.539,432.862c0,0-66.772,22.64-68.371,29.88c-2.088,9.483,4.979,15.893,11.164,13.978
	c6.181-1.909,58.403-32.941,62.19-37.153C216.305,435.356,207.539,432.862,207.539,432.862z M192.441,504.042
	c-2.64-0.672-5.253-1.398-7.857-2.152c-4.376-2.59-7.008-7.396-3.508-13.709c8.168-14.746,50.195-53.41,50.195-53.41
	s5.578,3.833,5.578,9.954c0,6.126-33.082,43.283-35.873,54.009C200.02,502.407,196.425,504.056,192.441,504.042z M215.323,423.666
	c0,0-41.456-14.942-48.632-7.277c-7.172,7.661-3.988,15.034,4.385,15.221c8.369,0.183,45.841,1.243,45.841,1.243L215.323,423.666z
	 M286.275,436.685c2.796,1.535,43.854,9.959,53.42,6.514c9.561-3.449,8.446-17.93-4.714-17.93c-13.152,0-63.858-0.078-65.448,2.604
	c-1.59,2.681,2.129,7.665,2.129,7.665l-2.522-1.151l-5.984,4.216c0,0,27.509,61.281,39.464,61.665
	c11.955,0.379,16.674-12.169,7.78-18.579c-8.899-6.409-31.082-38.281-38.194-46.106L286.275,436.685z M249.205,438.983
	c0,0-15.23,60.167-13.357,66.069c1.878,5.902,20.251,10.657,21.128-4.212c0.877-14.869-0.598-55.727-1.393-59.559
	C254.787,437.448,249.205,438.983,249.205,438.983z"/>
<path style="fill:#3E2622;" d="M146.527,457.055c-4.267,2.289-7.049,4.28-7.359,5.687c-2.088,9.483,4.979,15.893,11.164,13.978
	c0.987-0.306,3.157-1.361,6.117-2.924c0.466-1.325,0.722-2.75,0.722-4.235C157.171,463.244,152.557,458.009,146.527,457.055z
	 M192.441,504.042c-2.64-0.672-5.253-1.398-7.857-2.152c-4.376-2.59-7.008-7.396-3.508-13.709l0.772-1.306
	c2.216-1.941,5.112-3.111,8.287-3.111c6.418,0,11.717,4.81,12.512,11.037c-0.818,1.535-1.393,2.864-1.672,3.933
	C200.02,502.407,196.425,504.056,192.441,504.042z M334.675,443.976c-2.645-2.325-4.317-5.738-4.317-9.543
	c0-3.604,1.498-6.852,3.91-9.164h0.713c13.161,0,14.275,14.481,4.714,17.93C338.48,443.633,336.762,443.88,334.675,443.976z
	 M178.472,414.379c1.069,1.868,1.69,4.034,1.69,6.341c0,4.673-2.526,8.766-6.281,10.959l-2.805-0.069
	c-8.373-0.187-11.557-7.56-4.385-15.221C168.628,414.324,173.041,413.9,178.472,414.379z M245.824,494.116
	c4.833,0,9.031,2.727,11.151,6.729c-0.882,14.865-19.25,10.109-21.128,4.207c-0.292-0.927-0.164-3.193,0.26-6.354
	C238.42,495.893,241.914,494.116,245.824,494.116z M308.705,480.777l0.553,0.014c0.397,0.343,0.781,0.64,1.142,0.9
	c8.894,6.409,4.175,18.958-7.78,18.579c-1.763-0.055-3.865-1.444-6.167-3.755c-0.238-0.982-0.37-2.01-0.37-3.065
	C296.083,486.455,301.734,480.777,308.705,480.777z"/>
<path style="fill:#FFE900;" d="M197.75,417.458c2.412,4.157,4.522,8.081,9.017,10.849c-7.227-18.423-14.7-48.559,7.524-61.437
	c0.617,10.671-0.448,16.856,4.527,24.969l0.315-3.938c-6.478-10.082,5.098-46.906,19.908-55.512l-2.563,8.848
	c4.363-4.495,18.889-29.569,36.842-32.589c-8.51,9.314-13.266,27.528-11.297,37.906c2.554,11.895,5.052,12.772,3.28,27.29
	c2.782-4.778,6.546-9.26,11.521-9.543c-3.161,4.906-8.698,10.392-4.728,20.598c4.842,12.444,13.768,12.791,10.708,29.355
	c4.614-4.152,5.838-6.756,6.898-14.495l0.694,1.311c5.829,14.362-7.103,28.345-6.715,30.99c4.162-2.672,6.519-4.774,9.054-9.744
	c-1.119,13.024-16.541,26.605-23,30.529C237.501,472.44,194.406,456.543,197.75,417.458z"/>
<path style="fill:#FFBF06;" d="M230.745,459.06c-36.582-14.033,0.895-52.479,0.37-65.374c2.293,5.381,1.823,6.071,0.936,13.764
	c12.526-8.858-0.329-44.548,18.017-57.673c0.142-0.105,0.516-0.055,0.685-0.393c0.169-0.343,0.466-0.265,0.708-0.384
	c-1.836,6.345-5.418,11.274-5.674,18.332c-0.676,18.464,15.436,44.279,15.262,60.56C260.758,454.588,249.241,463.811,230.745,459.06
	z"/>
<g>
</g>
<g>
</g>
<g>
</g>
<g>
</g>
<g>
</g>
<g>
</g>
<g>
</g>
<g>
</g>
<g>
</g>
<g>
</g>
<g>
</g>
<g>
</g>
<g>
</g>
<g>
</g>
<g>
</g>
</svg>
