<?xml version="1.0" encoding="iso-8859-1"?>
<!-- Generator: Adobe Illustrator 19.0.0, SVG Export Plug-In . SVG Version: 6.00 Build 0)  -->
<svg version="1.1" id="Layer_1" xmlns="http://www.w3.org/2000/svg" xmlns:xlink="http://www.w3.org/1999/xlink" x="0px" y="0px"
	 viewBox="0 0 512 512" style="enable-background:new 0 0 512 512;" xml:space="preserve">
<path style="fill:#B3B3B3;" d="M255.998,0C397.386,0,512,114.614,512,255.998C512,397.386,397.386,512,255.998,512
	C114.614,512,0,397.386,0,255.998C0,114.614,114.614,0,255.998,0z"/>
<polygon style="fill:#4E342E;" points="128.232,117.775 41.766,243.604 228.699,245.601 152.114,110.8 "/>
<path style="fill:#3E2622;" d="M496.085,218.9c-5.628,1.142-11.201,5.537-16.82,5.77c-1.22,0.046-2.595-2.106-3.746-2.567
	c-1.768-0.713-3.472-0.955-5.336-1.005c-5.628-0.137-11.119,2.48-16.454-0.777c-4.335-2.645-7.432-5.235-12.16-6.971
	c-5.916-2.17-10.507-4.207-16.779-3.764c-3.673,0.256-6.985,0.845-10.475-0.914c-3.12-1.567-6.048-3.668-9.022-5.582
	c-5.098-3.28-6.295-12.416-8.89-18.268c-1.973-4.458-4.404-8.771-8.044-11.407c-2.019-1.462-4.299-2.503-6.021-4.495
	c-1.731-1.987-2.713-4.189-4.669-6.021c-4.436-4.139-8.145-9.305-12.494-13.586c-5.162-5.08-12.494-7.103-18.263-11.133
	c-4.833-3.376-10.456-9.155-12.023-15.792c-1.297-5.532-3.015-10.013-6.514-14.079c-1.654-1.919-3.659-3.358-5.34-5.281
	c-1.124-1.275-2.978-1.631-3.732-3.362c-0.009-0.74-0.142-1.485-0.42-2.129c-0.059-0.174-0.091-0.26-0.1-0.274
	c-0.087-0.379-0.187-0.749-0.297-1.124c-0.032-0.078-0.064-0.155-0.096-0.233l0,0c-0.206-0.932-0.489-1.535-1.128-2.133
	c-0.32-0.301-0.735-0.42-1.151-0.407c-0.274-0.1-0.585-0.1-0.914,0.078c-4.577,2.421-9.333,1.037-14.147,1.293
	c-5.226,0.274-9.867,2.563-15.248,2.261c-0.594-0.027-1.229,0.393-1.402,1.119c-1.695,7.277-7.309,10.854-9.543,17.491
	c-1.06,3.166-1.782,7.414-4.052,9.666c-2.595,2.563-5.363,4.751-8.054,7.163c-2.147,1.923-3.586,4.883-4.966,7.569
	c-2.174,4.239-5.527,6.711-8.643,9.858c-3.193,3.239-6.523,6.222-10.086,8.835c-1.955,1.43-5.655,6.619-7.574,7.222
	c-1.366,0.429-1.457,2.407-0.644,3.243c-4.267,2.554-8.437,5.463-12.16,8.574c-2.809,2.353-5.157,5.034-7.35,8.191
	c-2.91,4.207-1.485,9.995-5.783,13.403c-6.204,4.929-14.116,6.45-20.84,10.114c-2.179,1.183-9.264,7.103-15.162,9.917
	c-2.033-0.767-11.484,2.718-12.786,3.093c-5.075,1.475-10.05,3.289-15.152,4.623c-6.971,1.823-12.069-1.348-16.523-7.533
	c-5.107-7.085-9.429-13.526-17.281-15.778c-3.773-1.087-7.729-1.229-11.53-0.416c-6.044,1.297-11.306,2.49-17.523,1.8
	c-4.134-0.457-7.14-2.914-11.439-2.704c-3.664,0.169-7.295,1.74-10.37,4.079c-3.102,2.362-5.066,6.098-7.236,9.538
	c-3.458,5.468-8.341,9.086-13.535,11.589c-2.549,1.229-5.199,2.138-7.843,2.997c-2.618,0.845-5.093,2.174-7.711,2.896
	c-2.206,0.608-4.833-0.352-6.925,0.434c-2.12,0.799-4.052,1.873-6.039,3.088c-0.635,0.384-1.348,0.731-2.115,1.028l-0.009,0.014
	c-0.749,1.731-1.48,3.467-2.206,5.221l-0.119,0.292l-0.123,0.288l-0.119,0.292l-0.242,0.589l-0.123,0.292l-0.114,0.292l-0.123,0.297
	c-0.676,1.658-1.338,3.33-1.992,5.011l-0.114,0.292l-0.114,0.301l-0.073,0.183C0.032,252.978,0,254.486,0,255.998
	c0,13.298,1.019,26.363,2.969,39.112c8.844,0.799,22.137,1.512,41.995,1.955c72.446,1.631,107.853,62.428,168.792,46.481
	s100.467-32.891,158.112-16.943s73.168,19.177,123.052,15.568l2.261-0.174c9.584-26.879,14.819-55.827,14.819-86l-0.009-0.672
	l-0.26-0.703c-0.708-1.873-1.425-3.728-2.156-5.578l-0.676-1.708c-0.786-1.969-1.59-3.919-2.412-5.87l-0.58-1.37
	c-0.872-2.051-1.759-4.093-2.668-6.112l-0.439-0.987c-0.959-2.129-1.932-4.239-2.924-6.331l-0.356-0.754
	c-1.023-2.142-2.065-4.276-3.12-6.391l-0.315-0.617V218.9z"/>
<g>
	<path style="fill:#FFFFFF;" d="M285.8,97l-34.238,50.533l22.009-14.796l-9.47,25.915l22.032-27.409l7.821,22.672l1.238-18.693
		l25.116,27.162l-5.971-29.647l18.528,21.178l-1.439-15.198c0,0,17.701,15.198,23.055,16.692c5.354,1.498,14.412,5.98,14.412,5.98
		L346.25,127.25l-32.251-38.678L285.8,97z"/>
	<polygon style="fill:#FFFFFF;" points="129.406,117.433 89.768,173.749 112.641,152.731 107.31,182.766 127.647,145.847 
		134.604,174.192 141.365,144.846 153.082,162.379 148.24,138.337 163.26,155.504 164.567,140.447 185.671,169.866 152.114,110.8 	
		"/>
</g>
<path style="fill:#689D38;" d="M255.998,254.554c95.826,0,184.022,11.918,254.189,31.917C495.121,413.493,387.075,512,255.998,512
	C124.925,512,16.879,413.493,1.814,286.472C71.975,266.472,160.177,254.554,255.998,254.554z"/>
<path style="fill:#785448;" d="M40.145,271.73c-0.169,0.621-3.6,25.924-3.6,25.924l7.295,0.617l-0.078-25.545L40.145,271.73z"/>
<path style="fill:#2E7C32;" d="M27.591,226.282c0,0,12.055-2.403,10.671,0.703c-1.384,3.102-16.897,11.183-16.897,11.183
	s12.316-1.763,10.466,2.458c-1.846,4.221-17.181,11.306-17.181,11.306s19.826-3.047,14.403,2.576
	c-5.422,5.619-25.065,15.089-25.065,15.089s24.979-5.285,24.175,0.982c-0.799,6.267-10.991,8.063-13.111,12.023
	c0,0,24.645-4.381,27.336-1.023c2.805,0.005,27.665,4.344,27.706,3.262c-1.814-4.079-12.357-7.076-12.681-13.375
	c-0.324-6.299,24.197,0.48,24.197,0.48s-18.885-10.635-23.868-16.569c-4.984-5.939,14.563-1.699,14.563-1.699
	s-14.76-7.994-16.285-12.32c-1.526-4.321,10.625-1.814,10.625-1.814s-14.86-9.004-16.007-12.183s10.699-0.059,10.699-0.059
	c-9.977-8.383-13.636-17.162-16.066-21.781C42.497,209.983,38.18,218.516,27.591,226.282z"/>
<path style="fill:#388D3C;" d="M27.591,226.282c0,0,12.055-2.403,10.671,0.703c-1.384,3.102-16.897,11.187-16.897,11.187
	s12.316-1.768,10.466,2.453c-1.846,4.221-17.181,11.306-17.181,11.306s19.826-3.047,14.403,2.576
	c-5.422,5.619-25.065,15.089-25.065,15.089s24.979-5.285,24.175,0.982c-0.799,6.267-10.991,8.063-13.111,12.023
	c-5.039,1.731,20.365-3.065,27.336-1.023l3.106-75.625l-0.224-0.434C42.497,209.983,38.18,218.516,27.591,226.282z"/>
<path style="fill:#54892E;" d="M264.202,330.728c103.77,0,187.887,17.578,187.887,39.258c0,21.685-84.117,39.263-187.887,39.263
	S76.311,391.671,76.311,369.986C76.311,348.306,160.433,330.728,264.202,330.728z"/>
<path style="fill:#785448;" d="M380.721,239.795c-0.164,0.621-3.6,25.924-3.6,25.924l7.295,0.617l-0.078-25.545L380.721,239.795z"/>
<path style="fill:#2E7C32;" d="M368.168,194.346c0,0,12.055-2.403,10.671,0.703c-1.38,3.102-16.893,11.183-16.893,11.183
	s12.316-1.763,10.466,2.458c-1.85,4.221-17.181,11.306-17.181,11.306s19.826-3.052,14.403,2.576
	c-5.422,5.619-25.07,15.089-25.07,15.089s24.978-5.285,24.179,0.982s-10.991,8.063-13.115,12.023c0,0,24.65-4.381,27.34-1.028
	c2.805,0.005,27.66,4.349,27.706,3.266c-1.818-4.084-12.357-7.076-12.686-13.375c-0.324-6.299,24.197,0.48,24.197,0.48
	s-18.885-10.635-23.864-16.569c-4.984-5.939,14.563-1.699,14.563-1.699s-14.76-7.999-16.285-12.32
	c-1.526-4.321,10.625-1.814,10.625-1.814s-14.865-9.008-16.011-12.183c-1.142-3.179,10.703-0.059,10.703-0.059
	c-9.977-8.383-13.64-17.162-16.071-21.781C383.078,178.047,378.757,186.58,368.168,194.346z"/>
<path style="fill:#388D3C;" d="M368.168,194.346c0,0,12.055-2.403,10.671,0.703c-1.38,3.102-16.893,11.187-16.893,11.187
	s12.316-1.768,10.466,2.453c-1.85,4.221-17.181,11.306-17.181,11.306s19.826-3.052,14.403,2.576
	c-5.422,5.619-25.07,15.089-25.07,15.089s24.978-5.285,24.179,0.982s-10.991,8.063-13.115,12.023
	c-5.034,1.731,20.365-3.065,27.34-1.028l3.106-75.621l-0.228-0.434C383.078,178.047,378.757,186.58,368.168,194.346z"/>
<path style="fill:#785448;" d="M121,245.578c-0.169,0.626-3.6,25.929-3.6,25.929l7.295,0.617l-0.078-25.545L121,245.578z"/>
<path style="fill:#2E7C32;" d="M108.447,200.13c0,0,12.055-2.398,10.671,0.703c-1.384,3.102-16.893,11.187-16.893,11.187
	s12.311-1.763,10.466,2.453c-1.85,4.226-17.185,11.311-17.185,11.311s19.826-3.052,14.403,2.572
	c-5.418,5.623-25.065,15.093-25.065,15.093s24.979-5.285,24.175,0.982c-0.799,6.263-10.991,8.058-13.111,12.023
	c0,0,24.65-4.381,27.336-1.028c2.809,0.005,27.665,4.349,27.71,3.262c-1.818-4.079-12.361-7.076-12.686-13.375
	c-0.324-6.299,24.197,0.484,24.197,0.484s-18.885-10.635-23.868-16.573c-4.984-5.939,14.568-1.699,14.568-1.699
	s-14.764-7.994-16.29-12.316c-1.526-4.321,10.625-1.818,10.625-1.818s-14.86-9.004-16.007-12.183
	c-1.147-3.179,10.703-0.055,10.703-0.055c-9.981-8.387-13.64-17.167-16.071-21.781C123.353,183.83,119.036,192.368,108.447,200.13z"
	/>
<path style="fill:#388D3C;" d="M108.447,200.13c0,0,12.055-2.398,10.671,0.703c-1.384,3.102-16.893,11.187-16.893,11.187
	s12.311-1.763,10.466,2.458c-1.85,4.221-17.185,11.306-17.185,11.306s19.826-3.052,14.403,2.572
	c-5.418,5.623-25.065,15.089-25.065,15.089s24.979-5.281,24.175,0.987c-0.799,6.263-10.991,8.058-13.111,12.019
	c-5.039,1.736,20.365-3.061,27.336-1.023l3.106-75.625l-0.224-0.429C123.353,183.83,119.036,192.368,108.447,200.13z"/>
<path style="fill:#785448;" d="M430.697,248.351c-0.164,0.626-3.595,25.924-3.595,25.924l7.295,0.617l-0.078-25.54L430.697,248.351z
	"/>
<path style="fill:#2E7C32;" d="M418.148,202.907c0,0,12.055-2.403,10.671,0.699c-1.384,3.102-16.893,11.187-16.893,11.187
	s12.311-1.763,10.461,2.458c-1.846,4.216-17.176,11.302-17.176,11.302s19.821-3.047,14.399,2.576
	c-5.422,5.619-25.065,15.089-25.065,15.089s24.974-5.281,24.174,0.982c-0.799,6.267-10.986,8.063-13.111,12.028
	c0,0,24.65-4.381,27.336-1.028c2.805,0.005,27.665,4.349,27.706,3.262c-1.814-4.079-12.357-7.076-12.681-13.375
	c-0.324-6.299,24.193,0.48,24.193,0.48s-18.88-10.63-23.864-16.569c-4.984-5.939,14.563-1.699,14.563-1.699
	s-14.76-7.994-16.285-12.316c-1.526-4.326,10.63-1.818,10.63-1.818s-14.865-9.004-16.011-12.183
	c-1.147-3.179,10.699-0.055,10.699-0.055c-9.972-8.387-13.636-17.167-16.066-21.781
	C433.054,186.603,428.737,195.141,418.148,202.907z"/>
<path style="fill:#388D3C;" d="M418.148,202.902c0,0,12.055-2.398,10.671,0.703c-1.384,3.102-16.893,11.187-16.893,11.187
	s12.311-1.763,10.461,2.458c-1.846,4.216-17.176,11.302-17.176,11.302s19.821-3.047,14.399,2.576
	c-5.422,5.623-25.065,15.089-25.065,15.089s24.974-5.281,24.174,0.982c-0.799,6.267-10.991,8.063-13.111,12.028
	c-5.039,1.731,20.365-3.065,27.336-1.028l3.106-75.625l-0.224-0.429C433.054,186.603,428.737,195.141,418.148,202.902z"/>
<path style="fill:#785448;" d="M474.217,267.601c-0.164,0.626-3.595,25.924-3.595,25.924l7.295,0.617l-0.078-25.54L474.217,267.601z
	"/>
<path style="fill:#2E7C32;" d="M461.664,222.152c0,0,12.06-2.398,10.676,0.703c-1.384,3.102-16.893,11.187-16.893,11.187
	s12.311-1.768,10.461,2.453c-1.85,4.221-17.181,11.306-17.181,11.306s19.826-3.047,14.403,2.572
	c-5.422,5.623-25.065,15.093-25.065,15.093s24.974-5.281,24.175,0.982c-0.799,6.267-10.991,8.063-13.111,12.023
	c0,0,24.645-4.376,27.336-1.023c2.805,0.005,27.665,4.344,27.706,3.262c-1.814-4.084-12.357-7.076-12.681-13.375
	c-0.242-4.701,13.353-2.115,20.269-0.503l0.046-1.275c-5.802-3.449-16.427-10.077-19.986-14.316
	c-4.984-5.934,14.563-1.695,14.563-1.695s-14.76-7.994-16.285-12.316c-1.526-4.326,10.625-1.818,10.625-1.818
	s-14.86-9.004-16.007-12.183s10.699-0.055,10.699-0.055c-9.977-8.387-13.636-17.167-16.066-21.781
	C476.574,205.853,472.257,214.387,461.664,222.152z"/>
<path style="fill:#388D3C;" d="M461.664,222.152c0,0,12.06-2.398,10.676,0.703c-1.384,3.102-16.893,11.187-16.893,11.187
	s12.311-1.768,10.461,2.453c-1.85,4.221-17.181,11.306-17.181,11.306s19.826-3.047,14.403,2.576
	c-5.422,5.619-25.065,15.089-25.065,15.089s24.974-5.281,24.175,0.987c-0.799,6.263-10.991,8.058-13.111,12.019
	c-5.039,1.736,20.36-3.061,27.336-1.023l3.106-75.625l-0.224-0.429C476.574,205.853,472.257,214.387,461.664,222.152z"/>
<path style="fill:#FFFFFF;" d="M220.015,49.674c20.328,0,36.805,16.482,36.805,36.81s-16.477,36.81-36.805,36.81
	s-36.81-16.482-36.81-36.81S199.686,49.674,220.015,49.674z"/>
<path style="fill:#F1EAE3;" d="M250.621,140.812c0.132,0,0.242,0.11,0.242,0.247c0,0.137-0.11,0.247-0.242,0.247
	c-0.137,0-0.251-0.11-0.251-0.247C250.37,140.922,250.484,140.812,250.621,140.812z"/>
<path style="fill:#FFFFFF;" d="M301.441,387.605c2.362,1.37,3.17,4.399,1.804,6.765c-1.37,2.362-4.404,3.17-6.765,1.8
	l-40.117-23.165l-40.113,23.165c-2.366,1.37-5.395,0.562-6.765-1.8c-1.37-2.366-0.562-5.395,1.8-6.765l35.184-20.31l-35.184-20.31
	c-2.362-1.37-3.17-4.404-1.8-6.765s4.399-3.17,6.765-1.8l40.113,23.16l40.117-23.16c2.362-1.37,5.395-0.562,6.765,1.8
	c1.366,2.362,0.557,5.395-1.804,6.765l-35.184,20.31L301.441,387.605z"/>
<path style="fill:#F3501E;" d="M256.363,361.581c-12.64-22.781-51.766-81.372-50.428-104.605
	c1.544-26.719,24.449-47.129,51.168-45.585c26.714,1.539,47.125,24.444,45.585,51.163
	C301.318,286.307,267.455,340.17,256.363,361.581z"/>
<path style="fill:#FFFFFF;" d="M253.91,221.211c20.831-0.238,37.902,16.454,38.135,37.28s-16.454,37.897-37.28,38.13
	c-20.826,0.238-37.897-16.45-38.139-37.28C216.392,238.515,233.089,221.444,253.91,221.211z"/>
<g>
</g>
<g>
</g>
<g>
</g>
<g>
</g>
<g>
</g>
<g>
</g>
<g>
</g>
<g>
</g>
<g>
</g>
<g>
</g>
<g>
</g>
<g>
</g>
<g>
</g>
<g>
</g>
<g>
</g>
</svg>
