<?xml version="1.0" encoding="iso-8859-1"?>
<!-- Generator: Adobe Illustrator 19.0.0, SVG Export Plug-In . SVG Version: 6.00 Build 0)  -->
<svg version="1.1" id="Layer_1" xmlns="http://www.w3.org/2000/svg" xmlns:xlink="http://www.w3.org/1999/xlink" x="0px" y="0px"
	 viewBox="0 0 512 512" style="enable-background:new 0 0 512 512;" xml:space="preserve">
<path style="fill:#666666;" d="M255.997,0C397.385,0,512,114.615,512,255.997C512,397.385,397.385,512,255.997,512
	C114.615,512,0,397.385,0,255.997C0,114.615,114.615,0,255.997,0z"/>
<path style="fill:#7EA551;" d="M255.997,254.553c95.826,0,184.021,11.922,254.189,31.92C495.124,413.492,387.071,512,255.997,512
	S16.876,413.492,1.814,286.473C71.976,266.475,160.177,254.553,255.997,254.553z"/>
<path style="fill:#8CAB67;" d="M0.616,273.63c35.254-55.089,69.059-103.28,104.789-141.423c11.746-12.538,32.824-13.372,46.354-4.52
	c90.349,59.098,128.069,120.421,152.969,182.277L10.12,327.451C5.113,310.194,1.878,292.185,0.616,273.63z"/>
<path style="fill:#4D7229;" d="M138.934,122.563c4.62,0.91,9.022,2.636,12.826,5.124c90.349,59.098,128.069,120.421,152.969,182.277
	l-150.063,8.905c0,0-10.331-19.746-35.137-49.841s48.426-26.855,25.775-68.337C122.651,159.209,138.934,122.563,138.934,122.563z"/>
<path style="fill:#8CAB67;" d="M240.16,317.208c28.146-81.709,62.896-165.495,154.249-267.079c1.902-2.113,3.898-3.968,5.952-5.553
	C467.759,90.684,512,168.172,512,255.997c0,18.508-1.984,36.552-5.717,53.95C418.305,312.148,327.081,315.312,240.16,317.208z"/>
<path style="fill:#4D7229;" d="M506.224,310.223l-127.629,3.962c-30.893-44.095,0.417-74.442,7.901-75.604
	c8.588-1.344,62.596-70.767,25.516-90.719c-28.422-15.291-12.092-71.613-2.929-97.064C471.557,97.481,512,172.011,512,255.997
	C512,274.605,509.992,292.742,506.224,310.223z"/>
<path style="fill:#FFFFFF;" d="M274.053,30.482c20.327,0,36.81,16.483,36.81,36.81s-16.483,36.81-36.81,36.81
	s-36.804-16.483-36.804-36.81S253.725,30.482,274.053,30.482z"/>
<path style="fill:#E6E6E6;" d="M159.831,54.009c4.033,0,7.842,0.957,11.206,2.659c3.651-3.575,8.64-5.776,14.152-5.776
	c9.539,0,17.533,6.604,19.67,15.485c4.772,1.432,8.594,5.03,10.343,9.656c0.569-0.065,1.15-0.094,1.743-0.094
	c8.805,0,15.96,7.144,15.96,15.966c0,8.811-7.155,15.954-15.96,15.954c-2.753,0-5.336-0.693-7.59-1.914
	c-1.937,6.639-8.065,11.481-15.326,11.481c-4.432,0-8.441-1.808-11.335-4.731c-2.894,2.923-6.909,4.731-11.346,4.731
	c-4.209,0-8.048-1.638-10.906-4.303c-2.911,3.187-7.108,5.189-11.775,5.189c-4.367,0-8.323-1.749-11.2-4.59
	c-1.321,0.293-2.694,0.446-4.097,0.446c-10.507,0-19.018-8.517-19.018-19.018s8.511-19.018,19.018-19.018
	c0.569,0,1.139,0.029,1.696,0.082C136.416,63.729,146.988,54.009,159.831,54.009z"/>
<polygon style="fill:#3E2622;" points="140.701,234.977 140.701,426.576 128.045,426.576 128.045,328.208 115.243,301.665 
	119.922,296.159 128.045,306.543 128.045,227.822 123.191,206.479 120.661,195.367 126.566,196.488 136.422,224.171 
	161.175,203.203 165.765,208.979 157.002,216.769 143.025,232.911 "/>
<path style="fill:#689D38;" d="M264.473,389.484c55.734,0,100.915,15.021,100.915,33.558c0,18.531-45.18,33.558-100.915,33.558
	s-100.915-15.027-100.915-33.558C163.558,404.505,208.739,389.484,264.473,389.484z"/>
<path style="fill:#4E342E;" d="M161.885,212.425l260.435-0.716c4.731,2.043,3.205,9.721,0,9.991l-270.232,0.74l4.913-5.67
	L161.885,212.425z M81.263,212.654l51.009-0.141l17.974-0.053l-11.822,10.02l-2.6,0.012l-54.561,0.147
	C75.299,222.286,75.481,214.303,81.263,212.654z"/>
<path style="fill:#3E2622;" d="M375.338,229.9l-0.481,196.676h12.65v-98.362l12.802-26.549l-4.672-5.512l-8.13,10.39v-78.715
	l12.227-28.592l-9.286-0.335l-11.311,25.276l-1.385-2.36l-11.135,0.035L375.338,229.9z M358.867,211.885l-6.51-6.915h7.508
	l8.928,6.885L358.867,211.885z"/>
<path style="fill:#5C4036;" d="M224.499,422.473c0,0-55.071,18.672-56.386,24.642c-1.726,7.825,4.109,13.113,9.204,11.534
	c5.101-1.579,48.174-27.172,51.297-30.647C231.737,424.527,224.499,422.473,224.499,422.473z M230.921,414.883
	c0,0-34.192-12.321-40.109-5.999c-5.917,6.316-3.287,12.403,3.616,12.556c6.903,0.153,37.808,1.027,37.808,1.027L230.921,414.883z
	 M289.449,425.625c2.301,1.268,36.17,8.218,44.059,5.371c7.889-2.841,6.968-14.786-3.886-14.786s-52.67-0.065-53.985,2.148
	c-1.309,2.213,1.755,6.322,1.755,6.322l-2.078-0.951l-4.937,3.481c0,0,22.687,50.546,32.548,50.862
	c9.861,0.311,13.753-10.038,6.416-15.326c-7.337-5.283-25.634-31.574-31.498-38.031L289.449,425.625z M258.867,427.521
	c0,0-12.562,49.63-11.012,54.496c1.544,4.866,16.7,8.793,17.428-3.475c0.722-12.262-0.499-45.967-1.15-49.125
	C263.475,426.259,258.867,427.521,258.867,427.521z M244.075,424.046c0,0-34.662,31.897-41.4,44.053
	c-6.739,12.162,14.111,17.551,16.418,8.705c2.301-8.846,29.584-39.493,29.584-44.546
	C248.677,427.21,244.075,424.046,244.075,424.046z"/>
<g>
	<path style="fill:#3E2622;" d="M174.177,442.424c-3.516,1.896-5.811,3.534-6.064,4.69c-1.726,7.825,4.109,13.113,9.204,11.534
		c0.816-0.252,2.606-1.121,5.048-2.413c0.382-1.092,0.593-2.266,0.593-3.493C182.958,447.531,179.155,443.211,174.177,442.424z
		 M329.371,431.641c-2.184-1.919-3.563-4.737-3.563-7.872c0-2.976,1.233-5.659,3.223-7.56h0.593
		c10.853,0,11.775,11.945,3.886,14.786C332.505,431.36,331.09,431.559,329.371,431.641z M200.527,407.229
		c0.88,1.544,1.397,3.322,1.397,5.224c0,3.857-2.084,7.238-5.183,9.045l-2.313-0.059c-6.903-0.153-9.533-6.24-3.616-12.556
		C192.409,407.182,196.048,406.829,200.527,407.229z M210.147,464.454c5.295,0,9.668,3.974,10.319,9.11
		c-0.675,1.262-1.145,2.36-1.374,3.24c-2.307,8.846-23.157,3.457-16.418-8.705l0.64-1.074
		C205.14,465.423,207.529,464.454,210.147,464.454z M256.079,472.995c3.986,0,7.449,2.248,9.204,5.553
		c-0.734,12.262-15.884,8.335-17.428,3.469c-0.241-0.763-0.141-2.636,0.211-5.242C249.975,474.462,252.857,472.995,256.079,472.995z
		 M307.945,461.995l0.458,0.012c0.329,0.282,0.646,0.528,0.939,0.74c7.337,5.289,3.446,15.637-6.416,15.326
		c-1.45-0.047-3.187-1.192-5.083-3.099c-0.2-0.81-0.305-1.655-0.305-2.524C297.538,466.679,302.199,461.995,307.945,461.995z"/>
	<path style="fill:#3E2622;" d="M209.191,255.751h96.378v39.616c0,15.414-12.609,28.023-28.023,28.023h-40.326
		c-15.414,0-28.029-12.608-28.029-28.023V255.751z"/>
</g>
<path style="fill:#5C4036;" d="M204.002,250.491h106.75c2.812,0,5.107,2.295,5.107,5.107l0,0c0,2.806-2.295,5.107-5.107,5.107
	h-106.75c-2.806,0-5.101-2.301-5.101-5.107l0,0C198.901,252.786,201.196,250.491,204.002,250.491z"/>
<path style="fill:#FFD500;" d="M304.752,344.791c0,0,22.681,75.498-42.14,80.183c-64.827,4.678-57.043-69.928-57.043-69.928
	l19.523,25.059c-2.413-28.398,3.592-41.482,18.743-63.706l9.897,24.096c0,0,11.452-20.997,10.413-31.022
	c-1.045-10.02-0.076-19.905-0.076-19.905c17.345,29.848,29.625,43.736,20.903,70.732
	C284.971,360.299,296.423,365.787,304.752,344.791z"/>
<path style="fill:#FF9700;" d="M280.621,386.931c0,0,11.235,37.397-20.873,39.716s-28.252-34.632-28.252-34.632l9.674,12.409
	c-1.197-14.064,1.773-20.545,9.28-31.556l4.901,11.939c0,0,5.67-10.401,5.154-15.361c-0.511-4.966-0.035-9.861-0.035-9.861
	c8.594,14.786,14.675,21.66,10.354,35.031C270.824,394.614,276.495,397.332,280.621,386.931z"/>
<g>
	<path style="fill:#D5CBC7;" d="M216.587,255.428c1.826-14.352,6.034-25.305,11.581-33.194l6.516-0.018
		c-6.21,7.273-11.024,18.384-12.99,33.852C220.69,258.21,216.229,257.635,216.587,255.428z M238.012,212.22
		c1.691-1.186,3.428-2.189,5.201-3.017v0.006c5.365-2.495,11.035-3.358,16.565-2.741c5.518,0.616,10.889,2.706,15.684,6.122
		c11.775,8.382,20.116,24.812,18.426,47l-5.148-0.382c1.544-20.204-5.835-35.002-16.265-42.433c-4.074-2.9-8.617-4.672-13.254-5.195
		c-3.023-0.335-6.087-0.147-9.098,0.605L238.012,212.22z"/>
	<path style="fill:#D5CBC7;" d="M254.94,239.638h4.872c1.403,0,2.548,1.145,2.548,2.542v8.312h-9.961v-8.312
		C252.399,240.782,253.543,239.638,254.94,239.638z"/>
</g>
<g>
</g>
<g>
</g>
<g>
</g>
<g>
</g>
<g>
</g>
<g>
</g>
<g>
</g>
<g>
</g>
<g>
</g>
<g>
</g>
<g>
</g>
<g>
</g>
<g>
</g>
<g>
</g>
<g>
</g>
</svg>
