<?xml version="1.0" encoding="iso-8859-1"?>
<!-- Generator: Adobe Illustrator 19.0.0, SVG Export Plug-In . SVG Version: 6.00 Build 0)  -->
<svg version="1.1" id="Layer_1" xmlns="http://www.w3.org/2000/svg" xmlns:xlink="http://www.w3.org/1999/xlink" x="0px" y="0px"
	 viewBox="0 0 512 512" style="enable-background:new 0 0 512 512;" xml:space="preserve">
<circle style="fill:#424242;" cx="255.998" cy="255.998" r="255.998"/>
<path style="fill:#BBBBBB;" d="M8.812,189.248c36.17-27.477,70.066-51.396,106.204-69.755c10.342-5.253,28.903-5.605,40.812-1.896
	c79.558,24.768,112.764,50.469,134.691,76.397l-284.8,8.044C6.642,197.736,7.674,193.469,8.812,189.248z"/>
<path style="fill:#747474;" d="M144.54,115.45c4.07,0.384,7.944,1.105,11.288,2.147c79.558,24.768,112.764,50.469,134.691,76.397
	l-132.128,3.732c0,0-9.095-8.277-30.935-20.89c-21.845-12.613,42.634-11.256,22.69-28.642
	C130.201,130.813,144.54,115.45,144.54,115.45z"/>
<path style="fill:#BBBBBB;" d="M233.669,197.028c24.782-34.243,55.379-69.358,135.815-111.933
	c10.589-5.605,24.421-6.816,32.986-2.887c69.139,31.707,87.557,72.053,97.676,111.417
	C412.958,194.529,320.856,196.123,233.669,197.028z"/>
<path style="fill:#D3DF56;" d="M266.148,148.089l70.144,141.388c1.224,2.476,1.096,5.18-0.356,7.524
	c-1.453,2.348-3.824,3.664-6.583,3.664H207.918c-2.718,0-5.057-1.279-6.523-3.568c-1.466-2.289-1.649-4.947-0.512-7.419
	L266.148,148.089z"/>
<polygon style="fill:#817616;" points="266.148,148.089 238.209,300.665 294.233,300.665 "/>
<path style="fill:#747474;" d="M386.737,80.075c5.852-0.512,11.457,0.169,15.733,2.133c27.998,12.841,52.753,26.97,72.99,41.926
	c12.941,21.493,22.809,45.051,29.012,70.057l-148.916,1.571c-27.199-18.478,0.37-31.2,6.962-31.689
	c7.56-0.562,55.11-29.656,22.466-38.016C352.339,117.693,386.737,80.075,386.737,80.075z"/>
<path style="fill:#E5ED9B;" d="M266.148,148.089L372.54,248.83l-43.854,25.321L266.148,148.089z M266.148,148.089L163.338,250.9
	l43.854,25.321L266.148,148.089z"/>
<path style="fill:#C9CDD2;" d="M207.813,76.872c2.343,0,4.559,0.557,6.514,1.549c2.124-2.078,5.034-3.358,8.236-3.358
	c5.55,0,10.201,3.837,11.448,9.008c2.773,0.831,4.998,2.928,6.012,5.614c0.333-0.037,0.672-0.055,1.014-0.055
	c5.13,0,9.287,4.157,9.287,9.287c0,5.13-4.157,9.287-9.287,9.287c-1.594,0-3.097-0.402-4.413-1.11
	c-1.124,3.86-4.691,6.674-8.912,6.674c-2.581,0-4.915-1.051-6.601-2.75c-1.681,1.699-4.015,2.75-6.601,2.75
	c-2.453,0-4.682-0.95-6.345-2.503c-1.695,1.859-4.139,3.024-6.852,3.024c-2.54,0-4.842-1.019-6.514-2.672
	c-0.767,0.169-1.567,0.256-2.385,0.256c-6.112,0-11.064-4.952-11.064-11.059c0-6.112,4.952-11.064,11.064-11.064
	c0.333,0,0.667,0.014,0.991,0.041C194.186,82.528,200.34,76.872,207.813,76.872z"/>
<g>
	<path style="fill:#BBC2CA;" d="M250.31,99.425c-0.26,4.892-4.312,8.78-9.273,8.78c-1.594,0-3.097-0.402-4.413-1.11
		c-1.124,3.86-4.691,6.674-8.912,6.674c-2.581,0-4.915-1.051-6.601-2.75c-1.681,1.699-4.015,2.75-6.601,2.75
		c-2.453,0-4.682-0.95-6.345-2.503c-1.695,1.859-4.139,3.024-6.852,3.024c-2.54,0-4.842-1.019-6.514-2.672
		c-0.767,0.169-1.567,0.256-2.385,0.256c-6.112,0-11.064-4.952-11.064-11.059c0-0.662,0.059-1.311,0.169-1.941
		c-0.014,0.242-0.023,0.484-0.023,0.726c0,6.112,4.952,11.064,11.064,11.064c0.818,0,1.613-0.087,2.38-0.256
		c1.676,1.649,3.979,2.672,6.519,2.672c2.713,0,5.157-1.165,6.857-3.024c1.658,1.553,3.887,2.508,6.341,2.508
		c2.581,0,4.915-1.055,6.601-2.755c1.681,1.699,4.015,2.755,6.596,2.755c4.226,0,7.789-2.823,8.917-6.683
		c1.311,0.713,2.814,1.119,4.413,1.119C245.729,106.999,249.506,103.733,250.31,99.425z"/>
	<path style="fill:#BBC2CA;" d="M245.875,93.806c5.422,6.345-2.398,13.526-7.46,9.301c-4.559-3.805,0.137-10.562,4.628-7.935
		c3.988,2.33,1.019,7.843-2.321,6.245c-2.334-1.119-1.398-4.157,0.411-3.824c0.955,0.178,0.667,1.16,1.485,0.982
		c0.854-2.499-3.965-3.01-4.212,0.48c-0.297,4.226,6.715,4.911,7.272-0.251c0.53-4.993-7.145-7.071-9.374-1.603
		c-2.311,5.674,5.345,10.63,10.027,5.911c5.45-5.491-1.01-14.805-8.931-11.53c-0.841,0.347-2.723,1.457-2.882,2.417
		c0.151,0.132,1.521-0.946,1.873-1.156C239.557,90.924,243.198,91.193,245.875,93.806z"/>
	<path style="fill:#BBC2CA;" d="M184.854,94.729c-6.414,8.14,2.832,17.35,8.816,11.932c5.395-4.883-0.155-13.549-5.473-10.182
		c-4.714,2.992-1.201,10.064,2.745,8.017c2.764-1.434,1.654-5.336-0.484-4.911c-1.133,0.228-0.79,1.489-1.759,1.261
		c-1.01-3.202,4.696-3.86,4.984,0.617c0.347,5.422-7.944,6.295-8.597-0.32c-0.635-6.409,8.446-9.077,11.082-2.056
		c2.736,7.277-6.322,13.631-11.859,7.579c-6.446-7.044,1.197-18.994,10.566-14.787c0.987,0.443,3.221,1.868,3.408,3.097
		c-0.183,0.169-1.8-1.211-2.22-1.485C192.323,91.034,188.015,91.376,184.854,94.729z"/>
	<path style="fill:#BBC2CA;" d="M202.761,80.637c7.661-3.134,12.699,5.989,7.222,9.397c-4.934,3.065-10.37-3.102-6.615-6.446
		c3.335-2.96,7.99,1.293,5.546,3.874c-1.704,1.804-4.454,0.096-3.654-1.453c0.42-0.818,1.311-0.279,1.352-1.074
		c-2.238-1.48-3.997,2.755-0.621,3.961c4.084,1.462,6.578-4.714,1.645-6.669c-4.783-1.896-8.83,4.49-4.02,8.058
		c4.988,3.7,11.859-1.859,8.428-7.446c-3.993-6.491-14.846-3.253-13.677,4.865c0.123,0.859,0.726,2.887,1.631,3.298
		c0.164-0.1-0.534-1.645-0.653-2.028C198.279,85.561,199.49,82.327,202.761,80.637z"/>
	<path style="fill:#BBC2CA;" d="M228.361,78.663c-7.898-3.234-13.097,6.181-7.446,9.689c5.089,3.161,10.694-3.198,6.82-6.642
		c-3.435-3.056-8.241,1.329-5.724,3.988c1.763,1.864,4.6,0.1,3.778-1.494c-0.439-0.845-1.357-0.288-1.398-1.105
		c2.307-1.526,4.12,2.841,0.64,4.084c-4.212,1.507-6.784-4.86-1.695-6.88c4.934-1.955,9.104,4.628,4.143,8.309
		c-5.144,3.814-12.229-1.919-8.693-7.674c4.116-6.697,15.312-3.358,14.106,5.011c-0.128,0.886-0.749,2.978-1.681,3.403
		c-0.174-0.105,0.553-1.699,0.672-2.092C232.983,83.738,231.732,80.404,228.361,78.663z"/>
	<path style="fill:#BBC2CA;" d="M215.94,95.022c-11.653-1.206-12.466,10.799-3.426,12.992c8.145,1.978,11.274-6.77,4.458-9.424
		c-6.044-2.357-9.36,3.956-4.682,6.153c3.275,1.535,5.728-1.275,3.764-2.8c-1.037-0.804-1.841,0.091-2.375-0.804
		c1.937-2.389,6.761,1.909,3.211,4.34c-4.299,2.937-11.242-3.353-6.167-7.122c4.911-3.655,13.956,2.394,10.032,7.971
		c-4.075,5.779-16.203,1.558-15.262-5.902c1.096-8.666,16.87-8.332,20.356,1.316c0.365,1.019,0.836,3.527-0.055,4.28
		c-0.279-0.064-0.329-2.051-0.411-2.522C224.642,99.261,221.129,95.94,215.94,95.022z"/>
</g>
<path style="fill:#785448;" d="M389.405,180.866c0.187-43.954,4.856-38.957,5.066,0v119.877h-5.066V180.866z"/>
<path style="fill:#FFFFFF;" d="M254.595,62.807c20.328,0,36.805,16.482,36.805,36.805c0,20.333-16.477,36.815-36.805,36.815
	c-20.333,0-36.81-16.482-36.81-36.815C217.785,79.289,234.263,62.807,254.595,62.807z"/>
<path style="fill:#E5E5E5;" d="M222.532,117.707c-2.266-4.006-3.801-8.483-4.427-13.238c3.422,1.243,5.865,4.522,5.865,8.378
	C223.971,114.637,223.445,116.309,222.532,117.707z M246.455,75.735c-2.394,0-4.331-1.941-4.331-4.335s1.937-4.331,4.331-4.331
	s4.335,1.937,4.335,4.331S248.849,75.735,246.455,75.735z M228.598,83.766c2.663,0,4.824,2.161,4.824,4.824
	c0,2.668-2.161,4.829-4.824,4.829c-2.663,0-4.824-2.161-4.824-4.829C223.774,85.926,225.935,83.766,228.598,83.766z M244.92,95.378
	c-2.691,0-4.874-2.184-4.874-4.874s2.184-4.87,4.874-4.87c2.691,0,4.87,2.179,4.87,4.87S247.611,95.378,244.92,95.378z
	 M267.025,79.399c-2.394,0-4.331-1.941-4.331-4.335c0-2.389,1.937-4.331,4.331-4.331c2.394,0,4.335,1.941,4.335,4.331
	C271.36,77.457,269.419,79.399,267.025,79.399z M260.123,97.712c-2.389,0-4.331-1.937-4.331-4.331c0-2.394,1.941-4.335,4.331-4.335
	c2.394,0,4.335,1.941,4.335,4.335C264.458,95.775,262.516,97.712,260.123,97.712z M281.588,74.597
	c3.645,3.933,6.446,8.661,8.104,13.896c-0.973,0.411-2.037,0.635-3.157,0.635c-4.481,0-8.108-3.627-8.108-8.108
	C278.427,78.407,279.665,76.078,281.588,74.597z M276.892,104.651c-2.394,0-4.335-1.941-4.335-4.331
	c0-2.394,1.941-4.335,4.335-4.335c2.389,0,4.331,1.941,4.331,4.335C281.223,102.71,279.281,104.651,276.892,104.651z
	 M278.299,121.667c-2.394,0-4.335-1.941-4.335-4.335s1.941-4.335,4.335-4.335c2.389,0,4.331,1.941,4.331,4.335
	S280.688,121.667,278.299,121.667z M261.612,128.273c-2.394,0-4.335-1.941-4.335-4.335s1.941-4.335,4.335-4.335
	c2.394,0,4.335,1.941,4.335,4.335S264.006,128.273,261.612,128.273z M257.295,111.261c-1.128,0-2.042-0.914-2.042-2.042
	s0.914-2.042,2.042-2.042s2.042,0.914,2.042,2.042S258.423,111.261,257.295,111.261z M243.641,123.814
	c-2.394,0-4.335-1.941-4.335-4.335s1.941-4.331,4.335-4.331c2.389,0,4.331,1.937,4.331,4.331S246.03,123.814,243.641,123.814z
	 M234.66,104.651c1.398,0,2.535,1.137,2.535,2.535c0,1.402-1.137,2.54-2.535,2.54c-1.402,0-2.54-1.137-2.54-2.54
	C232.12,105.789,233.258,104.651,234.66,104.651z"/>
<path style="fill:#F1EAE3;" d="M241.256,140.812c0.137,0,0.247,0.11,0.247,0.247c0,0.137-0.11,0.247-0.247,0.247
	c-0.137,0-0.247-0.11-0.247-0.247C241.01,140.922,241.119,140.812,241.256,140.812z"/>
<path style="fill:#ADB2BA;" d="M278.788,87.009c3.093,0,6.012,0.735,8.597,2.037c2.8-2.736,6.633-4.427,10.858-4.427
	c7.323,0,13.458,5.066,15.102,11.882c3.654,1.101,6.592,3.86,7.93,7.41c0.443-0.05,0.886-0.073,1.338-0.073
	c6.765,0,12.252,5.486,12.252,12.252c0,6.765-5.486,12.247-12.252,12.247c-2.106,0-4.088-0.53-5.82-1.466
	c-1.489,5.089-6.19,8.812-11.758,8.812c-3.408,0-6.487-1.393-8.707-3.636c-2.22,2.243-5.304,3.636-8.707,3.636
	c-3.234,0-6.176-1.256-8.364-3.307c-2.243,2.453-5.464,3.988-9.045,3.988c-3.348,0-6.386-1.348-8.597-3.527
	c-1.01,0.224-2.06,0.343-3.138,0.343c-8.063,0-14.595-6.537-14.595-14.595s6.532-14.595,14.595-14.595
	c0.439,0,0.872,0.023,1.302,0.059C260.817,94.469,268.93,87.009,278.788,87.009z"/>
<g>
	<path style="fill:#97A2AE;" d="M334.848,116.752c-0.347,6.459-5.692,11.585-12.233,11.585c-2.106,0-4.088-0.53-5.82-1.466
		c-1.489,5.089-6.19,8.812-11.758,8.812c-3.408,0-6.487-1.393-8.707-3.636c-2.22,2.243-5.304,3.636-8.707,3.636
		c-3.234,0-6.176-1.256-8.364-3.307c-2.243,2.453-5.464,3.988-9.045,3.988c-3.348,0-6.386-1.348-8.597-3.527
		c-1.01,0.224-2.06,0.343-3.138,0.343c-8.063,0-14.595-6.537-14.595-14.595c0-0.873,0.073-1.727,0.224-2.554
		c-0.023,0.315-0.032,0.635-0.032,0.955c0,8.063,6.532,14.595,14.591,14.595c1.078,0,2.129-0.119,3.143-0.338
		c2.211,2.179,5.249,3.522,8.597,3.522c3.581,0,6.802-1.535,9.045-3.988c2.188,2.051,5.13,3.307,8.364,3.307
		c3.408,0,6.487-1.389,8.707-3.632c2.22,2.243,5.299,3.632,8.702,3.632c5.573,0,10.274-3.718,11.763-8.807
		c1.731,0.936,3.714,1.466,5.82,1.466C328.8,126.743,333.788,122.439,334.848,116.752z"/>
	<path style="fill:#97A2AE;" d="M328.992,109.343c7.154,8.373-3.161,17.843-9.835,12.27c-6.016-5.02,0.178-13.933,6.103-10.466
		c5.262,3.07,1.343,10.342-3.061,8.236c-3.079-1.476-1.846-5.486,0.539-5.043c1.265,0.233,0.882,1.53,1.964,1.293
		c1.124-3.294-5.235-3.965-5.559,0.635c-0.388,5.573,8.858,6.473,9.589-0.329c0.708-6.587-9.419-9.333-12.361-2.115
		c-3.052,7.487,7.053,14.02,13.229,7.793c7.186-7.24-1.338-19.529-11.786-15.207c-1.101,0.457-3.591,1.923-3.801,3.189
		c0.201,0.169,2.01-1.247,2.471-1.53C320.664,105.542,325.47,105.894,328.992,109.343z"/>
	<path style="fill:#97A2AE;" d="M248.501,110.562c-8.46,10.74,3.741,22.886,11.635,15.737c7.113-6.441-0.21-17.87-7.222-13.426
		c-6.217,3.942-1.585,13.27,3.623,10.566c3.645-1.891,2.184-7.035-0.64-6.468c-1.494,0.297-1.042,1.96-2.321,1.658
		c-1.329-4.226,6.194-5.089,6.574,0.813c0.461,7.154-10.475,8.305-11.338-0.42c-0.836-8.456,11.137-11.973,14.618-2.713
		c3.609,9.598-8.341,17.98-15.646,9.995c-8.497-9.287,1.581-25.052,13.937-19.506c1.306,0.585,4.248,2.467,4.495,4.088
		c-0.238,0.219-2.375-1.594-2.924-1.96C258.355,105.688,252.672,106.14,248.501,110.562z"/>
	<path style="fill:#97A2AE;" d="M272.123,91.97c10.105-4.134,16.751,7.903,9.525,12.393c-6.51,4.047-13.677-4.088-8.721-8.497
		c4.395-3.906,10.539,1.699,7.318,5.107c-2.252,2.38-5.884,0.128-4.828-1.914c0.557-1.083,1.736-0.37,1.786-1.416
		c-2.956-1.951-5.272,3.632-0.822,5.226c5.39,1.928,8.679-6.217,2.17-8.803c-6.309-2.499-11.644,5.925-5.299,10.63
		c6.578,4.883,15.646-2.449,11.119-9.817c-5.267-8.565-19.584-4.294-18.044,6.414c0.164,1.133,0.964,3.805,2.152,4.353
		c0.219-0.137-0.703-2.174-0.863-2.677C266.212,98.466,267.811,94.204,272.123,91.97z"/>
	<path style="fill:#97A2AE;" d="M305.895,89.371c-10.424-4.267-17.277,8.15-9.826,12.782c6.711,4.171,14.102-4.221,8.995-8.766
		c-4.532-4.029-10.868,1.754-7.547,5.262c2.321,2.458,6.066,0.132,4.979-1.969c-0.576-1.119-1.786-0.384-1.841-1.462
		c3.042-2.015,5.431,3.75,0.845,5.39c-5.559,1.983-8.949-6.414-2.234-9.077c6.5-2.576,12.005,6.108,5.464,10.959
		c-6.788,5.034-16.135-2.526-11.466-10.123c5.427-8.835,20.196-4.427,18.606,6.615c-0.169,1.169-0.991,3.924-2.216,4.486
		c-0.233-0.137,0.726-2.238,0.886-2.755C311.989,96.063,310.345,91.669,305.895,89.371z"/>
	<path style="fill:#97A2AE;" d="M289.505,110.946c-15.367-1.59-16.441,14.243-4.518,17.14c10.744,2.604,14.874-8.926,5.879-12.43
		c-7.971-3.106-12.343,5.217-6.172,8.113c4.321,2.024,7.551-1.681,4.966-3.691c-1.37-1.06-2.43,0.119-3.134-1.064
		c2.554-3.147,8.917,2.522,4.235,5.724c-5.664,3.878-14.833-4.417-8.136-9.397c6.482-4.819,18.414,3.161,13.229,10.516
		c-5.368,7.629-21.37,2.056-20.127-7.775c1.448-11.439,22.251-10.995,26.847,1.731c0.484,1.343,1.105,4.655-0.069,5.646
		c-0.365-0.087-0.434-2.709-0.544-3.33C300.989,116.542,296.353,112.157,289.505,110.946z"/>
</g>
<path style="fill:#FFFFFF;" d="M182.478,58.518c1.142,0,2.069,0.927,2.069,2.069c0,1.142-0.927,2.069-2.069,2.069
	c-1.142,0-2.065-0.927-2.065-2.069C180.414,59.445,181.336,58.518,182.478,58.518z M77.631,72.391
	c0.987-0.959,1.983-1.914,2.988-2.86c0.333,0.365,0.539,0.859,0.539,1.393c0,1.142-0.927,2.069-2.065,2.069
	C78.521,72.994,78.005,72.766,77.631,72.391z M346.351,65.758c1.142,0,2.065,0.923,2.065,2.069c0,1.137-0.923,2.065-2.065,2.065
	s-2.069-0.927-2.069-2.065C344.281,66.681,345.209,65.758,346.351,65.758z M114.244,95.223c1.142,0,2.065,0.927,2.065,2.065
	c0,1.147-0.923,2.069-2.065,2.069c-1.147,0-2.069-0.923-2.069-2.069C112.175,96.15,113.098,95.223,114.244,95.223z M161.287,82.816
	c1.137,0,2.065,0.923,2.065,2.069c0,1.142-0.927,2.069-2.065,2.069c-1.147,0-2.069-0.927-2.069-2.069
	C159.217,83.738,160.14,82.816,161.287,82.816z M137.505,47.664c1.142,0,2.065,0.923,2.065,2.069c0,1.137-0.923,2.065-2.065,2.065
	c-1.142,0-2.069-0.927-2.069-2.065C135.436,48.587,136.363,47.664,137.505,47.664z M84.259,110.215c1.142,0,2.069,0.923,2.069,2.065
	c0,1.147-0.927,2.069-2.069,2.069c-1.142,0-2.065-0.923-2.065-2.069C82.194,111.138,83.117,110.215,84.259,110.215z M119.927,65.237
	c1.142,0,2.069,0.927,2.069,2.069s-0.927,2.069-2.069,2.069c-1.142,0-2.065-0.927-2.065-2.069S118.785,65.237,119.927,65.237z
	 M50.14,127.273c1.142,0,2.069,0.927,2.069,2.069c0,1.142-0.927,2.065-2.069,2.065s-2.065-0.923-2.065-2.065
	C48.075,128.2,48.998,127.273,50.14,127.273z M377.368,54.9c1.142,0,2.065,0.927,2.065,2.069c0,1.142-0.923,2.069-2.065,2.069
	c-1.142,0-2.069-0.927-2.069-2.069C375.299,55.827,376.226,54.9,377.368,54.9z M307.581,60.071c1.142,0,2.065,0.927,2.065,2.065
	c0,1.147-0.923,2.069-2.065,2.069s-2.069-0.923-2.069-2.069C305.512,60.998,306.439,60.071,307.581,60.071z M213.496,22.334
	c1.142,0,2.069,0.927,2.069,2.069s-0.927,2.065-2.069,2.065c-1.142,0-2.065-0.923-2.065-2.065S212.354,22.334,213.496,22.334z
	 M294.658,25.435c1.137,0,2.065,0.927,2.065,2.069c0,1.137-0.927,2.065-2.065,2.065c-1.147,0-2.069-0.927-2.069-2.065
	C292.588,26.363,293.511,25.435,294.658,25.435z"/>
<path style="fill:#689D38;" d="M256.025,243.664c94.382,0,182.177,9.895,255.555,26.897C504.029,405.17,392.498,512,255.998,512
	C119.507,512,7.981,405.179,0.42,270.579C73.807,253.567,161.629,243.664,256.025,243.664z"/>
<path style="fill:#6C4C40;" d="M407.664,460.791c-7.382,5.856-15.079,11.315-23.064,16.358V366.656
	c0.845-65.315,22.101-57.887,23.064,0V460.791z"/>
<path style="fill:#8B6E62;" d="M253.983,410.633c43.246,0,78.307,11.658,78.307,26.043c0,14.38-35.06,26.038-78.307,26.038
	c-43.251,0-78.307-11.658-78.307-26.038C175.676,422.291,210.732,410.633,253.983,410.633z"/>
<path style="fill:#5C4036;" d="M222.966,436.233c0,0-42.739,14.49-43.758,19.122c-1.338,6.071,3.184,10.173,7.14,8.949
	c3.956-1.224,37.386-21.086,39.807-23.777C228.575,437.827,222.966,436.233,222.966,436.233z M227.945,430.345
	c0,0-26.532-9.561-31.123-4.655c-4.591,4.902-2.554,9.62,2.805,9.739c5.354,0.123,29.341,0.799,29.341,0.799L227.945,430.345z
	 M273.361,438.677c1.786,0.987,28.067,6.377,34.192,4.171c6.121-2.206,5.404-11.475-3.02-11.475c-8.419,0-40.871-0.05-41.89,1.667
	c-1.014,1.718,1.361,4.906,1.361,4.906l-1.613-0.735l-3.828,2.695c0,0,17.606,39.227,25.257,39.473
	c7.652,0.242,10.671-7.789,4.979-11.891c-5.696-4.107-19.894-24.503-24.444-29.515L273.361,438.677z M249.634,440.148
	c0,0-9.748,38.514-8.547,42.292c1.197,3.778,12.96,6.82,13.522-2.695c0.557-9.52-0.384-35.672-0.891-38.126
	C253.207,439.17,249.634,440.148,249.634,440.148z M238.155,437.457c0,0-26.897,24.746-32.128,34.183s10.95,13.618,12.736,6.752
	c1.786-6.861,22.964-30.643,22.964-34.567C241.727,439.906,238.155,437.457,238.155,437.457z"/>
<path style="fill:#3E2622;" d="M183.913,451.719c-2.727,1.466-4.509,2.736-4.705,3.636c-1.338,6.071,3.184,10.173,7.14,8.949
	c0.635-0.196,2.024-0.868,3.915-1.873c0.301-0.845,0.466-1.759,0.466-2.704C190.728,455.68,187.773,452.327,183.913,451.719z
	 M304.338,443.346c-1.69-1.489-2.764-3.673-2.764-6.108c0-2.307,0.959-4.385,2.503-5.865h0.457c8.424,0,9.141,9.269,3.02,11.475
	C306.772,443.126,305.676,443.286,304.338,443.346z M204.36,424.406c0.685,1.192,1.083,2.576,1.083,4.056
	c0,2.988-1.617,5.61-4.02,7.012l-1.795-0.046c-5.358-0.119-7.396-4.838-2.805-9.739C198.06,424.37,200.883,424.096,204.36,424.406z
	 M211.824,468.813c4.111,0,7.501,3.079,8.012,7.062c-0.525,0.982-0.895,1.836-1.074,2.517c-1.786,6.866-17.966,2.686-12.736-6.752
	l0.493-0.836C207.941,469.562,209.796,468.813,211.824,468.813z M247.469,475.441c3.093,0,5.779,1.745,7.14,4.303
	c-0.566,9.515-12.325,6.473-13.522,2.695c-0.187-0.594-0.11-2.047,0.164-4.07C242.732,476.579,244.97,475.441,247.469,475.441z
	 M287.714,466.903l0.356,0.009c0.256,0.215,0.503,0.407,0.731,0.576c5.692,4.102,2.672,12.133-4.979,11.891
	c-1.128-0.041-2.476-0.927-3.947-2.403c-0.155-0.63-0.238-1.288-0.238-1.964C279.638,470.535,283.256,466.903,287.714,466.903z"/>
<path style="fill:#FFE900;" d="M216.703,426.375c1.539,2.659,2.892,5.171,5.77,6.944c-4.623-11.79-9.406-31.082,4.815-39.322
	c0.393,6.829-0.288,10.785,2.896,15.979l0.206-2.517c-4.148-6.455,3.257-30.022,12.736-35.531l-1.635,5.66
	c2.791-2.878,12.087-18.926,23.581-20.854c-5.45,5.957-8.492,17.619-7.231,24.261c1.635,7.611,3.234,8.172,2.097,17.464
	c1.782-3.061,4.194-5.925,7.378-6.108c-2.028,3.138-5.569,6.651-3.029,13.184c3.102,7.967,8.812,8.186,6.857,18.789
	c2.951-2.659,3.732-4.326,4.413-9.278l0.443,0.841c3.732,9.191-4.545,18.145-4.294,19.835c2.659-1.713,4.171-3.056,5.792-6.236
	c-0.717,8.332-10.589,17.025-14.723,19.538C242.143,461.563,214.56,451.39,216.703,426.375z"/>
<path style="fill:#FFBF06;" d="M237.821,452.998c-23.416-8.981,0.571-33.585,0.233-41.839c1.471,3.444,1.165,3.883,0.603,8.812
	c8.017-5.669-0.21-28.519,11.525-36.915c0.096-0.069,0.338-0.037,0.443-0.251c0.105-0.219,0.297-0.169,0.452-0.247
	c-1.174,4.061-3.467,7.213-3.632,11.731c-0.434,11.822,9.881,28.341,9.767,38.761C257.03,450.143,249.657,456.04,237.821,452.998z"
	/>
<path style="fill:#E5ED9B;" d="M357.465,351.471h77.329c13.805,0,25.097,11.292,25.097,25.097v6.108
	c0,13.805-11.292,25.097-25.097,25.097h-77.329c-13.805,0-25.097-11.292-25.097-25.097v-6.108
	C332.368,362.764,343.66,351.471,357.465,351.471z"/>
<path style="fill:#8B6E62;" d="M368.141,383.097l3.088,0.777c-0.649,2.531-1.804,4.454-3.481,5.783s-3.723,1.996-6.144,1.996
	c-2.503,0-4.541-0.512-6.112-1.535c-1.571-1.019-2.759-2.499-3.577-4.436s-1.233-4.011-1.233-6.235c0-2.421,0.461-4.532,1.389-6.336
	c0.927-1.804,2.243-3.175,3.951-4.111c1.704-0.941,3.581-1.407,5.633-1.407c2.33,0,4.285,0.594,5.865,1.782
	c1.59,1.183,2.695,2.846,3.316,4.993l-3.02,0.717c-0.539-1.69-1.325-2.928-2.348-3.696c-1.023-0.777-2.311-1.16-3.869-1.16
	c-1.782,0-3.275,0.425-4.477,1.284c-1.197,0.854-2.042,2.01-2.522,3.453c-0.489,1.444-0.731,2.933-0.731,4.468
	c0,1.978,0.288,3.705,0.859,5.18c0.576,1.48,1.471,2.576,2.681,3.307c1.215,0.735,2.526,1.096,3.942,1.096
	c1.722,0,3.175-0.498,4.363-1.489C366.912,386.527,367.716,385.056,368.141,383.097z M372.48,391.26l8.931-23.275h3.39l9.474,23.275
	h-3.508l-2.691-7.053h-9.799l-2.526,7.053H372.48z M379.182,381.703h7.93l-2.426-6.455c-0.731-1.96-1.288-3.581-1.672-4.856
	c-0.32,1.517-0.745,3.006-1.284,4.477L379.182,381.703z M396.655,391.26v-23.275h4.614l5.505,16.477
	c0.507,1.53,0.877,2.681,1.11,3.444c0.265-0.845,0.685-2.092,1.247-3.732l5.601-16.189h4.125v23.275h-2.96v-19.469l-6.793,19.469
	h-2.773l-6.72-19.83v19.83H396.655z M423.794,391.26v-23.275h8.789c1.544,0,2.723,0.073,3.545,0.219
	c1.142,0.192,2.101,0.557,2.873,1.083c0.777,0.539,1.402,1.288,1.868,2.248c0.475,0.959,0.708,2.015,0.708,3.166
	c0,1.973-0.63,3.65-1.891,5.016c-1.256,1.366-3.54,2.051-6.834,2.051h-5.971v9.493H423.794z M426.882,379.036h6.016
	c1.992,0,3.403-0.365,4.244-1.11c0.831-0.745,1.247-1.782,1.247-3.134c0-0.968-0.242-1.8-0.735-2.494
	c-0.493-0.694-1.142-1.156-1.946-1.375c-0.521-0.137-1.475-0.21-2.869-0.21h-5.957V379.036z"/>
<g>
	<path style="fill:#424242;" d="M64.073,270.045c4.486,0.882,8.172,1.9,8.172,1.9s-1.782-1.005-4.395-2.567L64.073,270.045z"/>
	<path style="fill:#424242;" d="M64.077,270.049l3.773-0.672c2.613,1.562,4.395,2.567,4.395,2.567S68.563,270.931,64.077,270.049z"
		/>
</g>
<path style="fill:#7885C9;" d="M507.889,301.898c-131.516-6.793-355.66-15.111-504.147-2.992
	c-1.786-10.196-2.96-20.593-3.463-31.155c-0.073-1.608-0.137-3.211-0.183-4.824l-0.014-0.544C0.027,260.26,0,258.131,0,255.998
	c0-2.152,0.032-4.303,0.082-6.446l0.014-0.425c0.046-1.695,0.114-3.385,0.192-5.075c0.722-15.006,2.791-29.675,6.085-43.9
	c81.87-2.229,216.451-3.44,338.201-4.847c49.523-0.571,111.257-2.206,159.624-2.234c5.089,20.136,7.802,41.214,7.802,62.926
	C512,271.666,510.584,287.006,507.889,301.898z"/>
<g>
	<path style="fill:#C3C9E7;" d="M353.938,221.033c76.644,0,138.775,1.786,138.775,3.983c0,2.197-62.131,3.983-138.775,3.983
		s-138.775-1.786-138.775-3.983C215.163,222.819,277.294,221.033,353.938,221.033z M0.448,270.981
		c-0.142-2.49-0.256-4.984-0.329-7.487c36.001-1.128,88.046-1.836,145.938-1.836c108.657,0,196.74,2.494,196.74,5.578
		c0,3.074-88.083,5.573-196.74,5.573C88.338,272.808,36.435,272.1,0.448,270.981z M0.685,237.255
		c0.096-1.261,0.201-2.517,0.311-3.773c36.435-0.786,94.971-1.293,160.99-1.293c110.485,0,200.056,1.421,200.056,3.184
		c0,1.759-89.572,3.184-200.056,3.184C95.78,238.557,37.098,238.045,0.685,237.255z M3.718,212.381
		c0.242-1.407,0.498-2.814,0.763-4.216c52.186-0.891,136.537-1.466,231.727-1.466c112.275,0,209.467,0.804,256.592,1.978
		c0.53,1.051,1.046,2.11,1.544,3.17c-46.517,1.197-144.622,2.019-258.136,2.019C140.552,213.866,55.841,213.281,3.718,212.381z
		 M503.741,238.013c0.457,1.832,0.872,3.677,1.252,5.527c-13.467,0.375-29.821,0.594-47.449,0.594
		c-46.033,0-83.345-1.494-83.345-3.344c0-1.841,37.312-3.339,83.345-3.339C474.633,237.451,490.516,237.657,503.741,238.013z
		 M507.642,268.866c0.005,0.311,0.005,0.617,0.005,0.927c0,1.526-0.027,3.051-0.078,4.568c-16.144,0.521-36.947,0.836-59.651,0.836
		c-51.341,0-92.966-1.603-92.966-3.586c0-1.978,41.625-3.581,92.966-3.581C470.658,268.03,491.489,268.345,507.642,268.866z
		 M345.327,248.118c31.05,0,56.22,1.247,56.22,2.787s-25.17,2.787-56.22,2.787c-31.045,0-56.22-1.247-56.22-2.787
		S314.282,248.118,345.327,248.118z"/>
	<path style="fill:#C3C9E7;" d="M492.791,208.676c0.53,1.051,1.046,2.11,1.544,3.17c-45.7,1.174-141.178,1.992-252.133,2.019
		c-40.816-0.009-79.755-0.11-115.464-0.27c-49.5-0.256-92.02-0.681-123.02-1.215c0.242-1.407,0.498-2.809,0.763-4.212
		c30.903-0.525,73.085-0.95,122.115-1.201c35.764-0.164,74.771-0.26,115.66-0.27C351.96,206.726,446.516,207.525,492.791,208.676z
		 M0.448,270.981c-0.146-2.49-0.251-4.979-0.329-7.487c31.776-0.991,76.055-1.663,125.82-1.809h1.101l0.516-0.005
		c6.359-0.014,12.795-0.023,19.305-0.023c108.283,0.014,195.936,2.503,195.936,5.578c0,3.07-87.653,5.559-195.936,5.573
		c-6.468,0-12.873-0.009-19.191-0.023C77.375,272.653,32.566,271.982,0.448,270.981z M0.685,237.259
		c0.091-1.265,0.201-2.522,0.311-3.778c29.72-0.644,74.145-1.096,125.34-1.243c12.096-0.032,24.531-0.05,37.217-0.05
		c109.767,0.014,198.49,1.43,198.49,3.184c0,1.75-88.727,3.17-198.499,3.184c-12.686,0-25.12-0.018-37.217-0.05
		C74.958,238.36,30.405,237.903,0.685,237.259z M367.035,221.052c70.5,0.192,125.678,1.891,125.678,3.965
		s-55.178,3.773-125.678,3.965c-79.12-0.192-141.041-1.891-141.041-3.965S287.915,221.243,367.035,221.052z M466.424,275.124
		c15.445-0.119,29.496-0.388,41.136-0.763c0.055-1.517,0.087-3.042,0.087-4.568c0-0.311-0.005-0.621-0.014-0.927
		c-11.653-0.379-25.732-0.644-41.209-0.763c-47.664,0.329-83.556,1.777-83.556,3.508
		C382.868,273.347,418.76,274.796,466.424,275.124z M357.926,248.186c24.988,0.283,43.621,1.393,43.621,2.718
		c0,1.325-18.633,2.435-43.621,2.718c-28.035-0.283-48.947-1.393-48.947-2.718C308.979,249.579,329.892,248.469,357.926,248.186z
		 M476.602,244.043c10.329-0.096,19.917-0.27,28.373-0.502c-0.375-1.85-0.781-3.696-1.233-5.527
		c-8.15-0.219-17.309-0.384-27.139-0.475c-41.346,0.347-72.135,1.672-72.135,3.253C404.466,242.376,435.255,243.7,476.602,244.043z"
		/>
</g>
<path style="fill:#785448;" d="M30.78,271.73c-0.164,0.621-3.595,25.924-3.595,25.924l7.295,0.617l-0.078-25.545L30.78,271.73z"/>
<path style="fill:#2E7C32;" d="M18.227,226.282c0,0,12.055-2.403,10.676,0.703c-1.384,3.102-16.897,11.183-16.897,11.183
	s12.316-1.763,10.466,2.458c-1.85,4.221-17.181,11.306-17.181,11.306s19.826-3.047,14.403,2.576
	c-3.554,3.682-13.216,9.017-19.451,12.261l0.069,1.804c7.318-1.142,19.045-2.321,18.492,2.005
	c-0.799,6.267-10.991,8.063-13.111,12.023c0,0,24.645-4.381,27.336-1.023c2.805,0.005,27.665,4.344,27.706,3.262
	c-1.818-4.079-12.357-7.076-12.681-13.375c-0.329-6.299,24.193,0.48,24.193,0.48S53.36,261.31,48.381,255.376
	c-4.984-5.939,14.563-1.699,14.563-1.699s-14.76-7.994-16.285-12.32c-1.526-4.321,10.625-1.814,10.625-1.814
	s-14.86-9.004-16.011-12.183c-1.142-3.179,10.703-0.059,10.703-0.059c-9.977-8.383-13.636-17.162-16.066-21.781
	C33.137,209.983,28.82,218.516,18.227,226.282z"/>
<path style="fill:#388D3C;" d="M18.227,226.282c0,0,12.055-2.403,10.676,0.703c-1.384,3.102-16.897,11.187-16.897,11.187
	s12.316-1.768,10.466,2.453c-1.85,4.221-17.181,11.306-17.181,11.306s19.826-3.047,14.403,2.576
	c-3.554,3.682-13.216,9.017-19.451,12.261l0.069,1.804c7.318-1.142,19.045-2.321,18.492,2.005
	c-0.799,6.267-10.991,8.063-13.111,12.023c-5.039,1.731,20.36-3.065,27.336-1.023l3.106-75.625l-0.224-0.434
	C33.137,209.983,28.82,218.516,18.227,226.282z"/>
<path style="fill:#54892E;" d="M265.833,298.043c111.682,0,202.213,5.304,202.213,11.85c0,6.542-90.531,11.85-202.213,11.85
	c-111.677,0-202.208-5.308-202.208-11.85C63.625,303.346,154.156,298.043,265.833,298.043z"/>
<g>
	<path style="fill:#785448;" d="M118.118,280.533c0.37-6.555,9.707-5.811,10.132,0v17.88h-10.132V280.533z"/>
	<path style="fill:#785448;" d="M371.361,239.795c-0.169,0.621-3.6,25.924-3.6,25.924l7.295,0.617l-0.078-25.545L371.361,239.795z"
		/>
</g>
<path style="fill:#2E7C32;" d="M358.808,194.346c0,0,12.055-2.403,10.671,0.703c-1.384,3.102-16.893,11.183-16.893,11.183
	s12.311-1.763,10.466,2.458c-1.85,4.221-17.185,11.306-17.185,11.306s19.826-3.052,14.403,2.576
	c-5.422,5.619-25.065,15.089-25.065,15.089s24.979-5.285,24.175,0.982c-0.799,6.267-10.991,8.063-13.111,12.023
	c0,0,24.65-4.381,27.336-1.028c2.805,0.005,27.665,4.349,27.71,3.266c-1.818-4.084-12.361-7.076-12.686-13.375
	s24.197,0.48,24.197,0.48s-18.885-10.635-23.868-16.569c-4.984-5.939,14.563-1.699,14.563-1.699s-14.76-7.999-16.285-12.32
	c-1.526-4.321,10.625-1.814,10.625-1.814s-14.86-9.008-16.007-12.183c-1.147-3.179,10.703-0.059,10.703-0.059
	c-9.981-8.383-13.64-17.162-16.071-21.781C373.714,178.047,369.397,186.58,358.808,194.346z"/>
<path style="fill:#388D3C;" d="M358.808,194.346c0,0,12.055-2.403,10.671,0.703c-1.384,3.102-16.893,11.187-16.893,11.187
	s12.311-1.768,10.466,2.453c-1.85,4.221-17.185,11.306-17.185,11.306s19.826-3.052,14.403,2.576
	c-5.422,5.619-25.065,15.089-25.065,15.089s24.979-5.285,24.175,0.982c-0.799,6.267-10.991,8.063-13.111,12.023
	c-5.039,1.731,20.365-3.065,27.336-1.028l3.106-75.621l-0.224-0.434C373.714,178.047,369.397,186.58,358.808,194.346z"/>
<path style="fill:#785448;" d="M416.394,278.336c-0.37-6.555-9.712-5.811-10.132,0v17.88h10.132V278.336z"/>
<path style="fill:#FFD500;" d="M416.321,280.775h-9.917l-34.521-31.561l-1.955,1.124l36.298,33.032l3.029,0.014h7.067V280.775z
	 M118.191,282.972h9.917l35.535-31.899l1.978,1.147l-37.376,33.484l-2.988-0.123h-7.067V282.972z"/>
<path style="fill:#FF5622;" d="M224.231,262.256c0.014,0.091,0.018,0.192,0.027,0.288l2.755,34.17
	c3.061-0.059,5.153,0.872,5.843,4.532l3.33,17.628c0.936,4.956,0.914,8.588-4.125,8.478l-3.586-0.078l0.041,0.809
	c0.082,1.74-1.439,3.184-3.179,3.184h-59.061c-1.74,0-3.262-1.434-3.179-3.184l0.041-0.809l-3.586,0.078
	c-5.039,0.11-5.061-3.522-4.125-8.478l3.33-17.628c0.69-3.659,2.782-4.591,5.838-4.532l2.759-34.17
	c0.009-0.096,0.014-0.196,0.023-0.288c0.466-9.401,8.218-16.966,17.692-17.13l0.845-4.632c0.388-2.142,1.782-3.961,3.961-3.961
	h11.859c2.184,0,3.577,1.823,3.965,3.961l0.841,4.632C216.013,245.29,223.77,252.855,224.231,262.256z M189.783,245.121h12.046
	l-0.283-2.791c-0.142-1.412-1.16-2.576-2.576-2.576h-6.331c-1.412,0-2.43,1.169-2.572,2.576L189.783,245.121z"/>
<path style="fill:#FFFF8B;" d="M171.451,302.652h1.603v1.183c0.968,0.146,1.722,0.941,1.809,1.923
	c0.032,0.046,0.046,0.1,0.046,0.155l0,0c0,0.055-0.009,0.105-0.037,0.146v0.151h-0.256h-0.132h-1.083v0.822
	c0.941,0.439,1.594,1.393,1.594,2.49v5.482c0,1.507-1.233,2.741-2.741,2.741l0,0c-1.507,0-2.741-1.233-2.741-2.741v-5.482
	c0-1.092,0.649-2.042,1.581-2.48v-0.831h-1.083h-0.132h-0.256v-0.151c-0.023-0.041-0.041-0.091-0.041-0.146l0,0
	c0-0.055,0.018-0.11,0.05-0.155c0.087-0.987,0.85-1.786,1.818-1.928V302.652z"/>
<path style="fill:#D30000;" d="M171.666,262.434c1.302-7.812,6.126-14.362,14.262-14.504h19.757
	c8.136,0.142,13.019,6.555,14.316,14.367c-2.033-6.391-6.56-11.503-14.138-11.621h-20.113
	C178.171,250.795,173.698,256.043,171.666,262.434z"/>
<path style="fill:#FFFF8B;" d="M171.309,261.918h1.023v0.754c0.612,0.096,1.096,0.603,1.151,1.224
	c0.018,0.032,0.032,0.069,0.032,0.105l0,0c0,0.037-0.009,0.064-0.027,0.096v0.091h-0.16h-0.087h-0.69v0.525
	c0.598,0.279,1.019,0.891,1.019,1.59v3.499c0,0.964-0.79,1.75-1.75,1.75l0,0c-0.964,0-1.75-0.786-1.75-1.75v-3.499
	c0-0.694,0.411-1.302,1.01-1.585v-0.53h-0.694h-0.082h-0.164v-0.091c-0.014-0.032-0.027-0.059-0.027-0.096l0,0
	c0-0.037,0.014-0.073,0.032-0.105c0.059-0.626,0.544-1.133,1.165-1.224V261.918z"/>
<path style="fill:#D30000;" d="M219.667,301.807v0.685c-7.341-25.257-40.382-25.257-47.723,0v-0.685
	C171.944,271.849,219.667,271.849,219.667,301.807z"/>
<g>
	<path style="fill:#006775;" d="M265.892,310.418l-8.232,7.775c-0.694,0.658-0.726,1.759-0.073,2.453l0,0
		c0.653,0.69,1.759,0.722,2.453,0.069l8.232-7.78c0.694-0.653,0.726-1.754,0.069-2.449l0,0
		C267.688,309.792,266.587,309.765,265.892,310.418z"/>
	<path style="fill:#006775;" d="M260.004,310.843l-12.293-13.325c0.187-0.123,0.384-0.238,0.585-0.347l12.096,13.12
		C260.269,310.482,260.141,310.664,260.004,310.843z"/>
	<path style="fill:#006775;" d="M259.081,311.884l-12.48-13.531c0.164-0.146,0.338-0.288,0.512-0.42l12.43,13.471
		C259.392,311.569,259.241,311.729,259.081,311.884z"/>
	<path style="fill:#006775;" d="M258.017,312.77l-12.384-13.426c0.142-0.169,0.292-0.338,0.443-0.493l12.466,13.513
		C258.373,312.505,258.195,312.638,258.017,312.77z"/>
	<path style="fill:#006775;" d="M244.44,301.154l11.676,12.658c-1.064,0.425-2.225,0.662-3.44,0.662
		c-5.084,0-9.205-4.12-9.205-9.205C243.472,303.789,243.819,302.392,244.44,301.154z"/>
	<path style="fill:#006775;" d="M256.806,313.501l-12-13.015c0.119-0.192,0.247-0.384,0.379-0.566l12.22,13.248
		C257.208,313.287,257.012,313.396,256.806,313.501z"/>
	<path style="fill:#006775;" d="M249.63,296.581l11.461,12.425c-0.096,0.219-0.201,0.429-0.315,0.64l-11.809-12.804
		C249.187,296.745,249.406,296.659,249.63,296.581z"/>
	<path style="fill:#006775;" d="M261.384,308.262l-10.991-11.914c0.731-0.187,1.498-0.283,2.284-0.283
		c5.084,0,9.205,4.12,9.205,9.205C261.881,306.32,261.708,307.325,261.384,308.262z"/>
</g>
<path style="fill:#EDEDED;" d="M252.741,272.269c6.816,13.531,12.96,16.509,23.128,18.716c10.173,2.206,11.037,16.888,6.144,23.508
	c-4.892,6.624-14.97,18.428-25.719,19.003c-10.749,0.571-15.162-10.173-15.929-13.823c-0.767-3.641-3.358-14.581-15.641-18.035
	c0,0-6.427-3.554-5.084-7.199s3.741-2.421,3.91-2.302c0.128,0.091,4.92,3.824,10.137,0.242l-37.335-46.609
	c0,0-4.029,1.485-5.372,0.813c-1.348-0.672-3.262-7.195-6.382-8.926c-3.12-1.727-5.71,1.105-6.19-2.782
	c-0.48-3.883,3.454-4.075,5.276-3.691c1.197,0.251,0.799,0.238,1.585-1.087l-0.27-0.155c-0.151-0.087-0.196-0.283-0.11-0.429
	l0.196-0.329c0.087-0.146,0.279-0.196,0.425-0.11l0.27,0.16l0.868,0.516l0.265,0.16c0.151,0.087,0.196,0.279,0.11,0.425
	l-0.196,0.333c-0.087,0.146-0.279,0.192-0.429,0.105l-0.265-0.16l-0.758,1.279c0.539,0.265,1.169,0.585,1.868,0.95l0.74-1.243
	l-0.27-0.16c-0.146-0.087-0.196-0.283-0.11-0.429l0.196-0.329c0.087-0.146,0.279-0.196,0.425-0.11l0.274,0.16l0.863,0.516
	l0.265,0.16c0.151,0.087,0.196,0.279,0.11,0.425l-0.196,0.333c-0.087,0.146-0.279,0.196-0.425,0.105l-0.27-0.155l-0.713,1.197
	c0.585,0.315,1.206,0.649,1.841,0.996l0.722-1.211l-0.27-0.16c-0.146-0.087-0.196-0.279-0.11-0.429l0.196-0.329
	c0.087-0.146,0.283-0.196,0.429-0.11l0.265,0.16l0.868,0.516l0.27,0.16c0.146,0.087,0.196,0.279,0.11,0.425l-0.196,0.329
	c-0.091,0.151-0.283,0.201-0.429,0.114l-0.265-0.164l-0.703,1.183c0.608,0.333,1.22,0.672,1.832,1.01l0.717-1.206l-0.27-0.16
	c-0.146-0.087-0.196-0.279-0.105-0.425l0.196-0.333c0.087-0.146,0.279-0.196,0.425-0.11l0.27,0.164l0.863,0.512l0.27,0.16
	c0.146,0.087,0.196,0.279,0.11,0.429l-0.196,0.329c-0.087,0.146-0.279,0.196-0.429,0.105l-0.265-0.155l-0.708,1.183
	c0.626,0.347,1.238,0.694,1.823,1.023l0.731-1.224l-0.265-0.16c-0.151-0.087-0.196-0.279-0.11-0.425l0.196-0.333
	c0.087-0.146,0.279-0.196,0.429-0.105l0.265,0.155l0.868,0.516l0.265,0.16c0.151,0.087,0.196,0.283,0.11,0.429l-0.196,0.329
	c-0.087,0.146-0.279,0.196-0.429,0.11l-0.265-0.16l-0.717,1.206c0.658,0.375,1.27,0.722,1.818,1.032l0.749-1.256l-0.274-0.16
	c-0.146-0.087-0.192-0.279-0.105-0.425l0.196-0.333c0.087-0.146,0.279-0.192,0.425-0.105l0.27,0.16l0.868,0.516l0.265,0.155
	c0.151,0.087,0.196,0.279,0.11,0.429l-0.196,0.329c-0.087,0.146-0.279,0.196-0.429,0.11l-0.265-0.16l-0.74,1.243
	c0.996,0.566,1.608,0.923,1.608,0.923v2.11l39.441,41.232c4.267-10,0.863-17.555-3.559-19.547
	C229.361,260.872,243.435,253.787,252.741,272.269z"/>
<path style="fill:#FFFFFF;" d="M270.785,326.74c-4.344,3.627-9.342,6.478-14.49,6.756c-10.749,0.571-15.162-10.173-15.929-13.823
	c-0.767-3.641-3.358-14.581-15.641-18.035c0,0-6.427-3.554-5.084-7.199s3.741-2.421,3.91-2.302c0.128,0.091,4.92,3.824,10.137,0.242
	l-37.335-46.609c0,0-4.029,1.485-5.372,0.813c-1.348-0.672-3.262-7.195-6.382-8.926c-3.12-1.727-5.71,1.105-6.19-2.782
	c-0.1-0.795-0.014-1.434,0.201-1.946l19.944,10.995L270.785,326.74z"/>
<path style="fill:#C94545;" d="M252.672,296.065c-5.08,0-9.2,4.12-9.2,9.205s4.12,9.205,9.2,9.205c5.084,0,9.205-4.12,9.205-9.205
	S257.756,296.065,252.672,296.065z"/>
<path style="fill:#E6E6E6;" d="M250.091,296.43l-0.009,0.005l-0.014,0.005h-0.009l-0.009,0.005l-0.014,0.005h-0.009l-0.009,0.005
	l-0.014,0.005l-0.009,0.005h-0.014l-0.009,0.005l-0.009,0.005l-0.014,0.005h-0.009h-0.005l-0.018,0.009h-0.009l-0.014,0.005
	l-0.009,0.005l-0.014,0.005l-0.009,0.005h-0.009l-0.014,0.005l-0.009,0.005l-0.014,0.005h-0.009l-0.009,0.005l-0.014,0.005
	l-0.009,0.005h-0.009l-0.014,0.005l-0.009,0.005l-0.009,0.005h-0.009l-0.005,0.005l-0.009,0.005h-0.014l-0.009,0.005l-0.009,0.005
	l-0.014,0.005l-0.009,0.005h-0.014l-0.009,0.005l-0.014,0.005l-0.009,0.005l-0.009,0.005l-0.014,0.005h-0.009l-0.009,0.005
	l-0.014,0.005l-0.009,0.005l-0.009,0.005l-0.014,0.005l-0.023,0.005l-0.009,0.005l-0.009,0.005l-0.014,0.005l-0.009,0.005
	l-0.009,0.005l-0.014,0.005h-0.009l-0.009,0.005l-0.014,0.005l-0.009,0.005l11.571,12.603c0.105-0.219,0.201-0.443,0.292-0.672
	L250.091,296.43z M248.287,297.175L248.287,297.175l-0.009,0.005l-0.009,0.005l-0.009,0.005l-0.009,0.005l-0.009,0.005l-0.009,0.009
	l-0.009,0.005l-0.009,0.005l-0.009,0.005l-0.009,0.005l-0.009,0.005l-0.009,0.005l-0.009,0.005l-0.009,0.009l-0.009,0.005
	l-0.009,0.005l-0.009,0.005l-0.009,0.005l-0.009,0.005l-0.009,0.009l-0.009,0.005l0,0l-0.009,0.005l-0.009,0.005l-0.009,0.005
	l-0.014,0.009l-0.009,0.005l-0.009,0.005l-0.009,0.005l-0.009,0.005l-0.009,0.005l-0.009,0.009l-0.009,0.005l-0.009,0.005
	l-0.009,0.005l-0.009,0.005l-0.009,0.009l-0.009,0.005l-0.009,0.005l-0.009,0.005l-0.009,0.005l-0.009,0.009h-0.005l-0.005,0.005
	l-0.009,0.005l-0.009,0.005l-0.009,0.005l-0.009,0.009l-0.009,0.005l-0.009,0.005l-0.009,0.005l-0.027,0.018l-0.009,0.005
	l-0.009,0.009l-0.009,0.005l-0.009,0.005l-0.009,0.005l-0.009,0.009l-0.009,0.005l-0.009,0.005l-0.009,0.005l-0.009,0.009h-0.005
	l-0.005,0.005l-0.009,0.009l12.27,13.357c0.142-0.178,0.274-0.365,0.397-0.553L248.287,297.175z M246.761,298.216l-0.009,0.005
	l-0.009,0.009l-0.009,0.005l-0.005,0.009l-0.009,0.005l-0.009,0.009l-0.009,0.005l-0.005,0.009l-0.009,0.005l-0.009,0.009
	l-0.009,0.005l-0.005,0.009l-0.009,0.005l-0.005,0.005l-0.005,0.005l-0.009,0.009l-0.005,0.005l-0.009,0.009l-0.009,0.005
	l-0.005,0.009l-0.009,0.005l-0.009,0.009l-0.009,0.005l-0.005,0.009l-0.009,0.005l-0.009,0.009l-0.005,0.005l-0.009,0.009
	l-0.009,0.009l-0.009,0.005l-0.005,0.009l-0.009,0.005l-0.009,0.009l-0.027,0.027l-0.009,0.005l-0.009,0.009l-0.009,0.005
	l-0.009,0.009l-0.014,0.014l-0.009,0.009l-0.005,0.005l-0.009,0.009l-0.009,0.005l-0.005,0.009l-0.018,0.014l-0.005,0.009
	l-0.009,0.005l-0.009,0.009l-0.046,0.041l-0.005,0.009l-0.009,0.005l-0.014,0.014l0,0l-0.009,0.009l-0.009,0.009l12.448,13.554
	c0.169-0.146,0.333-0.297,0.489-0.457L246.761,298.216z M245.477,299.532l-0.009,0.009l-0.005,0.005l-0.005,0.009l-0.009,0.009
	l-0.005,0.009l-0.023,0.023l-0.005,0.009l-0.009,0.009l-0.005,0.009l-0.005,0.009l-0.009,0.009l-0.005,0.005l-0.009,0.009
	l-0.005,0.009l-0.005,0.009l-0.009,0.009l-0.005,0.009l-0.009,0.009l-0.005,0.005l-0.009,0.009l-0.005,0.009l-0.005,0.009
	l-0.009,0.009l-0.005,0.009l-0.009,0.009l0,0l-0.005,0.005l-0.005,0.009l-0.009,0.009l-0.005,0.009l-0.005,0.009l-0.009,0.009
	l-0.005,0.009l-0.009,0.005l-0.005,0.009l-0.005,0.009l-0.009,0.009l-0.005,0.009l-0.009,0.009l-0.005,0.009l-0.005,0.009
	l-0.009,0.009l-0.005,0.009l-0.005,0.009l-0.009,0.009l-0.005,0.009l-0.005,0.009h-0.005l-0.005,0.009l-0.005,0.005l-0.005,0.009
	l-0.009,0.009l-0.005,0.009l-0.009,0.009l-0.005,0.009l-0.005,0.009l-0.005,0.009l-0.009,0.009l-0.005,0.009l-0.005,0.009
	l-0.009,0.005l-0.005,0.009l-0.005,0.009l-0.009,0.009l12.128,13.206c0.196-0.11,0.388-0.228,0.58-0.356L245.477,299.532z
	 M244.454,301.126l-0.005,0.009l-0.005,0.009l-0.005,0.009l-0.005,0.014l-0.005,0.009l-0.009,0.009l-0.005,0.009l-0.005,0.014
	l-0.005,0.009l-0.005,0.009l-0.005,0.009l-0.005,0.009l-0.005,0.014l-0.005,0.009l-0.005,0.009h-0.005v0.009l-0.009,0.014
	l-0.005,0.009l-0.005,0.009l-0.005,0.009l-0.005,0.014l-0.005,0.009l-0.005,0.009l-0.005,0.009l-0.005,0.014l-0.005,0.009
	l-0.005,0.009l-0.005,0.009l-0.005,0.014l-0.005,0.009l-0.041,0.087v0.009l-0.009,0.009v0.009l-0.009,0.014v0.009l-0.009,0.009
	l-0.005,0.009l-0.005,0.014l-0.005,0.009v0.009l-0.009,0.014l-0.005,0.009v0.009l-0.009,0.009v0.014l-0.005,0.009l-0.005,0.005
	v0.005l-0.005,0.014l-0.005,0.009l-0.005,0.009l-0.005,0.014l-0.005,0.009l-0.005,0.009l-0.005,0.009l-0.005,0.014l-0.005,0.009
	l11.265,12.27c0.233-0.073,0.461-0.155,0.69-0.242L244.454,301.126z"/>
<path style="fill:#C94545;" d="M268.003,314.511l-1.827-2.106c-0.192-0.219-0.525-0.242-0.749-0.05l-7.3,6.341
	c-0.224,0.192-0.247,0.53-0.055,0.749l1.827,2.106c0.192,0.219,0.525,0.242,0.745,0.05l7.304-6.341
	C268.172,315.068,268.195,314.735,268.003,314.511z"/>
<g>
	<path style="fill:#7688A1;" d="M185.379,231.883l0.754-1.27l0.265,0.16c0.151,0.087,0.343,0.041,0.429-0.105l0.196-0.333
		c0.087-0.146,0.041-0.338-0.11-0.425l-0.265-0.16l-0.868-0.516l-0.27-0.16c-0.146-0.087-0.338-0.037-0.425,0.11l-0.196,0.329
		c-0.087,0.146-0.041,0.343,0.11,0.429l0.27,0.155c-0.589,0.987-0.516,1.247-0.936,1.211L185.379,231.883z"/>
	<path style="fill:#7688A1;" d="M187.983,231.599l-0.74,1.243l6.761,3.691l4.961,2.819l0.74-1.243l0.265,0.16
		c0.151,0.087,0.343,0.037,0.429-0.11l0.196-0.329c0.087-0.151,0.041-0.343-0.11-0.429l-0.265-0.155l-0.868-0.516l-0.27-0.16
		c-0.027-0.018-0.059-0.032-0.091-0.037h-0.132c-0.078,0.018-0.155,0.069-0.201,0.142l-0.196,0.333
		c-0.087,0.146-0.041,0.338,0.105,0.425l0.274,0.16l-0.749,1.256l-1.818-1.032l0.717-1.206l0.265,0.16
		c0.151,0.087,0.343,0.037,0.429-0.11l0.073-0.128l0.123-0.201c0.087-0.146,0.041-0.343-0.11-0.429l-0.265-0.16l-0.868-0.516
		l-0.265-0.155c-0.151-0.091-0.343-0.041-0.429,0.105l-0.196,0.333c-0.087,0.146-0.041,0.338,0.11,0.425l0.265,0.16l-0.26,0.439
		l-0.471,0.786l-1.398-0.786l-0.425-0.238l0.708-1.183l0.265,0.155c0.151,0.091,0.343,0.041,0.429-0.105l0.196-0.329
		c0.087-0.151,0.037-0.343-0.11-0.429l-0.27-0.16l-0.863-0.512l-0.27-0.164c-0.146-0.087-0.338-0.037-0.425,0.11l-0.196,0.333
		c-0.091,0.146-0.041,0.338,0.105,0.425l0.27,0.16l-0.717,1.206l-1.832-1.01l0.703-1.183l0.265,0.164
		c0.146,0.087,0.338,0.037,0.429-0.114l0.196-0.329c0.087-0.146,0.037-0.338-0.11-0.425l-0.27-0.16l-0.868-0.516l-0.265-0.16
		c-0.146-0.087-0.343-0.037-0.429,0.11l-0.196,0.329c-0.087,0.151-0.037,0.343,0.11,0.429l0.27,0.16l-0.722,1.211l-1.841-0.996
		l0.713-1.197l0.27,0.155c0.146,0.091,0.338,0.041,0.425-0.105l0.196-0.333c0.087-0.146,0.041-0.338-0.11-0.425l-0.265-0.16
		l-0.863-0.516l-0.274-0.16c-0.146-0.087-0.338-0.037-0.425,0.11l-0.196,0.329c-0.087,0.146-0.037,0.343,0.11,0.429L187.983,231.599
		z"/>
</g>
<path style="fill:#785448;" d="M74.867,257.779c-0.164,0.621-3.595,25.924-3.595,25.924l7.295,0.617l-0.078-25.54L74.867,257.779z"
	/>
<path style="fill:#2E7C32;" d="M62.318,212.331c0,0,12.055-2.403,10.671,0.703c-1.384,3.102-16.893,11.187-16.893,11.187
	s12.311-1.768,10.461,2.453c-1.846,4.221-17.181,11.306-17.181,11.306s19.826-3.047,14.403,2.572
	c-5.422,5.623-25.065,15.093-25.065,15.093s24.974-5.285,24.175,0.982c-0.799,6.267-10.986,8.063-13.111,12.023
	c0,0,24.65-4.376,27.336-1.028c2.805,0.009,27.665,4.349,27.706,3.266c-1.814-4.084-12.357-7.076-12.681-13.375
	c-0.324-6.299,24.193,0.48,24.193,0.48s-18.88-10.635-23.864-16.573c-4.984-5.934,14.563-1.695,14.563-1.695
	s-14.76-7.994-16.285-12.316c-1.526-4.326,10.63-1.823,10.63-1.823s-14.865-8.999-16.011-12.179
	c-1.147-3.184,10.699-0.055,10.699-0.055c-9.977-8.392-13.636-17.167-16.066-21.781C77.224,196.027,72.907,204.565,62.318,212.331z"
	/>
<path style="fill:#388D3C;" d="M62.318,212.331c0,0,12.055-2.403,10.671,0.703c-1.384,3.102-16.893,11.187-16.893,11.187
	s12.311-1.768,10.461,2.453c-1.846,4.221-17.181,11.306-17.181,11.306s19.826-3.047,14.403,2.572
	c-5.422,5.623-25.065,15.093-25.065,15.093s24.974-5.285,24.175,0.982c-0.799,6.267-10.991,8.058-13.111,12.023
	c-5.039,1.731,20.36-3.065,27.336-1.023l3.106-75.63l-0.224-0.425C77.224,196.027,72.907,204.565,62.318,212.331z"/>
<path style="fill:#785448;" d="M111.636,245.578c-0.164,0.626-3.595,25.929-3.595,25.929l7.295,0.617l-0.078-25.545L111.636,245.578
	z"/>
<path style="fill:#2E7C32;" d="M99.087,200.13c0,0,12.055-2.398,10.671,0.703c-1.384,3.102-16.897,11.187-16.897,11.187
	s12.316-1.763,10.466,2.453c-1.846,4.226-17.181,11.311-17.181,11.311s19.826-3.052,14.403,2.572
	c-5.422,5.623-25.065,15.093-25.065,15.093s24.974-5.285,24.175,0.982c-0.799,6.263-10.991,8.058-13.111,12.023
	c0,0,24.645-4.381,27.336-1.028c2.805,0.005,27.665,4.349,27.706,3.262c-1.814-4.079-12.357-7.076-12.681-13.375
	c-0.324-6.299,24.193,0.484,24.193,0.484s-18.88-10.635-23.864-16.573c-4.984-5.939,14.563-1.699,14.563-1.699
	s-14.76-7.994-16.285-12.316s10.625-1.818,10.625-1.818s-14.86-9.004-16.007-12.183c-1.147-3.179,10.699-0.055,10.699-0.055
	c-9.977-8.387-13.636-17.167-16.066-21.781C113.993,183.83,109.676,192.368,99.087,200.13z"/>
<path style="fill:#388D3C;" d="M99.087,200.13c0,0,12.055-2.398,10.671,0.703c-1.384,3.102-16.897,11.187-16.897,11.187
	s12.316-1.763,10.466,2.458c-1.846,4.221-17.181,11.306-17.181,11.306s19.826-3.052,14.403,2.572
	c-5.422,5.623-25.065,15.089-25.065,15.089s24.974-5.281,24.175,0.987c-0.799,6.263-10.991,8.058-13.111,12.019
	c-5.039,1.736,20.365-3.061,27.336-1.023l3.106-75.625l-0.224-0.429C113.993,183.83,109.676,192.368,99.087,200.13z"/>
<path style="fill:#BD360C;" d="M161.808,232.454c-0.164,0.626-3.595,25.924-3.595,25.924l7.295,0.617l-0.078-25.54L161.808,232.454z
	"/>
<path style="fill:#2E7C32;" d="M149.259,187.005c0,0,12.055-2.398,10.671,0.703c-1.384,3.102-16.893,11.187-16.893,11.187
	s12.311-1.763,10.461,2.453c-1.846,4.221-17.181,11.306-17.181,11.306s19.826-3.047,14.403,2.576
	c-5.418,5.619-25.065,15.089-25.065,15.089s24.974-5.281,24.175,0.982c-0.799,6.267-10.986,8.063-13.111,12.023
	c0,0,24.65-4.376,27.336-1.023c2.805,0.005,27.665,4.344,27.71,3.262c-1.818-4.079-12.361-7.076-12.686-13.375
	c-0.324-6.299,24.193,0.48,24.193,0.48s-18.88-10.63-23.864-16.569c-4.984-5.939,14.563-1.699,14.563-1.699
	s-14.76-7.994-16.285-12.316c-1.526-4.326,10.63-1.818,10.63-1.818s-14.865-9.004-16.011-12.183
	c-1.147-3.179,10.703-0.055,10.703-0.055c-9.981-8.387-13.64-17.167-16.071-21.781C164.165,170.706,159.848,179.244,149.259,187.005
	z"/>
<path style="fill:#388D3C;" d="M149.259,187.005c0,0,12.055-2.398,10.671,0.703c-1.384,3.102-16.893,11.187-16.893,11.187
	s12.311-1.763,10.461,2.453c-1.846,4.221-17.181,11.306-17.181,11.306s19.826-3.047,14.403,2.576
	c-5.422,5.619-25.065,15.089-25.065,15.089s24.974-5.281,24.175,0.982c-0.799,6.267-10.991,8.063-13.111,12.023
	c-5.034,1.736,20.36-3.061,27.336-1.023l3.106-75.625l-0.224-0.429C164.165,170.706,159.848,179.244,149.259,187.005z"/>
<path style="fill:#785448;" d="M421.336,248.351c-0.164,0.626-3.6,25.924-3.6,25.924l7.295,0.617l-0.078-25.54L421.336,248.351z"/>
<path style="fill:#2E7C32;" d="M408.783,202.907c0,0,12.06-2.403,10.671,0.699c-1.38,3.102-16.893,11.187-16.893,11.187
	s12.316-1.763,10.466,2.458c-1.85,4.216-17.181,11.302-17.181,11.302s19.826-3.047,14.403,2.576
	c-5.422,5.619-25.07,15.089-25.07,15.089s24.978-5.281,24.179,0.982c-0.799,6.267-10.991,8.063-13.111,12.028
	c0,0,24.645-4.381,27.336-1.028c2.805,0.005,27.66,4.349,27.706,3.262c-1.814-4.079-12.357-7.076-12.686-13.375
	c-0.32-6.299,24.197,0.48,24.197,0.48s-18.88-10.63-23.864-16.569c-4.984-5.939,14.563-1.699,14.563-1.699
	s-14.76-7.994-16.285-12.316c-1.526-4.326,10.625-1.818,10.625-1.818s-14.865-9.004-16.007-12.183
	c-1.151-3.179,10.699-0.055,10.699-0.055c-9.977-8.387-13.64-17.167-16.066-21.781C423.694,186.603,419.372,195.141,408.783,202.907
	z"/>
<path style="fill:#388D3C;" d="M408.783,202.902c0,0,12.06-2.398,10.676,0.703c-1.384,3.102-16.897,11.187-16.897,11.187
	s12.316-1.763,10.466,2.458c-1.85,4.216-17.181,11.302-17.181,11.302s19.826-3.047,14.403,2.576
	c-5.422,5.623-25.07,15.089-25.07,15.089s24.978-5.281,24.179,0.982c-0.799,6.267-10.991,8.063-13.115,12.028
	c-5.034,1.731,20.365-3.065,27.34-1.028l3.102-75.625l-0.219-0.429C423.694,186.603,419.372,195.141,408.783,202.902z"/>
<path style="fill:#785448;" d="M464.857,267.601c-0.164,0.626-3.6,25.924-3.6,25.924l7.295,0.617l-0.078-25.54L464.857,267.601z"/>
<path style="fill:#2E7C32;" d="M452.304,222.152c0,0,12.06-2.398,10.671,0.703c-1.384,3.102-16.893,11.187-16.893,11.187
	s12.316-1.768,10.466,2.453s-17.181,11.306-17.181,11.306s19.821-3.047,14.399,2.572c-5.418,5.623-25.065,15.093-25.065,15.093
	s24.979-5.281,24.179,0.982c-0.804,6.267-10.991,8.063-13.111,12.023c0,0,24.645-4.376,27.331-1.023
	c2.809,0.005,27.665,4.344,27.71,3.262c-1.814-4.084-12.361-7.076-12.686-13.375c-0.32-6.299,24.197,0.48,24.197,0.48
	s-18.88-10.635-23.868-16.573c-4.984-5.934,14.568-1.695,14.568-1.695s-14.76-7.994-16.285-12.316
	c-1.526-4.326,10.625-1.818,10.625-1.818s-14.865-9.004-16.011-12.183s10.703-0.055,10.703-0.055
	c-9.977-8.387-13.64-17.167-16.066-21.781C467.21,205.853,462.893,214.387,452.304,222.152z"/>
<path style="fill:#388D3C;" d="M452.304,222.152c0,0,12.06-2.398,10.676,0.703c-1.389,3.102-16.897,11.187-16.897,11.187
	s12.316-1.768,10.466,2.453s-17.181,11.306-17.181,11.306s19.821-3.047,14.399,2.576c-5.418,5.619-25.065,15.089-25.065,15.089
	s24.979-5.281,24.179,0.987c-0.799,6.263-10.991,8.058-13.115,12.019c-5.034,1.736,20.365-3.061,27.336-1.023l3.106-75.625
	l-0.219-0.429C467.21,205.853,462.893,214.387,452.304,222.152z"/>
<path style="fill:#FFD500;" d="M390.1,161.136v40.017c13.714-8.268,28.007-9.054,42.913-2.024
	c-0.749-3.143-9.305-20.059-9.305-20.059l18.478-18.999C442.185,160.072,398.742,173.264,390.1,161.136z"/>
<g>
</g>
<g>
</g>
<g>
</g>
<g>
</g>
<g>
</g>
<g>
</g>
<g>
</g>
<g>
</g>
<g>
</g>
<g>
</g>
<g>
</g>
<g>
</g>
<g>
</g>
<g>
</g>
<g>
</g>
</svg>
