<?xml version="1.0" encoding="iso-8859-1"?>
<!-- Generator: Adobe Illustrator 19.0.0, SVG Export Plug-In . SVG Version: 6.00 Build 0)  -->
<svg version="1.1" id="Layer_1" xmlns="http://www.w3.org/2000/svg" xmlns:xlink="http://www.w3.org/1999/xlink" x="0px" y="0px"
	 viewBox="0 0 512 512" style="enable-background:new 0 0 512 512;" xml:space="preserve">
<path style="fill:#666666;" d="M256,0c141.386,0,256,114.614,256,256c0,141.386-114.614,256-256,256C114.614,512,0,397.386,0,256
	C0,114.614,114.614,0,256,0z"/>
<path style="fill:#7EA551;" d="M256,175.948c92.099,0,178.082,10.761,250.976,29.388C510.266,221.714,512,238.656,512,256
	c0,141.386-114.614,256-256,256C114.614,512,0,397.386,0,256c0-17.344,1.734-34.283,5.023-50.661
	C77.92,186.711,163.898,175.948,256,175.948z"/>
<path style="fill:#8CAB67;" d="M5.8,201.648c25.748-40.01,50.545-75.057,76.706-102.979c8.888-9.49,24.834-10.12,35.071-3.425
	c68.362,44.718,96.9,91.114,115.743,137.918L0.172,247.117C0.706,231.568,2.618,216.375,5.8,201.648z"/>
<path style="fill:#4D7229;" d="M107.875,91.371c3.498,0.689,6.828,1.993,9.703,3.873c68.362,44.718,96.9,91.114,115.743,137.918
	l-113.542,6.739c0,0-7.815-14.946-26.585-37.715c-18.769-22.768,36.636-20.315,19.497-51.701
	C95.556,119.098,107.875,91.371,107.875,91.371z"/>
<path style="fill:#8CAB67;" d="M245.534,238.642c27.737-60.589,61.874-122.688,149.695-197.491
	c64.277,41.739,108.638,111.537,115.749,192.039C423.176,234.86,332.232,237.219,245.534,238.642z"/>
<path style="fill:#4D7229;" d="M510.996,233.403l-126.248,2.95c-31.068-33.361,0.421-56.322,7.949-57.206
	c8.636-1.015,62.949-53.541,25.662-68.634c-22.847-9.252-16.942-38.333-8.943-59.467
	C466.036,93.503,504.475,158.875,510.996,233.403z"/>
<path style="fill:#FFFFFF;" d="M243.562,13.687c20.251,0,36.668,16.419,36.668,36.67c0,20.252-16.417,36.671-36.668,36.671
	c-20.254,0-36.671-16.419-36.671-36.671C206.891,30.106,223.308,13.687,243.562,13.687z"/>
<path style="fill:#785448;" d="M138.402,225.379c-0.126,0.472-2.724,19.615-2.724,19.615l5.52,0.465l-0.059-19.326L138.402,225.379z
	"/>
<path style="fill:#2E7C32;" d="M128.905,190.992c0,0,9.121-1.816,8.075,0.532c-1.047,2.348-12.784,8.464-12.784,8.464
	s9.318-1.335,7.918,1.858c-1.397,3.193-12.999,8.555-12.999,8.555s14.999-2.309,10.898,1.945
	c-4.105,4.254-18.968,11.419-18.968,11.419s18.9-3.997,18.293,0.745c-0.605,4.739-8.315,6.098-9.921,9.096
	c0,0,18.648-3.313,20.684-0.777c2.122,0.005,20.93,3.289,20.961,2.47c-1.372-3.088-9.348-5.354-9.595-10.12
	c-0.245-4.767,18.307,0.362,18.307,0.362s-14.289-8.042-18.057-12.537c-3.77-4.49,11.018-1.285,11.018-1.285
	s-11.167-6.049-12.322-9.318c-1.154-3.272,8.043-1.377,8.043-1.377s-11.247-6.812-12.113-9.217
	c-0.868-2.405,8.095-0.042,8.095-0.042c-7.548-6.345-10.319-12.988-12.159-16.478C140.184,178.657,136.915,185.117,128.905,190.992z
	"/>
<path style="fill:#388D3C;" d="M128.905,190.992c0,0,9.121-1.816,8.075,0.532c-1.047,2.348-12.784,8.464-12.784,8.464
	s9.318-1.335,7.918,1.858c-1.397,3.193-12.999,8.555-12.999,8.555s14.999-2.309,10.898,1.945
	c-4.105,4.254-18.968,11.419-18.968,11.419s18.9-3.997,18.293,0.745c-0.605,4.739-8.315,6.098-9.921,9.096
	c-3.809,1.312,15.407-2.318,20.684-0.777l2.348-57.219l-0.169-0.323C140.184,178.657,136.915,185.117,128.905,190.992z"/>
<path style="fill:#D3DF56;" d="M233.105,134.748l56.933,114.758c0.994,2.004,0.889,4.203-0.291,6.107
	c-1.18,1.899-3.103,2.971-5.342,2.971h-98.563c-2.206,0-4.105-1.037-5.294-2.895c-1.189-1.858-1.34-4.018-0.415-6.022
	L233.105,134.748z"/>
<polygon style="fill:#817616;" points="233.105,134.748 210.43,258.583 255.901,258.583 "/>
<g>
	<path style="fill:#785448;" d="M112.957,242.244c0.3-5.321,7.88-4.716,8.221,0v14.512h-8.221V242.244z"/>
	<path style="fill:#785448;" d="M355.053,240.462c-0.303-5.321-7.882-4.717-8.224,0v14.511h8.224V240.462z"/>
</g>
<path style="fill:#E5ED9B;" d="M233.105,134.748l86.354,81.763l-35.594,20.552L233.105,134.748z M233.105,134.748l-83.445,83.445
	l35.594,20.549L233.105,134.748z"/>
<path style="fill:#FFD500;" d="M354.994,242.44h-8.051l-28.019-25.616l-1.585,0.911l29.462,26.812l2.46,0.009h5.733V242.44z
	 M113.017,244.224h8.047l28.843-25.891l1.606,0.93l-30.335,27.176l-2.428-0.098h-5.733V244.224z"/>
<path style="fill:#4CB5AB;" d="M157.53,295.337c79.407,0,103.731-12.076,156.605-12.076c63.774,0,115.47,34.973,115.47,78.113
	c0,43.141-51.697,78.115-115.47,78.115c-85.149,0-54.329-37.738-156.605-37.738c-45.64,0-82.641-23.823-82.641-53.206
	C74.89,319.157,111.89,295.337,157.53,295.337z"/>
<path style="fill:#5EBCB3;" d="M170.429,314.362c-14.348,0-29.755,3.056-42.317,10.212c-8.141,4.638-16.689,12.092-18.634,21.711
	c-0.266,1.319-0.403,2.659-0.403,4.006c0,1.347,0.137,2.682,0.403,4.002c1.945,9.62,10.494,17.076,18.634,21.711
	c12.562,7.158,27.969,10.214,42.317,10.214c17.631,0,36.781,1.109,53.733,6.329c10.707,3.298,18.573,7.772,28.026,13.457
	c18.29,10.995,32.034,12.814,53.52,12.814c20.615,0,42.408-4.618,60.305-15.138c12.885-7.573,25.199-19.292,28.543-34.405
	c0.573-2.593,0.864-5.241,0.864-7.901c0-2.657-0.291-5.305-0.864-7.898c-3.344-15.114-15.659-26.833-28.543-34.405
	c-17.897-10.521-39.69-15.139-60.305-15.139c-13.213,0-26.026,1.022-39.124,2.658c-13.302,1.658-26.514,3.655-39.864,5.032
	C207.981,313.552,189.272,314.362,170.429,314.362z"/>
<path style="fill:#E5E5E5;" d="M461.139,292.414c-8.977,0-16.247,8.022-16.247,17.924h32.49
	C477.382,300.436,470.106,292.414,461.139,292.414z M48.481,288.808c-18.664,0-33.793,16.697-33.793,37.289h67.589
	C82.277,305.505,67.148,288.808,48.481,288.808z M77.693,262.679c-7.291,0-13.201,6.522-13.201,14.564h26.401
	C90.894,269.201,84.984,262.679,77.693,262.679z M184.166,412.543c-8.972,0-16.249,8.021-16.249,17.924h32.495
	C200.411,420.565,193.136,412.543,184.166,412.543z M386.895,269.606c-7.289,0-13.199,6.531-13.199,14.568h26.402
	C400.099,276.137,394.188,269.606,386.895,269.606z"/>
<path style="fill:#6EC3BB;" d="M211.921,338.204c-7.071,0-14.667,1.505-20.856,5.034c-4.013,2.284-8.228,5.958-9.185,10.699
	c-0.133,0.651-0.199,1.31-0.199,1.974c0,0.662,0.066,1.322,0.199,1.972c0.958,4.74,5.172,8.416,9.185,10.702
	c6.189,3.528,13.785,5.032,20.856,5.032c8.691,0,18.128,0.547,26.484,3.12c5.275,1.624,9.153,3.832,13.813,6.631
	c9.016,5.422,15.789,6.318,26.381,6.318c10.159,0,20.902-2.277,29.72-7.461c6.355-3.734,12.423-9.508,14.069-16.96
	c0.284-1.278,0.426-2.584,0.426-3.894c0-1.308-0.142-2.613-0.426-3.892c-1.647-7.451-7.715-13.226-14.069-16.96
	c-8.818-5.184-19.561-7.461-29.72-7.461c-6.514,0-12.83,0.504-19.282,1.31c-6.558,0.818-13.07,1.802-19.649,2.48
	C230.43,337.805,221.208,338.204,211.921,338.204z"/>
<g>
</g>
<g>
</g>
<g>
</g>
<g>
</g>
<g>
</g>
<g>
</g>
<g>
</g>
<g>
</g>
<g>
</g>
<g>
</g>
<g>
</g>
<g>
</g>
<g>
</g>
<g>
</g>
<g>
</g>
</svg>
