<?xml version="1.0" encoding="iso-8859-1"?>
<!-- Generator: Adobe Illustrator 19.0.0, SVG Export Plug-In . SVG Version: 6.00 Build 0)  -->
<svg version="1.1" id="Layer_1" xmlns="http://www.w3.org/2000/svg" xmlns:xlink="http://www.w3.org/1999/xlink" x="0px" y="0px"
	 viewBox="0 0 531.539 531.539" style="enable-background:new 0 0 531.539 531.539;" xml:space="preserve">
<g>
	<g>
		<g>
			<g>
				<path style="fill:#80E2F2;" d="M0.001,265.769c0,146.778,118.998,265.77,265.77,265.77
					c146.785,0,265.767-118.991,265.767-265.77S412.556,0,265.771,0C118.999,0,0.001,118.991,0.001,265.769z"/>
				<path style="fill:#7CB142;" d="M211.137,270.039l-13.437-9.295l-7.637-3.528l-4.134-1.915
					c88.974-50.824,219.375-83.049,320.707-101.956c15.966,34.146,24.902,72.242,24.902,112.424c0,5.671-0.172,11.279-0.527,16.859
					h-0.02c-98.909-10.34-194.204-14.312-293.693-13.46L211.137,270.039z"/>
				<path style="fill:#9BCB64;" d="M530.427,279.336c-20.842,1.892-37.138-0.602-59.934-3.133
					c-17.305-1.924-34.838,6.521-52.137,4.533c-14.396-1.657-28.19-9.314-42.571-7.538c-11.355,1.404-21.482,8.59-32.893,9.392
					c-13.994,0.983-27.057-7.763-41.083-8.079c-17.301-0.39-32.63,11.971-49.89,13.238c-14.191,1.037-28.138-5.548-42.322-4.401
					c-11.348,0.919-21.731,6.698-32.907,8.878c-18.73,3.661-37.829-2.991-56.903-3.546c-16.921-0.495-41.6,9.836-58.505,10.722
					c-22.366,1.175-40.652-8.092-60.17-2.911c0.6,5.358,1.594,9.016,2.96,14.811l0.174-0.021
					c19.979,117.074,116.739,207.941,236.626,218.943l1.003,0.094c1.581,0.129,3.173,0.261,4.762,0.376l2.108,0.133
					c1.354,0.092,2.705,0.163,4.068,0.234c0.875,0.044,1.759,0.055,2.641,0.103c1.218,0.032,2.423,0.09,3.642,0.126
					c1.407,0.023,2.811,0.034,4.222,0.044c0.685,0.016,1.384,0.028,2.068,0.028l0.307-0.005c1.988,0,3.979-0.032,5.948-0.067
					l0.951-0.02c1.876-0.062,3.738-0.131,5.596-0.22l1.585-0.071c1.654-0.099,3.315-0.204,4.961-0.321l2.335-0.181
					c1.083-0.094,2.149-0.188,3.22-0.291c118.844-11.08,214.899-100.632,235.813-216.35c2.545-9.932,2.573-13.031,3.851-28.772
					h0.011l0.289-0.009l0,0h0.007c0.036-1.001,0.059-1.982,0.078-2.969v-0.078v-0.071v-0.067v-0.154v-0.071v-0.065l0,0v-0.078
					v-0.075v-0.213v-0.076v-0.073v-0.065v-0.078h0.005v-0.075v-0.073v-0.069v-0.078v-0.071v-0.071v-0.071L530.427,279.336z"/>
				<path style="fill:#ADD37F;" d="M506.661,372.478c-43.856-8.241-87.827-25.092-132.157-21.717
					c-31.83,2.426-62.122,15.212-93.897,18.292c-67.069,6.496-133.898-30.598-200.175-18.418
					c-20.221,3.717-40.897,11.962-61.311,17.47c36.89,88.664,120.542,152.973,220.177,162.116l1.003,0.092
					c1.581,0.131,3.17,0.264,4.762,0.379l2.105,0.133c1.356,0.092,2.708,0.163,4.07,0.233c0.873,0.044,1.759,0.055,2.641,0.104
					c1.219,0.032,2.424,0.089,3.64,0.126c1.409,0.022,2.813,0.034,4.224,0.044c0.683,0.016,1.383,0.027,2.066,0.027l0.307-0.005
					c1.99,0,3.981-0.032,5.951-0.066l0.95-0.021c1.876-0.061,3.736-0.131,5.594-0.22l1.587-0.071
					c1.652-0.098,3.315-0.204,4.962-0.32l2.334-0.181c1.084-0.094,2.149-0.188,3.221-0.292
					C386.543,521.061,468.919,458.765,506.661,372.478z"/>
				<path style="fill:#9BCB64;" d="M424.504,450.875c0,0-74.131,0.806-176.924-31.806c-47.067-14.934-95.111-28.954-144.448-26.589
					c-22.547,1.079-44.965,4.494-67.154,9.188c42.25,71.023,116.755,120.61,203.32,128.556l1.003,0.094
					c1.581,0.129,3.17,0.261,4.762,0.376l2.105,0.133c1.356,0.092,2.708,0.163,4.07,0.234c0.873,0.044,1.759,0.055,2.641,0.103
					c1.219,0.032,2.424,0.09,3.64,0.126c1.409,0.023,2.813,0.034,4.224,0.044c0.683,0.016,1.383,0.028,2.066,0.028l0.307-0.005
					c1.99,0,3.981-0.032,5.951-0.067l0.95-0.02c1.876-0.062,3.736-0.131,5.594-0.22l1.587-0.071
					c1.652-0.099,3.315-0.204,4.962-0.321l2.334-0.181c1.084-0.094,2.149-0.188,3.221-0.291
					c50.787-4.735,97.409-23.814,135.788-53.129V450.875z"/>
				<path style="fill:#ADD37F;" d="M435.11,468.531c-53.498-6.675-107.217-15.496-159.423-22.102
					c-36.501-4.62-73.623-7.807-109.994-2.224c-26.145,4.013-51.31,12.465-76.133,21.751
					c40.808,35.668,92.646,59.029,149.738,64.268l1.003,0.094c1.581,0.129,3.17,0.261,4.762,0.376l2.105,0.133
					c1.356,0.092,2.708,0.163,4.07,0.234c0.873,0.044,1.759,0.055,2.641,0.103c1.219,0.032,2.424,0.09,3.64,0.126
					c1.409,0.023,2.813,0.034,4.224,0.044c0.683,0.016,1.383,0.028,2.066,0.028l0.307-0.005c1.99,0,3.981-0.032,5.951-0.067
					l0.95-0.02c1.876-0.062,3.736-0.131,5.594-0.22l1.587-0.071c1.652-0.099,3.315-0.204,4.962-0.321l2.334-0.181
					c1.084-0.094,2.149-0.188,3.221-0.291C344.277,525.003,394.859,502.668,435.11,468.531z"/>
				<path style="fill:#9BCB64;" d="M9.796,194.084l1.365,0.357l11.194,2.833c7.484,1.949,14.921,3.688,22.405,5.757l22.468,6.824
					l11.204,3.423l11.038,3.789l22.091,7.612l21.74,8.367l10.906,4.194l10.727,4.563l21.477,9.09l9.518,4.409l4.134,1.915
					l7.637,3.528l22.086,9.006l-16.355,0.545l-16.912,0.572l-13.419,0.774l-3.523,0.202l-33.951,1.998
					c-10.675,0.811-21.143,1.883-31.744,2.819c-0.518,0.048-1.029,0.099-1.546,0.147l-16.609,1.514l-4.14,0.359l-4.459,0.515
					l-8.304,0.999c-22.237,2.685-44.532,5.014-66.51,8.482l-1.301,0.193c0.476,5.546,1.122,11.043,1.933,16.487l-0.007,0.003
					c-1.929-12.917-2.939-26.136-2.939-39.591C0.001,240.93,3.421,216.89,9.796,194.084z"/>
				<path style="fill:#747474;" d="M1.014,288.87l1.301-0.193c21.978-3.468,44.273-5.797,66.51-8.482l8.304-0.999l4.459-0.515
					l4.14-0.359l16.609-1.514c0.518-0.048,1.029-0.099,1.546-0.147c10.601-0.936,21.069-2.009,31.744-2.819l33.951-1.998
					l3.523-0.202l13.419-0.774l16.912-0.572l33.867-1.127l33.801-0.289l16.95-0.151l16.912,0.257l33.83,0.485l21.802,0.807
					l12.191,0.446l16.669,0.617l16.85,0.978l33.704,2.046l33.543,2.732c11.195,0.834,22.338,1.947,33.473,3.104
					c7.983,0.838,16.003,1.594,23.988,2.428c-1.597,24.338-6.274,49.466-16.154,75.973c-2.306-0.501-4.618-1.001-6.934-1.496
					c-14.704-3.202-29.739-5.896-44.699-8.874c-15.079-2.662-30.234-5.292-45.455-7.751
					c-62.289-9.306-119.032-14.708-181.124-19.621c-29.077-2.062-57.247-3.977-84.013-5.346c-26.759-1.436-52.121-2.3-75.572-3.017
					c-23.46-0.586-45.006-0.973-64.112-1.085c-3.076-0.018-6.088-0.032-9.034-0.042C2.636,303.97,1.667,296.466,1.014,288.87z"/>
				<path style="fill:#FFED58;" d="M26.742,290.318c-8.448,0.79-16.905,1.665-25.344,2.659c0.243,2.383,0.513,4.754,0.818,7.117
					c8.39-0.985,16.797-1.862,25.206-2.65L26.742,290.318z M526.341,314.583l-1.572,6.986c-6.1-1.308-12.225-2.552-18.343-3.771
					l-2.335-0.458l1.368-7.028C512.427,311.68,519.398,313.094,526.341,314.583z M477.22,305.106
					c-11.787-2.043-23.603-3.924-35.438-5.66l-1.029,7.085l1.679,0.245c11.215,1.674,22.402,3.45,33.576,5.385L477.22,305.106z
					 M413.342,295.563c-11.866-1.503-23.747-2.859-35.643-4.089l-0.728,7.122c11.842,1.225,23.667,2.575,35.48,4.07L413.342,295.563
					z M349.122,288.788c-11.92-1.001-23.831-1.89-35.768-2.655l-0.451,7.144c11.888,0.761,23.756,1.647,35.626,2.646
					L349.122,288.788z M284.7,284.548c-11.943-0.563-23.884-0.996-35.836-1.331l-0.193,7.156c11.904,0.33,23.804,0.768,35.699,1.326
					L284.7,284.548z M220.173,282.656c-11.95-0.133-23.912-0.174-35.862-0.082l0.06,7.159c11.904-0.092,23.822-0.051,35.726,0.082
					L220.173,282.656z M155.628,282.99c-9.9-0.723-22.171-0.176-35.844,1.127l0.293,7.151c12.537-1.55,26.177-1.585,35.71-1.12
					L155.628,282.99z M91.127,285.505c-12.727-0.302-24.459,0.625-35.578,2.352l-0.211,0.016l0.552,7.137
					c10.871-1.769,23.307-2.08,35.642-2.36L91.127,285.505z"/>
			</g>
			<path style="fill:#FFFFFF;" d="M149.178,67.656c3.223,0,6.265,0.765,8.959,2.123c2.916-2.854,6.909-4.613,11.313-4.613
				c7.625,0,14.021,5.278,15.73,12.381c3.812,1.145,6.87,4.022,8.265,7.715c0.458-0.048,0.923-0.073,1.395-0.073
				c7.046,0,12.759,5.713,12.759,12.763c0,7.046-5.713,12.759-12.759,12.759c-2.199,0-4.263-0.552-6.065-1.526
				c-1.551,5.301-6.448,9.174-12.253,9.174c-3.546,0-6.755-1.448-9.068-3.781c-2.311,2.334-5.52,3.781-9.068,3.781
				c-3.37,0-6.432-1.308-8.718-3.442c-2.332,2.552-5.687,4.153-9.417,4.153c-3.491,0-6.652-1.399-8.956-3.672
				c-1.054,0.234-2.149,0.355-3.274,0.355c-8.397,0-15.203-6.806-15.203-15.203c0-8.395,6.806-15.203,15.203-15.203
				c0.46,0,0.914,0.022,1.361,0.061C130.457,75.425,138.911,67.656,149.178,67.656z"/>
			<circle style="fill:#FFFF00;" cx="245.049" cy="93.788" r="45.908"/>
			<path style="fill:#FFFFFF;" d="M291.16,75.171c3.335,0,6.483,0.79,9.268,2.197c3.019-2.952,7.149-4.776,11.708-4.776
				c7.891,0,14.506,5.463,16.277,12.812c3.942,1.186,7.108,4.162,8.551,7.982c0.474-0.05,0.956-0.075,1.444-0.075
				c7.29,0,13.203,5.912,13.203,13.205s-5.912,13.205-13.203,13.205c-2.275,0-4.412-0.572-6.277-1.58
				c-1.603,5.485-6.67,9.492-12.676,9.492c-3.67,0-6.991-1.498-9.385-3.915c-2.391,2.417-5.713,3.915-9.382,3.915
				c-3.487,0-6.659-1.353-9.02-3.562c-2.414,2.641-5.887,4.3-9.747,4.3c-3.61,0-6.883-1.45-9.268-3.801
				c-1.09,0.241-2.222,0.367-3.386,0.367c-8.691,0-15.73-7.041-15.73-15.732c0-8.686,7.039-15.73,15.73-15.73
				c0.474,0,0.944,0.023,1.409,0.064C271.788,83.209,280.536,75.171,291.16,75.171z"/>
			<g>
				<path style="fill:#9BCB64;" d="M106.971,196.127c0.135,0.527-0.339,0.978-0.488,1.104c0.891-0.717,1.315,0.161,1.315,0.161
					c1.31,0.204-0.067,1.241-0.067,1.241c-0.47,0.185-0.776-0.319-0.776-0.319c-1.194,0.589-0.522,0.928-0.522,0.928
					c0.889-0.206,0.357,0.566,0.357,0.566l-0.545,0.08l-0.65,0.35l0.032,0.233l0.493-0.066l0.053,0.384l-0.584,0.266l0.179,0.44
					c0.671,0.958-1.587,1.42-1.587,1.42c-0.357,2.877-3.049,1.842-3.681,1.556c-0.479,0.231-0.996,0.392-1.541,0.465
					c-1.377,0.185-2.685-0.172-3.731-0.911c-0.793,0.162-1.657-0.071-1.657-0.071c-0.916,0.098-0.552-1.244-0.552-1.244
					c-0.717,1.489-1.759,0.201-1.759,0.201c-0.999-1.062,0.204-1.695,0.204-1.695c-0.578-0.653,0.213-1.184,0.213-1.184
					c-1.512-0.284-1.865-1.067-1.934-1.55c-0.646-0.199-1.168-0.417-1.486-0.559c-1.177,0.561-2.46,0.956-3.814,1.141
					c-3.388,0.465-6.643-0.419-9.222-2.247c-1.968,0.392-4.105-0.163-4.105-0.163c-2.272,0.229-1.37-3.092-1.37-3.092
					c-1.219,2.545-2.819,1.821-3.697,1.122c0.158,0.781-1.711,1.171-1.711,1.171c-0.353,2.877-3.042,1.839-3.672,1.555
					c-0.474,0.225-0.999,0.385-1.548,0.458c-1.363,0.193-2.678-0.174-3.729-0.905c-0.79,0.16-1.651-0.073-1.651-0.073
					c-0.919,0.101-0.552-1.248-0.552-1.248c-0.713,1.496-1.769,0.206-1.769,0.206c-0.989-1.062,0.22-1.688,0.22-1.688
					c-0.578-0.665,0.206-1.196,0.206-1.196c-2.254-0.426-1.936-1.951-1.936-1.951c-1.035-1.342-0.018-2.497-0.018-2.497
					c-0.144-0.119-0.245-0.238-0.311-0.35c-1.273,0.112-2.492-0.239-3.468-0.935c-0.799,0.156-1.667-0.073-1.667-0.073
					c-0.923,0.101-0.559-1.253-0.559-1.253c-0.717,1.505-1.768,0.206-1.768,0.206c-1.01-1.072,0.208-1.704,0.208-1.704
					c-0.578-0.656,0.218-1.203,0.218-1.203c-2.273-0.423-1.952-1.959-1.952-1.959c-1.037-1.353-0.016-2.517-0.016-2.517
					c-0.903-0.731-0.078-1.463-0.078-1.463c-0.286-0.896,0.983-0.861,0.983-0.861c-1.269-2.424,0.985-2.699,0.985-2.699
					c0.41-1.168,1.42-0.458,1.42-0.458c0.511-1.297,2.277-0.318,2.277-0.318c-0.522-1.111,1.138-1.118,1.138-1.118
					c0.323-0.176,0.614-0.197,0.868-0.13c-0.005-0.149,0.016-0.241,0.016-0.241c-1.038-1.347-0.021-2.504-0.021-2.504
					c-0.896-0.737-0.066-1.475-0.066-1.475c-0.131-0.384,0.034-0.597,0.266-0.717c-1.004-2.334,0.611-4.167,0.611-4.167
					c-1.887-1.535-0.154-3.076-0.154-3.076c-0.619-1.874,2.055-1.814,2.055-1.814c-2.666-5.083,2.052-5.646,2.052-5.646
					c0.861-2.444,2.976-0.964,2.976-0.964c1.074-2.703,4.783-0.658,4.783-0.658c-1.097-2.323,2.387-2.345,2.387-2.345
					c2.329-1.301,3.965,1.47,3.965,1.47c1.388-1.812,2.536-2.441,3.45-2.478c-0.774-2.526,1.778-2.838,1.778-2.838
					c0.579-1.634,1.988-0.644,1.988-0.644c0.724-1.808,3.2-0.438,3.2-0.438c-0.729-1.555,1.601-1.569,1.601-1.569
					c1.564-0.871,2.652,0.983,2.652,0.983c2.772-3.615,4.126-0.197,4.126-0.197c4.702-2.309,5.468,2.053,5.468,2.053
					c0.957-1.231,2.245,0.032,3.481,1.791c0.818,1.173,0.289,2.233-0.158,2.815c0.815,0.467,1.308,1.299,1.308,1.299
					c3.66-4.776,5.44-0.261,5.44-0.261c6.206-3.053,7.213,2.712,7.213,2.712c1.258-1.627,2.96,0.034,4.6,2.366
					c1.635,2.331-0.791,4.318-0.791,4.318c1.716,1.489-0.884,2.499-0.884,2.499c1.388,1.327,0.011,2.648-0.337,2.949
					c1.64-1.335,2.444,0.293,2.444,0.293c2.424,0.392-0.121,2.318-0.121,2.318c-0.884,0.339-1.448-0.584-1.448-0.584
					c-1.2,0.591-1.391,1.045-1.315,1.335c3.035-0.704,3.574,2.359,3.574,2.359c0.857-1.111,2.025,0.025,3.149,1.622
					c1.116,1.595-0.545,2.955-0.545,2.955c1.175,1.022-0.605,1.716-0.605,1.716c0.958,0.907,0.007,1.812-0.233,2.018
					c1.131-0.923,1.674,0.193,1.674,0.193c1.661,0.272-0.078,1.594-0.078,1.594c-0.612,0.227-0.992-0.406-0.992-0.406
					c-0.44,0.218-0.681,0.41-0.802,0.57c1.12,0.451,1.36,1.803,1.36,1.803c0.671-0.878,1.587,0.018,2.478,1.28
					c0.884,1.258-0.431,2.332-0.431,2.332c0.928,0.807-0.472,1.357-0.472,1.357c0.751,0.71,0.007,1.429-0.188,1.587
					c0.898-0.724,1.324,0.151,1.324,0.151c1.308,0.215-0.062,1.258-0.062,1.258c-0.486,0.185-0.783-0.312-0.783-0.312
					c-1.203,0.592-0.536,0.923-0.536,0.923c0.907-0.199,0.371,0.58,0.371,0.58l-0.552,0.071l-0.657,0.366l0.039,0.218l0.499-0.057
					l0.046,0.375l-0.584,0.275l0.179,0.444c0.678,0.958-1.606,1.429-1.606,1.429c-0.353,2.888-3.065,1.851-3.69,1.56
					c-0.483,0.224-1.001,0.392-1.553,0.465c-1.384,0.185-2.698-0.174-3.754-0.912L106.971,196.127z"/>
				<path style="fill:#4E342E;" d="M80.505,241.683c0,0-0.24-1.384,0.149-6.095l-1.347-15.231c0,0-0.236-5.596,0.488-7.213
					c0,0,10.972-10.651,13.198-11.242c0,0,1.597-13.945,3.592-14.223l-1.991-1.175c0,0-1.784,13.172-3.08,15.18
					c0,0-5.063-19.042-4.277-21.051l-0.735,0.572c0,0,2.377,19.008,1.936,20.323l-3.237,3.34c0,0-1.109,3.363-1.78,1.837
					c0,0-6.187-3.777-3.127-23.655l-2.492-1.608l-2.06,13.084c0,0,1.434-0.005,0.797,3.317c0,0,2.524,7.909,2.13,8.691
					c0,0-0.602,3.764-2.249,2.657l-3.468-8.184c0,0-2.914-11.685-0.946-13.488l-0.751-0.941c0,0-1.304,5.797-0.255,10.033
					c0,0-5.307-5.883-6.954-5.871l0.046,1.06c0,0,1.01-2.089,6.492,5.917c0,0,3.77,10.612,3.901,12.69c0,0-0.442,6.341-0.176,7.541
					c0,0,3.299,16.935-2.142,22.031L80.505,241.683z"/>
			</g>
			<g>
				<path style="fill:#BBBBBB;" d="M132.706,261.424c-0.216,3.793-3.459,6.694-7.248,6.478l-5.22-0.297l-0.359-0.03
					c-1.486-4.12-2.939-8.253-4.336-12.415c1.353-1.512,3.353-2.418,5.534-2.295l5.223,0.295c3.786,0.218,6.679,3.466,6.464,7.257
					L132.706,261.424z"/>
				<path style="fill:#F3501E;" d="M120.524,252.875c25.999-12.992,91.257-50.755,150.394-30.923c0,0,12.596,3.762,32.048,21.825
					c0,0,112.025,0.131,130.504,35.447c0,0-11.921,17.799-95.611,17.278c0,0-135.424-6.347-170.488-9.289
					c0,0-10.895,0.421-25.158-9.661c-6.496-4.593-13.254-9.289-17.993-13.387C122.955,260.414,121.718,256.655,120.524,252.875z"/>
				<path style="fill:#333333;" d="M383.266,294.574c1.047-0.359,4.76-0.254,4.755-0.54c-0.284-12.796-13.295-25.614-28.207-26.461
					c-16.611-0.946-30.827,11.469-31.789,28.372l55.401,3.253L383.266,294.574z"/>
				<path style="fill:#424242;" d="M332.753,296.313c-0.797,13.998,9.909,25.985,23.903,26.782
					c13.993,0.795,25.973-9.9,26.771-23.898c0.795-13.993-9.895-25.978-23.889-26.775
					C345.546,271.627,333.55,282.319,332.753,296.313z"/>
				<path style="fill:#FFFFFF;" d="M338.757,296.654c-0.607,10.679,7.552,19.832,18.24,20.442
					c10.672,0.607,19.823-7.562,20.43-18.24c0.607-10.679-7.557-19.819-18.231-20.425
					C348.508,277.822,339.363,285.977,338.757,296.654z"/>
				<g>
					<path style="fill:#BBBBBB;" d="M342.715,296.88c-0.483,8.501,6.01,15.769,14.506,16.252
						c8.487,0.483,15.764-6.001,16.247-14.502c0.483-8.491-6.01-15.776-14.497-16.259
						C350.475,281.889,343.198,288.389,342.715,296.88z"/>
					<path style="fill:#BBBBBB;" d="M209.384,241.679l-8.594-21.325c-19.582,4.405-37.763,11.769-52.707,18.758
						C189.761,244.934,209.384,241.679,209.384,241.679z"/>
					<path style="fill:#BBBBBB;" d="M218.16,223.43c0,0,11.357,22.208,27.261,23.112c0,0,37.843,4.69,57.364-2.925
						c-15.764-14.598-26.993-19.795-30.61-21.216C253.958,221.917,218.808,221.258,218.16,223.43z"/>
				</g>
				<g>
					<path style="fill:#333333;" d="M255.184,258.845c-0.067,1.159-1.07,2.055-2.226,1.988l-10.528-0.6
						c-1.171-0.067-2.052-1.068-1.988-2.226c0.067-1.169,1.058-2.052,2.226-1.986l10.528,0.598
						C254.354,256.685,255.25,257.677,255.184,258.845z"/>
					<path style="fill:#333333;" d="M222.899,290.987c1.072-0.268,4.763,0.154,4.783-0.133
						c0.809-12.775-11.066-26.652-25.852-28.766c-16.47-2.358-31.691,8.803-34.089,25.563l54.922,7.955L222.899,290.987z"/>
				</g>
				<path style="fill:#424242;" d="M172.421,288.421c-1.984,13.879,7.662,26.734,21.536,28.717
					c13.874,1.984,26.723-7.653,28.706-21.532c1.986-13.875-7.647-26.727-21.521-28.711
					C187.269,264.912,174.407,274.547,172.421,288.421z"/>
				<path style="fill:#FFFFFF;" d="M178.374,289.273c-1.514,10.587,5.837,20.403,16.435,21.917
					c10.583,1.513,20.394-5.846,21.908-16.435c1.514-10.587-5.844-20.387-16.426-21.9
					C189.692,271.338,179.888,278.686,178.374,289.273z"/>
				<path style="fill:#BBBBBB;" d="M182.298,289.835c-1.205,8.429,4.648,16.222,13.073,17.427
					c8.414,1.205,16.218-4.639,17.423-13.068c1.205-8.418-4.648-16.227-13.062-17.432
					C191.307,275.557,183.503,281.414,182.298,289.835z"/>
			</g>
		</g>
	</g>
</g>
<g>
</g>
<g>
</g>
<g>
</g>
<g>
</g>
<g>
</g>
<g>
</g>
<g>
</g>
<g>
</g>
<g>
</g>
<g>
</g>
<g>
</g>
<g>
</g>
<g>
</g>
<g>
</g>
<g>
</g>
</svg>
