<?xml version="1.0" encoding="iso-8859-1"?>
<!-- Generator: Adobe Illustrator 19.0.0, SVG Export Plug-In . SVG Version: 6.00 Build 0)  -->
<svg version="1.1" id="Layer_1" xmlns="http://www.w3.org/2000/svg" xmlns:xlink="http://www.w3.org/1999/xlink" x="0px" y="0px"
	 viewBox="0 0 512 512" style="enable-background:new 0 0 512 512;" xml:space="preserve">
<path style="fill:#B1E9F1;" d="M255.998,0C397.386,0,512,114.614,512,255.998C512,397.386,397.386,512,255.998,512
	C114.614,512,0,397.386,0,255.998C0,114.614,114.614,0,255.998,0z"/>
<path style="fill:#FFFF00;" d="M193.456,14.865c31.685,0,57.367,25.682,57.367,57.367s-25.682,57.367-57.367,57.367
	s-57.367-25.682-57.367-57.367S161.771,14.865,193.456,14.865z"/>
<g>
	<path style="fill:#FFFFFF;" d="M116.894,70.313c4.239,0,8.236,1.01,11.777,2.791c3.828-3.75,9.077-6.066,14.865-6.066
		c10.022,0,18.428,6.939,20.671,16.272c5.011,1.507,9.031,5.29,10.863,10.146c0.603-0.069,1.215-0.101,1.832-0.101
		c9.26,0,16.77,7.51,16.77,16.774c0,9.26-7.51,16.77-16.77,16.77c-2.887,0-5.601-0.726-7.971-2.01
		c-2.037,6.971-8.469,12.06-16.103,12.06c-4.659,0-8.871-1.9-11.914-4.975c-3.042,3.074-7.259,4.975-11.918,4.975
		c-4.427,0-8.456-1.722-11.457-4.522c-3.065,3.353-7.473,5.454-12.38,5.454c-4.586,0-8.743-1.836-11.763-4.824
		c-1.389,0.311-2.832,0.466-4.308,0.466c-11.037,0-19.981-8.944-19.981-19.981S78.051,93.56,89.088,93.56
		c0.603,0,1.201,0.032,1.786,0.087C92.29,80.522,103.399,70.313,116.894,70.313z"/>
	<path style="fill:#FFFFFF;" d="M291.286,30.451c4.235,0,8.232,1.01,11.772,2.791c3.828-3.75,9.077-6.066,14.865-6.066
		c10.022,0,18.428,6.939,20.675,16.272c5.007,1.507,9.027,5.29,10.863,10.146c0.598-0.069,1.211-0.1,1.832-0.1
		c9.255,0,16.77,7.51,16.77,16.774c0,9.26-7.515,16.77-16.77,16.77c-2.892,0-5.605-0.726-7.971-2.01
		c-2.042,6.971-8.474,12.06-16.107,12.06c-4.655,0-8.871-1.9-11.909-4.975c-3.042,3.074-7.259,4.975-11.918,4.975
		c-4.431,0-8.46-1.722-11.461-4.522c-3.061,3.353-7.473,5.454-12.375,5.454c-4.591,0-8.748-1.836-11.767-4.824
		c-1.389,0.311-2.832,0.466-4.303,0.466c-11.041,0-19.981-8.944-19.981-19.981s8.94-19.981,19.981-19.981
		c0.598,0,1.197,0.032,1.782,0.087C266.683,40.661,277.792,30.451,291.286,30.451z"/>
</g>
<path style="fill:#388D3C;" d="M19.648,157.509c9.177-0.767,18.167-0.365,15.934,4.632c-1.955,4.385-12.983,11.968-24.43,18.935
	c-1.526,4.993-2.901,10.05-4.125,15.171c6.318,0.877,10.826,3.161,8.574,8.3c-1.603,3.654-6.459,8.003-12.635,12.37
	c-1.042,6.784-1.8,13.663-2.298,20.611c8.067,0.946,12.494,3.728,6.29,10.155c-1.832,1.9-4.184,3.942-6.925,6.071
	C0.023,254.504,0,255.249,0,255.998c0,3.732,0.096,7.437,0.256,11.128h511.488c0.059-1.38,0.119-2.759,0.155-4.148
	c-0.516-0.557-1.005-1.105-1.457-1.64c-1.402-1.676-2.174-3.088-2.426-4.271c1.846,0.466,3.207,0.831,3.956,1.032v-0.192
	c-0.749-0.429-2.12-1.215-3.988-2.293c0.306-1.535,1.754-2.563,3.97-3.207c-0.128-9.301-0.749-18.483-1.841-27.523
	c-2.476-2.558-4.267-4.979-5.016-7.108c-1.165-3.298,0.233-5.317,3.006-6.487c-1.357-7.693-3.065-15.267-5.093-22.704
	c-7.441-5.655-13.444-11.009-14.641-14.33c-1.32-3.664,2.91-4.628,8.762-4.399c-7.309-20.451-17.14-39.711-29.126-57.385
	c-5.121,8.552-11.959,19.835-22.411,31.904c-12.841-8.657-27.299-19.332-29.227-24.691c-3.568-9.881,33.256-0.169,33.256-0.169
	c-31.008-26.066-42.392-53.356-49.943-67.7c-8.615,13.86-22.041,40.391-54.95,64.525c0,0,37.472-7.464,33.169,2.184
	c-2.988,6.701-27.18,20.876-41.661,28.903c-21.15-21.941-30.214-43.146-36.559-55.206c-4.23,6.802-9.62,16.66-17.907,27.788
	c-12.791-8.634-27.121-19.232-29.044-24.567c-3.568-9.881,33.261-0.164,33.261-0.164c-31.013-26.07-42.397-53.356-49.948-67.704
	c-8.615,13.86-22.041,40.396-54.95,64.525c0,0,37.477-7.46,33.169,2.184c-2.878,6.459-25.463,19.867-40.058,28.016
	c-13.878-17.446-20.863-33.37-26.038-43.21c-8.62,13.86-22.041,40.391-54.955,64.525c0,0,37.477-7.464,33.174,2.184
	c-1.718,3.846-10.406,10.15-20.246,16.345c-30.122-25.769-41.319-52.543-48.774-66.708c-5.509,8.862-12.987,22.914-26.276,38.203
	C26.874,141.361,23.06,149.332,19.648,157.509z M446.251,177.504c-4.025-3.161-7.528-6.309-9.972-9.205
	c8.305-0.507,15.664,0.219,13.627,4.797C449.348,174.338,448.065,175.836,446.251,177.504z M346.373,254.938
	c-3.216-2.764-5.939-5.39-7.935-7.77c-0.461-0.544-0.841-1.06-1.174-1.549c6.085,1.306,9.826,3.892,9.246,8.41
	C346.474,254.335,346.428,254.636,346.373,254.938z M339.599,212.208c-3.248-3.111-5.614-6.057-6.51-8.597
	c-2.581-7.309,7.409-8.341,17.066-7.761c2.713,1.613,2.992,4.203-0.882,8.218C346.858,206.575,343.528,209.33,339.599,212.208z
	 M336.931,178.778c-10-7.145-19.067-14.522-20.57-18.688c-3.563-9.881,33.261-0.169,33.261-0.169
	c-3.07-2.581-5.948-5.171-8.643-7.761c9.826-0.05,20.113,1.512,16.934,8.766C355.638,166.124,346.789,172.712,336.931,178.778z
	 M223.98,262.946l-2.695-1.772c1.421,0.32,2.64,0.717,3.632,1.192L223.98,262.946z M269.716,134.527
	c0.238-0.347,0.534-0.667,0.882-0.955L269.716,134.527z M172.063,155.289c-3.764-3.303-6.459-6.226-7.218-8.332
	c-2.302-6.373,12.211-4.596,22.799-2.526C183.474,147.998,177.906,151.749,172.063,155.289z M191.386,140.849
	c-4.646-4.326-8.794-8.657-12.503-12.928c9.324,0.123,18.405,1.887,15.395,8.766C193.702,137.994,192.706,139.392,191.386,140.849z
	 M105.652,189.586c-4.751-3.161-9.853-6.674-14.554-10.15c9.292,0.137,18.304,1.914,15.299,8.762
	C106.2,188.65,105.944,189.116,105.652,189.586z M84.844,174.63c-5.596-4.509-9.812-8.602-10.794-11.329
	c-3.065-8.488,23.695-2.512,31.287-0.662C98.306,167.038,90.773,171.341,84.844,174.63z"/>
<path style="fill:#429F46;" d="M353.568,145.984c4.819,1.133,9.173,3.371,11.201,7.748c1.517,3.275,1.247,6.87-0.174,10.123
	c-3.636,8.296-16.304,16.495-23.841,21.137l-4.125,2.54l-3.938-2.819c-6.5-4.641-20.456-14.568-23.188-22.151
	c-0.964-2.659-0.95-5.514,0.352-8.063c2.531-4.975,9.228-6.322,16.706-6.071l-3.618-3.472l1.188-0.005
	c-6.706-7.825-12.672-16.189-17.989-25.093c-2.526-4.235-4.797-8.497-7.017-12.791c-3.595,5.843-7.254,11.585-11.503,17.295
	l-4.157,5.587l-5.774-3.892c-8.058-5.441-28.555-19.072-31.826-28.14c-0.959-2.663-0.946-5.514,0.356-8.067
	c2.599-5.116,9.62-6.395,17.368-6.039c-6.418-7.09-12.247-14.691-17.5-22.827c-3.988-6.176-7.318-12.334-10.58-18.597
	c-3.746,6.076-7.547,12.042-12,17.976c-5.838,7.775-12.206,14.979-19.113,21.639c6.733-0.055,14.157,1.133,16.728,7.09
	c1.151,2.663,0.964,5.546-0.206,8.159c-3.184,7.14-18.674,17.222-31.004,24.49c4.787,1.115,9.173,3.335,11.215,7.748
	c1.517,3.271,1.252,6.866-0.169,10.114l2.896,0.562l-8.908,7.62l-3.115,3.44l-0.443-0.411c-4.81,3.97-10.242,7.501-15.545,10.712
	l-4.573,2.768l-4.015-3.522c-3.358-2.942-7.729-7.067-9.269-11.338c-0.964-2.659-0.946-5.505,0.347-8.054
	c2.819-5.541,10.109-6.537,17.336-6.085c-0.772-0.854-1.539-1.718-2.293-2.586l-0.936-1.078l-0.096,0.055l-1.503-1.896l-8.159-9.378
	l0.964,0.014c-6.309-8.798-11.096-17.35-15.984-26.582c-3.755,6.098-7.565,12.078-12.037,18.035
	c-5.838,7.775-12.206,14.979-19.113,21.639c6.733-0.055,14.157,1.128,16.733,7.09c1.151,2.659,0.959,5.546-0.206,8.159
	c-1.539,3.449-5.55,7.24-10,10.685l0.827,0.201l-14.668,9.173c-0.009,0.009-0.023,0.014-0.032,0.023l-3.691,2.325l-0.037-0.027
	c-1.156,0.703-2.316,1.398-3.481,2.092c4.815,1.105,9.237,3.33,11.288,7.766c0.667,1.444,0.991,2.946,1.023,4.458l25.102-8.73
	l-31.022,22.329l-0.475,0.763l-0.306-0.201l-8.844,6.368c-1.215,0.877-2.453,1.731-3.705,2.563l-28.624,19.104l18.414-29.072
	c1.695-2.672,4.317-4.381,7.259-5.404l3.878-1.348c-3.097-2.129-6.162-4.299-9.187-6.528l-2.627-1.941l-0.046,0.023l-0.895-0.717
	l-14.682-10.849l2.563,0.037c-1.731-1.983-3.157-4.052-3.887-6.08c-0.959-2.659-0.941-5.505,0.352-8.054
	c2.65-5.212,9.703-6.446,17.363-6.066c-6.537-7.227-12.466-14.979-17.793-23.284c-3.878-6.048-7.135-12.078-10.324-18.209
	c-8.812,14.001-16.971,25.901-30.013,38.683c-0.16,0.343-0.32,0.681-0.48,1.023c6.583,0.018,13.659,1.302,16.157,7.094
	c1.147,2.659,0.955,5.537-0.21,8.15c-3.499,7.843-20.959,18.496-30.291,24.005c-0.055,0.201-0.11,0.407-0.164,0.612
	c4.513,1.137,8.679,3.326,10.667,7.615c1.517,3.275,1.252,6.875-0.174,10.128c-2.814,6.423-10.872,12.59-17.295,16.925
	c-0.26,2.092-0.498,4.184-0.708,6.286c5.249,0.973,10.351,3.143,12.247,8.209c1.969,5.253-0.731,10.137-4.312,13.851
	c-2.444,2.535-5.24,4.892-8.104,7.085h201.861l-22.27-14.636l39.195,8.867c1.777,0.402,3.554,0.946,5.194,1.74l8.355,4.029h104.441
	c-2.828-2.462-5.628-5.112-8.031-7.971c-0.585-0.694-1.133-1.416-1.635-2.165l-10.096-15.006l17.679,3.801
	c8.346,1.795,16.18,6.82,14.947,16.464c-0.055,0.439-0.123,0.868-0.201,1.302l-0.653,3.577h147.829l-0.895-0.516l0.585-2.965
	l-1.964-9.241l5.582,1.416c1.338-1.197,2.974-2.078,4.742-2.713c-0.169-4.299-0.439-8.588-0.822-12.873
	c-3.924-3.559-8.067-8.022-9.73-12.731c-2.485-7.039,0.521-12.074,5.687-14.878c-0.566-2.796-1.188-5.578-1.85-8.351
	c-6.907-5.002-18.126-13.544-20.547-20.246c-0.959-2.659-0.941-5.505,0.356-8.054c1.855-3.655,5.431-5.267,9.387-5.865
	c-5.619-14.179-12.526-27.824-20.611-40.757c-5.888,9.424-11.863,18.236-19.533,27.094l-4.235,4.888l-5.358-3.613
	c-8.09-5.459-28.729-19.168-32.009-28.263c-0.959-2.663-0.946-5.514,0.352-8.067c2.608-5.116,9.62-6.395,17.368-6.044
	c-6.414-7.085-12.243-14.687-17.5-22.822c-3.988-6.176-7.318-12.334-10.58-18.597c-3.741,6.076-7.542,12.037-12,17.976
	c-5.833,7.77-12.201,14.974-19.113,21.639c6.733-0.055,14.161,1.128,16.733,7.09c1.151,2.659,0.959,5.546-0.206,8.159
	C381.397,128.584,366.149,138.569,353.568,145.984z M435.84,161.017c6.861-0.416,17.665-0.672,20.931,6.898
	c1.147,2.659,0.955,5.541-0.206,8.15c-1.165,2.613-3.294,4.888-5.377,6.807l-4.564,4.203l-4.883-3.837
	c-3.874-3.047-7.862-6.464-11.041-10.242l-9.342-11.101L435.84,161.017z M334.556,217.475c-3.28-3.147-6.816-7.099-8.346-11.439
	c-1.174-3.326-1.179-6.861,0.53-10.013c4.276-7.889,16.084-7.921,23.855-7.451l1.763,0.105l1.521,0.9
	c8.177,4.851,6.5,13.481,0.644,19.552c-3.175,3.294-6.925,6.258-10.612,8.958l-4.938,3.618L334.556,217.475z M263.681,130.429
	c0.63-0.932,1.398-1.754,2.261-2.471l5.253-4.358l9.387,9.908l-10.105,10.945l-10.603-8.424L263.681,130.429z"/>
<path style="fill:#7FC583;" d="M0.256,267.126h511.488C505.92,403.347,393.658,512,255.998,512
	C118.342,512,6.08,403.347,0.256,267.126z"/>
<path style="fill:#66B96A;" d="M248.995,303.447c117.15,0,212.121,17.231,212.121,38.482c0,21.255-94.971,38.486-212.121,38.486
	c-117.154,0-212.125-17.231-212.125-38.486C36.869,320.678,131.841,303.447,248.995,303.447z"/>
<path style="fill:#FF8964;" d="M139.762,137.82h189.851c41.638,0,75.703,34.064,75.703,75.703v121.243H64.059V213.523
	C64.059,171.885,98.123,137.82,139.762,137.82z"/>
<path style="fill:#F3501E;" d="M139.762,137.82h189.851c16.322,0,31.484,5.24,43.886,14.115H95.876
	C108.274,143.06,123.435,137.82,139.762,137.82z"/>
<path style="fill:#FFFFFF;" d="M405.316,281.314v11.018h-86.511v-11.018H405.316z M256.706,292.333H64.059v-11.018h192.647V292.333z
	"/>
<path style="fill:#F3F3F3;" d="M56.393,323.748h200.312v11.018H56.393c-3.029,0-5.509-2.476-5.509-5.509l0,0
	C50.884,326.228,53.365,323.748,56.393,323.748z M318.805,323.748h90.453c3.029,0,5.509,2.48,5.509,5.509l0,0
	c0,3.033-2.48,5.509-5.509,5.509h-90.453V323.748z"/>
<g>
	<path style="fill:#424242;" d="M195.479,335.319c1.384-0.429,6.245-0.151,6.249-0.525c0.114-16.788-16.459-34.078-35.979-35.755
		c-21.74-1.864-40.844,13.873-42.744,35.997L195.479,335.319z"/>
	<path style="fill:#606060;" d="M129.191,335.693c-1.571,18.323,12.01,34.444,30.323,36.015c18.314,1.567,34.425-12,35.997-30.319
		c1.571-18.318-11.987-34.435-30.305-36.006C146.893,303.812,130.763,317.38,129.191,335.693z"/>
	<path style="fill:#FFFFFF;" d="M137.048,336.369c-1.197,13.978,9.155,26.285,23.142,27.486
		c13.969,1.197,26.271-9.168,27.473-23.142c1.197-13.974-9.164-26.262-23.128-27.464
		C150.543,312.049,138.25,322.395,137.048,336.369z"/>
	<path style="fill:#BBBBBB;" d="M142.229,336.817c-0.955,11.123,7.286,20.899,18.405,21.849c11.11,0.955,20.895-7.272,21.849-18.396
		c0.95-11.114-7.286-20.908-18.396-21.858C152.968,317.457,143.183,325.703,142.229,336.817z"/>
</g>
<path style="fill:#FFFFFF;" d="M287.755,201.619L287.755,201.619c17.08,0,31.05,13.969,31.05,31.05v102.098h-62.099V232.668
	C256.706,215.588,270.675,201.619,287.755,201.619z"/>
<path style="fill:#4EC1F5;" d="M287.755,211.376c12.823,0,23.215,10.392,23.215,23.211c0,12.823-10.392,23.215-23.215,23.215
	c-12.818,0-23.211-10.392-23.211-23.215C264.545,221.769,274.937,211.376,287.755,211.376z"/>
<path style="fill:#FFED58;" d="M64.132,210.339h202.103c-5.865,5.66-9.529,13.586-9.529,22.329v48.646H64.059v-67.791
	C64.059,212.459,64.086,211.399,64.132,210.339z M309.276,210.339h95.967c0.046,1.06,0.073,2.12,0.073,3.184v67.791h-86.511v-48.646
	C318.805,223.925,315.146,215.999,309.276,210.339z"/>
<polygon style="fill:#D74214;" points="97.013,186.978 204.067,186.978 204.067,254.988 97.013,254.988 "/>
<polygon style="fill:#4EC1F5;" points="105.592,195.054 195.493,195.054 195.493,246.912 105.592,246.912 "/>
<path style="fill:#DFF3FD;" d="M140.159,195.054h26.701l-28.647,51.857h-26.701L140.159,195.054z M173.922,195.054h14.499
	l-28.647,51.857h-14.499L173.922,195.054z"/>
<polygon style="fill:#D74214;" points="338.388,196.292 382.608,196.292 382.608,224.391 338.388,224.391 "/>
<polygon style="fill:#4EC1F5;" points="341.929,199.632 379.068,199.632 379.068,221.052 341.929,221.052 "/>
<path style="fill:#DFF3FD;" d="M356.218,199.632h9.885l-11.831,21.42h-9.89L356.218,199.632z M368.716,199.632h5.372l-11.831,21.42
	h-5.372L368.716,199.632z"/>
<path style="fill:#E5E5E5;" d="M146.897,137.82h75.168c3.924,0,7.135-3.211,7.135-7.135v-0.005c0-3.924-3.211-7.135-7.135-7.135
	h-75.168c-3.924,0-7.135,3.211-7.135,7.135v0.005C139.762,134.609,142.973,137.82,146.897,137.82z"/>
<path style="fill:#747474;" d="M53.031,200.728L53.031,200.728c6.066,0,11.027,4.961,11.027,11.027v69.55
	c0,6.066-4.961,11.027-11.027,11.027l0,0c-6.066,0-11.023-4.961-11.023-11.027v-69.55C42.008,205.689,46.965,200.728,53.031,200.728
	z"/>
<path style="fill:#EDEDED;" d="M42.008,271.854c-11.082-3.385-19.14-13.691-19.14-25.878c0-12.188,8.058-22.493,19.14-25.883
	V271.854z"/>
<polygon style="fill:#F9F9F9;" points="405.316,307.631 478.337,307.631 478.337,314.73 405.316,314.73 "/>
<polygon style="fill:#747474;" points="468.872,295.215 478.337,295.215 478.337,351.398 468.872,351.398 "/>
<polygon style="fill:#FF7042;" points="458.078,295.215 489.132,295.215 489.132,287.079 458.078,287.079 "/>
<polygon style="fill:#F3F3F3;" points="256.706,329.307 318.805,329.307 318.805,340.325 256.706,340.325 "/>
<polygon style="fill:#E5E5E5;" points="248.707,340.325 326.804,340.325 326.804,351.344 248.707,351.344 "/>
<path style="fill:#6C4C40;" d="M266.299,277.829c3.184,0,5.77,2.581,5.77,5.77c0,3.184-2.586,5.765-5.77,5.765
	s-5.765-2.581-5.765-5.765C260.534,280.41,263.115,277.829,266.299,277.829z"/>
<path style="fill:#FFFFFF;" d="M264.289,280.561c1.051,0,1.9,0.854,1.9,1.909c0,1.051-0.85,1.9-1.9,1.9
	c-1.055,0-1.909-0.85-1.909-1.9C262.379,281.415,263.234,280.561,264.289,280.561z"/>
<g>
	<polygon style="fill:#9F877E;" points="318.805,233.655 321.619,233.655 321.619,247.035 318.805,247.035 	"/>
	<polygon style="fill:#9F877E;" points="318.805,296.832 321.619,296.832 321.619,310.208 318.805,310.208 	"/>
</g>
<path style="fill:#DFF3FD;" d="M301.601,215.954l-24.439,39.295c-3.353-1.727-6.231-4.239-8.392-7.3l22.58-36.298
	C295.151,212.244,298.646,213.752,301.601,215.954z M303.835,217.849c1.526,1.462,2.85,3.138,3.933,4.97l-21.721,34.919
	c-2.165-0.16-4.244-0.612-6.199-1.32L303.835,217.849z"/>
<g>
</g>
<g>
</g>
<g>
</g>
<g>
</g>
<g>
</g>
<g>
</g>
<g>
</g>
<g>
</g>
<g>
</g>
<g>
</g>
<g>
</g>
<g>
</g>
<g>
</g>
<g>
</g>
<g>
</g>
</svg>
