<?xml version="1.0" encoding="iso-8859-1"?>
<!-- Generator: Adobe Illustrator 19.0.0, SVG Export Plug-In . SVG Version: 6.00 Build 0)  -->
<svg version="1.1" id="Layer_1" xmlns="http://www.w3.org/2000/svg" xmlns:xlink="http://www.w3.org/1999/xlink" x="0px" y="0px"
	 viewBox="0 0 512 512" style="enable-background:new 0 0 512 512;" xml:space="preserve">
<path style="fill:#8FC9F7;" d="M255.998,0C397.386,0,512,114.614,512,255.998C512,397.386,397.386,512,255.998,512
	C114.614,512,0,397.386,0,255.998C0,114.614,114.614,0,255.998,0z"/>
<path style="fill:#ADD37F;" d="M58.728,419.157h394.544C406.316,475.871,335.378,512,255.998,512
	C176.622,512,105.684,475.871,58.728,419.157z"/>
<polygon style="fill:#8B6E62;" points="141.173,453.208 370.274,453.208 370.274,442.56 141.173,442.56 "/>
<g>
	<polygon style="fill:#F9F9F9;" points="323.665,279.103 369.881,279.103 369.881,375.13 323.665,375.13 	"/>
	<polygon style="fill:#F9F9F9;" points="141.192,279.103 187.407,279.103 187.407,375.13 141.192,375.13 	"/>
	<polygon style="fill:#F9F9F9;" points="218.091,191.975 293.356,191.975 293.356,352.408 218.091,352.408 	"/>
	<polygon style="fill:#F9F9F9;" points="141.173,371.558 255.66,340.8 370.141,371.183 370.141,442.56 141.173,442.56 	"/>
</g>
<polygon style="fill:#785448;" points="255.998,331.317 121.256,367.3 121.256,376.875 255.998,340.892 390.744,376.875 
	390.744,367.3 "/>
<g>
	<path style="fill:#FFFFFF;" d="M255.669,350.649c8.771,0,15.883,5.162,15.883,11.53c0,0.055,0,0.11,0,0.169l0,0v23.421h-31.771
		v-23.421l0,0c0-0.059,0-0.114,0-0.169C239.781,355.811,246.893,350.649,255.669,350.649z"/>
	<polygon style="fill:#FFFFFF;" points="182.487,390.739 214.263,390.739 214.263,424.813 182.487,424.813 	"/>
</g>
<polygon style="fill:#B9DDF9;" points="185.137,392.16 211.614,392.16 211.614,423.392 185.137,423.392 "/>
<polygon style="fill:#FFFFFF;" points="196.982,392.16 199.769,392.16 199.769,401.744 211.614,401.744 211.614,403.164 
	199.769,403.164 199.769,412.392 211.614,412.392 211.614,413.813 199.769,413.813 199.769,423.392 196.982,423.392 
	196.982,413.813 185.137,413.813 185.137,412.392 196.982,412.392 196.982,403.164 185.137,403.164 185.137,401.744 
	196.982,401.744 "/>
<polygon style="fill:#B9DDF9;" points="242.426,361.636 268.907,361.636 268.907,383.64 242.426,383.64 "/>
<g>
	<polygon style="fill:#FFFFFF;" points="254.271,352.065 257.062,352.065 257.062,383.64 254.271,383.64 	"/>
	<polygon style="fill:#FFFFFF;" points="242.426,371.663 268.907,371.663 268.907,373.083 242.426,373.083 	"/>
</g>
<path style="fill:#B9DDF9;" d="M242.339,360.215h26.655c-1.055-4.691-6.701-8.182-13.325-8.182
	C249.04,352.033,243.394,355.523,242.339,360.215z"/>
<path style="fill:#FFFFFF;" d="M266.696,356.163l-7.295,4.052h-3.115h-1.101h-3.161l-7.414-4.025
	c0.548-0.562,1.174-1.078,1.868-1.539l7.793,4.23v-6.793c0.055-0.005,0.105-0.009,0.16-0.014h0.005l0,0h0.005
	c0.059,0,0.119-0.005,0.183-0.009h2.088c0.059,0.005,0.123,0.009,0.183,0.009h0.005l0,0h0.009c0.05,0.005,0.105,0.009,0.155,0.014
	v6.852l7.766-4.312C265.518,355.089,266.148,355.606,266.696,356.163z"/>
<polygon style="fill:#EDEDED;" points="234.697,401.707 255.724,395.759 276.751,401.707 276.751,442.56 234.697,442.56 "/>
<polygon style="fill:#785448;" points="255.724,391.621 229.667,399.021 229.667,403.155 255.724,395.759 281.78,403.155 
	281.78,399.021 "/>
<polygon style="fill:#6C4C40;" points="242.394,404.937 269.053,404.937 269.053,442.56 242.394,442.56 "/>
<polygon style="fill:#8B6E62;" points="246.236,406.929 265.212,406.929 265.212,440.568 246.236,440.568 "/>
<g>
	<polygon style="fill:#6C4C40;" points="254.6,406.929 256.847,406.929 256.847,440.568 254.6,440.568 	"/>
	<polygon style="fill:#6C4C40;" points="246.236,422.574 265.212,422.574 265.212,424.922 246.236,424.922 	"/>
</g>
<g>
	<path style="fill:#FFFFFF;" d="M244.038,423.113c0.288,0,0.544,0.091,0.717,0.238h3.125v0.914h-3.093
		c-0.178,0.164-0.448,0.265-0.749,0.265c-0.53,0-0.964-0.32-0.964-0.708C243.074,423.429,243.508,423.113,244.038,423.113z"/>
	<polygon style="fill:#FFFFFF;" points="232.559,449.659 278.889,449.659 278.889,442.56 232.559,442.56 	"/>
</g>
<polygon style="fill:#F9F9F9;" points="227.15,449.659 284.297,449.659 284.297,456.758 227.15,456.758 "/>
<g>
	<polygon style="fill:#FFFFFF;" points="220.037,463.857 291.41,463.857 291.41,456.758 220.037,456.758 	"/>
	<polygon style="fill:#FFFFFF;" points="299.961,390.739 331.733,390.739 331.733,424.813 299.961,424.813 	"/>
</g>
<polygon style="fill:#B9DDF9;" points="302.606,392.16 329.083,392.16 329.083,423.392 302.606,423.392 "/>
<polygon style="fill:#FFFFFF;" points="314.456,392.16 317.243,392.16 317.243,401.744 329.083,401.744 329.083,403.164 
	317.243,403.164 317.243,412.392 329.083,412.392 329.083,413.813 317.243,413.813 317.243,423.392 314.456,423.392 
	314.456,413.813 302.606,413.813 302.606,412.392 314.456,412.392 314.456,403.164 302.606,403.164 302.606,401.744 
	314.456,401.744 "/>
<polygon style="fill:#EDEDED;" points="210.728,260.835 300.72,260.835 300.72,266.514 210.728,266.514 "/>
<polygon style="fill:#F3F3F3;" points="213.45,272.192 297.997,272.192 297.997,266.514 213.45,266.514 "/>
<polygon style="fill:#EDEDED;" points="210.728,191.975 300.72,191.975 300.72,197.654 210.728,197.654 "/>
<polygon style="fill:#F3F3F3;" points="213.45,203.336 297.997,203.336 297.997,197.654 213.45,197.654 "/>
<g>
	<polygon style="fill:#785448;" points="218.091,191.975 293.356,191.975 255.459,125.249 	"/>
	<polygon style="fill:#785448;" points="251.297,50.528 260.15,50.528 260.15,135.002 251.297,135.002 	"/>
	<polygon style="fill:#785448;" points="236.611,69.079 274.837,69.079 274.837,76.361 236.611,76.361 	"/>
</g>
<path style="fill:#FFFFFF;" d="M255.724,281.798c10.452,0,18.926,6.149,18.926,13.732c0,0.069-0.005,0.132-0.005,0.201h0.005v27.902
	h-37.851v-27.902h0.005c-0.005-0.069-0.005-0.132-0.005-0.201C236.798,287.947,245.272,281.798,255.724,281.798z"/>
<polygon style="fill:#B9DDF9;" points="239.954,294.886 271.493,294.886 271.493,321.098 239.954,321.098 "/>
<g>
	<polygon style="fill:#FFFFFF;" points="254.061,283.484 257.386,283.484 257.386,321.098 254.061,321.098 	"/>
	<polygon style="fill:#FFFFFF;" points="239.954,306.827 271.493,306.827 271.493,308.517 239.954,308.517 	"/>
</g>
<path style="fill:#B9DDF9;" d="M239.849,293.191h31.748c-1.256-5.582-7.98-9.739-15.874-9.739S241.106,287.609,239.849,293.191z"/>
<g>
	<path style="fill:#FFFFFF;" d="M268.875,288.372l-8.689,4.819h-3.714h-1.306h-3.764l-8.83-4.792
		c0.649-0.667,1.393-1.284,2.216-1.832l9.292,5.039v-8.095c0.059-0.005,0.123-0.005,0.187-0.009h0.005h0.005v-0.005
		c0.073-0.005,0.146-0.009,0.219-0.009h2.494c0.069,0,0.142,0.005,0.21,0.009l0.005,0.005h0.005h0.005
		c0.064,0.005,0.123,0.005,0.187,0.009v8.163l9.25-5.135C267.477,287.088,268.227,287.701,268.875,288.372z"/>
	<path style="fill:#FFFFFF;" d="M255.724,213.797c10.452,0,18.926,6.144,18.926,13.732c0,0.064-0.005,0.132-0.005,0.201h0.005
		v27.898h-37.851V227.73h0.005c-0.005-0.069-0.005-0.137-0.005-0.201C236.798,219.941,245.272,213.797,255.724,213.797z"/>
</g>
<polygon style="fill:#B9DDF9;" points="239.954,226.885 271.493,226.885 271.493,253.097 239.954,253.097 "/>
<g>
	<polygon style="fill:#FFFFFF;" points="254.061,215.483 257.386,215.483 257.386,253.097 254.061,253.097 	"/>
	<polygon style="fill:#FFFFFF;" points="239.954,238.826 271.493,238.826 271.493,240.516 239.954,240.516 	"/>
</g>
<path style="fill:#B9DDF9;" d="M239.849,225.195h31.748c-1.256-5.587-7.98-9.748-15.874-9.748S241.106,219.608,239.849,225.195z"/>
<path style="fill:#FFFFFF;" d="M268.875,220.366l-8.689,4.829h-3.714h-1.306h-3.764l-8.83-4.797
	c0.649-0.672,1.393-1.284,2.216-1.836l9.292,5.043v-8.095c0.059-0.005,0.123-0.009,0.187-0.014h0.005h0.005l0,0
	c0.073-0.005,0.146-0.009,0.219-0.014h2.494c0.069,0.005,0.142,0.009,0.21,0.014h0.005h0.005h0.005
	c0.064,0.005,0.123,0.009,0.187,0.014v8.163l9.25-5.135C267.477,219.087,268.227,219.699,268.875,220.366z"/>
<polygon style="fill:#785448;" points="141.192,279.195 187.407,279.195 164.137,212.468 "/>
<polygon style="fill:#EDEDED;" points="135.742,279.103 192.857,279.103 192.857,284.786 135.742,284.786 "/>
<polygon style="fill:#F3F3F3;" points="137.473,290.464 191.126,290.464 191.126,284.786 137.473,284.786 "/>
<path style="fill:#FFFFFF;" d="M164.302,312.387c7.359,0,13.325,4.331,13.325,9.671c0,0.046,0,0.091-0.005,0.142h0.005v19.652
	h-26.655v-19.652l0,0c0-0.05,0-0.096,0-0.142C150.972,316.717,156.938,312.387,164.302,312.387z"/>
<polygon style="fill:#B9DDF9;" points="153.192,321.605 175.407,321.605 175.407,340.065 153.192,340.065 "/>
<g>
	<polygon style="fill:#FFFFFF;" points="163.128,313.574 165.471,313.574 165.471,340.065 163.128,340.065 	"/>
	<polygon style="fill:#FFFFFF;" points="153.192,330.015 175.402,330.015 175.402,331.207 153.192,331.207 	"/>
</g>
<path style="fill:#B9DDF9;" d="M153.119,320.408h22.361c-0.886-3.933-5.623-6.857-11.178-6.857
	C158.742,313.552,154.005,316.475,153.119,320.408z"/>
<path style="fill:#FFFFFF;" d="M173.561,317.014l-6.121,3.394h-2.613h-0.918h-2.654l-6.217-3.371
	c0.457-0.471,0.982-0.904,1.562-1.297l6.542,3.554v-5.701c0.041,0,0.087-0.005,0.132-0.009h0.005l0,0h0.005
	c0.05-0.005,0.1-0.005,0.151-0.009h1.754c0.05,0.005,0.1,0.005,0.151,0.009h0.005l0,0h0.005c0.041,0.005,0.087,0.009,0.132,0.009
	v5.751l6.514-3.618C172.579,316.114,173.105,316.544,173.561,317.014z"/>
<g>
	<polygon style="fill:#785448;" points="162.347,189.212 165.549,189.212 165.549,219.736 162.347,219.736 	"/>
	<polygon style="fill:#785448;" points="157.038,195.913 170.852,195.913 170.852,198.544 157.038,198.544 	"/>
	<polygon style="fill:#785448;" points="323.665,279.195 369.881,279.195 346.611,212.468 	"/>
</g>
<polygon style="fill:#EDEDED;" points="318.216,279.103 375.331,279.103 375.331,284.786 318.216,284.786 "/>
<polygon style="fill:#F3F3F3;" points="319.947,290.464 373.604,290.464 373.604,284.786 319.947,284.786 "/>
<path style="fill:#FFFFFF;" d="M346.775,312.387c7.359,0,13.325,4.331,13.325,9.671c0,0.046,0,0.091,0,0.142l0,0v19.652h-26.655
	v-19.652h0.005c0-0.05-0.005-0.096-0.005-0.142C333.446,316.717,339.412,312.387,346.775,312.387z"/>
<polygon style="fill:#B9DDF9;" points="335.666,321.605 357.881,321.605 357.881,340.065 335.666,340.065 "/>
<polygon style="fill:#FFFFFF;" points="345.606,313.574 347.945,313.574 347.945,340.065 345.606,340.065 "/>
<polygon style="fill:#DFDFDF;" points="335.666,330.015 357.881,330.015 357.881,331.207 335.666,331.207 "/>
<path style="fill:#B9DDF9;" d="M335.593,320.408h22.361c-0.886-3.933-5.619-6.857-11.178-6.857S336.479,316.475,335.593,320.408z"/>
<path style="fill:#FFFFFF;" d="M356.035,317.014l-6.117,3.394h-2.618h-0.918h-2.654l-6.217-3.371
	c0.457-0.471,0.982-0.904,1.567-1.297l6.537,3.554v-5.701c0.046,0,0.087-0.005,0.132-0.009h0.005l0,0h0.005
	c0.05-0.005,0.101-0.005,0.151-0.009h1.754c0.05,0.005,0.101,0.005,0.151,0.009h0.005l0,0h0.005
	c0.046,0.005,0.091,0.009,0.132,0.009v5.751l6.519-3.618C355.053,316.114,355.578,316.544,356.035,317.014z"/>
<g>
	<polygon style="fill:#785448;" points="344.825,189.212 348.023,189.212 348.023,219.736 344.825,219.736 	"/>
	<polygon style="fill:#785448;" points="339.517,195.913 353.326,195.913 353.326,198.544 339.517,198.544 	"/>
</g>
<g>
	<path style="fill:#9BCB64;" d="M109.822,360.087c0.196,0.767-0.489,1.425-0.703,1.608c1.293-1.042,1.909,0.228,1.909,0.228
		c1.9,0.302-0.096,1.804-0.096,1.804c-0.685,0.27-1.128-0.461-1.128-0.461c-1.736,0.854-0.763,1.348-0.763,1.348
		c1.288-0.302,0.521,0.822,0.521,0.822l-0.79,0.119l-0.946,0.502l0.046,0.338l0.717-0.091l0.078,0.557l-0.854,0.388l0.26,0.635
		c0.973,1.393-2.302,2.06-2.302,2.06c-0.521,4.18-4.431,2.677-5.349,2.261c-0.69,0.338-1.444,0.571-2.234,0.676
		c-2.001,0.27-3.897-0.247-5.422-1.325c-1.147,0.238-2.403-0.105-2.403-0.105c-1.329,0.142-0.799-1.804-0.799-1.804
		c-1.046,2.165-2.558,0.292-2.558,0.292c-1.448-1.544,0.297-2.462,0.297-2.462c-0.841-0.946,0.311-1.718,0.311-1.718
		c-2.197-0.407-2.709-1.549-2.809-2.252c-0.936-0.288-1.699-0.608-2.161-0.813c-1.704,0.818-3.568,1.389-5.537,1.658
		c-4.92,0.676-9.648-0.608-13.389-3.262c-2.86,0.566-5.961-0.238-5.961-0.238c-3.303,0.333-1.987-4.49-1.987-4.49
		c-1.772,3.696-4.102,2.645-5.372,1.626c0.228,1.137-2.48,1.704-2.48,1.704c-0.516,4.18-4.422,2.672-5.34,2.257
		c-0.685,0.329-1.444,0.557-2.243,0.667c-1.978,0.279-3.892-0.251-5.418-1.311c-1.142,0.233-2.398-0.11-2.398-0.11
		c-1.334,0.151-0.804-1.814-0.804-1.814c-1.032,2.174-2.563,0.297-2.563,0.297c-1.439-1.539,0.315-2.449,0.315-2.449
		c-0.841-0.964,0.301-1.736,0.301-1.736c-3.271-0.617-2.809-2.832-2.809-2.832c-1.503-1.951-0.027-3.632-0.027-3.632
		c-0.21-0.169-0.356-0.343-0.452-0.507c-1.85,0.164-3.623-0.343-5.039-1.352c-1.156,0.224-2.421-0.105-2.421-0.105
		c-1.338,0.142-0.809-1.823-0.809-1.823c-0.589,1.243-1.338,1.169-1.878,0.873c-0.324-0.859-0.653-1.708-0.964-2.572
		c0.251-0.311,0.571-0.475,0.571-0.475c-0.836-0.955,0.32-1.75,0.32-1.75c-0.904-0.169-1.526-0.457-1.955-0.79
		c-0.512-1.466-1.014-2.946-1.503-4.427c0.16-0.777,0.603-1.284,0.603-1.284c-1.311-1.06-0.114-2.12-0.114-2.12
		c-0.416-1.302,1.425-1.256,1.425-1.256c-1.841-3.517,1.43-3.915,1.43-3.915c0.598-1.699,2.065-0.667,2.065-0.667
		c0.74-1.882,3.307-0.461,3.307-0.461c-0.763-1.613,1.649-1.622,1.649-1.622c0.471-0.256,0.891-0.292,1.265-0.196
		c-0.009-0.21,0.018-0.347,0.018-0.347c-1.503-1.955-0.027-3.636-0.027-3.636c-1.306-1.069-0.096-2.138-0.096-2.138
		c-0.187-0.557,0.05-0.868,0.379-1.042c-1.453-3.39,0.895-6.053,0.895-6.053c-2.745-2.229-0.228-4.468-0.228-4.468
		c-0.895-2.718,2.988-2.636,2.988-2.636c-3.874-7.378,2.978-8.195,2.978-8.195c1.252-3.549,4.321-1.402,4.321-1.402
		c1.562-3.924,6.948-0.95,6.948-0.95c-1.594-3.376,3.463-3.412,3.463-3.412c3.385-1.887,5.756,2.133,5.756,2.133
		c2.019-2.627,3.686-3.545,5.016-3.595c-1.128-3.668,2.581-4.12,2.581-4.12c0.841-2.371,2.882-0.936,2.882-0.936
		c1.055-2.622,4.65-0.635,4.65-0.635c-1.06-2.257,2.325-2.275,2.325-2.275c2.27-1.27,3.855,1.425,3.855,1.425
		c4.02-5.249,5.989-0.288,5.989-0.288c6.825-3.348,7.939,2.978,7.939,2.978c1.389-1.782,3.257,0.046,5.052,2.604
		c1.188,1.704,0.425,3.243-0.228,4.084c1.183,0.685,1.9,1.891,1.9,1.891c5.317-6.939,7.903-0.379,7.903-0.379
		c9.004-4.436,10.47,3.938,10.47,3.938c1.827-2.362,4.299,0.046,6.683,3.435c2.371,3.385-1.151,6.272-1.151,6.272
		c2.49,2.161-1.284,3.627-1.284,3.627c2.019,1.923,0.018,3.851-0.489,4.28c2.385-1.937,3.545,0.429,3.545,0.429
		c3.527,0.562-0.169,3.362-0.169,3.362c-1.288,0.493-2.101-0.845-2.101-0.845c-1.745,0.859-2.024,1.517-1.914,1.937
		c4.408-1.019,5.194,3.426,5.194,3.426c1.243-1.613,2.937,0.041,4.573,2.353c1.617,2.316-0.795,4.299-0.795,4.299
		c1.708,1.48-0.877,2.485-0.877,2.485c1.389,1.32,0.009,2.631-0.338,2.933c1.645-1.343,2.435,0.283,2.435,0.283
		c2.407,0.393-0.114,2.311-0.114,2.311c-0.891,0.324-1.444-0.589-1.444-0.589c-0.64,0.315-0.987,0.594-1.165,0.827
		c1.626,0.658,1.978,2.618,1.978,2.618c0.973-1.27,2.302,0.032,3.6,1.864c1.284,1.823-0.63,3.385-0.63,3.385
		c1.348,1.169-0.685,1.969-0.685,1.969c1.092,1.032,0.014,2.074-0.27,2.302c1.302-1.051,1.919,0.224,1.919,0.224
		c1.9,0.306-0.087,1.823-0.087,1.823c-0.703,0.27-1.137-0.452-1.137-0.452c-1.745,0.859-0.781,1.343-0.781,1.343
		c1.32-0.292,0.544,0.841,0.544,0.841l-0.804,0.1l-0.955,0.534l0.059,0.315l0.726-0.082l0.064,0.548l-0.85,0.393l0.26,0.644
		c0.982,1.393-2.334,2.083-2.334,2.083c-0.512,4.189-4.449,2.686-5.358,2.266c-0.699,0.324-1.453,0.566-2.252,0.676
		c-2.01,0.265-3.919-0.256-5.45-1.325L109.822,360.087z"/>
	<path style="fill:#4E342E;" d="M71.391,426.243c0,0-0.347-2.005,0.219-8.848l-1.96-22.119c0,0-0.343-8.127,0.708-10.475
		c0,0,15.934-15.468,19.168-16.326c0,0,2.321-20.25,5.217-20.648l-2.892-1.713c0,0-2.59,19.127-4.477,22.041
		c0,0-7.346-27.646-6.208-30.565l-1.064,0.831c0,0,3.449,27.601,2.809,29.515l-4.701,4.847c0,0-1.608,4.883-2.586,2.668
		c0,0-8.981-5.482-4.541-34.352l-3.618-2.334l-2.992,19.003c0,0,2.083-0.009,1.16,4.815c0,0,3.664,11.484,3.093,12.617
		c0,0-0.877,5.468-3.266,3.86l-5.034-11.886c0,0-4.235-16.966-1.375-19.584l-1.092-1.366c0,0-1.891,8.419-0.365,14.568
		c0,0-7.711-8.542-10.105-8.524l0.069,1.539c0,0,1.466-3.033,9.424,8.593c0,0,5.477,15.408,5.669,18.428c0,0-0.644,9.209-0.26,10.95
		c0,0,4.075,20.904-1.48,29.962c0.813,0.959,1.635,1.919,2.467,2.864L71.391,426.243z"/>
	<path style="fill:#9BCB64;" d="M474.761,360.087c0.196,0.767-0.493,1.425-0.708,1.608c1.293-1.042,1.909,0.228,1.909,0.228
		c1.905,0.302-0.096,1.804-0.096,1.804c-0.685,0.27-1.128-0.461-1.128-0.461c-1.736,0.854-0.758,1.348-0.758,1.348
		c1.288-0.302,0.516,0.822,0.516,0.822l-0.79,0.119l-0.946,0.502l0.046,0.338l0.717-0.091l0.078,0.557l-0.85,0.388l0.26,0.635
		c0.973,1.393-2.302,2.06-2.302,2.06c-0.521,4.18-4.436,2.677-5.349,2.261c-0.694,0.338-1.448,0.571-2.238,0.676
		c-1.996,0.27-3.897-0.247-5.418-1.325c-1.151,0.238-2.403-0.105-2.403-0.105c-1.334,0.142-0.804-1.804-0.804-1.804
		c-1.042,2.165-2.558,0.292-2.558,0.292c-1.448-1.544,0.297-2.462,0.297-2.462c-0.836-0.946,0.315-1.718,0.315-1.718
		c-2.202-0.407-2.713-1.549-2.814-2.252c-0.932-0.288-1.695-0.608-2.156-0.813c-1.704,0.818-3.572,1.389-5.537,1.658
		c-4.92,0.676-9.648-0.608-13.394-3.262c-2.855,0.566-5.961-0.238-5.961-0.238c-3.298,0.333-1.987-4.49-1.987-4.49
		c-1.768,3.696-4.098,2.645-5.372,1.626c0.233,1.137-2.48,1.704-2.48,1.704c-0.512,4.18-4.417,2.672-5.336,2.257
		c-0.685,0.329-1.448,0.557-2.248,0.667c-1.978,0.279-3.887-0.251-5.413-1.311c-1.151,0.233-2.398-0.11-2.398-0.11
		c-1.338,0.151-0.804-1.814-0.804-1.814c-1.032,2.174-2.567,0.297-2.567,0.297c-1.434-1.539,0.32-2.449,0.32-2.449
		c-0.836-0.964,0.297-1.736,0.297-1.736c-3.271-0.617-2.805-2.832-2.805-2.832c-1.507-1.951-0.032-3.632-0.032-3.632
		c-0.206-0.169-0.352-0.343-0.448-0.507c-1.85,0.164-3.623-0.343-5.034-1.352c-1.165,0.224-2.426-0.105-2.426-0.105
		c-1.343,0.142-0.813-1.823-0.813-1.823c-1.037,2.184-2.567,0.297-2.567,0.297c-1.466-1.553,0.301-2.471,0.301-2.471
		c-0.836-0.955,0.32-1.75,0.32-1.75c-3.303-0.612-2.837-2.846-2.837-2.846c-1.503-1.964-0.018-3.654-0.018-3.654
		c-1.316-1.06-0.114-2.12-0.114-2.12c-0.42-1.302,1.421-1.256,1.421-1.256c-1.841-3.517,1.434-3.915,1.434-3.915
		c0.598-1.699,2.06-0.667,2.06-0.667c0.745-1.882,3.312-0.461,3.312-0.461c-0.763-1.613,1.649-1.622,1.649-1.622
		c0.466-0.256,0.891-0.292,1.261-0.196c-0.005-0.21,0.023-0.347,0.023-0.347c-1.507-1.955-0.027-3.636-0.027-3.636
		c-1.302-1.069-0.096-2.138-0.096-2.138c-0.192-0.557,0.05-0.868,0.379-1.042c-1.453-3.39,0.891-6.053,0.891-6.053
		c-2.741-2.229-0.224-4.468-0.224-4.468c-0.895-2.718,2.988-2.636,2.988-2.636c-3.874-7.378,2.978-8.195,2.978-8.195
		c1.252-3.549,4.321-1.402,4.321-1.402c1.562-3.924,6.944-0.95,6.944-0.95c-1.594-3.376,3.467-3.412,3.467-3.412
		c3.385-1.887,5.756,2.133,5.756,2.133c2.019-2.627,3.686-3.545,5.011-3.595c-1.119-3.668,2.586-4.12,2.586-4.12
		c0.836-2.371,2.882-0.936,2.882-0.936c1.051-2.622,4.65-0.635,4.65-0.635c-1.06-2.257,2.325-2.275,2.325-2.275
		c2.266-1.27,3.851,1.425,3.851,1.425c4.025-5.249,5.989-0.288,5.989-0.288c6.829-3.348,7.939,2.978,7.939,2.978
		c1.389-1.782,3.262,0.046,5.061,2.604c1.183,1.704,0.416,3.243-0.238,4.084c1.188,0.685,1.9,1.891,1.9,1.891
		c5.317-6.939,7.907-0.379,7.907-0.379c9.004-4.436,10.47,3.938,10.47,3.938c1.827-2.362,4.299,0.046,6.679,3.435
		c2.375,3.385-1.147,6.272-1.147,6.272c2.49,2.161-1.284,3.627-1.284,3.627c2.019,1.923,0.018,3.851-0.493,4.28
		c2.385-1.937,3.554,0.429,3.554,0.429c3.517,0.562-0.174,3.362-0.174,3.362c-1.288,0.493-2.106-0.845-2.106-0.845
		c-1.74,0.859-2.019,1.517-1.909,1.937c4.408-1.019,5.189,3.426,5.189,3.426c1.247-1.613,2.942,0.041,4.577,2.353
		c1.617,2.316-0.799,4.299-0.799,4.299c1.713,1.48-0.873,2.485-0.873,2.485c1.384,1.32,0.009,2.631-0.343,2.933
		c1.645-1.343,2.435,0.283,2.435,0.283c2.412,0.393-0.114,2.311-0.114,2.311c-0.891,0.324-1.439-0.589-1.439-0.589
		c-0.64,0.315-0.991,0.594-1.169,0.827c1.631,0.658,1.978,2.618,1.978,2.618c0.973-1.27,2.307,0.032,3.604,1.864
		c1.284,1.823-0.63,3.385-0.63,3.385c1.348,1.169-0.685,1.969-0.685,1.969c1.092,1.032,0.009,2.074-0.27,2.302
		c1.302-1.051,1.919,0.224,1.919,0.224c0.169,0.027,0.306,0.064,0.416,0.11l-0.722,1.768c-0.576,0.064-0.918-0.507-0.918-0.507
		c-1.745,0.859-0.781,1.343-0.781,1.343c1.32-0.292,0.544,0.841,0.544,0.841l-0.804,0.1l-0.959,0.534l0.059,0.315l0.726-0.082
		l0.064,0.548l-0.85,0.393l0.26,0.644c0.987,1.393-2.33,2.083-2.33,2.083c-0.516,4.189-4.449,2.686-5.358,2.266
		c-0.703,0.324-1.453,0.566-2.257,0.676c-2.005,0.265-3.919-0.256-5.45-1.325L474.761,360.087z"/>
	<path style="fill:#4E342E;" d="M436.329,426.243c0,0-0.352-2.005,0.219-8.848l-1.96-22.119c0,0-0.343-8.127,0.708-10.475
		c0,0,15.934-15.468,19.168-16.326c0,0,2.316-20.25,5.217-20.648l-2.892-1.713c0,0-2.59,19.127-4.477,22.041
		c0,0-7.35-27.646-6.208-30.565l-1.069,0.831c0,0,3.454,27.601,2.809,29.515l-4.696,4.847c0,0-1.613,4.883-2.586,2.668
		c0,0-8.981-5.482-4.545-34.352l-3.613-2.334l-2.992,19.003c0,0,2.083-0.009,1.156,4.815c0,0,3.668,11.484,3.093,12.617
		c0,0-0.873,5.468-3.266,3.86l-5.034-11.886c0,0-4.235-16.966-1.375-19.584l-1.092-1.366c0,0-1.891,8.419-0.365,14.568
		c0,0-7.706-8.542-10.1-8.524l0.069,1.539c0,0,1.466-3.033,9.424,8.593c0,0,5.473,15.408,5.669,18.428c0,0-0.644,9.209-0.26,10.95
		c0,0,4.792,24.595-3.111,31.991L436.329,426.243z"/>
	<g>
		<path style="fill:#FFFFFF;" d="M50.51,408.692l-0.082-5.061l3.39-2.426l3.472,2.229l0.11,6.551l2.645-0.078v2.051l-2.613,0.078
			l0.091,5.642C55.119,414.735,52.78,411.743,50.51,408.692z"/>
		<path style="fill:#FFFFFF;" d="M70.847,432.789l0.132-6.898l9.159,0.228l-0.201,10.128l8.118,0.201l0.196-10.132l9.442,0.228
			l-0.192,10.132l8.113,0.201l0.196-10.132l9.447,0.228l-0.196,10.132l8.113,0.201l0.196-10.137c1.859,0.046,7.4-0.078,9.26-0.037
			l-0.196,10.132l8.118,0.201l0.192-10.137l0.301-15.705l0.128-6.555l-4.015-2.43l-4.102,2.234l-0.128,6.551
			c-1.85-0.046-7.396,0.082-9.25,0.037l0.128-6.555l-4.015-2.426l-4.102,2.229l-0.123,6.555l-9.447-0.233l0.123-6.551l-4.015-2.426
			l-4.102,2.225L98,410.834l-9.447-0.233l0.128-6.551l-4.011-2.426l-4.111,2.229l-0.123,6.551l-9.15-0.224l0.128-6.551l-4.011-2.426
			l-4.107,2.229l-0.128,6.551l-3.125-0.078v2.051l3.088,0.078l-0.224,11.612l-0.388-0.009
			C65.219,426.754,68.001,429.806,70.847,432.789z M123.412,425.123l0.224-11.612c1.855,0.046,7.4-0.078,9.255-0.037l-0.224,11.612
			C130.813,425.041,125.267,425.169,123.412,425.123z M140.78,425.283l0.224-11.612L140.78,425.283z M71.021,423.844l0.224-11.612
			l9.155,0.224l-0.224,11.612L71.021,423.844z M88.288,424.265l0.224-11.612l9.442,0.233l-0.219,11.612L88.288,424.265z
			 M105.853,424.694l0.224-11.612l9.442,0.228l-0.224,11.617L105.853,424.694z"/>
		<path style="fill:#FFFFFF;" d="M428.632,425.626l-2.59,0.069l0.178,10.132l-7.446,0.196l-0.178-10.132l-8.396,0.228l0.178,10.128
			l-7.441,0.201l-0.178-10.132l-8.666,0.228l0.178,10.132l-7.446,0.201l-0.178-10.132l-8.661,0.228l0.178,10.132l-7.446,0.201
			l-0.183-10.137l-0.274-15.71l-0.119-6.555l3.682-2.426l3.764,2.229l0.119,6.555l8.661-0.233l-0.11-6.551l3.677-2.426l3.76,2.225
			l0.119,6.555l8.666-0.233l-0.114-6.551l3.677-2.426l3.764,2.229l0.114,6.551l8.396-0.224l-0.114-6.551l3.677-2.426l3.769,2.229
			l0.114,6.551l2.869-0.078v2.051l-2.832,0.078L426,423.648l2.631-0.069V425.626z M370.502,425.123l-0.206-11.612L370.502,425.123z
			 M418.559,423.844l-0.201-11.612l-8.401,0.224l0.206,11.612L418.559,423.844z M402.721,424.265l-0.206-11.612l-8.666,0.233
			l0.206,11.612L402.721,424.265z M386.61,424.694l-0.206-11.612l-8.661,0.228l0.201,11.617L386.61,424.694z"/>
		<path style="fill:#FFFFFF;" d="M428.632,425.626l2.48,0.069l-0.169,10.132l7.053,0.196l0.073-0.073l0.169-10.059l8.035,0.228
			l-0.018,1.156c2.48-2.755,4.906-5.555,7.268-8.414l0.11-6.208l4.733,0.132l1.544-2.005l-6.245-0.178l0.11-6.551l-3.522-2.426
			l-3.604,2.229l-0.11,6.551l-8.035-0.224l0.11-6.551l-3.522-2.426l-3.604,2.229l-0.11,6.551l-2.745-0.078v2.051l2.709,0.078
			l-0.192,11.612l-2.517-0.069V425.626z M466.067,402.324l-0.397-0.27l-3.6,2.225l-0.059,3.7
			C463.386,406.115,464.738,404.229,466.067,402.324z M438.27,423.844l0.196-11.612l8.035,0.224l-0.196,11.612L438.27,423.844z"/>
	</g>
</g>
<path style="fill:#9BCB64;" d="M310.71,506.121l-20.232-42.264H219.11l-19.556,41.885c18.158,4.088,37.048,6.258,56.444,6.258
	C274.777,512,293.082,509.958,310.71,506.121z"/>
<path style="fill:#FFFFFF;" d="M394.12,92.285c3.792,0,7.368,0.9,10.534,2.499c3.431-3.358,8.122-5.432,13.307-5.432
	c8.967,0,16.486,6.208,18.501,14.563c4.481,1.348,8.081,4.733,9.721,9.077c0.539-0.059,1.083-0.087,1.64-0.087
	c8.282,0,15.011,6.72,15.011,15.015c0,8.287-6.729,15.006-15.011,15.006c-2.586,0-5.016-0.649-7.135-1.804
	c-1.823,6.245-7.588,10.794-14.412,10.794c-4.166,0-7.939-1.695-10.662-4.445c-2.723,2.75-6.496,4.445-10.667,4.445
	c-3.961,0-7.569-1.535-10.255-4.043c-2.741,3.001-6.688,4.883-11.078,4.883c-4.107,0-7.825-1.649-10.534-4.317
	c-1.238,0.274-2.531,0.416-3.846,0.416c-9.881,0-17.884-8.008-17.884-17.884s8.003-17.884,17.884-17.884
	c0.534,0,1.073,0.027,1.594,0.078C372.097,101.422,382.037,92.285,394.12,92.285z"/>
<path style="fill:#FFFF00;" d="M317.745,65.918c8.565,0,15.5,6.939,15.5,15.5c0,8.556-6.934,15.495-15.5,15.495
	c-8.561,0-15.495-6.939-15.495-15.495C302.25,72.857,309.184,65.918,317.745,65.918z"/>
<path style="fill:#FFFFFF;" d="M80.408,120.361c3.792,0,7.373,0.904,10.543,2.499c3.426-3.358,8.122-5.427,13.298-5.427
	c8.972,0,16.491,6.208,18.505,14.563c4.481,1.348,8.081,4.733,9.721,9.077c0.534-0.064,1.083-0.087,1.64-0.087
	c8.282,0,15.006,6.72,15.006,15.011c0,8.287-6.724,15.006-15.006,15.006c-2.586,0-5.016-0.649-7.135-1.795
	c-1.823,6.235-7.583,10.79-14.412,10.79c-4.171,0-7.939-1.699-10.662-4.449c-2.723,2.75-6.496,4.449-10.667,4.449
	c-3.961,0-7.569-1.539-10.255-4.047c-2.741,3.001-6.688,4.883-11.078,4.883c-4.107,0-7.825-1.645-10.53-4.321
	c-1.243,0.274-2.535,0.42-3.851,0.42c-9.881,0-17.884-8.008-17.884-17.88c0-9.876,8.003-17.889,17.884-17.889
	c0.534,0,1.069,0.032,1.594,0.082C58.39,129.502,68.33,120.361,80.408,120.361z"/>
<g>
</g>
<g>
</g>
<g>
</g>
<g>
</g>
<g>
</g>
<g>
</g>
<g>
</g>
<g>
</g>
<g>
</g>
<g>
</g>
<g>
</g>
<g>
</g>
<g>
</g>
<g>
</g>
<g>
</g>
</svg>
