<?xml version="1.0" encoding="iso-8859-1"?>
<!-- Generator: Adobe Illustrator 19.0.0, SVG Export Plug-In . SVG Version: 6.00 Build 0)  -->
<svg version="1.1" id="Layer_1" xmlns="http://www.w3.org/2000/svg" xmlns:xlink="http://www.w3.org/1999/xlink" x="0px" y="0px"
	 viewBox="0 0 512 512" style="enable-background:new 0 0 512 512;" xml:space="preserve">
<path style="fill:#B9DDF9;" d="M468.502,113.207c0.936,1.389,1.855,2.791,2.764,4.198l0.754,1.174
	c0.859,1.348,1.708,2.704,2.54,4.07l0.758,1.252c0.836,1.38,1.658,2.764,2.462,4.162l0.466,0.809
	c0.859,1.498,1.704,3.01,2.535,4.527l0.626,1.151c0.813,1.512,1.613,3.029,2.398,4.554l0.452,0.877
	c0.745,1.466,1.476,2.946,2.193,4.427l0.48,0.982c0.745,1.553,1.471,3.115,2.188,4.682l0.507,1.128
	c0.713,1.581,1.412,3.179,2.092,4.778l0.397,0.946c0.653,1.558,1.293,3.12,1.919,4.696l0.352,0.886
	c0.644,1.645,1.27,3.289,1.882,4.947l0.365,0.996c0.621,1.713,1.229,3.431,1.814,5.157l0.233,0.685
	c0.58,1.731,1.147,3.476,1.695,5.226l0.169,0.53c0.548,1.777,1.083,3.572,1.594,5.368l0.26,0.909
	c0.516,1.832,1.019,3.673,1.494,5.523l0.11,0.429c0.48,1.868,0.941,3.746,1.375,5.628l0.1,0.439
	c0.443,1.923,0.863,3.851,1.261,5.788l0.105,0.512c0.393,1.928,0.763,3.86,1.11,5.802l0.096,0.539
	c0.347,1.946,0.672,3.901,0.973,5.856l0.032,0.174l0.014,0.11c0.306,2.005,0.585,4.025,0.845,6.048l0.05,0.397
	c0.256,2.015,0.484,4.038,0.694,6.066l0.041,0.439c0.21,2.074,0.393,4.148,0.553,6.231l0.005,0.055
	c0.16,2.056,0.288,4.125,0.393,6.199l0.027,0.452c0.101,2.042,0.178,4.088,0.233,6.144l0.014,0.548
	c0.046,2.092,0.078,4.189,0.078,6.295c0,2.165-0.027,4.321-0.082,6.473l-0.009,0.288c-0.05,2.069-0.132,4.13-0.233,6.185
	l-0.023,0.484c-0.1,1.937-0.224,3.865-0.365,5.788l-0.087,1.069c-0.137,1.722-0.288,3.44-0.457,5.148l-0.164,1.594
	c-0.155,1.453-0.32,2.905-0.498,4.349l-0.333,2.631c-0.146,1.074-0.297,2.152-0.452,3.221c-0.187,1.288-0.384,2.572-0.594,3.855
	l-0.137,0.836l-0.137,0.831l-0.041,0.233c-0.265,1.59-0.553,3.175-0.85,4.755l-0.16,0.827c-0.37,1.937-0.763,3.86-1.179,5.774
	l-0.059,0.279l-0.059,0.279l-0.064,0.279l-0.059,0.279l-0.014,0.078l-0.037,0.146l-0.014,0.073
	c-0.301,1.361-0.617,2.718-0.936,4.066l-0.018,0.078l-0.018,0.073l-0.018,0.073l-0.018,0.073l-0.018,0.073l-0.069,0.279
	l-0.069,0.279l-0.069,0.279l-0.064,0.274l-0.069,0.279l-0.069,0.274l-0.018,0.059l-0.009,0.059l-0.018,0.064
	c-0.306,1.229-0.621,2.458-0.946,3.682l-0.073,0.274l-0.069,0.274l-0.078,0.274l-0.224,0.822l-0.073,0.274l-0.073,0.279l-0.073,0.27
	l-0.078,0.274l-0.014,0.05c-0.292,1.064-0.594,2.12-0.9,3.175l-0.014,0.05l-0.082,0.274c-2.421,8.259-5.24,16.345-8.442,24.238
	l-0.137,0.324c-3.184,7.821-6.752,15.454-10.671,22.863l-0.114,0.219c-0.772,1.457-1.553,2.905-2.353,4.344l-0.073,0.128
	c-3.239,5.829-6.701,11.525-10.37,17.062l-0.215,0.329c-0.85,1.279-1.713,2.549-2.586,3.814l-0.402,0.576
	c-0.877,1.261-1.759,2.517-2.659,3.76l-0.228,0.311c-3.801,5.249-7.798,10.347-11.978,15.289l-0.58,0.69
	c-0.905,1.064-1.823,2.115-2.745,3.166l-0.818,0.923c-0.941,1.06-1.887,2.11-2.846,3.157l-0.292,0.311
	c-3.189,3.453-6.468,6.82-9.835,10.096l-0.681,0.662c-0.946,0.914-1.905,1.818-2.864,2.718l-1.211,1.124
	c-0.9,0.831-1.804,1.658-2.718,2.476l-1.37,1.215c-0.927,0.822-1.855,1.64-2.796,2.449l-0.649,0.548
	c-2.138,1.827-4.312,3.618-6.51,5.377l-0.845,0.676c-0.872,0.69-1.75,1.366-2.627,2.042l-1.859,1.425l-2.494,1.859l-2.037,1.485
	c-0.854,0.617-1.708,1.233-2.572,1.841l-1.887,1.306c-0.9,0.617-1.795,1.243-2.7,1.85c-0.598,0.402-1.201,0.79-1.809,1.192
	c-1.722,1.133-3.463,2.252-5.217,3.353l-1.914,1.192c-0.9,0.553-1.809,1.092-2.718,1.635l-2.22,1.311
	c-0.822,0.484-1.645,0.955-2.476,1.425l-2.613,1.462l-2.357,1.293c-0.964,0.516-1.937,1.023-2.905,1.535
	c-0.703,0.37-1.407,0.74-2.115,1.105c-1.594,0.813-3.202,1.608-4.819,2.394c-0.685,0.329-1.375,0.649-2.065,0.978
	c-1.028,0.484-2.06,0.968-3.093,1.444l-2.375,1.064c-0.978,0.434-1.951,0.859-2.933,1.279l-2.27,0.968
	c-1.101,0.461-2.211,0.909-3.316,1.352l-2.033,0.813c-1.38,0.544-2.773,1.069-4.171,1.585l-2.024,0.749
	c-1.494,0.539-2.988,1.069-4.49,1.581l-1.969,0.649c-1.197,0.402-2.394,0.79-3.6,1.169l-2.12,0.658
	c-1.165,0.356-2.339,0.703-3.513,1.046l-2.216,0.635c-1.316,0.37-2.64,0.722-3.965,1.074l-1.567,0.411
	c-1.868,0.48-3.746,0.941-5.633,1.38l-1.562,0.347c-1.393,0.315-2.791,0.617-4.198,0.914l-2.142,0.425
	c-1.233,0.251-2.476,0.484-3.714,0.713l-2.225,0.397c-1.243,0.219-2.485,0.42-3.732,0.617l-2.197,0.347
	c-1.544,0.233-3.097,0.448-4.65,0.653l-1.188,0.16c-1.983,0.251-3.979,0.475-5.98,0.685l-1.407,0.132
	c-1.503,0.146-3.015,0.274-4.527,0.397l-2.188,0.164c-1.297,0.091-2.599,0.169-3.901,0.247l-2.234,0.114
	c-1.38,0.069-2.759,0.114-4.143,0.16l-1.96,0.059c-2.024,0.05-4.056,0.078-6.094,0.078c-2.147,0-4.294-0.027-6.436-0.082
	l-0.347-0.009c-2.124-0.055-4.235-0.132-6.35-0.238l-0.105-0.009c-2.065-0.105-4.12-0.238-6.176-0.388l-0.507-0.041
	c-2.047-0.16-4.088-0.338-6.117-0.544l-0.324-0.032c-1.978-0.206-3.951-0.429-5.916-0.681l-0.534-0.064
	c-1.9-0.242-3.796-0.512-5.687-0.795l-0.987-0.151c-1.759-0.274-3.517-0.566-5.272-0.872l-1.165-0.21
	c-1.667-0.301-3.33-0.621-4.988-0.955l-1.306-0.265c-1.581-0.329-3.157-0.672-4.728-1.032l-1.713-0.393
	c-1.485-0.347-2.965-0.708-4.44-1.083l-1.635-0.425c-1.462-0.379-2.924-0.777-4.376-1.183l-1.987-0.562
	c-1.311-0.379-2.618-0.767-3.924-1.169l-2.421-0.758c-1.147-0.361-2.289-0.731-3.431-1.11l-2.499-0.845
	c-1.055-0.365-2.106-0.735-3.157-1.11c-1.023-0.37-2.042-0.745-3.056-1.124l-2.435-0.927c-1.261-0.484-2.512-0.978-3.76-1.48
	l-1.85-0.758c-1.275-0.525-2.54-1.06-3.805-1.603l-1.818-0.799c-1.389-0.612-2.764-1.233-4.139-1.868l-0.005-0.005l-1.576-0.735
	c-1.142-0.539-2.279-1.083-3.408-1.635l-0.064-0.032l-0.059-0.027l-0.064-0.032l-0.059-0.027l-0.064-0.032l-0.059-0.027
	l-0.064-0.032l-0.059-0.032l-0.059-0.027l-0.064-0.032l-0.059-0.032l-0.059-0.027l-0.064-0.032l-0.064-0.032l-0.059-0.027
	l-0.064-0.032l-0.059-0.032l-0.059-0.027l-0.306-0.155l-0.059-0.027l-0.123-0.064l-0.064-0.027l-0.064-0.032l-0.059-0.032
	l-0.059-0.027l-0.064-0.032l-0.059-0.032l-0.059-0.027l-0.064-0.032l-0.059-0.032l-0.059-0.027l-0.064-0.037l-0.059-0.027
	l-0.064-0.032l-0.059-0.032l-0.123-0.059l-0.059-0.032c-0.982-0.489-1.951-0.987-2.924-1.494l-0.064-0.037l-0.073-0.032
	l-0.064-0.037l-0.064-0.037l-0.069-0.032l-0.069-0.037l-0.064-0.032l-0.069-0.037l-0.064-0.032l-0.069-0.037l-0.064-0.037
	l-0.069-0.032l-0.069-0.037l-0.132-0.069l-0.064-0.037l-0.667-0.352l-0.064-0.037l-0.137-0.069l-0.064-0.037l-0.064-0.032
	l-0.069-0.037l-0.069-0.037l-0.064-0.032l-0.064-0.037c-1.133-0.603-2.257-1.215-3.371-1.832l-0.064-0.032l-0.064-0.037
	l-0.059-0.037l-0.059-0.032l-0.064-0.037l-0.059-0.032l-0.064-0.037l-0.064-0.032l-0.059-0.032l-0.059-0.037l-0.064-0.037
	l-0.059-0.032l-0.064-0.037l-1.087-0.608l-0.055-0.032l-0.05-0.027l-0.055-0.032l-0.05-0.027l-0.05-0.027l-0.055-0.032l-0.05-0.032
	l-0.11-0.055l-0.05-0.032l-2.713-1.558l-0.05-0.027l-0.05-0.032l-1.348-0.79l-0.233-0.142c-1.284-0.758-2.554-1.53-3.819-2.307
	l-0.037-0.027l-0.078-0.046l-0.037-0.023l-0.041-0.027l-0.037-0.018l-0.041-0.027l-0.037-0.023l-0.037-0.027l-0.041-0.023
	l-0.037-0.023l-0.041-0.023l-0.037-0.027l-0.041-0.023l-0.037-0.023l-0.037-0.023l-0.041-0.027l-0.037-0.018L121,473.532
	l-0.242-0.151c-1.288-0.804-2.563-1.613-3.833-2.435l-0.041-0.023l-0.041-0.032l-0.041-0.027l-0.046-0.027l-0.041-0.027
	l-0.046-0.027l-0.041-0.027l-0.041-0.027l-0.046-0.027l-0.343-0.224l-1.37-0.905l-0.352-0.233l-0.046-0.027l-0.046-0.032
	l-0.041-0.027l-0.046-0.027l-0.041-0.032l-0.046-0.027l-0.041-0.027l-0.046-0.032l-0.041-0.027l-0.05-0.032l-0.041-0.027
	c-0.927-0.621-1.85-1.247-2.768-1.878l-0.699-0.48l-1.11-0.777l-0.041-0.027l-0.041-0.027l-0.041-0.032l-0.046-0.027l-0.037-0.032
	l-0.046-0.027l-0.041-0.027l-0.041-0.027l-0.041-0.032l-0.037-0.027l-0.046-0.027l-0.037-0.032l-0.046-0.027l-0.982-0.699
	l-1.416-1.014l-0.164-0.114l-2.088-1.521l-0.046-0.037l-0.046-0.037l-0.096-0.069l-0.05-0.032l-0.046-0.037l-0.046-0.037
	l-0.046-0.032l-0.05-0.037l-0.516-0.384l-0.868-0.653l-0.471-0.352l-0.055-0.037l-0.05-0.041l-0.05-0.037l-0.055-0.041l-0.05-0.041
	l-0.055-0.037l-0.05-0.046l-0.055-0.037l-0.05-0.041c-0.662-0.493-1.32-1-1.969-1.507l-0.055-0.041l-0.155-0.119l-0.05-0.041
	l-0.05-0.037l-0.05-0.041l-0.055-0.041l-0.64-0.498l-1.412-1.115l-0.059-0.041l-0.055-0.046l-0.055-0.046l-0.055-0.046l-0.059-0.041
	l-0.055-0.046l-1.85-1.485l-0.128-0.101l-0.018-0.018l-0.082-0.064l-0.279-0.233l-0.059-0.046l-0.055-0.046l-0.055-0.046
	l-0.059-0.046l-0.055-0.046l-0.055-0.046l-0.059-0.046c-0.548-0.443-1.087-0.891-1.626-1.343l-0.055-0.05l-0.055-0.046l-0.055-0.046
	l-0.055-0.046l-0.059-0.05l-0.055-0.041l-0.055-0.05l-0.891-0.749l-0.502-0.42l-1.183-1.014l-1.658-1.43
	c-1.028-0.895-2.047-1.804-3.061-2.718l-1.425-1.293c-1.115-1.014-2.22-2.047-3.312-3.083l-1.01-0.964
	c-1.188-1.133-2.362-2.284-3.527-3.44l-0.822-0.827c-1.188-1.192-2.362-2.394-3.527-3.613l-0.667-0.699
	c-1.169-1.229-2.321-2.471-3.467-3.718l-0.717-0.79c-1.169-1.293-2.325-2.595-3.476-3.915l-0.461-0.539
	c-1.201-1.389-2.38-2.782-3.549-4.194c-21.438-25.901-37.847-56.092-47.796-89.092l-0.174-0.58l-0.576-1.932l-0.064-0.21
	l-0.662-2.339l-0.059-0.21l-0.059-0.219l-0.059-0.21l-0.749-2.777l-0.055-0.215l-0.059-0.215l-0.644-2.512l-0.018-0.069l-0.055-0.21
	l-0.63-2.595l-0.05-0.215l-0.05-0.215l-0.055-0.215l-0.315-1.297l-0.11-0.516l-0.105-0.466l-0.014-0.069l-0.014-0.069l-0.014-0.064
	l-0.018-0.069l-0.014-0.069l-0.014-0.064l-0.018-0.069l-0.014-0.064l-0.672-3.093l-0.014-0.069l-0.018-0.064l-0.014-0.069
	l-0.046-0.219v-0.009l-0.224-1.023l-0.014-0.055l-0.041-0.224l-0.073-0.37l-0.05-0.279L5.03,306.69l-0.018-0.096l-0.018-0.096
	l-0.018-0.091c-0.265-1.325-0.521-2.654-0.767-3.983l-0.014-0.096l-0.018-0.096l-0.018-0.096l-0.018-0.091l-0.018-0.096l-0.178-0.95
	l-0.046-0.288l-0.014-0.105l-0.018-0.1l-0.018-0.1l-0.014-0.096l-0.018-0.1c-0.251-1.425-0.489-2.86-0.713-4.294l-0.018-0.1
	l-0.014-0.1l-0.018-0.1l-0.014-0.1l-0.183-1.201l-0.014-0.091c-0.256-1.695-0.493-3.403-0.713-5.112l-0.119-0.914
	c-0.238-1.909-0.457-3.814-0.653-5.733l-0.059-0.557c-0.201-2.005-0.379-4.02-0.534-6.044l-0.032-0.365
	c-0.151-2.051-0.283-4.107-0.388-6.167v-0.014l-0.009-0.142l-0.005-0.119c-0.105-2.12-0.192-4.244-0.242-6.377l-0.005-0.069v-0.073
	C0.032,260.365,0,258.181,0,255.998c0-2.147,0.032-4.289,0.082-6.427l0.005-0.32c0.055-2.097,0.137-4.184,0.238-6.267l0.023-0.37
	c0.105-2.033,0.233-4.052,0.384-6.071l0.037-0.493c0.155-1.992,0.333-3.979,0.53-5.957l0.05-0.489
	c0.201-1.955,0.42-3.906,0.667-5.847l0.105-0.813c0.228-1.786,0.48-3.568,0.749-5.349l0.187-1.238
	c0.265-1.695,0.544-3.39,0.841-5.075l0.201-1.096c0.292-1.645,0.612-3.289,0.941-4.924l0.356-1.74
	c0.297-1.421,0.603-2.832,0.923-4.239l0.493-2.138c0.32-1.361,0.653-2.723,0.991-4.07l0.603-2.321
	c0.283-1.087,0.58-2.165,0.877-3.243c0.292-1.051,0.589-2.092,0.891-3.134c0.283-0.982,0.576-1.964,0.873-2.942l0.955-3.07
	l0.841-2.581c0.411-1.247,0.827-2.485,1.252-3.718l0.027-0.069l0.566-1.608l0.087-0.247c0.544-1.521,1.101-3.038,1.667-4.55
	l0.608-1.59c9.305-24.147,22.151-46.526,37.915-66.503l0.105-0.128l0.105-0.132c0.886-1.124,1.791-2.238,2.7-3.348l0.105-0.132
	l0.1-0.123l0.845-1.023l0.11-0.128l0.105-0.128l0.105-0.123l0.105-0.128c0.745-0.891,1.494-1.777,2.248-2.654l0.105-0.128
	C108.648,34.636,178.285,0,255.998,0c61.999,0,118.853,22.041,163.146,58.714c1.206,0.996,2.403,2.01,3.586,3.033l0.128,0.105
	l0.119,0.11l1.348,1.169l0.119,0.105l0.123,0.105l0.123,0.11l1.814,1.613l0.123,0.105l0.123,0.11l0.119,0.11l0.119,0.105
	C442.706,79.613,456.666,95.629,468.502,113.207z"/>
<path style="fill:#FFFFFF;" d="M292.556,26.125c12.051,0,21.822,9.849,21.822,21.996s-9.771,21.991-21.822,21.991
	c-12.055,0-21.826-9.844-21.826-21.991S280.501,26.125,292.556,26.125z"/>
<path style="fill:#689D38;" d="M31.219,378.597c212.564-16.144,544.84-50.364,416.59-100.115
	c-168.998-65.562-409.404-46.444-447-42.945l-0.041,0.512l-0.037,0.493c-0.151,2.019-0.279,4.038-0.384,6.071l-0.023,0.37
	c-0.1,2.083-0.183,4.171-0.238,6.267l-0.005,0.32C0.032,251.708,0,253.851,0,255.998c0,2.184,0.032,4.367,0.082,6.537v0.073
	l0.005,0.069c0.05,2.133,0.137,4.258,0.242,6.377l0.005,0.119l0.009,0.142v0.014c0.105,2.06,0.238,4.116,0.388,6.167l0.032,0.365
	c0.155,2.024,0.333,4.038,0.534,6.044l0.059,0.557c0.196,1.919,0.416,3.824,0.653,5.733l0.119,0.914
	c0.219,1.708,0.457,3.417,0.713,5.112l0.014,0.091l0.183,1.201l0.014,0.1l0.018,0.1l0.014,0.1l0.018,0.1
	c0.224,1.434,0.461,2.869,0.713,4.294l0.018,0.1l0.014,0.096l0.018,0.1l0.018,0.1l0.014,0.105l0.046,0.288l0.178,0.95l0.018,0.096
	l0.018,0.091l0.018,0.096l0.018,0.096l0.014,0.096c0.247,1.329,0.502,2.659,0.767,3.983l0.018,0.091l0.018,0.096l0.018,0.096
	l0.018,0.091l0.05,0.279l0.073,0.37l0.041,0.224l0.014,0.055l0.224,1.023v0.009l0.046,0.219l0.014,0.069l0.018,0.064l0.014,0.069
	l0.672,3.093l0.014,0.064l0.018,0.069l0.014,0.064l0.014,0.069l0.018,0.069l0.014,0.064l0.014,0.069l0.014,0.069l0.105,0.466
	l0.11,0.516l0.315,1.297l0.055,0.215l0.05,0.215l0.05,0.215l0.63,2.595l0.055,0.21l0.018,0.069l0.644,2.512l0.059,0.215l0.055,0.215
	l0.749,2.777l0.059,0.21l0.059,0.219l0.059,0.21l0.662,2.339l0.064,0.21l0.576,1.932l0.174,0.58
	C16.011,347.018,22.854,363.28,31.219,378.597z"/>
<path style="fill:#7CB142;" d="M461.129,409.153c-212.632-16.719-520.999-50.35-396.691-98.576
	c169.423-65.726,410.629-46.348,447.302-42.918l-0.064,1.284l-0.023,0.484c-0.1,1.937-0.224,3.865-0.365,5.788l-0.087,1.069
	c-0.137,1.722-0.288,3.44-0.457,5.148l-0.164,1.594c-0.155,1.453-0.32,2.905-0.498,4.349l-0.333,2.631
	c-0.146,1.074-0.297,2.152-0.452,3.221c-0.187,1.288-0.384,2.572-0.594,3.855l-0.137,0.836l-0.137,0.831l-0.041,0.233
	c-0.265,1.59-0.553,3.175-0.85,4.755l-0.16,0.827c-0.37,1.937-0.763,3.86-1.179,5.774l-0.059,0.279l-0.059,0.279l-0.064,0.279
	l-0.059,0.279l-0.014,0.078l-0.037,0.146l-0.014,0.073c-0.301,1.361-0.617,2.718-0.936,4.066l-0.018,0.078l-0.018,0.073
	l-0.018,0.073l-0.018,0.073l-0.018,0.073l-0.069,0.279l-0.069,0.279l-0.069,0.279l-0.064,0.274l-0.069,0.279l-0.069,0.274
	l-0.018,0.059l-0.009,0.059l-0.018,0.064c-0.306,1.229-0.621,2.458-0.946,3.682l-0.073,0.274l-0.069,0.274l-0.078,0.274
	l-0.224,0.822l-0.073,0.274l-0.073,0.279l-0.073,0.27l-0.078,0.274l-0.014,0.05c-0.292,1.064-0.594,2.12-0.9,3.175l-0.014,0.05
	l-0.082,0.274c-2.421,8.259-5.24,16.345-8.442,24.238l-0.137,0.324c-3.184,7.821-6.752,15.454-10.671,22.863l-0.114,0.219
	c-0.772,1.457-1.553,2.905-2.353,4.344l-0.073,0.128c-3.239,5.829-6.701,11.525-10.37,17.062l-0.215,0.329
	c-0.85,1.279-1.713,2.549-2.586,3.814l-0.402,0.576c-0.877,1.261-1.759,2.517-2.659,3.76l-0.228,0.311
	C462.701,407.043,461.92,408.098,461.129,409.153z"/>
<path style="fill:#FFFFFF;" d="M34.521,127.556l105.35,172.538l-0.009-1.695L49.473,104.72c1.791-2.439,3.618-4.847,5.491-7.222
	l0.105-0.128l0.105-0.132c0.886-1.124,1.791-2.238,2.7-3.348l0.105-0.132l0.1-0.123l0.845-1.023l0.11-0.128l0.105-0.128l0.105-0.123
	l0.105-0.128l0.439-0.525l80.061,205.392l-0.037-5.829L86.584,64.091c5.107-4.513,10.402-8.826,15.861-12.928l37.322,233.029
	l-1.672-255.477c6.779-3.527,13.736-6.752,20.853-9.671l-18.03,272.342l2.266,14.134l-2.8-6.003l-0.087,1.275l2.887,4.728
	l-2.928-4.125l-0.343,5.189l-0.037-5.728L26.883,141.708C29.286,136.902,31.831,132.183,34.521,127.556z M140.689,294.877
	l-0.242,3.623l2.736,7.021L140.689,294.877z"/>
<path style="fill:#54892E;" d="M8.072,319.947c46.686-9.99,224.226-40.04,493.166,9.675c-2.311,7.697-4.97,15.244-7.962,22.621
	l-0.137,0.324c-3.184,7.821-6.752,15.454-10.671,22.863l-0.114,0.219c-0.772,1.457-1.553,2.905-2.353,4.344l-0.073,0.128
	c-3.239,5.829-6.701,11.525-10.37,17.062l-0.215,0.329c-0.85,1.279-1.713,2.549-2.586,3.814l-0.402,0.576
	c-0.877,1.261-1.759,2.517-2.659,3.76l-0.228,0.311c-3.801,5.249-7.798,10.347-11.978,15.289l-0.58,0.69
	c-0.905,1.064-1.823,2.115-2.745,3.166l-0.818,0.923c-0.941,1.06-1.887,2.11-2.846,3.157l-0.292,0.311
	c-3.189,3.453-6.468,6.82-9.835,10.096l-0.681,0.662c-0.946,0.914-1.905,1.818-2.864,2.718l-1.211,1.124
	c-0.9,0.831-1.804,1.658-2.718,2.476l-1.37,1.215c-0.927,0.822-1.855,1.64-2.796,2.449l-0.649,0.548
	c-2.138,1.827-4.312,3.618-6.51,5.377l-0.845,0.676c-0.872,0.69-1.75,1.366-2.627,2.042l-1.859,1.425l-2.494,1.859l-2.037,1.485
	c-0.854,0.617-1.708,1.233-2.572,1.841l-1.887,1.306c-0.9,0.617-1.795,1.243-2.7,1.85c-0.598,0.402-1.201,0.79-1.809,1.192
	c-1.722,1.133-3.463,2.252-5.217,3.353l-1.914,1.192c-0.9,0.553-1.809,1.092-2.718,1.635l-2.22,1.311
	c-0.822,0.484-1.645,0.955-2.476,1.425l-2.613,1.462l-2.357,1.293c-0.964,0.516-1.937,1.023-2.905,1.535
	c-0.703,0.37-1.407,0.74-2.115,1.105c-1.594,0.813-3.202,1.608-4.819,2.394c-0.685,0.329-1.375,0.649-2.065,0.978
	c-1.028,0.484-2.06,0.968-3.093,1.444l-2.375,1.064c-0.978,0.434-1.951,0.859-2.933,1.279l-2.27,0.968
	c-1.101,0.461-2.211,0.909-3.316,1.352l-2.033,0.813c-1.38,0.544-2.773,1.069-4.171,1.585l-2.024,0.749
	c-1.494,0.539-2.988,1.069-4.49,1.581l-1.969,0.649c-1.197,0.402-2.394,0.79-3.6,1.169l-2.12,0.658
	c-1.165,0.356-2.339,0.703-3.513,1.046l-2.216,0.635c-1.316,0.37-2.64,0.722-3.965,1.074l-1.567,0.411
	c-1.868,0.48-3.746,0.941-5.633,1.38l-1.562,0.347c-1.393,0.315-2.791,0.617-4.198,0.914l-2.142,0.425
	c-1.233,0.251-2.476,0.484-3.714,0.713l-2.225,0.397c-1.243,0.219-2.485,0.42-3.732,0.617l-2.197,0.347
	c-1.544,0.233-3.097,0.448-4.65,0.653l-1.188,0.16c-1.983,0.251-3.979,0.475-5.98,0.685l-1.407,0.132
	c-1.503,0.146-3.015,0.274-4.527,0.397l-2.188,0.164c-1.297,0.091-2.599,0.169-3.901,0.247l-2.234,0.114
	c-1.38,0.069-2.759,0.114-4.143,0.16l-1.96,0.059c-2.024,0.05-4.056,0.078-6.094,0.078c-2.147,0-4.294-0.027-6.436-0.082
	l-0.347-0.009c-2.124-0.055-4.235-0.132-6.35-0.238l-0.105-0.009c-2.065-0.105-4.12-0.238-6.176-0.388l-0.507-0.041
	c-2.047-0.16-4.088-0.338-6.117-0.544l-0.324-0.032c-1.978-0.206-3.951-0.429-5.916-0.681l-0.534-0.064
	c-1.9-0.242-3.796-0.512-5.687-0.795l-0.987-0.151c-1.759-0.274-3.517-0.566-5.272-0.872l-1.165-0.21
	c-1.667-0.301-3.33-0.621-4.988-0.955l-1.306-0.265c-1.581-0.329-3.157-0.672-4.728-1.032l-1.713-0.393
	c-1.485-0.347-2.965-0.708-4.44-1.083l-1.635-0.425c-1.462-0.379-2.924-0.777-4.376-1.183l-1.987-0.562
	c-1.311-0.379-2.618-0.767-3.924-1.169l-2.421-0.758c-1.147-0.361-2.289-0.731-3.431-1.11l-2.499-0.845
	c-1.055-0.365-2.106-0.735-3.157-1.11c-1.023-0.37-2.042-0.745-3.056-1.124l-2.435-0.927c-1.261-0.484-2.512-0.978-3.76-1.48
	l-1.85-0.758c-1.275-0.525-2.54-1.06-3.805-1.603l-1.818-0.799c-1.389-0.612-2.764-1.233-4.139-1.868l-0.005-0.005l-1.576-0.735
	c-1.142-0.539-2.279-1.083-3.408-1.635l-0.064-0.032l-0.059-0.027l-0.064-0.032l-0.059-0.027l-0.064-0.032l-0.059-0.027
	l-0.064-0.032l-0.059-0.032l-0.059-0.027l-0.064-0.032l-0.059-0.032l-0.059-0.027l-0.064-0.032l-0.064-0.032l-0.059-0.027
	l-0.064-0.032l-0.059-0.032l-0.059-0.027l-0.306-0.155l-0.059-0.027l-0.123-0.064l-0.064-0.027l-0.064-0.032l-0.059-0.032
	l-0.059-0.027l-0.064-0.032l-0.059-0.032l-0.059-0.027l-0.064-0.032l-0.059-0.032l-0.059-0.027l-0.064-0.037l-0.059-0.027
	l-0.064-0.032l-0.059-0.032l-0.123-0.059l-0.059-0.032c-0.982-0.489-1.951-0.987-2.924-1.494l-0.064-0.037l-0.073-0.032
	l-0.064-0.037l-0.064-0.037l-0.069-0.032l-0.069-0.037l-0.064-0.032l-0.069-0.037l-0.064-0.032l-0.069-0.037l-0.064-0.037
	l-0.069-0.032l-0.069-0.037l-0.132-0.069l-0.064-0.037l-0.667-0.352l-0.064-0.037l-0.137-0.069l-0.064-0.037l-0.064-0.032
	l-0.069-0.037l-0.069-0.037l-0.064-0.032l-0.064-0.037c-1.133-0.603-2.257-1.215-3.371-1.832l-0.064-0.032l-0.064-0.037
	l-0.059-0.037l-0.059-0.032l-0.064-0.037l-0.059-0.032l-0.064-0.037l-0.064-0.032l-0.059-0.032l-0.059-0.037l-0.064-0.037
	l-0.059-0.032l-0.064-0.037l-1.087-0.608l-0.055-0.032l-0.05-0.027l-0.055-0.032l-0.05-0.027l-0.05-0.027l-0.055-0.032l-0.05-0.032
	l-0.11-0.055l-0.05-0.032l-2.713-1.558l-0.05-0.027l-0.05-0.032l-1.348-0.79l-0.233-0.142c-1.284-0.758-2.554-1.53-3.819-2.307
	l-0.037-0.027l-0.078-0.046l-0.037-0.023l-0.041-0.027l-0.037-0.018l-0.041-0.027l-0.037-0.023l-0.037-0.027l-0.041-0.023
	l-0.037-0.023l-0.041-0.023l-0.037-0.027l-0.041-0.023l-0.037-0.023l-0.037-0.023l-0.041-0.027l-0.037-0.018L121,473.532
	l-0.242-0.151c-1.288-0.804-2.563-1.613-3.833-2.435l-0.041-0.023l-0.041-0.032l-0.041-0.027l-0.046-0.027l-0.041-0.027
	l-0.046-0.027l-0.041-0.027l-0.041-0.027l-0.046-0.027l-0.343-0.224l-1.37-0.905l-0.352-0.233l-0.046-0.027l-0.046-0.032
	l-0.041-0.027l-0.046-0.027l-0.041-0.032l-0.046-0.027l-0.041-0.027l-0.046-0.032l-0.041-0.027l-0.05-0.032l-0.041-0.027
	c-0.927-0.621-1.85-1.247-2.768-1.878l-0.699-0.48l-1.11-0.777l-0.041-0.027l-0.041-0.027l-0.041-0.032l-0.046-0.027l-0.037-0.032
	l-0.046-0.027l-0.041-0.027l-0.041-0.027l-0.041-0.032l-0.037-0.027l-0.046-0.027l-0.037-0.032l-0.046-0.027l-0.982-0.699
	l-1.416-1.014l-0.164-0.114l-2.088-1.521l-0.046-0.037l-0.046-0.037l-0.096-0.069l-0.05-0.032l-0.046-0.037l-0.046-0.037
	l-0.046-0.032l-0.05-0.037l-0.516-0.384l-0.868-0.653l-0.471-0.352l-0.055-0.037l-0.05-0.041l-0.05-0.037l-0.055-0.041l-0.05-0.041
	l-0.055-0.037l-0.05-0.046l-0.055-0.037l-0.05-0.041c-0.662-0.493-1.32-1-1.969-1.507l-0.055-0.041l-0.155-0.119l-0.05-0.041
	l-0.05-0.037l-0.05-0.041l-0.055-0.041l-0.64-0.498l-1.412-1.115l-0.059-0.041l-0.055-0.046l-0.055-0.046l-0.055-0.046l-0.059-0.041
	l-0.055-0.046l-1.85-1.485l-0.128-0.101l-0.018-0.018l-0.082-0.064l-0.279-0.233l-0.059-0.046l-0.055-0.046l-0.055-0.046
	l-0.059-0.046l-0.055-0.046l-0.055-0.046l-0.059-0.046c-0.548-0.443-1.087-0.891-1.626-1.343l-0.055-0.05l-0.055-0.046l-0.055-0.046
	l-0.055-0.046l-0.059-0.05l-0.055-0.041l-0.055-0.05l-0.891-0.749l-0.502-0.42l-1.183-1.014l-1.658-1.43
	c-1.028-0.895-2.047-1.804-3.061-2.718l-1.425-1.293c-1.115-1.014-2.22-2.047-3.312-3.083l-1.01-0.964
	c-1.188-1.133-2.362-2.284-3.527-3.44l-0.822-0.827c-1.188-1.192-2.362-2.394-3.527-3.613l-0.667-0.699
	c-1.169-1.229-2.321-2.471-3.467-3.718l-0.717-0.79c-1.169-1.293-2.325-2.595-3.476-3.915l-0.461-0.539
	c-1.201-1.389-2.38-2.782-3.549-4.194c-21.438-25.901-37.847-56.092-47.796-89.092l-0.174-0.58l-0.576-1.932l-0.064-0.21
	l-0.662-2.339l-0.059-0.21l-0.059-0.219l-0.059-0.21l-0.749-2.777l-0.055-0.215l-0.059-0.215L8.072,319.947z"/>
<path style="fill:#32681E;" d="M241.594,342.303c109.548,0,198.348,22.041,198.348,49.231c0,22.909-63.017,42.159-148.364,47.655
	h0.005c11.955,18.327,5.18,58.787-13.284,71.843l-1.782,0.146l-2.188,0.164c-1.297,0.091-2.599,0.169-3.901,0.247l-2.234,0.114
	c-1.38,0.069-2.759,0.114-4.143,0.16l-1.96,0.059c-2.024,0.05-4.056,0.078-6.094,0.078c-2.147,0-4.294-0.027-6.436-0.082
	l-0.347-0.009c-2.124-0.055-4.235-0.132-6.35-0.238l-0.105-0.009c-1.539-0.078-3.083-0.169-4.614-0.274
	c48.253-22.891,17.345-70.742,17.345-70.742l0,0c-4.596,0.078-9.223,0.123-13.896,0.123c-109.539,0-198.343-22.046-198.343-49.235
	S132.055,342.303,241.594,342.303z"/>
<path style="fill:#7CB142;" d="M241.594,361.448c97.201,0,175.996,13.033,175.996,29.104c0,16.075-78.796,29.108-175.996,29.108
	c-97.196,0-175.992-13.033-175.992-29.108C65.603,374.481,144.398,361.448,241.594,361.448z"/>
<g>
	<path style="fill:#FFFFFF;" d="M171.931,181.779c46.444,0,92.893,0,139.337,0c6.605,84.168,24.065,145.906,64.146,208.074
		c-51.081,0-102.157,0-153.233,0c-38.135,0-76.265,0-114.395,0C140.031,372.649,163.571,251.142,171.931,181.779z"/>
	<path style="fill:#FFFFFF;" d="M171.931,181.779c46.444,0,92.893,0,139.337,0c-32.959-25.705-54.863-58.837-69.943-96.561
		C227.36,126.647,202.286,156.879,171.931,181.779z"/>
</g>
<path style="fill:#8B6E62;" d="M241.562,31.726l2.695,59.792l0.037,0.841c0.018,0.457-0.379,0.836-0.831,0.836h-3.691
	c-0.457,0-0.831-0.379-0.831-0.836l0,0v-0.841L241.562,31.726z M241.594,26.271c1.448,0,2.622,1.183,2.622,2.64
	s-1.174,2.636-2.622,2.636c-1.444,0-2.618-1.179-2.618-2.636S240.151,26.271,241.594,26.271z"/>
<polygon style="fill:#ED5250;" points="244.527,38.317 281.872,40.853 281.872,48.728 328.613,51.583 277.029,64.21 277.029,57.842 
	244.527,64.21 "/>
<g>
	<path style="fill:#FF9D7F;" d="M213.925,181.779h15.646c4.303-16.546,11.174-80.193,11.644-90.262c0,0,4.792,41.346,27.295,90.262
		h-15.641c-4.308-16.546-11.178-80.193-11.653-90.262C241.215,91.518,236.428,132.864,213.925,181.779z M295.302,181.779h-15.641
		c-15.198-20.205-38.062-80.431-37.212-90.262C242.449,91.518,249.488,128.09,295.302,181.779z M187.133,181.779h15.646
		c15.194-20.205,38.052-80.431,37.203-90.262C239.982,91.518,232.947,128.09,187.133,181.779z"/>
	<path style="fill:#FF9D7F;" d="M268.51,181.779h-15.641c-3.481,112.508,9.689,173.264,15.723,208.074h25.431
		C282.073,375.125,266.833,185.023,268.51,181.779z M213.925,181.779h15.646c3.476,112.508-9.694,173.264-15.723,208.074h-25.435
		C200.367,375.125,215.602,185.023,213.925,181.779z M187.133,181.779h15.646c-12.905,136.336-39.834,215.515-37.801,208.074
		h-25.431C162.543,384.07,190.482,181.779,187.133,181.779z M295.302,181.779h-15.641c12.9,136.336,39.829,215.515,37.797,208.074
		h25.426C319.892,384.07,291.953,181.779,295.302,181.779z"/>
</g>
<path style="fill:#1E87E3;" d="M256.459,308.111c3.668,37.235,8.912,63.177,12.133,81.742h18.487
	C291.478,390.406,271.749,340.184,256.459,308.111z M226.067,307.202c-14.718,26.792-34.197,67.398-29.949,82.651l0,0h17.729
	C217.091,371.137,222.39,344.921,226.067,307.202z"/>
<path style="fill:#E54A18;" d="M241.695,281.57c-2.074,3.531-69.134,108.141-45.238,108.141h90.96
	C298.792,389.853,245.313,285.672,241.695,281.57z"/>
<path style="fill:#FF7042;" d="M214.78,389.853c0,0-12.402-31.484,8.661-49.308c14.732-7.359,18.154-55.982,18.154-52.652
	c0-3.33,3.426,45.293,18.163,52.652c21.064,17.825,8.661,49.308,8.661,49.308l-26.824,0.032L214.78,389.853z"/>
<path style="fill:#FFA98F;" d="M241.594,281.392c-19.268,35.969-35.933,72.062-45.476,108.461l-47.691-24.901
	C183.282,349.818,214.976,324.086,241.594,281.392c19.277,35.969,35.933,72.062,45.485,108.461l47.691-24.901
	C299.916,349.818,268.222,324.086,241.594,281.392z"/>
<path style="fill:#FFFFFF;" d="M256.043,306.101c7.195,16.477,30.013,57.522,34.955,74.684l29.802-15.554
	C302.661,355.93,270.2,319.961,256.043,306.101z M227.15,305.822c-14.152,13.855-46.613,50.108-64.753,59.408l29.798,15.554
	C197.137,363.623,219.96,322.295,227.15,305.822z"/>
<path style="fill:#E54A18;" d="M213.455,355.044c1.836-5.203,4.952-10.242,9.986-14.499c0.827-0.416,1.617-0.959,2.371-1.622h31.57
	c0.758,0.662,1.549,1.206,2.375,1.622c5.03,4.258,8.145,9.296,9.986,14.499H213.455z"/>
<path style="fill:#9BCB64;" d="M383.64,377.711c4.477,0,8.099,2.078,8.099,4.646c0,2.563-3.623,4.641-8.099,4.641
	c-4.472,0-8.099-2.078-8.099-4.641C375.541,379.789,379.168,377.711,383.64,377.711z M98.137,388.971
	c4.628,0,8.378,1.827,8.378,4.084c0,2.252-3.75,4.079-8.378,4.079s-8.383-1.827-8.383-4.079
	C89.755,390.798,93.51,388.971,98.137,388.971z M107.917,376.866c3.545,0,6.423,1.069,6.423,2.389c0,1.325-2.878,2.398-6.423,2.398
	c-3.549,0-6.427-1.074-6.427-2.398C101.49,377.935,104.368,376.866,107.917,376.866z M139.067,397.984
	c5.011,0,9.072,1.699,9.072,3.796c0,2.101-4.061,3.801-9.072,3.801c-5.02,0-9.086-1.699-9.086-3.801
	C129.981,399.684,134.047,397.984,139.067,397.984z M209.604,405.864c5.244,0,9.497,1.448,9.497,3.239
	c0,1.786-4.253,3.234-9.497,3.234c-5.249,0-9.502-1.448-9.502-3.234C200.102,407.312,204.355,405.864,209.604,405.864z
	 M270.223,400.515c4.628,0,8.378,1.384,8.378,3.097c0,1.708-3.75,3.097-8.378,3.097c-4.632,0-8.383-1.389-8.383-3.097
	C261.84,401.899,265.591,400.515,270.223,400.515z M351.517,393.759c4.778,0,8.657,1.699,8.657,3.801
	c0,2.097-3.878,3.801-8.657,3.801c-4.783,0-8.661-1.704-8.661-3.801C342.856,395.458,346.734,393.759,351.517,393.759z"/>
<path style="fill:#D74214;" d="M171.931,181.779h139.337l0.521,6.359l0,0c-0.046,1.978-2.608,3.586-4.509,3.586
	c-1.9,0-3.449-1.59-3.49-3.572h-0.005c-0.041,1.983-1.585,3.572-3.485,3.572c-1.905,0-3.453-1.59-3.49-3.577h-0.005
	c-0.037,1.987-1.585,3.577-3.49,3.577s-3.449-1.594-3.49-3.581l0,0c-0.037,1.987-1.585,3.581-3.49,3.581s-3.453-1.599-3.49-3.586
	h-0.005c-0.032,1.987-1.581,3.586-3.485,3.586c-1.909,0-3.458-1.599-3.49-3.591l0,0c-0.037,1.992-1.585,3.591-3.49,3.591
	c-1.909,0-3.463-1.603-3.49-3.595l0,0c-0.032,1.992-1.585,3.595-3.495,3.595s-3.458-1.603-3.485-3.6H261.9
	c-0.027,1.996-1.576,3.6-3.49,3.6c-1.909,0-3.463-1.608-3.49-3.604l0,0c-0.027,1.996-1.581,3.604-3.49,3.604
	c-1.914,0-3.467-1.608-3.49-3.609l0,0c-0.027,2.001-1.581,3.609-3.49,3.609c-1.914,0-3.467-1.613-3.49-3.609v-0.005
	c-0.023,2.001-1.576,3.613-3.49,3.613s-3.472-1.613-3.49-3.618l0,0c-0.023,2.005-1.576,3.618-3.49,3.618
	c-1.919,0-3.476-1.617-3.495-3.623l0,0c-0.014,2.005-1.571,3.623-3.49,3.623s-3.476-1.617-3.49-3.623l0,0
	c-0.014,2.005-1.571,3.623-3.49,3.623s-3.476-1.622-3.485-3.627h-0.005c-0.009,2.005-1.571,3.627-3.49,3.627
	s-3.476-1.622-3.49-3.632l0,0c-0.014,2.01-1.571,3.632-3.495,3.632c-1.919,0-3.476-1.626-3.485-3.636l0,0
	c-0.009,2.01-1.571,3.636-3.495,3.636c-1.923,0-3.481-1.626-3.49-3.641l0,0c-0.005,2.015-1.567,3.641-3.485,3.641
	c-1.928,0-3.49-1.631-3.49-3.645c-0.005,2.015-1.567,3.645-3.495,3.645c-1.923,0-3.485-1.631-3.49-3.65
	c0,2.019-1.562,3.65-3.49,3.65s-3.49-1.635-3.49-3.655c0-0.324,0.041-0.644,0.114-0.941L171.931,181.779z"/>
<path style="fill:#FFFFFF;" d="M406.504,48.902l-59.696,256.614l18.601-281.022c-6.679-3.161-13.517-6.044-20.502-8.629l1.9,289.656
	l0,0l0,0l0,0l135.385-169.505l-0.786-1.466l-0.626-1.151c-0.831-1.517-1.676-3.029-2.535-4.527l-0.466-0.809
	c-0.804-1.398-1.626-2.782-2.462-4.162l-0.758-1.252l-0.402-0.662l-127.35,183.534l0,0L458.178,98.959
	c-3.271-4.207-6.674-8.305-10.196-12.297L346.807,305.521l0,0l0,0l0,0l0,0l75.05-244.527c-0.895-0.763-1.804-1.526-2.713-2.279
	C415.037,55.315,410.825,52.045,406.504,48.902z"/>
<path style="fill:#9BCB64;" d="M61.793,342.157c1.32,0.256,2.005,0.297,3.28-0.242c1.708-0.717,0.987-1.096,2.449-1.677
	c0.868-0.617-0.324-0.169,0.799-0.274c0.539-0.05,0.598,0.041,1.238,0.087c2.334,0.155,4.011-0.827,5.194-2.709
	c1.457,1.37,1.507,2.892,3.993,3.44c2.631,0.585,4.029,0.178,5.409-1.393c0.375-2.074-0.397-3.006-0.978-4.468
	c3.527-1.334,5.998-2.476,1.791-7.122c0.799-5.162,1.078-4.984,0.206-10.566c6.395-1.759,3.586-8.999-0.516-12.179
	c0.754-1.325,2.001-1.398,1.759-3.929c-0.215-2.284-1.613-2.554-1.183-4.216c0.708-2.727,2.828-4.12-2.8-7.122
	c1.064-2.261,0.927-3.184-0.393-5.619c-1.736-3.198,0.493-2.467-0.05-6.281c-0.635-4.454-3.38-2.371-4.673-5.148
	c-0.644-1.398-0.018-1.914-3.207-2.567c2.965-4.892,0.196-5.007-0.407-8.716c-0.329-2.033-0.274-1.576-1.635-2.713
	c-3.358-2.814-3.49-7.816-8.775-7.816l-0.699,1.147c-0.087,0.265-0.123,1.064-0.128,1.375c-0.256,28.775,0.046,59.285,0.046,88.119
	C62.236,341.796,62.035,341.906,61.793,342.157z"/>
<path style="fill:#ADD37F;" d="M59.376,341.582l2.417,0.576c0.242-0.251,0.443-0.361,0.717-0.589
	c0-28.834-0.301-59.345-0.046-88.119c0.005-0.311,0.041-1.11,0.128-1.375l0.699-1.147c-4.628,0.667-5.55,4.372-5.454,9.337
	c-3.86,3.408-4.344,1.841-3.513,8.922c0.439,3.778-2.814,2.535,0.105,10.84c-6.583,0.306-4.239,2.828-6.103,5.441
	c-1.9,2.672-3.855,3.618,0.206,7.716c-2.097,1.229-4.052,0.877-2.229,6.24c-3.737,5.358-2.572,9.99-2.197,16.911
	c0.132,2.544-1.051,2.316-1.887,4.614c-0.703,1.937-0.708,4.102,0.247,5.856c1.444,2.65,1.809,1.078,0.672,4.705
	c-0.498,1.581-1.042,3.965-0.708,5.733c0.315,1.686,0.571,1.183,1.11,1.964c0.429,0.617,0.215,0.292,0.521,1.042
	c0.037,0.091,0.059,0.206,0.096,0.306c0.041,0.096,0.069,0.21,0.105,0.302c1.201,2.924,4.358-0.146,6.697-1.028
	c0.996,1.763,0.918,3.901,3.399,3.993C56.444,343.888,58.029,342.134,59.376,341.582z"/>
<path style="fill:#9BCB64;" d="M6.446,210.138c-0.493-0.439-0.311-0.411-1.055-0.484c-0.452,0.53-0.48,0.978-0.955,1.699
	c-0.598,0.904-0.635,0.672-0.228,1.823c-0.288,0.242-0.534,0.292-0.703,0.407l-0.196,1.211c0.137,0.493,0.489-0.027,0.333,1.425
	c-0.288,2.695,0.662,1.983-0.886,3.138c-0.114,1.051-0.091,1.389,0.416,2.197c0.914,1.448,0.384,0.516,0.233,1.827
	c-0.128,1.119,0.361,0.516,0.082,2.056c-0.183,1.014,0.233,1.32,0.886,1.581c-0.306,1.311-0.132,0.891,0.174,1.96
	c0.288,0.987-0.21,0.918,0,1.932c0.183,0.9,0.64,0.731,1.229,1.526l0.79,0.836c-0.946,1.873,1.188,4.088,1.37,4.628
	c0.553,1.613-0.594,4.212-0.754,4.966c-0.169,0.777-0.206,0.146,0.037,0.635c0.955,0.311,2.512,0.183,3.517-0.21
	c-0.238-0.617-0.557-0.767-0.799-1.74c-0.178-0.717-0.238-1.571-0.21-2.366c1.987-1.704,0.763-1.896,1.444-3.029
	c0.242-0.397,0.448-0.27,0.713-0.868c0.434-0.959-0.091-1.485,0.146-2.403c0.297-1.156,0.434-1.393-0.082-2.522
	c0.502-0.452,0.589-0.114,1.069-0.58c0.393-0.388,0.352-0.804,0.553-1.215c0.745-1.53,0.777-1.046,0.018-2.54
	c1.128-0.416,0.576-0.649,0.658-1.686c0.119-1.421,0.672-0.073,0.516-4.92c-0.05-1.603,0.356-0.978,0.566-2.188
	c0.215-1.265-0.384-1.448-0.448-2.106c-0.055-0.566,0.416-1.375,0.32-2.339c-0.096-0.895-0.187-0.489-0.315-1.064
	c-0.288-1.22,0.343-2.005-1.973-2.124c-0.585-2.366-1.69-0.891-2.01-0.731c-0.936,0.461-0.653-0.457-1.722,0.014
	c-0.493,0.224-0.251,0.324-0.863,0.503C6.925,209.787,7.56,209.161,6.446,210.138z M94.894,211.696
	c-0.365-0.315-0.228-0.292-0.777-0.352c-0.333,0.388-0.356,0.717-0.703,1.252c-0.443,0.667-0.471,0.493-0.169,1.348
	c-0.425,0.352-0.717,0.151-0.703,0.85c0.018,0.927,0.425,0.1,0.288,1.393c-0.215,1.987,0.484,1.457-0.658,2.316
	c-0.082,0.772-0.064,1.023,0.306,1.617c0.676,1.069,0.283,0.379,0.174,1.348c-0.091,0.827,0.27,0.384,0.064,1.517
	c-0.137,0.749,0.169,0.978,0.653,1.169c-0.228,0.964-0.105,0.658,0.123,1.439c0.21,0.735-0.151,0.681,0,1.43
	c0.137,0.667,0.475,0.539,0.909,1.133l0.585,0.612c-0.699,1.384,0.873,3.015,1.01,3.412c0.411,1.192-0.443,3.106-0.557,3.664
	c-0.123,0.571-0.155,0.105,0.027,0.471c0.703,0.228,1.855,0.132,2.595-0.16c-0.174-0.452-0.416-0.562-0.589-1.279
	c-0.132-0.534-0.183-1.16-0.155-1.75c1.466-1.256,0.562-1.398,1.064-2.234c0.178-0.288,0.329-0.196,0.53-0.64
	c0.315-0.708-0.073-1.092,0.105-1.772c0.219-0.854,0.32-1.028-0.059-1.859c0.37-0.333,0.429-0.082,0.79-0.434
	c0.288-0.283,0.256-0.589,0.402-0.891c0.553-1.128,0.576-0.772,0.014-1.868c0.836-0.311,0.425-0.484,0.489-1.252
	c0.082-1.046,0.493-0.055,0.379-3.627c-0.041-1.183,0.26-0.717,0.416-1.617c0.164-0.932-0.283-1.069-0.329-1.553
	c-0.041-0.416,0.311-1.014,0.233-1.722c-0.069-0.662-0.132-0.365-0.233-0.79c-0.21-0.895,0.256-1.471-1.453-1.562
	c-0.429-1.75-1.247-0.658-1.485-0.539c-0.69,0.333-0.48-0.343-1.27,0.014c-0.361,0.16-0.183,0.233-0.64,0.365
	C95.25,211.436,95.72,210.979,94.894,211.696z M80.527,211.696c-0.365-0.315-0.224-0.292-0.772-0.352
	c-0.338,0.388-0.356,0.717-0.708,1.252c-0.439,0.667-0.471,0.493-0.169,1.348c-0.425,0.352-0.717,0.151-0.703,0.85
	c0.018,0.927,0.429,0.1,0.288,1.393c-0.21,1.987,0.489,1.457-0.653,2.316c-0.087,0.772-0.069,1.023,0.306,1.617
	c0.676,1.069,0.283,0.379,0.169,1.348c-0.091,0.827,0.27,0.384,0.064,1.517c-0.137,0.749,0.169,0.978,0.653,1.169
	c-0.228,0.964-0.1,0.658,0.128,1.439c0.21,0.735-0.155,0.681,0,1.43c0.132,0.667,0.471,0.539,0.909,1.133l0.58,0.612
	c-0.699,1.384,0.877,3.015,1.01,3.412c0.411,1.192-0.439,3.106-0.557,3.664c-0.119,0.571-0.151,0.105,0.032,0.471
	c0.703,0.228,1.85,0.132,2.595-0.16c-0.178-0.452-0.416-0.562-0.589-1.279c-0.137-0.534-0.183-1.16-0.155-1.75
	c1.462-1.256,0.557-1.398,1.064-2.234c0.174-0.288,0.324-0.196,0.525-0.64c0.32-0.708-0.069-1.092,0.105-1.772
	c0.219-0.854,0.324-1.028-0.055-1.859c0.365-0.333,0.429-0.082,0.786-0.434c0.292-0.283,0.26-0.589,0.407-0.891
	c0.548-1.128,0.571-0.772,0.009-1.868c0.836-0.311,0.429-0.484,0.489-1.252c0.087-1.046,0.493-0.055,0.379-3.627
	c-0.037-1.183,0.265-0.717,0.42-1.617c0.16-0.932-0.288-1.069-0.333-1.553c-0.037-0.416,0.311-1.014,0.238-1.722
	c-0.069-0.662-0.137-0.365-0.233-0.79c-0.21-0.895,0.256-1.471-1.453-1.562c-0.434-1.75-1.252-0.658-1.485-0.539
	c-0.69,0.333-0.484-0.343-1.27,0.014c-0.365,0.16-0.187,0.233-0.64,0.365C80.883,211.436,81.354,210.979,80.527,211.696z
	 M66.585,213.405c-0.361-0.324-0.219-0.301-0.772-0.356c-0.333,0.388-0.352,0.722-0.703,1.252c-0.443,0.667-0.471,0.493-0.169,1.348
	c-0.429,0.347-0.717,0.151-0.708,0.85c0.018,0.923,0.429,0.1,0.288,1.393c-0.21,1.987,0.489,1.462-0.653,2.316
	c-0.087,0.777-0.069,1.023,0.311,1.617c0.672,1.069,0.279,0.379,0.164,1.348c-0.091,0.827,0.274,0.384,0.064,1.517
	c-0.137,0.754,0.169,0.973,0.653,1.169c-0.224,0.964-0.096,0.658,0.128,1.444c0.21,0.726-0.151,0.676,0,1.43
	c0.132,0.658,0.475,0.534,0.909,1.124l0.58,0.612c-0.699,1.384,0.877,3.02,1.014,3.412c0.411,1.197-0.439,3.111-0.557,3.664
	c-0.119,0.58-0.155,0.114,0.027,0.475c0.703,0.228,1.85,0.132,2.595-0.155c-0.174-0.461-0.416-0.566-0.589-1.284
	c-0.132-0.534-0.178-1.165-0.155-1.745c1.466-1.261,0.562-1.398,1.064-2.234c0.178-0.297,0.329-0.201,0.525-0.644
	c0.32-0.708-0.064-1.092,0.105-1.772c0.219-0.85,0.324-1.023-0.055-1.859c0.37-0.338,0.434-0.082,0.786-0.434
	c0.292-0.283,0.26-0.589,0.407-0.891c0.553-1.128,0.576-0.772,0.014-1.873c0.836-0.306,0.425-0.484,0.489-1.247
	c0.082-1.046,0.493-0.055,0.379-3.627c-0.037-1.183,0.265-0.717,0.416-1.617c0.16-0.932-0.283-1.069-0.329-1.553
	c-0.041-0.416,0.306-1.014,0.233-1.722c-0.069-0.662-0.132-0.365-0.233-0.786c-0.21-0.9,0.256-1.48-1.453-1.567
	c-0.434-1.75-1.252-0.658-1.485-0.544c-0.69,0.343-0.48-0.338-1.27,0.018c-0.365,0.155-0.187,0.233-0.635,0.365
	C66.941,213.14,67.412,212.683,66.585,213.405z M51.807,213.121c-0.365-0.324-0.228-0.301-0.777-0.356
	c-0.338,0.388-0.356,0.717-0.703,1.252c-0.443,0.667-0.471,0.489-0.169,1.343c-0.425,0.356-0.722,0.155-0.703,0.854
	c0.018,0.927,0.425,0.1,0.288,1.389c-0.215,1.992,0.484,1.462-0.653,2.321c-0.087,0.772-0.073,1.028,0.301,1.617
	c0.676,1.069,0.283,0.379,0.174,1.352c-0.091,0.827,0.27,0.379,0.064,1.512c-0.137,0.749,0.169,0.973,0.653,1.165
	c-0.228,0.968-0.1,0.662,0.123,1.448c0.215,0.731-0.151,0.681,0,1.425c0.137,0.667,0.471,0.539,0.909,1.128l0.585,0.617
	c-0.703,1.384,0.873,3.015,1.01,3.408c0.407,1.197-0.443,3.111-0.557,3.664c-0.123,0.58-0.151,0.114,0.027,0.475
	c0.708,0.228,1.85,0.132,2.599-0.16c-0.178-0.452-0.416-0.557-0.594-1.279c-0.132-0.53-0.178-1.16-0.155-1.745
	c1.466-1.261,0.562-1.402,1.064-2.238c0.178-0.292,0.329-0.196,0.525-0.64c0.32-0.708-0.069-1.092,0.11-1.772
	c0.219-0.85,0.324-1.028-0.059-1.859c0.37-0.333,0.434-0.082,0.79-0.434c0.288-0.279,0.256-0.589,0.407-0.891
	c0.548-1.133,0.571-0.772,0.009-1.873c0.831-0.306,0.425-0.48,0.489-1.247c0.087-1.046,0.498-0.05,0.379-3.627
	c-0.037-1.188,0.26-0.722,0.416-1.617c0.164-0.932-0.283-1.069-0.329-1.558c-0.041-0.411,0.311-1.01,0.238-1.718
	c-0.069-0.662-0.137-0.365-0.238-0.786c-0.21-0.9,0.256-1.48-1.453-1.567c-0.429-1.75-1.247-0.658-1.48-0.544
	c-0.69,0.338-0.48-0.338-1.275,0.018c-0.361,0.16-0.183,0.233-0.635,0.361C52.163,212.856,52.634,212.4,51.807,213.121z
	 M37.02,215.245c-0.365-0.32-0.224-0.297-0.772-0.352c-0.338,0.388-0.361,0.722-0.713,1.247c-0.434,0.672-0.466,0.498-0.164,1.348
	c-0.425,0.356-0.722,0.155-0.708,0.854c0.023,0.927,0.425,0.1,0.288,1.393c-0.21,1.987,0.489,1.457-0.649,2.316
	c-0.087,0.772-0.069,1.023,0.306,1.617c0.672,1.069,0.283,0.379,0.169,1.352c-0.096,0.827,0.265,0.379,0.059,1.512
	c-0.132,0.749,0.174,0.978,0.653,1.169c-0.224,0.964-0.096,0.658,0.132,1.444c0.206,0.731-0.155,0.676,0,1.43
	c0.132,0.662,0.471,0.534,0.904,1.124l0.58,0.617c-0.694,1.38,0.877,3.015,1.014,3.408c0.411,1.201-0.439,3.111-0.557,3.668
	c-0.123,0.571-0.151,0.11,0.032,0.471c0.703,0.228,1.846,0.132,2.595-0.16c-0.178-0.452-0.416-0.562-0.594-1.279
	c-0.132-0.53-0.174-1.165-0.155-1.75c1.466-1.256,0.562-1.398,1.064-2.234c0.183-0.292,0.333-0.196,0.53-0.64
	c0.315-0.708-0.073-1.092,0.105-1.768c0.219-0.859,0.32-1.032-0.059-1.864c0.37-0.333,0.434-0.082,0.786-0.429
	c0.288-0.288,0.26-0.589,0.411-0.895c0.548-1.128,0.571-0.772,0.014-1.873c0.831-0.306,0.42-0.48,0.484-1.243
	c0.087-1.055,0.493-0.059,0.379-3.632c-0.037-1.183,0.26-0.717,0.416-1.617c0.164-0.927-0.279-1.069-0.329-1.558
	c-0.037-0.411,0.306-1.01,0.238-1.718c-0.073-0.662-0.137-0.365-0.233-0.79c-0.215-0.895,0.251-1.471-1.457-1.562
	c-0.429-1.75-1.247-0.658-1.48-0.539c-0.694,0.338-0.484-0.343-1.27,0.009c-0.365,0.164-0.187,0.238-0.64,0.37
	C37.376,214.985,37.847,214.524,37.02,215.245z M22.649,216.808c-0.361-0.32-0.224-0.301-0.772-0.352
	c-0.338,0.388-0.361,0.717-0.708,1.252c-0.439,0.667-0.471,0.493-0.169,1.343c-0.425,0.352-0.717,0.151-0.703,0.854
	c0.018,0.923,0.425,0.1,0.288,1.389c-0.21,1.987,0.489,1.462-0.653,2.316c-0.087,0.777-0.069,1.023,0.306,1.622
	c0.672,1.069,0.279,0.379,0.169,1.348c-0.091,0.827,0.27,0.384,0.064,1.512c-0.137,0.754,0.169,0.982,0.653,1.169
	c-0.228,0.968-0.1,0.658,0.128,1.448c0.206,0.726-0.155,0.676-0.005,1.43c0.137,0.658,0.475,0.534,0.909,1.124l0.585,0.612
	c-0.699,1.384,0.877,3.02,1.014,3.417c0.407,1.188-0.443,3.102-0.557,3.659c-0.128,0.576-0.16,0.11,0.027,0.475
	c0.699,0.224,1.85,0.132,2.595-0.155c-0.174-0.457-0.416-0.566-0.594-1.288c-0.128-0.525-0.178-1.156-0.155-1.745
	c1.471-1.252,0.566-1.398,1.064-2.234c0.178-0.297,0.333-0.201,0.53-0.64c0.315-0.708-0.069-1.096,0.105-1.772
	c0.219-0.854,0.324-1.032-0.059-1.859c0.375-0.338,0.434-0.082,0.79-0.434c0.288-0.283,0.256-0.589,0.407-0.895
	c0.548-1.128,0.571-0.767,0.014-1.873c0.831-0.301,0.425-0.48,0.484-1.243c0.087-1.046,0.498-0.055,0.384-3.632
	c-0.041-1.183,0.26-0.717,0.416-1.613c0.16-0.932-0.283-1.069-0.329-1.558c-0.041-0.411,0.306-1.01,0.233-1.718
	c-0.069-0.662-0.132-0.37-0.233-0.786c-0.215-0.9,0.251-1.48-1.453-1.571c-0.434-1.745-1.252-0.653-1.485-0.539
	c-0.69,0.343-0.484-0.338-1.27,0.014c-0.361,0.16-0.187,0.238-0.635,0.37C23.005,216.547,23.476,216.091,22.649,216.808z"/>
<path style="fill:#6C4C40;" d="M61.793,342.157l-2.417-0.576c-0.489,3.993-2.535,7.866-4.066,10.79
	c-2.161,4.139-5.386,7.373-6.286,9.013c4.787,0.005,5.742-1.032,9.588-2.193c0.767,4.079,5.39,4.774,9.794,4.326
	c-1.48-4.582-2.206-5.331-2.106-11.338c0.064-3.942,0.626-8.182,1.22-11.941c-1.462,0.58-0.74,0.959-2.449,1.677
	C63.798,342.454,63.113,342.413,61.793,342.157z"/>
<g>
	<path style="fill:#54892E;" d="M451.203,249.077c-0.434-0.384-0.265-0.361-0.918-0.425c-0.402,0.461-0.425,0.854-0.845,1.489
		c-0.521,0.79-0.557,0.585-0.196,1.594c-0.507,0.42-0.854,0.187-0.836,1.014c0.023,1.101,0.503,0.123,0.343,1.654
		c-0.256,2.362,0.576,1.736-0.781,2.75c-0.1,0.918-0.078,1.22,0.365,1.923c0.799,1.27,0.338,0.452,0.206,1.603
		c-0.114,0.982,0.32,0.452,0.073,1.8c-0.164,0.895,0.201,1.16,0.772,1.384c-0.265,1.151-0.114,0.781,0.155,1.713
		c0.247,0.873-0.183,0.809-0.005,1.699c0.164,0.79,0.566,0.635,1.078,1.338l0.69,0.731c-0.827,1.64,1.046,3.581,1.206,4.052
		c0.489,1.416-0.521,3.691-0.662,4.353c-0.146,0.681-0.178,0.128,0.032,0.562c0.841,0.27,2.202,0.16,3.083-0.192
		c-0.206-0.539-0.489-0.672-0.703-1.526c-0.151-0.626-0.206-1.375-0.183-2.069c1.745-1.494,0.667-1.663,1.265-2.654
		c0.215-0.347,0.393-0.238,0.626-0.758c0.379-0.845-0.078-1.302,0.128-2.106c0.26-1.014,0.384-1.224-0.073-2.211
		c0.443-0.402,0.516-0.1,0.936-0.516c0.347-0.333,0.311-0.699,0.489-1.06c0.649-1.338,0.676-0.914,0.014-2.22
		c0.991-0.365,0.502-0.571,0.576-1.485c0.1-1.243,0.589-0.059,0.452-4.303c-0.046-1.412,0.315-0.859,0.498-1.923
		c0.187-1.105-0.338-1.27-0.397-1.846c-0.046-0.493,0.37-1.201,0.283-2.042c-0.082-0.79-0.16-0.439-0.279-0.936
		c-0.251-1.069,0.302-1.754-1.727-1.864c-0.507-2.069-1.485-0.781-1.763-0.644c-0.818,0.407-0.571-0.397-1.507,0.018
		c-0.429,0.196-0.219,0.283-0.754,0.439C451.623,248.762,452.185,248.218,451.203,249.077z"/>
	<path style="fill:#54892E;" d="M465.405,254.924c-0.32-0.288-0.196-0.265-0.681-0.315c-0.292,0.343-0.311,0.63-0.621,1.096
		c-0.384,0.589-0.407,0.434-0.146,1.183c-0.37,0.306-0.63,0.132-0.617,0.745c0.014,0.809,0.375,0.091,0.256,1.22
		c-0.187,1.74,0.425,1.279-0.576,2.028c-0.078,0.681-0.059,0.895,0.27,1.416c0.589,0.936,0.247,0.338,0.151,1.188
		c-0.087,0.722,0.233,0.333,0.055,1.329c-0.123,0.653,0.146,0.85,0.571,1.019c-0.201,0.845-0.091,0.576,0.11,1.261
		c0.183,0.644-0.137,0.598-0.005,1.256c0.123,0.58,0.42,0.471,0.799,0.987l0.512,0.539c-0.612,1.211,0.763,2.645,0.886,2.992
		c0.361,1.042-0.384,2.723-0.489,3.207c-0.105,0.503-0.137,0.096,0.027,0.416c0.612,0.196,1.622,0.114,2.27-0.137
		c-0.155-0.402-0.361-0.498-0.516-1.124c-0.114-0.466-0.155-1.019-0.137-1.53c1.284-1.101,0.493-1.229,0.936-1.96
		c0.151-0.26,0.288-0.174,0.457-0.562c0.283-0.621-0.059-0.959,0.096-1.553c0.192-0.745,0.283-0.904-0.055-1.631
		c0.329-0.292,0.384-0.073,0.694-0.375c0.256-0.251,0.224-0.521,0.356-0.781c0.48-0.996,0.498-0.681,0.009-1.649
		c0.731-0.265,0.375-0.416,0.425-1.087c0.073-0.923,0.439-0.046,0.333-3.179c-0.027-1.037,0.233-0.63,0.365-1.416
		c0.142-0.818-0.247-0.936-0.288-1.366c-0.032-0.361,0.27-0.886,0.206-1.508c-0.059-0.58-0.114-0.315-0.201-0.69
		c-0.187-0.79,0.219-1.293-1.275-1.37c-0.379-1.53-1.092-0.576-1.302-0.475c-0.603,0.297-0.42-0.297-1.115,0.014
		c-0.315,0.142-0.16,0.206-0.553,0.32C465.716,254.691,466.127,254.289,465.405,254.924z"/>
	<path style="fill:#54892E;" d="M477.995,253.554c-0.32-0.283-0.196-0.26-0.676-0.315c-0.297,0.343-0.315,0.635-0.621,1.101
		c-0.384,0.585-0.411,0.434-0.146,1.179c-0.37,0.306-0.63,0.137-0.621,0.749c0.018,0.809,0.375,0.087,0.256,1.215
		c-0.187,1.745,0.425,1.284-0.571,2.033c-0.078,0.676-0.059,0.895,0.265,1.421c0.589,0.932,0.247,0.329,0.146,1.179
		c-0.078,0.722,0.242,0.333,0.059,1.329c-0.123,0.658,0.151,0.854,0.566,1.019c-0.192,0.85-0.082,0.576,0.114,1.27
		c0.187,0.635-0.132,0.594,0,1.252c0.119,0.576,0.416,0.466,0.795,0.982l0.512,0.544c-0.612,1.211,0.767,2.64,0.886,2.988
		c0.361,1.046-0.384,2.723-0.489,3.211c-0.105,0.503-0.132,0.096,0.023,0.411c0.621,0.201,1.622,0.119,2.279-0.137
		c-0.155-0.397-0.365-0.493-0.521-1.124c-0.114-0.461-0.155-1.014-0.137-1.53c1.288-1.096,0.493-1.224,0.936-1.96
		c0.155-0.256,0.288-0.174,0.461-0.557c0.279-0.621-0.059-0.959,0.091-1.553c0.196-0.749,0.288-0.9-0.05-1.631
		c0.329-0.297,0.379-0.073,0.694-0.375c0.247-0.251,0.224-0.521,0.352-0.786c0.484-0.991,0.503-0.676,0.014-1.64
		c0.731-0.27,0.37-0.42,0.425-1.092c0.073-0.923,0.434-0.05,0.333-3.184c-0.037-1.032,0.233-0.63,0.365-1.416
		c0.142-0.818-0.247-0.932-0.288-1.361c-0.037-0.361,0.265-0.886,0.201-1.507c-0.055-0.58-0.114-0.32-0.201-0.69
		c-0.187-0.79,0.224-1.293-1.275-1.375c-0.375-1.53-1.092-0.571-1.302-0.471c-0.598,0.297-0.42-0.297-1.11,0.014
		c-0.32,0.142-0.164,0.206-0.562,0.315C478.305,253.325,478.721,252.923,477.995,253.554z"/>
</g>
<g>
	<path style="fill:#9BCB64;" d="M490.955,251.685c-0.32-0.279-0.196-0.26-0.681-0.306c-0.297,0.333-0.311,0.626-0.621,1.092
		c-0.384,0.589-0.411,0.439-0.146,1.179c-0.37,0.311-0.63,0.137-0.617,0.749c0.014,0.813,0.375,0.091,0.256,1.22
		c-0.187,1.74,0.425,1.284-0.576,2.033c-0.078,0.672-0.059,0.9,0.265,1.416c0.594,0.936,0.251,0.329,0.155,1.179
		c-0.087,0.731,0.233,0.338,0.05,1.329c-0.119,0.658,0.151,0.859,0.571,1.023c-0.196,0.85-0.087,0.576,0.114,1.265
		c0.183,0.64-0.137,0.594-0.005,1.252c0.123,0.585,0.416,0.471,0.795,0.987l0.516,0.539c-0.617,1.211,0.763,2.64,0.886,2.992
		c0.361,1.046-0.388,2.718-0.489,3.211c-0.11,0.498-0.137,0.091,0.027,0.411c0.612,0.201,1.622,0.114,2.275-0.137
		c-0.16-0.402-0.365-0.498-0.521-1.124c-0.114-0.466-0.155-1.019-0.137-1.53c1.284-1.105,0.489-1.224,0.932-1.96
		c0.155-0.251,0.292-0.174,0.461-0.562c0.283-0.617-0.059-0.955,0.096-1.553c0.192-0.745,0.283-0.9-0.055-1.631
		c0.329-0.292,0.384-0.073,0.694-0.375c0.256-0.247,0.224-0.521,0.356-0.781c0.48-0.991,0.498-0.681,0.009-1.64
		c0.731-0.274,0.37-0.425,0.425-1.096c0.073-0.918,0.439-0.046,0.333-3.175c-0.032-1.042,0.233-0.63,0.365-1.416
		c0.142-0.818-0.247-0.941-0.288-1.366c-0.032-0.365,0.27-0.886,0.206-1.507c-0.059-0.585-0.119-0.324-0.206-0.69
		c-0.183-0.79,0.224-1.293-1.275-1.37c-0.375-1.535-1.092-0.58-1.297-0.475c-0.603,0.292-0.42-0.297-1.115,0.014
		c-0.315,0.137-0.16,0.201-0.557,0.315C491.261,251.457,491.676,251.055,490.955,251.685z"/>
	<path style="fill:#9BCB64;" d="M503.905,251.937c-0.32-0.283-0.196-0.265-0.681-0.315c-0.297,0.347-0.311,0.635-0.617,1.101
		c-0.388,0.585-0.411,0.429-0.151,1.179c-0.37,0.311-0.626,0.132-0.617,0.745c0.018,0.813,0.375,0.091,0.251,1.22
		c-0.183,1.745,0.429,1.284-0.571,2.028c-0.073,0.685-0.059,0.9,0.27,1.421c0.589,0.936,0.247,0.333,0.151,1.183
		c-0.082,0.726,0.233,0.333,0.055,1.325c-0.119,0.662,0.146,0.859,0.566,1.023c-0.196,0.85-0.087,0.58,0.114,1.27
		c0.183,0.635-0.132,0.594,0,1.247c0.119,0.58,0.411,0.475,0.795,0.991l0.512,0.539c-0.612,1.211,0.767,2.64,0.886,2.988
		c0.361,1.042-0.384,2.727-0.489,3.211c-0.105,0.507-0.132,0.091,0.027,0.416c0.617,0.196,1.617,0.114,2.275-0.142
		c-0.155-0.397-0.365-0.493-0.521-1.124c-0.114-0.466-0.155-1.014-0.137-1.53c1.288-1.096,0.493-1.229,0.936-1.96
		c0.151-0.256,0.288-0.174,0.461-0.557c0.279-0.621-0.059-0.959,0.091-1.558c0.192-0.74,0.279-0.895-0.05-1.626
		c0.324-0.297,0.379-0.073,0.69-0.379c0.251-0.247,0.228-0.516,0.356-0.781c0.484-0.991,0.503-0.681,0.009-1.645
		c0.731-0.265,0.375-0.42,0.429-1.092c0.073-0.918,0.434-0.046,0.333-3.179c-0.037-1.032,0.228-0.63,0.361-1.416
		c0.146-0.813-0.247-0.932-0.288-1.361c-0.032-0.361,0.27-0.886,0.206-1.507c-0.055-0.58-0.119-0.32-0.206-0.69
		c-0.183-0.79,0.224-1.297-1.27-1.37c-0.379-1.53-1.096-0.58-1.297-0.48c-0.608,0.301-0.425-0.292-1.115,0.014
		c-0.32,0.146-0.164,0.215-0.562,0.324C504.216,251.704,504.627,251.306,503.905,251.937z"/>
	<path style="fill:#9BCB64;" d="M107.808,464.747c0.534-0.507,0.566-0.927,1.928-1.466c1.238-0.877-0.461-0.242,1.147-0.388
		c0.763-0.069,0.854,0.059,1.759,0.119c3.335,0.228,5.728-1.183,7.423-3.86c2.078,1.951,2.147,4.116,5.692,4.911
		c3.755,0.831,5.751,0.256,7.72-1.992c0.539-2.96-0.571-4.294-1.393-6.373c5.029-1.909,8.556-3.54,2.558-10.169
		c1.133-7.359,1.535-7.113,0.288-15.079c9.132-2.508,5.116-12.846-0.74-17.377c1.083-1.891,2.855-2.001,2.512-5.61
		c-0.306-3.257-2.298-3.645-1.686-6.021c1.005-3.887,4.034-5.884-3.997-10.169c1.517-3.221,1.32-4.536-0.562-8.013
		c-2.48-4.564,0.703-3.517-0.069-8.963c-0.904-6.359-4.829-3.38-6.669-7.35c-0.927-1.996-0.027-2.727-4.577-3.659
		c4.226-6.989,0.274-7.149-0.585-12.448c-0.466-2.892-0.388-2.243-2.339-3.869c-4.787-4.015-4.97-11.151-12.517-11.155l-1.005,1.64
		c-0.123,0.379-0.174,1.517-0.178,1.96c-0.347,39.665,0.037,81.628,0.064,121.521l0.703,0.525l0.516,0.384l0.05,0.037l0.046,0.032
		l0.046,0.037l0.046,0.037l0.05,0.032l0.096,0.069l0.046,0.037l0.046,0.037l2.088,1.521l0.164,0.114L107.808,464.747z"/>
</g>
<path style="fill:#ADD37F;" d="M102.582,460.937c-0.027-39.893-0.411-81.861-0.064-121.521c0.005-0.443,0.055-1.581,0.178-1.96
	l1.005-1.64c-6.606,0.955-7.926,6.235-7.784,13.325c-5.514,4.865-6.199,2.631-5.02,12.731c0.63,5.395-4.011,3.627,0.155,15.477
	c-9.392,0.434-6.053,4.038-8.711,7.77c-2.713,3.81-5.5,5.162,0.292,11.009c-2.997,1.745-5.779,1.243-3.189,8.903
	c-5.331,7.647-3.659,14.262-3.129,24.133c0.187,3.595-1.466,3.312-2.659,6.51l0.886,0.891l0.822,0.827
	c1.165,1.156,2.339,2.307,3.527,3.44l1.01,0.964c1.092,1.037,2.197,2.069,3.312,3.083l1.425,1.293
	c1.014,0.914,2.033,1.823,3.061,2.718l1.658,1.43l1.183,1.014l0.502,0.42l0.891,0.749l0.055,0.05l0.055,0.041l0.059,0.05
	l0.055,0.046l0.055,0.046l0.055,0.046l0.055,0.05c0.539,0.452,1.078,0.9,1.626,1.343l0.059,0.046l0.055,0.046l0.055,0.046
	l0.059,0.046l0.055,0.046l0.055,0.046l0.059,0.046l0.279,0.233l0.082,0.064l0.018,0.018l0.128,0.101l1.85,1.485l0.055,0.046
	l0.059,0.041l0.055,0.046l0.055,0.046l0.055,0.046l0.059,0.041l1.412,1.115l0.64,0.498l0.055,0.041l0.05,0.041l0.05,0.037
	l0.05,0.041l0.155,0.119l0.055,0.041c0.649,0.507,1.306,1.014,1.969,1.507l0.05,0.041l0.055,0.037l0.05,0.046l0.055,0.037
	l0.05,0.041l0.055,0.041l0.05,0.037l0.05,0.041l0.055,0.037l0.471,0.352L102.582,460.937z"/>
<path style="fill:#6C4C40;" d="M109.347,465.839l0.388-2.558c-1.361,0.539-1.393,0.959-1.928,1.466l0.087,0.064l0.982,0.699
	l0.046,0.027l0.037,0.032l0.046,0.027l0.037,0.027l0.041,0.032l0.041,0.027l0.041,0.027l0.046,0.027l0.037,0.032l0.046,0.027
	l0.041,0.032L109.347,465.839z"/>
<path style="fill:#9BCB64;" d="M436.969,389.483c2.572,0.503,3.919,0.571,6.395-0.471c3.33-1.402,1.923-2.138,4.769-3.266
	c1.686-1.197-0.63-0.333,1.562-0.53c1.051-0.096,1.165,0.078,2.407,0.16c4.55,0.311,7.816-1.613,10.132-5.272
	c2.837,2.668,2.928,5.623,7.78,6.701c2.417,0.539,4.299,0.649,5.897,0.288c1.375-2.302,2.713-4.623,4.015-6.971l0.073-0.128
	l0.333-0.598c-0.425-1.361-1.11-2.549-1.69-4.011c1.909-0.726,3.664-1.421,5.02-2.238c0.891-1.731,1.763-3.467,2.613-5.217
	c-0.429-1.672-1.718-3.75-4.139-6.423c1.553-10.059,2.101-9.712,0.393-20.598c12.471-3.422,6.985-17.532-1.005-23.727
	c1.471-2.576,3.897-2.732,3.431-7.661c-0.42-4.44-3.138-4.975-2.302-8.218c1.37-5.308,5.505-8.031-5.459-13.883
	c2.069-4.404,1.804-6.199-0.767-10.941c-3.385-6.235,0.959-4.806-0.096-12.243c-1.238-8.675-6.592-4.623-9.109-10.036
	c-1.261-2.718-0.037-3.718-6.249-4.998c5.774-9.543,0.379-9.758-0.795-16.989c-0.635-3.956-0.534-3.061-3.189-5.29
	c-6.542-5.482-6.793-15.23-17.099-15.235l-1.37,2.238c-0.164,0.521-0.238,2.074-0.242,2.686
	c-0.493,56.078,0.087,115.523,0.087,171.72C437.827,388.784,437.444,388.999,436.969,389.483z"/>
<path style="fill:#ADD37F;" d="M432.263,388.364l4.705,1.119c0.475-0.484,0.859-0.699,1.398-1.147
	c0-56.197-0.58-115.642-0.087-171.72c0.005-0.612,0.078-2.165,0.242-2.686l1.37-2.238c-9.013,1.306-10.822,8.52-10.625,18.199
	c-7.528,6.642-8.469,3.595-6.857,17.382c0.859,7.368-5.477,4.956,0.21,21.137c-12.823,0.589-8.264,5.509-11.891,10.607
	c-3.705,5.203-7.51,7.049,0.397,15.034c-4.088,2.385-7.894,1.695-4.353,12.16c-7.277,10.434-4.998,19.469-4.276,32.95
	c0.265,4.956-2.037,4.513-3.668,8.995c-1.375,3.778-1.384,7.994,0.475,11.407c2.809,5.162,3.531,2.106,1.311,9.173
	c-0.968,3.083-2.028,7.725-1.384,11.174c0.617,3.289,1.11,2.302,2.174,3.828c0.827,1.197,0.416,0.566,1.005,2.024
	c0.073,0.187,0.114,0.411,0.187,0.598c0.078,0.187,0.137,0.407,0.21,0.594c2.334,5.692,8.488-0.292,13.051-2.01
	c1.937,3.444,1.782,7.606,6.615,7.775C426.553,392.859,429.641,389.446,432.263,388.364z"/>
<path style="fill:#6C4C40;" d="M436.969,389.483l-4.705-1.119c-0.955,7.78-4.947,15.331-7.926,21.032
	c-4.212,8.054-10.498,14.367-12.247,17.555c9.328,0.005,11.187-2.01,18.679-4.276c1.074,5.692,5.993,8.003,11.854,8.538l1.585-1.704
	l0.292-0.311c0.959-1.046,1.905-2.097,2.846-3.157l0.58-0.653c-1.571-4.646-2.321-7.693-2.174-16.377
	c0.123-7.674,1.229-15.943,2.38-23.265c-2.846,1.128-1.439,1.864-4.769,3.266C440.888,390.054,439.54,389.985,436.969,389.483z"/>
<path style="fill:#FFD34E;" d="M79.956,172.963c0,0,0.375,6.51-1.215,7.798c-1.59,1.293,2.599-0.027,2.599-0.027l3.074,1.261
	c0,0,1.233-0.059-0.672-2.307c-1.9-2.248-0.174-6.948-0.174-6.948L79.956,172.963z"/>
<path style="fill:#FFDF81;" d="M86.831,131.452c9.342,1.014,15.842,11.85,14.527,24.202c-1.32,12.357-9.963,21.552-19.305,20.538
	c-9.337-1.01-15.838-11.845-14.522-24.202C68.851,139.634,77.494,130.438,86.831,131.452z"/>
<path style="fill:#BBBBBB;" d="M80.075,177.673l2.837,0.311c0.137,0.014,0.228,0.132,0.215,0.265v0.005
	c-0.014,0.132-0.132,0.224-0.265,0.215l-2.841-0.311c-0.132-0.014-0.224-0.132-0.21-0.265l0,0
	C79.823,177.755,79.942,177.659,80.075,177.673z"/>
<path style="fill:#FFE900;" d="M110.311,196.064c0,0,0.375,6.505-1.215,7.798c-1.59,1.293,2.604-0.027,2.604-0.027l3.07,1.256
	c0,0,1.233-0.055-0.667-2.302c-1.905-2.248-0.178-6.944-0.178-6.944L110.311,196.064z"/>
<path style="fill:#FFFF00;" d="M117.186,154.553c9.342,1.01,15.842,11.85,14.527,24.206c-1.32,12.352-9.959,21.548-19.305,20.534
	c-9.337-1.014-15.838-11.85-14.522-24.202C99.206,162.735,107.849,153.544,117.186,154.553z"/>
<path style="fill:#BBBBBB;" d="M110.43,200.774l2.841,0.311c0.132,0.014,0.224,0.132,0.21,0.265v0.005
	c-0.014,0.132-0.132,0.224-0.265,0.21l-2.837-0.306c-0.132-0.014-0.228-0.132-0.215-0.265v-0.005
	C110.179,200.856,110.297,200.76,110.43,200.774z"/>
<path style="fill:#FF3C00;" d="M151.543,169.267c0,0,0.375,6.5-1.215,7.793c-1.59,1.288,2.599-0.027,2.599-0.027l3.074,1.256
	c0,0,1.233-0.059-0.672-2.307c-1.905-2.243-0.174-6.944-0.174-6.944L151.543,169.267z"/>
<path style="fill:#FF6E40;" d="M158.418,127.752c9.342,1.014,15.842,11.85,14.527,24.202c-1.32,12.357-9.959,21.552-19.3,20.538
	c-9.346-1.01-15.842-11.85-14.527-24.206C140.438,135.929,149.076,126.733,158.418,127.752z"/>
<path style="fill:#747474;" d="M151.662,173.972l2.837,0.311c0.132,0.014,0.228,0.128,0.215,0.265l0,0
	c-0.018,0.132-0.132,0.228-0.265,0.215l-2.841-0.306c-0.132-0.018-0.228-0.137-0.215-0.265l0.005-0.005
	C151.406,174.055,151.525,173.959,151.662,173.972z"/>
<path style="fill:#FFFFFF;" d="M154.293,174.594c-0.023,0.379-7.405,130.836-86.813,176.544l-0.132-0.233l-0.21-0.155
	c22.539-31.744,15.061-172.054,15.043-172.46l0.521-0.023c0.023,0.393,7.25,136.075-13.992,171.035
	c31.79-30.753,42.278-145.344,42.31-145.673l0.521,0.046c-0.032,0.333-10.47,114.363-42.173,145.709
	c77.128-46.668,84.373-174.452,84.401-174.822L154.293,174.594z"/>
<path style="fill:#FFD34E;" d="M418.847,203.588c0,0-0.096,7.254,1.731,8.615c1.832,1.352-2.896,0.096-2.896,0.096l-3.358,1.553
	c0,0-1.375-0.005,0.635-2.599c2.005-2.595-0.142-7.734-0.142-7.734L418.847,203.588z"/>
<path style="fill:#FFDF81;" d="M409.181,157.742c-10.347,1.59-17.053,13.969-14.983,27.646c2.069,13.677,12.128,23.48,22.471,21.89
	c10.342-1.585,17.048-13.965,14.983-27.642C429.582,165.96,419.518,156.152,409.181,157.742z"/>
<path style="fill:#BBBBBB;" d="M418.943,208.832l-3.138,0.484c-0.146,0.018-0.251,0.16-0.228,0.306l0,0
	c0.023,0.146,0.16,0.251,0.311,0.228l3.138-0.484c0.146-0.023,0.247-0.16,0.228-0.306l0,0
	C419.23,208.909,419.089,208.809,418.943,208.832z"/>
<path style="fill:#FFE900;" d="M386.203,230.786c0,0-0.1,7.254,1.727,8.611c1.832,1.357-2.892,0.1-2.892,0.1l-3.358,1.549
	c0,0-1.375-0.005,0.635-2.595c2.001-2.59-0.146-7.738-0.146-7.738L386.203,230.786z"/>
<path style="fill:#FFFF00;" d="M376.532,184.941c-10.342,1.59-17.053,13.969-14.983,27.646c2.069,13.682,12.133,23.48,22.475,21.895
	c10.342-1.59,17.044-13.965,14.979-27.646C396.934,193.154,386.874,183.351,376.532,184.941z"/>
<path style="fill:#BBBBBB;" d="M386.299,236.03l-3.143,0.484c-0.146,0.023-0.247,0.16-0.224,0.306l0,0
	c0.023,0.151,0.16,0.251,0.306,0.228l3.138-0.484c0.146-0.023,0.251-0.16,0.228-0.306l0,0
	C386.582,236.113,386.445,236.008,386.299,236.03z"/>
<path style="fill:#FF3C00;" d="M339.028,203.003c0,0-0.101,7.259,1.731,8.615c1.827,1.357-2.896,0.1-2.896,0.1l-3.358,1.549
	c0,0-1.375-0.005,0.635-2.595c2.01-2.599-0.146-7.738-0.146-7.738L339.028,203.003z"/>
<path style="fill:#FF6E40;" d="M329.357,157.162c-10.342,1.59-17.048,13.965-14.979,27.646c2.069,13.677,12.128,23.48,22.471,21.895
	c10.342-1.59,17.048-13.969,14.979-27.651C349.758,165.375,339.699,155.572,329.357,157.162z"/>
<path style="fill:#747474;" d="M339.124,208.252l-3.143,0.48c-0.146,0.023-0.247,0.16-0.224,0.311l0,0
	c0.023,0.146,0.16,0.251,0.311,0.224l3.138-0.48c0.146-0.023,0.247-0.16,0.224-0.311l0,0
	C339.412,208.329,339.27,208.229,339.124,208.252z"/>
<path style="fill:#FFFFFF;" d="M336.228,209.069c0.046,0.42,14.604,145.189,105.167,192.112l0.132-0.26l0.233-0.183
	c-26.623-34.202-25.129-190.664-25.125-191.121h-0.589c-0.005,0.443-1.444,151.749,23.891,189.586
	c-36.86-32.648-54.1-159.606-54.155-159.976l-0.58,0.082c0.055,0.37,17.217,126.715,54.009,160.017
	C351.133,351.22,336.858,209.426,336.812,209.01L336.228,209.069z"/>
<g>
</g>
<g>
</g>
<g>
</g>
<g>
</g>
<g>
</g>
<g>
</g>
<g>
</g>
<g>
</g>
<g>
</g>
<g>
</g>
<g>
</g>
<g>
</g>
<g>
</g>
<g>
</g>
<g>
</g>
</svg>
