<?xml version="1.0" encoding="iso-8859-1"?>
<!-- Generator: Adobe Illustrator 19.0.0, SVG Export Plug-In . SVG Version: 6.00 Build 0)  -->
<svg version="1.1" id="Layer_1" xmlns="http://www.w3.org/2000/svg" xmlns:xlink="http://www.w3.org/1999/xlink" x="0px" y="0px"
	 viewBox="0 0 512 512" style="enable-background:new 0 0 512 512;" xml:space="preserve">
<g>
	<path style="fill:#7E7E7E;" d="M256,0c141.391,0,256,114.615,256,256c0,141.391-114.609,256-256,256C114.615,512,0,397.391,0,256
		C0,114.615,114.615,0,256,0z"/>
	<path style="fill:#BBBBBB;" d="M511.889,263.4H0.117C4.031,401.363,117.087,512,256,512S507.975,401.363,511.889,263.4z"/>
</g>
<path style="fill:#E8E8E8;" d="M269.482,407.99c17.829,0,32.289,14.46,32.289,32.289c0,17.829-14.46,32.289-32.289,32.289
	c-17.835,0-32.295-14.46-32.295-32.289C237.187,422.45,251.647,407.99,269.482,407.99z"/>
<g>
	<path style="fill:#9A9A9A;" d="M411.98,286.549l-0.006-0.48l-59.762,0.141v0.34H1.822c4.189,35.236,15.527,68.287,32.541,97.641
		h1.787l0.129,3.24l1.371,2.256l0.111-5.496h10.617v-7.529h7.265v-44.125h4.148v54.056h0.006l28.311-13.704v-40.351h2.818
		l0.187,30.918l3.908-0.012l0.012,2.66l14.261-0.029l-0.018-2.66l32.629-0.076l-0.264-42.888h1.213v-1.33h4.465l-1.348,59.177
		l2.9,0.023c2.437,2.514,6.773,4.254,11.812,4.459l0.012,0.768l0.264,19.874l0.803-19.874l0.035-0.75
		c5.203-0.035,9.79-1.717,12.409-4.254l2.906,0.023l0.996-43.451h2.976v70.004h5.601v4.67h11.15l0.51,11.777l0.902,21.591
		l0.428-21.602l0.258-11.765h10.939v-4.67h5.607v-70.004h4.717v54.97h58.761V320.45h13.757v12.087h4.552v52.421h6.158
		c-0.029,0.217-0.041,0.428-0.041,0.639c0,3.814,4.676,6.955,10.681,7.371l0.375,9.843l0.721,19.862l0.346-19.868l0.182-9.796
		c6.521-0.094,11.771-3.375,11.771-7.412c0-0.211-0.018-0.422-0.047-0.639h6.158v-52.421h5.326v-25.042h12.445l0.357,57.261
		l-1.582,0.006l0.018,2.678l64.743-0.141l-0.018-2.689l-3.398,0.006l-0.305-49.538h13.546v69.881h7.259v8.244h9.544l0.363,9.609
		l0.51,14.015l0.316-0.205l0.246-13.816l0.176-9.603h10.622v-8.244h7.259v-49.843h6.785v41.547h7.084v6.515h2.355
		c16.692-29.096,27.813-61.79,31.961-96.628H411.98z"/>
	<path style="fill:#DFDFDF;" d="M511.027,233.724h-26.02v-92.239C499.122,169.661,508.192,200.796,511.027,233.724z"/>
	<path style="fill:#36A8D1;" d="M8.818,281.504H1.26C0.428,273.114,0,264.607,0,256c0-23.102,3.076-45.484,8.818-66.776V281.504z"/>
	<g>
		<path style="fill:#DFDFDF;" d="M55.644,281.504H19.341V158.259c2.707-6.545,5.666-12.954,8.882-19.212h27.42V281.504z"/>
		<path style="fill:#DFDFDF;" d="M48.378,148.545H26.6v-6.257c2.607-5.256,5.39-10.412,8.343-15.456h13.435V148.545z"/>
		<polygon style="fill:#DFDFDF;" points="37.949,141.655 36.865,141.239 35.775,141.637 36.203,124.704 37.703,122.226 		"/>
		<polygon style="fill:#DFDFDF;" points="461.999,281.504 425.702,281.504 425.702,125.571 461.999,125.571 		"/>
		<polygon style="fill:#DFDFDF;" points="454.739,135.965 432.961,135.965 432.961,112.201 454.739,112.201 		"/>
		<polygon style="fill:#DFDFDF;" points="444.31,128.431 443.22,127.968 442.131,128.407 442.869,96.61 443.209,81.412 
			443.783,82.027 443.941,96.622 		"/>
		<path style="fill:#DFDFDF;" d="M505.086,281.504h-36.303V139.047h14.993c9.298,18.075,16.505,37.404,21.309,57.659V281.504z"/>
		<path style="fill:#DFDFDF;" d="M489.167,150.179h-13.3v-21.708h2.156C482.072,135.503,485.792,142.75,489.167,150.179z"/>
		<polygon style="fill:#DFDFDF;" points="59.798,122.923 59.792,122.923 59.792,281.504 88.109,281.504 88.109,145.164 		"/>
		<polygon style="fill:#DFDFDF;" points="162.583,159.671 161.493,159.226 160.404,159.677 160.697,127.874 160.96,95.626 
			161.763,127.874 		"/>
		<polygon style="fill:#DFDFDF;" points="179.158,281.065 148.012,281.504 145.973,136.387 177.114,135.954 		"/>
		<path style="fill:#DFDFDF;" d="M176.522,143.752c0.111,8.209-6.451,14.958-14.659,15.075c-8.209,0.111-14.958-6.445-15.075-14.659
			c-0.117-8.214,6.445-14.958,14.659-15.075C169.655,128.976,176.405,135.544,176.522,143.752z"/>
		<polygon style="fill:#DFDFDF;" points="200.146,100.758 198.786,100.254 197.421,100.729 198.347,66.172 199.249,31.129 
			199.677,66.184 		"/>
		<polygon style="fill:#DFDFDF;" points="216.481,281.504 181.086,281.504 181.086,92.854 216.481,92.854 		"/>
		<polygon style="fill:#DFDFDF;" points="210.874,102.118 186.687,102.118 186.687,85.279 210.874,85.279 		"/>
		<polygon style="fill:#DFDFDF;" points="279.958,281.504 221.197,281.504 221.197,117.257 279.958,117.257 		"/>
	</g>
	<polygon style="fill:#BBBBBB;" points="411.974,286.069 352.212,285.834 352.698,157.515 412.46,157.744 	"/>
	<g>
		<polygon style="fill:#DFDFDF;" points="415.859,158.599 351.116,158.359 351.134,154 415.876,154.246 		"/>
		<polygon style="fill:#DFDFDF;" points="141.449,281.504 90.657,281.311 91.114,160.474 141.906,160.667 		"/>
		<polygon style="fill:#DFDFDF;" points="109.266,162.278 95.011,162.226 95.034,156.173 109.295,156.226 		"/>
		<polygon style="fill:#DFDFDF;" points="334.57,281.504 298.267,281.504 298.267,125.571 334.57,125.571 		"/>
		<polygon style="fill:#DFDFDF;" points="316.882,128.431 315.792,127.968 314.702,128.407 315.44,96.61 316.161,64.368 
			316.507,96.622 		"/>
		<path style="fill:#DFDFDF;" d="M328.459,124.546c0,6.644-5.39,12.029-12.04,12.029c-6.644,0-12.035-5.384-12.035-12.029
			c0-6.65,5.39-12.04,12.035-12.04C323.069,112.506,328.459,117.896,328.459,124.546z"/>
	</g>
	<g>
		<polygon style="fill:#BBBBBB;" points="99.838,281.504 53.657,281.504 53.657,210.651 99.838,210.651 		"/>
		<polygon style="fill:#BBBBBB;" points="142.856,281.504 98.573,281.504 98.573,230.261 142.856,230.261 		"/>
		<polygon style="fill:#BBBBBB;" points="293.715,281.504 339.896,281.504 339.896,210.651 293.715,210.651 		"/>
		<polygon style="fill:#BBBBBB;" points="250.698,281.504 294.98,281.504 294.98,230.261 250.698,230.261 		"/>
		<path style="fill:#BBBBBB;" d="M48.431,281.504H1.26C0.428,273.114,0,264.607,0,256c0-31.715,5.783-62.083,16.329-90.118h32.102
			V281.504z"/>
		<polygon style="fill:#BBBBBB;" points="12.181,177.799 39.103,177.799 21.479,153.244 39.103,177.799 		"/>
	</g>
	<g>
		<path style="fill:#747474;" d="M8.935,281.153H1.23C0.422,272.874,0,264.49,0,256c0-8.074,0.393-16.054,1.125-23.934h7.81V281.153
			z"/>
		<polygon style="fill:#747474;" points="69.934,281.504 11.419,281.504 11.419,251.301 69.934,251.301 		"/>
		<polygon style="fill:#747474;" points="131.928,281.504 73.549,281.504 73.549,248.424 131.928,248.424 		"/>
		<polygon style="fill:#747474;" points="119.882,252.321 85.589,252.321 85.589,241.856 119.882,241.856 		"/>
	</g>
	<g>
		<path style="fill:#BBBBBB;" d="M510.74,281.504h-37.744v-88.495h31.188C509.281,213.164,512,234.263,512,256
			C512,264.607,511.572,273.114,510.74,281.504z"/>
		<polygon style="fill:#BBBBBB;" points="248.102,281.504 199.964,281.504 199.964,206.462 248.102,206.462 		"/>
		<polygon style="fill:#BBBBBB;" points="214.307,214.248 204.024,214.248 204.024,199.384 214.307,199.384 		"/>
	</g>
	<polygon style="fill:#747474;" points="304.595,281.739 260.828,281.739 260.828,247.276 304.595,247.276 	"/>
	<g>
		<polygon style="fill:#BBBBBB;" points="469.686,281.504 430.043,281.504 430.043,206.462 469.686,206.462 		"/>
		<polygon style="fill:#BBBBBB;" points="441.855,214.248 433.389,214.248 433.389,199.384 441.855,199.384 		"/>
		<polygon style="fill:#BBBBBB;" points="438.586,200.878 437.959,200.632 437.32,200.866 437.748,184.004 438.164,166.919 
			438.369,184.016 		"/>
		<polygon style="fill:#BBBBBB;" points="197.837,281.504 149.699,281.504 149.699,206.462 197.837,206.462 		"/>
		<polygon style="fill:#BBBBBB;" points="156.115,210.317 155.482,210.077 154.855,210.305 155.283,193.449 155.699,176.358 
			155.898,193.455 		"/>
	</g>
	<g>
		<polygon style="fill:#747474;" points="162.911,281.504 134.594,281.504 134.594,232.417 162.911,232.417 		"/>
		<polygon style="fill:#747474;" points="335.654,281.504 307.331,281.504 307.331,232.417 335.654,232.417 		"/>
		<polygon style="fill:#747474;" points="212.702,281.504 165.507,281.504 165.507,232.417 212.702,232.417 		"/>
		<polygon style="fill:#747474;" points="202.085,237.608 176.129,237.608 176.129,227.701 202.085,227.701 		"/>
		<polygon style="fill:#747474;" points="392.756,281.504 334.236,281.504 334.236,251.301 392.756,251.301 		"/>
		<polygon style="fill:#747474;" points="446.185,281.739 402.412,281.739 402.412,238.985 446.185,238.985 		"/>
		<polygon style="fill:#747474;" points="233.056,277.96 215.994,277.96 215.994,263.336 233.056,263.336 		"/>
		<polygon style="fill:#747474;" points="257.887,277.96 231.111,277.96 231.111,254.699 257.887,254.699 		"/>
		<path style="fill:#747474;" d="M510.723,281.739h-32.078v-22.182h33.315C511.854,267.033,511.449,274.433,510.723,281.739z"/>
		<polygon style="fill:#747474;" points="475.117,238.394 475.117,281.194 452.929,281.194 452.929,238.394 		"/>
		<path style="fill:#747474;" d="M510.324,285.284H1.676c-0.451-3.99-0.809-7.998-1.084-12.04h510.822
			C511.139,277.286,510.781,281.294,510.324,285.284z"/>
	</g>
	<path style="fill:#DFDFDF;" d="M218.543,322.02c31.862,0,57.694,0.908,57.694,2.027c0,1.125-25.833,2.033-57.694,2.033
		c-31.867,0-57.694-0.908-57.694-2.033C160.849,322.928,186.676,322.02,218.543,322.02z M500.458,332.238l-0.234,0.727
		c-9.556,0.387-34.041,0.662-62.745,0.662c-37.018,0-67.028-0.463-67.028-1.031s30.01-1.031,67.028-1.031
		C466.417,331.564,491.066,331.84,500.458,332.238z M495.706,346.03l-0.773,2.033l-5.402,0.012c-17.858,0-32.33-0.463-32.33-1.031
		c0-0.574,14.472-1.031,32.33-1.031L495.706,346.03z M490.228,359.43c-0.674,1.523-1.365,3.041-2.068,4.552
		c-29.805-0.088-53.294-1.072-53.294-2.273C434.865,360.479,459.444,359.477,490.228,359.43z M474.701,389.135
		c-0.785,1.283-1.588,2.56-2.391,3.832c-7.23,0.398-16.657,0.639-26.963,0.639c-22.786,0-41.254-1.178-41.254-2.631
		c0-1.447,18.468-2.625,41.254-2.625C456.837,388.35,467.219,388.649,474.701,389.135z M452.56,420.007
		c-0.908,1.096-1.822,2.18-2.754,3.252c-24.081-0.264-40.955-0.885-40.955-1.605C408.851,420.897,427.026,420.259,452.56,420.007z
		 M419.702,452.818c-2.894,2.414-5.847,4.758-8.847,7.037c-9.486,0.229-20.015,0.357-31.106,0.357
		c-41.763,0-75.623-1.793-75.623-4.002c0-2.203,33.859-3.99,75.623-3.99C394.42,452.22,408.107,452.437,419.702,452.818z
		 M370.937,484.796c-3.615,1.816-7.277,3.556-10.992,5.209h-1.078c-33.736,0-61.092-1.178-61.092-2.631
		c0-1.453,27.356-2.631,61.092-2.631C363.004,484.744,367.035,484.767,370.937,484.796z M83.123,444.802l-1.33-1.242
		c3.088-1.025,16.323-1.805,32.184-1.805c18.157,0,32.869,1.019,32.869,2.267c0,1.254-14.712,2.262-32.869,2.262
		C99.821,446.285,87.751,445.67,83.123,444.802z M65.704,427.231c-1.031-1.148-2.057-2.297-3.07-3.463
		c11.636-0.357,27.028-0.58,43.902-0.58c36.303,0,65.733,1.014,65.733,2.267c0,1.248-29.43,2.262-65.733,2.262
		C91.103,427.717,76.918,427.536,65.704,427.231z M54.835,414.341c-1.178-1.494-2.338-3.006-3.486-4.529
		c15.122-0.768,38.066-1.26,63.77-1.26c45.537,0,82.449,1.541,82.449,3.445c0,1.892-36.912,3.439-82.449,3.439
		C91.325,415.437,69.881,415.015,54.835,414.341z M35.641,386.347c-0.451-0.768-0.914-1.529-1.359-2.297
		c11.419-0.691,33.139-1.154,58.075-1.154c36.783,0,66.6,1.014,66.6,2.262c0,1.254-29.817,2.267-66.6,2.267
		C68.381,387.425,47.371,386.991,35.641,386.347z M14.454,340.962l-0.633-1.793c10.997-0.299,27.456-0.492,45.859-0.492
		c33.098,0,59.932,0.615,59.932,1.377c0,0.768-26.835,1.383-59.932,1.383C41.629,341.437,25.44,341.249,14.454,340.962z
		 M11.876,333.269c-0.293-0.932-0.574-1.863-0.861-2.795c13.775-0.439,33.977-0.715,56.493-0.715
		c41.511,0,75.166,0.937,75.166,2.092c0,1.16-33.654,2.098-75.166,2.098C45.46,333.949,25.628,333.685,11.876,333.269z
		 M7.224,316.553l-0.51-2.086c10.687-0.211,24.702-0.34,40.041-0.34c33.531,0,60.717,0.615,60.717,1.377s-27.186,1.377-60.717,1.377
		C31.657,316.882,17.847,316.758,7.224,316.553z M280.772,395.844c34.955,0,63.284,1.494,63.284,3.34
		c0,1.84-28.329,3.334-63.284,3.334c-34.943,0-63.278-1.494-63.278-3.334C217.494,397.338,245.829,395.844,280.772,395.844z
		 M378.706,416.392c16.646,0,30.145,1.178,30.145,2.631c0,1.453-13.499,2.631-30.145,2.631c-16.657,0-30.151-1.178-30.151-2.631
		C348.556,417.569,362.049,416.392,378.706,416.392z M371.875,443.215c33.303,0,60.296-1.178,60.296-2.631
		c0-1.453-26.993-2.631-60.296-2.631s-60.296,1.178-60.296,2.631C311.579,442.037,338.572,443.215,371.875,443.215z M220.371,440.25
		c40.603,0,73.52,0.674,73.52,1.506c0,0.838-32.916,1.512-73.52,1.512c-40.609,0-73.525-0.674-73.525-1.512
		C146.846,440.924,179.762,440.25,220.371,440.25z M186.635,465.907c24.842,0,44.974,1.014,44.974,2.267
		c0,1.248-20.132,2.262-44.974,2.262s-44.98-1.014-44.98-2.262C141.655,466.92,161.792,465.907,186.635,465.907z M277.456,419.122
		c19.587,0,35.465,0.674,35.465,1.506c0,0.838-15.878,1.512-35.465,1.512c-19.587,0-35.465-0.674-35.465-1.512
		C241.991,419.796,257.869,419.122,277.456,419.122z M340.482,329.496c16.558,0,29.969,0.697,29.969,1.553
		c0,0.855-13.411,1.547-29.969,1.547c-16.552,0-29.963-0.691-29.963-1.547C310.519,330.193,323.93,329.496,340.482,329.496z
		 M333.697,345.292c33.098,0,59.932-0.691,59.932-1.547c0-0.855-26.835-1.547-59.932-1.547c-33.104,0-59.932,0.691-59.932,1.547
		C273.765,344.601,300.593,345.292,333.697,345.292z M341.525,355.299c41.517,0,75.172-1.055,75.172-2.355
		c0-1.295-33.654-2.349-75.172-2.349s-75.172,1.055-75.172,2.349C266.353,354.245,300.007,355.299,341.525,355.299z
		 M320.772,372.841c33.531,0,60.717-0.691,60.717-1.547c0-0.855-27.186-1.547-60.717-1.547c-33.537,0-60.723,0.691-60.723,1.547
		C260.049,372.15,287.235,372.841,320.772,372.841z M406.73,316.085c22.645,0,41.002-0.691,41.002-1.547
		c0-0.861-18.356-1.547-41.002-1.547c-22.651,0-41.013,0.686-41.013,1.547C365.717,315.393,384.079,316.085,406.73,316.085z
		 M66.465,352.751c16.552,0,29.969-0.621,29.969-1.383s-13.417-1.377-29.969-1.377c-16.546,0-29.963,0.615-29.963,1.377
		S49.919,352.751,66.465,352.751z M163.462,349.071c37.023,0,67.034,0.41,67.034,0.92c0,0.504-30.01,0.92-67.034,0.92
		c-37.012,0-67.028-0.416-67.028-0.92C96.434,349.481,126.45,349.071,163.462,349.071z M132.708,364.703
		c22.651,0,41.008,0.615,41.008,1.377c0,0.762-18.356,1.377-41.008,1.377c-22.645,0-41.002-0.615-41.002-1.377
		C91.706,365.318,110.062,364.703,132.708,364.703z M215.514,336.199c17.858,0,32.33,0.41,32.33,0.914
		c0,0.51-14.472,0.92-32.33,0.92c-17.853,0-32.33-0.41-32.33-0.92C183.184,336.609,197.661,336.199,215.514,336.199z"/>
</g>
<path style="fill:#BBBBBB;" d="M1.664,285.161h508.678c-0.48,4.224-1.06,8.419-1.746,12.579H3.404
	C2.719,293.58,2.144,289.385,1.664,285.161z"/>
<g>
	<polygon style="fill:#FFFFFF;" points="16.587,256.51 63.536,256.51 63.536,260.441 16.587,260.441 	"/>
	<polygon style="fill:#FFFFFF;" points="16.587,263.4 63.536,263.4 63.536,267.326 16.587,267.326 	"/>
	<polygon style="fill:#FFFFFF;" points="16.587,269.324 63.536,269.324 63.536,273.243 16.587,273.243 	"/>
	<polygon style="fill:#FFFFFF;" points="78.781,252.285 125.724,252.285 125.724,256.211 78.781,256.211 	"/>
	<polygon style="fill:#FFFFFF;" points="78.781,259.533 125.724,259.533 125.724,263.459 78.781,263.459 	"/>
	<polygon style="fill:#FFFFFF;" points="78.781,266.775 125.724,266.775 125.724,270.7 78.781,270.7 	"/>
	<polygon style="fill:#FFFFFF;" points="78.781,274.022 125.724,274.022 125.724,277.948 78.781,277.948 	"/>
	<polygon style="fill:#FFFFFF;" points="136.51,234.644 160.603,234.644 160.603,236.659 136.51,236.659 	"/>
	<polygon style="fill:#FFFFFF;" points="136.51,238.358 160.603,238.358 160.603,240.38 136.51,240.38 	"/>
	<polygon style="fill:#FFFFFF;" points="136.51,242.079 160.603,242.079 160.603,244.094 136.51,244.094 	"/>
	<polygon style="fill:#FFFFFF;" points="136.51,245.799 160.603,245.799 160.603,247.815 136.51,247.815 	"/>
	<polygon style="fill:#FFFFFF;" points="136.51,249.907 160.603,249.907 160.603,251.922 136.51,251.922 	"/>
	<polygon style="fill:#FFFFFF;" points="136.51,253.627 160.603,253.627 160.603,255.643 136.51,255.643 	"/>
	<polygon style="fill:#FFFFFF;" points="136.51,257.348 160.603,257.348 160.603,259.357 136.51,259.357 	"/>
	<polygon style="fill:#FFFFFF;" points="136.51,261.062 160.603,261.062 160.603,263.078 136.51,263.078 	"/>
	<polygon style="fill:#FFFFFF;" points="136.51,265.169 160.603,265.169 160.603,267.185 136.51,267.185 	"/>
	<polygon style="fill:#FFFFFF;" points="136.51,268.89 160.603,268.89 160.603,270.905 136.51,270.905 	"/>
	<polygon style="fill:#FFFFFF;" points="136.51,272.61 160.603,272.61 160.603,274.626 136.51,274.626 	"/>
	<polygon style="fill:#FFFFFF;" points="136.51,276.325 160.603,276.325 160.603,278.341 136.51,278.341 	"/>
	<polygon style="fill:#FFFFFF;" points="168.477,237.608 210.68,237.608 210.68,239.624 168.477,239.624 	"/>
	<polygon style="fill:#FFFFFF;" points="168.477,242.102 210.68,242.102 210.68,244.118 168.477,244.118 	"/>
	<polygon style="fill:#FFFFFF;" points="168.477,246.596 210.68,246.596 210.68,248.612 168.477,248.612 	"/>
	<polygon style="fill:#FFFFFF;" points="168.477,251.09 210.68,251.09 210.68,253.106 168.477,253.106 	"/>
	<polygon style="fill:#FFFFFF;" points="168.477,255.584 210.68,255.584 210.68,257.6 168.477,257.6 	"/>
	<polygon style="fill:#FFFFFF;" points="168.477,260.078 210.68,260.078 210.68,262.093 168.477,262.093 	"/>
	<polygon style="fill:#FFFFFF;" points="168.477,264.572 210.68,264.572 210.68,266.581 168.477,266.581 	"/>
	<polygon style="fill:#FFFFFF;" points="168.477,269.06 210.68,269.06 210.68,271.081 168.477,271.081 	"/>
	<polygon style="fill:#FFFFFF;" points="168.477,273.56 210.68,273.56 210.68,275.575 168.477,275.575 	"/>
	<polygon style="fill:#FFFFFF;" points="265.591,250.205 301.302,250.205 301.302,252.221 265.591,252.221 	"/>
	<polygon style="fill:#FFFFFF;" points="265.591,254.207 301.302,254.207 301.302,256.223 265.591,256.223 	"/>
	<polygon style="fill:#FFFFFF;" points="265.591,258.203 301.302,258.203 301.302,260.219 265.591,260.219 	"/>
	<polygon style="fill:#FFFFFF;" points="265.591,262.205 301.302,262.205 301.302,264.22 265.591,264.22 	"/>
	<polygon style="fill:#FFFFFF;" points="265.591,266.206 301.302,266.206 301.302,268.222 265.591,268.222 	"/>
	<polygon style="fill:#FFFFFF;" points="265.591,270.208 301.302,270.208 301.302,272.224 265.591,272.224 	"/>
	<polygon style="fill:#FFFFFF;" points="265.591,274.21 301.302,274.21 301.302,276.225 265.591,276.225 	"/>
	<polygon style="fill:#FFFFFF;" points="311.79,235.048 331.189,235.048 331.189,236.144 311.79,236.144 	"/>
	<polygon style="fill:#FFFFFF;" points="311.79,238.194 331.189,238.194 331.189,239.284 311.79,239.284 	"/>
	<polygon style="fill:#FFFFFF;" points="311.79,241.335 331.189,241.335 331.189,242.43 311.79,242.43 	"/>
	<polygon style="fill:#FFFFFF;" points="311.79,244.481 331.189,244.481 331.189,245.577 311.79,245.577 	"/>
	<polygon style="fill:#FFFFFF;" points="311.79,247.627 331.189,247.627 331.189,248.717 311.79,248.717 	"/>
	<polygon style="fill:#FFFFFF;" points="311.79,250.774 331.189,250.774 331.189,251.863 311.79,251.863 	"/>
	<polygon style="fill:#FFFFFF;" points="311.79,253.914 331.189,253.914 331.189,255.01 311.79,255.01 	"/>
	<polygon style="fill:#FFFFFF;" points="311.79,257.06 331.189,257.06 331.189,258.15 311.79,258.15 	"/>
	<polygon style="fill:#FFFFFF;" points="311.79,260.207 331.189,260.207 331.189,261.297 311.79,261.297 	"/>
	<polygon style="fill:#FFFFFF;" points="311.79,263.347 331.189,263.347 331.189,264.443 311.79,264.443 	"/>
	<polygon style="fill:#FFFFFF;" points="311.79,266.494 331.189,266.494 331.189,267.589 311.79,267.589 	"/>
	<polygon style="fill:#FFFFFF;" points="311.79,269.64 331.189,269.64 331.189,270.73 311.79,270.73 	"/>
	<polygon style="fill:#FFFFFF;" points="311.79,272.78 331.189,272.78 331.189,273.876 311.79,273.876 	"/>
	<polygon style="fill:#FFFFFF;" points="407.381,243.508 440.326,243.508 440.326,244.604 407.381,244.604 	"/>
	<polygon style="fill:#FFFFFF;" points="407.381,246.825 440.326,246.825 440.326,247.92 407.381,247.92 	"/>
	<polygon style="fill:#FFFFFF;" points="407.381,250.147 440.326,250.147 440.326,251.237 407.381,251.237 	"/>
	<polygon style="fill:#FFFFFF;" points="407.381,253.463 440.326,253.463 440.326,254.559 407.381,254.559 	"/>
	<polygon style="fill:#FFFFFF;" points="407.381,256.785 440.326,256.785 440.326,257.875 407.381,257.875 	"/>
	<polygon style="fill:#FFFFFF;" points="407.381,260.101 440.326,260.101 440.326,261.191 407.381,261.191 	"/>
	<polygon style="fill:#FFFFFF;" points="407.381,263.418 440.326,263.418 440.326,264.513 407.381,264.513 	"/>
	<polygon style="fill:#FFFFFF;" points="407.381,266.734 440.326,266.734 440.326,267.829 407.381,267.829 	"/>
	<polygon style="fill:#FFFFFF;" points="407.381,270.056 440.326,270.056 440.326,271.146 407.381,271.146 	"/>
	<polygon style="fill:#FFFFFF;" points="407.381,273.372 440.326,273.372 440.326,274.462 407.381,274.462 	"/>
	<polygon style="fill:#FFFFFF;" points="454.751,243.508 473.295,243.508 473.295,244.604 454.751,244.604 	"/>
	<polygon style="fill:#FFFFFF;" points="454.751,240.977 473.295,240.977 473.295,242.067 454.751,242.067 	"/>
	<polygon style="fill:#FFFFFF;" points="454.751,246.075 473.295,246.075 473.295,247.17 454.751,247.17 	"/>
	<polygon style="fill:#FFFFFF;" points="454.751,248.641 473.295,248.641 473.295,249.737 454.751,249.737 	"/>
	<polygon style="fill:#FFFFFF;" points="454.751,251.213 473.295,251.213 473.295,252.303 454.751,252.303 	"/>
	<polygon style="fill:#FFFFFF;" points="454.751,253.779 473.295,253.779 473.295,254.869 454.751,254.869 	"/>
	<polygon style="fill:#FFFFFF;" points="454.751,256.346 473.295,256.346 473.295,257.441 454.751,257.441 	"/>
	<polygon style="fill:#FFFFFF;" points="454.751,258.912 473.295,258.912 473.295,260.008 454.751,260.008 	"/>
	<polygon style="fill:#FFFFFF;" points="454.751,261.478 473.295,261.478 473.295,262.574 454.751,262.574 	"/>
	<polygon style="fill:#FFFFFF;" points="454.751,264.05 473.295,264.05 473.295,265.14 454.751,265.14 	"/>
	<polygon style="fill:#FFFFFF;" points="454.751,266.617 473.295,266.617 473.295,267.706 454.751,267.706 	"/>
	<polygon style="fill:#FFFFFF;" points="454.751,269.183 473.295,269.183 473.295,270.273 454.751,270.273 	"/>
	<polygon style="fill:#FFFFFF;" points="454.751,271.749 473.295,271.749 473.295,272.845 454.751,272.845 	"/>
	<polygon style="fill:#FFFFFF;" points="481.586,262.31 511.924,262.31 511.889,263.4 481.586,263.4 	"/>
	<polygon style="fill:#FFFFFF;" points="481.586,265.158 511.824,265.158 511.783,266.253 481.586,266.253 	"/>
	<polygon style="fill:#FFFFFF;" points="481.586,268.011 511.713,268.011 511.672,269.101 481.586,269.101 	"/>
	<polygon style="fill:#FFFFFF;" points="481.586,270.859 511.561,270.859 511.496,271.954 481.586,271.954 	"/>
	<path style="fill:#FFFFFF;" d="M269.482,36.918c17.829,0,32.289,14.46,32.289,32.289c0,17.835-14.46,32.289-32.289,32.289
		c-17.835,0-32.295-14.454-32.295-32.289C237.187,51.378,251.647,36.918,269.482,36.918z"/>
	<path style="fill:#FFFFFF;" d="M336.304,49.363c1.418,0,2.566,1.113,2.566,2.49s-1.148,2.49-2.566,2.49
		c-1.418,0-2.566-1.113-2.566-2.49S334.886,49.363,336.304,49.363z M176.909,34.34c1.418,0,2.56,1.113,2.56,2.49
		c0,1.377-1.143,2.496-2.56,2.496s-2.572-1.119-2.572-2.496C174.336,35.453,175.491,34.34,176.909,34.34z M123.175,111.023
		c1.418,0,2.566,1.113,2.566,2.49c0,1.377-1.148,2.49-2.566,2.49s-2.566-1.113-2.566-2.49
		C120.609,112.137,121.757,111.023,123.175,111.023z M140.535,70.344c1.418,0,2.566,1.113,2.566,2.49s-1.148,2.49-2.566,2.49
		s-2.566-1.113-2.566-2.49S139.118,70.344,140.535,70.344z M91.19,89.292c1.418,0,2.566,1.113,2.566,2.49
		c0,1.377-1.148,2.496-2.566,2.496s-2.566-1.119-2.566-2.496C88.624,90.405,89.773,89.292,91.19,89.292z M265.662,6.492
		c1.418,0,2.566,1.113,2.566,2.49s-1.148,2.49-2.566,2.49c-1.418,0-2.566-1.113-2.566-2.49S264.244,6.492,265.662,6.492z
		 M398.492,104.83c1.418,0,2.566,1.119,2.566,2.49c0,1.377-1.148,2.49-2.566,2.49c-1.418,0-2.566-1.113-2.566-2.49
		C395.926,105.949,397.074,104.83,398.492,104.83z M410.568,72.307c1.418,0,2.566,1.113,2.566,2.484
		c0,1.377-1.148,2.496-2.566,2.496c-1.418,0-2.566-1.119-2.566-2.496C408.002,73.42,409.15,72.307,410.568,72.307z M380.382,41.435
		c1.418,0,2.566,1.119,2.566,2.49c0,1.377-1.148,2.49-2.566,2.49c-1.418,0-2.572-1.113-2.572-2.49
		C377.81,42.554,378.964,41.435,380.382,41.435z M375.548,74.721c1.418,0,2.566,1.113,2.566,2.49c0,1.377-1.148,2.49-2.566,2.49
		c-1.418,0-2.566-1.113-2.566-2.49C372.982,75.834,374.13,74.721,375.548,74.721z M370.72,108c1.418,0,2.566,1.113,2.566,2.49
		c0,1.377-1.148,2.496-2.566,2.496c-1.418,0-2.572-1.119-2.572-2.496C368.148,109.113,369.303,108,370.72,108z M348.228,83.175
		c1.418,0,2.566,1.113,2.566,2.49c0,1.377-1.148,2.49-2.566,2.49c-1.412,0-2.566-1.113-2.566-2.49
		C345.661,84.288,346.815,83.175,348.228,83.175z"/>
</g>
<g>
</g>
<g>
</g>
<g>
</g>
<g>
</g>
<g>
</g>
<g>
</g>
<g>
</g>
<g>
</g>
<g>
</g>
<g>
</g>
<g>
</g>
<g>
</g>
<g>
</g>
<g>
</g>
<g>
</g>
</svg>
