<?xml version="1.0" encoding="iso-8859-1"?>
<!-- Generator: Adobe Illustrator 19.0.0, SVG Export Plug-In . SVG Version: 6.00 Build 0)  -->
<svg version="1.1" id="Layer_1" xmlns="http://www.w3.org/2000/svg" xmlns:xlink="http://www.w3.org/1999/xlink" x="0px" y="0px"
	 viewBox="0 0 512 512" style="enable-background:new 0 0 512 512;" xml:space="preserve">
<path style="fill:#B1E9F1;" d="M256,0c141.386,0,256,114.614,256,256c0,141.386-114.614,256-256,256C114.614,512,0,397.386,0,256
	C0,114.614,114.614,0,256,0z"/>
<g>
	<g>
		<polygon style="fill:#75A0A5;" points="437.067,210.943 425.616,210.943 425.616,204.328 437.067,204.328 		"/>
		<polygon style="fill:#75A0A5;" points="450.556,210.943 439.105,210.943 439.105,204.328 450.556,204.328 		"/>
		<polygon style="fill:#75A0A5;" points="437.067,222.926 425.616,222.926 425.616,216.308 437.067,216.308 		"/>
		<polygon style="fill:#75A0A5;" points="450.556,222.926 439.105,222.926 439.105,216.308 450.556,216.308 		"/>
	</g>
	<polygon style="fill:#72EBF9;" points="451.654,319.537 403.639,319.537 403.639,311.646 451.654,311.646 	"/>
	<path style="fill:#424242;" d="M454.709,207.876v-9.43v-10.071h-12.035v-24.269h-17.102v-21.896h-6.026v21.896h-17.099v24.269
		h-12.039v10.071v10.585v13.989v8.375v2.211v7.822l-14.055-17.8h-39.103l-13.686,18.011v97.617h66.845v0.197h63.922v1.672h43.157
		C506.873,314.488,512,285.847,512,256c0-20.75-2.488-40.917-7.147-60.236l-17.017-12.8L454.709,207.876z"/>
	<polygon style="fill:#FFFFFF;" points="120.711,343.437 53.702,343.437 53.702,221.622 67.388,199.137 106.488,199.137 
		120.711,221.622 	"/>
	<path style="fill:#8FC9F7;" d="M93.05,268.495h-8.94v-19.638h8.94V268.495z M79.111,243.867h-8.94v-19.642h8.94V243.867z
		 M93.05,243.867h-8.94v-19.642h8.94V243.867z M106.99,243.867h-8.945v-19.642h8.945V243.867z M106.99,268.495h-8.945v-19.638h8.945
		V268.495z M106.99,293.131h-8.945v-19.644h8.945V293.131z M93.05,293.131h-8.94v-19.644h8.94V293.131z M79.111,268.495h-8.94
		v-19.638h8.94V268.495z M79.111,293.131h-8.94v-19.644h8.94V293.131z"/>
	<polygon style="fill:#FF7042;" points="189.031,341.483 122.019,341.483 122.019,226.446 155.524,215.197 189.031,226.446 	"/>
	<path style="fill:#FFFFFF;" d="M140.367,296.067c0-0.041,0.005-0.08,0.005-0.119c0-2.697-2.197-4.881-4.911-4.881
		c-2.714,0-4.911,2.185-4.911,4.881c0,0.039,0.007,0.078,0.007,0.119h-0.007v15.512h9.829v-15.512H140.367z M140.367,270.827
		c0-0.042,0.005-0.078,0.005-0.121c0-2.697-2.197-4.879-4.911-4.879c-2.714,0-4.911,2.183-4.911,4.879
		c0,0.044,0.007,0.08,0.007,0.121h-0.007v15.509h9.829v-15.509H140.367z M153.744,270.827c0-0.042,0.005-0.078,0.005-0.121
		c0-2.697-2.197-4.879-4.911-4.879c-2.714,0-4.911,2.183-4.911,4.879c0,0.044,0.002,0.08,0.005,0.121h-0.007v15.509h9.827v-15.509
		H153.744z M167.119,270.827c0-0.042,0.007-0.078,0.007-0.121c0-2.697-2.201-4.879-4.915-4.879c-2.71,0-4.911,2.183-4.911,4.879
		c0,0.044,0.007,0.08,0.009,0.121h-0.011v15.509h9.829v-15.509H167.119z M180.497,270.827c0-0.042,0.005-0.078,0.005-0.121
		c0-2.697-2.201-4.879-4.914-4.879c-2.714,0-4.911,2.183-4.911,4.879c0,0.044,0.003,0.08,0.003,0.121h-0.005v15.509h9.829v-15.509
		H180.497z M180.497,296.067c0-0.041,0.005-0.08,0.005-0.119c0-2.697-2.201-4.881-4.914-4.881c-2.714,0-4.911,2.185-4.911,4.881
		c0,0.039,0.003,0.078,0.003,0.119h-0.005v15.512h9.829v-15.512H180.497z M167.119,296.067c0-0.041,0.007-0.08,0.007-0.119
		c0-2.697-2.201-4.881-4.915-4.881c-2.71,0-4.911,2.185-4.911,4.881c0,0.039,0.007,0.078,0.009,0.119h-0.011v15.512h9.829v-15.512
		H167.119z M153.744,296.067c0-0.041,0.005-0.08,0.005-0.119c0-2.697-2.197-4.881-4.911-4.881c-2.714,0-4.911,2.185-4.911,4.881
		c0,0.039,0.002,0.078,0.005,0.119h-0.007v15.512h9.827v-15.512H153.744z"/>
	<polygon style="fill:#DFDFDF;" points="389.598,341.531 322.583,341.531 322.583,243.915 336.27,225.899 375.374,225.899 
		389.598,243.915 	"/>
	<g>
		<polygon style="fill:#FFBF06;" points="374.264,265.799 337.917,265.799 337.917,249.257 374.264,249.257 		"/>
		<polygon style="fill:#FFBF06;" points="374.264,291.039 337.917,291.039 337.917,274.492 374.264,274.492 		"/>
	</g>
	<polygon style="fill:#606060;" points="255.881,341.117 188.871,341.117 188.871,215.112 255.881,215.112 	"/>
	<path style="fill:#BBBBBB;" d="M213.273,236.697h-13.432v-6.618h13.432V236.697z M244.913,296.605h-13.432v-6.617h13.432V296.605z
		 M229.092,296.605h-13.428v-6.617h13.428V296.605z M213.273,296.605h-13.432v-6.617h13.432V296.605z M244.913,284.623h-13.432
		v-6.615h13.432V284.623z M229.092,284.623h-13.428v-6.615h13.428V284.623z M213.273,284.623h-13.432v-6.615h13.432V284.623z
		 M244.913,272.643h-13.432v-6.62h13.432V272.643z M229.092,272.643h-13.428v-6.62h13.428V272.643z M213.273,272.643h-13.432v-6.62
		h13.432V272.643z M244.913,260.663h-13.432v-6.622h13.432V260.663z M229.092,260.663h-13.428v-6.622h13.428V260.663z
		 M213.273,260.663h-13.432v-6.622h13.432V260.663z M244.913,248.681h-13.432v-6.62h13.432V248.681z M229.092,248.681h-13.428v-6.62
		h13.428V248.681z M213.273,248.681h-13.432v-6.62h13.432V248.681z M244.913,236.697h-13.432v-6.618h13.432V236.697z
		 M229.092,236.697h-13.428v-6.618h13.428V236.697z"/>
	<path style="fill:#606060;" d="M54.281,340.309H14.225C5.019,313.907,0,285.542,0,256c0-17.143,1.699-33.89,4.913-50.089
		l15.86-8.952l33.507,18.912V340.309z"/>
	<g>
		<polygon style="fill:#E5E5E5;" points="17.766,283.308 8.821,283.308 8.821,263.667 17.766,263.667 		"/>
		<polygon style="fill:#E5E5E5;" points="31.707,283.308 22.76,283.308 22.76,263.667 31.707,263.667 		"/>
		<polygon style="fill:#E5E5E5;" points="17.766,309.385 8.821,309.385 8.821,289.741 17.766,289.741 		"/>
		<polygon style="fill:#E5E5E5;" points="31.707,309.385 22.76,309.385 22.76,289.741 31.707,289.741 		"/>
	</g>
	<polygon style="fill:#202020;" points="261.616,196.877 261.616,183.564 312.83,183.564 312.83,196.877 322.583,196.877 
		322.583,340.982 255.572,340.982 255.572,196.877 	"/>
	<path style="fill:#DBE2E4;" d="M496.687,343.398h-42.956V210.439l33.97-25.199l17.801,13.205C509.753,216.945,512,236.212,512,256
		C512,286.696,506.594,316.126,496.687,343.398z"/>
	<g>
		<path style="fill:#BAC8CA;" d="M483.106,268.227c0-4.434-3.617-8.026-8.079-8.026s-8.077,3.591-8.077,8.026
			c0,4.432,3.615,8.024,8.077,8.024S483.106,272.659,483.106,268.227z"/>
		<path style="fill:#BAC8CA;" d="M506.763,268.227c0-4.434-3.617-8.026-8.079-8.026c-4.46,0-8.077,3.591-8.077,8.026
			c0,4.432,3.617,8.024,8.077,8.024C503.147,276.251,506.763,272.659,506.763,268.227z"/>
		<path style="fill:#BAC8CA;" d="M483.106,291.067c0-4.435-3.617-8.024-8.079-8.024s-8.077,3.59-8.077,8.024
			c0,4.432,3.615,8.028,8.077,8.028S483.106,295.499,483.106,291.067z"/>
	</g>
	<polygon style="fill:#FFFFFF;" points="424.597,144.483 418.572,144.483 418.572,200.723 424.597,200.723 	"/>
	<g>
		<path style="fill:#BAC8CA;" d="M506.763,291.067c0-4.435-3.617-8.024-8.079-8.024c-4.46,0-8.077,3.59-8.077,8.024
			c0,4.432,3.617,8.028,8.077,8.028C503.147,299.096,506.763,295.499,506.763,291.067z"/>
		<path style="fill:#BAC8CA;" d="M483.106,313.907c0-4.43-3.617-8.024-8.079-8.024s-8.077,3.594-8.077,8.024
			c0,4.432,3.615,8.028,8.077,8.028S483.106,318.339,483.106,313.907z"/>
		<path style="fill:#BAC8CA;" d="M506.113,310.746c-1.237-2.859-4.098-4.863-7.428-4.863c-4.46,0-8.077,3.594-8.077,8.024
			c0,4.432,3.617,8.028,8.077,8.028c2.004,0,3.834-0.726,5.247-1.926C504.72,316.944,505.437,313.852,506.113,310.746z"/>
	</g>
	<polygon style="fill:#FFFFFF;" points="453.731,233.669 389.428,233.669 389.428,341.727 453.731,341.727 	"/>
	<polygon style="fill:#424242;" points="441.696,166.379 401.466,166.379 401.466,190.65 389.428,190.65 389.428,200.723 
		401.466,200.723 401.466,211.308 389.428,211.308 389.428,225.294 415.743,225.294 415.743,235.881 389.428,235.881 
		389.428,249.866 415.743,249.866 415.743,260.455 389.428,260.455 389.428,274.439 415.743,274.439 415.743,285.026 
		389.428,285.026 389.428,299.011 415.743,299.011 415.743,309.596 389.428,309.596 389.428,323.584 415.743,323.584 
		415.743,334.17 389.428,334.17 389.428,341.727 453.731,341.727 453.731,334.17 427.421,334.17 427.421,323.584 453.731,323.584 
		453.731,309.596 427.421,309.596 427.421,299.011 453.731,299.011 453.731,285.026 427.421,285.026 427.421,274.439 
		453.731,274.439 453.731,260.455 427.421,260.455 427.421,249.866 453.731,249.866 453.731,235.881 427.421,235.881 
		427.421,225.294 453.731,225.294 453.731,211.308 441.696,211.308 441.696,200.723 453.731,200.723 453.731,190.65 441.696,190.65 
			"/>
	<g>
		<polygon style="fill:#FFFFFF;" points="415.743,200.723 389.428,200.723 389.428,211.308 415.743,211.308 		"/>
		<polygon style="fill:#FFFFFF;" points="427.421,211.308 453.731,211.308 453.731,200.723 427.421,200.723 		"/>
		<polygon style="fill:#FFFFFF;" points="415.743,225.294 389.428,225.294 389.428,235.881 415.743,235.881 		"/>
		<polygon style="fill:#FFFFFF;" points="427.421,235.881 453.731,235.881 453.731,225.294 427.421,225.294 		"/>
		<polygon style="fill:#FFFFFF;" points="415.743,249.866 389.428,249.866 389.428,260.455 415.743,260.455 		"/>
		<polygon style="fill:#FFFFFF;" points="427.421,260.455 453.731,260.455 453.731,249.866 427.421,249.866 		"/>
		<polygon style="fill:#FFFFFF;" points="415.743,274.439 389.428,274.439 389.428,285.026 415.743,285.026 		"/>
		<polygon style="fill:#FFFFFF;" points="427.421,285.026 453.731,285.026 453.731,274.439 427.421,274.439 		"/>
		<polygon style="fill:#FFFFFF;" points="415.743,299.011 389.428,299.011 389.428,309.596 415.743,309.596 		"/>
		<polygon style="fill:#FFFFFF;" points="427.421,309.596 453.731,309.596 453.731,299.011 427.421,299.011 		"/>
	</g>
</g>
<path style="fill:#BBBBBB;" d="M10.777,329.666h490.445c-1.39,4.634-2.895,9.215-4.538,13.735H15.315
	C13.673,338.882,12.168,334.3,10.777,329.666z"/>
<path style="fill:#606060;" d="M69.055,430.87h373.889c23.385-24.988,41.82-54.663,53.74-87.469H15.315
	C27.236,376.207,45.671,405.882,69.055,430.87z"/>
<path style="fill:#FFFFFF;" d="M471.962,390.796h1.695c1.5-2.419,2.976-4.854,4.398-7.323h-6.093V390.796z M38.342,390.796
	c-1.207-1.945-2.389-3.905-3.545-5.882v-1.44h58.289v7.323H38.342z M399.099,390.796h58.288v-7.323h-58.288V390.796z
	 M326.237,390.796h58.29v-7.323h-58.29V390.796z M253.377,390.796h58.288v-7.323h-58.288V390.796z M180.519,390.796h58.285v-7.323
	h-58.285V390.796z M107.659,390.796h58.288v-7.323h-58.288V390.796z"/>
<path style="fill:#7CB142;" d="M442.947,430.868H69.053C115.768,480.79,182.235,512,256,512
	C329.765,512,396.231,480.79,442.947,430.868z"/>
<path style="fill:#FFFFFF;" d="M267.027,220.092h6.663V204.55h-6.663V220.092z M273.69,262.881v-15.539h-6.663v15.539H273.69z
	 M286.238,262.881v-15.539h-6.659v15.539H286.238z M298.581,262.881v-15.539h-6.661v15.539H298.581z M311.128,247.341h-6.663v15.539
	h6.663V247.341z M304.465,225.945v15.542h6.663v-15.542H304.465z M291.919,225.945v15.542h6.661v-15.542H291.919z M279.58,225.945
	v15.542h6.659v-15.542H279.58z M273.69,241.487v-15.542h-6.663v15.542H273.69z M304.465,204.55v15.542h6.663V204.55H304.465z
	 M291.919,204.55v15.542h6.661V204.55H291.919z M279.58,204.55v15.542h6.659V204.55H279.58z"/>
<g>
	<path style="fill:#BBBBBB;" d="M21.305,355.239c0,0.673-0.213,1.299-0.575,1.81c-0.767-1.786-1.514-3.582-2.242-5.39
		c1.583,0.158,2.817,1.494,2.817,3.12V355.239z"/>
	<path style="fill:#FFB100;" d="M16.247,345.898c13.453-7.873,38.778-21.947,63.091-15.302c0,0,5.832,1.386,15.155,9.105
		c0,0,51.001-2.842,60.328,12.757c0,0-4.966,8.411-43.077,10.342c0,0-61.814,0.619-77.853,0.188c0,0-4.947,0.474-11.703-3.748
		l-0.685-0.426C19.638,354.568,17.885,350.262,16.247,345.898z"/>
	<path style="fill:#333333;" d="M36.815,363.285l27.471,0.149c0-4.826-2.517-9.868-6.315-11.792H43.128
		C39.334,353.567,36.815,358.461,36.815,363.285z"/>
	<path style="fill:#424242;" d="M38.979,362.676c0,6.391,5.181,11.57,11.57,11.57c6.391,0,11.572-5.18,11.572-11.57
		c0-6.393-5.181-11.43-11.572-11.43C44.161,351.246,38.979,356.283,38.979,362.676z"/>
	<path style="fill:#FFFFFF;" d="M41.722,362.676c0,4.875,3.954,8.83,8.828,8.83c4.875,0,8.833-3.956,8.833-8.83
		c0-4.876-3.958-8.828-8.833-8.828C45.675,353.848,41.722,357.8,41.722,362.676z"/>
	<path style="fill:#BBBBBB;" d="M43.524,362.676c0,3.88,3.148,7.023,7.025,7.023c3.876,0,7.025-3.143,7.025-7.023
		c0-3.878-3.15-7.025-7.025-7.025C46.672,355.651,43.524,358.798,43.524,362.676z"/>
	<path style="fill:#333333;" d="M132.364,360.745c0.468-0.19,2.16-0.238,2.151-0.369c-0.461-5.818-6.717-11.315-13.526-11.315
		c-7.587,0-13.737,6.02-13.737,13.739l25.305,0.046L132.364,360.745z"/>
	<path style="fill:#424242;" d="M109.414,362.846c0,6.393,5.183,11.572,11.574,11.572c6.391,0,11.568-5.179,11.568-11.572
		c0-6.391-5.177-11.57-11.568-11.57C114.597,351.276,109.414,356.455,109.414,362.846z"/>
	<path style="fill:#FFFFFF;" d="M112.156,362.846c0,4.876,3.951,8.832,8.832,8.832c4.874,0,8.828-3.956,8.828-8.832
		c0-4.877-3.954-8.826-8.828-8.826C116.107,354.02,112.156,357.969,112.156,362.846z"/>
	<path style="fill:#BBBBBB;" d="M113.963,362.846c0,3.882,3.145,7.023,7.025,7.023c3.876,0,7.021-3.14,7.021-7.023
		c0-3.878-3.145-7.025-7.021-7.025C117.108,355.821,113.963,358.968,113.963,362.846z"/>
	<g>
		<path style="fill:#7FDDE9;" d="M51.837,341.17l-4.464-9.486c-8.801,2.513-16.886,6.336-23.509,9.905
			C42.988,343.16,51.837,341.17,51.837,341.17z"/>
		<path style="fill:#7FDDE9;" d="M55.359,332.635c0,0,5.745,9.815,13.009,9.815c0,0,17.349,1.155,26.037-2.817
			c-7.554-6.237-12.8-8.313-14.483-8.865C71.616,331.02,55.598,331.629,55.359,332.635z"/>
	</g>
	<path style="fill:#333333;" d="M73.13,347.799c0,0.529-0.433,0.962-0.962,0.962h-4.808c-0.534,0-0.962-0.433-0.962-0.962
		c0-0.534,0.428-0.962,0.962-0.962h4.808C72.698,346.837,73.13,347.265,73.13,347.799z"/>
	<path style="fill:#FFFFFF;" d="M147.958,352.74c0,1.432-1.159,2.59-2.588,2.59s-2.59-1.159-2.59-2.59
		c0-1.43,1.161-2.588,2.59-2.588S147.958,351.31,147.958,352.74z"/>
	<path style="fill:#00E3FF;" d="M154.867,390.452c0,1.214-0.983,2.197-2.199,2.197h-0.059c-1.211,0-2.197-0.983-2.197-2.197v-5.012
		c0-1.214,0.985-2.194,2.197-2.194h0.059c1.217,0,2.199,0.98,2.199,2.194V390.452z"/>
	<path style="fill:#ED1C23;" d="M295.818,386.595c0.375,1.514-0.555,3.04-2.064,3.408l-2.737,0.676
		c-1.514,0.376-3.04-0.55-3.411-2.064c-0.373-1.507,0.548-3.035,2.062-3.408l2.74-0.676
		C293.919,384.16,295.444,385.086,295.818,386.595z"/>
	<path style="fill:#429F46;" d="M256.472,355.035c-10.299,0-36.49,0-36.49,0c-12.873,0-23.089,13.858-26.88,17.819h-28.72
		c-6.225,0-10.999,4.765-10.999,10.995v15.235h38.251h60.141h11.279h32.534C286.074,352.066,259.553,355.035,256.472,355.035z"/>
	<path style="fill:#DFDFDF;" d="M298.883,397.489c0,1.425-1.159,2.582-2.586,2.582H152.995c-1.424,0-2.584-1.157-2.584-2.582v-0.274
		c0-1.427,1.159-2.588,2.584-2.588h143.302c1.426,0,2.586,1.161,2.586,2.588V397.489z"/>
	<path style="fill:#424242;" d="M192.124,397.125c0,6.775-5.495,12.266-12.273,12.266c-6.773,0-12.266-5.491-12.266-12.266
		c0-6.778,5.493-12.268,12.266-12.268C186.628,384.857,192.124,390.347,192.124,397.125z"/>
	<path style="fill:#FFFFFF;" d="M188.099,397.125c0,4.552-3.692,8.246-8.249,8.246c-4.551,0-8.246-3.694-8.246-8.246
		c0-4.558,3.695-8.246,8.246-8.246C184.407,388.879,188.099,392.567,188.099,397.125z"/>
	<path style="fill:#BBBBBB;" d="M186.143,397.125c0,3.473-2.818,6.288-6.293,6.288c-3.472,0-6.287-2.815-6.287-6.288
		s2.815-6.285,6.287-6.285C183.325,390.84,186.143,393.652,186.143,397.125z"/>
	<path style="fill:#424242;" d="M282.33,397.125c0,6.775-5.491,12.266-12.268,12.266c-6.776,0-12.267-5.491-12.267-12.266
		c0-6.778,5.491-12.268,12.267-12.268C276.84,384.857,282.33,390.347,282.33,397.125z"/>
	<path style="fill:#FFFFFF;" d="M278.308,397.125c0,4.552-3.692,8.246-8.246,8.246c-4.556,0-8.247-3.694-8.247-8.246
		c0-4.558,3.69-8.246,8.247-8.246C274.616,388.879,278.308,392.567,278.308,397.125z"/>
	<path style="fill:#BBBBBB;" d="M276.352,397.125c0,3.473-2.818,6.288-6.29,6.288c-3.475,0-6.29-2.815-6.29-6.288
		s2.815-6.285,6.29-6.285C273.534,390.84,276.352,393.652,276.352,397.125z"/>
	<path style="fill:#DFF5F9;" d="M198.212,372.854h81.752c0,0-8.454-14.234-23.337-14.234c0,0-27.08-0.277-36.977-0.277
		C215.184,358.343,206.98,360.975,198.212,372.854z"/>
	<polygon style="fill:#429F46;" points="238.009,374.83 234.051,374.83 234.051,358.006 238.009,358.006 	"/>
	<g>
		<path style="fill:#1A5E20;" d="M234.051,378.892c0,1.037-0.841,1.878-1.881,1.878h-6.631c-1.04,0-1.883-0.841-1.883-1.878v-0.202
			c0-1.035,0.843-1.878,1.883-1.878h6.631c1.04,0,1.881,0.843,1.881,1.878V378.892z"/>
		<path style="fill:#1A5E20;" d="M248.402,378.892c0,1.037-0.841,1.878-1.881,1.878h-6.631c-1.038,0-1.881-0.841-1.881-1.878v-0.202
			c0-1.035,0.843-1.878,1.881-1.878h6.631c1.04,0,1.881,0.843,1.881,1.878V378.892z"/>
		<path style="fill:#1A5E20;" d="M210.79,370.011c0-1.196-1.212-2.139-2.408-2.139l-9.014,0.944c-1.198,0-1.94,0.939-1.94,2.135
			v3.468c0,1.196,0.653,1.912,1.847,1.912l9.144-0.936c1.198,0,2.371-0.721,2.371-1.917V370.011z"/>
	</g>
	<path style="fill:#F9F9F9;" d="M443.987,404.746c0-0.628,0.115-0.532,0.747-0.532h12.572c0.63,0,1.143,0.206,1.143,0.836
		l-1.143,6.783c0,0.632-0.511,1.067-1.146,1.067h-11.426c-0.632,0-0.747-0.666-0.747-1.296V404.746z"/>
	<path style="fill:#FF3C00;" d="M356.73,387.603c0,0-20.518,0.582-27.332,1.143c-8.098,0.667-23.55,4.463-23.55,10.812
		c0,9.19,6.881,15.759,12.31,15.759c33.383,0,126.476-0.286,126.476-0.286s3.89,0.827,7.223-4.343
		c3.34-5.17,11.013-15.846,5.257-19.768c0,0-21.099-14.598-43.036-14.598c0,0-13.077-0.452-18.854-0.513
		C386.169,375.713,379.46,375.822,356.73,387.603z"/>
	<path style="fill:#FBF47E;" d="M308.677,397.778c0.252,0.751,4.027,0.183,8.437-1.276c4.409-1.459,7.779-3.25,7.534-4.004
		c-0.252-0.751-4.027-0.177-8.437,1.28C311.802,395.236,308.43,397.027,308.677,397.778z"/>
	<path style="fill:#ED1C23;" d="M454.716,393.847c0-1.4,0.666-2.637,1.684-3.4c0.46,0.295,0.714,0.472,0.714,0.472
		c2.296,1.562,2.451,4.201,1.604,7.135C456.503,398.019,454.716,396.149,454.716,393.847z"/>
	<polygon style="fill:#DB2C00;" points="347.888,411.879 414.339,411.879 414.339,415.454 347.888,415.454 	"/>
	<path style="fill:#424242;" d="M411.047,408.807c0,7.866,6.373,14.237,14.237,14.237c7.861,0,14.236-6.371,14.236-14.237
		c0-7.861-6.375-14.233-14.236-14.233C417.42,394.573,411.047,400.946,411.047,408.807z"/>
	<path style="fill:#BBBBBB;" d="M415.714,408.807c0,5.287,4.288,9.57,9.57,9.57c5.284,0,9.57-4.283,9.57-9.57
		c0-5.284-4.286-9.568-9.57-9.568C420.001,399.239,415.714,403.523,415.714,408.807z"/>
	<path style="fill:#FFFFFF;" d="M422.961,408.807c0,1.283,1.04,2.323,2.323,2.323c1.283,0,2.318-1.04,2.318-2.323
		c0-1.28-1.035-2.318-2.318-2.318C424.001,406.489,422.961,407.527,422.961,408.807z"/>
	<path style="fill:#424242;" d="M321.903,408.807c0,7.866,6.374,14.237,14.238,14.237c7.86,0,14.234-6.371,14.234-14.237
		c0-7.861-6.374-14.233-14.234-14.233C328.278,394.573,321.903,400.946,321.903,408.807z"/>
	<path style="fill:#BBBBBB;" d="M326.569,408.807c0,5.287,4.288,9.57,9.572,9.57c5.287,0,9.568-4.283,9.568-9.57
		c0-5.284-4.281-9.568-9.568-9.568C330.857,399.239,326.569,403.523,326.569,408.807z"/>
	<path style="fill:#FFFFFF;" d="M333.817,408.807c0,1.283,1.037,2.323,2.323,2.323c1.281,0,2.321-1.04,2.321-2.323
		c0-1.28-1.04-2.318-2.321-2.318C334.854,406.489,333.817,407.527,333.817,408.807z"/>
	<path style="fill:#B1E3FB;" d="M430.351,382.435c0.611,0.316,2.142,2.632-2.043,4.252c-4.194,1.617-8.908,3.725-20.053,3.725
		c-11.141,0-36.665,0-36.665,0s-8.37-0.206-14.859-2.545c0.215-0.009,0,0,0,0c8.147-4.227,14.233-7.076,19.113-8.828
		C422.054,377.043,428.025,381.235,430.351,382.435z"/>
	<g>
		<polygon style="fill:#FF3C00;" points="414.339,391.433 416.385,391.433 416.385,377.634 414.339,377.634 		"/>
		<polygon style="fill:#FF3C00;" points="362.656,389.873 363.7,391.905 390.113,378.34 389.069,376.305 		"/>
	</g>
	<path style="fill:#333333;" d="M401.303,396.035c0,0.63,0.508,1.022,1.143,1.022h5.715c0.632,0,1.141-0.392,1.141-1.022
		c0-0.632-0.508-1.022-1.141-1.022h-5.715C401.812,395.013,401.303,395.402,401.303,396.035z"/>
</g>
<path style="fill:#FFFFFF;" d="M278.118,91.948c3.179,0,6.177,0.754,8.832,2.094c2.877-2.815,6.812-4.552,11.156-4.552
	c7.52,0,13.826,5.205,15.509,12.209c3.759,1.13,6.775,3.965,8.15,7.608c0.452-0.048,0.909-0.073,1.374-0.073
	c6.948,0,12.583,5.635,12.583,12.584c0,6.95-5.635,12.583-12.583,12.583c-2.166,0-4.203-0.545-5.981-1.508
	c-1.527,5.23-6.356,9.048-12.078,9.048c-3.498,0-6.661-1.427-8.942-3.729c-2.279,2.302-5.445,3.729-8.94,3.729
	c-3.324,0-6.345-1.289-8.597-3.394c-2.3,2.517-5.609,4.095-9.286,4.095c-3.442,0-6.56-1.381-8.832-3.621
	c-1.038,0.231-2.119,0.35-3.225,0.35c-8.28,0-14.99-6.711-14.99-14.99s6.709-14.992,14.99-14.992c0.451,0,0.898,0.022,1.34,0.061
	C259.66,99.608,267.996,91.948,278.118,91.948z"/>
<path style="fill:#FFFF00;" d="M233.238,82.263c18.373,0,33.269,14.896,33.269,33.268c0,18.374-14.896,33.269-33.269,33.269
	s-33.269-14.896-33.269-33.269C199.969,97.159,214.865,82.263,233.238,82.263z"/>
<path style="fill:#FFFFFF;" d="M158.117,81.037c3.179,0,6.177,0.754,8.832,2.094c2.877-2.815,6.812-4.552,11.156-4.552
	c7.52,0,13.826,5.205,15.51,12.209c3.759,1.129,6.775,3.965,8.15,7.607c0.452-0.048,0.909-0.073,1.374-0.073
	c6.948,0,12.583,5.635,12.583,12.585c0,6.95-5.635,12.582-12.583,12.582c-2.166,0-4.203-0.545-5.981-1.507
	c-1.527,5.229-6.356,9.047-12.078,9.047c-3.498,0-6.661-1.426-8.942-3.729c-2.279,2.302-5.445,3.729-8.94,3.729
	c-3.324,0-6.345-1.289-8.597-3.394c-2.3,2.517-5.609,4.095-9.286,4.095c-3.442,0-6.56-1.381-8.832-3.621
	c-1.038,0.231-2.119,0.35-3.225,0.35c-8.28,0-14.99-6.711-14.99-14.99s6.709-14.992,14.99-14.992c0.451,0,0.898,0.023,1.34,0.062
	C139.659,88.697,147.995,81.037,158.117,81.037z"/>
<g>
</g>
<g>
</g>
<g>
</g>
<g>
</g>
<g>
</g>
<g>
</g>
<g>
</g>
<g>
</g>
<g>
</g>
<g>
</g>
<g>
</g>
<g>
</g>
<g>
</g>
<g>
</g>
<g>
</g>
</svg>
