<?xml version="1.0" encoding="iso-8859-1"?>
<!-- Generator: Adobe Illustrator 19.0.0, SVG Export Plug-In . SVG Version: 6.00 Build 0)  -->
<svg version="1.1" id="Layer_1" xmlns="http://www.w3.org/2000/svg" xmlns:xlink="http://www.w3.org/1999/xlink" x="0px" y="0px"
	 viewBox="0 0 512 512" style="enable-background:new 0 0 512 512;" xml:space="preserve">
<path style="fill:#B1E9F1;" d="M255.997,0C397.385,0,512,114.615,512,255.997C512,397.385,397.385,512,255.997,512
	C114.615,512,0,397.385,0,255.997C0,114.615,114.615,0,255.997,0z"/>
<path style="fill:#FFFFFF;" d="M146.418,74.06c2.583,0,5.019,0.61,7.173,1.696c2.336-2.283,5.535-3.692,9.063-3.692
	c6.105,0,11.229,4.226,12.597,9.914c3.052,0.916,5.5,3.217,6.615,6.175c0.37-0.041,0.74-0.059,1.115-0.059
	c5.647,0,10.225,4.579,10.225,10.225c0,5.641-4.579,10.214-10.225,10.214c-1.755,0-3.41-0.44-4.854-1.221
	c-1.239,4.244-5.165,7.343-9.809,7.343c-2.841,0-5.412-1.156-7.261-3.023c-1.855,1.867-4.426,3.023-7.267,3.023
	c-2.694,0-5.148-1.045-6.979-2.753c-1.867,2.043-4.555,3.328-7.543,3.328c-2.794,0-5.33-1.127-7.173-2.941
	c-0.845,0.188-1.72,0.282-2.618,0.282c-6.727,0-12.174-5.447-12.174-12.174c0-6.721,5.447-12.174,12.174-12.174
	c0.364,0,0.728,0.018,1.086,0.047C131.427,80.276,138.195,74.06,146.418,74.06z"/>
<g>
	<path style="fill:#E5E5E5;" d="M504.98,196.283v119.428c-1.526,6.392-3.293,12.685-5.289,18.883h-28.234V190.489l26.414-18.525
		C500.624,179.9,503.001,188.012,504.98,196.283z M89.568,378.578H50.469v-202.47h39.099V378.578z M169.51,378.578h-39.099v-202.47
		h9.562v-5.43h9.492l0.176-7.613l0.663-29.678l0.317,29.69l0.088,7.602h9.245v5.43h9.556V378.578z M255.105,378.578h-39.099V187.19
		h39.099V378.578z M309.847,378.578h-39.099v-202.47h39.099V378.578z M353.948,378.578h-28.674v-202.47h7.009v-5.43h6.833
		l0.176-7.613l0.663-29.678l0.317,29.69l0.088,7.602h6.58v5.43h7.009V378.578z M424.985,378.578h-58.652v-202.47h14.334v-5.43
		h29.983v5.43h14.334V378.578z"/>
	<g>
		<polygon style="fill:#75A0A5;" points="437.065,296.928 425.613,296.928 425.613,290.312 437.065,290.312 		"/>
		<polygon style="fill:#75A0A5;" points="450.554,296.928 439.102,296.928 439.102,290.312 450.554,290.312 		"/>
		<polygon style="fill:#75A0A5;" points="437.065,308.914 425.613,308.914 425.613,302.293 437.065,302.293 		"/>
	</g>
	<path style="fill:#BBBBBB;" d="M480.79,378.578h-24.266V247.433h6.521v-9.738h20.051v9.738h6.844v112.655
		C487.129,366.386,484.083,372.555,480.79,378.578z M31.21,378.578c-10.683-19.547-18.878-40.643-24.19-62.855V196.277
		c0.323-1.368,0.646-2.729,0.998-4.091h25.07v186.392H31.21z M76.191,378.578H42.774V247.433h6.686v-11.241h8.787l0.335-13.113
		l0.663-27.119l0.317,27.125l0.17,13.107h9.779v11.241h6.68V378.578z M80.018,232.594h-0.006v145.984h26.068V253.062L80.018,232.594
		z M155.182,378.578l-46.754-0.182l0.423-111.234l3.592,0.012l0.012-3.98l13.125,0.053l-0.012,3.98l30.042,0.112L155.182,378.578z
		 M172.891,238.299l0.012-1.15l0.247-29.69l0.734,29.684l0.029,1.127c4.802,0.041,9.016,2.559,11.429,6.351l2.677-0.035
		l1.878,133.587l-28.668,0.405l-1.878-133.587l2.677-0.041C164.268,241.193,168.26,238.599,172.891,238.299z M207.095,197.932
		l0.47-17.586l0.828-32.255l0.399,32.267l0.235,17.574h10.073v6.979h5.16v173.666h-32.584V204.912h5.154v-6.979H207.095z
		 M282.693,378.578h-54.091V227.376h54.091V378.578z M332.969,378.578h-33.417V235.03h5.67c-0.029-0.311-0.041-0.628-0.041-0.951
		c0-5.7,4.303-10.39,9.832-11.006l0.346-14.704l0.663-29.684l0.317,29.69l0.17,14.634c6.005,0.135,10.83,5.036,10.83,11.071
		c0,0.323-0.018,0.64-0.041,0.951h5.67V378.578z M404.505,378.607l-55.024-0.211l0.452-117.767l-2.289-0.006l0.012-4.009
		l5.277,0.018l24.642-30.306l24.401,30.494l5.283,0.023l-0.018,4.009l-2.289-0.012L404.505,378.607z M352.932,256.631l49.043,0.188
		l-24.401-30.494L352.932,256.631z M450.278,378.578h-33.423V235.03h6.686v-12.309h8.793l0.335-14.352l0.657-29.684l0.323,29.69
		l0.164,14.346h9.779v12.309h6.686V378.578z"/>
	<polygon style="fill:#75A0A5;" points="450.554,308.914 439.102,308.914 439.102,302.293 450.554,302.293 	"/>
	<polygon style="fill:#72EBF9;" points="451.652,405.526 403.636,405.526 403.636,397.631 451.652,397.631 	"/>
	<path style="fill:#424242;" d="M454.71,293.864v-9.433v-10.073h-12.039v-24.266h-17.099v-21.895h-6.028v21.895h-17.099v24.266
		h-12.039v10.073v10.589v13.988v8.37v2.213v7.825l-14.052-17.803h-39.105l-13.689,18.015v97.616h66.846v0.194h57.478
		c33.699-38.131,56.198-86.387,62.379-139.621l-22.429-16.864L454.71,293.864z"/>
	<path style="fill:#FFFFFF;" d="M120.708,429.423H67.709c-4.895-5.312-9.574-10.836-14.006-16.547V307.611l13.683-22.487h39.105
		l14.217,22.487V429.423z"/>
	<path style="fill:#8FC9F7;" d="M93.049,354.482h-8.94v-19.635h8.94V354.482z M79.108,329.852h-8.94v-19.641h8.94V329.852z
		 M93.049,329.852h-8.94v-19.641h8.94V329.852z M106.99,329.852h-8.946v-19.641h8.946V329.852z M106.99,354.482h-8.946v-19.635
		h8.946V354.482z M106.99,379.118h-8.946v-19.646h8.946V379.118z M93.049,379.118h-8.94v-19.646h8.94V379.118z M79.108,354.482
		h-8.94v-19.635h8.94V354.482z M79.108,379.118h-8.94v-19.646h8.94V379.118z"/>
	<polygon style="fill:#FF7042;" points="189.034,427.468 122.017,427.468 122.017,312.436 155.522,301.183 189.034,312.436 	"/>
	<path style="fill:#FFFFFF;" d="M140.366,382.053c0-0.041,0.006-0.076,0.006-0.117c0-2.694-2.195-4.884-4.913-4.884
		c-2.712,0-4.907,2.189-4.907,4.884c0,0.041,0.006,0.076,0.006,0.117h-0.006v15.514h9.826v-15.514H140.366z M140.366,356.812
		c0-0.041,0.006-0.076,0.006-0.117c0-2.7-2.195-4.884-4.913-4.884c-2.712,0-4.907,2.184-4.907,4.884
		c0,0.041,0.006,0.076,0.006,0.117h-0.006v15.514h9.826v-15.514H140.366z M153.744,356.812c0-0.041,0.006-0.076,0.006-0.117
		c0-2.7-2.195-4.884-4.913-4.884c-2.712,0-4.913,2.184-4.913,4.884c0,0.041,0.006,0.076,0.006,0.117h-0.006v15.514h9.826v-15.514
		H153.744z M167.121,356.812c0-0.041,0.006-0.076,0.006-0.117c0-2.7-2.201-4.884-4.919-4.884c-2.706,0-4.907,2.184-4.907,4.884
		c0,0.041,0.006,0.076,0.006,0.117h-0.012v15.514h9.832v-15.514H167.121z M180.499,356.812c0-0.041,0-0.076,0-0.117
		c0-2.7-2.201-4.884-4.913-4.884s-4.907,2.184-4.907,4.884c0,0.041,0,0.076,0,0.117h-0.006v15.514h9.832v-15.514H180.499z
		 M180.499,382.053c0-0.041,0-0.076,0-0.117c0-2.694-2.201-4.884-4.913-4.884s-4.907,2.189-4.907,4.884c0,0.041,0,0.076,0,0.117
		h-0.006v15.514h9.832v-15.514H180.499z M167.121,382.053c0-0.041,0.006-0.076,0.006-0.117c0-2.694-2.201-4.884-4.919-4.884
		c-2.706,0-4.907,2.189-4.907,4.884c0,0.041,0.006,0.076,0.006,0.117h-0.012v15.514h9.832v-15.514H167.121z M153.744,382.053
		c0-0.041,0.006-0.076,0.006-0.117c0-2.694-2.195-4.884-4.913-4.884c-2.712,0-4.913,2.189-4.913,4.884
		c0,0.041,0.006,0.076,0.006,0.117h-0.006v15.514h9.826v-15.514H153.744z"/>
	<polygon style="fill:#DFDFDF;" points="389.595,427.521 322.585,427.521 322.585,329.899 336.268,311.884 375.373,311.884 
		389.595,329.899 	"/>
	<g>
		<polygon style="fill:#FFBF06;" points="374.263,351.788 337.917,351.788 337.917,335.24 374.263,335.24 		"/>
		<polygon style="fill:#FFBF06;" points="374.263,377.028 337.917,377.028 337.917,360.481 374.263,360.481 		"/>
	</g>
	<polygon style="fill:#606060;" points="255.88,427.104 188.869,427.104 188.869,301.101 255.88,301.101 	"/>
	<path style="fill:#BBBBBB;" d="M213.27,322.685h-13.43v-6.621h13.43V322.685z M244.915,382.593h-13.436v-6.615h13.436V382.593z
		 M229.09,382.593h-13.424v-6.615h13.424V382.593z M213.27,382.593h-13.43v-6.615h13.43V382.593z M244.915,370.612h-13.436v-6.615
		h13.436V370.612z M229.09,370.612h-13.424v-6.615h13.424V370.612z M213.27,370.612h-13.43v-6.615h13.43V370.612z M244.915,358.632
		h-13.436v-6.621h13.436V358.632z M229.09,358.632h-13.424v-6.621h13.424V358.632z M213.27,358.632h-13.43v-6.621h13.43V358.632z
		 M244.915,346.651h-13.436v-6.621h13.436V346.651z M229.09,346.651h-13.424v-6.621h13.424V346.651z M213.27,346.651h-13.43v-6.621
		h13.43V346.651z M244.915,334.671h-13.436v-6.621h13.436V334.671z M229.09,334.671h-13.424v-6.621h13.424V334.671z M213.27,334.671
		h-13.43v-6.621h13.43V334.671z M244.915,322.685h-13.436v-6.621h13.436V322.685z M229.09,322.685h-13.424v-6.621h13.424V322.685z"
		/>
	<path style="fill:#606060;" d="M2.694,293.153l18.079-10.208l33.505,18.913v111.774C27.495,379.399,9.239,338.175,2.694,293.153z"
		/>
	<g>
		<polygon style="fill:#E5E5E5;" points="17.674,349.651 17.768,349.651 17.768,349.892 		"/>
		<path style="fill:#E5E5E5;" d="M31.709,369.297h-5.318c-1.244-2.524-2.465-5.06-3.633-7.631v-12.016h8.952V369.297z"/>
		<path style="fill:#E5E5E5;" d="M29.684,375.725h2.025v3.745C31.022,378.231,30.353,376.981,29.684,375.725z"/>
	</g>
	<polygon style="fill:#202020;" points="261.615,282.863 261.615,269.551 312.829,269.551 312.829,282.863 322.585,282.863 
		322.585,426.969 255.569,426.969 255.569,282.863 	"/>
	<path style="fill:#DBE2E4;" d="M453.73,418.604V296.429l33.969-25.199l22.335,16.571C503.923,337.119,483.783,382.1,453.73,418.604
		z"/>
	<g>
		<path style="fill:#BAC8CA;" d="M483.103,354.212c0-4.432-3.616-8.024-8.077-8.024c-4.461,0-8.077,3.592-8.077,8.024
			c0,4.432,3.616,8.024,8.077,8.024C479.487,362.236,483.103,358.644,483.103,354.212z"/>
		<path style="fill:#BAC8CA;" d="M495.376,346.886c-2.812,1.256-4.772,4.068-4.772,7.326c0,1.062,0.211,2.078,0.587,3.005
			C492.659,353.813,494.056,350.367,495.376,346.886z"/>
		<path style="fill:#BAC8CA;" d="M482.786,374.827c-0.969-3.346-4.08-5.799-7.76-5.799c-4.461,0-8.077,3.592-8.077,8.024
			s3.616,8.03,8.077,8.03c0.787,0,1.544-0.112,2.266-0.317C479.193,381.495,481.025,378.184,482.786,374.827z"/>
	</g>
	<polygon style="fill:#FFFFFF;" points="424.598,230.469 418.569,230.469 418.569,286.708 424.598,286.708 	"/>
	<path style="fill:#BAC8CA;" d="M472.795,392.178c-3.375,0.963-5.846,4.056-5.846,7.713c0,0.358,0.023,0.71,0.07,1.057
		C469.003,398.072,470.923,395.142,472.795,392.178z"/>
	<path style="fill:#FFFFFF;" d="M453.73,319.656h-64.304v108.059h56.439c2.688-2.976,5.318-6.011,7.866-9.11V319.656z"/>
	<path style="fill:#424242;" d="M441.696,252.364h-40.232v24.272h-12.039v10.073h12.039v10.583h-12.039v13.988h26.315v10.589
		h-26.315v13.982h26.315v10.589h-26.315v13.988h26.315v10.583h-26.315v13.988h26.315v10.583h-26.315v13.988h26.315v10.583h-26.315
		v7.56h56.439c2.236-2.477,4.42-4.995,6.563-7.56h-25.006v-10.583h26.309v-13.988h-26.309v-10.583h26.309v-13.988h-26.309v-10.583
		h26.309V346.44h-26.309v-10.589h26.309v-13.982h-26.309V311.28h26.309v-13.988h-12.033v-10.583h12.033v-10.073h-12.033V252.364z"/>
	<g>
		<polygon style="fill:#FFFFFF;" points="415.74,286.708 389.425,286.708 389.425,297.292 415.74,297.292 		"/>
		<polygon style="fill:#FFFFFF;" points="427.421,297.292 453.73,297.292 453.73,286.708 427.421,286.708 		"/>
		<polygon style="fill:#FFFFFF;" points="415.74,311.28 389.425,311.28 389.425,321.869 415.74,321.869 		"/>
		<polygon style="fill:#FFFFFF;" points="427.421,321.869 453.73,321.869 453.73,311.28 427.421,311.28 		"/>
		<polygon style="fill:#FFFFFF;" points="415.74,335.851 389.425,335.851 389.425,346.44 415.74,346.44 		"/>
		<polygon style="fill:#FFFFFF;" points="427.421,346.44 453.73,346.44 453.73,335.851 427.421,335.851 		"/>
		<polygon style="fill:#FFFFFF;" points="415.74,360.428 389.425,360.428 389.425,371.011 415.74,371.011 		"/>
		<polygon style="fill:#FFFFFF;" points="427.421,371.011 453.73,371.011 453.73,360.428 427.421,360.428 		"/>
		<polygon style="fill:#FFFFFF;" points="415.74,384.999 389.425,384.999 389.425,395.583 415.74,395.583 		"/>
		<polygon style="fill:#FFFFFF;" points="427.421,395.583 453.73,395.583 453.73,384.999 427.421,384.999 		"/>
	</g>
</g>
<path style="fill:#BBBBBB;" d="M55.893,415.652h400.214c-3.768,4.719-7.701,9.298-11.787,13.736H67.674
	C63.588,424.95,59.661,420.371,55.893,415.652z"/>
<path style="fill:#7CB142;" d="M444.32,429.387H67.674C114.457,480.168,181.508,512,255.997,512
	C330.492,512,397.543,480.168,444.32,429.387z"/>
<path style="fill:#FFFFFF;" d="M267.027,306.079h6.662v-15.543h-6.662V306.079z M273.689,348.87v-15.543h-6.662v15.543H273.689z
	 M286.239,348.87v-15.543h-6.662v15.543H286.239z M298.577,348.87v-15.543h-6.656v15.543H298.577z M311.127,333.327h-6.662v15.543
	h6.662V333.327z M304.465,311.931v15.543h6.662v-15.543H304.465z M291.921,311.931v15.543h6.656v-15.543H291.921z M279.576,311.931
	v15.543h6.662v-15.543H279.576z M273.689,327.475v-15.543h-6.662v15.543H273.689z M304.465,290.535v15.543h6.662v-15.543H304.465z
	 M291.921,290.535v15.543h6.656v-15.543H291.921z M279.576,290.535v15.543h6.662v-15.543H279.576z"/>
<path style="fill:#FFFF00;" d="M193.201,66.048c12.526,0,22.681,10.155,22.681,22.681s-10.155,22.681-22.681,22.681
	c-12.526,0-22.681-10.155-22.681-22.681S180.675,66.048,193.201,66.048z"/>
<path style="fill:#FFFFFF;" d="M220.22,63.406c2.665,0,5.189,0.634,7.42,1.761c2.418-2.366,5.723-3.827,9.374-3.827
	c6.316,0,11.616,4.373,13.037,10.261c3.158,0.951,5.688,3.334,6.844,6.392c0.382-0.041,0.763-0.059,1.156-0.059
	c5.841,0,10.572,4.731,10.572,10.572c0,5.841-4.731,10.578-10.572,10.578c-1.82,0-3.534-0.458-5.025-1.268
	c-1.286,4.397-5.342,7.601-10.155,7.601c-2.935,0-5.594-1.197-7.513-3.135c-1.914,1.937-4.573,3.135-7.513,3.135
	c-2.794,0-5.33-1.08-7.226-2.853c-1.931,2.119-4.708,3.446-7.801,3.446c-2.894,0-5.512-1.162-7.42-3.046
	c-0.875,0.194-1.784,0.293-2.712,0.293c-6.962,0-12.603-5.635-12.603-12.597c0-6.956,5.641-12.597,12.603-12.597
	c0.376,0,0.751,0.018,1.127,0.053C204.706,69.846,211.709,63.406,220.22,63.406z"/>
<polygon style="fill:#FFF39B;" points="57.73,327.621 73.773,327.621 74.729,312.536 56.668,312.536 "/>
<polygon style="fill:#FFED58;" points="65.702,327.621 73.773,327.621 74.729,312.536 65.702,312.536 "/>
<g>
	<path style="fill:#606060;" d="M63.958,335.88h3.299v88.13c-1.08,0.652-2.178,0.616-3.299,0V335.88z"/>
	<polygon style="fill:#606060;" points="61.552,334.166 69.857,334.166 73.773,327.621 57.73,327.621 	"/>
</g>
<path style="fill:#747474;" d="M61.211,337.072h8.793c0.399,0,0.728-0.329,0.728-0.722v-1.567c0-0.399-0.329-0.728-0.728-0.728
	h-8.793c-0.399,0-0.728,0.329-0.728,0.728v1.567C60.483,336.743,60.812,337.072,61.211,337.072z"/>
<path style="fill:#606060;" d="M67.028,299.921l8.828,11.564c0.376,0.499,0.44,1.127,0.164,1.685
	c-0.282,0.558-0.816,0.892-1.438,0.892H56.756c-0.628,0-1.162-0.34-1.438-0.904c-0.276-0.558-0.211-1.192,0.176-1.685l8.999-11.564
	c0.311-0.411,0.757-0.622,1.268-0.622C66.277,299.293,66.717,299.51,67.028,299.921z"/>
<polygon style="fill:#FFF39B;" points="463.057,322.004 479.105,322.004 480.062,306.924 461.995,306.924 "/>
<polygon style="fill:#FFED58;" points="471.028,322.004 479.105,322.004 480.062,306.924 471.028,306.924 "/>
<g>
	<path style="fill:#606060;" d="M469.285,330.263h3.305v62.244c-1.08,1.714-2.184,3.41-3.305,5.095V330.263z"/>
	<polygon style="fill:#606060;" points="466.884,328.549 475.184,328.549 479.105,322.004 463.057,322.004 	"/>
</g>
<path style="fill:#747474;" d="M466.544,331.454h8.787c0.399,0,0.728-0.323,0.728-0.728v-1.561c0-0.399-0.329-0.728-0.728-0.728
	h-8.787c-0.399,0-0.728,0.329-0.728,0.728v1.561C465.816,331.131,466.145,331.454,466.544,331.454z"/>
<path style="fill:#606060;" d="M472.355,294.298l8.828,11.57c0.376,0.493,0.44,1.121,0.164,1.685
	c-0.276,0.558-0.81,0.886-1.438,0.886h-17.821c-0.628,0-1.168-0.335-1.438-0.898c-0.276-0.564-0.211-1.192,0.17-1.685l8.999-11.57
	c0.311-0.405,0.757-0.616,1.274-0.616C471.603,293.676,472.044,293.893,472.355,294.298z"/>
<g>
	<path style="fill:#9BCB64;" d="M117.028,409.236c0.123,0.481-0.311,0.892-0.446,1.004c0.81-0.652,1.197,0.147,1.197,0.147
		c1.192,0.188-0.065,1.127-0.065,1.127c-0.423,0.17-0.704-0.288-0.704-0.288c-1.086,0.534-0.475,0.845-0.475,0.845
		c0.81-0.188,0.323,0.511,0.323,0.511l-0.493,0.076l-0.587,0.317l0.023,0.211l0.452-0.059l0.047,0.346l-0.534,0.247l0.164,0.399
		c0.61,0.869-1.444,1.291-1.444,1.291c-0.323,2.612-2.771,1.673-3.346,1.415c-0.434,0.205-0.904,0.352-1.403,0.423
		c-1.25,0.164-2.436-0.158-3.393-0.828c-0.716,0.141-1.503-0.065-1.503-0.065c-0.834,0.088-0.505-1.133-0.505-1.133
		c-0.652,1.35-1.597,0.182-1.597,0.182c-0.904-0.969,0.188-1.544,0.188-1.544c-0.528-0.593,0.188-1.074,0.188-1.074
		c-1.374-0.258-1.691-0.969-1.755-1.409c-0.587-0.182-1.062-0.382-1.35-0.511c-1.068,0.511-2.236,0.869-3.469,1.039
		c-3.076,0.423-6.04-0.382-8.382-2.043c-1.79,0.358-3.733-0.147-3.733-0.147c-2.066,0.205-1.244-2.812-1.244-2.812
		c-1.109,2.313-2.565,1.655-3.363,1.021c0.147,0.71-1.556,1.062-1.556,1.062c-0.317,2.618-2.765,1.673-3.334,1.415
		c-0.434,0.205-0.91,0.346-1.409,0.417c-1.239,0.176-2.436-0.158-3.393-0.822c-0.716,0.147-1.503-0.07-1.503-0.07
		c-0.834,0.094-0.499-1.133-0.499-1.133c-0.652,1.362-1.608,0.188-1.608,0.188c-0.898-0.969,0.2-1.538,0.2-1.538
		c-0.522-0.599,0.188-1.086,0.188-1.086c-2.049-0.387-1.755-1.773-1.755-1.773c-0.945-1.221-0.023-2.272-0.023-2.272
		c-0.129-0.106-0.217-0.211-0.282-0.317c-1.156,0.106-2.266-0.217-3.152-0.845c-0.728,0.135-1.514-0.07-1.514-0.07
		c-0.839,0.094-0.511-1.139-0.511-1.139c-0.652,1.368-1.602,0.188-1.602,0.188c-0.922-0.974,0.188-1.55,0.188-1.55
		c-0.528-0.599,0.2-1.092,0.2-1.092c-2.066-0.387-1.779-1.784-1.779-1.784c-0.945-1.233-0.012-2.289-0.012-2.289
		c-0.822-0.663-0.07-1.327-0.07-1.327c-0.264-0.816,0.892-0.787,0.892-0.787c-1.156-2.201,0.892-2.454,0.892-2.454
		c0.376-1.062,1.291-0.417,1.291-0.417c0.47-1.174,2.072-0.288,2.072-0.288c-0.475-1.01,1.033-1.016,1.033-1.016
		c0.293-0.158,0.558-0.176,0.792-0.117c-0.006-0.135,0.012-0.217,0.012-0.217c-0.939-1.227-0.018-2.278-0.018-2.278
		c-0.816-0.669-0.059-1.344-0.059-1.344c-0.117-0.346,0.029-0.54,0.241-0.652c-0.91-2.119,0.552-3.786,0.552-3.786
		c-1.714-1.397-0.135-2.794-0.135-2.794c-0.564-1.708,1.867-1.655,1.867-1.655c-2.424-4.62,1.867-5.13,1.867-5.13
		c0.781-2.219,2.706-0.875,2.706-0.875c0.974-2.459,4.35-0.599,4.35-0.599c-1.004-2.113,2.166-2.131,2.166-2.131
		c2.119-1.186,3.604,1.332,3.604,1.332c1.262-1.644,2.307-2.219,3.14-2.254c-0.704-2.295,1.614-2.577,1.614-2.577
		c0.522-1.485,1.808-0.587,1.808-0.587c0.657-1.644,2.911-0.399,2.911-0.399c-0.669-1.409,1.45-1.421,1.45-1.421
		c1.426-0.792,2.413,0.892,2.413,0.892c2.524-3.287,3.751-0.182,3.751-0.182c4.279-2.096,4.972,1.867,4.972,1.867
		c0.869-1.115,2.043,0.029,3.164,1.626c0.745,1.068,0.264,2.037-0.141,2.559c0.74,0.429,1.186,1.18,1.186,1.18
		c3.328-4.338,4.948-0.235,4.948-0.235c5.641-2.776,6.557,2.465,6.557,2.465c1.145-1.479,2.688,0.029,4.185,2.148
		c1.485,2.125-0.722,3.927-0.722,3.927c1.561,1.356-0.804,2.272-0.804,2.272c1.262,1.209,0.012,2.413-0.305,2.683
		c1.491-1.215,2.219,0.27,2.219,0.27c2.207,0.352-0.106,2.101-0.106,2.101c-0.804,0.311-1.315-0.528-1.315-0.528
		c-1.092,0.534-1.268,0.951-1.197,1.215c2.759-0.64,3.246,2.143,3.246,2.143c0.781-1.01,1.843,0.023,2.865,1.473
		c1.015,1.45-0.493,2.688-0.493,2.688c1.068,0.927-0.552,1.561-0.552,1.561c0.869,0.822,0.006,1.644-0.211,1.831
		c1.027-0.839,1.52,0.176,1.52,0.176c1.509,0.247-0.07,1.45-0.07,1.45c-0.558,0.205-0.904-0.37-0.904-0.37
		c-0.399,0.2-0.616,0.376-0.728,0.522c1.021,0.405,1.239,1.638,1.239,1.638c0.61-0.798,1.444,0.018,2.254,1.162
		c0.804,1.145-0.393,2.119-0.393,2.119c0.845,0.734-0.428,1.239-0.428,1.239c0.687,0.646,0.006,1.291-0.17,1.438
		c0.816-0.657,1.203,0.141,1.203,0.141c1.186,0.194-0.053,1.139-0.053,1.139c-0.446,0.17-0.716-0.282-0.716-0.282
		c-1.092,0.534-0.487,0.839-0.487,0.839c0.828-0.182,0.34,0.528,0.34,0.528l-0.505,0.065l-0.599,0.335l0.035,0.194l0.458-0.053
		l0.041,0.346l-0.534,0.247l0.164,0.405c0.616,0.869-1.462,1.297-1.462,1.297c-0.317,2.624-2.782,1.685-3.352,1.421
		c-0.44,0.205-0.91,0.358-1.415,0.423c-1.256,0.17-2.454-0.158-3.41-0.828L117.028,409.236z"/>
	<path style="fill:#4E342E;" d="M92.967,450.654c0,0-0.217-1.256,0.135-5.541l-1.227-13.847c0,0-0.211-5.089,0.446-6.557
		c0,0,9.973-9.685,11.998-10.219c0,0,1.45-12.679,3.264-12.931l-1.808-1.068c0,0-1.626,11.975-2.8,13.8
		c0,0-4.602-17.31-3.892-19.136l-0.663,0.522c0,0,2.16,17.275,1.755,18.473l-2.941,3.035c0,0-1.01,3.058-1.62,1.667
		c0,0-5.623-3.428-2.841-21.501l-2.266-1.462l-1.872,11.892c0,0,1.303,0,0.728,3.017c0,0,2.295,7.191,1.931,7.901
		c0,0-0.546,3.422-2.043,2.413l-3.152-7.437c0,0-2.647-10.624-0.863-12.262l-0.681-0.857c0,0-1.186,5.271-0.229,9.122
		c0,0-4.825-5.347-6.322-5.336l0.041,0.963c0,0,0.916-1.896,5.899,5.377c0,0,3.428,9.65,3.545,11.54c0,0-0.399,5.764-0.158,6.856
		c0,0,2.53,12.996-0.892,18.696c0.757,0.675,1.509,1.35,2.278,2.013L92.967,450.654z"/>
	<path style="fill:#7CB142;" d="M143.219,423.893c0.07,0.27-0.17,0.499-0.247,0.564c0.452-0.364,0.669,0.082,0.669,0.082
		c0.669,0.106-0.035,0.634-0.035,0.634c-0.241,0.094-0.393-0.164-0.393-0.164c-0.61,0.299-0.27,0.475-0.27,0.475
		c0.452-0.106,0.182,0.288,0.182,0.288l-0.276,0.041l-0.335,0.176l0.018,0.117l0.252-0.035l0.029,0.2l-0.299,0.135l0.088,0.223
		c0.346,0.487-0.804,0.722-0.804,0.722c-0.182,1.467-1.556,0.939-1.878,0.798c-0.241,0.117-0.505,0.194-0.787,0.235
		c-0.699,0.094-1.362-0.088-1.902-0.464c-0.399,0.082-0.839-0.035-0.839-0.035c-0.47,0.047-0.282-0.634-0.282-0.634
		c-0.364,0.757-0.898,0.1-0.898,0.1c-0.511-0.54,0.106-0.863,0.106-0.863c-0.294-0.335,0.106-0.605,0.106-0.605
		c-0.769-0.147-0.951-0.546-0.986-0.787c-0.329-0.106-0.593-0.217-0.757-0.288c-0.599,0.288-1.25,0.487-1.943,0.581
		c-1.726,0.235-3.381-0.211-4.696-1.145c-1.004,0.2-2.096-0.082-2.096-0.082c-1.156,0.117-0.693-1.579-0.693-1.579
		c-0.622,1.297-1.438,0.927-1.884,0.575c0.076,0.399-0.875,0.593-0.875,0.593c-0.182,1.467-1.55,0.939-1.872,0.792
		c-0.241,0.117-0.505,0.2-0.787,0.235c-0.693,0.1-1.362-0.088-1.902-0.458c-0.399,0.076-0.839-0.035-0.839-0.035
		c-0.47,0.047-0.282-0.64-0.282-0.64c-0.364,0.763-0.904,0.106-0.904,0.106c-0.499-0.54,0.117-0.863,0.117-0.863
		c-0.293-0.335,0.1-0.605,0.1-0.605c-1.145-0.223-0.986-0.998-0.986-0.998c-0.522-0.681-0.006-1.274-0.006-1.274
		c-0.076-0.059-0.123-0.117-0.158-0.176c-0.652,0.059-1.274-0.123-1.767-0.475c-0.411,0.076-0.851-0.035-0.851-0.035
		c-0.47,0.047-0.288-0.64-0.288-0.64c-0.364,0.769-0.898,0.1-0.898,0.1c-0.517-0.54,0.106-0.863,0.106-0.863
		c-0.293-0.335,0.112-0.616,0.112-0.616c-1.156-0.211-0.998-0.998-0.998-0.998c-0.528-0.687-0.006-1.28-0.006-1.28
		c-0.458-0.376-0.035-0.745-0.035-0.745c-0.147-0.458,0.499-0.44,0.499-0.44c-0.646-1.233,0.499-1.374,0.499-1.374
		c0.211-0.599,0.722-0.235,0.722-0.235c0.264-0.657,1.162-0.164,1.162-0.164c-0.264-0.564,0.581-0.569,0.581-0.569
		c0.164-0.088,0.311-0.1,0.44-0.065c0-0.076,0.006-0.123,0.006-0.123c-0.522-0.687-0.006-1.274-0.006-1.274
		c-0.458-0.376-0.035-0.751-0.035-0.751c-0.065-0.194,0.018-0.305,0.135-0.37c-0.511-1.186,0.311-2.119,0.311-2.119
		c-0.963-0.787-0.076-1.567-0.076-1.567c-0.317-0.957,1.045-0.927,1.045-0.927c-1.356-2.589,1.051-2.876,1.051-2.876
		c0.434-1.244,1.514-0.493,1.514-0.493c0.546-1.374,2.436-0.335,2.436-0.335c-0.558-1.18,1.215-1.192,1.215-1.192
		c1.186-0.663,2.019,0.745,2.019,0.745c0.71-0.922,1.297-1.244,1.761-1.262c-0.393-1.286,0.904-1.444,0.904-1.444
		c0.293-0.834,1.01-0.329,1.01-0.329c0.376-0.922,1.638-0.223,1.638-0.223c-0.376-0.792,0.816-0.798,0.816-0.798
		c0.792-0.446,1.35,0.499,1.35,0.499c1.409-1.843,2.101-0.1,2.101-0.1c2.395-1.18,2.782,1.045,2.782,1.045
		c0.487-0.628,1.145,0.018,1.779,0.916c0.417,0.599,0.147,1.139-0.082,1.432c0.417,0.241,0.663,0.663,0.663,0.663
		c1.867-2.436,2.776-0.135,2.776-0.135c3.158-1.556,3.675,1.379,3.675,1.379c0.64-0.828,1.509,0.023,2.342,1.209
		c0.834,1.186-0.399,2.201-0.399,2.201c0.869,0.757-0.452,1.274-0.452,1.274c0.704,0.675,0.006,1.35-0.176,1.503
		c0.839-0.681,1.25,0.147,1.25,0.147c1.233,0.2-0.065,1.18-0.065,1.18c-0.452,0.176-0.74-0.294-0.74-0.294
		c-0.61,0.299-0.704,0.528-0.663,0.681c1.544-0.364,1.82,1.197,1.82,1.197c0.434-0.564,1.027,0.012,1.602,0.828
		c0.569,0.81-0.276,1.509-0.276,1.509c0.599,0.517-0.311,0.869-0.311,0.869c0.487,0.464,0.006,0.927-0.117,1.033
		c0.575-0.47,0.851,0.094,0.851,0.094c0.845,0.141-0.035,0.816-0.035,0.816c-0.317,0.112-0.511-0.211-0.511-0.211
		c-0.223,0.117-0.346,0.211-0.405,0.293c0.569,0.229,0.693,0.916,0.693,0.916c0.34-0.446,0.81,0.012,1.262,0.657
		c0.452,0.64-0.217,1.186-0.217,1.186c0.47,0.411-0.247,0.693-0.247,0.693c0.387,0.364,0.006,0.728-0.094,0.81
		c0.458-0.37,0.675,0.076,0.675,0.076c0.669,0.106-0.029,0.64-0.029,0.64c-0.247,0.094-0.399-0.158-0.399-0.158
		c-0.61,0.299-0.276,0.47-0.276,0.47c0.464-0.1,0.194,0.293,0.194,0.293l-0.282,0.041l-0.335,0.182l0.018,0.112l0.252-0.029
		l0.023,0.194l-0.293,0.141l0.088,0.223c0.346,0.487-0.816,0.728-0.816,0.728c-0.182,1.473-1.567,0.945-1.884,0.798
		c-0.247,0.112-0.505,0.2-0.787,0.235c-0.71,0.094-1.379-0.088-1.914-0.464L143.219,423.893z"/>
	<path style="fill:#4E342E;" d="M129.736,447.103c0,0-0.123-0.699,0.076-3.099l-0.687-7.76c0,0-0.123-2.853,0.247-3.68
		c0,0,5.588-5.424,6.727-5.729c0,0,0.81-7.103,1.826-7.243l-1.01-0.599c0,0-0.91,6.709-1.573,7.737c0,0-2.577-9.703-2.178-10.73
		l-0.376,0.293c0,0,1.215,9.685,0.986,10.354l-1.649,1.702c0,0-0.564,1.714-0.904,0.933c0,0-3.152-1.919-1.597-12.051l-1.268-0.822
		l-1.051,6.668c0,0,0.734,0,0.405,1.691c0,0,1.291,4.033,1.086,4.426c0,0-0.305,1.919-1.145,1.356l-1.767-4.168
		c0,0-1.485-5.958-0.481-6.874l-0.382-0.481c0,0-0.663,2.953-0.129,5.113c0,0-2.706-2.994-3.545-2.994l0.023,0.54
		c0,0,0.517-1.062,3.305,3.017c0,0,1.925,5.406,1.99,6.469c0,0-0.223,3.228-0.088,3.839c0,0,1.679,8.629-1.092,11.229
		L129.736,447.103z"/>
	<path style="fill:#9BCB64;" d="M419.508,409.236c0.123,0.481-0.311,0.892-0.446,1.004c0.81-0.652,1.197,0.147,1.197,0.147
		c1.192,0.188-0.065,1.127-0.065,1.127c-0.423,0.17-0.704-0.288-0.704-0.288c-1.086,0.534-0.475,0.845-0.475,0.845
		c0.81-0.188,0.323,0.511,0.323,0.511l-0.493,0.076l-0.593,0.317l0.029,0.211l0.452-0.059l0.047,0.346l-0.534,0.247l0.164,0.399
		c0.61,0.869-1.444,1.291-1.444,1.291c-0.323,2.612-2.771,1.673-3.346,1.415c-0.434,0.205-0.904,0.352-1.403,0.423
		c-1.25,0.164-2.436-0.158-3.393-0.828c-0.716,0.141-1.503-0.065-1.503-0.065c-0.834,0.088-0.505-1.133-0.505-1.133
		c-0.652,1.35-1.597,0.182-1.597,0.182c-0.904-0.969,0.188-1.544,0.188-1.544c-0.528-0.593,0.188-1.074,0.188-1.074
		c-1.374-0.258-1.691-0.969-1.755-1.409c-0.587-0.182-1.062-0.382-1.35-0.511c-1.068,0.511-2.236,0.869-3.469,1.039
		c-3.076,0.423-6.04-0.382-8.382-2.043c-1.79,0.358-3.733-0.147-3.733-0.147c-2.066,0.205-1.244-2.812-1.244-2.812
		c-1.109,2.313-2.565,1.655-3.363,1.021c0.147,0.71-1.556,1.062-1.556,1.062c-0.317,2.618-2.765,1.673-3.34,1.415
		c-0.428,0.205-0.904,0.346-1.403,0.417c-1.239,0.176-2.436-0.158-3.393-0.822c-0.716,0.147-1.503-0.07-1.503-0.07
		c-0.834,0.094-0.499-1.133-0.499-1.133c-0.652,1.362-1.608,0.188-1.608,0.188c-0.898-0.969,0.2-1.538,0.2-1.538
		c-0.522-0.599,0.188-1.086,0.188-1.086c-2.049-0.387-1.755-1.773-1.755-1.773c-0.945-1.221-0.023-2.272-0.023-2.272
		c-0.129-0.106-0.217-0.211-0.282-0.317c-1.156,0.106-2.266-0.217-3.152-0.845c-0.728,0.135-1.514-0.07-1.514-0.07
		c-0.839,0.094-0.511-1.139-0.511-1.139c-0.652,1.368-1.602,0.188-1.602,0.188c-0.922-0.974,0.188-1.55,0.188-1.55
		c-0.528-0.599,0.2-1.092,0.2-1.092c-2.066-0.387-1.779-1.784-1.779-1.784c-0.945-1.233-0.012-2.289-0.012-2.289
		c-0.822-0.663-0.07-1.327-0.07-1.327c-0.264-0.816,0.892-0.787,0.892-0.787c-1.156-2.201,0.892-2.454,0.892-2.454
		c0.376-1.062,1.291-0.417,1.291-0.417c0.47-1.174,2.072-0.288,2.072-0.288c-0.475-1.01,1.033-1.016,1.033-1.016
		c0.293-0.158,0.558-0.176,0.792-0.117c-0.006-0.135,0.012-0.217,0.012-0.217c-0.945-1.227-0.018-2.278-0.018-2.278
		c-0.816-0.669-0.059-1.344-0.059-1.344c-0.117-0.346,0.029-0.54,0.241-0.652c-0.91-2.119,0.552-3.786,0.552-3.786
		c-1.714-1.397-0.135-2.794-0.135-2.794c-0.564-1.708,1.867-1.655,1.867-1.655c-2.424-4.62,1.867-5.13,1.867-5.13
		c0.781-2.219,2.706-0.875,2.706-0.875c0.974-2.459,4.35-0.599,4.35-0.599c-1.004-2.113,2.166-2.131,2.166-2.131
		c2.119-1.186,3.604,1.332,3.604,1.332c1.262-1.644,2.307-2.219,3.14-2.254c-0.704-2.295,1.614-2.577,1.614-2.577
		c0.522-1.485,1.808-0.587,1.808-0.587c0.657-1.644,2.911-0.399,2.911-0.399c-0.669-1.409,1.45-1.421,1.45-1.421
		c1.426-0.792,2.413,0.892,2.413,0.892c2.524-3.287,3.751-0.182,3.751-0.182c4.279-2.096,4.972,1.867,4.972,1.867
		c0.869-1.115,2.043,0.029,3.164,1.626c0.745,1.068,0.264,2.037-0.141,2.559c0.74,0.429,1.186,1.18,1.186,1.18
		c3.328-4.338,4.948-0.235,4.948-0.235c5.641-2.776,6.557,2.465,6.557,2.465c1.145-1.479,2.688,0.029,4.179,2.148
		c1.491,2.125-0.716,3.927-0.716,3.927c1.561,1.356-0.804,2.272-0.804,2.272c1.262,1.209,0.012,2.413-0.305,2.683
		c1.491-1.215,2.219,0.27,2.219,0.27c2.207,0.352-0.106,2.101-0.106,2.101c-0.804,0.311-1.321-0.528-1.321-0.528
		c-1.086,0.534-1.262,0.951-1.192,1.215c2.759-0.64,3.246,2.143,3.246,2.143c0.781-1.01,1.843,0.023,2.865,1.473
		c1.015,1.45-0.493,2.688-0.493,2.688c1.062,0.927-0.552,1.561-0.552,1.561c0.869,0.822,0.006,1.644-0.211,1.831
		c1.027-0.839,1.52,0.176,1.52,0.176c1.509,0.247-0.07,1.45-0.07,1.45c-0.558,0.205-0.904-0.37-0.904-0.37
		c-0.399,0.2-0.616,0.376-0.728,0.522c1.021,0.405,1.239,1.638,1.239,1.638c0.61-0.798,1.444,0.018,2.254,1.162
		c0.804,1.145-0.393,2.119-0.393,2.119c0.845,0.734-0.428,1.239-0.428,1.239c0.687,0.646,0.006,1.291-0.17,1.438
		c0.816-0.657,1.203,0.141,1.203,0.141c1.186,0.194-0.059,1.139-0.059,1.139c-0.44,0.17-0.71-0.282-0.71-0.282
		c-1.092,0.534-0.487,0.839-0.487,0.839c0.828-0.182,0.34,0.528,0.34,0.528l-0.505,0.065l-0.599,0.335l0.035,0.194l0.458-0.053
		l0.041,0.346l-0.534,0.247l0.164,0.405c0.616,0.869-1.462,1.297-1.462,1.297c-0.317,2.624-2.782,1.685-3.352,1.421
		c-0.44,0.205-0.91,0.358-1.415,0.423c-1.256,0.17-2.454-0.158-3.41-0.828L419.508,409.236z"/>
	<path style="fill:#4E342E;" d="M395.448,450.654c0,0-0.223-1.256,0.135-5.541l-1.227-13.847c0,0-0.211-5.089,0.44-6.557
		c0,0,9.979-9.685,12.004-10.219c0,0,1.45-12.679,3.264-12.931l-1.808-1.068c0,0-1.626,11.975-2.806,13.8
		c0,0-4.602-17.31-3.886-19.136l-0.663,0.522c0,0,2.16,17.275,1.755,18.473l-2.941,3.035c0,0-1.01,3.058-1.62,1.667
		c0,0-5.623-3.428-2.841-21.501l-2.266-1.462l-1.872,11.892c0,0,1.303,0,0.728,3.017c0,0,2.295,7.191,1.931,7.901
		c0,0-0.546,3.422-2.043,2.413l-3.152-7.437c0,0-2.647-10.624-0.863-12.262l-0.681-0.857c0,0-1.186,5.271-0.229,9.122
		c0,0-4.825-5.347-6.322-5.336l0.041,0.963c0,0,0.916-1.896,5.899,5.377c0,0,3.428,9.65,3.545,11.54c0,0-0.399,5.764-0.159,6.856
		c0,0,3,15.397-1.949,20.028L395.448,450.654z"/>
</g>
<g>
	<polygon style="fill:#FFFFFF;" points="197.433,175.621 182.958,156.062 175.539,161.257 182.811,183.158 	"/>
	<polygon style="fill:#FFFFFF;" points="340.793,146.577 300.591,97.264 300.097,94.382 288.176,97.352 288.886,99.717 
		292.29,157.647 	"/>
</g>
<g>
	<path style="fill:#EDEDED;" d="M340.793,146.577l-7.59-9.31c-14.868,1.473-28.903,3.956-41.682,7.273l0.769,13.107L340.793,146.577
		z"/>
	<polygon style="fill:#EDEDED;" points="288.968,97.152 288.176,97.352 288.886,99.717 291.874,150.58 296.945,150.063 
		290.078,99.5 	"/>
</g>
<path style="fill:#FFFFFF;" d="M423.917,155.481c-0.382-3.446-2.9-9.679-15.69-11.258c0,0-10.924-9.263-28.815-8.74
	c-17.897,0.522-72.798,8.511-109.415,17.316c-36.605,8.805-77.124,17.586-77.124,17.586s-40.314,9.574-40.913,14.223
	c-0.599,4.643-0.112,5.207,10.771,5.993c10.889,0.792,48.849,12.697,131.098,7.478C376.071,192.861,426.488,170.637,423.917,155.481
	z"/>
<path style="fill:#F9F9F9;" d="M151.801,186.245c-0.129,3.164,1.485,3.675,10.93,4.355c10.889,0.792,48.849,12.697,131.092,7.472
	c60.307-3.827,103.504-16.794,121.236-29.414c-26.191,3.669-20.856,2.049-42.627-5.647
	C335.047,149.799,150.169,185.652,151.801,186.245z"/>
<path style="fill:#EDEDED;" d="M423.917,155.481c-0.153-1.379-0.652-3.205-2.008-5.001c-0.751,2.624-2.759,5.694-6.985,9.087
	c-13.7,11.006-40.942,22.517-109.673,31.034c-53.392,6.615-124.412-0.74-153.45-4.355c-0.129,3.164,1.485,3.669,10.93,4.355
	c10.889,0.792,48.849,12.697,131.098,7.478C376.071,192.855,426.488,170.637,423.917,155.481z"/>
<path style="fill:#7FD3F9;" d="M408.226,144.223c0,0-2.424-2.06-6.868-4.179c-0.693,2.524-2.013,4.573-3.727,6.293
	c2.624,0.88,5.559,2.213,7.437,4.132C406.448,148.696,407.581,146.624,408.226,144.223z M394.045,149.177
	c-3.405,2.189-7.437,3.733-11.082,5.236l8.253,5.165c0,0,6.034-1.708,11.041-6.134C400.842,152.047,398.201,150.063,394.045,149.177
	z"/>
<g>
	<polygon style="fill:#FFFFFF;" points="185.987,187.824 114.938,214.978 106.773,214.385 162.508,186.251 	"/>
	<polygon style="fill:#FFFFFF;" points="276.6,188.476 96.201,278.796 90.684,277.751 95.479,281.907 99.33,283.016 
		104.642,283.233 334.336,184.003 334.131,181.555 	"/>
</g>
<polygon style="fill:#EDEDED;" points="99.33,283.016 104.642,283.233 334.336,184.003 334.131,181.555 "/>
<polygon style="fill:#FFFFFF;" points="189.133,174.899 126.825,121.366 114.504,125.944 160.835,182.354 "/>
<path style="fill:#7FD3F9;" d="M209.232,182.013c1.45-0.07,2.923-0.147,4.385-0.223c1.039-0.059,1.99,0.587,2.125,1.438
	c0.182,1.115,0.364,2.231,0.552,3.346c0.141,0.845-0.593,1.573-1.614,1.602c-1.467,0.053-2.935,0.106-4.402,0.147
	c-1.021,0.023-1.984-0.634-2.125-1.462c-0.188-1.086-0.387-2.172-0.546-3.258C207.477,182.782,208.199,182.06,209.232,182.013z
	 M343.893,164.603c1.473-0.258,2.929-0.505,4.402-0.769c1.039-0.182,1.996,0.522,2.137,1.567c0.194,1.368,0.376,2.735,0.575,4.103
	c0.153,1.039-0.575,2.031-1.597,2.201c-1.473,0.241-2.941,0.481-4.414,0.716c-1.021,0.164-1.972-0.534-2.119-1.567
	c-0.2-1.35-0.387-2.706-0.581-4.056C342.149,165.765,342.871,164.773,343.893,164.603z M328.936,167.245
	c1.473-0.235,2.941-0.47,4.397-0.716c1.039-0.17,1.996,0.522,2.137,1.55c0.194,1.338,0.399,2.683,0.581,4.021
	c0.141,1.027-0.587,2.002-1.614,2.16c-1.467,0.229-2.941,0.458-4.379,0.675c-1.039,0.158-1.996-0.546-2.142-1.556
	c-0.188-1.332-0.382-2.665-0.575-3.986C327.193,168.377,327.915,167.409,328.936,167.245z M313.98,169.745
	c1.467-0.217,2.947-0.446,4.414-0.675c1.01-0.158,1.978,0.528,2.125,1.538c0.188,1.315,0.364,2.63,0.546,3.95
	c0.141,1.01-0.558,1.955-1.591,2.107c-1.473,0.217-2.947,0.44-4.385,0.646c-1.039,0.147-1.984-0.552-2.137-1.544
	c-0.2-1.315-0.376-2.618-0.569-3.927C312.236,170.843,312.976,169.898,313.98,169.745z M299.029,172.099
	c1.467-0.205,2.929-0.417,4.397-0.634c1.027-0.147,1.996,0.534,2.137,1.526c0.188,1.291,0.37,2.594,0.552,3.892
	c0.141,0.986-0.569,1.919-1.608,2.06c-1.473,0.194-2.923,0.387-4.397,0.587c-1.021,0.141-1.955-0.552-2.107-1.526
	c-0.205-1.286-0.399-2.565-0.581-3.851C297.28,173.167,298.025,172.246,299.029,172.099z M284.067,174.294
	c1.467-0.194,2.941-0.387,4.397-0.587c1.021-0.141,1.996,0.54,2.137,1.509c0.182,1.274,0.37,2.548,0.552,3.827
	c0.141,0.974-0.569,1.872-1.608,2.002c-1.467,0.188-2.941,0.376-4.397,0.552c-1.021,0.123-1.978-0.558-2.119-1.514
	c-0.188-1.268-0.382-2.536-0.569-3.792C282.318,175.327,283.057,174.423,284.067,174.294z M269.104,176.313
	c1.467-0.176,2.929-0.352,4.397-0.534c1.021-0.129,1.978,0.546,2.113,1.497c0.176,1.25,0.382,2.501,0.564,3.757
	c0.147,0.957-0.569,1.831-1.608,1.949c-1.467,0.17-2.935,0.335-4.391,0.493c-1.027,0.112-1.984-0.569-2.125-1.514
	c-0.182-1.239-0.376-2.477-0.558-3.71C267.361,177.305,268.071,176.437,269.104,176.313z M254.136,178.133
	c1.467-0.153,2.941-0.311,4.408-0.475c1.01-0.106,1.972,0.558,2.107,1.491c0.182,1.227,0.376,2.448,0.558,3.675
	c0.141,0.939-0.587,1.784-1.608,1.878c-1.467,0.147-2.935,0.288-4.402,0.428c-1.021,0.1-1.99-0.581-2.125-1.509
	c-0.176-1.203-0.364-2.413-0.54-3.622C252.393,179.078,253.097,178.245,254.136,178.133z M239.174,179.712
	c1.467-0.123,2.935-0.258,4.391-0.393c1.021-0.088,1.99,0.564,2.125,1.467c0.176,1.197,0.364,2.389,0.558,3.581
	c0.147,0.91-0.599,1.732-1.62,1.808c-1.467,0.117-2.941,0.229-4.408,0.34c-1.021,0.076-1.984-0.593-2.119-1.497
	c-0.182-1.168-0.346-2.342-0.528-3.516C237.425,180.61,238.135,179.806,239.174,179.712z M224.194,181.027
	c1.456-0.1,2.923-0.217,4.391-0.323c1.039-0.082,1.99,0.575,2.131,1.462c0.176,1.15,0.37,2.307,0.558,3.463
	c0.141,0.886-0.599,1.661-1.62,1.72c-1.462,0.088-2.935,0.176-4.402,0.252c-1.015,0.047-1.978-0.622-2.119-1.485
	c-0.188-1.139-0.376-2.272-0.552-3.399C222.451,181.855,223.179,181.092,224.194,181.027z"/>
<g>
</g>
<g>
</g>
<g>
</g>
<g>
</g>
<g>
</g>
<g>
</g>
<g>
</g>
<g>
</g>
<g>
</g>
<g>
</g>
<g>
</g>
<g>
</g>
<g>
</g>
<g>
</g>
<g>
</g>
</svg>
