<?xml version="1.0" encoding="iso-8859-1"?>
<!-- Generator: Adobe Illustrator 19.0.0, SVG Export Plug-In . SVG Version: 6.00 Build 0)  -->
<svg version="1.1" id="Layer_1" xmlns="http://www.w3.org/2000/svg" xmlns:xlink="http://www.w3.org/1999/xlink" x="0px" y="0px"
	 viewBox="0 0 512 512" style="enable-background:new 0 0 512 512;" xml:space="preserve">
<g>
	<path style="fill:#FFE900;" d="M256,0c141.386,0,256,114.614,256,256c0,141.386-114.614,256-256,256C114.614,512,0,397.386,0,256
		C0,114.614,114.614,0,256,0z"/>
	<path style="fill:#7FD3F9;" d="M511.904,262.897H0.096C3.75,401.095,116.92,512,256,512S508.25,401.095,511.904,262.897z"/>
</g>
<polygon style="fill:#FFFFFF;" points="202.111,92.942 190.898,77.791 185.156,81.816 190.784,98.779 "/>
<path style="fill:#DFF5F9;" d="M218.301,321.734c31.986,0,57.914,0.914,57.914,2.041c0,1.124-25.927,2.038-57.914,2.038
	c-31.984,0-57.914-0.914-57.914-2.038C160.387,322.648,186.317,321.734,218.301,321.734z M500.54,331.968l-0.249,0.779
	c-10.086,0.378-34.142,0.641-62.218,0.641c-37.161,0-67.285-0.462-67.285-1.035c0-0.572,30.124-1.035,67.285-1.035
	C466.382,331.317,490.605,331.586,500.54,331.968z M495.778,345.833l-0.779,2.046l-4.682,0.012c-17.924,0-32.453-0.463-32.453-1.035
	c0-0.573,14.53-1.035,32.453-1.035L495.778,345.833z M490.289,359.288c-0.676,1.531-1.366,3.053-2.071,4.568
	c-29.577-0.103-52.776-1.086-52.776-2.281C435.442,360.351,459.73,359.353,490.289,359.288z M474.743,389.06
	c-0.805,1.32-1.627,2.627-2.456,3.933c-7.156,0.376-16.323,0.603-26.319,0.603c-22.872,0-41.412-1.182-41.412-2.639
	c0-1.457,18.54-2.639,41.412-2.639C457.148,388.318,467.294,388.599,474.743,389.06z M452.473,420.104
	c-0.909,1.088-1.821,2.176-2.749,3.251c-23.788-0.272-40.391-0.891-40.391-1.61C409.334,420.998,427.229,420.359,452.473,420.104z
	 M419.473,453.007c-2.932,2.437-5.924,4.804-8.966,7.108c-9.305,0.216-19.58,0.335-30.385,0.335
	c-41.925,0-75.911-1.796-75.911-4.011c0-2.215,33.986-4.011,75.911-4.011C394.53,452.428,407.996,452.638,419.473,453.007z
	 M370.272,485.124c-3.665,1.833-7.376,3.576-11.139,5.234c-33.855,0-61.295-1.182-61.295-2.639c0-1.457,27.455-2.639,61.322-2.639
	C362.956,485.08,366.669,485.094,370.272,485.124z M83.528,445.176c-0.591-0.538-1.171-1.091-1.757-1.635
	c4.112-0.932,16.689-1.61,31.572-1.61c18.222,0,32.991,1.017,32.991,2.273c0,1.255-14.77,2.272-32.991,2.272
	C100.183,446.474,88.823,445.943,83.528,445.176z M65.83,427.37c-1.051-1.166-2.096-2.341-3.127-3.526
	c11.572-0.346,26.659-0.554,43.165-0.554c36.444,0,65.986,1.017,65.986,2.272c0,1.256-29.542,2.273-65.986,2.273
	C90.811,427.835,76.933,427.664,65.83,427.37z M54.922,414.449c-1.207-1.53-2.394-3.071-3.564-4.629
	c15.178-0.747,37.825-1.221,63.13-1.221c45.707,0,82.757,1.546,82.757,3.454c0,1.906-37.051,3.454-82.757,3.454
	C91.096,415.507,69.974,415.102,54.922,414.449z M35.651,386.359c-0.476-0.802-0.958-1.601-1.424-2.41
	c11.673-0.662,33.012-1.107,57.41-1.107c36.923,0,66.854,1.018,66.854,2.273s-29.932,2.273-66.854,2.273
	C68.201,387.388,47.588,386.98,35.651,386.359z M14.39,340.774l-0.65-1.849c11.024-0.286,27.141-0.468,45.099-0.468
	c33.226,0,60.161,0.619,60.161,1.384s-26.936,1.384-60.161,1.384C41.229,341.225,25.389,341.051,14.39,340.774z M11.811,333.054
	c-0.3-0.95-0.589-1.908-0.877-2.863c13.798-0.422,33.669-0.685,55.762-0.685c41.671,0,75.453,0.942,75.453,2.103
	c0,1.163-33.782,2.105-75.453,2.105C45.066,333.714,25.566,333.459,11.811,333.054z M7.153,316.268l-0.52-2.13
	c10.601-0.202,24.288-0.325,39.229-0.325c33.663,0,60.951,0.621,60.951,1.386s-27.288,1.384-60.951,1.384
	C31.161,316.582,17.681,316.465,7.153,316.268z M280.771,395.842c35.083,0,63.521,1.498,63.521,3.349
	c0,1.849-28.438,3.347-63.521,3.347c-35.081,0-63.521-1.498-63.521-3.347C217.25,397.341,245.689,395.842,280.771,395.842z
	 M379.071,416.467c16.714,0,30.263,1.179,30.263,2.639c0,1.457-13.549,2.639-30.263,2.639c-16.715,0-30.264-1.182-30.264-2.639
	C348.807,417.646,362.356,416.467,379.071,416.467z M372.217,443.389c33.427,0,60.525-1.182,60.525-2.639
	c0-1.459-27.098-2.639-60.525-2.639c-33.429,0-60.527,1.18-60.527,2.639C311.69,442.207,338.787,443.389,372.217,443.389z
	 M220.136,440.415c40.757,0,73.799,0.678,73.799,1.514s-33.042,1.516-73.799,1.516c-40.759,0-73.802-0.68-73.802-1.516
	S179.376,440.415,220.136,440.415z M186.274,466.171c24.935,0,45.148,1.017,45.148,2.273c0,1.255-20.213,2.272-45.148,2.272
	c-24.933,0-45.148-1.017-45.148-2.272C141.125,467.188,161.34,466.171,186.274,466.171z M277.438,419.204
	c19.66,0,35.598,0.678,35.598,1.514c0,0.838-15.938,1.517-35.598,1.517s-35.596-0.679-35.596-1.517
	C241.841,419.882,257.778,419.204,277.438,419.204z M340.707,329.245c16.614,0,30.081,0.696,30.081,1.556
	c0,0.857-13.466,1.552-30.081,1.552c-16.614,0-30.081-0.696-30.081-1.552C310.626,329.941,324.093,329.245,340.707,329.245z
	 M333.895,345.096c33.226,0,60.161-0.694,60.161-1.553c0-0.859-26.936-1.553-60.161-1.553c-33.228,0-60.161,0.694-60.161,1.553
	C273.734,344.402,300.667,345.096,333.895,345.096z M341.752,355.142c41.671,0,75.453-1.058,75.453-2.362
	c0-1.303-33.782-2.362-75.453-2.362c-41.673,0-75.456,1.058-75.456,2.362C266.296,354.084,300.078,355.142,341.752,355.142z
	 M320.916,372.753c33.665,0,60.953-0.696,60.953-1.555c0-0.857-27.288-1.553-60.953-1.553c-33.663,0-60.951,0.696-60.951,1.553
	C259.965,372.056,287.253,372.753,320.916,372.753z M407.202,315.778c22.732,0,41.162-0.694,41.162-1.553
	c0-0.859-18.43-1.553-41.162-1.553c-22.735,0-41.165,0.694-41.165,1.553C366.037,315.084,384.467,315.778,407.202,315.778z
	 M65.651,352.582c16.614,0,30.081-0.621,30.081-1.386c0-0.763-13.466-1.384-30.081-1.384c-16.611,0-30.08,0.621-30.08,1.384
	C35.571,351.961,49.04,352.582,65.651,352.582z M163.017,348.889c37.161,0,67.287,0.412,67.287,0.923
	c0,0.508-30.127,0.923-67.287,0.923c-37.158,0-67.285-0.415-67.285-0.923C95.732,349.301,125.859,348.889,163.017,348.889z
	 M132.146,364.58c22.732,0,41.162,0.621,41.162,1.386s-18.43,1.384-41.162,1.384c-22.735,0-41.162-0.619-41.162-1.384
	S109.411,364.58,132.146,364.58z M215.263,335.968c17.924,0,32.453,0.412,32.453,0.921c0,0.51-14.529,0.923-32.453,0.923
	c-17.924,0-32.456-0.413-32.456-0.923C182.807,336.38,197.34,335.968,215.263,335.968z"/>
<polygon style="fill:#FFFFFF;" points="313.135,70.453 282.001,32.259 281.62,30.025 272.387,32.325 272.937,34.157 275.573,79.024 
	"/>
<g>
	<path style="fill:#EDEDED;" d="M313.135,70.453l-5.878-7.211c-11.515,1.141-22.382,3.061-32.282,5.631l0.598,10.152L313.135,70.453
		z"/>
	<polygon style="fill:#EDEDED;" points="273.003,32.172 272.387,32.325 272.937,34.155 275.25,73.547 279.176,73.149 273.86,33.988 
			"/>
</g>
<path style="fill:#FFFFFF;" d="M377.51,77.345c-0.293-2.668-2.245-7.492-12.149-8.718c0,0-8.461-7.174-22.317-6.771
	c-13.858,0.406-56.382,6.592-84.732,13.412c-28.353,6.817-59.732,13.62-59.732,13.62s-31.223,7.414-31.686,11.013
	c-0.462,3.599-0.089,4.031,8.342,4.645c8.434,0.611,37.832,9.829,101.527,5.786C340.457,106.292,379.501,89.082,377.51,77.345z"/>
<path style="fill:#F9F9F9;" d="M166.769,101.172c-0.101,2.446,1.149,2.842,8.466,3.374c8.434,0.611,37.832,9.829,101.527,5.786
	c46.706-2.964,80.154-13.009,93.893-22.783c-20.285,2.84-16.156,1.587-33.012-4.37C308.684,72.947,165.504,100.71,166.769,101.172z"
	/>
<path style="fill:#EDEDED;" d="M377.513,77.345c-0.119-1.07-0.504-2.483-1.558-3.873c-0.582,2.032-2.133,4.409-5.406,7.039
	c-10.613,8.524-31.711,17.436-84.939,24.031c-41.35,5.124-96.352-0.572-118.842-3.369c-0.099,2.446,1.149,2.842,8.466,3.374
	c8.434,0.614,37.832,9.829,101.527,5.786C340.457,106.292,379.501,89.082,377.513,77.345z"/>
<path style="fill:#7FD3F9;" d="M365.361,68.625c0,0-1.878-1.592-5.319-3.235c-0.536,1.954-1.56,3.544-2.886,4.87
	c2.029,0.685,4.306,1.718,5.76,3.2C363.984,72.088,364.86,70.485,365.361,68.625z M354.377,72.462
	c-2.637,1.695-5.759,2.893-8.583,4.056l6.391,4c0,0,4.675-1.324,8.553-4.751C359.641,74.688,357.595,73.149,354.377,72.462z"/>
<g>
	<polygon style="fill:#FFFFFF;" points="193.244,102.395 138.223,123.423 131.896,122.963 175.059,101.177 	"/>
	<polygon style="fill:#FFFFFF;" points="263.421,102.902 123.707,172.848 119.438,172.039 123.151,175.256 126.131,176.117 
		130.247,176.286 308.137,99.436 307.976,97.539 	"/>
</g>
<polygon style="fill:#EDEDED;" points="126.131,176.117 130.247,176.286 308.139,99.436 307.979,97.539 "/>
<polygon style="fill:#FFFFFF;" points="195.686,92.383 147.427,50.923 137.881,54.469 173.764,98.155 "/>
<path style="fill:#7FD3F9;" d="M211.246,97.894c1.124-0.055,2.263-0.115,3.399-0.176c0.802-0.044,1.542,0.458,1.647,1.115
	c0.14,0.864,0.277,1.727,0.423,2.591c0.11,0.655-0.46,1.219-1.25,1.244c-1.136,0.039-2.273,0.08-3.409,0.109
	c-0.787,0.021-1.535-0.487-1.645-1.129c-0.146-0.843-0.3-1.681-0.426-2.524C209.89,98.49,210.444,97.933,211.246,97.894z
	 M315.54,84.407c1.136-0.197,2.267-0.39,3.406-0.591c0.804-0.142,1.544,0.403,1.656,1.209c0.149,1.06,0.291,2.118,0.444,3.179
	c0.117,0.804-0.444,1.574-1.237,1.704c-1.138,0.188-2.279,0.373-3.417,0.557c-0.793,0.128-1.526-0.417-1.645-1.212
	c-0.154-1.049-0.298-2.096-0.444-3.145C314.188,85.308,314.748,84.544,315.54,84.407z M303.954,86.457
	c1.138-0.183,2.279-0.369,3.406-0.554c0.804-0.133,1.544,0.403,1.656,1.198c0.149,1.038,0.305,2.078,0.447,3.111
	c0.109,0.797-0.456,1.553-1.248,1.674c-1.136,0.179-2.277,0.355-3.392,0.525c-0.807,0.121-1.544-0.421-1.657-1.207
	c-0.148-1.028-0.3-2.059-0.449-3.083C302.605,87.332,303.164,86.583,303.954,86.457z M292.373,88.393
	c1.138-0.171,2.279-0.346,3.417-0.524c0.781-0.121,1.53,0.41,1.645,1.189c0.146,1.022,0.282,2.041,0.423,3.065
	c0.108,0.779-0.431,1.512-1.235,1.631c-1.138,0.169-2.279,0.339-3.394,0.499c-0.802,0.115-1.537-0.428-1.657-1.196
	c-0.153-1.017-0.288-2.029-0.437-3.041C291.024,89.245,291.591,88.51,292.373,88.393z M280.791,90.219
	c1.138-0.163,2.268-0.33,3.406-0.493c0.793-0.115,1.546,0.412,1.656,1.182c0.142,1.001,0.284,2.009,0.426,3.01
	c0.11,0.768-0.444,1.487-1.246,1.595c-1.139,0.156-2.265,0.305-3.404,0.46c-0.793,0.107-1.516-0.431-1.633-1.186
	c-0.158-0.994-0.307-1.986-0.452-2.983C279.437,91.041,280.012,90.328,280.791,90.219z M269.203,91.913
	c1.138-0.149,2.279-0.297,3.404-0.454c0.795-0.107,1.548,0.419,1.658,1.169c0.142,0.987,0.284,1.974,0.426,2.962
	c0.11,0.756-0.442,1.452-1.246,1.553c-1.136,0.146-2.277,0.291-3.402,0.428c-0.793,0.094-1.537-0.433-1.647-1.177
	c-0.142-0.981-0.295-1.959-0.437-2.934C267.849,92.715,268.424,92.016,269.203,91.913z M257.617,93.478
	c1.138-0.135,2.267-0.27,3.404-0.412c0.793-0.101,1.53,0.424,1.634,1.159c0.137,0.969,0.297,1.938,0.439,2.909
	c0.11,0.74-0.439,1.42-1.244,1.512c-1.138,0.131-2.276,0.257-3.402,0.379c-0.792,0.087-1.537-0.44-1.645-1.169
	c-0.144-0.962-0.293-1.92-0.431-2.877C256.268,94.245,256.815,93.572,257.617,93.478z M246.024,94.889
	c1.136-0.117,2.277-0.243,3.413-0.367c0.781-0.087,1.53,0.431,1.635,1.152c0.137,0.948,0.286,1.897,0.431,2.848
	c0.107,0.723-0.454,1.379-1.246,1.457c-1.136,0.107-2.275,0.22-3.41,0.328c-0.791,0.075-1.54-0.449-1.645-1.166
	c-0.138-0.932-0.284-1.872-0.421-2.804C244.675,95.622,245.223,94.974,246.024,94.889z M234.434,96.112
	c1.138-0.099,2.277-0.202,3.402-0.305c0.793-0.071,1.542,0.435,1.647,1.138c0.137,0.923,0.282,1.849,0.431,2.772
	c0.114,0.703-0.463,1.337-1.253,1.399c-1.136,0.09-2.277,0.177-3.413,0.264c-0.79,0.059-1.537-0.458-1.645-1.159
	c-0.137-0.905-0.266-1.816-0.41-2.724C233.082,96.809,233.634,96.183,234.434,96.112z M222.839,97.129
	c1.124-0.076,2.261-0.165,3.399-0.252c0.802-0.059,1.539,0.449,1.647,1.132c0.137,0.893,0.288,1.789,0.433,2.685
	c0.11,0.685-0.462,1.285-1.253,1.333c-1.136,0.067-2.272,0.135-3.408,0.193c-0.791,0.041-1.535-0.479-1.647-1.15
	c-0.144-0.877-0.291-1.754-0.423-2.632C221.485,97.771,222.046,97.179,222.839,97.129z"/>
<path style="fill:#FFFFFF;" d="M275.01,130.749c31.558,0,57.139,25.582,57.139,57.139c0,31.56-25.582,57.142-57.139,57.142
	c-31.56,0-57.142-25.582-57.142-57.142C217.868,156.33,243.449,130.749,275.01,130.749z"/>
<path style="fill:#B1E9F1;" d="M267.992,265.826c31.558,0,57.141,25.584,57.141,57.142s-25.584,57.142-57.141,57.142
	c-31.558,0-57.142-25.584-57.142-57.142S236.433,265.826,267.992,265.826z"/>
<path style="fill:#E54A18;" d="M1.003,278.585l509.923,0.802C511.621,271.681,512,263.886,512,256c0-11.98-0.843-23.758-2.435-35.3
	c-1.432,0.543-4.533,1.479-6.159,1.88c-0.08-0.717,0.076-1.894-0.117-2.508c-0.472-1.517-0.859,0.135-1.062-2.062
	c-0.149-1.612,0.007-3.507,0.009-5.154c-3.857-1.638,0.53-1.482-7.428-1.489v-5.953l-1.294-0.367
	c-0.715-0.378-0.543,0.749-0.713-0.917l-1.339-4.663c-1.134-0.814-3.766-1.826-5.654-2.245c-2.673,0.582-4.563,1.658-6.283,2.675
	c-2.036,1.202-0.087,3.253-0.772,4.746c-1.141,1.175,0.419-0.332-1.315,0.584l-1.196,1.043l-8.395,0.013l-0.206,8.911
	c-5.346,0.048-3.404,0.353-4.829-1.37c-0.035,0.934,0.206,0.742-0.85,1.271l-0.669,0.215c-0.087,0.042-0.229,0.071-0.307,0.117
	c-1.026,0.575-0.577,1.679-0.579,2.488c-2.873,0.543-6.226,0.642-9.214,1.15c-2.682,0.456-0.655,0.319-2.847,0.703
	c0.046,0.069,0.185,0.087,0.208,0.191c0.023,0.094,0.158,0.144,0.185,0.181c0.023,0.032,0.119,0.129,0.142,0.168l0.025,0.79
	c-0.002,0.025,0,0.101,0,0.126c-0.002,0.025,0.014,0.103,0.016,0.129l-0.03,1.788c0,0.028,0.007,0.104,0.007,0.129l0.018,2.183
	c0.003,0.028,0.021,0.103,0.023,0.128l-0.046,1.666c0,0.027,0.007,0.103,0.007,0.128c0,0.028,0.018,0.106,0.02,0.131
	c0,0.028,0.021,0.103,0.021,0.131l-0.062,1.393c-0.003,0.028-0.034,0.103-0.034,0.131l0.65,0.891l-3.127-0.169l-0.252-8.187
	l-9.907,0.016l-0.195,3.496l-5.339,0.005c0.03-1.629,0.119-7.151-0.255-7.683l-7.724-0.062c-0.172-10.816,1.894-21.303,3.44-31.948
	l-10.523,0.969c-0.042-0.048-0.117-0.147-0.151-0.186c-0.034-0.041-0.082-0.131-0.147-0.19c-4.966,0.353-8.585,0.41-13.592,0
	l-1.008,1.175l-9.92-1.734c0.792,4.711,3.328,14.307,2.503,18.579c-0.424,0.44-2.311,0.912-3.2,1.556
	c-2.181,1.583-1.821-0.522-1.725,4.35c0.039,1.993,0.928,2.435-1.25,2.758c-1.661-1.093-0.378-39.628-0.609-44.315l-7.891-0.05
	l2.726-6.646c-2.803-1.917-5.044-1.124-10.193-1.356c-0.099-2.847,0.08-12.372-1.464-14.334l-1.264,14.378
	c-6.21,0.046-6.13-0.446-10.405,1.084l2.813,6.884l-8.068-0.003l-0.02,63.125c-1.633,0.007-0.802,0.094-1.651-0.405
	c-0.825-0.483-0.609-0.39-0.355-1.125c0.096-0.275,0.202-0.046,0.206-0.499l-0.339-0.967c0.115-1.076,0.456-0.19,0.151-1.303
	l-0.011-1.764c-0.229-0.79,0.259-0.836-0.009-1.766c-0.018-0.066-0.082-0.288-0.048-0.474c0.112-0.639,0.458,0.41,0.229-0.822
	l-0.311-0.644c-0.082-0.888,0.52,0.138,0.321-1.131c-0.022-0.154-0.499,0.059-0.185-0.967c0.698-2.279-0.034,0.144-0.58-1.878
	c-1.553-0.167-2.023-0.099-3.358-0.321c-0.877-0.144,0.451-0.078-1.507-0.252c-0.855-0.075-1.649-0.039-2.511-0.034
	c0.49-6.144,1.617-10.17-0.532-16.38c-2.208-6.386-5.056-8.306-8.406-13.643l-2.529,0.584l-1.876-2.321
	c-2.176,0.561-6.107,2.057-8.15,2.288l-0.706-9.204l-1.235,9.838c-4.891,2.08-9.529,1.957-11.433,5.399
	c-0.843,1.521-0.394,1.693-3.305,2.195l0.03-23.708c-1.901,0.38-3.229,1.079-5,1.51c-0.878-3.145,0.181-14.001-1.136-15.746
	l-1.068,16.593c-2.428,0.676-18.261,5.816-19.003,6.675c-0.625,1.51,0.142,22.498-0.03,26.216l-2.843,0.036
	c-0.367,2.744-1.381-0.444-1.901,2.213c-0.082,0.423,0.142,1.113,0.03,1.566c-0.339,1.37-1.25,0.752-1.299,2.559
	c-0.044,1.665-0.804,1.393-1.097,2.843c-0.266,1.314,0.729,0.872-0.983,1.253c-1.48-1.421-0.215-33.443-0.465-38.226
	c-0.822-0.224-0.497-0.098-1.04-0.235l-1.006-5.924c-1.558-0.431-1.023,0.026-2.441-0.513l0.004-6.278l-3.28-0.023l-0.172-2.222
	l-5.935-0.025l-0.504-7.978c-0.03,0.384-0.653,6.991-0.879,7.99l-5.01,0.023l-0.002,2.098l-3.347,0.188l-0.032,12.676
	c-2.679,0.039-1.479-0.146-2.018,0.481c-0.57,1.382-0.009,23.683-0.002,28.745c0.002,0.926,0.495,2.162-0.092,3.061
	c-0.488,0.747,0.367,0.295-0.967,0.639c-1.635-0.41-0.861-1.221-1.104-2.137c-0.259-0.983-0.011-0.465-0.953-0.998
	c-1.359-0.768-3.924-0.9-5.385-0.275c-0.087,0.039-0.181,0.096-0.261,0.137l-0.46,0.287c-1.269,0.909-0.479,1.537-0.905,2.81
	l-4.227,0.227l0.365,1.615c0.018,0.044,0.075,0.117,0.087,0.158c0.009,0.039,0.034,0.112,0.034,0.148
	c0.016,0.539-0.225,0.037-0.552,1.024c-0.3,0.903-0.071,3.051-0.071,4.084l0.039,6.164c0.016,1.922,0.894,0.671-0.706,1.954
	c-2.107-0.504-1.25-0.053-1.232-3.5c0.005-1.281,0.025-2.568-0.018-3.849l-2.124-0.398c0.179-4.252,0.818-6.013-7.199-7.898
	c-4.698,1.227-4.066,1.552-6.876,3.03c-0.958,0.502-0.023,3.615-0.295,4.496c-0.165,0.534-0.669,0.46-1.475,0.763
	c-1.597,0.597-3.1,0.536-5.225,0.406l-0.071-3.491l-6.031-0.007l-0.016-9.508l-9.447,0.002l-0.022,4.201
	c-3.706,0.082-2.65-0.044-4.614,1.093c-0.559,0.325-0.996,0.202-1.191,0.639c0,0.999,0.266,2.119-0.417,2.843
	c-0.87,0.921-0.474-0.626-0.889,1.012c-0.117,0.456,0.08,1.056-0.044,1.542c-0.634,2.503-1.141-0.399-1.054,5.694l-0.378-0.396
	c-0.032-0.053-0.114-0.142-0.144-0.211c-0.032-0.069-0.073-0.144-0.1-0.222c-0.078-0.227-0.053-0.726-0.065-0.981l-7.438-0.025
	l-0.069,2.554l-3.938,0.034c0.79-1.741,0.229-3.477,0.27-5.286c0.055-2.417-1.647-6.996,0.076-10.153
	c-1.739-0.504-1.583-1.333-2.958-2.02c-0.126-0.062-0.708-0.316-0.776-0.359l-2.474-1.397c-0.099-0.023-0.291-0.039-0.426-0.073
	h-1.004c-1.312,0.433-0.916-0.009-1.901,0.487c-1.297,0.656,0.27,0.082-0.923,0.958c-3.413,0.261-10.888,0.749-13.724,1.785
	l-1.562,0.621c0.518,0.69,1.492,19.154,0.346,19.54c-1.539,0.518,0.334-0.014-0.872,0.332c-0.708-9.561,1.858-5.832-3.175-8.594
	c0.138-0.131,0.795-15.004,0.77-15.558c-13.119-0.007-2.905-0.603-10.709-1.242c-1.956-0.16-3.775-0.302-5.77-0.419l-0.107-6.121
	l-1.828-0.3c-0.112-0.02-0.27-0.048-0.371-0.066l-0.726-6.82c-0.233-1.037-0.717-0.245-1.91-1.303
	c-0.731-0.646-1.017-0.894-2.478-1.351c-2.048-0.644-3.745-1.388-5.71-1.97c-6.963,1.539-8.006,3.225-9.016,3.82
	c-0.066,0.037-0.176,0.09-0.247,0.124l-1.239,0.423l-0.002,6.673c-0.634,0.726,0.14,0.158-1.159,0.481
	c-0.861,0.215-0.396-0.169-1.75,0.288l-0.034,16.426l-2.613,0.513c-0.339,2.133,0.566,6.155-0.094,7.964
	c-0.277,0.758,0.215,0.502-0.962,0.834c-1.61-0.362-1.219,0.456-1.134-2.637c0.064-2.36-1.001-7.843,0.705-9.499
	c-0.094-0.046-0.272-0.163-0.313-0.119c-0.539,0.591-1.592-1.359-1.077-2.918c0.547-1.665,1.427-0.914-1.049-2.683l-6.196-5.204
	c-0.092,0.059-0.195,0.084-0.229,0.195l-4.089,3.674l-13.925-0.009c-0.41,1.883,0.644,4.269-0.795,5.797
	c-1.475,1.562-0.08,3.447-0.687,5.117c-0.77,1.022,0.247,0.048-1.825,0.77l-0.059,12.491l-2.053-0.009
	c-1.266-0.838,0.08-0.048-0.495-0.701c-0.561-0.639-0.204-0.302-0.779-0.621c-1.132-0.63-1.312,0.628-1.299-1.672
	c-2.472-0.08-2.209,0.261-2.925-0.504l-0.016-10.75l-5.516-0.018c0.018-1.974-1.125-1.409-1.107-3.599
	c0.048-5.536,0.138-3.88-1.399-4.883c-1.533-1.004,1.455-0.926-6.604-0.914l-0.664,0.79c-0.062,0.046-0.165,0.103-0.236,0.149
	c-0.092,0.062-0.433,0.222-0.527,0.288c-0.532,0.362-0.442-0.009-0.747,0.719c-0.053,0.126-0.039,0.855-0.032,1.024l-0.532,1.674
	c-0.82,0.79-0.68,0.16-0.758,1.919c-0.085,1.929-1.175,0.527-1.091,5.924c0.016,1.076,0.497,1.384-0.953,1.69
	c-1.415-0.268-0.52,0.426-0.983-0.694c-0.082-0.202-0.032-1.251-0.022-1.526c0.066-2.066,0.311-4.318-0.188-6.356
	c-0.158-0.644-0.126-0.051-0.135-0.582l0.336-1.372l-13.867-0.032c0.016,0.369,0.312,1.2,0.314,1.219l-0.33,21.798l-3.91-0.002
	c-0.415-0.832-1.757-3.168-3.058-3.482c-0.069-0.016-0.227-0.025-0.3-0.039l-0.63-0.034c-1.099-0.169-0.305,0.227-1.15-0.463
	c-1.617-1.322,0.721-1.019-3.44-0.824c2.389-2.385-1.122-5.974,1.484-7.527l-5.032-1.432c-0.14-1.163,0.075-2.341-0.03-3.468
	c-0.028-0.3-0.023-0.435-0.152-0.733c-0.162-0.378-0.322-0.614-0.462-0.804C1.26,226.87,0,241.287,0,256
	C0,263.611,0.353,271.143,1.003,278.585z"/>
<path style="fill:#BF0513;" d="M1.003,278.585l509.923,0.802c0.318-3.526,0.579-7.067,0.758-10.629H0.316
	C0.481,272.053,0.719,275.326,1.003,278.585z"/>
<path style="fill:#00ABBF;" d="M1.118,279.882l509.805-0.479c-1.054,11.634-2.87,23.049-5.429,34.181
	c-0.788-0.137-1.525-0.259-2.089-0.341c-0.08,0.428,0.076,1.129-0.117,1.496c-0.472,0.902-0.859-0.082-1.062,1.228
	c-0.149,0.96,0.007,2.089,0.009,3.069c-3.857,0.976,0.53,0.884-7.428,0.889v3.546l-1.294,0.218
	c-0.715,0.224-0.543-0.447-0.713,0.545l-1.339,2.778c-1.134,0.486-3.766,1.088-5.654,1.338c-2.673-0.346-4.563-0.987-6.283-1.595
	c-2.036-0.717-0.087-1.938-0.772-2.827c-1.141-0.701,0.419,0.197-1.315-0.348l-1.196-0.621l-8.395-0.009l-0.206-5.307
	c-5.346-0.027-3.404-0.21-4.829,0.816c-0.035-0.557,0.206-0.443-0.85-0.756l-0.669-0.129c-0.087-0.025-0.229-0.044-0.307-0.071
	c-1.026-0.341-0.577-0.998-0.579-1.482c-2.873-0.323-6.226-0.38-9.214-0.685c-2.682-0.27-0.655-0.191-2.847-0.419
	c0.046-0.039,0.185-0.051,0.208-0.112c0.023-0.057,0.158-0.085,0.185-0.108c0.023-0.018,0.119-0.075,0.142-0.098l0.025-0.471
	c-0.002-0.017,0-0.06,0-0.076c-0.002-0.016,0.014-0.059,0.016-0.076l-0.03-1.065c0-0.016,0.007-0.062,0.007-0.078l0.018-1.301
	c0.003-0.014,0.021-0.059,0.023-0.075l-0.046-0.992c0-0.016,0.007-0.062,0.007-0.078c0-0.016,0.018-0.059,0.02-0.075
	c0-0.016,0.021-0.062,0.021-0.078l-0.062-0.83c-0.003-0.018-0.034-0.061-0.034-0.08l0.65-0.53l-3.127,0.101l-0.252,4.877
	l-9.907-0.009l-0.195-2.082l-5.339-0.003c0.03,0.969,0.119,4.261-0.255,4.577l-7.724,0.034c-0.172,6.446,1.894,12.69,3.44,19.033
	l-10.523-0.577c-0.042,0.03-0.117,0.087-0.151,0.109c-0.034,0.026-0.082,0.078-0.147,0.113c-4.966-0.208-8.585-0.243-13.592,0.002
	l-1.008-0.701l-9.92,1.033c0.792-2.806,3.328-8.524,2.503-11.069c-0.424-0.261-2.311-0.543-3.2-0.925
	c-2.181-0.944-1.821,0.311-1.725-2.59c0.039-1.189,0.928-1.45-1.25-1.645c-1.661,0.65-0.378,23.607-0.609,26.397l-7.891,0.032
	l2.726,3.958c-2.803,1.143-5.044,0.669-10.193,0.809c-0.099,1.695,0.08,7.369-1.464,8.537l-1.264-8.565
	c-6.21-0.027-6.13,0.266-10.405-0.646l2.813-4.101l-8.068,0.003l-0.02-37.603c-1.633-0.005-0.802-0.057-1.651,0.241
	c-0.825,0.289-0.609,0.233-0.355,0.671c0.096,0.162,0.202,0.025,0.206,0.297l-0.339,0.575c0.115,0.642,0.456,0.115,0.151,0.777
	l-0.011,1.049c-0.229,0.472,0.259,0.5-0.009,1.054c-0.018,0.039-0.082,0.172-0.048,0.282c0.112,0.381,0.458-0.245,0.229,0.491
	l-0.311,0.382c-0.082,0.532,0.52-0.08,0.321,0.676c-0.022,0.089-0.499-0.037-0.185,0.574c0.698,1.359-0.034-0.084-0.58,1.12
	c-1.553,0.098-2.023,0.057-3.358,0.19c-0.877,0.085,0.451,0.046-1.507,0.149c-0.855,0.046-1.649,0.025-2.511,0.02
	c0.49,3.661,1.617,6.059-0.532,9.758c-2.208,3.805-5.056,4.947-8.406,8.127l-2.529-0.346l-1.876,1.382
	c-2.176-0.335-6.107-1.226-8.15-1.363l-0.706,5.482l-1.235-5.859c-4.891-1.239-9.529-1.166-11.433-3.216
	c-0.843-0.907-0.394-1.01-3.305-1.308l0.03,14.121c-1.901-0.227-3.229-0.641-5-0.898c-0.878,1.874,0.181,8.338-1.136,9.38
	l-1.068-9.884c-2.428-0.406-18.261-3.466-19.003-3.979c-0.625-0.898,0.142-13.4-0.03-15.615l-2.843-0.023
	c-0.367-1.633-1.381,0.266-1.901-1.317c-0.082-0.252,0.142-0.662,0.03-0.932c-0.339-0.818-1.25-0.448-1.299-1.525
	c-0.044-0.992-0.804-0.829-1.097-1.693c-0.266-0.783,0.729-0.52-0.983-0.747c-1.48,0.845-0.215,19.921-0.465,22.771
	c-0.822,0.133-0.497,0.057-1.04,0.14l-1.006,3.53c-1.558,0.257-1.023-0.016-2.441,0.304l0.004,3.741l-3.28,0.013l-0.172,1.322
	l-5.935,0.016l-0.504,4.753c-0.03-0.229-0.653-4.164-0.879-4.76l-5.01-0.013l-0.002-1.248l-3.347-0.113l-0.032-7.552
	c-2.679-0.023-1.479,0.087-2.018-0.287c-0.57-0.822-0.009-14.107-0.002-17.122c0.002-0.552,0.495-1.29-0.092-1.823
	c-0.488-0.444,0.367-0.177-0.967-0.381c-1.635,0.245-0.861,0.726-1.104,1.273c-0.259,0.584-0.011,0.275-0.953,0.594
	c-1.359,0.458-3.924,0.536-5.385,0.163c-0.087-0.021-0.181-0.057-0.261-0.08l-0.46-0.171c-1.269-0.541-0.479-0.914-0.905-1.674
	l-4.227-0.133l0.365-0.964c0.018-0.025,0.075-0.069,0.087-0.094c0.009-0.022,0.034-0.066,0.034-0.087
	c0.016-0.32-0.225-0.022-0.552-0.611c-0.3-0.536-0.071-1.816-0.071-2.43l0.039-3.675c0.016-1.143,0.894-0.398-0.706-1.163
	c-2.107,0.3-1.25,0.032-1.232,2.085c0.005,0.765,0.025,1.53-0.018,2.293l-2.124,0.238c0.179,2.531,0.818,3.582-7.199,4.705
	c-4.698-0.733-4.066-0.925-6.876-1.805c-0.958-0.3-0.023-2.153-0.295-2.677c-0.165-0.319-0.669-0.275-1.475-0.456
	c-1.597-0.355-3.1-0.318-5.225-0.24l-0.071,2.08l-6.031,0.002l-0.016,5.665l-9.447-0.003l-0.022-2.501
	c-3.706-0.048-2.65,0.026-4.614-0.65c-0.559-0.195-0.996-0.121-1.191-0.381c0-0.595,0.266-1.262-0.417-1.695
	c-0.87-0.547-0.474,0.373-0.889-0.602c-0.117-0.273,0.08-0.63-0.044-0.919c-0.634-1.491-1.141,0.235-1.054-3.392l-0.378,0.235
	c-0.032,0.032-0.114,0.085-0.144,0.126c-0.032,0.042-0.073,0.087-0.1,0.133c-0.078,0.135-0.053,0.431-0.065,0.584l-7.438,0.016
	l-0.069-1.523l-3.938-0.02c0.79,1.037,0.229,2.073,0.27,3.15c0.034,0.9,0.832,0.499-1.26,0.849l0.781,0.222
	c0.497,0.165,0.14-0.025,0.621,0.236c-0.094,0.028-0.231,0.112-0.274,0.082l-0.348,0.454c0.485,0.16,0.133-0.025,0.618,0.229
	c-0.728,0.227,0.468,0.037-1.384,0.305l1.379,0.46l-1.376,0.458c2.284,0.298,0.44,0.007,1.379,0.305
	c-0.518,0.28-0.053,0.055-0.614,0.231l-0.788,0.227c1.926,0.266,0.687,0.089,1.409,0.307c-0.501,0.272-0.069,0.064-0.618,0.236
	l-0.509,0.149c-0.052,0.016-0.19,0.046-0.274,0.073l1.404,0.307l-1.446,0.458c1.908,0.323,0.869-0.098,1.377,0.458
	c-1.739,0.3-1.583,0.795-2.958,1.202c-0.126,0.037-0.708,0.19-0.776,0.216l-2.474,0.831c-0.099,0.014-0.291,0.023-0.426,0.044
	l-1.004,0.003c-1.312-0.259-0.916,0.005-1.901-0.293c-1.297-0.389,0.27-0.048-0.923-0.568c-3.413-0.156-10.888-0.446-13.724-1.065
	l-1.562-0.369c0.383-0.303,0.853-0.261,0.841-0.491l-0.921-0.426l1.461-0.307c-1.399-0.468-0.74,0.066-1.469-0.458
	c1.169-0.685,1.018-0.059,0.005-0.765c0.41-0.252,0.731-0.216,0.657-0.664c-0.005-0.023-0.018-0.071-0.018-0.094l0.016-0.953
	c0.101-0.078,0.706-0.238,0.804-0.274c-1.374-0.191-0.889-0.166-1.452-0.307c1.063-0.46,0.305-0.073,1.459-0.458l-1.092-0.218
	c-0.078-0.016-0.241-0.059-0.362-0.089l0.534-0.179c0.028-0.016,0.16-0.067,0.185-0.087l0.023-0.857
	c0.005-0.018,0.018-0.062,0.018-0.08c-0.002-0.018-0.025-0.064-0.03-0.082c-0.005-0.018-0.055-0.064-0.062-0.084l0.098-0.53
	c0.007-0.02,0.028-0.064,0.028-0.084l-0.16-2.069c0.169-0.414,0.55,0.115,0.197-0.336c-0.012-0.016-0.594-0.259-0.793-0.351
	l0.664-0.169c0.073-0.013,0.726-0.133,0.747-0.135l-1.422-0.458l0.951-0.243c0.88-0.3-0.069,0.243,0.456-0.218
	c-0.614-0.076-0.485-0.065-1.017-0.172c-1.539-0.309,0.334,0.007-0.872-0.199c-0.167,1.345-0.743,3.468-0.03,4.348
	c-0.131,0.025-0.352,0.096-0.423,0.059c-0.272-0.138-2.534,0.653-2.722,0.715l0.644,0.366c0.067,0.016,0.211,0.055,0.317,0.082
	l-0.016,0.763c-0.927,0.534,0.168,0.023-1.479,0.46c1.85,0.456,0.618-0.08,1.471,0.458c-0.104,0.023-0.266,0.103-0.312,0.071
	l-0.334,0.429c0.55,0.176,0.169-0.023,0.669,0.266l-1.468,0.305l1.461,0.458l-0.671,0.513c0.491,0.158,0.19,0,0.678,0.252
	c-0.105,0.027-0.268,0.114-0.316,0.082l-1.132,0.222l0.83,0.625c-0.065,0.014-0.774,0.133-0.816,0.14
	c0.076,0.027,0.218,0.096,0.25,0.071l1.182,0.387c-0.745,0.216,0.044,0.101-1.418,0.307l1.422,0.458l-1.512,0.492
	c2.009,0.113,0.735-0.039,1.508,0.273l-1.18,0.387c-0.044,0.014-0.168,0.046-0.238,0.071c1.37,0.183,0.79,0.129,1.422,0.307
	l-1.441,0.458c2.13,0.357,1.312-0.257,1.251,0.561c-13.119,0.005-2.905,0.36-10.709,0.74c-1.956,0.096-3.775,0.181-5.77,0.25
	l-0.107,3.647l-1.828,0.179c-0.112,0.011-0.27,0.03-0.371,0.041l-0.726,4.061c-0.233,0.619-0.717,0.147-1.91,0.774
	c-0.731,0.387-1.017,0.534-2.478,0.807c-2.048,0.383-3.745,0.827-5.71,1.175c-6.963-0.919-8.006-1.922-9.016-2.277
	c-0.066-0.022-0.176-0.053-0.247-0.073l-1.239-0.252l-0.002-3.977c-0.634-0.433,0.14-0.094-1.159-0.286
	c-0.861-0.128-0.396,0.101-1.75-0.171l-0.034-9.783l-2.613-0.307c-0.339-1.271,0.566-3.667-0.094-4.744
	c-0.277-0.454,0.215-0.3-0.962-0.497c-1.61,0.216-1.219-0.272-1.134,1.572c0.064,1.404-1.001,4.67,0.705,5.658
	c-0.094,0.028-0.272,0.096-0.313,0.071c-0.539-0.353-1.592,0.809-1.077,1.738c0.547,0.992,1.427,0.543-1.049,1.597l-6.196,3.1
	c-0.092-0.034-0.195-0.048-0.229-0.115l-4.089-2.187l-13.925,0.005c-0.41-1.122,0.644-2.545-0.795-3.452
	c-1.475-0.932-0.08-2.054-0.687-3.049c-0.77-0.609,0.247-0.03-1.825-0.46l-0.059-7.44l-2.053,0.004
	c-1.266,0.5,0.08,0.03-0.495,0.419c-0.561,0.381-0.204,0.179-0.779,0.369c-1.132,0.376-1.312-0.373-1.299,0.996
	c-2.472,0.048-2.209-0.156-2.925,0.3l-0.016,6.402l-5.516,0.014c0.018,1.175-1.125,0.839-1.107,2.142
	c0.048,3.299,0.138,2.311-1.399,2.909c-1.533,0.598,1.455,0.552-6.604,0.545l-0.664-0.472c-0.062-0.025-0.165-0.059-0.236-0.087
	c-0.092-0.036-0.433-0.133-0.527-0.171c-0.532-0.218-0.442,0.005-0.747-0.429c-0.053-0.075-0.039-0.51-0.032-0.609l-0.532-0.998
	c-0.82-0.47-0.68-0.096-0.758-1.146c-0.085-1.147-1.175-0.314-1.091-3.525c0.016-0.644,0.497-0.825-0.953-1.01
	c-1.415,0.16-0.52-0.252-0.983,0.415c-0.082,0.119-0.032,0.744-0.022,0.909c0.066,1.23,0.311,2.572-0.188,3.786
	c-0.158,0.382-0.126,0.03-0.135,0.346l0.336,0.818l-13.867,0.018c0.016-0.218,0.312-0.714,0.314-0.726l-0.33-12.983h-3.91
	c-0.415,0.495-1.757,1.887-3.058,2.075c-0.069,0.009-0.227,0.016-0.3,0.023l-0.63,0.02c-1.099,0.101-0.305-0.135-1.15,0.275
	c-1.617,0.788,0.721,0.607-3.44,0.492c1.017,0.603-0.295-0.004,1.498,0.509c-0.53,0.371,0.268-0.007-0.541,0.235l-0.896,0.222
	l1.502,0.25l-1.184,0.444c-0.065,0.016-0.231,0.044-0.337,0.071l1.512,0.252l-1.531,0.514l1.464,0.304l-0.802,0.326
	c-0.071,0.018-0.254,0.053-0.319,0.069c-0.069,0.016-0.24,0.041-0.353,0.064c0.113,0.025,0.309,0.092,0.355,0.064l1.118,0.396
	l-1.12,0.236c-0.066,0.014-0.224,0.046-0.334,0.069c0.11,0.025,0.3,0.096,0.346,0.067l1.104,0.392l-2.325,0.394
	C4.221,303.986,2.245,292.056,1.118,279.882z"/>
<g>
</g>
<g>
</g>
<g>
</g>
<g>
</g>
<g>
</g>
<g>
</g>
<g>
</g>
<g>
</g>
<g>
</g>
<g>
</g>
<g>
</g>
<g>
</g>
<g>
</g>
<g>
</g>
<g>
</g>
</svg>
