<?xml version="1.0" encoding="iso-8859-1"?>
<!-- Generator: Adobe Illustrator 19.0.0, SVG Export Plug-In . SVG Version: 6.00 Build 0)  -->
<svg version="1.1" id="Layer_1" xmlns="http://www.w3.org/2000/svg" xmlns:xlink="http://www.w3.org/1999/xlink" x="0px" y="0px"
	 viewBox="0 0 512 512" style="enable-background:new 0 0 512 512;" xml:space="preserve">
<path style="fill:#B1E9F1;" d="M256.005,0C397.384,0,512,114.616,512,256.005C512,397.384,397.384,512,256.005,512
	C114.616,512,0,397.384,0,256.005C0,114.616,114.616,0,256.005,0z"/>
<path style="fill:#AED489;" d="M492.074,156.822l-5.831,0.41l-35.574-0.596l-17.055,3.819l-12.63-3.819l-26.744,4.991l-5.87,6.163
	l-34.09-13.206l-7.052,3.223l-18.51-7.931l-31.443,21.157l-10.286-3.243l-18.217,15.287l-23.804-7.638l-40.663-38.407l-7.531,4.327
	l-8.811,9.69l-14.984-11.165l-8.82,5.568l-22.026-14.837l-16.644,5.704h-17.103l-30.319,22.964l-8.527-3.819l-17.338,4.698
	l-33.201,16.752l-6.408-0.381c-7.619,23.355-11.975,48.185-12.522,73.952h10.588l13.685-8.83l18.979-12.141l11.038,1.553
	l15.003,13.675l11.917,3.096l15.892-4.415l15.003,8.82l27.369,7.414l46.563-1.895l16.547-28.434l15.228-12.386l20.747,18.754
	l54.29-26.93l45.899,28.034l4.63,10.149l11.702,7.287l7.941,10.373l16.117-15.296l2.862-12.727l13.685-3.975l5.958-11.038
	l14.788-3.751l20.747,14.349l17.65,23.833l26.041-8.83l29.128-18.315l0.488-0.117C507.888,203.493,501.548,179.337,492.074,156.822z
	"/>
<path style="fill:#86B850;" d="M4.913,306.104l1.748-1.055l13.782,8.146l20.444-1.016l28.014,19.213l35.242-1.475l15.57-23.492
	l7.541,4.659l24.38-17.914l8.459,7.609l13.372-5.519l24.38,10.286l18.5,19.086l23.794-6.759l7.931,13.226l13.411-4.21l31.833,15.082
	l34.822-18.354l10.989-1.035l14.984-7.638l4.991-8.518l14.984-7.345l9.69-2.354l14.466,5.9l11.165-9.406l10.569,7.941l25.191-7.375
	l10.579,1.475l27.321,23.199l6.164-4.698l13.646,10.178c5.939-21.636,9.123-44.414,9.123-67.935c0-9.211-0.498-18.305-1.446-27.262
	l-0.488,0.117l-29.128,18.315l-26.041,8.83l-17.65-23.833L416.5,217.822l-14.788,3.751l-5.958,11.038l-13.685,3.975l-2.862,12.727
	L363.09,264.61l-7.941-10.373l-11.702-7.287l-4.63-10.149l-45.899-28.034l-54.29,26.93l-20.747-18.754l-15.228,12.386
	l-16.547,28.434l-46.563,1.895l-27.369-7.414l-15.003-8.82l-15.892,4.415l-11.917-3.096l-15.003-13.675l-11.038-1.553
	l-18.979,12.141l-13.685,8.83H0.068C0.039,252.322,0,254.159,0,256.005C0,273.147,1.7,289.899,4.913,306.104z"/>
<path style="fill:#8B6E62;" d="M452.377,91.769c-16.83,5.89-39.179,25.758-48.741,87.549
	c-8.977,58.001,51.066,58.988,106.782,48.185C504.723,176.143,483.849,129.375,452.377,91.769z"/>
<path style="fill:#5E9234;" d="M127.255,311.086l-7.541-4.659l-15.57,23.492l-35.242,1.475L40.888,312.18l-20.444,1.016
	l-13.782-8.146l-1.748,1.055C28.209,423.504,131.758,512,256.005,512c117.859,0,217.1-79.657,246.872-188.06l-13.646-10.178
	l-6.164,4.698l-27.321-23.199l-10.579-1.475l-25.191,7.375l-10.569-7.941l-11.165,9.406l-14.466-5.9l-9.69,2.354l-14.984,7.345
	l-4.991,8.518l-14.984,7.638l-10.989,1.035l-34.822,18.354l-31.833-15.082l-13.411,4.21l-7.931-13.226l-23.794,6.759l-18.5-19.086
	l-24.38-10.286l-13.372,5.519l-8.459-7.609L127.255,311.086z"/>
<path style="fill:#4E342E;" d="M465.681,109.116c-14.368,6.769-31.784,25.738-39.599,76.218
	c-5.196,33.562,15.658,45.616,44.502,47.286c12.845-0.615,26.461-2.53,39.833-5.118C505.573,183.772,489.72,143.362,465.681,109.116
	z"/>
<path style="fill:#8B6E62;" d="M501.324,182.678c-48.234-2.608-267.736-12.737-251.746,20.249
	c17.963,37.04,140.481,114.284,107.739,222.208c-9.631,31.765-14.281,55.13-16.029,72.301C440.734,462.301,512,367.485,512,256.005
	C512,230.511,508.259,205.906,501.324,182.678z"/>
<g>
	<path style="fill:#5C4036;" d="M324.575,231.4c129.893,79.139,53.215,238.911,53.215,238.911S435.03,318.802,324.575,231.4z"/>
	<path style="fill:#5C4036;" d="M376.042,239.751c102.504,62.455,41.992,188.539,41.992,188.539S463.2,308.732,376.042,239.751z"/>
</g>
<path style="fill:#9F877E;" d="M249.578,202.927c0,0,37.968,29.899,256.034-3.966c-1.25-5.499-2.686-10.93-4.288-16.283
	C453.09,180.07,233.588,169.941,249.578,202.927z"/>
<g>
	<path style="fill:#9BCB64;" d="M415.465,141.858c0.127,0.469-0.293,0.869-0.42,0.977c0.781-0.635,1.153,0.137,1.153,0.137
		c1.153,0.186-0.059,1.094-0.059,1.094c-0.41,0.166-0.684-0.283-0.684-0.283c-1.055,0.518-0.459,0.82-0.459,0.82
		c0.781-0.186,0.313,0.498,0.313,0.498l-0.479,0.068l-0.576,0.313l0.029,0.205l0.44-0.059l0.039,0.332l-0.508,0.234l0.156,0.391
		c0.586,0.84-1.397,1.25-1.397,1.25c-0.313,2.53-2.686,1.621-3.243,1.367c-0.42,0.205-0.879,0.342-1.358,0.41
		c-1.211,0.166-2.354-0.156-3.282-0.801c-0.694,0.137-1.455-0.068-1.455-0.068c-0.811,0.088-0.488-1.094-0.488-1.094
		c-0.635,1.319-1.543,0.176-1.543,0.176c-0.879-0.928,0.176-1.485,0.176-1.485c-0.508-0.576,0.186-1.045,0.186-1.045
		c-1.328-0.244-1.641-0.938-1.7-1.368c-0.567-0.176-1.026-0.361-1.309-0.488c-1.035,0.498-2.168,0.84-3.36,1.006
		c-2.979,0.41-5.841-0.371-8.107-1.983c-1.739,0.352-3.614-0.137-3.614-0.137c-2.002,0.195-1.211-2.725-1.211-2.725
		c-1.074,2.237-2.481,1.602-3.253,0.987c0.147,0.694-1.504,1.035-1.504,1.035c-0.313,2.53-2.676,1.612-3.233,1.368
		c-0.42,0.195-0.879,0.332-1.367,0.4c-1.192,0.176-2.354-0.156-3.272-0.791c-0.703,0.137-1.455-0.068-1.455-0.068
		c-0.811,0.088-0.488-1.104-0.488-1.104c-0.625,1.319-1.553,0.186-1.553,0.186c-0.869-0.938,0.195-1.485,0.195-1.485
		c-0.518-0.586,0.176-1.055,0.176-1.055c-1.983-0.371-1.7-1.719-1.7-1.719c-0.918-1.172-0.02-2.198-0.02-2.198
		c-0.127-0.098-0.215-0.205-0.273-0.303c-1.123,0.098-2.198-0.215-3.057-0.82c-0.694,0.137-1.465-0.068-1.465-0.068
		c-0.811,0.088-0.488-1.104-0.488-1.104c-0.635,1.328-1.553,0.176-1.553,0.176c-0.889-0.938,0.176-1.494,0.176-1.494
		c-0.508-0.576,0.195-1.055,0.195-1.055c-2.002-0.371-1.719-1.729-1.719-1.729c-0.918-1.192-0.01-2.217-0.01-2.217
		c-0.801-0.635-0.068-1.28-0.068-1.28c-0.254-0.791,0.86-0.762,0.86-0.762c-1.114-2.139,0.869-2.374,0.869-2.374
		c0.361-1.026,1.25-0.4,1.25-0.4c0.449-1.143,2.002-0.283,2.002-0.283c-0.459-0.977,1.006-0.987,1.006-0.987
		c0.283-0.156,0.537-0.176,0.762-0.117c-0.01-0.127,0.01-0.205,0.01-0.205c-0.908-1.192-0.02-2.208-0.02-2.208
		c-0.781-0.645-0.049-1.299-0.049-1.299c-0.117-0.332,0.029-0.518,0.225-0.625c-0.879-2.061,0.547-3.673,0.547-3.673
		c-1.67-1.348-0.137-2.706-0.137-2.706c-0.547-1.651,1.807-1.592,1.807-1.592c-2.344-4.474,1.807-4.972,1.807-4.972
		c0.752-2.149,2.618-0.85,2.618-0.85c0.947-2.383,4.21-0.576,4.21-0.576c-0.967-2.051,2.1-2.071,2.1-2.071
		c2.051-1.143,3.487,1.299,3.487,1.299c1.221-1.592,2.237-2.149,3.038-2.188c-0.684-2.217,1.563-2.491,1.563-2.491
		c0.508-1.436,1.748-0.567,1.748-0.567c0.645-1.592,2.823-0.391,2.823-0.391c-0.645-1.368,1.407-1.377,1.407-1.377
		c1.377-0.772,2.335,0.869,2.335,0.869c2.442-3.184,3.624-0.176,3.624-0.176c4.142-2.032,4.816,1.807,4.816,1.807
		c0.84-1.084,1.983,0.02,3.067,1.573c0.723,1.035,0.254,1.963-0.137,2.481c0.713,0.41,1.143,1.143,1.143,1.143
		c3.223-4.21,4.796-0.234,4.796-0.234c5.46-2.686,6.349,2.393,6.349,2.393c1.104-1.436,2.598,0.029,4.044,2.081
		c1.436,2.051-0.694,3.8-0.694,3.8c1.504,1.309-0.781,2.198-0.781,2.198c1.221,1.172,0.01,2.335-0.293,2.598
		c1.446-1.182,2.149,0.254,2.149,0.254c2.129,0.342-0.107,2.041-0.107,2.041c-0.781,0.303-1.27-0.518-1.27-0.518
		c-1.055,0.527-1.231,0.918-1.162,1.182c2.676-0.625,3.145,2.071,3.145,2.071c0.752-0.977,1.788,0.029,2.774,1.426
		c0.977,1.407-0.479,2.608-0.479,2.608c1.035,0.899-0.537,1.504-0.537,1.504c0.85,0.801,0.01,1.592-0.205,1.778
		c0.996-0.811,1.475,0.166,1.475,0.166c1.465,0.244-0.068,1.407-0.068,1.407c-0.537,0.195-0.869-0.361-0.869-0.361
		c-0.391,0.195-0.606,0.371-0.713,0.508c0.987,0.391,1.201,1.582,1.201,1.582c0.596-0.772,1.397,0.02,2.178,1.133
		c0.781,1.104-0.371,2.051-0.371,2.051c0.811,0.703-0.42,1.192-0.42,1.192c0.664,0.625,0.01,1.26-0.166,1.397
		c0.791-0.635,1.162,0.137,1.162,0.137c1.153,0.186-0.049,1.104-0.049,1.104c-0.43,0.166-0.694-0.273-0.694-0.273
		c-1.055,0.518-0.469,0.811-0.469,0.811c0.801-0.176,0.322,0.508,0.322,0.508l-0.479,0.068l-0.586,0.322l0.039,0.186l0.44-0.049
		l0.039,0.332l-0.518,0.244l0.166,0.391c0.596,0.84-1.416,1.26-1.416,1.26c-0.313,2.54-2.696,1.621-3.253,1.367
		c-0.42,0.195-0.879,0.342-1.358,0.41c-1.221,0.166-2.383-0.156-3.311-0.801L415.465,141.858z"/>
	<path style="fill:#4E342E;" d="M392.178,181.955c0,0-0.215-1.221,0.127-5.363l-1.182-13.411c0,0-0.205-4.923,0.43-6.349
		c0,0,9.66-9.367,11.614-9.895c0,0,1.407-12.268,3.165-12.513l-1.758-1.035c0,0-1.563,11.594-2.706,13.362
		c0,0-4.454-16.762-3.761-18.53l-0.654,0.508c0,0,2.09,16.732,1.7,17.885l-2.842,2.94c0,0-0.977,2.96-1.563,1.612
		c0,0-5.45-3.321-2.755-20.815l-2.188-1.416l-1.817,11.516c0,0,1.26-0.01,0.703,2.921c0,0,2.217,6.955,1.875,7.648
		c0,0-0.537,3.311-1.983,2.335l-3.057-7.199c0,0-2.559-10.286-0.83-11.868l-0.664-0.83c0,0-1.143,5.099-0.215,8.83
		c0,0-4.679-5.177-6.124-5.167l0.039,0.928c0,0,0.889-1.836,5.714,5.206c0,0,3.321,9.338,3.438,11.174c0,0-0.391,5.577-0.156,6.632
		c0,0,2.901,14.906-1.885,19.389L392.178,181.955z"/>
</g>
<path style="fill:#747474;" d="M375.514,169.237c7.531,0,13.636,3.731,13.636,8.342c0,4.601-6.105,8.332-13.636,8.332
	s-13.636-3.731-13.636-8.332C361.878,172.969,367.983,169.237,375.514,169.237z"/>
<path style="fill:#606060;" d="M393.809,173.555c5.236,0,9.485,2.588,9.485,5.792s-4.249,5.792-9.485,5.792
	s-9.485-2.588-9.485-5.792S388.574,173.555,393.809,173.555z"/>
<path style="fill:#FFFFFF;" d="M175.577,28.727c2.774,0,5.392,0.654,7.717,1.827c2.51-2.461,5.949-3.976,9.739-3.976
	c6.564,0,12.073,4.542,13.548,10.666c3.282,0.977,5.919,3.458,7.121,6.642c0.391-0.049,0.791-0.059,1.201-0.059
	c6.066,0,10.989,4.913,10.989,10.989c0,6.066-4.923,10.989-10.989,10.989c-1.895,0-3.673-0.479-5.226-1.319
	c-1.338,4.562-5.558,7.902-10.559,7.902c-3.048,0-5.812-1.241-7.805-3.262c-1.993,2.022-4.757,3.262-7.804,3.262
	c-2.901,0-5.548-1.123-7.511-2.969c-2.002,2.198-4.894,3.585-8.107,3.585c-3.008,0-5.734-1.211-7.717-3.165
	c-0.908,0.205-1.856,0.303-2.813,0.303c-7.238,0-13.099-5.861-13.099-13.089c0-7.238,5.861-13.099,13.099-13.099
	c0.391,0,0.781,0.02,1.162,0.059C159.45,35.418,166.737,28.727,175.577,28.727z"/>
<path style="fill:#FFDF81;" d="M385.614,167.538c-4.757-2.1-9.641-4.933-13.616-8.312c-0.127-0.098-0.303,0.068-0.176,0.186
	c4.122,3.878,8.039,7.668,13.274,10.071c2.501,1.153,5.079,2.11,7.795,2.608c2.208,0.42,5.617,1.211,7.599-0.127
	c0.225-0.147,0.244-0.479,0-0.625c-1.074-0.664-2.315-0.615-3.546-0.742c-0.166-0.029-0.332-0.049-0.498-0.068
	c2.295-2.579,1.612-7.453-0.908-9.719c-0.234-0.205-0.547,0-0.488,0.283c0.293,1.768,1.153,3.409,1.104,5.245
	c-0.029,1.436-0.381,2.745-0.987,4.005c-0.742-0.107-1.494-0.254-2.237-0.42C390.43,169.364,387.968,168.583,385.614,167.538z
	 M387.226,177.765c-3.722-1.328-7.551-2.891-10.627-5.441c-3.516-2.921-6.427-6.769-8.342-10.92
	c-0.078-0.186-0.195-0.313-0.332-0.391c-0.205-0.273-0.547-0.41-0.987-0.244c-2.09,0.801-3.77,2.139-5.548,3.468
	c-2.247,1.67-4.503,2.598-7.131,3.507c-2.833,0.967-5.675,1.963-8.605,2.588c-2.481,0.527-4.952,0.576-7.482,0.586
	c-0.156-0.293-0.664-1.465-0.752-1.768c4.356-0.381,8.723-2.061,12.395-4.161c2.735-1.573,5.109-3.487,7.453-5.587
	c1.875-1.67,4.337-3.663,4.776-6.3c0.059-0.4-0.42-0.801-0.752-0.43c-3.604,4.063-7.746,7.853-12.542,10.491
	c-3.79,2.09-8.039,3.194-12.083,4.22c-0.303-0.586-2.032-4.796-4.083-5.968c-0.322-0.186-0.664,0.254-0.4,0.508
	c1.475,1.416,2.442,5.343,3.37,7.824c0.508,1.455,1.319,2.813,1.573,4.376c0.332,2.1-0.557,3.389-1.954,4.845
	c-3.018,3.116-5.431,6.857-5.988,11.243c-0.244,1.944-0.137,3.858-0.078,5.792c0.049,1.446-0.322,2.354-1.416,3.321
	c-1.543,1.377-2.911,2.588-3.692,4.562c-0.586,1.455-0.518,5.05-2.266,5.958c-2.325,1.006-4.835,0.391-5.958-1.739
	c-0.244-0.781-0.508-1.553-0.508-2.393c0-1.651,0.674-2.882,1.416-4.288c0.117-0.234-0.117-0.44-0.342-0.342
	c-1.641,0.752-2.842,2.823-2.93,4.913c-0.01,1.485,0.283,2.667,0.674,3.331c-3.673,2.237-8.596,1.758-7.912-2.442
	c0.303-1.221,1.104-2.022,1.651-3.262c0.088-0.205-0.01-0.557-0.293-0.518c-1.963,0.254-3.194,2.481-3.321,4.327l-0.02,0.557
	c-3.507-1.231-4.776-7.424-1.074-9.016c1.358-0.537,2.501-0.508,3.389-0.322c0.684,0.137,1.348,0.391,2.041,0.352
	c0.225-0.01,0.4-0.254,0.264-0.459c-0.557-0.869-1.661-1.289-2.833-1.446c0.527-0.44,1.055-0.908,1.592-1.348
	c1.455-1.201,3.155-1.778,5.714-2.168c3.722-0.576,6.378-0.059,7.238-0.186c0.352-0.059,0.303-0.508,0.088-0.674
	c-0.508-0.391-1.514-0.781-2.667-1.055c0.869-2.803,0.703-5.929,1.739-8.723c0.772,0.264,1.553,0.361,2.286,0.186
	c0.283-0.078,0.254-0.459,0-0.537c-0.772-0.273-1.514-0.567-2.256-0.908c-3.214-1.377-7.277-5.46-9.152-8.898
	c-0.039-0.068-0.088-0.117-0.147-0.166l0.723-0.244c2.208,1.807,4.562,3.419,5.304,3.37c0.137-0.01,0.273-0.068,0.352-0.186
	c0.059-0.098,0.078-0.215,0.029-0.322c-0.254-0.635-0.527-1.27-0.801-1.885c-0.205-0.479-0.947-2.549-1.104-3.008l-0.127-0.371
	c0.733,0.772,1.592,1.436,2.266,1.954c1.367,1.055,3.253,2.491,5.333,2.491c0.059,0,0.127,0,0.186,0
	c0.195-0.01,0.41-0.127,0.391-0.313c-0.068-0.772-1.7-2.462-2.501-3.321c-0.42-0.449-0.811-0.879-1.172-1.319
	c-1.084-1.358-2.344-2.969-3.419-4.669c-1.358-2.159-2.217-3.878-2.784-5.568c-0.313-0.928-0.508-1.846-0.664-2.803
	c0.264,0.254,0.547,0.498,0.82,0.733c0.713,0.537,3.214,2.647,3.673,2.979c2.725,1.915,6.916,3.302,8.156,3.722
	c0.068,0.02,0.127,0.049,0.195,0.049c0.166,0,0.332-0.098,0.41-0.244c0.068-0.127,0.059-0.283-0.029-0.41
	c-0.586-0.86-1.231-1.67-1.856-2.452c-0.996-1.241-2.012-2.51-2.764-3.985c-0.459-0.889-0.85-1.788-1.231-2.696
	c0.85,0.303,1.719,0.547,2.471,0.762c0.459,0.127,0.86,0.234,1.192,0.342l0.156,0.059c1.524,0.488,3.243,1.055,4.396,2.188
	c1.162,1.153,1.387,2.52,1.641,4.083l0.078,0.469c0.039,0.254,0.244,0.42,0.498,0.42c0.264,0,0.567-0.156,0.567-0.391
	c-0.01-4.396-2.012-7.785-3.712-9.699c-1.475-1.651-2.989-3.36-4.063-5.46c-0.166-0.322-0.313-0.703-0.459-1.123
	c0.928,0.352,1.954,0.547,2.735,0.703l0.361,0.068c2.755,0.547,5.079,1.612,7.795,3.565c0.059,0.049,0.127,0.068,0.195,0.068
	c0.147,0,0.322-0.068,0.342-0.215c0.137-0.977-1.504-5.939-4.786-8.078c-0.488-0.313-0.967-0.645-1.436-0.957
	c-0.928-0.596-1.885-1.221-2.725-1.944c-0.391-0.332-0.752-0.752-1.123-1.201l-0.313-0.361c0.4-0.01,0.791-0.049,1.182-0.088
	l0.352-0.029c1.123-0.059,2.295-0.127,3.438-0.137c0.225-0.01,0.449-0.01,0.684-0.01c1.055,0,2.286,0.059,3.399,0.469
	c1.543,0.557,2.422,1.524,3.292,2.657c0.029,0.039,0.147,0.186,0.186,0.234c0.078,0.107,0.205,0.176,0.352,0.176
	c0.137,0,0.264-0.068,0.342-0.166c0.078-0.098,0.01-0.537,0-0.576c-0.83-3.956-4.181-6.027-7.834-7.98
	c-0.283-0.156-0.586-0.313-0.879-0.469c-1.172-0.615-2.002-0.996-3.468-2.012c-1.455-1.026-2.247-2.628-2.549-2.989
	c1.006,0.42,2.129,0.733,3.253,0.987c2.1,0.488,4.269,0.723,6.369,0.938c0.449,0.049,0.899,0.098,1.358,0.137
	c2.051,0.195,4.171,0.4,6.173,1.035c1.494,0.469,2.559,0.947,3.468,1.563c0.459,0.303,0.889,0.674,1.299,1.035
	c0.176,0.156,0.723,0.635,1.016,0.908c0.283,0.273,0.4,0.293,0.557-0.703c0.41-3.106-2.784-6.613-5.245-8.107
	c-0.107-0.068-0.205-0.117-0.313-0.186c4.708-0.176,6.935,5.783,9.299,8.977c2.735,3.702,7.57,5.284,11.946,5.9
	c5.91,0.83,11.878,0.186,17.787,0.86c2.081,0.234,7.863,0.332,11.76,3.526c3.936,3.223,12.053,8.703,14.583,9.553
	c3.634,1.231,8.4,1.436,11.174-1.709c5.665-6.437,1.993-17.055-2.335-23.062c-0.01-0.02-0.332-0.557-0.645-0.752
	c-2.002-1.231-4.864-1.788-6.232-3.858c-1.104-1.68-1.455-3.722-0.977-5.675c0.518-2.139,1.543-4.083,3.214-5.538
	c1.035-0.918,2.354-1.709,3.292-2.764c-0.498,1.377-1.074,3.35-0.889,4.2c-1.094,1.123-1.866,3.048-1.914,4.796
	c-0.4,2.491,3.331,6.994,3.331,6.994s-1.27-2.491-1.504-3.927c-0.147-0.879-0.43-1.963,0.234-4.649
	c0.4-1.602,1.856-2.471,3.38-2.969c1.241-0.391,3.233-0.801,4.581-1.709c-0.117,1.192,0.176,2.461,0.137,3.702
	c-0.039,1.885-0.908,3.321-2.335,4.444c-3.389,2.676-3.565,5.929-3.565,5.929s1.377-2.364,2.256-3.204
	c1.084-1.035,2.94-1.621,3.878-2.803c0.273-0.352,0.498-0.752,0.674-1.201c0.244-0.205,0.479-0.43,0.723-0.576
	c0.772-0.479,1.612-0.85,2.403-1.328c0.479-0.293,0.957-0.615,1.338-1.006c0.107,5.148-4.444,8.4-5.685,9.504
	c-0.742,0.654-3.839,2.1-3.399,2.51c0.244,0.234,0.557,0.391,0.82,0.606c2.159,1.68,4.024,4.288,5.343,6.603
	c2.178,4.151,2.53,9.299,1.094,13.792c-1.045,3.282-3.038,6.427-6.066,8.215c-4.728,2.774-10.461,1.69-15.599,0.918
	c-0.117-0.576-0.283-1.133-0.527-1.651c-1.143-2.403-4.044-4.503-6.74-4.562c-0.205,0-0.303,0.254-0.156,0.4
	c1.895,1.954,4.757,2.735,5.431,5.704c0.479,2.081,0.879,4.317,1.231,6.525c0.83,3.419,2.54,6.603,6.154,7.424
	c2.266,0.518,4.718,0.215,6.896,1.133c2.549,1.065,2.618,3.585,2.54,6.027c-0.088,2.637-0.127,5.148,0.703,7.697
	c0.86,2.618,2.667,5.607,2.54,8.42c-0.176,3.976-5.441,5.314-7.033,8.664c-0.098,0.195-0.117,0.381-0.107,0.557
	c-0.02,0.088-0.039,0.186-0.039,0.293c0.029,1.465,0.459,2.872,0.527,4.317c0.059,1.651-0.996,2.452-2.481,2.979
	c-2.686,0.947-7.345,1.348-8.098-2.139c-0.342-1.592,0.723-3.282,1.504-4.142c0.107-0.117,0-0.273-0.147-0.254
	c-1.573,0.225-3.653,3.233-3.311,4.943c0.078,0.43,0.283,0.801,0.469,1.153c-1.924,0.811-5.978,1.758-7.072,0.537
	c-0.068-0.42-0.117-0.84-0.078-1.27c0.107-1.465,0.742-2.227,1.748-3.204c0.205-0.195,0.029-0.459-0.195-0.488
	c-1.592-0.205-2.588,1.436-3.634,3.155c-2.755-2.227-1.231-8.322,3.311-6.681c0.694,0.293,1.299,0.703,2.032,0.996
	c0.273,0.117,0.508-0.205,0.449-0.449c-0.273-1.192-1.641-1.875-2.882-2.178c1.28-1.67,3.614-2.471,5.538-3.008
	c2.198-0.615,4.444-1.016,6.72-1.221c0.215-0.02,0.391-0.098,0.537-0.205c0.264-0.039,0.508-0.186,0.684-0.469
	c1.661-2.696,0.899-7.502-1.006-9.553C402.268,182.072,394.435,180.343,387.226,177.765z M349.161,143.812
	c6.535,1.973,13.235,1.797,19.965,2.461c3.116,0.303,6.242,0.557,9.133,1.875c2.54,1.162,4.435,2.696,6.378,4.659
	c0.215,0.225,0.625,0,0.527-0.303c-0.713-2.305-3.311-4.005-5.333-5.079c-2.755-1.455-5.558-2.168-8.645-2.588
	c-7.277-0.977-14.661-0.82-21.968-1.475C348.956,143.333,348.916,143.743,349.161,143.812z M344.521,140.549
	c0.098-1.797-0.889-4.005-3.018-6.75c-1.319-1.719-3.057-3.507-5.841-3.751h-0.049c-0.215,0-0.381,0.147-0.42,0.371
	c-0.039,0.215,0.059,0.469,0.313,0.557c1.748,0.586,3.428,2.168,5.001,4.718c0.352,0.586,0.664,1.221,0.987,1.895
	c0.567,1.201,1.153,2.432,2.071,3.341c0.107,0.107,0.244,0.166,0.391,0.166C344.257,141.096,344.501,140.852,344.521,140.549z
	 M405.306,176.661c-0.068-0.156-0.342-0.049-0.283,0.127c0.498,1.446,1.621,2.383,2.989,3.008c0.625,0.293,1.641,0.684,2.598,0.82
	c0.537,4.229,1.006,8.478,4.591,11.331c0.049,0.049,0.137-0.01,0.098-0.078c-1.7-3.087-3.389-7.687-2.667-11.223
	c0.166-0.82,0.059-1.201-0.322-1.358c-1.016-0.41-2.432-0.088-3.546-0.381C407.445,178.546,405.921,177.999,405.306,176.661z"/>
<g>
	<path style="fill:#FFFFFF;" d="M361.683,199.801c-6.857,1.866-5.167,6.955-5.949,9.152c-0.781,2.198-4.581,2.041-6.173,0.86
		c-2.295-1.69-2.51-4.776-2.217-7.023c-0.088,1.358,0.4,2.725,2.501,4.278c1.592,1.182,4.308,0.381,5.089-1.807
		C355.715,203.063,354.826,201.666,361.683,199.801z"/>
	<path style="fill:#FFFFFF;" d="M347.129,200.895c-2.061,1.69-2.178,7.131-1.241,8.664c-1.446,1.114-4.19,0.987-5.06,0.342
		c-0.85-0.625-1.416-1.299-1.661-1.885c0.215,0.42,0.176-1.524,1.739-0.947c1.016,0.371,2.344,1.377,3.477,0.85
		C343.446,206.384,344.98,202.487,347.129,200.895z"/>
	<path style="fill:#FFFFFF;" d="M334.284,205.202c0.342,0.987,1.074,1.807,2.383,1.954c-0.557-1.661,0.156-2.686,1.114-3.995
		c-0.957,1.309-0.752,3.487-0.205,5.138c-2.803,1.289-3.751-1.367-3.858-3.253c-0.068-1.299-0.029-2.061,0.889-2.882
		C333.718,203.034,334.03,204.46,334.284,205.202z"/>
</g>
<path style="fill:#FFB100;" d="M337.576,208.299c-0.547-1.651-0.752-3.829,0.205-5.138c-0.957,1.309-1.67,2.335-1.114,3.995
	c-1.309-0.147-2.041-0.967-2.383-1.954c-0.254-0.742-0.567-2.168,0.322-3.038c-0.918,0.82-0.957,1.582-0.889,2.882
	C333.825,206.931,334.773,209.588,337.576,208.299z M347.129,200.895c-2.149,1.592-3.682,5.49-2.745,7.023
	c-1.133,0.527-2.461-0.479-3.477-0.85c-1.563-0.576-1.524,1.367-1.739,0.947c0.244,0.586,0.811,1.26,1.661,1.885
	c0.869,0.645,3.614,0.772,5.06-0.342C344.951,208.025,345.068,202.585,347.129,200.895z M345.918,195.103
	c3.214-0.547,9.983-1.67,9.318-5.079c-1.143-5.021-6.212-8.391-6.671-13.607c-3.116,0.576-6.3,0.303-9.416-0.254
	c-0.147,0.918-0.498,1.768-1.084,2.579c-1.162,1.612-2.755,2.833-3.897,4.474c-1.563,2.266-2.667,4.816-3.018,7.551
	c-0.361,2.862,0.899,6.515-1.055,8.967c-1.299,1.631-3.077,2.598-4.054,4.522c-0.908,1.788-1.035,5.558-2.442,6.916
	c-2.286,2.198-6.017,1.514-8.176-0.254c-2.461,1.612-5.509,2.354-9.25,1.192c-0.938-0.293-1.455-0.889-1.729-1.856
	c-3.79-0.244-6.339-5.392-5.997-8.615c0.479-1.983,1.563-3.653,2.911-4.249c2.305-1.006,4.454-2.989,6.437-4.347
	c1.836-1.26,5.333-1.67,8.127-1.68c0.44-1.27,0.488-2.764,0.674-4.054c0.225-1.553,0.488-3.116,1.006-4.591
	c-0.049-0.02-0.078-0.039-0.117-0.059c-3.497-2.12-6.164-4.972-8.371-8.361c-0.987-0.156-6.808,0.918-9.641,2.657
	c-1.387,0.85-2.51,2.071-2.989,3.643c-0.674,2.217,1.709,5.704,2.129,7.023c0.625,1.973,0.801,4.024-0.225,5.919
	c-1.123,2.071-3.575,2.491-3.956,2.598c-0.098,3.419-2.344,5.939-6.115,5.323c-7.404-1.211-7.687-7.971-8.801-9.846
	c-1.563-2.286-2.227-4.913-1.739-7.795c0.625-3.663,2.422-6.955,3.634-10.432c2.471-6.613,9.338-9.367,14.075-13.675
	c-0.996-1.827-2.676-6.476-2.774-9.025c-0.234-0.01-0.459-0.078-0.635-0.195c-0.088,0.488-0.273,0.987-0.537,1.475
	c-0.645,1.182-3.135,3.507-4.816,2.276c-1.143-0.84-1.768-1.602-2.784-3.302c-1.026-1.69-2.501-4.532-1.68-6.535
	c0.117-0.283,0.694-0.567,0.742-0.195c0.371,2.579,1.504,3.087,1.553,3.165c2.94-3.829,0.576-10.227-2.198-13.441
	c-3.175-3.702-7.931-4.532-12.571-4.454c0.078,0.186,0.176,0.361,0.273,0.547c0.215,0.41,0.391,0.84,0.694,1.192
	c0.459,0.518,0.83,0.772,1.221,1.192c0.186,0.205,0.068,0.567-0.234,0.557c-0.967-0.029-1.983-0.84-2.647-1.494
	c-0.86-0.85-1.485-2.002-1.983-3.087c-0.039-0.088-0.068-0.166-0.088-0.244c-0.928-1.084-2.002-2.032-2.999-3.057
	c-0.156,0.059-0.332,0.078-0.527,0.049c-3.673-0.567-2.715-3.712-0.85-5.783c2.364-2.608,6.457-4.659,9.944-4.444
	c0.908,0.059,2.295-1.143,2.891-1.582c1.709-1.25,3.331-1.983,5.216-2.94c1.69-0.86,3.487-1.553,5.304-2.081
	c1.328-0.4,10.08-1.621,12.542-1.68c0.889-0.02,1.778-0.02,2.657-0.01h0.967c0.791,0,1.397-0.01,1.963-0.02
	c1.729-0.059,6.144-1.817,8.605-1.162c0.098,0.029,0.137,0.137,0.137,0.244c-0.02,0.107-0.078,0.195-0.186,0.225
	c-1.407,0.488-2.354,1.026-3.341,1.944c1.192-0.371,2.335-0.625,3.458-0.752c0.322-0.039,0.664-0.059,1.026-0.059
	c1.084,0,2.188,0.176,3.243,0.361c0.205,0.029,0.41,0.068,0.615,0.098c0.459,0.068,0.928,0.137,1.407,0.195
	c1.133,0.147,2.911,0.547,3.868,0.625c0.352,0.029,0.703,0.039,1.035,0.117c0.127,0.029,0.215,0.147,0.215,0.273
	c0,0.137-0.088,0.254-0.215,0.283c-2.295,0.615-4.083,1.895-5.968,3.262c0.156-0.059,0.82-0.488,1.006-0.567
	c0.996-0.42,1.973-0.586,3.126-0.586c3.819,0,7.697,2.266,10.286,3.976c0.498,0.332,1.006,0.664,1.504,1.006
	c1.397,0.947,2.833,1.924,4.337,2.745c0.889,0.488,1.914,0.908,3.106,1.309c0.537,0.166,1.094,0.264,1.641,0.361
	c0.527,0.088,2.325,0.42,2.676,0.479c0.137,0.02,0.234,0.147,0.244,0.293c0,0.147-0.098,0.273-0.234,0.303
	c-0.772,0.156-1.553,0.352-2.383,0.557c-0.4,0.088-0.801,0.186-1.201,0.283c3.135,0.957,5.421,3.985,7.16,6.837
	c1.026,1.69,1.993,3.35,3.595,4.571c2.53,1.914,5.851,2.706,8.928,3.194c6.212,0.987,12.561,0.059,18.774,0.977
	c4.747,0.703,9.358,1.27,13.304,4.884c1.67,1.319,3.311,2.686,5.011,3.966c1.709,1.27,3.468,2.462,5.392,3.419
	c3.331,1.661,7.99,2.452,10.852-0.488c2.159-2.237,2.325-5.919,2.09-8.82c-0.303-3.927-2.823-11.34-4.972-12.405
	c-5.91-0.654-8.049-7.736-7.746-9.963c0.322-2.374,1.26-4.513,2.93-6.193c1.661-1.661,3.985-3.487,6.163-4.347
	c0.068-0.02,0.195-0.117,0.244,0.195c0.156,0.928,0.147,1.807,0.059,2.715c0.322-0.205,0.645-0.41,0.908-0.645
	c1.465-1.289,1.534-2.803,1.338-4.61c-0.186-1.768-0.039-4.493,1.231-6.632c0.098-0.166,0.332-0.234,0.42-0.059
	c0.752,1.621,1.661,3.077,2.852,4.425c1.162,1.319,2.403,2.579,3.272,4.122c0.879,1.553,1.016,3.292,0.654,5.001
	c-0.283,1.338-1.348,3.399-2.803,3.868c-0.02,0.234-0.049,0.479-0.088,0.713l0.147-0.078c1.407-0.781,3.516-1.387,3.946-3.165
	c0.049-0.205,0.352-0.176,0.381,0c1.348,7.228-3.624,13.919-7.131,14.554c7.013,4.64,9.094,13.909,6.623,21.675
	c-1.192,3.731-3.565,7.033-6.906,9.113c-4.767,2.969-10.686,2.11-16.009,1.299c0.225,2.882,0.733,5.812,2.628,8.088
	c1.7,2.041,4.366,1.846,6.759,2.12c2.198,0.264,4.356,0.967,5.743,2.774c1.299,1.69,1.172,4.298,1.104,6.3
	c-0.098,2.969,0.176,5.519,1.201,8.332c0.938,2.569,2.335,5.314,1.993,8.127c-0.498,4.239-5.304,5.294-7.121,8.674
	c0,0.029,0.01,0.059,0.01,0.078c0.039,1.934,0.742,3.829,0.42,5.763c-0.342,2.002-2.53,3.018-4.22,3.624
	c-2.715,0.957-6.193,0.869-8.4-0.889c-2.002,1.182-5.783,1.973-8.283,1.192c-1.328-0.498-1.983-1.358-2.12-1.631
	c-0.049-0.02-0.098-0.029-0.147-0.049c-2.628-1.143-4.474-4.044-3.907-6.945c0.234-1.231,0.879-1.827,1.621-2.725
	c0.733-0.781,1.797-1.153,2.882-1.25c0.02-0.049,0.029-0.098,0.059-0.147c1.153-2.286,3.653-3.429,5.949-4.249
	c2.598-0.928,5.392-1.377,8.127-1.651c1.055-2.061,0.479-4.962-1.016-6.613c-4.601-5.05-13.909-7.658-21.108-10.373
	c-1.846-0.694-5.665-2.032-6.798-2.227c-4.669-0.801-8.986,1.856-10.432,5.792c-1.553,4.249,2.549,8.351,2.95,12.532
	c0.342,3.507-2.002,5.343-5.138,5.997c-1.954,0.4-4.034,0.42-5.656,1.729c-1.934,1.563-2.071,4.249-2.012,6.603
	c0.088,4.229-7.541,3.194-10.51,1.416c-1.455,1.387-3.487,1.846-5.069,1.573c-2.686-0.449-3.761-1.846-4.073-2.178
	c-3.223,1.397-5.9-1.377-6.417-4.542c-0.674-4.073,2.139-6.769,5.939-6.74C338.943,196.04,343.114,195.581,345.918,195.103z
	 M368.257,161.404c1.915,4.151,4.825,8,8.342,10.92c3.077,2.549,6.906,4.112,10.627,5.441c7.209,2.579,15.042,4.308,20.425,10.08
	c1.905,2.051,2.667,6.857,1.006,9.553c-0.176,0.283-0.42,0.43-0.684,0.469c-0.147,0.107-0.322,0.186-0.537,0.205
	c-2.276,0.205-4.522,0.606-6.72,1.221c-1.924,0.537-4.259,1.338-5.538,3.008c1.241,0.303,2.608,0.987,2.882,2.178
	c0.059,0.244-0.176,0.567-0.449,0.449c-0.733-0.293-1.338-0.703-2.032-0.996c-4.542-1.641-6.066,4.454-3.311,6.681
	c1.045-1.719,2.041-3.36,3.634-3.155c0.225,0.029,0.4,0.293,0.195,0.488c-1.006,0.977-1.641,1.739-1.748,3.204
	c-0.039,0.43,0.01,0.85,0.078,1.27c1.094,1.221,5.148,0.273,7.072-0.537c-0.186-0.352-0.391-0.723-0.469-1.153
	c-0.342-1.709,1.739-4.718,3.311-4.943c0.147-0.02,0.254,0.137,0.147,0.254c-0.781,0.86-1.846,2.549-1.504,4.142
	c0.752,3.487,5.411,3.087,8.098,2.139c1.485-0.527,2.54-1.328,2.481-2.979c-0.068-1.446-0.498-2.852-0.527-4.317
	c0-0.107,0.02-0.205,0.039-0.293c-0.01-0.176,0.01-0.361,0.107-0.557c1.592-3.35,6.857-4.689,7.033-8.664
	c0.127-2.813-1.68-5.802-2.54-8.42c-0.83-2.549-0.791-5.06-0.703-7.697c0.078-2.442,0.01-4.962-2.54-6.027
	c-2.178-0.918-4.63-0.615-6.896-1.133c-3.614-0.82-5.323-4.005-6.154-7.424c-0.352-2.208-0.752-4.444-1.231-6.525
	c-0.674-2.969-3.536-3.751-5.431-5.704c-0.147-0.147-0.049-0.4,0.156-0.4c2.696,0.059,5.597,2.159,6.74,4.562
	c0.244,0.518,0.41,1.074,0.527,1.651c5.138,0.772,10.872,1.856,15.599-0.918c3.028-1.788,5.021-4.933,6.066-8.215
	c1.436-4.493,1.084-9.641-1.094-13.792c-1.319-2.315-3.184-4.923-5.343-6.603c-0.264-0.215-0.576-0.371-0.82-0.606
	c-0.44-0.41,2.657-1.856,3.399-2.51c1.241-1.104,5.792-4.356,5.685-9.504c-0.381,0.391-0.86,0.713-1.338,1.006
	c-0.791,0.479-1.631,0.85-2.403,1.328c-0.244,0.147-0.479,0.371-0.723,0.576c-0.176,0.449-0.4,0.85-0.674,1.201
	c-0.938,1.182-2.794,1.768-3.878,2.803c-0.879,0.84-2.256,3.204-2.256,3.204s0.176-3.253,3.565-5.929
	c1.426-1.123,2.295-2.559,2.335-4.444c0.039-1.241-0.254-2.51-0.137-3.702c-1.348,0.908-3.341,1.319-4.581,1.709
	c-1.524,0.498-2.979,1.367-3.38,2.969c-0.664,2.686-0.381,3.77-0.234,4.649c0.234,1.436,1.504,3.927,1.504,3.927
	s-3.731-4.503-3.331-6.994c0.049-1.748,0.82-3.673,1.914-4.796c-0.186-0.85,0.391-2.823,0.889-4.2
	c-0.938,1.055-2.256,1.846-3.292,2.764c-1.67,1.455-2.696,3.399-3.214,5.538c-0.479,1.954-0.127,3.995,0.977,5.675
	c1.367,2.071,4.229,2.628,6.232,3.858c0.313,0.195,0.635,0.733,0.645,0.752c4.327,6.007,8,16.625,2.335,23.062
	c-2.774,3.145-7.541,2.94-11.174,1.709c-2.53-0.85-10.647-6.33-14.583-9.553c-3.897-3.194-9.68-3.292-11.76-3.526
	c-5.91-0.674-11.878-0.029-17.787-0.86c-4.376-0.615-9.211-2.198-11.946-5.9c-2.364-3.194-4.591-9.152-9.299-8.977
	c0.107,0.068,0.205,0.117,0.313,0.186c2.461,1.494,5.656,5.001,5.245,8.107c-0.156,0.996-0.273,0.977-0.557,0.703
	c-0.293-0.273-0.84-0.752-1.016-0.908c-0.41-0.361-0.84-0.733-1.299-1.035c-0.908-0.615-1.973-1.094-3.468-1.563
	c-2.002-0.635-4.122-0.84-6.173-1.035c-0.459-0.039-0.908-0.088-1.358-0.137c-2.1-0.215-4.269-0.449-6.369-0.938
	c-1.123-0.254-2.247-0.567-3.253-0.987c0.303,0.361,1.094,1.963,2.549,2.989c1.465,1.016,2.295,1.397,3.468,2.012
	c0.293,0.156,0.596,0.313,0.879,0.469c3.653,1.954,7.004,4.024,7.834,7.98c0.01,0.039,0.078,0.479,0,0.576
	c-0.078,0.098-0.205,0.166-0.342,0.166c-0.147,0-0.273-0.068-0.352-0.176c-0.039-0.049-0.156-0.195-0.186-0.234
	c-0.869-1.133-1.748-2.1-3.292-2.657c-1.114-0.41-2.344-0.469-3.399-0.469c-0.234,0-0.459,0-0.684,0.01
	c-1.143,0.01-2.315,0.078-3.438,0.137l-0.352,0.029c-0.391,0.039-0.781,0.078-1.182,0.088l0.313,0.361
	c0.371,0.449,0.733,0.869,1.123,1.201c0.84,0.723,1.797,1.348,2.725,1.944c0.469,0.313,0.947,0.645,1.436,0.957
	c3.282,2.139,4.923,7.101,4.786,8.078c-0.02,0.147-0.195,0.215-0.342,0.215c-0.068,0-0.137-0.02-0.195-0.068
	c-2.715-1.954-5.04-3.018-7.795-3.565l-0.361-0.068c-0.781-0.156-1.807-0.352-2.735-0.703c0.147,0.42,0.293,0.801,0.459,1.123
	c1.074,2.1,2.588,3.809,4.063,5.46c1.7,1.914,3.702,5.304,3.712,9.699c0,0.234-0.303,0.391-0.567,0.391
	c-0.254,0-0.459-0.166-0.498-0.42l-0.078-0.469c-0.254-1.563-0.479-2.93-1.641-4.083c-1.153-1.133-2.872-1.7-4.396-2.188
	l-0.156-0.059c-0.332-0.107-0.733-0.215-1.192-0.342c-0.752-0.215-1.621-0.459-2.471-0.762c0.381,0.908,0.772,1.807,1.231,2.696
	c0.752,1.475,1.768,2.745,2.764,3.985c0.625,0.781,1.27,1.592,1.856,2.452c0.088,0.127,0.098,0.283,0.029,0.41
	c-0.078,0.147-0.244,0.244-0.41,0.244c-0.068,0-0.127-0.029-0.195-0.049c-1.241-0.42-5.431-1.807-8.156-3.722
	c-0.459-0.332-2.96-2.442-3.673-2.979c-0.273-0.234-0.557-0.479-0.82-0.733c0.156,0.957,0.352,1.875,0.664,2.803
	c0.567,1.69,1.426,3.409,2.784,5.568c1.074,1.7,2.335,3.311,3.419,4.669c0.361,0.44,0.752,0.869,1.172,1.319
	c0.801,0.86,2.432,2.549,2.501,3.321c0.02,0.186-0.195,0.303-0.391,0.313c-0.059,0-0.127,0-0.186,0
	c-2.081,0-3.966-1.436-5.333-2.491c-0.674-0.518-1.534-1.182-2.266-1.954l0.127,0.371c0.156,0.459,0.899,2.53,1.104,3.008
	c0.273,0.615,0.547,1.25,0.801,1.885c0.049,0.107,0.029,0.225-0.029,0.322c-0.078,0.117-0.215,0.176-0.352,0.186
	c-0.742,0.049-3.096-1.563-5.304-3.37l-0.723,0.244c0.059,0.049,0.107,0.098,0.147,0.166c1.875,3.438,5.939,7.521,9.152,8.898
	c0.742,0.342,1.485,0.635,2.256,0.908c0.254,0.078,0.283,0.459,0,0.537c-0.733,0.176-1.514,0.078-2.286-0.186
	c-1.035,2.794-0.869,5.919-1.739,8.723c1.153,0.273,2.159,0.664,2.667,1.055c0.215,0.166,0.264,0.615-0.088,0.674
	c-0.86,0.127-3.516-0.391-7.238,0.186c-2.559,0.391-4.259,0.967-5.714,2.168c-0.537,0.44-1.065,0.908-1.592,1.348
	c1.172,0.156,2.276,0.576,2.833,1.446c0.137,0.205-0.039,0.449-0.264,0.459c-0.694,0.039-1.358-0.215-2.041-0.352
	c-0.889-0.186-2.032-0.215-3.389,0.322c-3.702,1.592-2.432,7.785,1.074,9.016l0.02-0.557c0.127-1.846,1.358-4.073,3.321-4.327
	c0.283-0.039,0.381,0.313,0.293,0.518c-0.547,1.241-1.348,2.041-1.651,3.262c-0.684,4.2,4.239,4.679,7.912,2.442
	c-0.391-0.664-0.684-1.846-0.674-3.331c0.088-2.09,1.289-4.161,2.93-4.913c0.225-0.098,0.459,0.107,0.342,0.342
	c-0.742,1.407-1.416,2.637-1.416,4.288c0,0.84,0.264,1.612,0.508,2.393c1.123,2.129,3.634,2.745,5.958,1.739
	c1.748-0.908,1.68-4.503,2.266-5.958c0.781-1.973,2.149-3.184,3.692-4.562c1.094-0.967,1.465-1.875,1.416-3.321
	c-0.059-1.934-0.166-3.849,0.078-5.792c0.557-4.386,2.969-8.127,5.988-11.243c1.397-1.455,2.286-2.745,1.954-4.845
	c-0.254-1.563-1.065-2.921-1.573-4.376c-0.928-2.481-1.895-6.408-3.37-7.824c-0.264-0.254,0.078-0.694,0.4-0.508
	c2.051,1.172,3.78,5.382,4.083,5.968c4.044-1.026,8.293-2.129,12.083-4.22c4.796-2.637,8.938-6.427,12.542-10.491
	c0.332-0.371,0.811,0.029,0.752,0.43c-0.44,2.637-2.901,4.63-4.776,6.3c-2.344,2.1-4.718,4.015-7.453,5.587
	c-3.673,2.1-8.039,3.78-12.395,4.161c0.088,0.303,0.596,1.475,0.752,1.768c2.53-0.01,5.001-0.059,7.482-0.586
	c2.93-0.625,5.773-1.621,8.605-2.588c2.628-0.908,4.884-1.836,7.131-3.507c1.778-1.328,3.458-2.667,5.548-3.468
	c0.44-0.166,0.781-0.029,0.987,0.244C368.061,161.091,368.179,161.218,368.257,161.404z M320.805,152.534
	c0.781,0.303,1.592,0.567,2.374,0.82c0.957,0.313,1.934,0.635,2.882,1.026c0.586,0.244,1.172,0.537,1.719,0.908
	c-0.518-0.713-1.084-1.387-1.67-2.041c-0.85-0.342-1.739-0.635-2.589-0.908c-0.791-0.264-1.602-0.518-2.383-0.82
	c-0.606-0.234-1.358-0.547-2.081-0.957c-1.621-0.762-2.022-1.348-2.471-1.475c-0.166-0.039-0.381,0.029-0.508,0.166
	c-0.078,0.088-0.147,0.215-0.107,0.332c0.156,0.479,1.123,1.231,2.745,1.993C319.437,151.987,320.189,152.3,320.805,152.534z
	 M310.412,136.349c0-3.624,4.356-5.714,11.487-4.923c-5.548-1.866-9.621-10.706-10.129-13.177c-0.303-1.504-0.586-2.93-1.006-4.161
	c-0.029-0.049-0.059-0.107-0.078-0.166c-0.01-0.029-0.01-0.059-0.01-0.088c-0.674-1.817-1.709-3.135-3.712-3.487
	c-0.567,0.117-1.182,0.234-1.817,0.352c-2.989,0.527-6.486,0.869-7.707,0.869c-1.68,0-2.549-1.475-2.696-2.823
	c-0.733,0.059-1.397,0.078-1.983,0.078c-1.319,0.205-2.735,0.449-4.474,0.772c-0.645,0.127-1.27,0.254-1.817,0.42
	c-1.856,0.586-3.585,1.494-5.294,2.393c-1.563,0.82-3.096,1.709-4.601,2.647c-1.211,0.762-2.344,1.69-4.347,1.905
	c-2.315,0.107-4.776,1.192-6.652,2.491c-0.733,0.508-1.377,1.192-1.944,1.875c-0.293,0.342-0.547,0.752-0.694,1.162
	c-0.147,0.4,0.186,0.547,0.547,0.606c0.41-0.889,1.524-1.651,2.393-2.12c1.211-0.645,2.266-0.899,3.546-0.654
	c0.186,0.039,0.186,0.342,0,0.381c-1.201,0.225-2.256,1.016-3.135,1.807c-0.303,0.273-0.615,0.674-0.957,1.016
	c1.26,1.309,2.628,2.501,3.741,3.936c5.949-0.205,11.79,1.045,15.541,6.027c3.096,4.112,5.148,11.282,1.162,15.511
	c0.029,0.254,0.059,0.596,0.43,1.387c0.488,0.918,1.514,2.393,2.012,2.471c0.498,0.068,1.524-0.811,2.09-1.602
	c0.42-0.596,0.645-1.289,0.703-1.993c-0.234-0.41-0.908-1.397-0.879-1.856c0.039-0.567,0.371-0.342,1.016,0.283
	c1.045,1.026,2.012,1.475,2.54-0.567c0.322-1.231,0.215-2.628-0.01-3.868c-0.313-1.768-1.133-3.858-2.276-5.49l0.772-0.547
	c1.573,1.465,2.549,3.321,3.135,5.587c0.361,1.416,0.791,4.698-0.283,6.417c-0.371,0.596-0.85,1.006-1.328,1.241
	c0.977,2.491,1.338,5.157,2.725,7.502c0.059,0.098,0.098,0.205,0.107,0.303c0.4,0.674,0.801,1.465,1.153,2.149
	c0.44,0.879,0.938,1.621,1.416,2.325c0.791,1.133,1.836,2.041,2.852,2.911c0.244,0.215,0.498,0.44,0.752,0.664
	c-0.225-0.557-0.391-1.153-0.508-1.758c-0.977-0.85-1.993-1.739-2.755-2.833c-0.488-0.703-0.977-1.446-1.416-2.325
	c-0.352-0.684-0.762-1.475-1.153-2.149c-0.02-0.107-0.049-0.205-0.117-0.303c-1.192-2.022-1.621-4.278-2.344-6.466
	c0.049-0.166,0.098-0.342,0.147-0.518c0.635,0,3.634,7.941,4.933,7.795c-0.049-1.27-2.374-9.416,0.088-10.1
	c1.016,1.954,6.027,7.56,7.13,6.457c-1.7-3.907-2.862-10.071-1.387-11.096c1.7,3.565,4.581,6.564,7.072,6.398
	c-0.772-1.573-1.7-3.731-1.133-5.997c0.83,0.567,3.624,2.208,5.831,1.416C313.244,142.747,310.529,139.748,310.412,136.349z
	 M301.415,109.878c2.208-0.273,3.878-1.104,5.245-1.934c0.068-0.039,0.147-0.098,0.215-0.147c-0.664,0.107-1.338,0.186-2.012,0.234
	c-0.908,0.371-1.934,0.684-3.106,0.83c-1.465,0.176-3.028,0.098-4.112,0.781c-0.166,0.107-0.264,0.332-0.225,0.547
	c0.029,0.127,0.098,0.244,0.205,0.313C298.681,109.995,300.087,110.035,301.415,109.878z M325.767,144.886
	c0.703,0.195,1.426,0.4,2.129,0.645c1.7,0.596,3.116,1.328,4.22,2.159c-0.322-0.703-0.684-1.358-1.172-1.983
	c-0.801-0.44-1.7-0.84-2.706-1.192c-0.703-0.244-1.436-0.449-2.139-0.645c-0.498-0.137-1.026-0.274-1.534-0.449
	c-3.409-1.192-3.888-2.999-4.034-3.497c-0.068-0.205-0.234-0.332-0.43-0.332c-0.147,0-0.273,0.068-0.361,0.176
	c-0.098,0.107-0.137,0.244-0.107,0.391c0.02,0.156,0.225,0.889,0.352,1.162c0.215,0.469,0.83,1.934,4.249,3.116
	C324.731,144.613,325.259,144.749,325.767,144.886z M321.518,135.665c0.645-0.147,3.409-0.332,5.177-0.303
	c1.162,0.02,2.393,0.127,3.292,0.264c0.987,0.147,2.071,0.391,3.087,0.811c-0.85-0.703-1.817-1.289-2.813-1.836
	c-0.899-0.127-2.09-0.234-3.233-0.264c-1.768-0.029-4.522,0.166-5.177,0.313c-1.788,0.41-2.872,1.162-4.142,2.344
	c-0.147,0.137-0.195,0.322-0.127,0.498c0.039,0.078,0.088,0.137,0.156,0.195C318.851,136.691,319.896,136.036,321.518,135.665z
	 M318.568,119.089c0.596,1.719,1.143,4.493,2.295,5.138c1.905,0.899,3.888,1.739,6.115,2.178c1.446,0.293,2.95,0.459,4.396,0.615
	c0.928,0.107,1.885,0.215,2.823,0.352c2.442,0.352,6.437,0.938,9.162,2.823c-0.381-0.674-0.801-1.328-1.289-1.944
	c-2.53-1.172-5.548-1.612-7.531-1.905c-0.938-0.127-1.895-0.244-2.823-0.342c-1.446-0.156-2.95-0.322-4.396-0.615
	c-2.237-0.44-4.21-1.289-6.115-2.188c-1.153-0.635-1.446-3.516-2.295-5.138c-0.156-0.283-0.576-0.273-0.772-0.049
	C318.04,118.132,318.333,118.415,318.568,119.089z M312.18,113.385c2.706,0.029,4.737-2.286,5.49-2.803
	c0.176-0.117,0.342-0.234,0.508-0.342c0.4-0.273,0.811-0.537,1.231-0.781c-0.352-0.029-0.703-0.078-1.055-0.127l-0.342,0.234
	c-0.752,0.518-2.794,2.823-5.49,2.794c-0.039,0-0.225-0.01-0.44-0.02c-0.215-0.01-0.459-0.02-0.596-0.029
	c-0.225,0-0.391,0.117-0.449,0.313c-0.029,0.088-0.029,0.186-0.01,0.273c0.029,0.117,0.098,0.234,0.205,0.293
	c0.078,0.059,0.156,0.107,0.234,0.156l0.273,0.01C311.955,113.365,312.141,113.385,312.18,113.385z M335.994,121.57
	c1.045,0,2.071-0.088,3.135-0.254l0.293-0.039c-0.557-0.225-1.104-0.498-1.641-0.781c-0.488,0.029-0.957,0.049-1.446,0.049
	c-1.367,0-2.764-0.147-4.259-0.44c-0.371-0.098-0.742-0.195-1.123-0.254c-0.244-0.049-0.498,0.078-0.606,0.283
	c-0.088,0.166-0.078,0.352,0.02,0.508c0.01,0.02,0.088,0.195,0.244,0.225c0.381,0.059,0.752,0.156,1.123,0.254
	C333.229,121.414,334.636,121.57,335.994,121.57z M417.574,101.488c-0.088,0.645-0.147,1.289-0.049,2.002
	c0.215,1.592,0.606,3.155,0.44,4.767c-0.098,0.967-0.918,2.53-1.993,3.702l0.088-0.02c0.889-0.234,1.778-0.459,2.628-0.82
	c0.811-0.352,1.465-0.957,2.344-1.143c0.283-0.068,0.391,0.176,0.449,0.449c0.039,0.205,0.293,1.602,0.371,3.36
	c0.635-0.86,0.938-2.002,0.977-3.048c0.059-1.612-0.918-3.096-1.827-4.337C419.909,104.916,418.229,103.314,417.574,101.488z
	 M347.344,202.79c-0.293,2.247-0.078,5.333,2.217,7.023c1.592,1.182,5.392,1.338,6.173-0.86c0.781-2.198-0.908-7.287,5.949-9.152
	c-6.857,1.866-5.968,3.262-6.75,5.46c-0.781,2.188-3.497,2.989-5.089,1.807C347.744,205.515,347.256,204.148,347.344,202.79z
	 M310.04,153.111c3.135,1.387,6.505,4.747,6.974,5.128c1.67,1.319,3.477,2.491,5.333,3.448c-0.606-0.674-1.133-1.407-1.612-2.129
	c-1.172-0.713-2.305-1.485-3.38-2.344c-0.518-0.41-4.474-4.356-7.814-5.45c-0.225-0.068-0.41,0.078-0.479,0.264
	c-0.059,0.176,0.01,0.361,0.156,0.479c0.234,0.176,0.469,0.352,0.694,0.518L310.04,153.111z M314.944,173.799
	c-0.381-0.645-0.742-1.348-1.094-2.12c-0.41-0.332-0.82-0.664-1.201-1.026c-1.455-1.348-2.637-2.667-3.702-3.946
	c-1.641-1.983-3.448-5.411-3.849-6.095c-0.254-0.44-0.518-0.889-0.742-1.338c-0.879-1.797-1.602-3.38-2.208-4.864
	c-0.068-0.166-0.225-0.273-0.4-0.273c-0.127,0-0.254,0.049-0.322,0.147c-0.078,0.098-0.107,0.225-0.078,0.361
	c0.039,0.166,0.352,0.928,0.42,1.084c0.606,1.485,1.367,2.774,2.247,4.562c0.225,0.459,0.498,0.908,0.752,1.338
	c0.4,0.694,2.198,4.112,3.839,6.095c1.065,1.28,2.247,2.598,3.702,3.946c0.674,0.625,1.416,1.192,2.129,1.739
	C314.602,173.535,314.778,173.662,314.944,173.799z M292.41,196.089c-0.381-0.098-0.762-0.225-1.123-0.361
	c-2.325-0.908-4.327-3.555-4.952-5.48c0.537,1.905,1.211,4.298,3.067,5.509c0.957,0.615,1.846,0.635,2.227,0.733
	c0.02,1.143-1.846,1.739-2.911,1.67c-2.09-0.147-6.115-2.061-7.052-4.835c0.938,2.774,3.204,5.021,6.007,5.91
	c1.143,0.361,2.452,0.459,3.526-0.147C292.224,198.502,292.429,197.232,292.41,196.089z M296.786,188.626
	c-0.83-2.715-2.891-5.236-2.413-7.883c-0.479,2.647-0.342,4.259,0.479,6.974c0.567,2.11,0.4,4.132-0.899,4.581
	c-1.856,0.645-2.979,0.254-3.741-0.166c-1.573-0.899-2.1-1.162-3.389-2.383c1.289,1.221,2.295,2.54,3.868,3.438
	c0.752,0.42,2.188,1.006,4.063,0.449C297.196,192.905,297.352,190.736,296.786,188.626z M313.694,164.041
	c-0.01-0.02-0.02-0.029-0.029-0.049c-0.166-0.283-0.342-0.586-0.508-0.889c-0.029,0.039-0.059,0.088-0.068,0.147
	c-0.068,0.254-0.127,0.518-0.176,0.772c0.078-0.049,0.176-0.088,0.273-0.088c0.137,0,0.254,0.059,0.332,0.147l0.029,0.049
	L313.694,164.041z"/>
<g>
	<path style="fill:#FFC928;" d="M405.306,176.661c0.615,1.338,2.139,1.885,3.458,2.247c1.114,0.293,2.53-0.029,3.546,0.381
		c0.381,0.156,0.488,0.537,0.322,1.358c-0.723,3.536,0.967,8.137,2.667,11.223c0.039,0.068-0.049,0.127-0.098,0.078
		c-3.585-2.852-4.054-7.101-4.591-11.331c-0.957-0.137-1.973-0.527-2.598-0.82c-1.367-0.625-2.491-1.563-2.989-3.008
		C404.964,176.612,405.238,176.505,405.306,176.661z"/>
	<path style="fill:#FFC928;" d="M384.637,152.808c-1.944-1.963-3.839-3.497-6.378-4.659c-2.891-1.319-6.017-1.573-9.133-1.875
		c-6.73-0.664-13.431-0.488-19.965-2.461c-0.244-0.068-0.205-0.479,0.059-0.449c7.306,0.654,14.691,0.498,21.968,1.475
		c3.087,0.42,5.89,1.133,8.645,2.588c2.022,1.074,4.62,2.774,5.333,5.079C385.263,152.808,384.852,153.033,384.637,152.808z"/>
</g>
<g>
	<path style="fill:#FF8D00;" d="M335.661,130.049c2.784,0.244,4.522,2.032,5.841,3.751c2.129,2.745,3.116,4.952,3.018,6.75
		c-0.02,0.303-0.264,0.547-0.567,0.547c-0.147,0-0.283-0.059-0.391-0.166c-0.918-0.908-1.504-2.139-2.071-3.341
		c-0.322-0.674-0.635-1.309-0.987-1.895c-1.573-2.549-3.253-4.132-5.001-4.718c-0.254-0.088-0.352-0.342-0.313-0.557
		c0.039-0.225,0.205-0.371,0.42-0.371H335.661z"/>
	<path style="fill:#FF8D00;" d="M335.994,121.57c-1.358,0-2.764-0.156-4.259-0.449c-0.371-0.098-0.742-0.195-1.123-0.254
		c-0.156-0.029-0.234-0.205-0.244-0.225c-0.098-0.156-0.107-0.342-0.02-0.508c0.107-0.205,0.361-0.332,0.606-0.283
		c0.381,0.059,0.752,0.156,1.123,0.254c1.494,0.293,2.891,0.44,4.259,0.44c0.488,0,0.957-0.02,1.446-0.049
		c0.537,0.283,1.084,0.557,1.641,0.781l-0.293,0.039C338.064,121.482,337.039,121.57,335.994,121.57z"/>
	<path style="fill:#FF8D00;" d="M321.205,123.202c1.905,0.899,3.878,1.748,6.115,2.188c1.446,0.293,2.95,0.459,4.396,0.615
		c0.928,0.098,1.885,0.215,2.823,0.342c1.983,0.293,5.001,0.733,7.531,1.905c0.488,0.615,0.908,1.27,1.289,1.944
		c-2.725-1.885-6.72-2.471-9.162-2.823c-0.938-0.137-1.895-0.244-2.823-0.352c-1.446-0.156-2.95-0.322-4.396-0.615
		c-2.227-0.44-4.21-1.28-6.115-2.178c-1.153-0.645-1.7-3.419-2.295-5.138c-0.234-0.674-0.527-0.957-0.43-1.074
		c0.195-0.225,0.615-0.234,0.772,0.049C319.759,119.685,320.053,122.567,321.205,123.202z"/>
	<path style="fill:#FF8D00;" d="M321.85,134.649c0.654-0.147,3.409-0.342,5.177-0.313c1.143,0.029,2.335,0.137,3.233,0.264
		c0.996,0.547,1.963,1.133,2.813,1.836c-1.016-0.42-2.1-0.664-3.087-0.811c-0.899-0.137-2.129-0.244-3.292-0.264
		c-1.768-0.029-4.532,0.156-5.177,0.303c-1.621,0.371-2.667,1.026-3.78,2.022c-0.068-0.059-0.117-0.117-0.156-0.195
		c-0.068-0.176-0.02-0.361,0.127-0.498C318.978,135.812,320.062,135.06,321.85,134.649z"/>
	<path style="fill:#FF8D00;" d="M320.531,139.924c0.147,0.498,0.625,2.305,4.034,3.497c0.508,0.176,1.035,0.313,1.534,0.449
		c0.703,0.195,1.436,0.4,2.139,0.645c1.006,0.352,1.905,0.752,2.706,1.192c0.488,0.625,0.85,1.28,1.172,1.983
		c-1.104-0.83-2.52-1.563-4.22-2.159c-0.703-0.244-1.426-0.449-2.129-0.645c-0.508-0.137-1.035-0.273-1.534-0.449
		c-3.419-1.182-4.034-2.647-4.249-3.116c-0.127-0.273-0.332-1.006-0.352-1.162c-0.029-0.147,0.01-0.283,0.107-0.391
		c0.088-0.107,0.215-0.176,0.361-0.176C320.297,139.592,320.463,139.719,320.531,139.924z"/>
	<path style="fill:#FF8D00;" d="M316.585,149.086c0.449,0.127,0.85,0.713,2.471,1.475c0.723,0.41,1.475,0.723,2.081,0.957
		c0.781,0.303,1.592,0.557,2.383,0.82c0.85,0.273,1.739,0.567,2.589,0.908c0.586,0.654,1.153,1.328,1.67,2.041
		c-0.547-0.371-1.133-0.664-1.719-0.908c-0.947-0.391-1.924-0.713-2.882-1.026c-0.781-0.254-1.592-0.518-2.374-0.82
		c-0.615-0.234-1.367-0.547-2.09-0.957c-1.621-0.762-2.588-1.514-2.745-1.993c-0.039-0.117,0.029-0.244,0.107-0.332
		C316.204,149.116,316.419,149.047,316.585,149.086z"/>
	<path style="fill:#FF8D00;" d="M309.542,151.763c3.341,1.094,7.297,5.04,7.814,5.45c1.074,0.86,2.208,1.631,3.38,2.344
		c0.479,0.723,1.006,1.455,1.612,2.129c-1.856-0.957-3.663-2.129-5.333-3.448c-0.469-0.381-3.839-3.741-6.974-5.128l-0.127-0.088
		c-0.225-0.166-0.459-0.342-0.694-0.518c-0.147-0.117-0.215-0.303-0.156-0.479C309.132,151.841,309.318,151.694,309.542,151.763z"/>
	<path style="fill:#FF8D00;" d="M302.148,154.41c0.606,1.485,1.328,3.067,2.208,4.864c0.225,0.449,0.488,0.899,0.742,1.338
		c0.4,0.684,2.208,4.112,3.849,6.095c1.065,1.28,2.247,2.598,3.702,3.946c0.381,0.361,0.791,0.694,1.201,1.026
		c0.352,0.772,0.713,1.475,1.094,2.12c-0.166-0.137-0.342-0.264-0.508-0.391c-0.713-0.547-1.455-1.114-2.129-1.739
		c-1.455-1.348-2.637-2.667-3.702-3.946c-1.641-1.983-3.438-5.402-3.839-6.095c-0.254-0.43-0.527-0.879-0.752-1.338
		c-0.879-1.788-1.641-3.077-2.247-4.562c-0.068-0.156-0.381-0.918-0.42-1.084c-0.029-0.137,0-0.264,0.078-0.361
		c0.068-0.098,0.195-0.147,0.322-0.147C301.923,154.136,302.08,154.244,302.148,154.41z"/>
</g>
<path style="fill:#FFD34E;" d="M299.442,161.726c0.762,1.094,1.778,1.983,2.755,2.833c0.117,0.606,0.283,1.201,0.508,1.758
	c-0.254-0.225-0.508-0.449-0.752-0.664c-1.016-0.869-2.061-1.778-2.852-2.911c-0.479-0.703-0.977-1.446-1.416-2.325
	c-0.352-0.684-0.752-1.475-1.153-2.149c-0.01-0.098-0.049-0.205-0.107-0.303c-1.387-2.344-1.748-5.011-2.725-7.502
	c0.479-0.234,0.957-0.645,1.328-1.241c1.074-1.719,0.645-5.001,0.283-6.417c-0.586-2.266-1.563-4.122-3.135-5.587
	c0.791,0.166,1.651,0.127,2.374-0.029c3.731-0.752,4.21-6.867,3.712-9.231c-0.645-3.028-2.569-5.089-5.128-6.671
	c-0.166-0.098-0.352,0.137-0.215,0.283c2.501,2.51,3.897,6.29,3.311,9.992c-0.361,2.247-0.781,3.829-2.305,4.308
	c-1.065,0.322-2.237,0.225-3.409,0.098c-0.352-0.098-0.557,0.137-0.352,0.322c0.44,0.42,0.86,0.918,1.241,1.475
	c1.143,1.631,1.963,3.722,2.276,5.49c0.225,1.241,0.332,2.637,0.01,3.868c-0.527,2.041-1.494,1.592-2.54,0.567
	c-0.645-0.625-0.977-0.85-1.016-0.283c-0.029,0.459,0.645,1.446,0.879,1.856c-0.059,0.703-0.283,1.397-0.703,1.993
	c-0.567,0.791-1.592,1.67-2.09,1.602c-0.498-0.078-1.524-1.553-2.012-2.471c-0.371-0.791-0.4-1.133-0.43-1.387
	c3.985-4.229,1.934-11.399-1.162-15.511c-3.751-4.982-9.592-6.232-15.541-6.027c-1.114-1.436-2.481-2.628-3.741-3.936
	c0.342-0.342,0.654-0.742,0.957-1.016c0.879-0.791,1.934-1.582,3.135-1.807c0.186-0.039,0.186-0.342,0-0.381
	c-1.28-0.244-2.335,0.01-3.546,0.654c-0.869,0.469-1.983,1.231-2.393,2.12c-0.361-0.059-0.694-0.205-0.547-0.606
	c0.147-0.41,0.4-0.82,0.694-1.162c0.567-0.684,1.211-1.368,1.944-1.875c1.875-1.299,4.337-2.383,6.652-2.491
	c2.002-0.215,3.135-1.143,4.347-1.905c1.504-0.938,3.038-1.827,4.601-2.647c1.709-0.899,3.438-1.807,5.294-2.393
	c0.547-0.166,1.172-0.293,1.817-0.42c1.739-0.322,3.155-0.567,4.474-0.772c0.586,0,1.25-0.02,1.983-0.078
	c0.147,1.348,1.016,2.823,2.696,2.823c1.221,0,4.718-0.342,7.707-0.869c0.635-0.117,1.25-0.234,1.817-0.352
	c2.002,0.352,3.038,1.67,3.712,3.487c0,0.029,0,0.059,0.01,0.088c0.02,0.059,0.049,0.117,0.078,0.166
	c0.42,1.231,0.703,2.657,1.006,4.161c0.508,2.471,4.581,11.311,10.129,13.177c-7.13-0.791-11.487,1.299-11.487,4.923
	c0.117,3.399,2.833,6.398,6.681,8.488c-2.208,0.791-5.001-0.85-5.831-1.416c-0.567,2.266,0.361,4.425,1.133,5.997
	c-2.491,0.166-5.372-2.833-7.072-6.398c-1.475,1.026-0.313,7.189,1.387,11.096c-1.104,1.104-6.115-4.503-7.13-6.457
	c-2.461,0.684-0.137,8.83-0.088,10.1c-1.299,0.147-4.298-7.795-4.933-7.795c-0.049,0.176-0.098,0.352-0.147,0.518
	c0.723,2.188,1.153,4.444,2.344,6.466c0.068,0.098,0.098,0.195,0.117,0.303c0.391,0.674,0.801,1.465,1.153,2.149
	C298.466,160.28,298.954,161.023,299.442,161.726z M299.433,124.647c1.944,1.534,5.353,0,6.964-1.426
	c1.514-1.358,2.686-3.165,3.253-5.128c0.4-1.358,0.459-2.862,0.107-4.132c-0.527-1.905-1.963-3.292-4.552-2.93
	c-0.225,0.029-0.176,0.342,0,0.41c1.407,0.498,2.833,1.182,3.135,2.803c0.254,1.377-0.088,2.901-0.703,4.151
	c-0.654,1.338-1.563,2.813-2.833,3.653c-0.957,0.635-2.012,1.133-3.145,1.368c-0.762,0.156-1.465,0.186-2.149,0.586
	C299.306,124.13,299.228,124.481,299.433,124.647z M297.743,121.902c1.309,0.86,4.425,0.01,6.886-2.11
	c0.479-0.488,1.026-1.221,1.289-1.856c0.645-1.602,0.186-3.399-1.104-4.532c-1.231-1.084-3.106-0.918-3.634,0.703
	c-0.078,0.225,0.176,0.361,0.361,0.273c1.475-0.645,3.282,0.576,2.784,2.266c-0.02,0.068-0.049,0.147-0.078,0.225
	c-0.43-0.537-1.006-0.977-1.7-1.055c-0.43-0.049-1.211,0.205-1.035,0.801c0.088,0.313,0.449,0.352,0.684,0.488
	c0.332,0.186,0.586,0.44,0.742,0.781c0.078,0.156,0.137,0.313,0.176,0.469c-0.156,0.137-0.332,0.264-0.508,0.381
	c-1.534,0.977-3.624,1.123-4.982,2.276C297.333,121.268,297.46,121.717,297.743,121.902z M275.482,120.994
	c1.602,0.811,3.428-0.488,4.796-1.27c0.928-0.527,1.866-1.045,2.93-1.221c1.309-0.205,2.53,0.088,3.809-0.01
	c0.234-0.01,0.391-0.293,0.205-0.469c-1.543-1.446-4.405-1.651-6.339-0.957c-0.908,0.322-1.768,0.772-2.676,1.123
	c-0.811,0.322-1.631,0.41-2.442,0.674C274.867,119.158,274.534,120.515,275.482,120.994z"/>
<g>
	<path style="fill:#FF8D00;" d="M317.669,110.582c-0.752,0.518-2.784,2.833-5.49,2.803c-0.039,0-0.225-0.02-0.44-0.029l-0.273-0.01
		c-0.078-0.049-0.156-0.098-0.234-0.156c-0.107-0.059-0.176-0.176-0.205-0.293c-0.02-0.088-0.02-0.186,0.01-0.273
		c0.059-0.195,0.225-0.313,0.449-0.313c0.137,0.01,0.381,0.02,0.596,0.029c0.215,0.01,0.4,0.02,0.44,0.02
		c2.696,0.029,4.737-2.276,5.49-2.794l0.342-0.234c0.352,0.049,0.703,0.098,1.055,0.127c-0.42,0.244-0.83,0.508-1.231,0.781
		C318.011,110.347,317.845,110.464,317.669,110.582z"/>
	<path style="fill:#FF8D00;" d="M306.661,107.944c-1.367,0.83-3.038,1.661-5.245,1.934c-1.328,0.156-2.735,0.117-3.79,0.625
		c-0.107-0.068-0.176-0.186-0.205-0.313c-0.039-0.215,0.059-0.44,0.225-0.547c1.084-0.684,2.647-0.606,4.112-0.781
		c1.172-0.147,2.198-0.459,3.106-0.83c0.674-0.049,1.348-0.127,2.012-0.234C306.807,107.847,306.729,107.905,306.661,107.944z"/>
	<path style="fill:#FF8D00;" d="M304.805,122.049c1.27-0.84,2.178-2.315,2.833-3.653c0.615-1.25,0.957-2.774,0.703-4.151
		c-0.303-1.621-1.729-2.305-3.135-2.803c-0.176-0.068-0.225-0.381,0-0.41c2.588-0.361,4.024,1.026,4.552,2.93
		c0.352,1.27,0.293,2.774-0.107,4.132c-0.567,1.963-1.739,3.77-3.253,5.128c-1.612,1.426-5.021,2.96-6.964,1.426
		c-0.205-0.166-0.127-0.518,0.078-0.645c0.684-0.4,1.387-0.43,2.149-0.586C302.793,123.182,303.848,122.684,304.805,122.049z"/>
</g>
<path style="fill:#FF3C00;" d="M287.223,118.025c0.186,0.176,0.029,0.459-0.205,0.469c-1.28,0.098-2.501-0.195-3.809,0.01
	c-1.065,0.176-2.002,0.694-2.93,1.221c-1.367,0.781-3.194,2.081-4.796,1.27c-0.947-0.479-0.615-1.836,0.283-2.129
	c0.811-0.264,1.631-0.352,2.442-0.674c0.908-0.352,1.768-0.801,2.676-1.123C282.818,116.374,285.68,116.579,287.223,118.025z"/>
<path style="fill:#F98B00;" d="M296.229,131.563c0.586-3.702-0.811-7.482-3.311-9.992c-0.137-0.147,0.049-0.381,0.215-0.283
	c2.559,1.582,4.483,3.643,5.128,6.671c0.498,2.364,0.02,8.478-3.712,9.231c-0.723,0.156-1.582,0.195-2.374,0.029l-0.772,0.547
	c-0.381-0.557-0.801-1.055-1.241-1.475c-0.205-0.186,0-0.42,0.352-0.322c1.172,0.127,2.344,0.225,3.409-0.098
	C295.447,135.392,295.867,133.809,296.229,131.563z"/>
<path style="fill:#FF8D00;" d="M304.629,119.793c-2.461,2.12-5.577,2.969-6.886,2.11c-0.283-0.186-0.41-0.635-0.117-0.889
	c1.358-1.153,3.448-1.299,4.982-2.276c0.176-0.117,0.352-0.244,0.508-0.381c-0.039-0.156-0.098-0.313-0.176-0.469
	c-0.156-0.342-0.41-0.596-0.742-0.781c-0.234-0.137-0.596-0.176-0.684-0.488c-0.176-0.596,0.606-0.85,1.035-0.801
	c0.694,0.078,1.27,0.518,1.7,1.055c0.029-0.078,0.059-0.156,0.078-0.225c0.498-1.69-1.309-2.911-2.784-2.266
	c-0.186,0.088-0.44-0.049-0.361-0.273c0.527-1.621,2.403-1.788,3.634-0.703c1.289,1.133,1.748,2.93,1.104,4.532
	C305.655,118.572,305.108,119.304,304.629,119.793z"/>
<path style="fill:#F98B00;" d="M415.973,111.959c1.074-1.172,1.895-2.735,1.993-3.702c0.166-1.612-0.225-3.175-0.44-4.767
	c-0.098-0.713-0.039-1.358,0.049-2.002c0.654,1.827,2.335,3.429,3.429,4.913c0.908,1.241,1.885,2.725,1.827,4.337
	c-0.039,1.045-0.342,2.188-0.977,3.048c-0.078-1.758-0.332-3.155-0.371-3.36c-0.059-0.273-0.166-0.518-0.449-0.449
	c-0.879,0.186-1.534,0.791-2.344,1.143c-0.85,0.361-1.739,0.586-2.628,0.82L415.973,111.959z"/>
<g>
	<path style="fill:#FFFFFF;" d="M296.786,188.626c0.567,2.11,0.41,4.278-2.032,5.011c-1.875,0.557-3.311-0.029-4.063-0.449
		c-1.573-0.899-2.579-2.217-3.868-3.438c1.289,1.221,1.817,1.485,3.389,2.383c0.762,0.42,1.885,0.811,3.741,0.166
		c1.299-0.449,1.465-2.471,0.899-4.581c-0.82-2.715-0.957-4.327-0.479-6.974C293.894,183.391,295.955,185.911,296.786,188.626z"/>
	<path style="fill:#FFFFFF;" d="M292.41,196.089c0.02,1.143-0.186,2.413-1.211,2.999c-1.074,0.606-2.383,0.508-3.526,0.147
		c-2.803-0.889-5.069-3.135-6.007-5.91c0.938,2.774,4.962,4.689,7.052,4.835c1.065,0.068,2.93-0.527,2.911-1.67
		c-0.381-0.098-1.27-0.117-2.227-0.733c-1.856-1.211-2.53-3.604-3.067-5.509c0.625,1.924,2.628,4.571,4.952,5.48
		C291.648,195.864,292.029,195.991,292.41,196.089z"/>
</g>
<path style="fill:#FFC928;" d="M385.096,169.482c2.501,1.153,5.079,2.11,7.795,2.608c2.208,0.42,5.617,1.211,7.599-0.127
	c0.225-0.147,0.244-0.479,0-0.625c-1.074-0.664-2.315-0.615-3.546-0.742c-0.166-0.029-0.332-0.049-0.498-0.068
	c2.295-2.579,1.612-7.453-0.908-9.719c-0.234-0.205-0.547,0-0.488,0.283c0.293,1.768,1.153,3.409,1.104,5.245
	c-0.029,1.436-0.381,2.745-0.987,4.005c-0.742-0.107-1.494-0.254-2.237-0.42c-2.501-0.557-4.962-1.338-7.316-2.383
	c-4.757-2.1-9.641-4.933-13.616-8.312c-0.127-0.098-0.303,0.068-0.176,0.186C375.944,163.289,379.861,167.079,385.096,169.482z"/>
<g>
	<path style="fill:#FFFFFF;" d="M290.632,125.409c-0.391,0.039-0.684,0.371-0.645,0.752c0.039,0.371,0.391,0.645,0.781,0.596
		c0.4-0.039,0.694-0.371,0.654-0.742C291.384,125.634,291.032,125.37,290.632,125.409z"/>
	<path style="fill:#FFFFFF;" d="M288.327,125.888c-0.41,0.039-0.703,0.381-0.664,0.762c0.039,0.391,0.4,0.664,0.801,0.625
		c0.41-0.039,0.713-0.391,0.674-0.772C289.098,126.122,288.737,125.839,288.327,125.888z"/>
	<path style="fill:#FFFFFF;" d="M286.471,126.698c-0.186,0.02-0.322,0.176-0.303,0.352s0.186,0.303,0.371,0.283
		c0.186-0.02,0.322-0.176,0.303-0.352S286.656,126.679,286.471,126.698z"/>
	<path style="fill:#FFFFFF;" d="M293.797,128.857c-0.264,0.029-0.459,0.254-0.44,0.508c0.029,0.254,0.264,0.43,0.537,0.41
		c0.264-0.029,0.459-0.254,0.44-0.508C294.305,129.013,294.07,128.838,293.797,128.857z"/>
	<path style="fill:#FFFFFF;" d="M290.896,129.013c-0.41,0.049-0.713,0.391-0.674,0.781s0.4,0.664,0.82,0.625
		c0.41-0.039,0.713-0.391,0.674-0.781C291.677,129.258,291.306,128.974,290.896,129.013z"/>
	<path style="fill:#FFFFFF;" d="M288.317,129.121c-0.283,0.029-0.488,0.264-0.459,0.527c0.029,0.264,0.273,0.459,0.557,0.43
		c0.283-0.029,0.488-0.264,0.459-0.527S288.6,129.092,288.317,129.121z"/>
	<path style="fill:#FFFFFF;" d="M292.703,133.057c-0.371,0.039-0.635,0.352-0.606,0.703c0.039,0.352,0.371,0.606,0.742,0.567
		c0.371-0.039,0.645-0.361,0.606-0.703C293.406,133.272,293.084,133.018,292.703,133.057z"/>
	<path style="fill:#FFFFFF;" d="M289.987,132.755c-0.322,0.029-0.567,0.303-0.527,0.606c0.029,0.303,0.313,0.527,0.635,0.488
		c0.322-0.029,0.567-0.303,0.527-0.606C290.593,132.94,290.309,132.725,289.987,132.755z"/>
	<path style="fill:#FFFFFF;" d="M287.369,132.041c-0.391,0.039-0.674,0.371-0.635,0.742c0.039,0.361,0.381,0.635,0.781,0.586
		c0.391-0.039,0.674-0.371,0.635-0.733C288.112,132.266,287.77,132.002,287.369,132.041z"/>
	<path style="fill:#FFFFFF;" d="M285.992,129.306c-0.234,0.029-0.4,0.225-0.381,0.44s0.234,0.371,0.459,0.352
		c0.234-0.029,0.4-0.225,0.381-0.44S286.227,129.287,285.992,129.306z"/>
	<path style="fill:#FFFFFF;" d="M285.299,131.563c-0.322,0.029-0.557,0.303-0.527,0.606c0.029,0.303,0.313,0.527,0.635,0.488
		c0.332-0.029,0.567-0.303,0.537-0.606C285.914,131.748,285.621,131.524,285.299,131.563z"/>
	<path style="fill:#FFFFFF;" d="M293.064,125.927c-0.283,0.02-0.488,0.264-0.459,0.527c0.029,0.264,0.273,0.459,0.567,0.43
		c0.273-0.029,0.488-0.264,0.459-0.537C293.601,126.083,293.347,125.897,293.064,125.927z"/>
	<g>
		<path style="fill:#FFFFFF;" d="M289.948,128.672c2.686-0.41,18.49-1.905,21.851,0.332c-5.079-3.194-21.851-0.576-21.899-0.567
			L289.948,128.672z"/>
		<path style="fill:#FFFFFF;" d="M290.143,129.902c1.817-0.059,16.791,0.205,19.497,2.071c-5.245-1.524-19.467-1.836-19.506-1.836
			L290.143,129.902z"/>
		<path style="fill:#FFFFFF;" d="M289.802,131.309c1.631,0.567,12.093,4.347,15.648,3.399c-5.685-0.088-15.492-3.604-15.511-3.614
			L289.802,131.309z"/>
		<path style="fill:#FFFFFF;" d="M289.352,127.46c2.774-0.957,18.276-3.966,24.439-2.579c-8.234-2.305-24.507,2.344-24.547,2.354
			L289.352,127.46z"/>
	</g>
</g>
<path style="fill:#FFFF00;" d="M237.173,26.764c16.312,0,29.538,13.216,29.538,29.538c0,16.312-13.226,29.538-29.538,29.538
	s-29.538-13.226-29.538-29.538C207.635,39.98,220.86,26.764,237.173,26.764z"/>
<path style="fill:#FFFFFF;" d="M293.914,19.829c3.653,0,7.101,0.869,10.159,2.403c3.302-3.233,7.834-5.226,12.825-5.226
	c8.645,0,15.892,5.978,17.836,14.036c4.317,1.299,7.785,4.562,9.367,8.742c0.518-0.059,1.045-0.078,1.582-0.078
	c7.98,0,14.466,6.476,14.466,14.466s-6.486,14.466-14.466,14.466c-2.491,0-4.835-0.625-6.877-1.729
	c-1.758,6.007-7.316,10.403-13.9,10.403c-4.015,0-7.648-1.641-10.276-4.288c-2.618,2.647-6.261,4.288-10.276,4.288
	c-3.819,0-7.297-1.485-9.885-3.907c-2.647,2.891-6.447,4.708-10.676,4.708c-3.966,0-7.551-1.582-10.159-4.161
	c-1.192,0.264-2.442,0.4-3.712,0.4c-9.524,0-17.23-7.717-17.23-17.23c0-9.524,7.707-17.24,17.23-17.24
	c0.518,0,1.035,0.029,1.543,0.078C272.688,28.639,282.271,19.829,293.914,19.829z"/>
<g>
	<path d="M70.113,201.715c0,0,5.792-1.241,10.637-0.313c4.864,0.938,9.924,4.962,15.394,5.275c5.48,0.303,4.337-1.758,4.337-1.758
		s-3.507,0.518-4.444-2.481c-0.928-2.989,2.901-5.372,8.781-9.494c5.89-4.132,7.033-8.264,5.89-10.852c0,0-1.035,1.651-5.89,4.239
		c-4.855,2.579-8.361,7.336-12.18,10.735c-3.829,3.409-4.034,3.614-7.648,2.891C81.376,199.234,73.63,198.101,70.113,201.715z"/>
	<path d="M109.321,203.806c0,0,5.792-1.241,10.637-0.313c4.855,0.928,9.914,4.952,15.394,5.265c5.48,0.313,4.337-1.758,4.337-1.758
		s-3.507,0.527-4.444-2.471c-0.928-2.999,2.891-5.382,8.781-9.504c5.89-4.132,7.023-8.264,5.89-10.852c0,0-1.035,1.651-5.89,4.239
		c-4.855,2.588-8.361,7.336-12.18,10.735c-3.829,3.419-4.034,3.624-7.648,2.901C120.584,201.325,112.838,200.192,109.321,203.806z"
		/>
	<path d="M71.442,229.563c0,0,5.792-1.241,10.637-0.313c4.855,0.928,9.914,4.962,15.394,5.265c5.48,0.313,4.337-1.758,4.337-1.758
		s-3.516,0.527-4.444-2.471c-0.928-2.999,2.891-5.382,8.781-9.504c5.89-4.132,7.023-8.264,5.89-10.852c0,0-1.035,1.661-5.89,4.239
		c-4.855,2.588-8.361,7.336-12.18,10.735c-3.829,3.419-4.034,3.624-7.648,2.901C82.704,227.082,74.958,225.949,71.442,229.563z"/>
	<path d="M128.261,220.47c0,0,5.792-1.241,10.637-0.313c4.855,0.928,9.914,4.962,15.394,5.275c5.47,0.303,4.337-1.758,4.337-1.758
		s-3.516,0.518-4.444-2.481c-0.928-2.999,2.891-5.372,8.781-9.504s7.023-8.264,5.89-10.852c0,0-1.035,1.661-5.89,4.239
		c-4.855,2.588-8.361,7.336-12.18,10.745c-3.829,3.409-4.034,3.614-7.648,2.891C139.524,217.989,131.778,216.855,128.261,220.47z"/>
	<path d="M90.382,246.227c0,0,5.792-1.241,10.637-0.313c4.855,0.928,9.914,4.962,15.394,5.275c5.47,0.303,4.337-1.758,4.337-1.758
		s-3.516,0.518-4.444-2.481c-0.928-2.999,2.891-5.372,8.781-9.504c5.89-4.132,7.023-8.264,5.89-10.852c0,0-1.035,1.661-5.89,4.239
		c-4.855,2.588-8.361,7.336-12.19,10.745c-3.819,3.409-4.024,3.614-7.638,2.891C101.644,243.746,93.888,242.613,90.382,246.227z"/>
	<path d="M60.385,278.481c0,0,5.783-1.241,10.637-0.313c4.855,0.928,9.914,4.962,15.394,5.275c5.47,0.303,4.337-1.758,4.337-1.758
		s-3.516,0.518-4.444-2.481c-0.928-2.999,2.891-5.372,8.781-9.504c5.89-4.132,7.023-8.264,5.89-10.842c0,0-1.035,1.651-5.89,4.229
		c-4.855,2.588-8.371,7.345-12.19,10.745c-3.819,3.409-4.024,3.614-7.638,2.891C71.647,276,63.891,274.867,60.385,278.481z"/>
	<path d="M171.367,194.321c0,0,5.792-1.241,10.647-0.313c4.855,0.928,9.914,4.952,15.394,5.265c5.47,0.313,4.337-1.758,4.337-1.758
		s-3.516,0.518-4.444-2.471c-0.928-2.999,2.891-5.382,8.781-9.504c5.89-4.132,7.023-8.264,5.89-10.852c0,0-1.035,1.651-5.89,4.239
		c-4.855,2.579-8.371,7.336-12.19,10.735c-3.819,3.419-4.034,3.624-7.648,2.901C182.639,191.84,174.883,190.707,171.367,194.321z"/>
</g>
<g>
</g>
<g>
</g>
<g>
</g>
<g>
</g>
<g>
</g>
<g>
</g>
<g>
</g>
<g>
</g>
<g>
</g>
<g>
</g>
<g>
</g>
<g>
</g>
<g>
</g>
<g>
</g>
<g>
</g>
</svg>
