<?xml version="1.0" encoding="iso-8859-1"?>
<!-- Generator: Adobe Illustrator 19.0.0, SVG Export Plug-In . SVG Version: 6.00 Build 0)  -->
<svg version="1.1" id="Layer_1" xmlns="http://www.w3.org/2000/svg" xmlns:xlink="http://www.w3.org/1999/xlink" x="0px" y="0px"
	 viewBox="0 0 512 512" style="enable-background:new 0 0 512 512;" xml:space="preserve">
<g>
	<path style="fill:#80E2F2;" d="M256,0c141.385,0,256,114.615,256,256S397.385,512,256,512S0,397.385,0,256S114.615,0,256,0z"/>
	<path style="fill:#7CB142;" d="M202.183,260.206l-13.239-9.156l-7.526-3.478l-4.071-1.883
		c85.932-49.09,211.093-80.565,310.034-99.329C503.16,179.594,512,216.765,512,256c0,5.379-0.188,10.711-0.516,16.013
		c-95.369-9.743-187.466-13.485-283.533-12.664L202.183,260.206z"/>
	<path style="fill:#9BCB64;" d="M511.63,269.743c-18.184,1.068-33.381-1.185-53.952-3.467c-17.046-1.895-34.32,6.423-51.36,4.47
		c-14.183-1.631-27.774-9.18-41.939-7.426c-11.186,1.378-21.163,8.458-32.402,9.25c-13.79,0.968-26.659-7.649-40.473-7.96
		c-17.046-0.381-32.144,11.796-49.148,13.039c-13.978,1.026-27.721-5.467-41.693-4.335c-11.18,0.903-21.41,6.599-32.419,8.746
		c-18.447,3.607-37.264-2.945-56.058-3.49c-16.67-0.487-40.977,9.69-57.636,10.564c-19.58,1.026-35.992-6.071-52.896-4.077
		C16.084,412.759,124.44,512,256,512C392.769,512,504.486,404.735,511.63,269.743z"/>
	<path style="fill:#ADD37F;" d="M489.781,360.438c-42.027-8.329-84.178-23.944-126.663-20.712
		c-31.358,2.393-61.196,14.987-92.501,18.019c-66.071,6.405-131.907-30.144-197.197-18.142
		c-17.685,3.25-35.716,10.013-53.606,15.292C58.498,447.173,149.674,512,256,512C360.185,512,449.824,449.76,489.781,360.438z"/>
	<path style="fill:#9BCB64;" d="M412.372,438.351c0,0-73.027,0.798-174.292-31.334c-46.368-14.711-93.698-28.519-142.3-26.19
		c-19.761,0.944-39.429,3.713-58.926,7.573C81.708,462.482,163.071,512,256,512c58.891,0,113.119-19.896,156.372-53.319V438.351z"/>
	<path style="fill:#ADD37F;" d="M417.012,455.009c-50.779-6.476-101.704-14.77-151.24-21.034
		c-35.962-4.552-72.529-7.696-108.362-2.194c-23.228,3.566-45.67,10.687-67.795,18.764C134.364,488.848,192.475,512,256,512
		C317.014,512,373.031,490.643,417.012,455.009z"/>
	<path style="fill:#9BCB64;" d="M9.467,186.821l6.74,1.701c7.373,1.924,14.693,3.631,22.067,5.672l22.137,6.722l11.039,3.373
		l10.875,3.731l21.762,7.502l21.415,8.241l10.746,4.129l10.564,4.493l21.157,8.957l9.379,4.346l4.071,1.883l7.526,3.478
		l21.756,8.869l-16.107,0.54l33.358-1.109l33.299-0.287l16.699-0.147l16.658,0.252l33.329,0.481l21.48,0.792l12.007,0.44
		l16.418,0.604l16.606,0.968l33.2,2.018l33.047,2.686c11.027,0.821,22.008,1.918,32.977,3.056
		c5.924,0.628,11.878,1.202,17.814,1.801c-1.601,25.973-7.074,50.89-15.855,74.194l-1.073-0.229
		c-14.488-3.156-29.299-5.807-44.033-8.746c-14.858-2.622-29.786-5.209-44.778-7.637c-61.366-9.162-117.266-14.488-178.433-19.327
		c-28.648-2.03-56.398-3.918-82.764-5.267c-26.36-1.414-51.348-2.264-74.447-2.968c-23.116-0.581-44.338-0.962-63.161-1.073
		l-3.003-0.012C1.355,286.355,0,271.333,0,256C0,232.027,3.308,208.823,9.467,186.821z"/>
</g>
<path style="fill:#FFFFFF;" d="M142.869,38.256c4.552,0,8.845,1.085,12.646,3.003c4.124-4.036,9.755-6.517,15.978-6.517
	c10.763,0,19.797,7.449,22.207,17.48c5.385,1.619,9.702,5.678,11.673,10.892c0.645-0.065,1.302-0.1,1.971-0.1
	c9.948,0,18.013,8.065,18.013,18.019c0,9.948-8.065,18.019-18.013,18.019c-3.109,0-6.024-0.78-8.57-2.159
	c-2.188,7.485-9.098,12.951-17.298,12.951c-5.003,0-9.538-2.041-12.805-5.338c-3.261,3.296-7.795,5.338-12.805,5.338
	c-4.757,0-9.08-1.842-12.306-4.857c-3.296,3.602-8.03,5.866-13.303,5.866c-4.927,0-9.391-1.977-12.646-5.185
	c-1.484,0.328-3.033,0.499-4.616,0.499c-11.86,0-21.468-9.608-21.468-21.468c0-11.854,9.608-21.462,21.468-21.462
	c0.645,0,1.285,0.029,1.918,0.088C116.439,49.23,128.37,38.256,142.869,38.256z"/>
<path style="fill:#FFFF00;" d="M225.997,6.464c24.976,0,45.224,20.248,45.224,45.224c0,24.982-20.248,45.224-45.224,45.224
	c-24.982,0-45.224-20.242-45.224-45.224C180.773,26.712,201.015,6.464,225.997,6.464z"/>
<path style="fill:#FFFFFF;" d="M295.628,22.254c4.956,0,9.631,1.179,13.778,3.267c4.481-4.393,10.623-7.097,17.397-7.097
	c11.725,0,21.562,8.118,24.19,19.04c5.86,1.766,10.564,6.188,12.711,11.866c0.704-0.076,1.419-0.111,2.147-0.111
	c10.834,0,19.621,8.787,19.621,19.626s-8.787,19.626-19.621,19.626c-3.384,0-6.558-0.851-9.332-2.346
	c-2.381,8.147-9.913,14.107-18.84,14.107c-5.455,0-10.388-2.223-13.948-5.819c-3.555,3.596-8.488,5.819-13.943,5.819
	c-5.185,0-9.895-2.012-13.409-5.291c-3.59,3.924-8.752,6.382-14.482,6.382c-5.373,0-10.23-2.153-13.778-5.643
	c-1.619,0.358-3.302,0.546-5.033,0.546c-12.916,0-23.38-10.47-23.38-23.386c0-12.91,10.464-23.38,23.38-23.38
	c0.704,0,1.402,0.035,2.094,0.1C266.834,34.203,279.838,22.254,295.628,22.254z"/>
<path style="fill:#DFDFDF;" d="M266.153,131.531c79.913,0,144.694,64.786,144.694,144.694c0,79.913-64.78,144.699-144.694,144.699
	S121.46,356.138,121.46,276.225C121.46,196.317,186.24,131.531,266.153,131.531z"/>
<path style="fill:#BBBBBB;" d="M266.153,155.903c66.452,0,120.328,53.87,120.328,120.322c0,66.458-53.876,120.328-120.328,120.328
	s-120.328-53.87-120.328-120.328C145.826,209.773,199.702,155.903,266.153,155.903z"/>
<path style="fill:#747474;" d="M266.153,164.725c61.583,0,111.506,49.922,111.506,111.5c0,61.583-49.922,111.506-111.506,111.506
	s-111.506-49.922-111.506-111.506C154.648,214.647,204.57,164.725,266.153,164.725z"/>
<polygon style="fill:#FFFFFF;" points="233.945,189.812 242.175,187.607 247.102,205.99 238.872,208.195 "/>
<polygon style="fill:#B3B3B3;" points="257.408,184.422 265.931,184.422 265.931,203.45 257.408,203.45 "/>
<g>
	<polygon style="fill:#FFFFFF;" points="281.469,185.284 289.698,187.489 284.771,205.872 276.541,203.667 	"/>
	<polygon style="fill:#FFFFFF;" points="179.741,308.439 177.535,300.203 195.918,295.276 198.124,303.512 	"/>
</g>
<polygon style="fill:#B3B3B3;" points="174.35,284.976 174.35,276.448 193.378,276.448 193.378,284.976 "/>
<g>
	<polygon style="fill:#FFFFFF;" points="175.213,260.915 177.418,252.68 195.801,257.607 193.595,265.843 	"/>
	<polygon style="fill:#FFFFFF;" points="298.362,362.643 290.132,364.849 285.205,346.466 293.435,344.26 	"/>
</g>
<polygon style="fill:#B3B3B3;" points="274.899,368.034 266.376,368.034 266.376,349.006 274.899,349.006 "/>
<g>
	<polygon style="fill:#FFFFFF;" points="250.838,367.171 242.609,364.96 247.536,346.583 255.765,348.789 	"/>
	<polygon style="fill:#FFFFFF;" points="352.566,244.016 354.772,252.252 336.389,257.179 334.183,248.944 	"/>
</g>
<polygon style="fill:#B3B3B3;" points="357.957,267.479 357.957,276.008 338.928,276.008 338.928,267.479 "/>
<g>
	<polygon style="fill:#FFFFFF;" points="357.094,291.54 354.889,299.775 336.506,294.848 338.711,286.613 	"/>
	<path style="fill:#FFFFFF;" d="M286.56,296.203l-20.037,44.192l-20.483-44.057l-44.051-20.477l44.186-20.037l20.348-43.764
		l19.902,43.893l43.893,19.908L286.56,296.203z M286.132,256.246c11.039,11.039,11.039,28.923,0,39.963
		c-11.033,11.033-28.923,11.033-39.957,0c-11.039-11.039-11.039-28.923,0-39.963C257.208,245.213,275.099,245.213,286.132,256.246z"
		/>
</g>
<g>
	<path style="fill:#B1E3FB;" d="M286.695,197.42c0,11.344-9.197,20.541-20.541,20.541s-20.541-9.197-20.541-20.541
		s9.197-20.541,20.541-20.541S286.695,186.076,286.695,197.42z"/>
	<path style="fill:#B1E3FB;" d="M344.964,296.772c-11.35,0-20.541-9.197-20.541-20.547c0-11.344,9.191-20.541,20.541-20.541
		c11.338,0,20.536,9.197,20.536,20.541C365.5,287.575,356.302,296.772,344.964,296.772z"/>
	<path style="fill:#B1E3FB;" d="M245.612,355.035c0-11.344,9.197-20.541,20.541-20.541s20.541,9.197,20.541,20.541
		s-9.197,20.541-20.541,20.541S245.612,366.38,245.612,355.035z"/>
	<path style="fill:#B1E3FB;" d="M187.343,255.683c11.35,0,20.541,9.197,20.541,20.541c0,11.35-9.191,20.547-20.541,20.547
		c-11.338,0-20.536-9.197-20.536-20.547C166.807,264.881,176.004,255.683,187.343,255.683z"/>
</g>
<g>
	<polygon style="fill:#424242;" points="257.132,208.776 257.132,186.064 261.584,186.064 270.922,201.285 270.922,186.064 
		275.175,186.064 275.175,208.776 270.582,208.776 261.379,193.848 261.379,208.776 	"/>
	<polygon style="fill:#424242;" points="336.336,287.581 336.336,264.875 353.141,264.875 353.141,268.711 340.929,268.711 
		340.929,273.755 352.284,273.755 352.284,277.591 340.929,277.591 340.929,283.744 353.587,283.744 353.587,287.581 	"/>
	<path style="fill:#424242;" d="M256.927,359.036l4.47-0.446c0.27,1.496,0.809,2.587,1.625,3.291
		c0.821,0.704,1.924,1.056,3.314,1.056c1.472,0,2.581-0.317,3.326-0.938c0.745-0.622,1.12-1.355,1.12-2.188
		c0-0.54-0.158-0.997-0.469-1.373s-0.862-0.704-1.642-0.98c-0.534-0.194-1.754-0.516-3.654-0.991
		c-2.446-0.616-4.165-1.367-5.15-2.258c-1.39-1.255-2.088-2.78-2.088-4.581c0-1.161,0.328-2.247,0.98-3.261
		c0.657-1.009,1.595-1.771,2.827-2.299c1.232-0.534,2.716-0.798,4.458-0.798c2.839,0,4.98,0.633,6.411,1.895
		c1.437,1.267,2.188,2.945,2.264,5.05l-4.599,0.158c-0.199-1.173-0.616-2.012-1.255-2.522c-0.639-0.516-1.601-0.774-2.88-0.774
		c-1.32,0-2.358,0.276-3.103,0.827c-0.481,0.352-0.721,0.821-0.721,1.414c0,0.54,0.223,1.003,0.68,1.378
		c0.575,0.493,1.977,1.003,4.2,1.531c2.229,0.522,3.871,1.073,4.933,1.631c1.068,0.569,1.9,1.331,2.505,2.311
		c0.604,0.98,0.903,2.182,0.903,3.619c0,1.296-0.358,2.516-1.085,3.654c-0.721,1.138-1.742,1.983-3.062,2.534
		c-1.326,0.551-2.974,0.827-4.945,0.827c-2.868,0-5.074-0.657-6.611-1.988C258.141,363.494,257.226,361.564,256.927,359.036z"/>
	<polygon style="fill:#424242;" points="177.811,287.581 172.473,264.875 177.195,264.875 180.574,280.471 184.715,264.875 
		190.182,264.875 194.147,280.735 197.602,264.875 202.218,264.875 196.745,287.581 191.836,287.581 187.36,270.605 182.85,287.581 
			"/>
</g>
<g>
	<path style="fill:#FFFFFF;" d="M244.656,112.315h42.995c6.863,0,12.47,5.608,12.47,12.47l0,0c0,3.918-1.824,7.426-4.669,9.714
		c-6.012-1.232-12.154-2.094-18.406-2.563h10.605c3.93,0,7.15-3.214,7.15-7.15l0,0c0-3.93-3.22-7.15-7.15-7.15h-42.995
		c-3.93,0-7.15,3.22-7.15,7.15l0,0c0,3.936,3.22,7.15,7.15,7.15h10.605c-6.253,0.469-12.4,1.331-18.406,2.563
		c-2.845-2.288-4.669-5.795-4.669-9.714l0,0C232.186,117.923,237.793,112.315,244.656,112.315z"/>
	<polygon style="fill:#FFFFFF;" points="324.886,205.127 330.91,211.151 317.454,224.613 311.43,218.583 	"/>
	<polygon style="fill:#FFFFFF;" points="207.421,347.328 201.397,341.304 214.853,327.842 220.877,333.872 	"/>
</g>
<polygon style="fill:#FF8964;" points="258.587,268.658 273.72,283.797 337.591,205.25 "/>
<polygon style="fill:#ADD37F;" points="258.587,268.658 273.72,283.797 195.179,347.662 "/>
<g>
	<path style="fill:#FFFFFF;" d="M276.236,266.142c5.572,5.572,5.572,14.6,0,20.172c-5.566,5.566-14.6,5.566-20.166,0
		c-5.572-5.572-5.572-14.6,0-20.172C261.637,260.575,270.67,260.575,276.236,266.142z"/>
	<polygon style="fill:#FFFFFF;" points="304.479,192.346 311.864,196.61 302.35,213.093 294.965,208.829 	"/>
	<polygon style="fill:#FFFFFF;" points="341.286,222.748 345.551,230.133 329.068,239.647 324.804,232.262 	"/>
	<polygon style="fill:#FFFFFF;" points="350.032,314.557 345.768,321.936 329.291,312.422 333.55,305.037 	"/>
	<polygon style="fill:#FFFFFF;" points="337.257,334.957 331.227,340.987 317.771,327.526 323.801,321.502 	"/>
	<polygon style="fill:#FFFFFF;" points="319.63,351.358 312.251,355.622 302.737,339.14 310.116,334.881 	"/>
	<polygon style="fill:#FFFFFF;" points="227.827,360.109 220.442,355.845 229.957,339.362 237.341,343.627 	"/>
	<polygon style="fill:#FFFFFF;" points="191.02,329.702 186.756,322.323 203.239,312.809 207.503,320.188 	"/>
	<polygon style="fill:#FFFFFF;" points="182.275,237.899 186.539,230.52 203.016,240.034 198.757,247.419 	"/>
	<polygon style="fill:#FFFFFF;" points="195.05,217.498 201.08,211.468 214.536,224.924 208.506,230.954 	"/>
	<polygon style="fill:#FFFFFF;" points="212.676,201.098 220.055,196.833 229.569,213.316 222.19,217.574 	"/>
</g>
<g>
</g>
<g>
</g>
<g>
</g>
<g>
</g>
<g>
</g>
<g>
</g>
<g>
</g>
<g>
</g>
<g>
</g>
<g>
</g>
<g>
</g>
<g>
</g>
<g>
</g>
<g>
</g>
<g>
</g>
</svg>
