<?xml version="1.0" encoding="iso-8859-1"?>
<!-- Generator: Adobe Illustrator 19.0.0, SVG Export Plug-In . SVG Version: 6.00 Build 0)  -->
<svg version="1.1" id="Layer_1" xmlns="http://www.w3.org/2000/svg" xmlns:xlink="http://www.w3.org/1999/xlink" x="0px" y="0px"
	 viewBox="0 0 512 512" style="enable-background:new 0 0 512 512;" xml:space="preserve">
<path style="fill:#FFEBB1;" d="M256,0c141.386,0,256,114.614,256,256c0,141.386-114.614,256-256,256C114.614,512,0,397.386,0,256
	C0,114.614,114.614,0,256,0z"/>
<path style="fill:#FFF7DF;" d="M487.506,365.377l-463.01,0.009C65.516,452.05,153.751,512,256,512
	C358.253,512,446.486,452.045,487.506,365.377z"/>
<path style="fill:#FFFFFF;" d="M147.28,84.1c26.157,0,47.361,21.205,47.361,47.361c0,26.157-21.204,47.361-47.361,47.361
	s-47.361-21.205-47.361-47.361C99.919,105.305,121.124,84.1,147.28,84.1z"/>
<g>
	<path style="fill:#FF9F00;" d="M496.595,168.342c-2.825,2.765-6.62,7.074-10.791,6.592c-5.315-0.614-13.696-8.177-23.506-10.628
		c-9.814-2.453-15.535-8.382-17.988-8.177c-2.451,0.204-16.557-0.204-19.214-1.432c-2.657-1.226-4.905,5.317-10.219,6.338
		c-5.314,1.022-14.307,6.336-20.238,6.132c-5.925-0.206-25.343-2.861-28.001-2.249c-2.659,0.614-8.585,10.221-15.331,9.403
		c-6.744-0.818-17.168-13.693-21.257-14.513c-4.089-0.818-5.518-9.197-9.403-8.993c-3.882,0.204-8.175-3.475-12.878,1.022
		c-4.701,4.497-15.329,5.52-21.869,6.746c-6.542,1.225-12.264,4.496-20.442,16.352c-8.175,11.854-11.446,22.893-15.942,23.506
		c-4.497,0.612-11.243-6.952-15.128-5.928c-3.882,1.022-8.379,10.833-13.283,11.036c-4.906,0.206-24.12,0.614-27.595-1.633
		c-3.475-2.249-22.483-21.259-26.982-22.077c-4.496-0.818-4.904,2.249-12.672-2.861c-7.767-5.111-26.163-25.96-31.07-25.142
		c-4.904,0.818-14.305,10.629-23.914,11.653c-9.607,1.022-16.149-1.228-20.032,0.408c-3.883,1.635-6.746,6.95-12.878,7.767
		c-6.132,0.818-14.921-2.249-16.962-0.41c-2.046,1.839-2.863,9.199-8.995,10.834c-6.132,1.635-11.65-1.635-14.103,0.204
		c-2.453,1.839-6.542,4.089-13.696,4.089c-0.824,0-1.713,0.02-2.639,0.059C3.34,208.559,0,231.889,0,256
		c0,23.715,3.239,46.672,9.272,68.465h493.455C508.761,302.671,512,279.715,512,256C512,225.207,506.562,195.688,496.595,168.342z"
		/>
	<path style="fill:#FFC928;" d="M504.019,192.343c-2.416,0.339-4.881,0.502-6.157-0.566c-1.993-1.667-7.05-10.713-9.197-10.867
		c-2.147-0.153-9.657,2.3-15.789,0c-6.134-2.3-8.586-8.125-13.645-8.278c-5.058-0.154-12.111,2.914-18.55,0
		c-6.436-2.912-13.643-6.285-16.71-9.043c-3.065-2.761-6.897-6.132-9.657-3.221c-2.758,2.914-28.053,27.9-34.032,29.281
		c-5.978,1.378-7.053-0.307-9.964,2.3c-2.914,2.604-18.703,18.854-23.149,20.847c-4.446,1.993-18.242,3.988-21.767,6.134
		c-3.526,2.147-11.499,7.204-17.322,7.05c-5.828-0.153-29.742-9.657-36.181-11.038c-6.439-1.379-12.876-0.765-15.789-2.758
		c-2.914-1.993-6.439-7.206-8.892-7.053c-2.453,0.154-5.518,3.221-7.971,3.375c-2.453,0.151-5.365,5.978-9.197,6.897
		c-3.834,0.921-20.543,18.396-25.909,19.01c-5.364,0.614-6.283,4.293-12.568,6.285c-6.285,1.993-12.418,4.751-12.418,4.751H0.233
		C0.092,248.949,0,252.463,0,256c0,23.715,3.239,46.672,9.272,68.465h493.455C508.761,302.671,512,279.715,512,256
		C512,234.023,509.228,212.695,504.019,192.343z"/>
	<path style="fill:#FFDF81;" d="M509.757,289.924c-3.766-0.018-9.897-0.791-11.435,0.361c-1.839,1.382-16.403,14.257-28.36,13.185
		c-11.958-1.074-12.111-8.127-22.689-10.578c-10.578-2.453-17.935-10.732-19.928-10.885c-1.993-0.153-7.664,0.766-11.499-0.153
		c-3.832-0.919-9.657-2.453-11.343-1.839c-1.686,0.613-3.986,7.664-5.825,8.278c-1.839,0.614-9.811,0.919-11.65,2.3
		c-1.839,1.379-13.645,7.36-21.002,4.904c-7.36-2.451-24.835-17.168-27.442-17.782c-2.604-0.611-6.897,0.46-10.271-2.3
		c-3.371-2.758-22.228-23.61-25.907-24.528c-3.679-0.919-9.045-4.904-11.803-3.984c-2.761,0.919-6.439,6.897-9.353,7.202
		c-2.912,0.309-39.857,13.952-48.442,13.952c-8.585,0-16.557-6.746-23.303-8.278c-6.744-1.532-16.096-4.105-26.365-13.013
		c-10.271-8.908-13.031-14.733-16.098-15.654c-3.067-0.919-3.986,2.146-12.876-4.293c-8.892-6.439-26.828-28.667-32.5-28.821
		c-5.671-0.151-15.792,14.41-24.528,14.564c-8.739,0.154-16.406-2.144-20.082,0.307c-3.681,2.453-9.506,8.739-15.025,8.586
		c-5.518-0.154-11.803-1.993-13.796,0.611c-1.993,2.607-5.518,10.271-10.578,10.885c-5.06,0.614-8.278-0.307-15.636,2.3
		c-4.565,1.617-14.55,3.23-21.476,4.227C0.197,244.941,0,250.448,0,256c0,23.715,3.239,46.672,9.272,68.465h493.455
		C505.833,313.243,508.197,301.709,509.757,289.924z"/>
</g>
<path style="fill:#F98B00;" d="M24.496,365.387l463.01-0.009c6.187-13.073,11.297-26.755,15.224-40.927
	c-176.79-0.575-398.174-31.413-493.899-1.619C12.814,337.585,18.073,351.815,24.496,365.387z"/>
<path style="fill:#ED6C00;" d="M56.203,327.362c7.252,0,13.132,2.034,13.132,4.544s-5.881,4.544-13.132,4.544
	c-7.252,0-13.132-2.034-13.132-4.544S48.951,327.362,56.203,327.362z M14.64,341.486c-1.444-4.078-2.786-8.203-4.027-12.372
	c1.006-0.154,2.069-0.236,3.166-0.236c6.416,0,11.615,2.827,11.615,6.313C25.394,338.52,20.652,341.245,14.64,341.486z
	 M122.111,314.23c4.881,0,8.837,1.922,8.837,4.293c0,2.371-3.956,4.293-8.837,4.293c-4.881,0-8.837-1.922-8.837-4.293
	C113.274,316.152,117.229,314.23,122.111,314.23z M34.231,352.616c3.206,0,5.807,1.583,5.807,3.535c0,1.951-2.6,3.534-5.807,3.534
	c-3.207,0-5.807-1.583-5.807-3.534C28.425,354.199,31.024,352.616,34.231,352.616z M465.296,349.079
	c1.952,0,3.535,0.793,3.535,1.769c0,0.975-1.583,1.768-3.535,1.768c-1.951,0-3.534-0.793-3.534-1.768
	C461.762,349.872,463.345,349.079,465.296,349.079z M465.548,334.937c1.533,0,2.776,0.566,2.776,1.262s-1.244,1.262-2.776,1.262
	c-1.532,0-2.776-0.566-2.776-1.262S464.016,334.937,465.548,334.937z M433.049,338.978c3.669,0,6.642,1.14,6.642,2.549
	c0,1.409-2.973,2.55-6.642,2.55c-3.67,0-6.643-1.14-6.643-2.55C426.406,340.118,429.379,338.978,433.049,338.978z M379.183,338.978
	c7.671,0,13.888,1.583,13.888,3.534s-6.217,3.535-13.888,3.535c-7.672,0-13.888-1.583-13.888-3.535S371.511,338.978,379.183,338.978
	z M304.689,348.575c2.79,0,5.051,2.034,5.051,4.544c0,2.511-2.261,4.545-5.051,4.545c-2.79,0-5.051-2.034-5.051-4.545
	C299.638,350.61,301.899,348.575,304.689,348.575z M308.73,327.362c4.742,0,8.586,2.714,8.586,6.061
	c0,3.346-3.844,6.061-8.586,6.061c-4.742,0-8.585-2.714-8.585-6.061C300.145,330.076,303.988,327.362,308.73,327.362z
	 M237.011,356.151c1.395,0,2.524,0.339,2.524,0.756c0,0.417-1.129,0.756-2.524,0.756c-1.395,0-2.524-0.339-2.524-0.756
	C234.486,356.49,235.615,356.151,237.011,356.151z M252.919,333.927c5.997,0,10.858,2.034,10.858,4.544s-4.861,4.544-10.858,4.544
	c-5.997,0-10.858-2.034-10.858-4.544S246.922,333.927,252.919,333.927z M122.113,338.978c4.046,0,7.323,2.373,7.323,5.303
	c0,2.929-3.278,5.302-7.323,5.302c-4.045,0-7.323-2.373-7.323-5.302C114.79,341.351,118.068,338.978,122.113,338.978z
	 M179.182,327.868c8.228,0,14.898,3.278,14.898,7.323c0,4.045-6.67,7.323-14.898,7.323c-8.228,0-14.898-3.278-14.898-7.323
	C164.283,331.146,170.954,327.868,179.182,327.868z"/>
<g>
	<path style="fill:#F9BF2C;" d="M325.285,502.505c-3.583-2.185-11.446-7.13-17.205-6.979c-5.828,0.154-29.742,9.657-36.181,11.038
		c-6.439,1.379-12.876,0.765-15.789,2.758c-0.939,0.642-1.938,1.617-2.948,2.641c-5.584-0.062-11.131-0.282-16.621-0.694
		c-1.853-1.84-3.975-4.563-6.492-5.166c-3.834-0.921-20.543-18.396-25.909-19.01c-5.364-0.614-6.283-4.293-12.568-6.285
		c-4.275-1.356-8.478-3.065-10.73-4.018c-8.414,7.747-10.976,12.756-13.801,13.604c-2.612,0.781-3.667-1.322-9.41,2.009
		c-47.272-19.691-87.36-53.147-115.285-95.361h427.306C436.159,447.672,385.17,485.708,325.285,502.505z"/>
	<path style="fill:#BD360C;" d="M316.223,264.659c-3.677-0.018-7.238,0.462-10.624,1.376c-0.023-1.306-0.158-3.14-0.719-3.475
		c-0.117-0.071-0.284-0.108-0.483-0.121c-0.119-1.995-0.488-5.784-1.579-8.7c-1.535-4.105-0.978-8.342,0.055-10.94
		c0.568-1.427,0.964-2.673,1.191-3.736c0.328-0.74,0.508-1.491,0.527-2.238c0.036-1.558-0.371-2.763-0.738-3.52
		c0.152-0.186,0.255-0.401,0.216-0.55c-0.067-0.28-1.803-1.752-1.803-1.963c0-0.208-0.133-1.149-0.375-1.466
		c-0.243-0.313-0.552-0.944-0.656-1.468c-0.101-0.522-0.797-1.015-0.692-1.363c0.107-0.348,0.25-0.975-0.062-1.603
		c-0.309-0.63-1.039-1.157-1.736-1.161c-0.699-0.003-1.533-0.566-2.124-0.673c-0.594-0.108-1.361,0.098-2.06-0.009
		c-0.696-0.107-2.739-2.909-2.739-2.909l-0.907,0.03c0,0-12.614-19.47-14.282-21.154c-1.663-1.682-5.049-4.471-7.023-7.149
		c-1.974-2.677-5.435-11.849-7.254-14.16c-1.819-2.311-2.907-4.202-3.69-4.781c-0.781-0.58,0.319-0.939,0.479-1.409
		c0.158-0.472,0.057-1.256,0.951-1.984c0.893-0.729,2.259-1.819,3.93-1.654c1.674,0.165,3.4,0.33,4.137-0.504
		c0.735-0.832,0.376-2.3,0.642-2.77c0.263-0.47,0.84-0.936,0.845-1.617c0.003-0.681,0.163-1.516,0.637-1.775
		c0.472-0.259,0.424-1.411,0.115-2.091c-0.312-0.683,0.423-0.731,1.051-0.99c0.63-0.259,1.157-0.934,0.481-1.88
		c-0.678-0.946-1.294-2.831-1.287-4.245c0.007-1.411,0.117-2.563,0.117-2.563s3.406-1.343,4.089-1.496
		c0.681-0.154,2.358-0.458,2.254-0.878c-0.103-0.419-1.976-2.469-3.795-4.622c-1.821-2.153-6.4-6.886-12.727-7.598
		c-6.327-0.713-14.085,2.337-14.454,3.067c-0.371,0.731-0.114,2.144-0.905,2.978c-0.787,0.832-1.005,2.348-1.115,3.342
		c-0.107,0.994,0.146,1.988-0.644,3.291c-0.791,1.303-0.852,2.769-0.332,3.557c0.52,0.786,1.349,2.098,1.716,2.1
		c0.366,0.003,1.519-0.201,1.773,1.004c0.257,1.202,0.772,2.565,0.247,3.035c-0.524,0.467-0.634,1.461-1.211,1.615
		c-0.575,0.153-3.715,0.504-4.769,1.807c-0.653,0.809-1.789,1.693-3.683,2.756c-2.007,0.272-5.534-2.092-6.441-2.749
		c-2.373-0.154-3.702,1.869-5.369,1.322c-0.222-1.56,0.696-2.165,0.495-3.702c-1.427-2.621-5.495,0.078-7.316-1.831
		c-1.34,0.374-2.483,1.814-4.123,2.209c-1.86,0.446-4.078-0.156-4.826,1.768c-0.082,1.746,0.767,2.369,1.008,3.734
		c-1.074,0.971-1.823-0.28-3.014-0.222c-0.838,0.568-0.855,1.828-1.785,2.323c-0.561-0.121-0.202-1.345-0.948-1.244
		c-1.718,0.85-2.85,2.192-4.173,3.374c-0.065,0.621,0.344,0.681,0.284,1.306c-0.529,1.62-2.35,2.46-3.301,3.961
		c-0.58,0.909-1.037,2.304-1.676,3.475c-1.013,1.855-2.179,3.125-1.812,5.653c-2.135,2.4,1.171,7.825,0.916,10.06
		c-0.082,0.743-0.753,1.292-0.822,1.904c-0.493,4.267,2.07,8.434,4.675,10.189c-2.16,4.842-2.82,8.956-2.82,8.956l0.937,0.946
		c0,0-1.066,3.762-0.662,6.954c0.401,3.193,2.792,6.343,6.498,7.88c3.706,1.535,7.671,3.596,8.191,4.279
		c0.52,0.683,4.54,5.724,5.438,7.543c0.898,1.817,3.117,7.986,3.22,8.299c0.101,0.314-0.95,1.357-0.95,1.357
		s1.306,0.685,1.303,0.843c0,0.016,0.023,0.073,0.062,0.16c-0.669,0.28-3.092,1.315-3.243,1.585
		c-0.149,0.263,0.526,1.427,1.042,1.701c0.437,0.861,2.416,4.522,5.03,5.585c0.135,0.483,0.545,1.283,0.705,1.864
		c-0.453,0.071-0.973,0.185-1.569,0.369c-1.908,0.589-3.507,2.476-4.322,3.603c-0.864-0.062-1.697-0.023-2.122,0.332
		c-0.772,0.644-2.462,3.224-3.186,4.359c-6.503-4.698-14.479-7.481-23.113-7.525c-22.015-0.11-39.951,17.647-40.063,39.66
		c-0.109,22.015,17.647,39.953,39.665,40.063c16.231,0.082,30.243-9.552,36.531-23.442l7.378-1.562
		c0.545,0.465,1.353,0.866,2.561,1.175c3.342,0.852,6.583,1.337,6.583,1.337s1.095,0.557,1.906,0.745
		c0.811,0.186,1.359,0.609,1.359,0.609s-0.527,0.493-0.449,0.623c0.078,0.133,0.937,1.042,1.12,1.022
		c0.183-0.02,0.367,0.002,0.367,0.002s-0.08,0.239,0.206,0.635c0.284,0.394,1.638,1.734,2.187,1.711
		c0.55-0.025,1.81-1.143,2.176-1.166c0.369-0.025,0.52,0.917,1.017,0.788c0.497-0.128,3.017-1.763,3.017-1.763l-0.777-1.338
		c0,0,1.173,0.321,1.83,0.09c0.656-0.234,2.753-1.766,2.964-1.764c0.208,0,1.308-0.073,1.624-0.596
		c0.316-0.52,1.246-3.053-2.439-3.779c-3.684-0.724-4.575-0.493-4.705-0.832c-0.128-0.342,0.241-0.758,0.082-0.863
		c-0.156-0.106-2.451-1.295-2.634-1.244c-0.183,0.053-0.213,0.601-0.421,0.601c-0.208-0.003-0.809-0.58-0.807-0.841
		c0-0.261-0.02-1.047-0.412-1.363c-0.252-0.204-0.763-0.701-1.095-1.028c0.493-1.203,0.768-2.515,0.775-3.892
		c0.009-1.736-0.41-3.374-1.155-4.817c0.449-0.667,0.785-1.413,0.987-2.213l37.79-48.962c0.595,1.32,1.056,2.245,1.233,2.385
		c0.729,0.58,1.026,1.407,1.026,1.409c-0.222,0.275-0.211,0.573,0.183,0.882c1.876,1.473,1.908,3.251,2.774,4.836
		c0.861,1.587,1.837,0.955,2.456,1.986c0.162,0.273,1.271,2.788,2.811,6.334c-12.388,6.709-20.831,19.791-20.907,34.872
		c-0.11,22.015,17.647,39.954,39.662,40.063c22.015,0.11,39.953-17.647,40.063-39.662S338.235,264.769,316.223,264.659z
		 M348.202,298.436L348.202,298.436l-14.93-0.073l12.651-7.218C346.954,293.447,347.726,295.891,348.202,298.436z M345.568,290.382
		L345.568,290.382l-13.971,7.972l-4.151-0.021c-0.394-0.969-0.913-1.871-1.539-2.691l0.637-1.09l2.575-3.134l12.603-7.192
		C343.22,286.119,344.514,288.183,345.568,290.382z M327.751,299.173L327.751,299.173l2.392,0.011l-2.08,1.187
		C327.983,299.963,327.875,299.563,327.751,299.173z M330.106,306.439L330.106,306.439l-2.391-0.014
		c0.128-0.39,0.238-0.788,0.325-1.194L330.106,306.439z M341.186,283.568L341.186,283.568l-10.576,6.034l7.563-9.202
		C339.246,281.387,340.253,282.445,341.186,283.568z M321.207,272.181L321.207,272.181c2.412,0.383,4.739,1.031,6.945,1.913
		l-7.016,12.012L321.207,272.181z M321.127,287.78L321.127,287.78l7.807-13.366c2.043,0.88,3.979,1.961,5.784,3.216l-12.291,14.953
		c-0.424-0.243-0.864-0.462-1.32-0.653L321.127,287.78z M325.259,310.622L325.259,310.622l1.189,2.08l-2.068-1.207
		C324.688,311.22,324.982,310.929,325.259,310.622z M313.03,289.191L313.03,289.191l1.186,2.077
		c-0.403,0.082-0.797,0.186-1.182,0.309l-0.016-0.039L313.03,289.191z M312.906,313.868L312.906,313.868
		c0.39,0.129,0.788,0.238,1.194,0.328l-1.205,2.064L312.906,313.868z M306.657,291.775L306.657,291.775l-0.758-0.444l-8.028-14.071
		c0.659-0.44,1.335-0.857,2.029-1.25C302.266,281.506,304.873,287.599,306.657,291.775z M301.917,232.975L301.917,232.975
		c0.644,0.364,1.32,0.739,1.487,0.685c0.039-0.014,0.078-0.034,0.121-0.057c0.263,0.58,0.54,1.407,0.623,2.431
		c-0.071-0.241-0.165-0.454-0.288-0.637c-0.371-0.552-0.971-0.834-1.785-0.838c-0.112,0-0.222,0-0.328,0
		C301.863,233.944,301.911,233.414,301.917,232.975z M302.073,234.976L302.073,234.976c0.676,0.005,1.146,0.218,1.441,0.656
		c0.332,0.49,0.545,1.448,0.151,3.303c-0.483,1.084-1.303,2.142-2.41,3.115c0.884-1.546,1.203-2.907,0.948-4.054
		c-0.139-0.621-0.451-1.182-0.921-1.684c0.163-0.476,0.284-0.923,0.378-1.333C301.794,234.976,301.929,234.976,302.073,234.976z
		 M299.045,233.183L299.045,233.183c0.35-0.208,1.262-0.832,1.61-0.83c0.119,0,0.449,0.169,0.839,0.385
		c0.005,0.472-0.034,1.084-0.179,1.825c-0.617,0.009-1.132,0.037-1.562,0.076C299.324,233.978,298.858,233.295,299.045,233.183z
		 M301.224,234.984L301.224,234.984c-0.073,0.314-0.165,0.648-0.277,1.001c-0.211-0.183-0.447-0.357-0.706-0.522
		c-0.06-0.126-0.142-0.27-0.236-0.424C300.355,235.013,300.759,234.993,301.224,234.984z M293.692,236.678L293.692,236.678
		c0.108-0.174,2.234,0.011,2.79-0.02c0.559-0.032,0.911-0.589,1.189-0.621c0.263-0.032,2.114,0.187,2.579-0.069
		c0.201,0.142,0.384,0.291,0.549,0.447c-0.259,0.728-0.611,1.525-1.084,2.391c-0.346-0.154-0.762-0.291-1.258-0.415
		c-1.51-0.382-2.769-0.611-3.738-0.749C294.549,237.389,293.589,236.848,293.692,236.678z M228.808,299.215L228.808,299.215
		c-0.318-2.724-0.909-5.36-1.748-7.889c1.562,0.433,3.125,0.783,3.125,0.783s0.928,2.935,1.079,4.084
		c0.087,0.671,0.193,1.631,0.364,3.038L228.808,299.215z M231.089,300.275L231.089,300.275c-0.424,0.433-0.813,0.902-1.157,1.407
		l-0.916-0.005c-0.026-0.474-0.06-0.946-0.104-1.414L231.089,300.275z M218.45,255.404L218.45,255.404
		c0.557-0.28,1.653-1.099,2.641-1.372c0.316,0.678,0.641,1.409,0.863,2.015c-0.994,0.39-1.851,1.118-2.211,1.455
		C219.128,256.639,218.677,255.835,218.45,255.404z M220.342,258.291L220.342,258.291c-0.121-0.149-0.239-0.3-0.351-0.449
		c0.312-0.291,1.147-1.02,2.1-1.397c0.048,0.154,0.085,0.295,0.11,0.417c0.005,0.026,0.009,0.055,0.014,0.08
		C221.368,257.292,220.656,257.963,220.342,258.291z M220.612,258.613L220.612,258.613c0.263-0.274,0.918-0.909,1.686-1.25
		c0.197,1.035,0.444,2.368,0.607,3.142C222.06,260.091,221.281,259.383,220.612,258.613z M218.764,289.746L218.764,289.746
		l-13.973,7.971l-4.151-0.02c-0.394-0.967-0.914-1.87-1.539-2.691l0.636-1.091l2.575-3.131l12.603-7.195
		C216.415,285.485,217.707,287.546,218.764,289.746z M206.465,297.726L206.465,297.726l12.651-7.218
		c1.031,2.304,1.806,4.749,2.282,7.294L206.465,297.726z M221.544,298.64L221.544,298.64c0.03,0.179,0.057,0.359,0.085,0.538
		l-17.555-0.087l0.936-0.534L221.544,298.64z M203.336,298.548L203.336,298.548l-0.936,0.534l-1.297-0.005
		c-0.048-0.181-0.101-0.364-0.158-0.54L203.336,298.548z M214.382,282.931L214.382,282.931l-10.576,6.036l7.562-9.202
		C212.441,280.75,213.447,281.808,214.382,282.931z M194.4,271.544L194.4,271.544c2.414,0.384,4.74,1.033,6.948,1.912l-7.018,12.014
		L194.4,271.544z M194.322,287.143L194.322,287.143l7.807-13.366c2.043,0.88,3.976,1.961,5.782,3.216l-12.292,14.956
		c-0.423-0.245-0.861-0.465-1.317-0.655L194.322,287.143z M206.302,323.736L206.302,323.736l-7.195,1.523
		c-0.075-1.159-0.016-3.245-0.46-3.489c-0.406-0.227-1.337,0.202-1.847-0.048l-0.339-0.596c-0.005-0.05-0.009-0.098-0.007-0.153
		c0.005-0.996-0.14-5.988-0.233-9.076c0.227-0.151,0.446-0.309,0.664-0.472l3.587,2.094L206.302,323.736z M201.918,314.365
		L201.918,314.365l12.94,7.557l-7.696,1.631L201.918,314.365z M197.576,310.858L197.576,310.858
		c0.307-0.275,0.602-0.566,0.879-0.872l1.187,2.079L197.576,310.858z M186.223,288.554L186.223,288.554l1.187,2.078
		c-0.408,0.084-0.807,0.19-1.198,0.314L186.223,288.554z M186.097,313.888L186.097,313.888c0.541,0.053,1.049-0.078,1.049-0.078
		l-1.058,1.814L186.097,313.888z M170.372,277.099L170.372,277.099l7.277,12.752l-13.015-7.602
		C166.336,280.317,168.262,278.585,170.372,277.099z M164.077,282.894L164.077,282.894l14.402,8.411l2.059,3.608
		c-0.634,0.813-1.163,1.711-1.567,2.675l-4.15-0.021l-14.756-8.617C161.177,286.779,162.527,284.749,164.077,282.894z
		 M179.923,292.151L179.923,292.151l2.069,1.207c-0.309,0.272-0.605,0.564-0.882,0.871L179.923,292.151z M178.623,305.679
		L178.623,305.679l-2.394-0.014l2.077-1.184C178.392,304.888,178.496,305.287,178.623,305.679z M176.265,298.413L176.265,298.413
		l2.392,0.011c-0.129,0.39-0.239,0.788-0.326,1.196L176.265,298.413z M159.691,289.702L159.691,289.702l13.455,7.856l-16.048-0.08
		C157.639,294.748,158.518,292.141,159.691,289.702z M156.468,303.718L156.468,303.718c0.009-1.841,0.174-3.644,0.474-5.403
		l17.649,0.089l3.588,2.096c-0.069,0.507-0.11,1.024-0.113,1.548c-0.004,0.525,0.032,1.043,0.096,1.551l-3.607,2.059l-18.043-0.092
		C156.482,304.955,156.465,304.339,156.468,303.718z M156.566,306.403L156.566,306.403l16.534,0.085l-14.733,8.409
		C157.407,312.209,156.79,309.36,156.566,306.403z M158.662,315.691L158.662,315.691l16.112-9.194l4.151,0.02
		c0.394,0.969,0.914,1.872,1.539,2.691l-2.094,3.588l-16.352,9.332C160.673,320.128,159.544,317.97,158.662,315.691z M180.116,311.8
		L180.116,311.8l-0.293,0.167l0.181-0.309C180.036,311.708,180.073,311.754,180.116,311.8z M162.497,322.819L162.497,322.819
		l15.029-8.578l-8.847,15.148C166.329,327.495,164.246,325.285,162.497,322.819z M185.146,336.378L185.146,336.378
		c-3.095-0.384-6.054-1.198-8.819-2.38l8.908-15.253L185.146,336.378z M185.245,317.07L185.245,317.07l-9.687,16.584
		c-2.217-1.017-4.3-2.277-6.214-3.743l9.636-16.499l2.215-1.262c0.628-0.032,1.32-0.311,1.764-0.52
		c0.075,0.052,0.148,0.109,0.227,0.162c-0.131,0.264-0.227,0.577-0.03,0.692c0.152,0.087,0.532-0.002,0.931-0.135
		c0.371,0.206,0.756,0.394,1.149,0.561c0.007,0.071,0.016,0.142,0.028,0.213L185.245,317.07z M185.373,291.25L185.373,291.25
		c-0.969,0.394-1.872,0.913-2.692,1.539l-3.587-2.096l-8.031-14.072c2.004-1.337,4.167-2.458,6.45-3.33l7.88,13.81L185.373,291.25z
		 M185.403,285.425L185.403,285.425l-7.092-12.429c2.282-0.804,4.68-1.365,7.163-1.649L185.403,285.425z M193.239,336.385
		L193.239,336.385c-1.372,0.169-2.769,0.252-4.187,0.245c-1.035-0.005-2.057-0.061-3.069-0.158l0.096-19.173l1.441-2.464
		c0.41,0.524,1.265,1.106,3.047,1.349c1.129,0.153,1.862,0.286,2.338,0.401l0.429,0.749L193.239,336.385z M193.466,290.982
		L193.466,290.982c-0.389-0.128-0.788-0.238-1.193-0.325l1.205-2.066L193.466,290.982z M193.486,286.916L193.486,286.916
		l-2.096,3.587c-0.506-0.071-1.023-0.112-1.548-0.114c-0.527-0.003-1.042,0.034-1.55,0.098l-2.06-3.608l0.078-15.615
		c1.013-0.089,2.036-0.133,3.072-0.128c1.416,0.007,2.813,0.103,4.183,0.286L193.486,286.916z M194.075,336.272L194.075,336.272
		l0.08-15.773c0.279,2.432,0.616,5.325,0.703,5.855c0.151,0.944,0.042,2.038,1.143,1.521c0.694-0.325,1.909-0.809,2.639-1.239
		l4.052,7.101C199.994,334.955,197.103,335.821,194.075,336.272z M203.453,333.38L203.453,333.38l-4.226-7.406
		c-0.012-0.023-0.023-0.053-0.034-0.087l7.438-1.576l2.968,5.202C207.709,331.017,205.65,332.319,203.453,333.38z M210.256,328.974
		L210.256,328.974l-2.765-4.845l8.177-1.734l0.398,0.233C214.416,324.993,212.46,327.126,210.256,328.974z M216.821,321.504
		L216.821,321.504l-0.747,0.158l-14.985-8.753l-2.06-3.61c0.506-0.648,0.948-1.356,1.31-2.107l8.88,2.066l10.633,6.21
		C219.047,317.597,218.029,319.617,216.821,321.504z M220.145,314.67L220.145,314.67l-8.166-4.769l8.973,2.089
		C220.72,312.899,220.449,313.795,220.145,314.67z M201.488,301.538L201.488,301.538c-0.016-0.312-0.046-0.619-0.082-0.921
		l0.85-0.485l19.505,0.096c0.053,0.467,0.096,0.939,0.128,1.413L201.488,301.538z M220.58,267.107L220.58,267.107
		c-0.073,0.018-0.183,0.02-0.316,0.014c0.353-1.015,1.14-2.344,2.854-2.687C222.307,265.559,220.999,267.004,220.58,267.107z
		 M223.292,264.191L223.292,264.191l-0.032-0.206c-2.098,0.309-3.019,1.933-3.413,3.102c-0.421-0.048-0.962-0.133-1.518-0.188
		c0.824-1.095,2.286-2.733,3.954-3.246c0.57-0.174,1.065-0.286,1.496-0.355C223.734,263.49,223.551,263.811,223.292,264.191z
		 M224.568,254.408L224.568,254.408l0.962,0.841l-0.969,0.151L224.568,254.408z M225.374,257.113L225.374,257.113l1.047-0.552
		c0,0,1.945,1.684,1.839,1.961c-0.105,0.279-1.292,0.204-1.709,0.167C226.133,258.653,225.374,257.113,225.374,257.113z
		 M225.864,319.59L225.864,319.59c1.045-2.433,1.851-4.989,2.396-7.642l0.818-0.025c0.639,1.382,1.57,2.598,2.714,3.571
		c-0.002,0.121-0.002,0.231,0,0.321c0.023,0.848,0.113,1.67,0.63,2.385L225.864,319.59z M239.844,215.797L239.844,215.797
		c-0.552-0.909,2.181-3.545,3.162-4.517c0.983-0.973,3.094-4.659,3.237-5.635c0.144-0.975,1.353-5.156,1.981-5.431
		c0.63-0.275,1.45,2.868,2.696,4.966c1.244,2.098,3.179,5.944,4.009,7.204c0.832,1.26,3.257,4.552,5.199,6.584
		c1.943,2.032,12.214,11.851,13.256,13.04c0.03,0.034,0.064,0.073,0.094,0.107c-0.68,0.611-0.549,1.171-0.458,1.558
		c0.039,0.163,0.071,0.302,0.03,0.383c-0.154,0.293-0.834,0.671-1.23,0.838l0.167,0.385c0.117-0.051,1.161-0.508,1.434-1.031
		c0.114-0.218,0.059-0.449,0.007-0.671c-0.082-0.348-0.165-0.703,0.325-1.143c1.125,1.306,2.964,3.493,3.585,4.059
		c0.694,0.63,1.587,3.216,2.772,3.571c0.373,0.11,1.058,0.259,1.819,0.408c0.098,0.243,0.208,0.522,0.334,0.829l-26.647,9.261
		c1.468-1.179,4.114-3.351,5.177-4.526c1.51-1.668,4.885-7.3,3.997-10.862c-0.889-3.562-2.412-6.082-5.82-7.772
		c-3.409-1.691-6.185-4.914-8.759-6.043C247.634,220.23,240.398,216.706,239.844,215.797z M255.317,255.59L255.317,255.59
		l-8.899,3.853c0.042-0.27,0.08-0.538,0.121-0.802L255.317,255.59z M262.35,272.998L262.35,272.998
		c0.05-0.714-0.11-1.479-0.307-2.112l1.585-1.979c0.018-0.025,0.032-0.048,0.05-0.073l0.307,0.247l2.309-2.888
		c0.658-0.82,0.522-2.021-0.298-2.675l-1.51-1.207l0.944-1.182c0.282-0.353,0.225-0.863-0.128-1.145
		c-0.351-0.28-0.861-0.225-1.143,0.128l-0.944,1.18l-1.512-1.208c-0.822-0.657-2.02-0.522-2.677,0.298l-2.307,2.888l0.307,0.247
		c-0.02,0.02-0.039,0.042-0.057,0.064l-9.942,12.431c-0.603,0.754-0.479,1.851,0.272,2.454l3.936,3.144
		c0.751,0.603,1.849,0.479,2.451-0.272l0.202-0.252c0.158,0.332,0.3,0.733,0.167,0.914c-0.245,0.339-1.017,1.033-0.877,1.173
		c0.082,0.085,0.673,0.119,1.258,0.076l-7.916,10.257c-1.132-0.96-2.573-1.567-4.153-1.654c0.222-1.04,0.605-2.98,0.547-3.777
		c-0.078-1.115,0.845-4.391,1.06-5.435c0.213-1.047,0.524-7.181,0.609-10.319c0.084-3.14,0.52-6.487,1.09-8.784
		c0.208-0.843,0.449-2.211,0.669-3.605l14.321-6.198l13.132-4.563l6.918,0.034L262.35,272.998z M281.103,248.697L281.103,248.697
		l-5.866-0.028l8.047-2.797L281.103,248.697z M287.058,231.24L287.058,231.24c-0.21,0.138-0.731-0.493-0.728-0.788
		c0-0.293,0.944-0.433,1.434-0.57c0.488-0.135,0.49-0.694,0.247-1.113c-0.241-0.421-3.001,0.543-3.628,0.749
		c-0.63,0.206-0.896,0.971-2.062,0.914c-1.166-0.059-2.854-1.688-3.113-2.215c-0.259-0.522-1.688-0.513-2.105-1.003
		c-0.415-0.49-7.122-12.381-9.124-16.786c-2-4.405-4.913-7.488-7.268-10.569c-2.357-3.08-2.588-5.524-2.346-5.591
		c0.245-0.069,2.635,3.466,4.089,5.321c1.457,1.855,4.44,5.115,5.965,6.656c1.528,1.542,2.563,3.535,3.603,5.04
		c1.037,1.505,8.265,7.016,10.246,8.736c1.977,1.719,3.819,3.297,4.13,3.752c0.311,0.456,0.381,0.804,0.163,0.978
		c-0.218,0.172,0.178,0.628,0.456,0.872c0.277,0.245,0.206,0.63-0.179,0.871c-0.385,0.243-0.53,1.184-0.291,1.324
		c0.235,0.142,1.264-0.795,1.438-0.795c0.176,0.002,0.589,0.735,0.657,1.26c0.067,0.522,1.528,1.368,1.525,1.682
		C290.167,230.278,287.269,231.101,287.058,231.24z M288.357,241.241L288.357,241.241l0.394,0.016c0,0,1.01,0.493,1.393,0.6
		c0.383,0.106,1.225-1.005,1.37-1.388c0.14-0.382-0.238-1.885,0.009-1.988c0.243-0.104,1.81,0.531,2.231,0.291
		c0.261-0.154,0.637-0.456,0.845-0.721c0.967,0.133,2.238,0.361,3.759,0.747c0.453,0.115,0.838,0.241,1.152,0.373
		c-0.044,0.08-0.09,0.158-0.135,0.238c-2.461,4.155-7.82,5.598-9.19,5.906L288.357,241.241z M290.362,245.703L290.362,245.703
		c1.539-0.357,6.879-1.867,9.373-6.082c0.055-0.089,0.103-0.179,0.156-0.268c0.401,0.222,0.628,0.468,0.676,0.731
		c0.101,0.55-0.566,1.317-2.036,2.341c-1.956,1.363-6.721,3.159-8.01,3.633L290.362,245.703z M290.691,246.441L290.691,246.441
		c1.351-0.495,6.07-2.273,8.079-3.672c1.686-1.175,2.346-2,2.208-2.761c-0.071-0.389-0.362-0.726-0.886-1.019
		c0.437-0.799,0.776-1.546,1.033-2.234c0.337,0.404,0.564,0.847,0.669,1.329c0.286,1.283-0.234,2.884-1.544,4.764
		c-0.568,0.413-1.192,0.805-1.865,1.169c-3.543,1.91-7.54,2.529-7.582,2.533l0.03,0.209L290.691,246.441z M290.923,246.956
		L290.923,246.956c0.508-0.082,4.286-0.749,7.662-2.57c0.174-0.094,0.344-0.193,0.511-0.289c-2.251,1.963-6.107,3.638-7.559,4.227
		L290.923,246.956z M297.057,254.678L297.057,254.678l-3.143-1.06l-2.206-4.909c1.794-0.723,7.023-2.996,8.847-5.561
		c1.118-0.822,2.034-1.732,2.705-2.68c-0.199,0.646-0.454,1.368-0.777,2.178c-1.062,2.669-1.635,7.023-0.057,11.24
		c1.068,2.857,1.432,6.579,1.551,8.556c-1.031,0.066-2.522,0.513-3.237,0.742L297.057,254.678z M297.176,277.733L297.176,277.733
		l7.277,12.754l-13.015-7.602C293.14,280.954,295.066,279.222,297.176,277.733z M290.884,283.531L290.884,283.531l14.401,8.409
		l2.06,3.608c-0.634,0.815-1.166,1.713-1.569,2.677l-4.151-0.023l-14.756-8.615C287.984,287.416,289.331,285.386,290.884,283.531z
		 M307.917,294.865L307.917,294.865l-1.186-2.08l0.481,0.282c0.28,0.655,0.532,1.244,0.747,1.75
		C307.944,294.833,307.931,294.849,307.917,294.865z M308.709,311.415L308.709,311.415l-2.08,1.189l1.207-2.069
		C308.111,310.844,308.405,311.138,308.709,311.415z M305.427,306.316L305.427,306.316l-2.394-0.014l2.08-1.186
		C305.198,305.523,305.303,305.924,305.427,306.316z M303.07,299.05L303.07,299.05l2.394,0.011
		c-0.131,0.389-0.238,0.788-0.325,1.196L303.07,299.05z M286.495,290.338L286.495,290.338l13.455,7.857l-16.048-0.08
		C284.443,295.385,285.322,292.778,286.495,290.338z M283.272,304.355L283.272,304.355c0.009-1.842,0.174-3.647,0.476-5.404
		l17.647,0.09l3.588,2.096c-0.069,0.506-0.11,1.023-0.112,1.548c-0.003,0.524,0.034,1.042,0.098,1.55l-3.61,2.06l-18.041-0.092
		C283.286,305.592,283.27,304.975,283.272,304.355z M283.37,307.042L283.37,307.042l16.536,0.082l-14.733,8.409
		C284.213,312.846,283.595,309.997,283.37,307.042z M285.466,316.328L285.466,316.328l16.115-9.196l4.151,0.022
		c0.391,0.969,0.913,1.872,1.539,2.692l-2.094,3.587l-16.353,9.33C287.48,320.765,286.351,318.607,285.466,316.328z
		 M289.303,323.457L289.303,323.457l15.029-8.578l-8.849,15.147C293.135,328.132,291.053,325.921,289.303,323.457z M311.953,337.015
		L311.953,337.015c-3.097-0.385-6.056-1.198-8.818-2.38l8.906-15.253L311.953,337.015z M312.049,317.707L312.049,317.707
		l-9.684,16.584c-2.218-1.02-4.3-2.279-6.217-3.743l9.639-16.499l3.607-2.059c0.814,0.634,1.711,1.163,2.676,1.567L312.049,317.707z
		 M312.189,289.628L312.189,289.628l-3.425-7.912l3.436,6.02L312.189,289.628z M312.207,286.062L312.207,286.062l-6.475-11.348
		l-0.486-1.124c2.243-0.783,4.597-1.329,7.033-1.606L312.207,286.062z M320.043,337.021L320.043,337.021
		c-1.37,0.169-2.767,0.252-4.187,0.245c-1.035-0.005-2.057-0.062-3.067-0.16l0.096-19.173l2.096-3.585
		c0.508,0.069,1.022,0.11,1.548,0.113c0.527,0.002,1.045-0.032,1.551-0.096l2.059,3.605L320.043,337.021z M320.149,316.298
		L320.149,316.298l-1.186-2.077c0.406-0.085,0.807-0.193,1.198-0.316L320.149,316.298z M320.273,291.619L320.273,291.619
		c-0.39-0.129-0.791-0.238-1.196-0.328l1.207-2.066L320.273,291.619z M320.293,287.551L320.293,287.551l-2.096,3.587
		c-0.506-0.069-1.024-0.109-1.551-0.112c-0.524-0.002-1.04,0.034-1.548,0.099l-2.059-3.608l0.078-15.615
		c1.01-0.09,2.034-0.135,3.069-0.131c1.418,0.009,2.815,0.106,4.185,0.286L320.293,287.551z M320.882,336.909L320.882,336.909
		l0.087-17.482l8.53,14.946C326.801,335.592,323.908,336.458,320.882,336.909z M330.26,334.016L330.26,334.016l-9.281-16.263
		l0.02-4.151c0.969-0.394,1.872-0.914,2.691-1.541l3.587,2.096l9.128,15.993C334.513,331.654,332.454,332.954,330.26,334.016z
		 M337.06,329.611L337.06,329.611l-8.338-14.612l14.152,8.267C341.22,325.63,339.264,327.763,337.06,329.611z M343.348,322.572
		L343.348,322.572l-15.455-9.028l-2.057-3.607c0.632-0.811,1.161-1.711,1.564-2.676l4.151,0.02l15.107,8.824
		C345.792,318.396,344.676,320.561,343.348,322.572z M346.949,315.306L346.949,315.306l-13.723-8.015l15.42,0.076
		C348.408,310.127,347.829,312.787,346.949,315.306z M331.78,306.446L331.78,306.446l-3.587-2.093
		c0.071-0.509,0.109-1.024,0.112-1.551c0.005-0.524-0.032-1.042-0.098-1.55l3.61-2.06l16.534,0.084
		c0.282,1.759,0.428,3.564,0.419,5.406c-0.005,0.621-0.025,1.237-0.061,1.849L331.78,306.446z"/>
</g>
<path style="fill:#CA8D2B;" d="M24.496,365.387l463.003,0.009c-6.938,14.658-15.231,28.546-24.709,41.515
	c-142.827,3.572-305.232,21.548-405.6,10.356C44.328,401.429,33.319,384.027,24.496,365.387z"/>
<path style="fill:#8A5146;" d="M316.223,466.114c-3.677,0.018-7.238-0.462-10.624-1.376c-0.023,1.306-0.158,3.14-0.719,3.475
	c-0.117,0.071-0.284,0.107-0.483,0.121c-0.119,1.995-0.488,5.784-1.579,8.7c-1.535,4.105-0.978,8.342,0.055,10.94
	c0.568,1.427,0.964,2.673,1.191,3.736c0.328,0.74,0.508,1.491,0.527,2.238c0.036,1.558-0.371,2.763-0.738,3.52
	c0.152,0.186,0.255,0.401,0.216,0.55c-0.067,0.28-1.803,1.752-1.803,1.963c0,0.208-0.133,1.149-0.375,1.466
	c-0.243,0.313-0.552,0.944-0.656,1.468c-0.101,0.522-0.797,1.015-0.692,1.363c0.107,0.348,0.25,0.975-0.062,1.603
	c-0.309,0.63-1.039,1.157-1.736,1.161c-0.699,0.003-1.533,0.566-2.124,0.673c-0.594,0.108-1.361-0.098-2.06,0.009
	c-0.369,0.057-1.115,0.873-1.738,1.626c-3.461,0.5-6.941,0.942-10.445,1.304c1.934-1.682,3.715-3.21,4.02-3.656
	c0.311-0.456,0.381-0.804,0.163-0.978c-0.218-0.172,0.178-0.628,0.456-0.872c0.277-0.245,0.206-0.63-0.179-0.87
	c-0.385-0.243-0.53-1.184-0.291-1.324c0.235-0.142,1.264,0.795,1.438,0.795c0.176-0.002,0.589-0.735,0.657-1.26
	c0.067-0.522,1.528-1.368,1.525-1.681c-0.002-0.314-2.9-1.136-3.111-1.276l0,0c-0.21-0.138-0.731,0.493-0.728,0.788
	c0,0.293,0.944,0.433,1.434,0.57c0.488,0.135,0.49,0.694,0.247,1.113c-0.241,0.421-3.001-0.543-3.628-0.749
	c-0.63-0.206-0.896-0.971-2.062-0.914c-1.166,0.059-2.854,1.688-3.113,2.215c-0.259,0.522-1.688,0.513-2.105,1.003
	c-0.227,0.268-2.316,3.915-4.499,7.891c-4.178,0.268-8.384,0.431-12.614,0.499l0.137-0.144c1.943-2.032,12.214-11.851,13.256-13.04
	c0.03-0.034,0.064-0.073,0.094-0.108c-0.68-0.611-0.549-1.171-0.458-1.558c0.039-0.163,0.071-0.302,0.03-0.382
	c-0.154-0.293-0.834-0.671-1.23-0.838l0.167-0.385c0.117,0.051,1.161,0.508,1.434,1.031c0.114,0.218,0.059,0.449,0.007,0.671
	c-0.082,0.348-0.165,0.703,0.325,1.143c1.125-1.306,2.964-3.493,3.585-4.059c0.694-0.63,1.587-3.216,2.772-3.571
	c0.373-0.109,1.058-0.259,1.819-0.408c0.098-0.243,0.208-0.522,0.334-0.829l-26.647-9.261c1.468,1.179,4.114,3.351,5.177,4.526
	c1.51,1.668,4.885,7.3,3.997,10.862c-0.889,3.562-2.412,6.082-5.82,7.772c-3.409,1.691-6.185,4.914-8.759,6.043
	c-1.093,0.479-3.022,1.388-4.925,2.346c-16.273-0.671-32.159-2.843-47.508-6.414c1.13-1.775,2.898-3.305,5.152-4.24
	c3.706-1.535,7.671-3.596,8.191-4.279c0.52-0.683,4.54-5.724,5.438-7.543c0.898-1.817,3.117-7.986,3.22-8.299
	c0.101-0.314-0.95-1.357-0.95-1.357s1.306-0.685,1.303-0.843c0-0.016,0.023-0.073,0.062-0.16c-0.669-0.28-3.092-1.315-3.243-1.585
	c-0.149-0.263,0.526-1.427,1.042-1.701c0.437-0.861,2.416-4.522,5.03-5.584c0.135-0.483,0.545-1.283,0.705-1.865
	c-0.453-0.071-0.973-0.185-1.569-0.369c-1.908-0.589-3.507-2.476-4.322-3.603c-0.864,0.062-1.697,0.023-2.122-0.332
	c-0.772-0.644-2.462-3.223-3.186-4.359c-6.503,4.698-14.479,7.481-23.113,7.525c-22.015,0.11-39.951-17.647-40.063-39.66
	c-0.109-22.015,17.647-39.953,39.665-40.063c16.231-0.082,30.243,9.552,36.531,23.442l7.378,1.562
	c0.545-0.465,1.353-0.866,2.561-1.175c3.342-0.852,6.583-1.337,6.583-1.337s1.095-0.557,1.906-0.745
	c0.811-0.185,1.359-0.609,1.359-0.609s-0.527-0.493-0.449-0.623c0.078-0.133,0.937-1.042,1.12-1.022s0.367-0.002,0.367-0.002
	s-0.08-0.239,0.206-0.635c0.284-0.394,1.638-1.734,2.187-1.711c0.55,0.025,1.81,1.143,2.176,1.166
	c0.369,0.025,0.52-0.917,1.017-0.788c0.497,0.128,3.017,1.763,3.017,1.763l-0.777,1.338c0,0,1.173-0.32,1.83-0.09
	c0.656,0.234,2.753,1.766,2.964,1.764c0.208,0,1.308,0.073,1.624,0.595c0.316,0.52,1.246,3.053-2.439,3.779
	c-3.684,0.724-4.575,0.493-4.705,0.832c-0.128,0.342,0.241,0.758,0.082,0.863c-0.156,0.105-2.451,1.295-2.634,1.244
	c-0.183-0.053-0.213-0.6-0.421-0.6c-0.208,0.002-0.809,0.579-0.807,0.84c0,0.261-0.02,1.047-0.412,1.363
	c-0.252,0.204-0.763,0.701-1.095,1.028c0.493,1.203,0.768,2.515,0.775,3.892c0.009,1.736-0.41,3.374-1.155,4.817
	c0.449,0.667,0.785,1.413,0.987,2.213l37.79,48.962c0.595-1.32,1.056-2.245,1.233-2.385c0.729-0.58,1.026-1.407,1.026-1.409
	c-0.222-0.275-0.211-0.572,0.183-0.882c1.876-1.473,1.908-3.251,2.774-4.836c0.861-1.587,1.837-0.955,2.456-1.986
	c0.162-0.273,1.271-2.788,2.811-6.334c-12.388-6.71-20.831-19.791-20.907-34.872c-0.11-22.015,17.647-39.954,39.662-40.063
	c22.015-0.11,39.953,17.647,40.063,39.662S338.235,466.004,316.223,466.114z M348.202,432.336L348.202,432.336l-14.93,0.073
	l12.651,7.218C346.954,437.325,347.726,434.881,348.202,432.336z M345.568,440.39L345.568,440.39l-13.971-7.972l-4.151,0.021
	c-0.394,0.969-0.913,1.871-1.539,2.691l0.637,1.09l2.575,3.134l12.603,7.192C343.22,444.653,344.514,442.589,345.568,440.39z
	 M327.751,431.599L327.751,431.599l2.392-0.011l-2.08-1.187C327.983,430.809,327.875,431.209,327.751,431.599z M330.106,424.333
	L330.106,424.333l-2.391,0.014c0.128,0.39,0.238,0.788,0.325,1.194L330.106,424.333z M341.186,447.205L341.186,447.205
	l-10.576-6.034l7.563,9.202C339.246,449.386,340.253,448.327,341.186,447.205z M321.207,458.592L321.207,458.592
	c2.412-0.383,4.739-1.031,6.945-1.913l-7.016-12.012L321.207,458.592z M321.127,442.993L321.127,442.993l7.807,13.366
	c2.043-0.88,3.979-1.961,5.784-3.216l-12.291-14.953c-0.424,0.243-0.864,0.463-1.32,0.653L321.127,442.993z M325.259,420.151
	L325.259,420.151l1.189-2.08l-2.068,1.207C324.688,419.552,324.982,419.843,325.259,420.151z M313.03,441.581L313.03,441.581
	l1.186-2.077c-0.403-0.082-0.797-0.186-1.182-0.309l-0.016,0.039L313.03,441.581z M312.906,416.905L312.906,416.905
	c0.39-0.129,0.788-0.238,1.194-0.328l-1.205-2.063L312.906,416.905z M306.657,438.998L306.657,438.998l-0.758,0.444l-8.028,14.071
	c0.659,0.44,1.335,0.857,2.029,1.251C302.266,449.266,304.873,443.173,306.657,438.998z M301.917,497.798L301.917,497.798
	c0.644-0.364,1.32-0.739,1.487-0.685c0.039,0.014,0.078,0.034,0.121,0.057c0.263-0.58,0.54-1.407,0.623-2.431
	c-0.071,0.241-0.165,0.454-0.288,0.637c-0.371,0.552-0.971,0.834-1.785,0.838c-0.112,0-0.222,0-0.328,0
	C301.863,496.829,301.911,497.358,301.917,497.798z M302.073,495.796L302.073,495.796c0.676-0.005,1.146-0.218,1.441-0.656
	c0.332-0.49,0.545-1.448,0.151-3.303c-0.483-1.084-1.303-2.142-2.41-3.115c0.884,1.546,1.203,2.907,0.948,4.054
	c-0.139,0.621-0.451,1.182-0.921,1.684c0.163,0.476,0.284,0.923,0.378,1.333C301.794,495.796,301.929,495.796,302.073,495.796z
	 M299.045,497.589L299.045,497.589c0.35,0.208,1.262,0.832,1.61,0.83c0.119,0,0.449-0.169,0.839-0.385
	c0.005-0.472-0.034-1.084-0.179-1.825c-0.617-0.009-1.132-0.037-1.562-0.076C299.324,496.795,298.858,497.477,299.045,497.589z
	 M301.224,495.789L301.224,495.789c-0.073-0.314-0.165-0.648-0.277-1.001c-0.211,0.183-0.447,0.357-0.706,0.522
	c-0.06,0.126-0.142,0.27-0.236,0.424C300.355,495.759,300.759,495.78,301.224,495.789z M293.692,494.094L293.692,494.094
	c0.108,0.174,2.234-0.011,2.79,0.02c0.559,0.032,0.911,0.589,1.189,0.621c0.263,0.032,2.114-0.188,2.579,0.069
	c0.201-0.142,0.384-0.291,0.549-0.447c-0.259-0.728-0.611-1.525-1.084-2.391c-0.346,0.154-0.762,0.291-1.258,0.415
	c-1.51,0.383-2.769,0.611-3.738,0.749C294.549,493.384,293.589,493.924,293.692,494.094z M228.808,431.557L228.808,431.557
	c-0.318,2.724-0.909,5.36-1.748,7.889c1.562-0.433,3.125-0.783,3.125-0.783s0.928-2.935,1.079-4.084
	c0.087-0.671,0.193-1.631,0.364-3.038L228.808,431.557z M231.089,430.497L231.089,430.497c-0.424-0.433-0.813-0.902-1.157-1.406
	l-0.916,0.004c-0.026,0.474-0.06,0.946-0.104,1.414L231.089,430.497z M218.45,475.368L218.45,475.368
	c0.557,0.28,1.653,1.099,2.641,1.372c0.316-0.678,0.641-1.409,0.863-2.015c-0.994-0.39-1.851-1.118-2.211-1.455
	C219.128,474.134,218.677,474.938,218.45,475.368z M220.342,472.482L220.342,472.482c-0.121,0.149-0.239,0.3-0.351,0.449
	c0.312,0.291,1.147,1.02,2.1,1.397c0.048-0.154,0.085-0.295,0.11-0.417c0.005-0.025,0.009-0.055,0.014-0.08
	C221.368,473.481,220.656,472.809,220.342,472.482z M220.612,472.159L220.612,472.159c0.263,0.274,0.918,0.909,1.686,1.25
	c0.197-1.035,0.444-2.368,0.607-3.142C222.06,470.681,221.281,471.39,220.612,472.159z M218.764,441.027L218.764,441.027
	l-13.973-7.971l-4.151,0.02c-0.394,0.967-0.914,1.87-1.539,2.692l0.636,1.09l2.575,3.131l12.603,7.195
	C216.415,445.288,217.707,443.226,218.764,441.027z M206.465,433.047L206.465,433.047l12.651,7.218
	c1.031-2.304,1.806-4.749,2.282-7.294L206.465,433.047z M221.544,432.132L221.544,432.132c0.03-0.179,0.057-0.359,0.085-0.538
	l-17.555,0.087l0.936,0.534L221.544,432.132z M203.336,432.224L203.336,432.224l-0.936-0.534l-1.297,0.005
	c-0.048,0.181-0.101,0.364-0.158,0.541L203.336,432.224z M214.382,447.842L214.382,447.842l-10.576-6.036l7.562,9.202
	C212.441,450.023,213.447,448.964,214.382,447.842z M194.4,459.228L194.4,459.228c2.414-0.384,4.74-1.033,6.948-1.912l-7.018-12.014
	L194.4,459.228z M194.322,443.629L194.322,443.629l7.807,13.366c2.043-0.88,3.976-1.961,5.782-3.216l-12.292-14.956
	c-0.423,0.245-0.861,0.465-1.317,0.655L194.322,443.629z M206.302,407.037L206.302,407.037l-7.195-1.523
	c-0.075,1.159-0.016,3.246-0.46,3.489c-0.406,0.227-1.337-0.202-1.847,0.048l-0.339,0.595c-0.005,0.05-0.009,0.098-0.007,0.153
	c0.005,0.996-0.14,5.988-0.233,9.076c0.227,0.151,0.446,0.309,0.664,0.472l3.587-2.094L206.302,407.037z M201.918,416.407
	L201.918,416.407l12.94-7.557l-7.696-1.631L201.918,416.407z M197.576,419.914L197.576,419.914c0.307,0.275,0.602,0.566,0.879,0.872
	l1.187-2.079L197.576,419.914z M186.223,442.218L186.223,442.218l1.187-2.078c-0.408-0.084-0.807-0.19-1.198-0.314L186.223,442.218z
	 M186.097,416.884L186.097,416.884c0.541-0.053,1.049,0.078,1.049,0.078l-1.058-1.814L186.097,416.884z M170.372,453.674
	L170.372,453.674l7.277-12.752l-13.015,7.602C166.336,450.455,168.262,452.187,170.372,453.674z M164.077,447.878L164.077,447.878
	l14.402-8.411l2.059-3.608c-0.634-0.813-1.163-1.711-1.567-2.675l-4.15,0.02l-14.756,8.617
	C161.177,443.994,162.527,446.023,164.077,447.878z M179.923,438.622L179.923,438.622l2.069-1.207
	c-0.309-0.272-0.605-0.564-0.882-0.87L179.923,438.622z M178.623,425.093L178.623,425.093l-2.394,0.014l2.077,1.184
	C178.392,425.884,178.496,425.485,178.623,425.093z M176.265,432.359L176.265,432.359l2.392-0.011
	c-0.129-0.39-0.239-0.788-0.326-1.196L176.265,432.359z M159.691,441.07L159.691,441.07l13.455-7.856l-16.048,0.08
	C157.639,436.025,158.518,438.631,159.691,441.07z M156.468,427.055L156.468,427.055c0.009,1.841,0.174,3.644,0.474,5.403
	l17.649-0.089l3.588-2.096c-0.069-0.506-0.11-1.024-0.113-1.548c-0.004-0.525,0.032-1.043,0.096-1.551l-3.607-2.059l-18.043,0.092
	C156.482,425.817,156.465,426.433,156.468,427.055z M156.566,424.37L156.566,424.37l16.534-0.085l-14.733-8.409
	C157.407,418.563,156.79,421.413,156.566,424.37z M158.662,415.081L158.662,415.081l16.112,9.194l4.151-0.02
	c0.394-0.969,0.914-1.872,1.539-2.691l-2.094-3.587l-16.352-9.332C160.673,410.644,159.544,412.802,158.662,415.081z
	 M180.116,418.973L180.116,418.973l-0.293-0.167l0.181,0.309C180.036,419.064,180.073,419.019,180.116,418.973z M162.497,407.953
	L162.497,407.953l15.029,8.578l-8.847-15.148C166.329,403.278,164.246,405.488,162.497,407.953z M185.146,394.395L185.146,394.395
	c-3.095,0.384-6.054,1.198-8.819,2.38l8.908,15.253L185.146,394.395z M185.245,413.702L185.245,413.702l-9.687-16.584
	c-2.217,1.017-4.3,2.276-6.214,3.742l9.636,16.499l2.215,1.262c0.628,0.032,1.32,0.311,1.764,0.52
	c0.075-0.053,0.148-0.11,0.227-0.163c-0.131-0.264-0.227-0.577-0.03-0.692c0.152-0.087,0.532,0.002,0.931,0.135
	c0.371-0.206,0.756-0.394,1.149-0.561c0.007-0.071,0.016-0.142,0.028-0.213L185.245,413.702z M185.373,439.522L185.373,439.522
	c-0.969-0.394-1.872-0.913-2.692-1.539l-3.587,2.096l-8.031,14.072c2.004,1.337,4.167,2.458,6.45,3.33l7.88-13.81L185.373,439.522z
	 M185.403,445.347L185.403,445.347l-7.092,12.429c2.282,0.804,4.68,1.365,7.163,1.649L185.403,445.347z M193.239,394.388
	L193.239,394.388c-1.372-0.169-2.769-0.252-4.187-0.245c-1.035,0.005-2.057,0.061-3.069,0.158l0.096,19.173l1.441,2.464
	c0.41-0.524,1.265-1.106,3.047-1.349c1.129-0.153,1.862-0.286,2.338-0.4l0.429-0.749L193.239,394.388z M193.466,439.79
	L193.466,439.79c-0.389,0.128-0.788,0.238-1.193,0.325l1.205,2.066L193.466,439.79z M193.486,443.856L193.486,443.856l-2.096-3.587
	c-0.506,0.071-1.023,0.112-1.548,0.114c-0.527,0.003-1.042-0.034-1.55-0.098l-2.06,3.608l0.078,15.615
	c1.013,0.089,2.036,0.133,3.072,0.128c1.416-0.007,2.813-0.103,4.183-0.286L193.486,443.856z M194.075,394.5L194.075,394.5
	l0.08,15.773c0.279-2.432,0.616-5.325,0.703-5.855c0.151-0.944,0.042-2.038,1.143-1.521c0.694,0.325,1.909,0.809,2.639,1.239
	l4.052-7.101C199.994,395.817,197.103,394.951,194.075,394.5z M203.453,397.393L203.453,397.393l-4.226,7.406
	c-0.012,0.023-0.023,0.053-0.034,0.087l7.438,1.576l2.968-5.202C207.709,399.755,205.65,398.454,203.453,397.393z M210.256,401.798
	L210.256,401.798l-2.765,4.844l8.177,1.734l0.398-0.233C214.416,405.779,212.46,403.647,210.256,401.798z M216.821,409.268
	L216.821,409.268l-0.747-0.158l-14.985,8.753l-2.06,3.61c0.506,0.648,0.948,1.356,1.31,2.108l8.88-2.067l10.633-6.21
	C219.047,413.175,218.029,411.155,216.821,409.268z M220.145,416.103L220.145,416.103l-8.166,4.769l8.973-2.089
	C220.72,417.873,220.449,416.978,220.145,416.103z M201.488,429.235L201.488,429.235c-0.016,0.312-0.046,0.619-0.082,0.921
	l0.85,0.485l19.505-0.096c0.053-0.467,0.096-0.939,0.128-1.413L201.488,429.235z M220.58,463.665L220.58,463.665
	c-0.073-0.018-0.183-0.02-0.316-0.014c0.353,1.015,1.14,2.344,2.854,2.687C222.307,465.214,220.999,463.768,220.58,463.665z
	 M223.292,466.581L223.292,466.581l-0.032,0.206c-2.098-0.309-3.019-1.933-3.413-3.102c-0.421,0.048-0.962,0.133-1.518,0.188
	c0.824,1.095,2.286,2.733,3.954,3.246c0.57,0.174,1.065,0.286,1.496,0.355C223.734,467.282,223.551,466.961,223.292,466.581z
	 M224.568,476.365L224.568,476.365l0.962-0.841l-0.969-0.151L224.568,476.365z M225.374,473.66L225.374,473.66l1.047,0.552
	c0,0,1.945-1.684,1.839-1.961c-0.105-0.28-1.292-0.204-1.709-0.168C226.133,472.12,225.374,473.66,225.374,473.66z M225.864,411.182
	L225.864,411.182c1.045,2.433,1.851,4.989,2.396,7.642l0.818,0.025c0.639-1.382,1.57-2.598,2.714-3.571
	c-0.002-0.121-0.002-0.231,0-0.32c0.023-0.848,0.113-1.67,0.63-2.385L225.864,411.182z M255.317,475.182L255.317,475.182
	l-8.899-3.853c0.042,0.27,0.08,0.538,0.121,0.802L255.317,475.182z M262.35,457.774L262.35,457.774
	c0.05,0.714-0.11,1.479-0.307,2.112l1.585,1.979c0.018,0.025,0.032,0.048,0.05,0.073l0.307-0.247l2.309,2.888
	c0.658,0.82,0.522,2.021-0.298,2.676l-1.51,1.207l0.944,1.182c0.282,0.353,0.225,0.863-0.128,1.145
	c-0.351,0.28-0.861,0.225-1.143-0.128l-0.944-1.18l-1.512,1.207c-0.822,0.658-2.02,0.522-2.677-0.298l-2.307-2.888l0.307-0.247
	c-0.02-0.02-0.039-0.042-0.057-0.064l-9.942-12.431c-0.603-0.754-0.479-1.851,0.272-2.453l3.936-3.145
	c0.751-0.603,1.849-0.479,2.451,0.272l0.202,0.252c0.158-0.332,0.3-0.733,0.167-0.914c-0.245-0.339-1.017-1.033-0.877-1.173
	c0.082-0.085,0.673-0.119,1.258-0.076l-7.916-10.257c-1.132,0.96-2.573,1.567-4.153,1.654c0.222,1.04,0.605,2.98,0.547,3.777
	c-0.078,1.115,0.845,4.391,1.06,5.435c0.213,1.047,0.524,7.181,0.609,10.319c0.084,3.14,0.52,6.487,1.09,8.784
	c0.208,0.843,0.449,2.211,0.669,3.605l14.321,6.198l13.132,4.563l6.918-0.034L262.35,457.774z M281.103,482.075L281.103,482.075
	l-5.866,0.028l8.047,2.797L281.103,482.075z M288.357,489.531L288.357,489.531l0.394-0.016c0,0,1.01-0.493,1.393-0.6
	c0.383-0.106,1.225,1.005,1.37,1.388c0.14,0.383-0.238,1.885,0.009,1.988c0.243,0.104,1.81-0.531,2.231-0.291
	c0.261,0.154,0.637,0.456,0.845,0.721c0.967-0.133,2.238-0.361,3.759-0.747c0.453-0.115,0.838-0.241,1.152-0.373
	c-0.044-0.08-0.09-0.158-0.135-0.238c-2.461-4.155-7.82-5.598-9.19-5.906L288.357,489.531z M290.362,485.069L290.362,485.069
	c1.539,0.357,6.879,1.867,9.373,6.082c0.055,0.089,0.103,0.179,0.156,0.268c0.401-0.222,0.628-0.468,0.676-0.731
	c0.101-0.55-0.566-1.317-2.036-2.341c-1.956-1.363-6.721-3.159-8.01-3.633L290.362,485.069z M290.691,484.331L290.691,484.331
	c1.351,0.495,6.07,2.273,8.079,3.672c1.686,1.175,2.346,2,2.208,2.761c-0.071,0.389-0.362,0.726-0.886,1.019
	c0.437,0.8,0.776,1.546,1.033,2.234c0.337-0.403,0.564-0.847,0.669-1.329c0.286-1.283-0.234-2.884-1.544-4.764
	c-0.568-0.413-1.192-0.805-1.865-1.169c-3.543-1.91-7.54-2.528-7.582-2.533l0.03-0.209L290.691,484.331z M290.923,483.816
	L290.923,483.816c0.508,0.082,4.286,0.749,7.662,2.57c0.174,0.094,0.344,0.193,0.511,0.289c-2.251-1.963-6.107-3.638-7.559-4.227
	L290.923,483.816z M297.057,476.094L297.057,476.094l-3.143,1.06l-2.206,4.909c1.794,0.723,7.023,2.996,8.847,5.561
	c1.118,0.822,2.034,1.732,2.705,2.68c-0.199-0.646-0.454-1.368-0.777-2.178c-1.062-2.669-1.635-7.023-0.057-11.24
	c1.068-2.857,1.432-6.579,1.551-8.555c-1.031-0.067-2.522-0.514-3.237-0.743L297.057,476.094z M297.176,453.039L297.176,453.039
	l7.277-12.754l-13.015,7.602C293.14,449.818,295.066,451.55,297.176,453.039z M290.884,447.242L290.884,447.242l14.401-8.409
	l2.06-3.608c-0.634-0.815-1.166-1.713-1.569-2.677l-4.151,0.023l-14.756,8.615C287.984,443.357,289.331,445.386,290.884,447.242z
	 M307.917,435.907L307.917,435.907l-1.186,2.08l0.481-0.282c0.28-0.655,0.532-1.244,0.747-1.75
	C307.944,435.94,307.931,435.924,307.917,435.907z M308.709,419.358L308.709,419.358l-2.08-1.189l1.207,2.069
	C308.111,419.928,308.405,419.635,308.709,419.358z M305.427,424.457L305.427,424.457l-2.394,0.014l2.08,1.186
	C305.198,425.25,305.303,424.849,305.427,424.457z M303.07,431.722L303.07,431.722l2.394-0.011
	c-0.131-0.389-0.238-0.788-0.325-1.196L303.07,431.722z M286.495,440.434L286.495,440.434l13.455-7.857l-16.048,0.08
	C284.443,435.388,285.322,437.995,286.495,440.434z M283.272,426.417L283.272,426.417c0.009,1.842,0.174,3.647,0.476,5.404
	l17.647-0.09l3.588-2.096c-0.069-0.506-0.11-1.023-0.112-1.548c-0.003-0.524,0.034-1.042,0.098-1.55l-3.61-2.06l-18.041,0.092
	C283.286,425.18,283.27,425.797,283.272,426.417z M283.37,423.731L283.37,423.731l16.536-0.082l-14.733-8.409
	C284.213,417.926,283.595,420.776,283.37,423.731z M285.466,414.445L285.466,414.445l16.115,9.196l4.151-0.022
	c0.391-0.969,0.913-1.872,1.539-2.692l-2.094-3.587l-16.353-9.33C287.48,410.008,286.351,412.166,285.466,414.445z M289.303,407.316
	L289.303,407.316l15.029,8.578l-8.849-15.147C293.135,402.641,291.053,404.851,289.303,407.316z M311.953,393.758L311.953,393.758
	c-3.097,0.385-6.056,1.198-8.818,2.38l8.906,15.253L311.953,393.758z M312.049,413.066L312.049,413.066l-9.684-16.584
	c-2.218,1.02-4.3,2.279-6.217,3.743l9.639,16.499l3.607,2.059c0.814-0.634,1.711-1.163,2.676-1.567L312.049,413.066z
	 M312.189,441.144L312.189,441.144l-3.425,7.912l3.436-6.02L312.189,441.144z M312.207,444.711L312.207,444.711l-6.475,11.348
	l-0.486,1.124c2.243,0.783,4.597,1.329,7.033,1.606L312.207,444.711z M320.043,393.751L320.043,393.751
	c-1.37-0.169-2.767-0.252-4.187-0.245c-1.035,0.005-2.057,0.062-3.067,0.16l0.096,19.173l2.096,3.585
	c0.508-0.069,1.022-0.11,1.548-0.113c0.527-0.002,1.045,0.032,1.551,0.096l2.059-3.605L320.043,393.751z M320.149,414.474
	L320.149,414.474l-1.186,2.077c0.406,0.085,0.807,0.193,1.198,0.316L320.149,414.474z M320.273,439.153L320.273,439.153
	c-0.39,0.129-0.791,0.238-1.196,0.328l1.207,2.066L320.273,439.153z M320.293,443.222L320.293,443.222l-2.096-3.587
	c-0.506,0.069-1.024,0.109-1.551,0.112c-0.524,0.002-1.04-0.034-1.548-0.099l-2.059,3.608l0.078,15.615
	c1.01,0.09,2.034,0.135,3.069,0.131c1.418-0.009,2.815-0.105,4.185-0.286L320.293,443.222z M320.882,393.863L320.882,393.863
	l0.087,17.482l8.53-14.946C326.801,395.18,323.908,394.314,320.882,393.863z M330.26,396.756L330.26,396.756l-9.281,16.263
	l0.02,4.151c0.969,0.394,1.872,0.914,2.691,1.542l3.587-2.096l9.128-15.993C334.513,399.118,332.454,397.819,330.26,396.756z
	 M337.06,401.161L337.06,401.161l-8.338,14.612l14.152-8.266C341.22,405.142,339.264,403.009,337.06,401.161z M343.348,408.2
	L343.348,408.2l-15.455,9.028l-2.057,3.607c0.632,0.811,1.161,1.711,1.564,2.675l4.151-0.02l15.107-8.824
	C345.792,412.376,344.676,410.212,343.348,408.2z M346.949,415.466L346.949,415.466l-13.723,8.015l15.42-0.075
	C348.408,420.645,347.829,417.985,346.949,415.466z M331.78,424.326L331.78,424.326l-3.587,2.094
	c0.071,0.508,0.109,1.023,0.112,1.55c0.005,0.524-0.032,1.042-0.098,1.551l3.61,2.059l16.534-0.084
	c0.282-1.759,0.428-3.564,0.419-5.406c-0.005-0.621-0.025-1.237-0.061-1.848L331.78,424.326z"/>
<path style="fill:#FFDFB1;" d="M291.981,403.772c15.537,0,28.133,0.811,28.133,1.81s-12.596,1.81-28.133,1.81
	c-15.538,0-28.134-0.811-28.134-1.81S276.443,403.772,291.981,403.772z M480.928,378.34c-0.832,1.523-1.682,3.035-2.54,4.54
	c-4.478,1.283-12.019,2.124-20.565,2.124c-13.741,0-24.883-2.176-24.883-4.858c0-2.683,11.142-4.858,24.883-4.858
	C468.295,375.287,477.256,376.551,480.928,378.34z M423.923,449.23c-1.402,1.219-2.82,2.419-4.25,3.607
	c-16.877-0.14-29.767-0.888-29.767-1.793C389.907,450.066,405.01,449.269,423.923,449.23z M339.028,498.226
	c-6.918,2.371-13.973,4.444-21.143,6.226c-0.487-0.371-0.744-0.76-0.744-1.157C317.141,500.922,326.333,498.913,339.028,498.226z
	 M198.478,505.508c-7.218-1.656-14.312-3.63-21.28-5.884c12.974-0.745,31.59-1.209,52.279-1.209c39.215,0,71.004,1.672,71.004,3.733
	c0,2.062-31.789,3.734-71.004,3.734C218.363,505.881,207.844,505.746,198.478,505.508z M108.241,465.072
	c-3.038-2.151-6.022-4.37-8.959-6.649c14.092,0.384,24.562,1.821,24.562,3.532C123.844,463.278,117.589,464.435,108.241,465.072z
	 M59.552,420.137c-1.116-1.333-2.213-2.682-3.301-4.036c3.884-0.133,8.221-0.206,12.8-0.206c16.6,0,30.055,0.973,30.055,2.176
	c0,1.202-13.455,2.176-30.055,2.176C65.729,420.247,62.537,420.208,59.552,420.137z M102.329,377.712
	c24.601,0,44.545,1.763,44.545,3.938c0,2.174-19.944,3.938-44.545,3.938c-24.602,0-44.546-1.764-44.546-3.938
	C57.783,379.476,77.728,377.712,102.329,377.712z M162.662,420.83c21.442,0,38.824,1.881,38.824,4.201
	c0,2.32-17.382,4.201-38.824,4.201c-21.443,0-38.824-1.881-38.824-4.201C123.838,422.711,141.219,420.83,162.662,420.83z
	 M241.725,378.924c29.957,0,54.242,1.357,54.242,3.031s-24.285,3.03-54.242,3.03s-54.242-1.356-54.242-3.03
	S211.768,378.924,241.725,378.924z M175.663,451.651c23.598,0,42.727,1.221,42.727,2.726c0,1.505-19.129,2.726-42.727,2.726
	s-42.727-1.221-42.727-2.726C132.936,452.872,152.065,451.651,175.663,451.651z M220.751,476.791c22.041,0,39.91,0.055,39.91,0.123
	c0,0.069-17.869,0.124-39.91,0.124c-22.04,0-39.909-0.055-39.909-0.124C180.842,476.845,198.711,476.791,220.751,476.791z
	 M338.696,440.285c18.912,0,34.242,0.916,34.242,2.046c0,1.129-15.331,2.046-34.242,2.046c-18.911,0-34.242-0.917-34.242-2.046
	C304.453,441.201,319.785,440.285,338.696,440.285z M339.908,470.439c15.565,0,28.181,0.678,28.181,1.514
	s-12.616,1.514-28.181,1.514c-15.565,0-28.182-0.678-28.182-1.514S324.343,470.439,339.908,470.439z M387.832,382.864
	c14.2,0,25.712,1.967,25.712,4.393c0,2.426-11.512,4.393-25.712,4.393c-14.199,0-25.712-1.968-25.712-4.393
	C362.119,384.831,373.633,382.864,387.832,382.864z M411.771,414.075c15.42,0,27.923,1.695,27.923,3.787
	c0,2.091-12.502,3.786-27.923,3.786s-27.923-1.695-27.923-3.786C383.848,415.771,396.351,414.075,411.771,414.075z"/>
<path style="fill:#FFFFFF;" d="M224.818,25.77c4.755,0,9.241,0.932,13.21,2.584c4.297-3.473,10.184-5.614,16.678-5.614
	c11.245,0,20.671,6.423,23.192,15.06c5.621,1.395,10.13,4.897,12.186,9.392c0.675-0.064,1.36-0.092,2.054-0.092
	c10.386,0,18.815,6.952,18.815,15.529c0,8.576-8.429,15.525-18.815,15.525c-3.239,0-6.285-0.675-8.942-1.862
	c-2.284,6.453-9.506,11.165-18.066,11.165c-5.225,0-9.953-1.759-13.366-4.602c-3.411,2.842-8.141,4.602-13.37,4.602
	c-4.966,0-9.49-1.592-12.855-4.188c-3.436,3.104-8.381,5.051-13.883,5.051c-5.152,0-9.814-1.699-13.203-4.467
	c-1.556,0.286-3.175,0.433-4.829,0.433c-12.383,0-22.416-8.283-22.416-18.497c0-10.217,10.033-18.497,22.416-18.497
	c0.671,0,1.345,0.025,2.002,0.078C197.216,35.223,209.679,25.77,224.818,25.77z"/>
<g>
	<path d="M362.122,106.361c0,0-5.791-1.242-10.638-0.314c-4.858,0.93-9.918,4.959-15.395,5.271
		c-5.475,0.307-4.337-1.759-4.337-1.759s3.512,0.52,4.444-2.476c0.925-2.996-2.896-5.376-8.78-9.502
		c-5.891-4.132-7.027-8.265-5.891-10.85c0,0,1.035,1.654,5.891,4.238c4.854,2.584,8.363,7.337,12.184,10.738
		c3.823,3.413,4.032,3.617,7.647,2.895C350.859,103.878,358.608,102.743,362.122,106.361z"/>
	<path d="M374.4,65.093c0,0-5.79-1.242-10.637-0.314c-4.858,0.93-9.918,4.959-15.395,5.271c-5.474,0.307-4.336-1.759-4.336-1.759
		s3.512,0.52,4.444-2.476c0.926-2.996-2.895-5.376-8.78-9.502c-5.892-4.132-7.028-8.265-5.892-10.85c0,0,1.035,1.654,5.892,4.238
		c4.854,2.584,8.363,7.337,12.184,10.738c3.823,3.413,4.031,3.617,7.646,2.895C363.137,62.61,370.886,61.475,374.4,65.093z"/>
</g>
<g>
</g>
<g>
</g>
<g>
</g>
<g>
</g>
<g>
</g>
<g>
</g>
<g>
</g>
<g>
</g>
<g>
</g>
<g>
</g>
<g>
</g>
<g>
</g>
<g>
</g>
<g>
</g>
<g>
</g>
</svg>
