<?xml version="1.0" encoding="iso-8859-1"?>
<!-- Generator: Adobe Illustrator 19.0.0, SVG Export Plug-In . SVG Version: 6.00 Build 0)  -->
<svg version="1.1" id="Layer_1" xmlns="http://www.w3.org/2000/svg" xmlns:xlink="http://www.w3.org/1999/xlink" x="0px" y="0px"
	 viewBox="0 0 512 512" style="enable-background:new 0 0 512 512;" xml:space="preserve">
<path style="fill:#7E93A8;" d="M256,0c141.383,0,256,114.611,256,256c0,141.383-114.617,256-256,256C114.611,512,0,397.383,0,256
	C0,114.611,114.611,0,256,0z"/>
<path style="fill:#FFFFFF;" d="M270.222,45.522c72.075,0,130.5,58.425,130.5,130.494c0,72.075-58.425,130.5-130.5,130.5
	c-72.069,0-130.494-58.425-130.494-130.5C139.728,103.946,198.153,45.522,270.222,45.522z"/>
<g>
	<path style="fill:#F9F9F9;" d="M278.802,143.303c19.887,0,36.011,16.118,36.011,36.005c0,19.893-16.124,36.011-36.011,36.011
		c-19.887,0-36.011-16.118-36.011-36.011C242.791,159.421,258.915,143.303,278.802,143.303z"/>
	<path style="fill:#F9F9F9;" d="M331.037,60.539c21.536,11.366,39.503,28.573,51.799,49.52c-6.295,5.394-14.481,8.657-23.421,8.657
		c-19.887,0-36.011-16.124-36.011-36.011C323.405,74.348,326.261,66.652,331.037,60.539z"/>
	<path style="fill:#F9F9F9;" d="M180.668,140.517c19.887,0,36.005,16.124,36.005,36.011s-16.118,36.011-36.005,36.011
		c-19.893,0-36.017-16.124-36.017-36.011S160.775,140.517,180.668,140.517z"/>
</g>
<g>
	<path style="fill:#E6D76A;" d="M511.676,269.003c-18.568,1.213-33.885-1.072-54.756-3.392c-16.99-1.89-34.191,6.401-51.169,4.452
		c-14.134-1.625-27.666-9.146-41.782-7.402c-11.142,1.384-21.077,8.433-32.278,9.222c-13.739,0.96-26.553-7.626-40.322-7.932
		c-16.978-0.383-32.024,11.749-48.961,12.991c-13.927,1.019-27.619-5.447-41.535-4.317c-11.136,0.901-21.33,6.572-32.295,8.71
		c-18.38,3.598-37.13-2.933-55.845-3.48c-16.607-0.483-40.828,9.658-57.418,10.524c-19.911,1.048-36.523-6.337-53.737-3.922
		C15.741,412.447,124.234,512,256,512C393.025,512,504.898,404.349,511.676,269.003z"/>
	<path style="fill:#E6E67D;" d="M490.128,359.658c-42.283-8.227-84.678-24.127-127.414-20.871
		c-31.241,2.379-60.969,14.923-92.151,17.95c-65.821,6.378-131.407-30.034-196.457-18.079c-17.997,3.31-36.364,10.27-54.567,15.57
		C58.065,446.862,149.421,512,256,512C360.488,512,450.336,449.4,490.128,359.658z"/>
	<path style="fill:#E6BA72;" d="M98.476,437.033c0,0,72.753,0.795,173.631-31.212c46.199-14.658,93.346-28.414,141.771-26.094
		c20.659,0.989,41.223,3.981,61.593,8.121C430.679,462.232,349.158,512,256,512c-59.408,0-114.087-20.24-157.524-54.196V437.033z"/>
	<path style="fill:#E6CC71;" d="M434.218,439.748c-31.465-1.725-115.995-8.521-196.068-33.926
		c-46.193-14.658-93.346-28.414-141.766-26.094c-20.14,0.96-40.181,3.828-60.038,7.809C81.091,462.097,162.713,512,256,512
		C325.284,512,388.131,484.463,434.218,439.748z"/>
	<path style="fill:#E6BA72;" d="M418.412,453.888C367.16,447.398,315.738,439,265.734,432.67
		c-35.823-4.529-72.258-7.662-107.951-2.179c-23.691,3.633-46.558,10.983-69.101,19.263C133.55,488.538,192.034,512,256,512
		C317.658,512,374.221,490.199,418.412,453.888z"/>
</g>
<path style="fill:#808080;" d="M331.933,124.369c-0.206-0.86-0.336-1.849-1.661-2.191c-0.082,1.048-0.171,2.002-0.224,2.956
	c-0.194,3.846-0.094,7.732-0.648,11.525c-0.53,3.592-1.566,7.143-2.697,10.606c-0.695,2.12-2.279,3.757-4.682,4.929
	c1.284-5.353-0.018-10.235-1.296-15.064c-1.172-4.423-1.407-8.863-1.16-13.386c0.253-4.688-0.436-9.269-2.238-13.609
	c-1.92-4.641-4.54-8.886-7.715-12.761c-1.796-1.884-3.598-3.757-5.43-5.606c-2.202-1.502-4.222-3.239-6.425-4.735
	c-0.241,0.218-0.483,0.442-0.736,0.677c0.024,0.035,0.047,0.071,0.071,0.112c0.96,0.989,1.902,1.99,2.821,3.015
	c1.349,0.925,2.756,2.709,3.345,3.41c0.347,0.412,0.683,0.83,1.001,1.254c0.059,0.059,0.118,0.106,0.177,0.171
	c0.124,0.059,0.247,0.147,0.365,0.277c0.265,0.294,0.512,0.595,0.754,0.901c0.212,0.247,0.406,0.501,0.601,0.754
	c0.082,0.047,0.165,0.1,0.224,0.171c0.689,0.73,1.19,1.649,1.696,2.532c2.473,4.317,3.975,9.004,4.941,13.839
	c0.671,3.351,1.107,6.778,1.296,10.188c0.147,2.638-0.966,3.192-3.068,1.661c-3.451-2.515-6.766-5.206-10.147-7.809
	c-2.503-1.926-4.994-3.863-7.532-5.724c-0.807-0.595-1.661-1.307-3.098-1.042c0.4,0.83,0.671,1.496,1.031,2.12
	c2.632,4.482,6.478,7.85,10.37,11.16c3.993,3.404,8.009,6.749,10.583,11.489c3.463,6.413,4.811,13.032,2.485,20.117
	c-1.272,3.875-3.315,7.349-5.718,10.624c-1.172,1.602-2.397,3.174-3.598,4.758c1.425-3.81,2.038-7.709,2.138-11.66
	c0.053-2.108-0.324-4.228-0.601-6.337c-0.059-0.471-0.483-0.895-0.736-1.337c-0.448,0.554-0.589,1.025-0.654,1.502
	c-0.66,4.8-1.643,9.517-3.533,13.998c-1.566,3.716-3.81,6.996-6.596,9.917c-4.434,4.67-8.892,9.322-13.291,14.028
	c-0.642,0.695-1.243,1.131-2.149,0.842c-3.292-1.031-6.513-0.565-9.734,0.318c-0.442,0.124-1.137,0.094-1.437-0.171
	c-1.82-1.643-3.81-3.18-5.282-5.106c-4.205-5.506-7.002-11.813-9.328-18.279c-1.696-4.705-2.927-9.581-4.358-14.381
	c-0.124-0.4-0.259-0.801-0.477-1.46c-1.284,1.814-1.284,3.575-1.207,5.33c0.277,6.378,2.038,12.42,4.187,18.374
	c0.624,1.743,1.378,3.427,1.967,4.876c-3.339-2.679-6.713-5.589-10.3-8.209c-4.564-3.339-8.833-6.943-12.361-11.378
	c-4.152-5.229-6.26-11.036-4.835-17.767c0.872-4.099,2.821-7.726,5.059-11.236c2.214-3.475,4.399-6.978,6.395-10.583
	c1.184-2.126,1.201-4.576,0.942-7.002c-0.306,0.265-0.501,0.559-0.677,0.866c-1.89,3.198-3.692,6.443-5.701,9.564
	c-0.866,1.337-2.026,2.556-3.274,3.563c-1.455,1.184-2.968,0.883-3.869-0.76c-0.748-1.36-1.366-2.874-1.637-4.387
	c-1.025-5.689-0.041-11.23,1.979-16.53c2.338-6.119,5.4-11.908,9.016-17.396c0.236-0.359,0.442-0.754,0.654-1.131
	c-0.094-0.124-0.183-0.241-0.277-0.365c-0.612,0.3-1.325,0.489-1.82,0.919c-0.771,0.665-1.455,1.449-2.061,2.267
	c-3.81,5.112-6.861,10.659-9.699,16.371c-3.233,6.519-4.128,13.185-2.797,20.282c0.66,3.551,1.072,7.149,1.513,10.742
	c0.094,0.724-0.183,1.49-0.289,2.244c-0.171-0.006-0.353-0.012-0.518-0.018c-0.265-0.966-0.595-1.92-0.777-2.909
	c-0.607-3.286-1.142-6.584-1.761-9.864c-0.124-0.648-0.489-1.254-0.742-1.879c-0.124,0.047-0.247,0.094-0.371,0.141
	c-0.018,0.312-0.071,0.624-0.053,0.93c0.3,5.471,0.477,10.942,0.954,16.389c0.453,5.153,1.614,10.176,4.028,14.823
	c0.524,1.007,1.148,1.961,1.914,3.262c0.147-0.742,0.212-1.066,0.218-1.084c0.371,0.86,0.589,2.126,1.313,2.95
	c2.35,2.674,4.794,5.288,7.379,7.744c2.35,2.226,5.053,4.087,7.385,6.337c2.303,2.22,5.182,3.675,7.426,5.971
	c1.113,1.142,2.479,2.055,3.869,3.18c-1.773-0.536-3.333-1.089-4.929-1.472c-2.25-0.542-2.968,0.018-3.221,2.326
	c-0.047,0.412-0.024,0.836,0.024,1.243c0.577,4.858,2.727,8.934,6.301,12.226c1.684,1.549,3.563,2.821,6.007,2.939
	c2.185,0.106,4.075,1.49,4.228,3.645c0.183,2.568,0.724,5.171-0.559,7.779c-1.384,2.803-2.697,5.712-2.88,8.945
	c-0.065,1.154,0.041,2.356-0.247,3.457c-0.542,2.043-1.319,4.028-1.996,6.036c-1.578,4.758-4.959,7.455-9.976,7.349
	c-2.144-0.047-3.963,0.642-5.901,1.166c-0.418,0.112-0.848,0.177-1.519,0.318c-0.094,0.041-0.188,0.077-0.289,0.112
	c0.018,0.006,0.024,0.012,0.035,0.012c-0.683,0.724-1.154,0.813-1.513,0.589c-0.177,0.077-0.353,0.141-0.53,0.218
	c-0.088,0.059-0.183,0.112-0.277,0.171c0.094,0.124,0.194,0.247,0.294,0.371c-3.05,1.225-3.769,4.087-4.853,6.755
	c-0.424,1.048-1.207,1.943-1.837,2.909c-0.424,0.665-0.93,1.284-1.278,1.985c-2.173,4.34-2.992,9.045-3.634,13.792
	c-0.053,0.377,0.212,0.795,0.336,1.213c-0.171,0.33-0.559,0.748-0.601,1.195c-0.459,4.858-0.713,9.77,0.43,14.522
	c0.718,2.997,1.125,5.954,1.331,9.01c0.241,3.645,0.777,7.279,1.284,10.901c0.265,1.879,1.007,3.71,1.084,5.583
	c0.171,4.458,1.49,8.568,3.239,12.591c2.138,4.894,3.687,9.905,3.498,15.347c-0.112,3.151-0.059,6.307,0.006,9.458
	c0.029,1.243,0.194,2.509,0.495,3.71c1.307,5.141,1.36,10.406,1.195,15.629c-0.118,3.775-0.989,7.526-1.608,11.272
	c-0.654,3.922-0.795,7.944-2.338,11.695c-0.218,0.536-0.224,1.19-0.206,1.784c0.059,1.566,1.031,2.42,2.544,2.126
	c0.577-0.106,1.084-0.612,1.696-0.978c1.131,1.778,3.704,1.82,4.641-0.059c0.542-1.095,0.607-2.473,0.701-3.74
	c0.112-1.443,0.029-2.897,0.029-4.44c0.336,0.259,0.571,0.442,1.142,0.866c-0.318-2.915-0.448-5.506-0.901-8.038
	c-1.337-7.432-0.989-14.893-0.471-22.349c0.141-1.926,0.919-3.828,0.942-5.748c0.035-2.862-0.353-5.736-0.536-8.604
	c-0.353-5.665-0.353-11.33,1.154-16.854c0.424-1.561,1.325-2.98,2.008-4.47c0.188,0.047,0.371,0.094,0.559,0.141
	c0,0.559,0.006,1.119,0,1.678c-0.018,1.619-0.094,3.239-0.053,4.858c0.065,2.367,0.3,4.729,0.318,7.09
	c0.029,5.07,0.183,10.111,1.926,14.97c0.583,1.608,1.048,3.315,1.172,5.012c0.495,6.843,0.824,13.704,1.225,20.558
	c0.124,2.114,0.271,4.228,0.412,6.342c0.124-0.1,0.241-0.194,0.365-0.294c0.495,0.253,1.089,0.412,1.466,0.783
	c1.437,1.437,1.437,3.363,1.543,5.206c0.077,1.225,0.371,2.232,1.407,3.027c0.395,0.3,0.777,1.013,0.707,1.472
	c-0.33,2.202-0.795,4.381-1.243,6.56c-0.271,1.313-0.707,2.609-0.824,3.934c-0.047,0.524,0.418,1.366,0.889,1.614
	c1.572,0.824,3.045,0.153,3.716-1.502c0.135-0.347,0.289-0.689,0.554-1.325c0.418,1.649,0.93,2.986,2.503,2.962
	c1.702-0.029,2.727-1.195,3.386-2.709c0.866-2.002,1.042-4.016,0.23-6.089c-0.206-0.536-0.247-1.131-0.412-1.89
	c0.618,0.247,1.007,0.406,1.643,0.66c-0.3-0.707-0.548-1.148-0.671-1.625c-0.506-1.867-1.113-3.722-1.425-5.624
	c-0.371-2.232-0.306-4.54-0.742-6.755c-0.683-3.469-0.713-6.902-0.277-10.382c0.495-3.999,1.066-8.009,1.225-12.025
	c0.106-2.515-0.801-5.07-0.707-7.597c0.171-4.764,0.795-9.511,1.107-14.275c0.259-4.016,0.253-8.05,0.542-12.061
	c0.153-2.049,0.459-4.14,1.101-6.077c0.595-1.79,2.45-2.456,4.393-2.079c1.425,0.277,2.267,1.36,2.426,3.321
	c0.071,0.872-0.088,1.755-0.1,2.632c-0.018,2.491-0.371,5.041,0.047,7.45c0.93,5.335,1.39,10.671,1.19,16.077
	c-0.106,2.968-0.253,5.936-0.23,8.904c0.012,2.226,0.265,4.44,1.484,6.431c0.4,0.648,0.601,1.466,0.718,2.238
	c0.842,5.412,1.714,10.818,2.426,16.248c0.53,4.052,1.054,8.162-1.867,11.719c-0.33,0.4-0.294,1.101-0.424,1.661l0.212,0.024
	c0.236-0.436,0.459-0.872,0.701-1.307c0.118,0.047,0.241,0.094,0.359,0.135c-0.053,0.63-0.041,1.272-0.159,1.89
	c-0.371,1.961-0.813,3.91-1.172,5.865c-0.094,0.53-0.171,1.195,0.065,1.614c1.007,1.784,2.391,3.21,4.482,3.698
	c2.202,0.512,2.356,0.406,2.974-1.826c0.065-0.241,0.188-0.465,0.353-0.842c0.365,0.872,0.477,1.967,0.983,2.197
	c1.19,0.53,2.167-0.383,3.056-1.142c0.683-0.589,0.501-1.166,0.035-1.826c-1.725-2.426-2.809-5.118-3.139-8.091
	c-0.607-5.436-1.307-10.871-1.784-16.324c-0.524-5.948-1.413-11.908-0.342-17.897c0.289-1.602,0.483-3.233,0.495-4.847
	c0.047-5.341,0.065-10.635,1.396-15.894c1.549-6.107,2.326-12.39,4.641-18.327c0.995-2.544,1.284-5.383,1.802-8.097
	c0.312-1.625,0.006-3.516,0.736-4.894c4.01-7.573,5.53-15.712,5.865-24.133c0.177-4.546,0.047-9.104,0.035-13.657
	c0-0.872,0.024-1.773-0.165-2.621c-0.636-2.891-1.231-5.807-2.091-8.639c-1.16-3.798-1.107-7.544-0.371-11.407
	c0.978-5.171,1.413-10.394,0.683-15.653c-0.453-3.31-1.089-6.59-1.372-9.911c-0.389-4.711-0.548-9.44-0.748-14.163
	c-0.018-0.4,0.3-1.019,0.636-1.195c1.443-0.742,2.98-1.29,4.411-2.043c1.619-0.848,3.327-1.643,4.711-2.803
	c2.167-1.814,3.38-4.358,4.535-6.914c0.96-2.126,1.142-4.275,0.66-6.519c-0.471-2.208-1.213-2.603-3.339-1.731
	c-1.932,0.783-3.828,1.661-5.807,2.297c-1.49,0.477-2.656,1.172-3.551,2.479c-1.007,1.478-2.102,2.921-4.158,3.657
	c0.4-0.565,0.618-0.966,0.913-1.284c2.185-2.332,4.311-4.723,6.584-6.967c4.617-4.57,9.34-9.016,13.957-13.58
	c4.747-4.682,8.627-10.053,12.373-15.553c3.734-5.483,7.255-11.012,8.015-17.826C333.051,134.663,333.205,129.493,331.933,124.369z
	 M255.729,373.668L255.729,373.668c-3.392-8.951-2.409-18.285-2.656-27.926c1.207,3.422,2.744,6.425,2.167,9.752
	c-0.689,3.94-0.029,7.732,0.442,11.595C255.941,369.251,255.729,371.471,255.729,373.668z"/>
<g>
	<path style="fill:#FFFFFF;" d="M88.299,95.896c2.338,0,4.228,1.89,4.228,4.222c0,2.338-1.89,4.228-4.228,4.228
		c-2.332,0-4.222-1.89-4.222-4.228C84.077,97.787,85.967,95.896,88.299,95.896z"/>
	<path style="fill:#FFFFFF;" d="M107.427,168.254c2.332,0,4.228,1.89,4.228,4.228c0,2.332-1.896,4.222-4.228,4.222
		c-2.332,0-4.228-1.89-4.228-4.222C103.199,170.145,105.095,168.254,107.427,168.254z"/>
	<path style="fill:#FFFFFF;" d="M192.958,26.665c2.332,0,4.222,1.89,4.222,4.228c0,2.332-1.89,4.222-4.222,4.222
		c-2.338,0-4.228-1.89-4.228-4.222C188.73,28.556,190.621,26.665,192.958,26.665z"/>
	<path style="fill:#FFFFFF;" d="M332.027,28.479c2.332,0,4.222,1.89,4.222,4.228c0,2.332-1.89,4.222-4.222,4.222
		c-2.338,0-4.228-1.89-4.228-4.222C327.798,30.369,329.689,28.479,332.027,28.479z"/>
	<path style="fill:#FFFFFF;" d="M416.557,168.254c2.332,0,4.228,1.89,4.228,4.228c0,2.332-1.896,4.222-4.228,4.222
		s-4.228-1.89-4.228-4.222C412.329,170.145,414.225,168.254,416.557,168.254z"/>
	<path style="fill:#FFFFFF;" d="M425.008,90.973c2.338,0,4.228,1.89,4.228,4.222c0,2.338-1.89,4.228-4.228,4.228
		c-2.332,0-4.222-1.89-4.222-4.228C420.786,92.863,422.676,90.973,425.008,90.973z"/>
	<path style="fill:#FFFFFF;" d="M56.305,174.39c2.332,0,4.222,1.89,4.222,4.222c0,2.338-1.89,4.228-4.222,4.228
		c-2.338,0-4.228-1.89-4.228-4.228C52.076,176.281,53.967,174.39,56.305,174.39z"/>
</g>
<g>
</g>
<g>
</g>
<g>
</g>
<g>
</g>
<g>
</g>
<g>
</g>
<g>
</g>
<g>
</g>
<g>
</g>
<g>
</g>
<g>
</g>
<g>
</g>
<g>
</g>
<g>
</g>
<g>
</g>
</svg>
