<?xml version="1.0" encoding="iso-8859-1"?>
<!-- Generator: Adobe Illustrator 19.0.0, SVG Export Plug-In . SVG Version: 6.00 Build 0)  -->
<svg version="1.1" id="Layer_1" xmlns="http://www.w3.org/2000/svg" xmlns:xlink="http://www.w3.org/1999/xlink" x="0px" y="0px"
	 viewBox="0 0 512 512" style="enable-background:new 0 0 512 512;" xml:space="preserve">
<path style="fill:#FFCBBB;" d="M256,0c141.386,0,256,114.614,256,256c0,141.386-114.614,256-256,256C114.614,512,0,397.386,0,256
	C0,114.614,114.614,0,256,0z"/>
<path style="fill:#FFAA8F;" d="M173.881,113.768l0.002,2.043c0.011,5.191,0.403,6.329,1.132,9.426l0.055-0.007
	c6.233,36.522,36.419,64.868,73.82,68.299l0.311,0.03c0.493,0.039,0.99,0.082,1.486,0.117l0.658,0.041
	c0.421,0.03,0.843,0.053,1.269,0.073c0.27,0.014,0.549,0.018,0.822,0.032c0.382,0.011,0.756,0.028,1.136,0.042
	c0.44,0.007,0.878,0.009,1.318,0.013c0.215,0.005,0.431,0.007,0.646,0.007h0.096c0.621,0,1.242-0.012,1.855-0.02l0.295-0.007
	c0.587-0.02,1.166-0.041,1.746-0.069l0.497-0.023c0.515-0.03,1.033-0.064,1.546-0.101l0.728-0.057
	c0.337-0.028,0.671-0.057,1.003-0.09c37.078-3.456,67.042-31.395,73.566-67.493c0.795-3.099,0.805-4.066,1.203-8.977h0.002
	l0.092-0.003l0,0h0.003c0.011-0.311,0.018-0.619,0.023-0.925v-0.023v-0.022v-0.021v-0.048v-0.022v-0.021l0,0v-0.022v-0.026v-0.066
	v-0.023v-0.023v-0.02v-0.025h0.002v-0.023v-0.023v-0.02v-0.025v-0.023v-0.018v-0.022c0.52-6.162-0.284-16.289-2.375-24.125
	l-0.11-0.419c-9.004-35.894-41.483-62.481-80.172-62.481c-39.625,0-72.734,27.888-80.784,65.11l0,0
	c-0.009,0.03-0.018,0.057-0.025,0.085l-0.135,0.504l-0.082,0.305l-0.142,0.545c-1.024,4.217-1.347,9.249-1.443,13.65
	c-0.026,0.818-0.042,1.635-0.042,2.458v0.158C173.881,112.225,173.881,113.022,173.881,113.768z"/>
<path style="fill:#FFA082;" d="M191.418,113.228l0.002,1.612c0.009,4.089,0.317,4.989,0.892,7.424l0.044-0.003
	c4.911,28.779,28.699,51.118,58.17,53.823l0.247,0.023c0.389,0.032,0.779,0.064,1.171,0.092l0.518,0.032
	c0.332,0.023,0.667,0.042,1.001,0.06c0.215,0.009,0.431,0.013,0.648,0.025c0.3,0.007,0.596,0.02,0.896,0.03
	c0.346,0.007,0.692,0.009,1.037,0.011c0.169,0.005,0.339,0.007,0.508,0.007h0.076c0.488,0,0.978-0.009,1.464-0.018l0.231-0.005
	c0.463-0.014,0.921-0.032,1.377-0.053l0.389-0.018c0.408-0.025,0.816-0.05,1.221-0.08l0.572-0.044
	c0.268-0.023,0.527-0.046,0.793-0.073c29.217-2.722,52.828-24.739,57.971-53.187c0.625-2.439,0.632-3.2,0.946-7.071h0.003
	l0.071-0.002l0,0h0.002c0.009-0.245,0.014-0.488,0.018-0.731v-0.018v-0.018v-0.016v-0.037v-0.018v-0.016l0,0v-0.018v-0.018v-0.052
	v-0.018v-0.018v-0.016v-0.018h0.002v-0.018v-0.018v-0.018v-0.018v-0.018v-0.016v-0.018c0.41-4.856-0.222-12.837-1.874-19.008
	l-0.084-0.332c-7.097-28.287-32.69-49.237-63.178-49.237c-31.225,0-57.315,21.978-63.656,51.31h-0.002
	c-0.007,0.023-0.012,0.046-0.018,0.067l-0.106,0.396l-0.066,0.243l-0.115,0.429c-0.804,3.321-1.058,7.288-1.136,10.754
	c-0.018,0.646-0.032,1.29-0.032,1.938v0.123C191.418,112.014,191.418,112.639,191.418,113.228z"/>
<path style="fill:#FF9574;" d="M214.677,112.517v1.035c0.007,2.632,0.206,3.21,0.575,4.776l0.027-0.002
	c3.159,18.511,18.461,32.882,37.418,34.62l0.158,0.016c0.252,0.021,0.502,0.042,0.754,0.06l0.332,0.02
	c0.215,0.014,0.431,0.023,0.644,0.034c0.14,0.007,0.279,0.009,0.419,0.018c0.193,0.005,0.382,0.014,0.578,0.018
	c0.22,0.005,0.444,0.007,0.666,0.007c0.108,0.003,0.218,0.005,0.328,0.005h0.048c0.314,0,0.63-0.005,0.939-0.011l0.151-0.003
	c0.298-0.009,0.592-0.02,0.887-0.034l0.249-0.011c0.261-0.014,0.522-0.03,0.783-0.051l0.369-0.027
	c0.172-0.016,0.342-0.03,0.511-0.046c18.792-1.752,33.981-15.915,37.289-34.213c0.403-1.571,0.408-2.059,0.609-4.549h0.003
	l0.046-0.002l0,0h0.003c0.005-0.158,0.009-0.314,0.011-0.47v-0.012v-0.011v-0.012v-0.022v-0.012v-0.011l0,0v-0.011v-0.012v-0.034
	v-0.011v-0.012v-0.011v-0.011l0,0v-0.012v-0.011v-0.011v-0.014v-0.012v-0.009v-0.011c0.264-3.125-0.144-8.255-1.202-12.229
	l-0.057-0.211c-4.566-18.194-21.026-31.673-40.638-31.673c-20.086,0-36.87,14.138-40.947,33.006h-0.002
	c-0.005,0.011-0.007,0.027-0.011,0.041l-0.069,0.257l-0.041,0.156l-0.073,0.275c-0.518,2.139-0.683,4.691-0.733,6.92
	c-0.011,0.412-0.02,0.827-0.02,1.244v0.08C214.677,111.734,214.677,112.138,214.677,112.517z"/>
<path style="fill:#FFFFFF;" d="M229.639,112.057v0.667c0.005,1.693,0.131,2.064,0.369,3.072l0.018-0.003
	c2.032,11.909,11.872,21.152,24.067,22.27l0.104,0.011c0.16,0.012,0.32,0.025,0.483,0.037l0.215,0.014
	c0.138,0.009,0.275,0.018,0.412,0.025c0.09,0.005,0.181,0.005,0.27,0.009c0.121,0.005,0.245,0.009,0.369,0.014
	c0.144,0.002,0.289,0.002,0.431,0.005c0.069,0.002,0.14,0.002,0.211,0.002h0.03c0.204,0,0.406-0.005,0.607-0.007l0.096-0.003
	c0.191-0.007,0.38-0.014,0.568-0.023l0.162-0.007c0.168-0.009,0.337-0.02,0.505-0.032l0.235-0.018c0.113-0.009,0.22-0.021,0.33-0.03
	c12.087-1.127,21.859-10.236,23.985-22.006c0.261-1.012,0.263-1.326,0.392-2.925l0,0l0.03-0.003l0,0h0.002
	c0.003-0.103,0.005-0.201,0.007-0.302v-0.009v-0.007v-0.007v-0.016v-0.007v-0.007l0,0v-0.007v-0.009v-0.021v-0.007v-0.009v-0.007
	v-0.007l0,0v-0.007v-0.009v-0.007v-0.007v-0.007v-0.007v-0.009c0.169-2.006-0.09-5.309-0.772-7.864l-0.036-0.135
	c-2.935-11.705-13.526-20.375-26.141-20.375c-12.922,0-23.717,9.094-26.34,21.23l0,0c-0.002,0.009-0.005,0.02-0.007,0.027
	l-0.046,0.168l-0.025,0.098l-0.048,0.177c-0.334,1.376-0.437,3.016-0.47,4.451c-0.009,0.268-0.014,0.534-0.014,0.801v0.053
	C229.639,111.553,229.639,111.814,229.639,112.057z"/>
<path style="fill:#FFB650;" d="M64.003,283.895c41.343-14.683,91.116-90.062,120.275-113.532
	c29.157-23.469,56.052-60.722,72.336-59.132c16.284-1.589,43.176,35.663,72.336,59.132c29.159,23.47,78.932,95.107,120.276,109.79
	v24.952H256.614H64.003V283.895z"/>
<path style="fill:#FBA131;" d="M64.003,283.895c41.343-14.683,93.695-63.445,120.275-84.84
	c31.739-25.545,56.052-60.717,72.336-59.13c16.284-1.587,40.597,33.585,72.336,59.13c26.58,21.395,78.932,70.157,120.276,84.84
	v21.209H256.614H64.003V283.895z"/>
<g>
	<path style="fill:#FFB54C;" d="M511.383,273.651c-7.259-0.675-14.864-1.507-23.245-2.34c-19.631-1.957-39.518,6.638-59.144,4.613
		c-16.328-1.684-31.977-9.479-48.291-7.671c-12.876,1.429-24.363,8.741-37.31,9.556c-15.874,0.998-30.692-7.9-46.602-8.224
		c-19.624-0.394-37.012,12.184-56.59,13.471c-16.096,1.058-31.92-5.644-48.007-4.476c-12.873,0.934-24.651,6.815-37.328,9.034
		c-21.246,3.725-42.913-3.041-64.55-3.607c-19.193-0.504-47.187,10.009-66.364,10.912c-7.394,0.348-14.398-0.206-21.158-1.037
		C21.104,417.306,127.487,512,256,512C391.451,512,502.315,406.801,511.383,273.651z"/>
	<path style="fill:#FFB54C;" d="M7.44,276.714c0,0,36.826-31.645,63.278-34.739c26.452-3.097,79.363,29.649,101.5,31.418
		c22.137,1.773,85.305-55.756,110.137-46.023c24.835,9.738,82.064,37.614,113.919,42.484c31.851,4.868,79.904-48.678,102.579-54.874
		c3.204-0.877,6.386-1.601,9.496-2.18C510.738,226.842,512,241.274,512,256c0,11.82-0.818,23.445-2.369,34.841
		c-112.536,17.981-371.257,39.513-429.036,19.158C22.036,289.37,7.44,276.714,7.44,276.714z"/>
</g>
<path style="fill:#F98B00;" d="M0.813,276.437c16.859-8.473,47.814-15.32,69.756-2.341c21.894,12.944,26.014,14.076,40.214,11.041
	c66.272-37.099,100.448-24.958,131.745,8.388c5.42,4.143,11.577,7.385,18.201,9.927c6.626-2.542,12.784-5.784,18.201-9.927
	c31.301-33.347,65.48-45.487,131.752-8.388c14.197,3.035,18.318,1.903,40.207-11.041c18.391-10.876,43.114-7.827,60.564-1.567
	c-1.102,17.287-3.922,34.108-8.283,50.293H8.828C4.792,307.857,2.071,292.354,0.813,276.437z"/>
<path style="fill:#FFFFFF;" d="M58.69,131.475c2.918,0,5.671,0.573,8.109,1.587c2.639-2.132,6.251-3.447,10.236-3.447
	c6.904,0,12.69,3.942,14.239,9.247c3.45,0.857,6.219,3.005,7.479,5.761c0.417-0.034,0.836-0.053,1.262-0.053
	c6.374,0,11.549,4.265,11.549,9.531c0,5.264-5.174,9.529-11.549,9.529c-1.988,0-3.858-0.412-5.491-1.141
	c-1.4,3.961-5.834,6.854-11.089,6.854c-3.207,0-6.109-1.082-8.205-2.826c-2.091,1.745-4.996,2.826-8.207,2.826
	c-3.047,0-5.822-0.978-7.891-2.57c-2.107,1.903-5.145,3.099-8.523,3.099c-3.162,0-6.022-1.045-8.102-2.742
	c-0.958,0.174-1.949,0.266-2.964,0.266c-7.602,0-13.762-5.085-13.762-11.354c0-6.272,6.159-11.355,13.762-11.355
	c0.413,0,0.822,0.016,1.228,0.048C41.747,137.279,49.397,131.475,58.69,131.475z"/>
<g>
	<g>
		<path style="fill:#D74214;" d="M293.206,292.418c0.158,0.619-0.396,1.15-0.572,1.298c1.049-0.845,1.546,0.186,1.546,0.186
			c1.537,0.241-0.078,1.459-0.078,1.459c-0.552,0.218-0.914-0.375-0.914-0.375c-1.402,0.694-0.616,1.093-0.616,1.093
			c1.047-0.243,0.421,0.664,0.421,0.664l-0.639,0.092l-0.765,0.414l0.039,0.27l0.577-0.078l0.064,0.454l-0.689,0.314l0.21,0.513
			c0.788,1.124-1.864,1.67-1.864,1.67c-0.419,3.381-3.58,2.164-4.322,1.825c-0.561,0.275-1.171,0.463-1.81,0.55
			c-1.618,0.215-3.154-0.204-4.384-1.072c-0.931,0.191-1.947-0.084-1.947-0.084c-1.074,0.117-0.644-1.459-0.644-1.459
			c-0.845,1.748-2.071,0.234-2.071,0.234c-1.171-1.246,0.243-1.988,0.243-1.988c-0.678-0.768,0.25-1.391,0.25-1.391
			c-1.777-0.332-2.192-1.255-2.273-1.821c-0.758-0.238-1.372-0.493-1.745-0.659c-1.382,0.661-2.888,1.122-4.48,1.342
			c-3.979,0.545-7.802-0.493-10.831-2.639c-2.311,0.46-4.821-0.193-4.821-0.193c-2.669,0.27-1.608-3.63-1.608-3.63
			c-1.434,2.989-3.314,2.137-4.345,1.317c0.188,0.919-2.006,1.374-2.006,1.374c-0.415,3.381-3.574,2.162-4.316,1.828
			c-0.557,0.265-1.173,0.451-1.819,0.535c-1.599,0.229-3.143-0.201-4.378-1.06c-0.93,0.188-1.942-0.087-1.942-0.087
			c-1.079,0.119-0.646-1.466-0.646-1.466c-0.838,1.759-2.08,0.241-2.08,0.241c-1.161-1.248,0.261-1.979,0.261-1.979
			c-0.68-0.781,0.243-1.404,0.243-1.404c-2.648-0.502-2.275-2.293-2.275-2.293c-1.216-1.578-0.022-2.937-0.022-2.937
			c-0.169-0.138-0.286-0.277-0.365-0.41c-1.496,0.133-2.929-0.28-4.072-1.097c-0.939,0.183-1.961-0.084-1.961-0.084
			c-1.083,0.117-0.655-1.473-0.655-1.473c-0.843,1.769-2.077,0.241-2.077,0.241c-1.184-1.258,0.245-2,0.245-2
			c-0.68-0.77,0.257-1.411,0.257-1.411c-2.671-0.497-2.293-2.302-2.293-2.302c-1.218-1.592-0.018-2.957-0.018-2.957
			c-1.063-0.857-0.092-1.718-0.092-1.718c-0.337-1.054,1.154-1.012,1.154-1.012c-1.491-2.847,1.155-3.17,1.155-3.17
			c0.483-1.37,1.67-0.538,1.67-0.538c0.6-1.521,2.675-0.374,2.675-0.374c-0.616-1.303,1.333-1.312,1.333-1.312
			c0.38-0.206,0.721-0.233,1.022-0.156c-0.005-0.169,0.018-0.28,0.018-0.28c-1.216-1.585-0.022-2.941-0.022-2.941
			c-1.052-0.866-0.078-1.734-0.078-1.734c-0.154-0.449,0.041-0.698,0.309-0.841c-1.178-2.741,0.719-4.893,0.719-4.893
			c-2.217-1.805-0.179-3.615-0.179-3.615c-0.726-2.199,2.412-2.133,2.412-2.133c-3.129-5.97,2.412-6.631,2.412-6.631
			c1.013-2.871,3.496-1.132,3.496-1.132c1.262-3.175,5.617-0.77,5.617-0.77c-1.288-2.731,2.803-2.758,2.803-2.758
			c2.737-1.526,4.657,1.727,4.657,1.727c1.629-2.126,2.98-2.868,4.052-2.912c-0.909-2.966,2.089-3.33,2.089-3.33
			c0.68-1.92,2.332-0.758,2.332-0.758c0.854-2.124,3.761-0.513,3.761-0.513c-0.859-1.828,1.883-1.842,1.883-1.842
			c1.835-1.026,3.115,1.152,3.115,1.152c3.253-4.244,4.844-0.233,4.844-0.233c5.52-2.707,6.419,2.412,6.419,2.412
			c1.124-1.444,2.639,0.036,4.091,2.107c0.962,1.377,0.342,2.621-0.188,3.303c0.96,0.549,1.537,1.525,1.537,1.525
			c4.302-5.609,6.393-0.305,6.393-0.305c7.287-3.587,8.471,3.184,8.471,3.184c1.477-1.91,3.475,0.042,5.404,2.778
			c1.917,2.74-0.93,5.072-0.93,5.072c2.013,1.75-1.038,2.934-1.038,2.934c1.631,1.562,0.016,3.113-0.398,3.464
			c1.928-1.567,2.872,0.346,2.872,0.346c2.85,0.46-0.14,2.722-0.14,2.722c-1.039,0.401-1.699-0.685-1.699-0.685
			c-1.411,0.694-1.635,1.225-1.546,1.569c3.564-0.826,4.196,2.77,4.196,2.77c1.006-1.304,2.38,0.032,3.699,1.906
			c1.31,1.871-0.641,3.47-0.641,3.47c1.381,1.2-0.71,2.015-0.71,2.015c1.125,1.066,0.007,2.128-0.272,2.369
			c1.326-1.083,1.965,0.229,1.965,0.229c1.951,0.319-0.089,1.874-0.089,1.874c-0.719,0.263-1.169-0.481-1.169-0.481
			c-0.518,0.259-0.797,0.486-0.941,0.671c1.317,0.529,1.599,2.119,1.599,2.119c0.788-1.029,1.864,0.023,2.914,1.502
			c1.038,1.478-0.508,2.74-0.508,2.74c1.09,0.946-0.557,1.594-0.557,1.594c0.884,0.834,0.009,1.677-0.215,1.864
			c1.051-0.852,1.55,0.179,1.55,0.179c1.537,0.25-0.071,1.475-0.071,1.475c-0.57,0.218-0.921-0.367-0.921-0.367
			c-1.413,0.694-0.63,1.086-0.63,1.086c1.067-0.236,0.437,0.678,0.437,0.678l-0.65,0.084l-0.772,0.431l0.046,0.257l0.586-0.069
			l0.055,0.443l-0.687,0.322l0.211,0.52c0.797,1.124-1.887,1.681-1.887,1.681c-0.412,3.39-3.599,2.174-4.331,1.833
			c-0.57,0.264-1.178,0.458-1.826,0.545c-1.624,0.22-3.168-0.204-4.407-1.07L293.206,292.418z"/>
		<path style="fill:#D74214;" d="M262.123,345.925c0,0-0.284-1.624,0.176-7.158l-1.585-17.888c0,0-0.275-6.574,0.572-8.473
			c0,0,12.887-12.512,15.505-13.208c0,0,1.872-16.378,4.219-16.701l-2.34-1.384c0,0-2.096,15.471-3.622,17.83
			c0,0-5.944-22.366-5.019-24.725l-0.864,0.675c0,0,2.793,22.324,2.271,23.866l-3.801,3.924c0,0-1.301,3.949-2.089,2.158
			c0,0-7.268-4.437-3.674-27.786l-2.925-1.887l-2.422,15.37c0,0,1.686-0.007,0.939,3.894c0,0,2.966,9.288,2.499,10.205
			c0,0-0.706,4.423-2.641,3.122l-4.07-9.614c0,0-3.427-13.723-1.116-15.84l-0.882-1.104c0,0-1.53,6.808-0.298,11.783
			c0,0-6.233-6.911-8.168-6.897l0.055,1.248c0,0,1.186-2.455,7.623,6.95c0,0,4.43,12.463,4.583,14.903c0,0-0.52,7.449-0.208,8.856
			c0,0,3.874,19.892-2.515,25.877L262.123,345.925z"/>
	</g>
	<path style="fill:#FF7042;" d="M264.386,378.003c0.516-0.417,0.268-0.776,0.179-0.875c0.559,0.568,1.652-0.123,1.652-0.123
		c1.679-0.163,0.765-0.983,0.765-0.983c-0.424-0.149-1.127,0.252-1.127,0.252c-1.006-0.465,0.014-0.735,0.014-0.735
		c0.905,0.165,0.804-0.447,0.804-0.447l-0.584-0.064l-0.527-0.277l0.195-0.183l0.534,0.053l0.323-0.305l-0.506-0.211l0.508-0.346
		c1.438-0.758-0.9-1.122-0.9-1.122c1.533-2.275-2.329-1.459-3.269-1.23c-0.403-0.186-0.902-0.312-1.493-0.369
		c-1.491-0.146-3.269,0.135-5.003,0.719c-0.82-0.128-1.993,0.057-1.993,0.057c-1.008-0.078-1.491,0.985-1.491,0.985
		c0.16-1.115-1.713-0.263-1.912-0.169c-2.591-2.213-6.538-8.081-6.538-8.081c0.25-1.278,4.325-5.701,4.325-5.701l11.921-12.042
		c2.739-3.725,0.497-3.946,0.497-3.946L254,343.474c2.937,4.027-13.169,17.278-13.169,17.278c-1.122,0.948-4.908,5.962-4.908,5.962
		c-1.564,1.64-13.196,10.031-13.196,10.031c-1.583,0.845-2.949,1.542-4.13,2.125c-0.676-0.524-2.186-0.119-3.257,0.273
		c0.717-0.619-1.214-0.925-1.214-0.925c1.539-2.277-2.325-1.455-3.257-1.231c-0.406-0.179-0.912-0.305-1.51-0.364
		c-1.466-0.154-3.26,0.14-4.989,0.717c-0.822-0.128-1.993,0.057-1.993,0.057c-1.012-0.08-1.496,0.987-1.496,0.987
		c0.179-1.184-1.938-0.162-1.938-0.162c-1.883,0.84-0.886,1.333-0.886,1.333c-1.129,0.524-0.568,0.946-0.568,0.946
		c-2.937,0.336-3.599,1.544-3.599,1.544c-2.128,1.06-1.718,1.974-1.718,1.974c-0.25,0.094-0.452,0.188-0.603,0.277
		c-1.42-0.089-3.09,0.188-4.707,0.737c-0.834-0.123-2.009,0.057-2.009,0.057c-1.017-0.08-1.51,0.994-1.51,0.994
		c0.181-1.191-1.936-0.165-1.936-0.165c-1.91,0.845-0.911,1.347-0.911,1.347c-1.125,0.518-0.559,0.95-0.559,0.95
		c-2.957,0.332-3.624,1.546-3.624,1.546c-2.137,1.074-1.725,1.993-1.725,1.993c-1.56,0.577-1.086,1.154-1.086,1.154
		c-0.946,0.71,0.57,0.683,0.57,0.683c-3.138,1.917-0.675,2.135-0.675,2.135c-0.312,0.923,1.358,0.362,1.358,0.362
		c-0.279,1.023,2.456,0.252,2.456,0.252c-1.368,0.877,0.58,0.882,0.58,0.882c0.259,0.14,0.586,0.158,0.93,0.106
		c-0.106,0.117-0.146,0.19-0.146,0.19c-2.131,1.065-1.721,1.977-1.721,1.977c-1.553,0.584-1.079,1.166-1.079,1.166
		c-0.412,0.304-0.367,0.474-0.176,0.568c-2.761,1.844-2.108,3.294-2.108,3.294c-3.262,1.214-2.273,2.432-2.273,2.432
		c-1.992,1.483,1.182,1.436,1.182,1.436c-6.579,4.016-1.418,4.46-1.418,4.46c-0.648,1.934,2.838,0.765,2.838,0.765
		c-0.572,2.137,5.175,0.518,5.175,0.518c-2.868,1.837,1.209,1.856,1.209,1.856c1.853,1.028,5.653-1.161,5.653-1.161
		c0.406,1.431,1.324,1.931,2.371,1.961c-2.621,1.995,0.165,2.24,0.165,2.24c-0.431,1.292,1.897,0.51,1.897,0.51
		c-0.378,1.43,3.461,0.346,3.461,0.346c-1.912,1.23,0.818,1.239,0.818,1.239c1.244,0.689,3.782-0.777,3.782-0.777
		c0.799,2.859,4.709,0.158,4.709,0.158c3.958,1.823,7.816-1.624,7.816-1.624c0.288,0.974,2.657-0.025,5.307-1.415
		c1.757-0.93,1.856-1.769,1.723-2.226c1.276-0.369,2.417-1.026,2.417-1.026c1.058,3.777,6.217,0.206,6.217,0.206
		c5.213,2.414,10.312-2.144,10.312-2.144c0.371,1.285,3.498-0.028,7.007-1.872c3.502-1.844,2.002-3.413,2.002-3.413
		c3.026-1.177,0.657-1.977,0.657-1.977c2.533-1.047,1.814-2.093,1.603-2.329c1.022,1.054,3.072-0.233,3.072-0.233
		c3.115-0.309,1.432-1.833,1.432-1.833c-0.809-0.268-2.096,0.463-2.096,0.463c-1.008-0.468-0.925-0.825-0.639-1.056
		c3.088,0.557,5.799-1.862,5.799-1.862c0.252,0.875,2.397-0.022,4.799-1.283c2.391-1.262,1.363-2.336,1.363-2.336
		c2.075-0.809,0.456-1.357,0.456-1.357c1.741-0.719,1.239-1.434,1.095-1.597c0.704,0.729,2.098-0.153,2.098-0.153
		c2.137-0.216,0.992-1.26,0.992-1.26c-0.566-0.179-1.441,0.32-1.441,0.32c-0.369-0.171-0.52-0.325-0.557-0.451
		c1.622-0.355,2.822-1.424,2.822-1.424c0.195,0.692,1.879-0.016,3.782-1.013c1.892-0.991,1.074-1.844,1.074-1.844
		c1.638-0.636,0.369-1.072,0.369-1.072c1.363-0.561,0.976-1.13,0.857-1.256c0.561,0.573,1.657-0.119,1.657-0.119
		c1.681-0.169,0.781-0.994,0.781-0.994c-0.442-0.146-1.132,0.245-1.132,0.245c-1.01-0.465-0.002-0.729-0.002-0.729
		c0.93,0.158,0.829-0.458,0.829-0.458l-0.602-0.057l-0.52-0.289l0.193-0.174l0.545,0.048l0.313-0.297l-0.501-0.218l0.51-0.348
		c1.446-0.758-0.919-1.134-0.919-1.134c1.548-2.281-2.34-1.463-3.271-1.235c-0.419-0.176-0.911-0.307-1.51-0.366
		c-1.498-0.147-3.287,0.137-5.028,0.721L264.386,378.003z M249.577,373.948l0.048,0.03l-0.231,0.115L249.577,373.948z
		 M249.018,374.4c-0.229,0.303,0.053,0.513,0.053,0.513c-0.311,0.037-0.6,0.082-0.861,0.135L249.018,374.4z M243.738,376.555
		l-0.117,0.028c-0.998-0.444-2.24-0.754-3.704-0.903c-1.697-0.171-3.555-0.112-5.485,0.144c5.472-4.966,9.474-6.185,9.474-6.185
		c1.825-1.208,0.845,1.45,0.845,1.45l1.533,2.641C246.191,373.985,245.195,375.066,243.738,376.555z M229.726,376.791
		c-0.723,0.199-1.448,0.419-2.167,0.664c-1.188-0.181-2.666-0.105-3.692-0.014c2.089-1.844,3.876-3.299,3.876-3.299l9.628-6.469
		c2.685-0.877,0.836,2.103,0.836,2.103c-0.062,0.616-8.398,6.867-8.398,6.867L229.726,376.791z M219.758,378.821
		c-0.561,0.607-0.836,1.209-0.836,1.209c0.051-0.346,0.023-0.616-0.064-0.822L219.758,378.821z"/>
</g>
<g>
</g>
<g>
</g>
<g>
</g>
<g>
</g>
<g>
</g>
<g>
</g>
<g>
</g>
<g>
</g>
<g>
</g>
<g>
</g>
<g>
</g>
<g>
</g>
<g>
</g>
<g>
</g>
<g>
</g>
</svg>
