<?xml version="1.0" encoding="iso-8859-1"?>
<!-- Generator: Adobe Illustrator 19.0.0, SVG Export Plug-In . SVG Version: 6.00 Build 0)  -->
<svg version="1.1" id="Layer_1" xmlns="http://www.w3.org/2000/svg" xmlns:xlink="http://www.w3.org/1999/xlink" x="0px" y="0px"
	 viewBox="0 0 512 512" style="enable-background:new 0 0 512 512;" xml:space="preserve">
<path style="fill:#FFEFC1;" d="M256.005,0C397.384,0,512,114.616,512,256.005C512,397.384,397.384,512,256.005,512
	C114.616,512,0,397.384,0,256.005C0,114.616,114.616,0,256.005,0z"/>
<path style="fill:#FFF1C7;" d="M73.991,261.582v4.493c0.029,11.419,0.889,13.929,2.491,20.737l0.117-0.02
	c13.714,80.35,80.125,142.718,162.41,150.268l0.684,0.068c1.084,0.088,2.178,0.176,3.272,0.254l1.446,0.088
	c0.928,0.068,1.856,0.117,2.794,0.166c0.596,0.029,1.201,0.039,1.807,0.068c0.84,0.02,1.661,0.059,2.501,0.088
	c0.967,0.02,1.934,0.02,2.901,0.029c0.469,0.01,0.947,0.02,1.416,0.02h0.215c1.358,0,2.725-0.029,4.083-0.049l0.645-0.01
	c1.289-0.049,2.569-0.098,3.849-0.156l1.084-0.049c1.133-0.068,2.276-0.137,3.409-0.215l1.602-0.127
	c0.742-0.068,1.475-0.127,2.208-0.205c81.561-7.599,147.494-69.059,161.843-148.481c1.748-6.818,1.768-8.947,2.647-19.751l0,0h0.205
	l0,0l0,0c0.029-0.694,0.039-1.367,0.049-2.041v-0.059v-0.049v-0.039v-0.107v-0.049v-0.049l0,0v-0.049v-0.049v-0.147v-0.059v-0.049
	v-0.039v-0.059h0.01v-0.049v-0.049v-0.049v-0.049v-0.059v-0.039v-0.049c1.143-13.558-0.625-35.838-5.226-53.069l-0.244-0.928
	c-19.809-78.973-91.261-137.463-176.378-137.463c-87.178,0-160.016,61.361-177.726,143.245l0,0c-0.02,0.068-0.039,0.127-0.059,0.186
	l-0.293,1.114l-0.176,0.674l-0.322,1.192c-2.247,9.279-2.96,20.356-3.175,30.026c-0.049,1.807-0.088,3.604-0.088,5.411v0.342
	C73.991,258.193,73.991,259.941,73.991,261.582z"/>
<path style="fill:#FFDF81;" d="M10.706,265.099c0,0,36.346-36.112,62.455-39.648s78.338,33.836,100.189,35.858
	c21.851,2.022,84.199-63.637,108.706-52.522c24.517,11.106,81.005,42.93,112.437,48.487c31.443,5.548,78.875-55.559,101.253-62.631
	c2.794-0.879,5.568-1.631,8.293-2.247c5.196,20.337,7.961,41.65,7.961,63.608c0,8.225-0.4,16.351-1.162,24.38
	c-108.54,20.678-373.834,59.887-431.279,36.483C21.401,293.171,10.706,265.099,10.706,265.099z"/>
<path style="fill:#FFB54C;" d="M0.303,268.478c14.466-11.038,50.314-23.042,74.822-6.369c21.724,14.769,25.816,16.068,39.902,12.6
	c65.757-42.344,99.661-28.483,130.723,9.572c37.87,33.338,112.076,15.306,130.264,31.462c18.188,16.166-4.542,21.216-4.542,21.216
	L22.798,361.761C9.787,333.093,1.895,301.611,0.303,268.478z"/>
<path style="fill:#FF9675;" d="M511.922,249.46c-42.207,4.054-81.395-20.346-150.561,14.769
	c-71.989,36.551-161.14,81.454-146.967,78.797c13.929-2.628,187.659-13.528,288.122-17.768c6.173-22.036,9.485-45.254,9.485-69.254
	C512,253.817,511.971,251.639,511.922,249.46z"/>
<path style="fill:#FFDF81;" d="M8.898,323.081h494.203C473.632,431.923,374.176,512,256.005,512
	C137.824,512,38.368,431.923,8.898,323.081z"/>
<path style="fill:#4D4D4D;" d="M442.785,431.044L289.87,342.763l-8.859-5.118l-25.24-14.564l-32.81,18.94l-10.872,6.271
	l-143.03,82.587C115.778,480.792,182.238,512,256.005,512C329.684,512,396.076,480.87,442.785,431.044z"/>
<g>
	<path style="fill:#FFFFFF;" d="M419.274,453.178L255.77,323.081l173.252,121.59C425.848,447.581,422.595,450.424,419.274,453.178z
		 M93.546,453.852c-3.682-3.018-7.267-6.154-10.764-9.367l170.986-120.066l2.002-1.338L93.546,453.852z"/>
	<path style="fill:#FFC928;" d="M239.781,490.286l6.564-68.717h17.885l5.89,68.717H239.781z M247.986,404.466l3.292-34.461h8.518
		l2.96,34.461H247.986z M251.961,362.923l1.514-15.834h4.356l1.358,15.834H251.961z M253.807,343.613l0.977-10.198h1.875
		l0.879,10.198H253.807z M254.989,331.276l0.781-8.195l0.703,8.195H254.989z"/>
</g>
<path style="fill:#FF9B7C;" d="M254.891,105.19c26.158,0,47.364,21.206,47.364,47.364c0,26.148-21.206,47.354-47.364,47.354
	c-26.148,0-47.354-21.206-47.354-47.354C207.537,126.396,228.743,105.19,254.891,105.19z"/>
<g>
	<path style="fill:#FECBBC;" d="M151.899,138.166c4.757,0,9.24,0.928,13.216,2.579c4.298-3.468,10.178-5.616,16.674-5.616
		c11.243,0,20.669,6.427,23.199,15.062c5.617,1.397,10.129,4.903,12.18,9.397c0.674-0.068,1.367-0.098,2.061-0.098
		c10.383,0,18.813,6.955,18.813,15.531c0,8.576-8.43,15.531-18.813,15.531c-3.243,0-6.29-0.684-8.947-1.866
		c-2.286,6.457-9.504,11.165-18.061,11.165c-5.226,0-9.953-1.758-13.372-4.601c-3.409,2.842-8.137,4.601-13.372,4.601
		c-4.962,0-9.485-1.592-12.854-4.19c-3.429,3.106-8.381,5.05-13.88,5.05c-5.148,0-9.817-1.7-13.206-4.464
		c-1.553,0.283-3.175,0.43-4.825,0.43c-12.386,0-22.417-8.283-22.417-18.49c0-10.217,10.032-18.5,22.417-18.5
		c0.674,0,1.348,0.029,2.002,0.078C124.305,147.611,136.769,138.166,151.899,138.166z"/>
	<path style="fill:#FECBBC;" d="M387.929,188.363c1.817,0,3.536,0.352,5.05,0.987c1.641-1.328,3.897-2.149,6.378-2.149
		c4.298,0,7.902,2.452,8.869,5.763c2.149,0.527,3.868,1.866,4.659,3.585c0.254-0.02,0.518-0.039,0.781-0.039
		c3.976,0,7.199,2.657,7.199,5.939c0,3.282-3.223,5.939-7.199,5.939c-1.241,0-2.403-0.254-3.419-0.713
		c-0.869,2.471-3.634,4.269-6.906,4.269c-2.002,0-3.809-0.674-5.109-1.758c-1.309,1.084-3.116,1.758-5.109,1.758
		c-1.905,0-3.634-0.606-4.913-1.602c-1.319,1.192-3.214,1.934-5.314,1.934c-1.973,0-3.751-0.654-5.05-1.709
		c-0.596,0.107-1.211,0.166-1.846,0.166c-4.728,0-8.566-3.165-8.566-7.072c0-3.907,3.839-7.072,8.566-7.072
		c0.264,0,0.518,0.01,0.772,0.029C377.38,191.977,382.147,188.363,387.929,188.363z"/>
	<path style="fill:#FECBBC;" d="M297.225,40.771c2.93,0,5.695,0.576,8.146,1.592c2.647-2.139,6.271-3.458,10.276-3.458
		c6.925,0,12.737,3.956,14.29,9.279c3.458,0.86,6.242,3.018,7.511,5.783c0.41-0.039,0.83-0.059,1.26-0.059
		c6.398,0,11.594,4.288,11.594,9.572s-5.196,9.563-11.594,9.563c-1.993,0-3.868-0.41-5.509-1.143
		c-1.407,3.976-5.861,6.877-11.135,6.877c-3.214,0-6.124-1.084-8.234-2.833c-2.1,1.748-5.011,2.833-8.234,2.833
		c-3.057,0-5.851-0.977-7.922-2.579c-2.12,1.914-5.167,3.116-8.557,3.116c-3.175,0-6.046-1.055-8.137-2.755
		c-0.957,0.176-1.954,0.264-2.969,0.264c-7.638,0-13.821-5.099-13.821-11.399c0-6.29,6.183-11.389,13.821-11.389
		c0.41,0,0.82,0.01,1.231,0.049C280.219,46.593,287.897,40.771,297.225,40.771z"/>
	<path style="fill:#FECBBC;" d="M447.308,92.97c2.315,0,4.552,0.264,6.671,0.733c13.03,15.873,24.185,33.338,33.132,52.062
		c-1.543,0.4-3.194,0.615-4.894,0.615c-4.532,0-8.625-1.524-11.575-3.985c-2.96,2.461-7.052,3.985-11.575,3.985
		c-4.308,0-8.224-1.387-11.135-3.624c-2.969,2.686-7.257,4.366-12.014,4.366c-4.464,0-8.498-1.465-11.438-3.868
		c-1.348,0.244-2.745,0.381-4.181,0.381c-10.715,0-19.409-7.17-19.409-16.019c0-8.84,8.693-16.009,19.409-16.009
		c0.586,0,1.172,0.029,1.739,0.068C423.416,101.156,434.199,92.97,447.308,92.97z"/>
</g>
<g>
</g>
<g>
</g>
<g>
</g>
<g>
</g>
<g>
</g>
<g>
</g>
<g>
</g>
<g>
</g>
<g>
</g>
<g>
</g>
<g>
</g>
<g>
</g>
<g>
</g>
<g>
</g>
<g>
</g>
</svg>
