<?xml version="1.0" encoding="iso-8859-1"?>
<!-- Generator: Adobe Illustrator 19.0.0, SVG Export Plug-In . SVG Version: 6.00 Build 0)  -->
<svg version="1.1" id="Layer_1" xmlns="http://www.w3.org/2000/svg" xmlns:xlink="http://www.w3.org/1999/xlink" x="0px" y="0px"
	 viewBox="0 0 512 512" style="enable-background:new 0 0 512 512;" xml:space="preserve">
<path style="fill:#FFDFB1;" d="M255.997,0C397.385,0,512,114.615,512,255.997C512,397.385,397.385,512,255.997,512
	C114.615,512,0,397.385,0,255.997C0,114.615,114.615,0,255.997,0z"/>
<path style="fill:#FFFFFF;" d="M242.385,81.914c57.513,0,104.137,46.624,104.137,104.137c0,57.507-46.624,104.132-104.137,104.132
	c-57.507,0-104.132-46.624-104.132-104.132C138.253,128.539,184.878,81.914,242.385,81.914z"/>
<path style="fill:#FFCB7F;" d="M6.398,198.907c23.491-18.566,45.392-33.042,59.344-34.433
	c41.876-4.173,105.171,93.032,147.715,94.951c42.545,1.919,111.727-63.348,143.677-89.064s56.374-61.188,72.657-59.104
	c8.394,1.08,31.926,20.721,60.642,41.794C504.293,184.555,512,219.375,512,255.997c0,102.453-60.19,190.836-147.134,231.749
	c-22.893-0.687-37.01,1.28-88.606-6.069c-35.043-4.989-108.933-14.041-180.317-25.892C37.456,408.866,0,336.814,0,255.997
	C0,236.374,2.213,217.262,6.398,198.907z"/>
<path style="fill:#FFC068;" d="M1.145,231.796c25.452-20.545,49.606-37.127,64.598-38.624
	c41.876-4.173,105.171,93.026,147.715,94.945c42.545,1.919,111.727-63.348,143.677-89.064c31.95-25.71,56.374-61.182,72.657-59.098
	c9.022,1.15,38.911,24.014,72.763,46.953c6.146,21.983,9.445,45.151,9.445,69.088c0,102.453-60.19,190.836-147.134,231.749
	c-22.893-0.687-37.01,1.28-88.606-6.069c-35.043-4.989-108.933-14.041-180.317-25.892C37.456,408.866,0,336.814,0,255.997
	C0,247.838,0.399,239.767,1.145,231.796z"/>
<g>
	<path style="fill:#FFB54C;" d="M511.384,273.642c-7.232-0.675-14.81-1.503-23.157-2.33c-19.629-1.961-39.516,6.639-59.145,4.614
		c-16.33-1.685-31.979-9.48-48.291-7.672c-12.873,1.426-24.36,8.74-37.309,9.556c-15.878,0.998-30.694-7.901-46.601-8.224
		c-19.623-0.393-37.015,12.18-56.591,13.471c-16.095,1.057-31.92-5.647-48.004-4.479c-12.873,0.933-24.653,6.815-37.332,9.034
		c-21.243,3.727-42.915-3.041-64.545-3.604c-19.194-0.505-47.188,10.008-66.365,10.912c-7.431,0.346-14.463-0.211-21.249-1.051
		C21.096,417.295,127.482,512,255.997,512C391.456,512,502.315,406.794,511.384,273.642z"/>
	<path style="fill:#FFA526;" d="M489.424,361.262c-36.552-8.048-73.203-16.6-110.084-14.082
		c-36.106,2.471-70.468,15.485-106.509,18.613c-76.079,6.615-151.883-31.134-227.064-18.742c-8.84,1.462-17.756,3.604-26.708,6.005
		C57.302,446.31,148.972,512,255.997,512C359.865,512,449.286,450.143,489.424,361.262z"/>
	<path style="fill:#F37C00;" d="M87.514,448.729c28.252-1.203,98.227-6.739,187.108-32.038
		c53.387-15.197,107.888-29.461,163.852-27.054c11.417,0.487,22.81,1.456,34.163,2.794C427.298,464.272,347.227,512,255.997,512
		C191.475,512,132.536,488.121,87.514,448.729z"/>
	<path style="fill:#F98B00;" d="M423.852,449.292c-47.17-3.992-119.264-12.896-188.482-32.601
		c-53.392-15.197-107.888-29.461-163.858-27.054c-10.789,0.464-21.554,1.35-32.284,2.577C84.538,464.172,164.679,512,255.997,512
		C320.219,512,378.906,488.35,423.852,449.292z"/>
	<path style="fill:#ED6C00;" d="M407.675,462.229c-47.229-5.87-94.347-12.462-140.425-17.692
		c-41.406-4.702-83.511-7.948-124.77-2.266c-16.964,2.336-33.558,6.146-49.929,10.754C136.891,489.853,193.853,512,255.997,512
		C312.776,512,365.218,493.504,407.675,462.229z"/>
	<g>
		<path style="fill:#8F1D00;" d="M208.838,272.139c-0.288-1.327,0.792-2.501,0.792-2.501c2.43-1.262,2.911-0.74,4.625-3.328
			c1.708-2.612,6.298-3.522,10.783-2.865c4.473,0.657,5.77,0.81,11.751-1.826c5.976-2.618,10.536-1.121,10.536-1.121
			c0.857-1.368,3.721-1.104,3.721-1.104c0.358,0.675-0.376,5.864-0.376,5.864s3.27,1.215,5.993,3.487
			c2.735,2.26,2.647,5.547,3.604,7.86c0.969,2.313-0.792,5.911-1.579,6.428c-0.798,0.505-0.088,3.275,0.833,7.866
			s2.982,6.656,2.982,6.656s2.06,2.148,3.774,2.148c5.23,0,8.547-2.988,10.043-5.03c3.064-4.179,4.878-17.146,14.898-18.537
			c5.846-0.816,10.466-9.016,17.862-18.12c7.249-8.922,23.151-6.422,28.164,2.835c3.51,6.445,11.992,18.349,21.484,24.771
			c9.474,6.41,7.942,13.237,8.5,17.704c0.558,4.461,6.275,18.402,6.41,20.216c0.141,1.814-4.32,2.36-4.32,2.36
			c1.121,1.409-1.532,11.998,1.667,18.696c3.211,6.686,0.587,14.223,0.587,14.223s-0.305,15.197-0.029,18.261
			c0.288,3.076-2.36,5.717-3.757,6.833c-1.397,1.115-1.955,5.441-1.955,5.441h-12.403c0,0,3.763-4.602,6.833-6.838
			c3.064-2.231,4.455-8.5,4.731-16.307c0.282-7.813,0.282-15.344-3.199-19.799c-3.493-4.467-7.678-14.217-7.678-14.217
			s-0.417,10.724,1.262,14.07c1.667,3.352,0.98,6.134-0.699,9.762c-1.673,3.633-8.787,17.563-8.505,20.216
			c0.282,2.647-1.115,4.743-2.506,6.557c-1.397,1.808-2.512,5.576-2.512,5.576h-11.429c0,0,2.09-3.903,5.711-6.275
			c3.622-2.366,5.019-8.922,7.531-14.223c2.501-5.289,5.571-12.133,5.019-16.723c-0.564-4.602-2.371-5.864-5.582-13.536
			c-3.199-7.66-4.872-17.287-4.872-17.287c-3.223-0.411-11.165,3.498-17.985,5.301c-6.833,1.814-12.268,0.417-13.119,1.368
			c-0.834,0.963-1.943,11.887-0.129,14.522c1.814,2.653,3.34,14.088,3.757,18.555c0.423,4.455,1.814,10.73,2.794,13.248
			c0.974,2.506,0.428,5.858,0,6.686c-0.417,0.839-0.558,5.717-0.558,5.717H300.72c1.532-4.455,6.416-3.493,6.833-9.486
			c0.417-5.993-0.974-11.575-3.205-16.729s-3.903-9.057-5.16-13.941c-1.256-4.878-5.025-7.249-5.025-1.256
			c0,6.005-2.782,16.172-3.34,18.408c-0.558,2.236-2.512,10.038-1.673,11.851c0.834,1.814,1.538,5.864,0,6.275
			s-3.082,3.903-3.082,3.903c-0.294,1.52-1.796,4.602-1.796,4.602h-10.466c0,0,0.423-3.352,3.903-4.461
			c3.493-1.115,4.179-1.82,6.416-10.319c2.236-8.5,1.256-10.877,0.845-14.088c-0.423-3.199,0.687-4.743,0.969-7.243
			c0.282-2.506,0-12.133,0-12.133c-0.417-4.179,0-14.44,0-14.44c-3.968-2.289-8.153-5.846-8.153-5.846
			c-38.477,3.54-37.849-20.169-40.156-23.004c-4.397-5.4-3.451-11.939-3.164-15.978c-1.027,1.327-7.801,2.665-10.237,0.012
			c-2.571-2.788-8.676-5.383-10.172-6.075c-1.497-0.693-4.954,0.81-4.878-0.264c0.088-1.08,1.503-1.362,1.667-1.814
			C211.016,273.26,209.114,273.46,208.838,272.139z"/>
		<path style="fill:#8F1D00;" d="M169.933,297.579c-1.332,0-3.046,0.352-4.109-0.657c-0.963-0.922-0.646-2.518-1.62-3.622
			c-0.64-0.728-2.401-1.021-2.565-1.908c-0.235-1.362,1.691-2.718,2.107-4.021c1.18-3.639-0.922-6.081,3.199-8.118
			c3.651-1.796,7.531-0.974,10.877,1.086c3.405,2.107,5.072,4.79,5.711,8.682c0.593,3.581-0.839,6.938-0.493,10.531
			c0.358,3.61,0.61,5.794,1.25,9.034c0.886,4.449,1.385,9.057,2.107,13.53c2.454,15.268,1.955,30.893,4.408,46.172
			c1.192,7.502,3.41,15.086,6.122,22.147c1.556,4.074,2.823,8.247,4.532,12.274c0.552,1.315,2.031,3.293,1.585,4.796
			c-0.153,0.546-1.978,1.99-2.788,2.694c-2.283,1.996-4.984,3.639-8.001,4.085c-2.066,0.305-5.752,0.475-3.287-2.049
			c0.47-0.47,3.041,0.258,2.025-1.632c-0.317-0.593-3.099-0.798-3.722-0.892c-2.553-0.376-3.939,0.311-6.433,0.575
			c-2.066,0.229-3.857-0.511-5.911-0.693c-2.313-0.2-6.492-0.505-8.605,0.693c-1.544,0.869-0.834,0.622-1.608,2.242
			c-0.704,1.462-0.91,2.911-2.683,3.44c-1.509,0.446-2.835-0.728-4.303-0.845c-1.409-0.117-3.046,0.153-4.485,0.117
			c-2.113-0.047-5.676,0.922-4.772-2.389c0.804-2.988,4.402-2.201,5.066-5.94c0.728-4.138,0.258-8.693,0.834-12.92
			c1.092-8.018,1.25-16.324,1.274-24.407c0.029-8.723,4.103-15.667,6.598-23.767c0.822-2.7,1.679-5.617,1.814-8.458
			c0.211-4.138-1.831-2.031-2.999,0.294c-1.972,3.886-5.617,8.623-9.051,12.638c-0.528,0.61,0.035,2.26-0.528,2.782
			c-0.904,0.81-1.855,1.485-2.859,1.961c-2.8,1.332-5.218-0.241-4.866-3.452c0.164-1.556,1.139-2.882,2.066-4.173
			c0.34-0.475,1.444-0.693,1.972-0.869c0.346-0.117-0.558,0.012,0.346-1.99c1.673-3.669,6.022-10.56,7.619-14.293
			c1.685-3.915,4.567-9.222,6.322-13.119c1.826-4.033,1.661-7.273,3.722-11.211c0.851-1.632,2.354-2.718,3.158-4.185
			c0.863-1.597,0.745-2.559,1.749-4.314c-0.311,1.291-0.317,1.743-0.511,2.935L169.933,297.579z"/>
		<path style="fill:#8F1D00;" d="M145.379,350.15c0.153,1.215,0.264,2.459,0.335,3.716c0.006-1.685,0.1-3.375,0.252-5.042
			l2.63,0.247c-0.558,5.747-0.194,11.675,1.268,17.24c1.332,5.089,3.587,9.897,6.862,14c3.498,4.361,8.3,7.766,13.565,9.656
			c4.96,1.755,10.319,2.172,15.373,0.74c2.97-0.845,5.723-2.266,8.271-4.033l0,0c2.583-1.796,4.937-3.962,7.079-6.269
			c5.923-6.398,10.349-13.959,13.512-22.112c3.51-9.098,5.453-18.919,6.122-28.686c0.622-9.292,0.2-18.596-0.751-27.882l0,0
			c-0.951-9.345-2.436-18.654-3.915-27.905l2.606-0.411c1.485,9.304,2.988,18.672,3.939,28.04v0.012
			c0.963,9.421,1.391,18.872,0.751,28.334c-0.681,9.996-2.671,20.087-6.293,29.455c-3.275,8.435-7.872,16.283-14.035,22.945
			c-2.26,2.442-4.766,4.731-7.502,6.651l0,0c-2.776,1.931-5.794,3.469-9.057,4.402c-5.612,1.597-11.54,1.156-16.999-0.804
			c-5.7-2.025-10.918-5.729-14.71-10.472c-3.54-4.414-5.946-9.55-7.373-14.998c-0.722-2.771-1.192-5.617-1.432-8.482
			c0.07,4.25-0.112,8.635-0.276,13.031c-0.276,7.208-0.564,14.428,0.217,20.955l-2.636,0.311
			c-0.781-6.686-0.499-14.029-0.211-21.372c0.264-7.214,0.552-14.428-0.223-20.95L145.379,350.15z"/>
	</g>
</g>
<g>
</g>
<g>
</g>
<g>
</g>
<g>
</g>
<g>
</g>
<g>
</g>
<g>
</g>
<g>
</g>
<g>
</g>
<g>
</g>
<g>
</g>
<g>
</g>
<g>
</g>
<g>
</g>
<g>
</g>
</svg>
