<?xml version="1.0" encoding="iso-8859-1"?>
<!-- Generator: Adobe Illustrator 19.0.0, SVG Export Plug-In . SVG Version: 6.00 Build 0)  -->
<svg version="1.1" id="Layer_1" xmlns="http://www.w3.org/2000/svg" xmlns:xlink="http://www.w3.org/1999/xlink" x="0px" y="0px"
	 viewBox="0 0 512 512" style="enable-background:new 0 0 512 512;" xml:space="preserve">
<g>
	<path style="fill:#B1E3FB;" d="M255.997,0C397.385,0,512,114.615,512,255.997C512,397.385,397.385,512,255.997,512
		C114.615,512,0,397.385,0,255.997C0,114.615,114.615,0,255.997,0z"/>
	<path style="fill:#FBD734;" d="M511.671,269.11c-18.202,1.074-33.411-1.18-53.991-3.463c-17.046-1.896-34.321,6.422-51.361,4.467
		c-14.182-1.632-27.77-9.18-41.94-7.431c-11.182,1.385-21.161,8.464-32.402,9.257c-13.788,0.963-26.655-7.648-40.473-7.96
		c-17.046-0.387-32.143,11.793-49.148,13.037c-13.976,1.027-27.718-5.465-41.694-4.332c-11.176,0.904-21.407,6.598-32.413,8.746
		c-18.455,3.604-37.274-2.947-56.063-3.493c-16.665-0.487-40.978,9.691-57.63,10.56c-19.611,1.033-36.035-6.087-52.976-4.062
		C15.725,412.435,124.224,512,255.997,512C392.988,512,504.845,404.399,511.671,269.11z"/>
	<path style="fill:#FBC443;" d="M490.041,359.859c-42.122-8.318-84.35-24.002-126.924-20.762
		c-31.357,2.389-61.193,14.986-92.497,18.021c-66.071,6.398-131.908-30.148-197.199-18.15
		c-17.756,3.264-35.871,10.079-53.839,15.361C58.129,446.909,149.453,512,255.997,512C360.41,512,450.202,449.486,490.041,359.859z"
		/>
	<path style="fill:#FBD734;" d="M412.376,437.723c0,0-73.033,0.792-174.294-31.333c-46.372-14.716-93.695-28.522-142.303-26.197
		c-19.875,0.951-39.657,3.745-59.256,7.637C81.304,462.229,162.836,512,255.997,512c58.892,0,113.124-19.899,156.379-53.316V437.723
		z"/>
	<g>
		<path style="fill:#F9BF2C;" d="M417.689,454.463c-51.003-6.486-102.159-14.827-151.918-21.12
			c-35.959-4.555-72.528-7.695-108.358-2.195c-23.415,3.592-46.032,10.801-68.319,18.954C133.91,488.673,192.227,512,255.997,512
			C317.326,512,373.606,490.422,417.689,454.463z"/>
		<polygon style="fill:#F9BF2C;" points="223.695,310.029 359.201,129.131 478.471,309.178 		"/>
	</g>
	<polygon style="fill:#FBD734;" points="223.695,310.029 359.201,129.131 359.201,309.577 	"/>
	<polygon style="fill:#F9BF2C;" points="38.189,310.734 206.549,161.85 354.74,310.041 	"/>
	<polygon style="fill:#FBD734;" points="38.189,310.734 206.549,161.85 206.549,310.37 	"/>
	<g>
		<path style="fill:#8F1D00;" d="M200.392,275.291c-0.147-0.681,0.411-1.28,0.411-1.28c1.239-0.646,1.485-0.382,2.366-1.708
			c0.875-1.332,3.223-1.802,5.518-1.462c2.289,0.335,2.953,0.411,6.017-0.939c3.058-1.338,5.389-0.569,5.389-0.569
			c0.44-0.699,1.908-0.564,1.908-0.564c0.182,0.34-0.188,3-0.188,3s1.667,0.622,3.064,1.784c1.403,1.156,1.356,2.841,1.843,4.021
			c0.499,1.186-0.405,3.029-0.804,3.293c-0.411,0.258-0.047,1.673,0.423,4.027c0.475,2.348,1.532,3.405,1.532,3.405
			s1.051,1.104,1.931,1.104c2.677,0,4.373-1.532,5.142-2.577c1.567-2.143,2.495-8.775,7.625-9.492
			c2.994-0.417,5.353-4.614,9.139-9.274c3.716-4.567,11.851-3.287,14.416,1.456c1.796,3.293,6.14,9.386,10.994,12.673
			c4.854,3.287,4.068,6.78,4.355,9.063s3.211,9.421,3.281,10.354c0.07,0.927-2.213,1.209-2.213,1.209
			c0.575,0.716-0.781,6.134,0.857,9.568c1.644,3.422,0.299,7.279,0.299,7.279s-0.158,7.778-0.018,9.345
			c0.153,1.573-1.209,2.929-1.919,3.498c-0.716,0.569-1.004,2.782-1.004,2.782h-6.351c0,0,1.931-2.354,3.498-3.498
			c1.567-1.139,2.283-4.35,2.424-8.347c0.147-3.997,0.147-7.854-1.638-10.131c-1.79-2.289-3.927-7.285-3.927-7.285
			s-0.217,5.494,0.64,7.208c0.857,1.714,0.499,3.14-0.358,4.995c-0.851,1.861-4.496,8.987-4.35,10.349
			c0.141,1.356-0.569,2.43-1.285,3.358c-0.716,0.927-1.285,2.853-1.285,2.853h-5.846c0,0,1.068-1.996,2.923-3.211
			c1.849-1.209,2.565-4.567,3.857-7.279c1.274-2.712,2.847-6.21,2.565-8.558c-0.288-2.36-1.215-3.005-2.859-6.932
			c-1.638-3.921-2.489-8.852-2.489-8.852c-1.649-0.211-5.717,1.79-9.21,2.718c-3.498,0.927-6.281,0.211-6.715,0.699
			c-0.428,0.487-0.998,6.087-0.065,7.431c0.927,1.362,1.708,7.214,1.925,9.497c0.211,2.283,0.927,5.494,1.426,6.78
			c0.499,1.285,0.217,3,0,3.422c-0.217,0.434-0.288,2.935-0.288,2.935h-5.923c0.787-2.283,3.281-1.79,3.498-4.86
			c0.211-3.07-0.499-5.923-1.644-8.564c-1.145-2.636-1.996-4.637-2.641-7.132c-0.646-2.501-2.571-3.716-2.571-0.646
			s-1.426,8.277-1.708,9.421c-0.288,1.145-1.285,5.136-0.857,6.064c0.428,0.933,0.787,3.005,0,3.217s-1.579,1.996-1.579,1.996
			c-0.147,0.781-0.916,2.354-0.916,2.354h-5.359c0,0,0.217-1.714,2.002-2.283s2.137-0.927,3.281-5.283
			c1.139-4.35,0.64-5.565,0.434-7.208c-0.223-1.638,0.346-2.424,0.493-3.71c0.147-1.28,0-6.204,0-6.204
			c-0.211-2.143,0-7.396,0-7.396c-2.031-1.174-4.173-2.994-4.173-2.994c-19.699,1.814-19.376-10.325-20.556-11.775
			c-2.248-2.765-1.767-6.111-1.62-8.177c-0.522,0.675-3.992,1.368-5.242,0.006c-1.315-1.426-4.438-2.753-5.207-3.111
			c-0.763-0.352-2.53,0.417-2.495-0.135c0.047-0.552,0.769-0.693,0.851-0.927C201.513,275.861,200.533,275.966,200.392,275.291z"/>
		<path style="fill:#8F1D00;" d="M374.821,338.88c-1.485-3.076-0.258-7.954-0.775-8.594c0,0-0.217-3.334-0.276-4.162
			c-0.065-0.839-0.434-4.173-0.693-6.228c-0.252-2.054,0.07-6.903-4.314-9.856c-4.379-2.953-6.703-7.05-8.323-10.014
			c-2.324-4.256-10.319-5.236-13.677-1.139c-3.422,4.197-5.541,9.01-8.247,9.38c-4.631,0.64-5.923,6.439-7.343,8.365
			c-0.687,0.933-2.366,1.591-4.784,1.591c-0.792,0-1.749-0.98-1.749-0.98s-0.957-0.951-1.374-3.058
			c-0.428-2.113-0.757-3.387-0.393-3.622c0.37-0.235,1.174-1.896,0.734-2.958c-0.44-1.068-0.405-2.577-1.667-3.616
			c-1.262-1.045-2.771-1.602-2.771-1.602s0.329-2.389,0.17-2.7c0,0-1.321-0.117-1.72,0.511c0,0-2.113-0.687-4.878,0.517
			c-2.759,1.209-3.358,1.145-5.43,0.839c-2.072-0.299-4.197,0.117-4.989,1.315c-0.792,1.192-1.015,0.951-2.137,1.532
			c0,0-0.499,0.546-0.364,1.151c0.129,0.61,0.998,0.517,0.922,0.716c-0.076,0.211-0.728,0.34-0.769,0.839
			c-0.041,0.493,1.561-0.2,2.254,0.117c0.693,0.317,3.581,1.115,4.766,2.401c1.127,1.221,5.295,0.722,5.77,0.112
			c-0.135,1.861,0.2,5.254,1.35,8.247c1.133,2.941,0.229,8.594,17.592,9.961c0,0,0.787,0.076,1.831,0.241
			c0.534,1.374,0.951,7.848,1.016,9.304c0.106,2.313,0.487,4.232,1.01,6.768c0.522,2.536-0.317,6.011-1.074,8.664
			c-0.757,2.659-3.463,2.818-4.103,4.89l5.347-0.17c0,0,0.528-2.184,0.798-2.518c0.264-0.335,0.834-1.79,0.628-3.011
			c-0.2-1.227,0.704-5.007,0.939-7.056c0.235-2.049,0.628-7.337,0.053-8.711c-0.288-0.687-0.035-2.254,0.346-3.686
			c0.188,1.397,0.446,2.888,0.74,3.71c0,0,1.197,4.262,1.35,5.412c0.153,1.15-0.176,1.961,0.364,3.346
			c0.546,1.385,1.25,2.33,1.197,6.375c-0.065,4.05-0.065,4.819-1.685,5.318c-1.608,0.511-1.808,2.054-1.808,2.054l4.831,0.012
			c0,0,0.704-1.409,0.839-2.119c0,0,0.288-2.054,0.745-2.624c0.904-1.127-0.094-2.483-0.675-3.199
			c-0.575-0.716-0.569-4.414-0.569-5.477c0.006-1.057,0.129-5.911-0.54-8.588c-0.188-0.745-0.164-1.221-0.023-1.497
			c0.018-4.907-1.074-7.232,3.228-4.76c1.109,0.006,5.066,0.47,6.938,0.247c3.845-0.452,4.426-3.34,5.911-3.146
			c0,0,0.775,4.426,2.26,7.954c1.479,3.528,2.319,4.103,2.577,6.222c0.258,2.113,0.129,3.704-1.033,6.146
			c-1.156,2.43-1.931,4.766-3.604,5.858c-1.679,1.092-2.647,2.882-2.647,2.882h5.289c0,0,0.517-1.732,1.162-2.571
			c0.64-0.828,1.291-1.79,1.162-3.011c-0.129-1.215,1.99-5.394,2.765-7.061s1.098-2.947,0.329-4.49
			c-0.781-1.538-0.581-6.474-0.581-6.474s1.925,4.49,3.54,6.533c1.614,2.054,1.755,3.839,1.632,7.431
			c-0.129,3.586-0.775,6.48-2.195,7.502c-1.415,1.027-3.158,3.14-3.158,3.14h5.741c0,0,0.252-1.984,0.904-2.495
			c0.64-0.522,1.321-3.346,1.192-4.76c-0.129-1.409,0.411-5.101,0.411-5.101S376.306,341.956,374.821,338.88z"/>
		<path style="fill:#8F1D00;" d="M406.148,305.069c-0.106-0.546,0.305-1.045,0.305-1.045c0.927-0.517,1.109-0.305,1.767-1.379
			c0.652-1.074,2.418-1.462,4.126-1.18c1.714,0.27,2.207,0.323,4.496-0.763c2.289-1.092,2.906-0.065,2.906-0.065
			c1.479-1.186,3.258-1.485,3.258-1.485c1.004-1.215-0.845,3.064-0.845,3.064s1.239,0.505,2.289,1.438
			c1.051,0.945,0.558,1.197,0.922,2.166c0.364,0.951-0.44,2.888-0.745,3.105c-0.299,0.211,0.176,1.743,0.599,3.845
			c0.423,2.107,1.327,2.97,1.327,2.97s1.438,1.626,2.225,1.626c2.413,0,4.684-1.221,5.377-2.154
			c1.415-1.908,2.747-9.497,7.355-10.137c2.694-0.376,4.631-4.444,8.036-8.617c3.34-4.08,12.45-1.831,14.757,2.401
			c1.62,2.953,3.786,7.719,8.147,10.66c4.361,2.935,4.038,10.542,4.297,12.585c0.252,2.037,0.828,5.089,0.886,5.917
			c0.065,0.828-0.663,1.497-0.663,1.497c0.511,0.634-0.704,5.494,0.769,8.552c1.473,3.064,0.264,6.51,0.264,6.51
			s0,8.488,0.123,9.891c0.135,1.403-1.086,2.612-1.726,3.123c-0.646,0.511-0.904,2.495-0.904,2.495h-5.706
			c0,0,1.732-2.107,3.14-3.135c1.415-1.015,2.054-3.886,2.189-7.466c0.123-3.575-0.018-8.541-1.62-10.583
			c-1.602-2.043-3.528-6.516-3.528-6.516s-0.194,4.913,0.575,6.451c0.775,1.538,0.71,2.53,0.147,4.273
			c-0.552,1.737-3.011,8.482-2.729,9.668c0.276,1.192-0.211,2.336-0.875,3.146c-0.663,0.816-1.233,2.518-1.233,2.518l-5.259-0.147
			c0,0,1.01-1.761,2.718-2.8c1.696-1.033,1.861-3.78,2.706-6.328c0.845-2.559,1.861-5.835,1.338-7.895
			c-0.511-2.054-1.309-2.882-2.782-6.398c-1.473-3.51-2.242-7.913-2.242-7.913c-1.479-0.194-5.142,1.597-8.288,2.424
			c-3.14,0.834-5.641,0.194-6.022,0.628c-0.399,0.434-0.904,5.436-0.076,6.651c0.839,1.215,1.55,6.451,1.732,8.488
			c0.2,2.043,0.839,4.919,1.291,6.069c0.452,1.145,0.194,2.677,0,3.058c-0.194,0.387-0.258,2.618-0.258,2.618h-5.324
			c0.704-2.037,2.947-1.591,3.146-4.338c0.188-2.741-0.452-5.295-1.479-7.66c-1.033-2.354-1.796-4.15-2.377-6.381
			c-0.575-2.236-2.278-7.009-2.571-4.285c-0.305,2.735-3.023,10.877-3.393,11.869c-0.364,0.98-1.644,4.438-1.35,5.306
			c0.288,0.869,0.417,2.741-0.305,2.853c-0.728,0.117-1.444,1.362-1.444,1.362c-0.065,0.71-0.616,2.172-0.616,2.172l-4.79,0.481
			c0,0,0.041-1.538,1.585-2.213c1.55-0.663,1.831-1.145,3.275-4.901c1.438-3.763,1.109-4.895,1.08-6.375
			c-0.035-1.479,0.552-2.119,0.804-3.246c0.252-1.133,0.599-5.524,0.599-5.524c0.018-1.925,1.027-6.152,1.027-6.152
			c-1.831-1.057-3.757-2.683-3.757-2.683c-13.595-1.086-15.044-9.263-16.113-10.56c-2.019-2.471-2.864-5.858-2.759-7.531
			c-0.387,0.546-2.988,1.104-3.915,0c-0.986-1.156-3.316-2.231-3.892-2.518c-0.569-0.288-1.896,0.335-1.867-0.112
			c0.035-0.44,0.575-0.569,0.634-0.751C406.982,305.527,406.254,305.615,406.148,305.069z"/>
		<path style="fill:#8F1D00;" d="M180.475,288.311c-0.675,0-1.556,0.182-2.096-0.335c-0.499-0.47-0.335-1.285-0.834-1.855
			c-0.329-0.37-1.227-0.522-1.315-0.974c-0.117-0.698,0.863-1.391,1.08-2.06c0.605-1.861-0.47-3.111,1.638-4.156
			c1.872-0.916,3.851-0.499,5.571,0.558c1.737,1.08,2.594,2.448,2.923,4.443c0.299,1.831-0.434,3.551-0.252,5.389
			c0.182,1.849,0.311,2.964,0.64,4.625c0.452,2.278,0.71,4.637,1.074,6.926c1.256,7.813,1.004,15.813,2.254,23.632
			c0.616,3.839,1.749,7.725,3.135,11.341c0.798,2.084,1.45,4.22,2.324,6.281c0.282,0.669,1.039,1.685,0.81,2.454
			c-0.076,0.282-1.01,1.021-1.426,1.379c-1.168,1.021-2.553,1.861-4.097,2.09c-1.057,0.164-2.941,0.247-1.679-1.045
			c0.235-0.241,1.556,0.135,1.033-0.834c-0.158-0.305-1.585-0.411-1.902-0.458c-1.309-0.194-2.019,0.158-3.293,0.293
			c-1.057,0.117-1.978-0.264-3.029-0.352c-1.18-0.106-3.322-0.258-4.408,0.352c-0.787,0.44-0.423,0.317-0.822,1.151
			c-0.358,0.745-0.464,1.485-1.368,1.755c-0.775,0.229-1.456-0.37-2.207-0.429c-0.716-0.065-1.561,0.076-2.289,0.059
			c-1.086-0.023-2.911,0.47-2.442-1.227c0.405-1.526,2.248-1.121,2.589-3.035c0.376-2.119,0.129-4.455,0.423-6.615
			c0.564-4.103,0.64-8.359,0.657-12.497c0.012-4.461,2.101-8.018,3.375-12.162c0.417-1.379,0.857-2.876,0.927-4.326
			c0.106-2.119-0.939-1.045-1.532,0.147c-1.015,1.99-2.882,4.414-4.637,6.469c-0.27,0.311,0.023,1.156-0.27,1.426
			c-0.464,0.411-0.945,0.757-1.462,1.004c-1.432,0.681-2.671-0.123-2.489-1.767c0.082-0.798,0.581-1.479,1.057-2.137
			c0.17-0.247,0.734-0.358,1.01-0.446c0.176-0.065-0.288,0.006,0.176-1.015c0.857-1.878,3.082-5.412,3.898-7.32
			c0.863-2.002,2.342-4.719,3.24-6.715c0.933-2.066,0.845-3.721,1.902-5.741c0.434-0.833,1.203-1.391,1.614-2.142
			c0.446-0.816,0.387-1.309,0.898-2.207c-0.158,0.663-0.164,0.892-0.264,1.503L180.475,288.311z"/>
		<path style="fill:#8F1D00;" d="M167.914,315.224c0.07,0.622,0.129,1.256,0.164,1.902c0.006-0.863,0.053-1.732,0.135-2.583
			l1.344,0.123c-0.288,2.941-0.1,5.981,0.646,8.828c0.687,2.606,1.837,5.066,3.516,7.167c1.79,2.231,4.244,3.974,6.944,4.942
			c2.536,0.898,5.283,1.109,7.866,0.376c1.52-0.429,2.935-1.156,4.238-2.06l0,0c1.321-0.922,2.524-2.031,3.622-3.211
			c3.029-3.275,5.301-7.144,6.915-11.317c1.796-4.661,2.794-9.685,3.135-14.686c0.323-4.755,0.106-9.521-0.387-14.27l0,0
			c-0.481-4.784-1.244-9.55-2.002-14.287l1.338-0.211c0.757,4.766,1.526,9.562,2.013,14.358l0,0
			c0.493,4.825,0.71,9.662,0.387,14.504c-0.352,5.119-1.374,10.284-3.223,15.08c-1.679,4.32-4.033,8.335-7.185,11.746
			c-1.156,1.25-2.442,2.424-3.839,3.405l0,0c-1.421,0.986-2.964,1.779-4.637,2.254c-2.876,0.816-5.911,0.593-8.699-0.411
			c-2.923-1.039-5.594-2.935-7.537-5.359c-1.808-2.26-3.041-4.89-3.768-7.678c-0.37-1.421-0.61-2.876-0.734-4.344
			c0.035,2.178-0.059,4.42-0.141,6.668c-0.141,3.692-0.288,7.39,0.112,10.73l-1.35,0.158c-0.399-3.422-0.258-7.179-0.106-10.941
			c0.135-3.692,0.282-7.384-0.117-10.724L167.914,315.224z M340.065,313.639l-0.035,0.041l0,0c-0.188,0.211-0.164,0.528-0.029,0.863
			c0.188,0.464,0.552,0.951,0.951,1.332c0.041,0.035,0.082,0.076,0.129,0.129l0,0c5.518,4.984,11.693,9.75,18.326,13.096
			c6.592,3.322,13.653,5.242,20.967,4.579c3.827-0.358,7.555-1.426,11.071-3.011c3.833-1.737,7.414-4.103,10.619-6.838
			c3.088-2.63,5.852-5.606,8.406-8.775c2.548-3.176,4.884-6.551,7.085-9.991l1.133,0.734c-2.225,3.469-4.573,6.885-7.167,10.108
			c-2.594,3.234-5.424,6.263-8.582,8.952c-3.293,2.818-6.985,5.248-10.936,7.044c-3.645,1.649-7.513,2.759-11.511,3.117
			c-7.596,0.693-14.892-1.285-21.689-4.708c-6.762-3.405-13.025-8.247-18.619-13.307l-0.006,0.006
			c-0.047-0.047-0.106-0.106-0.17-0.164c-0.511-0.499-1.01-1.145-1.274-1.808c-0.305-0.792-0.299-1.602,0.305-2.272l0.012-0.012
			l0.029-0.035L340.065,313.639z M257.605,293.47c-0.065-0.006-0.112,0-0.141,0.012v0.006c-0.035,0.023-0.076,0.065-0.1,0.123v0.006
			c-0.065,0.112-0.106,0.258-0.123,0.423v0.012c-0.053,0.499,0.059,1.104,0.276,1.544c1.737,3.387,4.168,6.298,6.944,8.928
			c2.782,2.636,5.94,5.001,9.075,7.279c1.673,1.215,3.363,2.418,5.113,3.498c1.726,1.08,3.516,2.049,5.412,2.776
			c5.582,2.166,11.887,1.943,17.498-0.147c5.617-2.084,10.525-6.034,13.348-11.329l1.192,0.634c-2.97,5.6-8.153,9.767-14.064,11.963
			c-5.911,2.201-12.562,2.424-18.467,0.141c-1.978-0.769-3.845-1.767-5.641-2.888c-1.784-1.109-3.493-2.33-5.183-3.557
			c-3.164-2.283-6.351-4.678-9.216-7.39c-2.882-2.729-5.412-5.758-7.22-9.292c-0.335-0.663-0.499-1.567-0.405-2.319l0,0
			c0.035-0.323,0.112-0.634,0.252-0.898l0,0c0.158-0.311,0.387-0.558,0.699-0.71h0.006c0.258-0.135,0.558-0.2,0.904-0.153
			L257.605,293.47z"/>
	</g>
</g>
<path style="fill:#FFFF00;" d="M281.132,51.555c23.298,0,42.187,18.889,42.187,42.193c0,23.298-18.889,42.187-42.187,42.187
	c-23.303,0-42.193-18.889-42.193-42.187C238.939,70.444,257.828,51.555,281.132,51.555z"/>
<g>
</g>
<g>
</g>
<g>
</g>
<g>
</g>
<g>
</g>
<g>
</g>
<g>
</g>
<g>
</g>
<g>
</g>
<g>
</g>
<g>
</g>
<g>
</g>
<g>
</g>
<g>
</g>
<g>
</g>
</svg>
