<?xml version="1.0" encoding="iso-8859-1"?>
<!-- Generator: Adobe Illustrator 19.0.0, SVG Export Plug-In . SVG Version: 6.00 Build 0)  -->
<svg version="1.1" id="Layer_1" xmlns="http://www.w3.org/2000/svg" xmlns:xlink="http://www.w3.org/1999/xlink" x="0px" y="0px"
	 viewBox="0 0 512 512" style="enable-background:new 0 0 512 512;" xml:space="preserve">
<g>
	<polygon style="fill:#B1E9F1;" points="251.982,95.175 251.982,91.192 241.692,95.175 	"/>
	<polygon style="fill:#B1E9F1;" points="240.582,90.766 240.582,94.731 250.83,90.766 	"/>
	<polygon style="fill:#B1E9F1;" points="251.982,79.819 251.982,75.778 241.549,79.819 	"/>
	<polygon style="fill:#B1E9F1;" points="240.582,79.745 240.582,79.819 240.674,79.819 	"/>
	<polygon style="fill:#B1E9F1;" points="250.661,80.527 240.582,80.527 240.582,83.273 243.576,83.273 	"/>
	<polygon style="fill:#B1E9F1;" points="240.582,87.245 240.582,89.584 246.62,87.245 	"/>
	<polygon style="fill:#B1E9F1;" points="240.582,121.478 240.582,125.407 250.729,121.478 	"/>
	<polygon style="fill:#B1E9F1;" points="251.982,125.888 251.982,121.865 241.592,125.888 	"/>
	<polygon style="fill:#B1E9F1;" points="240.582,95.887 240.582,99.846 250.81,95.887 	"/>
	<polygon style="fill:#B1E9F1;" points="250.899,101.003 240.582,101.003 240.582,101.649 249.233,101.649 	"/>
	<polygon style="fill:#B1E9F1;" points="240.582,116.549 240.582,120.374 250.47,116.549 	"/>
	<polygon style="fill:#B1E9F1;" points="251.982,74.699 251.982,70.663 241.557,74.699 	"/>
	<polygon style="fill:#B1E9F1;" points="240.582,60.424 240.582,63.938 249.661,60.424 	"/>
	<polygon style="fill:#B1E9F1;" points="250.699,54.933 240.582,54.933 240.582,56.45 246.778,56.45 	"/>
	<polygon style="fill:#B1E9F1;" points="240.582,54.176 240.582,54.224 240.644,54.224 	"/>
	<polygon style="fill:#B1E9F1;" points="251.982,54.224 251.982,50.156 241.468,54.224 	"/>
	<polygon style="fill:#B1E9F1;" points="240.582,49.814 240.582,53.694 250.61,49.814 	"/>
	<polygon style="fill:#B1E9F1;" points="251.982,69.58 251.982,65.507 241.468,69.58 	"/>
	<polygon style="fill:#B1E9F1;" points="240.582,126.598 240.582,130.52 250.706,126.598 	"/>
	<polygon style="fill:#B1E9F1;" points="240.582,70.29 240.582,74.205 250.695,70.29 	"/>
	<polygon style="fill:#B1E9F1;" points="240.582,75.407 240.582,79.318 250.681,75.407 	"/>
	<polygon style="fill:#B1E9F1;" points="240.582,64.419 240.582,64.46 240.637,64.46 	"/>
	<polygon style="fill:#B1E9F1;" points="240.582,65.17 240.582,69.051 250.605,65.17 	"/>
	<polygon style="fill:#B1E9F1;" points="250.91,177.787 240.582,177.787 240.582,179.131 247.44,179.131 	"/>
	<polygon style="fill:#B1E9F1;" points="250.851,162.43 240.582,162.43 240.582,162.74 250.053,162.74 	"/>
	<polygon style="fill:#B1E9F1;" points="251.982,171.959 251.982,167.983 241.702,171.959 	"/>
	<polygon style="fill:#B1E9F1;" points="240.582,167.55 240.582,171.522 250.844,167.55 	"/>
	<polygon style="fill:#B1E9F1;" points="241.715,166.842 251.982,166.842 251.982,166.712 242.041,166.712 	"/>
	<polygon style="fill:#B1E9F1;" points="240.582,172.669 240.582,176.632 250.818,172.669 	"/>
	<polygon style="fill:#B1E9F1;" points="240.582,171.948 240.582,171.959 240.593,171.959 	"/>
	<polygon style="fill:#B1E9F1;" points="240.582,49.013 240.582,49.104 240.703,49.104 	"/>
	<polygon style="fill:#B1E9F1;" points="246.748,193.145 240.582,193.145 240.582,197.097 246.748,194.71 	"/>
	<polygon style="fill:#B1E9F1;" points="251.982,131.008 251.982,126.978 241.571,131.008 	"/>
	<polygon style="fill:#B1E9F1;" points="246.748,192.435 246.748,191.051 245.142,191.051 241.566,192.435 	"/>
	<polygon style="fill:#B1E9F1;" points="251.982,177.078 251.982,173.091 241.686,177.078 	"/>
	<polygon style="fill:#B1E9F1;" points="240.582,191.051 240.582,191.942 242.886,191.051 	"/>
	<polygon style="fill:#B1E9F1;" points="240.582,136.837 240.582,140.786 250.784,136.837 	"/>
	<polygon style="fill:#B1E9F1;" points="246.748,195.585 241.656,197.555 246.748,197.555 	"/>
	<polygon style="fill:#B1E9F1;" points="240.582,144.859 240.582,145.899 243.262,144.859 	"/>
	<polygon style="fill:#B1E9F1;" points="251.982,136.127 251.982,132.132 241.663,136.127 	"/>
	<polygon style="fill:#B1E9F1;" points="240.582,131.717 240.582,135.672 250.796,131.717 	"/>
	<polygon style="fill:#B1E9F1;" points="240.582,152.191 240.582,156.142 250.784,152.191 	"/>
	<polygon style="fill:#B1E9F1;" points="240.582,157.313 240.582,161.253 250.763,157.313 	"/>
	<polygon style="fill:#B1E9F1;" points="251.982,156.603 251.982,152.602 241.642,156.603 	"/>
	<polygon style="fill:#B1E9F1;" points="251.982,161.72 251.982,157.714 241.626,161.72 	"/>
	<polygon style="fill:#B1E9F1;" points="251.982,151.484 251.982,147.509 241.72,151.484 	"/>
	<polygon style="fill:#B1E9F1;" points="240.582,147.072 240.582,151.05 250.855,147.072 	"/>
	<rect x="151.87" y="166.71" style="fill:#B1E9F1;" width="52.5" height="14.903"/>
	<rect x="151.87" y="186.58" style="fill:#B1E9F1;" width="52.5" height="0.495"/>
	<path style="fill:#B1E9F1;" d="M199.334,7.053V6.306l1.317-0.286v0.74l10.43-2.826c1.667-0.293,3.342-0.568,5.021-0.832h24.526
		V2.419h1.363V0.386C226.164,1.24,210.724,3.539,195.79,7.14c0.119-0.028,0.237-0.058,0.356-0.087H199.334z"/>
	<path style="fill:#B1E9F1;" d="M251.48,28.628h1.819v6.961h19.237V24.166h7.366v11.423h5.525v3.975h-5.525V56.45h54.341v-1.489
		h7.369v1.489h9.211v3.974h-9.211v22.849h9.211v3.972h-9.211v25.33h7.914v3.975h-7.914v24.338h52.028
		c0.002-1.859,0.006-3.746,0.01-5.704c0-0.555-1.072-1.292-2.627-1.104v-5.59c2.554-0.49,7.461,1.306,7.461,4.304v1.839v6.254h1.154
		v-11.423h8.29v11.423h49.755v3.971h-6.464v17.881h5.569v3.972h-5.569v20.366h7.364v3.974h-7.364v24.336h12.896v-13.41h23.944
		v17.386h21.321c0.376,2.621,0.711,5.255,1.006,7.901C498.358,119.607,419.579,32.136,316.379,7.181H251.48V28.628z"/>
	<path style="fill:#B1E9F1;" d="M250.118,2.419h1.362v2.803h56.208c0.201,0.041,0.4,0.088,0.601,0.13C291.408,1.849,273.92,0,256,0
		c-2.807,0-5.6,0.062-8.385,0.151c0.834-0.026,1.667-0.056,2.503-0.075L250.118,2.419L250.118,2.419z"/>
	<rect x="279.9" y="116.55" style="fill:#B1E9F1;" width="54.34" height="24.338"/>
	<path style="fill:#B1E9F1;" d="M444.77,144.859h-36.842v17.345c3.365-1.67,9.813-4.313,19.34-5.919
		c9.694-1.634,15.004-5.846,17.502-8.538V144.859z"/>
	<rect x="151.87" y="144.86" style="fill:#B1E9F1;" width="52.5" height="12.915"/>
	<rect x="279.9" y="87.25" style="fill:#B1E9F1;" width="54.34" height="25.33"/>
	<rect x="279.9" y="60.42" style="fill:#B1E9F1;" width="54.34" height="22.849"/>
	<rect x="151.87" y="116.55" style="fill:#B1E9F1;" width="52.5" height="21.355"/>
	<path style="fill:#B1E9F1;" d="M511.867,248.49c0.018,0.599,0.046,1.195,0.061,1.794c-0.04-1.82-0.107-3.633-0.184-5.443
		c0.019,0.455,0.029,0.913,0.046,1.369C511.818,246.969,511.845,247.729,511.867,248.49z"/>
	<polygon style="fill:#B1E9F1;" points="279.902,191.051 279.902,215.387 304.167,215.387 308.598,191.051 	"/>
	<path style="fill:#B1E9F1;" d="M510.396,227.356c0.439,3.942,0.787,7.911,1.045,11.904
		C511.183,235.266,510.835,231.298,510.396,227.356z"/>
	<polygon style="fill:#B1E9F1;" points="444.77,215.387 444.77,191.051 419.812,191.051 423.504,215.387 	"/>
	<path style="fill:#B1E9F1;" d="M312.343,6.235c1.336,0.304,2.669,0.616,3.998,0.937C315.012,6.851,313.681,6.535,312.343,6.235z"/>
	<path style="fill:#B1E9F1;" d="M242.044,0.383c0.818-0.044,1.639-0.077,2.46-0.113C243.684,0.306,242.863,0.339,242.044,0.383z"/>
	<rect x="398.48" y="144.86" style="fill:#B1E9F1;" width="1.154" height="17.839"/>
	<rect x="279.9" y="144.86" style="fill:#B1E9F1;" width="54.34" height="17.881"/>
	<path style="fill:#B1E9F1;" d="M415.807,173.05l0.007-0.005c0.02,0.029,0.035,0.063,0.055,0.092
		c0.221,0.327,0.426,0.669,0.616,1.024c0.053,0.099,0.101,0.2,0.152,0.301c0.158,0.317,0.305,0.641,0.438,0.975
		c0.03,0.075,0.064,0.148,0.093,0.224c0.148,0.391,0.274,0.795,0.386,1.205c0.03,0.111,0.058,0.222,0.086,0.334
		c0.104,0.421,0.197,0.847,0.263,1.282c0.001,0.006,0.003,0.013,0.004,0.019l1.301,8.578h25.561v-20.366h-36.842v2.302h0.492
		C411.602,169.014,414.134,170.626,415.807,173.05z"/>
	<path style="fill:#B1E9F1;" d="M320.369,169.014h13.874v-2.302h-54.341v20.366h29.419l1.561-8.576
		C311.815,173.366,315.15,169.014,320.369,169.014z"/>
	<path style="fill:#B1E9F1;" d="M393.639,162.698c-0.003-6.112-0.007-11.833-0.003-17.839h-52.024v17.881h49.133
		c0.135-0.018,0.269-0.042,0.409-0.042L393.639,162.698L393.639,162.698z"/>
	<path style="fill:#B1E9F1;" d="M511.741,244.764c-0.075-1.733-0.17-3.46-0.279-5.183c0.109,1.723,0.195,3.451,0.27,5.183H511.741z"
		/>
	<polygon style="fill:#B1E9F1;" points="250.55,34.456 240.582,34.456 240.582,35.589 247.623,35.589 	"/>
	<polygon style="fill:#B1E9F1;" points="251.982,80.891 245.832,83.273 251.982,83.273 	"/>
	<polygon style="fill:#B1E9F1;" points="251.982,55.309 249.034,56.45 251.982,56.45 	"/>
	<polygon style="fill:#B1E9F1;" points="240.582,33.686 240.582,33.75 240.662,33.75 	"/>
	<polygon style="fill:#B1E9F1;" points="251.982,120.771 251.982,116.836 241.821,120.771 	"/>
	<polygon style="fill:#B1E9F1;" points="251.982,96.302 241.672,100.295 251.982,100.295 	"/>
	<polygon style="fill:#B1E9F1;" points="251.982,34.776 249.884,35.589 251.982,35.589 	"/>
	<polygon style="fill:#B1E9F1;" points="251.982,43.987 251.982,39.93 241.502,43.987 	"/>
	<polygon style="fill:#B1E9F1;" points="240.582,44.695 240.582,48.586 250.626,44.695 	"/>
	<polygon style="fill:#B1E9F1;" points="240.582,39.578 240.582,43.469 250.64,39.578 	"/>
	<polygon style="fill:#B1E9F1;" points="251.982,64.46 251.982,60.424 251.923,60.424 241.489,64.46 	"/>
	<polygon style="fill:#B1E9F1;" points="251.982,101.456 251.49,101.649 251.982,101.649 	"/>
	<polygon style="fill:#B1E9F1;" points="251.982,90.06 251.982,87.245 248.881,87.245 241.613,90.06 	"/>
	<polygon style="fill:#B1E9F1;" points="251.352,215.387 251.982,215.387 251.982,214.052 251.352,214.297 	"/>
	<polygon style="fill:#B1E9F1;" points="251.982,203.783 251.352,204.028 251.352,207.792 251.982,207.792 	"/>
	<polygon style="fill:#B1E9F1;" points="251.982,198.675 251.352,198.918 251.352,202.674 251.982,202.674 	"/>
	<polygon style="fill:#B1E9F1;" points="251.982,146.364 251.982,144.859 245.516,144.859 241.631,146.364 	"/>
	<polygon style="fill:#B1E9F1;" points="251.982,49.104 251.982,45.045 241.489,49.104 	"/>
	<polygon style="fill:#B1E9F1;" points="251.982,208.937 251.352,209.18 251.352,212.911 251.982,212.911 	"/>
	<polygon style="fill:#B1E9F1;" points="251.982,137.247 242.581,140.887 251.982,140.887 	"/>
	<polygon style="fill:#B1E9F1;" points="251.982,178.244 249.696,179.131 251.982,179.131 	"/>
	<polygon style="fill:#B1E9F1;" points="251.982,193.555 251.352,193.8 251.352,197.555 251.982,197.555 	"/>
	<rect x="251.35" y="191.05" style="fill:#B1E9F1;" width="0.63" height="1.384"/>
	<polygon style="fill:#B1E9F1;" points="151.875,207.938 156.479,207.938 156.479,215.387 187.799,215.387 187.799,204.958 
		198.851,204.958 198.851,196.015 204.376,196.015 204.376,191.051 151.875,191.051 	"/>
	<polygon style="fill:#B1E9F1;" points="80.268,160.658 81.333,159.271 78.127,158.55 	"/>
	<polygon style="fill:#B1E9F1;" points="81.851,158.605 82.918,157.233 79.736,156.516 	"/>
	<polygon style="fill:#B1E9F1;" points="77.102,164.739 78.177,163.351 74.958,162.627 	"/>
	<polygon style="fill:#B1E9F1;" points="83.436,156.56 84.499,155.194 81.324,154.482 	"/>
	<polygon style="fill:#B1E9F1;" points="75.517,166.785 76.596,165.39 73.364,164.664 	"/>
	<polygon style="fill:#B1E9F1;" points="78.683,162.701 79.753,161.313 76.535,160.586 	"/>
	<polygon style="fill:#B1E9F1;" points="89.779,148.373 90.814,147.035 87.717,146.338 	"/>
	<polygon style="fill:#B1E9F1;" points="83.779,191.336 101.995,191.336 92.351,188.094 	"/>
	<polygon style="fill:#B1E9F1;" points="86.604,152.468 87.653,151.114 84.519,150.407 	"/>
	<polygon style="fill:#B1E9F1;" points="88.193,150.418 89.233,149.076 86.125,148.375 	"/>
	<path style="fill:#B1E9F1;" d="M91.952,143.894c0.861,0,1.56-0.38,1.56-0.843s-0.698-0.841-1.56-0.841
		c-0.859,0-1.56,0.378-1.56,0.841S91.094,143.894,91.952,143.894z"/>
	<polygon style="fill:#B1E9F1;" points="85.021,154.514 86.077,153.155 82.925,152.443 	"/>
	<polygon style="fill:#B1E9F1;" points="62.889,183.082 63.961,181.703 60.761,180.987 	"/>
	<polygon style="fill:#B1E9F1;" points="61.306,185.13 62.38,183.744 59.165,183.02 	"/>
	<polygon style="fill:#B1E9F1;" points="64.46,181.06 65.534,179.667 62.307,178.939 	"/>
	<path style="fill:#B1E9F1;" d="M25.696,219.364V197.01h14.193v-3.287h4.787v0.793h3.933v-1.786H37.174v1.349h-2.332v-2.848h1.974
		v-6.452l19.587-0.099c-0.014-0.039-0.014-0.08,0.016-0.117l3.161-4.079l3.159-4.078l3.156-4.079l3.165-4.08l3.154-4.079
		l7.902-10.195l6.32-8.157c0.016-0.03,0.05-0.051,0.084-0.069l0.005-0.003l3.589-1.901c-0.328-0.218-0.527-0.49-0.527-0.79
		c0-0.703,1.063-1.276,2.362-1.276c1.303,0,2.362,0.573,2.362,1.276c0,0.552-0.657,1.02-1.571,1.196v43.467l10.131,3.406
		c0.14,0.048,0.204,0.133,0.181,0.216h4.512v1.92H77.35v-1.92h5.66c-0.096-0.096-0.055-0.218,0.117-0.282l8.81-3.331v-43.398
		c-0.319-0.002-0.625-0.036-0.905-0.101l0.708,2.664c0,0.005-0.005,0.009-0.005,0.014c0.005,0.014,0,0.03-0.002,0.044
		c0,0.014-0.005,0.032-0.014,0.044c-0.005,0.005-0.005,0.009-0.009,0.014l-1.576,2.038c0,0,0,0-0.005,0c0,0.002,0,0.002,0,0.002
		l-1.576,2.039H88.55l-1.576,2.038l-1.58,2.036v0.005l-1.581,2.038l-1.581,2.036l-1.58,2.043l-1.581,2.036l-1.578,2.039
		c0,0,0,0,0,0.004l-1.581,2.036l-1.576,2.039h-0.005l-1.576,2.04l-1.581,2.039l-1.58,2.038c0,0,0,0,0,0.003l-1.583,2.038
		l-1.576,2.038l-1.581,2.039v0.002l-3.161,4.078c-0.034,0.044-0.09,0.075-0.158,0.103l-0.648,6.874h-3.933v1.786h2.829v-0.861h5.406
		v3.356h9.321v22.354h7.021c0.625-2.096,1.839-4.982,4.031-6.46c3.683-2.484,10.132-3.477,11.052-6.458
		c0.919-2.98,7.366-4.966,12.896-3.477c0.345,0.093,0.662,0.2,0.953,0.319l0.115-0.385l1.137,1.084
		c0.414,0.299,0.754,0.632,1.038,0.99l8.366,7.977l0.066-0.222l1.393-4.877l0.747,0.427v-0.344h20.261V191.05h-5.569v-3.974h5.569
		V166.71h-7.364v-3.972h7.364v-17.881h-6.469v-3.971h6.469v-24.338h-6.469v-3.975h6.469v-8.94h8.288v8.94h52.501v-25.33h-7.364
		v-3.972h7.364V60.424h-8.285V56.45h8.285V39.564h-0.921v-3.975h0.921v-0.994h7.367v0.994h27.522v-6.961h1.362V7.761h-47.382
		C87.39,34.438,7.765,127.035,0.553,239.352c0.432-6.736,1.124-13.402,2.068-19.988H25.696z M163.379,37.058
		c14.516,0,26.28,11.764,26.28,26.278c0,14.513-11.764,26.278-26.28,26.278c-14.511,0-26.278-11.765-26.278-26.278
		C137.101,48.822,148.868,37.058,163.379,37.058z"/>
	<polygon style="fill:#B1E9F1;" points="246.748,198.263 240.582,198.263 240.582,202.212 246.748,199.824 	"/>
	<polygon style="fill:#B1E9F1;" points="66.046,179.014 67.115,177.627 63.902,176.902 	"/>
	<polygon style="fill:#B1E9F1;" points="70.794,172.88 71.862,171.508 68.68,170.791 	"/>
	<polygon style="fill:#B1E9F1;" points="72.379,170.835 73.442,169.469 70.271,168.755 	"/>
	<polygon style="fill:#B1E9F1;" points="73.946,168.809 75.018,167.43 71.813,166.709 	"/>
	<polygon style="fill:#B1E9F1;" points="69.211,174.933 70.276,173.546 67.074,172.825 	"/>
	<polygon style="fill:#B1E9F1;" points="67.622,176.976 68.696,175.587 65.48,174.864 	"/>
	<rect x="44.676" y="196.5" style="fill:#B1E9F1;" width="15.11" height="0.509"/>
	<polygon style="fill:#B1E9F1;" points="69.461,168.857 68.378,170.255 71.614,170.984 	"/>
	<polygon style="fill:#B1E9F1;" points="67.876,170.901 66.797,172.293 70.022,173.02 	"/>
	<polygon style="fill:#B1E9F1;" points="66.284,172.953 65.216,174.332 68.412,175.054 	"/>
	<polygon style="fill:#B1E9F1;" points="240.627,4.194 230.088,7.053 240.627,7.053 	"/>
	<polygon style="fill:#B1E9F1;" points="71.027,166.835 69.958,168.214 73.155,168.935 	"/>
	<polygon style="fill:#B1E9F1;" points="64.703,174.997 63.638,176.374 66.822,177.09 	"/>
	<polygon style="fill:#B1E9F1;" points="63.123,177.035 62.058,178.412 65.244,179.129 	"/>
	<polygon style="fill:#B1E9F1;" points="58.388,183.151 57.321,184.53 60.511,185.249 	"/>
	<path style="fill:#B1E9F1;" d="M0.545,239.476c-0.112,1.758-0.21,3.52-0.286,5.288h0.009
		C0.345,242.997,0.433,241.233,0.545,239.476z"/>
	<polygon style="fill:#B1E9F1;" points="90.262,144.373 87.523,145.825 90.844,146.573 	"/>
	<polygon style="fill:#B1E9F1;" points="59.971,181.108 58.901,182.49 62.103,183.213 	"/>
	<polygon style="fill:#B1E9F1;" points="61.537,179.083 60.477,180.45 63.65,181.167 	"/>
	<polygon style="fill:#B1E9F1;" points="80.518,154.583 79.434,155.977 82.666,156.706 	"/>
	<polygon style="fill:#B1E9F1;" points="82.102,152.535 81.015,153.939 84.268,154.672 	"/>
	<polygon style="fill:#B1E9F1;" points="83.686,150.492 82.595,151.9 85.861,152.636 	"/>
	<polygon style="fill:#B1E9F1;" points="86.861,146.396 85.754,147.821 89.059,148.568 	"/>
	<polygon style="fill:#B1E9F1;" points="85.275,148.439 84.176,149.861 87.467,150.601 	"/>
	<path style="fill:#B1E9F1;" d="M0.205,246.34c0.017-0.446,0.026-0.894,0.045-1.34c-0.074,1.752-0.139,3.506-0.178,5.267
		c0.015-0.609,0.043-1.214,0.062-1.822C0.155,247.742,0.179,247.041,0.205,246.34z"/>
	<polygon style="fill:#B1E9F1;" points="78.932,156.628 77.853,158.018 81.079,158.745 	"/>
	<polygon style="fill:#B1E9F1;" points="75.76,160.726 74.695,162.098 77.877,162.813 	"/>
	<polygon style="fill:#B1E9F1;" points="74.18,162.763 73.115,164.134 76.3,164.854 	"/>
	<polygon style="fill:#B1E9F1;" points="72.597,164.806 71.538,166.175 74.706,166.89 	"/>
	<polygon style="fill:#B1E9F1;" points="77.34,158.679 76.273,160.057 79.469,160.776 	"/>
	<polygon style="fill:#B1E9F1;" points="246.748,205.81 241.626,207.792 246.748,207.792 	"/>
	<rect x="253.3" y="60.42" style="fill:#B1E9F1;" width="19.237" height="22.849"/>
	<rect x="257.8" y="39.564" style="fill:#B1E9F1;" width="14.741" height="16.886"/>
	<rect x="253.3" y="87.25" style="fill:#B1E9F1;" width="19.237" height="14.404"/>
	<rect x="211.74" y="166.71" style="fill:#B1E9F1;" width="27.522" height="12.42"/>
	<polygon style="fill:#B1E9F1;" points="234.771,204.958 234.771,215.387 239.265,215.387 239.265,191.051 211.743,191.051 
		211.743,196.015 219.112,196.015 219.112,204.958 	"/>
	<rect x="211.74" y="144.86" style="fill:#B1E9F1;" width="27.522" height="17.881"/>
	<polygon style="fill:#B1E9F1;" points="251.982,33.75 251.982,29.664 241.434,33.75 	"/>
	<rect x="253.3" y="191.05" style="fill:#B1E9F1;" width="19.237" height="24.336"/>
	<rect x="253.3" y="116.55" style="fill:#B1E9F1;" width="19.237" height="24.338"/>
	<rect x="253.3" y="144.86" style="fill:#B1E9F1;" width="19.237" height="17.881"/>
	<rect x="253.3" y="166.71" style="fill:#B1E9F1;" width="19.237" height="12.42"/>
	<polygon style="fill:#B1E9F1;" points="246.748,215.204 246.748,213.621 240.582,213.621 240.582,215.387 246.272,215.387 	"/>
	<polygon style="fill:#B1E9F1;" points="246.748,210.964 241.715,212.911 246.748,212.911 	"/>
	<polygon style="fill:#B1E9F1;" points="246.748,208.502 240.582,208.502 240.582,212.476 246.748,210.089 	"/>
	<polygon style="fill:#B1E9F1;" points="250.168,5.635 250.168,3.528 243.413,5.635 	"/>
	<polygon style="fill:#B1E9F1;" points="246.748,203.382 240.582,203.382 240.582,207.322 246.748,204.935 	"/>
	<polygon style="fill:#B1E9F1;" points="246.748,200.7 241.647,202.674 246.748,202.674 	"/>
	<rect x="211.74" y="116.55" style="fill:#B1E9F1;" width="12.901" height="24.338"/>
	<rect x="228.33" y="116.55" style="fill:#B1E9F1;" width="10.938" height="24.338"/>
	<rect x="211.74" y="87.25" style="fill:#B1E9F1;" width="27.522" height="14.404"/>
	<rect x="231.09" y="39.564" style="fill:#B1E9F1;" width="8.178" height="16.886"/>
	<rect x="211.74" y="60.42" style="fill:#B1E9F1;" width="27.522" height="22.849"/>
	<rect x="211.74" y="39.564" style="fill:#B1E9F1;" width="14.74" height="16.886"/>
	<polygon style="fill:#B1E9F1;" points="250.168,21.709 250.168,19.59 243.381,21.709 	"/>
	<polygon style="fill:#B1E9F1;" points="250.168,24.922 250.168,22.813 243.397,24.922 	"/>
	<polygon style="fill:#B1E9F1;" points="241.944,22.418 241.944,24.557 248.805,22.418 	"/>
	<polygon style="fill:#B1E9F1;" points="241.944,25.634 241.944,27.785 248.837,25.634 	"/>
	<polygon style="fill:#B1E9F1;" points="228.182,3.812 228.182,6.778 239.116,3.812 	"/>
	<polygon style="fill:#B1E9F1;" points="241.944,19.205 241.944,21.337 248.787,19.205 	"/>
	<polygon style="fill:#B1E9F1;" points="226.861,7.053 226.861,4.139 216.123,7.053 	"/>
	<polygon style="fill:#B1E9F1;" points="250.168,18.494 250.168,16.36 243.321,18.494 	"/>
	<polygon style="fill:#B1E9F1;" points="214.414,3.812 214.414,6.723 225.145,3.812 	"/>
	<polygon style="fill:#B1E9F1;" points="250.168,28.14 250.168,26.04 243.431,28.14 	"/>
	<polygon style="fill:#B1E9F1;" points="240.582,33.205 250.571,29.338 240.582,29.338 	"/>
	<polygon style="fill:#B1E9F1;" points="213.099,7.053 213.099,4.178 202.505,7.053 	"/>
	<polygon style="fill:#B1E9F1;" points="241.944,3.127 241.944,5.273 248.821,3.127 	"/>
	<polygon style="fill:#B1E9F1;" points="241.944,9.556 241.944,11.673 248.736,9.556 	"/>
	<polygon style="fill:#B1E9F1;" points="241.944,12.773 241.944,14.923 248.837,12.773 	"/>
	<polygon style="fill:#B1E9F1;" points="250.168,12.062 250.168,9.93 243.323,12.062 	"/>
	<polygon style="fill:#B1E9F1;" points="250.168,8.849 250.168,6.696 243.269,8.849 	"/>
	<polygon style="fill:#B1E9F1;" points="243.303,0.431 243.303,1.872 247.578,0.431 	"/>
	<polygon style="fill:#B1E9F1;" points="241.944,6.343 241.944,7.761 241.944,8.448 248.682,6.343 	"/>
	<polygon style="fill:#B1E9F1;" points="241.944,15.988 241.944,18.105 248.732,15.988 	"/>
	<polygon style="fill:#B1E9F1;" points="248.805,2.174 248.805,0.857 244.893,2.174 	"/>
	<polygon style="fill:#B1E9F1;" points="250.168,15.279 250.168,13.176 243.427,15.279 	"/>
</g>
<g>
	<path style="fill:#BBA9A3;" d="M511.928,250.284c-0.015-0.599-0.042-1.196-0.061-1.794c0.03,1.051,0.06,2.101,0.078,3.155h-82.939
		l0.05,0.332c0.637,4.19-2.581,7.835-6.608,9.054c-0.929,0.281-1.901,0.434-2.879,0.434H306.993h-0.002
		c-0.005,0-0.009-0.001-0.014-0.001c-0.346-0.001-0.691-0.023-1.035-0.061c-0.121-0.013-0.239-0.037-0.359-0.055
		c-0.228-0.034-0.455-0.069-0.681-0.118c-0.138-0.03-0.274-0.068-0.411-0.103c-0.205-0.053-0.408-0.11-0.609-0.175
		c-0.14-0.046-0.278-0.095-0.416-0.147c-0.193-0.072-0.384-0.149-0.573-0.232c-0.135-0.059-0.269-0.119-0.401-0.184
		c-0.189-0.093-0.373-0.193-0.556-0.296c-0.121-0.068-0.243-0.134-0.362-0.207c-0.196-0.121-0.384-0.252-0.571-0.385
		c-0.094-0.067-0.192-0.13-0.284-0.2c-0.272-0.208-0.534-0.427-0.781-0.659c-0.021-0.02-0.04-0.043-0.061-0.063
		c-0.224-0.215-0.435-0.439-0.634-0.672c-0.015-0.018-0.033-0.033-0.048-0.051l0.005-0.004c-1.367-1.631-2.096-3.68-1.696-5.876
		l0.061-0.332h-48.814l21.561,5.361c1.478-1.198,3.357-1.921,5.397-1.921h5.948c3.966,0,7.317,2.722,8.299,6.389h139.208
		c3.314,0,6.235,1.943,7.917,4.856l0.011-0.003c0.042,0.074,0.073,0.156,0.114,0.231c0.15,0.274,0.288,0.556,0.415,0.845
		c0.051,0.117,0.104,0.232,0.152,0.352c0.156,0.39,0.294,0.789,0.407,1.202c0.02,0.074,0.033,0.151,0.052,0.225
		c0.091,0.36,0.163,0.729,0.22,1.103c0.018,0.123,0.036,0.245,0.051,0.369c0.053,0.449,0.089,0.903,0.09,1.367
		c0,0.002,0,0.003,0,0.004v0.002v11.776c0.118,0.344,0.106,0.722,0,1.098v5.669c0.419,0.515,0.834,1.032,1.232,1.564l2.951-1.074
		c0.889-0.32,1.867-0.264,2.373,0.534l1.471,2.325c0.506,0.799,0.139,1.706-0.534,2.371l-2.224,2.199
		c0.776,1.452,1.482,2.951,2.114,4.485l3.117-0.307c0.941-0.092,1.874,0.208,2.164,1.106l0.847,2.618
		c0.291,0.898-0.288,1.688-1.106,2.162l-2.701,1.576c0.387,1.594,0.696,3.221,0.923,4.87l3.106,0.479
		c0.932,0.147,1.764,0.669,1.821,1.61l0.169,2.747c0.059,0.944-0.699,1.564-1.61,1.821l-3.019,0.857
		c-0.02,1.67-0.124,3.319-0.305,4.943l2.888,1.237c0.868,0.374,1.542,1.086,1.365,2.011l-0.52,2.703
		c-0.177,0.927-1.066,1.34-2.011,1.365l-3.125,0.078c-0.433,1.608-0.946,3.182-1.53,4.719l2.483,1.909
		c0.749,0.579,1.223,1.436,0.82,2.29l-1.173,2.488c-0.403,0.855-1.365,1.033-2.288,0.82l-3.049-0.699
		c-0.818,1.441-1.704,2.836-2.657,4.183l1.936,2.474c0.58,0.745,0.827,1.693,0.227,2.421l-1.757,2.117
		c-0.603,0.728-1.581,0.662-2.419,0.227l-2.788-1.441c-1.146,1.189-2.35,2.32-3.608,3.392l1.262,2.879
		c0.376,0.868,0.38,1.849-0.385,2.403l-2.226,1.614c-0.765,0.555-1.695,0.247-2.401-0.382l-2.336-2.084
		c-1.401,0.868-2.85,1.667-4.341,2.393l0.504,3.095c0.149,0.932-0.089,1.883-0.969,2.228l-2.559,1.013
		c-0.877,0.346-1.701-0.183-2.228-0.969l-1.739-2.59c-1.571,0.488-3.175,0.9-4.808,1.233l-0.28,3.119
		c-0.087,0.942-0.557,1.803-1.494,1.922l-2.728,0.341c-0.939,0.119-1.605-0.6-1.919-1.491l-1.045-2.955
		c-0.83,0.042-1.661,0.062-2.499,0.062c-0.824,0-1.642-0.02-2.455-0.059l-1.051,2.962c-0.319,0.891-0.985,1.608-1.924,1.489
		l-2.728-0.348c-0.937-0.117-1.404-0.978-1.486-1.922l-0.277-3.11c-1.634-0.332-3.237-0.743-4.808-1.228l-1.748,2.595
		c-0.527,0.783-1.354,1.312-2.231,0.965l-2.557-1.015c-0.88-0.348-1.118-1.299-0.964-2.231l0.507-3.084
		c-1.492-0.726-2.941-1.525-4.346-2.391l-2.343,2.087c-0.708,0.627-1.637,0.932-2.402,0.378l-2.224-1.618
		c-0.765-0.557-0.76-1.537-0.378-2.402l1.26-2.873c-1.258-1.067-2.464-2.199-3.61-3.386l-2.797,1.441
		c-0.841,0.431-1.819,0.497-2.421-0.232l-1.75-2.121c-0.605-0.729-0.355-1.674,0.229-2.419l1.931-2.464
		c-0.953-1.345-1.841-2.739-2.659-4.18l-3.058,0.698c-0.921,0.208-1.885,0.03-2.288-0.827l-1.169-2.488
		c-0.403-0.857,0.073-1.711,0.825-2.288l2.478-1.901c-0.589-1.537-1.099-3.111-1.535-4.717l-3.134-0.082
		c-0.944-0.027-1.835-0.439-2.011-1.37l-0.514-2.701c-0.176-0.928,0.497-1.64,1.368-2.011l2.882-1.228
		c-0.183-1.626-0.287-3.276-0.309-4.943l-3.026-0.863c-0.722-0.207-1.341-0.645-1.539-1.287h-65.717l0.255,0.787
		c0.229,0.71-0.227,1.331-0.871,1.705l-2.125,1.241c0.305,1.256,0.547,2.534,0.726,3.832l2.444,0.378
		c0.735,0.115,1.388,0.527,1.434,1.267l0.135,2.162c0.046,0.743-0.552,1.233-1.269,1.434l-2.375,0.676
		c-0.016,1.312-0.098,2.612-0.243,3.892l2.277,0.971c0.683,0.295,1.213,0.857,1.074,1.585l-0.41,2.128
		c-0.14,0.731-0.838,1.056-1.583,1.074l-2.46,0.061c-0.341,1.265-0.745,2.504-1.205,3.716l1.957,1.503
		c0.588,0.454,0.961,1.129,0.646,1.802l-0.925,1.959c-0.316,0.673-1.074,0.813-1.8,0.646l-2.401-0.552
		c-0.644,1.134-1.343,2.233-2.094,3.293l1.525,1.947c0.456,0.586,0.651,1.333,0.177,1.906l-1.382,1.667
		c-0.474,0.573-1.244,0.52-1.906,0.179l-2.192-1.134c-0.902,0.936-1.85,1.825-2.842,2.668l0.994,2.271
		c0.298,0.68,0.3,1.452-0.302,1.889l-1.752,1.271c-0.603,0.437-1.335,0.195-1.89-0.303l-1.839-1.64
		c-1.104,0.683-2.245,1.313-3.417,1.885l0.396,2.435c0.117,0.735-0.071,1.484-0.762,1.757l-2.013,0.795
		c-0.692,0.274-1.343-0.142-1.757-0.761l-1.368-2.04c-1.237,0.384-2.499,0.71-3.784,0.971l-0.222,2.456
		c-0.069,0.742-0.437,1.42-1.175,1.512l-2.149,0.27c-0.737,0.092-1.262-0.471-1.51-1.175l-0.824-2.325
		c-0.651,0.032-1.306,0.048-1.966,0.048c-0.65,0-1.294-0.017-1.933-0.048l-0.83,2.334c-0.249,0.699-0.774,1.265-1.513,1.171
		l-2.147-0.272c-0.74-0.094-1.107-0.772-1.173-1.514l-0.218-2.449c-1.285-0.261-2.549-0.584-3.784-0.967l-1.377,2.043
		c-0.415,0.617-1.065,1.033-1.757,0.758l-2.013-0.797c-0.692-0.275-0.88-1.023-0.758-1.759l0.398-2.426
		c-1.174-0.572-2.315-1.2-3.419-1.883l-1.846,1.643c-0.557,0.495-1.289,0.735-1.892,0.297l-1.75-1.273
		c-0.602-0.438-0.598-1.208-0.297-1.89l0.992-2.261c-0.99-0.843-1.94-1.732-2.843-2.668l-2.201,1.136
		c-0.661,0.339-1.432,0.392-1.906-0.181l-1.379-1.67c-0.474-0.575-0.279-1.32,0.181-1.906l1.521-1.94
		c-0.751-1.06-1.45-2.158-2.093-3.291l-2.41,0.549c-0.724,0.165-1.482,0.023-1.801-0.65l-0.921-1.959
		c-0.316-0.673,0.059-1.347,0.651-1.8l1.951-1.498c-0.463-1.209-0.866-2.449-1.209-3.713l-2.467-0.067
		c-0.742-0.02-1.443-0.346-1.583-1.076l-0.403-2.126c-0.14-0.733,0.389-1.292,1.076-1.583l2.27-0.969
		c-0.146-1.278-0.227-2.577-0.245-3.89l-2.383-0.68c-0.717-0.206-1.312-0.694-1.267-1.439l0.138-2.16
		c0.045-0.742,0.701-1.152,1.436-1.264l2.437-0.374c0.179-1.299,0.422-2.579,0.724-3.834l-2.13-1.246
		c-0.642-0.375-1.097-0.998-0.869-1.706l0.669-2.06c0.231-0.708,0.964-0.941,1.706-0.868l2.449,0.245
		c0.495-1.209,1.049-2.389,1.661-3.534l-1.755-1.736c-0.527-0.524-0.816-1.242-0.417-1.869l1.161-1.828
		c0.398-0.628,1.168-0.673,1.867-0.417l2.315,0.847c0.779-1.045,1.61-2.048,2.486-3.005l-1.269-2.125
		c-0.383-0.64-0.483-1.405,0.059-1.913l1.578-1.482c0.543-0.511,1.301-0.362,1.912,0.059l2.036,1.399
		c1.01-0.818,2.062-1.583,3.152-2.297l-0.704-2.373c-0.21-0.712-0.117-1.48,0.536-1.837l1.897-1.043
		c0.653-0.359,1.349-0.028,1.837,0.534l1.617,1.853c1.18-0.538,2.391-1.022,3.63-1.443l-0.089-2.462
		c-0.028-0.745,0.254-1.463,0.973-1.649l2.098-0.538c0.721-0.183,1.312,0.312,1.647,0.976l1.107,2.199
		c1.271-0.227,2.563-0.389,3.871-0.49l0.529-2.416c0.158-0.727,0.609-1.352,1.354-1.352h2.164c0.745,0,1.194,0.625,1.354,1.352
		l0.288,1.322l5.401-6.253l-7.201-5.551c-1.166-0.9-1.386-2.59-0.486-3.756l1.262-1.637L214.52,254.02l-0.59,2.006l-13.816-4.382
		h-0.523l-30.046,13.827c-0.406,3.248-3.198,5.784-6.551,5.784h-5.133c-1.675,0-3.205-0.637-4.372-1.674
		c-3.246,1.543-7.038,2.538-11.49,2.691c-7.59,0.261-14.112-1.996-19.814-5.83l-0.009,0.007c-0.107-0.072-0.21-0.15-0.317-0.223
		c-0.279-0.191-0.556-0.386-0.831-0.585c-0.315-0.228-0.627-0.464-0.937-0.702c-0.26-0.199-0.522-0.395-0.779-0.601
		c-0.48-0.385-0.953-0.783-1.421-1.19c-0.257-0.224-0.51-0.456-0.764-0.686c-0.28-0.254-0.559-0.511-0.835-0.773
		c-0.254-0.241-0.507-0.482-0.757-0.729c-0.306-0.302-0.607-0.611-0.908-0.921c-0.345-0.357-0.687-0.718-1.026-1.086
		c-0.302-0.328-0.603-0.657-0.9-0.993c-0.236-0.268-0.469-0.54-0.702-0.812c-0.255-0.299-0.508-0.601-0.759-0.905
		c-0.223-0.271-0.447-0.54-0.667-0.815c-0.371-0.462-0.736-0.931-1.099-1.405c-0.244-0.319-0.484-0.643-0.724-0.966
		c-0.253-0.341-0.505-0.683-0.754-1.029c-0.092-0.128-0.188-0.253-0.28-0.382H0.055c0.018-1.069,0.048-2.135,0.079-3.201
		c-0.019,0.608-0.047,1.213-0.062,1.822C0.026,252.173,0,254.083,0,256c0,18.322,1.94,36.188,5.599,53.42
		c5.965-5.563,14.346-8.717,23.888-10.222l-0.001-0.015l0.38-0.044c1.961-0.299,3.967-0.533,6.013-0.701l0.093-0.011v0.004
		c13.505-1.091,28.632,0.539,42.315,3.065c5.143,0.95,10.064,2.036,14.801,3.223v-0.012l0.07,0.029
		c22.08,5.542,39.771,13.497,53.307,22.372l0.001-0.011l5.378,3.611l-0.02,0.106c14.907,10.93,23.963,22.864,29.109,32.988
		c5.472,10.761,6.531,19.473,3.448,27.674c-3.081,8.207-10.308,15.904-17.365,21.282c-7.055,5.383-14.106,5.814-27.506,8.443
		l-67.119,13.166C118.908,482.243,183.974,512,256,512c141.386,0,256-114.614,256-256C512,254.089,511.974,252.184,511.928,250.284z
		 M73.912,296.736c-3.764,0-6.815-2.831-6.815-6.324c0-0.535,0.073-1.056,0.208-1.553c-0.277,0.032-0.559,0.048-0.845,0.048h-0.067
		c-1.377,1.519-3.801,2.526-6.563,2.526c-2.643,0-4.977-0.923-6.379-2.334c-0.449,0.042-0.914,0.062-1.386,0.062
		c-4.531,0-8.205-1.922-8.205-4.293s3.674-4.293,8.205-4.293c1.535,0,2.973,0.22,4.201,0.604c1.065-0.387,2.272-0.604,3.555-0.604
		c0.87-2.632,3.514-4.547,6.638-4.547c3.834,0,6.942,2.884,6.942,6.439c0,0.572-0.08,1.129-0.231,1.656
		c0.243-0.025,0.49-0.037,0.74-0.037c3.763,0,6.814,2.831,6.814,6.324C80.726,293.905,77.675,296.736,73.912,296.736z
		 M150.931,310.121c-1.026,0-2.004-0.211-2.902-0.592c-1.253,2.007-3.725,3.37-6.57,3.37c-4.114,0-7.449-2.854-7.449-6.377
		c0-0.557,0.082-1.095,0.239-1.61c-0.871,0.57-1.872,0.96-2.946,1.104c-0.896,0.681-1.959,1.072-3.1,1.072
		c-1.608,0-3.065-0.781-4.116-2.046c-1.414,0.664-2.992,1.035-4.659,1.035c-6.032,0-10.922-4.861-10.922-10.858
		s4.891-10.858,10.922-10.858c2,0,3.873,0.534,5.486,1.469c2.714-4.733,8.803-8.034,15.877-8.034
		c9.602,0,17.386,6.077,17.386,13.572c0,1.789-0.445,3.496-1.251,5.06c1.143,1.45,1.833,3.319,1.833,5.358
		C158.758,306.389,155.254,310.121,150.931,310.121z"/>
	<path style="fill:#BBA9A3;" d="M26.313,369.137c-2.594-5.256-5.012-10.614-7.248-16.067
		C21.301,358.523,23.719,363.881,26.313,369.137z"/>
	<path style="fill:#BBA9A3;" d="M8.735,322.476c-1.149-4.284-2.191-8.612-3.121-12.982C6.544,313.864,7.586,318.192,8.735,322.476z"
		/>
	<path style="fill:#BBA9A3;" d="M12.633,335.589c-1.338-4.095-2.575-8.235-3.71-12.418
		C10.058,327.354,11.295,331.494,12.633,335.589z"/>
	<path style="fill:#BBA9A3;" d="M18.865,352.582c-1.643-4.03-3.187-8.112-4.628-12.241C15.678,344.47,17.222,348.551,18.865,352.582
		z"/>
	<path style="fill:#BBA9A3;" d="M32.547,380.976c-2.138-3.814-4.181-7.689-6.126-11.621
		C28.366,373.287,30.409,377.162,32.547,380.976z"/>
	<path style="fill:#BBA9A3;" d="M14.149,340.09c-0.472-1.357-0.932-2.72-1.382-4.088C13.217,337.37,13.677,338.733,14.149,340.09z"
		/>
	<path style="fill:#BBA9A3;" d="M41.836,396.269c-3.229-4.92-6.293-9.957-9.184-15.105
		C35.543,386.312,38.607,391.349,41.836,396.269z"/>
	<path style="fill:#BBA9A3;" d="M72.363,434.34c-4.095-4.216-8.046-8.573-11.845-13.063
		C64.318,425.767,68.268,430.124,72.363,434.34z"/>
	<path style="fill:#BBA9A3;" d="M167.346,255.268l5.111-3.623h-3.499C168.488,252.834,167.959,254.048,167.346,255.268z"/>
	<path style="fill:#BBA9A3;" d="M511.79,246.21c-0.018-0.456-0.027-0.914-0.046-1.369c-0.001-0.026-0.002-0.051-0.003-0.077l0,0
		h-0.009C511.752,245.246,511.772,245.728,511.79,246.21z"/>
	<path style="fill:#BBA9A3;" d="M0.269,244.764h-0.01H0.258c-0.003,0.078-0.005,0.157-0.008,0.235
		c-0.019,0.446-0.028,0.894-0.045,1.34C0.225,245.814,0.246,245.289,0.269,244.764z"/>
	<path style="fill:#BBA9A3;" d="M249.117,269.792l7.851,6.052l4.701-5.442l-28.583-10.538l12.353,10.33
		C246.352,269.106,247.981,268.915,249.117,269.792z"/>
	<path style="fill:#BBA9A3;" d="M60.432,421.175c-6.651-7.867-12.836-16.141-18.513-24.779
		C47.596,405.034,53.78,413.307,60.432,421.175z"/>
</g>
<g>
	<path style="fill:#9F877E;" d="M167.016,412.758c7.057-5.378,14.284-13.075,17.365-21.282c3.083-8.201,2.025-16.912-3.448-27.674
		c-5.146-10.124-14.201-22.059-29.109-32.988l-13.396,71.677l8.036-75.383c-13.537-8.875-31.228-16.83-53.307-22.372l6.735,2.793
		l-9.684,79.81l2.879-82.62c-4.737-1.187-9.658-2.273-14.801-3.223c-13.683-2.527-28.81-4.156-42.315-3.065l-1.788,51.413
		l-4.697-50.647c-9.542,1.505-17.923,4.659-23.888,10.222l0,0c0.005,0.025,0.011,0.049,0.016,0.074
		c0.929,4.37,1.972,8.698,3.121,12.982c0.062,0.232,0.125,0.463,0.188,0.695c1.134,4.183,2.372,8.323,3.71,12.418
		c0.045,0.138,0.089,0.276,0.134,0.413c0.45,1.368,0.91,2.73,1.382,4.088c0.029,0.084,0.059,0.167,0.088,0.25
		c1.441,4.13,2.985,8.211,4.628,12.241c0.066,0.163,0.133,0.326,0.2,0.489c2.236,5.452,4.654,10.811,7.248,16.067
		c0.036,0.073,0.072,0.145,0.108,0.218c1.945,3.932,3.988,7.806,6.126,11.621c0.035,0.063,0.07,0.125,0.105,0.188
		c2.891,5.148,5.955,10.185,9.184,15.105c0.028,0.042,0.055,0.084,0.083,0.126c5.676,8.638,11.861,16.912,18.513,24.779
		c0.029,0.034,0.058,0.068,0.087,0.102c3.799,4.489,7.75,8.846,11.845,13.063c0.009,0.009,0.018,0.019,0.027,0.028l0,0L139.51,421.2
		C152.91,418.572,159.961,418.142,167.016,412.758z"/>
	<path style="fill:#9F877E;" d="M29.866,299.138l6.013-0.701C33.832,298.605,31.826,298.839,29.866,299.138z"/>
</g>
<g>
	<polygon style="fill:#6C4C40;" points="35.971,298.431 35.972,298.427 35.879,298.438 29.866,299.138 29.485,299.183 
		29.486,299.197 34.183,349.844 	"/>
	<polygon style="fill:#6C4C40;" points="99.894,307.53 93.158,304.737 93.089,304.708 93.088,304.719 90.209,387.34 	"/>
	<polygon style="fill:#6C4C40;" points="151.825,330.815 151.845,330.709 146.467,327.098 146.466,327.109 138.429,402.492 	"/>
	<path style="fill:#6C4C40;" d="M73.912,284.087c-0.25,0-0.497,0.012-0.74,0.037c0.151-0.527,0.231-1.083,0.231-1.656
		c0-3.555-3.108-6.439-6.942-6.439c-3.125,0-5.768,1.915-6.638,4.547c-1.283,0-2.49,0.217-3.555,0.604
		c-1.228-0.385-2.666-0.604-4.201-0.604c-4.531,0-8.205,1.922-8.205,4.293s3.674,4.293,8.205,4.293c0.471,0,0.936-0.02,1.386-0.062
		c1.402,1.411,3.736,2.334,6.379,2.334c2.763,0,5.186-1.008,6.563-2.526h0.067c0.286,0,0.568-0.016,0.845-0.048
		c-0.135,0.497-0.208,1.018-0.208,1.553c0,3.493,3.051,6.324,6.815,6.324c3.763,0,6.814-2.831,6.814-6.324
		C80.726,286.918,77.675,284.087,73.912,284.087z"/>
</g>
<path style="fill:#FFFF00;" d="M163.379,89.614c14.516,0,26.28-11.765,26.28-26.278c0-14.514-11.764-26.278-26.28-26.278
	c-14.511,0-26.278,11.764-26.278,26.278C137.101,77.849,148.868,89.614,163.379,89.614z"/>
<path style="fill:#6C4C40;" d="M158.177,291.369c0-7.495-7.784-13.572-17.386-13.572c-7.073,0-13.162,3.301-15.877,8.034
	c-1.612-0.935-3.486-1.469-5.486-1.469c-6.032,0-10.922,4.861-10.922,10.858s4.891,10.858,10.922,10.858
	c1.667,0,3.245-0.371,4.659-1.035c1.051,1.264,2.508,2.046,4.116,2.046c1.141,0,2.204-0.392,3.1-1.072
	c1.074-0.144,2.075-0.534,2.946-1.104c-0.156,0.516-0.239,1.054-0.239,1.61c0,3.523,3.336,6.377,7.449,6.377
	c2.845,0,5.317-1.363,6.57-3.37c0.898,0.381,1.876,0.592,2.902,0.592c4.323,0,7.827-3.732,7.827-8.334
	c0-2.038-0.689-3.907-1.833-5.358C157.732,294.865,158.177,293.158,158.177,291.369z"/>
<g>
	<path style="fill:#9C9C9C;" d="M240.627,28.628h-1.362v6.961h-27.522v-0.994h-7.367v0.994h-0.921v3.975h0.921V56.45h-8.285v3.974
		h8.285v22.849h-7.364v3.972h7.364v25.33h-52.501v-8.94h-8.288v8.94h-6.469v3.975h6.469v24.338h-6.469v3.971h6.469v17.881h-7.364
		v3.972h7.364v20.366h-5.569v3.974h5.569v16.886h-20.261v0.344l8.059,4.608l1.395-4.879l11.921,6.581
		c4.162,3.395,7.554,7.624,9.476,12.372c0,0.001,0.001,0.001,0.001,0.002l4.956,0.211c2.565-3.083,6.413-3.523,9.57-2.201
		l10.697-8.793c0.21-0.101,0.422-0.177,0.633-0.231c0.076-0.02,0.152-0.023,0.228-0.037c0.134-0.025,0.268-0.052,0.401-0.06
		c0.095-0.005,0.187,0.005,0.281,0.008c0.112,0.004,0.224,0.002,0.334,0.017c0.104,0.014,0.204,0.042,0.306,0.065
		c0.096,0.022,0.193,0.04,0.287,0.07c0.108,0.034,0.211,0.081,0.315,0.125c0.082,0.035,0.165,0.067,0.245,0.108
		c0.108,0.055,0.209,0.12,0.312,0.185c0.07,0.044,0.141,0.086,0.208,0.135c0.103,0.074,0.199,0.155,0.295,0.238
		c0.06,0.052,0.121,0.103,0.178,0.158c0.093,0.089,0.178,0.184,0.263,0.282c0.032,0.037,0.07,0.07,0.101,0.108l-0.006,0.005
		c0.478,0.588,0.81,1.295,0.919,2.045l20.834,17.423l12.883,3.94l-0.911,3.111l31.246,7.769h48.814l6.601-36.258h-24.265v-24.336
		h28.696l0.724-3.974h-29.419v-20.366h54.341v2.302h56.911c-1.734,0-3.156-1.42-3.156-3.157v-0.002c0-1.596,1.204-2.911,2.747-3.115
		h-49.133V144.86h52.024c0.001-1.306,0.002-2.631,0.004-3.971h-52.028v-24.338h7.914v-3.975h-7.914v-25.33h9.211v-3.972h-9.211
		v-22.85h9.211V56.45h-9.211v-1.489h-7.369v1.489h-54.341V39.564h5.525v-3.975h-5.525V24.166h-7.366v11.423h-19.237v-6.961h-1.819
		V7.181h64.898h0.002c-0.013-0.003-0.026-0.006-0.039-0.009c-1.329-0.321-2.662-0.633-3.998-0.937
		c-1.347-0.306-2.699-0.599-4.055-0.883c-0.201-0.042-0.4-0.089-0.601-0.13H251.48V2.419h-1.362V0.076
		c-0.836,0.019-1.669,0.049-2.503,0.075c-1.038,0.033-2.076,0.073-3.111,0.118c-0.82,0.036-1.641,0.069-2.46,0.113
		c-0.018,0.001-0.036,0.002-0.054,0.003v0.001v2.033h-1.363v0.683h-24.526c-1.679,0.263-3.353,0.538-5.021,0.832L200.65,6.76V6.02
		l-1.317,0.286v0.747h-3.189c-0.119,0.028-0.237,0.058-0.356,0.087c-0.85,0.203-1.7,0.408-2.548,0.621h0.004h47.382v20.867H240.627z
		 M204.376,196.015h-5.525v8.943h-11.052v10.43h-31.32v-7.449h-4.604v-16.886h52.501V196.015z M204.376,187.077h-52.501v-0.495
		h52.501V187.077z M204.376,181.614h-52.501v-14.903h52.501V181.614z M204.376,157.774h-52.501v-12.915h52.501V157.774z
		 M204.376,137.904h-52.501v-21.355h52.501V137.904z M279.902,60.424h54.341v22.849h-54.341V60.424z M279.902,87.245h54.341v25.33
		h-54.341V87.245z M279.902,116.549h54.341v24.338h-54.341V116.549z M279.902,144.859h54.341v17.881h-54.341V144.859z
		 M240.582,33.686l0.08,0.064h-0.08V33.686z M240.582,34.456h9.969l-2.927,1.134h-7.041L240.582,34.456L240.582,34.456z
		 M251.352,212.911v-3.731l0.63-0.243v3.974H251.352z M251.982,214.052v1.335h-0.63v-1.091L251.982,214.052z M251.352,207.792
		v-3.764l0.63-0.245v4.009L251.352,207.792L251.352,207.792z M251.352,202.674v-3.756l0.63-0.243v3.999H251.352z M251.352,197.555
		V193.8l0.63-0.245v3.999L251.352,197.555L251.352,197.555z M251.352,192.435v-1.384h0.63v1.384H251.352z M249.696,179.131
		l2.286-0.887v0.887H249.696z M242.581,140.887l9.401-3.64v3.64H242.581z M251.982,144.859v1.505h-10.351l3.885-1.505H251.982z
		 M251.49,101.649l0.493-0.193v0.193H251.49z M251.982,116.836v3.935h-10.161L251.982,116.836z M241.672,100.295l10.31-3.992v3.992
		H241.672z M245.832,83.273l6.15-2.382v2.382C251.982,83.273,245.832,83.273,245.832,83.273z M251.982,87.245v2.815h-10.37
		l7.268-2.815H251.982z M249.034,56.45l2.948-1.141v1.141H249.034z M251.982,60.424v4.036h-10.494l10.434-4.036H251.982z
		 M251.982,34.776v0.813h-2.098L251.982,34.776z M240.582,39.578h10.058l-10.058,3.892V39.578z M251.982,39.93v4.057h-10.48
		L251.982,39.93z M240.582,44.695h10.044l-10.044,3.892V44.695z M251.982,45.045v4.058h-10.494L251.982,45.045z M240.582,49.013
		l0.121,0.091h-0.121V49.013z M240.582,49.814h10.028l-10.028,3.88V49.814z M251.982,50.156v4.068h-10.514L251.982,50.156z
		 M240.582,54.176l0.062,0.048h-0.062V54.176z M240.582,54.933H250.7l-3.922,1.517h-6.196V54.933z M240.582,60.424h9.08l-9.08,3.514
		V60.424z M240.582,64.419l0.055,0.041h-0.055V64.419z M240.582,65.17h10.023l-10.023,3.88V65.17z M251.982,65.507v4.072h-10.514
		L251.982,65.507z M240.582,70.29h10.113l-10.113,3.915V70.29z M251.982,70.663v4.036h-10.425L251.982,70.663z M240.582,75.407
		h10.099l-10.099,3.91V75.407z M251.982,75.778v4.041h-10.434L251.982,75.778z M240.582,79.745l0.092,0.073h-0.092V79.745z
		 M240.582,80.527h10.079l-7.085,2.746h-2.994L240.582,80.527L240.582,80.527z M240.582,87.245h6.038l-6.038,2.339V87.245z
		 M240.582,90.766h10.248l-10.248,3.965V90.766z M251.982,91.192v3.983h-10.29L251.982,91.192z M240.582,95.887h10.228
		l-10.228,3.958V95.887z M240.582,101.003h10.317l-1.665,0.646h-8.652V101.003z M240.582,116.549h9.888l-9.888,3.825V116.549z
		 M240.582,121.478h10.147l-10.147,3.929V121.478z M251.982,121.865v4.023h-10.39L251.982,121.865z M240.582,126.598h10.124
		l-10.124,3.922V126.598z M251.982,126.978v4.029h-10.411L251.982,126.978z M240.582,131.717h10.214l-10.214,3.954V131.717z
		 M251.982,132.132v3.995h-10.319L251.982,132.132z M240.582,136.837h10.202l-10.202,3.949V136.837z M240.582,144.859h2.68
		l-2.68,1.04V144.859z M240.582,147.072h10.273l-10.273,3.979V147.072z M251.982,147.509v3.975H241.72L251.982,147.509z
		 M240.582,152.191h10.202l-10.202,3.951V152.191z M251.982,152.602v4.002h-10.34L251.982,152.602z M240.582,157.313h10.182
		l-10.182,3.94V157.313z M251.982,157.714v4.006h-10.356L251.982,157.714z M240.582,162.43h10.269l-0.797,0.309h-9.471v-0.309
		H240.582z M251.982,166.712v0.131h-10.267l0.325-0.131H251.982z M240.582,167.55h10.262l-10.262,3.972V167.55z M251.982,167.983
		v3.976h-10.281L251.982,167.983z M240.582,171.948l0.011,0.011h-0.011V171.948z M240.582,172.669h10.236l-10.236,3.963V172.669z
		 M251.982,173.091v3.988h-10.296L251.982,173.091z M240.582,177.787h10.328l-3.47,1.345h-6.858V177.787z M246.748,191.051v1.384
		h-5.182l3.576-1.384H246.748z M240.582,191.051h2.304l-2.304,0.891V191.051z M240.582,193.145h6.166v1.564l-6.166,2.387V193.145z
		 M246.748,195.585v1.97h-5.092L246.748,195.585z M240.582,198.263h6.166v1.562l-6.166,2.387V198.263z M246.748,200.7v1.974h-5.101
		L246.748,200.7z M240.582,203.382h6.166v1.553l-6.166,2.387V203.382z M246.748,205.81v1.982h-5.121L246.748,205.81z
		 M240.582,208.502h6.166v1.587l-6.166,2.387V208.502z M246.748,210.964v1.947h-5.032L246.748,210.964z M240.582,213.621h6.166
		v1.583l-0.476,0.183h-5.69V213.621z M231.087,39.564h8.178V56.45h-8.178V39.564z M211.743,39.564h14.74V56.45h-14.74V39.564z
		 M211.743,60.424h27.522v22.849h-27.522V60.424z M211.743,87.245h27.522v14.404h-27.522V87.245z M239.265,116.549v24.338h-10.938
		v-24.338C228.327,116.549,239.265,116.549,239.265,116.549z M211.743,116.549h12.901v24.338h-12.901V116.549z M211.743,144.859
		h27.522v17.881h-27.522V144.859z M211.743,166.712h27.522v12.42h-27.522V166.712z M211.743,196.015v-4.964h27.522v24.336h-4.494
		v-10.43h-15.659v-8.943L211.743,196.015L211.743,196.015z M257.795,39.564h14.741V56.45h-14.741V39.564z M253.299,60.424h19.237
		v22.849h-19.237L253.299,60.424L253.299,60.424z M253.299,87.245h19.237v14.404h-19.237L253.299,87.245L253.299,87.245z
		 M253.299,116.549h19.237v24.338h-19.237L253.299,116.549L253.299,116.549z M253.299,144.859h19.237v17.881h-19.237
		L253.299,144.859L253.299,144.859z M253.299,166.712h19.237v12.42h-19.237L253.299,166.712L253.299,166.712z M253.299,191.051
		h19.237v24.336h-19.237L253.299,191.051L253.299,191.051z M251.982,29.664v4.086h-10.548L251.982,29.664z M250.168,3.528v2.108
		h-6.755L250.168,3.528z M243.303,0.431h4.275l-4.275,1.441V0.431z M248.805,0.857v1.317h-3.912L248.805,0.857z M241.944,3.127
		h6.877l-6.877,2.147V3.127z M241.944,7.761V6.343h6.737l-6.737,2.105V7.761z M250.168,6.696v2.153h-6.899L250.168,6.696z
		 M241.944,9.556h6.792l-6.792,2.116V9.556z M250.168,9.93v2.133h-6.845L250.168,9.93z M241.944,12.773h6.893l-6.893,2.151V12.773z
		 M250.168,13.176v2.103h-6.741L250.168,13.176z M241.944,15.988h6.787l-6.787,2.117V15.988z M250.168,16.36v2.135h-6.847
		L250.168,16.36z M241.944,19.205h6.843l-6.843,2.133V19.205z M250.168,19.59v2.119h-6.787L250.168,19.59z M241.944,22.418h6.86
		l-6.86,2.139V22.418z M250.168,22.813v2.11h-6.771L250.168,22.813z M241.944,25.634h6.893l-6.893,2.151V25.634z M250.168,26.04v2.1
		h-6.737L250.168,26.04z M250.571,29.338l-9.989,3.867v-3.867C240.582,29.338,250.571,29.338,250.571,29.338z M213.099,7.053
		h-10.594l10.594-2.875V7.053z M214.414,3.812h10.731l-10.731,2.911V3.812z M226.861,7.053h-10.738l10.738-2.914V7.053z
		 M228.182,3.812h10.933l-10.933,2.966V3.812z M230.088,7.053l10.539-2.859v2.859C240.627,7.053,230.088,7.053,230.088,7.053z"/>
	<path style="fill:#9C9C9C;" d="M111.717,203.988l1.038,0.99C112.471,204.62,112.13,204.287,111.717,203.988z"/>
	<path style="fill:#9C9C9C;" d="M488.058,219.364v-17.386h-23.944v13.41h-12.896v-24.336h7.364v-3.974h-7.364v-20.366h5.569v-3.972
		h-5.569v-17.881h6.464v-3.971h-49.755v-11.423h-8.29v11.423h-1.154v3.971h1.154v17.839h2.105c1.736,0,3.157,1.421,3.157,3.157
		v0.002c0,1.736-1.421,3.157-3.157,3.157h6.185v-2.302h36.842v20.366h-25.561l0.167,1.102l0.436,2.872h24.958v24.336h-21.266
		l5.501,36.258h82.939c-0.018-1.054-0.047-2.104-0.078-3.155c-0.022-0.761-0.049-1.521-0.077-2.281
		c-0.018-0.482-0.038-0.964-0.058-1.445c-0.075-1.732-0.161-3.461-0.27-5.183c-0.007-0.107-0.013-0.214-0.02-0.321
		c-0.258-3.994-0.606-7.963-1.045-11.904c-0.003-0.03-0.007-0.061-0.01-0.091c-0.295-2.646-0.631-5.28-1.006-7.901L488.058,219.364
		L488.058,219.364z M427.268,156.285c-9.527,1.606-15.975,4.249-19.34,5.919v-17.345h36.842v2.889
		C442.271,150.439,436.961,154.651,427.268,156.285z"/>
	<path style="fill:#9C9C9C;" d="M173.851,230.764c0.612,2.341,0.245,5.16-1.681,8.207c0,0-0.518,5.867-3.212,12.674h3.499
		l21.231-15.05l-13.429-11.23L173.851,230.764z"/>
	<path style="fill:#9C9C9C;" d="M0.205,246.34c-0.026,0.701-0.051,1.402-0.071,2.105c-0.031,1.066-0.061,2.132-0.079,3.201h107.669
		c-0.119-0.167-0.233-0.338-0.351-0.506c-0.243-0.346-0.482-0.695-0.721-1.045c-0.19-0.278-0.381-0.554-0.568-0.835
		c-0.38-0.57-0.755-1.144-1.126-1.723c-0.186-0.291-0.369-0.585-0.553-0.878c-0.229-0.364-0.457-0.73-0.682-1.097
		c-0.185-0.302-0.37-0.604-0.553-0.908c-0.248-0.411-0.492-0.823-0.736-1.237c-0.202-0.342-0.403-0.685-0.602-1.029
		c-0.297-0.515-0.592-1.03-0.884-1.548c-0.163-0.29-0.324-0.58-0.485-0.87c-0.223-0.402-0.445-0.804-0.665-1.207
		c-0.153-0.279-0.305-0.558-0.456-0.838c-0.321-0.596-0.64-1.191-0.954-1.787c-0.118-0.223-0.234-0.446-0.351-0.67
		c-0.262-0.5-0.522-1-0.78-1.499c-0.131-0.253-0.26-0.506-0.39-0.759c-0.248-0.485-0.494-0.969-0.738-1.452
		c-0.095-0.188-0.191-0.376-0.285-0.564c-0.344-0.683-0.684-1.363-1.02-2.04c-0.036-0.072-0.071-0.144-0.107-0.216
		c-1.833-3.69-3.557-7.265-5.214-10.55c0,0,3.055-3.564,5.698-1.535c2.11,1.616,6.367,5.723,8.002,7.318
		c-0.951-4.166-0.706-9.863,5.299-14.291l1.963-6.594c-0.291-0.119-0.608-0.226-0.953-0.319c-5.53-1.488-11.977,0.497-12.896,3.477
		c-0.921,2.98-7.369,3.974-11.052,6.458c-2.192,1.477-3.406,4.363-4.031,6.46h-7.021V197.01h-9.321v-3.356h-5.406v0.861h-2.829
		v-1.786h3.933l0.648-6.874c0.069-0.028,0.124-0.059,0.158-0.103l3.161-4.078v-0.002l1.581-2.039l1.576-2.038l1.583-2.038
		c0-0.003,0-0.003,0-0.003l1.58-2.038l1.581-2.039l1.576-2.04h0.005l1.576-2.039l1.581-2.036c0-0.004,0-0.004,0-0.004l1.578-2.039
		l1.581-2.036l1.58-2.043l1.581-2.036l1.581-2.038v-0.005l1.58-2.036l1.576-2.038h0.003l1.576-2.039c0,0,0,0,0-0.002
		c0.005,0,0.005,0,0.005,0l1.576-2.038c0.005-0.005,0.005-0.009,0.009-0.014c0.009-0.012,0.014-0.03,0.014-0.044
		c0.002-0.014,0.007-0.03,0.002-0.044c0-0.005,0.005-0.009,0.005-0.014l-0.708-2.664c0.28,0.065,0.586,0.099,0.905,0.101v43.398
		l-8.81,3.331c-0.172,0.064-0.213,0.185-0.117,0.282h-5.66v1.92h30.218v-1.92h-4.512c0.022-0.082-0.042-0.167-0.181-0.216
		l-10.131-3.406v-43.467c0.914-0.176,1.571-0.644,1.571-1.196c0-0.703-1.058-1.276-2.362-1.276c-1.298,0-2.362,0.573-2.362,1.276
		c0,0.3,0.199,0.572,0.527,0.79l-3.589,1.901l-0.005,0.003c-0.034,0.018-0.069,0.039-0.084,0.069l-6.32,8.157L72.22,164.17
		l-3.154,4.079l-3.165,4.08l-3.156,4.079l-3.159,4.078l-3.161,4.079c-0.03,0.037-0.03,0.078-0.016,0.117l-19.587,0.099v6.452h-1.974
		v2.848h2.332v-1.349h11.435v1.786h-3.933v-0.793h-4.787v3.287H25.696v22.354H2.621c-0.944,6.587-1.635,13.252-2.068,19.988
		c-0.003,0.041-0.005,0.082-0.008,0.124c-0.112,1.757-0.2,3.521-0.276,5.288C0.246,245.289,0.225,245.814,0.205,246.34z
		 M61.306,185.13l-2.141-2.11l3.216,0.724L61.306,185.13z M62.889,183.082l-2.128-2.096l3.2,0.717L62.889,183.082z M64.46,181.06
		l-2.153-2.121l3.227,0.728L64.46,181.06z M66.046,179.014l-2.144-2.112l3.214,0.724L66.046,179.014z M67.622,176.976l-2.142-2.112
		l3.216,0.723L67.622,176.976z M69.211,174.933l-2.137-2.108l3.202,0.721L69.211,174.933z M70.794,172.88l-2.114-2.089l3.182,0.717
		L70.794,172.88z M72.379,170.835l-2.108-2.08l3.17,0.715L72.379,170.835z M73.946,168.809l-2.133-2.1l3.204,0.721L73.946,168.809z
		 M75.517,166.785l-2.153-2.121l3.232,0.726L75.517,166.785z M77.102,164.739l-2.144-2.112l3.218,0.723L77.102,164.739z
		 M78.683,162.701l-2.149-2.114l3.218,0.726L78.683,162.701z M80.268,160.658l-2.141-2.108l3.206,0.721L80.268,160.658z
		 M81.851,158.605l-2.114-2.089l3.182,0.717L81.851,158.605z M83.436,156.56l-2.112-2.078l3.175,0.712L83.436,156.56z
		 M85.021,154.514l-2.096-2.071l3.152,0.712L85.021,154.514z M86.604,152.468l-2.085-2.062l3.134,0.708L86.604,152.468z
		 M88.193,150.418l-2.068-2.043l3.108,0.701L88.193,150.418z M89.779,148.373l-2.062-2.034l3.097,0.696L89.779,148.373z
		 M101.995,191.336H83.779l8.571-3.241L101.995,191.336z M91.952,142.211c0.861,0,1.56,0.378,1.56,0.841s-0.698,0.843-1.56,0.843
		c-0.859,0-1.56-0.38-1.56-0.843S91.094,142.211,91.952,142.211z M90.262,144.373l0.582,2.199l-3.321-0.747L90.262,144.373z
		 M86.861,146.396l2.199,2.172l-3.305-0.747L86.861,146.396z M85.275,148.439l2.192,2.162l-3.291-0.74L85.275,148.439z
		 M83.686,150.492l2.176,2.144l-3.266-0.735L83.686,150.492z M82.102,152.535l2.165,2.137l-3.253-0.733L82.102,152.535z
		 M80.518,154.583l2.149,2.124l-3.232-0.729L80.518,154.583z M78.932,156.628l2.147,2.116l-3.226-0.726L78.932,156.628z
		 M77.34,158.679l2.128,2.098l-3.195-0.719L77.34,158.679z M75.76,160.726l2.116,2.087l-3.182-0.715L75.76,160.726z M74.18,162.763
		l2.121,2.091l-3.186-0.719L74.18,162.763z M72.597,164.806l2.11,2.085l-3.168-0.715L72.597,164.806z M71.027,166.835l2.128,2.1
		l-3.198-0.721L71.027,166.835z M69.461,168.857l2.153,2.126l-3.237-0.729L69.461,168.857z M67.876,170.901l2.147,2.119
		l-3.225-0.727L67.876,170.901z M66.284,172.953l2.128,2.1l-3.196-0.721L66.284,172.953z M64.703,174.997l2.119,2.094l-3.184-0.717
		L64.703,174.997z M63.123,177.035l2.121,2.094l-3.186-0.717L63.123,177.035z M61.537,179.083l2.112,2.084l-3.173-0.717
		L61.537,179.083z M59.971,181.108l2.133,2.105l-3.202-0.723L59.971,181.108z M58.388,183.151l2.123,2.098l-3.191-0.719
		L58.388,183.151z M44.676,196.501h15.109v0.509H44.676V196.501z"/>
	<polygon style="fill:#9C9C9C;" points="199.598,251.645 200.121,251.645 199.811,251.547 	"/>
</g>
<path style="fill:#6C4C40;" d="M154.178,226.966c0-0.001-0.001-0.001-0.001-0.002c-1.922-4.748-5.314-8.977-9.476-12.372
	l-11.921-6.581l-1.395,4.879l-8.059-4.608l-0.747-0.427l-1.393,4.877l-0.066,0.222l-8.366-7.977l-1.038-0.99l-1.137-1.084
	l-0.115,0.385l-1.963,6.594c-6.006,4.427-6.25,10.125-5.299,14.291c0.414,0.404,0.668,0.654,0.668,0.654L154.178,226.966z"/>
<g>
	<path style="fill:#FFFF00;" d="M417.075,175.436c-0.133-0.334-0.28-0.658-0.438-0.975
		C416.796,174.778,416.942,175.103,417.075,175.436z"/>
	<path style="fill:#FFFF00;" d="M417.554,176.865c-0.112-0.41-0.238-0.813-0.386-1.205
		C417.316,176.051,417.442,176.455,417.554,176.865z"/>
	<path style="fill:#FFFF00;" d="M417.904,178.48c-0.067-0.435-0.159-0.861-0.263-1.282
		C417.745,177.619,417.837,178.045,417.904,178.48z"/>
	<path style="fill:#FFFF00;" d="M416.486,174.161c-0.19-0.354-0.394-0.696-0.616-1.024
		C416.091,173.465,416.296,173.807,416.486,174.161z"/>
	<path style="fill:#FFFF00;" d="M305.583,261.349c-0.228-0.033-0.456-0.069-0.681-0.118
		C305.127,261.28,305.355,261.316,305.583,261.349z"/>
	<path style="fill:#FFFF00;" d="M306.977,261.465c-0.346-0.001-0.691-0.023-1.035-0.061
		C306.286,261.442,306.631,261.464,306.977,261.465z"/>
	<path style="fill:#FFFF00;" d="M304.491,261.128c-0.204-0.053-0.408-0.11-0.609-0.175
		C304.083,261.018,304.286,261.075,304.491,261.128z"/>
	<path style="fill:#FFFF00;" d="M299.879,258.58c-0.223-0.215-0.435-0.439-0.634-0.672
		C299.443,258.142,299.655,258.365,299.879,258.58z"/>
	<path style="fill:#FFFF00;" d="M303.466,260.806c-0.193-0.072-0.384-0.149-0.573-0.232
		C303.082,260.657,303.273,260.734,303.466,260.806z"/>
	<path style="fill:#FFFF00;" d="M300.72,259.303c-0.272-0.208-0.534-0.427-0.781-0.659
		C300.186,258.876,300.448,259.094,300.72,259.303z"/>
	<path style="fill:#FFFF00;" d="M301.575,259.888c-0.196-0.121-0.384-0.252-0.571-0.385
		C301.191,259.635,301.379,259.766,301.575,259.888z"/>
	<path style="fill:#FFFF00;" d="M302.493,260.391c-0.189-0.092-0.373-0.193-0.556-0.296
		C302.12,260.198,302.303,260.298,302.493,260.391z"/>
	<path style="fill:#FFFF00;" d="M423.504,215.387l-3.692-24.336l-0.436-2.872l9.678,63.799c0.638,4.19-2.579,7.835-6.606,9.054
		c4.027-1.22,7.244-4.865,6.608-9.054l-0.05-0.332L423.504,215.387z"/>
	<path style="fill:#FFFF00;" d="M315.496,246.003c-1.944-0.21-3.715-2.584-3.369-4.631l9.909-58.929
		c0.41-2.441,2.025-4.501,4.501-4.501h41.76c2.476,0,4.446,2.027,4.499,4.501l0.432,21.573l42.579-30.966
		c-1.673-2.424-4.205-4.037-7.387-4.037h-0.492h-6.185h-3.259h-4.844h-2.486h-56.911h-13.874c-5.218,0-8.553,4.352-9.486,9.487
		l-1.561,8.576l-0.724,3.974l-4.431,24.336l-6.601,36.258l-0.061,0.332c-0.4,2.196,0.329,4.245,1.696,5.876L315.496,246.003z"/>
</g>
<path style="fill:#FFD500;" d="M429.054,251.978l-9.678-63.799l-0.167-1.102l-1.301-8.578c-0.001-0.006-0.003-0.013-0.004-0.019
	c-0.066-0.435-0.159-0.861-0.263-1.282c-0.028-0.112-0.056-0.223-0.086-0.334c-0.112-0.41-0.239-0.813-0.386-1.205
	c-0.029-0.076-0.063-0.148-0.093-0.224c-0.133-0.334-0.28-0.658-0.438-0.975c-0.05-0.101-0.099-0.202-0.152-0.301
	c-0.19-0.354-0.395-0.696-0.616-1.024c-0.02-0.029-0.035-0.063-0.055-0.092l-0.007,0.005l-42.579,30.966l0.356,17.775
	c0.048,2.47-2.187,3.638-4.501,4.499l-52.458,19.582c-0.374,0.139-0.755,0.171-1.13,0.13l-16.294,11.85l-0.005,0.004
	c0.015,0.018,0.033,0.033,0.048,0.051c0.199,0.233,0.411,0.457,0.634,0.672c0.021,0.02,0.039,0.043,0.061,0.063
	c0.246,0.232,0.508,0.451,0.781,0.659c0.092,0.07,0.19,0.132,0.284,0.2c0.187,0.133,0.375,0.264,0.571,0.385
	c0.118,0.073,0.24,0.139,0.362,0.207c0.183,0.103,0.367,0.203,0.556,0.296c0.132,0.065,0.266,0.124,0.401,0.184
	c0.188,0.083,0.379,0.16,0.573,0.232c0.138,0.051,0.276,0.101,0.416,0.147c0.201,0.065,0.404,0.122,0.609,0.175
	c0.137,0.036,0.273,0.073,0.411,0.103c0.225,0.049,0.453,0.085,0.681,0.118c0.12,0.018,0.239,0.041,0.359,0.055
	c0.344,0.038,0.69,0.06,1.035,0.061c0.005,0,0.009,0.001,0.014,0.001h0.002H419.57c0.978,0,1.95-0.152,2.879-0.434
	C426.475,259.812,429.692,256.167,429.054,251.978z"/>
<path style="fill:#808080;" d="M372.796,182.443c-0.053-2.474-2.023-4.501-4.499-4.501h-41.76c-2.476,0-4.091,2.06-4.501,4.501
	l-9.909,58.929c-0.346,2.047,1.425,4.422,3.369,4.631c0.375,0.04,0.756,0.009,1.13-0.13l52.458-19.582
	c2.313-0.861,4.549-2.029,4.501-4.499l-0.356-17.775L372.796,182.443z M370.71,221.849c0.018,0.82-2.046,1.53-2.632,1.75
	l-52.458,19.582c-0.169-0.117-0.723-0.944-0.659-1.331l1.367-8.129l-0.002,0.002l0.841-4.994l0.001-0.001l0.541-3.214l-0.001,0.001
	l2.545-15.128l4.62-27.468c0.142-0.85,0.623-2.103,1.663-2.103h26.85h14.912c0.921,0,1.606,0.788,1.624,1.684l0.066,3.306l0,0
	l0.075,3.784L370.71,221.849z"/>
<g>
	<path style="fill:#83BED6;" d="M353.385,180.817h-26.85c-1.04,0-1.521,1.253-1.663,2.103l-4.62,27.468l0.515-3.061L353.385,180.817
		z"/>
	<polygon style="fill:#83BED6;" points="369.988,185.806 369.922,182.501 369.933,183.078 317.708,225.515 317.167,228.729 	"/>
	<path style="fill:#83BED6;" d="M370.064,189.59l0.009,0.456l-53.745,43.676l-1.367,8.129c-0.064,0.387,0.49,1.214,0.659,1.331
		l52.458-19.582c0.586-0.22,2.65-0.93,2.632-1.75L370.064,189.59z"/>
</g>
<g>
	<path style="fill:#A4D8ED;" d="M369.933,183.078l-0.011-0.577c-0.018-0.896-0.703-1.684-1.624-1.684h-14.912l-32.618,26.51
		l-0.515,3.061l-2.545,15.128l0.001-0.001L369.933,183.078z"/>
	<polygon style="fill:#A4D8ED;" points="370.073,190.046 370.064,189.59 369.988,185.806 369.988,185.806 317.167,228.729 
		317.167,228.73 316.326,233.723 316.328,233.722 	"/>
</g>
<g>
	<path style="fill:#FFFFFF;" d="M245.438,270.195l-12.353-10.33l-18.293-6.744l-0.265,0.901l26.366,22.049l4.467-5.794
		C245.383,270.247,245.413,270.224,245.438,270.195z"/>
	<path style="fill:#FFFFFF;" d="M183.685,222.479l-3.426,2.886l13.429,11.23l3.344-2.37l8.503,2.6l-20.834-17.423
		C184.85,220.436,184.582,221.539,183.685,222.479z"/>
</g>
<path style="fill:#666666;" d="M256.968,275.844l-7.851-6.052c-1.135-0.877-2.765-0.686-3.679,0.403
	c-0.025,0.029-0.054,0.052-0.078,0.083l-4.467,5.794l-1.262,1.637c-0.9,1.166-0.68,2.856,0.486,3.756l7.201,5.551L256.968,275.844z"
	/>
<g>
	<path style="fill:#607C89;" d="M438.235,269.184c0.091,0.36,0.163,0.729,0.22,1.103
		C438.398,269.912,438.326,269.544,438.235,269.184z"/>
	<path style="fill:#607C89;" d="M437.208,266.56c0.149,0.274,0.288,0.556,0.415,0.845
		C437.496,267.115,437.358,266.834,437.208,266.56z"/>
	<path style="fill:#607C89;" d="M290.259,290.893h-23.147v-18.484l-5.443-2.007l-4.701,5.442l-9.65,11.172l-5.401,6.253l0.237,1.09
		c1.328,0.098,2.639,0.261,3.926,0.488l1.111-2.204c0.336-0.664,0.93-1.157,1.649-0.971l2.098,0.54
		c0.719,0.186,1.001,0.905,0.971,1.649l-0.092,2.456c1.239,0.421,2.449,0.902,3.63,1.441l1.624-1.856
		c0.49-0.561,1.186-0.891,1.837-0.534l1.899,1.047c0.65,0.359,0.742,1.125,0.529,1.839l-0.703,2.364
		c1.09,0.712,2.144,1.48,3.154,2.295l2.043-1.399c0.614-0.421,1.372-0.568,1.912-0.059l1.579,1.484
		c0.54,0.511,0.44,1.276,0.057,1.915l-0.535,0.891l92.448-21.658c0.05-0.316,0.192-0.613,0.457-0.861l2.006-1.883
		c0.687-0.648,1.649-0.458,2.428,0.078l1.651,1.133l2.549-0.597c0.781-0.58,1.573-1.145,2.388-1.679l-0.891-3.013
		c-0.268-0.907-0.149-1.88,0.678-2.336l2.412-1.324c0.827-0.456,1.711-0.034,2.335,0.681l2.054,2.352
		c1.498-0.685,3.036-1.297,4.609-1.833l-0.112-3.129c-0.034-0.944,0.32-1.858,1.237-2.091l2.664-0.685
		c0.916-0.236,1.667,0.394,2.094,1.237l1.404,2.795c1.614-0.286,3.254-0.495,4.918-0.621l0.671-3.069
		c0.202-0.923,0.772-1.72,1.718-1.72h2.751c0.946,0,1.517,0.797,1.719,1.72l0.669,3.063c1.686,0.124,3.349,0.332,4.984,0.621
		l1.413-2.799c0.429-0.843,1.182-1.471,2.096-1.237l2.664,0.69c0.777,0.2,1.148,0.892,1.219,1.674l21.008-4.922
		c-1.682-2.913-4.604-4.856-7.917-4.856H289.958c0.19,0.707,0.3,1.446,0.3,2.211v27.206H290.259z"/>
	<path style="fill:#607C89;" d="M437.775,267.757c0.155,0.39,0.294,0.789,0.407,1.202
		C438.07,268.546,437.931,268.147,437.775,267.757z"/>
	<path style="fill:#607C89;" d="M438.505,270.656c0.053,0.449,0.089,0.903,0.09,1.367
		C438.594,271.559,438.558,271.104,438.505,270.656z"/>
</g>
<g>
	<path style="fill:#445A64;" d="M370.383,281.957l-2.549,0.597l0.936,0.642C369.297,282.77,369.838,282.362,370.383,281.957z"/>
	<path style="fill:#445A64;" d="M345.831,317.125c0.059-0.944,0.889-1.463,1.823-1.608l3.097-0.472
		c0.227-1.651,0.534-3.276,0.919-4.872l-2.705-1.583c-0.816-0.476-1.395-1.269-1.105-2.167l0.853-2.615
		c0.291-0.898,1.225-1.196,2.166-1.102l3.109,0.309c0.63-1.535,1.335-3.033,2.11-4.487l-2.229-2.206
		c-0.669-0.667-1.035-1.576-0.529-2.373l1.475-2.323c0.506-0.797,1.484-0.854,2.373-0.529l2.941,1.074
		c0.99-1.324,2.043-2.598,3.156-3.816l-1.614-2.698c-0.298-0.5-0.459-1.061-0.379-1.57l-92.448,21.658l-0.736,1.226
		c0.877,0.96,1.709,1.961,2.49,3.003l2.323-0.847c0.699-0.252,1.469-0.206,1.867,0.421l1.159,1.83
		c0.396,0.628,0.109,1.345-0.421,1.867l-1.75,1.73c0.609,1.145,1.166,2.323,1.663,3.532l2.455-0.243
		c0.74-0.071,1.475,0.165,1.704,0.872l0.412,1.271h65.717c-0.051-0.167-0.081-0.344-0.069-0.539L345.831,317.125z"/>
	<path style="fill:#445A64;" d="M436.666,288.323c0.667,0.729,1.306,1.483,1.929,2.249v-5.669c-0.07,0.249-0.176,0.496-0.317,0.73
		L436.666,288.323z"/>
	<path style="fill:#445A64;" d="M416.089,271.672l-0.117,3.12c1.574,0.534,3.113,1.146,4.611,1.828l2.064-2.357
		c0.623-0.71,1.51-1.13,2.334-0.676l2.41,1.329c0.83,0.458,0.946,1.429,0.676,2.336l-0.894,3.003
		c1.384,0.905,2.722,1.878,4.006,2.914l2.593-1.777c0.781-0.534,1.743-0.719,2.43-0.073l2.005,1.885
		c0.19,0.179,0.312,0.384,0.387,0.602V272.03v-0.002c0-0.002,0-0.003,0-0.004c0-0.464-0.037-0.919-0.09-1.367
		c-0.015-0.124-0.032-0.246-0.051-0.369c-0.056-0.375-0.129-0.743-0.22-1.103c-0.019-0.075-0.032-0.151-0.052-0.225
		c-0.113-0.413-0.252-0.812-0.407-1.202c-0.048-0.12-0.101-0.235-0.152-0.352c-0.127-0.29-0.266-0.571-0.415-0.845
		c-0.041-0.075-0.071-0.157-0.114-0.231l-0.011,0.003l-21.008,4.922C416.088,271.391,416.095,271.53,416.089,271.672z"/>
</g>
<g>
	<path style="fill:#607C89;" d="M109.482,254.023c-0.244-0.319-0.484-0.643-0.724-0.966
		C108.998,253.38,109.238,253.704,109.482,254.023z"/>
	<path style="fill:#607C89;" d="M112.709,257.96c-0.236-0.268-0.469-0.54-0.702-0.812
		C112.24,257.421,112.473,257.693,112.709,257.96z"/>
	<path style="fill:#607C89;" d="M151.263,264.654v-0.005c0-3.63,2.971-6.601,6.604-6.601H163l0.408,0.011l3.938-2.791
		c0.613-1.22,1.142-2.434,1.612-3.623c2.694-6.807,3.212-12.674,3.212-12.674c1.926-3.047,2.293-5.866,1.681-8.207l6.408-5.399
		l3.426-2.886c0.897-0.94,1.165-2.042,1.015-3.076c-0.108-0.75-0.441-1.457-0.919-2.045l-0.976,0.778
		c0.224,0.268,0.4,0.582,0.497,0.942c0.357,1.324-0.426,2.687-1.752,3.045c-1.004,0.271-2.029-0.116-2.622-0.897l-10.371,8.265
		c0.66,0.552,1.167,1.3,1.409,2.194c0.623,2.316-0.747,4.696-3.062,5.321c-2.016,0.543-4.082-0.429-4.993-2.219l-39.72,31.655
		c5.701,3.833,12.224,6.091,19.814,5.83c4.452-0.153,8.244-1.148,11.49-2.691C152.131,268.37,151.263,266.61,151.263,264.654z"/>
	<path style="fill:#607C89;" d="M116.299,261.69c-0.254-0.241-0.507-0.482-0.757-0.729
		C115.792,261.208,116.045,261.449,116.299,261.69z"/>
	<path style="fill:#607C89;" d="M114.635,260.04c-0.345-0.357-0.687-0.719-1.026-1.086
		C113.947,259.322,114.289,259.683,114.635,260.04z"/>
	<path style="fill:#607C89;" d="M120.098,264.94c-0.26-0.199-0.522-0.395-0.779-0.601
		C119.575,264.545,119.837,264.74,120.098,264.94z"/>
	<path style="fill:#607C89;" d="M117.898,263.149c-0.257-0.224-0.51-0.456-0.764-0.686
		C117.388,262.694,117.641,262.925,117.898,263.149z"/>
	<path style="fill:#607C89;" d="M121.865,266.227c-0.279-0.191-0.556-0.386-0.831-0.585
		C121.309,265.841,121.586,266.035,121.865,266.227z"/>
	<path style="fill:#607C89;" d="M111.247,256.243c-0.223-0.271-0.447-0.54-0.667-0.815
		C110.8,255.703,111.024,255.972,111.247,256.243z"/>
	<path style="fill:#607C89;" d="M180.034,215.951c0.076-0.02,0.152-0.023,0.228-0.037
		C180.186,215.927,180.11,215.931,180.034,215.951z"/>
	<path style="fill:#607C89;" d="M180.663,215.854c0.095-0.005,0.187,0.005,0.281,0.008
		C180.85,215.859,180.758,215.848,180.663,215.854z"/>
	<path style="fill:#607C89;" d="M97.256,233.97c-0.131-0.253-0.26-0.506-0.39-0.759C96.996,233.464,97.126,233.716,97.256,233.97z"
		/>
	<path style="fill:#607C89;" d="M94.823,229.156c-0.036-0.072-0.071-0.144-0.107-0.216
		C94.751,229.012,94.787,229.083,94.823,229.156z"/>
	<path style="fill:#607C89;" d="M181.278,215.879c0.104,0.014,0.204,0.042,0.306,0.065
		C181.482,215.92,181.382,215.893,181.278,215.879z"/>
	<path style="fill:#607C89;" d="M182.951,216.566c0.102,0.074,0.199,0.156,0.295,0.238
		C183.15,216.721,183.054,216.64,182.951,216.566z"/>
	<path style="fill:#607C89;" d="M181.87,216.014c0.108,0.035,0.211,0.081,0.315,0.125
		C182.081,216.094,181.978,216.048,181.87,216.014z"/>
	<path style="fill:#607C89;" d="M182.431,216.246c0.107,0.055,0.21,0.12,0.312,0.185
		C182.64,216.366,182.539,216.301,182.431,216.246z"/>
	<path style="fill:#607C89;" d="M102.433,243.418c-0.202-0.342-0.403-0.685-0.602-1.029
		C102.03,242.733,102.232,243.075,102.433,243.418z"/>
	<path style="fill:#607C89;" d="M100.948,240.841c-0.163-0.29-0.324-0.58-0.485-0.87
		C100.624,240.261,100.785,240.552,100.948,240.841z"/>
	<path style="fill:#607C89;" d="M99.797,238.764c-0.152-0.279-0.305-0.558-0.456-0.838
		C99.492,238.206,99.645,238.484,99.797,238.764z"/>
	<path style="fill:#607C89;" d="M98.387,236.139c-0.118-0.223-0.234-0.446-0.351-0.67C98.153,235.692,98.269,235.915,98.387,236.139
		z"/>
	<path style="fill:#607C89;" d="M96.128,231.759c-0.095-0.188-0.191-0.376-0.285-0.564
		C95.938,231.383,96.033,231.571,96.128,231.759z"/>
	<path style="fill:#607C89;" d="M183.424,216.962c0.092,0.089,0.179,0.185,0.263,0.282
		C183.602,217.147,183.516,217.052,183.424,216.962z"/>
	<path style="fill:#607C89;" d="M103.169,244.655c0.183,0.304,0.368,0.606,0.553,0.908
		C103.537,245.261,103.352,244.958,103.169,244.655z"/>
	<path style="fill:#607C89;" d="M107.373,251.139c0.118,0.168,0.232,0.339,0.351,0.506c0.092,0.129,0.188,0.253,0.28,0.382
		C107.792,251.733,107.582,251.437,107.373,251.139z"/>
	<path style="fill:#607C89;" d="M104.957,247.537c-0.186-0.291-0.369-0.585-0.553-0.878
		C104.588,246.952,104.771,247.246,104.957,247.537z"/>
	<path style="fill:#607C89;" d="M106.652,250.094c-0.19-0.278-0.381-0.554-0.568-0.835
		C106.271,249.54,106.462,249.816,106.652,250.094z"/>
	<path style="fill:#607C89;" d="M103.868,224.827l55.266,2.352c2.565-3.086,6.413-3.526,9.57-2.201l10.697-8.796l-10.697,8.793
		c-3.157-1.322-7.005-0.882-9.57,2.201l-4.956-0.211l-50.307-2.139c0,0-0.254-0.25-0.668-0.654
		c-1.636-1.595-5.892-5.702-8.002-7.318C97.844,218.883,103.868,224.827,103.868,224.827z"/>
</g>
<path style="fill:#445A64;" d="M161.911,234.787c-0.135-0.265-0.246-0.546-0.326-0.844c-0.625-2.313,0.745-4.696,3.061-5.319
	c1.421-0.384,2.863-0.011,3.912,0.866l10.371-8.265c-0.189-0.249-0.337-0.536-0.423-0.856c-0.357-1.324,0.429-2.687,1.753-3.044
	c0.964-0.258,1.945,0.092,2.547,0.811l0.976-0.778l0.006-0.005c-0.031-0.038-0.069-0.071-0.101-0.108
	c-0.084-0.097-0.171-0.193-0.263-0.282c-0.057-0.055-0.118-0.106-0.178-0.158c-0.096-0.083-0.193-0.165-0.295-0.238
	c-0.067-0.049-0.138-0.09-0.208-0.135c-0.102-0.065-0.205-0.13-0.312-0.185c-0.08-0.041-0.163-0.073-0.245-0.108
	c-0.104-0.044-0.208-0.091-0.315-0.125c-0.094-0.03-0.191-0.048-0.287-0.07c-0.102-0.023-0.202-0.051-0.306-0.065
	c-0.11-0.015-0.222-0.014-0.334-0.017c-0.094-0.003-0.186-0.013-0.281-0.008c-0.133,0.007-0.267,0.035-0.401,0.06
	c-0.076,0.014-0.152,0.018-0.228,0.037c-0.211,0.055-0.423,0.13-0.633,0.231l-10.697,8.796c-3.157-1.324-7.005-0.884-9.57,2.201
	l-55.266-2.352c0,0-6.024-5.945-8.668-7.972c-2.643-2.029-5.698,1.535-5.698,1.535c1.657,3.285,3.381,6.859,5.214,10.55
	c0.036,0.072,0.071,0.144,0.107,0.216c0.336,0.677,0.676,1.357,1.02,2.04c0.094,0.187,0.19,0.376,0.285,0.564
	c0.244,0.483,0.49,0.966,0.738,1.452c0.129,0.253,0.259,0.506,0.39,0.759c0.257,0.499,0.518,0.999,0.78,1.499
	c0.117,0.223,0.233,0.446,0.351,0.67c0.314,0.596,0.633,1.192,0.954,1.787c0.151,0.279,0.304,0.559,0.456,0.838
	c0.22,0.403,0.442,0.805,0.665,1.207c0.161,0.29,0.322,0.581,0.485,0.87c0.291,0.517,0.586,1.033,0.884,1.548
	c0.199,0.344,0.4,0.686,0.602,1.029c0.243,0.414,0.488,0.826,0.736,1.237c0.183,0.304,0.368,0.606,0.553,0.908
	c0.225,0.367,0.453,0.732,0.682,1.097c0.184,0.293,0.367,0.587,0.553,0.878c0.371,0.579,0.746,1.153,1.126,1.723
	c0.187,0.28,0.378,0.557,0.568,0.835c0.239,0.35,0.479,0.699,0.721,1.045c0.209,0.298,0.419,0.594,0.63,0.888
	c0.249,0.346,0.501,0.688,0.754,1.029c0.24,0.324,0.48,0.647,0.724,0.966c0.362,0.474,0.728,0.943,1.099,1.405
	c0.22,0.275,0.444,0.544,0.667,0.815c0.251,0.305,0.504,0.606,0.759,0.905c0.233,0.273,0.466,0.545,0.702,0.812
	c0.297,0.336,0.598,0.665,0.9,0.993c0.339,0.368,0.68,0.729,1.026,1.086c0.301,0.31,0.602,0.62,0.908,0.921
	c0.25,0.247,0.503,0.488,0.757,0.729c0.276,0.262,0.555,0.519,0.835,0.773c0.254,0.23,0.507,0.462,0.764,0.686
	c0.468,0.407,0.941,0.805,1.421,1.19c0.257,0.206,0.519,0.401,0.779,0.601c0.31,0.238,0.622,0.474,0.937,0.702
	c0.275,0.199,0.552,0.394,0.831,0.585c0.106,0.073,0.21,0.151,0.317,0.223l0.009-0.007L161.911,234.787z"/>
<g>
	<path style="fill:#999999;" d="M164.645,228.625c-2.316,0.623-3.686,3.005-3.061,5.319c0.08,0.298,0.192,0.579,0.326,0.844
		c0.911,1.79,2.977,2.762,4.993,2.219c2.315-0.625,3.685-3.005,3.062-5.321c-0.241-0.895-0.748-1.643-1.409-2.194
		C167.508,228.614,166.067,228.241,164.645,228.625z"/>
	<path style="fill:#999999;" d="M180.258,217.325c-1.324,0.357-2.11,1.721-1.753,3.044c0.086,0.321,0.234,0.608,0.423,0.856
		c0.593,0.78,1.618,1.167,2.622,0.897c1.326-0.357,2.11-1.721,1.752-3.045c-0.097-0.359-0.273-0.674-0.497-0.942
		C182.204,217.417,181.223,217.066,180.258,217.325z"/>
</g>
<path style="fill:#4D4D4D;" d="M217.506,243.876l0.911-3.111l-12.883-3.94l-8.503-2.6l-3.344,2.37l-21.231,15.05l-5.111,3.623
	l-3.938,2.791l-0.408-0.011h-5.133c-3.633,0-6.604,2.971-6.604,6.601v0.005c0,1.956,0.867,3.716,2.231,4.927
	c1.167,1.037,2.697,1.674,4.372,1.674h5.133c3.353,0,6.146-2.536,6.551-5.784l30.046-13.827l0.214-0.098l0.31,0.098l13.816,4.382
	l0.59-2.006l0.265-0.901l18.293,6.744l28.583,10.538l5.443,2.007v-8.724c0-2.691,1.253-5.099,3.202-6.679l-21.561-5.361
	L217.506,243.876z M161.008,268.191c-1.982,0-3.587-1.606-3.587-3.588c0-1.981,1.605-3.587,3.587-3.587
	c1.981,0,3.587,1.606,3.587,3.587C164.595,266.585,162.989,268.191,161.008,268.191z"/>
<path style="fill:#445A64;" d="M267.112,263.685v8.724v18.484h23.147v-27.208c0-0.765-0.111-1.504-0.3-2.211
	c-0.983-3.667-4.334-6.389-8.299-6.389h-5.948c-2.041,0-3.919,0.722-5.397,1.921C268.365,258.586,267.112,260.994,267.112,263.685z"
	/>
<path style="fill:#263238;" d="M436.203,281.318c-0.687-0.646-1.649-0.46-2.43,0.073l-2.593,1.777
	c-1.285-1.035-2.623-2.009-4.006-2.914l0.894-3.003c0.27-0.907,0.154-1.879-0.676-2.336l-2.41-1.329
	c-0.824-0.454-1.711-0.034-2.334,0.676l-2.064,2.357c-1.498-0.683-3.037-1.294-4.611-1.828l0.117-3.12
	c0.006-0.142,0-0.281-0.013-0.42c-0.071-0.782-0.442-1.473-1.219-1.674l-2.664-0.69c-0.914-0.233-1.667,0.394-2.096,1.237
	l-1.413,2.799c-1.635-0.288-3.299-0.497-4.984-0.621l-0.669-3.063c-0.202-0.923-0.772-1.72-1.719-1.72h-2.751
	c-0.946,0-1.516,0.797-1.718,1.72l-0.671,3.069c-1.663,0.126-3.303,0.335-4.918,0.621l-1.404-2.795
	c-0.427-0.843-1.178-1.473-2.094-1.237l-2.664,0.685c-0.916,0.233-1.271,1.148-1.237,2.091l0.112,3.129
	c-1.573,0.536-3.111,1.148-4.609,1.833l-2.054-2.352c-0.623-0.715-1.508-1.136-2.335-0.681l-2.412,1.324
	c-0.827,0.456-0.946,1.429-0.678,2.336l0.891,3.013c-0.815,0.534-1.608,1.099-2.388,1.679c-0.545,0.405-1.086,0.813-1.613,1.239
	l-0.936-0.642l-1.651-1.133c-0.779-0.536-1.741-0.726-2.428-0.078l-2.006,1.883c-0.265,0.248-0.407,0.544-0.457,0.861
	c-0.08,0.509,0.081,1.07,0.379,1.57l1.614,2.698c-1.113,1.219-2.166,2.492-3.156,3.816l-2.941-1.074
	c-0.888-0.325-1.867-0.268-2.373,0.529l-1.475,2.323c-0.506,0.797-0.14,1.707,0.529,2.373l2.229,2.206
	c-0.774,1.454-1.48,2.952-2.11,4.487l-3.109-0.309c-0.941-0.094-1.876,0.204-2.166,1.102l-0.853,2.615
	c-0.291,0.898,0.289,1.691,1.105,2.167l2.705,1.583c-0.385,1.597-0.692,3.221-0.919,4.872l-3.097,0.472
	c-0.934,0.144-1.764,0.664-1.823,1.608l-0.174,2.744c-0.012,0.195,0.018,0.372,0.069,0.539c0.198,0.642,0.817,1.08,1.539,1.287
	l3.026,0.863c0.022,1.668,0.126,3.317,0.309,4.943l-2.882,1.228c-0.87,0.371-1.544,1.083-1.368,2.011l0.514,2.701
	c0.176,0.93,1.067,1.343,2.011,1.37l3.134,0.082c0.435,1.606,0.946,3.18,1.535,4.717l-2.478,1.901
	c-0.752,0.577-1.228,1.432-0.825,2.288l1.169,2.488c0.403,0.857,1.367,1.035,2.288,0.827l3.058-0.698
	c0.818,1.441,1.706,2.836,2.659,4.18l-1.931,2.464c-0.584,0.745-0.834,1.69-0.229,2.419l1.75,2.121
	c0.602,0.729,1.58,0.662,2.421,0.232l2.797-1.441c1.146,1.187,2.352,2.319,3.61,3.386l-1.26,2.873
	c-0.383,0.866-0.387,1.846,0.378,2.402l2.224,1.618c0.765,0.554,1.695,0.249,2.402-0.378l2.343-2.087
	c1.405,0.866,2.854,1.665,4.346,2.391l-0.507,3.084c-0.154,0.932,0.084,1.883,0.964,2.231l2.557,1.015
	c0.877,0.348,1.704-0.181,2.231-0.965l1.748-2.595c1.572,0.485,3.175,0.896,4.808,1.228l0.277,3.11
	c0.082,0.944,0.549,1.806,1.486,1.922l2.728,0.348c0.939,0.119,1.606-0.598,1.924-1.489l1.051-2.962
	c0.813,0.039,1.631,0.059,2.455,0.059c0.839,0,1.67-0.02,2.499-0.062l1.045,2.955c0.314,0.891,0.98,1.61,1.919,1.491l2.728-0.341
	c0.937-0.119,1.407-0.981,1.494-1.922l0.28-3.119c1.633-0.332,3.237-0.745,4.808-1.233l1.739,2.59
	c0.527,0.786,1.351,1.315,2.228,0.969l2.559-1.013c0.88-0.346,1.118-1.297,0.969-2.228l-0.504-3.095
	c1.491-0.726,2.939-1.525,4.341-2.393l2.336,2.084c0.706,0.63,1.635,0.937,2.401,0.382l2.226-1.614
	c0.766-0.555,0.761-1.535,0.385-2.403l-1.262-2.879c1.258-1.072,2.463-2.203,3.608-3.392l2.788,1.441
	c0.838,0.435,1.816,0.501,2.419-0.227l1.757-2.117c0.6-0.728,0.353-1.676-0.227-2.421l-1.936-2.474
	c0.953-1.347,1.839-2.742,2.657-4.183l3.049,0.699c0.923,0.213,1.885,0.034,2.288-0.82l1.173-2.488
	c0.403-0.855-0.071-1.711-0.82-2.29l-2.483-1.909c0.584-1.537,1.097-3.111,1.53-4.719l3.125-0.078
	c0.946-0.025,1.835-0.438,2.011-1.365l0.52-2.703c0.177-0.925-0.497-1.637-1.365-2.011l-2.888-1.237
	c0.181-1.624,0.284-3.274,0.305-4.943l3.019-0.857c0.911-0.257,1.67-0.877,1.61-1.821l-0.169-2.747
	c-0.057-0.941-0.889-1.463-1.821-1.61l-3.106-0.479c-0.227-1.649-0.535-3.276-0.923-4.87l2.701-1.576
	c0.818-0.474,1.397-1.264,1.106-2.162l-0.847-2.618c-0.291-0.898-1.223-1.198-2.164-1.106l-3.117,0.307
	c-0.632-1.535-1.338-3.033-2.114-4.485l2.224-2.199c0.673-0.665,1.04-1.572,0.534-2.371l-1.471-2.325
	c-0.506-0.797-1.484-0.854-2.373-0.534l-2.951,1.074c-0.397-0.532-0.813-1.049-1.232-1.564c-0.623-0.767-1.261-1.521-1.929-2.249
	l1.612-2.689c0.141-0.234,0.247-0.481,0.317-0.73c0.106-0.376,0.118-0.754,0-1.098c-0.075-0.218-0.197-0.423-0.387-0.602
	L436.203,281.318z M398.507,347.996c-14.873,0-26.926-12.055-26.926-26.926c0-14.87,12.053-26.926,26.926-26.926
	c14.87,0,26.924,12.055,26.924,26.926C425.43,335.94,413.377,347.996,398.507,347.996z"/>
<circle style="fill:#FFD500;" cx="398.51" cy="321.07" r="26.926"/>
<path style="fill:#263238;" d="M277.893,318.264l-2.455,0.243c-0.497-1.209-1.054-2.387-1.663-3.532l1.75-1.73
	c0.531-0.522,0.818-1.239,0.421-1.867l-1.159-1.83c-0.398-0.628-1.168-0.673-1.867-0.421l-2.323,0.847
	c-0.781-1.042-1.612-2.043-2.49-3.003l0.736-1.226l0.535-0.891c0.383-0.639,0.483-1.404-0.057-1.915l-1.579-1.484
	c-0.54-0.508-1.299-0.362-1.912,0.059l-2.043,1.399c-1.01-0.815-2.064-1.583-3.154-2.295l0.703-2.364
	c0.213-0.714,0.121-1.48-0.529-1.839l-1.899-1.047c-0.651-0.357-1.347-0.028-1.837,0.534l-1.624,1.856
	c-1.182-0.539-2.391-1.02-3.63-1.441l0.092-2.456c0.03-0.745-0.252-1.463-0.971-1.649l-2.098-0.54
	c-0.719-0.186-1.312,0.307-1.649,0.971l-1.111,2.204c-1.287-0.227-2.598-0.39-3.926-0.488l-0.237-1.09l-0.288-1.322
	c-0.16-0.727-0.609-1.352-1.354-1.352h-2.164c-0.745,0-1.196,0.625-1.354,1.352l-0.529,2.416c-1.308,0.101-2.6,0.263-3.871,0.49
	l-1.107-2.199c-0.334-0.664-0.925-1.159-1.647-0.976l-2.098,0.538c-0.719,0.186-1.001,0.905-0.973,1.649l0.089,2.462
	c-1.239,0.421-2.451,0.905-3.63,1.443l-1.617-1.853c-0.488-0.561-1.184-0.893-1.837-0.534l-1.897,1.043
	c-0.653,0.357-0.747,1.124-0.536,1.837l0.704,2.373c-1.091,0.714-2.142,1.479-3.152,2.297l-2.036-1.399
	c-0.611-0.421-1.37-0.57-1.912-0.059l-1.578,1.482c-0.543,0.508-0.442,1.273-0.059,1.913l1.269,2.125
	c-0.875,0.958-1.707,1.961-2.486,3.005l-2.315-0.847c-0.699-0.257-1.469-0.211-1.867,0.417l-1.161,1.828
	c-0.399,0.627-0.11,1.345,0.417,1.869l1.755,1.736c-0.612,1.146-1.166,2.325-1.661,3.534l-2.449-0.245
	c-0.742-0.073-1.475,0.16-1.706,0.868l-0.669,2.06c-0.229,0.708,0.227,1.331,0.869,1.706l2.13,1.246
	c-0.302,1.255-0.545,2.536-0.724,3.834l-2.437,0.374c-0.735,0.112-1.391,0.522-1.436,1.264l-0.138,2.16
	c-0.046,0.745,0.55,1.233,1.267,1.439l2.383,0.68c0.018,1.312,0.098,2.612,0.245,3.89l-2.27,0.969
	c-0.687,0.291-1.216,0.85-1.076,1.583l0.403,2.126c0.14,0.731,0.841,1.056,1.583,1.076l2.467,0.067
	c0.344,1.264,0.747,2.503,1.209,3.713l-1.951,1.498c-0.592,0.454-0.967,1.127-0.651,1.8l0.921,1.959
	c0.319,0.673,1.077,0.815,1.801,0.65l2.41-0.549c0.644,1.134,1.342,2.231,2.093,3.291l-1.521,1.94
	c-0.46,0.586-0.656,1.331-0.181,1.906l1.379,1.67c0.474,0.572,1.244,0.52,1.906,0.181l2.201-1.136
	c0.903,0.936,1.853,1.825,2.843,2.668l-0.992,2.261c-0.3,0.683-0.305,1.452,0.297,1.89l1.75,1.273
	c0.603,0.438,1.335,0.197,1.892-0.297l1.846-1.643c1.104,0.683,2.245,1.31,3.419,1.883l-0.398,2.426
	c-0.121,0.735,0.067,1.484,0.758,1.759l2.013,0.797c0.692,0.275,1.342-0.142,1.757-0.758l1.377-2.043
	c1.235,0.383,2.499,0.706,3.784,0.967l0.218,2.449c0.066,0.742,0.433,1.42,1.173,1.514l2.147,0.272
	c0.739,0.094,1.264-0.472,1.513-1.171l0.83-2.334c0.639,0.032,1.283,0.048,1.933,0.048c0.66,0,1.315-0.017,1.966-0.048l0.824,2.325
	c0.247,0.704,0.772,1.267,1.51,1.175l2.149-0.27c0.738-0.092,1.107-0.77,1.175-1.512l0.222-2.456
	c1.285-0.261,2.547-0.586,3.784-0.971l1.368,2.04c0.414,0.619,1.065,1.035,1.757,0.761l2.013-0.795
	c0.692-0.272,0.88-1.022,0.762-1.757l-0.396-2.435c1.173-0.572,2.313-1.203,3.417-1.885l1.839,1.64
	c0.555,0.497,1.287,0.74,1.89,0.303l1.752-1.271c0.602-0.437,0.6-1.209,0.302-1.889l-0.994-2.271
	c0.992-0.843,1.94-1.732,2.842-2.668l2.192,1.134c0.662,0.342,1.432,0.394,1.906-0.179l1.382-1.667
	c0.474-0.573,0.279-1.32-0.177-1.906l-1.525-1.947c0.751-1.06,1.45-2.16,2.094-3.293l2.401,0.552c0.726,0.167,1.484,0.027,1.8-0.646
	l0.925-1.959c0.316-0.673-0.057-1.349-0.646-1.802l-1.957-1.503c0.46-1.211,0.864-2.451,1.205-3.716l2.46-0.061
	c0.745-0.018,1.443-0.344,1.583-1.074l0.41-2.128c0.139-0.729-0.392-1.29-1.074-1.585l-2.277-0.971
	c0.144-1.28,0.227-2.579,0.243-3.892l2.375-0.676c0.717-0.201,1.315-0.691,1.269-1.434l-0.135-2.162
	c-0.046-0.74-0.698-1.152-1.434-1.267l-2.444-0.378c-0.179-1.299-0.421-2.577-0.726-3.832l2.125-1.241
	c0.644-0.373,1.099-0.995,0.871-1.705l-0.255-0.787l-0.412-1.271C279.369,318.429,278.633,318.193,277.893,318.264z
	 M259.264,332.752c0,11.707-9.492,21.197-21.199,21.197c-11.708,0-21.197-9.49-21.197-21.197c0-11.708,9.49-21.2,21.197-21.2
	S259.264,321.044,259.264,332.752z"/>
<circle style="fill:#FFD500;" cx="238.06" cy="332.75" r="21.2"/>
<circle style="fill:#B3B3B3;" cx="161.01" cy="264.6" r="3.587"/>
<path style="fill:#3E2622;" d="M398.484,169.014h3.259c1.736,0,3.157-1.42,3.157-3.157v-0.002c0-1.736-1.421-3.157-3.157-3.157
	h-2.105h-1.154v-17.839v-3.971v-6.254v-1.839c0-2.999-4.906-4.794-7.461-4.304v5.59c1.555-0.188,2.627,0.549,2.627,1.104
	c-0.005,1.958-0.008,3.845-0.01,5.704c-0.002,1.341-0.003,2.665-0.004,3.971c-0.004,6.006,0,11.727,0.003,17.839h-2.486
	c-0.14,0-0.274,0.024-0.409,0.042c-1.543,0.204-2.747,1.519-2.747,3.115v0.002c0,1.736,1.422,3.157,3.156,3.157h2.486h4.845V169.014
	z"/>
<g>
</g>
<g>
</g>
<g>
</g>
<g>
</g>
<g>
</g>
<g>
</g>
<g>
</g>
<g>
</g>
<g>
</g>
<g>
</g>
<g>
</g>
<g>
</g>
<g>
</g>
<g>
</g>
<g>
</g>
</svg>
