<?xml version="1.0" encoding="iso-8859-1"?>
<!-- Generator: Adobe Illustrator 19.0.0, SVG Export Plug-In . SVG Version: 6.00 Build 0)  -->
<svg version="1.1" id="Layer_1" xmlns="http://www.w3.org/2000/svg" xmlns:xlink="http://www.w3.org/1999/xlink" x="0px" y="0px"
	 viewBox="0 0 512 512" style="enable-background:new 0 0 512 512;" xml:space="preserve">
<path style="fill:#B1E9F1;" d="M255.998,0C397.386,0,512,114.614,512,255.998C512,397.386,397.386,512,255.998,512
	C114.614,512,0,397.386,0,255.998C0,114.614,114.614,0,255.998,0z"/>
<path style="fill:#BBBBBB;" d="M51.62,101.833l6.153-1.836l0.703,12.649c2.608-6.838,1.558-6.267,7.78-10.045l3.289-2.924
	l1.101-0.196l1.558-0.411l3.696-1.987l3.052-1.188l2.302-2.088l0.333-0.352l0.525-1.311l0.781,0.964l4.34,0.146l0.539-1.887
	l1.01,2.444l4.687,4.596l0.498-1.754L102.504,98l0.799,0.128l1.352,0.215l0.676,0.105l0.347-0.626l3.86-2.206l1.832-1.046
	l0.576-0.329l3.444-2.27l2.704-1.791l0.525-0.562l0.384-2.12l0.891,0.831l5.212-5.82l0.576,4.472l10.452,5.907l6.204-3.394
	l0.722-0.397l0.333-0.183l0.731-0.589l1.124-0.936l0.74-0.653l0.676-3.115l1.814,1.75l2.079,0.397l6.327,1.201l2.8,0.534
	l0.132-0.598l5.381,4.34l0.096,0.078l2.928,6.304l3.504-7.03l4.938-1.425l0.571-0.164l1.964,0.818l4.472,3.897l1.389-6.254
	l4.86-2.375l0.16-1.156l2.946-0.548l1.101-0.206l0.539-0.101l0.772-2.188l2.887,4.052l0.653,0.786l2.974,3.577l1.147,1.38
	l1.891,0.388l0.489-1.398l1.064-6.953l4.573,4.107l4.81-6.089l0.502,1.338l7.145-3.385l-4.55,15.152l5.326-2.522l2.462-7.834
	l1.672,2.147l2.901-2.736l1.329-1.256l1.763-1.667l0.032,0.557l8.099,0.059l-0.713,0.822l-0.009,0.009l-9.228,10.575l-0.53,0.612
	l-0.169,0.192h0.201l0.598-0.055l3.221-7.263l5.692,8.287l2.8,4.075l0.507,0.74l0.11-0.247l0.388-0.169l1.48-3.527l2.759-5.125
	l5.756,5.039l1.777-0.119l2.074-3.549l5.08-4.783l1.179,4.705l2.106,8.433l0.105,0.407l0.142-0.132l2.156-5.454l1.987,1.174
	l2.965,0.064l4.189-7.062l2.805,5.829l4.787-6.304l3.458,15.454l4.787-6.304l4.714-5.336l5.916,12.951l4.714-5.336l5.281-6.304
	l4.614,15.792l5.039-6.007l5.107-4.646l4.86,12.932l5.112-4.646l7.661,2.088c0.11,0.032,0.215,0.064,0.32,0.096l5.486-4.244
	l3.76,13.353l5.486-4.244l2.764,1.014l5.98-4.733l2.517,15.038l5.98-4.728l9.808,4.12c0.311,0.142,0.621,0.283,0.932,0.425
	l5.258-1.923l3.399,10.685l5.262-1.923l0.699,0.384l5.509-1.9l2.512,11.379l5.509-1.896l0.521,0.311l1.937,1.201l0.936,0.594
	l8.908,5.632l6.304-2.074l-0.078,13.28l3.919-1.288l7.154-3.897l-1.293,16.24l7.154-3.897l5.651,4.86l1.233,1.169l6.555-1.22
	l-1.937,13.197l2.878-0.534l0.735,0.553l5.756-1.101l0.379,5.989l0.735,0.731l2.791,2.782l1.338,1.338l1.261-0.242l3.307,3.741
	l0.475,0.626l1.654,2.174l7.565-0.576l-6.222,13.841l7.574-0.571l0.375,0.534l0.763,1.083l0.996,1.416l1.754,2.595l5.664,1.165
	l-3.458,11.037l5.664,1.165l0.754,1.279l0.26,0.443c0.694,1.306,1.38,2.627,2.056,3.951l0.023,0.297
	c0.119,1.681,0.228,3.367,0.32,5.057l0.014,0.301l0.041,0.781c0.096,1.992,0.174,3.988,0.224,5.989l0.005,0.11v0.018l0.005,0.096
	c0.055,2.165,0.082,4.335,0.082,6.51C512,397.386,397.386,512,255.998,512C114.614,512,0,355.633,0,255.998
	C0,198.11,19.223,144.718,51.62,101.833z"/>
<path style="fill:#9F877E;" d="M454.62,417.504c-5.514-2.549-11.142-6.587-17.258-13.28c-0.923-37.034-0.914-19.323-6.13-34.366
	c-10.045,7.126-14.741,0.936-20.392,1.206c-0.827,0.037-3.339,0.571-4.07,0.708c-16.897,3.125-7.515-0.557-12.498-4.417
	c-7.78-6.016-4.052,4.28-18.309-2.636c-6.555,2.96-19.707,2.796-30.163,3.39c-21.721,1.238-13.06,6.181-26.116,9.602
	c-27.77,7.286-33.06-2.293-44.119-7.816l-87.036-38.852c-25.961-18.51-15.554,1.462-20.483-14.234
	c-6.14,3.294-11.384-1.197-11.489-1.603c-0.247-0.973-1.087-0.872-1.676-1.156c-4.755,11.932,1.119,10.776-10.004,10.685
	l-9.118-5.272c-0.265-1.064-0.959-1.174-1.53-1.558c-5.605,8.118-1.43,8.501-10.182,6.77c-10.402-2.056-1.713,4.545-7.889-9.945
	c-9.68,3.586-4.568,8.78-12.873,2.503c-12.434-9.401,3.129-11.717-18.026-13.618c2.275,6.994,2.279,1.736-0.082,6.775
	c-20.282,1.316-8.597,0.763-18.072-15.171c-17.542-1.745-24.494,30.396-57.773-11.493c-3.545-4.458-6.391-8.223-8.794-11.388
	C8.963,406.111,120.105,512,255.998,512C336.145,512,407.682,475.158,454.62,417.504z"/>
<g>
	<polygon style="fill:#6C4C40;" points="160.716,320.459 161.077,422.785 164.809,318.686 	"/>
	<polygon style="fill:#6C4C40;" points="307.946,381.059 308.307,483.39 312.039,379.291 	"/>
</g>
<path style="fill:#9F877E;" d="M290.144,173.274c3.125,0.256,149.076,57.184,149.076,57.184l-9.904-18.985l0,0l-1.635,0.128
	l1.019-3.12l-1.635,0.128l-0.142-0.968l0.58-1.645l-1.457-0.16l-0.503-0.283l-0.169-0.073l0.443-2.284l-1.064-0.475l-0.014-0.027
	l-0.288-0.553l-0.955-1.827l-1.156-0.425l0.626-2.38l-1.156-0.425l-0.1-0.192l-0.119-0.233l-2.563-0.868l-2.777-0.941L415,195.721
	l-0.936-2.914l-1.256,0.873l-0.662-0.224l-2.275-0.772l-0.539-0.183l-0.279-0.096l-6.117-2.074l-3.221-0.37l-1.156-1.932
	l-1.11,0.439l-0.123-0.05l-0.16-0.064l-2.974-7.606l-0.242-0.612l-1.448-0.329l1.366-2.645l-1.453-0.329l-0.078-0.069l-0.375-0.324
	l-1.375-0.155l2.558-2.96l-1.941-0.215l-0.069-0.178l-1.75,0.041l1.535-3.147l-1.754,0.041l-0.196-0.923l1.343-1.9l-1.617-0.347
	l-0.091-0.233l-0.1-0.251l-0.996-0.589l0.667-2.216l-0.996-0.589l-0.009-0.014l-0.137-0.356l-0.279-0.708l-0.137-0.356l-0.137-0.352
	l-0.128-0.324l-0.626-1.599l-1.348-0.452l1.366-2.49l-0.749-0.251l-1.645-2.988l-0.379-0.201l-1.229,0.393l-0.082-0.256
	l-0.365-0.238l-0.379-0.187l-0.758-0.174l-0.146,0.192l-0.393,0.356l-0.306,0.279l-0.379,0.356l-1.549,0.653l0.841-3.253
	l-1.549,0.653l-1.508,0.324l-2.11,0.05l-0.64-0.594l-0.393,1.147l-0.767,0.708l-0.228,0.151l-1.279-0.379l-0.941-1.046l-0.361,1.462
	l-2.298,0.393l-0.63-0.69l-0.238-0.256l-0.073,0.283v0.005l0.233,1.279l-2.563-0.42l0.233,1.279l-0.991-0.123l-1.211,0.53
	l-0.672,1.064l-2.188-1.252l-0.672,1.069l-0.132,0.032l-0.146,0.037l-0.324,0.082l-11.009,2.745l-2.261,0.566l-0.576,1.444
	l-2.38-2.005l-0.073,0.187l-0.027,0.014l-0.338,1.197l-1.941-0.411l0.525,1.402l-2.983-0.347l0.521,1.407l-2.056-1.887l-0.21-0.215
	l-0.292,0.982l1.165,1.297l-1.494,0.402l-0.128-0.151l0.393-1.316l0.064-0.233l0,0l-0.324,0.178l-0.064,1.165l-0.256,0.027
	l-0.311,1.156l-2.083-1.192l-0.311,1.156l-0.105-0.11l-0.662-0.676l-0.105-0.11l-1.16-1.215l-0.493,1.772l-0.137,0.037l-3.545,0.667
	l-0.343,0.064l-1.064-1.069l-0.512,1.704l-0.023,0.005l-0.219,0.055l-0.388,0.096l-0.215,0.055l-6.341,1.581l-0.978,0.247
	l-0.699,0.964l-2.138-1.051l-0.699,0.968l-0.114,0.027l-0.489,0.123l-0.416,1.941l-2.681-2.928l-0.416,1.941l-0.402,0.155
	l-0.233,0.087l-0.219,0.082l-0.525,0.914l-2.225-1.389l-0.658,1.137l-0.375,0.091L290.144,173.274z"/>
<path style="fill:#FED935;" d="M69.965,251.562c16.048-43.292,4.198-44.379,46.714-49.094c3.015-0.027,45.64-61.112,50.98-68.494
	c20.433,7.044,33.256,11.982,53.57,19.305l-0.859,112.586c-49.254-38.605-80.582-39.14-112.782,17.427
	c-13.024-4.541-37.701-12.731-50.683-17.414c1.955-5.427,3.814-11.059,5.765-16.464C65.155,250.141,67.489,250.827,69.965,251.562z"
	/>
<path style="fill:#747474;" d="M222.582,236.154l-104.103-35.179c8.803-9.401,44.334-60.304,49.18-67.001
	c4.765,1.645,9.511,3.316,14.248,5.007c15.609,5.692,23.768,8.954,39.281,14.915L222.582,236.154z"/>
<polygon style="fill:#FFBF06;" points="175.087,114.555 242.042,139.045 257.236,159.807 471.832,237.698 450.604,291.931 
	230.718,277.527 229.046,150.684 171.282,128.794 "/>
<path style="fill:#FFE900;" d="M245.528,171.254l1.201,91.079l33.082,2.165l-1.064-80.938L245.528,171.254z M303.639,266.061
	l53.479,3.499l-0.754-57.239l-53.694-19.894L303.639,266.061z M380.95,271.123l58.883,3.855l10.849-27.715l-70.39-26.079
	L380.95,271.123z"/>
<path style="fill:#BBBBBB;" d="M66.663,252.266c8.711,3.49,17.665,6.72,26.55,9.744c2.065-5.258,3.929-10.424,5.696-15.797
	c-8.771-3.335-17.578-6.51-26.445-9.538C70.249,241.887,68.38,247.058,66.663,252.266z"/>
<path style="fill:#202020;" d="M326.918,289.797c-1.539-0.429-3.083-0.772-4.632-1.042l-0.361-2.974
	c-0.105-0.895-0.58-1.708-1.48-1.795l-2.627-0.251c-0.9-0.082-1.517,0.626-1.791,1.485l-0.918,2.86
	c-1.59-0.027-3.175,0.023-4.751,0.151l-1.087-2.787c-0.324-0.845-0.987-1.512-1.882-1.37l-2.599,0.411
	c-0.895,0.142-1.32,0.978-1.37,1.882l-0.178,3.006c-1.539,0.37-3.061,0.809-4.554,1.329l-1.754-2.439
	c-0.53-0.74-1.334-1.22-2.165-0.859l-2.421,1.042c-0.827,0.361-1.028,1.279-0.854,2.165l0.576,2.96
	c-1.398,0.731-2.764,1.539-4.084,2.412l-2.302-1.928c-0.694-0.58-1.594-0.845-2.311-0.292l-2.083,1.617
	c-0.717,0.553-0.685,1.489-0.292,2.307l1.288,2.713c-1.169,1.06-2.289,2.179-3.358,3.358l-2.704-1.288
	c-0.818-0.393-1.754-0.425-2.307,0.292l-1.617,2.078c-0.557,0.717-0.292,1.617,0.288,2.311l1.928,2.307
	c-0.868,1.311-1.672,2.677-2.412,4.093l-2.946-0.58c-0.891-0.174-1.804,0.023-2.17,0.854l-1.046,2.417
	c-0.361,0.831,0.123,1.64,0.854,2.17l2.449,1.759c-0.521,1.512-0.964,3.033-1.329,4.559l-2.992,0.169
	c-0.904,0.05-1.745,0.47-1.891,1.366l-0.411,2.604c-0.142,0.895,0.525,1.553,1.366,1.887l2.796,1.092
	c-0.128,1.59-0.178,3.175-0.146,4.751l-2.855,0.909c-0.863,0.274-1.571,0.891-1.485,1.791l0.247,2.622
	c0.082,0.905,0.895,1.38,1.791,1.489l2.983,0.365c0.27,1.562,0.617,3.106,1.042,4.632l-2.544,1.59
	c-0.767,0.484-1.297,1.256-0.991,2.11l0.891,2.48c0.302,0.85,1.206,1.105,2.106,0.991l2.988-0.388
	c0.649,1.444,1.366,2.85,2.156,4.225l-2.074,2.179c-0.626,0.658-0.946,1.539-0.439,2.289l1.48,2.179
	c0.507,0.749,1.448,0.777,2.284,0.439l2.796-1.115c0.982,1.233,2.028,2.426,3.138,3.563l-1.457,2.613
	c-0.443,0.795-0.539,1.727,0.142,2.325l1.973,1.745c0.676,0.598,1.594,0.393,2.325-0.142l2.421-1.772
	c1.256,0.95,2.567,1.841,3.929,2.668l-0.758,2.896c-0.233,0.877-0.091,1.804,0.713,2.216l2.348,1.201
	c0.809,0.411,1.64-0.018,2.22-0.717l1.909-2.33c0.717,0.301,1.448,0.585,2.193,0.854c0.754,0.27,1.512,0.521,2.27,0.754
	l-0.018,3.001c-0.005,0.909,0.365,1.772,1.247,1.969l2.572,0.58c0.882,0.196,1.585-0.425,1.964-1.247l1.27-2.723
	c1.581,0.233,3.161,0.384,4.733,0.452l0.726,2.901c0.219,0.882,0.79,1.626,1.695,1.599l2.631-0.082
	c0.905-0.027,1.43-0.804,1.599-1.695l0.553-2.951c1.581-0.169,3.143-0.42,4.691-0.749l1.43,2.64
	c0.429,0.795,1.165,1.375,2.037,1.124l2.531-0.731c0.868-0.251,1.183-1.137,1.128-2.042l-0.206-3.006
	c1.485-0.553,2.937-1.183,4.358-1.882l2.042,2.202c0.612,0.667,1.475,1.042,2.252,0.585l2.27-1.338
	c0.781-0.461,0.863-1.398,0.585-2.257l-0.941-2.86c1.297-0.904,2.549-1.873,3.755-2.905l2.522,1.622
	c0.763,0.489,1.686,0.644,2.325,0.005l1.868-1.864c0.64-0.635,0.489-1.562,0.005-2.33l-1.617-2.526
	c1.028-1.192,2.001-2.449,2.91-3.755l2.841,0.946c0.863,0.283,1.795,0.201,2.261-0.576l1.343-2.266
	c0.461-0.781,0.087-1.64-0.576-2.261l-2.202-2.051c0.69-1.407,1.32-2.86,1.882-4.353l2.997,0.206
	c0.905,0.064,1.791-0.247,2.047-1.119l0.74-2.526c0.251-0.868-0.329-1.608-1.124-2.047l-2.64-1.439
	c0.329-1.562,0.58-3.125,0.749-4.687l2.946-0.544c0.891-0.164,1.672-0.685,1.704-1.59l0.087-2.636
	c0.027-0.904-0.717-1.475-1.594-1.699l-2.91-0.735c-0.073-1.59-0.219-3.17-0.448-4.733l2.718-1.256
	c0.822-0.379,1.448-1.083,1.256-1.964l-0.576-2.572c-0.192-0.886-1.055-1.256-1.964-1.256l-3.006,0.014
	c-0.461-1.517-1-3.006-1.608-4.468l2.325-1.9c0.703-0.571,1.133-1.402,0.722-2.211l-1.192-2.353
	c-0.407-0.804-1.334-0.95-2.211-0.722l-2.914,0.758c-0.827-1.348-1.713-2.663-2.663-3.929l1.777-2.417
	c0.539-0.726,0.749-1.645,0.155-2.325l-1.745-1.978c-0.594-0.681-1.53-0.589-2.325-0.151l-2.622,1.457
	c-1.128-1.105-2.316-2.156-3.563-3.147l1.119-2.777c0.343-0.836,0.32-1.777-0.429-2.289l-2.179-1.485
	c-0.745-0.507-1.626-0.187-2.289,0.434l-2.184,2.065c-1.38-0.79-2.809-1.521-4.289-2.179l0.393-2.978
	c0.119-0.9-0.137-1.8-0.991-2.106l-2.48-0.895c-0.85-0.306-1.626,0.224-2.106,0.991L326.918,289.797z"/>
<path style="fill:#FFD500;" d="M321.929,310.23c-13.403-4.833-28.185,2.115-33.018,15.518c-4.833,13.403,2.115,28.181,15.518,33.014
	c13.403,4.833,28.185-2.11,33.018-15.513C342.276,329.846,335.332,315.064,321.929,310.23z"/>
<path style="fill:#202020;" d="M172.355,249.319c-1.284-0.352-2.572-0.644-3.855-0.863l-0.301-2.476
	c-0.091-0.749-0.484-1.425-1.233-1.494l-2.184-0.21c-0.754-0.069-1.265,0.516-1.498,1.238l-0.758,2.375
	c-1.325-0.023-2.645,0.023-3.956,0.128l-0.904-2.321c-0.274-0.703-0.822-1.256-1.571-1.142l-2.165,0.343
	c-0.745,0.119-1.096,0.818-1.142,1.571l-0.146,2.499c-1.284,0.306-2.549,0.676-3.792,1.105l-1.457-2.033
	c-0.443-0.608-1.11-1.014-1.804-0.713l-2.015,0.873c-0.69,0.297-0.859,1.06-0.713,1.8l0.48,2.462
	c-1.165,0.612-2.302,1.284-3.403,2.01l-1.914-1.603c-0.58-0.484-1.329-0.703-1.923-0.242l-1.736,1.343
	c-0.598,0.457-0.566,1.243-0.242,1.923l1.074,2.257c-0.978,0.882-1.909,1.814-2.8,2.8l-2.248-1.078
	c-0.681-0.324-1.462-0.352-1.923,0.247l-1.348,1.731c-0.461,0.594-0.242,1.343,0.242,1.923l1.603,1.919
	c-0.722,1.092-1.393,2.229-2.01,3.408l-2.453-0.484c-0.74-0.146-1.503,0.018-1.8,0.713l-0.873,2.015
	c-0.301,0.69,0.101,1.361,0.713,1.804l2.033,1.466c-0.429,1.256-0.799,2.522-1.101,3.792l-2.499,0.142
	c-0.754,0.046-1.448,0.393-1.567,1.137l-0.347,2.17c-0.119,0.745,0.439,1.293,1.137,1.567l2.33,0.914
	c-0.105,1.32-0.146,2.64-0.123,3.951l-2.375,0.758c-0.717,0.228-1.306,0.74-1.238,1.494l0.206,2.184
	c0.069,0.749,0.745,1.147,1.494,1.238l2.48,0.301c0.228,1.302,0.516,2.59,0.868,3.86l-2.115,1.325
	c-0.644,0.397-1.087,1.042-0.831,1.754l0.745,2.065c0.251,0.708,1.005,0.923,1.75,0.827l2.49-0.324
	c0.539,1.201,1.137,2.375,1.795,3.522l-1.727,1.809c-0.521,0.548-0.786,1.284-0.361,1.905l1.229,1.818
	c0.425,0.621,1.206,0.644,1.905,0.365l2.321-0.932c0.822,1.028,1.695,2.024,2.618,2.969l-1.215,2.174
	c-0.37,0.662-0.448,1.439,0.119,1.937l1.645,1.457c0.562,0.493,1.325,0.324,1.937-0.119l2.01-1.48c1.051,0.79,2.142,1.535,3.28,2.22
	l-0.635,2.412c-0.196,0.731-0.078,1.503,0.594,1.846l1.955,1c0.672,0.338,1.366-0.018,1.846-0.598l1.59-1.937
	c0.598,0.247,1.206,0.484,1.827,0.708c0.626,0.228,1.256,0.439,1.891,0.63l-0.014,2.499c-0.009,0.754,0.297,1.475,1.032,1.64
	l2.142,0.48c0.735,0.169,1.32-0.352,1.64-1.037l1.055-2.266c1.316,0.192,2.631,0.32,3.938,0.379l0.603,2.412
	c0.183,0.735,0.662,1.352,1.416,1.329l2.188-0.069c0.754-0.023,1.192-0.672,1.334-1.407l0.457-2.462
	c1.316-0.142,2.618-0.347,3.906-0.617l1.188,2.193c0.361,0.662,0.973,1.147,1.699,0.936l2.11-0.608
	c0.722-0.21,0.982-0.946,0.936-1.699l-0.169-2.503c1.233-0.461,2.444-0.987,3.623-1.567l1.704,1.832
	c0.512,0.557,1.229,0.868,1.878,0.489l1.891-1.115c0.649-0.384,0.717-1.16,0.484-1.877l-0.781-2.38
	c1.078-0.754,2.12-1.562,3.125-2.421l2.097,1.348c0.635,0.411,1.407,0.539,1.941,0.005l1.553-1.549
	c0.53-0.53,0.407-1.302,0.005-1.941l-1.348-2.106c0.854-0.991,1.663-2.033,2.426-3.125l2.362,0.786
	c0.717,0.242,1.498,0.169,1.882-0.48l1.119-1.882c0.384-0.649,0.073-1.366-0.48-1.882l-1.832-1.708
	c0.576-1.169,1.096-2.38,1.567-3.627l2.494,0.174c0.754,0.055,1.489-0.21,1.704-0.932l0.617-2.106
	c0.21-0.722-0.274-1.338-0.932-1.699l-2.202-1.201c0.274-1.297,0.484-2.604,0.626-3.906l2.453-0.448
	c0.74-0.137,1.389-0.571,1.416-1.325l0.073-2.197c0.023-0.749-0.598-1.229-1.329-1.412l-2.421-0.617
	c-0.059-1.32-0.183-2.636-0.37-3.938l2.261-1.046c0.685-0.315,1.206-0.9,1.042-1.635l-0.475-2.142
	c-0.164-0.735-0.882-1.042-1.635-1.042l-2.503,0.009c-0.388-1.261-0.836-2.503-1.343-3.718l1.941-1.581
	c0.58-0.48,0.941-1.174,0.598-1.841l-0.991-1.96c-0.338-0.672-1.11-0.79-1.841-0.603l-2.43,0.63
	c-0.681-1.124-1.421-2.216-2.216-3.271l1.48-2.01c0.448-0.608,0.626-1.366,0.128-1.937l-1.448-1.649
	c-0.498-0.562-1.275-0.489-1.937-0.123l-2.184,1.211c-0.941-0.918-1.928-1.795-2.969-2.622l0.936-2.307
	c0.283-0.699,0.26-1.48-0.361-1.905l-1.814-1.238c-0.621-0.42-1.357-0.155-1.905,0.361l-1.818,1.718
	c-1.147-0.658-2.343-1.265-3.572-1.814l0.324-2.476c0.101-0.749-0.114-1.503-0.822-1.759l-2.065-0.745
	c-0.708-0.256-1.352,0.187-1.754,0.827L172.355,249.319z"/>
<path style="fill:#FFD500;" d="M168.002,266.879c-11.155-4.025-23.462,1.759-27.486,12.919
	c-4.025,11.155,1.759,23.466,12.919,27.491c11.16,4.02,23.466-1.763,27.486-12.919C184.945,283.21,179.162,270.899,168.002,266.879z
	"/>
<path style="fill:#606060;" d="M220.613,161.629l-58.152-20.474l5.199-7.181c20.433,7.044,33.274,11.818,53.584,19.14
	L220.613,161.629z"/>
<path style="fill:#B9DDF9;" d="M213.61,222.618l-2.544-59.203l-45.7-16.258l-28.82,47.107c-0.457,0.608-0.918,1.224-1.384,1.846
	L213.61,222.618z"/>
<polygon style="fill:#747474;" points="205.223,160.296 211.372,162.516 191.82,216.73 185.676,214.515 "/>
<path style="fill:#FF6E40;" d="M92.948,212.422l7.953,2.864c2.988,1.078,4.55,4.404,3.472,7.391l0,0
	c-1.078,2.988-4.404,4.55-7.391,3.472l-7.949-2.869c-2.988-1.074-4.55-4.399-3.472-7.387l0,0
	C86.639,212.907,89.96,211.344,92.948,212.422z"/>
<g>
	<path style="fill:#6C4C40;" d="M362.645,168.852c1.814,0.653,2.956,2.083,2.558,3.189c-0.402,1.11-2.193,1.48-4.006,0.827
		c-1.809-0.653-2.956-2.078-2.554-3.189C359.041,168.568,360.836,168.198,362.645,168.852z M351.96,164.092
		c0.183,0.064,0.183,0.539-0.005,1.055c-0.187,0.516-0.489,0.886-0.672,0.818c-0.187-0.069-0.183-0.539,0-1.06
		C351.471,164.389,351.773,164.023,351.96,164.092z M368.771,160.469c-0.37-0.132-0.886,0.356-1.156,1.096
		c-0.265,0.74-0.183,1.448,0.192,1.581c0.365,0.132,0.882-0.356,1.151-1.096C369.223,161.31,369.136,160.606,368.771,160.469z
		 M378.19,159.935c0.959,0.343,1.535,1.197,1.279,1.896c-0.251,0.703-1.233,0.996-2.197,0.649c-0.959-0.347-1.535-1.197-1.279-1.9
		C376.244,159.875,377.227,159.587,378.19,159.935z M349.717,183.1c1.48,0.534,2.43,1.654,2.124,2.503s-1.754,1.11-3.234,0.576
		c-1.475-0.534-2.426-1.654-2.12-2.503C346.789,182.825,348.237,182.565,349.717,183.1z M328.489,172.118
		c0.333,0.119,0.429,0.694,0.219,1.288c-0.215,0.594-0.658,0.973-0.991,0.854c-0.333-0.119-0.429-0.699-0.215-1.288
		C327.713,172.383,328.156,171.999,328.489,172.118z M339.795,169.085c0.224,0.082,0.347,0.292,0.283,0.48
		c-0.069,0.183-0.302,0.27-0.525,0.187c-0.219-0.078-0.347-0.292-0.279-0.48C339.339,169.089,339.572,169.002,339.795,169.085z
		 M373.796,163.945c0.772,0.279,1.179,1.137,0.895,1.909c-0.279,0.777-1.133,1.183-1.909,0.904c-0.777-0.283-1.179-1.137-0.9-1.914
		S373.019,163.667,373.796,163.945z M376.537,165.992c0.183,0.069,0.224,0.42,0.091,0.79c-0.132,0.37-0.393,0.617-0.576,0.548
		c-0.183-0.064-0.224-0.42-0.091-0.79C376.094,166.17,376.35,165.928,376.537,165.992z M383.777,170.875
		c0.37,0.132,0.539,0.598,0.379,1.042c-0.16,0.443-0.589,0.694-0.959,0.562s-0.539-0.598-0.379-1.046
		C382.978,170.994,383.407,170.743,383.777,170.875z M418.559,210.339c0.594,0.215,1.019,0.539,0.95,0.722
		c-0.069,0.187-0.598,0.164-1.192-0.05c-0.589-0.215-1.014-0.539-0.95-0.722C417.435,210.106,417.97,210.129,418.559,210.339z
		 M406.691,200.468c2.366,0.85,3.855,2.732,3.33,4.194c-0.53,1.466-2.878,1.96-5.244,1.105c-2.362-0.85-3.855-2.732-3.326-4.194
		C401.977,200.107,404.325,199.613,406.691,200.468z M392.201,196.603c0.735,0.265,1.316,0.544,1.288,0.617
		c-0.027,0.073-0.649-0.082-1.384-0.352c-0.74-0.265-1.32-0.539-1.293-0.612C390.84,196.178,391.461,196.338,392.201,196.603z
		 M363.568,182.647c0.187,0.069,0.178,0.571-0.027,1.128c-0.196,0.553-0.507,0.946-0.694,0.882
		c-0.183-0.069-0.174-0.571,0.027-1.124C363.075,182.976,363.385,182.583,363.568,182.647z M380.863,181.469
		c0.297,0.11,0.503,0.283,0.466,0.397c-0.041,0.11-0.315,0.114-0.612,0.009c-0.297-0.11-0.503-0.288-0.461-0.397
		C380.296,181.368,380.57,181.364,380.863,181.469z M380.036,185.863c1.626,0.585,2.608,1.992,2.197,3.134
		c-0.416,1.147-2.065,1.599-3.696,1.014c-1.626-0.585-2.608-1.992-2.197-3.134C376.756,185.731,378.41,185.279,380.036,185.863z
		 M370.982,188.951c1.59,0.571,2.768,1.338,2.636,1.708c-0.132,0.37-1.53,0.206-3.12-0.37c-1.59-0.576-2.768-1.338-2.636-1.708
		C367.994,188.211,369.392,188.38,370.982,188.951z M331.513,178.203c0.297,0.105,0.475,0.37,0.393,0.594
		c-0.078,0.219-0.384,0.315-0.681,0.206c-0.297-0.105-0.471-0.37-0.393-0.594C330.915,178.189,331.221,178.093,331.513,178.203z
		 M337.397,176.992c-0.146-0.055-0.388,0.233-0.534,0.64c-0.146,0.407-0.142,0.781,0.005,0.831c0.146,0.055,0.384-0.228,0.534-0.64
		C337.548,177.421,337.548,177.047,337.397,176.992z M353.559,173.292c0.292,0.105,0.306,0.822,0.027,1.599
		c-0.283,0.777-0.745,1.316-1.042,1.211c-0.297-0.105-0.311-0.822-0.032-1.599C352.796,173.726,353.262,173.182,353.559,173.292z"/>
	<polygon style="fill:#6C4C40;" points="40.35,305.301 40.711,356.254 46.513,315.338 50.729,326.662 48.687,302.976 	"/>
	<polygon style="fill:#6C4C40;" points="78.681,310.605 79.047,361.558 82.774,309.723 	"/>
	<polygon style="fill:#6C4C40;" points="119.15,325.091 119.511,376.043 123.243,324.209 	"/>
	<polygon style="fill:#6C4C40;" points="407.061,373.371 407.422,431.583 411.154,372.362 	"/>
</g>
<path style="fill:#FFFF00;" d="M282.278,23.275c14.517,0,26.28,11.763,26.28,26.276s-11.763,26.28-26.28,26.28
	c-14.513,0-26.28-11.767-26.28-26.28S267.765,23.275,282.278,23.275z"/>
<g>
</g>
<g>
</g>
<g>
</g>
<g>
</g>
<g>
</g>
<g>
</g>
<g>
</g>
<g>
</g>
<g>
</g>
<g>
</g>
<g>
</g>
<g>
</g>
<g>
</g>
<g>
</g>
<g>
</g>
</svg>
