<?xml version="1.0" encoding="iso-8859-1"?>
<!-- Generator: Adobe Illustrator 19.0.0, SVG Export Plug-In . SVG Version: 6.00 Build 0)  -->
<svg version="1.1" id="Layer_1" xmlns="http://www.w3.org/2000/svg" xmlns:xlink="http://www.w3.org/1999/xlink" x="0px" y="0px"
	 viewBox="0 0 512 512" style="enable-background:new 0 0 512 512;" xml:space="preserve">
<path style="fill:#B9DDF9;" d="M255.998,0C397.386,0,512,114.614,512,255.998C512,397.386,397.386,512,255.998,512
	C114.614,512,0,397.386,0,255.998C0,114.614,114.614,0,255.998,0z"/>
<path style="fill:#9BCB64;" d="M1.302,281.931c35.284-6.976,252.471-46.01,509.926-5.961C501.036,408.025,390.666,512,255.998,512
	C123.367,512,14.298,411.136,1.302,281.931z"/>
<g>
	<path style="fill:#FFFFFF;" d="M337.996,280.885c0,2.755-6.446,4.988-14.399,4.988c-7.949,0-14.394-2.234-14.394-4.988
		c0-2.759,6.446-4.993,14.394-4.993C331.55,275.892,337.996,278.126,337.996,280.885z M333.761,324.926
		c0,2.083-4.55,3.769-10.164,3.769c-5.61,0-10.164-1.686-10.164-3.769c0-2.088,4.554-3.778,10.164-3.778
		C329.211,321.148,333.761,322.839,333.761,324.926z M334.738,311.098c0,2.284-4.988,4.134-11.142,4.134
		c-6.149,0-11.137-1.85-11.137-4.134s4.988-4.139,11.137-4.139C329.75,306.96,334.738,308.814,334.738,311.098z M336.657,296.974
		c0,2.499-5.847,4.527-13.06,4.527c-7.208,0-13.051-2.028-13.051-4.527c0-2.499,5.843-4.527,13.051-4.527
		C330.81,292.447,336.657,294.475,336.657,296.974z"/>
	<path style="fill:#FDF9E2;" d="M230.206,445.785l-4.18,0.123l0.288,17.729l-12.01,0.347l-0.288-17.729l-13.544,0.388l0.288,17.733
		l-12.014,0.347l-0.283-17.733l-13.983,0.407l0.292,17.729l-12.014,0.347l-0.288-17.729l-13.978,0.402l0.288,17.733l-12.01,0.343
		l-0.292-17.729c-2.75,0.082-10.95-0.142-13.695-0.064l0.288,17.729l-12.01,0.343l-0.288-17.724l-13.544,0.388l0.128,7.752
		c-4.449-3.513-8.775-7.172-12.973-10.968l0.777-0.023l-0.333-20.319l-13.978,0.407l0.114,6.889
		c-4.244-4.431-8.323-9.022-12.243-13.75l-0.123-7.848l5.939-4.248l6.071,3.901l0.183,11.466l13.983-0.402l-0.187-11.471
		l5.934-4.244l6.08,3.901l0.183,11.466l13.544-0.388l-0.187-11.471l5.934-4.244l6.076,3.901l0.187,11.466
		c2.745-0.082,10.95,0.142,13.695,0.064l-0.187-11.471l5.943-4.244l6.071,3.901l0.183,11.466l13.983-0.407l-0.187-11.466
		l5.943-4.244l6.066,3.897l0.187,11.471l13.978-0.407l-0.183-11.466l5.929-4.244l6.08,3.897l0.183,11.471l13.544-0.393
		l-0.187-11.471l5.939-4.244l6.076,3.901l0.187,11.466l4.628-0.132v3.586l-4.573,0.132l0.333,20.319l4.239-0.119V445.785z
		 M461.636,408.491c-3.892,5.24-7.981,10.338-12.256,15.262l-0.183-11.32l-13.978,0.402l0.329,20.324l5.39-0.155
		c-1.188,1.243-2.389,2.471-3.6,3.691l-1.731,0.05l0.027,1.631c-3.833,3.773-7.78,7.437-11.841,10.968l-0.201-12.252
		c-2.75,0.082-10.95-0.146-13.695-0.069l0.288,17.733l-12.01,0.343l-0.288-17.724l-13.544,0.388l0.288,17.733l-12.01,0.343
		l-0.288-17.729l-13.978,0.402l0.288,17.733l-12.014,0.347l-0.288-17.729l-13.978,0.397l0.292,17.733l-12.014,0.347l-0.292-17.729
		l-5.92,0.169v-3.591l5.865-0.169l-0.329-20.314l-5.537,0.16v-3.591l5.477-0.16l-0.192-11.466l5.943-4.248l6.071,3.901l0.187,11.466
		l13.978-0.402l-0.183-11.466l5.939-4.248l6.071,3.897l0.183,11.471l13.983-0.402l-0.187-11.471l5.934-4.244l6.08,3.897
		l0.183,11.471l13.544-0.393l-0.187-11.466l5.934-4.244l6.076,3.901l0.187,11.466c2.745-0.082,10.95,0.142,13.695,0.064
		l-0.187-11.471l5.943-4.244l6.071,3.897l0.183,11.471l13.983-0.407l-0.187-11.466l5.943-4.248l6.066,3.901l0.187,11.471
		L461.636,408.491z M423.538,433.506l-0.333-20.319c-2.745,0.078-10.95-0.142-13.695-0.069l0.329,20.324
		C412.588,433.36,420.788,433.584,423.538,433.506z M397.829,433.789l-0.329-20.324l-13.544,0.388l0.329,20.324L397.829,433.789z
		 M372.275,434.525l-0.333-20.319l-13.978,0.402l0.333,20.324L372.275,434.525z M346.287,435.278l-0.333-20.324l-13.978,0.402
		l0.329,20.324L346.287,435.278z M136.422,444.908l-0.333-20.319c-2.745,0.078-10.95-0.142-13.695-0.064l0.329,20.319
		C125.473,444.762,133.672,444.986,136.422,444.908z M110.713,445.191l-0.329-20.324L96.84,425.26l0.329,20.319L110.713,445.191z
		 M213.957,442.67l-0.333-20.319l-13.544,0.388l0.333,20.324L213.957,442.67z M188.403,443.405l-0.333-20.314l-13.978,0.402
		l0.329,20.319L188.403,443.405z M162.411,444.159l-0.329-20.324l-13.978,0.402l0.329,20.324L162.411,444.159z"/>
</g>
<path style="fill:#FFFFFF;" d="M114.893,118.895c2.375,0,4.614,0.502,6.596,1.398c2.152-1.878,5.089-3.038,8.332-3.038
	c5.619,0,10.329,3.476,11.585,8.15c2.805,0.754,5.061,2.645,6.089,5.08c0.338-0.032,0.676-0.05,1.023-0.05
	c5.194,0,9.401,3.76,9.401,8.401c0,4.637-4.207,8.396-9.401,8.396c-1.613,0-3.134-0.361-4.463-1.005
	c-1.142,3.49-4.751,6.039-9.022,6.039c-2.613,0-4.975-0.95-6.683-2.49c-1.704,1.539-4.066,2.49-6.679,2.49
	c-2.48,0-4.737-0.859-6.418-2.266c-1.718,1.681-4.189,2.736-6.939,2.736c-2.572,0-4.897-0.923-6.596-2.417
	c-0.777,0.151-1.581,0.233-2.412,0.233c-6.181,0-11.196-4.481-11.196-10.009c0-5.523,5.016-10.004,11.196-10.004
	c0.338,0,0.676,0.014,1.005,0.041C101.106,124.011,107.328,118.895,114.893,118.895z"/>
<polygon style="fill:#674B46;" points="337.109,102.047 358.886,102.047 358.886,133.531 337.109,133.531 "/>
<g>
	<polygon style="fill:#FDF9E2;" points="223.016,205.145 227.104,202.176 231.284,205.616 231.919,250.233 223.651,249.767 	"/>
	<polygon style="fill:#F7F4C4;" points="392.406,268.82 392.406,172.666 300.171,90.773 208.325,172.666 208.325,269.227 	"/>
	<path style="fill:#EBEDB1;fill-opacity:0.902;" d="M279.757,141.082c21.785,2.851,42.717,8.675,63.063,17.204
		c17.61,7.382,34.352,16.792,49.92,27.939v-13.558l-95.072-81.893l-72.816,62.981C242.65,146.038,258.862,138.346,279.757,141.082z"
		/>
	<polygon style="fill:#674B46;" points="300.409,85.799 192.528,172.666 209.298,172.666 300.409,100.275 	"/>
	<polygon style="fill:#442D2A;" points="300.409,85.799 408.285,172.666 391.52,172.666 300.409,100.275 	"/>
	<polygon style="fill:#F4ED93;" points="278.281,244.153 224.181,244.153 224.181,187.777 278.281,187.777 	"/>
	<path style="fill:#D1796E;" d="M248.273,186.644c0,0,0.53,9.959-5.317,19.419c-5.843,9.451-11.329,12.485-11.329,12.485
		s5.582,5.861,7.003,11.726c1.412,5.865,3.12,15.011,3.12,15.011h-16.153l-1.416-58.641H248.273z"/>
	<g>
		<path style="fill:#BA645B;" d="M239.192,199.444c0,0-6.619,18.346-9.077,18.154C227.657,217.411,239.192,199.444,239.192,199.444z
			"/>
		<path style="fill:#BA645B;" d="M229.768,199.444c0,0-0.128,18.058-1.357,18.154C227.177,217.694,229.768,199.444,229.768,199.444z
			"/>
		<path style="fill:#BA645B;" d="M230.558,240.165c0,0-4.015-19.086-1.827-20.223C230.923,218.813,230.558,240.165,230.558,240.165z
			"/>
		<path style="fill:#BA645B;" d="M238.575,235.208c0,0-9.392-15.436-8.392-16.162C231.179,218.32,238.575,235.208,238.575,235.208z"
			/>
	</g>
	<path style="fill:#D1796E;" d="M254.403,186.644c0,0-0.534,9.959,5.317,19.419c5.843,9.451,11.329,12.485,11.329,12.485
		s-5.587,5.861-6.998,11.726c-1.421,5.865-3.125,15.011-3.125,15.011h16.153l1.421-58.641H254.403z"/>
	<g>
		<path style="fill:#BA645B;" d="M263.485,199.444c0,0,6.615,18.346,9.077,18.154C275.019,217.411,263.485,199.444,263.485,199.444z
			"/>
		<path style="fill:#BA645B;" d="M272.904,199.444c0,0,0.132,18.058,1.357,18.154C275.499,217.694,272.904,199.444,272.904,199.444z
			"/>
		<path style="fill:#BA645B;" d="M272.119,240.165c0,0,4.011-19.086,1.827-20.223C271.749,218.813,272.119,240.165,272.119,240.165z
			"/>
		<path style="fill:#BA645B;" d="M264.106,235.208c0,0,9.387-15.436,8.387-16.162C271.497,218.32,264.106,235.208,264.106,235.208z"
			/>
	</g>
	<path style="fill:#674B46;" d="M221.91,185.507v60.907h58.646v-60.907H221.91z M276.015,241.882L276.015,241.882h-23.581v-25.92
		h-3.97v25.92h-22.018v-25.92h22.018v-3.979h-22.018v-21.936h49.569V241.882z"/>
	<g>
		<path style="fill:#442D2A;" d="M222.299,185.507c1.791,1.302,3.175,3.001,4.148,4.915v-0.375h22.018v25.915h1.517h2.453h23.928
			l0.096-3.988l-24.024,0.009v-21.936h23.581v51.835h-1.128c2.165,1.069,3.892,2.645,5.162,4.532h0.507v-60.907H222.299z"/>
		<polygon style="fill:#442D2A;" points="347.063,269.227 300.363,269.227 300.363,183.122 347.063,183.122 		"/>
	</g>
	<polygon style="fill:#674B46;" points="343.674,269.227 303.524,269.227 303.524,186.644 343.674,186.644 	"/>
	<g>
		<polygon style="fill:#442D2A;" points="314.588,230.028 307.133,230.028 307.133,189.892 314.588,189.892 		"/>
		<polygon style="fill:#442D2A;" points="322.971,230.028 315.516,230.028 315.516,189.892 322.971,189.892 		"/>
		<polygon style="fill:#442D2A;" points="331.372,230.028 323.917,230.028 323.917,189.892 331.372,189.892 		"/>
		<polygon style="fill:#442D2A;" points="339.759,230.028 332.304,230.028 332.304,189.892 339.759,189.892 		"/>
		<polygon style="fill:#442D2A;" points="314.588,265.225 307.133,265.225 307.133,235.208 314.588,235.208 		"/>
		<polygon style="fill:#442D2A;" points="322.971,265.225 315.516,265.225 315.516,235.208 322.971,235.208 		"/>
		<polygon style="fill:#442D2A;" points="331.372,265.225 323.917,265.225 323.917,235.208 331.372,235.208 		"/>
		<polygon style="fill:#442D2A;" points="339.759,265.225 332.304,265.225 332.304,235.208 339.759,235.208 		"/>
		<polygon style="fill:#442D2A;" points="386.683,236.588 355.382,236.588 355.382,226.497 386.683,226.497 		"/>
	</g>
	<polygon style="fill:#674B46;" points="384.741,235.131 357.332,235.131 357.332,227.954 384.741,227.954 	"/>
	<g>
		<polygon style="fill:#442D2A;" points="360.969,236.167 359.616,236.167 359.616,226.497 360.969,226.497 		"/>
		<polygon style="fill:#442D2A;" points="363.673,236.167 362.325,236.167 362.325,226.497 363.673,226.497 		"/>
		<polygon style="fill:#442D2A;" points="366.382,236.167 365.03,236.167 365.03,226.497 366.382,226.497 		"/>
		<polygon style="fill:#442D2A;" points="369.091,236.167 367.739,236.167 367.739,226.497 369.091,226.497 		"/>
		<polygon style="fill:#442D2A;" points="371.795,236.167 370.443,236.167 370.443,226.497 371.795,226.497 		"/>
		<polygon style="fill:#442D2A;" points="374.504,236.167 373.147,236.167 373.147,226.497 374.504,226.497 		"/>
		<polygon style="fill:#442D2A;" points="377.213,236.167 375.856,236.167 375.856,226.497 377.213,226.497 		"/>
		<polygon style="fill:#442D2A;" points="379.917,236.167 378.56,236.167 378.56,226.497 379.917,226.497 		"/>
		<polygon style="fill:#442D2A;" points="382.622,236.167 381.274,236.167 381.274,226.497 382.622,226.497 		"/>
	</g>
</g>
<path style="fill:#FFED58;" d="M341.248,230.183c1.302,0,2.362,1.055,2.362,2.362s-1.06,2.362-2.362,2.362
	c-1.306,0-2.362-1.055-2.362-2.362S339.942,230.183,341.248,230.183z"/>
<path style="fill:#F9BF2C;" d="M343.327,231.933c0,1.306-1.055,2.366-2.362,2.366c-0.827,0-1.553-0.425-1.973-1.064
	c0.292,0.973,1.192,1.686,2.261,1.686c1.306,0,2.362-1.06,2.362-2.362c0-0.484-0.142-0.927-0.384-1.302
	C343.295,231.476,343.327,231.7,343.327,231.933z"/>
<path style="fill:#FFFFFF;" d="M340.298,231.019c0.26,0,0.475,0.215,0.475,0.48s-0.215,0.48-0.475,0.48
	c-0.265,0-0.48-0.215-0.48-0.48S340.033,231.019,340.298,231.019z"/>
<g>
	<path style="fill:#9BCB64;" d="M457.726,238.945c0.091,0.356-0.228,0.658-0.329,0.74c0.603-0.48,0.886,0.11,0.886,0.11
		c0.877,0.137-0.046,0.831-0.046,0.831c-0.315,0.123-0.521-0.215-0.521-0.215c-0.804,0.397-0.352,0.626-0.352,0.626
		c0.598-0.137,0.238,0.379,0.238,0.379l-0.361,0.05l-0.439,0.238l0.018,0.155l0.333-0.041l0.037,0.256l-0.393,0.178l0.119,0.297
		c0.452,0.64-1.064,0.95-1.064,0.95c-0.238,1.932-2.047,1.238-2.471,1.046c-0.32,0.155-0.667,0.26-1.032,0.311
		c-0.927,0.128-1.804-0.114-2.508-0.612c-0.525,0.11-1.11-0.046-1.11-0.046c-0.612,0.064-0.365-0.836-0.365-0.836
		c-0.484,1-1.183,0.137-1.183,0.137c-0.672-0.717,0.137-1.142,0.137-1.142c-0.388-0.434,0.146-0.79,0.146-0.79
		c-1.019-0.192-1.256-0.717-1.302-1.042c-0.434-0.132-0.781-0.279-0.996-0.375c-0.79,0.375-1.649,0.64-2.563,0.767
		c-2.27,0.311-4.454-0.283-6.185-1.507c-1.32,0.26-2.755-0.11-2.755-0.11c-1.526,0.151-0.918-2.078-0.918-2.078
		c-0.818,1.708-1.891,1.22-2.48,0.754c0.105,0.525-1.147,0.786-1.147,0.786c-0.238,1.932-2.042,1.233-2.467,1.042
		c-0.315,0.151-0.667,0.26-1.037,0.311c-0.914,0.128-1.8-0.119-2.503-0.608c-0.53,0.105-1.11-0.05-1.11-0.05
		c-0.617,0.069-0.37-0.836-0.37-0.836c-0.475,1.005-1.183,0.137-1.183,0.137c-0.667-0.713,0.146-1.133,0.146-1.133
		c-0.388-0.443,0.137-0.804,0.137-0.804c-1.512-0.283-1.297-1.306-1.297-1.306c-0.699-0.9-0.014-1.676-0.014-1.676
		c-0.096-0.078-0.164-0.16-0.21-0.238c-0.854,0.078-1.672-0.16-2.325-0.626c-0.539,0.105-1.119-0.046-1.119-0.046
		c-0.621,0.064-0.375-0.845-0.375-0.845c-0.48,1.014-1.188,0.142-1.188,0.142c-0.676-0.722,0.142-1.147,0.142-1.147
		c-0.388-0.439,0.146-0.804,0.146-0.804c-1.526-0.283-1.311-1.316-1.311-1.316c-0.694-0.909-0.009-1.69-0.009-1.69
		c-0.608-0.489-0.055-0.982-0.055-0.982c-0.192-0.603,0.658-0.58,0.658-0.58c-0.85-1.626,0.662-1.809,0.662-1.809
		c0.274-0.781,0.955-0.306,0.955-0.306c0.343-0.868,1.526-0.215,1.526-0.215c-0.347-0.745,0.763-0.749,0.763-0.749
		c0.219-0.119,0.416-0.132,0.585-0.087c-0.005-0.1,0.009-0.164,0.009-0.164c-0.694-0.9-0.014-1.676-0.014-1.676
		c-0.598-0.493-0.041-0.991-0.041-0.991c-0.087-0.256,0.023-0.402,0.174-0.48c-0.672-1.567,0.416-2.796,0.416-2.796
		c-1.27-1.032-0.105-2.065-0.105-2.065c-0.416-1.256,1.38-1.215,1.38-1.215c-1.791-3.412,1.375-3.792,1.375-3.792
		c0.58-1.64,1.996-0.649,1.996-0.649c0.722-1.814,3.211-0.439,3.211-0.439c-0.735-1.558,1.599-1.576,1.599-1.576
		c1.567-0.873,2.663,0.987,2.663,0.987c0.932-1.215,1.699-1.635,2.316-1.663c-0.521-1.695,1.192-1.905,1.192-1.905
		c0.388-1.096,1.334-0.429,1.334-0.429c0.484-1.215,2.147-0.292,2.147-0.292c-0.489-1.046,1.074-1.055,1.074-1.055
		c1.051-0.585,1.782,0.658,1.782,0.658c1.855-2.426,2.768-0.132,2.768-0.132c3.157-1.549,3.664,1.38,3.664,1.38
		c0.644-0.827,1.508,0.023,2.339,1.201c0.548,0.786,0.192,1.498-0.105,1.887c0.548,0.315,0.877,0.872,0.877,0.872
		c2.458-3.202,3.65-0.174,3.65-0.174c4.166-2.047,4.842,1.823,4.842,1.823c0.841-1.096,1.983,0.023,3.088,1.585
		c1.092,1.567-0.534,2.896-0.534,2.896c1.151,1-0.594,1.676-0.594,1.676c0.932,0.891,0.009,1.782-0.224,1.978
		c1.101-0.895,1.64,0.196,1.64,0.196c1.626,0.265-0.082,1.558-0.082,1.558c-0.594,0.228-0.968-0.393-0.968-0.393
		c-0.809,0.397-0.936,0.699-0.882,0.895c2.033-0.471,2.394,1.585,2.394,1.585c0.576-0.745,1.361,0.018,2.115,1.087
		c0.745,1.069-0.365,1.983-0.365,1.983c0.786,0.685-0.407,1.151-0.407,1.151c0.64,0.612,0.005,1.215-0.155,1.357
		c0.758-0.621,1.119,0.128,1.119,0.128c1.119,0.183-0.05,1.069-0.05,1.069c-0.411,0.151-0.662-0.274-0.662-0.274
		c-0.297,0.146-0.461,0.279-0.539,0.384c0.749,0.301,0.909,1.211,0.909,1.211c0.452-0.589,1.064,0.014,1.667,0.859
		c0.594,0.845-0.292,1.567-0.292,1.567c0.626,0.539-0.315,0.909-0.315,0.909c0.502,0.475,0.005,0.959-0.128,1.064
		c0.603-0.484,0.891,0.1,0.891,0.1c0.877,0.146-0.041,0.845-0.041,0.845c-0.324,0.123-0.525-0.21-0.525-0.21
		c-0.809,0.397-0.361,0.621-0.361,0.621c0.608-0.137,0.247,0.384,0.247,0.384l-0.37,0.05l-0.439,0.247l0.023,0.146l0.338-0.041
		l0.032,0.256l-0.393,0.183l0.119,0.297c0.457,0.644-1.078,0.959-1.078,0.959c-0.238,1.941-2.056,1.247-2.476,1.046
		c-0.324,0.155-0.672,0.265-1.042,0.315c-0.927,0.123-1.809-0.114-2.517-0.612L457.726,238.945z"/>
	<path style="fill:#4E342E;" d="M439.97,269.51c0,0-0.164-0.927,0.096-4.088l-0.905-10.219c0,0-0.155-3.755,0.329-4.842
		c0,0,7.364-7.145,8.858-7.542c0,0,1.069-9.356,2.412-9.543l-1.338-0.79c0,0-1.197,8.839-2.069,10.187
		c0,0-3.394-12.777-2.864-14.125l-0.493,0.388c0,0,1.594,12.754,1.297,13.636l-2.174,2.238c0,0-0.745,2.257-1.192,1.233
		c0,0-4.152-2.535-2.097-15.874l-1.672-1.078l-1.384,8.78c0,0,0.964-0.005,0.534,2.225c0,0,1.695,5.308,1.43,5.833
		c0,0-0.407,2.522-1.507,1.782l-2.33-5.491c0,0-1.955-7.843-0.635-9.049l-0.502-0.635c0,0-0.877,3.892-0.169,6.733
		c0,0-3.563-3.947-4.669-3.938l0.032,0.708c0,0,0.676-1.398,4.353,3.97c0,0,2.531,7.122,2.618,8.515c0,0-0.292,4.258-0.119,5.061
		c0,0,2.216,11.365-1.434,14.782L439.97,269.51z"/>
</g>
<path style="fill:#FFFFFF;" d="M116.026,322.455c0,0-12.535,27.126-17.194,31.287c-4.664,4.162-4.015,19.753-4.015,19.753
	s-6.062,1.96-8.446,0.585c0,0-3.166-33.046-3.723-45.069C82.085,316.987,99.539,296.024,116.026,322.455z"/>
<path style="fill:#1C1C1D;" d="M94.816,373.494c0,0,2.279,4.609,2.439,6.532c0.164,1.919-2.439,0.228-2.439,0.228
	s0,2.59-1.622,2.403c-1.626-0.192-6.172-1.608-6.825-2.631c-0.649-1.028-0.055-6.532-0.055-6.532S91.897,371.978,94.816,373.494z"/>
<path style="fill:#FFFFFF;" d="M80.381,287.851c0,0-8.341-4.797-13.188-1.558c-4.842,3.234-6.231,13.334-5.884,21.292
	c0.347,7.953-0.694,33.27-16.299,38.473c0,0-7.108-0.521-9.538,3.12c-2.426,3.645,3.294,2.777,3.294,2.777s-2.946,6.761-0.169,7.282
	c2.773,0.521,3.814-3.814,3.814-3.814s0.868,6.587,3.988,5.025c3.12-1.558,1.211-7.103,1.731-8.145s17.295-4.71,19.405-31.895
	S73.273,285.133,80.381,287.851z"/>
<path style="fill:#262424;" d="M61.354,310.591c0.014,0.014,2.558,3.052,2.211,6.857c-0.347,3.814,0.895,6.418,0.877,7.976
	c-0.014,1.562-3.522,6.934-4.696,5.637c-0.347-0.388-0.735-0.923-1.11-1.48C60.77,322.752,61.318,315.415,61.354,310.591z"/>
<path style="fill:#FFFFFF;" d="M161.867,339.256c0,0-6.934,22.603-7.396,26.682c-0.461,4.079-1.156,10.196-1.85,10.374
	c-0.694,0.183-5.55,1.667-6.939,0c0,0-0.69-14.846,0-18.314C146.376,354.532,156.901,334.432,161.867,339.256z"/>
<path style="fill:#1C1C1D;" d="M153.219,376.313c0,0,2.234,5.473,2.234,6.354c0,0.877-2.832,0.548-2.832,0.548
	s0.439,2.412-1.658,2.065c-2.101-0.347-4.911-2.138-5.587-2.978c-0.676-0.836,0.306-5.989,0.306-5.989
	S152.027,376.884,153.219,376.313z"/>
<path style="fill:#F5BFB1;" d="M81.715,363.116c0.749-0.087,1.476-0.603,2.037-1.128c-3.234-4.44-3.627-8.762,1.192-15.089
	c8.844-11.617,24.275,4.335,24.275,4.335s1.923,6.697-1.996,12.238l0,0c0,0,0.434,1.37,1.361,1.832
	c0.923,0.461,2.544,1.617,0.576,3.929c-1.964,2.311-3.426,0.475-4.043-1.32c-0.617-1.795-1.284-1.402-1.284-1.402l0.005-0.005
	c-0.923,0.502-1.978,0.891-3.189,1.128c0.05,0.612,0.174,1.265,0.489,1.676c0.726,0.946,0.58,3.07-1.919,3.563
	c-2.499,0.493-3.737-1.526-3.106-2.8c0.388-0.795,0.635-1.503,0.685-2.17c-1.631-0.046-3.147-0.256-4.55-0.594
	c-0.333,0.603-0.644,1.256-0.694,1.645c-0.105,0.886-0.603,3.961-2.864,2.841c-2.261-1.128-2.11-3.344-0.608-4.271
	c0.457-0.279,0.841-0.731,1.174-1.22c-1.311-0.585-2.48-1.306-3.481-2.152c-0.16,0.283-0.333,0.617-0.516,1.014
	c-0.781,1.695-1.074,3.732-3.326,2.206C79.682,365.843,80.129,363.294,81.715,363.116z"/>
<path style="fill:#FFFFFF;" d="M179.555,323.282c-0.731,1.229-12.352,10.447-16.404,15.975c-4.057,5.527-5.212,14.54-14.577,17.318
	c-9.365,2.773-36.298,6.546-42.543,4.116c-6.24-2.426-15.605-8.67-22.539-7.976c-6.939,0.694-13.179-10.013-15.605-17.642
	c-2.43-7.629-6.939-47.047,5.893-50.405c12.832-3.353,19.771-4.97,26.011-6.587s34.914-4.696,49.592,0
	c14.677,4.696,24.969-2.494,24.969-2.494S191.692,302.816,179.555,323.282z"/>
<g>
	<path style="fill:#262424;" d="M183.447,300.573c-2.01,2.988-5.948,7.875-11.201,9.657c-7.775,2.645-15.235,0.735-20.433,0.914
		c-5.203,0.174-11.79-0.119-11.27-9.077c0.516-8.958,0.169-17.802-6.418-14.508c-6.592,3.294-12.169,3.814-11.804-2.078
		c0.329-5.395-9.799-2.375-10.598-9.123c11.457-1.074,27.747-1.448,37.66,1.722c14.677,4.696,24.969-2.494,24.969-2.494
		S181.606,286.983,183.447,300.573z"/>
	<path style="fill:#262424;" d="M144.353,327.27c3.878-2.385,1.042-9.538-2.078-9.972c-4.299-0.594-2.499-5.103-8.15-5.651
		c-5.203-0.503-9.885,3.97-8.67,9.013c1.211,5.048,4.509,6.957,8.67,5.916S139.844,330.042,144.353,327.27z"/>
	<path style="fill:#262424;" d="M106.209,290.51c-3.179-0.164-7.113-3.353-5.203-5.843c1.909-2.485,7.103-3.572,9.187-1.119
		C112.275,286.001,112.796,290.862,106.209,290.51z"/>
	<path style="fill:#262424;" d="M78.325,283.489c0.873,1.16,1.549,3.061-0.037,5.633c-2.773,4.509-2.238,10.187,3.65,10.726
		c5.888,0.544,7.451-2.407,9.703-3.271c2.252-0.868,8.337-1.909,10.324,1.736c1.987,3.641,2.855,4.216,5.975,3.755
		c3.12-0.461,8.684,3.006,3.645,7.688c-5.034,4.682-7.633-0.114-8.328,4.536c-0.694,4.65-7.802,9.378-11.79,7.017
		c-3.988-2.366-9.538,3.01-13.179,2.841c-3.641-0.174-10.054-1.042-11.096,5.29c-0.087,0.534-0.178,1.028-0.265,1.475
		c-2.316-12.663-4.395-43.306,6.852-46.248C75.383,284.252,76.895,283.859,78.325,283.489z"/>
</g>
<g>
	<path style="fill:#FFFFFF;" d="M173.429,325.187c0,0-5.523,5.03-9.698,6.88c-4.175,1.85-13.435-6.88-13.435-6.88
		s-4.559,1.384-3.549,7.135c1.005,5.751,1.252,13.851,0.324,15.235c-0.923,1.389-12.946,6.797-15.491,6.752
		s-22.818-4.052-27.084-7.446c-4.267-3.394-13.275-8.433-17.487-9.881c-4.212-1.448-19.785-2.512-20.557-8.949
		c-0.055-0.461-0.1-0.781-0.142-0.978c0.502,3.604,1.083,6.468,1.576,8.017c2.426,7.629,8.666,18.336,15.605,17.642
		c6.934-0.694,16.299,5.55,22.539,7.976c6.245,2.43,33.178-1.343,42.543-4.116c9.365-2.777,10.52-11.79,14.577-17.318
		c2.873-3.924,9.561-9.703,13.462-13.17C175.914,325.52,174.882,325.196,173.429,325.187z"/>
	<path style="fill:#FFFFFF;" d="M201.317,278.08c0,0,6.158,0.347,8.095-4.742c0,0,2.458,11.905-9.479,12.891
		C199.933,286.23,198.686,280.972,201.317,278.08z"/>
</g>
<path style="fill:#1C1C1D;" d="M202.793,284.667c0,0,12.544,11.27,6.619,14.335c-5.929,3.065-10.319-2.773-10.781-8.552
	C198.165,284.667,199.463,281.31,202.793,284.667z"/>
<path style="fill:#FFFFFF;" d="M206.488,302.241c0,0-6.934-11.329-7.167-14.796c0,0,4.856-8.323,0-13.179
	c-4.856-4.856-20.575-9.94-30.054,0c-9.479,9.94-4.162,15.952-3.006,18.958c1.156,3.006,5.779,12.485,5.779,15.491
	s3.006,7.862,3.7,8.095C176.435,317.037,221.056,315.881,206.488,302.241z"/>
<g>
	<path style="fill:#1C1C1D;" d="M179.381,292.154c0,1.389,0.699,2.512,1.558,2.512c0.863,0,1.562-1.124,1.562-2.512
		s-0.699-2.512-1.562-2.512C180.08,289.642,179.381,290.766,179.381,292.154z"/>
	<path style="fill:#1C1C1D;" d="M192.039,292.154c0,1.389,0.699,2.512,1.562,2.512c0.859,0,1.558-1.124,1.558-2.512
		s-0.699-2.512-1.558-2.512C192.738,289.642,192.039,290.766,192.039,292.154z"/>
</g>
<path style="fill:#F5BFB1;" d="M223.829,315.42c0.722-6.012-4.97-15.966-28.67-12.718c-23.695,3.253-28.898,10.173-25.431,19.885
	c3.467,9.707,14.056,18.263,26.564,16.413C208.8,337.15,222.44,326.977,223.829,315.42z"/>
<path style="fill:#D49387;" d="M223.495,317.302c-0.146,0.187-9.433,12.014-16.541,15.111c-7.167,3.12-25.033,3.778-31.045-5.701
	c-6.012-9.479,1.69-19.711,1.69-19.711l-0.018,0.005c-8.584,3.741-10.196,9.027-7.853,15.582
	c3.467,9.707,14.056,18.263,26.564,16.413c11.352-1.676,23.631-10.205,26.847-20.41c0.119-0.407,0.233-0.818,0.343-1.233
	L223.495,317.302z"/>
<g>
	<path style="fill:#74473E;" d="M189.751,315.945c0,0,1.69-6.441-2.928-6.149c-4.618,0.297-6.108,5.747-1.576,7.501
		c0,0-3.207,0.087-4.088-3.449c-0.877-3.536,2.165-5.409,4.116-5.875C187.22,307.508,194.346,308.924,189.751,315.945z"/>
	<path style="fill:#74473E;" d="M211.226,317.233c0,0,5.715-3.426,2.206-6.441c-3.508-3.015-8.383-0.164-6.373,4.258
		c0,0-2.357-2.179-0.512-5.322c1.846-3.143,5.331-2.353,7.049-1.325C215.319,309.431,219.421,315.424,211.226,317.233z"/>
</g>
<path style="fill:#262424;" d="M192.039,270.086c0,0,4.984,3.12,4.285,5.5c-0.699,2.38-6.711,3.303-7.638,6.08
	c-0.923,2.773-3.115,3.897-4.819,3.001c-1.704-0.891-5.358-4.851-8.076-6.587c-2.723-1.736-6.852-3.865-4.998-5.23
	C172.643,271.484,181.058,265.216,192.039,270.086z"/>
<path style="fill:#1C1C1D;" d="M165.796,281.666c0,0-15.719,9.479-14.792,15.952c0.923,6.473,2.311,7.629,4.851,8.323
	C158.4,306.635,171.953,289.139,165.796,281.666z"/>
<g>
	<path style="fill:#FFFFFF;" d="M168.756,277.271c0,0-10.123-1.389-11.279-5.779c0,0-2.316,12.946,8.556,13.174
		C166.033,284.667,170.094,283.283,168.756,277.271z"/>
	<path style="fill:#FFFFFF;" d="M101.522,329.385c0,0-13.915,15.568-18.889,19.73c-2.928,7.039-2.608,29.044-2.608,29.044
		s-6.473,1.96-9.017,0.58c0,0-3.312-32.562-3.91-44.585C65.096,314.264,81.413,341.988,101.522,329.385z"/>
</g>
<path style="fill:#1C1C1D;" d="M80.024,378.159c0,0,2.426,4.609,2.599,6.528c0.174,1.923-2.599,0.233-2.599,0.233
	s0,2.586-1.736,2.398c-1.736-0.187-6.587-1.603-7.282-2.631c-0.694-1.023-0.059-6.528-0.059-6.528S76.904,376.642,80.024,378.159z"
	/>
<path style="fill:#FFFFFF;" d="M145.376,339.964c0,0,0.772,2.311-2.7,6.934c-3.467,4.628-5.779,28.341-5.779,31.283
	c0,0-6.473,2.604-9.94,0c0,0,0.461-15.098-0.923-20.182c-1.389-5.089-3.933-9.017-3.7-13.64
	C122.563,339.731,141.909,317.412,145.376,339.964z"/>
<path style="fill:#1C1C1D;" d="M136.898,378.181c0,0,2.777,5.189,3.125,7.967h-3.125c0,0,0.347,2.252-1.731,2.079
	c-2.083-0.174-7.633-1.037-8.323-2.079c0,0,0.119-7.862,0.142-9.049C126.985,377.094,133.43,379.401,136.898,378.181z"/>
<path style="fill:#5D4024;" d="M393.348,343.573c0,0,3.079,10.644,4.312,14.033s1.078,5.546,1.078,5.546s-6.779-1.078-6.012,5.24
	c0.005,0,9.077-0.1,10.329-0.772c1.247-0.667,2.535-0.576,2.924-2.138c0.393-1.562-0.142-12.247,0.703-15.299
	C407.522,347.127,395.664,338.329,393.348,343.573z"/>
<g>
	<path style="fill:#483325;" d="M394.014,368.369c-0.055-0.827-0.05-2.371,0.731-2.604c0,0-0.598,1.53-0.283,2.595L394.014,368.369z
		"/>
	<path style="fill:#483325;" d="M396.595,368.291c-0.041-0.818,0.064-2.22,1.201-2.526c0,0-0.164,1.334-0.082,2.48
		C397.34,368.264,396.961,368.278,396.595,368.291z"/>
</g>
<path style="fill:#5D4024;" d="M428.481,350.8c0,0,1.539,3.312,2.773,4.367c1.233,1.051,1.85,6.601,1.85,6.601
	s-5.783,0.411-4.623,3.714c0.251,0.722,6.473,0.635,9.246,0c2.773-0.635,4.002-3.586,4.002-3.586s0.772-9.84,0-13.846
	C440.961,344.044,427.248,333.825,428.481,350.8z"/>
<g>
	<path style="fill:#483325;" d="M429.6,365.87c0.046-0.489,0.283-2.311,1.393-2.412c0,0-0.516,1.211-0.544,2.49
		C430.139,365.925,429.851,365.902,429.6,365.87z"/>
	<path style="fill:#483325;" d="M432.533,365.984c0.078-0.827,0.356-2.526,1.37-2.526c0,0-0.452,0.726-0.164,2.485
		C433.337,365.966,432.93,365.975,432.533,365.984z"/>
</g>
<path style="fill:#413225;" d="M381.562,336.205c0,0-2.161,5.674-1.078,7.77c1.078,2.092,9.867,3.408,13.563,1.594
	c3.696-1.818,1.083-19.844,0-24.928c-1.083-5.089-5.244-5.715-7.4-5.865C384.49,314.63,382.023,330.499,381.562,336.205z"/>
<path style="fill:#C08237;" d="M393.119,306.768c-6.505-0.023-10.155,5.39-10.79,8.008c0.005,0-17.72,4.586-21.726,5.148
	c-4.006,0.557-5.546,2.494-6.628,8.232c-1.078,5.738-2.467,9.177-1.233,9.694c1.233,0.512,7.245-1.645,7.245-1.645
	s4.006,6.948,6.779,7.017c2.777,0.069,10.635-5.372,10.635-5.372s9.707,3.399,12.791,4.111c0,0,4.929,9.913,10.479,12.252
	c5.546,2.334,16.797,5.569,26.815,3.718c10.018-1.85,19.415-6.007,23.731-8.013c4.317-2.001,6.473-6.418,6.162-12.069
	c-0.306-5.655,0.311-10.895-4.468-10.895s-31.283,3.239-45.923-1.846C406.988,325.109,405.471,306.814,393.119,306.768z"/>
<path style="fill:#754D23;" d="M380.178,336.365c0,0,6.491,1.494,9.552,1.485c0,0,2.485-0.16,4.317-1.485
	c0,0,7.656,11.251,11.932,13.819c4.28,2.563,16.628,3.024,20.237,1.398c3.609-1.631,12.229-6.87,17.473-8.387
	c5.24-1.512,12.576-9.575,13.156-12.59c0,0,0.046,0.137,0.119,0.388c0.324,1.923,0.283,4.349,0.416,6.857
	c0.311,5.651-1.846,10.068-6.162,12.069c-4.317,2.005-13.714,6.162-23.731,8.013c-10.018,1.85-21.269-1.384-26.815-3.718
	c-5.55-2.339-10.479-12.252-10.479-12.252c-3.083-0.713-12.791-4.111-12.791-4.111s-0.142,0.096-0.384,0.26
	C379.424,336.205,380.178,336.365,380.178,336.365z"/>
<path style="fill:#9C6725;" d="M449.81,327.11c0,0,5.628-1.078,7.601-4.623s2.225-8.478,0.324-10.329c0,0,6.117,2.316,5.039,9.561
	c-1.078,7.24-7.24,9.552-7.24,9.552S447.169,331.728,449.81,327.11z"/>
<path style="fill:#754D23;" d="M457.735,312.158c0,0,9.474,8.762-0.891,18.446l0,0c1.873-1.119,5.167-3.778,5.929-8.885
	C463.852,314.474,457.735,312.158,457.735,312.158z"/>
<path style="fill:#413325;" d="M377.4,337.849c0,0,3.179-2.787,4.285-2.988c1.105-0.201,6.966,0.512,8.351,0
	c1.389-0.507,3.33-3.467,3.33-3.467s-1.48,4.5-3.02,4.961c-1.544,0.466-6.889,0.023-8.785-0.151
	C379.666,336.027,377.4,337.849,377.4,337.849z"/>
<path style="fill:#372C24;" d="M363.221,321.103c4.44,0.923,9.863,2.928,9.863,4.468s-6.779,6.647-10.941,5.715
	c-4.162-0.936-6.628-9.104-6.162-10.182C356.442,320.025,361.357,320.71,363.221,321.103z"/>
<g>
	<path style="fill:#1E1E1E;" d="M364.431,331.28c0,0-0.516-4.207,1.22-4.554c1.731-0.347,2.54,0,2.54,0
		S364.833,327.055,364.431,331.28z"/>
	<path style="fill:#1E1E1E;" d="M359.475,329.572c0,0,2.248-4.28-1.105-4.81C358.369,324.762,359.772,326.292,359.475,329.572z"/>
</g>
<path style="fill:#A4793E;" d="M364.358,322.345c0,0-6.359-1.247-7.834-0.626C355.053,322.345,366.679,325.022,364.358,322.345z"/>
<path style="fill:#C08237;" d="M405.755,346.862c-0.425,1.233,2.928,10.607,3.7,12.763c0.772,2.161,0,7.551,0,7.551
	s-4.618-1.384-4.618,5.084c0,0,8.314,1.389,12.325,0c0,0,1.695-1.846,2.307-3.696c0.617-1.85,1.233-8.323,2.622-11.096
	c1.384-2.773,1.695-5.253,0-10.484C420.395,341.751,408.989,337.493,405.755,346.862z"/>
<g>
	<path style="fill:#503825;" d="M406.609,372.512c0,0-0.544-3.083,1.553-3.623c0,0-0.74,1.919-0.608,3.728
		c-0.338-0.037-0.653-0.073-0.941-0.105H406.609z"/>
	<path style="fill:#503825;" d="M409.674,372.796c-0.009-0.571,0.023-3.837,2.124-3.906c0,0-1.073,1.667-0.667,3.974
		C410.638,372.85,410.149,372.827,409.674,372.796z"/>
</g>
<path style="fill:#C08237;" d="M437.503,337.849c0,0-0.621,11.402,6.624,16.363c0-0.005,2.156,5.724,2.311,9.113
	c0,0-5.724,2.115-4.472,5.084c0.196,0.48,8.328,1.078,10.329,0c2.005-1.078,3.39-4.006,3.39-4.006s3.147-18.93,1.649-27.601
	C455.835,328.133,437.503,330.554,437.503,337.849z"/>
<g>
	<path style="fill:#503825;" d="M443.67,368.798c-0.078-0.484-0.356-2.745,1.416-3.033c0,0-0.795,1.663-0.786,3.097
		C444.077,368.844,443.866,368.821,443.67,368.798z"/>
	<path style="fill:#503825;" d="M446.589,368.999c0-0.882,0.16-3.166,1.759-3.234c0,0-0.886,1.261-0.767,3.248
		C447.247,369.013,446.918,369.009,446.589,368.999z"/>
</g>
<path style="fill:#5E4124;" d="M400.67,312.163c-2.636,0.11-3.083,1.078-3.39,4.468c-0.311,3.394-2.161,21.653-3.083,23.923
	c-0.923,2.275,2.467,7.263,7.862,6.309c5.39-0.95,9.246-4.111,9.707-6.309C412.228,338.361,408.066,311.852,400.67,312.163z"/>
<path style="fill:#754D23;" d="M389.972,313.552c-4.079-0.05-5.596,5.29-1.905,8.168
	C391.968,324.762,398.683,313.661,389.972,313.552z"/>
<path style="fill:#1E1E1E;" d="M389.73,318.403c0,0.809-0.37,1.466-0.831,1.466c-0.457,0-0.831-0.658-0.831-1.466
	s0.375-1.462,0.831-1.462C389.36,316.941,389.73,317.594,389.73,318.403z"/>
<path style="fill:#442D2A;" d="M336.05,102.047h23.9c1.992,0,3.623-1.626,3.623-3.618v-0.005c0-1.996-1.631-3.623-3.623-3.623h-23.9
	c-1.996,0-3.623,1.626-3.623,3.623v0.005C332.427,100.421,334.053,102.047,336.05,102.047z"/>
<g>
	<path style="fill:#FFFFFF;" d="M344.939,77.704c-10.767,1.517-13.499-15.089-1.759-14.513c-4.628-4.81-2.449-12.622,5.386-11.809
		c3.673,0.379,5.824,3.262,6.496,6.765c1.023,5.322-1.188,7.053-3.974,11.123c5.377,1.055,8.835,7.802,3.115,11.032
		C351.659,81.742,345.757,81.984,344.939,77.704z"/>
	<path style="fill:#9BCB64;" d="M138.528,234.765c-0.091,0.356,0.228,0.658,0.329,0.745c-0.598-0.484-0.886,0.105-0.886,0.105
		c-0.877,0.137,0.05,0.831,0.05,0.831c0.311,0.128,0.516-0.21,0.516-0.21c0.804,0.393,0.356,0.621,0.356,0.621
		c-0.598-0.137-0.242,0.379-0.242,0.379l0.365,0.055l0.434,0.233l-0.018,0.155l-0.333-0.041l-0.032,0.256l0.388,0.183l-0.119,0.292
		c-0.448,0.644,1.069,0.955,1.069,0.955c0.238,1.928,2.042,1.233,2.467,1.042c0.32,0.155,0.667,0.265,1.032,0.311
		c0.927,0.128,1.804-0.114,2.508-0.612c0.53,0.11,1.11-0.046,1.11-0.046c0.612,0.069,0.37-0.836,0.37-0.836
		c0.48,1,1.179,0.137,1.179,0.137c0.672-0.713-0.137-1.137-0.137-1.137c0.388-0.439-0.142-0.795-0.142-0.795
		c1.014-0.192,1.252-0.717,1.297-1.042c0.434-0.132,0.786-0.279,1-0.375c0.786,0.379,1.649,0.64,2.558,0.767
		c2.27,0.311,4.458-0.283,6.185-1.507c1.32,0.26,2.755-0.11,2.755-0.11c1.526,0.151,0.918-2.074,0.918-2.074
		c0.822,1.708,1.896,1.22,2.485,0.754c-0.11,0.521,1.147,0.786,1.147,0.786c0.233,1.928,2.042,1.229,2.462,1.042
		c0.32,0.151,0.672,0.256,1.037,0.306c0.918,0.128,1.8-0.119,2.503-0.603c0.53,0.105,1.11-0.055,1.11-0.055
		c0.617,0.073,0.37-0.836,0.37-0.836c0.48,1.005,1.188,0.137,1.188,0.137c0.662-0.713-0.146-1.133-0.146-1.133
		c0.384-0.443-0.142-0.799-0.142-0.799c1.512-0.288,1.297-1.311,1.297-1.311c0.699-0.9,0.014-1.676,0.014-1.676
		c0.096-0.078,0.164-0.16,0.21-0.233c0.854,0.073,1.672-0.16,2.325-0.63c0.539,0.105,1.124-0.046,1.124-0.046
		c0.617,0.064,0.37-0.841,0.37-0.841c0.484,1.01,1.188,0.137,1.188,0.137c0.681-0.717-0.137-1.142-0.137-1.142
		c0.384-0.443-0.151-0.809-0.151-0.809c1.526-0.283,1.311-1.316,1.311-1.316c0.699-0.909,0.009-1.69,0.009-1.69
		c0.608-0.484,0.055-0.978,0.055-0.978c0.192-0.603-0.658-0.58-0.658-0.58c0.85-1.626-0.662-1.809-0.662-1.809
		c-0.274-0.786-0.955-0.306-0.955-0.306c-0.343-0.873-1.526-0.219-1.526-0.219c0.352-0.745-0.763-0.749-0.763-0.749
		c-0.219-0.114-0.411-0.132-0.585-0.087c0.005-0.101-0.009-0.16-0.009-0.16c0.694-0.904,0.014-1.681,0.014-1.681
		c0.598-0.493,0.046-0.987,0.046-0.987c0.087-0.26-0.023-0.402-0.178-0.484c0.672-1.567-0.411-2.796-0.411-2.796
		c1.265-1.032,0.1-2.065,0.1-2.065c0.416-1.256-1.38-1.215-1.38-1.215c1.791-3.412-1.375-3.787-1.375-3.787
		c-0.576-1.64-1.996-0.649-1.996-0.649c-0.722-1.814-3.211-0.443-3.211-0.443c0.74-1.558-1.599-1.576-1.599-1.576
		c-1.567-0.873-2.659,0.991-2.659,0.991c-0.932-1.215-1.704-1.64-2.316-1.663c0.521-1.699-1.197-1.905-1.197-1.905
		c-0.384-1.096-1.329-0.434-1.329-0.434c-0.489-1.211-2.152-0.292-2.152-0.292c0.493-1.046-1.074-1.051-1.074-1.051
		c-1.051-0.589-1.782,0.658-1.782,0.658c-1.855-2.426-2.764-0.132-2.764-0.132c-3.157-1.549-3.668,1.375-3.668,1.375
		c-0.644-0.827-1.507,0.023-2.339,1.206c-0.548,0.786-0.192,1.498,0.11,1.887c-0.548,0.315-0.882,0.868-0.882,0.868
		c-2.458-3.202-3.65-0.174-3.65-0.174c-4.162-2.047-4.838,1.823-4.838,1.823c-0.845-1.092-1.987,0.023-3.088,1.585
		c-1.096,1.567,0.53,2.901,0.53,2.901c-1.151,0.996,0.594,1.672,0.594,1.672c-0.932,0.891-0.009,1.782,0.228,1.983
		c-1.105-0.9-1.64,0.196-1.64,0.196c-1.626,0.26,0.078,1.553,0.078,1.553c0.594,0.228,0.973-0.393,0.973-0.393
		c0.804,0.397,0.932,0.703,0.882,0.895c-2.037-0.471-2.398,1.585-2.398,1.585c-0.576-0.745-1.361,0.018-2.115,1.087
		c-0.745,1.069,0.37,1.983,0.37,1.983c-0.79,0.685,0.402,1.151,0.402,1.151c-0.64,0.612-0.005,1.215,0.16,1.357
		c-0.758-0.621-1.124,0.128-1.124,0.128c-1.115,0.183,0.05,1.069,0.05,1.069c0.411,0.151,0.667-0.27,0.667-0.27
		c0.292,0.146,0.457,0.274,0.539,0.379c-0.754,0.301-0.914,1.215-0.914,1.215c-0.452-0.589-1.064,0.009-1.667,0.859
		c-0.589,0.841,0.292,1.562,0.292,1.562c-0.621,0.539,0.315,0.909,0.315,0.909c-0.502,0.475-0.005,0.959,0.128,1.064
		c-0.603-0.484-0.891,0.105-0.891,0.105c-0.877,0.142,0.041,0.841,0.041,0.841c0.329,0.123,0.53-0.206,0.53-0.206
		c0.804,0.393,0.356,0.617,0.356,0.617c-0.608-0.132-0.247,0.388-0.247,0.388l0.37,0.046l0.439,0.251l-0.023,0.146l-0.338-0.041
		l-0.027,0.251l0.388,0.183l-0.119,0.301c-0.457,0.64,1.078,0.959,1.078,0.959c0.238,1.937,2.056,1.243,2.476,1.046
		c0.324,0.151,0.672,0.265,1.042,0.315c0.927,0.123,1.814-0.119,2.522-0.612L138.528,234.765z"/>
	<path style="fill:#4E342E;" d="M158.701,263.969c-0.53-3.056-2.622-9.068-2.965-12.946c0,0-0.155-3.75,0.329-4.838
		c0,0,7.364-7.149,8.858-7.542c0,0,1.069-9.36,2.407-9.543l-1.334-0.79c0,0-1.197,8.839-2.069,10.187c0,0-3.394-12.782-2.869-14.125
		l-0.489,0.384c0,0,1.594,12.754,1.293,13.636l-2.17,2.238c0,0-0.745,2.257-1.192,1.233c0,0-4.152-2.531-2.097-15.874l-1.677-1.078
		l-1.38,8.78c0,0,0.964-0.005,0.534,2.225c0,0,1.695,5.308,1.43,5.833c0,0-0.407,2.526-1.512,1.782l-2.325-5.491
		c0,0-1.955-7.839-0.635-9.049l-0.503-0.63c0,0-0.877,3.887-0.169,6.729c0,0-3.563-3.947-4.669-3.938l0.032,0.713
		c0,0,0.676-1.402,4.353,3.97c0,0,2.531,7.122,2.618,8.515c0,0-0.297,4.253-0.119,5.057c0,0,2.216,11.365-1.434,14.787
		L158.701,263.969z"/>
</g>
<path style="fill:#FFFFFF;" d="M403.735,121.16c1.489,0,2.896,0.32,4.148,0.882c1.348-1.183,3.198-1.909,5.235-1.909
	c3.531,0,6.491,2.184,7.282,5.121c1.763,0.475,3.179,1.663,3.824,3.193c0.215-0.018,0.429-0.032,0.644-0.032
	c3.266,0,5.911,2.362,5.911,5.281c0,2.914-2.645,5.281-5.911,5.281c-1.014,0-1.969-0.233-2.805-0.635
	c-0.717,2.193-2.983,3.796-5.669,3.796c-1.645,0-3.129-0.598-4.198-1.567c-1.074,0.968-2.558,1.567-4.198,1.567
	c-1.562,0-2.983-0.544-4.038-1.425c-1.078,1.055-2.631,1.718-4.358,1.718c-1.617,0-3.079-0.58-4.148-1.517
	c-0.484,0.096-0.996,0.146-1.517,0.146c-3.883,0-7.035-2.814-7.035-6.29c0-3.472,3.152-6.286,7.035-6.286
	c0.215,0,0.425,0.009,0.635,0.023C395.07,124.376,398.98,121.16,403.735,121.16z"/>
<g>
</g>
<g>
</g>
<g>
</g>
<g>
</g>
<g>
</g>
<g>
</g>
<g>
</g>
<g>
</g>
<g>
</g>
<g>
</g>
<g>
</g>
<g>
</g>
<g>
</g>
<g>
</g>
<g>
</g>
</svg>
