<?xml version="1.0" encoding="iso-8859-1"?>
<!-- Generator: Adobe Illustrator 19.0.0, SVG Export Plug-In . SVG Version: 6.00 Build 0)  -->
<svg version="1.1" id="Layer_1" xmlns="http://www.w3.org/2000/svg" xmlns:xlink="http://www.w3.org/1999/xlink" x="0px" y="0px"
	 viewBox="0 0 512 512" style="enable-background:new 0 0 512 512;" xml:space="preserve">
<path style="fill:#8FC9F7;" d="M256,0c141.385,0,256,114.615,256,256S397.385,512,256,512S0,397.385,0,256S114.615,0,256,0z"/>
<path style="fill:#FFE900;" d="M298.748,168.691c14.204,0,25.727,11.523,25.727,25.736c0,14.214-11.523,25.727-25.727,25.727
	c-14.214,0-25.736-11.513-25.736-25.727C273.011,180.214,284.534,168.691,298.748,168.691z"/>
<g>
	<polygon style="fill:#FDF9E2;" points="84.628,346.253 88.108,343.67 91.579,346.253 91.579,382.206 84.628,382.206 	"/>
	<polygon style="fill:#FDF9E2;" points="69.849,346.253 73.32,343.67 76.8,346.253 76.8,382.206 69.849,382.206 	"/>
	<polygon style="fill:#FDF9E2;" points="54.807,346.253 58.287,343.67 61.758,346.253 61.758,382.206 54.807,382.206 	"/>
	<polygon style="fill:#FDF9E2;" points="39.775,346.253 43.245,343.67 46.725,346.253 46.725,382.206 39.775,382.206 	"/>
	<path style="fill:#FDF9E2;" d="M24.489,346.253l3.471-2.583l3.471,2.583v32.726c-2.447-4.455-4.757-8.998-6.941-13.619V346.253z"/>
	<polygon style="fill:#FDF9E2;" points="104.847,355.807 26.887,355.807 26.887,353.526 104.847,353.526 	"/>
	<polygon style="fill:#FDF9E2;" points="100.519,370.966 27.218,370.966 26.887,370.293 26.887,368.695 100.519,368.695 	"/>
	<polygon style="fill:#FDF9E2;" points="117.618,349.919 114.147,347.345 110.667,349.919 110.667,385.882 117.618,385.882 	"/>
	<polygon style="fill:#FDF9E2;" points="132.406,349.919 128.926,347.345 125.446,349.919 125.446,385.882 132.406,385.882 	"/>
	<polygon style="fill:#FDF9E2;" points="147.439,349.919 143.959,347.345 140.488,349.919 140.488,385.882 147.439,385.882 	"/>
	<polygon style="fill:#FDF9E2;" points="162.481,349.919 159.001,347.345 155.52,349.919 155.52,385.882 162.481,385.882 	"/>
	<path style="fill:#FDF9E2;" d="M177.767,349.919l-3.48-2.574l-3.471,2.574v35.963h1.082c1.979-1.141,3.938-2.31,5.869-3.519
		V349.919z"/>
	<polygon style="fill:#FDF9E2;" points="97.409,359.472 175.359,359.472 175.359,357.191 97.409,357.191 	"/>
	<polygon style="fill:#FDF9E2;" points="101.737,374.632 175.359,374.632 175.359,372.36 101.737,372.36 	"/>
</g>
<path style="fill:#ADD37F;" d="M33.184,382.109c97.496-0.244,383.201-1.618,450.788-9.534C441.566,455.35,355.397,512,256,512
	C160.463,512,77.17,459.669,33.184,382.109z"/>
<g>
	<g>
		<path style="fill:#DFDD9E;" d="M227.7,294.614c0,3.11-2.535,5.635-5.644,5.635c-3.1,0-5.625-2.525-5.625-5.635
			c0-3.11,2.525-5.635,5.625-5.635C225.165,288.98,227.7,291.505,227.7,294.614z"/>
		<path style="fill:#DFDD9E;" d="M242.176,297.832c0,1.784-1.443,3.217-3.217,3.217s-3.217-1.433-3.217-3.217
			c0-1.774,1.443-3.217,3.217-3.217S242.176,296.057,242.176,297.832z"/>
	</g>
	<polygon style="fill:#DA8F4E;" points="216.43,399.052 191.688,227.826 147.088,227.826 124.081,397.502 	"/>
	<g>
		<path style="fill:#E1E2A8;" d="M158.484,294.303c0,2.866-2.32,5.196-5.196,5.196c-2.866,0-5.186-2.33-5.186-5.196
			c0-2.876,2.32-5.196,5.186-5.196C156.164,289.106,158.484,291.427,158.484,294.303z"/>
		<path style="fill:#E1E2A8;" d="M159.664,284.993c0,1.482-1.189,2.671-2.671,2.671c-1.472,0-2.671-1.189-2.671-2.671
			c0-1.482,1.199-2.671,2.671-2.671C158.474,282.321,159.664,283.511,159.664,284.993z"/>
		<path style="fill:#E1E2A8;" d="M165.601,293.581c0,1.472-1.199,2.671-2.681,2.671c-1.472,0-2.671-1.199-2.671-2.671
			s1.199-2.671,2.671-2.671C164.402,290.91,165.601,292.109,165.601,293.581z"/>
	</g>
	<polygon style="fill:#5B423F;" points="137.359,270.438 142.496,227.826 151.241,215.221 170.26,210.386 170.26,270.438 	"/>
	<polygon style="fill:#4F312F;" points="203.152,270.438 198.025,227.826 189.27,215.221 170.26,210.386 170.26,270.438 	"/>
	<polygon style="fill:#996633;" points="174.599,227.963 246.749,158.338 260.601,172.688 188.442,242.323 	"/>
	<g>
		<polygon style="fill:#FFFFCC;" points="244.809,163.085 246.573,161.389 257.531,172.756 255.776,174.452 		"/>
		<polygon style="fill:#FFFFCC;" points="241.845,165.952 243.609,164.246 254.567,175.613 252.802,177.319 		"/>
		<polygon style="fill:#FFFFCC;" points="238.872,168.808 240.646,167.112 251.603,178.469 249.839,180.175 		"/>
		<polygon style="fill:#FFFFCC;" points="235.908,171.684 237.673,169.968 248.65,181.345 246.875,183.041 		"/>
		<polygon style="fill:#FFFFCC;" points="232.944,174.53 234.709,172.834 245.676,184.201 243.912,185.897 		"/>
		<polygon style="fill:#FFFFCC;" points="229.981,177.396 231.745,175.69 242.703,187.067 240.948,188.763 		"/>
		<polygon style="fill:#FFFFCC;" points="227.017,180.263 228.782,178.557 239.739,189.914 237.975,191.62 		"/>
		<polygon style="fill:#FFFFCC;" points="224.044,183.119 225.818,181.423 236.785,192.79 235.011,194.486 		"/>
		<polygon style="fill:#FFFFCC;" points="221.09,185.985 222.855,184.279 233.822,195.646 232.057,197.342 		"/>
		<polygon style="fill:#FFFFCC;" points="218.117,188.841 219.891,187.145 230.848,198.502 229.084,200.208 		"/>
		<polygon style="fill:#FFFFCC;" points="215.153,191.708 216.918,190.002 227.885,201.368 226.12,203.065 		"/>
		<polygon style="fill:#FFFFCC;" points="212.189,194.574 213.954,192.868 224.921,204.225 223.157,205.941 		"/>
		<polygon style="fill:#FFFFCC;" points="209.216,197.43 210.981,195.724 221.948,207.091 220.183,208.797 		"/>
		<polygon style="fill:#FFFFCC;" points="206.262,200.296 208.017,198.59 218.984,209.947 217.22,211.653 		"/>
		<polygon style="fill:#FFFFCC;" points="203.289,203.162 205.053,201.456 216.021,212.823 214.256,214.519 		"/>
		<polygon style="fill:#FFFFCC;" points="200.325,206.019 202.09,204.313 213.057,215.68 211.293,217.376 		"/>
		<polygon style="fill:#FFFFCC;" points="197.362,208.875 199.126,207.179 210.094,218.546 208.329,220.242 		"/>
		<polygon style="fill:#FFFFCC;" points="194.398,211.741 196.163,210.035 207.12,221.402 205.356,223.108 		"/>
		<polygon style="fill:#FFFFCC;" points="191.425,214.607 193.189,212.901 204.157,224.268 202.392,225.964 		"/>
		<polygon style="fill:#FFFFCC;" points="188.461,217.464 190.226,215.767 201.193,227.124 199.428,228.83 		"/>
		<polygon style="fill:#FFFFCC;" points="185.498,220.32 187.262,218.624 198.229,229.991 196.465,231.687 		"/>
		<polygon style="fill:#FFFFCC;" points="182.534,223.186 184.299,221.49 195.266,232.847 193.501,234.553 		"/>
		<polygon style="fill:#FFFFCC;" points="179.57,226.052 181.335,224.346 192.292,235.713 190.528,237.409 		"/>
	</g>
	<polygon style="fill:#996633;" points="164.548,227.963 92.388,158.338 78.545,172.688 150.695,242.323 	"/>
	<g>
		<polygon style="fill:#FFFFCC;" points="94.328,163.085 92.564,161.389 81.606,172.756 83.371,174.452 		"/>
		<polygon style="fill:#FFFFCC;" points="97.301,165.952 95.537,164.246 84.57,175.613 86.334,177.319 		"/>
		<polygon style="fill:#FFFFCC;" points="100.265,168.808 98.501,167.112 87.533,178.469 89.298,180.175 		"/>
		<polygon style="fill:#FFFFCC;" points="103.229,171.684 101.464,169.968 90.497,181.345 92.261,183.041 		"/>
		<polygon style="fill:#FFFFCC;" points="106.192,174.53 104.428,172.834 93.46,184.201 95.225,185.897 		"/>
		<polygon style="fill:#FFFFCC;" points="109.156,177.396 107.391,175.69 96.434,187.067 98.189,188.763 		"/>
		<polygon style="fill:#FFFFCC;" points="112.119,180.263 110.365,178.557 99.397,189.914 101.162,191.62 		"/>
		<polygon style="fill:#FFFFCC;" points="115.093,183.119 113.328,181.423 102.351,192.79 104.126,194.486 		"/>
		<polygon style="fill:#FFFFCC;" points="118.056,185.985 116.292,184.279 105.325,195.646 107.089,197.342 		"/>
		<polygon style="fill:#FFFFCC;" points="121.02,188.841 119.255,187.145 108.288,198.502 110.053,200.208 		"/>
		<polygon style="fill:#FFFFCC;" points="123.984,191.708 122.229,190.002 111.262,201.368 113.026,203.065 		"/>
		<polygon style="fill:#FFFFCC;" points="126.957,194.574 125.183,192.868 114.215,204.225 115.99,205.941 		"/>
		<polygon style="fill:#FFFFCC;" points="129.92,197.43 128.156,195.724 117.189,207.091 118.953,208.797 		"/>
		<polygon style="fill:#FFFFCC;" points="132.884,200.296 131.12,198.59 120.152,209.947 121.917,211.653 		"/>
		<polygon style="fill:#FFFFCC;" points="135.848,203.162 134.093,201.456 123.116,212.823 124.88,214.519 		"/>
		<polygon style="fill:#FFFFCC;" points="138.821,206.019 137.057,204.313 126.089,215.68 127.844,217.376 		"/>
		<polygon style="fill:#FFFFCC;" points="141.785,208.875 140.02,207.179 129.043,218.546 130.817,220.242 		"/>
		<polygon style="fill:#FFFFCC;" points="144.748,211.741 142.984,210.035 132.016,221.402 133.781,223.108 		"/>
		<polygon style="fill:#FFFFCC;" points="147.712,214.607 145.947,212.901 134.98,224.268 136.745,225.964 		"/>
		<polygon style="fill:#FFFFCC;" points="150.675,217.464 148.911,215.767 137.953,227.124 139.708,228.83 		"/>
		<polygon style="fill:#FFFFCC;" points="153.639,220.32 151.884,218.624 140.917,229.991 142.682,231.687 		"/>
		<polygon style="fill:#FFFFCC;" points="156.612,223.186 154.848,221.49 143.881,232.847 145.635,234.553 		"/>
		<polygon style="fill:#FFFFCC;" points="159.576,226.052 157.811,224.346 146.844,235.713 148.609,237.409 		"/>
	</g>
	<polygon style="fill:#996633;" points="175.388,259.753 247.548,329.378 261.391,315.038 189.231,245.403 	"/>
	<g>
		<polygon style="fill:#FFFFCC;" points="245.598,324.631 247.363,326.337 258.33,314.97 256.565,313.264 		"/>
		<polygon style="fill:#FFFFCC;" points="242.635,321.774 244.399,323.471 255.366,312.104 253.602,310.407 		"/>
		<polygon style="fill:#FFFFCC;" points="239.671,318.898 241.436,320.614 252.403,309.247 250.638,307.541 		"/>
		<polygon style="fill:#FFFFCC;" points="236.707,316.042 238.472,317.748 249.439,306.381 247.675,304.685 		"/>
		<polygon style="fill:#FFFFCC;" points="233.744,313.186 235.508,314.882 246.466,303.515 244.711,301.819 		"/>
		<polygon style="fill:#FFFFCC;" points="230.78,310.329 232.535,312.026 243.502,300.659 241.747,298.953 		"/>
		<polygon style="fill:#FFFFCC;" points="227.817,307.463 229.571,309.159 240.539,297.802 238.774,296.096 		"/>
		<polygon style="fill:#FFFFCC;" points="224.843,304.597 226.608,306.303 237.575,294.936 235.811,293.23 		"/>
		<polygon style="fill:#FFFFCC;" points="221.88,301.731 223.644,303.437 234.611,292.07 232.847,290.374 		"/>
		<polygon style="fill:#FFFFCC;" points="218.906,298.875 220.681,300.571 231.638,289.214 229.883,287.508 		"/>
		<polygon style="fill:#FFFFCC;" points="215.943,296.018 217.707,297.715 228.674,286.357 226.91,284.651 		"/>
		<polygon style="fill:#FFFFCC;" points="212.979,293.142 214.744,294.848 225.711,283.491 223.946,281.785 		"/>
		<polygon style="fill:#FFFFCC;" points="210.016,290.286 211.77,291.992 222.747,280.625 220.983,278.929 		"/>
		<polygon style="fill:#FFFFCC;" points="207.052,287.43 208.816,289.126 219.774,277.769 218.019,276.063 		"/>
		<polygon style="fill:#FFFFCC;" points="204.088,284.564 205.843,286.26 216.82,274.903 215.056,273.197 		"/>
		<polygon style="fill:#FFFFCC;" points="201.115,281.707 202.88,283.404 213.847,272.037 212.082,270.34 		"/>
		<polygon style="fill:#FFFFCC;" points="198.151,278.841 199.916,280.547 210.883,269.18 209.128,267.474 		"/>
		<polygon style="fill:#FFFFCC;" points="195.188,275.975 196.952,277.681 207.92,266.314 206.155,264.608 		"/>
		<polygon style="fill:#FFFFCC;" points="192.224,273.119 193.989,274.815 204.956,263.458 203.191,261.752 		"/>
		<polygon style="fill:#FFFFCC;" points="189.261,270.253 191.025,271.959 201.983,260.592 200.228,258.886 		"/>
		<polygon style="fill:#FFFFCC;" points="186.287,267.396 188.052,269.092 199.019,257.726 197.255,256.029 		"/>
		<polygon style="fill:#FFFFCC;" points="183.324,264.53 185.088,266.236 196.055,254.869 194.291,253.173 		"/>
		<polygon style="fill:#FFFFCC;" points="180.36,261.674 182.125,263.37 193.092,252.003 191.327,250.307 		"/>
	</g>
	<polygon style="fill:#996633;" points="165.337,259.753 93.188,329.378 79.335,315.038 151.494,245.403 	"/>
	<g>
		<polygon style="fill:#FFFFCC;" points="95.127,324.631 93.363,326.337 82.396,314.97 84.16,313.264 		"/>
		<polygon style="fill:#FFFFCC;" points="98.091,321.774 96.327,323.471 85.359,312.104 87.124,310.407 		"/>
		<polygon style="fill:#FFFFCC;" points="101.055,318.898 99.29,320.614 88.323,309.247 90.097,307.541 		"/>
		<polygon style="fill:#FFFFCC;" points="104.028,316.042 102.264,317.748 91.287,306.381 93.051,304.685 		"/>
		<polygon style="fill:#FFFFCC;" points="106.992,313.186 105.217,314.882 94.26,303.515 96.024,301.819 		"/>
		<polygon style="fill:#FFFFCC;" points="109.955,310.329 108.191,312.026 97.223,300.659 98.988,298.953 		"/>
		<polygon style="fill:#FFFFCC;" points="112.919,307.463 111.154,309.159 100.187,297.802 101.952,296.096 		"/>
		<polygon style="fill:#FFFFCC;" points="115.882,304.597 114.118,306.303 103.151,294.936 104.915,293.23 		"/>
		<polygon style="fill:#FFFFCC;" points="118.846,301.731 117.081,303.437 106.114,292.07 107.879,290.374 		"/>
		<polygon style="fill:#FFFFCC;" points="121.81,298.875 120.055,300.571 109.088,289.214 110.842,287.508 		"/>
		<polygon style="fill:#FFFFCC;" points="124.783,296.018 123.018,297.715 112.051,286.357 113.816,284.651 		"/>
		<polygon style="fill:#FFFFCC;" points="127.747,293.142 125.982,294.848 115.015,283.491 116.779,281.785 		"/>
		<polygon style="fill:#FFFFCC;" points="130.71,290.286 128.955,291.992 117.988,280.625 119.743,278.929 		"/>
		<polygon style="fill:#FFFFCC;" points="133.674,287.43 131.919,289.126 120.952,277.769 122.706,276.063 		"/>
		<polygon style="fill:#FFFFCC;" points="136.637,284.564 134.883,286.26 123.915,274.903 125.68,273.197 		"/>
		<polygon style="fill:#FFFFCC;" points="139.611,281.707 137.846,283.404 126.879,272.037 128.643,270.34 		"/>
		<polygon style="fill:#FFFFCC;" points="142.574,278.841 140.81,280.547 129.842,269.18 131.607,267.474 		"/>
		<polygon style="fill:#FFFFCC;" points="145.538,275.975 143.773,277.681 132.806,266.314 134.571,264.608 		"/>
		<polygon style="fill:#FFFFCC;" points="148.501,273.119 146.747,274.815 135.779,263.458 137.534,261.752 		"/>
		<polygon style="fill:#FFFFCC;" points="151.465,270.253 149.71,271.959 138.743,260.592 140.498,258.886 		"/>
		<polygon style="fill:#FFFFCC;" points="154.438,267.396 152.674,269.092 141.707,257.726 143.471,256.029 		"/>
		<polygon style="fill:#FFFFCC;" points="157.402,264.53 155.637,266.236 144.67,254.869 146.435,253.173 		"/>
		<polygon style="fill:#FFFFCC;" points="160.366,261.674 158.601,263.37 147.634,252.003 149.398,250.307 		"/>
	</g>
	<g>
		<path style="fill:#C5FF00;" d="M164.986,434.011c-0.341-1.774-1.121-4.299-2.496-6.19c-0.946-1.297-2.164-2.281-3.704-2.486
			c1.823-0.829,5.206,1.16,6.415,5.518c1.053-4.787,4.679-7,6.58-6.132c-1.54,0.205-2.769,1.189-3.704,2.486
			C166.478,429.4,166.049,433.835,164.986,434.011z"/>
		<path style="fill:#C5FF00;" d="M180.458,437.14c0.624-1.696,1.258-4.26,1.033-6.502c-0.156-1.54-0.712-2.925-1.969-3.753
			c2.037,0.029,3.987,3.207,2.778,7.555c3.432-3.782,7.799-4.231,9.027-2.671c-1.472-0.458-3.071-0.098-4.582,0.653
			C184.182,433.699,181.481,437.442,180.458,437.14z"/>
		<path style="fill:#C5FF00;" d="M187.818,448.146c0.653-1.589,1.696-3.519,3.081-4.943c1.121-1.17,2.486-1.989,4.046-2.008
			c-1.677-1.043-5.342,0.517-7.204,4.679c-0.312-4.865-3.558-7.507-5.576-6.873c1.501,0.39,2.564,1.511,3.295,2.915
			c0.868,1.648,1.004,4.309,1.355,5.869C187.145,447.912,187.477,448.029,187.818,448.146z"/>
		<path style="fill:#C5FF00;" d="M196.094,450.437c1.15-1.355,2.778-2.934,4.582-3.948c1.462-0.829,3.032-1.267,4.533-0.877
			c-1.267-1.433-5.274-0.897-8.423,2.613c1.297-4.738-0.955-8.111-3.09-8.033c1.306,0.76,1.95,2.115,2.193,3.646
			c0.331,1.989-0.595,4.913-0.643,6.415C195.529,450.32,195.812,450.379,196.094,450.437z"/>
	</g>
	<path style="fill:#8B6E62;" d="M206.058,439.967c-0.029,0.02-6.61,4.007-10.148,10.431c-0.224-0.049-0.439-0.098-0.653-0.146
		c3.607-6.639,10.402-10.753,10.421-10.772L206.058,439.967z M165.113,434.537c0.244,0.234,0.497,0.458,0.751,0.692
		c-1.18-8.364,3.061-15.188,3.081-15.208l-0.585-0.283C168.34,419.758,164.265,426.329,165.113,434.537z M173.984,441.439
		c0.224,0.146,0.458,0.283,0.682,0.429c-0.273-4.65,1.92-8.774,1.94-8.793l-0.604-0.244
		C175.993,432.841,173.867,436.818,173.984,441.439z M179.834,444.773c0.244,0.117,0.478,0.244,0.721,0.361
		c-0.058-0.409-0.127-0.848-0.185-1.306c-1.15-8.355,8.696-20.501,8.715-20.54l-0.536-0.351c-0.029,0.039-10.022,12.381-8.842,20.96
		C179.746,444.198,179.785,444.49,179.834,444.773z M187.145,447.912c0.214,0.068,0.419,0.146,0.624,0.214
		c1.238-5.118,4.874-7.516,4.884-7.526l-0.4-0.468C192.244,440.143,188.461,442.629,187.145,447.912z"/>
</g>
<path style="fill:#FFFFFF;" d="M174.842,431.827c0,0-1.267-4.221-3.256-3.587C169.588,428.873,169.851,430.482,174.842,431.827z
	 M177.036,431.827c0,0-1.287-5.391,1.589-4.611C181.491,427.996,177.036,431.827,177.036,431.827z M178.245,433.124
	c1.209,0.673,6.532,0.409,5.45-1.521C182.622,429.673,178.245,433.124,178.245,433.124z M177.221,434.459
	c0,0-0.263,4.796,2.32,3.899C182.115,437.471,177.221,434.459,177.221,434.459z M175.213,434.206c0,0-6.112,2.301-3.49,4.007
	C174.335,439.928,175.213,434.206,175.213,434.206z M174.423,433.309c0,0-5.45-2.408-6.2,0
	C167.482,435.726,174.423,433.309,174.423,433.309z"/>
<path style="fill:#FFE900;" d="M176.295,431.037c1.189,0,2.145,0.858,2.145,1.911c0,1.063-0.955,1.921-2.145,1.921
	c-1.18,0-2.135-0.858-2.135-1.921C174.16,431.895,175.115,431.037,176.295,431.037z"/>
<path style="fill:#FF3C00;" d="M176.295,432.188c0.468,0,0.858,0.341,0.858,0.76c0,0.419-0.39,0.76-0.858,0.76
	c-0.468,0-0.848-0.341-0.848-0.76C175.447,432.529,175.827,432.188,176.295,432.188z"/>
<path style="fill:#FFFFFF;" d="M190.138,439.246c0,0-1.258-4.221-3.256-3.587C184.893,436.292,185.147,437.91,190.138,439.246z
	 M192.341,439.246c0,0-1.287-5.391,1.589-4.611C196.796,435.414,192.341,439.246,192.341,439.246z M193.55,440.542
	c1.209,0.673,6.532,0.409,5.449-1.521C197.917,437.091,193.55,440.542,193.55,440.542z M192.526,441.878c0,0-0.263,4.796,2.31,3.909
	C197.42,444.89,192.526,441.878,192.526,441.878z M190.518,441.624c0,0-6.112,2.301-3.5,4.007
	C189.641,447.347,190.518,441.624,190.518,441.624z M189.729,440.728c0,0-5.449-2.408-6.2,0
	C182.778,443.145,189.729,440.728,189.729,440.728z"/>
<path style="fill:#FFE900;" d="M191.6,438.456c1.189,0,2.145,0.858,2.145,1.911c0,1.063-0.955,1.92-2.145,1.92
	c-1.18,0-2.145-0.858-2.145-1.92C189.456,439.314,190.421,438.456,191.6,438.456z"/>
<path style="fill:#FF3C00;" d="M191.6,439.606c0.478,0,0.858,0.341,0.858,0.76c0,0.419-0.38,0.76-0.858,0.76
	c-0.468,0-0.858-0.341-0.858-0.76C190.742,439.948,191.132,439.606,191.6,439.606z"/>
<path style="fill:#FFFFFF;" d="M187.36,421.747c0,0-1.258-4.426-3.256-4.133C182.105,417.916,182.368,419.573,187.36,421.747z
	 M189.563,422.117c0,0-1.287-5.605,1.579-4.348C194.018,419.027,189.563,422.117,189.563,422.117z M190.772,423.619
	c1.199,0.868,6.522,1.492,5.45-0.614C195.139,420.889,190.772,423.619,190.772,423.619z M189.748,424.769
	c0,0-0.263,4.757,2.31,4.299C194.642,428.61,189.748,424.769,189.748,424.769z M187.73,424.184c0,0-6.112,1.287-3.49,3.432
	C186.862,429.76,187.73,424.184,187.73,424.184z M186.94,423.16c0,0-5.44-3.324-6.19-1.033
	C179.999,424.418,186.94,423.16,186.94,423.16z"/>
<path style="fill:#FFE900;" d="M188.822,421.201c1.18,0.195,2.145,1.209,2.145,2.271c0,1.063-0.965,1.755-2.145,1.56
	c-1.189-0.205-2.145-1.219-2.145-2.271C186.677,421.698,187.633,421.006,188.822,421.201z"/>
<path style="fill:#FF3C00;" d="M188.822,422.351c0.468,0.078,0.858,0.487,0.858,0.907s-0.39,0.702-0.858,0.614
	c-0.478-0.078-0.858-0.478-0.858-0.897S188.344,422.283,188.822,422.351z"/>
<path style="fill:#FFFFFF;" d="M167.404,418.715c0,0-1.072-3.773-2.778-3.529C162.929,415.449,163.154,416.863,167.404,418.715z
	 M169.286,419.027c0,0-1.102-4.777,1.345-3.704S169.286,419.027,169.286,419.027z M170.309,420.304
	c1.033,0.741,5.566,1.277,4.64-0.517C174.033,417.984,170.309,420.304,170.309,420.304z M169.442,421.298
	c0,0-0.224,4.046,1.969,3.656C173.604,424.564,169.442,421.298,169.442,421.298z M167.726,420.791c0,0-5.216,1.092-2.973,2.925
	C166.975,425.539,167.726,420.791,167.726,420.791z M167.043,419.924c0,0-4.64-2.837-5.274-0.887
	C161.136,420.986,167.043,419.924,167.043,419.924z"/>
<path style="fill:#FFE900;" d="M168.652,418.247c1.004,0.166,1.823,1.033,1.823,1.94c0,0.897-0.819,1.492-1.823,1.326
	c-1.014-0.166-1.833-1.033-1.833-1.94C166.819,418.676,167.638,418.081,168.652,418.247z"/>
<path style="fill:#FF3C00;" d="M168.652,419.232c0.4,0.068,0.721,0.409,0.721,0.77c0,0.361-0.322,0.595-0.721,0.526
	c-0.409-0.068-0.731-0.409-0.731-0.77C167.921,419.397,168.243,419.163,168.652,419.232z"/>
<path style="fill:#FFFFFF;" d="M207.725,439.275c0,0,3.188-3.305,4.679-1.96C213.896,438.661,212.872,440.016,207.725,439.275z
	 M205.746,438.427c0,0,3.782-4.358,0.819-4.767S205.746,438.427,205.746,438.427z M204.03,439.129
	c-1.423,0.127-6.083-2.174-4.172-3.49C201.778,434.323,204.03,439.129,204.03,439.129z M204.303,440.728
	c0,0-2.096,4.416-3.987,2.613C198.424,441.537,204.303,440.728,204.303,440.728z M206.233,441.273c0,0,4.387,4.445,1.199,4.972
	C204.235,446.772,206.233,441.273,206.233,441.273z M207.383,440.776c0,0,6.073-0.058,5.576,2.408S207.383,440.776,207.383,440.776z
	"/>
<path style="fill:#FFE900;" d="M206.798,438.008c-1.072-0.468-2.349-0.068-2.866,0.887c-0.507,0.955-0.068,2.096,1.004,2.554
	c1.063,0.458,2.349,0.059,2.856-0.887C208.31,439.606,207.861,438.466,206.798,438.008z"/>
<path style="fill:#FF3C00;" d="M206.233,439.041c-0.419-0.185-0.936-0.02-1.131,0.351c-0.205,0.38-0.029,0.838,0.39,1.024
	c0.429,0.175,0.936,0.02,1.141-0.361C206.837,439.684,206.662,439.226,206.233,439.041z"/>
<path style="fill:#FFFFFF;" d="M365.965,167.521c5.956,0,11.562,1.258,16.534,3.5c5.381-4.709,12.742-7.604,20.872-7.604
	c14.067,0,25.863,8.696,29.022,20.414c7.029,1.881,12.673,6.629,15.247,12.712c0.838-0.078,1.696-0.127,2.564-0.127
	c13.005,0,23.553,9.427,23.553,21.047c0,11.62-10.548,21.038-23.553,21.038c-4.046,0-7.857-0.916-11.182-2.515
	c-2.866,8.735-11.893,15.12-22.607,15.12c-6.541,0-12.459-2.379-16.729-6.229c-4.27,3.851-10.187,6.229-16.729,6.229
	c-6.22,0-11.874-2.154-16.085-5.664c-4.309,4.202-10.49,6.844-17.372,6.844c-6.444,0-12.283-2.31-16.524-6.054
	c-1.95,0.38-3.968,0.585-6.044,0.585c-15.491,0-28.047-11.221-28.047-25.064s12.556-25.064,28.047-25.064
	c0.848,0,1.687,0.039,2.515,0.097C331.435,180.331,347.023,167.521,365.965,167.521z"/>
<path style="fill:#DFDFDF;" d="M473.717,218.604c-0.663,11.094-10.938,19.897-23.514,19.897c-4.046,0-7.857-0.916-11.182-2.515
	c-2.866,8.735-11.893,15.12-22.607,15.12c-6.541,0-12.459-2.379-16.729-6.229c-4.27,3.851-10.187,6.229-16.729,6.229
	c-6.22,0-11.874-2.154-16.085-5.664c-4.309,4.202-10.49,6.844-17.372,6.844c-6.444,0-12.283-2.31-16.524-6.054
	c-1.95,0.38-3.968,0.585-6.044,0.585c-15.491,0-28.047-11.221-28.047-25.064c0-1.501,0.146-2.964,0.429-4.387
	c-0.039,0.536-0.058,1.082-0.058,1.638c0,13.843,12.556,25.064,28.047,25.064c2.067,0,4.094-0.205,6.034-0.585
	c4.25,3.753,10.09,6.054,16.534,6.054c6.873,0,13.063-2.632,17.372-6.844c4.211,3.519,9.866,5.674,16.085,5.674
	c6.541,0,12.459-2.388,16.729-6.239c4.27,3.851,10.187,6.239,16.729,6.239c10.704,0,19.741-6.385,22.607-15.13
	c3.324,1.609,7.126,2.525,11.182,2.525C462.087,235.762,471.68,228.372,473.717,218.604z M386.574,208.631
	c-29.538-2.73-31.605,24.469-8.686,29.431c20.648,4.484,28.593-15.325,11.308-21.35c-15.325-5.333-23.738,8.969-11.864,13.941
	c8.296,3.48,14.506-2.886,9.534-6.337c-2.632-1.823-4.67,0.205-6.025-1.823c4.913-5.411,17.138,4.328,8.15,9.817
	c-10.899,6.668-28.505-7.584-15.647-16.124c12.459-8.277,35.388,5.42,25.434,18.055c-10.324,13.102-41.071,3.529-38.683-13.365
	c2.778-19.634,42.767-18.873,51.6,2.983c0.926,2.31,2.125,7.994-0.136,9.7c-0.702-0.146-0.838-4.65-1.043-5.713
	C408.645,218.243,399.734,210.708,386.574,208.631z M353.165,176.041c19.419-7.097,32.19,13.57,18.308,21.291
	c-12.508,6.941-26.292-7.029-16.768-14.604c8.452-6.707,20.258,2.925,14.067,8.774c-4.328,4.085-11.299,0.214-9.271-3.285
	c1.063-1.852,3.324-0.634,3.422-2.427c-5.674-3.354-10.129,6.239-1.57,8.969c10.353,3.305,16.68-10.685,4.163-15.11
	c-12.118-4.299-22.373,10.168-10.187,18.25c12.654,8.384,30.065-4.211,21.369-16.865c-10.109-14.711-37.64-7.37-34.676,11.026
	c0.312,1.94,1.852,6.532,4.133,7.467c0.429-0.224-1.355-3.734-1.657-4.592C341.808,187.194,344.879,179.873,353.165,176.041z
	 M307.765,207.968c-16.261,18.444,7.185,39.307,22.363,27.033c13.668-11.055-0.4-30.699-13.882-23.065
	c-11.952,6.775-3.051,22.792,6.961,18.152c7-3.246,4.192-12.079-1.228-11.113c-2.876,0.517-1.999,3.373-4.455,2.856
	c-2.554-7.263,11.893-8.745,12.625,1.394c0.887,12.283-20.131,14.262-21.788-0.721c-1.609-14.516,21.408-20.56,28.096-4.66
	c6.931,16.485-16.027,30.884-30.075,17.167c-16.329-15.959,3.042-43.021,26.789-33.506c2.515,1.014,8.16,4.25,8.647,7.029
	c-0.458,0.38-4.572-2.749-5.625-3.363C326.697,199.594,315.779,200.374,307.765,207.968z M418.072,171.577
	c-20.034-7.331-33.204,13.999-18.883,21.944c12.897,7.165,27.101-7.243,17.284-15.052c-8.706-6.922-20.882,3.012-14.506,9.047
	c4.475,4.221,11.659,0.224,9.573-3.393c-1.102-1.911-3.441-0.653-3.539-2.505c5.849-3.451,10.441,6.444,1.628,9.251
	c-10.685,3.422-17.206-11.006-4.299-15.578c12.498-4.436,23.075,10.48,10.499,18.825c-13.044,8.637-31.001-4.348-22.032-17.392
	c10.431-15.169,38.809-7.604,35.768,11.357c-0.331,2.008-1.911,6.746-4.27,7.711c-0.439-0.244,1.394-3.851,1.706-4.738
	C429.78,183.07,426.621,175.525,418.072,171.577z M462.467,205.872c13.746,14.389-6.083,30.65-18.912,21.077
	c-11.552-8.628,0.341-23.923,11.737-17.977c10.109,5.274,2.583,17.772-5.878,14.145c-5.927-2.525-3.549-9.417,1.033-8.657
	c2.427,0.4,1.687,2.622,3.763,2.223c2.164-5.664-10.061-6.814-10.675,1.082c-0.751,9.583,17.021,11.123,18.425-0.556
	c1.355-11.328-18.103-16.037-23.758-3.636c-5.859,12.858,13.56,24.079,25.425,13.385c13.814-12.439-2.564-33.545-22.646-26.117
	c-2.125,0.78-6.902,3.305-7.302,5.469c0.38,0.302,3.851-2.135,4.748-2.622C446.45,199.35,455.682,199.955,462.467,205.872z"/>
<polygon style="fill:#E5E5E5;" points="275.234,339.117 275.234,412.525 176.743,412.525 176.743,339.156 225.691,302.101 "/>
<polygon style="fill:#FF6E40;" points="265.895,343.719 265.895,412.291 186.716,412.291 186.716,343.719 226.052,313.946 "/>
<path style="fill:#8B6E62;" d="M264.433,412.291h-1.784v-70.99l1.784,1.336V412.291z M252.929,412.291h-1.794v-79.598l1.794,1.336
	V412.291z M241.416,412.291h-1.784v-88.196l1.784,1.336V412.291z M229.903,412.291h-1.784v-96.795l1.784,1.336V412.291z
	 M218.399,412.291h-1.794v-91.199l1.794-1.355V412.291z M206.886,412.291h-1.784v-82.493l1.784-1.345V412.291z M195.373,412.291
	h-1.784v-73.778l1.784-1.345V412.291z"/>
<polygon style="fill:#FFFFFF;" points="176.734,369.767 275.234,369.767 275.234,376.737 176.734,376.737 "/>
<polygon style="fill:#747474;" points="212.687,390.034 239.291,390.034 239.291,412.525 212.687,412.525 "/>
<polygon style="fill:#FFFFFF;" points="212.687,390.034 199.389,390.034 199.389,412.525 212.687,412.525 "/>
<polygon style="fill:#BD360C;" points="210.542,392.169 201.524,392.169 201.524,410.38 210.542,410.38 "/>
<g>
	<polygon style="fill:#FFFFFF;" points="202.48,410.351 206.028,403.273 209.548,410.282 210.62,412.417 212.755,412.388 
		207.101,401.138 211.575,392.228 212.648,390.103 210.513,390.083 206.028,398.993 201.524,390.015 199.389,390.034 
		200.452,392.16 204.956,401.138 199.273,412.456 201.407,412.486 	"/>
	<polygon style="fill:#FFFFFF;" points="239.252,389.966 252.549,389.966 252.549,412.456 239.252,412.456 	"/>
</g>
<polygon style="fill:#BD360C;" points="241.387,392.111 250.414,392.111 250.414,410.321 241.387,410.321 "/>
<g>
	<polygon style="fill:#FFFFFF;" points="249.459,410.282 245.91,403.205 242.381,410.224 241.309,412.349 239.174,412.33 
		244.828,401.07 240.353,392.16 239.291,390.034 241.426,390.015 245.91,398.935 250.414,389.947 252.549,389.966 251.477,392.101 
		246.973,401.07 252.666,412.388 250.521,412.417 	"/>
	<path style="fill:#FFFFFF;" d="M212.199,344.333c7.282-8.53,14.672-7.945,22.168,0v18.522h-22.168
		C212.199,356.684,212.199,350.504,212.199,344.333z"/>
</g>
<path style="fill:#747474;" d="M214.734,345.288c0,5.011,0,10.022,0,15.032h17.099v-14.964
	C225.886,339.419,220.564,338.903,214.734,345.288z"/>
<path style="fill:#785448;" d="M206.184,362.855h8.55v-16.894c-2.964-3.334-5.761-5.157-8.55-5.255V362.855z"/>
<polygon style="fill:#F3501E;" points="356.158,301.146 408.732,301.146 408.732,401.548 356.158,401.548 "/>
<polygon style="fill:#FF6E40;" points="275.234,347.959 377.888,352.785 377.888,412.495 275.234,412.525 "/>
<path style="fill:#8B6E62;" d="M278.812,348.125l1.784,0.088v64.312h-1.784V348.125z M290.315,348.671l1.794,0.088v63.756h-1.794
	V348.671z M301.828,349.207l1.794,0.088v63.22h-1.794V349.207z M313.332,349.753l1.794,0.088v62.674h-1.794V349.753z
	 M324.845,350.299l1.794,0.078v62.128h-1.794V350.299z M336.358,350.835l1.784,0.088v61.582h-1.784V350.835z M347.871,351.381
	l1.784,0.078v61.036h-1.784V351.381z M359.385,351.917l1.784,0.088v60.49h-1.784V351.917z M370.888,352.463l1.794,0.078v59.954
	h-1.794V352.463z"/>
<path style="fill:#785448;" d="M240.383,362.855h-8.55v-16.894c2.954-3.334,5.761-5.157,8.55-5.255V362.855z"/>
<g>
	<path style="fill:#8B6E62;" d="M204.995,362.066l1.189,0.79v-22.149c0.029,0,0.127,0,0.097,0l-1.287,0.195V362.066z"/>
	<path style="fill:#8B6E62;" d="M241.679,362.056l-1.189,0.799v-22.159c-0.039,0-0.136,0-0.107,0.01l1.297,0.185V362.056z"/>
</g>
<polygon style="fill:#FFFFFF;" points="306.449,365.117 284.037,365.117 284.037,384.02 306.449,384.02 "/>
<polygon style="fill:#BBBBBB;" points="275.234,347.959 377.888,352.785 377.888,358.653 275.234,358.683 "/>
<polygon style="fill:#DFDFDF;" points="225.691,302.101 308.965,302.199 377.888,352.785 294.147,352.824 "/>
<path style="fill:#BBBBBB;" d="M225.691,302.101l44.366,0.049H225.76L225.691,302.101z M316.325,307.6l1.375,1.004h-83.224
	l-1.355-1.004H316.325z M325.118,314.053l1.365,1.004h-83.312l-1.345-1.004H325.118z M333.911,320.507l1.365,1.004h-83.39
	l-1.355-1.004H333.911z M342.705,326.961l1.365,1.004h-83.478l-1.355-1.004H342.705z M351.488,333.414l1.375,1.004h-83.556
	l-1.355-1.004H351.488z M360.281,339.868l1.365,1.004h-83.634l-1.355-1.004H360.281z M369.075,346.321l1.365,0.994h-83.722
	l-1.355-0.994H369.075z M377.868,352.775l0.02,0.01l-83.741,0.039l-0.078-0.049H377.868z"/>
<polygon style="fill:#FF3C00;" points="302.852,366.911 287.644,366.911 287.644,382.226 302.852,382.226 "/>
<g>
	<polygon style="fill:#FFFFFF;" points="289.253,382.197 295.238,376.25 301.175,382.138 302.969,383.932 306.576,383.912 
		297.052,374.446 304.587,366.959 306.381,365.175 302.784,365.156 295.238,372.653 287.644,365.097 284.037,365.117 
		285.841,366.911 293.435,374.446 283.852,383.961 287.459,383.981 	"/>
	<polygon style="fill:#FFFFFF;" points="337.977,365.117 315.564,365.117 315.564,384.02 337.977,384.02 	"/>
</g>
<polygon style="fill:#EDEDED;" points="174.891,352.512 225.73,314.18 277.954,352.824 293.766,352.824 293.766,352.57 
	225.691,302.101 159.166,352.297 159.166,352.512 "/>
<polygon style="fill:#FF3C00;" points="334.37,366.911 319.171,366.911 319.171,382.226 334.37,382.226 "/>
<g>
	<polygon style="fill:#FFFFFF;" points="320.78,382.197 326.766,376.25 332.693,382.138 334.496,383.932 338.094,383.912 
		328.579,374.446 336.105,366.959 337.908,365.175 334.301,365.156 326.766,372.653 319.171,365.097 315.564,365.117 
		317.368,366.911 324.952,374.446 315.379,383.961 318.976,383.981 	"/>
	<polygon style="fill:#FFFFFF;" points="369.494,365.117 347.092,365.117 347.092,384.02 369.494,384.02 	"/>
</g>
<polygon style="fill:#FF3C00;" points="365.897,366.911 350.689,366.911 350.689,382.226 365.897,382.226 "/>
<polygon style="fill:#FFFFFF;" points="352.307,382.197 358.283,376.25 364.22,382.138 366.023,383.932 369.621,383.912 
	360.096,374.446 367.632,366.959 369.426,365.175 365.828,365.156 358.283,372.653 350.689,365.097 347.092,365.117 
	348.885,366.911 356.48,374.446 346.897,383.961 350.504,383.981 "/>
<polygon style="fill:#E54A18;" points="382.45,301.146 408.732,301.146 408.732,401.548 382.45,401.548 "/>
<path style="fill:#DFDFDF;" d="M382.45,269.356c18.727,0,34.228,13.765,36.947,31.732c0.224,1.462-0.166,2.808-1.131,3.929
	s-2.242,1.706-3.714,1.706h-64.205c-1.482,0-2.759-0.585-3.714-1.706c-0.975-1.121-1.355-2.466-1.131-3.929
	C348.213,283.121,363.723,269.356,382.45,269.356z"/>
<path style="fill:#FFFFFF;" d="M385.872,317.3L385.872,317.3c1.219,0,2.213,1.004,2.213,2.223v3.051
	c0,1.111,0.907,2.008,2.018,2.008h7.37c1.111,0,2.008-0.897,2.008-2.008v-3.051c0-1.219,1.004-2.223,2.223-2.223l0,0
	c1.219,0,2.213,1.004,2.213,2.223v79.812c0,1.219-0.994,2.213-2.213,2.213l0,0c-1.219,0-2.223-0.994-2.223-2.213v-4.562
	c0-1.111-0.897-2.018-2.008-2.018h-7.37c-1.111,0-2.018,0.907-2.018,2.018v4.562c0,1.219-0.994,2.213-2.213,2.213l0,0
	c-1.228,0-2.223-0.994-2.223-2.213v-79.812C383.649,318.304,384.643,317.3,385.872,317.3z M399.481,388.514v-2.876
	c0-0.546-0.448-0.994-0.994-0.994h-9.398c-0.556,0-1.004,0.448-1.004,0.994v2.876c0,0.546,0.448,0.994,1.004,0.994h9.398
	C399.032,389.508,399.481,389.06,399.481,388.514z M399.481,380.393v-2.866c0-0.546-0.448-0.994-0.994-0.994h-9.398
	c-0.556,0-1.004,0.448-1.004,0.994v2.866c0,0.556,0.448,1.004,1.004,1.004h9.398C399.032,381.397,399.481,380.949,399.481,380.393z
	 M399.481,372.282v-2.866c0-0.556-0.448-1.004-0.994-1.004h-9.398c-0.556,0-1.004,0.448-1.004,1.004v2.866
	c0,0.546,0.448,1.004,1.004,1.004h9.398C399.032,373.286,399.481,372.828,399.481,372.282z M399.481,364.161v-2.866
	c0-0.546-0.448-0.994-0.994-0.994h-9.398c-0.556,0-1.004,0.448-1.004,0.994v2.866c0,0.556,0.448,1.004,1.004,1.004h9.398
	C399.032,365.166,399.481,364.717,399.481,364.161z M399.481,356.051v-2.866c0-0.556-0.448-1.004-0.994-1.004h-9.398
	c-0.556,0-1.004,0.448-1.004,1.004v2.866c0,0.546,0.448,0.994,1.004,0.994h9.398C399.032,357.045,399.481,356.596,399.481,356.051z
	 M399.481,347.93v-2.866c0-0.546-0.448-1.004-0.994-1.004h-9.398c-0.556,0-1.004,0.458-1.004,1.004v2.866
	c0,0.556,0.448,1.004,1.004,1.004h9.398C399.032,348.934,399.481,348.486,399.481,347.93z M399.481,339.819v-2.866
	c0-0.556-0.448-1.004-0.994-1.004h-9.398c-0.556,0-1.004,0.448-1.004,1.004v2.866c0,0.546,0.448,1.004,1.004,1.004h9.398
	C399.032,340.823,399.481,340.365,399.481,339.819z M399.481,331.698v-2.866c0-0.556-0.448-0.994-0.994-0.994h-9.398
	c-0.556,0-1.004,0.439-1.004,0.994v2.866c0,0.556,0.448,1.004,1.004,1.004h9.398C399.032,332.703,399.481,332.254,399.481,331.698z"
	/>
<path style="fill:#E5E5E5;" d="M393.788,324.582h3.685c1.111,0,2.008-0.897,2.008-2.008v-3.051c0-1.219,1.004-2.223,2.223-2.223l0,0
	c1.219,0,2.213,1.004,2.213,2.223v79.812c0,1.219-0.994,2.213-2.213,2.213l0,0c-1.219,0-2.223-0.994-2.223-2.213v-4.562
	c0-1.111-0.897-2.018-2.008-2.018h-3.685v-3.246h4.699c0.546,0,0.994-0.448,0.994-0.994v-2.876c0-0.546-0.448-0.994-0.994-0.994
	h-4.699v-3.246h4.699c0.546,0,0.994-0.448,0.994-1.004v-2.866c0-0.546-0.448-0.994-0.994-0.994h-4.699v-3.246h4.699
	c0.546,0,0.994-0.458,0.994-1.004v-2.866c0-0.556-0.448-1.004-0.994-1.004h-4.699v-3.246h4.699c0.546,0,0.994-0.448,0.994-1.004
	v-2.866c0-0.546-0.448-0.994-0.994-0.994h-4.699v-3.256h4.699c0.546,0,0.994-0.448,0.994-0.994v-2.866
	c0-0.556-0.448-1.004-0.994-1.004h-4.699v-3.246h4.699c0.546,0,0.994-0.448,0.994-1.004v-2.866c0-0.546-0.448-1.004-0.994-1.004
	h-4.699v-3.237h4.699c0.546,0,0.994-0.458,0.994-1.004v-2.866c0-0.556-0.448-1.004-0.994-1.004h-4.699v-3.246h4.699
	c0.546,0,0.994-0.448,0.994-1.004v-2.866c0-0.556-0.448-0.994-0.994-0.994h-4.699V324.582z"/>
<polygon style="fill:#9F877E;" points="363.694,319.727 376.386,319.727 376.386,338.561 363.694,338.561 "/>
<polygon style="fill:#BBA9A3;" points="365.536,321.57 374.544,321.57 374.544,336.719 365.536,336.719 "/>
<g>
	<path style="fill:#FDF9E2;" d="M479.829,346.234l3.471-2.583l3.48,2.583v20.706c-2.184,4.543-4.514,8.988-6.951,13.365V346.234z"/>
	<polygon style="fill:#FDF9E2;" points="465.041,346.234 468.521,343.65 472.001,346.234 472.001,382.187 465.041,382.187 	"/>
	<polygon style="fill:#FDF9E2;" points="450.008,346.234 453.489,343.65 456.959,346.234 456.959,382.187 450.008,382.187 	"/>
	<polygon style="fill:#FDF9E2;" points="434.976,346.234 438.446,343.65 441.927,346.234 441.927,382.187 434.976,382.187 	"/>
	<path style="fill:#FDF9E2;" d="M419.68,346.234l3.48-2.583l3.471,2.583v35.953h-1.082c-1.979-1.131-3.929-2.31-5.869-3.519V346.234
		z"/>
	<path style="fill:#FDF9E2;" d="M491.82,355.778h-69.732v-2.271h70.668C492.444,354.267,492.142,355.027,491.82,355.778z"/>
	<polygon style="fill:#FDF9E2;" points="484.791,370.947 422.088,370.947 422.088,368.665 485.922,368.665 	"/>
</g>
<path style="fill:#FFFFFF;" d="M140.088,94.855c4.104,0,7.984,0.868,11.425,2.418c3.724-3.256,8.803-5.255,14.418-5.255
	c9.729,0,17.889,6.015,20.063,14.106c4.865,1.306,8.764,4.582,10.538,8.793c0.585-0.058,1.18-0.088,1.784-0.088
	c8.988,0,16.271,6.512,16.271,14.545s-7.282,14.545-16.271,14.545c-2.808,0-5.44-0.634-7.74-1.745
	c-1.969,6.044-8.218,10.46-15.617,10.46c-4.523,0-8.618-1.648-11.572-4.319c-2.944,2.671-7.039,4.319-11.562,4.319
	c-4.289,0-8.208-1.492-11.113-3.919c-2.973,2.905-7.253,4.728-12.01,4.728c-4.455,0-8.481-1.599-11.416-4.182
	c-1.355,0.263-2.749,0.4-4.182,0.4c-10.704,0-19.38-7.76-19.38-17.323s8.676-17.323,19.38-17.323c0.585,0,1.16,0.02,1.735,0.068
	C116.214,103.706,126.996,94.855,140.088,94.855z"/>
<path style="fill:#DFDFDF;" d="M214.568,130.164c-0.468,7.662-7.565,13.755-16.251,13.755c-2.808,0-5.44-0.634-7.74-1.745
	c-1.969,6.044-8.218,10.46-15.617,10.46c-4.523,0-8.618-1.648-11.572-4.319c-2.944,2.671-7.039,4.319-11.562,4.319
	c-4.289,0-8.208-1.492-11.113-3.919c-2.973,2.905-7.253,4.728-12.01,4.728c-4.455,0-8.481-1.599-11.416-4.182
	c-1.355,0.263-2.749,0.4-4.182,0.4c-10.704,0-19.38-7.76-19.38-17.323c0-1.033,0.097-2.047,0.292-3.032
	c-0.029,0.37-0.049,0.751-0.049,1.131c0,9.573,8.686,17.323,19.39,17.323c1.433,0,2.837-0.136,4.172-0.4
	c2.944,2.593,6.97,4.182,11.425,4.182c4.757,0,9.037-1.823,12.01-4.728c2.915,2.427,6.814,3.919,11.113,3.919
	c4.523,0,8.618-1.648,11.572-4.309c2.944,2.661,7.039,4.309,11.562,4.309c7.399,0,13.648-4.406,15.617-10.451
	c2.301,1.111,4.943,1.735,7.74,1.735C206.526,142.019,213.155,136.91,214.568,130.164z M154.331,123.272
	c-20.423-1.891-21.847,16.914-6.005,20.345c14.272,3.09,19.761-10.597,7.809-14.759c-10.587-3.685-16.397,6.2-8.199,9.632
	c5.742,2.408,10.031-1.989,6.59-4.377c-1.813-1.267-3.227,0.146-4.163-1.267c3.402-3.734,11.845,2.993,5.635,6.795
	c-7.536,4.611-19.702-5.245-10.811-11.152c8.608-5.722,24.459,3.753,17.577,12.488c-7.136,9.057-28.388,2.437-26.741-9.232
	c1.92-13.58,29.568-13.063,35.67,2.047c0.643,1.609,1.462,5.527-0.097,6.707c-0.487-0.097-0.575-3.207-0.721-3.948
	C169.578,129.911,163.417,124.705,154.331,123.272z M131.237,100.743c13.424-4.904,22.246,9.388,12.654,14.72
	c-8.647,4.796-18.172-4.855-11.581-10.09c5.83-4.64,13.989,2.018,9.719,6.054c-2.993,2.827-7.818,0.156-6.415-2.271
	c0.741-1.277,2.301-0.429,2.369-1.677c-3.929-2.32-7,4.319-1.092,6.2c7.165,2.291,11.533-7.38,2.886-10.441
	c-8.384-2.973-15.471,7.029-7.039,12.615c8.735,5.791,20.774-2.915,14.769-11.659c-7-10.168-26.019-5.089-23.972,7.614
	c0.214,1.345,1.277,4.523,2.856,5.167c0.292-0.156-0.936-2.574-1.141-3.168C123.389,108.454,125.504,103.394,131.237,100.743z
	 M99.856,122.814c-11.24,12.751,4.962,27.17,15.461,18.678c9.446-7.643-0.283-21.213-9.602-15.929
	c-8.257,4.67-2.106,15.744,4.816,12.537c4.835-2.242,2.895-8.345-0.848-7.682c-1.989,0.361-1.384,2.33-3.081,1.979
	c-1.774-5.021,8.218-6.044,8.725,0.965c0.614,8.491-13.911,9.856-15.062-0.507c-1.111-10.031,14.798-14.214,19.429-3.217
	c4.787,11.396-11.084,21.35-20.794,11.864c-11.289-11.026,2.106-29.733,18.513-23.153c1.745,0.692,5.644,2.925,5.976,4.855
	c-0.322,0.263-3.149-1.901-3.88-2.33C112.948,117.033,105.393,117.559,99.856,122.814z M176.1,97.652
	c-13.853-5.06-22.948,9.68-13.053,15.179c8.92,4.952,18.737-5.011,11.952-10.412c-6.025-4.777-14.438,2.086-10.031,6.259
	c3.09,2.915,8.062,0.156,6.619-2.349c-0.77-1.316-2.379-0.448-2.447-1.726c4.046-2.388,7.214,4.445,1.121,6.395
	c-7.38,2.359-11.884-7.614-2.964-10.772c8.637-3.061,15.949,7.243,7.253,13.005c-9.018,5.976-21.428-3.003-15.227-12.01
	c7.214-10.49,26.828-5.255,24.713,7.848c-0.214,1.384-1.316,4.66-2.944,5.333c-0.302-0.175,0.965-2.671,1.18-3.276
	C184.191,105.607,182.008,100.382,176.1,97.652z M206.789,121.371c9.495,9.944-4.211,21.184-13.073,14.565
	c-7.994-5.966,0.234-16.543,8.111-12.43c6.99,3.646,1.784,12.283-4.065,9.778c-4.094-1.745-2.447-6.502,0.712-5.986
	c1.677,0.273,1.17,1.813,2.603,1.54c1.501-3.909-6.951-4.718-7.38,0.751c-0.517,6.619,11.776,7.692,12.742-0.39
	c0.936-7.828-12.508-11.084-16.427-2.515c-4.046,8.891,9.378,16.651,17.577,9.261c9.554-8.608-1.774-23.192-15.656-18.064
	c-1.462,0.546-4.767,2.291-5.05,3.792c0.273,0.195,2.671-1.482,3.285-1.813C195.714,116.857,202.1,117.276,206.789,121.371z"/>
<path style="fill:#FFFFFF;" d="M362.085,45.897c-3.139,0-6.103,0.663-8.735,1.852c-2.837-2.486-6.727-4.016-11.016-4.016
	c-7.438,0-13.658,4.592-15.325,10.782c-3.714,0.994-6.697,3.5-8.052,6.707c-0.448-0.039-0.897-0.058-1.365-0.058
	c-6.863,0-12.43,4.972-12.43,11.113c0,6.132,5.566,11.113,12.43,11.113c2.145,0,4.153-0.487,5.917-1.336
	c1.511,4.611,6.278,7.994,11.932,7.994c3.451,0,6.58-1.267,8.832-3.305c2.252,2.037,5.381,3.305,8.832,3.305
	c3.295,0,6.278-1.141,8.501-3.003c2.271,2.223,5.547,3.617,9.173,3.617c3.402,0,6.483-1.219,8.725-3.198
	c1.033,0.205,2.096,0.312,3.198,0.312c8.179,0,14.808-5.927,14.808-13.239S390.883,61.3,382.703,61.3
	c-0.448,0-0.897,0.019-1.326,0.058C380.325,52.662,372.087,45.897,362.085,45.897z"/>
<path style="fill:#DFDFDF;" d="M305.182,72.881c0.351,5.849,5.771,10.509,12.41,10.509c2.145,0,4.153-0.487,5.917-1.336
	c1.511,4.611,6.278,7.994,11.932,7.994c3.451,0,6.58-1.267,8.832-3.305c2.252,2.037,5.381,3.305,8.832,3.305
	c3.295,0,6.278-1.141,8.501-3.003c2.271,2.223,5.547,3.617,9.173,3.617c3.402,0,6.483-1.219,8.725-3.198
	c1.033,0.205,2.096,0.312,3.198,0.312c8.179,0,14.808-5.927,14.808-13.239c0-0.79-0.078-1.56-0.224-2.32
	c0.02,0.292,0.029,0.575,0.029,0.868c0,7.312-6.629,13.239-14.808,13.239c-1.102,0-2.164-0.107-3.198-0.302
	c-2.242,1.969-5.323,3.188-8.725,3.188c-3.626,0-6.902-1.394-9.173-3.607c-2.223,1.852-5.206,2.993-8.491,2.993
	c-3.461,0-6.59-1.258-8.842-3.295c-2.252,2.037-5.372,3.295-8.832,3.295c-5.654,0-10.431-3.373-11.932-7.994
	c-1.764,0.848-3.773,1.336-5.908,1.336C311.314,81.938,306.254,78.038,305.182,72.881z M351.206,67.607
	c15.598-1.443,16.69,12.927,4.582,15.549c-10.899,2.359-15.091-8.101-5.966-11.279c8.091-2.817,12.537,4.738,6.259,7.36
	c-4.377,1.842-7.662-1.521-5.03-3.344c1.384-0.965,2.457,0.107,3.178-0.965c-2.593-2.856-9.056,2.291-4.299,5.186
	c5.752,3.519,15.052-3.997,8.257-8.52c-6.571-4.367-18.688,2.866-13.434,9.544c5.459,6.912,21.701,1.862,20.433-7.058
	c-1.462-10.373-22.588-9.973-27.248,1.57c-0.497,1.228-1.121,4.221,0.068,5.128c0.37-0.078,0.448-2.457,0.556-3.022
	C339.546,72.686,344.255,68.709,351.206,67.607z M368.851,50.401c-10.256-3.753-17.002,7.165-9.671,11.24
	c6.6,3.665,13.882-3.714,8.852-7.701c-4.455-3.549-10.694,1.531-7.428,4.621c2.291,2.164,5.976,0.117,4.904-1.735
	c-0.565-0.975-1.764-0.331-1.813-1.277c2.993-1.774,5.342,3.295,0.829,4.738c-5.469,1.745-8.803-5.644-2.193-7.984
	c6.395-2.271,11.806,5.372,5.371,9.641c-6.678,4.426-15.881-2.223-11.279-8.91c5.342-7.77,19.878-3.89,18.308,5.82
	c-0.166,1.033-0.975,3.451-2.184,3.948c-0.224-0.117,0.721-1.969,0.877-2.427C374.846,56.289,373.228,52.419,368.851,50.401z
	 M392.823,67.266c8.589,9.739-3.792,20.755-11.806,14.272c-7.224-5.839,0.214-16.212,7.331-12.186
	c6.307,3.578,1.609,12.04-3.685,9.593c-3.695-1.716-2.213-6.385,0.653-5.869c1.511,0.273,1.053,1.774,2.349,1.501
	c1.355-3.831-6.278-4.611-6.668,0.741c-0.468,6.483,10.636,7.536,11.513-0.38c0.848-7.662-11.308-10.86-14.837-2.466
	c-3.665,8.706,8.462,16.31,15.881,9.066c8.628-8.423-1.609-22.714-14.145-17.694c-1.326,0.536-4.319,2.242-4.572,3.704
	c0.253,0.205,2.418-1.443,2.973-1.765C382.82,62.84,388.592,63.249,392.823,67.266z M334.565,48.041
	c10.577-3.87,17.538,7.389,9.973,11.591c-6.805,3.782-14.311-3.821-9.135-7.945c4.611-3.666,11.035,1.589,7.672,4.767
	c-2.359,2.232-6.161,0.117-5.06-1.784c0.585-1.014,1.813-0.351,1.872-1.326c-3.09-1.823-5.518,3.402-0.858,4.884
	c5.635,1.804,9.086-5.81,2.271-8.228c-6.6-2.34-12.196,5.537-5.547,9.944c6.883,4.562,16.368-2.291,11.64-9.183
	c-5.518-8.013-20.501-4.016-18.893,5.995c0.175,1.063,1.014,3.558,2.252,4.075c0.234-0.127-0.741-2.037-0.897-2.505
	C328.384,54.115,330.051,50.128,334.565,48.041z M311.129,66.154c-7.263,7.594,3.207,16.183,9.983,11.133
	c6.103-4.553-0.185-12.644-6.2-9.495c-5.342,2.788-1.365,9.378,3.11,7.467c3.12-1.336,1.872-4.972-0.546-4.572
	c-1.287,0.205-0.897,1.384-1.998,1.17c-1.141-2.983,5.323-3.597,5.644,0.575c0.39,5.06-8.988,5.878-9.729-0.292
	c-0.721-5.976,9.554-8.472,12.547-1.92c3.09,6.785-7.165,12.712-13.434,7.068c-7.292-6.571,1.355-17.713,11.962-13.794
	c1.121,0.419,3.646,1.745,3.86,2.895c-0.205,0.156-2.037-1.131-2.505-1.384C319.581,62.703,314.706,63.025,311.129,66.154z"/>
<path style="fill:#8BC40F;" d="M107.352,383.864l5.323,2.622l5.898-2.184c1.121-0.088,1.872-0.712,2.593-0.78
	c0.887-0.068,1.414,0.79,2.496,1.014c0.858-0.614,0.458-1.072,1.648-1.297c1.199-0.214,1.014,0.439,1.745,1.043
	c2.671-0.468,1.716-2.886,4.923-2.993c1.102-0.039,0.643-0.331,1.56-0.487c1.492-0.234,2.934,0.565,3.237-2.925
	c0.507,0.253,0.283,0.419,0.897,0.624c-0.049-1.521-0.234-1.95,1.092-2.359c0.205,0.341,0.468,0.682,0.604,0.975
	c0.175-1.599-0.088-2.242,1.453-2.759c0.224-0.078,0.01,0.136,0.517-0.166c0.526-2.067-0.955-3.139,0.146-4.465l0.799,0.985
	c0.955-1.394,0.916-1.657,0.585-3.412c-0.361-1.901,0.565-0.214-0.741-3.519l0.975-0.312c0-1.102-0.897-1.277-1.316-2.232
	c0.175-0.595,0.448-0.731,0.575-1.219c0.185-0.751-0.185-1.063-0.302-1.599c-0.409-0.273,0.146,0.585,0.146-0.361
	c0.01-1.082-1.209-1.618-1.706-1.901c0.146-0.76,0.097-0.078,0.283-0.819c-2.388-0.78-0.877-0.156-2.096-1.852
	c-0.643-0.897-1.745-0.682-2.739-1.082c0.039-0.975,0.439-0.195,0.848-1.355l-2.145-1.755c-0.117-0.429-0.01-0.117-0.38-0.526
	c-0.478-0.517-0.205,0.029-0.497-0.624l1.092-0.292c0.468-0.175,0.146,0,0.419-0.195c-0.595-1.803-2.593-0.799-3.968-2.037
	l-0.039-1.979c-1.969,0.848-2.067,0.439-3.802-0.136l-0.214-1.618c-0.039,0.02-1.891,1.482-2.271-0.029
	c-0.068-0.312-0.088-0.302-0.039-0.634c0.049-0.468,0.283-0.692,0.448-1.082h-2.223l0.166-0.994
	c-0.507,0.097-1.014,0.478-1.462,0.292c-0.497-0.195-0.088-0.565-1.141-0.741c-2.008-0.312-1.336,0.565-3.246-0.653
	c-0.39-0.244,0.214-0.185-0.517-0.136c-0.585,0.039-0.702,0.39-2.827,0.244c-2.349-0.166-1.521-0.302-1.93-1.96
	c-2.067-0.39-3.773,2.096-4.494,2.096c-0.751,0-1.433-1.511-3.5,0.614c-0.643,0.663-0.205,0.614-0.907,1.004
	c-0.936,0.185-0.994-0.76-1.891-0.214c-0.868,0.497-0.088,2.652-2.759,1.93c-1.014-0.273-1.053-0.185-1.511-0.575l-0.419-0.38
	c-1.998,1.531-1.813,2.31-3.12,2.681c-0.4-0.497-0.068-0.4-0.341-0.868c-3.899,3.217-1.004,4.757-4.289,4.436
	c0.136,1.102,0.721,2.193,0.419,3.139c-0.331,0.994-1.336,1.501-2.018,0.39c-0.283,1.511-0.039,3.968-1.072,4.806
	c-0.458-0.39-0.409-0.536-0.585-1.238c-0.292,0.985-0.439,1.579-0.517,2.691c-0.107,1.355-0.468,1.56-0.702,2.544
	c-0.731-0.224-0.556-0.39-1.355-0.507c-0.273,0.985-0.136,1.735,0.146,2.661c0.361,1.17,0.195,1.15,0.088,2.505
	c-0.653,0.039-1.443,0.029-1.345,0.877c0.078,0.682,0.829,0.76,1.336,1.024l0.088,2.632l-0.926-0.517
	c0.088,4.065,1.57,4.572,1.706,5.839c-0.78,0.205-0.926-0.107-1.492-0.351c0.214,2.466,1.842,2.398,2.564,4.289l-1.18,0.439
	c0.877,1.248,2.388,0.887,3.129,1.043c0.517,0.127,0.448,0.283,0.955,0.517c-0.214,0.907-0.263,1.072,0.448,1.599
	c1.082,0.799,2.476,0.848,3.753,1.014c1.277,0.166,0.721,0.497,0.819,1.706c2.817,0.604,1.726-0.741,4.943-0.156l0.02,1.238
	c0.76-0.429,2.32-0.137,3.237-0.439c1.287-0.429,1.111-0.809,2.925-0.907l-0.614,2.076
	C105.188,385.638,107.011,385.336,107.352,383.864z"/>
<path style="fill:#BD360C;" d="M109.848,383.639c0.721,0.985,2.817,7.799,3.081,9.524c0.614,2.086,0.468,5.138,0.448,7.448
	c-1.121,6.766-2.769,7.506-7.731,9.573c-1.589,0.653-2.876,0.916-3.471,2.496c2.115-1.326,3.129-1.306,5.83-1.667
	c2.359-0.322,5.011-0.38,7.428-0.234c2.242,0.136,4.377,0.634,6.561,0.897c1.462,0.185,3.646,0.614,5.011,0.322
	c0.819-0.166,0.078,0.214,1.589,0.175c-0.156-0.907-0.185-0.926-1.092-1.082c-1.784-0.283-3.276-0.663-4.046-2.535
	c-0.556-1.345-0.848-6.151-0.916-7.809c-0.292-1.355,0.556-3.149,1.511-3.987c0.468-0.565-0.497-3.227-1.531-2.866
	c-0.37,0.351-0.419,0.507-0.653,0.936c-0.107-0.127-3.685-7.818-0.663-10.529c0.663-1.248,1.881-0.994,3.402-1.082
	c0.955-0.059,3.11-0.458,3.471-0.994c-0.975,0.351-3.89,0.829-4.835,0.4c1.102-0.78,3.324-1.511,4.679-1.794
	c0.497-0.107,1.219-0.146,1.648-0.409c-1.404-0.848-3.88-0.273-5.498,0.029c0.4-1.482,2.915-2.067,4.406-2.457
	c1.735-0.458,3.919,1.092,5.82,0.214c-0.419-0.253-3.802-0.419-4.328-0.478c0.458-0.341,1.287-0.468,2.115-0.858
	c0.439-0.214,1.248-0.253,1.511-0.575c0.088-0.097-0.107-0.4-0.088-0.517c-0.39,0.263-2.115,0.868-2.72,1.033
	c-2.301,0.614-4.601,0.322-6.58,1.511c-1.56,0.936-1.979,2.7-2.876,3.237c-1.316,0.799-1.716,0.809-3.129,1.804l-0.4,0.312
	c-0.049-0.682,0.01-4.962,0.185-5.294c0.107-0.234,2.505-2.554,2.895-2.866c2.476-1.998,3.256-3.851,5.547-4.66
	c0.244-0.185,2.271-1.345,2.408-1.92c-0.634,0.234-2.749,1.501-3.334,1.609c0.263-0.741,0.731-0.907,0.838-2.067
	c-0.663,0.244-1.111,1.063-1.667,1.852c-0.39,0.565-0.829,1.492-1.277,1.667l-0.809-3.48c-0.127,0.955-0.049,1.94-0.049,2.905
	c0,1.316,0.156,1.238-0.604,1.891c-0.731,0.643-2.369,2.291-3.276,2.73l1.024-6.649c-1.345,1.111-1.355,3.324-2.047,5.323
	c-0.224-0.575-0.419-3.451-0.565-4.445c-0.331-2.154-0.4-2.164,0.283-4.25c0.156-0.487,0.439-1.433,0.663-1.842
	c0.37-0.663,0.926-0.585,1.531-1.033c0.907-0.682,1.248-1.745,1.998-2.837c3.295-0.244,2.184,0.468,3.899,2.271
	c0.595,0.624,2.827,2.115,4.007,1.716c-0.868-0.624-2.242-0.975-3.012-1.706l-1.414-2.252c4.884,0.01,1.609,1.238,8.491,2.71
	c-0.302-0.838-1.755-0.712-2.73-1.053c-0.79-0.273-1.745-0.985-2.32-1.443c0.156-0.117,0.058-0.078,0.39-0.195
	c0.292-0.098,0.02-0.02,0.273-0.068c0.117-0.02,0.604-0.068,0.741-0.078c0.673-0.058,0.907-0.029,1.326-0.322l-0.136-0.02
	c-0.77-0.02-2.905,0.029-3.354-0.39l-0.224-0.361c-0.39,0.312-0.448,0.556-1.18,0.565l-4.338-0.244
	c-0.049-0.478,0.351-2.047,0.682-2.379c0.409-0.419,1.277-0.439,1.794-0.721c0.341-0.195,0.195-0.029,0.419-0.37
	c-0.049-0.02-0.107-0.049-0.146-0.059c-0.039,0-0.107-0.029-0.146-0.049l-0.858,0.068c-0.458,0.117-0.37,0.185-0.897,0.156
	c0.253-0.361,0.429-0.799,0.741-1.15c0.273-0.302,0.955-0.546,1.063-0.946c0.019-0.078,0.068-0.088,0.107-0.136
	c-3.168,0.643-2.369,2.876-3.519,4.631c-0.721-0.224-1.024-0.994-1.199-1.842c-0.497-2.525,2.301-2.379,1.657-6.961
	c-0.409,0.946-0.448,2.642-1.102,3.607c-0.253,0.37-0.468,0.565-0.887,0.614c-0.556-1.726-0.575-2.388-1.609-3.627
	c-0.673-0.819-1.433-1.336-2.349-1.706c-0.273-0.117-0.39-0.234-0.751-0.107c1.433,0.517,1.696,0.819,2.496,1.901
	c0.604,0.819,1.141,1.784,1.355,2.905c0.575,3.003,0.614,4.163,1.901,6.61c-0.214,0.78-0.975,1.93-1.394,2.369
	c-0.712,0.77-0.712,0.955-1.959,0.868c-0.692-0.331-1.813,4.445-2.067,4.66l-0.214,0.097c-0.097-0.039-0.117,0.088-0.39,0.127
	c0.146,1.394,0.546,2.632,0.819,4.036c-1.482-1.852-4.124-3.5-4.845-4.133c0-1.092,0.38-1.716,0.253-3.081
	c-0.088-0.946-0.448-1.93-0.419-2.905c1.17-0.751,1.579-0.185,2.554-1.687c0.546-0.848,0.868-2.71,1.053-2.964
	c-0.848,0.809-0.634,3.402-3.665,3.558l0.292-3.695l-0.556,0.916c-0.195,0.497-0.049,0.409-0.351,0.77
	c-0.799-1.423,0.097-3.792,0.224-5.459l-0.536,0.614c-1.648,2.973-0.409,4.484,0.049,5.683c0.234,0.624,0.088,2.457,0.429,3.617
	c0.429,1.414,0.292,2.252,0.01,3.558c-1.228-0.78-1.716-2.642-3.958-2.262c0.156,0.487,2.388,1.511,3.022,2.778
	c-1.804,1.765-5.342,0.848-6.99-0.351c3.022-5.362,1.755-6.278,2.164-10.685c1.589-0.565,2.447-3.149,2.028-4.055
	c-0.556,1.638-0.673,3.022-2.262,3.422c0.01-0.507-0.029-0.887-0.049-1.414c-0.01-0.175-0.01-0.497-0.039-0.663
	c0-0.049-0.019-0.097-0.029-0.146l-0.175-0.39c-0.634,1.404,0.039,3.451,0.01,4.991c-2.769-0.702-1.872-3.48-2.476-5.537
	c-0.585,0.263-0.585,0.38-0.478,2.106c0.117,1.803,0.965,3.393,2.613,4.065c0.097,0.039,0.234,0.156,0.263,0.107
	c0.019-0.039,0.088,0.039,0.127,0.058c0.019,2.193-0.985,5.888-2.72,7.146c-0.478-0.994-1.141-1.306-1.423-1.998
	c-0.195-2.008-0.614-3.48-0.468-6.434l-0.653,1.033c-0.205,1.803,0.682,4.806-0.058,5.089c-0.507,0.185-2.739-0.049-3.919-0.916
	c-1.336-0.985-1.336-1.267-1.901-3.198c-0.283,0.799,0.166,0.419-0.507,0.731c-0.439-0.429-0.78-1.521-1.092-2.34
	c-0.253-0.712-0.341-1.852-0.702-2.496c-0.517,1.823,0.322,3.812,1.131,5.284c0.799,1.453,2.047,2.213,3.51,3.139
	c-2.671,1.959-4.465,1.453-6.834,1.287c0.838,0.556,1.375,0.741,2.681,0.721c3.159-0.039,3.237-1.141,4.972-1.56
	c0.487-0.117,2.232,0.185,3.003,0.205c0.117,0.166,1.852,2.847,1.862,2.866c-0.419,0.585-1.248,1.219-1.93,1.716
	c-0.595,0.429-1.345,1.053-2.028,1.355c-0.799,0.37-1.92,0.507-2.817,0.244c-0.556-0.166-1.102-0.575-1.55-0.975
	c-0.419-0.38,0.029-0.146-0.575-0.39c0.205,1.57,0.702,1.609,1.95,1.901c4.445,1.072,6.502-2.837,7.809-3.1
	c0.4-0.088,2.32,1.375,6.961,0.848c2.193-0.244,1.365-0.273,2.798,0.965c0.575,0.497,1.618,0.916,2.125,1.784
	c0.809,1.394,1.813,4.475,2.008,6.132c0.361,3.11-0.146,3.929-1.16,6.288c-0.458-0.38-1.219-0.624-1.326-1.394
	c-0.195-1.423-0.078-3.86,0.322-5.235l0.799-1.882c-1.911,0.721-2.349,3.441-2.515,5.284c-0.526-0.234-0.858-0.809-1.199-1.209
	c-0.536-0.643-0.507-0.507-0.429-1.355c0.088-1.092-0.146-2.057-0.643-3.003l-0.419-0.673c0.107,0.419-0.224,0.526-0.214,0.848
	c0.02,0.614,0.643,1.209,0.517,1.677l-0.156,0.78c-0.634,0.351-1.102-0.575-1.765-0.79l-1.911-1.17
	c0.361,0.682,1.306,1.628,1.735,2.213c0.419,0.565,0.975,1.755,1.336,2.067c-0.741,0.039-1.209-0.273-1.93-0.448
	c-2.388-0.585-1.462-0.497-3.11-1.989c-0.448-0.409-0.829-0.955-1.384-1.121c-0.76,1.443,0.517,1.531,1.716,2.759
	c-1.336,0.127-3.636,0.098-4.874-0.156c-0.965-1.959-0.741-2.486-3.422-3.363l-5.411-1.384c1.774,1.696,7.653,1.969,7.584,4.855
	c-1.024-0.049-1.726-0.585-2.613-0.751c1.862,1.55,1.755,1.287,4.592,1.326c-0.409,1.209-1.248,1.121-1.94,1.882
	c3.168,0.312,0.614-2.262,6.805-1.492C106.777,380.754,109.195,381.095,109.848,383.639z"/>
<path style="fill:#CE3E11;" d="M110.667,382.197c0,0,1.102,2.535,2.008,4.289c0.916,1.745,4.621,8.579,3.363,12.819
	c-1.258,4.241-0.858,6.161-2.983,7.828c-2.125,1.657-4.699,1.492-4.572,2.642c0.127,1.16,6.697-1.521,9.544-0.526
	c2.856,0.994,4.709,1.258,3.987,0.068c-0.731-1.199-1.667-1.852-1.862-5.108c-0.195-3.246,2.856-5.898,2.652-7.165
	c-0.205-1.258-0.595-2.184-1.326-1.258c-0.731,0.936-2.125,0-1.92-1.453c0.195-1.462-1.989-7.292-0.799-8.988
	c1.199-1.687,2.954-2.983,0.829-2.115c-2.125,0.858-3.246,3.344-3.285,1.453c-0.029-1.891,1.063-4.338-0.088-2.457
	c-1.17,1.891-1.072,5.371-2.232,3.587C112.821,384.02,110.667,382.197,110.667,382.197z"/>
<path style="fill:#8BC40F;" d="M428.932,372.604l5.323,2.613l5.898-2.174c1.121-0.097,1.872-0.721,2.593-0.78
	c0.887-0.078,1.414,0.78,2.496,1.004c0.858-0.614,0.458-1.072,1.648-1.297c1.189-0.214,1.014,0.439,1.745,1.053
	c2.671-0.468,1.716-2.895,4.923-3.003c1.102-0.039,0.643-0.331,1.56-0.478c1.492-0.244,2.944,0.556,3.237-2.934
	c0.507,0.253,0.283,0.419,0.887,0.634c-0.039-1.531-0.224-1.95,1.102-2.369c0.205,0.341,0.468,0.682,0.614,0.985
	c0.166-1.599-0.097-2.242,1.443-2.769c0.224-0.078,0,0.137,0.517-0.166c0.526-2.067-0.955-3.139,0.146-4.465l0.799,0.985
	c0.946-1.394,0.916-1.657,0.585-3.422c-0.361-1.891,0.565-0.205-0.741-3.51l0.975-0.312c0-1.102-0.897-1.277-1.326-2.232
	c0.185-0.595,0.458-0.731,0.575-1.219c0.185-0.741-0.175-1.063-0.302-1.589c-0.4-0.283,0.156,0.575,0.156-0.37
	c0.01-1.082-1.209-1.618-1.706-1.901c0.136-0.76,0.098-0.078,0.283-0.819c-2.398-0.78-0.877-0.146-2.086-1.842
	c-0.653-0.907-1.755-0.692-2.749-1.092c0.039-0.975,0.439-0.185,0.848-1.355l-2.145-1.755c-0.117-0.419,0-0.117-0.38-0.526
	c-0.478-0.517-0.195,0.029-0.497-0.624l1.092-0.292c0.468-0.166,0.146,0,0.419-0.195c-0.604-1.794-2.593-0.799-3.977-2.037
	l-0.029-1.979c-1.969,0.848-2.076,0.448-3.802-0.136l-0.214-1.609c-0.029,0.01-1.882,1.472-2.271-0.039
	c-0.078-0.302-0.088-0.302-0.049-0.634c0.059-0.468,0.292-0.692,0.458-1.082l-2.223,0.01l0.166-1.004
	c-0.507,0.088-1.014,0.478-1.462,0.292c-0.497-0.195-0.078-0.565-1.141-0.731c-2.008-0.322-1.336,0.556-3.246-0.653
	c-0.39-0.253,0.205-0.195-0.517-0.146c-0.585,0.039-0.692,0.39-2.827,0.244c-2.349-0.166-1.511-0.302-1.93-1.95
	c-2.067-0.4-3.773,2.086-4.504,2.086c-0.741,0-1.423-1.511-3.49,0.624c-0.643,0.653-0.205,0.604-0.916,0.994
	c-0.926,0.185-0.985-0.76-1.882-0.214c-0.868,0.497-0.088,2.652-2.749,1.93c-1.024-0.273-1.063-0.185-1.521-0.565l-0.419-0.39
	c-1.998,1.54-1.813,2.32-3.12,2.691c-0.4-0.507-0.078-0.409-0.341-0.877c-3.899,3.217-0.994,4.767-4.289,4.436
	c0.136,1.102,0.721,2.193,0.419,3.139c-0.331,0.994-1.336,1.501-2.028,0.39c-0.273,1.511-0.029,3.968-1.063,4.806
	c-0.458-0.39-0.409-0.536-0.585-1.238c-0.292,0.994-0.448,1.579-0.526,2.7c-0.098,1.355-0.468,1.55-0.692,2.535
	c-0.721-0.214-0.556-0.39-1.355-0.507c-0.273,0.985-0.146,1.735,0.146,2.661c0.361,1.18,0.195,1.15,0.088,2.505
	c-0.653,0.039-1.453,0.029-1.345,0.877c0.078,0.682,0.829,0.76,1.336,1.024l0.078,2.632l-0.916-0.517
	c0.088,4.065,1.56,4.572,1.706,5.839c-0.78,0.205-0.926-0.107-1.492-0.361c0.214,2.476,1.842,2.408,2.554,4.299l-1.17,0.448
	c0.877,1.238,2.398,0.877,3.12,1.043c0.526,0.117,0.458,0.273,0.965,0.507c-0.214,0.907-0.253,1.072,0.448,1.599
	c1.072,0.799,2.476,0.848,3.753,1.014c1.277,0.166,0.721,0.497,0.819,1.706c2.817,0.604,1.726-0.741,4.943-0.156l0.02,1.238
	c0.76-0.419,2.32-0.127,3.237-0.439c1.287-0.429,1.121-0.809,2.925-0.907l-0.614,2.086
	C426.767,374.368,428.59,374.056,428.932,372.604z"/>
<path style="fill:#BD360C;" d="M431.427,372.37c0.721,0.994,2.817,7.789,3.081,9.524c0.614,2.086,0.468,5.138,0.448,7.448
	c-1.121,6.766-2.778,7.506-7.74,9.563c-1.579,0.663-2.866,0.936-3.461,2.505c2.115-1.326,3.129-1.306,5.83-1.667
	c2.359-0.322,5.011-0.39,7.419-0.234c2.252,0.137,4.387,0.634,6.571,0.907c1.453,0.175,3.646,0.604,5.001,0.312
	c0.829-0.166,0.078,0.214,1.599,0.185c-0.156-0.916-0.185-0.936-1.102-1.082c-1.774-0.292-3.256-0.673-4.036-2.544
	c-0.556-1.355-0.848-6.142-0.926-7.809c-0.283-1.365,0.565-3.149,1.521-3.987c0.468-0.556-0.497-3.217-1.54-2.866
	c-0.361,0.361-0.409,0.507-0.643,0.946c-0.107-0.136-3.685-7.828-0.663-10.529c0.673-1.258,1.872-0.994,3.402-1.092
	c0.955-0.058,3.11-0.448,3.461-0.985c-0.965,0.341-3.89,0.819-4.835,0.39c1.102-0.78,3.334-1.501,4.689-1.794
	c0.497-0.107,1.219-0.146,1.648-0.409c-1.404-0.848-3.88-0.273-5.498,0.029c0.4-1.482,2.915-2.067,4.406-2.457
	c1.735-0.458,3.929,1.092,5.81,0.214c-0.409-0.253-3.792-0.419-4.319-0.478c0.458-0.341,1.287-0.468,2.115-0.858
	c0.429-0.205,1.248-0.253,1.511-0.575c0.088-0.098-0.107-0.39-0.088-0.517c-0.39,0.273-2.115,0.868-2.72,1.033
	c-2.301,0.614-4.601,0.322-6.58,1.521c-1.56,0.936-1.979,2.691-2.876,3.237c-1.316,0.78-1.726,0.79-3.129,1.803l-0.4,0.302
	c-0.049-0.682,0.01-4.952,0.175-5.294c0.117-0.224,2.515-2.554,2.905-2.866c2.476-1.998,3.256-3.851,5.547-4.66
	c0.244-0.175,2.262-1.345,2.398-1.921c-0.634,0.234-2.739,1.511-3.324,1.609c0.263-0.731,0.731-0.907,0.838-2.076
	c-0.663,0.263-1.111,1.072-1.667,1.862c-0.39,0.565-0.829,1.492-1.277,1.667l-0.819-3.48c-0.127,0.955-0.049,1.94-0.049,2.905
	c0.01,1.316,0.166,1.248-0.595,1.901c-0.731,0.624-2.379,2.281-3.276,2.72l1.024-6.649c-1.345,1.111-1.355,3.324-2.047,5.323
	c-0.224-0.565-0.419-3.451-0.575-4.445c-0.322-2.154-0.39-2.164,0.292-4.25c0.156-0.487,0.439-1.433,0.663-1.842
	c0.37-0.653,0.926-0.585,1.531-1.024c0.916-0.692,1.248-1.755,1.989-2.847c3.295-0.244,2.193,0.468,3.909,2.281
	c0.595,0.624,2.827,2.106,4.007,1.706c-0.868-0.624-2.242-0.965-3.012-1.696l-1.414-2.262c4.874,0.01,1.609,1.238,8.481,2.71
	c-0.292-0.838-1.745-0.712-2.72-1.053c-0.79-0.273-1.745-0.975-2.32-1.433c0.146-0.117,0.058-0.078,0.39-0.195
	c0.283-0.107,0.019-0.02,0.273-0.078c0.117-0.029,0.604-0.059,0.741-0.078c0.673-0.059,0.907-0.029,1.326-0.322l-0.136-0.02
	c-0.77-0.02-2.905,0.029-3.354-0.39l-0.224-0.361c-0.39,0.322-0.448,0.556-1.18,0.565l-4.348-0.244
	c-0.039-0.478,0.361-2.037,0.692-2.379c0.409-0.419,1.277-0.429,1.794-0.721c0.341-0.195,0.195-0.029,0.419-0.361
	c-0.049-0.029-0.107-0.049-0.146-0.059c-0.039-0.02-0.098-0.039-0.156-0.049l-0.848,0.058c-0.458,0.117-0.37,0.185-0.897,0.156
	c0.253-0.361,0.419-0.799,0.741-1.15c0.273-0.302,0.955-0.546,1.063-0.946c0.02-0.078,0.078-0.088,0.107-0.127
	c-3.168,0.634-2.379,2.866-3.519,4.631c-0.721-0.234-1.024-1.004-1.189-1.852c-0.517-2.525,2.291-2.369,1.648-6.961
	c-0.409,0.946-0.439,2.642-1.102,3.607c-0.253,0.37-0.468,0.575-0.887,0.614c-0.556-1.726-0.585-2.388-1.599-3.626
	c-0.682-0.809-1.443-1.326-2.359-1.706c-0.273-0.117-0.39-0.234-0.76-0.107c1.443,0.517,1.706,0.819,2.505,1.901
	c0.604,0.829,1.141,1.774,1.355,2.905c0.575,3.003,0.614,4.172,1.901,6.61c-0.214,0.78-0.975,1.93-1.394,2.379
	c-0.712,0.76-0.712,0.946-1.969,0.858c-0.682-0.322-1.803,4.445-2.057,4.67l-0.214,0.088c-0.098-0.039-0.117,0.088-0.39,0.127
	c0.146,1.394,0.546,2.642,0.819,4.036c-1.482-1.842-4.133-3.49-4.845-4.143c0-1.082,0.38-1.706,0.253-3.061
	c-0.088-0.955-0.448-1.94-0.419-2.915c1.17-0.741,1.579-0.185,2.554-1.687c0.546-0.848,0.868-2.71,1.053-2.954
	c-0.848,0.799-0.643,3.393-3.665,3.558l0.292-3.704l-0.556,0.926c-0.185,0.487-0.058,0.409-0.351,0.76
	c-0.809-1.423,0.098-3.782,0.214-5.449l-0.526,0.595c-1.648,2.983-0.409,4.494,0.039,5.693c0.253,0.634,0.097,2.457,0.439,3.617
	c0.429,1.414,0.292,2.252,0.01,3.558c-1.228-0.78-1.716-2.652-3.958-2.262c0.156,0.487,2.388,1.521,3.022,2.778
	c-1.804,1.764-5.342,0.848-6.99-0.341c3.022-5.372,1.755-6.288,2.164-10.685c1.589-0.575,2.447-3.149,2.028-4.075
	c-0.556,1.648-0.673,3.022-2.262,3.432c0.01-0.507-0.029-0.877-0.049-1.404c-0.01-0.185-0.01-0.497-0.039-0.673
	c-0.01-0.049-0.02-0.097-0.029-0.146l-0.175-0.38c-0.634,1.394,0.039,3.451,0.01,4.991c-2.769-0.702-1.872-3.5-2.486-5.537
	c-0.575,0.253-0.575,0.37-0.468,2.096c0.127,1.803,0.965,3.393,2.613,4.065c0.098,0.039,0.234,0.156,0.263,0.107
	c0.02-0.029,0.088,0.039,0.127,0.059c0.02,2.193-0.985,5.898-2.72,7.146c-0.478-0.985-1.141-1.297-1.433-1.998
	c-0.185-1.998-0.604-3.48-0.458-6.434l-0.653,1.033c-0.205,1.813,0.673,4.806-0.058,5.089c-0.507,0.195-2.73-0.039-3.919-0.916
	c-1.336-0.985-1.336-1.258-1.901-3.198c-0.283,0.809,0.166,0.419-0.507,0.731c-0.448-0.429-0.78-1.521-1.092-2.34
	c-0.263-0.712-0.341-1.842-0.692-2.496c-0.526,1.813,0.312,3.812,1.121,5.284c0.79,1.453,2.047,2.213,3.51,3.139
	c-2.681,1.959-4.465,1.462-6.834,1.287c0.838,0.565,1.375,0.741,2.681,0.721c3.159-0.039,3.237-1.141,4.972-1.57
	c0.487-0.117,2.232,0.195,3.003,0.224c0.117,0.156,1.852,2.837,1.862,2.866c-0.419,0.575-1.248,1.209-1.94,1.706
	c-0.585,0.439-1.336,1.053-2.018,1.365c-0.799,0.361-1.93,0.497-2.817,0.234c-0.556-0.166-1.092-0.575-1.55-0.985
	c-0.419-0.361,0.029-0.136-0.575-0.38c0.205,1.57,0.702,1.609,1.95,1.911c4.455,1.072,6.502-2.837,7.809-3.11
	c0.409-0.088,2.31,1.375,6.961,0.848c2.193-0.244,1.365-0.273,2.798,0.965c0.575,0.497,1.618,0.916,2.125,1.784
	c0.809,1.404,1.813,4.475,2.008,6.132c0.361,3.11-0.146,3.929-1.16,6.288c-0.468-0.37-1.219-0.624-1.326-1.394
	c-0.195-1.423-0.078-3.86,0.322-5.235l0.799-1.882c-1.911,0.731-2.359,3.441-2.515,5.284c-0.526-0.234-0.868-0.799-1.199-1.209
	c-0.536-0.643-0.507-0.517-0.439-1.355c0.097-1.082-0.136-2.057-0.634-3.003l-0.419-0.663c0.107,0.409-0.224,0.517-0.214,0.838
	c0.01,0.614,0.643,1.209,0.517,1.677l-0.156,0.78c-0.643,0.361-1.102-0.565-1.765-0.79l-1.911-1.17
	c0.351,0.682,1.306,1.638,1.735,2.213c0.419,0.565,0.975,1.755,1.336,2.067c-0.741,0.039-1.219-0.273-1.93-0.448
	c-2.388-0.585-1.462-0.497-3.11-1.989c-0.448-0.409-0.838-0.955-1.384-1.121c-0.76,1.443,0.517,1.531,1.716,2.759
	c-1.345,0.127-3.646,0.097-4.874-0.156c-0.965-1.96-0.751-2.486-3.422-3.363l-5.42-1.375c1.784,1.686,7.662,1.969,7.594,4.845
	c-1.024-0.049-1.725-0.585-2.622-0.751c1.872,1.55,1.755,1.287,4.601,1.326c-0.409,1.209-1.258,1.121-1.94,1.881
	c3.168,0.312,0.614-2.262,6.805-1.492C428.356,369.484,430.774,369.825,431.427,372.37z"/>
<path style="fill:#CE3E11;" d="M432.246,370.927c0,0,1.092,2.544,2.008,4.289c0.907,1.745,4.621,8.579,3.363,12.819
	c-1.258,4.241-0.858,6.171-2.983,7.818c-2.115,1.667-4.709,1.511-4.572,2.661c0.127,1.15,6.697-1.531,9.544-0.536
	c2.856,0.994,4.709,1.267,3.977,0.068c-0.721-1.189-1.648-1.852-1.852-5.099c-0.205-3.256,2.847-5.908,2.652-7.165
	c-0.195-1.258-0.595-2.184-1.326-1.258c-0.731,0.926-2.125,0-1.92-1.462c0.195-1.462-1.989-7.292-0.799-8.988
	c1.189-1.687,2.954-2.983,0.829-2.115c-2.115,0.858-3.246,3.344-3.276,1.453c-0.039-1.882,1.053-4.338-0.107-2.447
	c-1.16,1.882-1.063,5.372-2.223,3.578C434.401,372.75,432.246,370.927,432.246,370.927z"/>
<g>
	<path style="fill:#54892E;" d="M207.598,412.603c0.331-0.517,0.819-3.12,2.622-3.851c-1.677,1.287-2.115,3.539-2.447,5.255
		l-0.195,0.575h-1.082c0.058-3.051-0.526-3.432-1.56-5.498c1.043,0.741,2.037,3.49,2.076,4.328c0.263-2.115,0.224-5.693,2.739-7
		C208.31,407.66,207.452,409.766,207.598,412.603z"/>
	<path style="fill:#54892E;" d="M211.77,412.115c0.331-0.517,0.809-3.129,2.613-3.851c-1.677,1.287-2.115,3.539-2.447,5.245
		l-0.185,0.585l-1.092-0.01c0.059-3.042-0.526-3.422-1.55-5.489c1.043,0.741,2.037,3.48,2.067,4.319
		c0.263-2.106,0.234-5.693,2.739-7C212.472,407.173,211.614,409.278,211.77,412.115z"/>
	<path style="fill:#54892E;" d="M246.846,412.817c0.322-0.517,0.809-3.129,2.613-3.86c-1.677,1.297-2.115,3.539-2.447,5.255
		l-0.185,0.585l-1.092-0.01c0.058-3.051-0.526-3.422-1.55-5.489c1.043,0.731,2.037,3.48,2.067,4.319
		c0.263-2.115,0.234-5.693,2.739-7C247.548,407.875,246.69,409.98,246.846,412.817z"/>
	<path style="fill:#54892E;" d="M111.856,413.948c0.331-0.526,0.819-3.139,2.613-3.86c-1.667,1.287-2.115,3.539-2.447,5.245
		l-0.185,0.585h-1.092c0.058-3.051-0.526-3.432-1.55-5.498c1.043,0.741,2.037,3.49,2.076,4.319c0.253-2.106,0.224-5.683,2.73-6.99
		C112.568,408.996,111.71,411.101,111.856,413.948z"/>
	<path style="fill:#54892E;" d="M124.032,412.408c0.331-0.517,0.809-3.139,2.613-3.86c-1.677,1.287-2.115,3.539-2.447,5.255
		l-0.185,0.585l-1.092-0.01c0.058-3.042-0.526-3.432-1.55-5.498c1.043,0.741,2.037,3.49,2.076,4.328c0.253-2.115,0.224-5.693,2.73-7
		C124.734,407.465,123.876,409.561,124.032,412.408z"/>
	<path style="fill:#54892E;" d="M430.696,397.765c0.322-0.507,0.809-3.129,2.613-3.851c-1.677,1.287-2.115,3.539-2.447,5.255
		l-0.185,0.575h-1.092c0.059-3.051-0.526-3.432-1.55-5.498c1.033,0.741,2.037,3.49,2.076,4.328c0.253-2.115,0.214-5.693,2.73-7
		C431.398,392.823,430.54,394.928,430.696,397.765z"/>
	<path style="fill:#54892E;" d="M447.279,407.26c0.331-0.517,0.819-3.129,2.613-3.86c-1.667,1.287-2.115,3.539-2.447,5.255
		l-0.185,0.585l-1.082-0.01c0.049-3.042-0.526-3.422-1.56-5.488c1.043,0.731,2.037,3.48,2.076,4.319
		c0.263-2.115,0.224-5.693,2.739-6.99C447.981,402.318,447.132,404.423,447.279,407.26z"/>
	<path style="fill:#54892E;" d="M162.442,458.49c1.365-2.135,3.373-12.946,10.821-15.939c-6.922,5.323-8.745,14.633-10.119,21.71
		l-0.78,2.408l-4.504-0.02c0.234-12.605-2.164-14.175-6.434-22.714c4.319,3.042,8.442,14.418,8.589,17.86
		c1.072-8.725,0.936-23.524,11.318-28.924C165.367,438.056,161.818,446.752,162.442,458.49z"/>
	<path style="fill:#54892E;" d="M191.815,456.608c1.063-2.145,1.56-12.946,8.589-15.949c-6.181,5.323-6.697,14.633-7.068,21.71
		l-0.448,2.418l-4.504-0.02c-1.531-12.605-4.153-14.175-9.612-22.724c4.738,3.051,10.451,14.418,11.084,17.869
		c-0.146-8.735-2.369-23.533,7.263-28.924C191.883,436.175,189.553,444.861,191.815,456.608z"/>
</g>
<path style="fill:#FFFFFF;" d="M170.26,236.386c4.114,0,7.448,3.344,7.448,7.458s-3.334,7.448-7.448,7.448
	c-4.124,0-7.458-3.334-7.458-7.448S166.137,236.386,170.26,236.386z"/>
<path style="fill:#424242;" d="M170.26,240.636c1.765,0,3.207,1.433,3.207,3.207c0,1.765-1.443,3.207-3.207,3.207
	c-1.774,0-3.207-1.443-3.207-3.207C167.053,242.069,168.486,240.636,170.26,240.636z"/>
<g>
</g>
<g>
</g>
<g>
</g>
<g>
</g>
<g>
</g>
<g>
</g>
<g>
</g>
<g>
</g>
<g>
</g>
<g>
</g>
<g>
</g>
<g>
</g>
<g>
</g>
<g>
</g>
<g>
</g>
</svg>
