<?xml version="1.0" encoding="iso-8859-1"?>
<!-- Generator: Adobe Illustrator 19.0.0, SVG Export Plug-In . SVG Version: 6.00 Build 0)  -->
<svg version="1.1" id="Layer_1" xmlns="http://www.w3.org/2000/svg" xmlns:xlink="http://www.w3.org/1999/xlink" x="0px" y="0px"
	 viewBox="0 0 512 512" style="enable-background:new 0 0 512 512;" xml:space="preserve">
<g>
	<path style="fill:#B1E9F1;" d="M255.997,0C397.385,0,512,114.615,512,255.997C512,397.385,397.385,512,255.997,512
		C114.615,512,0,397.385,0,255.997C0,114.615,114.615,0,255.997,0z"/>
	<path style="fill:#B1E9F1;" d="M384.588,477.391c-91.001-128.386-264.773-146.019-372.397-143.16
		C45.257,437.347,141.904,512,255.997,512C302.874,512,346.798,499.391,384.588,477.391z"/>
</g>
<path style="fill:#9F877E;" d="M3.316,297.186l21.196-0.781l18.936-25.276l9.169,5.013l29.66-19.265l10.29,8.177l16.26-5.929
	l29.66,11.059l22.505,20.533l28.944-7.267l9.65,14.217l16.312-4.52l38.712,16.213l42.363-19.735l13.366-1.115l15.643,49.518
	l6.075-9.163l18.226-7.901l11.781-2.53l17.598,6.351l13.577-10.126l12.861,8.547l30.641-7.93l12.867,1.579l33.224,24.959
	l7.502-5.054l7.05,4.649C506.84,314.696,512,285.951,512,255.997c0-20.938-2.536-41.289-7.279-60.765l-21.901,12.174l-31.668,9.492
	l-21.472-25.634l-25.24-15.432l-17.979,4.038l-7.249,11.869l-16.641,4.273l-3.487,13.689l-19.594,16.453l-9.662-11.153
	l-14.234-7.836l-5.635-10.918L254.125,166.1l-66.03,28.962l-25.235-20.175l-18.519,13.325L124.207,218.8l-56.638,2.031
	l-33.288-7.965l-18.249-9.497l-11.153,2.741C1.691,222.245,0,238.927,0,255.997C0,270.02,1.145,283.773,3.316,297.186z"/>
<path style="fill:#ADB32A;" d="M0.135,248.061c81.803,4.543,214.984,16.289,295.63,46.108
	c83.699,30.946-106.532,91.153-235.928,126.302C22.493,375.983,0,318.623,0,255.997C0,253.344,0.053,250.697,0.135,248.061z"/>
<path style="fill:#452A2B;" d="M18.907,334.084l3.469-27.178c9.838,0.64,29.995,1.696,32.953-0.264
	c3.95-2.6,12.133-22.822,14.51-27.524c2.383-4.708,18.854-3.727,25.839-4.631s9.462-2.054,12.086-5.142
	c2.636-3.088,3.07-20.046,7.461-21.132c4.391-1.086,12.591,4.244,21.719,5.142c9.128,0.904,14.352-7.108,15.913-10.12
	c1.567-3.011,22.681-25.152,22.822-25.452c0.135-0.305,2.019-2.084,4.32-2.735c2.301-0.657,14.604-2.424,17.668-3.469
	c3.07-1.051,8.828-7.073,8.828-7.073l-1.244-0.675c0,0-6.457,4.543-9.233,5.107l-16.688,3.375l1.415-13.97l-2.148,0.029
	l-4.074,15.414c0,0-22.288,17.686-29.983,27.9c-7.695,10.214-18.995,0.429-26.139-0.792c-7.155-1.221-5.072,0.969-4.872-6.334
	c0.188-7.296,5.7-49.859,5.7-49.859l-5.494-0.675c0,0-10.313,74.882-13.383,81.562c-3.064,6.68-19.958,3.017-31.011,5.189
	c-11.059,2.178-14.094,26.15-20.832,28.674c-4.549,1.702-17.087-1.309-24.747-3.44l1.996-15.655
	c2.518-8.388,3.264-19.118,3.604-28.668l0.299-2.36l-0.223-0.035c0.317-10.407,0.252-18.977,1.72-20.785
	c2.882-3.575,25.152-14.968,29.76-19.423c4.614-4.455,7.472-31.48,7.472-31.48l10.701-17.451l38.477-4.479l8.77,10.255l0.37,0.763
	l0.98,0.317l26.027,6.24l0.505-1.121l-24.172-7.854l-4.702-9.509l10.965-1.28l-0.628-3.428l-46.431,4.637l2.054-9.175l-2.929-0.863
	l-5.412,10.666l-8.247,0.822l-12.82,20.492c0,0-2.906,9.85-5.629,21.701c-2.724,11.845-24.119,16.189-24.119,16.189
	s-5.623,0.088-5.893-8.605l6.404-73.972c6.997-0.522,23.785-2.148,30.435-6.046c2.941-1.726,4.655-5.277,5.676-9.198
	c8.282,1.244,24.912,3.493,27.207,1.779c2.577-1.914,8.406-9.321,8.423-9.339l-1.509-0.558c-0.018,0.018-6.357,6.58-8.828,8.417
	c-1.503,1.121-17.046-2.8-24.419-4.743c0.699-4.79,0.687-9.357,0.886-11.217c4.784-2.448,24.882-13.178,25.857-21.402
	c0.687-5.841-0.411-16.565-1.186-22.828c-1.379,1.109-2.747,2.236-4.097,3.381c0.211,6.105,0.335,14.052-0.211,18.66
	c-0.452,3.815-6.838,8.699-13.002,12.573c-1.978-1.831-6.58-6.21-9.357-9.744c-0.663,0.716-1.338,1.421-1.996,2.143
	c2.495,4.021,5.899,8.47,7.179,10.108c-4.173,2.401-7.466,4.009-7.496,4.027l-1.109,1.473c-0.006,0.047-1.356,17.844-8.329,21.93
	c-4.561,2.677-14.164,3.27-20.586,3.346C13.219,163.1,0,208.005,0,255.997c0,27.289,4.285,53.574,12.192,78.234
	C14.405,334.172,16.641,334.125,18.907,334.084z"/>
<path style="fill:#BFC932;" d="M348.013,283.838c58.288,0,111.663,17.51,152.992,46.542C469.138,435.486,371.51,512,255.997,512
	c-53.762,0-103.644-16.588-144.833-44.905C120.192,364.637,222.756,283.838,348.013,283.838z"/>
<path style="fill:#DBE574;" d="M12.192,334.231c107.624-2.859,281.396,14.774,372.397,143.16
	c-37.79,22-81.715,34.609-128.591,34.609C141.904,512,45.257,437.347,12.192,334.231z"/>
<path style="fill:#D2683B;" d="M259.701,444.144c0,0-1.814-3.645-7.995-8.059l1.15,3.375c0,0-6.064-5.13-17.651-5.835
	c0,0,5.441,4.549,6.269,5.706c0,0-4.937-1.931-9.462-1.831l2.618,2.647c0,0-6.181,3.504-12.139,1.162c0,0,7.032,5.465,13.102,6.645
	l-2.054,1.374c0,0,4.602,2.348,9.861,1.221c0,0,1.338,3.78-2.771,4.766C240.63,455.315,263.37,456.776,259.701,444.144z"/>
<path style="fill:#DE7039;" d="M259.701,444.144c0,0-1.814-3.645-7.995-8.059l1.15,3.375c0,0-6.064-5.13-17.651-5.835
	c0,0,5.441,4.549,6.269,5.706c0,0-4.937-1.931-9.462-1.831l2.618,2.647c0,0-5.758,3.264-11.517,1.385h0.006
	C237.677,449.098,259.701,444.144,259.701,444.144z"/>
<path style="fill:#993A29;" d="M268.952,440.411c-4.038,1.626-8.899,3.305-14.845,4.25c-1.632-2.254-5.183-5.477-8.124-5.952
	c3.422,1.632,6.099,4.849,7.067,6.111c-2.319,0.329-4.796,0.54-7.449,0.599c-1.174-1.62-3.745-3.54-5.993-3.645
	c2.336,0.787,4.097,2.688,4.89,3.663c-4.807,0.029-10.178-0.458-16.177-1.702c4.714,1.385,9.31,2.06,13.63,2.278
	c-0.528,0.751-2.043,2.612-4.32,2.953c2.489,0.194,4.837-1.397,5.207-2.911c2.278,0.076,4.461,0.029,6.545-0.106
	c0.37,0.687,2.096,4.238-0.851,6.158c3.064-0.117,3.187-4.08,1.925-6.234h-0.018c1.444-0.117,2.829-0.276,4.15-0.464h0.012h-0.006
	c9.204-1.321,15.291-4.08,15.32-4.097L268.952,440.411z"/>
<path style="fill:#D2683B;" d="M95.656,396.434c0,0-2.119-4.273-9.357-9.439l1.35,3.956c0,0-7.103-6.011-20.68-6.844
	c0,0,6.375,5.336,7.343,6.692c0,0-5.782-2.26-11.082-2.142l3.064,3.093c0,0-7.243,4.103-14.217,1.362c0,0,8.241,6.404,15.35,7.783
	l-2.407,1.608c0,0,5.389,2.747,11.552,1.432c0,0,1.561,4.426-3.246,5.576C73.326,409.512,99.958,411.232,95.656,396.434z"/>
<path style="fill:#DE7039;" d="M95.656,396.434c0,0-2.119-4.273-9.357-9.439l1.35,3.956c0,0-7.103-6.011-20.68-6.844
	c0,0,6.375,5.336,7.343,6.692c0,0-5.782-2.26-11.082-2.142l3.064,3.093c0,0-6.744,3.821-13.489,1.62h0.006
	C69.863,402.233,95.656,396.434,95.656,396.434z"/>
<path style="fill:#993A29;" d="M106.497,392.061c-4.731,1.908-10.425,3.868-17.387,4.978c-1.914-2.647-6.069-6.416-9.515-6.968
	c4.009,1.908,7.144,5.67,8.277,7.15c-2.718,0.387-5.617,0.64-8.723,0.71c-1.374-1.902-4.391-4.15-7.02-4.273
	c2.729,0.922,4.802,3.146,5.729,4.291c-5.635,0.029-11.928-0.54-18.954-1.996c5.524,1.62,10.912,2.413,15.966,2.665
	c-0.616,0.886-2.395,3.064-5.054,3.451c2.906,0.235,5.664-1.626,6.099-3.405c2.659,0.094,5.218,0.041,7.66-0.117
	c0.434,0.798,2.454,4.966-0.992,7.208c3.581-0.135,3.733-4.772,2.248-7.302h-0.018c1.685-0.135,3.311-0.323,4.854-0.546l0.012,0.006
	v-0.006c10.777-1.544,17.915-4.778,17.95-4.796L106.497,392.061z"/>
<path style="fill:#D2683B;" d="M174.869,403.372c0,0-3.275,2.424-10.777,3.551l2.559-2.489c0,0-7.736,1.82-18.384-2.812
	c0,0,6.915-1.585,8.177-2.236c0,0-5.271-0.522-9.257-2.665l3.534-1.174c0,0-3.921-5.923-10.29-6.539c0,0,8.752-1.679,14.692,0.023
	l-1.209-2.154c0,0,5.165,0,9.345,3.387c0,0,2.906-2.759-0.311-5.5C162.948,384.765,183.874,393.781,174.869,403.372z"/>
<path style="fill:#DE7039;" d="M174.869,403.372c0,0-3.275,2.424-10.777,3.551l2.559-2.489c0,0-7.736,1.82-18.384-2.812
	c0,0,6.915-1.585,8.177-2.236c0,0-5.271-0.522-9.257-2.665l3.534-1.174c0,0-3.651-5.518-9.632-6.457l0,0
	C157.495,388.956,174.869,403.372,174.869,403.372z"/>
<path style="fill:#993A29;" d="M181.42,410.897c-2.859-3.287-6.433-6.985-11.3-10.525c-2.477,1.268-7.103,2.524-9.938,1.614
	c3.786,0.1,7.637-1.55,9.069-2.236c-1.914-1.344-4.027-2.659-6.357-3.915c-1.784,0.904-4.948,1.456-7.003,0.528
	c2.436,0.358,4.872-0.534,6.022-1.045c-4.279-2.207-9.274-4.215-15.191-5.829c4.831,0.904,9.233,2.389,13.184,4.162
	c-0.135-0.916-0.64-3.258-2.512-4.59c2.307,0.951,3.68,3.44,3.316,4.954c2.06,0.963,3.992,1.996,5.782,3.064
	c0.64-0.446,3.798-2.829,2.043-5.87c2.671,1.491,0.986,5.077-1.115,6.428l-0.018-0.012c1.233,0.763,2.395,1.532,3.487,2.301
	l0.006,0.006l0,0c7.596,5.353,11.769,10.578,11.793,10.601L181.42,410.897z"/>
<path style="fill:#D2683B;" d="M200.844,391.685c0,0,2.266-3.387,8.952-6.973l-1.573,3.199c0,0,6.668-4.32,18.255-3.545
	c0,0-5.976,3.821-6.944,4.86c0,0,5.136-1.285,9.615-0.61l-2.935,2.295c0,0,5.694,4.256,11.898,2.688c0,0-7.678,4.532-13.847,4.931
	l1.867,1.62c0,0-4.86,1.743-9.938-0.041c0,0-1.808,3.581,2.148,5.077C218.342,405.186,195.596,403.748,200.844,391.685z"/>
<path style="fill:#DE7039;" d="M200.844,391.685c0,0,2.266-3.387,8.952-6.973l-1.573,3.199c0,0,6.668-4.32,18.255-3.545
	c0,0-5.976,3.821-6.944,4.86c0,0,5.136-1.285,9.615-0.61l-2.935,2.295c0,0,5.301,3.968,11.253,2.835h-0.006
	C222.063,399.398,200.844,391.685,200.844,391.685z"/>
<path style="fill:#993A29;" d="M192.139,386.807c3.798,2.131,8.412,4.408,14.182,6.099c1.908-2.031,5.841-4.772,8.817-4.866
	c-3.598,1.18-6.668,4.027-7.783,5.16c2.254,0.616,4.684,1.15,7.308,1.544c1.374-1.456,4.168-3.035,6.41-2.853
	c-2.413,0.481-4.408,2.143-5.312,3.011c4.766,0.64,10.149,0.834,16.26,0.364c-4.849,0.775-9.497,0.863-13.812,0.528
	c0.429,0.816,1.696,2.853,3.909,3.475c-2.489-0.117-4.62-1.996-4.79-3.551c-2.266-0.211-4.432-0.534-6.48-0.933
	c-0.452,0.634-2.618,3.939,0.065,6.216c-3.023-0.505-2.647-4.449-1.115-6.428h0.012c-1.409-0.299-2.765-0.634-4.05-0.986
	l-0.012-0.006l0,0c-8.957-2.477-14.651-5.987-14.681-6.005L192.139,386.807z"/>
<path style="fill:#D2683B;" d="M53.891,364.783c0,0-1.831,2.436-6.968,4.854l1.303-2.33c0,0-5.154,2.964-13.782,1.925
	c0,0,4.62-2.624,5.383-3.358c0,0-3.886,0.757-7.208,0.076l2.283-1.602c0,0-4.08-3.41-8.775-2.483c0,0,5.911-3.082,10.536-3.129
	l-1.332-1.286c0,0,3.704-1.109,7.425,0.423c0,0,1.491-2.6-1.397-3.874C41.359,354.001,58.294,355.979,53.891,364.783z"/>
<path style="fill:#DE7039;" d="M53.891,364.783c0,0-1.831,2.436-6.968,4.854l1.303-2.33c0,0-5.154,2.964-13.782,1.925
	c0,0,4.62-2.624,5.383-3.358c0,0-3.886,0.757-7.208,0.076l2.283-1.602c0,0-3.798-3.176-8.294-2.565h0.006
	C38.342,358.174,53.891,364.783,53.891,364.783z"/>
<path style="fill:#993A29;" d="M60.196,368.775c-2.753-1.743-6.105-3.628-10.354-5.124c-1.503,1.444-4.549,3.334-6.774,3.287
	c2.735-0.74,5.136-2.747,6.017-3.545c-1.661-0.552-3.457-1.045-5.394-1.444c-1.086,1.033-3.234,2.101-4.907,1.878
	c1.826-0.264,3.381-1.426,4.091-2.043c-3.534-0.663-7.549-1.027-12.133-0.916c3.651-0.387,7.132-0.27,10.337,0.153
	c-0.288-0.628-1.15-2.195-2.776-2.753c1.855,0.188,3.369,1.679,3.434,2.847c1.685,0.241,3.287,0.575,4.802,0.951
	c0.364-0.452,2.119-2.835,0.205-4.643c2.236,0.499,1.796,3.428,0.575,4.843h-0.012c1.045,0.282,2.043,0.587,2.994,0.904h0.006l0,0
	c6.592,2.207,10.701,5.06,10.724,5.077L60.196,368.775z"/>
<path style="fill:#D2683B;" d="M192.109,371.311c0,0-1.826,2.442-6.962,4.854l1.297-2.33c0,0-5.154,2.964-13.777,1.925
	c0,0,4.614-2.618,5.377-3.358c0,0-3.886,0.757-7.208,0.07l2.283-1.591c0,0-4.08-3.41-8.775-2.489c0,0,5.911-3.076,10.536-3.129
	l-1.327-1.285c0,0,3.704-1.109,7.425,0.428c0,0,1.491-2.6-1.403-3.88C179.577,360.528,196.512,362.506,192.109,371.311z"/>
<path style="fill:#DE7039;" d="M192.109,371.311c0,0-1.826,2.442-6.962,4.854l1.297-2.33c0,0-5.154,2.964-13.777,1.925
	c0,0,4.614-2.618,5.377-3.358c0,0-3.886,0.757-7.208,0.07l2.283-1.591c0,0-3.798-3.176-8.288-2.565h0.006
	C176.566,364.707,192.109,371.311,192.109,371.311z"/>
<path style="fill:#993A29;" d="M198.414,375.302c-2.747-1.743-6.105-3.628-10.349-5.124c-1.509,1.444-4.555,3.334-6.78,3.287
	c2.735-0.74,5.142-2.741,6.022-3.545c-1.661-0.552-3.457-1.045-5.4-1.444c-1.086,1.033-3.234,2.107-4.901,1.878
	c1.82-0.264,3.375-1.426,4.091-2.037c-3.534-0.669-7.555-1.033-12.139-0.922c3.657-0.387,7.132-0.27,10.343,0.159
	c-0.294-0.628-1.156-2.201-2.782-2.753c1.855,0.188,3.369,1.673,3.44,2.841c1.685,0.247,3.287,0.575,4.796,0.957
	c0.364-0.458,2.119-2.841,0.205-4.643c2.236,0.493,1.802,3.422,0.575,4.843h-0.012c1.045,0.276,2.049,0.581,2.994,0.898h0.006l0,0
	c6.592,2.213,10.701,5.06,10.724,5.077L198.414,375.302z"/>
<path style="fill:#D2683B;" d="M120.761,301.764c0,0,3.892-1.18,11.341,0.288l-3.246,1.479c0,0,7.895,0.892,16.359,8.84
	c0,0-7.044-0.833-8.453-0.646c0,0,4.784,2.266,7.819,5.629l-3.721-0.088c0,0,1.696,6.903,7.484,9.627c0,0-8.805-1.368-13.829-4.978
	l0.417,2.436c0,0-4.86-1.737-7.66-6.334c0,0-3.663,1.62-1.561,5.283C125.709,323.301,109.045,307.758,120.761,301.764z"/>
<path style="fill:#DE7039;" d="M120.761,301.764c0,0,3.892-1.18,11.341,0.288l-3.246,1.479c0,0,7.895,0.892,16.359,8.84
	c0,0-7.044-0.833-8.453-0.646c0,0,4.784,2.266,7.819,5.629l-3.721-0.088c0,0,1.579,6.428,6.897,9.327h-0.006
	C132.26,321.188,120.761,301.764,120.761,301.764z"/>
<path style="fill:#993A29;" d="M117.128,292.472c1.579,4.056,3.698,8.746,7.091,13.718c2.759-0.364,7.537,0.012,9.897,1.831
	c-3.528-1.374-7.707-1.115-9.286-0.951c1.35,1.908,2.894,3.857,4.667,5.829c1.99-0.258,5.148,0.294,6.768,1.861
	c-2.172-1.156-4.766-1.145-6.017-1.045c3.275,3.516,7.314,7.085,12.333,10.601c-4.238-2.483-7.889-5.359-11.006-8.359
	c-0.188,0.904-0.499,3.281,0.816,5.165c-1.849-1.667-2.307-4.473-1.456-5.782c-1.614-1.597-3.082-3.223-4.414-4.831
	c-0.751,0.2-4.52,1.379-3.892,4.843c-2.019-2.313,0.775-5.119,3.217-5.676l0.012,0.012c-0.904-1.127-1.743-2.242-2.506-3.34
	l-0.012-0.006l0,0c-5.347-7.596-7.519-13.923-7.531-13.959L117.128,292.472z"/>
<path style="fill:#D2683B;" d="M51.532,177.892c0,0-1.89-3.604-1.843-11.194l2.06,2.911c0,0-0.605-7.924,5.617-17.727
	c0,0,0.499,7.079,0.951,8.423c0,0,1.332-5.124,4.068-8.734l0.605,3.675c0,0,6.463-2.958,8.059-9.157c0,0,0.305,8.905-2.301,14.51
	l2.319-0.857c0,0-0.792,5.101-4.796,8.705c0,0,2.278,3.299,5.488,0.546C71.759,168.994,59.614,188.276,51.532,177.892z"/>
<path style="fill:#DE7039;" d="M51.532,177.892c0,0-1.89-3.604-1.843-11.194l2.06,2.911c0,0-0.605-7.924,5.617-17.727
	c0,0,0.499,7.079,0.951,8.423c0,0,1.332-5.124,4.068-8.734l0.605,3.675c0,0,6.022-2.759,7.877-8.523v0.006
	C68.454,162.954,51.532,177.892,51.532,177.892z"/>
<path style="fill:#993A29;" d="M43.079,183.199c3.692-2.313,7.901-5.271,12.151-9.533c-0.869-2.641-1.403-7.408-0.059-10.067
	c-0.687,3.727,0.346,7.783,0.804,9.304c1.626-1.685,3.252-3.563,4.854-5.676c-0.622-1.902-0.675-5.113,0.564-6.997
	c-0.728,2.354-0.229,4.895,0.1,6.111c2.841-3.886,5.594-8.517,8.106-14.111c-1.644,4.631-3.792,8.758-6.152,12.385
	c0.922,0.012,3.316-0.123,4.925-1.773c-1.297,2.131-3.968,3.099-5.412,2.512c-1.262,1.884-2.589,3.633-3.915,5.242
	c0.335,0.699,2.201,4.185,5.482,2.917c-1.89,2.413-5.171,0.194-6.175-2.096l0.006-0.012c-0.939,1.098-1.878,2.125-2.806,3.088
	l-0.006,0.006h-0.006c-6.457,6.68-12.262,9.996-12.297,10.014L43.079,183.199z"/>
<path style="fill:#D3DF56;" d="M244.973,361.127l-11.98,4.766c0.041-0.018,0.082-0.029,0.123-0.047
	C237.166,364.273,241.123,362.7,244.973,361.127z M486.413,367.671c-2.078,4.279-4.279,8.488-6.586,12.632
	c-37.831-45.668-86.95-75.516-138.846-94.675c-1.432-0.528-2.865-1.051-4.297-1.561c2.894-0.112,5.805-0.176,8.723-0.2l-4.338,1.726
	c0.041-0.018,0.082-0.035,0.123-0.047l4.285-1.679c0.845-0.012,1.691-0.029,2.536-0.029c4.766,0,9.509,0.123,14.205,0.352
	C408.138,302.158,451.534,328.778,486.413,367.671z M475.765,387.341c-2.383,3.992-4.872,7.907-7.461,11.751
	c-37.99-46.489-87.596-76.766-140.038-96.131c-13.313-4.919-26.802-9.134-40.332-12.726c5.083-1.109,10.237-2.066,15.45-2.894
	l37.08,10.765C390.623,316.398,438.28,344.597,475.765,387.341z M460.269,410.304c-2.812,3.71-5.717,7.343-8.717,10.894
	c-38.882-52.348-91.828-85.63-148.032-106.38c-16.201-5.981-32.678-10.93-49.16-14.986c4.062-1.456,8.177-2.829,12.356-4.097
	l49.008,14.229C370.102,329.793,421.539,361.273,460.269,410.304z M442.941,430.867c-3.017,3.234-6.122,6.386-9.31,9.456
	c-39.393-52.805-95.65-89.833-151.76-110.553c-15.866-5.858-38.812-12.28-57.695-16.923c3.463-1.767,6.985-3.463,10.566-5.083
	l2.013,0.452l-0.053,0.047l57.366,16.653C350.502,345.495,403.765,378.613,442.941,430.867z M420.565,452.08
	c-3.457,2.911-6.997,5.735-10.607,8.458c-40.003-53.34-100.117-93.56-156.25-114.286c-18.842-6.962-38.049-12.515-57.214-16.905
	c2.718-1.872,5.488-3.698,8.306-5.477l3.792,0.822l-0.047,0.047l57.36,16.653C321.129,361.532,380.409,400.549,420.565,452.08z
	 M396.293,470.148c-3.827,2.506-7.713,4.925-11.675,7.232c-39.181-55.283-93.718-90.032-151.713-111.451
	c-19.858-7.331-40.115-13.102-60.307-17.598l0.217-0.2l5.811-5.095l0.616-0.517l8.547,1.855l-0.047,0.047l57.36,16.653
	C302.657,382.059,356.912,416.074,396.293,470.148z M340.335,298.16l-11.98,4.766c0.041-0.018,0.082-0.029,0.123-0.047
	C332.529,301.307,336.485,299.734,340.335,298.16z M315.594,310.012l-11.98,4.772c0.035-0.018,0.076-0.035,0.117-0.047
	C307.781,313.164,311.743,311.591,315.594,310.012z M293.94,324.968l-11.98,4.766c0.041-0.012,0.082-0.029,0.123-0.047
	C286.133,328.114,290.089,326.541,293.94,324.968z M265.776,341.445l-11.98,4.772c0.041-0.018,0.082-0.035,0.123-0.053
	C257.969,344.591,261.926,343.018,265.776,341.445z"/>
<path style="fill:#D2683B;" d="M198.707,213.669c0,0,0.787-3.997,5.571-9.885l-0.217,3.563c0,0,4.49-6.557,15.479-10.307
	c0,0-4.044,5.829-4.532,7.161c0,0,4.244-3.164,8.64-4.267l-1.826,3.246c0,0,6.891,1.737,12.016-2.096c0,0-5.336,7.138-10.883,9.879
	l2.348,0.775c0,0-3.815,3.481-9.186,3.798c0,0-0.288,3.992,3.933,3.857C220.05,219.393,198.513,226.824,198.707,213.669z"/>
<path style="fill:#DE7039;" d="M198.707,213.669c0,0,0.787-3.997,5.571-9.885l-0.217,3.563c0,0,4.49-6.557,15.479-10.307
	c0,0-4.044,5.829-4.532,7.161c0,0,4.244-3.164,8.64-4.267l-1.826,3.246c0,0,6.416,1.62,11.47-1.72v0.006
	C221.253,212.613,198.707,213.669,198.707,213.669z"/>
<path style="fill:#993A29;" d="M188.793,212.519c4.326,0.505,9.462,0.834,15.444,0.17c0.974-2.612,3.545-6.651,6.257-7.889
	c-2.865,2.477-4.602,6.287-5.195,7.76c2.324-0.293,4.766-0.745,7.337-1.391c0.704-1.872,2.677-4.408,4.819-5.101
	c-2.043,1.374-3.246,3.675-3.745,4.825c4.643-1.25,9.691-3.14,15.15-5.929c-4.179,2.583-8.435,4.455-12.544,5.811
	c0.71,0.587,2.659,1.972,4.942,1.696c-2.342,0.851-5.03-0.065-5.788-1.426c-2.172,0.675-4.297,1.209-6.339,1.632
	c-0.17,0.757-0.898,4.649,2.454,5.711c-2.988,0.699-4.156-3.088-3.504-5.5l0.012-0.006c-1.421,0.27-2.8,0.481-4.121,0.652h-0.012
	l0,0c-9.222,1.162-15.825,0.117-15.86,0.112L188.793,212.519z"/>
<polygon style="fill:#FFFFFF;" points="358.415,249.57 386.097,221.476 414.601,249.57 414.601,295.971 358.415,295.971 "/>
<polygon style="fill:#747474;" points="376.2,264.262 396.815,264.262 396.815,295.971 376.2,295.971 "/>
<polygon style="fill:#FF3C00;" points="341.592,256.854 351.465,256.854 386.032,220.772 421.246,256.854 431.307,256.854 
	386.032,210.459 "/>
<polygon style="fill:#F3501E;" points="425.56,251.002 471.451,251.002 471.451,321.593 425.56,321.593 "/>
<polygon style="fill:#FBD734;" points="425.56,251.002 471.451,251.002 447.461,212.319 "/>
<polygon style="fill:#747474;" points="436.525,269.022 460.48,269.022 460.48,321.593 436.525,321.593 "/>
<polygon style="fill:#BBBBBB;" points="472.355,269.022 496.31,269.022 496.31,321.593 472.355,321.593 "/>
<path style="fill:#FFFFFF;" d="M210.423,24.595c3.909,0,7.596,0.927,10.859,2.577c3.534-3.463,8.376-5.594,13.712-5.594
	c9.245,0,16.993,6.398,19.065,15.003c4.62,1.391,8.329,4.878,10.02,9.357c0.552-0.065,1.115-0.088,1.685-0.088
	c8.541,0,15.473,6.926,15.473,15.467c0,8.547-6.932,15.467-15.473,15.467c-2.659,0-5.165-0.669-7.349-1.849
	c-1.878,6.428-7.813,11.118-14.851,11.118c-4.297,0-8.188-1.749-10.988-4.584c-2.806,2.835-6.692,4.584-10.994,4.584
	c-4.08,0-7.801-1.585-10.566-4.168c-2.829,3.088-6.891,5.03-11.417,5.03c-4.232,0-8.065-1.696-10.853-4.449
	c-1.28,0.282-2.612,0.428-3.968,0.428c-10.178,0-18.431-8.247-18.431-18.426s8.253-18.431,18.431-18.431
	c0.552,0,1.104,0.029,1.644,0.082C187.73,34.016,197.973,24.595,210.423,24.595z"/>
<polygon style="fill:#747474;" points="478.53,288.364 490.129,288.364 490.129,321.593 478.53,321.593 "/>
<g>
	<path style="fill:#9BCB64;" d="M219.621,304.247c0.123,0.487-0.311,0.898-0.446,1.016c0.816-0.657,1.203,0.141,1.203,0.141
		c1.197,0.194-0.059,1.145-0.059,1.145c-0.434,0.17-0.71-0.293-0.71-0.293c-1.098,0.54-0.481,0.851-0.481,0.851
		c0.816-0.194,0.323,0.517,0.323,0.517l-0.493,0.076l-0.599,0.317l0.029,0.211l0.452-0.059l0.047,0.352l-0.534,0.247l0.164,0.399
		c0.616,0.88-1.456,1.303-1.456,1.303c-0.329,2.636-2.788,1.685-3.375,1.426c-0.434,0.211-0.91,0.358-1.409,0.423
		c-1.262,0.17-2.459-0.158-3.416-0.833c-0.728,0.147-1.52-0.065-1.52-0.065c-0.834,0.094-0.499-1.139-0.499-1.139
		c-0.663,1.362-1.62,0.182-1.62,0.182c-0.91-0.974,0.188-1.55,0.188-1.55c-0.528-0.599,0.2-1.086,0.2-1.086
		c-1.385-0.258-1.708-0.98-1.773-1.421c-0.593-0.182-1.068-0.382-1.362-0.511c-1.08,0.511-2.254,0.875-3.493,1.045
		c-3.105,0.423-6.087-0.382-8.447-2.06c-1.808,0.358-3.763-0.147-3.763-0.147c-2.084,0.205-1.256-2.835-1.256-2.835
		c-1.115,2.33-2.583,1.667-3.387,1.027c0.147,0.716-1.567,1.074-1.567,1.074c-0.323,2.636-2.782,1.685-3.363,1.426
		c-0.428,0.205-0.916,0.352-1.415,0.417c-1.25,0.176-2.454-0.158-3.416-0.828c-0.728,0.147-1.514-0.065-1.514-0.065
		c-0.845,0.088-0.505-1.145-0.505-1.145c-0.652,1.368-1.62,0.188-1.62,0.188c-0.91-0.974,0.2-1.544,0.2-1.544
		c-0.528-0.61,0.194-1.098,0.194-1.098c-2.066-0.393-1.779-1.784-1.779-1.784c-0.945-1.233-0.018-2.289-0.018-2.289
		c-0.129-0.112-0.223-0.217-0.282-0.323c-1.168,0.106-2.283-0.217-3.181-0.857c-0.728,0.141-1.52-0.07-1.52-0.07
		c-0.851,0.094-0.517-1.145-0.517-1.145c-0.657,1.379-1.62,0.188-1.62,0.188c-0.922-0.98,0.194-1.556,0.194-1.556
		c-0.534-0.605,0.2-1.104,0.2-1.104c-2.084-0.387-1.79-1.796-1.79-1.796c-0.951-1.239-0.018-2.307-0.018-2.307
		c-0.822-0.669-0.065-1.338-0.065-1.338c-0.27-0.822,0.898-0.792,0.898-0.792c-1.168-2.219,0.898-2.471,0.898-2.471
		c0.376-1.068,1.303-0.417,1.303-0.417c0.47-1.192,2.09-0.293,2.09-0.293c-0.481-1.016,1.039-1.021,1.039-1.021
		c0.299-0.164,0.564-0.188,0.798-0.123c-0.006-0.135,0.012-0.223,0.012-0.223c-0.951-1.227-0.018-2.289-0.018-2.289
		c-0.822-0.675-0.065-1.35-0.065-1.35c-0.117-0.352,0.035-0.546,0.247-0.657c-0.922-2.137,0.564-3.821,0.564-3.821
		c-1.732-1.403-0.147-2.818-0.147-2.818c-0.564-1.714,1.884-1.661,1.884-1.661c-2.442-4.655,1.884-5.171,1.884-5.171
		c0.787-2.236,2.724-0.88,2.724-0.88c0.98-2.477,4.379-0.605,4.379-0.605c-1.004-2.125,2.184-2.148,2.184-2.148
		c2.137-1.192,3.633,1.344,3.633,1.344c1.274-1.655,2.324-2.231,3.164-2.272c-0.71-2.307,1.626-2.594,1.626-2.594
		c0.528-1.497,1.826-0.587,1.826-0.587c0.657-1.661,2.929-0.405,2.929-0.405c-0.669-1.421,1.467-1.432,1.467-1.432
		c1.432-0.798,2.43,0.898,2.43,0.898c2.536-3.316,3.774-0.182,3.774-0.182c4.314-2.113,5.013,1.878,5.013,1.878
		c0.875-1.127,2.054,0.029,3.187,1.644c0.751,1.074,0.264,2.043-0.147,2.577c0.751,0.428,1.197,1.192,1.197,1.192
		c3.358-4.379,4.989-0.241,4.989-0.241c5.682-2.8,6.604,2.483,6.604,2.483c1.15-1.491,2.712,0.035,4.215,2.172
		c1.497,2.137-0.722,3.95-0.722,3.95c1.567,1.368-0.81,2.289-0.81,2.289c1.274,1.221,0.012,2.43-0.311,2.7
		c1.503-1.221,2.242,0.27,2.242,0.27c2.219,0.364-0.112,2.125-0.112,2.125c-0.81,0.311-1.327-0.534-1.327-0.534
		c-1.098,0.54-1.274,0.957-1.203,1.221c2.776-0.64,3.27,2.16,3.27,2.16c0.787-1.016,1.855,0.029,2.888,1.491
		c1.021,1.456-0.499,2.7-0.499,2.7c1.074,0.939-0.558,1.573-0.558,1.573c0.88,0.833,0.012,1.661-0.211,1.849
		c1.039-0.845,1.532,0.176,1.532,0.176c1.52,0.252-0.07,1.462-0.07,1.462c-0.558,0.211-0.91-0.37-0.91-0.37
		c-0.399,0.2-0.622,0.376-0.734,0.522c1.027,0.411,1.244,1.649,1.244,1.649c0.616-0.804,1.456,0.018,2.272,1.174
		c0.81,1.151-0.393,2.137-0.393,2.137c0.851,0.74-0.434,1.244-0.434,1.244c0.693,0.646,0.006,1.303-0.17,1.45
		c0.822-0.657,1.215,0.141,1.215,0.141c1.197,0.194-0.059,1.15-0.059,1.15c-0.44,0.17-0.716-0.282-0.716-0.282
		c-1.104,0.54-0.493,0.845-0.493,0.845c0.828-0.188,0.34,0.528,0.34,0.528l-0.511,0.065l-0.599,0.335l0.035,0.2l0.458-0.053
		l0.047,0.346l-0.54,0.252l0.164,0.405c0.622,0.875-1.467,1.309-1.467,1.309c-0.323,2.647-2.812,1.696-3.381,1.432
		c-0.446,0.205-0.916,0.358-1.426,0.423c-1.262,0.176-2.471-0.159-3.434-0.834L219.621,304.247z"/>
	<path style="fill:#4E342E;" d="M195.379,345.982c0,0-0.223-1.268,0.135-5.588l-1.233-13.947c0,0-0.217-5.124,0.446-6.609
		c0,0,10.049-9.756,12.092-10.296c0,0,1.456-12.779,3.287-13.031l-1.82-1.074c0,0-1.638,12.063-2.823,13.9
		c0,0-4.643-17.439-3.921-19.277l-0.669,0.522c0,0,2.172,17.41,1.773,18.619l-2.97,3.052c0,0-1.015,3.082-1.626,1.685
		c0,0-5.67-3.457-2.865-21.672l-2.283-1.467l-1.89,11.98c0,0,1.315,0,0.734,3.041c0,0,2.313,7.243,1.949,7.96
		c0,0-0.552,3.451-2.06,2.436l-3.176-7.496c0,0-2.671-10.707-0.869-12.356l-0.687-0.863c0,0-1.192,5.312-0.229,9.192
		c0,0-4.866-5.389-6.375-5.377l0.041,0.969c0,0,0.927-1.914,5.946,5.424c0,0,3.457,9.721,3.575,11.622c0,0-0.399,5.811-0.164,6.903
		c0,0,3.029,15.52-1.955,20.186L195.379,345.982z"/>
	<path style="fill:#9BCB64;" d="M240.09,319.591c0.082,0.323-0.211,0.61-0.305,0.687c0.558-0.446,0.822,0.1,0.822,0.1
		c0.822,0.129-0.041,0.775-0.041,0.775c-0.294,0.117-0.481-0.2-0.481-0.2c-0.751,0.37-0.335,0.581-0.335,0.581
		c0.558-0.129,0.229,0.352,0.229,0.352l-0.34,0.053l-0.405,0.217l0.018,0.147l0.305-0.041l0.035,0.241l-0.364,0.164l0.112,0.276
		c0.417,0.599-0.992,0.886-0.992,0.886c-0.223,1.796-1.902,1.151-2.301,0.969c-0.299,0.147-0.622,0.247-0.957,0.293
		c-0.863,0.117-1.679-0.106-2.336-0.569c-0.493,0.1-1.033-0.047-1.033-0.047c-0.575,0.065-0.346-0.775-0.346-0.775
		c-0.446,0.933-1.098,0.129-1.098,0.129c-0.622-0.669,0.129-1.062,0.129-1.062c-0.364-0.405,0.135-0.74,0.135-0.74
		c-0.951-0.176-1.168-0.663-1.209-0.969c-0.405-0.123-0.734-0.258-0.933-0.352c-0.734,0.358-1.532,0.599-2.377,0.716
		c-2.119,0.293-4.15-0.264-5.758-1.403c-1.233,0.247-2.565-0.106-2.565-0.106c-1.421,0.147-0.857-1.925-0.857-1.925
		c-0.763,1.591-1.761,1.133-2.313,0.699c0.1,0.487-1.068,0.734-1.068,0.734c-0.217,1.796-1.896,1.15-2.295,0.969
		c-0.293,0.141-0.616,0.241-0.963,0.288c-0.851,0.123-1.673-0.106-2.33-0.564c-0.493,0.1-1.033-0.047-1.033-0.047
		c-0.569,0.065-0.34-0.781-0.34-0.781c-0.446,0.933-1.104,0.129-1.104,0.129c-0.622-0.663,0.135-1.057,0.135-1.057
		c-0.364-0.411,0.123-0.745,0.123-0.745c-1.403-0.264-1.203-1.215-1.203-1.215c-0.646-0.845-0.018-1.567-0.018-1.567
		c-0.082-0.07-0.147-0.141-0.188-0.217c-0.798,0.076-1.561-0.147-2.166-0.581c-0.505,0.1-1.045-0.047-1.045-0.047
		c-0.575,0.065-0.346-0.781-0.346-0.781c-0.452,0.939-1.109,0.129-1.109,0.129c-0.628-0.669,0.135-1.068,0.135-1.068
		c-0.364-0.405,0.135-0.745,0.135-0.745c-1.421-0.27-1.221-1.227-1.221-1.227c-0.652-0.845-0.006-1.573-0.006-1.573
		c-0.569-0.452-0.053-0.91-0.053-0.91c-0.176-0.564,0.616-0.54,0.616-0.54c-0.792-1.514,0.61-1.685,0.61-1.685
		c0.258-0.734,0.892-0.288,0.892-0.288c0.317-0.81,1.421-0.2,1.421-0.2c-0.329-0.693,0.71-0.699,0.71-0.699
		c0.2-0.106,0.387-0.123,0.54-0.082c0-0.094,0.012-0.147,0.012-0.147c-0.646-0.845-0.012-1.567-0.012-1.567
		c-0.564-0.458-0.041-0.916-0.041-0.916c-0.082-0.247,0.023-0.376,0.164-0.452c-0.628-1.462,0.382-2.6,0.382-2.6
		c-1.18-0.963-0.094-1.925-0.094-1.925c-0.387-1.168,1.28-1.133,1.28-1.133c-1.661-3.176,1.286-3.528,1.286-3.528
		c0.54-1.526,1.861-0.599,1.861-0.599c0.669-1.691,2.982-0.411,2.982-0.411c-0.681-1.456,1.491-1.467,1.491-1.467
		c1.462-0.81,2.477,0.916,2.477,0.916c0.869-1.127,1.585-1.52,2.154-1.544c-0.481-1.579,1.115-1.773,1.115-1.773
		c0.358-1.021,1.239-0.405,1.239-0.405c0.452-1.127,2.002-0.27,2.002-0.27c-0.458-0.974,0.998-0.98,0.998-0.98
		c0.974-0.546,1.655,0.61,1.655,0.61c1.737-2.254,2.577-0.123,2.577-0.123c2.941-1.438,3.416,1.285,3.416,1.285
		c0.599-0.769,1.403,0.018,2.178,1.121c0.511,0.728,0.176,1.391-0.1,1.755c0.511,0.293,0.816,0.81,0.816,0.81
		c2.283-2.982,3.399-0.158,3.399-0.158c3.874-1.914,4.508,1.691,4.508,1.691c0.781-1.016,1.843,0.018,2.87,1.479
		c1.021,1.456-0.493,2.694-0.493,2.694c1.068,0.933-0.552,1.561-0.552,1.561c0.863,0.828,0.006,1.655-0.211,1.843
		c1.021-0.834,1.526,0.182,1.526,0.182c1.514,0.247-0.076,1.45-0.076,1.45c-0.552,0.211-0.904-0.364-0.904-0.364
		c-0.745,0.364-0.869,0.646-0.822,0.833c1.896-0.44,2.231,1.473,2.231,1.473c0.534-0.693,1.268,0.018,1.966,1.01
		c0.699,0.998-0.34,1.849-0.34,1.849c0.74,0.634-0.376,1.068-0.376,1.068c0.599,0.569,0.006,1.133-0.147,1.262
		c0.71-0.575,1.051,0.117,1.051,0.117c1.033,0.176-0.053,0.998-0.053,0.998c-0.382,0.141-0.616-0.252-0.616-0.252
		c-0.276,0.135-0.428,0.258-0.505,0.358c0.704,0.276,0.851,1.127,0.851,1.127c0.417-0.552,0.992,0.012,1.55,0.798
		c0.552,0.781-0.27,1.456-0.27,1.456c0.581,0.505-0.294,0.845-0.294,0.845c0.47,0.446,0.006,0.892-0.117,0.992
		c0.558-0.452,0.822,0.1,0.822,0.1c0.822,0.129-0.035,0.781-0.035,0.781c-0.305,0.117-0.487-0.194-0.487-0.194
		c-0.751,0.37-0.34,0.575-0.34,0.575c0.569-0.123,0.235,0.358,0.235,0.358l-0.346,0.047l-0.405,0.235l0.023,0.135l0.311-0.041
		l0.029,0.241l-0.364,0.164l0.106,0.282c0.429,0.599-0.998,0.892-0.998,0.892c-0.223,1.802-1.914,1.156-2.307,0.974
		c-0.305,0.141-0.628,0.247-0.969,0.293c-0.869,0.117-1.685-0.112-2.348-0.569L240.09,319.591z"/>
	<path style="fill:#4E342E;" d="M223.56,348.043c0,0-0.153-0.863,0.094-3.804l-0.845-9.515c0,0-0.147-3.498,0.305-4.508
		c0,0,6.856-6.651,8.247-7.02c0,0,0.998-8.711,2.242-8.881l-1.244-0.734c0,0-1.115,8.224-1.925,9.48c0,0-3.158-11.898-2.671-13.149
		l-0.458,0.358c0,0,1.485,11.875,1.209,12.691l-2.025,2.09c0,0-0.687,2.101-1.109,1.145c0,0-3.862-2.36-1.949-14.774l-1.561-1.004
		l-1.286,8.171c0,0,0.898,0,0.499,2.078c0,0,1.579,4.937,1.332,5.424c0,0-0.382,2.348-1.409,1.661l-2.166-5.113
		c0,0-1.82-7.302-0.587-8.429l-0.47-0.587c0,0-0.816,3.622-0.164,6.269c0,0-3.311-3.675-4.338-3.669l0.029,0.663
		c0,0,0.628-1.303,4.05,3.698c0,0,2.354,6.627,2.436,7.924c0,0-0.276,3.962-0.106,4.708c0,0,2.06,10.578-1.338,13.765
		L223.56,348.043z"/>
	<path style="fill:#9BCB64;" d="M341.686,274.241c0.082,0.329-0.211,0.61-0.305,0.693c0.558-0.452,0.822,0.094,0.822,0.094
		c0.822,0.129-0.041,0.775-0.041,0.775c-0.293,0.117-0.481-0.194-0.481-0.194c-0.751,0.37-0.329,0.575-0.329,0.575
		c0.558-0.123,0.223,0.358,0.223,0.358l-0.34,0.047l-0.405,0.217l0.018,0.153l0.311-0.047l0.029,0.241l-0.364,0.17l0.112,0.27
		c0.423,0.599-0.992,0.886-0.992,0.886c-0.223,1.796-1.902,1.15-2.301,0.974c-0.299,0.147-0.622,0.247-0.957,0.288
		c-0.863,0.117-1.685-0.106-2.336-0.569c-0.493,0.106-1.033-0.041-1.033-0.041c-0.575,0.059-0.34-0.775-0.34-0.775
		c-0.452,0.927-1.104,0.123-1.104,0.123c-0.622-0.663,0.129-1.062,0.129-1.062c-0.358-0.405,0.135-0.74,0.135-0.74
		c-0.945-0.17-1.168-0.663-1.215-0.963c-0.399-0.129-0.728-0.264-0.927-0.352c-0.728,0.352-1.532,0.599-2.377,0.71
		c-2.119,0.294-4.15-0.264-5.758-1.403c-1.233,0.247-2.571-0.1-2.571-0.1c-1.415,0.147-0.851-1.931-0.851-1.931
		c-0.763,1.591-1.761,1.139-2.313,0.699c0.1,0.493-1.062,0.734-1.062,0.734c-0.223,1.796-1.902,1.151-2.295,0.974
		c-0.299,0.141-0.622,0.235-0.969,0.282c-0.851,0.123-1.673-0.106-2.33-0.564c-0.493,0.1-1.033-0.047-1.033-0.047
		c-0.569,0.065-0.34-0.781-0.34-0.781c-0.446,0.933-1.104,0.129-1.104,0.129c-0.622-0.663,0.135-1.051,0.135-1.051
		c-0.364-0.417,0.129-0.751,0.129-0.751c-1.409-0.264-1.209-1.215-1.209-1.215c-0.646-0.839-0.012-1.561-0.012-1.561
		c-0.088-0.07-0.153-0.147-0.194-0.217c-0.798,0.07-1.561-0.153-2.166-0.587c-0.499,0.1-1.045-0.041-1.045-0.041
		c-0.575,0.059-0.346-0.787-0.346-0.787c-0.446,0.939-1.104,0.129-1.104,0.129c-0.634-0.669,0.129-1.062,0.129-1.062
		c-0.358-0.411,0.135-0.751,0.135-0.751c-1.421-0.264-1.215-1.227-1.215-1.227c-0.652-0.845-0.012-1.567-0.012-1.567
		c-0.569-0.458-0.053-0.916-0.053-0.916c-0.176-0.564,0.616-0.54,0.616-0.54c-0.792-1.514,0.616-1.685,0.616-1.685
		c0.252-0.734,0.886-0.288,0.886-0.288c0.323-0.81,1.421-0.2,1.421-0.2c-0.329-0.693,0.71-0.693,0.71-0.693
		c0.2-0.112,0.382-0.129,0.54-0.088c0-0.088,0.012-0.147,0.012-0.147c-0.646-0.839-0.012-1.561-0.012-1.561
		c-0.564-0.464-0.041-0.922-0.041-0.922c-0.082-0.241,0.023-0.376,0.164-0.452c-0.622-1.456,0.387-2.6,0.387-2.6
		c-1.186-0.963-0.1-1.919-0.1-1.919c-0.387-1.168,1.28-1.139,1.28-1.139c-1.661-3.17,1.285-3.522,1.285-3.522
		c0.54-1.526,1.861-0.605,1.861-0.605c0.669-1.691,2.988-0.411,2.988-0.411c-0.687-1.45,1.491-1.462,1.491-1.462
		c1.456-0.816,2.477,0.916,2.477,0.916c0.863-1.133,1.585-1.526,2.154-1.55c-0.487-1.579,1.109-1.773,1.109-1.773
		c0.364-1.021,1.244-0.399,1.244-0.399c0.446-1.127,1.996-0.276,1.996-0.276c-0.458-0.969,0.998-0.98,0.998-0.98
		c0.98-0.54,1.655,0.616,1.655,0.616c1.732-2.26,2.577-0.123,2.577-0.123c2.941-1.444,3.416,1.286,3.416,1.286
		c0.599-0.775,1.403,0.018,2.178,1.115c0.511,0.734,0.176,1.397-0.1,1.755c0.511,0.294,0.816,0.81,0.816,0.81
		c2.289-2.982,3.399-0.158,3.399-0.158c3.874-1.908,4.508,1.691,4.508,1.691c0.787-1.01,1.843,0.023,2.87,1.479
		c1.021,1.456-0.493,2.7-0.493,2.7c1.068,0.927-0.552,1.561-0.552,1.561c0.863,0.828,0.006,1.649-0.211,1.837
		c1.021-0.834,1.526,0.182,1.526,0.182c1.514,0.247-0.076,1.45-0.076,1.45c-0.552,0.211-0.904-0.364-0.904-0.364
		c-0.745,0.37-0.869,0.652-0.822,0.834c1.896-0.434,2.231,1.473,2.231,1.473c0.54-0.693,1.268,0.018,1.972,1.016
		c0.693,0.992-0.34,1.843-0.34,1.843c0.734,0.64-0.382,1.068-0.382,1.068c0.599,0.569,0.006,1.139-0.147,1.262
		c0.71-0.575,1.051,0.123,1.051,0.123c1.033,0.17-0.053,0.992-0.053,0.992c-0.382,0.147-0.616-0.252-0.616-0.252
		c-0.276,0.141-0.423,0.258-0.505,0.358c0.704,0.282,0.851,1.127,0.851,1.127c0.417-0.552,0.992,0.012,1.55,0.798
		c0.552,0.787-0.27,1.456-0.27,1.456c0.581,0.505-0.293,0.851-0.293,0.851c0.47,0.44,0.006,0.892-0.117,0.986
		c0.558-0.452,0.822,0.1,0.822,0.1c0.822,0.129-0.035,0.781-0.035,0.781c-0.305,0.117-0.487-0.194-0.487-0.194
		c-0.751,0.37-0.335,0.581-0.335,0.581c0.564-0.129,0.235,0.358,0.235,0.358l-0.346,0.041l-0.411,0.235l0.023,0.135l0.311-0.035
		l0.029,0.235l-0.364,0.17l0.106,0.276c0.428,0.599-0.998,0.892-0.998,0.892c-0.223,1.808-1.914,1.156-2.307,0.974
		c-0.305,0.147-0.628,0.247-0.969,0.293c-0.863,0.117-1.685-0.112-2.348-0.569L341.686,274.241z"/>
	<path style="fill:#4E342E;" d="M325.156,302.692c0,0-0.147-0.857,0.094-3.804l-0.839-9.515c0,0-0.153-3.493,0.299-4.502
		c0,0,6.856-6.656,8.247-7.026c0,0,0.998-8.711,2.242-8.881l-1.244-0.734c0,0-1.115,8.23-1.925,9.48c0,0-3.158-11.892-2.665-13.148
		l-0.464,0.358c0,0,1.485,11.875,1.209,12.697l-2.025,2.084c0,0-0.687,2.101-1.109,1.151c0,0-3.862-2.36-1.949-14.78l-1.561-1.004
		l-1.285,8.177c0,0,0.898-0.006,0.499,2.072c0,0,1.579,4.937,1.332,5.424c0,0-0.376,2.354-1.403,1.661l-2.166-5.113
		c0,0-1.826-7.296-0.593-8.423l-0.47-0.587c0,0-0.816,3.622-0.158,6.263c0,0-3.316-3.675-4.344-3.663l0.029,0.663
		c0,0,0.628-1.309,4.05,3.692c0,0,2.354,6.627,2.442,7.924c0,0-0.276,3.962-0.112,4.714c0,0,2.06,10.578-1.338,13.759
		L325.156,302.692z"/>
</g>
<path style="fill:#FFFF00;" d="M280.85,55.858c19.511,0,35.331,15.813,35.331,35.325c0,19.506-15.819,35.319-35.331,35.319
	c-19.506,0-35.319-15.813-35.319-35.319C245.531,71.671,261.345,55.858,280.85,55.858z"/>
<path style="fill:#FFFFFF;" d="M340.195,64.316c3.909,0,7.596,0.927,10.865,2.577c3.528-3.463,8.37-5.594,13.706-5.594
	c9.245,0,16.993,6.398,19.065,15.003c4.625,1.391,8.329,4.878,10.02,9.357c0.552-0.065,1.115-0.088,1.691-0.088
	c8.535,0,15.467,6.921,15.467,15.467s-6.932,15.467-15.467,15.467c-2.665,0-5.165-0.669-7.355-1.855
	c-1.878,6.428-7.813,11.123-14.851,11.123c-4.297,0-8.183-1.749-10.988-4.584c-2.806,2.835-6.692,4.584-10.994,4.584
	c-4.08,0-7.801-1.585-10.566-4.168c-2.823,3.088-6.891,5.03-11.411,5.03c-4.238,0-8.071-1.696-10.859-4.449
	c-1.274,0.282-2.606,0.429-3.968,0.429c-10.178,0-18.426-8.247-18.426-18.426s8.247-18.431,18.426-18.431
	c0.552,0,1.104,0.029,1.649,0.076C317.502,73.737,327.75,64.316,340.195,64.316z"/>
<g>
	<path d="M205.939,146.541c0,0,5.911-1.268,10.859-0.323c4.96,0.951,10.126,5.066,15.714,5.383c5.588,0.311,4.426-1.796,4.426-1.796
		s-3.587,0.528-4.537-2.53c-0.945-3.058,2.958-5.482,8.963-9.697c6.017-4.215,7.173-8.435,6.017-11.076c0,0-1.062,1.691-6.017,4.332
		c-4.954,2.636-8.535,7.484-12.438,10.959c-3.898,3.481-4.115,3.686-7.801,2.953C217.438,144.006,209.525,142.849,205.939,146.541z"
		/>
	<path d="M285.123,161.005c0,0,5.911-1.268,10.853-0.323c4.96,0.951,10.126,5.066,15.714,5.383c5.594,0.311,4.426-1.796,4.426-1.796
		s-3.581,0.528-4.532-2.53c-0.945-3.058,2.953-5.482,8.957-9.697c6.017-4.215,7.179-8.435,6.017-11.076c0,0-1.057,1.691-6.017,4.326
		c-4.948,2.641-8.535,7.49-12.432,10.965c-3.903,3.481-4.115,3.686-7.807,2.953C296.617,158.469,288.71,157.313,285.123,161.005z"/>
	<path d="M166.346,106.949c0,0,5.917-1.262,10.859-0.317c4.96,0.951,10.126,5.06,15.72,5.377c5.582,0.317,4.42-1.796,4.42-1.796
		s-3.581,0.534-4.532-2.524c-0.945-3.058,2.953-5.488,8.957-9.697c6.017-4.22,7.173-8.435,6.017-11.076c0,0-1.057,1.691-6.017,4.326
		c-4.954,2.636-8.535,7.484-12.432,10.959c-3.903,3.487-4.115,3.692-7.807,2.953C177.846,104.419,169.939,103.263,166.346,106.949z"
		/>
</g>
<g>
</g>
<g>
</g>
<g>
</g>
<g>
</g>
<g>
</g>
<g>
</g>
<g>
</g>
<g>
</g>
<g>
</g>
<g>
</g>
<g>
</g>
<g>
</g>
<g>
</g>
<g>
</g>
<g>
</g>
</svg>
