<?xml version="1.0" encoding="iso-8859-1"?>
<!-- Generator: Adobe Illustrator 19.0.0, SVG Export Plug-In . SVG Version: 6.00 Build 0)  -->
<svg version="1.1" id="Layer_1" xmlns="http://www.w3.org/2000/svg" xmlns:xlink="http://www.w3.org/1999/xlink" x="0px" y="0px"
	 viewBox="0 0 512 512" style="enable-background:new 0 0 512 512;" xml:space="preserve">
<path style="fill:#B1E9F1;" d="M256,0c141.383,0,256,114.611,256,256c0,141.383-114.617,256-256,256C114.611,512,0,397.383,0,256
	C0,114.611,114.611,0,256,0z"/>
<path style="fill:#FFFF00;" d="M232.756,57.794c19.228,0,34.816,15.588,34.816,34.81s-15.588,34.804-34.816,34.804
	c-19.222,0-34.804-15.582-34.804-34.804S213.535,57.794,232.756,57.794z"/>
<g>
	<path style="fill:#7CB142;" d="M349.511,17.62l-0.536,0.124l-1.667-0.96c-1.16-0.442-2.314-0.895-3.486-1.319l-0.135,0.212
		l-0.954,1.778l-0.854,0.654l-0.907-3.645l-0.289-0.106l-0.677,1.066l-0.936-0.047l-0.642,2.161l-1.614-4.511l-0.024-0.006
		l-0.218,4.052l-0.901,0.047l-0.506,1.608l-0.907-0.053l-1.596-2.161l-1.549-1.578l0.883,0.006l-4.046,2.432l3.416-2.679
		l-1.655-0.395l-2.609,0.241l-0.771-0.612l3.928-2.974l-1.449-0.43h-0.006l-2.226,0.177l-1.484-0.188l0.919-0.819
		C303.766,3.374,280.274,0,256,0C145.534,0,51.417,69.961,15.529,167.989l0.942,0.948l1.484,4.105l0.654-2.202l0.842-0.665
		l1.266,1.46l-0.024-4.423l1.296,1.502l1.301,1.248l0.624-1.231l1.578,1.79l-0.665-4.77l2.338,3.634l0.766-0.701l0.76-0.66
		l-0.088-2.426l0.495-1.019l0.194-1.496l3.121,3.734l0.183-1.584l1.084-0.059l1.802,0.936l0.624-0.848l-2.043-4.287l0.165-1.166
		l2.909,2.073l0.983-0.324l-1.131-2.532l0.565-0.671l0.795-0.453l1.731,0.395l-1.72-2.055l0.412-0.524l1.237-0.241l0.695-0.589
		l1.814-0.159l-0.342-1.331l1.066-0.206l-1.296-2.462l1.849,0.524l2.856,1.213l-0.088-1.296l-0.506-1.549l1.437-0.106l0.73-0.648
		l-0.206-1.231l-1.596-1.961l-0.73-1.349l2.067-0.141l3.875,2.155l-0.177-1.49l-2.691-3.463l1.195-0.13l3.345,1.402l-2.803-3.127
		l-0.206-1.16l3.969,1.525l-1.101-1.708l0.948-0.442l0.247-0.86l-0.247-1.113l3.31,0.736l-4.27-3.098l3.427,3.586l0.624-2.727
		l-0.389,1.684l0.247,1.119l4.317-1.637l-1.902,2.202l-3.657-0.065l3.233,1.943l-3.056,0.159l3.092,1.684l-4.552,0.024l1.678,1.296
		l-1.82,0.713l5.518,1.614l-2.314,0.66l-2.179,0.783l2.585,1.042l0.024,0.889l1.631,0.866l-2.75,0.978l-0.495,0.96l3.616,0.589
		l-3.934,1.337l3.127,0.501l-2.968,1.396l0.713,0.83l2.897,0.312l-0.518,1.025l-0.371,1.025l-2.155,1.596l2.391,0.23l-0.995,1.343
		l1.437,0.471l-2.438,1.979l2.732-0.077l-1.449,1.672l3.439-0.518l1.566,0.247l-2.02,2.032l3.528-0.813l-0.389,1.225l-1.042,1.643
		l0.783,0.607l0.777,0.601l1.472,0.135l-3.651,3.522l0.141,1.089l3.798-1.508l-2.202,2.768l0.359,0.948l5.012-2.697l-2.838,3.457
		L68,178.754l3.48-1.725l-0.165,1.337l-2.273,3.31l1.831-0.389l1.967-0.577l-1.937,3.215l2.709-1.372l2.626-1.384l-1.095,2.479
		l0.442,0.895l-0.212,1.655l0.465,0.913l0.412,0.989l4.164-3.563l-0.942,2.615l0.777,0.501l2.149-1.301l0.077,1.413l-0.73,2.579
		l-0.371,2.167l1.266-0.141l1.089,0.082l2.621-2.303l-1.873,4.682l1.166-0.059l2.756-2.75l-0.312,2.367l1.826-1.331l-0.819,3.416
		l2.367-2.42l1.325-0.571l-0.795,3.616l2.191-2.361l-0.253,2.685l1.284-0.548l0.995,0.059l0.377,1.472l1.484-1.166l0.93,0.141
		l-0.524,4.016l1.072-0.124l1.231-0.636l0.371,1.92l0.783,0.76l1.926-3.062l0.171,2.827l2.238-4.688l-0.236,4.658l1.796-3.51
		l1.072-0.73l0.795,0.506l0.324,3.386l1.413-3.027l0.453,3.363l1.349-3.545l0.424,3.987l1.437-2.161l0.4,2.438l1.148-1.201
		l1.007-1.107l0.66,4.281l1.007-5.595l0.877,1.855l0.872,0.041l1.272,2.373l1.278,1.125l0.465-2.314l0.819-0.595l-0.236-2.933
		l2.927,4.782l0.73-0.071l-0.942-6.242l1.113,0.583l2.815,4.623l-0.212-3.08l0.595-0.948l0.595-0.872l2.214,1.961l-0.171-2.161
		l1.254,0.13l-0.018-1.643l1.472,0.324l-1.696-3.41l4.829,3.904l-1.625-3.103l1.684,0.265l0.83-0.595l-1.89-2.785l1.29-0.141
		l3.045,0.978l-2.191-2.609l1.985,0.112l-0.742-1.513l0.294-0.883l3.781,0.736l-4.499-3.045l4.847,0.948l1.042-0.718l-2.02-1.649
		l1.602,1.025l-2.874-4.034l1.596,0.259l3.221,1.195l-3.015-3.109l2.173,0.23l2.668,0.2l-3.227-2.432l1.708-0.336l-0.607-1.142
		l0.448-1.578l1.702-0.536l0.748,2.538l0.907-2.644l0.966,2.909l0.707-2.526l1.266,2.762l0.1-4.941l1.072,1.148l1.926,3.846
		l-0.536-5.006l2.585,4.664l0.942-0.448l-0.895-4.305l0.848-0.212l2.091,1.89l-0.683-2.874l1.884,1.207l-1.337-3.304l2.562,1.855
		l1.72,0.542l-2.191-3.686l0.907-0.271l4.217,2.668l-0.448-1.702l-2.703-3.339l3.763,1.731l-0.389-1.419l-1.837-2.267l1.773,0.088
		l2.314,0.277l-0.601-1.372l2.797,0.336l1.207-0.542l-4.293-2.88l4.823,0.925l-2.032-1.778l-0.695-1.207l3.151-0.006l-3.575-2.061
		l1.761-0.548l-1.396-1.325l1.608-0.665l0.583-0.901l-1.337-1.207l2.132-0.477l-0.771-1.873l1.195-0.059l1.084-0.218l2.002,0.648
		l0.424-0.925l-1.537-2.691l2.232,0.742l-1.154-2.197l0.989-0.353l-1.048-1.926l1.19-0.177l3.857,1.413l-1.937-2.279l1.708-0.135
		l0.76-0.718l-1.837-1.79l1.113-0.536l3.18,0.006l-1.513-1.455l-2.273-1.472l0.23-0.83l1.985-0.612l1.643-0.783l-3.639-1.201
		l0.477-0.854l3.787-0.925l-1.873-0.919l-0.359-0.919l2.944-1.243l-3.292-0.701l2.073,0.041l-2.096-2.202l3.433,0.689l-1.725-1.826
		l2.444-0.006l-3.469-2.267l2.138-0.206l0.93-0.677l-1.16-1.243l2.785-0.312l-1.678-1.284l-0.889-1.054l3.262-0.483l-3.445-1.301
		l3.504-0.63l0.989-0.913l-5.73-1.107l1.796-0.842l1.148-0.913l-2.762-0.813l3.333-1.131l-1.231-0.848l-1.714-0.724l2.562-1.296
		l-3.286-0.395l5.353-2.002l-0.442-0.948l-2.45-0.418l-2.414-0.306l-0.259-0.866l3.622-2.22l-1.26-0.612l-2.679,0.041l1.431-1.655
		l1.555-1.837l-1.425-0.436l-1.879,0.353l0.907-2.155l1.019-0.925l0.536,2.609l0.542,3.904l1.16-2.114l0.96-0.206l0.93,0.512
		l0.954-2.132l0.93,1.119l1.066,3.033l0.718-4.187l0.713-2.244l1.549,6.225l0.677-2.479l1.025,0.459l1.001,0.194l0.153-4.305
		l0.954,0.236l1.513,2.579l1.319,1.407l0.489-1.926l-0.053-3.528l1.908,3.168L209,88.264l0.318-1.849l0.836-0.283l0.654-0.748
		l2.061,2.738l0.701-0.736l-0.124-2.556l2.65,3.622l-0.895-4.052l1.154,0.3l2.273,2.409l0.077-1.867l2.02,1.714l-0.542-2.868
		l2.373,2.179l-1.213-3.822l1.284,0.324l1.478,0.554l0.742-0.583l-0.018-1.672l1.655,0.718l-0.53-2.303l1.926,1.007l0.877-0.406
		l1.496,0.342l0.359-1.078l1.555,0.353l-0.236-1.743l0.324-1.048l-0.371-1.784l-1.337-2.721l2.214,0.989l1.231-0.065l1.496,0.141
		l-1.879-3.021l4.01,2.403l-2.821-3.722l0.371-0.842l3.198,1.46l1.908,0.312v-1.172l1.466-0.065l-0.418-1.46l-1.06-1.867l2.75,0.789
		l-2.585-2.833l3.28,1.06l0.3-0.907l0.453-0.807l-0.082,0.259l0.3-4.323l0.813,2.903l0.783-0.006l0.665,2.797l0.612-2.78l2.75,0.571
		l-2.538,1.048l-1.949,1.142l0.012,1.001l0.212,0.966l3.074,0.43l1.513,0.601l-4.717,2.061l5.07-0.342l1.337,0.512l-2.279,1.643
		l2.903-0.065l-1.29,1.407l0.536,0.742l0.383,0.807l-3.928,2.815l1.502,0.371l2.815-0.389l-0.501,1.313l0.43,0.83l1.319,0.277
		l-2.638,2.821l2.556-0.554l0.748,0.618l0.495,0.801l0.966,0.424l-1.702,2.65l4.405-2.573l-1.59,2.679l1.961-0.601l-1.296,2.644
		l2.697-1.478l0.707,0.559l1.472-0.347l-1.437,3.198l0.642,0.73l1.702-0.701l1.29-0.236l1.496-0.618l-0.436,2.32l-1.042,3.492
		l3.086-3.351l-1.319,4.27l2.497-2.638l1.36-0.677l0.512,1.019l1.366-0.842l-0.724,4.01l1.602-1.425l-0.053,2.791l1.761-2.085
		l1.148-0.536l0.972-0.088l0.241,2.497l1.39-1.619l0.383,2.35l1.025-0.206l0.607,1.879l1.843-5.129l0.607,1.837l0.801,0.93
		l1.025-1.013l1.166,0.082l1.413-0.489l-0.889,4.652l0.483,1.325l1.702-2.096l0.141,2.438l1.089-0.412l0.612,1.195l1.125-0.642
		l0.872,0.63l1.372-1.649l1.248-1.419l0.542,2.226l1.036-0.395l1.207-1.814l0.942-0.259l0.76,1.637l0.854,1.042l0.819,2.662
		l1.031-0.718l1.072-5.542l0.907,5.436l0.966-1.019l0.942-0.695l1.084,2.02l0.872-1.537l1.125,1.46l0.978-0.259l0.171-5.718
		l1.396,2.974l0.736-1.172l0.842,2.108l1.643-2.255l1.349-0.919l0.047,1.979l1.184-0.83l-0.583,5.212l1.431-1.519l1.619-4.258
		l0.506,2.52l0.836,1.437l1.101,2.609l0.565-4.605l0.654-0.836l0.465-1.125l1.402,1.808l1.767,1.967l-0.771-4.434l1.649,1.59
		l0.724-0.654l2.191,2.591l-1.319-5.082l2.373,2.838l0.736-0.636l-0.506-3.015l0.654-0.701l1.578,0.995l0.925-0.23l2.638,2.685
		l-0.353-2.467l2.132,1.655l-0.559-2.691l1.26,0.218l0.66-0.73l-0.353-2.185l1.755,0.901l2.091,1.29l-0.124-1.808l-1.661-3.769
		l2.833,2.185l1.089-0.147l1.154-0.088l-2.591-4.635l2.526,1.602l0.854-0.436l1.119,0.183l0.53-0.989l0.506-1.843l1.631,2.532
		l0.418-1.967l1.225,0.801l1.443,1.248l0.324-1.955l0.713,0.854l1.001-1.543l0.989,0.006l0.418,1.455l1.107-0.3l-0.035,2.797
		l1.932-2.662l1.59-1.861l-0.106,3.245l0.683,0.913l0.954,0.077l1.519-1.979l0.989-0.177l0.742,0.718l1.125-0.754l-0.2,4.735
		l1.472-2.226l1.101-0.742l1.195-1.343l0.406,2.638l0.289,3.48l1.737-4.44l1.042-0.736l0.171,4.735l1.39-3.015l0.813,0.801
		l1.078-1.16l0.442,3.963l1.478-4.77l0.866,0.371l0.342,5.948l0.966-0.177l1.349-4.976l0.612,4.152l0.907,0.607l0.942-0.082
		l1.031-1.661l0.978-1.142l0.883,1.466l1.013-3.875l0.883,2.008l0.936,3.775l0.919-2.98l0.948,0.966l0.978,1.166l0.813-3.121
		l0.795-2.073l1.025,1.82l1.231,3.946l0.819-1.584l0.972,0.183l0.589-3.233l1.26,2.75l0.989,0.289l0.936-0.106l0.218-4.729
		l1.602,4.075l0.265-3.846l1.855,4.894l0.53-2.244l0.377-2.691l1.331,1.761l1.49,2.244l-0.418-5.618l1.519,2.25l1.69,2.679
		l-0.3-4.558l1.449,1.678l1.089,0.389l0.194-2.491l0.424-1.596l2.603,4.782l-0.006-2.868l1.419,1.166l0.695-0.824l-0.188-3.056
		l1.437,1.137l0.807-0.459l-0.2-2.815l1.131,0.336l2.503,3.339l0.418-1.349l-0.23-2.65l0.559-0.883l1.761,1.396l1.661,1.013
		l0.212-1.537l0.224-1.419l0.206-1.354l0.053-1.49l3.045,2.679l-0.607-2.367l1.372,0.253l2.697,1.731l-0.065-1.578l-0.23-0.418
		C415.798,52.618,384.539,31.371,349.511,17.62z M14.428,171.104l0.524,1.867l0.477-4.699
		C15.088,169.214,14.764,170.162,14.428,171.104z M441.727,79.825l-0.088,0.736l0.342-0.465L441.727,79.825z M120.07,113.404
		L120.07,113.404l-3.427-1.708l-1.89,2.379l0.342-3.033l1.219,0.094l1.036-3.233l-0.783,3.168L120.07,113.404z M154.656,146.759
		L154.656,146.759l-3.445-0.877l0.459,2.632l-2.126-1.879l-1.095-0.1l0.571,2.915l-2.161-2.043l-1.926-1.667l-0.748,0.495
		l2.462,1.431l-0.477,1.714l2.061,0.542l-3.386-3.928l1.873,0.371l-1.496-2.108l0.206-0.824l1.696-1.425l2.479,5.253l0.601-4.234
		l0.707-1.608l-0.418,3.928L154.656,146.759z M215.56,70.585L215.56,70.585l-2.45-1.967l0.424,2.674l-2.22-1.826l-1.16-0.071
		l0.43,2.956l-2.167-2.073l1.207-1.496l1.125,4.01l0.253-1.19l-0.848-1.425l1.272,1.614l-1.084-5.076l1.466,1.243l-0.188-2.585
		l0.642-0.612l0.919-0.024l3.304,4.729l-1.101-4.134l3.575-1.101l-3.987,0.813l1.79,4.087l-2.326-1.873L215.56,70.585z"/>
	<path style="fill:#8B6E62;" d="M463.357,406.134c-1.702-27.425-3.304-55.033-3.304-82.67c0-67.052-2.261-134.404-4.27-201.521
		c-0.277-9.322-0.842-18.668-1.619-28.014c-7.296-8.91-15.188-17.308-23.603-25.158c0.294,6.861,0.624,13.704,0.978,20.529
		c3.934,75.344,8.245,151.194,4.27,226.879c-1.243,23.574,4.105,44.88,2.632,68.283c-1.19,18.898-4.358,37.383-5.2,56.246
		C444.277,430.114,454.353,418.542,463.357,406.134z M289.426,2.173c5.807,0.754,11.554,1.708,17.231,2.85
		c-0.241,9.381-0.571,17.855,0.1,22.525c4.493,31.223,8.733,62.936,9.676,94.395c2.008,67.117,4.264,134.469,4.264,201.521
		c0,51.116,5.494,102.121,6.902,152.065c11.348,2.897,23.397,5.589,35.381,8.074c0.501-2.261,0.748-4.688,0.836-7.167v-0.041
		l-0.012-0.512l-0.024-0.713l-3.84-3.804l7.273-7.997l-3.846-3.798l-0.006-0.501c0-0.147-0.006-0.294-0.006-0.442
		c-0.053-22.143,4.022-43.602,5.406-65.633c1.472-23.403-3.875-44.709-2.632-68.283c3.975-75.691-0.33-151.535-4.264-226.873
		c-1.325-25.264-2.232-50.828-2.621-76.145c5.712,2.52,11.313,5.241,16.801,8.162c0.035,2.462,0.147,4.582,0.383,6.231
		c4.493,31.217,8.739,62.93,9.681,94.383c2.002,67.123,4.264,134.469,4.264,201.533c0,46.264,4.505,92.445,6.395,137.832
		C356.384,496.483,308.006,512,256,512c-43.885,0-85.184-11.048-121.278-30.505c6.189-2.085,12.408-4.028,18.927-5.247
		c2.155-7.885,0.701-18.044,0.677-26.147c-0.059-22.148,4.016-43.608,5.406-65.639c1.478-23.403-3.875-44.709-2.632-68.283
		c3.981-75.685-0.336-151.535-4.264-226.879c-1.154-22.072-1.996-44.385-2.45-66.569c5.447-2.467,11.007-4.747,16.648-6.837
		c-0.077,4.811-0.035,8.898,0.365,11.654c4.493,31.223,8.739,62.936,9.681,94.395c1.996,67.117,4.264,134.469,4.264,201.521
		c0,52.329,5.754,104.535,6.984,155.616c1.614,0.542,3.239,1.119,4.87,1.702c8.851,3.162,17.125,3.245,26.636,4.328
		c10.094,1.137,17.479,3.828,27.69,2.303c7.338-1.084,15.058-3.51,21.571-4.44c8.727-1.243,15.57-2.75,23.503-5.412
		c2.727-8.044,1.107-18.898,1.084-27.46c-0.059-22.148,4.016-43.608,5.406-65.639c1.466-23.403-3.875-44.709-2.638-68.283
		c3.981-75.685-0.33-151.535-4.27-226.879C290.674,60.386,289.703,31.07,289.426,2.173z M117.497,471.331
		c-11.118-7.167-21.636-15.182-31.483-23.939c1.296-13.492,3.18-26.901,4.04-40.534c1.472-23.397-3.869-44.709-2.632-68.283
		c3.981-75.685-0.33-151.535-4.264-226.873c-0.742-14.216-1.354-28.532-1.82-42.842c5.453-5.094,11.124-9.964,17.007-14.563
		c4.258,29.81,8.162,60.044,9.057,90.037c2.008,67.123,4.27,134.475,4.27,201.533c0,24.186,1.237,48.354,2.679,72.393l0.183,2.986
		l5.512,3.575l-10.058,8.427l5.506,3.575C116.213,448.358,116.92,459.865,117.497,471.331z M44.986,400.951
		c-10.058-14.599-18.627-30.299-25.511-46.87c-1.072-12.438-2.414-24.816-1.725-37.901c2.668-50.834,1.608-101.738-0.577-152.519
		c5.618-14.516,12.514-28.391,20.564-41.488c1.996,67.046,4.258,134.322,4.258,201.291
		C41.994,349.364,43.408,375.234,44.986,400.951z"/>
	<path style="fill:#54892E;" d="M498.491,173.725l-0.577,0.165l-1.178,2.691l-0.648-0.836l-0.147-2.674l-0.271-1.531l-2.467,5.836
		l0.771-4.817l-1.001,0.736l-0.153-1.602l-2.032,3.139l0.006-1.937l-0.701-0.224l0.065-1.979l-0.365-0.972l-1.879,2.462
		l-1.466,1.566l-0.124-1.566l-0.73-0.188l-0.082-1.455l-0.088-1.366l-2.762,3.551l2.202-5.335l-1.973,1.979l-2.338,2.385
		l1.119-3.145l-1.749,1.337l0.76-2.42l0.689-2.208l-2.674,2.52l1.731-3.551l-2.161,1.708l-2.662,2.261l0.265-1.531l2.014-3.663
		l-3.103,2.691l2.061-3.628l-3.71,3.321l0.035-1.16l-0.783-0.2l1.472-2.797l-2.12,1.349l1.89-3.215l-2.049,1.225l-1.319,0.371
		l-1.938,1.007l1.39-2.532l2.085-3.186l-5.053,4.152l0.571-1.625l-1.678,0.636l1.826-2.803l-1.731,0.66l1.137-2.067l1.325-2.202
		l-3.675,2.42l0.13-1.089l0.336-1.266l0.571-1.449l-1.225,0.135l-0.412-0.583l0.636-1.472l-3.268,1.82l0.106-1.025l0.471-1.307
		l1.466-2.102l-3.846,2.173l2.079-2.556l-3.198,1.596l-0.041-0.877l2.827-3.062l-0.595-0.424l-2.114,0.701l0.13-0.978l-4.281,2.25
		l2.88-2.986l-0.112-0.801l0.607-1.296l-1.36,0.088l1.125-1.643l-4.111,1.985l-0.518-0.518l2.626-2.656l0.147-0.954l-5.335,2.721
		l3.198-2.992l-0.389-0.589l0.006-0.854l-2.733,0.919l2.568-2.497l-4.116,1.778l0.218-0.983l1.137-1.549l0.612-1.207l-3.086,1.066
		l-0.665-0.442l-1.26-0.077l0.907-1.378l0.866-1.337l1.319-1.59l-1.349-0.029l1.932-1.914l-4.894,1.967l2.721-2.344l-0.241-0.671
		l-0.041-0.777l-3.969,1.36l2.356-2.079l-2.797,0.689l3.539-2.674l-1.325-0.094l-4.152,1.349l3.416-2.556l-3.039,0.748l1.961-1.778
		l-1.843,0.13l0.854-1.213l1.596-1.561l-0.141-0.707l-4.417,1.331l2.403-1.926l-4.358,1.254l1.914-1.678l1.384-1.413l0.106-0.819
		l-3.115,0.618l-1.119-0.283l3.245-2.208l-2.827,0.459l0.795-1.119l-1.531-0.124l1.949-1.59l-2.332,0.2l3.316-2.132l-1.667-0.077
		l-0.247-0.665l0.336-0.883l-3.062,0.442l4.081-2.35l-5.583,1.39l2.379-1.661l-2.626,0.224l0.106-0.801l0.135-0.807l0.442-0.925
		l-2.467,0.118l2.22-1.537l-1.619-0.206l0.177-0.819l-0.112-0.724l-1.119-0.4l1.484-1.219l2.503-1.513l-0.548-0.565l-1.985-0.159
		l0.565-0.895l-3.498,0.224l0.677-0.93l4.081-1.82l0.412-0.819l-2.609-0.071l1.531-1.095l-1.478-0.371l-1.066-0.483l0.536-0.848
		l-2.615-0.165l1.543-1.054l2.373-1.195l-2.273-0.277l1.749-1.042l-5.212,0.212l1.443-0.989l-1.914-0.412l1.319-0.948l1.561-0.96
		l1.908-0.989l0.218-0.73l-2.521-0.383l-1.142-0.583l1.16-0.854l-0.754-0.459l-0.218-0.595l-0.436-0.612l-1.749,0.813l0.948-2.096
		l1.243-2.344l-0.766-0.236l-0.424-0.577l-1.731,0.713l-1.69,2.98l0.471-1.29l-1.225-0.848l-1.537-1.561l-1.007-0.577l-0.718,0.018
		l0.524,2.838l-1.637-2.138l1.537,5.653l-2.503-4.517l0.978,4.658l-2.067-3.745l0.23,2.868l-0.807-0.206l-0.571,0.565l-0.283,1.702
		l-1.078-1.243l-1.148-1.743l-0.106,2.691l-0.524,1.084l-1.301-2.98l-0.807-0.665l-0.253,2.927l-0.689,0.265l-0.983-2.161
		l-0.795-1.119l-0.742-0.907l-0.324,6.048l-0.83-1.761l-0.748,1.932l-0.583-6.572l-0.936,5.524l-0.495-3.298l-0.677-0.029
		l-0.471-1.649l-1.525,5.653l-0.648-0.783l-0.124-3.31l-0.766,0.283l-0.866,0.583l-0.112-2.356l-1.543,2.933l-0.76-0.053
		l-0.742-0.118l0.135-2.573l-1.937,3.168l-0.506-0.783l-0.854,0.088l-0.636-0.442l-0.177-1.402l-0.289-1.078l-0.406-0.777
		l-1.337,0.995l1.778-4.676l-3.38,4.511l1.955-4.652l-2.568,2.827l-0.23-0.966l-2.238,2.008l2.509-4.829l-1.125,0.389l-1.301,0.571
		l-1.99,1.354l0.347-1.59l-0.406-0.63l1.831-3.092l-4.252,3.557l2.585-3.704l-0.259-0.683l-4.352,3.156l3.828-5.306l-3.84,4.9
		l-0.336-1.025l-1.16,0.583l0.289-2.108l-1.125,0.477l0.124-1.649l-1.502,1.031l-0.265-0.972l-1.484,0.872l1.82-3.928l-0.43-0.595
		l-2.026,1.549l0.936-2.397l-1.59,0.877l0.942-2.255l-1.354,0.53l-1.543,0.695l1.773-3.015l-1.861,0.989l-2.055,1.107l2.568-3.592
		l-0.383-0.565l-4.487,3.274l0.96-1.82l1.943-2.668l-3.51,2.214l2.144-2.762l-2.462,1.219l-2.167,0.913l2.185-2.685l0.241-3.098
		l-1.272,4.305l-1.496-3.716l-0.601,0.495l0.159,5.253l-1.484-4.894l-0.271,3.38l-0.966-2.073l-0.371,3.816l-0.807-0.43
		l-0.724,0.713l-0.948-4.752l-0.707-0.683l-0.665,3.145l-0.695-3.522l-0.813,5.023l-0.554-4.747l-0.677-0.018l-0.83,1.884
		l-0.489-2.538l-0.671-0.1l-0.854,1.478l-0.736,0.224l-0.442-1.837l-0.842,0.972l-1.16,1.372l1.466,1.755l-3.321-0.895l1.072,1.337
		l1.29,1.484l-0.1,0.766l-4.152-1.508l3.198,2.632l-2.491-0.642l-1.29,0.024l-0.012,0.795l-1.696-0.294l2.515,2.491l-2.102-0.601
		l2.344,2.515l-1.072,0.118l1.142,1.79l-1.031,0.141l-3.162-1.661l0.73,1.531l0.318,1.231l-2.721-1.549l0.807,1.725l0.877,1.896
		l0.241,1.354l-2.244-1.343l-2.45-1.743l-1.254-0.406l0.365,1.502l-1.154-0.324l0.636,1.896l-0.453,0.565l0.948,2.42l-3.051-2.921
		l-0.442,0.548l2.42,4.699l-2.067-1.731l-2.521-2.597l2.026,4.529l-2.803-3.28l-0.395,0.636l0.489,2.332l-0.13,1.301l-2.456-3.374
		l1.631,5.118l-2.774-4.505l1.466,5.359l-1.985-3.056l-1.307-1.678l0.842,4.717l-0.636,0.512l-1.637-3.139l-1.036-1.272l0.53,5.341
		l-1.178-1.879l-1.142-2.197l-0.707-0.1l-0.389,2.096l-0.518,1.684l-1.054-3.062l-0.33,4.694l-1.084-5.341l-0.459,5.783
		l-0.883-5.865l-0.671,0.212l-0.777,4.699l-0.766,0.024l-0.783,0.471l-0.736-0.424l-0.489-3.292l-0.872,1.631l-0.936,1.761
		l-0.253-4.181l-0.648-0.542l-0.701-0.094l-0.512-1.413l-1.413,4.54l-0.082-3.804l-1.378,3.645l0.041-3.675l-0.907,0.954
		l-1.561,3.28l0.212-3.557l-0.683-0.106l-0.766,0.118l-0.824,0.277l-1.354,1.602l1.254-5.224l-0.683-0.018l-1.325,1.402
		l-0.583-0.347l-2.591,3.757l0.777-3.192l-1.778,1.814l-1.001,0.253l2.65-6.024l-2.043,2.108l-1.425,0.948l0.86-2.603l-0.247-0.836
		l-1.26,0.618l-0.377-0.648v-1.119l-3.263,3.033l1.773-3.333l-2.626,2.043l1.272-2.556l-0.736-0.212l-1.608,0.707l1.272-2.373
		l-0.766-0.188l0.088-1.048l-1.178,0.183l-1.519,0.477l0.253-2.868l-1.684,0.966l-0.412,0.777l-0.377,0.866l-1.331-1.284l1.195,4.57
		l-2.214-3.433l0.253,2.456l-1.884-2.785l1.172,4.911l-0.995-0.577l-1.696-2.485l-0.648,0.265l-0.247,1.384l-0.265,1.384
		l-1.219-1.343l0.082,2.467l-0.683,0.218l-1.46-2.191l0.212,3.021l-0.866-0.353l-1.301-1.837l0.171,3.086l-1.119-1.26l-0.141,2.149
		l-2.391-6.019l0.695,5.265l-0.96-0.819l-0.748-0.041l-1.301-2.297l-0.006,2.927l-1.496-3.209l0.395,4.788l-0.966-1.013
		l-1.649-4.169l-0.065,2.974l-0.601,0.554l-1.025-1.466l-0.1,3.045l-0.389,1.761l-0.866-0.724l-0.595,0.736l-1.531-4.434
		l-0.877-0.983l0.359,6.242l-0.783-0.294l-1.466-4.593l-0.771-0.453l-0.501,1.343l-0.807-0.654l-0.771-0.501l-0.23,3.392
		l-0.607,0.783l-1.237-3.969l-0.701-0.006l-0.359,2.833l-0.76-0.436l-0.347,3.645l-1.272-5.871l-0.612,0.954l-0.512,2.397
		l-0.506,2.986l-1.066-5.359l-0.718-0.412l-0.577,2.426l-0.648,1.466l-0.789-2.179l-0.618,3.734l-0.766-2.291l-0.718-1.042
		l-0.701-0.306l-0.748,3.469l-0.665-3.174l-0.689-0.536l-0.642-1.496l-0.718,0.689l-0.93,4.199l-0.506-3.451l-0.742,0.583
		l-0.854,1.749l-0.353-4.093l-0.683,0.024l-0.748,0.53l-1.107,3.392l-0.324-3.145l-1.337,4.523l-0.73-0.077l-0.654-0.571
		l-0.253-2.915l-0.954,1.313l-1.107,1.937l0.124-4.399l-0.206-2.397l-2.096,6.301l-0.701-0.283l0.795-6.331l-1.549,3.31l-0.96,0.813
		l0.554-4.676l-2.155,4.959l0.671-4.699l-1.319,1.908l-0.813,0.194l0.147-2.609l-1.325,1.678l-1.437,1.855l0.259-2.715l-1.131,0.954
		l-1.272,1.195l-0.453-0.807l1.066-4.222l-1.272,1.154l-2.444,3.551l0.206-2.132l0.63-2.85l0.035-1.531l-2.768,3.634l1.301-3.698
		l-3.492,4.434l0.424-2.108l0.212-1.643l0.901-2.544l-4.169,4.629l2.473-4.552l-3.345,3.145l0.318-1.596l0.571-1.814l-1.331,0.442
		l1.213-2.391l-2.255,1.378l0.259-1.296l-2.326,1.278l-1.213,0.1l1.602-3.239l0.683,2.043l-1.113,0.059l1.708,2.179l-4.111-2.303
		l2.043,2.52l-1.608-0.424l0.73,1.561l0.365,1.307l-4.817-2.797l0.13,1.313l-0.448,0.53l0.495,0.954l0.583,1.048l2.356,2.055
		l-4.069-1.402l0.925,1.343l0.76,1.331l-0.548,0.53l-3.592-1.672l0.212,0.966l-1.366-0.147l1.678,2.161l-2.45-1.007l0.689,1.396
		l3.498,3.657l-2.744-1.278l1.119,1.855l-2.856-1.502l0.718,1.572l1.366,2.285l-1.861-0.748l-3.645-2.762l2.043,3.198l-2.839-2.279
		l1.137,2.45l-1.855-1.396l1.19,2.88l0.783,2.679l-2.338-2.497l-0.353,0.836l-0.489,0.648l-0.607,0.424l-1.201-0.877l0.318,2.509
		l-0.777,0.1l-1.814-2.615l-1.06-0.942l0.73,4.328l-0.406,1.331l-0.936-0.424l-1.142-1.425l-0.695,0.253l-0.43,1.808l-1.419-4.211
		l-0.642,0.224l-0.324,3.645l-0.895-1.902l-0.624,1.937l-0.801-1.767l-0.701,0.607l-0.701-0.93l-0.601-1.59l-0.618-0.459
		l-0.583-0.612l-0.73,0.642l-1.142,3.009l-1.001,1.396l0.406-5.712l-0.612-0.183l-1.449,3.133l-1.19,1.596l0.512-4.275l-0.318-1.16
		l-0.695,0.053l-2.785,5.636l0.877-4.328l-2.12,3.292l-0.506-0.73l0.395-2.644l-1.007,0.465l-1.29,0.93l0.995-3.398l-1.985,2.12
		l1.166-3.38l-0.029-1.19l-2.126,2.073l0.047-1.337l-0.224-0.889l-3.062,3.133l2.002-4.022l-1.996,1.549l-2.367,1.961l1.731-3.463
		l-2.073,1.496l-0.848-0.1l-1.001,0.065l1.172-2.544l0.13-1.254l-1.584,0.754l-2.038,1.225l-0.112-0.983l2.173-3.445l-1.39,0.465
		l1.413-2.503l-4.187,3.351l-0.895-0.13l1.655-2.691l0.024-1.025l0.071-1.042l-2.479,1.419l0.783-1.731l-0.265-0.713l-1.207,0.153
		l1.508-2.326l-2.668,1.472l1.92-2.668l-3.545,2.202l-0.053-0.901l-2.232,0.983l2.886-3.41l-0.495-0.495l-3.327,1.855l-0.795-0.271
		l0.318-1.195l-0.677-0.371l0.071-0.978l0.771-1.531l1.584-2.155l-0.624-0.4l-2.515,1.078l-1.084-0.059l1.072-1.725l-2.403,0.948
		l-1.767,0.459l3.592-3.634l-1.466,0.23l-3.18,1.508l-0.035-0.86l4.105-3.975l-4.052,2.155l-1.354,0.094l1.484-2.008l2.167-2.497
		l-2.055,0.612l-1.472,0.177l-0.495-0.548l-1.272,0.171C150.817,17.102,201.409,0,256,0C368.603,0,464.223,72.705,498.491,173.725z"
		/>
	<path style="fill:#8B6E62;" d="M409.019,461.249c-1.625-8.333-2.921-16.648-3.162-24.486c-1.496-48.814-0.012-97.904,0-146.748
		c4.964-8.551,9.234-17.531,13.892-26.241c0.506-0.948,1.025-1.908,1.543-2.874c7.938,1.113,15.959,2.868,23.974,2.986
		c1.831,0.024,1.831-2.815,0-2.844c-7.526-0.106-15.058-1.661-22.519-2.774c0.029-0.059,0.059-0.112,0.094-0.165
		c0.159-0.165,0.289-0.365,0.342-0.624c5.436-9.664,11.76-19.204,20.664-25.782c1.455-1.072,0.047-3.545-1.437-2.456
		c-3.28,2.426-6.213,5.218-8.898,8.25c-1.655-6.843,2.479-15.517,7.426-19.875c1.378-1.219-0.642-3.221-2.014-2.014
		c-5.936,5.241-10.6,15.888-7.832,23.78c0.082,0.23,0.206,0.412,0.347,0.554c-3.027,3.74-5.718,7.779-8.215,11.913v-13.916
		c0-1.831-2.844-1.831-2.844,0v18.798c-0.212,0.377-0.424,0.748-0.63,1.125l-0.082-0.012c-1.296-0.165-1.649,1.231-1.095,2.132
		c-4.381,7.98-8.327,16.23-12.708,24.221c0.1-63.99,1.879-131.271-3.881-195.603c8.404-5.742,9.593-17.814,10.582-27.69
		c0.177-1.82-2.668-1.802-2.85,0c-0.424,4.299-0.848,9.21-2.061,13.715c-0.883-2.915-1.661-5.86-2.609-8.757
		c-0.565-1.731-3.315-0.989-2.738,0.76c1.148,3.528,2.043,7.132,3.192,10.659c0.177,0.524,0.542,0.819,0.96,0.93
		c-1.101,2.727-2.621,5.171-4.788,7.043c-1.248-13.368-2.838-26.606-4.835-39.651c-0.636-0.118-1.278-0.241-1.914-0.359
		c-4.747-0.907-9.428-2.085-14.051-3.457c0.177,3.339,0.124,6.937,0.124,10.683c0.012,42.324,5.524,83.735,5.53,126.272
		c0,19.716,0.224,39.374,0.618,58.984c-5.865,3.563-12.226,6.148-19.186,6.872c-1.466,0.153-2.921,0.194-4.364,0.153
		c-2.939-3.669-5.506-7.603-7.567-11.796c0.353-0.065,0.677-0.271,0.889-0.701c1.131-2.267,2.232-4.54,2.326-7.12
		c0.065-1.837-2.78-1.826-2.844,0c-0.065,1.814-0.83,3.463-1.631,5.07c-0.754-1.773-1.413-3.586-1.973-5.447
		c-0.524-1.749-3.274-1.007-2.744,0.76c2.073,6.896,5.483,13.18,9.74,18.927c-6.454-0.872-12.65-3.41-18.315-6.672
		c-1.59-0.913-3.027,1.543-1.437,2.456c6.884,3.963,14.269,6.696,22.101,7.238c0,0,0.006,0,0.006,0.006
		c0.571,0.695,1.343,0.559,1.843,0.077c0.96,0.024,1.926,0.024,2.891-0.024c7.255-0.342,14.092-2.915,20.335-6.519
		c1.619,76.315,5.936,151.959,10.906,227.939C401.817,466.466,405.457,463.911,409.019,461.249z M371.813,484.357
		C337.038,502.036,297.682,512,256,512c-35.21,0-68.76-7.114-99.294-19.975c1.413-0.389,2.838-0.748,4.264-1.06
		c-5.677-84.831-10.842-169.12-12.65-254.222c-6.242,3.604-13.079,6.172-20.335,6.513c-0.966,0.047-1.926,0.053-2.886,0.029
		c-0.501,0.483-1.278,0.618-1.849-0.082c0,0,0,0-0.006-0.006c-7.832-0.536-15.217-3.268-22.101-7.232
		c-1.584-0.919-0.153-3.374,1.443-2.456c5.659,3.262,11.855,5.795,18.315,6.666c-4.264-5.742-7.673-12.019-9.746-18.927
		c-0.524-1.761,2.22-2.509,2.744-0.754c0.559,1.855,1.219,3.675,1.973,5.441c0.801-1.596,1.572-3.251,1.631-5.065
		c0.065-1.831,2.909-1.831,2.844,0c-0.082,2.573-1.195,4.853-2.326,7.114c-0.212,0.43-0.536,0.642-0.883,0.707
		c2.061,4.187,4.623,8.121,7.556,11.796c1.449,0.041,2.903,0,4.37-0.153c6.961-0.73,13.321-3.316,19.186-6.872
		c-0.395-19.61-0.618-39.268-0.624-58.984c0-42.536-5.512-83.953-5.518-126.272c0-1.737,0.006-3.433,0-5.094
		c5.441,0.671,10.906,1.119,16.324,1.49c1.773,11.99,3.198,24.127,4.346,36.382c2.167-1.867,3.687-4.317,4.788-7.037
		c-0.412-0.112-0.783-0.406-0.954-0.93c-1.154-3.528-2.043-7.137-3.198-10.665c-0.571-1.749,2.173-2.491,2.738-0.76
		c0.948,2.897,1.725,5.848,2.609,8.763c1.207-4.511,1.637-9.422,2.067-13.71c0.177-1.814,3.027-1.831,2.838,0
		c-0.978,9.864-2.167,21.942-10.571,27.69c5.754,64.325,3.975,131.613,3.875,195.591c4.381-7.991,8.327-16.242,12.708-24.215
		c-0.548-0.901-0.194-2.303,1.101-2.138l0.077,0.012c0.212-0.371,0.424-0.748,0.63-1.119v-18.798c0-1.831,2.844-1.831,2.844,0
		v13.922c2.497-4.14,5.194-8.18,8.221-11.919c-0.147-0.147-0.265-0.324-0.347-0.559c-2.774-7.885,1.89-18.533,7.832-23.774
		c1.366-1.213,3.386,0.795,2.008,2.008c-4.941,4.364-9.081,13.038-7.42,19.875c2.679-3.027,5.612-5.818,8.898-8.245
		c1.478-1.089,2.891,1.378,1.437,2.456c-8.916,6.578-15.235,16.112-20.664,25.782c-0.059,0.253-0.188,0.459-0.347,0.624
		c-0.035,0.053-0.065,0.106-0.1,0.165c7.473,1.107,14.999,2.662,22.525,2.768c1.831,0.029,1.831,2.874,0,2.844
		c-8.015-0.112-16.03-1.867-23.974-2.98c-0.518,0.96-1.036,1.92-1.549,2.874c-4.652,8.71-8.922,17.685-13.886,26.241
		c-0.006,48.843-1.496,97.934,0,146.748c0.559,18.156,6.778,38.897,9.64,56.469c5.983-0.294,12.008-0.13,17.938,0.3
		c17.131,1.237,34.421,3.687,51.399,6.301c8.563,1.325,17.155,3.204,25.764,4.405c10.471-4.01,16.654-3.339,25.617-10.064
		c8.533-6.395,22.408-10.359,32.702-9.952c5.877-0.506,16.218,3.816,21.636,5.506c1.502,0.465,2.974,1.072,4.434,1.743
		C361.372,486.006,366.595,485.034,371.813,484.357z M0.194,246.507c0.035-0.942,0.065-1.884,0.106-2.827
		c3.751,0.542,7.508,0.954,11.266,1.013c1.831,0.024,1.831,2.868,0,2.838C7.773,247.479,3.981,247.055,0.194,246.507z
		 M2.155,222.668c0.206-1.578,0.43-3.145,0.66-4.711c1.843-1.82,3.798-3.516,5.895-5.065c1.478-1.095,2.897,1.372,1.437,2.45
		C7.226,217.504,4.582,219.977,2.155,222.668z M5.506,202.999c0.289-1.372,0.583-2.744,0.895-4.105
		c1.036,0.177,1.843,1.478,0.836,2.367C6.649,201.78,6.066,202.363,5.506,202.999z"/>
</g>
<path style="fill:#7CB142;" d="M92.086,452.633l5.43-5.848l7.067,5.512l27.119-13.768l7.609,8.451l14.316-3.427l23.444,13.215
	l16.324,20.835l25.069-3.168l6.348,13.745l14.181-2.161l30.393,18.827l37.795-12.726l11.307,0.524l16.23-5.235l6.183-7.461
	l16.195-4.953l10.159-0.907l11.76,6.46c22.207-12.196,42.407-27.584,59.985-45.557l-8.975-15.276l-19.222-16.595l-15.523,1.537
	l-7.491,9.74l-14.434,1.902l-4.57,11.784l-18.374,12.408l-6.725-11.024l-10.948-8.592l-3.38-10.359l-43.013-33.179l-58.707,18.25
	l-18.645-20.823l-17.096,9.746l-20.535,24.916l-47.589-4.641l-26.854-10.877l-14.104-10.524l-16.731,2.02l-11.713-4.611
	l-13.468-15.17l-11.018-3.009l-5.565,2.397C40.334,398.973,63.583,428.842,92.086,452.633z"/>
<path style="fill:#785448;" d="M345.171,496.023c-1.725,0.094-3.445,0.224-5.176,0.389c-0.294-23.379-3.015-46.276-3.162-70.061
	c-0.159-26.53-3.227-49.715-3.227-76.439c0.006-17.602-0.289-27.184-0.654-46.6c4.005-2.886,7.768-6.007,11.213-9.628
	c4.605-4.858,10.518-9.893,13.88-15.765c1.296-2.267,1.961-5.282,2.373-7.821c0.277-1.737,0.218-8.409-1.973-3.922
	c-1.031,2.114-0.247,5.182-1.378,7.52c-1.307,2.691-3.492,4.964-5.812,6.778c-1.184,0.925-2.467,1.967-3.828,2.303
	c-0.648-1.531,1.896-9.905-1.784-8.527c-3.204,1.201-1.637,8.086-2.197,10.524c-0.83,3.604-5.159,6.219-8.174,8.25
	c-0.654,0.436-1.519,0.913-2.479,1.402c-0.053-3.268-0.106-6.79-0.165-10.635c-0.365-25.399-0.035-52.83-0.542-78.318
	c-0.2-10.182-0.406-20.317-0.53-30.47c4.04-2.903,7.844-6.042,11.313-9.699c4.611-4.858,10.524-9.888,13.88-15.765
	c1.301-2.267,1.967-5.282,2.379-7.821c0.277-1.737,0.218-8.409-1.973-3.922c-1.036,2.12-0.247,5.182-1.384,7.52
	c-1.307,2.697-3.48,4.97-5.807,6.778c-1.184,0.925-2.467,1.967-3.828,2.303c-0.648-1.531,1.896-9.905-1.79-8.521
	c-3.204,1.195-1.631,8.086-2.197,10.524c-0.824,3.598-5.153,6.219-8.168,8.245c-0.66,0.448-1.531,0.919-2.503,1.419
	c-0.012-2.173-0.029-4.346-0.029-6.519c-0.006-18.162,2.32-33.85,3.162-51.623c0.353-7.597,0.53-15.27,0.612-22.985
	c3.204-2.444,6.242-5.07,9.069-8.044c4.605-4.858,10.518-9.888,13.88-15.765c1.296-2.267,1.967-5.282,2.373-7.821
	c0.277-1.743,0.218-8.415-1.967-3.928c-1.036,2.126-0.253,5.188-1.384,7.526c-1.307,2.691-3.486,4.964-5.807,6.778
	c-1.184,0.925-2.473,1.961-3.834,2.303c-0.648-1.531,1.896-9.905-1.784-8.527c-3.204,1.201-1.637,8.086-2.197,10.524
	c-0.83,3.604-5.159,6.225-8.174,8.25c-0.035,0.024-0.088,0.059-0.135,0.088c0.041-19.787-0.383-39.733,0.1-59.22
	c0.035-1.484,0.088-2.98,0.147-4.493c-3.675-1.201-7.379-2.32-11.118-3.357c-0.318,7.296-0.677,14.599-0.972,21.836
	c-1.06-0.536-2.008-1.054-2.715-1.525c-3.021-2.026-7.344-4.646-8.18-8.245c-0.559-2.444,1.013-9.328-2.191-10.53
	c-3.686-1.384-1.142,6.996-1.784,8.527c-1.366-0.336-2.65-1.378-3.834-2.303c-2.326-1.814-4.499-4.087-5.807-6.778
	c-1.007-2.085-0.489-4.764-1.107-6.819c-0.766-0.124-1.525-0.259-2.285-0.377c-0.135,1.278-0.077,2.868,0.041,3.598
	c0.406,2.538,1.078,5.553,2.373,7.821c3.363,5.871,9.269,10.906,13.88,15.759c3.463,3.651,7.255,6.784,11.283,9.681
	c-0.082,2.397-0.153,4.782-0.2,7.143c-0.571,25.652-0.919,51.205-1.472,76.781c-2.167-1.066-4.364-2.108-5.695-3.003
	c-3.021-2.026-7.349-4.646-8.174-8.245c-0.565-2.438,1.007-9.328-2.202-10.53c-3.675-1.378-1.137,7.002-1.784,8.533
	c-1.36-0.342-2.644-1.384-3.828-2.308c-2.326-1.808-4.499-4.087-5.807-6.778c-1.131-2.338-0.347-5.406-1.384-7.52
	c-2.191-4.487-2.25,2.185-1.967,3.928c0.406,2.538,1.078,5.547,2.373,7.815c3.357,5.877,9.269,10.906,13.88,15.765
	c4.258,4.482,8.998,8.197,14.092,11.648l0.283-0.247c-0.412,17.314-0.942,34.645-1.725,52.029
	c-0.477,10.612-1.001,21.2-1.496,31.777c-1.137-0.577-2.167-1.125-2.915-1.631c-3.021-2.032-7.344-4.646-8.174-8.25
	c-0.559-2.432,1.013-9.322-2.197-10.524c-3.681-1.378-1.137,6.996-1.784,8.527c-1.366-0.336-2.644-1.378-3.834-2.303
	c-2.32-1.808-4.499-4.087-5.801-6.778c-1.137-2.338-0.353-5.406-1.384-7.52c-2.191-4.487-2.25,2.185-1.967,3.922
	c0.406,2.544,1.072,5.559,2.367,7.821c3.363,5.877,9.275,10.906,13.886,15.765c3.492,3.687,7.32,6.843,11.395,9.764
	c-1.013,22.337-1.843,44.662-1.867,67.211c-0.024,29.963,1.231,58.925,0.512,88.894c-0.047,1.879-0.082,3.763-0.124,5.648
	c-0.972-0.501-1.855-0.978-2.515-1.419c-3.015-2.032-7.344-4.652-8.174-8.25c-0.559-2.438,1.013-9.328-2.191-10.524
	c-3.681-1.384-1.142,6.996-1.784,8.527c-1.372-0.342-2.65-1.384-3.84-2.308c-2.32-1.808-4.493-4.081-5.801-6.778
	c-1.131-2.338-0.353-5.4-1.378-7.52c-2.197-4.487-2.255,2.185-1.979,3.928c0.412,2.532,1.078,5.553,2.379,7.815
	c3.357,5.877,9.269,10.906,13.874,15.765c3.457,3.639,7.232,6.766,11.254,9.658c-0.512,34.492,0.071,69.926,2.214,103.994
	c-8.769,2.026-17.785,4.617-27.295,7.397c-22.378,6.549-41.352,3.098-62.223,3.027c8.987,0.96,18.109,1.46,27.348,1.46
	C287.365,512,317.404,506.347,345.171,496.023z M74.772,436.809C56.958,418.948,41.776,398.466,29.834,376
	c0.989-27.996-1.402-55.215-1.349-83.311c0.053-26.624,2.562-52.948,5.271-79.331c-3.539-3.692-6.172-10.182-9.01-13.71
	c-4.27-5.288-9.77-10.206-14.646-14.834l-0.047-0.041c0.601-2.085,1.231-4.158,1.884-6.219c0.506,0.501,1.019,0.983,1.537,1.437
	c3.798,3.357,11.478,8.162,16.283,9.752c1.402,0.465,3.934,2.032,6.077,3.457c0.277-2.762,0.559-5.53,0.83-8.292
	c2.22-22.79,3.51-45.492,4.517-68.183c8.733-13.439,18.68-26.018,29.71-37.56c-0.088,9.658-0.448,19.263-1.419,28.756
	c-0.365,3.604-0.872,7.12-1.437,10.588c1.213-0.624,2.308-1.219,3.127-1.773c3.734-2.503,9.075-5.736,10.1-10.182
	c0.412-1.79-0.106-5.512,0.236-8.551c-4.711-5.135-6.649-12.39-4.505-19.675c0.877-2.974,5.318-7.632,6.142-11.142
	c13.945-12.773,29.309-24.027,45.834-33.491c0.218,0.147,0.436,0.3,0.648,0.471c7.42,5.983,11.124,16.931,8.097,26.012
	c-2.144,6.431-6.884,12.838-11.407,17.549c-2.432,2.538-5.347,5.371-8.445,6.967c-2.326,1.195-5.677,0.866-7.644,1.92
	c-4.982,2.679-5.029,10.312-10.677,13.386c-0.695,0.377-1.366,0.66-2.026,0.866c-4.252,6.089-10.418,11.466-15.37,16.683
	c-4.964,5.235-10.471,9.611-16.36,13.668c-1.667,9.199-3.18,18.391-3.174,28.326c0.006,15.358,0.73,30.581,1.39,45.928
	c1.095,25.488,0.377,52.918,1.172,78.318c1.072,34.127,2.138,43.478,2.138,66.121c-0.006,26.724,6.655,49.909,6.99,76.439
	C74.348,429.855,74.519,433.335,74.772,436.809z M86.179,104.088L86.179,104.088c-0.294-0.701-0.053-2.544,0.141-4.511
	c1.725,0.453,3.357,0.995,4.964,1.354c-0.124,0.1-0.247,0.206-0.371,0.306C89.454,102.374,87.864,103.664,86.179,104.088z"/>
<path style="fill:#ADD37F;" d="M69.967,431.851c1.949-0.071,4.252-0.141,6.867-0.212l3.81-7.426l3.916,7.196h1.731l3.904-4.517
	l2.662,3.086l4.311-4.835l6.925,10.953l4.311-4.829l2.891,0.236c3.604,0.053,7.361,0.141,11.254,0.253l4.164-6.737l4.134,8.015
	h0.612l3.887-5.765l1.396,2.049l4.582-3.239l3.563,10.647l1.566-1.107l3.298-7.838l8.963,14.44l3.298-7.832l8.474,0.306l4.346-5.123
	l6.849,11.56l4.352-5.118l6.784,0.677c0.824,0.1,1.661,0.194,2.491,0.294l2.921,0.359l5.07-6.013l2.756,15.488l5.07-6.007l3.062-0.4
	l3.039-0.406l2.038,0.294l0.512,0.077c1.301,0.2,2.603,0.412,3.91,0.63l5.076-6.113l5.188,15.029l5.082-6.113l0.872,0.183
	l4.476-2.373l6.325,7.921l4.476-2.373l4.788,1.137l5.247-5.235l0.412,1.237l6.496-2.344l-3.174,13.45l6.501-2.35l-5.3,5.971
	l-1.519-15.894l-5.306,5.966l-1.031-0.247l-2.326-0.554l5.412-5.282l0.359,1.207l7.026-2.091l-4.546,13.945l7.026-2.091h0.077
	l4.452,0.966l5.542-6.413l4.087,16.46l5.542-6.419l3.062,0.983l11.89,4.464l6.172-5.006l2.173,15.741l0.872-0.707l7.55-0.124
	l8.333,0.925l1.955,0.389l4.9-4.617l2.167,4.835l5.383-6.024l1.001,5.754l5.86-4.959l-0.3,15.358l4.334-3.669l4.193-6.784
	l3.427,6.772l4.075-6.16l0.43,1.343l0,0l0.053,6.925C337.533,501.912,297.947,512,256,512
	C182.717,512,116.637,481.201,69.967,431.851z"/>
<path style="fill:#424242;" d="M260.14,457.297c0,0,8.451,13.356,10.8,18.851c0,0-14.075-0.795-17.013-2.491
	c-2.933-1.69-3.18-18.497-3.18-18.497L260.14,457.297z M70.603,432.528c-1.248-1.307-2.473-2.632-3.692-3.963
	c1.702-5.636,5.795-14.004,5.795-14.004s11.054-1.914,12.809-1.773c1.755,0.147-2.968,13.026-2.968,13.026
	S75.497,430.408,70.603,432.528z M168.725,444.241c0,0,4.411,12.014,3.975,17.278c0,0-15.647-3.056-17.514-6.036
	c-1.879-2.98,1.643-13.951,1.643-13.951L168.725,444.241z M235.76,447.421c0,0-1.99,18.762-4.558,19.97
	c-2.562,1.207-10.341-16.006-9.77-18.533c0.577-2.52,9.381-8.203,9.381-8.203L235.76,447.421z"/>
<g>
	<path style="fill:#FF6E00;" d="M263.55,378.838c0,0-8.18,19.069-8.315,29.757c0,0,4.099,5.53,1.614,10.836
		c-2.485,5.306,1.608,31.005,2.868,33.338c1.254,2.326,5.247,7.214,3.475,8.268c-1.773,1.054-7.579-1.731-7.579-1.731
		s-0.218,3.71-2.915,3.092c-2.697-0.612-3.357-3.315-3.357-3.315s-6.519,3.109-6.761,1.778c-0.236-1.331,5.877-9.128,5.877-9.128
		s-1.985-25.046-2.874-28.909c-0.883-3.863-5.147-8.669-4.429-11.819c0.718-3.156,2.467-17.561,2.202-24.775
		C243.085,379.021,259.21,373.25,263.55,378.838z"/>
	<path style="fill:#FF6E00;" d="M143.703,308.807c0,0-14.363,30.487-16.136,58.425c0,0-9.081,9.57-17.396,12.449
		c0,0-7.485-0.76-9.416,2.12c-1.937,2.874,0.73,9.098,0.477,11.336c-0.253,2.244-11.607,13.951-14.01,14.428
		c-2.409,0.471-8.586-0.43-8.433,1.137s4.729,3.887,4.729,3.887s-2.656,2.715-2.674,5.012c-0.012,2.291,1.784,2.261,1.784,2.261
		s-4.546,9.87-1.802,11.266c2.744,1.39,7.821-10.794,9.01-12.661c1.195-1.867,15.146-10.429,17.685-15.977
		c2.544-5.547,4.941-9.34,7.026-10.653c2.085-1.313,30.899-7.073,39.091-20.27c8.192-13.197,13.633-46.346,5.176-55.162
		C150.358,307.582,143.703,308.807,143.703,308.807z"/>
</g>
<path style="fill:#FF8D00;" d="M249.734,388.95c3.074,6.843,6.967,14.764,8.987,15.794c3.651,1.855,9.44,2.149,10.912,6.843
	c1.472,4.694-4.476,8.457-8.044,10.718c-3.569,2.267-22.82,21.96-23.992,23.744c-1.166,1.778-0.436,5.277-3.08,5.701
	c-2.638,0.418-2.909-7.326-2.909-7.326s-4.293,2.096-5.135-0.919c-0.842-3.009,4.611-4.582,4.611-4.582s-5.53-2.544-4.847-4.434
	c0.689-1.896,7.591,0.194,7.591,0.194s17.131-17.107,18.603-19.074c0,0-14.304-14.281-19.905-17.608
	c-3.204-1.902-8.527-6.454-12.502-11.301c-18.362-4.334-28.267-14.222-35.122-17.885c-1.608-0.854-4.181-1.932-7.302-3.245
	c-2.202,7.361-4.423,14.611-5.612,17.331c-2.668,6.107-10.706,14.487-14.316,18.003c-3.61,3.516-0.371,8.339,0.024,9.964
	c0.4,1.619,7.19,23.338,9.14,27.107c1.949,3.757,6.572,8.133,5.347,10.147c-1.231,2.02-7.85-3.657-7.85-3.657
	s-1.036,3.422-3.516,3.109c-2.479-0.306-2.956-2.715-2.956-2.715s-4.358,2.326-3.745-5.96c0,0-4.67,2.191-6.178,0.601
	c-1.513-1.59,3.675-6.79,2.426-10.647c-1.248-3.857-7.903-21.713-9.452-23.856c-1.561-2.144-0.453-6.996,3.145-8.215
	c3.598-1.225,8.091-11.943,8.091-11.943s-13.068-30.046-14.045-39.203c-0.395-3.698-0.418-8.133-0.1-12.65
	c-1.796,5.483-3.875,9.829-6.319,9.882c-6.201,0.135-1.584-19.228-1.584-19.228s-9.464,21.33-13.969,16.471
	c-4.511-4.858,11.484-25.723,9.752-24.84c-1.737,0.883-15.818,8.904-13.851,1.378c1.973-7.532,35.634-25.264,45.057-25.152
	c10.217-2.267,44.362,13.692,53.996,15.123c9.628,1.425,35.087-2.727,35.087-2.727c33.65-5.347,40.051,47.177,27.843,67.117
	C266.983,382.495,259.239,387.466,249.734,388.95z"/>
<g>
	<path style="fill:#FFB100;" d="M277.677,250.829c3.274-4.452,10.082-6.89,15.188-5.394c5.1,1.508,29.239,4.629,39.02,6.519
		c9.782,1.89,14.351,7.238,14.351,7.238s-1.019,10.441-2.462,10.794c-1.443,0.347-3.557-0.819-3.557-0.819s0.654,4.582-2.379,5.93
		c-3.027,1.349-27.213-0.418-30.735,2.52c-0.212,0.177-0.442,0.347-0.695,0.518c-1.914,7.715-4.482,19.322-4.099,24.775
		c0.601,8.557,1.472,31.995,0.271,34.274c-1.201,2.279-5.471-2.526-5.471-2.526s0.53,22.331-2.155,24.021
		c-2.679,1.684-5.659-4.358-5.659-4.358s-3.681,20.865-9.77,22.284s-10.376-10.023-10.376-10.023c0.006,0-5.754,10.689-9.334,9.611
		c-3.586-1.072-5.483-19.634-5.483-19.634s-3.08,5.683-5.883,4.535c-2.803-1.148-6.731-18.639-2.344-31.17
		c0,0-7.956,3.545-8.298,1.678c-0.336-1.861,7.95-16.948,7.95-16.948s-12.832-3.056-12.862-7.402s16.701-7.173,21.601-15.247
		c4.906-8.068,15.57-27.973,20.759-33.367c0.183-0.194,0.4-0.377,0.642-0.548C275.893,255.117,276.429,252.52,277.677,250.829z"/>
	<path style="fill:#FFB100;" d="M287.606,252.072c0,0-5.347-1.561-9.434-6.236c-4.075-4.676-17.726-12.002-26.147,11.501
		c0,0,9.77,12.39,19.693,9.181s11.23-8.969,16.389-9.187C293.266,257.107,287.606,252.072,287.606,252.072z"/>
</g>
<path style="fill:#FF8D00;" d="M254.999,256.241c0,0,5.312-9.216,11.619-9.163c6.796,0.053,8.875,11.837,16.96,9.216
	c0,0-9.558,3.103-11.813,5.542C269.503,264.28,259.486,263.426,254.999,256.241z"/>
<g>
	<path style="fill:#202020;" d="M287.73,247.108c0,0,2.067-9.081-16.33-14.97c-18.403-5.889-23.097-3.21-30.051-8.539
		c-6.955-5.335-12.084-15.694-10.871-19.504c1.207-3.81,2.049-6.001-0.612-6.266s-7.061,13.026-4.281,18.762
		c2.78,5.742,8.074,12.379,8.074,12.379s-7.408-0.347-11.007-2.509c-3.592-2.161-10.153-19.657-11.725-21.719
		s-3.062,14.923,0.077,19.063c0,0-9.034-0.683-14.546-6.36c-5.512-5.689-9.676-24.74-6.39-28.726
		c3.292-3.981,9.21-6.042,8.604-7.874c-0.601-1.837-14.251-0.188-16.053,6.207c-1.796,6.401,1.902,21.524,3.351,25.611
		c0,0-4.352-4.888-6.183-13.227c-1.831-8.339-2.685-10.577-5.094-10.447c-2.414,0.13-1.879,14.21,6.908,26.424
		c8.792,12.22,30.511,22.949,46.352,22.143s25.876-2.986,34.18-2.096c8.309,0.895,17.231,8.038,17.861,11.242
		C280.622,249.911,286.57,250.246,287.73,247.108z"/>
	<path style="fill:#202020;" d="M321.639,253.586c0,0,11.177-7.208,14.664-6.072c3.486,1.137,11.16,9.346,10.188,13.215
		C346.49,260.729,330.778,265.764,321.639,253.586z"/>
</g>
<path style="fill:#FF8D00;" d="M340.754,261.701c0,0-2.738-6.207-4.705-7.09c-1.973-0.877-5.312,2.573-5.312,2.573
	s3.628-1.349,4.611-0.612c0.978,0.736,2.785,5.176,2.785,5.176S339.624,261.789,340.754,261.701z"/>
<g>
	<path style="fill:#202020;" d="M340.218,269.168c0,0-10.418-3.392-13.191-3.003c-2.768,0.389-5.73,4.44-5.73,4.44
		s3.704-2.844,7.031-2.862C331.65,267.731,340.218,269.168,340.218,269.168z"/>
	<path style="fill:#202020;" d="M298.666,251.147c0,0,3.086,3.268,5.6,2.88c2.515-0.395,3.639-2.52,3.639-2.52
		s0.406,2.679-3.239,4.111C301.021,257.042,298.666,251.147,298.666,251.147z"/>
</g>
<path style="fill:#FF8D00;" d="M276.953,265.917c0,0,0.077,0.342,0.23,0.96c0.135,0.63,0.365,1.531,0.689,2.644
	c0.312,1.113,0.766,2.42,1.366,3.834c0.612,1.407,1.425,2.909,2.562,4.24c1.148,1.313,2.644,2.409,4.446,2.956
	c1.79,0.583,3.81,0.654,5.83,0.501c4.075-0.353,8.162-1.519,11.849-2.426c0,0-0.777,0.471-2.332,1.207
	c-1.555,0.73-3.875,1.784-7.108,2.55c-1.619,0.365-3.48,0.671-5.571,0.548c-2.073-0.1-4.458-0.748-6.431-2.326
	c-1.996-1.561-3.357-3.91-4.187-6.448C277.442,271.606,277.083,268.82,276.953,265.917z"/>
<g>
	<path style="fill:#FF6E00;" d="M221.597,387.254c0,0-0.23-0.183-0.642-0.536c-0.212-0.171-0.465-0.389-0.766-0.642
		c-0.294-0.253-0.589-0.589-0.942-0.942c-1.384-1.425-3.062-3.728-4.376-6.655c-1.354-2.909-2.326-6.378-3.074-9.84
		c-0.748-3.469-1.307-6.931-1.867-10.07c0,0,0.371,0.665,0.96,1.979c0.577,1.325,1.331,3.316,2.096,5.918
		c0.801,2.591,1.566,5.801,2.697,9.393C216.832,379.445,218.381,383.485,221.597,387.254z"/>
	<path style="fill:#FF6E00;" d="M250.188,389.415c0,0-0.559-0.789-1.484-2.096c-0.877-1.325-2.226-3.21-2.962-5.865
		c-0.112-0.324-0.159-0.671-0.206-1.025c-0.047-0.353-0.112-0.713-0.13-1.078c0.006-0.371,0.018-0.742,0.029-1.119
		c0.006-0.188,0.006-0.383,0.024-0.571l0.1-0.554c0.077-0.365,0.147-0.736,0.224-1.107c0.1-0.365,0.224-0.718,0.342-1.078
		c0.218-0.73,0.536-1.384,0.824-2.073c0.289-0.654,0.624-1.307,0.895-1.943l0.43-0.954c0.118-0.318,0.236-0.636,0.347-0.948
		c0.289-0.624,0.365-1.278,0.565-1.914c0.124-0.642,0.177-1.29,0.289-1.937c0,0,0.165,0.577,0.371,1.773
		c0.024,0.294,0.012,0.63,0.012,1.001c-0.006,0.371,0.012,0.795-0.077,1.225c-0.077,0.436-0.141,0.919-0.259,1.407
		c-0.135,0.483-0.283,1.007-0.459,1.543c-0.689,2.138-1.831,4.54-1.884,7.397c0.006,1.431,0.371,2.992,0.936,4.646
		S249.481,387.536,250.188,389.415z"/>
	<path style="fill:#FF6E00;" d="M176.711,367.596c0,0,0.194-1.272,0.518-3.404c0.336-2.126,0.748-5.106,1.537-8.51
		c0.371-1.702,0.925-3.498,1.608-5.312c0.73-1.802,1.667-3.604,2.833-5.253c2.391-3.292,5.718-5.765,8.945-7.179
		c0,0-0.618,0.589-1.82,1.602c-1.119,1.101-2.856,2.621-4.576,4.959c-1.708,2.332-3.392,5.424-4.699,9.375
		C179.679,357.797,178.536,362.538,176.711,367.596z"/>
	<path style="fill:#FF6E00;" d="M141.818,326.674c0,0-0.259,0.524-0.713,1.343c-0.412,0.848-0.925,2.043-1.402,3.439
		c-0.247,0.695-0.436,1.46-0.677,2.226c-0.094,0.389-0.194,0.783-0.289,1.184l-0.165,0.595l-0.112,0.612
		c-0.082,0.4-0.171,0.807-0.271,1.213c-0.059,0.406-0.118,0.807-0.194,1.213l-0.124,0.607c-0.018,0.2-0.041,0.4-0.065,0.595
		c-0.047,0.4-0.106,0.795-0.183,1.195c0,0-0.188-0.324-0.436-1.019c-0.13-0.347-0.294-0.783-0.353-1.307
		c-0.059-0.524-0.194-1.154-0.153-1.843c0.041-0.683,0.029-1.478,0.241-2.291c0.088-0.412,0.194-0.842,0.312-1.284
		c0.135-0.43,0.324-0.872,0.506-1.331C138.532,330.042,139.799,328.069,141.818,326.674z"/>
</g>
<path style="fill:#202020;" d="M291.687,248.986c0,0,7.62-5.341-2.067-22.054s-14.964-17.885-16.542-26.5
	c-1.578-8.627,1.572-19.746,5.023-21.754c3.457-2.02,5.547-3.074,3.757-5.059c-1.796-1.99-13.975,4.923-15.771,11.042
	c-1.79,6.113-2.32,14.587-2.32,14.587s-5.259-5.229-6.472-9.246c-1.213-4.01,5.659-21.383,5.883-23.968
	c0.212-2.585-12.29,9.01-12.738,14.187c0,0-6.242-6.572-6.513-14.481c-0.277-7.909,9.422-24.834,14.54-25.582
	c5.112-0.742,10.877,1.702,11.666-0.065c0.783-1.767-10.441-9.705-16.071-6.172c-5.624,3.533-13.032,17.231-14.699,21.236
	c0,0,0.047-6.549,4.287-13.957c4.24-7.414,5.112-9.64,3.233-11.166c-1.879-1.519-10.93,9.275-12.614,24.227
	c-1.684,14.958,7.22,37.489,19.51,47.524c12.284,10.035,21.183,15.152,26.742,21.389c5.559,6.236,7.379,17.52,5.695,20.323
	C284.532,246.295,288.719,250.535,291.687,248.986z"/>
<g>
</g>
<g>
</g>
<g>
</g>
<g>
</g>
<g>
</g>
<g>
</g>
<g>
</g>
<g>
</g>
<g>
</g>
<g>
</g>
<g>
</g>
<g>
</g>
<g>
</g>
<g>
</g>
<g>
</g>
</svg>
