<?xml version="1.0" encoding="iso-8859-1"?>
<!-- Generator: Adobe Illustrator 19.0.0, SVG Export Plug-In . SVG Version: 6.00 Build 0)  -->
<svg version="1.1" id="Layer_1" xmlns="http://www.w3.org/2000/svg" xmlns:xlink="http://www.w3.org/1999/xlink" x="0px" y="0px"
	 viewBox="0 0 512 512" style="enable-background:new 0 0 512 512;" xml:space="preserve">
<path style="fill:#FFCB7F;" d="M255.997,0C397.385,0,512,114.615,512,255.997C512,397.385,397.385,512,255.997,512
	C114.615,512,0,397.385,0,255.997C0,114.615,114.615,0,255.997,0z"/>
<path style="fill:#FFEBB1;" d="M273.642,327.116l225.732-150.68c8.183,25.041,12.626,51.784,12.626,79.56
	c0,0.863-0.023,1.726-0.035,2.589L273.642,327.116L3.493,213.746c5.054-30.453,15.473-59.092,30.271-84.902L273.642,327.116z
	 M257.206,0.018c33.441,0.153,65.367,6.727,94.617,18.537l-78.181,308.562l197.334-210.147
	C456.33,94.37,438.216,74.23,417.389,57.29L273.642,327.116L76.367,73.626c28.24-27.823,62.919-49.125,101.59-61.493l95.685,314.983
	L257.206,0.018z"/>
<path style="fill:#FFFFFF;" d="M260.787,194.029c34.057,0,61.663,27.606,61.663,61.663c0,34.063-27.606,61.675-61.663,61.675
	c-34.063,0-61.675-27.612-61.675-61.675C199.112,221.635,226.724,194.029,260.787,194.029z"/>
<path style="fill:#FFB650;" d="M373.676,284.014c0,0,64.651-79.795,93.942-72.223c12.456,3.223,29.115,17.862,44.147,33.623
	c0.147,3.51,0.235,7.038,0.235,10.583c0,52.87-16.031,101.983-43.484,142.773c-17.627,2.947-22.217,3.428-23.626,3.428
	c-2.524,0-40.402-6.064-46.466-13.636c-6.058-7.578-5.048-6.568-7.572-10.607c-2.53-4.038-11.616-23.738-12.626-37.878
	s-0.505-13.636-1.01-17.169C376.705,319.368,373.676,284.014,373.676,284.014z"/>
<path style="fill:#FFA526;" d="M468.516,398.77c-17.627,2.947-22.217,3.428-23.626,3.428c-2.524,0-40.402-6.064-46.466-13.636
	c-6.058-7.578-5.048-6.568-7.572-10.607c-2.53-4.038-11.616-23.738-12.626-37.878s-0.505-13.636-1.01-17.169
	c-0.34-2.389-1.831-19.259-2.765-29.983c7.361-8.916,65.748-78.375,93.167-71.284c12.52,3.24,29.279,18.009,44.376,33.863
	l0.006,0.493C512,308.867,495.969,357.98,468.516,398.77z"/>
<path style="fill:#FFC36E;" d="M3.088,216.176c46.108-35.366,96.694-63.776,124.887-46.554
	c60.706,37.086,214.145,177.781,214.145,177.781l101.167,83.1C396.551,480.637,329.94,512,255.997,512
	C114.615,512,0,397.385,0,255.997C0,242.455,1.062,229.154,3.088,216.176z"/>
<path style="fill:#FFB54C;" d="M1.192,231.273c46.607-36.041,98.203-65.473,126.783-48.016
	c60.706,37.086,214.145,177.781,214.145,177.781l93.801,77.054C389.684,483.778,326.142,512,255.997,512
	C114.615,512,0,397.385,0,255.997C0,247.656,0.411,239.409,1.192,231.273z"/>
<path style="fill:#F3501E;" d="M325.297,204.319c0.382,1.485-0.957,2.765-1.374,3.117c2.512-2.025,3.71,0.452,3.71,0.452
	c3.704,0.581-0.188,3.504-0.188,3.504c-1.327,0.528-2.189-0.898-2.189-0.898c-3.381,1.667-1.479,2.624-1.479,2.624
	c2.512-0.581,1.01,1.602,1.01,1.602l-1.538,0.223l-1.843,0.992l0.094,0.657l1.391-0.188l0.153,1.086l-1.655,0.757l0.505,1.239
	c1.896,2.706-4.485,4.009-4.485,4.009c-1.01,8.136-8.617,5.207-10.401,4.397c-1.35,0.657-2.818,1.109-4.35,1.315
	c-3.892,0.528-7.584-0.487-10.548-2.571c-2.236,0.452-4.678-0.205-4.678-0.205c-2.589,0.276-1.561-3.51-1.561-3.51
	c-2.025,4.203-4.972,0.564-4.972,0.564c-2.818-3.005,0.581-4.79,0.581-4.79c-1.632-1.837,0.605-3.34,0.605-3.34
	c-4.279-0.804-5.277-3.017-5.471-4.379c-1.82-0.569-3.299-1.186-4.203-1.585c-3.316,1.591-6.944,2.7-10.771,3.223
	c-9.574,1.315-18.766-1.18-26.056-6.345c-5.553,1.109-11.599-0.464-11.599-0.464c-6.422,0.652-3.868-8.734-3.868-8.734
	c-3.446,7.191-7.971,5.142-10.448,3.17c0.452,2.207-4.831,3.311-4.831,3.311c-0.998,8.13-8.594,5.195-10.378,4.391
	c-1.338,0.64-2.818,1.086-4.373,1.297c-3.851,0.546-7.566-0.493-10.536-2.553c-2.236,0.446-4.672-0.211-4.672-0.211
	c-2.594,0.288-1.556-3.528-1.556-3.528c-2.013,4.232-4.995,0.581-4.995,0.581c-2.794-3.005,0.622-4.766,0.622-4.766
	c-1.632-1.878,0.581-3.375,0.581-3.375c-6.363-1.209-5.465-5.518-5.465-5.518c-2.929-3.792-0.059-7.061-0.059-7.061
	c-0.405-0.329-0.693-0.669-0.88-0.986c-3.598,0.317-7.044-0.675-9.797-2.636c-2.254,0.434-4.714-0.211-4.714-0.211
	c-2.606,0.282-1.579-3.54-1.579-3.54c-2.025,4.256-4.995,0.575-4.995,0.575c-2.853-3.023,0.593-4.807,0.593-4.807
	c-1.638-1.855,0.616-3.399,0.616-3.399c-6.428-1.192-5.518-5.535-5.518-5.535c-2.935-3.827-0.041-7.114-0.041-7.114
	c-2.553-2.06-0.223-4.132-0.223-4.132c-0.81-2.53,2.776-2.43,2.776-2.43c-3.586-6.856,2.782-7.631,2.782-7.631
	c1.162-3.299,4.009-1.291,4.009-1.291c1.45-3.663,6.439-0.898,6.439-0.898c-1.485-3.14,3.211-3.158,3.211-3.158
	c0.916-0.499,1.737-0.564,2.454-0.376c-0.012-0.411,0.041-0.675,0.041-0.675c-2.923-3.81-0.053-7.073-0.053-7.073
	c-2.53-2.084-0.188-4.168-0.188-4.168c-0.364-1.086,0.1-1.691,0.751-2.025c-2.835-6.598,1.726-11.775,1.726-11.775
	c-5.336-4.338-0.434-8.687-0.434-8.687c-1.743-5.295,5.805-5.13,5.805-5.13c-7.525-14.358,5.799-15.954,5.799-15.954
	c2.436-6.903,8.412-2.724,8.412-2.724c3.035-7.637,13.512-1.855,13.512-1.855c-3.099-6.568,6.739-6.627,6.739-6.627
	c6.592-3.675,11.206,4.15,11.206,4.15c3.927-5.113,7.167-6.897,9.75-7.003c-2.184-7.132,5.025-8.012,5.025-8.012
	c1.632-4.62,5.612-1.826,5.612-1.826c2.049-5.101,9.045-1.233,9.045-1.233c-2.06-4.397,4.526-4.432,4.526-4.432
	c4.414-2.465,7.496,2.776,7.496,2.776c7.83-10.214,11.652-0.564,11.652-0.564c13.289-6.516,15.45,5.799,15.45,5.799
	c2.706-3.475,6.345,0.094,9.838,5.066c2.313,3.316,0.816,6.31-0.452,7.954c2.307,1.321,3.698,3.663,3.698,3.663
	c10.349-13.489,15.379-0.728,15.379-0.728c17.527-8.629,20.38,7.66,20.38,7.66c3.551-4.596,8.359,0.094,12.996,6.686
	c4.614,6.586-2.236,12.198-2.236,12.198c4.843,4.209-2.501,7.061-2.501,7.061c3.927,3.751,0.035,7.484-0.951,8.329
	c4.637-3.768,6.903,0.834,6.903,0.834c6.85,1.104-0.34,6.545-0.34,6.545c-2.495,0.963-4.085-1.649-4.085-1.649
	c-3.393,1.667-3.933,2.953-3.716,3.774c8.57-1.99,10.096,6.662,10.096,6.662c2.424-3.135,5.723,0.076,8.899,4.584
	c3.146,4.502-1.544,8.347-1.544,8.347c3.322,2.888-1.708,4.849-1.708,4.849c2.706,2.565,0.018,5.119-0.657,5.7
	c3.193-2.606,4.731,0.546,4.731,0.546c4.69,0.769-0.223,4.508-0.223,4.508c-1.726,0.634-2.8-1.15-2.8-1.15
	c-1.244,0.616-1.925,1.162-2.272,1.614c3.17,1.274,3.851,5.095,3.851,5.095c1.896-2.483,4.485,0.053,7.003,3.616
	c2.495,3.551-1.221,6.592-1.221,6.592c2.624,2.272-1.332,3.833-1.332,3.833c2.125,2.007,0.018,4.033-0.528,4.479
	c2.536-2.043,3.739,0.434,3.739,0.434c3.692,0.599-0.176,3.551-0.176,3.551c-1.368,0.522-2.213-0.88-2.213-0.88
	c-3.399,1.667-1.514,2.606-1.514,2.606c2.565-0.564,1.051,1.638,1.051,1.638l-1.561,0.2l-1.855,1.039l0.112,0.616l1.409-0.17
	l0.135,1.068l-1.655,0.775l0.505,1.25c1.914,2.706-4.543,4.044-4.543,4.044c-0.992,8.159-8.652,5.23-10.419,4.408
	c-1.374,0.634-2.829,1.104-4.391,1.315c-3.909,0.522-7.625-0.493-10.607-2.577L325.297,204.319z"/>
<path style="fill:#FFA082;" d="M0.61,273.577c70.497-32.625,51.673,38.354,100.856,62.215
	c47.258,22.928,233.287-88.864,242.367-90.296c8.811-1.391,106.333,66.024,156.262,87.843C467.307,436.918,370.424,512,255.997,512
	C120.52,512,9.644,406.759,0.61,273.577z"/>
<path style="fill:#FF8964;" d="M2.189,289.538c68.619-30.823,50.463,39.246,99.277,62.925
	c47.258,22.928,233.439-88.893,242.367-90.302c8.676-1.362,99.688,60.19,151.278,85.413C458.267,443.722,365.112,512,255.997,512
	C125.979,512,18.613,415.071,2.189,289.538z"/>
<path style="fill:#AA310B;" d="M69.364,431.201c14.123,0.81,27.917,2.043,39.164,3.898c5.676,0.933,11.992,1.661,18.725,2.195
	l4.954-3.862l7.537,10.061l4.96-3.862l5.283,0.399l1.526-1.203l5.077,0.945l2.929-3.217l0.904,0.299l1.667,0.552l0.552,0.182
	l0.511,0.17l0.475,0.153l0.54,0.182l5.072,4.062l1.356-1.109l3.945-4.937l3.105,2.225l4.173-4.285l0.188,0.17l4.708-2.671
	l2.735-0.939l5.218-1.28l1.227,2.36l4.719-1.221l0.687,0.875l4.86-1.256l6.375,7.748l4.854-1.256l0.241-0.023l4.091-4.89
	l6.838,5.365l3.898-3.903l5.571,2.477l3.663-5.124l10.513,6.926l3.663-5.124l7.513-1.826c1.033-0.158,2.078-0.323,3.135-0.475
	l1.027-1.156l4.367-4.326l9.087,8.271l4.373-4.326l15.725-2.06l0.458-0.023l0.458-0.023l0.446-0.018l0,0l4.579-3.129l4.127,2.806
	l4.802-2.97l8.482,7.466l4.807-2.97l5.488,0.17c0.247,0.047,0.493,0.088,0.728,0.135l4.895-2.876l7.789,8.277l4.901-2.876
	l3.915-0.475l3.563-3.54l4.578-3.129l8.1,7.578l4.579-3.129l6.011-4.291l0.61-0.728l10.184,7.085l3.992-4.755l5.459-0.745
	c1.82-0.27,3.639-0.54,5.441-0.822l3.839-4.931l10.413,6.921l1.062-1.368l3.152-5.236l3.211,1.432l0,0l3.857-4.672l9.92,6.95
	l3.851-4.667l1.567-0.587l5.535-1.327C408.984,474.486,336.878,512,255.997,512C182.395,512,116.059,480.925,69.364,431.201z"/>
<g>
	<path style="fill:#CE4316;" d="M274.076,456.465c-2.835-11.376-9.022-24.794-9.58-36.546c-1.485-31.592-0.006-63.359,0-94.969
		c4.937-5.535,9.18-11.341,13.812-16.982c0.505-0.616,1.021-1.239,1.538-1.861c7.895,0.722,15.866,1.855,23.832,1.931
		c1.826,0.012,1.82-1.826,0-1.843c-7.478-0.07-14.962-1.074-22.388-1.79c0.029-0.035,0.059-0.07,0.094-0.112
		c0.158-0.1,0.282-0.235,0.34-0.405c5.406-6.251,11.687-12.427,20.55-16.682c1.444-0.693,0.035-2.295-1.432-1.591
		c-3.264,1.573-6.181,3.375-8.846,5.336c-1.649-4.42,2.465-10.038,7.384-12.861c1.368-0.787-0.64-2.084-2.002-1.297
		c-5.905,3.393-10.542,10.278-7.783,15.385c0.076,0.147,0.194,0.27,0.34,0.358c-3.005,2.424-5.688,5.036-8.171,7.713v-9.004
		c0-1.186-2.823-1.186-2.823,0v12.162c-0.211,0.241-0.423,0.481-0.628,0.722h-0.082c-1.285-0.112-1.638,0.798-1.092,1.379
		c-4.355,5.16-8.282,10.501-12.638,15.673c0.088-35.519,1.397-72.616-1.837-108.728l-1.027,0.158
		c-6.809,0.933-13.43-0.059-19.312-2.571c1.438,14.223,2.947,28.457,2.947,42.897c0.006,12.761,0.229,25.481,0.622,38.172
		c-5.835,2.301-12.157,3.974-19.077,4.449c-1.456,0.094-2.906,0.123-4.344,0.094c-2.917-2.371-5.471-4.919-7.513-7.631
		c0.346-0.041,0.669-0.176,0.875-0.452c1.127-1.473,2.231-2.941,2.319-4.608c0.059-1.186-2.765-1.186-2.829,0
		c-0.065,1.174-0.828,2.242-1.62,3.281c-0.751-1.145-1.409-2.324-1.966-3.528c-0.522-1.133-3.252-0.652-2.724,0.487
		c2.054,4.473,5.447,8.535,9.685,12.256c-6.422-0.564-12.579-2.207-18.208-4.32c-1.585-0.593-3.011,0.998-1.432,1.591
		c6.844,2.565,14.188,4.332,21.971,4.684c0.006,0,0.012,0.006,0.012,0.006c0.564,0.446,1.332,0.364,1.831,0.047
		c0.957,0.012,1.908,0.012,2.87-0.018c7.214-0.217,14.011-1.884,20.216-4.215c1.802,55.077,6.932,109.626,12.579,164.527
		L274.076,456.465z"/>
	<g>
		<path style="fill:#BD360C;" d="M443.34,394.491c0.159,0.616-0.399,1.145-0.569,1.291c1.039-0.839,1.538,0.188,1.538,0.188
			c1.532,0.241-0.082,1.45-0.082,1.45c-0.546,0.217-0.904-0.37-0.904-0.37c-1.397,0.687-0.61,1.08-0.61,1.08
			c1.039-0.235,0.417,0.663,0.417,0.663l-0.634,0.094l-0.763,0.411l0.035,0.27l0.575-0.076l0.065,0.452l-0.687,0.311l0.211,0.511
			c0.787,1.115-1.855,1.661-1.855,1.661c-0.417,3.358-3.563,2.148-4.303,1.814c-0.558,0.276-1.162,0.458-1.796,0.546
			c-1.608,0.217-3.14-0.2-4.361-1.068c-0.927,0.194-1.937-0.082-1.937-0.082c-1.068,0.117-0.646-1.45-0.646-1.45
			c-0.839,1.737-2.054,0.235-2.054,0.235c-1.162-1.244,0.241-1.978,0.241-1.978c-0.675-0.763,0.247-1.385,0.247-1.385
			c-1.767-0.335-2.178-1.25-2.26-1.814c-0.751-0.235-1.362-0.487-1.737-0.652c-1.374,0.657-2.87,1.115-4.455,1.332
			c-3.956,0.546-7.76-0.487-10.771-2.624c-2.301,0.458-4.796-0.194-4.796-0.194c-2.659,0.27-1.602-3.61-1.602-3.61
			c-1.426,2.97-3.293,2.125-4.32,1.309c0.182,0.916-1.996,1.368-1.996,1.368c-0.417,3.363-3.557,2.148-4.297,1.82
			c-0.552,0.264-1.162,0.446-1.808,0.534c-1.591,0.223-3.129-0.205-4.355-1.057c-0.922,0.188-1.931-0.088-1.931-0.088
			c-1.068,0.123-0.646-1.456-0.646-1.456c-0.834,1.749-2.06,0.241-2.06,0.241c-1.162-1.244,0.252-1.972,0.252-1.972
			c-0.675-0.775,0.241-1.397,0.241-1.397c-2.63-0.499-2.26-2.283-2.26-2.283c-1.209-1.567-0.023-2.917-0.023-2.917
			c-0.164-0.135-0.288-0.276-0.364-0.411c-1.485,0.135-2.911-0.276-4.05-1.086c-0.933,0.182-1.949-0.088-1.949-0.088
			c-1.08,0.117-0.652-1.462-0.652-1.462c-0.839,1.755-2.066,0.241-2.066,0.241c-1.18-1.256,0.241-1.99,0.241-1.99
			c-0.675-0.769,0.258-1.409,0.258-1.409c-2.659-0.493-2.283-2.289-2.283-2.289c-1.215-1.579-0.018-2.941-0.018-2.941
			c-1.057-0.851-0.088-1.708-0.088-1.708c-0.335-1.051,1.145-1.01,1.145-1.01c-1.479-2.829,1.151-3.152,1.151-3.152
			c0.481-1.362,1.661-0.534,1.661-0.534c0.599-1.514,2.659-0.37,2.659-0.37c-0.61-1.297,1.332-1.309,1.332-1.309
			c0.376-0.205,0.716-0.229,1.016-0.153c-0.012-0.17,0.012-0.282,0.012-0.282c-1.209-1.573-0.023-2.923-0.023-2.923
			c-1.045-0.863-0.076-1.726-0.076-1.726c-0.147-0.446,0.041-0.693,0.311-0.839c-1.168-2.724,0.716-4.866,0.716-4.866
			c-2.207-1.79-0.182-3.592-0.182-3.592c-0.722-2.189,2.401-2.119,2.401-2.119c-3.111-5.94,2.401-6.598,2.401-6.598
			c1.004-2.859,3.475-1.127,3.475-1.127c1.256-3.158,5.588-0.769,5.588-0.769c-1.28-2.712,2.788-2.741,2.788-2.741
			c2.724-1.52,4.631,1.72,4.631,1.72c1.626-2.119,2.964-2.853,4.033-2.9c-0.904-2.947,2.078-3.311,2.078-3.311
			c0.675-1.908,2.324-0.751,2.324-0.751c0.845-2.113,3.739-0.517,3.739-0.517c-0.851-1.814,1.872-1.831,1.872-1.831
			c1.826-1.015,3.099,1.151,3.099,1.151c3.234-4.226,4.819-0.235,4.819-0.235c5.494-2.694,6.386,2.401,6.386,2.401
			c1.115-1.438,2.624,0.035,4.068,2.096c0.957,1.368,0.335,2.606-0.188,3.287c0.957,0.546,1.532,1.514,1.532,1.514
			c4.273-5.582,6.357-0.299,6.357-0.299c7.249-3.569,8.429,3.164,8.429,3.164c1.467-1.896,3.457,0.041,5.371,2.765
			s-0.922,5.048-0.922,5.048c2.002,1.737-1.033,2.917-1.033,2.917c1.62,1.55,0.012,3.099-0.399,3.446
			c1.919-1.561,2.859,0.346,2.859,0.346c2.835,0.458-0.141,2.706-0.141,2.706c-1.033,0.393-1.691-0.687-1.691-0.687
			c-1.403,0.693-1.626,1.221-1.538,1.561c3.545-0.816,4.173,2.759,4.173,2.759c1.004-1.297,2.371,0.029,3.68,1.89
			c1.303,1.867-0.634,3.457-0.634,3.457c1.374,1.192-0.71,2.002-0.71,2.002c1.121,1.062,0.012,2.119-0.27,2.36
			c1.321-1.08,1.961,0.229,1.961,0.229c1.937,0.317-0.094,1.861-0.094,1.861c-0.716,0.264-1.156-0.475-1.156-0.475
			c-0.517,0.252-0.798,0.481-0.939,0.669c1.309,0.522,1.591,2.107,1.591,2.107c0.781-1.027,1.849,0.018,2.894,1.491
			c1.033,1.473-0.505,2.724-0.505,2.724c1.086,0.945-0.552,1.585-0.552,1.585c0.88,0.834,0.012,1.673-0.217,1.855
			c1.045-0.845,1.544,0.182,1.544,0.182c1.526,0.247-0.07,1.467-0.07,1.467c-0.564,0.217-0.916-0.364-0.916-0.364
			c-1.403,0.687-0.628,1.08-0.628,1.08c1.062-0.235,0.44,0.675,0.44,0.675l-0.652,0.082L455.907,390l0.047,0.252l0.581-0.065
			l0.053,0.44l-0.681,0.323l0.205,0.517c0.792,1.115-1.878,1.667-1.878,1.667c-0.411,3.375-3.581,2.166-4.308,1.826
			c-0.569,0.264-1.168,0.458-1.814,0.546c-1.614,0.211-3.152-0.205-4.391-1.068L443.34,394.491z"/>
		<path style="fill:#BD360C;" d="M411.05,423.165l-0.035-0.364c0,0-0.27-6.533,0.575-8.423c0,0,12.82-12.444,15.42-13.137
			c0,0,1.861-16.295,4.197-16.618l-2.33-1.374c0,0-2.084,15.391-3.598,17.739c0,0-5.917-22.253-4.995-24.601l-0.857,0.675
			c0,0,2.776,22.206,2.26,23.744l-3.786,3.898c0,0-1.291,3.933-2.078,2.148c0,0-7.226-4.414-3.651-27.641l-2.911-1.878
			l-2.407,15.291c0,0,1.679-0.006,0.933,3.874c0,0,2.947,9.239,2.489,10.155c0,0-0.704,4.397-2.63,3.105l-4.05-9.568
			c0,0-3.405-13.647-1.109-15.755l-0.875-1.098c0,0-1.52,6.774-0.299,11.722c0,0-6.199-6.874-8.124-6.862l0.053,1.239
			c0,0,1.18-2.442,7.584,6.915c0,0,4.408,12.397,4.561,14.827c0,0-0.517,7.408-0.211,8.805c0,0,0.311,1.585,0.61,3.986
			L411.05,423.165z"/>
	</g>
	<g>
		<path style="fill:#D74214;" d="M208.451,355.533c0.247,0.945-0.605,1.755-0.869,1.978c1.597-1.286,2.354,0.282,2.354,0.282
			c2.348,0.37-0.117,2.225-0.117,2.225c-0.845,0.335-1.391-0.569-1.391-0.569c-2.137,1.057-0.939,1.661-0.939,1.661
			c1.591-0.364,0.64,1.015,0.64,1.015l-0.974,0.141l-1.168,0.628l0.059,0.417l0.88-0.117l0.1,0.693l-1.051,0.475l0.323,0.787
			c1.203,1.714-2.841,2.542-2.841,2.542c-0.64,5.154-5.459,3.299-6.592,2.782c-0.857,0.417-1.784,0.704-2.759,0.833
			c-2.465,0.335-4.807-0.305-6.686-1.632c-1.415,0.293-2.964-0.123-2.964-0.123c-1.638,0.176-0.986-2.231-0.986-2.231
			c-1.285,2.671-3.152,0.364-3.152,0.364c-1.784-1.908,0.37-3.041,0.37-3.041c-1.039-1.168,0.382-2.113,0.382-2.113
			c-2.712-0.511-3.346-1.914-3.469-2.776c-1.15-0.364-2.09-0.751-2.659-1.004c-2.107,1.004-4.402,1.708-6.827,2.043
			c-6.069,0.834-11.898-0.751-16.512-4.027c-3.522,0.704-7.355-0.288-7.355-0.288c-4.068,0.411-2.448-5.535-2.448-5.535
			c-2.184,4.555-5.054,3.258-6.621,2.007c0.282,1.397-3.064,2.096-3.064,2.096c-0.628,5.154-5.447,3.293-6.58,2.788
			c-0.845,0.399-1.784,0.687-2.771,0.816c-2.436,0.346-4.79-0.311-6.674-1.62c-1.415,0.288-2.958-0.129-2.958-0.129
			c-1.644,0.182-0.986-2.236-0.986-2.236c-1.28,2.677-3.17,0.37-3.17,0.37c-1.773-1.908,0.393-3.023,0.393-3.023
			c-1.033-1.192,0.37-2.142,0.37-2.142c-4.033-0.763-3.463-3.493-3.463-3.493c-1.855-2.407-0.035-4.473-0.035-4.473
			c-0.258-0.211-0.44-0.428-0.558-0.628c-2.283,0.2-4.461-0.428-6.21-1.673c-1.426,0.276-2.988-0.129-2.988-0.129
			c-1.649,0.182-0.998-2.248-0.998-2.248c-1.285,2.7-3.164,0.37-3.164,0.37c-1.808-1.914,0.37-3.046,0.37-3.046
			c-1.033-1.174,0.387-2.154,0.387-2.154c-4.068-0.757-3.493-3.51-3.493-3.51c-1.855-2.424-0.023-4.508-0.023-4.508
			c-1.62-1.303-0.141-2.618-0.141-2.618c-0.517-1.602,1.761-1.544,1.761-1.544c-2.278-4.338,1.761-4.831,1.761-4.831
			c0.734-2.096,2.542-0.822,2.542-0.822c0.916-2.319,4.08-0.569,4.08-0.569c-0.939-1.984,2.037-2.002,2.037-2.002
			c0.575-0.317,1.098-0.352,1.556-0.235c-0.012-0.264,0.023-0.428,0.023-0.428c-1.855-2.413-0.035-4.485-0.035-4.485
			c-1.602-1.321-0.117-2.641-0.117-2.641c-0.235-0.687,0.065-1.068,0.475-1.285c-1.796-4.179,1.098-7.455,1.098-7.455
			c-3.381-2.753-0.276-5.512-0.276-5.512c-1.109-3.352,3.675-3.246,3.675-3.246c-4.766-9.104,3.675-10.108,3.675-10.108
			c1.544-4.379,5.33-1.732,5.33-1.732c1.925-4.843,8.57-1.174,8.57-1.174c-1.966-4.162,4.267-4.203,4.267-4.203
			c4.173-2.33,7.103,2.63,7.103,2.63c2.483-3.24,4.543-4.373,6.175-4.438c-1.385-4.52,3.187-5.077,3.187-5.077
			c1.033-2.923,3.557-1.151,3.557-1.151c1.297-3.24,5.729-0.787,5.729-0.787c-1.309-2.788,2.87-2.806,2.87-2.806
			c2.8-1.561,4.749,1.755,4.749,1.755c4.96-6.474,7.384-0.352,7.384-0.352c8.423-4.132,9.791,3.675,9.791,3.675
			c1.714-2.201,4.021,0.059,6.234,3.211c1.467,2.101,0.522,3.997-0.282,5.036c1.462,0.839,2.342,2.324,2.342,2.324
			c6.557-8.552,9.744-0.464,9.744-0.464c11.106-5.471,12.914,4.854,12.914,4.854c2.248-2.911,5.301,0.065,8.235,4.238
			c2.929,4.173-1.415,7.731-1.415,7.731c3.07,2.665-1.585,4.473-1.585,4.473c2.489,2.377,0.023,4.749-0.605,5.283
			c2.941-2.389,4.379,0.522,4.379,0.522c4.338,0.704-0.217,4.15-0.217,4.15c-1.585,0.61-2.594-1.045-2.594-1.045
			c-2.148,1.057-2.489,1.872-2.354,2.389c5.436-1.256,6.404,4.226,6.404,4.226c1.532-1.99,3.622,0.047,5.635,2.9
			c1.996,2.859-0.974,5.295-0.974,5.295c2.101,1.831-1.086,3.07-1.086,3.07c1.714,1.632,0.012,3.246-0.417,3.616
			c2.025-1.655,3,0.346,3,0.346c2.976,0.487-0.141,2.859-0.141,2.859c-1.092,0.399-1.773-0.734-1.773-0.734
			c-0.792,0.393-1.221,0.74-1.438,1.027c2.007,0.804,2.436,3.223,2.436,3.223c1.203-1.567,2.841,0.035,4.438,2.295
			c1.585,2.248-0.769,4.173-0.769,4.173c1.661,1.444-0.845,2.43-0.845,2.43c1.344,1.274,0.006,2.559-0.335,2.841
			c1.602-1.297,2.366,0.276,2.366,0.276c2.342,0.382-0.112,2.248-0.112,2.248c-0.869,0.335-1.403-0.558-1.403-0.558
			c-2.154,1.057-0.957,1.655-0.957,1.655c1.626-0.358,0.663,1.033,0.663,1.033l-0.992,0.129l-1.174,0.657l0.07,0.387l0.898-0.106
			l0.082,0.681l-1.051,0.487l0.323,0.798c1.209,1.708-2.876,2.559-2.876,2.559c-0.634,5.171-5.488,3.311-6.609,2.788
			c-0.863,0.405-1.79,0.704-2.776,0.839c-2.483,0.335-4.837-0.317-6.727-1.632L208.451,355.533z"/>
		<path style="fill:#D74214;" d="M161.069,437.106c0,0-0.434-2.477,0.264-10.918l-2.413-27.271c0,0-0.423-10.02,0.875-12.914
			c0,0,19.646-19.071,23.632-20.134c0,0,2.859-24.97,6.433-25.464l-3.569-2.107c0,0-3.193,23.585-5.518,27.183
			c0,0-9.063-34.098-7.654-37.69l-1.315,1.021c0,0,4.256,34.039,3.463,36.393l-5.799,5.976c0,0-1.978,6.022-3.181,3.293
			c0,0-11.076-6.762-5.6-42.363l-4.461-2.876l-3.692,23.433c0,0,2.571-0.012,1.432,5.94c0,0,4.52,14.158,3.81,15.555
			c0,0-1.08,6.739-4.027,4.76l-6.204-14.657c0,0-5.224-20.92-1.696-24.149l-1.35-1.685c0,0-2.33,10.378-0.446,17.962
			c0,0-9.509-10.531-12.456-10.513l0.082,1.902c0,0,1.808-3.739,11.622,10.595c0,0,6.75,19.001,6.985,22.722
			c0,0-0.787,11.352-0.317,13.501c0,0,5.905,30.324-3.833,39.451L161.069,437.106z"/>
	</g>
</g>
<path style="fill:#D74214;" d="M63.465,343.922l7.496,0.704l4.884-3.264l2.829,5.788l5.653-4.819l2.636,14.634l1.497-1.274
	l4.843-4.355l3.029,8.417l5.254-2.277l0.305,1.15l7.103-1.896l-3.986,14.146l0.417-0.117l1.344,0.839l5.682-1.491l1.497,11.652
	l5.682-1.497l1.268,1.497c0.106,0.194,0.217,0.387,0.323,0.581l0.141,0.317l6.381,1.456l-3.375,5.799l8.218,0.581l-11.059,12.215
	l1.497,0.106l6.381-0.839l-1.098,3.833l6.891,1.491l-8.881,10.953l0.147,0.029l6.022,0.546l-2.583,6.762l6.844,1.784l-5.729,6.486
	l0.258,2.266l5.588,3.34l-0.622,0.564l4.831,5.436l-14.322,2.506l2.53,2.841l5.582,3.88l-1.379,0.951l5.312,6.052l-9.139,0.387
	l-1.368,0.059l-4.115,0.17l-0.728,0.035l-0.74,0.029l0.182,0.205l6.727,2.219l-8.699,8.676
	C77.4,446.387,42.615,406.612,21.724,359.319l4.355,0.687l-1.72-7.073l11.047,4.338l-1.239-6.463l7.355,1.509l1.057-5.694
	l10.906,3.903l1.057-5.7l1.743-0.176L63.465,343.922z"/>
<g>
</g>
<g>
</g>
<g>
</g>
<g>
</g>
<g>
</g>
<g>
</g>
<g>
</g>
<g>
</g>
<g>
</g>
<g>
</g>
<g>
</g>
<g>
</g>
<g>
</g>
<g>
</g>
<g>
</g>
</svg>
