<?xml version="1.0" encoding="iso-8859-1"?>
<!-- Generator: Adobe Illustrator 19.0.0, SVG Export Plug-In . SVG Version: 6.00 Build 0)  -->
<svg version="1.1" id="Layer_1" xmlns="http://www.w3.org/2000/svg" xmlns:xlink="http://www.w3.org/1999/xlink" x="0px" y="0px"
	 viewBox="0 0 512 512" style="enable-background:new 0 0 512 512;" xml:space="preserve">
<path style="fill:#B1E9F1;" d="M256.005,0C397.384,0,512,114.616,512,256.005C512,397.384,397.384,512,256.005,512
	C114.616,512,0,397.384,0,256.005C0,114.616,114.616,0,256.005,0z"/>
<path style="fill:#FFFF00;" d="M233.275,62.182c18.803,0,34.041,15.238,34.041,34.041s-15.238,34.041-34.041,34.041
	c-18.793,0-34.031-15.238-34.031-34.041S214.482,62.182,233.275,62.182z"/>
<g>
	<path style="fill:#429F46;" d="M322.133,8.635l-0.059-0.01l-0.068-0.02l-0.059-0.02l-0.059-0.02l-0.068-0.01l-0.068-0.02
		l-0.059-0.02L319.73,8h-0.01c-12.483-3.194-25.318-5.47-38.456-6.759l-0.391-0.039l-1.944-0.176l-0.391-0.039l-1.954-0.166
		l-0.391-0.029h-0.029l-3.116-0.225l-0.391-0.029l-1.123-0.068c-1.338-0.078-2.667-0.147-4.005-0.205l-0.391-0.02l-0.664-0.029
		c-1.631-0.068-3.253-0.117-4.894-0.156h-0.195l0,0C259.599,0.02,257.802,0,256.005,0c-1.68,0-3.35,0.02-5.011,0.049h-0.156h-0.078
		l-0.342,0.02c-1.573,0.029-3.145,0.068-4.718,0.137l-0.156,0.01h-0.078c-1.631,0.068-3.253,0.147-4.874,0.244l-0.244,0.01
		l-0.254,0.02c-1.592,0.098-3.184,0.205-4.767,0.332l-0.469,0.039c-1.592,0.137-3.194,0.283-4.776,0.44l-0.078,0.01
		c-1.641,0.166-3.282,0.342-4.913,0.537l-0.371,0.049c-1.573,0.195-3.135,0.4-4.698,0.615l-0.391,0.059
		c-1.543,0.215-3.087,0.449-4.63,0.703l-0.449,0.068c-1.485,0.244-2.969,0.498-4.444,0.762l-0.733,0.137
		c-1.436,0.264-2.872,0.537-4.298,0.83l-0.576,0.117c-1.455,0.293-2.901,0.606-4.347,0.928l-0.586,0.137
		c-1.436,0.322-2.862,0.654-4.288,0.996l-0.684,0.166c-1.455,0.361-2.911,0.733-4.366,1.114l-0.215,0.059
		c-1.485,0.4-2.969,0.811-4.444,1.231l-0.567,0.166c-1.377,0.4-2.745,0.801-4.112,1.221l-0.811,0.244
		c-1.338,0.42-2.676,0.85-4.015,1.28l-0.615,0.205c-1.377,0.459-2.745,0.928-4.102,1.407l-0.586,0.195
		c-1.367,0.488-2.735,0.977-4.093,1.485l-0.557,0.215c-1.358,0.508-2.715,1.026-4.073,1.563l-0.537,0.215
		c-1.407,0.557-2.794,1.123-4.171,1.7l-0.283,0.117c-1.455,0.615-2.911,1.241-4.356,1.875l-0.127,0.059
		c-1.436,0.635-2.882,1.289-4.308,1.954l-0.225,0.107c-1.426,0.664-2.833,1.328-4.239,2.012l-0.176,0.088
		c-2.901,1.426-5.773,2.901-8.615,4.425l-0.117,0.059c-9.358,5.04-18.383,10.657-27.008,16.781h0.02l-0.86,0.615v-0.01l-0.352,0.264
		c-2.588,1.846-5.118,3.751-7.629,5.704v-0.01l-0.147,0.117l0,0c-35.887,27.936-64.145,65.22-81.102,108.188l-2.061,5.382
		c-0.606,1.661-1.201,3.321-1.778,5.001l0.625,0.869l0.987-1.641l0.547,0.088l7.248,2.618l1.035-4.142l8.361,1.641l1.035-4.132
		l3.77-2.842l3.438-2.588l0.176,0.029l1.045-5.236l10.657-0.029l0.117-0.557l0.4-2.022v-0.029l0.615-6.486l-0.391-1.319l1.172-0.244
		l3.927,2.51v3.634l5.743,2.335l-4.298,11.633l5.753,2.344l1.993,6.369l-0.684,0.664l0.137,1.065l3.712-1.475l-2.149,2.715
		l0.352,0.918l4.894-2.628l-2.774,3.37l0.752,0.596l3.399-1.69l-0.156,1.309l-2.227,3.233l1.797-0.381l1.914-0.567l-1.885,3.155
		l2.647-1.348l2.559-1.358l-1.065,2.422l0.43,0.879l-0.205,1.612l0.449,0.899l0.41,0.967l4.073-3.487l-0.928,2.559l0.762,0.488
		l2.1-1.27l0.078,1.377l-0.713,2.53l-0.361,2.11l1.241-0.137l1.065,0.088l2.559-2.256l-1.827,4.581l1.133-0.059l2.696-2.686
		l-0.303,2.315l1.788-1.299l-0.801,3.331l2.315-2.364l1.289-0.557l-0.772,3.536l2.139-2.305l-0.244,2.628l1.25-0.537l0.967,0.049
		l0.371,1.446l1.455-1.143l0.908,0.137l-0.508,3.936l1.045-0.127l1.201-0.625l0.371,1.875l0.762,0.742l1.875-2.989l0.176,2.764
		l2.188-4.581l-0.234,4.552l1.758-3.438l1.045-0.713l0.742,0.479l4.796-2.188l3.272-1.563l4.19-1.524l1.104,2.852l0,0l2.784-3.214
		l3.145-4.288l7.072,7.951l1.758-2.383l-0.625-5.04l0.186-6.124l3.448,0.342l3.419,2.159l-3.233,4.327l-0.742,0.996l-0.41,0.557
		l-2.041,2.784l-1.846-5.265l0.84-0.244l-0.029-5.499l3.331-0.527l1.25-5.841l11.868,1.28l1.26-5.831l5.216,2.95l0.332,0.606
		l0.918-0.43l-0.879-4.21l0.83-0.215l2.041,1.856l-0.664-2.813l1.846,1.182l-1.309-3.233l2.501,1.817l1.69,0.527l-2.149-3.604
		l0.889-0.264l4.132,2.608l-0.44-1.661l-2.647-3.272l3.682,1.7l-0.391-1.397l-1.797-2.208l1.739,0.078l2.266,0.283l-0.586-1.348
		l2.735,0.322l1.182-0.518l-4.2-2.823l4.718,0.908l-1.993-1.748l-0.684-1.172l3.087-0.01l-3.497-2.012l1.729-0.547l-1.367-1.289
		l1.563-0.645l0.576-0.889l-1.309-1.182l2.081-0.459l-0.752-1.836l1.172-0.059l1.065-0.205l1.954,0.625l0.41-0.899l-1.504-2.628
		l2.188,0.723l-1.133-2.149l0.967-0.352l-1.016-1.875l1.162-0.176l3.77,1.387l-1.895-2.237l1.67-0.127l0.742-0.703l-1.797-1.748
		l1.084-0.527l3.116,0.01l-1.485-1.426l-2.217-1.436l0.225-0.82l1.934-0.596l1.612-0.772l-3.565-1.172l0.469-0.83l3.702-0.908
		l-1.827-0.899l-0.352-0.899l2.882-1.211l-3.223-0.684l2.022,0.039l-2.051-2.159l3.36,0.684l-1.68-1.788h2.383l-3.389-2.217
		l2.09-0.205l0.908-0.674l-1.133-1.211l2.725-0.303l-0.703-0.537l-3.145-2.335l5.255-5.802l-3.145-2.335l-3.145-2.071l2.53-2.618
		l0.078-7.424l1.856-5.382l10.246,4.943l1.866-5.382l3.741,1.407l4.2,2.696l1.348-5.558l1.778,0.156l2.09-4.864l10.471,1.68
		l2.09-4.874l2.12-1.661l5.157-2.549l8.01-1.27l7.599,2.598l1.192,0.41l-4.034,7.902l1.338,0.479l5.851-0.186l0.215,11.692
		l1.143-0.039l5.47-3.116l0.987,1.621l4.513-1.866l5.597-0.283l1.407,4.991l2.618-0.938l5.138-1.045l5.021,9.231l2.833-0.576
		l4.005-3.917l5.421,9.817l0.86-0.83l4.044-3.604l3.243,1.827l10.686,6.017l-10.686-6.017l3.204-3.858l3.321-4.405l9.016,6.369
		l0.117-0.166l1.543-4.816l3.936,0.41l14.652,1.543l-14.652-1.543l1.348-5.206l8.088,1.504l1.465-5.636l3.048,0.801l4.171-3.468
		l8.977,6.095l2.823-2.354l4.542-3.692l3.165,3.731l5.245-2.569l3.048,4.347l4.073-2.422l8.058,5.04l4.073-2.432h0.049l0.645-0.977
		l3.849-4.855l9.348,8.117l3.858-4.855l2.872,0.02l0.908-2.354l0.137,0.117l7.883,6.457l0.127,0.107l-1.25,5.079l5.441,0.733
		l5.48,5.714l0.879,0.039l-3.233,2.081l2.276-0.195l-1.905,1.553l1.494,0.117l-0.781,1.104l2.764-0.449l-3.175,2.149l1.094,0.283
		l3.048-0.606l-0.098,0.801l-1.358,1.377l-1.866,1.641l4.259-1.221l-2.354,1.875l4.327-1.289l0.137,0.684l-1.563,1.524l-0.84,1.192
		l1.807-0.127l-1.924,1.739l2.979-0.733l-3.341,2.501l4.054-1.319l1.299,0.088l-3.458,2.618l2.735-0.674l-2.305,2.032l3.878-1.328
		l0.049,0.762L443,128.73l-2.667,2.295l4.786-1.924l-1.885,1.866l1.319,0.029l-1.289,1.553l-0.85,1.309l-0.889,1.348l1.241,0.078
		l0.645,0.43l3.018-1.045l-0.596,1.182l-1.114,1.514l-0.215,0.967l4.024-1.739l-2.51,2.442l2.667-0.899v0.83l0.381,0.576
		l-3.126,2.921l5.226-2.657l-0.147,0.938l-2.579,2.598l0.508,0.498l4.024-1.934l-0.107,0.156l4.542,0.537l-5.372,7.404l1.915,0.234
		l5.558,0.049l-0.127,3.184l5.929,0.83l-0.684,5.529l5.284,1.182l0.068,3.067l6.085-0.547l2.178,12.014l3.311-0.303l4.269-1.944
		l0.918,1.065l1.866-2.471l5.958,1.69l1.875-2.471l-0.537-2.647l-0.049-0.234l-0.049-0.244l-0.059-0.283l-0.156-0.762l-1.201-4.288
		l-0.127-0.459c-10.833-27.477-26.275-52.639-45.381-74.509l0,0l-0.4-0.449v0.01c-0.811-0.928-1.621-1.856-2.452-2.774l-0.742-0.82
		v0.01l-0.381-0.41l0.01-0.01l-1.241-1.338l-0.039-0.039l-0.039-0.049l-0.039-0.039l-0.039-0.039l-0.039-0.039l-0.039-0.049
		l-0.938-0.996l-0.039-0.039l-0.039-0.049L322.133,8.635z M231.497,77.244l-0.381-0.772l0.029,0.01l0.186,0.273L231.497,77.244z
		 M248.718,72.477l-0.635,0.273l-0.068-1.065L248.718,72.477z M252.235,73.698l0.166,0.068l-0.176,0.127L252.235,73.698z
		 M252.166,75.329l0.85-0.02l-0.664,0.723l-0.391,0.254L252.166,75.329z M426.483,90.792l0.215-0.703l0.225,0.01L426.483,90.792z
		 M426.688,88.496l-0.088-0.957l1.602,0.195L426.688,88.496z M426.659,87.061l0.371-0.596l0.254-0.01l0.166,0.127L426.659,87.061z
		 M442.404,80.545l-0.293-0.303l-1.621-1.7l-2.09-2.149l-1.319-1.328c-0.733-0.733-1.475-1.465-2.208-2.188l-0.01-0.01l-1.289-1.241
		c-2.12-2.051-4.288-4.063-6.486-6.046l-0.166-0.147c-1.289-1.153-2.588-2.295-3.897-3.429l-0.088-0.078
		C394.19,37.186,359.876,18.705,322.133,8.635L442.404,80.545z M215.644,74.04v-0.02l-0.195-2.315l-0.01-0.02l-0.576,1.729
		L215.644,74.04z M214.394,74.841l-0.127,0.371l0.205,0.166L214.394,74.841z M213.124,74.265l0.361-2.891l-1.084,2.305
		L213.124,74.265z M212.089,74.353l-0.117,0.264l-0.332,0.273l0.772,0.977L212.089,74.353z M211.561,74.958l-0.156,0.137
		l0.186,1.328l-1.729-1.661l0.791-1.817l0.469,1.67l-0.088,0.791l0.254-0.215l0.469,1.661l0.244-1.162L211.561,74.958z
		 M211.219,73.825l0.039-0.293l-0.088-0.01L211.219,73.825z M211.493,71.54l0.059-0.469l-0.059-0.049l-0.078,0.176L211.493,71.54z
		 M209.627,74.538l0.059-0.42l-0.215,0.273L209.627,74.538z M500.884,181.193l0.195,0.654l0.303,1.016l-1.768,1.328l-0.098-0.957
		l0.117-0.176L500.884,181.193z M501.715,183.987l0.01,0.029l-0.049,0.039L501.715,183.987z M11.712,179.259l0.567-0.83
		l-0.186-0.352L11.712,179.259z M12.718,176.143l1.211-0.635l0.664-0.977l-0.918-1.28C13.343,174.209,13.04,175.176,12.718,176.143z
		 M123.084,116.559L123.084,116.559l-3.36-1.67l-1.846,2.325l0.342-2.96l1.192,0.088l1.006-3.155l-0.762,3.096L123.084,116.559z
		 M156.901,149.174L156.901,149.174l-3.37-0.85l0.449,2.569l-2.081-1.836l-1.065-0.088l0.557,2.842l-2.12-2.002l-1.875-1.631
		l-0.733,0.488l2.403,1.397l-0.469,1.68l2.022,0.527l-3.311-3.839l1.827,0.361l-1.455-2.061l0.195-0.801l1.661-1.397l2.422,5.138
		l0.586-4.142l0.694-1.573l-0.41,3.839L156.901,149.174z"/>
	<path style="fill:#828282;" d="M459.312,411.557c-0.84-13.587-1.709-27.242-2.393-40.908l-0.029-0.508l-4.503-4.19l8.488-8.908
		l-4.503-4.19l2.09-4.62l0.215-0.469l1.475-1.7l-4.317-4.366l-0.137-4.444c-0.098-5.089-0.156-10.188-0.156-15.277
		c0-65.571-2.217-131.436-4.181-197.066c-0.361-12.386-1.26-24.81-2.481-37.225c-7.023-8.039-14.544-15.638-22.505-22.739
		c0.361,9.377,0.791,18.735,1.28,28.043c1.914,36.668,3.927,73.444,4.972,110.269l3.155,4.435l-5.89,9.143l3.155,4.444l0.127,6.29
		c0.459,29.079,0.186,58.197-1.348,87.275c-1.211,23.052,4.024,43.897,2.579,66.783c-1.328,21.128-5.187,41.728-5.284,62.954
		C440.109,434.483,450.219,423.425,459.312,411.557z M393.907,471.718c-1.651-46.505-6.505-93.908-6.505-141.399
		c0-53.879-1.494-107.964-3.106-161.941l-4.21-4.386l7.863-9.25l-4.2-4.386l-0.137-4.396c-0.127-4.229-0.254-8.478-0.381-12.708
		c-0.918-30.759-5.07-61.772-9.465-92.296c-0.42-2.901-0.44-7.306-0.342-12.483c-5.402-2.794-10.92-5.402-16.547-7.814
		c0.322,26.783,1.241,53.909,2.647,80.682c3.214,61.508,6.671,123.368,5.47,185.188l4.298,4.64l-9.123,8.742l4.308,4.64
		l-0.137,4.493c-0.186,4.718-0.4,9.436-0.645,14.144c-1.211,23.052,4.015,43.897,2.579,66.783
		c-1.358,21.538-5.343,42.519-5.294,64.175c0,0.147,0.01,0.283,0.01,0.43v0.488l3.761,3.722l-7.111,7.814l3.761,3.722l0.02,0.694
		l0.01,0.508v0.039c-0.088,2.422-0.322,4.796-0.82,7.004c-11.712-2.432-23.501-5.06-34.588-7.892
		c-1.377-48.839-6.75-98.714-6.75-148.696c0-37.04-0.713-74.187-1.68-111.314l-4.425-4.386l8.361-9.24l-4.425-4.386l-0.127-4.493
		c-0.381-13.646-0.791-27.301-1.211-40.947l-3.585-4.396l6.642-9.221l-3.595-4.396l-0.117-3.888c-0.01-0.127-0.01-0.273-0.02-0.4
		c-0.908-30.759-5.06-61.772-9.455-92.306c-0.791-5.499-0.156-16.42,0.029-27.77c-5.695-1.123-11.458-2.061-17.289-2.803
		c0.176,1.944,0.293,3.477,0.303,4.405c0.244,28.698,1.211,57.835,2.706,86.553c3.849,73.679,8.068,147.846,4.171,221.857
		c-1.211,23.052,4.024,43.897,2.579,66.783c-1.358,21.528-5.343,42.519-5.284,64.175c0.029,8.381,1.612,18.989-1.055,26.852
		c-7.756,2.608-14.447,4.083-22.984,5.294c-6.369,0.908-13.919,3.282-21.099,4.347c-9.983,1.494-17.201-1.143-27.076-2.256
		c-9.299-1.055-17.387-1.143-26.041-4.229c-1.602-0.576-3.184-1.133-4.767-1.67C188.626,424.197,183,373.141,183,321.977
		c0-30.857-0.488-61.791-1.211-92.716l-0.029-0.987l-3.702-4.405l6.955-9.192l-3.702-4.415l-0.078-3.038l-0.01-0.498l-0.02-0.498
		c-0.44-16.849-0.938-33.709-1.446-50.548l-3.028-4.493l7.023-8.254l-3.028-4.493l-1.338-3.565l-0.01-0.029l0,0l-0.098-0.283
		l-0.166-0.176l-0.127-4.269c-0.049-1.739-0.107-3.477-0.156-5.206c-0.918-30.759-5.07-61.772-9.465-92.306
		c-0.547-3.79-0.41-10.168-0.215-17.484c-5.607,2.022-11.126,4.239-16.537,6.642c0.4,23.707,1.27,47.608,2.51,71.227
		c2.393,45.928,4.933,92.042,5.568,138.195l3.516,4.483l-6.916,9.055l3.516,4.493l0.029,3.927
		c-0.01,20.571-0.469,41.142-1.543,61.703c-1.211,23.052,4.015,43.897,2.569,66.783c-1.358,21.528-5.343,42.519-5.284,64.175
		c0.02,7.931,1.446,17.865-0.654,25.572c-8.918,1.67-17.25,4.708-25.748,7.609C167.333,499.995,210.262,512,256.005,512
		C306.778,512,354.113,497.221,393.907,471.718z M120.906,473.476c-0.625-13.489-1.455-27.047-2.305-40.654l-5.382-3.497
		l9.836-8.244l-5.392-3.487l-0.176-2.921c-1.416-23.511-2.618-47.14-2.618-70.797c0-38.095-0.752-76.287-1.758-114.479l-3.966-4.405
		l7.433-9.211l-3.966-4.405l-0.117-4.259c-0.576-20.112-1.201-40.224-1.797-60.307c-0.928-30.759-5.069-61.772-9.465-92.296
		c-0.098-0.674-0.176-1.426-0.234-2.247c-5.519,4.2-10.862,8.625-16.019,13.255c0.469,16.488,1.153,32.996,2.002,49.367
		c3.057,58.402,6.33,117.116,5.617,175.811l3.468,4.571l-7.297,8.869l3.458,4.581l-0.078,3.995
		c-0.244,8.01-0.576,16.019-0.996,24.029c-1.211,23.052,4.015,43.897,2.579,66.773c-0.987,15.687-3.37,31.071-4.571,46.641
		C99.104,458.717,109.712,466.511,120.906,473.476z M50.314,408.422c-1.778-28.659-3.585-57.533-3.585-86.445
		c0-38.026-0.742-76.15-1.748-114.264l-3.087-2.94l-3.389-5.011l10.032-6.769l-2.422-3.604l-4.454-3.985l6.837-9.797l-4.444-3.995
		l-0.215-4.425c-0.42-14.095-0.86-28.2-1.28-42.275c-0.098-3.223-0.225-6.457-0.391-9.68c-7.746,11.741-14.544,24.156-20.307,37.137
		c1.993,42.861,3.341,85.83,2.403,128.779l3.643,4.62l-7.863,8.772l3.653,4.62l-0.137,4.22c-0.156,3.819-0.342,7.648-0.537,11.467
		c-0.967,18.422,2.168,35.418,2.745,53.186C32.712,382.283,40.947,395.802,50.314,408.422z"/>
</g>
<path style="fill:#689D38;" d="M91.857,452.436l9.172-9.865l6.906,5.382l26.52-13.46l7.443,8.264l13.997-3.35l22.925,12.923
	l15.961,20.376l24.517-3.106l6.203,13.441l13.87-2.11l29.714,18.412l36.971-12.444l11.057,0.508l15.863-5.118l6.046-7.297
	l15.834-4.845l9.934-0.879l13.636,7.482l12.298-7.297l2.725,2.549c16.156-10.295,31.062-22.359,44.483-35.907L426.17,416.1
	l-18.793-16.234l-15.169,1.504l-7.336,9.524l-14.115,1.866l-4.464,11.516l-17.973,12.132l-6.574-10.784l-10.706-8.391l-3.311-10.129
	l-3.614-2.794l-2.579-1.993l-5.109-0.889l-2.374-10.1l-5.109-0.899l-0.254-0.225l-2.471-2.237l-3.321-0.029l-0.606-0.469
	l-0.283-0.215l-0.293-0.225l-0.166-0.127l-0.44-0.342l-0.41-0.313l-0.283-0.225l-0.576-0.44l-1.084-0.84l-5.841,1.504l-4.347-11.243
	l-5.831,1.494l-5.636,0.82L228.274,392.5l-18.237-20.366l-16.713,9.533l-20.092,24.361l-46.524-4.532l-26.266-10.647L86.65,380.564
	l-16.361,1.983l-11.448-4.513l-13.177-14.828l-10.774-2.95l-10.647,4.591C40.214,398.781,63.403,428.641,91.857,452.436z"/>
<path style="fill:#7CB142;" d="M66.656,428.29c0,0,5.138-0.303,14.144-0.527l3.722-7.267l3.839,7.033h1.69l3.809-4.415l2.608,3.018
	l4.22-4.728l6.769,10.715l4.22-4.728l2.823,0.234c3.526,0.049,7.199,0.137,11.008,0.244l4.073-6.593l4.034,7.844h0.606l3.8-5.636
	l1.367,2.002l4.483-3.165l3.477,10.403l1.534-1.084l3.223-7.658l8.771,14.124l3.214-7.668l8.293,0.303l4.249-5.011l6.701,11.311
	l4.249-5.011l6.632,0.664c0.811,0.098,1.631,0.195,2.442,0.293l2.852,0.342l4.962-5.88l2.696,15.15l4.962-5.88l2.989-0.391
	l2.969-0.391l1.993,0.293l0.498,0.068c1.27,0.195,2.549,0.4,3.829,0.615l4.962-5.978l5.07,14.701l4.972-5.978l0.86,0.176
	l4.376-2.325l6.173,7.746l4.386-2.315l4.679,1.114l5.128-5.128l0.41,1.221l6.349-2.295L268.664,451l6.359-2.295l-5.187,5.841
	l-1.485-15.541l-5.187,5.831l-1.006-0.244l-2.276-0.537l5.294-5.167l0.342,1.182l6.877-2.051l-4.444,13.636l6.877-2.041h0.068
	l4.356,0.947l5.421-6.271l3.985,16.088l5.431-6.271l2.989,0.957l11.624,4.366l6.037-4.894l2.129,15.394l0.85-0.694l7.384-0.117
	l8.146,0.899l1.914,0.381l4.786-4.513l2.12,4.728l5.265-5.88l0.977,5.617l5.734-4.845l-0.293,15.013l4.239-3.585l4.102-6.632
	l3.341,6.623l3.995-6.027l0.42,1.309v0.01l0.098,12.806l-0.82,0.664l-0.762,0.4l-0.049,0.02
	C334.411,502.691,296.297,512,256.005,512C180.968,512,113.483,479.717,66.656,428.29z"/>
<g>
	<g>
		<path style="fill:#5C4036;" d="M278.793,389.306c-7.619-14.486,0-26.402,0-26.402l-40.888,7.57
			c5.802,5.988,12.122,19.145,14.232,26.715c3.643,13.04,3.595,12.708,2.979,13.128c-1.407,0.977-7.345,1.201-11.038,6.027
			c-3.692,4.825-5.011,12.874,3.096,13.362c8.107,0.479,25.328-4.991,29.128-6.925c3.809-1.934,9.895-10.344,10.159-18.852
			C284.097,399.367,281.47,394.395,278.793,389.306z"/>
		<path style="fill:#5C4036;" d="M215.547,416.783c-4.19-0.742-6.837-1.211-6.281-4.825c0.547-3.624,2.706-8.693,3.135-17.631
			c0.44-8.928-2.168-20.522-2.168-20.522c-1.846,0.186-39.569-11.887-39.569-11.887s-0.918,3.067-4.435,10.129
			c0,0,2.559,13.47,10.852,27.594c8.283,14.124,10.032,19.194,11.126,24.38c1.084,5.196,1.524,12.014,14.281,12.102
			c12.757,0.098,15.843-4.21,24.752-3.409c8.908,0.801,7.375-4.825,4.034-8.088C229.358,422.761,220.323,417.623,215.547,416.783z"
			/>
	</g>
	<path style="fill:#BBA9A3;" d="M371.304,290.671c-0.654,0.615-2.51,3.448-3.008,5.89c-0.313,1.524-1.035,3.165-2.335,3.858
		c0.332,0.4,0.713,0.762,1.182,1.055c3.448,2.168,6.095-0.781,6.095-0.781s1.758-4.728,1.993-7.199
		C375.475,291.032,372.73,288.932,371.304,290.671z"/>
	<g>
		<path style="fill:#5C4036;" d="M368.296,296.561c0.498-2.442,2.354-5.275,3.008-5.89c-1.426,1.739-4.161,1.475-7.072,2.823
			c0,0-0.41,4.356,1.729,6.925C367.26,299.726,367.983,298.085,368.296,296.561z"/>
		<path style="fill:#5C4036;" d="M372.135,294.715c-0.742,1.25-1.914,5.128-2.305,7.541c0.547-0.01,1.045-0.127,1.485-0.293
			c0.498-3.096,2.657-6.837,2.852-8.029C374.401,292.449,373.092,293.103,372.135,294.715z"/>
	</g>
	<path style="fill:#6C4C40;" d="M122.86,321.273c0.088,7.463-4.229,24.742-6.066,36.678c-1.924,12.552-4.503,22.857-9.651,34.129
		c-5.157,11.262-6.115,27.682,0,36.688c6.115,9.016,12.874,7.091,19.311,7.091c6.437,0,23.824,0,26.07,0
		c2.256,0,8.371-10.95-4.181-16.742c-12.552-5.792-14.163,0.645-9.983-8.693c4.19-9.338,11.272-13.587,20.61-26.393
		c3.673-5.06,11.995-20.61,11.995-20.61s24.781,12.962,45.059,12.317c20.278-0.645,37.206-4.083,45.87-6.759
		c11.741-3.624,15.531-5.558,15.531-5.558s-7.394,11.917,0,26.402c7.404,14.486,14.486,28.004,16.097,33.797
		s2.256,11.936,12.552,12.405c10.305,0.469,23.101-0.899,25.279-0.899c2.168,0,5.792-3.858,4.102-9.651
		c-1.69-5.802-7.892-8.772-11.751-8.371c-3.868,0.4-6.837,0.801-7.648,0.801c-0.801,0-1.934-3.302,0-19.711
		c1.934-16.42,1.768-21.089,6.925-28.971c4.171-6.388,6.33-19.213,2.559-29.245c3.936,1.602,7.511,2.999,10.237,3.888
		c11.253,3.663,16.703,5.177,24.293,5.177s9.201,4.913,16.439,5.9c7.228,0.977,10.266-1.26,11.253-1.788
		c0.987-0.537,3.214-2.686,4.2-2.774c0.977-0.088,2.315-1.963,2.315-4.552s-1.778-5.988-5.529-10.09
		c-3.751-4.112-6.789-12.688-6.789-12.688s3.927-6.339-4.65-17.533c-8.576-11.194-32.39-25.015-50.021-35.731
		c-17.621-10.715-21.665-19.291-30.954-24.898c-9.299-5.617-18.11-2.969-23.589,0c-5.47,2.96-9.289,3.223-15.238,2.51
		c-5.958-0.713-35.965-3.096-58.353-2.383c-22.388,0.723-41.923,13.812-58.353,28.346
		C126.611,285.904,122.01,305.205,122.86,321.273z"/>
	<path style="fill:#7B5E53;" d="M325.835,340.096c3.819,1.553,7.287,2.901,9.944,3.77c11.253,3.663,16.703,5.177,24.293,5.177
		s9.201,4.913,16.439,5.9c7.228,0.977,10.266-1.26,11.253-1.788c0.987-0.537,3.214-2.686,4.2-2.774
		c0.977-0.088,2.315-1.963,2.315-4.552s-1.778-5.988-5.529-10.09c-3.751-4.112-6.789-12.688-6.789-12.688s3.927-6.339-4.65-17.533
		c-1.817-2.374-4.327-4.874-7.316-7.433c-23.267-6.554-44.639-2.198-51.008,11.712C314.895,318.734,317.845,329.801,325.835,340.096
		z"/>
	<path style="fill:#3E2622;" d="M394.278,345.83c0-2.588-1.778-5.988-5.529-10.09c-3.751-4.112-6.789-12.688-6.789-12.688
		c-0.625-1.602-4.376-1.514-7.775-2.051c-3.389-0.537-3.487-3.575-6.339-4.112c-2.862-0.537-6.877-1.426-10.364,3.087
		c-3.477,4.503-0.987,8.791,1.524,11.477c2.501,2.676,5.714,7.14,5.353,10.891c-0.332,3.497-0.391,6.427,4.366,9.455
		c0.391,0.244,0.791,0.479,1.192,0.713c0.107,0.068,0.215,0.127,0.322,0.195c1.719,0.977,3.614,1.875,6.271,2.237
		c7.228,0.977,10.266-1.26,11.253-1.788c0.987-0.537,3.214-2.686,4.2-2.774C392.94,350.294,394.278,348.418,394.278,345.83z"/>
	<path style="fill:#5C4036;" d="M150.727,275.707c3.477,7.287-1.592,16.967-11.331,21.616c-9.739,4.649-20.454,2.501-23.941-4.786
		c-3.477-7.297,1.592-16.976,11.331-21.626C136.525,266.261,147.24,268.41,150.727,275.707z"/>
	<path style="fill:#9F877E;" d="M335.329,296.903c-1.973-2.198-5.597-7.023-8.811-7.502c-1.788-0.264-3.429-0.488-4.757,0.01
		c-4.044,2.159-1.797,12.727-1.914,16.185c-0.078,2.237-0.508,3.223-0.86,4.2c1.407,1.485,6.007,1.153,6.457-0.987
		c0.479-2.256,3.809-7.267,6.789-7.267S336.326,298.016,335.329,296.903z"/>
	<path style="fill:#5C4036;" d="M321.762,289.411c-1.065,0.41-1.924,1.28-2.51,2.969c-1.309,3.809-2.618,6.544-6.076,8.811
		c-3.448,2.256-11.663,8.459-3.927,7.736c7.736-0.713,8.459-1.192,9.524,0.596c0.059,0.098,0.137,0.186,0.215,0.273
		c0.352-0.977,0.781-1.963,0.86-4.2C319.965,302.138,317.718,291.57,321.762,289.411z"/>
	<path style="fill:#4E342E;" d="M326.988,293.845c-2.002-0.361,0.098,2.735,0.342,6.036c0.234,3.302-0.127,6.72-0.752,7.931
		c1.104-2.471,3.849-5.988,6.349-5.988C333.161,297.303,328.99,294.207,326.988,293.845z"/>
	<path style="fill:#666666;" d="M394.278,345.83c0-1.68-0.762-3.712-2.325-6.056c-0.059,0.029-4.581,1.934-5.001,5.646
		c-0.44,3.741,1.719,5.04,5.011,4.962C392.94,350.294,394.278,348.418,394.278,345.83z"/>
	<path style="fill:#FAFBFC;" d="M367.485,322.748c0,1.407-1.455,2.549-3.262,2.549c-1.797,0-3.262-1.143-3.262-2.549
		c0-1.407,1.465-2.54,3.262-2.54C366.03,320.209,367.485,321.342,367.485,322.748z"/>
</g>
<g>
</g>
<g>
</g>
<g>
</g>
<g>
</g>
<g>
</g>
<g>
</g>
<g>
</g>
<g>
</g>
<g>
</g>
<g>
</g>
<g>
</g>
<g>
</g>
<g>
</g>
<g>
</g>
<g>
</g>
</svg>
