<?xml version="1.0" encoding="iso-8859-1"?>
<!-- Generator: Adobe Illustrator 19.0.0, SVG Export Plug-In . SVG Version: 6.00 Build 0)  -->
<svg version="1.1" id="Layer_1" xmlns="http://www.w3.org/2000/svg" xmlns:xlink="http://www.w3.org/1999/xlink" x="0px" y="0px"
	 viewBox="0 0 512 512" style="enable-background:new 0 0 512 512;" xml:space="preserve">
<g id="Others">
</g>
<g id="Design">
</g>
<g id="SEO_x2F__Web">
</g>
<g id="Finance__x2F__Money">
</g>
<g id="E-Commerce__x2F__Shopping">
</g>
<g id="Strategy">
	<g id="mission_2">
		
			<radialGradient id="SVGID_1_" cx="256" cy="295.9032" r="237.8048" gradientTransform="matrix(1 0 0 -1 0 514)" gradientUnits="userSpaceOnUse">
			<stop  offset="0" style="stop-color:#04BE9E"/>
			<stop  offset="1" style="stop-color:#00A185"/>
		</radialGradient>
		<path style="fill:url(#SVGID_1_);" d="M512,256c0,19.912-2.273,39.294-6.575,57.898c-94.291,50.643-116.812,47.643-238.284,47.643
			c-78.52,0-159.923,115.109-206.883,59.455C22.66,376.438,0,318.865,0,256C0,114.615,114.615,0,256,0S512,114.615,512,256z"/>
		<path style="fill:#008F76;" d="M512,256c0-0.037-0.001-0.073-0.001-0.11c-0.009-0.134-0.876-2.292-1.936-4.817l-15.249-36.381
			c-1.063-2.536-2.844-2.554-3.958-0.039l-21.23,47.943l35.796,51.301C509.724,295.292,512,275.912,512,256z"/>
		<path style="fill:#008F76;" d="M186,338l72.054-92.351l-28.721-23.41c-2.131-1.737-5.378-1.484-7.215,0.562l-41.411,46.144
			l-60.529-61.38c-1.931-1.957-4.153-1.403-4.938,1.232L84.154,313.208c-0.785,2.636-2.95,3.136-4.812,1.112L40.72,272.35
			c-1.862-2.024-4.084-1.541-4.938,1.073l-20.157,61.692c-0.422,1.293-0.994,2.988-1.578,4.684
			c10.384,29.983,26.185,57.432,46.228,81.187L136,318L186,338z"/>
		<path style="fill:#C23824;" d="M347.493,56.67c0,0-12.829,23.333-29.493,18l17.668,42.667c0,0,33.663-0.667,40.332-16.667
			L347.493,56.67z"/>
		<polygon style="fill:#AB3120;" points="340.002,94.003 335.668,117.337 328,102.005 		"/>
		<path style="fill:#BDC3C7;" d="M256,512c121.472,0,223.184-84.604,249.424-198.102L457.349,245L412,274l-84-118L186,338l-50-20
			L60.274,420.987C107.234,476.639,177.482,512,256,512z"/>
		<polygon style="fill:#95A5A6;" points="328,156 334.103,318 412,274 		"/>
		<polygon style="fill:#ECF0F1;" points="89.617,421.569 136,433.569 181.112,489.066 263.608,417.069 230.608,340.572 328,156 
			186,338 136,318 86,386 		"/>
		<polygon style="fill:#95A5A6;" points="136,318 136,357 157.112,348.072 146.556,393.069 201.604,318 		"/>
		<polygon style="fill:#95A5A6;" points="310.105,414.07 349.104,355.535 418.1,334 451.099,401.79 412,374.035 334.104,456.067 		
			"/>
		<polygon style="fill:#95A5A6;" points="293.606,262.577 256,339.073 282.849,382.571 		"/>
		<polygon style="fill:#ECF0F1;" points="431.6,288.076 451.099,346.573 475.097,322.574 		"/>
		<polygon style="fill:#BDC3C7;" points="181.112,418.569 207,382.571 194.056,427.569 		"/>
		<path style="fill:#ECF0F1;" d="M152.354,161.117c1.543-2.263,2.447-4.994,2.447-7.939c0-7.791-6.315-14.107-14.107-14.107
			c-2.506,0-4.855,0.66-6.895,1.807c-4.389-4.797-10.697-7.807-17.711-7.807c-6.626,0-12.624,2.685-16.967,7.025
			c-4.927,1.594-9.042,4.963-11.624,9.348c-2.847-0.892-5.874-1.374-9.015-1.374c-12.526,0-23.263,7.652-27.798,18.536
			c-0.76-0.068-1.528-0.109-2.307-0.109c-13.965,0-25.286,11.32-25.286,25.285s11.321,25.285,25.286,25.285
			c1.182,0,2.342-0.088,3.48-0.244c4.633,8.202,13.426,13.743,23.518,13.743c11.388,0,21.122-7.055,25.09-17.028
			c4.209,2.25,9.016,3.529,14.122,3.529c12.448,0,23.124-7.582,27.664-18.381c1.24,0.248,2.521,0.382,3.834,0.382
			c10.769,0,19.499-8.73,19.499-19.499C165.585,170.994,160.043,163.729,152.354,161.117z"/>
		<path style="opacity:0.5;fill:#ECF0F1;enable-background:new    ;" d="M184.464,207.264c-1.404-1.121-2.499-2.661-3.066-4.508
			c-1.502-4.887,1.24-10.066,6.128-11.569c1.572-0.483,3.172-0.522,4.673-0.196c1.828-3.855,5.204-6.96,9.604-8.312
			c4.155-1.278,8.436-0.751,11.997,1.135c3.397,0.049,6.628,1.369,9.093,3.621c1.614-1.108,3.419-1.995,5.389-2.601
			c7.857-2.416,16.067,0.313,21.01,6.265c0.463-0.189,0.938-0.362,1.426-0.513c8.76-2.693,18.043,2.224,20.736,10.982
			c2.693,8.76-2.224,18.043-10.983,20.736c-0.741,0.229-1.486,0.396-2.23,0.519c-1.324,6.037-5.771,11.209-12.101,13.156
			c-7.143,2.195-14.609-0.353-19.021-5.843c-2.206,2.223-4.974,3.953-8.177,4.938c-7.808,2.4-15.966-0.296-20.897-6.193
			c-0.73,0.394-1.508,0.725-2.331,0.979c-6.754,2.076-13.914-1.715-15.991-8.47C178.069,216.011,180.145,210.386,184.464,207.264z"
			/>
		<path style="fill:#BDC3C7;" d="M459.351,142.491c-0.325,0-0.351,0.01-1.351,0.024c0-0.009,0-0.017,0-0.024
			c0-11.163-8.576-20.212-19.626-20.212c-2.418,0-4.546,0.434-6.692,1.228c-1.597-0.778-3.285-1.228-5.177-1.228
			c-3.169,0-5.997,1.235-8.16,3.242c-2.817-2.039-6.243-3.242-9.972-3.242c-7.555,0-13.955,4.927-16.259,11.772
			c-2.521-2.949-6.241-4.818-10.4-4.818c-7.591,0-13.742,6.217-13.742,13.886c0,1.499,0.239,2.941,0.674,4.294
			c-4.574,3.308-7.557,8.717-7.557,14.831c0,10.069,8.082,18.232,18.05,18.232c0.229,0,0.455-0.009,0.682-0.018
			c-0.442,1.829-0.682,3.737-0.682,5.703c0,13.209,10.6,23.917,23.676,23.917c5.616,0,10.772-1.979,14.831-5.28
			c2.837,1.711,6.151,2.695,9.695,2.695c5.713,0,10.832-2.558,14.305-6.6c0.463,0.043,0.931,0.067,1.405,0.067
			c8.677,0,15.71-7.105,15.71-15.87c0-0.083-0.005-0.164-0.006-0.247c0.323,0.015,0.647,0.025,0.975,0.025
			c11.585,0,20.786-9.488,20.786-21.189C480.517,151.977,470.936,142.491,459.351,142.491z"/>
		<polygon style="fill:#F59D00;" points="312,186.665 232.109,69.087 217.11,79.587 305.72,198.225 		"/>
		<path style="fill:#E94B35;" d="M312,41.337c0,0-15.351,30.466-73.674,36.899l-15.748,8.671l37.899,50.742l11.714-9.573
			c0,0,47.811,5.927,67.811-34.073L312,41.337z"/>
		<polygon style="fill:#FF523A;" points="222.578,86.907 238.326,78.236 272.191,128.076 260.477,137.649 		"/>
	</g>
</g>
<g>
</g>
<g>
</g>
<g>
</g>
<g>
</g>
<g>
</g>
<g>
</g>
<g>
</g>
<g>
</g>
<g>
</g>
<g>
</g>
<g>
</g>
<g>
</g>
<g>
</g>
<g>
</g>
<g>
</g>
</svg>
