<?xml version="1.0" encoding="iso-8859-1"?>
<!-- Generator: Adobe Illustrator 19.0.0, SVG Export Plug-In . SVG Version: 6.00 Build 0)  -->
<svg version="1.1" id="Layer_1" xmlns="http://www.w3.org/2000/svg" xmlns:xlink="http://www.w3.org/1999/xlink" x="0px" y="0px"
	 viewBox="0 0 512 512" style="enable-background:new 0 0 512 512;" xml:space="preserve">
<path style="fill:#64B3F5;" d="M255.998,0C397.386,0,512,114.614,512,255.998C512,397.386,397.386,512,255.998,512
	C114.614,512,0,397.386,0,255.998C0,114.614,114.614,0,255.998,0z"/>
<path style="fill:#FFFFFF;" d="M226.287,13.503c2.147,0,4.171,0.507,5.966,1.412c1.941-1.9,4.6-3.074,7.533-3.074
	c5.08,0,9.337,3.517,10.475,8.25c2.54,0.763,4.577,2.677,5.505,5.135c0.306-0.032,0.617-0.046,0.927-0.046
	c4.691,0,8.501,3.805,8.501,8.501c0,4.691-3.81,8.492-8.501,8.492c-1.462,0-2.837-0.365-4.038-1.014
	c-1.032,3.531-4.294,6.112-8.159,6.112c-2.362,0-4.495-0.964-6.039-2.522c-1.539,1.558-3.677,2.522-6.039,2.522
	c-2.243,0-4.285-0.873-5.806-2.293c-1.549,1.695-3.787,2.764-6.267,2.764c-2.33,0-4.436-0.932-5.966-2.444
	c-0.703,0.155-1.434,0.238-2.179,0.238c-5.596,0-10.128-4.536-10.128-10.128s4.532-10.128,10.128-10.128
	c0.301,0,0.603,0.018,0.904,0.046C213.82,18.674,219.448,13.503,226.287,13.503z"/>
<path style="fill:#FFFF00;" d="M188.86,16.961c10.598,0,19.182,8.588,19.182,19.182s-8.584,19.182-19.182,19.182
	c-10.593,0-19.182-8.588-19.182-19.182S178.266,16.961,188.86,16.961z"/>
<path style="fill:#FFFFFF;" d="M152.283,40.263c1.695,0,3.289,0.402,4.701,1.115c1.53-1.498,3.627-2.421,5.939-2.421
	c4.002,0,7.355,2.768,8.25,6.496c2.001,0.598,3.604,2.11,4.34,4.052c0.238-0.027,0.48-0.041,0.726-0.041
	c3.7,0,6.697,2.997,6.697,6.697c0,3.696-2.997,6.692-6.697,6.692c-1.151,0-2.234-0.288-3.179-0.804
	c-0.813,2.787-3.385,4.815-6.432,4.815c-1.859,0-3.54-0.758-4.755-1.983c-1.211,1.224-2.896,1.983-4.755,1.983
	c-1.768,0-3.38-0.685-4.573-1.804c-1.224,1.338-2.988,2.179-4.943,2.179c-1.836,0-3.495-0.731-4.701-1.928
	c-0.553,0.128-1.128,0.187-1.718,0.187c-4.404,0-7.976-3.572-7.976-7.976s3.572-7.976,7.976-7.976c0.242,0,0.48,0.014,0.713,0.032
	C142.462,44.338,146.897,40.263,152.283,40.263z"/>
<path style="fill:#B1D7B3;" d="M433.616,162.388l34.165,0.576l12.777-0.914l10.041-5.934l1.517,0.818
	c-10.813-25.746-25.723-49.345-43.9-69.997l-9.899,1.909L414.05,68.38l-13.225-23.485c-0.534-0.37-1.06-0.745-1.594-1.105
	l-2.969,11.877l-3.709,36.655l-1.635,8.629l-15.806-20.346l-3.782,3.422L351.43,69.673l-15.212,6.491l-6.482-2.01l-28.912,8.067
	l-8.492-7.177l-10.735,4.774l-7.076-7.021l-34.147,29.67l-6.482-1.119h-22.356l-6.784-8.789l-11.557,3.655l-47.248-12.677
	l-46.604,3.358L84.611,76.758l-10.05-1.352c-29.108,29.245-51.177,65.484-63.501,105.976l8.095,0.471l31.881-16.08l16.646-4.513
	l8.182,3.668l29.113-22.046h16.427l15.975-5.473l21.15,14.239l8.469-5.34l14.385,10.717l8.465-9.305l7.236-4.152l39.039,36.878
	l22.85,7.336l17.491-14.677l9.876,3.106l30.186-20.31l17.779,7.62l6.77-3.106l32.726,12.69l5.642-5.92l25.677-4.797l12.133,3.673
	L433.616,162.388z"/>
<path style="fill:#AED489;" d="M492.115,156.933c8.086,19.241,13.883,39.679,17.062,60.975l-0.722,0.26l-6.784,11.023l-11.018,2.54
	l-27.966,17.587l-25.006,8.474l-16.948-22.882l-19.922-13.773l-14.193,3.6l-5.724,10.598l-13.138,3.814l-2.755,12.22l-15.463,14.687
	l-7.629-9.954l-11.233-6.994l-4.449-9.748l-44.073-26.915l-52.122,25.856l-19.922-18.012l-14.618,11.895L179.6,259.488
	l-44.708,1.818l-26.276-7.117l-14.403-8.474l-15.262,4.239l-11.443-2.969l-14.403-13.133l-10.598-1.485L24.284,244.02l-13.138,8.474
	H0.763l-0.722,0.502c0.283-24.887,4.116-48.92,11.018-71.619l8.095,0.475l31.881-16.08l16.646-4.513l8.182,3.668l29.113-22.046
	h16.427l15.975-5.473l21.15,14.239l8.469-5.34l14.385,10.717l8.465-9.305l7.236-4.152l39.039,36.878l22.85,7.336l17.491-14.677
	l9.876,3.106l30.186-20.31l17.779,7.62l6.77-3.106l32.726,12.69l5.642-5.92l25.677-4.797l12.133,3.673l16.363-3.673l34.165,0.576
	l12.777-0.914l10.041-5.934L492.115,156.933z"/>
<path d="M111.709,127.629c0,0,5.788-1.243,10.635-0.315c4.86,0.932,9.917,4.961,15.395,5.272c5.477,0.306,4.34-1.759,4.34-1.759
	s-3.513,0.521-4.445-2.476c-0.927-2.997,2.896-5.377,8.78-9.502c5.888-4.134,7.026-8.264,5.888-10.849c0,0-1.032,1.654-5.888,4.235
	c-4.856,2.586-8.364,7.336-12.183,10.74c-3.824,3.412-4.034,3.618-7.647,2.896C122.969,125.144,115.222,124.011,111.709,127.629z"/>
<path style="fill:#86B850;" d="M509.177,217.909c1.855,12.425,2.823,25.143,2.823,38.089c0,23.521-3.189,46.289-9.127,67.923
	l-9.995,5.916l-22.228-16.582l-5.925,4.513l-26.226-22.279l-10.155-1.412l-24.188,7.076l-10.15-7.624l-10.717,9.036l-13.892-5.669
	l-9.305,2.257l-14.385,7.053l-4.792,8.182l-14.385,7.332l-10.548,1l-33.443,17.615l-30.561-14.472l-12.873,4.034l-7.62-12.69
	l-22.845,6.487l-17.765-18.332l-23.412-9.872l-12.836,5.294l-8.122-7.304l-23.412,17.204l-7.236-4.477l-14.951,22.562l-33.836,1.407
	l-26.897-18.442l-19.625,0.978L7.314,304.89l-2.357,1.416C1.713,290.039,0,273.22,0,255.998c0-1,0.027-2.001,0.041-3.001
	l0.722-0.502h10.383l13.138-8.474l18.222-11.653l10.598,1.485l14.403,13.133l11.443,2.969l15.262-4.239l14.403,8.474l26.276,7.117
	l44.708-1.818l15.893-27.304l14.618-11.895l19.922,18.012l52.122-25.856l44.073,26.915l4.449,9.748l11.233,6.994l7.629,9.954
	l15.463-14.687l2.755-12.22l13.138-3.814l5.724-10.598l14.193-3.6l19.922,13.773l16.948,22.882l25.006-8.474l27.966-17.587
	l11.018-2.54l6.784-11.023L509.177,217.909z"/>
<path style="fill:#5E9234;" d="M123.093,310.683l-7.236-4.477l-14.951,22.562l-33.836,1.407l-26.897-18.442l-19.625,0.978
	L7.314,304.89l-2.357,1.416C28.332,423.602,131.836,512,255.998,512c117.871,0,217.114-79.664,246.875-188.079l-9.995,5.916
	l-22.228-16.582l-5.925,4.513l-26.226-22.279l-10.155-1.412l-24.188,7.076l-10.15-7.624l-10.717,9.036l-13.892-5.669l-9.305,2.257
	l-14.385,7.053l-4.792,8.182l-14.385,7.332l-10.548,1l-33.443,17.615l-30.561-14.472l-12.873,4.034l-7.62-12.69l-22.845,6.487
	l-17.765-18.332l-23.412-9.872l-12.836,5.294l-8.122-7.304L123.093,310.683z"/>
<g>
	<path style="fill:#F9BF2C;" d="M379.237,31.575c-0.384,5.048-0.818,10.059-1.32,14.81l-4.052-0.534c0,0-0.087,0.909-0.233,2.275
		c-0.155,1.352-0.365,3.157-0.58,4.961c-0.196,1.809-0.489,3.554-0.667,4.888c-0.196,1.329-0.32,2.211-0.32,2.211l3.947,0.813
		c-0.288,1.75-0.589,3.408-0.9,4.947c-0.859,4.198-2.06,7.958-3.645,11.174l-5.377-3.773c0,0-0.078,0.146-0.219,0.402
		c-0.151,0.247-0.32,0.653-0.612,1.019c-0.279,0.375-0.562,0.873-0.927,1.306c-0.388,0.393-0.735,0.914-1.16,1.293
		c-0.215,0.196-0.429,0.388-0.635,0.58c-0.201,0.192-0.402,0.388-0.63,0.516c-0.439,0.279-0.809,0.612-1.179,0.804
		c-0.754,0.37-1.238,0.658-1.238,0.658l2.567,7.423c-4.098,2.129-9.205,2.823-15.481,1.777l1.22-6.902c0,0-0.964-0.178-2.403-0.443
		c-0.726-0.069-1.571-0.164-2.467-0.224c-0.877-0.009-1.832-0.073-2.736-0.018c-0.918,0.032-1.841,0.069-2.672,0.174
		c-0.845,0.082-1.631,0.174-2.293,0.292c-1.329,0.196-2.202,0.407-2.202,0.407l0.978,6.012c-7.003,1.032-13.873,4.111-16.267,7.46
		l-0.274,27.011c0,0,0.087-0.123,0.242-0.315c1.211-1.498,7.044-8.127,16.779-9.232c10.982-1.247,33.484,4.376,44.475-2.494
		c13.924-8.716,18.012-27.98,20.292-67.051C392.781,39.432,386.102,35.357,379.237,31.575z"/>
	<path style="fill:#FFEF76;" d="M383.444,33.927c-1.507,20.557-4.093,40.072-8.542,46.677
		c-10.703,15.897-20.141,15.047-29.615,14.495c-7.341-0.425-20.15,1.567-27.614,6.807l-0.215,20.986c0,0,0.087-0.123,0.242-0.315
		c1.211-1.498,7.044-8.127,16.783-9.232c10.977-1.247,33.48,4.376,44.471-2.494c13.924-8.716,18.012-27.98,20.292-67.051
		C394.106,40.323,388.839,37.034,383.444,33.927z"/>
	<path style="fill:#F9BF2C;" d="M392.338,92.322c-0.699,0.114-1.466,0.233-2.293,0.279c-2.695,0.265-5.619,0.21-5.619,0.21
		l-0.046,13.581c-1.626,1.718-3.422,3.202-5.427,4.458c-1.576,0.982-3.39,1.708-5.368,2.234l-2.33-11.05c0,0-0.594,0.151-1.489,0.37
		c-0.973,0.132-2.216,0.407-3.604,0.48c-2.7,0.274-5.619,0.215-5.619,0.219l-0.041,11.219c-3.796-0.05-7.684-0.333-11.393-0.603
		l-0.877-9.191c0,0-0.603,0.064-1.517,0.155c-0.982-0.018-2.248,0.073-3.632-0.046c-2.709-0.123-5.596-0.598-5.596-0.598
		l-1.06,9.159c-0.685,0.027-1.334,0.078-1.951,0.146c-9.735,1.105-15.568,7.734-16.779,9.232l-0.242,26.819
		c0,0,6.039-9.269,17.021-10.667c10.982-1.389,33.484,4.892,44.475-2.782c14.787-10.333,20.068-38.87,21.959-90.992
		c-0.557-0.384-1.101-0.772-1.663-1.151C397.98,65.612,396.139,81.249,392.338,92.322z"/>
	<polygon style="fill:#FBD734;" points="255.057,59.418 282.561,45.782 337.53,45.782 331.235,71.386 255.057,71.089 	"/>
	<polygon style="fill:#F7A724;" points="281.753,46.179 281.753,67.124 318.005,71.336 331.235,71.386 337.53,45.782 
		282.561,45.782 	"/>
	<polygon style="fill:#F9BF2C;" points="282.045,58.015 281.145,58.408 260.461,67.352 284.48,71.208 331.235,71.386 334.62,57.613 
			"/>
	<path style="fill:#FFED58;" d="M334.483,47.865c0,3.358,0,5.039,0,8.401c0,0.265-0.667,0.402-0.667,0.667c0-3.358,0-5.034,0-8.401
		c-2.001,0.973-2.668,1.453-4.006,2.421c0,3.358,0,5.039,0,8.401c0,0.27-0.667,0.402-0.667,0.672c0-3.358,0-5.043,0-8.401
		c-2.001,0.964-2.668,1.448-4.673,2.417c0,3.362,0,5.043,0,8.405c-0.667,0.27-0.667,0.402-1.334,0.672c0-3.367,0-5.043,0-8.405
		c-1.334,0.968-1.334,1.453-3.339,2.421c0,3.358,0,5.039,0,8.401c-0.662,0.27-0.662,0.402-1.334,0.676c0-3.362,0-5.043,0-8.405
		c-0.667,0.649-1.462,0.859-2.512,1.617h-8.168v8.337h-2.663v-8.337h-11.352v8.337h-3.339v-8.337h-10.676v8.337h-3.339v-8.337
		h-11.347v8.337h-2.672v-8.337h-7.336v105.368l62.803-0.238c3.44-6.729,12.617-8.273,19.963-12.709c0-35.239,0-70.482,0-105.729
		C336.483,46.81,335.821,47.166,334.483,47.865z"/>
	<g>
		<path style="fill:#FFFFFF;" d="M275.006,96.534c0-2.608-2.047-4.906-4.303-4.906c-2.257,0-4.299,1.937-4.299,4.536v10.297h8.62
			L275.006,96.534z"/>
		<path style="fill:#FFFFFF;" d="M289.802,96.534c0-2.608-1.768-4.906-4.025-4.906s-4.025,1.937-4.025,4.536v10.297h8.072
			L289.802,96.534z"/>
		<path style="fill:#FFFFFF;" d="M304.603,96.534c0-2.608-1.827-4.906-4.084-4.906s-4.084,1.937-4.084,4.536v10.297h8.186
			L304.603,96.534z"/>
	</g>
	<polygon style="fill:#FBD734;" points="316.566,146.596 255.057,146.596 255.057,164.791 317.859,164.553 337.822,151.844 
		337.822,132.942 	"/>
</g>
<g>
	<polygon style="fill:#F9BF2C;" points="259.063,151.146 259.063,160.241 317.608,160.104 333.816,149.126 333.816,140.739 
		317.206,151.146 	"/>
	<polygon style="fill:#F9BF2C;" points="316.566,112.486 255.057,112.486 255.057,115.514 316.566,115.514 337.822,102.134 
		337.822,99.329 	"/>
</g>
<g>
	<g>
		<path style="fill:#FFFFFF;" d="M325.981,90.12c-0.059-2.444-0.726-3.755-1.896-3.102c-1.169,0.649-2.727,2.809-2.727,5.313
			c-0.005,3.828,0.05,6.427,0.05,10.301c2.745-1.677,3.467-2.083,4.828-2.905C326.155,95.99,326.073,93.788,325.981,90.12z"/>
		<path style="fill:#FFFFFF;" d="M333.126,85.945c-0.023-2.403-1.448-3.664-2.755-2.828c-1.311,0.827-1.85,2.946-1.772,5.372
			c0.123,3.7,0.215,5.706,0.315,9.552c1.252-0.841,1.919-1.311,4.294-3.029C333.208,91.23,333.167,89.54,333.126,85.945z"/>
	</g>
	<g>
		<polygon style="fill:#F9BF2C;" points="316.566,80.801 255.057,80.801 255.057,83.834 316.566,83.834 337.822,70.445 
			337.822,67.645 		"/>
		<path style="fill:#F9BF2C;" d="M294.269,175.558c0.69,1.366,1.503,2.608,2.079,3.581c0.279,0.489,0.548,0.854,0.731,1.128
			c0.178,0.26,0.288,0.416,0.288,0.416l-6.021,5.249c3.239,5.025,7.181,9.598,11.978,13.357l4.399-7.533
			c0,0,0.598,0.425,1.498,1.074c0.425,0.333,1.014,0.694,1.645,1.074c0.626,0.388,1.293,0.804,1.964,1.206
			c0.658,0.439,1.343,0.799,1.987,1.137c0.644,0.347,1.243,0.667,1.759,0.946c0.516,0.274,0.936,0.512,1.252,0.644
			c0.306,0.142,0.484,0.224,0.484,0.224l-3.179,8.483c5.345,2.64,10.676,4.504,15.952,5.806l1.708-9.1c0,0,0.754,0.16,1.882,0.402
			c0.566,0.119,1.224,0.265,1.928,0.416c0.717,0.123,1.48,0.251,2.243,0.379c1.517,0.283,3.065,0.443,4.221,0.589
			c1.151,0.16,1.932,0.206,1.932,0.206l-0.685,9.324c5.971,0.571,11.813,0.617,17.464,0.448l-0.206-9.351
			c0,0,0.745-0.023,1.873-0.055c1.147-0.055,2.663-0.119,4.175-0.183c3.07-0.164,6.135-0.329,6.135-0.329l0.407,9.337
			c13.357-0.745,25.17-1.265,34.371,3.495c0.014,0.005,0.032,0.014,0.055,0.027c0.343,0.178,0.681,0.361,1.019,0.553
			c0.064,0.041,0.137,0.082,0.21,0.123c0.292,0.174,0.58,0.352,0.868,0.534c0.11,0.069,0.219,0.142,0.324,0.215
			c0.251,0.169,0.503,0.338,0.749,0.516c0.137,0.096,0.274,0.196,0.407,0.297c0.224,0.169,0.443,0.329,0.658,0.502
			c0.16,0.123,0.315,0.26,0.475,0.393c0.187,0.16,0.379,0.32,0.571,0.48c0.178,0.16,0.352,0.329,0.534,0.498
			c0.16,0.151,0.32,0.297,0.484,0.452c0.206,0.21,0.416,0.429,0.621,0.644c0.123,0.128,0.247,0.251,0.365,0.384
			c0.329,0.356,0.653,0.722,0.964,1.105c0,0,8.935,0,19.241-0.338c4.143-0.137,8.515-0.329,12.613-0.594
			c-4.874-19.355-11.535-32.173-35.302-36.796l-0.863,5.569c0,0-0.69-0.164-1.763-0.329c-1.069-0.178-2.49-0.42-3.942-0.58
			c-1.444-0.201-2.91-0.329-4.006-0.425c-0.548-0.055-1.005-0.096-1.329-0.119s-0.507-0.037-0.507-0.037l0.311-5.605
			c-4.879-0.347-10.301-0.457-16.326-0.329l0.091,5.614c0,0-0.799,0-2.01,0.055c-1.211,0.046-2.819,0.105-4.431,0.164
			c-1.613,0.091-3.23,0.174-4.44,0.242c-1.215,0.078-2.015,0.132-2.015,0.132l-0.292-5.61c-1.457,0.096-2.928,0.206-4.44,0.324
			c-4.326,0.338-8.364,0.475-12.138,0.416l-0.059,5.596c0,0-0.872-0.023-2.174-0.064c-0.653-0.014-1.416-0.041-2.229-0.064
			c-0.818-0.069-1.695-0.137-2.572-0.206c-0.872-0.069-1.745-0.128-2.567-0.215c-0.822-0.11-1.585-0.21-2.252-0.301
			c-1.316-0.178-2.197-0.297-2.197-0.297l0.703-5.573c-6.743-1.124-12.343-3.038-16.989-5.569l-2.129,5.23
			c0,0-0.206-0.105-0.553-0.288c-0.352-0.187-0.859-0.42-1.444-0.799c-1.188-0.74-2.773-1.667-4.271-2.855
			c-1.539-1.069-2.946-2.435-4.034-3.371c-1.019-1.06-1.704-1.763-1.704-1.763l3.705-4.449
			c-8.346-9.561-10.895-22.567-11.443-35.618c-0.023-0.603-0.046-1.206-0.064-1.8c-0.123-4.454-0.041-8.89,0.119-13.179
			l-26.308-0.466c0,0-0.338,5.203,0.064,13.097c0.53,10.58,2.394,26.002,8.154,40.209l6.578-3.632
			C291.62,170.03,292.817,172.904,294.269,175.558z"/>
	</g>
	<path style="fill:#FFEF76;" d="M294.279,120.667c-0.333,12.672,0.292,41.081,11.338,56.284
		c14.499,19.949,35.577,23.576,52.89,21.932c17.322-1.645,60.135-4.632,68.782,12.677c3.083,6.176,2.494,10.265,0.457,12.969
		c-6.35,0.123-10.909,0.123-10.909,0.123c-0.311-0.384-0.635-0.749-0.964-1.105c-0.119-0.132-0.242-0.256-0.365-0.384
		c-0.206-0.215-0.416-0.434-0.621-0.644c-0.164-0.155-0.324-0.301-0.484-0.452c-0.183-0.169-0.356-0.338-0.534-0.498
		c-0.192-0.16-0.384-0.32-0.571-0.48c-0.16-0.132-0.315-0.27-0.475-0.393c-0.21-0.174-0.434-0.333-0.658-0.502
		c-0.132-0.101-0.27-0.201-0.407-0.297c-0.247-0.178-0.498-0.347-0.749-0.516c-0.105-0.073-0.215-0.146-0.324-0.215
		c-0.288-0.183-0.576-0.361-0.868-0.534c-0.073-0.041-0.146-0.082-0.21-0.123c-0.338-0.192-0.676-0.375-1.019-0.553
		c-0.023-0.014-0.041-0.023-0.055-0.027c-9.2-4.76-21.013-4.239-34.371-3.495l-0.407-9.337c0,0-3.065,0.164-6.135,0.329
		c-1.512,0.064-3.029,0.128-4.175,0.183c-1.128,0.032-1.873,0.055-1.873,0.055l0.206,9.351c-5.651,0.169-11.493,0.123-17.464-0.448
		l0.685-9.324c0,0-0.781-0.046-1.932-0.206c-1.156-0.146-2.704-0.306-4.221-0.589c-0.763-0.128-1.526-0.256-2.243-0.379
		c-0.703-0.151-1.361-0.288-1.928-0.416c-1.128-0.242-1.882-0.402-1.882-0.402l-1.708,9.1c-5.276-1.302-10.607-3.166-15.952-5.806
		l3.179-8.483c0,0-0.178-0.082-0.484-0.224c-0.315-0.132-0.735-0.37-1.252-0.644c-0.516-0.279-1.115-0.598-1.759-0.946
		c-0.644-0.338-1.329-0.699-1.987-1.137c-0.672-0.402-1.338-0.818-1.964-1.206c-0.63-0.379-1.22-0.74-1.645-1.074
		c-0.9-0.649-1.498-1.074-1.498-1.074l-4.399,7.533c-4.797-3.76-8.739-8.332-11.978-13.357l6.021-5.249c0,0-0.11-0.155-0.288-0.416
		c-0.183-0.274-0.452-0.64-0.731-1.128c-0.576-0.973-1.389-2.216-2.079-3.581c-1.453-2.654-2.65-5.527-2.65-5.527l-6.578,3.632
		c-5.76-14.207-7.624-29.629-8.154-40.209c-0.402-7.894-0.064-13.097-0.064-13.097L294.279,120.667z"/>
	<path style="fill:#F9BF2C;" d="M416.837,224.651c-0.311-0.384-0.635-0.749-0.964-1.105c-0.119-0.132-0.242-0.256-0.365-0.384
		c-0.206-0.215-0.416-0.434-0.621-0.644c-0.164-0.155-0.324-0.301-0.484-0.452c-0.183-0.169-0.356-0.338-0.534-0.498
		c-0.192-0.16-0.384-0.32-0.571-0.48c-0.16-0.132-0.315-0.27-0.475-0.393c-0.215-0.174-0.434-0.333-0.658-0.502
		c-0.132-0.101-0.27-0.201-0.407-0.297c-0.247-0.178-0.498-0.347-0.749-0.516c-0.105-0.073-0.215-0.146-0.324-0.215
		c-0.288-0.183-0.576-0.361-0.868-0.534c-0.073-0.041-0.146-0.082-0.21-0.123c-0.338-0.192-0.676-0.375-1.019-0.553
		c-0.023-0.014-0.041-0.023-0.055-0.027c-9.2-4.742-21.009-4.171-34.371-3.385v-0.11l-0.407-9.337c0,0-3.065,0.164-6.135,0.329
		c-1.512,0.064-3.029,0.128-4.175,0.183c-1.128,0.032-1.873,0.055-1.873,0.055l0.206,9.351v0.146
		c-5.651,0.183-11.498,0.146-17.478-0.407l0.014-0.187l0.685-9.324c0,0-0.781-0.046-1.932-0.206
		c-1.156-0.146-2.704-0.306-4.221-0.589c-0.763-0.128-1.526-0.256-2.243-0.379c-0.703-0.151-1.361-0.297-1.928-0.416
		c-1.128-0.242-1.882-0.402-1.882-0.402l-1.708,9.1l-0.041,0.201c-5.285-1.302-10.625-3.166-15.979-5.811l0.069-0.196l3.179-8.483
		c0,0-0.178-0.082-0.484-0.224c-0.315-0.132-0.735-0.37-1.252-0.644c-0.516-0.279-1.115-0.598-1.759-0.946
		c-0.644-0.338-1.329-0.699-1.987-1.137c-0.672-0.402-1.338-0.818-1.964-1.206c-0.63-0.379-1.22-0.74-1.645-1.074
		c-0.9-0.649-1.498-1.074-1.498-1.074l-4.399,7.533l-0.091,0.164c-4.815-3.787-8.757-8.378-11.996-13.421l0.11-0.1l6.021-5.249
		c0,0-0.11-0.155-0.288-0.416c-0.183-0.274-0.452-0.64-0.731-1.128c-0.576-0.973-1.389-2.216-2.079-3.581
		c-1.453-2.654-2.65-5.527-2.65-5.527l-6.578,3.632l-0.105-0.123c-5.678-14.074-7.519-28.848-8.049-39.98h-0.064
		c0,0-3.833,69.541,29.652,95.497c44.471,34.476,89.499-2.595,110.361,27.116c0,0,17.574-0.014,31.854-1.119
		c-2.736-12.777-6.039-23.147-12.613-30.734C425.772,224.656,416.837,224.651,416.837,224.651z"/>
	<path style="fill:#FBD734;" d="M402.561,185.279l32.447-16.089h61.884c0.594,1.649,1.179,3.303,1.74,4.966l-6.213,25.243
		l-89.86-0.352V185.279z"/>
	<path style="fill:#F7A724;" d="M434.054,169.66v24.709l42.771,4.966l15.596,0.064l6.213-25.243
		c-0.562-1.663-1.147-3.316-1.74-4.966h-61.884L434.054,169.66z"/>
	<polygon style="fill:#F9BF2C;" points="434.397,183.625 433.337,184.082 408.948,194.639 437.275,199.179 492.421,199.399 
		496.418,183.15 	"/>
	<path style="fill:#FFED58;" d="M496.263,171.647c0,3.965,0,5.948,0,9.913c0,0.315-0.786,0.48-0.786,0.79c0-3.965,0-5.948,0-9.908
		c-2.362,1.137-3.152,1.713-4.728,2.846c0,3.97,0,5.952,0,9.917c0,0.315-0.79,0.475-0.79,0.795c0-3.97,0-5.948,0-9.917
		c-2.357,1.142-3.143,1.713-5.509,2.86c0,3.961,0,5.943,0,9.904c-0.786,0.324-0.786,0.48-1.576,0.795c0-3.961,0-5.943,0-9.908
		c-1.567,1.137-1.567,1.713-3.933,2.846c0,3.97,0,5.952,0,9.917c-0.786,0.315-0.786,0.475-1.576,0.795c0-3.965,0-5.952,0-9.917
		c-0.786,0.763-1.727,1.014-2.965,1.909h-9.63v9.84h-3.157v-9.84h-13.385v9.84h-3.933v-9.84h-12.599v9.84h-3.938v-9.84h-13.385v9.84
		h-3.152v-9.84h-8.661v124.299l74.09-0.274c4.056-7.944,14.888-9.762,23.549-14.997V178.97c-0.845-2.681-1.745-5.345-2.677-7.985
		L496.263,171.647z"/>
	<g>
		<path style="fill:#FFFFFF;" d="M426.101,229.059c0-3.074-2.417-5.783-5.075-5.783c-2.663,0-5.08,2.279-5.08,5.354v12.138h10.178
			L426.101,229.059z"/>
		<path style="fill:#FFFFFF;" d="M443.556,229.059c0-3.074-2.088-5.783-4.746-5.783c-2.663,0-4.755,2.279-4.755,5.354v12.138h9.529
			L443.556,229.059z"/>
		<path style="fill:#FFFFFF;" d="M461.011,229.059c0-3.074-2.156-5.783-4.819-5.783c-2.659,0-4.81,2.279-4.81,5.354v12.138h9.657
			L461.011,229.059z"/>
	</g>
	<polygon style="fill:#FBD734;" points="475.126,288.121 402.561,288.121 402.561,309.582 476.652,309.308 500.201,294.311 
		500.201,272.009 	"/>
</g>
<g>
	<polygon style="fill:#F9BF2C;" points="407.285,293.484 407.285,304.219 476.35,304.05 495.477,291.104 495.477,281.214 
		475.88,293.484 	"/>
	<polygon style="fill:#F9BF2C;" points="475.126,247.885 402.561,247.885 402.561,251.457 475.126,251.457 500.201,235.665 
		500.201,232.362 	"/>
</g>
<g>
	<g>
		<path style="fill:#FFFFFF;" d="M486.231,221.499c-0.064-2.882-0.859-4.431-2.229-3.664c-1.38,0.772-3.225,3.316-3.225,6.272
			c-0.005,4.518,0.059,7.583,0.059,12.151c3.248-1.983,4.088-2.462,5.696-3.426C486.437,228.415,486.341,225.821,486.231,221.499z"
			/>
		<path style="fill:#FFFFFF;" d="M494.664,216.57c-0.032-2.837-1.713-4.321-3.253-3.339c-1.544,0.982-2.179,3.481-2.088,6.341
			c0.142,4.372,0.242,6.729,0.365,11.265c1.48-0.991,2.266-1.539,5.08-3.563C494.755,222.806,494.71,220.814,494.664,216.57z"/>
	</g>
	<g>
		<polygon style="fill:#F9BF2C;" points="475.126,210.504 402.561,210.504 402.561,214.076 475.126,214.076 500.201,198.289 
			500.201,194.986 		"/>
		<path style="fill:#F9BF2C;" d="M139.008,316.365c0,0,100.065-16.039,169.249-4.641c75.799,12.489,136.002-26.605,136.002-58.696
			c0,0,1.96,22.63,1.128,36.413c-0.703,14.851,11.809,98.946-133.832,81.208c-82.002-9.986-154.425,2.887-170.08,5.929
			L139.008,316.365z"/>
		<path style="fill:#F9BF2C;" d="M445.392,251.777c-10.708,0.434-41.593,0-41.593,0c0,13.074-3.906,24.197-14.901,31.525
			l0.078,0.279l2.883,6.336c-1.667,0.617-9.876,3.933-11.142,4.262c-1.261,0.384-2.101,0.635-2.101,0.635l-1.43-6.048
			c-3.376,1.074-7.145,1.937-11.324,2.576l0.219,5.916c0,0-0.795,0.073-1.978,0.078c-1.183,0.027-2.768,0.059-4.349,0.091
			c-1.581,0.032-3.161,0.064-4.349,0.091c-1.188,0.037-1.969,0-1.969,0l0.014-5.02c-5.057,0.215-10.571,0.178-16.591-0.137
			l-0.201,4.573c0,0-3.353-0.206-6.697-0.407c-3.33-0.32-6.66-0.635-6.66-0.635l0.338-4.586c-4.851-0.507-9.968-1.16-15.376-1.978
			c-0.329-0.05-0.667-0.096-0.996-0.146l-0.37,5.135c0,0-0.809-0.078-2.028-0.201c-1.215-0.096-2.837-0.306-4.468-0.393
			c-3.253-0.228-6.505-0.452-6.505-0.452l0.301-5.692c-4.568-0.457-9.223-0.827-13.933-1.115l-0.174,5.888
			c0,0-0.767-0.032-1.914-0.082c-1.147-0.046-2.672-0.128-4.203-0.137c-3.061-0.059-6.117-0.119-6.117-0.119l0.082-6.135
			c-3.828-0.128-7.679-0.215-11.525-0.26l-0.023,6.281l-12.243,0.059l-0.073-6.35c-5.537,0.055-11.032,0.174-16.45,0.356
			l0.206,6.468c0,0-3.266,0.142-6.528,0.283c-1.631,0.064-3.262,0.174-4.486,0.247c-1.224,0.078-2.033,0.128-2.033,0.128
			l-0.311-6.569c-5.646,0.283-11.146,0.621-16.436,0.991l0.448,6.752c0,0-0.818,0.069-2.037,0.169
			c-1.22,0.119-2.846,0.27-4.477,0.425c-1.622,0.155-3.248,0.315-4.468,0.429c-1.22,0.128-2.033,0.215-2.033,0.215l-0.571-6.976
			c-6.222,0.525-12.01,1.074-17.236,1.613l0.767,7.4c0,0-3.033,0.416-6.071,0.841c-3.024,0.457-6.053,0.914-6.053,0.914l-0.95-7.807
			c-10.242,1.188-16.349,2.088-16.349,2.088l2.467,38.021c1.718-0.302,4.116-0.722,7.131-1.201l1.115,9.123
			c0,0,3.029-0.457,6.053-0.918c3.033-0.42,6.066-0.841,6.066-0.841l-0.95-9.173c5.03-0.685,10.808-1.398,17.236-2.088l0.758,9.228
			c0,0,0.809-0.087,2.028-0.219c1.22-0.114,2.846-0.27,4.477-0.425c1.626-0.155,3.253-0.311,4.472-0.425
			c1.22-0.105,2.037-0.169,2.037-0.169l-0.617-9.264c5.203-0.448,10.703-0.868,16.473-1.224l0.439,9.31c0,0,0.813-0.05,2.037-0.123
			c1.224-0.078,2.851-0.187,4.486-0.247c3.262-0.142,6.528-0.283,6.528-0.283l-0.297-9.337c5.331-0.224,10.836-0.393,16.505-0.484
			l0.11,9.346l12.238-0.059l0.037-9.369c3.792,0.009,7.652,0.055,11.557,0.142l-0.123,9.342c0,0,3.056,0.055,6.117,0.114
			c1.53,0.014,3.056,0.091,4.198,0.142c1.147,0.05,1.914,0.082,1.914,0.082l0.274-9.287c4.623,0.196,9.301,0.452,14.033,0.767
			l-0.503,9.442c0,0,3.257,0.219,6.51,0.443c1.631,0.091,3.248,0.297,4.463,0.397c1.22,0.123,2.033,0.196,2.033,0.196l0.681-9.438
			c3.499,0.32,7.021,0.676,10.566,1.069c1.978,0.224,3.924,0.42,5.843,0.608l-0.685,9.342c0,0,3.326,0.315,6.66,0.635
			c3.344,0.201,6.692,0.402,6.692,0.402l0.425-9.337c5.742,0.356,11.196,0.539,16.381,0.58l-0.027,9.346
			c0,0,0.786,0.032,1.973-0.005c1.183-0.023,2.764-0.055,4.344-0.087c1.581-0.032,3.166-0.064,4.349-0.087
			c1.183-0.009,1.978-0.087,1.978-0.087l-0.338-9.287c4.002-0.174,7.816-0.443,11.457-0.809l0.644,9.538
			c0,0,0.201-0.014,0.548-0.037c0.347-0.037,0.841-0.091,1.434-0.16c1.192-0.142,2.782-0.32,4.367-0.507
			c1.59-0.201,3.179-0.329,4.367-0.553c1.192-0.201,1.983-0.333,1.983-0.333l-1.201-9.602c4.902-0.859,9.415-1.909,13.581-3.125
			l2.051,8.693c0,0,0.841-0.251,2.106-0.635c1.261-0.333,2.919-1.019,4.582-1.635c1.663-0.653,3.339-1.201,4.559-1.827
			c1.229-0.571,2.051-0.95,2.051-0.95l-2.965-8.15c5.605-2.503,10.356-5.363,14.385-8.46l4.331,6.843c0,0,0.745-0.603,1.859-1.512
			c1.083-0.978,2.48-2.353,3.887-3.709c1.348-1.453,2.645-2.983,3.627-4.107c0.909-1.22,1.512-2.033,1.512-2.033l-5.372-5.107
			C447.969,281.118,445.04,258.56,445.392,251.777z"/>
	</g>
	<path style="fill:#FFEF76;" d="M140.223,312.291c15.468-3.179,52.268-10.251,76.617-10.941c44.082-1.243,94.83,6.24,130.954,8.73
		c35.567,2.458,65.009-9.593,69.276-58.161c9.73,0.073,22.26,0.105,28.318-0.142c-0.347,6.784,2.586,29.341-12.444,48.235
		l5.372,5.107c0,0-0.608,0.813-1.512,2.033c-0.982,1.119-2.275,2.654-3.627,4.107c-1.407,1.352-2.809,2.732-3.883,3.709
		c-1.119,0.909-1.864,1.512-1.864,1.512l-4.331-6.843c-4.029,3.097-8.78,5.957-14.385,8.46l2.965,8.145c0,0-0.822,0.384-2.051,0.955
		c-1.224,0.626-2.896,1.174-4.559,1.827c-1.663,0.617-3.316,1.302-4.582,1.635c-1.265,0.379-2.101,0.635-2.101,0.635l-2.06-8.689
		c-4.162,1.211-8.675,2.261-13.576,3.12l1.201,9.598c0,0-0.795,0.137-1.983,0.338c-1.192,0.224-2.777,0.352-4.367,0.553
		c-1.585,0.187-3.175,0.37-4.367,0.507c-0.589,0.069-1.087,0.119-1.439,0.164c-0.343,0.018-0.544,0.032-0.544,0.032l-0.649-9.538
		c-3.636,0.361-7.446,0.635-11.452,0.809l0.338,9.292c0,0-0.79,0.073-1.978,0.082c-1.188,0.023-2.768,0.055-4.349,0.091
		c-1.581,0.027-3.161,0.055-4.344,0.082c-1.188,0.037-1.973,0.005-1.973,0.005l0.027-9.346c-5.185-0.041-10.639-0.224-16.381-0.58
		l-0.425,9.337c0,0-3.348-0.206-6.692-0.407c-3.33-0.315-6.665-0.63-6.665-0.63l0.69-9.342c-1.919-0.187-3.86-0.384-5.843-0.608
		c-3.545-0.393-7.067-0.749-10.566-1.069l-0.681,9.438c0,0-0.813-0.073-2.033-0.196c-1.215-0.101-2.832-0.306-4.463-0.397
		c-3.253-0.224-6.51-0.443-6.51-0.443l0.503-9.442c-4.737-0.315-9.41-0.571-14.033-0.767l-0.274,9.287c0,0-0.767-0.032-1.909-0.087
		c-1.147-0.046-2.672-0.128-4.203-0.137c-3.061-0.059-6.121-0.114-6.121-0.114l0.128-9.342c-3.906-0.082-7.766-0.137-11.557-0.146
		l-0.037,9.374l-12.238,0.059l-0.11-9.346c-5.669,0.091-11.174,0.26-16.505,0.484l0.292,9.337c0,0-3.257,0.142-6.528,0.283
		c-1.626,0.059-3.257,0.169-4.481,0.247c-1.224,0.073-2.037,0.128-2.037,0.128l-0.439-9.314c-5.77,0.356-11.274,0.772-16.473,1.224
		l0.617,9.26c0,0-0.818,0.069-2.033,0.174c-1.224,0.114-2.851,0.265-4.481,0.429c-1.626,0.151-3.248,0.306-4.477,0.42
		c-1.215,0.132-2.024,0.219-2.024,0.219l-0.754-9.228c-6.432,0.69-12.211,1.407-17.24,2.088l0.95,9.173c0,0-3.029,0.42-6.066,0.841
		c-3.024,0.457-6.053,0.918-6.053,0.918l-1.115-9.118c-3.015,0.48-5.413,0.891-7.131,1.197L140.223,312.291z"/>
	<polygon style="fill:#FBD734;" points="34.594,278.674 82.208,255.07 177.353,255.07 166.449,299.395 34.594,298.879 	"/>
	<polygon style="fill:#F7A724;" points="80.81,255.765 80.81,292.013 143.558,299.304 166.449,299.395 177.353,255.07 
		82.208,255.07 	"/>
	<polygon style="fill:#F9BF2C;" points="81.308,276.253 79.755,276.929 43.954,292.415 85.529,299.08 166.449,299.395 
		172.314,275.563 	"/>
	<path style="fill:#FFED58;" d="M172.077,258.679c0,5.82,0,8.725,0,14.54c0,0.466-1.156,0.699-1.156,1.165c0-5.82,0-8.73,0-14.549
		c-3.467,1.677-4.623,2.517-6.93,4.194c0,5.815,0,8.725,0,14.54c0,0.466-1.156,0.703-1.156,1.165c0-5.82,0-8.725,0-14.549
		c-3.467,1.681-4.618,2.512-8.09,4.189c0,5.82,0,8.721,0,14.549c-1.156,0.466-1.156,0.699-2.307,1.156c0-5.806,0-8.721,0-14.54
		c-2.311,1.676-2.311,2.508-5.779,4.18c0,5.824,0,8.73,0,14.554c-1.156,0.457-1.156,0.694-2.316,1.16c0-5.815,0-8.73,0-14.545
		c-1.147,1.119-2.535,1.494-4.344,2.8h-14.138v14.431h-4.618v-14.431h-19.634v14.431h-5.783v-14.431H77.343v14.431h-5.779v-14.431
		H51.926v14.431h-4.618v-14.431H34.594v105.889c17.309,29.734,40.428,55.663,67.805,76.233l40.908-0.155
		c5.957-11.644,21.84-14.321,34.549-21.996c0-61.003,0-122.001,0-183.004C175.539,256.866,174.384,257.469,172.077,258.679z"/>
	<g>
		<path style="fill:#FFFFFF;" d="M69.139,342.915c0-4.513-3.554-8.483-7.455-8.483c-3.906,0-7.451,3.339-7.451,7.853v17.811h14.933
			L69.139,342.915z"/>
		<path style="fill:#FFFFFF;" d="M94.743,342.915c0-4.513-3.065-8.483-6.966-8.483c-3.901,0-6.966,3.339-6.966,7.853v17.811h13.969
			L94.743,342.915z"/>
		<path style="fill:#FFFFFF;" d="M120.347,342.915c0-4.513-3.152-8.483-7.053-8.483c-3.91,0-7.067,3.339-7.067,7.853v17.811h14.161
			L120.347,342.915z"/>
	</g>
	<path style="fill:#FBD734;" d="M141.064,429.573H67.846c10.543,11.42,22.105,21.886,34.553,31.237l40.908-0.155l34.549-21.996
		v-32.726L141.064,429.573z"/>
</g>
<g>
	<path style="fill:#F9BF2C;" d="M92.6,453.067l50.263-0.123l28.057-18.999v-14.513l-28.747,18.012H75.415
		C80.901,442.907,86.639,448.119,92.6,453.067z"/>
	<polygon style="fill:#F9BF2C;" points="141.064,370.53 34.594,370.53 34.594,375.783 141.064,375.783 177.855,352.609 
		177.855,347.758 	"/>
</g>
<g>
	<g>
		<path style="fill:#FFFFFF;" d="M157.363,331.824c-0.096-4.235-1.261-6.505-3.275-5.377c-2.024,1.133-4.728,4.865-4.733,9.196
			c-0.005,6.628,0.091,11.133,0.091,17.834c4.76-2.91,5.998-3.609,8.351-5.03C157.664,341.979,157.523,338.165,157.363,331.824z"/>
		<path style="fill:#FFFFFF;" d="M169.729,324.588c-0.041-4.157-2.508-6.336-4.774-4.897c-2.27,1.439-3.198,5.112-3.061,9.301
			c0.21,6.414,0.365,9.872,0.539,16.532c2.17-1.448,3.321-2.261,7.446-5.23C169.87,333.738,169.797,330.814,169.729,324.588z"/>
	</g>
	<polygon style="fill:#F9BF2C;" points="141.064,315.685 34.594,315.685 34.594,320.934 141.064,320.934 177.855,297.764 
		177.855,292.922 	"/>
</g>
<g>
</g>
<g>
</g>
<g>
</g>
<g>
</g>
<g>
</g>
<g>
</g>
<g>
</g>
<g>
</g>
<g>
</g>
<g>
</g>
<g>
</g>
<g>
</g>
<g>
</g>
<g>
</g>
<g>
</g>
</svg>
