<?xml version="1.0" encoding="iso-8859-1"?>
<!-- Generator: Adobe Illustrator 19.0.0, SVG Export Plug-In . SVG Version: 6.00 Build 0)  -->
<svg version="1.1" id="Layer_1" xmlns="http://www.w3.org/2000/svg" xmlns:xlink="http://www.w3.org/1999/xlink" x="0px" y="0px"
	 viewBox="0 0 512 512" style="enable-background:new 0 0 512 512;" xml:space="preserve">
<path style="fill:#747474;" d="M256.005,0C397.384,0,512,114.616,512,256.005C512,397.384,397.384,512,256.005,512
	C114.616,512,0,397.384,0,256.005C0,114.616,114.616,0,256.005,0z"/>
<path style="fill:#FFFFFF;" d="M257.783,67.3c118.533,0,214.619,96.096,214.619,214.628s-96.086,214.628-214.619,214.628
	c-118.542,0-214.628-96.096-214.628-214.628S139.24,67.3,257.783,67.3z"/>
<path style="fill:#E5E5E5;" d="M70.836,387.411c-13.206-23.365-22.173-49.435-25.826-77.195
	c19.965,7.258,34.226,26.393,34.226,48.859C79.237,369.527,76.15,379.265,70.836,387.411z M210.331,142.679
	c-13.948,0-25.26-11.311-25.26-25.26c0-13.958,11.311-25.269,25.26-25.269c13.958,0,25.269,11.311,25.269,25.269
	C235.6,131.367,224.289,142.679,210.331,142.679z M106.206,189.506c15.541,0,28.141,12.6,28.141,28.141
	c0,15.531-12.6,28.131-28.141,28.131s-28.131-12.6-28.131-28.131C78.074,202.106,90.665,189.506,106.206,189.506z M201.364,257.206
	c-15.687,0-28.405-12.718-28.405-28.405c0-15.697,12.718-28.415,28.405-28.415c15.697,0,28.415,12.718,28.415,28.415
	C229.778,244.489,217.061,257.206,201.364,257.206z M330.279,164.041c-13.958,0-25.269-11.311-25.269-25.269
	c0-13.948,11.311-25.26,25.269-25.26c13.948,0,25.26,11.311,25.26,25.26C355.539,152.73,344.228,164.041,330.279,164.041z
	 M290.026,270.842c-13.958,0-25.269-11.311-25.269-25.269c0-13.948,11.311-25.26,25.269-25.26c13.948,0,25.26,11.311,25.26,25.26
	C315.286,259.531,303.975,270.842,290.026,270.842z M415.181,136.046c21.265,22.925,37.567,50.5,47.237,81.034
	c-5.656,2.393-11.868,3.712-18.403,3.712c-26.109,0-47.276-21.167-47.276-47.276C396.74,158.258,403.968,144.691,415.181,136.046z
	 M387.783,311.291c-13.948,0-25.26-11.311-25.26-25.26s11.311-25.26,25.26-25.26c13.958,0,25.269,11.311,25.269,25.26
	S401.741,311.291,387.783,311.291z M395.997,410.503c-13.948,0-25.26-11.311-25.26-25.269c0-13.948,11.311-25.26,25.26-25.26
	c13.958,0,25.269,11.311,25.269,25.26C421.267,399.191,409.956,410.503,395.997,410.503z M298.7,449.017
	c-13.948,0-25.26-11.311-25.26-25.26c0-13.958,11.311-25.269,25.26-25.269c13.958,0,25.269,11.311,25.269,25.269
	C323.969,437.706,312.658,449.017,298.7,449.017z M273.528,349.844c-6.584,0-11.917-5.333-11.917-11.917
	c0-6.574,5.333-11.907,11.917-11.907c6.574,0,11.907,5.333,11.907,11.907C285.435,344.511,280.102,349.844,273.528,349.844z
	 M193.901,423.025c-13.948,0-25.26-11.311-25.26-25.269c0-13.948,11.311-25.26,25.26-25.26c13.958,0,25.269,11.311,25.269,25.26
	C219.17,411.714,207.859,423.025,193.901,423.025z M141.536,311.301c8.166,0,14.788,6.613,14.788,14.788
	c0,8.166-6.623,14.779-14.788,14.779c-8.166,0-14.788-6.613-14.788-14.779C126.747,317.913,133.37,311.301,141.536,311.301z"/>
<path style="fill:#BBBBBB;" d="M255.126,348.086c84.97,0,162.976,12.415,224.201,33.123C435.469,459.264,351.905,512,256.005,512
	C159.899,512,76.179,459.039,32.4,380.711C93.4,360.296,170.829,348.086,255.126,348.086z"/>
<g>
	<polygon style="fill:#333333;" points="255.38,39.364 260.176,39.364 260.176,48.439 272.053,48.439 272.053,53.225 
		260.176,53.225 260.176,98.792 255.38,98.792 255.38,53.225 243.502,53.225 243.502,48.439 255.38,48.439 	"/>
	<polygon style="fill:#333333;" points="223.722,232.044 291.833,232.044 291.833,151.606 308.273,151.606 257.783,86.738 
		207.283,151.606 223.722,151.606 	"/>
</g>
<polygon style="fill:#FFFF00;" points="238.14,162.644 277.426,162.644 277.426,204.128 238.14,204.128 "/>
<g>
	<path style="fill:#333333;" d="M245.172,162.644h1.104v7.873h6.925v-7.873h1.094v7.873h6.964v-7.873h1.104v7.873h6.925v-7.873
		h1.094v7.873h7.043v1.475h-7.043v6.642h7.043v1.475h-7.043v6.642h7.043v1.475h-7.043v6.642h7.043v1.465h-7.043v5.431h-1.094v-5.431
		h-6.925v5.431h-1.104v-5.421h-6.964v5.421h-1.094v-5.421h-6.925v5.421h-1.104v-5.421h-7.043v-1.475h7.043v-6.642h-7.043v-1.475
		h7.043v-6.652h-7.043v-1.465h7.043v-6.642h-7.043v-1.475h7.043V162.644z M261.26,171.992h-6.964v6.642h6.964V171.992z
		 M254.296,180.109v6.642h6.964v-6.642H254.296z M261.26,188.226h-6.964v6.642h6.964V188.226z M269.289,171.992v6.642h-6.925v-6.642
		H269.289z M269.289,180.109v6.642h-6.925v-6.642H269.289z M269.289,188.226v6.642h-6.925v-6.642H269.289z M246.276,171.992v6.642
		h6.925v-6.642H246.276z M246.276,180.099v6.652h6.925v-6.652H246.276z M246.276,188.226v6.642h6.925v-6.642H246.276z"/>
	<path style="fill:#333333;" d="M331.784,172.05h4.796v9.074h11.878v4.786H336.58v45.567h-4.796v-45.567h-11.878v-4.786h11.878
		V172.05z M178.536,172.05h4.786v9.074h11.887v4.786h-11.887v45.567h-4.786v-45.567h-11.878v-4.786h11.878V172.05z"/>
</g>
<path style="fill:#424242;" d="M388.857,434.776c-2.696-20.776-13.382-32.8-19.516-64.722c-1.192-6.183-7.218-35.662-7.218-35.662
	s7.111-3.35,0.078-17.143c-7.043-13.782-64.126-31.833-64.126-31.833l-0.195-0.332c-6.027-0.488-25.181-1.241-25.181-1.241
	l-25.719,0.713c0,0-3.624-0.244-4.601-1.192c-0.967-0.947-7.365-14.144-7.365-14.144s-3.38-7.248-5.382-9.387
	c-2.002-2.149-17.582-5.714-19.37-5.714c-1.778,0-3.477-0.117-3.477-0.117l-13.802,10.11l-1.592-1.074l14.828-13.792l11.438,4.523
	l15.072,4.757l11.399,22.935l9.524-0.83l31.384-1.573l9.465,0.127c-4.562-8.107-12.063-21.831-13.47-27.047
	c-2.041-7.609,0.85-18.07,2.335-21.401c1.475-3.321-14.339-16.156-14.339-16.156s-20.815-16.41-26.451-18.784
	c-5.626-2.383-25.211,2.608-25.211,2.608l-20.014-15.208l20.805,12.835c0,0,18.852-3.262,22.652-3.262
	c3.809,0,5.831,2.012,6.212,2.315c0.381,0.293,16.703,7.961,27.77,18.188c11.077,10.217,13.069,10.579,14.984,17.23
	c1.905,6.662-1.27,6.779-2.168,7.844c-0.899,1.074-3.331,9.279,0.098,16.293c3.438,7.013,18.569,23.052,18.979,24.605
	c0.42,1.543,7.59,3.448,21.538,7.599c13.831,4.122,32.664,12.102,36.668,17.68c0.703-3.624,2.715-6.505,3.428-9.543
	c0.928-4.054-4.532-13.147-5.001-14.046c-0.459-0.899-7.091-4.884-7.091-4.884l-9.397-2.901l-28.639-14.447
	c0,0-4.405-4.366-5.118-7.599c-0.723-3.223-6.076-20.884-6.076-20.884s0.225,0-2.325-1.954c-2.549-1.954-6.603-4.122-7.248-7.355
	s-2.715-17.357-2.715-17.357l-2.52-8.938c0,0-3.78-0.899-4.64-1.875c-0.869-0.977-4.19-3.536-5.089-3.839
	c-0.908-0.303-22.368-6.603-24.898-10.96c-2.52-4.356-4.718-9.699-5.46-10.52c-0.742-0.83-14.984-17.123-14.984-17.123
	s-0.44-1.661-2.501-10.979c-1.543-7.023-6.144-26.002-8.312-34.92l-4.503-1.846l-3.302-2.598l-4.454-6.105
	c0,0-4.474-2.335-5.177-2.403c-0.703-0.068-4.669-0.547-4.669-0.547l-10.657,3.223l-1.358-0.967l9.221-2.94l5.753-1.309l7.58,2.95
	c0,0,5.118,6.515,5.363,6.925c0.186,0.303,3.614,1.856,5.49,2.696l-0.44-1.836l-4.454-20.434c0,0,0.606-0.83,1.446,0.899
	c0.84,1.729,2.022,6.535,2.1,6.837s13.558,49.152,13.558,49.152s1.592,8.713,2.764,11.116c1.172,2.403,4.767,6.535,7.463,9.846
	c2.686,3.302,7.707,7.736,11.038,12.024c3.331,4.278,3.946,5.704,5.148,7.658c1.201,1.954,31.267,13.45,33.015,15.179
	c1.739,1.729,2.696,4.444,3.262,6.017c0.576,1.573,0.508,4.952,0.391,6.457c-0.117,1.504,0.674,11.311,2.891,15.375
	c2.217,4.054,6.554,7.883,8.625,11.116c2.081,3.233,1.494,4.435,1.885,6.994c0.391,2.549,0.938,9.201,6.066,14.007
	c5.128,4.816,17.621,9.631,21.499,12.327c3.888,2.706,13.802,3.692,13.802,3.692l-6.808-24.566c0,0-3.839-2.559-5.402-3.907
	c-1.573-1.358-11.829-7.668-11.829-7.668s-14.408-10.52-14.691-11.575c-0.283-1.055-5.47-14.72-5.47-14.72l-5.685-21.118
	l-2.618-12.239l-4.806-4.737c0,0-13.333-9.914-14.798-11.419c-1.446-1.504-4.835-3.761-7.17-2.93
	c-2.335,0.83-8.654,1.651-10.481,0.147c-1.827-1.494-7.336-6.603-7.336-6.603s-0.879-9.094-2.071-10.745
	c-1.201-1.661-9.514-6.31-11.008-7.971c-1.494-1.651-3.682-7.511-3.682-7.511l2.022-0.606l2.501,4.288
	c0,0,10.999,8.488,12.425,10.139c1.426,1.661,2.09,4.142,2.823,6.847c0.723,2.706,1.612,5.187,4.015,7.14
	c2.413,1.944,10.51,1.875,13.167,1.719c2.667-0.147,5.499-0.225,6.935,0.908c1.426,1.123,7.492,9.69,9.856,11.194
	c2.354,1.504,8.772,5.265,8.772,5.265l3.507,4.649c0,0,0.479-4.356,1.006-7.433c0.518-3.077,2.979-6.535,3.389-7.511
	c0.41-0.977,0.596-4.21,0.596-4.21s-1.856-14.945-1.827-17.66c0.02-2.696-3.643-8.791-4.825-10.666
	c-1.182-1.875-3.223-7.521-3.223-7.521l-2.295-10.735l-10.325-16.302c0,0-0.84-2.549-0.332-6.535
	c0.508-3.985-0.576-8.264-0.576-8.264l-6.632-5.109c0,0-1.553-0.449-5.997,0.078c-4.435,0.527-4.669-2.549-4.669-2.549
	s3.868-0.459,6.271-0.459c2.403,0,12.522,3.233,13.607,5.333c1.094,2.11,3.057,7.443,3.175,7.892
	c0.127,0.449-0.205,5.109-0.547,7.023c-0.352,1.914-0.527,2.93,1.27,5.714c1.797,2.774,8.058,12.923,8.058,12.923
	s1.905,5.118,2.129,8.195c0.234,3.077,4.933,11.643,5.665,12.405c0.733,0.742,4.347,7.502,4.855,12.161
	c0.498,4.659,0.547,17.729,0.547,17.729s-4.972,11.126-4.444,15.335c0.537,4.21,0.83,5.861,1.367,10.666
	c0.547,4.816-0.02,4.962,1.133,12.024c1.153,7.062,2.588,17.436,5.363,21.04c2.774,3.604,8.83,6.007,8.83,6.007
	s14.075,11.8,15.57,12.63c1.504,0.83,2.247-2.549,2.247-2.549s-3.634-11.272-3.819-13.079s1.143-9.162,1.143-9.162l-4.649-11.126
	c0,0-6.408-11.79-6.769-13.147c-0.371-1.348-6.036-19.086-6.574-25.543c-0.537-6.466-2.803-10.969,1.758-11.878
	c4.571-0.899,19.751-22.691,19.751-22.691s5.275-22.847,5.734-28.405c0.449-5.558-2.227-18.334-2.227-18.334
	s-5.021-10.823-6.681-16.976c-1.651-6.163,0.01-11.731,0.01-11.731l1.778,0.039c0,0-0.82,8.83,0.186,11.731
	c0.996,2.891,7.59,16.342,7.941,18.061c0.352,1.729,0.684,6.163,0.781,6.691c0.107,0.527,1.524,12.894,1.563,13.343
	c0.049,0.449-0.967,7.287-1.114,8.156c-0.147,0.86-5.167,18.373-5.167,19.76c0,1.397-4.405,8.498-4.405,8.498l-13.812,17.357
	c0,0-0.293,2.256-0.606,3.302c-0.322,1.055-1.377,2.178-1.377,2.178l1.944,10.149c0,0,5.167-10.813,6.974-11.643
	c1.807-0.83,7.072-6.388,8.342-7.814c1.27-1.426,18.041-23.14,18.041-23.14s-3.008-19.536-1.475-22.241
	c1.524-2.706,6.339-12.171,5.206-16.381s7.814-13.978,7.814-13.978l6.447-0.449l-0.674,1.69l-4.396,2.374
	c0,0-5.617,10.813-5.822,11.155c-0.215,0.332,0.879,10.1,0.879,10.1s-6.007,8.127-5.714,10.08c0.303,1.954,1.856,15.55,2.139,16.605
	s-1.485,5.929-2.227,7.062c-0.752,1.133-4.483,7.365-4.483,7.365s-18.998,20.972-19.575,22.476
	c-0.576,1.494-3.204,5.109-4.415,7.892c-1.201,2.774-1.182,4.386-1.182,4.386l1.807,10.315l3.77,4.151c0,0,8.654-5.255,10.745-5.861
	c2.09-0.596,5.45,0.156,7.189,0.449c1.729,0.303,5.48-1.944,6.212-3.155c0.723-1.201,8.049-9.162,8.049-9.162
	s-3.643-13.831-2.735-15.482c0.908-1.651,0.41-2.93,2.071-2.93c1.651,0,5.499,0.078,5.46-2.325
	c-0.049-2.403,3.546-20.737,3.546-20.737l0.098-6.203l2.168,0.381l0.137,13.372l-2.706,18.412l-2.217,0.713l-3.575,0.381
	l-1.856,1.045c0,0,4.2,13.489,4.229,14.173c0.029,0.674-1.534,2.1-1.807,3.604s-1.934,3.458-3.018,5.558
	c-1.084,2.11-8.4,6.759-8.352,7.218c0.049,0.449-5.919,0.596-5.919,0.596s-8.557,0.899-8.693,1.504s-4.884,5.45-4.884,5.45
	s3.643,9.66,3.946,11.311c0.293,1.661-0.635,4.356,0.117,8.273c0.742,3.907,1.309,6.007,1.309,6.007s12.61,1.055,14.535,1.504
	c1.924,0.449,5.89-0.449,5.89-0.449s3.272-7.961,4.425-8.723c1.143-0.742,7.472-5.704,7.472-5.704l2.667-11.878l-0.879-6.613
	l15.55-4.2l-1.651,3.135l-11.38,3.302l2.022,6.251c0,0-2.335,10.071-2.647,11.956c-0.322,1.875-4.454,4.132-4.757,4.659
	c-0.313,0.518-6.33,9.992-6.71,11.34c-0.391,1.358-4.122,2.559-4.122,2.559l-6.818-0.752l-13.538-0.606
	c0,0,2.794,8.713,2.862,12.327c0.068,3.604,1.182,7.043,1.875,10.198c0.703,3.155,0.479,8.459,2.061,11.145l6.486,10.959
	c0,0,6.29,6.945,7.912,9.631c1.612,2.676,0.987,2.09,1.426,3.555l1.446-1.289c0,0,19.809-20.913,21.167-24.722
	c1.348-3.8,9.172-8.322,10.813-15.453c0.508-2.178,1.797-3.585,3.35-4.483l-1.807-21.167c0,0-0.225-3.536-0.654-6.076
	c-0.42-2.549,0.479-6.134,0.742-7.277c0.264-1.143,0.899-11.311,0.899-11.311s-2.071-2.696-2.53-5.138
	c-0.449-2.442-3.028-18.022-3.028-18.022s0.889-1.914,2.471-3.741c1.592-1.817,3.78-2.178,3.907-3.057
	c0.127-0.889,3.194-20.151,3.194-20.151s0.83-22.163-1.924-26.637c-2.764-4.464-7.687-9.24-8.068-10.276
	c-0.381-1.035-1.748-5.714-1.748-5.714l3.243-14.222c0,0,0.088-6.232-2.139-8.312c-2.217-2.081-4.718-6.75-4.718-6.75l1.631,0.674
	c0,0,5.255,5.245,6.486,8.254c1.221,3.008,1.114,8.205,0.674,9.875c-0.44,1.661-1.426,3.575-1.426,3.575l0.088,8.986l2.608,6.652
	c0,0,4.444,2.588,6.349,8.508c1.905,5.919,2.266,16.156,2.266,16.156l-0.82,19.321l-2.247,12.874c0,0-5.665,3.634-5.773,5.196
	c-0.098,1.553,0.957,6.232,0.977,7.472c0.02,1.25,3.868,12.835,3.868,12.835s4.523-14.437,4.767-19.731
	c0.234-5.304-0.088-8.42,2.295-9.973c2.393-1.563,5.021-1.455,9.162-3.428c4.142-1.973,5.03-5.607,5.03-5.607
	s-1.729-6.027-0.606-7.277c1.114-1.241,13.411-1.866,13.812-4.259c0.391-2.383,2.432-8.303,3.126-8.82
	c0.694-0.518,16.508-3.116,16.508-3.116l-0.107,2.696l-14.368,2.178c0,0-1.827,7.482-3.409,8.938
	c-1.582,1.455-2.471,1.241-4.835,2.901c-2.354,1.67-6.027,0.733-6.417,2.393c-0.381,1.661-0.195,3.116-0.547,6.447
	c-0.352,3.311-1.182,3.731-2.237,5.187c-1.065,1.455-5.753,0.625-7.951,2.911c-2.178,2.286-5.695,3.116-5.304,4.571
	c0.391,1.455,1.319,4.151,1.319,4.151s9.612-0.205,11.927-0.107c2.305,0.107,10.315,0.518,10.315,0.518s6.593-1.553,9.553-1.348
	c2.969,0.215,4.943,2.911,4.943,2.911l12.376,3.536l3.438-3.438l1.446,0.733l-3.897,5.196c0,0-7.765-1.455-9.651-1.866
	c-1.875-0.42-6.056-4.366-9.201-4.474c-3.145-0.107-13.694,1.973-14.945,1.973c-1.241,0-10.071-1.143-11.614-0.723
	c-1.553,0.41-6.652,2.696-6.652,2.696s-1.524,5.509-2.12,8.312c-0.596,2.803-4.288,7.99-4.269,9.24
	c0.029,1.25-0.371,5.196-0.86,6.437c-0.498,1.25-0.85,4.571-0.85,4.571l12.649-6.642c0,0,3.897,2.901,4.396,0.518
	c0.498-2.393,0.313-6.544,0.781-7.892c0.469-1.348,2.989-1.25,4.444-1.25c1.455,0,12.942-10.178,12.942-10.178
	s4.464-0.42,5.216,1.25c0.762,1.661,0.977,5.919,1.7,7.062c0.723,1.143,6.281,8.303,7.14,8.41s7.463-0.83,8.674-0.205
	c1.201,0.625,5.958,6.33,6.261,7.472c0.313,1.143-2.374,0.42-2.374,0.42l-4.073-5.089c0,0-6.144,3.008-8.713,0.42
	c-2.569-2.598-4.952-3.331-6.261-5.509s-4.552-5.714-4.581-6.232c-0.039-0.518-0.908-3.741-0.908-3.741l-4.571,2.706
	c0,0-8.654,7.57-9.143,7.678c-0.498,0.107-2.442,0.215-2.442,1.358c-0.01,1.143-0.4,5.089-0.4,5.089l-1.934,2.081
	c0,0-4.239,0.82-4.776,1.133c-0.537,0.313-11.8,6.339-11.8,6.339s1.709,16.84,2.725,26.432c0.449,0.029,0.723,0.059,0.723,0.059
	l23.179-1.465l16.801-9.983c0,0,6.085-2.149,10.012,0.947c3.917,3.087,5.441,5.226,5.831,6.652
	c0.381,1.426,26.783,12.542,26.783,12.542l7.814,0.137l0.088,2.442l-6.877,0.098l-27.975-11.409c0,0-3.253-2.383-6.574-5.001
	c-3.321-2.608-5.743-1.895-5.743-1.895l-16.605,8.967l-26.227,6.632l0.147,2.393c-7.922,1.944-11.985,12.132-15.042,18.295
	c-4.005,8.088-17.904,33.279-19.291,35.184c-1.397,1.905,1.319,10.227,1.319,10.227s2.882,35.418,3.077,39.696
	c0.205,4.278,5.675,10.461,13.226,19.975c7.541,9.504,4.161,12.835,6.994,24.244c1.846,7.433,5.392,20.835,7.931,29.596
	C410.366,429.618,399.895,432.646,388.857,434.776z"/>
<polygon style="fill:#202020;" points="367.524,346.855 367.524,411.44 147.299,411.44 147.299,346.855 147.113,346.855 
	147.113,284.625 119.001,284.625 180.744,219.757 199.488,239.448 257.411,178.312 315.335,239.448 334.079,219.757 
	395.822,284.625 367.71,284.625 367.71,346.855 "/>
<path style="fill:#FFFF00;" d="M197.515,363.822L197.515,363.822c9.426,0,17.143,7.717,17.143,17.143v28.2h-34.275v-28.2
	C180.382,371.539,188.089,363.822,197.515,363.822z M257.783,356.086L257.783,356.086c9.426,0,17.133,7.707,17.133,17.143v35.936
	H240.64v-35.936C240.64,363.793,248.357,356.086,257.783,356.086z M318.04,363.822L318.04,363.822
	c9.426,0,17.143,7.717,17.143,17.143v28.2h-34.275v-28.2C300.908,371.539,308.614,363.822,318.04,363.822z"/>
<g>
	<path style="fill:#424242;" d="M122.391,388.925l2.979-3.565l2.969,3.565v22.339h-5.949V388.925z M389.971,388.925l2.969-3.565
		l2.969,3.565v22.339h-5.939V388.925z M376.589,388.925l2.969-3.565l2.979,3.565v22.339h-5.949V388.925z M363.207,388.925
		l2.979-3.565l2.969,3.565v22.339h-5.949V388.925z M349.835,388.925l2.969-3.565l2.979,3.565v22.339h-5.949V388.925z
		 M336.453,388.925l2.969-3.565l2.979,3.565v22.339h-5.949V388.925z M323.081,388.925l2.969-3.565l2.969,3.565v22.339h-5.939
		V388.925z M309.699,388.925l2.969-3.565l2.979,3.565v22.339h-5.949V388.925z M296.317,388.925l2.969-3.565l2.979,3.565v22.339
		h-5.949V388.925z M282.935,388.925l2.979-3.565l2.969,3.565v22.339h-5.949V388.925z M269.563,388.925l2.969-3.565l2.969,3.565
		v22.339h-5.939V388.925z M256.181,388.925l2.979-3.565l2.969,3.565v22.339h-5.949V388.925z M242.799,388.925l2.979-3.565
		l2.969,3.565v22.339h-5.949V388.925z M229.427,388.925l2.969-3.565l2.969,3.565v22.339h-5.939V388.925z M216.045,388.925
		l2.969-3.565l2.979,3.565v22.339h-5.949V388.925z M202.663,388.925l2.979-3.565l2.969,3.565v22.339h-5.949V388.925z
		 M189.291,388.925l2.969-3.565l2.979,3.565v22.339h-5.949V388.925z M175.909,388.925l2.969-3.565l2.979,3.565v22.339h-5.949
		V388.925z M162.537,388.925l2.969-3.565l2.969,3.565v22.339h-5.939V388.925z M149.155,388.925l2.969-3.565l2.979,3.565v22.339
		h-5.949V388.925z M135.773,388.925l2.969-3.565l2.979,3.565v22.339h-5.949V388.925z"/>
	<polygon style="fill:#424242;" points="114.03,396.681 404.28,396.681 404.28,401.331 114.03,401.331 	"/>
</g>
<g>
	<polygon style="fill:#FFFF00;" points="320.99,285.387 347.901,285.387 347.901,322.241 320.99,322.241 	"/>
	<polygon style="fill:#FFFF00;" points="167.665,285.387 194.565,285.387 194.565,322.241 167.665,322.241 	"/>
	<path style="fill:#FFFF00;" d="M257.783,281.929L257.783,281.929c9.426,0,17.133,7.707,17.133,17.143v36.356H240.64v-36.356
		C240.64,289.635,248.357,281.929,257.783,281.929z"/>
	<path style="fill:#FFFF00;" d="M257.411,230.335c9.152,0,16.576,7.424,16.576,16.576h-33.162
		C240.826,237.759,248.259,230.335,257.411,230.335z"/>
</g>
<path style="fill:#333333;" d="M257.411,230.335c0.264,0,0.527,0.01,0.781,0.02v12.854c0.332,0.059,0.645,0.147,0.947,0.273
	l5.753-11.37c0.469,0.234,0.918,0.498,1.358,0.772l-5.783,11.428c0.273,0.254,0.518,0.537,0.733,0.84l10.041-7.384
	c0.293,0.44,0.557,0.889,0.801,1.358l-10.198,7.502c0.02,0.088,0.039,0.186,0.059,0.283h-0.449h-1.534l-0.01-0.029l-0.01-0.01v-0.01
	l0,0v-0.01l-0.01-0.01v-0.01v-0.01l-0.01-0.01l0,0v-0.01l-0.01-0.01v-0.01v-0.01l-0.01-0.01l0,0v-0.01v-0.01l-0.01-0.01v-0.01
	l-0.01-0.01l0,0v-0.01l-0.01-0.01v-0.01v-0.01l-0.01-0.01l0,0v-0.01l-0.01-0.01v-0.01l-0.01-0.01l0,0v-0.01v-0.01l-0.01-0.01v-0.01
	l-0.01-0.01l0,0v-0.01l-0.01-0.01v-0.01l-0.01-0.01v-0.01l-0.01-0.01v-0.01v-0.01l-0.01-0.01l-0.01-0.01l-0.01-0.01v-0.01
	l-0.01-0.01v-0.01l0,0l-0.01-0.01v-0.01l-0.01-0.01v-0.01l-0.01-0.01l0,0v-0.01l-0.01-0.01v-0.01l-0.01-0.01l-0.02-0.02v-0.01
	l-0.01-0.01v-0.01l0,0c-0.029-0.049-0.068-0.098-0.098-0.147l0,0c-0.02-0.029-0.039-0.049-0.059-0.078l-0.02-0.02l-0.02-0.02
	l-0.01-0.02l-0.02-0.02l-0.02-0.02c-0.02-0.029-0.049-0.059-0.078-0.088l-0.02-0.02l-0.02-0.02l-0.01-0.02l-0.02-0.02l-0.02-0.02
	l-0.01-0.01h-0.01l-0.02-0.02l-0.02-0.02l-0.02-0.01l-0.02-0.02l-0.02-0.02l-0.02-0.02l-0.02-0.01l-0.01-0.01l-0.01-0.01l-0.02-0.02
	l-0.01-0.01h-0.01l-0.02-0.02l0,0c-0.02-0.01-0.039-0.029-0.059-0.039l-0.02-0.02l-0.02-0.01l-0.02-0.02l-0.02-0.01l0,0l-0.029-0.02
	l-0.02-0.01l0,0l-0.02-0.01l-0.02-0.02l0,0l-0.02-0.01l-0.029-0.01l0,0l-0.02-0.01l-0.039-0.029l0,0l-0.02-0.01l-0.029-0.01l0,0
	l-0.02-0.01l-0.02-0.02l0,0l-0.029-0.01l0,0l-0.02-0.01l-0.029-0.01l0,0l-0.02-0.01l-0.02-0.01h-0.01l-0.02-0.01l-0.02-0.01h-0.01
	l-0.02-0.01l-0.02-0.01h-0.01l-0.01-0.01l-0.029-0.01h-0.01l-0.02-0.01l-0.02-0.01c-0.02,0-0.049-0.01-0.068-0.02h-0.01l-0.02-0.01
	h-0.01l0,0h-0.01l-0.01-0.01h-0.01h-0.01l-0.01-0.01l0,0h-0.01l-0.02-0.01h-0.01h-0.01h-0.01l0,0l-0.02-0.01h-0.01h-0.01h-0.01
	v-0.01h-0.02h-0.02l-0.01-0.01l0,0h-0.01h-0.02h-0.01l-0.01-0.01l0,0h-0.02h-0.02h-0.01h-0.01l-0.01-0.01h-0.039l0,0h-0.01
	l-0.01-0.01h-0.039l0,0h-0.02l-0.01-0.01h-0.02l0,0h-0.01h-0.01h-0.02h-0.01h-0.01l0,0h-0.01h-0.02h-0.01l-0.01-0.01l0,0h-0.02
	h-0.02h-0.01h-0.01h-0.01h-0.01h-0.01h-0.02l0,0h-0.01h-0.01h-0.01h-0.02h-0.01h-0.01h-0.02h-0.01h-0.01h-0.01h-0.01h-0.01h-0.01
	h-0.01h-0.01h-0.01h-0.01h-0.01h-0.02h-0.01l0,0l-0.01,0.01h-0.02h-0.01h-0.01l0,0h-0.01h-0.02h-0.01h-0.01h-0.01h-0.01h-0.01
	l-0.01,0.01h-0.01h-0.01h-0.01h-0.02h-0.01l-0.02,0.01l0,0h-0.01h-0.01h-0.029l0,0v0.01h-0.01h-0.01h-0.02h-0.01h-0.01l0,0
	l-0.01,0.01h-0.01h-0.02h-0.01l0,0l-0.01,0.01h-0.01h-0.02h-0.01v0.01h-0.01h-0.01h-0.01l-0.02,0.01l0,0h-0.02l0,0h-0.01l-0.02,0.01
	h-0.01l0,0l-0.01,0.01h-0.01h-0.01l-0.01,0.01h-0.01h-0.01h-0.01l-0.01,0.01h-0.01l-0.068,0.02l-0.029,0.01l-0.01,0.01h-0.01
	l-0.029,0.01l-0.01,0.01h-0.01l-0.029,0.01l0,0l-0.02,0.01l-0.02,0.01l-0.02,0.01h-0.01l-0.02,0.01l-0.02,0.01h-0.01l-0.02,0.01
	l-0.02,0.01l0,0l-0.029,0.01l-0.02,0.02l-0.02,0.01l0,0c-0.039,0.02-0.078,0.039-0.117,0.059l-0.02,0.01
	c-0.029,0.02-0.059,0.039-0.088,0.049l0,0c-0.068,0.049-0.137,0.098-0.205,0.147l-0.02,0.02c-0.039,0.039-0.088,0.078-0.127,0.117
	l-0.02,0.02l-0.02,0.01l-0.02,0.02c-0.049,0.059-0.107,0.107-0.156,0.166l-0.01,0.02c-0.02,0.02-0.039,0.039-0.049,0.059l-0.02,0.02
	c-0.02,0.029-0.039,0.049-0.059,0.078l0,0c-0.039,0.049-0.068,0.098-0.098,0.147l0,0l-0.01,0.01v0.01l-0.01,0.01l-0.01,0.02
	l-0.01,0.01l-0.01,0.01v0.01v0.01l0,0l-0.01,0.01l-0.01,0.01v0.01l-0.01,0.01v0.01l0,0l-0.01,0.01v0.01v0.01l-0.01,0.01l-0.01,0.01
	l-0.01,0.01v0.01l-0.01,0.01v0.01v0.01l-0.01,0.01v0.01l-0.01,0.01v0.01l0,0l-0.01,0.01v0.01l-0.01,0.01v0.01v0.01h-0.01v0.01v0.01
	l-0.01,0.01v0.01h-0.01v0.01v0.01v0.01l-0.01,0.01v0.01l0,0l-0.01,0.01v0.01l-0.01,0.02v0.01h-0.01v0.01v0.01v0.01l-0.01,0.01v0.01
	l0,0l-0.01,0.01l0,0c-0.01,0.029-0.02,0.059-0.029,0.088h-1.534h-0.449c0.02-0.098,0.039-0.195,0.059-0.283l-10.207-7.502
	c0.254-0.469,0.518-0.918,0.811-1.358l10.041,7.384c0.215-0.303,0.449-0.586,0.733-0.84l-5.792-11.428
	c0.449-0.273,0.899-0.537,1.367-0.772l5.753,11.37c0.303-0.127,0.615-0.215,0.947-0.273v-12.854
	C256.884,230.345,257.148,230.335,257.411,230.335z"/>
<path style="fill:#FFFF00;" d="M257.783,134.601c7.433,0,13.46,6.027,13.46,13.46h-26.92
	C244.323,140.627,250.349,134.601,257.783,134.601z"/>
<g>
	<path style="fill:#333333;" d="M257.783,134.601c0.205,0,0.42,0,0.635,0.02v10.432c0.264,0.039,0.518,0.117,0.772,0.215
		l4.659-9.221c0.381,0.186,0.752,0.4,1.114,0.625l-4.698,9.279c0.225,0.205,0.42,0.43,0.586,0.684l8.156-5.997
		c0.234,0.352,0.459,0.723,0.654,1.094l-8.283,6.095c0.02,0.078,0.039,0.156,0.049,0.234h-0.361h-1.25l-0.01-0.029v-0.01l0,0l0,0
		l-0.01-0.01v-0.01v-0.01v-0.01l-0.01-0.01l0,0l0,0v-0.01l-0.01-0.01v-0.01v-0.01l0,0h-0.01v-0.01v-0.01l-0.01-0.01v-0.01l0,0v-0.01
		h-0.01v-0.01v-0.01l0,0l-0.01-0.01v-0.01v-0.01h-0.01v-0.01l0,0v-0.01l-0.01-0.01v-0.01l0,0l-0.01-0.01l0,0v-0.01l-0.01-0.01l0,0
		v-0.01l-0.01-0.01v-0.01l-0.01-0.01l0,0v-0.01l-0.01-0.02h-0.01v-0.01v-0.01l-0.01-0.01l0,0l0,0l-0.01-0.01v-0.01v-0.01h-0.01
		v-0.01l0,0l-0.01-0.01v-0.01h-0.01l-0.01-0.029l0,0l-0.01-0.01v-0.01l0,0c-0.029-0.039-0.059-0.078-0.088-0.117l0,0
		c-0.01-0.02-0.029-0.039-0.039-0.068l-0.02-0.01l-0.01-0.02l-0.01-0.01l-0.02-0.02l-0.01-0.01c-0.02-0.029-0.049-0.059-0.068-0.078
		l-0.01-0.02l-0.02-0.01l-0.01-0.02l-0.02-0.01l-0.01-0.02l-0.01-0.01h-0.01l-0.01-0.02l-0.02-0.01l-0.01-0.01l-0.02-0.02
		l-0.02-0.01l-0.01-0.02l-0.02-0.01l-0.01-0.01h-0.01l-0.01-0.02h-0.01h-0.01l-0.02-0.02l0,0c-0.01-0.01-0.029-0.02-0.049-0.039
		l-0.01-0.01l-0.02-0.01l-0.02-0.01l-0.01-0.01h-0.01l-0.01-0.02l-0.02-0.01l0,0l-0.02-0.01l-0.02-0.01l0,0l-0.01-0.01l-0.02-0.01
		l0,0l-0.02-0.01l-0.029-0.02h-0.01l-0.02-0.01l-0.01-0.01l0,0l-0.02-0.01l-0.02-0.01l0,0l-0.02-0.01l0,0l-0.02-0.01l-0.02-0.01l0,0
		h-0.02l-0.02-0.01v-0.01h-0.01l-0.029-0.01l0,0l-0.01-0.01l-0.029-0.01l0,0h-0.01l-0.029-0.01l0,0l-0.01-0.01h-0.029
		c-0.01-0.01-0.029-0.02-0.049-0.02l-0.01-0.01h-0.01h-0.01l-0.01-0.01l0,0h-0.01h-0.01h-0.01l-0.01-0.01l0,0h-0.01h-0.01h-0.01
		l-0.01-0.01h-0.01l0,0h-0.01h-0.01l-0.01-0.01h-0.01l0,0h-0.01l-0.02-0.01h-0.01l0,0h-0.01h-0.01h-0.01h-0.01v-0.01h-0.01h-0.02
		h-0.01h-0.01l0,0l-0.029-0.01h-0.01l0,0h-0.01l-0.029-0.01l0,0h-0.02h-0.01h-0.01h-0.01l0,0h-0.01l-0.01-0.01h-0.01h-0.01l0,0
		h-0.01h-0.01h-0.02h-0.01l0,0h-0.01h-0.02h-0.01l0,0h-0.01h-0.01h-0.01h-0.01h-0.01l0,0h-0.01h-0.01h-0.01h-0.01h-0.02l0,0h-0.02
		h-0.01l0,0h-0.01h-0.01h-0.01h-0.01h-0.01l0,0h-0.01h-0.01h-0.01h-0.01l0,0h-0.01h-0.01h-0.01h-0.01h-0.01l0,0h-0.01l-0.01,0.01
		h-0.01h-0.01h-0.01h-0.01h-0.01h-0.01h-0.01l0,0l-0.01,0.01h-0.02h-0.01l0,0h-0.01h-0.01l-0.02,0.01l0,0l0,0h-0.01h-0.01h-0.01
		h-0.01l0,0l-0.01,0.01h-0.01h-0.01h-0.01h-0.01l0,0h-0.01l-0.01,0.01h-0.01h-0.01l0,0h-0.01l-0.01,0.01h-0.01h-0.01l0,0l-0.02,0.01
		l0,0h-0.01h-0.01h-0.01l0,0l-0.01,0.01h-0.01h-0.01h-0.01l0,0l-0.01,0.01l0,0h-0.02l-0.01,0.01l-0.049,0.02h-0.02l-0.01,0.01h-0.01
		l-0.02,0.01h-0.01h-0.01l-0.02,0.01h-0.01l-0.01,0.01l-0.02,0.01h-0.01l-0.01,0.01l-0.02,0.01h-0.01h-0.01l-0.02,0.01l-0.01,0.01
		h-0.01l-0.02,0.01l-0.01,0.01l-0.02,0.01l0,0c-0.039,0.02-0.068,0.029-0.088,0.049l-0.02,0.01c-0.029,0.01-0.049,0.029-0.068,0.039
		h-0.01c-0.049,0.039-0.107,0.078-0.166,0.117l-0.01,0.02c-0.039,0.029-0.078,0.059-0.107,0.088l-0.02,0.02l-0.01,0.01l-0.02,0.02
		c-0.039,0.039-0.078,0.088-0.117,0.137l-0.02,0.01c-0.01,0.02-0.029,0.029-0.039,0.049l-0.01,0.01
		c-0.02,0.029-0.039,0.049-0.049,0.068l0,0c-0.029,0.039-0.059,0.078-0.078,0.117l0,0l-0.01,0.01v0.01h-0.01l-0.01,0.029l0,0
		l-0.01,0.01v0.01h-0.01v0.01l0,0l-0.01,0.01v0.01l-0.01,0.01l0,0l0,0v0.01l-0.01,0.01v0.01h-0.01v0.02l-0.01,0.01l0,0l-0.01,0.01
		v0.01v0.01l-0.01,0.01l0,0l-0.01,0.01v0.01l0,0v0.01h-0.01v0.01v0.01v0.01h-0.01v0.01l0,0l-0.01,0.01v0.01v0.01h-0.01v0.01v0.01
		h-0.01v0.01l0,0v0.01v0.01l-0.01,0.02l0,0h-0.01v0.01v0.01v0.01l-0.01,0.01l0,0l0,0v0.01l0,0c-0.01,0.029-0.02,0.049-0.029,0.078
		h-1.241h-0.371c0.01-0.078,0.029-0.156,0.049-0.234l-8.283-6.095c0.205-0.371,0.42-0.742,0.654-1.094l8.156,5.997
		c0.166-0.254,0.361-0.479,0.586-0.684l-4.689-9.279c0.352-0.225,0.723-0.44,1.104-0.625l4.669,9.221
		c0.244-0.098,0.498-0.176,0.762-0.215V134.62C257.353,134.601,257.568,134.601,257.783,134.601z"/>
	<path style="fill:#333333;" d="M270.178,323.784l1.543-1.856l1.553,1.856v11.643h-3.096V323.784z M263.204,323.784l1.553-1.856
		l1.543,1.856v11.643h-3.096V323.784z M256.23,323.784l1.553-1.856l1.543,1.856v11.643h-3.096V323.784z M249.255,323.784
		l1.553-1.856l1.543,1.856v11.643h-3.096V323.784z M242.281,323.784l1.553-1.856l1.553,1.856v11.643h-3.106V323.784z"/>
	<polygon style="fill:#333333;" points="240.64,327.828 274.915,327.828 274.915,330.25 240.64,330.25 	"/>
	<path style="fill:#333333;" d="M175.821,285.387h1.28v7.414h8.029v-7.414h1.28v7.414h8.156v1.387h-8.156v6.261h8.156v1.387h-8.156
		v6.271h8.156v1.377h-8.156v6.261h8.156v1.387h-8.156v5.109h-1.28v-5.109H177.1v5.109h-1.28v-5.109h-8.156v-1.387h8.156v-6.261
		h-8.156v-1.377h8.156v-6.271h-8.156v-1.387h8.156v-6.261h-8.156V292.8h8.156V285.387z M177.1,294.187v6.261h8.029v-6.261H177.1z
		 M177.1,301.836v6.271h8.029v-6.271H177.1z M177.1,309.484v6.261h8.029v-6.261H177.1z"/>
	<path style="fill:#333333;" d="M329.156,285.387h1.27v7.414h8.029v-7.414h1.28v7.414h8.166v1.387h-8.166v6.261h8.166v1.387h-8.166
		v6.271h8.166v1.377h-8.166v6.261h8.166v1.387h-8.166v5.109h-1.28v-5.109h-8.029v5.109h-1.27v-5.109h-8.166v-1.387h8.166v-6.261
		h-8.166v-1.377h8.166v-6.271h-8.166v-1.387h8.166v-6.261h-8.166V292.8h8.166V285.387z M330.426,294.187v6.261h8.029v-6.261H330.426
		z M330.426,301.836v6.271h8.029v-6.271H330.426z M330.426,309.484v6.261h8.029v-6.261H330.426z"/>
</g>
<path style="fill:#202020;" d="M340.067,130.928l-25.807,5.382c6.369-0.381,16.097,4.933,16.576,8.977
	c6.808-0.879,6.72,0.947,10.159,3.966c6.3-2.032,11.546,1.817,12.474,2.755c2.237,2.286,3.272,3.79,4.913,3.858
	c2.129,0.088,3.233-2.481,5.343-4.034c2.657-1.973,6.427-3.028,10.246-2.803c3.116-2.95,5.392-5.773,11.673-3.311
	c0.479-4.044,9.895-9.787,16.263-9.406l-24.664-5.353c-1.407,5.011-10.403,18.813-13.284,4.669c0,0,1.026-0.85-0.694-3.692
	c-1.719-2.852-3.409,2.393-3.409,2.393c-0.654,0.039-1.211,0.01-1.494,0.264c-0.283-0.254-0.84-0.225-1.494-0.264
	c0,0-1.69-5.245-3.409-2.393c-1.719,2.842-0.694,3.692-0.694,3.692C349.923,149.545,341.62,136.456,340.067,130.928z"/>
<path style="fill:#FFFF00;" d="M362.435,135.343l-3.35,2.696c0,0,1.27,1.026,2.676,0.459
	C363.168,137.941,362.435,135.343,362.435,135.343z"/>
<path style="fill:#FFBA00;" d="M362.435,135.343l-3.35,2.696c0,0,0.01,0.01,0.029,0.029l3.145-2.1
	c0.254,0.82,0.205,1.543-0.107,2.276C363.011,137.384,362.435,135.343,362.435,135.343z"/>
<path style="fill:#FFFF00;" d="M354.289,135.343l3.36,2.696c0,0-1.28,1.026-2.686,0.459
	C353.556,137.941,354.289,135.343,354.289,135.343z"/>
<path style="fill:#FFBA00;" d="M354.289,135.343l3.36,2.696c0,0-0.02,0.01-0.049,0.029l-3.135-2.1
	c-0.254,0.82-0.195,1.543,0.107,2.276C353.712,137.384,354.289,135.343,354.289,135.343z"/>
<path style="fill:#202020;" d="M79.852,209.442l-31.003,23.413c8.244-4.513,24.547-3.555,27.731,1.534
	c8.527-5.46,9.553-2.969,16.029-1.104c7.131-6.681,16.547-4.855,18.364-4.181c4.415,1.631,6.74,2.969,8.977,2.032
	c2.891-1.221,2.745-5.333,4.571-8.732c2.305-4.308,6.671-8.078,11.897-10.178c2.295-5.91,3.536-11.096,13.47-11.77
	c-1.905-5.685,7.023-19.262,15.746-22.759l-36.229,8.391c1.28,7.56-2.022,31.609-14.759,14.574c0,0,0.83-1.778-3.253-4.483
	c-4.093-2.715-3.038,5.333-3.038,5.333c-0.84,0.469-1.602,0.772-1.827,1.289c-0.537-0.156-1.25,0.244-2.159,0.596
	c0,0-5.548-5.929-6.046-1.045c-0.498,4.874,1.397,5.363,1.397,5.363C104.711,228.049,85.4,215.83,79.852,209.442z"/>
<path style="fill:#FFFF00;" d="M112.428,201.246l-2.764,5.704c0,0,2.335,0.557,3.858-1.074
	C115.036,204.245,112.428,201.246,112.428,201.246z"/>
<path style="fill:#FFBA00;" d="M112.428,201.246l-2.764,5.704c0,0,0.02,0.01,0.068,0.02l2.862-4.786
	c0.84,0.938,1.231,1.934,1.289,3.096C114.479,203.61,112.428,201.246,112.428,201.246z"/>
<path style="fill:#FFFF00;" d="M101.585,206.375l6.163,1.485c0,0-1.055,2.159-3.282,2.295
	C102.24,210.291,101.585,206.375,101.585,206.375z"/>
<path style="fill:#FFBA00;" d="M101.585,206.375l6.163,1.485c0,0-0.01,0.02-0.039,0.068l-5.509-0.84
	c0.186,1.25,0.713,2.188,1.573,2.969C102.103,209.461,101.585,206.375,101.585,206.375z"/>
<g>
	<path style="fill:#424242;" d="M172.314,497.993c43.066-19.467-17.133-18.149-15.375-38.456
		c1.573-18.051,43.477-10.071,87.012-22.632c43.545-12.552,3.302-24.996,3.302-24.996c40.849-1.289,73.054,22.915,38.348,37.03
		c-34.715,14.124-27.848,20.405,12.161,28.249c12.386,2.432,28.092,10.354,43.858,20.131C314.846,506.813,286.031,512,256.005,512
		C226.692,512,198.541,507.067,172.314,497.993z"/>
	<path style="fill:#424242;" d="M86.748,367.954h1.465c0.352,0,0.635,0.44,0.635,0.967v34.314c0,0.537-0.283,0.967-0.635,0.967
		h-1.465c-0.352,0-0.635-0.43-0.635-0.967v-34.314C86.113,368.393,86.396,367.954,86.748,367.954z"/>
</g>
<path style="fill:#9499A3;" d="M84.335,401.985h4.542c5.04,0,9.172,4.151,9.172,9.162v9.309H75.173v-9.309
	C75.173,406.107,79.295,401.985,84.335,401.985z"/>
<path style="fill:#EDEBFF;" d="M84.316,403.479h3.936c4.366,0,7.941,3.809,7.941,8.43v8.547H76.375v-8.547
	C76.375,407.269,79.95,403.479,84.316,403.479z"/>
<path style="fill:#424242;" d="M75.857,378.298v-1.475c0-0.352,0.391-0.635,0.879-0.635l21.382-0.049
	c0.488,0,0.889,0.283,0.889,0.635l0.01,1.475c0,0.352-0.4,0.645-0.889,0.645l-21.372,0.039
	C76.267,378.943,75.857,378.65,75.857,378.298z"/>
<path style="fill:#FFFFFF;" d="M456.06,134.112c0.508,0.811,0.117,1.963-0.869,2.579c-2.335,1.465-4.171-1.475-1.836-2.94
	C454.341,133.135,455.552,133.301,456.06,134.112z M509.939,223.341c0.098,0.742,0.166,1.504,0.254,2.256
	c-0.176,0.273-0.43,0.518-0.742,0.723c-0.987,0.615-2.188,0.449-2.696-0.352c-0.508-0.811-0.127-1.973,0.86-2.588
	C508.405,222.892,509.333,222.892,509.939,223.341z M183.381,54.114c0.957,0,1.739,0.938,1.739,2.1c0,1.153-0.781,2.09-1.739,2.09
	c-0.957,0-1.729-0.938-1.729-2.09C181.652,55.051,182.424,54.114,183.381,54.114z M320.609,61.459c0.957,0,1.729,0.938,1.729,2.1
	c0,1.153-0.772,2.09-1.729,2.09s-1.729-0.938-1.729-2.09C318.88,62.397,319.652,61.459,320.609,61.459z M96.809,64.604
	c0.957,0,1.729,0.938,1.729,2.1s-0.772,2.1-1.729,2.1c-0.957,0-1.729-0.938-1.729-2.1S95.852,64.604,96.809,64.604z M75.593,88.741
	c0.957,0,1.739,0.938,1.739,2.1c0,1.162-0.781,2.1-1.739,2.1c-0.957,0-1.729-0.938-1.729-2.1
	C73.864,89.678,74.636,88.741,75.593,88.741z M126.239,91.368c0.957,0,1.739,0.938,1.739,2.09c0,1.162-0.781,2.1-1.739,2.1
	s-1.729-0.938-1.729-2.1C124.51,92.306,125.282,91.368,126.239,91.368z M165.643,78.777c0.947,0,1.729,0.928,1.729,2.09
	s-0.781,2.1-1.729,2.1c-0.967,0-1.739-0.938-1.739-2.1S164.676,78.777,165.643,78.777z M145.726,43.096
	c0.957,0,1.729,0.938,1.729,2.1c0,1.153-0.772,2.1-1.729,2.1s-1.729-0.947-1.729-2.1C143.997,44.033,144.769,43.096,145.726,43.096z
	 M101.136,106.577c0.957,0,1.729,0.938,1.729,2.1c0,1.162-0.772,2.1-1.729,2.1s-1.729-0.938-1.729-2.1
	C99.407,107.514,100.179,106.577,101.136,106.577z M131.006,60.932c0.957,0,1.729,0.938,1.729,2.1c0,1.162-0.772,2.1-1.729,2.1
	s-1.729-0.938-1.729-2.1C129.277,61.869,130.049,60.932,131.006,60.932z M72.565,123.895c0.957,0,1.729,0.938,1.729,2.1
	c0,1.153-0.772,2.1-1.729,2.1s-1.729-0.947-1.729-2.1C70.836,124.833,71.608,123.895,72.565,123.895z M346.582,50.441
	c0.957,0,1.729,0.938,1.729,2.1c0,1.153-0.772,2.09-1.729,2.09c-0.957,0-1.729-0.938-1.729-2.09
	C344.853,51.379,345.625,50.441,346.582,50.441z M288.141,55.686c0.957,0,1.739,0.938,1.739,2.1c0,1.153-0.781,2.1-1.739,2.1
	c-0.957,0-1.729-0.947-1.729-2.1C286.412,56.624,287.184,55.686,288.141,55.686z M209.354,17.387c0.957,0,1.739,0.938,1.739,2.1
	c0,1.153-0.781,2.09-1.739,2.09c-0.947,0-1.729-0.938-1.729-2.09C207.625,18.324,208.406,17.387,209.354,17.387z M277.318,20.532
	c0.957,0,1.729,0.938,1.729,2.1c0,1.153-0.772,2.1-1.729,2.1s-1.729-0.947-1.729-2.1C275.589,21.47,276.361,20.532,277.318,20.532z
	 M34.744,173.75c0.967,0,1.739,0.947,1.739,2.1c0,1.162-0.772,2.1-1.739,2.1c-0.947,0-1.729-0.938-1.729-2.1
	C33.015,174.698,33.797,173.75,34.744,173.75z M13.538,197.886c0.957,0,1.729,0.947,1.729,2.1c0,1.162-0.772,2.1-1.729,2.1
	s-1.729-0.938-1.729-2.1C11.809,198.834,12.581,197.886,13.538,197.886z M83.661,152.241c0.957,0,1.739,0.938,1.739,2.1
	c0,1.153-0.781,2.1-1.739,2.1c-0.947,0-1.729-0.947-1.729-2.1C81.933,153.179,82.714,152.241,83.661,152.241z M39.081,215.732
	c0.957,0,1.729,0.938,1.729,2.1c0,1.153-0.772,2.1-1.729,2.1c-0.957,0-1.739-0.947-1.739-2.1
	C37.342,216.67,38.124,215.732,39.081,215.732z M68.951,170.077c0.947,0,1.729,0.947,1.729,2.1c0,1.162-0.781,2.1-1.729,2.1
	c-0.957,0-1.729-0.938-1.729-2.1C67.222,171.025,67.994,170.077,68.951,170.077z M10.51,233.041c0.957,0,1.729,0.947,1.729,2.1
	c0,1.162-0.772,2.1-1.729,2.1s-1.739-0.938-1.739-2.1C8.772,233.988,9.553,233.041,10.51,233.041z M401.223,66.294
	c0.508,0.811,0.117,1.963-0.86,2.579c-0.987,0.615-2.198,0.459-2.706-0.352c-0.508-0.811-0.117-1.963,0.86-2.579
	C399.504,65.327,400.705,65.483,401.223,66.294z M369.507,61.127c0.508,0.801,0.117,1.963-0.86,2.579
	c-0.987,0.615-2.198,0.459-2.696-0.352c-0.508-0.811-0.127-1.973,0.86-2.588C367.788,60.15,368.999,60.316,369.507,61.127z
	 M394.161,105.444c0.508,0.811,0.117,1.973-0.86,2.579c-0.987,0.615-2.198,0.459-2.696-0.352c-0.508-0.811-0.127-1.963,0.86-2.579
	C392.442,104.477,393.653,104.633,394.161,105.444z M425.74,132.149c0.508,0.811,0.117,1.963-0.869,2.588
	c-0.977,0.615-2.188,0.449-2.696-0.361s-0.117-1.963,0.86-2.579C424.021,131.182,425.232,131.338,425.74,132.149z M445.413,96.34
	c0.498,0.811,0.117,1.963-0.86,2.579c-0.987,0.615-2.198,0.459-2.706-0.352c-0.508-0.811-0.117-1.963,0.869-2.579
	C443.694,95.373,444.905,95.529,445.413,96.34z M367.944,92.238c0.498,0.811,0.117,1.963-0.869,2.579
	c-0.977,0.615-2.188,0.459-2.696-0.352s-0.117-1.963,0.86-2.579C366.225,91.271,367.426,91.427,367.944,92.238z M422.478,93.332
	c0.508,0.811,0.127,1.963-0.86,2.579s-2.188,0.459-2.696-0.352c-0.508-0.811-0.127-1.963,0.86-2.579
	C420.769,92.365,421.97,92.521,422.478,93.332z M338.103,77.215c0.508,0.811,0.117,1.963-0.86,2.579
	c-0.987,0.615-2.188,0.459-2.696-0.352c-0.508-0.82-0.127-1.973,0.86-2.588C336.384,76.238,337.596,76.394,338.103,77.215z"/>
<g>
</g>
<g>
</g>
<g>
</g>
<g>
</g>
<g>
</g>
<g>
</g>
<g>
</g>
<g>
</g>
<g>
</g>
<g>
</g>
<g>
</g>
<g>
</g>
<g>
</g>
<g>
</g>
<g>
</g>
</svg>
