<?xml version="1.0" encoding="iso-8859-1"?>
<!-- Generator: Adobe Illustrator 19.0.0, SVG Export Plug-In . SVG Version: 6.00 Build 0)  -->
<svg version="1.1" id="Layer_1" xmlns="http://www.w3.org/2000/svg" xmlns:xlink="http://www.w3.org/1999/xlink" x="0px" y="0px"
	 viewBox="0 0 512 512" style="enable-background:new 0 0 512 512;" xml:space="preserve">
<path style="fill:#B1E9F1;" d="M256.005,0C397.384,0,512,114.616,512,256.005C512,397.384,397.384,512,256.005,512
	C114.616,512,0,397.384,0,256.005C0,114.616,114.616,0,256.005,0z"/>
<g>
	<path style="fill:#FFFFFF;" d="M313.918,249.197c2.657,0,5.167,0.43,7.384,1.192c2.403-1.602,5.695-2.588,9.328-2.588
		c6.281,0,11.555,2.96,12.962,6.945c3.145,0.635,5.656,2.256,6.808,4.317c0.381-0.02,0.762-0.039,1.153-0.039
		c5.802,0,10.52,3.204,10.52,7.15c0,3.956-4.718,7.15-10.52,7.15c-1.817,0-3.516-0.303-5.001-0.85
		c-1.28,2.969-5.314,5.138-10.1,5.138c-2.921,0-5.558-0.811-7.463-2.12c-1.914,1.309-4.552,2.12-7.482,2.12
		c-2.774,0-5.304-0.733-7.179-1.924c-1.924,1.426-4.689,2.325-7.765,2.325c-2.882,0-5.48-0.781-7.375-2.061
		c-0.869,0.137-1.778,0.205-2.706,0.205c-6.916,0-12.522-3.819-12.522-8.527c0-4.698,5.607-8.518,12.522-8.518
		c0.381,0,0.752,0.02,1.123,0.039C298.495,253.553,305.459,249.197,313.918,249.197z"/>
	<path style="fill:#FFFFFF;" d="M467.967,147.182c2.657,0,5.167,0.43,7.384,1.192c2.403-1.602,5.695-2.588,9.319-2.588
		c0.86,0,1.709,0.049,2.52,0.156c4.21,8.83,7.931,17.934,11.126,27.282c-1.924,1.455-4.718,2.364-7.814,2.364
		c-2.921,0-5.568-0.811-7.472-2.12c-1.905,1.309-4.552,2.12-7.472,2.12c-2.774,0-5.304-0.733-7.189-1.924
		c-1.914,1.426-4.679,2.325-7.756,2.325c-2.882,0-5.49-0.781-7.384-2.061c-0.869,0.137-1.768,0.205-2.696,0.205
		c-6.925,0-12.532-3.819-12.532-8.518c0-4.708,5.607-8.527,12.532-8.527c0.371,0,0.752,0.02,1.114,0.039
		C452.534,151.528,459.498,147.182,467.967,147.182z"/>
	<path style="fill:#FFFFFF;" d="M74.362,436.387l71.178-123.963l20.288,39.882l99.163-172.676l93.439,183.694l56.253-97.962
		l61.606,121.102C431.679,461.618,349.737,512,256.005,512C184.993,512,120.74,483.087,74.362,436.387z"/>
</g>
<path style="fill:#CCCCCC;" d="M264.991,179.63l109.263,214.814l40.429-129.082l61.606,121.102
	C431.679,461.618,349.737,512,256.005,512c-1.582,0-3.145-0.029-4.718-0.059l-20.718-22.808l54.973-49.406l-55.608-28.356
	l70.104-38.788l-35.047-19.389v-20.18V179.63z"/>
<path style="fill:#FFFFFF;" d="M1.885,224.875l36.434-66.021l89.844,183.83l-53.801,93.703C28.405,390.107,0,326.372,0,256.005
	C0,245.465,0.654,235.082,1.885,224.875z"/>
<g>
	<path style="fill:#CCCCCC;" d="M38.319,158.854l89.844,183.83l-53.801,93.703c-14.798-14.896-27.77-31.618-38.563-49.767
		l18.5-17.309l-36.512-19.37c-0.801-2.022-1.573-4.054-2.325-6.105l50.109-28.844l-27.252-15.697v-16.332V158.854z"/>
	<path style="fill:#CCCCCC;" d="M510.515,228.401l-38.837-68.883l-54.309,111.119l58.919,115.827
		C498.97,348.262,512,303.652,512,256.005C512,246.677,511.492,237.466,510.515,228.401z"/>
</g>
<g>
	<polygon style="fill:#FFFFFF;" points="471.678,159.518 417.369,270.637 465.31,364.877 481.544,339.139 461.989,307.022 
		479.258,288.844 459.049,274.544 	"/>
	<path style="fill:#FFFFFF;" d="M139.133,28.18c9.133,8.889,14.808,21.304,14.808,35.057c0,27.018-21.899,48.917-48.917,48.917
		c-17.973,0-33.679-9.709-42.187-24.156C84.14,63.53,110.015,43.144,139.133,28.18z"/>
	<path style="fill:#FFFFFF;" d="M271.506,99.397c4.757,0,9.24,0.772,13.206,2.129c4.298-2.862,10.188-4.63,16.683-4.63
		c11.243,0,20.669,5.294,23.189,12.415c5.626,1.143,10.129,4.034,12.19,7.736c0.674-0.049,1.358-0.068,2.051-0.068
		c10.383,0,18.813,5.724,18.813,12.786c0,7.072-8.43,12.796-18.813,12.796c-3.243,0-6.29-0.557-8.947-1.534
		c-2.276,5.314-9.504,9.201-18.061,9.201c-5.226,0-9.953-1.446-13.362-3.79c-3.419,2.344-8.146,3.79-13.372,3.79
		c-4.972,0-9.494-1.309-12.854-3.448c-3.438,2.549-8.381,4.161-13.89,4.161c-5.148,0-9.807-1.407-13.196-3.682
		c-1.563,0.234-3.175,0.352-4.835,0.352c-12.376,0-22.417-6.818-22.417-15.238s10.041-15.238,22.417-15.238
		c0.674,0,1.348,0.02,2.002,0.059C243.903,107.192,256.366,99.397,271.506,99.397z"/>
	<path style="fill:#FFFFFF;" d="M115.817,214.804c2.657,0,5.167,0.43,7.384,1.192c2.403-1.592,5.695-2.588,9.328-2.588
		c6.281,0,11.555,2.96,12.962,6.945c3.145,0.635,5.656,2.256,6.808,4.327c0.381-0.029,0.762-0.049,1.153-0.049
		c5.802,0,10.52,3.204,10.52,7.15c0,3.956-4.718,7.16-10.52,7.16c-1.817,0-3.516-0.313-5.001-0.86
		c-1.28,2.969-5.314,5.138-10.1,5.138c-2.921,0-5.558-0.811-7.463-2.12c-1.914,1.309-4.552,2.12-7.482,2.12
		c-2.774,0-5.304-0.733-7.179-1.924c-1.924,1.426-4.689,2.325-7.765,2.325c-2.882,0-5.48-0.781-7.375-2.061
		c-0.869,0.137-1.778,0.205-2.706,0.205c-6.916,0-12.522-3.819-12.522-8.518c0-4.708,5.607-8.527,12.522-8.527
		c0.381,0,0.752,0.02,1.123,0.039C100.394,219.161,107.358,214.804,115.817,214.804z"/>
</g>
<g>
	<path d="M276.527,65.864c0,0,5.792-1.25,10.637-0.322c4.855,0.938,9.914,4.962,15.394,5.275c5.47,0.303,4.337-1.758,4.337-1.758
		s-3.516,0.518-4.444-2.481c-0.928-2.989,2.891-5.372,8.781-9.494c5.89-4.132,7.023-8.264,5.89-10.852c0,0-1.035,1.651-5.89,4.239
		c-4.855,2.579-8.361,7.336-12.18,10.735c-3.829,3.409-4.034,3.614-7.648,2.891C287.789,63.374,280.044,62.241,276.527,65.864z"/>
	<path d="M167.088,110.933c0,0,5.792-1.241,10.637-0.313c4.855,0.928,9.914,4.962,15.394,5.265c5.48,0.313,4.337-1.758,4.337-1.758
		s-3.507,0.527-4.444-2.471c-0.928-2.999,2.901-5.382,8.781-9.504c5.89-4.132,7.023-8.264,5.89-10.852c0,0-1.035,1.661-5.89,4.239
		c-4.855,2.588-8.361,7.336-12.18,10.735c-3.829,3.419-4.034,3.624-7.648,2.901C178.351,108.452,170.605,107.319,167.088,110.933z"
		/>
	<path d="M355.441,170.566c0,0,5.783-1.241,10.637-0.313c4.855,0.938,9.914,4.962,15.394,5.275c5.47,0.303,4.337-1.758,4.337-1.758
		s-3.516,0.518-4.444-2.481c-0.928-2.989,2.891-5.372,8.781-9.494c5.89-4.142,7.023-8.273,5.89-10.852c0,0-1.035,1.651-5.89,4.239
		c-4.855,2.579-8.371,7.336-12.19,10.735c-3.819,3.409-4.024,3.614-7.638,2.891C366.704,168.085,358.948,166.952,355.441,170.566z"
		/>
</g>
<g>
</g>
<g>
</g>
<g>
</g>
<g>
</g>
<g>
</g>
<g>
</g>
<g>
</g>
<g>
</g>
<g>
</g>
<g>
</g>
<g>
</g>
<g>
</g>
<g>
</g>
<g>
</g>
<g>
</g>
</svg>
