<?xml version="1.0" encoding="iso-8859-1"?>
<!-- Generator: Adobe Illustrator 19.0.0, SVG Export Plug-In . SVG Version: 6.00 Build 0)  -->
<svg version="1.1" id="Layer_1" xmlns="http://www.w3.org/2000/svg" xmlns:xlink="http://www.w3.org/1999/xlink" x="0px" y="0px"
	 viewBox="0 0 512 512" style="enable-background:new 0 0 512 512;" xml:space="preserve">
<g>
	<path style="fill:#B1E9F1;" d="M157.723,492.441c-1.413-0.588-2.818-1.193-4.218-1.806
		C154.906,491.248,156.31,491.853,157.723,492.441z"/>
	<path style="fill:#B1E9F1;" d="M226.457,510.293c-1.271-0.146-2.542-0.29-3.807-0.454
		C223.915,510.003,225.186,510.147,226.457,510.293z"/>
	<path style="fill:#B1E9F1;" d="M163.634,494.813c-1.365-0.528-2.722-1.072-4.076-1.623
		C160.912,493.742,162.269,494.285,163.634,494.813z"/>
	<path style="fill:#B1E9F1;" d="M82.571,444.285c-1.493-1.376-2.97-2.769-4.43-4.18C79.602,441.516,81.078,442.909,82.571,444.285z"
		/>
	<path style="fill:#B1E9F1;" d="M134.832,481.553c-18.914-10.185-36.402-22.678-52.084-37.104
		C98.431,458.875,115.916,471.37,134.832,481.553z"/>
	<path style="fill:#B1E9F1;" d="M146.124,487.273c-1.565-0.745-3.119-1.51-4.666-2.285
		C143.005,485.763,144.559,486.528,146.124,487.273z"/>
	<path style="fill:#B1E9F1;" d="M169.617,497.042c-1.33-0.477-2.655-0.967-3.975-1.465
		C166.963,496.075,168.287,496.565,169.617,497.042z"/>
	<path style="fill:#B1E9F1;" d="M140.438,484.481c-1.698-0.861-3.383-1.742-5.059-2.639
		C137.055,482.739,138.74,483.62,140.438,484.481z"/>
	<path style="fill:#B1E9F1;" d="M219.876,509.45c-1.256-0.177-2.513-0.354-3.763-0.55
		C217.364,509.096,218.62,509.273,219.876,509.45z"/>
	<path style="fill:#B1E9F1;" d="M213.364,508.445c-1.247-0.209-2.495-0.419-3.736-0.646
		C210.87,508.026,212.117,508.236,213.364,508.445z"/>
	<path style="fill:#B1E9F1;" d="M77.812,439.784c-1.405-1.362-2.794-2.739-4.167-4.133
		C75.018,437.045,76.408,438.422,77.812,439.784z"/>
	<path style="fill:#B1E9F1;" d="M206.915,507.279c-1.244-0.242-2.486-0.486-3.723-0.745
		C204.429,506.793,205.672,507.037,206.915,507.279z"/>
	<path style="fill:#B1E9F1;" d="M187.975,502.845c-1.267-0.349-2.531-0.705-3.79-1.072
		C185.444,502.14,186.708,502.496,187.975,502.845z"/>
	<path style="fill:#B1E9F1;" d="M200.537,505.956c-1.248-0.276-2.493-0.556-3.734-0.849
		C198.043,505.4,199.289,505.68,200.537,505.956z"/>
	<path style="fill:#B1E9F1;" d="M181.787,501.059c-1.282-0.388-2.559-0.785-3.832-1.192
		C179.227,500.274,180.505,500.671,181.787,501.059z"/>
	<path style="fill:#B1E9F1;" d="M175.668,499.125c-1.303-0.43-2.601-0.872-3.895-1.323
		C173.067,498.252,174.365,498.694,175.668,499.125z"/>
	<path style="fill:#B1E9F1;" d="M151.888,489.928c-1.477-0.658-2.943-1.335-4.405-2.02
		C148.944,488.593,150.411,489.269,151.888,489.928z"/>
	<path style="fill:#B1E9F1;" d="M55.149,303.662c-0.055-0.062-0.089-0.122-0.119-0.181c0.021,0.079,0.04,0.155,0.057,0.219
		C55.123,303.677,55.149,303.662,55.149,303.662z"/>
	<path style="fill:#B1E9F1;" d="M56.469,305.137c0.016,0,0.032,0,0.048,0c0.015-0.079,0.029-0.137,0.029-0.137
		C56.521,305.052,56.495,305.093,56.469,305.137z"/>
	<path style="fill:#B1E9F1;" d="M52.338,300.742c-0.022-0.009-0.05-0.021-0.071-0.029c-1.055,0.498-2.208,0.85-3.429,1.016
		c-1.407,0.195-2.786,0.119-4.095-0.17c0.924,5.639,3.187,7.027,3.187,7.027c0.283,0.643,0.647,0.326,0.957-0.193
		c0.001-2.367,0.099-3.214,2.385-3.251l1.16-1.195C52.529,303.658,52.474,302.43,52.338,300.742z"/>
	<path style="fill:#B1E9F1;" d="M55.335,302.597c-0.221-0.041-0.406-0.098-0.576-0.16c0.077,0.3,0.145,0.56,0.204,0.785
		C54.962,302.855,55.335,302.597,55.335,302.597z"/>
	<path style="fill:#B1E9F1;" d="M37.735,299.73c0.387,2.093,0.799,3.747,0.799,3.747l3.116,7.345
		c1.475,0.987,2.012-2.383,2.012-2.383c0.361-0.703-1.905-7.805-1.905-7.805c0.012-0.062,0.018-0.115,0.028-0.175
		c-0.42-0.226-0.832-0.468-1.22-0.743C39.531,299.922,38.457,299.836,37.735,299.73z"/>
	<path style="fill:#B1E9F1;" d="M469.012,295.731c-1.408,0.195-2.787,0.119-4.096-0.171c0.924,5.644,3.187,7.037,3.187,7.037
		c0.596,1.367,1.592-1.651,1.592-1.651l2.911-2.999c0.095-0.287,0.04-1.515-0.095-3.204c-0.022-0.009-0.05-0.021-0.071-0.029
		C471.385,295.213,470.233,295.565,469.012,295.731z"/>
	<path style="fill:#B1E9F1;" d="M73.204,435.199c-1.33-1.357-2.646-2.727-3.946-4.113C70.557,432.472,71.873,433.842,73.204,435.199
		z"/>
	<path style="fill:#B1E9F1;" d="M455.825,290.798c-0.188,0.393-0.387,0.694-0.59,0.929c0.153,0.154,0.298,0.301,0.437,0.444
		C455.642,291.481,455.825,290.798,455.825,290.798z"/>
	<path style="fill:#B1E9F1;" d="M457.908,293.732c0.387,2.093,0.799,3.747,0.799,3.747l3.106,7.345
		c1.485,0.987,2.022-2.383,2.022-2.383c0.352-0.703-1.914-7.804-1.914-7.804c0.012-0.064,0.019-0.118,0.03-0.179
		c-0.417-0.225-0.826-0.465-1.212-0.739C459.704,293.924,458.63,293.838,457.908,293.732z"/>
	<path style="fill:#B1E9F1;" d="M48.608,406.084c-1.232-1.699-2.443-3.413-3.634-5.143
		C46.165,402.671,47.376,404.385,48.608,406.084z"/>
	<path style="fill:#B1E9F1;" d="M52.458,411.255c-1.283-1.679-2.546-3.375-3.788-5.086
		C49.912,407.881,51.175,409.576,52.458,411.255z"/>
	<path style="fill:#B1E9F1;" d="M44.891,400.82c-1.187-1.726-2.352-3.467-3.497-5.223C42.539,397.354,43.705,399.094,44.891,400.82z
		"/>
	<path style="fill:#B1E9F1;" d="M12.921,336.477c-0.73-2.217-1.432-4.448-2.109-6.692C11.486,332.029,12.188,334.26,12.921,336.477z
		"/>
	<path style="fill:#B1E9F1;" d="M501.186,329.793c-0.603,2.014-1.237,4.014-1.886,6.006
		C499.952,333.808,500.581,331.806,501.186,329.793z"/>
	<path style="fill:#B1E9F1;" d="M35.653,296.795c-0.188,0.392-0.386,0.693-0.589,0.927c0.152,0.153,0.297,0.301,0.436,0.444
		C35.469,297.477,35.653,296.795,35.653,296.795z"/>
	<path style="fill:#B1E9F1;" d="M15.249,343.214c-0.79-2.183-1.55-4.379-2.28-6.589C13.702,338.834,14.458,341.032,15.249,343.214z"
		/>
	<path style="fill:#B1E9F1;" d="M247.045,511.827c-1.505-0.052-3.011-0.101-4.509-0.179
		C244.034,511.726,245.54,511.775,247.045,511.827z"/>
	<path style="fill:#B1E9F1;" d="M370.508,485.007c-1.529,0.766-3.065,1.522-4.611,2.259
		C367.443,486.529,368.978,485.773,370.508,485.007z"/>
	<path style="fill:#B1E9F1;" d="M438.392,435.615c-1.41,1.431-2.837,2.846-4.279,4.244
		C435.555,438.461,436.982,437.046,438.392,435.615z"/>
	<path style="fill:#B1E9F1;" d="M376.599,481.855c-1.664,0.891-3.337,1.766-5.023,2.62
		C373.262,483.621,374.935,482.746,376.599,481.855z"/>
	<path style="fill:#B1E9F1;" d="M433.894,440.072c-1.5,1.45-3.018,2.883-4.553,4.296
		C430.876,442.955,432.393,441.523,433.894,440.072z"/>
	<path style="fill:#B1E9F1;" d="M429.286,444.419c-15.689,14.438-33.185,26.94-52.11,37.131
		C396.103,471.361,413.596,458.856,429.286,444.419z"/>
	<path style="fill:#B1E9F1;" d="M352.401,493.209c-1.329,0.541-2.662,1.074-4.002,1.594
		C349.739,494.284,351.072,493.75,352.401,493.209z"/>
	<path style="fill:#B1E9F1;" d="M358.455,490.654c-1.378,0.603-2.76,1.198-4.15,1.777
		C355.696,491.852,357.077,491.257,358.455,490.654z"/>
	<path style="fill:#B1E9F1;" d="M364.477,487.928c-1.441,0.675-2.886,1.342-4.342,1.991
		C361.591,489.27,363.036,488.603,364.477,487.928z"/>
	<path style="fill:#B1E9F1;" d="M463,406.622c-1.052,1.442-2.116,2.874-3.197,4.294C460.884,409.497,461.949,408.065,463,406.622z"
		/>
	<path style="fill:#B1E9F1;" d="M470.294,396.073c-0.988,1.508-1.989,3.007-3.007,4.493
		C468.305,399.08,469.306,397.581,470.294,396.073z"/>
	<path style="fill:#B1E9F1;" d="M466.704,401.405c-1.017,1.471-2.047,2.932-3.094,4.38
		C464.657,404.337,465.687,402.876,466.704,401.405z"/>
	<path style="fill:#B1E9F1;" d="M346.319,495.593c-1.295,0.489-2.595,0.97-3.9,1.438
		C343.725,496.563,345.024,496.082,346.319,495.593z"/>
	<path style="fill:#B1E9F1;" d="M496.668,343.449c-4.458,12.264-9.827,24.091-16.025,35.398
		C486.84,367.539,492.211,355.714,496.668,343.449z"/>
	<path style="fill:#B1E9F1;" d="M447.046,426.382c-1.262,1.414-2.541,2.814-3.834,4.2
		C444.505,429.196,445.784,427.797,447.046,426.382z"/>
	<path style="fill:#B1E9F1;" d="M442.777,431.05c-1.332,1.421-2.681,2.826-4.045,4.216
		C440.096,433.876,441.445,432.471,442.777,431.05z"/>
	<path style="fill:#B1E9F1;" d="M450.19,422.805c-0.811,0.937-1.63,1.868-2.451,2.797
		C448.56,424.674,449.382,423.745,450.19,422.805z"/>
	<path style="fill:#B1E9F1;" d="M459.181,411.728c-1.093,1.424-2.2,2.836-3.322,4.236
		C456.981,414.564,458.088,413.152,459.181,411.728z"/>
	<path style="fill:#B1E9F1;" d="M295.881,508.903c-1.234,0.193-2.473,0.367-3.713,0.543
		C293.408,509.27,294.648,509.096,295.881,508.903z"/>
	<path style="fill:#B1E9F1;" d="M276.143,511.214c-1.344,0.105-2.695,0.184-4.044,0.268
		C273.448,511.398,274.799,511.319,276.143,511.214z"/>
	<path style="fill:#B1E9F1;" d="M262.76,511.911c-2.245,0.058-4.496,0.089-6.755,0.089C258.264,512,260.515,511.969,262.76,511.911z
		"/>
	<path style="fill:#B1E9F1;" d="M289.349,509.84c-1.251,0.163-2.508,0.305-3.765,0.449
		C286.841,510.144,288.098,510.002,289.349,509.84z"/>
	<path style="fill:#B1E9F1;" d="M282.768,510.611c-1.282,0.133-2.57,0.243-3.858,0.358
		C280.197,510.854,281.486,510.744,282.768,510.611z"/>
	<path style="fill:#B1E9F1;" d="M269.472,511.648c-1.493,0.077-2.994,0.127-4.494,0.178
		C266.478,511.775,267.978,511.726,269.472,511.648z"/>
	<path style="fill:#B1E9F1;" d="M239.932,511.483c-1.358-0.084-2.717-0.164-4.07-0.269
		C237.215,511.319,238.574,511.399,239.932,511.483z"/>
	<path style="fill:#B1E9F1;" d="M340.193,497.815c-1.27,0.442-2.544,0.876-3.823,1.299
		C337.649,498.691,338.923,498.257,340.193,497.815z"/>
	<path style="fill:#B1E9F1;" d="M256.005,512c-2.259,0-4.511-0.031-6.756-0.089C251.494,511.969,253.746,512,256.005,512z"/>
	<path style="fill:#B1E9F1;" d="M475.507,296.61c-0.22-0.041-0.404-0.098-0.573-0.16c0.074,0.287,0.139,0.536,0.196,0.755
		C475.147,296.853,475.507,296.61,475.507,296.61z"/>
	<path style="fill:#B1E9F1;" d="M327.788,501.782c-1.235,0.36-2.474,0.71-3.717,1.052
		C325.314,502.492,326.553,502.142,327.788,501.782z"/>
	<path style="fill:#B1E9F1;" d="M334.016,499.878c-1.249,0.399-2.503,0.789-3.76,1.17
		C331.513,500.667,332.767,500.277,334.016,499.878z"/>
	<path style="fill:#B1E9F1;" d="M321.511,503.526c-1.226,0.324-2.457,0.635-3.69,0.941
		C319.054,504.162,320.285,503.85,321.511,503.526z"/>
	<path style="fill:#B1E9F1;" d="M315.179,505.112c-1.219,0.288-2.443,0.563-3.668,0.834
		C312.737,505.676,313.96,505.401,315.179,505.112z"/>
	<path style="fill:#B1E9F1;" d="M302.362,507.802c-1.222,0.224-2.451,0.43-3.679,0.637
		C299.912,508.232,301.14,508.025,302.362,507.802z"/>
	<path style="fill:#B1E9F1;" d="M233.126,510.971c-1.299-0.115-2.599-0.226-3.892-0.361
		C230.528,510.745,231.828,510.856,233.126,510.971z"/>
	<path style="fill:#B1E9F1;" d="M308.794,506.538c-1.217,0.255-2.439,0.495-3.662,0.733
		C306.356,507.033,307.578,506.793,308.794,506.538z"/>
	<path style="fill:#B1E9F1;" d="M194.227,504.478c-1.257-0.312-2.511-0.629-3.761-0.959
		C191.715,503.849,192.97,504.166,194.227,504.478z"/>
	<path style="fill:#B1E9F1;" d="M39.745,318.675c-0.234-1.074,0.166-6.759,0.166-6.759c-0.117-1.866-3.507-11.389-3.507-11.389
		c-0.659-0.965-1.241-1.755-1.764-2.42c-0.859,0.592-1.747,0.139-2.31-0.306c0.147,0.703-1.534,1.055-1.534,1.055
		c-0.313,2.579-2.725,1.641-3.292,1.387c-0.43,0.205-0.899,0.352-1.387,0.42c-1.231,0.166-2.403-0.166-3.35-0.82
		c-0.713,0.146-1.485-0.059-1.485-0.059c-0.821,0.088-0.498-1.123-0.498-1.123c-0.635,1.348-1.582,0.186-1.582,0.186
		c-0.889-0.957,0.195-1.514,0.195-1.514c-0.518-0.596,0.186-1.074,0.186-1.074c-2.022-0.381-1.739-1.748-1.739-1.748
		c-0.928-1.211-0.01-2.247-0.01-2.247c-0.137-0.107-0.225-0.215-0.283-0.313c-1.143,0.098-2.237-0.215-3.116-0.84
		c-0.713,0.137-1.494-0.068-1.494-0.068c-0.83,0.098-0.498-1.123-0.498-1.123c-0.645,1.358-1.592,0.186-1.592,0.186
		c-0.899-0.957,0.186-1.524,0.186-1.524c-0.518-0.596,0.195-1.084,0.195-1.084c-2.032-0.381-1.748-1.758-1.748-1.758
		c-0.928-1.211-0.01-2.256-0.01-2.256c-0.811-0.654-0.068-1.319-0.068-1.319c-0.264-0.801,0.879-0.772,0.879-0.772
		c-1.143-2.178,0.879-2.422,0.879-2.422c0.371-1.045,1.28-0.41,1.28-0.41c0.459-1.162,2.041-0.283,2.041-0.283
		c-0.469-0.996,1.016-1.006,1.016-1.006c0.293-0.156,0.557-0.176,0.781-0.117c0-0.127,0.02-0.215,0.02-0.215
		c-0.928-1.211-0.02-2.247-0.02-2.247c-0.801-0.664-0.059-1.319-0.059-1.319c-0.117-0.352,0.029-0.537,0.234-0.645
		c-0.899-2.1,0.547-3.741,0.547-3.741c-1.69-1.377-0.137-2.764-0.137-2.764c-0.547-1.68,1.846-1.621,1.846-1.621
		c-2.393-4.562,1.846-5.07,1.846-5.07c0.772-2.198,2.667-0.869,2.667-0.869c0.967-2.422,4.298-0.586,4.298-0.586
		c-0.987-2.09,2.139-2.11,2.139-2.11c2.09-1.162,3.556,1.319,3.556,1.319c1.25-1.621,2.276-2.188,3.096-2.227
		c-0.694-2.256,1.602-2.54,1.602-2.54c0.518-1.465,1.778-0.576,1.778-0.576c0.654-1.621,2.872-0.391,2.872-0.391
		c-0.654-1.397,1.436-1.407,1.436-1.407c1.407-0.791,2.383,0.879,2.383,0.879c2.481-3.243,3.702-0.176,3.702-0.176
		c4.22-2.071,4.903,1.836,4.903,1.836c0.86-1.104,2.022,0.029,3.126,1.612c0.733,1.055,0.264,2.002-0.137,2.52
		c0.733,0.42,1.172,1.172,1.172,1.172c3.282-4.288,4.884-0.234,4.884-0.234c0.254-0.125,0.488-0.217,0.723-0.31V186.78h-8v-11.848
		h126.083v-64.77h-4.268V92.267h142.18v17.895h-4.269v64.77H448.89v11.848h-7.345v65.655c0.846-0.474,1.856,0.229,1.856,0.229
		c0.967-2.422,4.288-0.586,4.288-0.586c-0.977-2.09,2.139-2.11,2.139-2.11c2.1-1.162,3.565,1.319,3.565,1.319
		c1.241-1.621,2.276-2.188,3.096-2.217c-0.694-2.266,1.592-2.549,1.592-2.549c0.518-1.465,1.787-0.576,1.787-0.576
		c0.645-1.621,2.872-0.391,2.872-0.391c-0.654-1.397,1.436-1.407,1.436-1.407c1.407-0.791,2.383,0.879,2.383,0.879
		c2.481-3.243,3.702-0.176,3.702-0.176c4.22-2.071,4.904,1.836,4.904,1.836c0.86-1.104,2.022,0.029,3.126,1.612
		c0.733,1.055,0.264,2.002-0.146,2.52c0.742,0.42,1.182,1.172,1.182,1.172c3.282-4.288,4.884-0.234,4.884-0.234
		c5.568-2.745,6.466,2.432,6.466,2.432c1.133-1.455,2.657,0.029,4.132,2.12c1.465,2.1-0.713,3.878-0.713,3.878
		c1.543,1.338-0.791,2.247-0.791,2.247c1.25,1.192,0.01,2.374-0.303,2.647c1.475-1.201,2.198,0.254,2.198,0.254
		c2.168,0.361-0.107,2.081-0.107,2.081c-0.791,0.313-1.299-0.518-1.299-0.518c-1.084,0.527-1.25,0.938-1.182,1.201
		c2.725-0.635,3.204,2.11,3.204,2.11c0.772-0.996,1.817,0.029,2.833,1.455c0.996,1.436-0.498,2.657-0.498,2.657
		c1.055,0.918-0.537,1.534-0.537,1.534c0.86,0.82,0.01,1.631-0.215,1.817c1.016-0.83,1.504,0.176,1.504,0.176
		c1.495,0.244-0.068,1.426-0.068,1.426c-0.547,0.205-0.889-0.361-0.889-0.361c-0.391,0.195-0.615,0.361-0.723,0.508
		c1.006,0.41,1.221,1.621,1.221,1.621c0.606-0.791,1.426,0.02,2.227,1.153c0.791,1.123-0.381,2.09-0.381,2.09
		c0.83,0.723-0.43,1.211-0.43,1.211c0.674,0.645,0.01,1.28-0.166,1.426c0.801-0.645,1.192,0.137,1.192,0.137
		c1.172,0.195-0.059,1.133-0.059,1.133c-0.44,0.166-0.703-0.283-0.703-0.283c-1.084,0.527-0.488,0.83-0.488,0.83
		c0.82-0.186,0.342,0.518,0.342,0.518l-0.498,0.068l-0.596,0.322l0.039,0.195l0.449-0.049l0.039,0.342l-0.527,0.244l0.166,0.391
		c0.606,0.86-1.446,1.289-1.446,1.289c-0.313,2.589-2.745,1.661-3.302,1.397c-0.44,0.205-0.908,0.352-1.397,0.42
		c-1.241,0.166-2.422-0.156-3.37-0.82l-0.293,0.049c0.117,0.469-0.313,0.879-0.44,0.987c0.801-0.645,1.172,0.146,1.172,0.146
		c1.182,0.186-0.059,1.114-0.059,1.114c-0.42,0.166-0.694-0.293-0.694-0.293c-1.074,0.537-0.469,0.84-0.469,0.84
		c0.801-0.186,0.322,0.508,0.322,0.508l-0.488,0.068L488,296.786l0.03,0.214l0.44-0.059l0.049,0.342l-0.527,0.244l0.166,0.391
		c0.596,0.86-1.426,1.27-1.426,1.27c-0.322,2.589-2.735,1.661-3.302,1.397c-0.43,0.215-0.899,0.352-1.387,0.42
		c-1.231,0.166-2.413-0.156-3.35-0.82c-0.713,0.147-1.485-0.059-1.485-0.059c-0.82,0.088-0.498-1.114-0.498-1.114
		c-0.622,1.282-1.505,0.257-1.567,0.183c-3.426,2.505-10.301,9.175-10.301,9.175c-0.645,1.455-0.43,6.476-0.43,6.476l1.201,13.665
		c-0.034,0.415-0.06,0.793-0.084,1.153h35.695c6.998-23.33,10.776-48.052,10.776-73.659C512,114.616,397.384,0,256.005,0
		C114.616,0,0,114.616,0,256.005c0,25.608,3.778,50.33,10.776,73.659h29.83C40.832,324.249,39.745,318.675,39.745,318.675z
		 M368.735,92.394c1.065-9.846,9.406-17.504,19.526-17.504c3.175,0,6.173,0.752,8.83,2.1c2.881-2.823,6.818-4.552,11.155-4.552
		c7.521,0,13.831,5.196,15.511,12.21c3.761,1.123,6.779,3.956,8.146,7.599c0.459-0.049,0.918-0.068,1.377-0.068
		c6.945,0,12.581,5.636,12.581,12.581c0,6.955-5.636,12.581-12.581,12.581c-2.168,0-4.2-0.537-5.978-1.504
		c-1.534,5.226-6.359,9.045-12.083,9.045c-3.497,0-6.662-1.426-8.938-3.722c-2.286,2.295-5.45,3.722-8.938,3.722
		c-3.331,0-6.349-1.289-8.605-3.389c-2.295,2.52-5.607,4.093-9.279,4.093c-3.448,0-6.564-1.377-8.84-3.624
		c-1.035,0.234-2.11,0.352-3.223,0.352c-8.283,0-14.984-6.711-14.984-14.984c0-8.283,6.701-14.994,14.984-14.994
		C367.846,92.335,368.296,92.355,368.735,92.394z M340.985,40.048c14.447,0,26.158,11.712,26.158,26.158
		s-11.712,26.158-26.158,26.158c-14.447,0-26.158-11.712-26.158-26.158S326.538,40.048,340.985,40.048z M235.737,45.45
		c0.449,0,0.899,0.02,1.338,0.059c1.065-9.836,9.406-17.504,19.526-17.504c3.175,0,6.173,0.752,8.83,2.1
		c2.882-2.823,6.818-4.552,11.155-4.552c7.521,0,13.831,5.206,15.511,12.21c3.761,1.123,6.779,3.966,8.146,7.599
		c0.459-0.039,0.918-0.068,1.377-0.068c6.945,0,12.581,5.636,12.581,12.581c0,6.955-5.636,12.581-12.581,12.581
		c-2.168,0-4.2-0.537-5.978-1.504c-1.534,5.236-6.359,9.045-12.083,9.045c-3.497,0-6.662-1.426-8.938-3.722
		c-2.286,2.295-5.45,3.722-8.947,3.722c-3.321,0-6.339-1.289-8.596-3.389c-2.295,2.52-5.607,4.093-9.279,4.093
		c-3.448,0-6.564-1.377-8.84-3.624c-1.035,0.234-2.12,0.352-3.223,0.352c-8.283,0-14.984-6.711-14.984-14.984
		C220.753,52.16,227.454,45.45,235.737,45.45z"/>
	<path style="fill:#B1E9F1;" d="M470.829,395.26c0.958-1.475,1.898-2.963,2.827-4.459h-0.002
		C472.726,392.296,471.787,393.785,470.829,395.26z"/>
	<path style="fill:#B1E9F1;" d="M52.49,411.298c5.197,6.8,10.726,13.331,16.565,19.571h0.004
		C63.219,424.629,57.688,418.097,52.49,411.298z"/>
	<path style="fill:#B1E9F1;" d="M15.333,343.454c5.261,14.473,11.796,28.333,19.459,41.454v-0.005
		C27.128,371.784,20.594,357.924,15.333,343.454z"/>
	<path style="fill:#B1E9F1;" d="M478.055,383.475c0.819-1.424,1.615-2.862,2.407-4.303c-0.794,1.444-1.61,2.876-2.431,4.303H478.055
		z"/>
	<path style="fill:#B1E9F1;" d="M459.918,312.678c-0.234-1.074,0.166-6.759,0.166-6.759c-0.127-1.866-3.507-11.389-3.507-11.389
		c-0.659-0.965-1.241-1.755-1.764-2.42c-0.859,0.592-1.747,0.139-2.31-0.306c0.146,0.703-1.534,1.055-1.534,1.055
		c-0.313,2.579-2.725,1.641-3.292,1.387c-0.43,0.205-0.899,0.352-1.397,0.42c-1.221,0.166-2.403-0.166-3.341-0.82
		c-0.575,0.118-1.181,0.009-1.397-0.038v26.919v8.938h18.199C462.031,323.54,459.918,312.678,459.918,312.678z"/>
	<path style="fill:#B1E9F1;" d="M38.345,390.801c0.974,1.569,1.961,3.127,2.968,4.673c-1.006-1.545-1.988-3.106-2.961-4.673H38.345z
		"/>
	<path style="fill:#B1E9F1;" d="M453.481,418.913c0.598-0.724,1.179-1.462,1.769-2.193c-0.596,0.737-1.206,1.462-1.81,2.193H453.481
		z"/>
	<path style="fill:#B1E9F1;" d="M37.926,390.129c0.082,0.133,0.166,0.265,0.248,0.398c-0.024-0.039-0.047-0.08-0.072-0.119
		C38.044,390.315,37.983,390.223,37.926,390.129z"/>
	<path style="fill:#B1E9F1;" d="M496.757,343.197c0.75-2.071,1.471-4.155,2.169-6.25
		C498.231,339.043,497.511,341.127,496.757,343.197z"/>
	<path style="fill:#B1E9F1;" d="M474.236,389.871c0.485-0.789,0.965-1.58,1.441-2.374c-0.343,0.569-0.691,1.134-1.037,1.7
		C474.503,389.42,474.373,389.648,474.236,389.871z"/>
	<path style="fill:#B1E9F1;" d="M475.209,297.508c0.018,0.067,0.035,0.133,0.049,0.189c0.032-0.02,0.053-0.032,0.053-0.032
		C475.265,297.611,475.237,297.56,475.209,297.508z"/>
	<path style="fill:#B1E9F1;" d="M44.678,314.368c-0.654,1.455-0.44,6.476-0.44,6.476l0.782,8.82h3.868c0-8.444,0-15.88,0-19.265
		C46.584,312.517,44.678,314.368,44.678,314.368z"/>
	<path style="fill:#B1E9F1;" d="M34.886,385.065c0.978,1.672,1.973,3.333,2.987,4.98c-0.725-1.177-1.426-2.371-2.133-3.561
		C35.458,386.009,35.166,385.543,34.886,385.065z"/>
</g>
<path style="fill:#FFFFFF;" d="M235.737,75.427c1.104,0,2.188-0.117,3.223-0.352c2.276,2.247,5.392,3.624,8.84,3.624
	c3.673,0,6.984-1.573,9.279-4.093c2.256,2.1,5.275,3.389,8.596,3.389c3.497,0,6.662-1.426,8.947-3.722
	c2.276,2.295,5.441,3.722,8.938,3.722c5.724,0,10.549-3.809,12.083-9.045c1.778,0.967,3.809,1.504,5.978,1.504
	c6.945,0,12.581-5.626,12.581-12.581c0-6.945-5.636-12.581-12.581-12.581c-0.459,0-0.918,0.029-1.377,0.068
	c-1.367-3.634-4.386-6.476-8.146-7.599c-1.68-7.004-7.99-12.21-15.511-12.21c-4.337,0-8.273,1.729-11.155,4.552
	c-2.657-1.348-5.656-2.1-8.83-2.1c-10.119,0-18.461,7.668-19.526,17.504c-0.44-0.039-0.889-0.059-1.338-0.059
	c-8.283,0-14.984,6.71-14.984,14.994C220.753,68.717,227.454,75.427,235.737,75.427z"/>
<g>
	<path style="fill:#EDEDED;" d="M316.487,232.523v17.738H303.32v70.465h138.224v-26.919c-0.052-0.011-0.088-0.02-0.088-0.02
		c-0.83,0.088-0.498-1.123-0.498-1.123c-0.635,1.348-1.582,0.186-1.582,0.186c-0.889-0.957,0.195-1.514,0.195-1.514
		c-0.518-0.596,0.186-1.074,0.186-1.074c-2.022-0.381-1.739-1.748-1.739-1.748c-0.928-1.211-0.02-2.247-0.02-2.247
		c-0.127-0.107-0.215-0.215-0.273-0.313c-1.143,0.098-2.237-0.215-3.116-0.84c-0.713,0.137-1.495-0.068-1.495-0.068
		c-0.83,0.098-0.498-1.123-0.498-1.123c-0.645,1.358-1.592,0.186-1.592,0.186c-0.899-0.957,0.186-1.524,0.186-1.524
		c-0.518-0.596,0.195-1.084,0.195-1.084c-2.041-0.381-1.748-1.758-1.748-1.758c-0.928-1.211-0.01-2.256-0.01-2.256
		c-0.811-0.654-0.068-1.319-0.068-1.319c-0.264-0.801,0.879-0.772,0.879-0.772c-1.143-2.178,0.879-2.422,0.879-2.422
		c0.371-1.045,1.28-0.41,1.28-0.41c0.459-1.162,2.041-0.283,2.041-0.283c-0.469-0.996,1.016-1.006,1.016-1.006
		c0.293-0.156,0.557-0.176,0.781-0.117c0-0.127,0.02-0.215,0.02-0.215c-0.938-1.201-0.02-2.247-0.02-2.247
		c-0.811-0.654-0.059-1.319-0.059-1.319c-0.117-0.352,0.029-0.537,0.234-0.645c-0.899-2.1,0.547-3.741,0.547-3.741
		c-1.69-1.377-0.137-2.764-0.137-2.764c-0.557-1.68,1.846-1.621,1.846-1.621c-2.393-4.562,1.846-5.07,1.846-5.07
		c0.208-0.593,0.499-0.923,0.811-1.098V186.78H316.487V232.523z M386.132,209.608h31.374v40.976h-31.374V209.608z M386.132,264.669
		h31.374v40.966h-31.374V264.669z M338.084,209.608h31.374v40.976h-31.374V209.608z M369.458,264.669v40.966h-31.374v-40.966
		H369.458z"/>
	<path style="fill:#EDEDED;" d="M70.514,260.186c1.123-1.465,2.647,0.029,4.122,2.12c1.465,2.1-0.703,3.878-0.703,3.878
		c1.534,1.338-0.801,2.247-0.801,2.247c1.25,1.192,0.02,2.374-0.303,2.637c1.475-1.192,2.198,0.264,2.198,0.264
		c2.178,0.361-0.107,2.081-0.107,2.081c-0.791,0.313-1.299-0.518-1.299-0.518c-1.074,0.527-1.25,0.938-1.182,1.201
		c2.725-0.635,3.204,2.11,3.204,2.11c0.772-0.996,1.817,0.029,2.833,1.455c0.996,1.436-0.488,2.657-0.488,2.657
		c1.045,0.918-0.547,1.534-0.547,1.534c0.86,0.82,0.01,1.631-0.215,1.817c1.026-0.83,1.514,0.176,1.514,0.176
		c1.485,0.234-0.078,1.426-0.078,1.426c-0.547,0.205-0.889-0.361-0.889-0.361c-0.391,0.195-0.606,0.361-0.723,0.508
		c1.006,0.4,1.221,1.621,1.221,1.621c0.606-0.791,1.426,0.02,2.227,1.143c0.791,1.133-0.381,2.1-0.381,2.1
		c0.83,0.723-0.43,1.211-0.43,1.211c0.674,0.645,0.01,1.28-0.166,1.426c0.811-0.645,1.192,0.137,1.192,0.137
		c1.172,0.195-0.059,1.133-0.059,1.133c-0.44,0.166-0.703-0.283-0.703-0.283c-1.084,0.527-0.479,0.83-0.479,0.83
		c0.811-0.186,0.332,0.518,0.332,0.518l-0.498,0.068l-0.586,0.322l0.029,0.195l0.449-0.049l0.049,0.342l-0.527,0.244l0.156,0.391
		c0.606,0.86-1.436,1.289-1.436,1.289c-0.322,2.589-2.755,1.661-3.311,1.397c-0.44,0.205-0.899,0.352-1.397,0.42
		c-1.24,0.166-2.422-0.156-3.37-0.82l-0.293,0.039c0.117,0.479-0.313,0.879-0.44,0.996c0.801-0.645,1.182,0.146,1.182,0.146
		c1.172,0.186-0.059,1.114-0.059,1.114c-0.43,0.166-0.703-0.293-0.703-0.293c-1.074,0.537-0.469,0.84-0.469,0.84
		c0.801-0.186,0.322,0.508,0.322,0.508l-0.488,0.068l-0.586,0.313l0.029,0.215l0.44-0.059l0.049,0.342l-0.527,0.244l0.166,0.391
		c0.478,0.69-0.728,1.09-1.224,1.221c7.568,0,17.01,0,26.269,0V264.67h31.374v40.468c2.98,0,4.932,0,5.411,0
		c3.243,0,3.595,0,5.294,1.514c0.172,0.152,1.04,1.068,2.377,2.499c2.696,2.578,7.073,6.783,11.984,11.576h46.541v-70.465h-13.167
		v-17.738V186.78H64.761v70.663C69.676,255.487,70.514,260.186,70.514,260.186z M141.077,209.608h31.374v40.976h-31.374V209.608z
		 M141.077,264.669h31.374v40.966h-31.374V264.669z M93.029,209.608h31.374v40.976H93.029V209.608z"/>
</g>
<path style="fill:#785448;" d="M172.451,209.608h-31.374v40.976h31.374L172.451,209.608L172.451,209.608z M170.849,248.493h-1.875
	h-8.771h-4.913h-4.386h-8.225v-29.352v-7.443h2.305h4.913h8.771h12.18v36.795H170.849z"/>
<g>
	<polygon style="fill:#B9DDF9;" points="168.974,248.493 170.849,248.493 170.849,211.698 158.669,211.698 	"/>
	<polygon style="fill:#B9DDF9;" points="142.679,248.493 150.903,248.493 142.679,219.141 	"/>
	<polygon style="fill:#B9DDF9;" points="144.984,211.698 155.289,248.493 160.202,248.493 149.897,211.698 	"/>
</g>
<g>
	<polygon style="fill:#E1F1FB;" points="149.897,211.698 160.202,248.493 168.974,248.493 158.669,211.698 	"/>
	<polygon style="fill:#E1F1FB;" points="142.679,211.698 142.679,219.141 150.903,248.493 155.289,248.493 144.984,211.698 	"/>
</g>
<path style="fill:#785448;" d="M124.403,209.608H93.029v40.976h31.374V209.608z M122.801,248.493h-1.875h-8.771h-4.913h-4.386
	h-8.224v-29.352v-7.443h2.305h4.913h8.771h12.18V248.493z"/>
<g>
	<polygon style="fill:#B9DDF9;" points="120.926,248.493 122.801,248.493 122.801,211.698 110.621,211.698 	"/>
	<polygon style="fill:#B9DDF9;" points="94.631,248.493 102.855,248.493 94.631,219.141 	"/>
	<polygon style="fill:#B9DDF9;" points="96.936,211.698 107.241,248.493 112.154,248.493 101.849,211.698 	"/>
</g>
<g>
	<polygon style="fill:#E1F1FB;" points="101.849,211.698 112.154,248.493 120.926,248.493 110.621,211.698 	"/>
	<polygon style="fill:#E1F1FB;" points="94.631,211.698 94.631,219.141 102.855,248.493 107.241,248.493 96.936,211.698 	"/>
</g>
<path style="fill:#785448;" d="M172.451,264.669h-31.374v40.966h31.374L172.451,264.669L172.451,264.669z M170.849,303.545h-1.875
	h-8.771h-4.913h-4.386h-8.225v-29.343v-7.443h2.305h4.913h8.771h12.18v36.786H170.849z"/>
<g>
	<polygon style="fill:#B9DDF9;" points="144.984,266.759 155.289,303.545 160.202,303.545 149.897,266.759 	"/>
	<polygon style="fill:#B9DDF9;" points="142.679,303.545 150.903,303.545 142.679,274.202 	"/>
	<polygon style="fill:#B9DDF9;" points="168.974,303.545 170.849,303.545 170.849,266.759 158.669,266.759 	"/>
</g>
<g>
	<polygon style="fill:#E1F1FB;" points="142.679,266.759 142.679,274.202 150.903,303.545 155.289,303.545 144.984,266.759 	"/>
	<polygon style="fill:#E1F1FB;" points="149.897,266.759 160.202,303.545 168.974,303.545 158.669,266.759 	"/>
</g>
<path style="fill:#785448;" d="M93.029,264.669v40.468c3.781,0,7.528,0,11.107,0c0.029-0.631,0.305-1.192,0.737-1.592h-2.018h-8.224
	v-29.343v-7.443h2.305h4.913h8.771h12.18v36.786h-1.875h-2.096c0.432,0.401,0.708,0.961,0.737,1.592c1.813,0,3.436,0,4.836,0
	v-40.468L93.029,264.669L93.029,264.669z"/>
<g>
	<polygon style="fill:#B9DDF9;" points="122.801,303.545 122.801,266.759 110.621,266.759 120.926,303.545 	"/>
	<polygon style="fill:#B9DDF9;" points="94.631,303.545 102.855,303.545 94.631,274.202 	"/>
	<path style="fill:#B9DDF9;" d="M107.348,302.92v-2.608c0-0.889,0.723-1.612,1.612-1.612h1.837l-8.948-31.941h-4.913l10.13,36.16
		h0.282V302.92z"/>
</g>
<g>
	<polygon style="fill:#747474;" points="182.844,174.932 56.761,174.932 56.761,186.78 64.761,186.78 182.844,186.78 	"/>
	<polygon style="fill:#747474;" points="441.545,186.78 448.89,186.78 448.89,174.932 316.487,174.932 316.487,186.78 	"/>
</g>
<g>
	<path style="fill:#E1F1FB;" d="M114.928,298.7c0.889,0,1.602,0.723,1.602,1.612v2.608h0.723c0.609,0,1.161,0.24,1.577,0.625h2.096
		l-10.305-36.786h-8.771l8.948,31.941H114.928z"/>
	<path style="fill:#E1F1FB;" d="M107.066,302.92l-10.13-36.16h-2.305v7.443l8.224,29.343h2.018c0.415-0.385,0.967-0.625,1.577-0.625
		L107.066,302.92L107.066,302.92z"/>
</g>
<path style="fill:#F9F9F9;" d="M182.844,232.523h133.643V186.78v-11.848v-64.77H182.844v64.77v11.848V232.523z M238.814,214.589
	v-40.966h21.538v40.966H238.814z M300.39,173.623v40.966h-21.538v-40.966H300.39z M249.666,117.907
	c12.22,0,22.124,9.905,22.124,22.114c0,12.22-9.905,22.124-22.124,22.124c-12.21,0-22.114-9.905-22.114-22.124
	C227.551,127.812,237.456,117.907,249.666,117.907z M197.173,173.623h21.538v40.966h-21.538V173.623z"/>
<g>
	<rect x="303.32" y="320.73" style="fill:#F3F3F3;" width="138.22" height="8.938"/>
	<path style="fill:#F3F3F3;" d="M158.535,329.664h37.476v-8.938H149.47C152.384,323.571,155.483,326.62,158.535,329.664z"/>
</g>
<polygon style="fill:#F9F9F9;" points="303.32,250.261 196.011,250.261 196.011,320.727 196.011,329.664 218.291,329.664 
	218.291,274.701 249.666,274.701 281.04,274.701 281.04,329.664 303.32,329.664 303.32,320.727 "/>
<path style="fill:#785448;" d="M369.458,209.608h-31.374v40.976h31.374V209.608z M367.856,219.141v29.352h-8.225h-4.376h-4.923
	h-8.762h-1.885v-36.795h12.19h8.771h4.913h2.295v7.443H367.856z"/>
<g>
	<polygon style="fill:#B9DDF9;" points="339.686,211.698 339.686,248.493 341.571,248.493 351.876,211.698 	"/>
	<polygon style="fill:#B9DDF9;" points="360.648,211.698 350.333,248.493 355.256,248.493 365.561,211.698 	"/>
	<polygon style="fill:#B9DDF9;" points="367.856,248.493 367.856,219.141 359.632,248.493 	"/>
</g>
<g>
	<polygon style="fill:#E1F1FB;" points="355.256,248.493 359.632,248.493 367.856,219.141 367.856,211.698 365.561,211.698 	"/>
	<polygon style="fill:#E1F1FB;" points="351.876,211.698 341.571,248.493 350.333,248.493 360.648,211.698 	"/>
</g>
<path style="fill:#785448;" d="M417.506,209.608h-31.374v40.976h31.374V209.608z M415.904,219.141v29.352h-8.215h-4.396h-4.913
	h-8.762h-1.885v-36.795h12.19h8.771h4.913h2.295v7.443H415.904z"/>
<g>
	<polygon style="fill:#B9DDF9;" points="408.695,211.698 398.381,248.493 403.294,248.493 413.609,211.698 	"/>
	<polygon style="fill:#B9DDF9;" points="415.904,248.493 415.904,219.141 407.689,248.493 	"/>
	<polygon style="fill:#B9DDF9;" points="387.734,211.698 387.734,248.493 389.619,248.493 399.924,211.698 	"/>
</g>
<g>
	<polygon style="fill:#E1F1FB;" points="399.924,211.698 389.619,248.493 398.381,248.493 408.695,211.698 	"/>
	<polygon style="fill:#E1F1FB;" points="403.294,248.493 407.689,248.493 415.904,219.141 415.904,211.698 413.609,211.698 	"/>
</g>
<path style="fill:#785448;" d="M369.458,305.635v-40.966h-31.374v40.966H369.458z M339.686,266.759h12.19h8.771h4.913h2.295v7.443
	v29.343h-8.225h-4.376h-4.923h-8.762h-1.885v-36.786H339.686z"/>
<g>
	<polygon style="fill:#B9DDF9;" points="367.856,303.545 367.856,274.202 359.632,303.545 	"/>
	<polygon style="fill:#B9DDF9;" points="355.256,303.545 365.561,266.759 360.648,266.759 350.333,303.545 	"/>
	<polygon style="fill:#B9DDF9;" points="351.876,266.759 339.686,266.759 339.686,303.545 341.571,303.545 	"/>
</g>
<g>
	<polygon style="fill:#E1F1FB;" points="350.333,303.545 360.648,266.759 351.876,266.759 341.571,303.545 	"/>
	<polygon style="fill:#E1F1FB;" points="359.632,303.545 367.856,274.202 367.856,266.759 365.561,266.759 355.256,303.545 	"/>
</g>
<path style="fill:#785448;" d="M417.506,264.669h-31.374v40.966h31.374V264.669z M415.904,274.202v29.343h-8.215h-4.396h-4.913
	h-8.762h-1.885v-36.786h12.19h8.771h4.913h2.295v7.443H415.904z"/>
<g>
	<polygon style="fill:#B9DDF9;" points="415.904,303.545 415.904,274.202 407.689,303.545 	"/>
	<polygon style="fill:#B9DDF9;" points="408.695,266.759 398.381,303.545 403.294,303.545 413.609,266.759 	"/>
	<polygon style="fill:#B9DDF9;" points="387.734,266.759 387.734,303.545 389.619,303.545 399.924,266.759 	"/>
</g>
<g>
	<polygon style="fill:#E1F1FB;" points="399.924,266.759 389.619,303.545 398.381,303.545 408.695,266.759 	"/>
	<polygon style="fill:#E1F1FB;" points="403.294,303.545 407.689,303.545 415.904,274.202 415.904,266.759 413.609,266.759 	"/>
</g>
<path style="fill:#785448;" d="M197.173,214.589h21.538v-40.966h-21.538V214.589z M217.617,212.499h-5.646h-3.008h-3.38h-6.017
	h-1.289v-36.786h8.361h6.027h3.37h1.582v7.443L217.617,212.499L217.617,212.499z"/>
<g>
	<polygon style="fill:#B9DDF9;" points="206.638,175.713 198.277,175.713 198.277,212.499 199.566,212.499 	"/>
	<polygon style="fill:#B9DDF9;" points="216.035,175.713 212.665,175.713 205.583,212.499 208.963,212.499 	"/>
	<polygon style="fill:#B9DDF9;" points="211.972,212.499 217.617,212.499 217.617,183.156 	"/>
</g>
<g>
	<polygon style="fill:#E1F1FB;" points="217.617,183.156 217.617,175.713 216.035,175.713 208.963,212.499 211.972,212.499 	"/>
	<polygon style="fill:#E1F1FB;" points="212.665,175.713 206.638,175.713 199.566,212.499 205.583,212.499 	"/>
</g>
<path style="fill:#785448;" d="M260.352,173.623h-21.538v40.966h21.538V173.623z M253.602,212.499h-3.008h-3.37h-6.027h-1.289
	v-36.786h8.371h6.017h3.37h1.582v7.443v29.343H253.602z"/>
<g>
	<polygon style="fill:#B9DDF9;" points="257.665,175.713 254.296,175.713 247.224,212.499 250.594,212.499 	"/>
	<polygon style="fill:#B9DDF9;" points="248.279,175.713 239.908,175.713 239.908,212.499 241.197,212.499 	"/>
	<polygon style="fill:#B9DDF9;" points="259.248,183.156 253.602,212.499 259.248,212.499 	"/>
</g>
<g>
	<polygon style="fill:#E1F1FB;" points="254.296,175.713 248.279,175.713 241.197,212.499 247.224,212.499 	"/>
	<polygon style="fill:#E1F1FB;" points="259.248,183.156 259.248,175.713 257.665,175.713 250.594,212.499 253.602,212.499 	"/>
</g>
<path style="fill:#785448;" d="M278.852,214.589h21.538v-40.966h-21.538V214.589z M299.286,212.499h-5.646h-3.008h-3.37h-6.027
	h-1.289v-36.786h8.371h6.017h3.37h1.582v7.443V212.499z"/>
<g>
	<polygon style="fill:#B9DDF9;" points="288.317,175.713 279.946,175.713 279.946,212.499 281.235,212.499 	"/>
	<polygon style="fill:#B9DDF9;" points="293.64,212.499 299.286,212.499 299.286,183.156 	"/>
	<polygon style="fill:#B9DDF9;" points="297.704,175.713 294.334,175.713 287.262,212.499 290.632,212.499 	"/>
</g>
<g>
	<polygon style="fill:#E1F1FB;" points="299.286,183.156 299.286,175.713 297.704,175.713 290.632,212.499 293.64,212.499 	"/>
	<polygon style="fill:#E1F1FB;" points="294.334,175.713 288.317,175.713 281.235,212.499 287.262,212.499 	"/>
</g>
<g>
	<path style="fill:#BBBBBB;" d="M499.299,335.799c0.65-1.992,1.283-3.992,1.886-6.006c0.013-0.043,0.028-0.086,0.041-0.129h-0.002
		h-35.695c-0.216,3.3-0.043,4.317-0.043,4.317l-7.482-1.524c0.755-0.708,1.321-1.672,1.74-2.794h-18.199H303.32h-22.28h-7.785v3.907
		h6.437v3.897h6.29v5.939h210.702c0.025-0.07,0.048-0.141,0.073-0.21c0.753-2.071,1.474-4.155,2.169-6.25
		C499.053,336.566,499.174,336.182,499.299,335.799z"/>
	<path style="fill:#BBBBBB;" d="M48.888,343.407c0-0.771,0-1.547,0-2.325c0-3.828,0-7.718,0-11.419H45.02l0.429,4.845
		c-0.352,4.229-0.137,5.47-0.137,5.47l-7.482-1.524c1.926-1.807,2.628-5.265,2.775-8.791h-29.83h-0.002
		c0.012,0.041,0.026,0.081,0.038,0.121c0.677,2.244,1.379,4.475,2.109,6.692c0.016,0.049,0.032,0.099,0.048,0.148
		c0.73,2.21,1.49,4.406,2.28,6.589c0.023,0.064,0.044,0.129,0.067,0.193h33.573V343.407z"/>
	<path style="fill:#BBBBBB;" d="M213.349,337.469h6.29v-3.897h6.437v-3.907h-7.785h-22.28h-37.476
		c3.319,3.31,6.579,6.611,9.471,9.623c0.462,0.016,4.124,1.74,8.498,4.12h36.844v-5.939H213.349z"/>
</g>
<g>
	<path style="fill:#606060;" d="M477.435,384.529c-0.003,0.004-0.005,0.008-0.007,0.013
		C477.43,384.537,477.432,384.533,477.435,384.529z"/>
	<path style="fill:#606060;" d="M447.351,426.044c-0.031,0.035-0.061,0.07-0.092,0.104
		C447.29,426.114,447.32,426.079,447.351,426.044z"/>
	<path style="fill:#606060;" d="M285.982,343.407h-72.634h-36.844c4.964,2.702,10.838,6.247,13.991,9.103
		c0.339-0.525,0.757-0.85,1.218-0.85c1.123,0,2.022,1.827,2.022,4.073c0,1.468-0.388,2.746-0.967,3.463c0,0.901,0,1.808,0,2.681
		c0,0.013,0,0.026,0,0.039h2.618c0,0,0,2.637,0,4.63s-0.879,1.993-2.608,1.993c-1.739,0-4.425,0-4.425,0l-0.12-0.615h-2.41
		l-0.248-0.908h-4.205c0.192,0.849,0.302,1.73,0.302,2.637c0,6.584-5.333,11.917-11.917,11.917c-6.593,0-11.927-5.333-11.927-11.917
		c0-0.908,0.11-1.788,0.302-2.637h-4.502l-0.156,0.908H89.2l-0.169-0.969c0,0.02,0.003,0.04,0.003,0.06h-4.56
		c0.192,0.849,0.302,1.73,0.302,2.637c0,6.584-5.333,11.917-11.917,11.917s-11.927-5.333-11.927-11.917
		c0-0.908,0.11-1.788,0.302-2.637h-4.348l-0.213,0.908h-2.625l-0.14,0.615c0,0-3.38,0-5.118,0c-1.729,0-2.618,0-2.618-1.993
		s0-4.63,0-4.63h2.715c0-0.014,0-0.025,0-0.039c0-3.638,0-8.612,0-14.075c0-1.437,0-2.907,0-4.396H15.316
		c0.006,0.016,0.012,0.031,0.018,0.047c5.261,14.471,11.795,28.33,19.459,41.449v-1.428h58.294v7.326H38.351
		c0.973,1.567,1.956,3.129,2.961,4.673c0.027,0.041,0.054,0.082,0.081,0.123c1.145,1.756,2.311,3.497,3.497,5.223
		c0.028,0.04,0.056,0.08,0.083,0.12c1.191,1.73,2.402,3.445,3.634,5.143c0.021,0.028,0.041,0.057,0.062,0.085
		c1.242,1.711,2.505,3.407,3.788,5.086c0.011,0.014,0.022,0.028,0.032,0.042c5.198,6.8,10.729,13.331,16.568,19.571H442.95
		c0.088-0.094,0.173-0.192,0.261-0.286c1.293-1.386,2.571-2.786,3.834-4.2c0.043-0.048,0.088-0.095,0.131-0.144h-48.074
		l-0.293-1.416l-0.029-5.91h54.659c0.604-0.731,1.214-1.456,1.81-2.193c0.203-0.252,0.406-0.503,0.608-0.755
		c1.122-1.4,2.229-2.812,3.322-4.236c0.208-0.271,0.416-0.541,0.622-0.812c1.081-1.419,2.145-2.851,3.197-4.294
		c0.203-0.279,0.408-0.557,0.61-0.837c1.047-1.448,2.077-2.909,3.094-4.38c0.194-0.28,0.39-0.559,0.582-0.84
		c1.019-1.486,2.019-2.985,3.007-4.493c0.178-0.272,0.358-0.541,0.535-0.813c0.958-1.475,1.897-2.963,2.825-4.459h-20.857v-7.326
		h25.233c0.821-1.427,1.637-2.858,2.431-4.303c0.06-0.109,0.122-0.216,0.181-0.324c6.198-11.308,11.567-23.135,16.025-35.398
		c0.005-0.014,0.011-0.028,0.016-0.042H285.982V343.407z M165.946,390.801h-58.285v-7.326h58.285V390.801z M238.804,390.801h-58.285
		v-7.326h58.285V390.801z M311.662,390.801h-58.285v-7.326h58.285V390.801z M384.53,390.801h-58.294v-7.326h58.294V390.801z
		 M398.498,348.018l27.174,0.01l2.979,7.316h-30.124L398.498,348.018z M398.547,359.837h31.941l2.979,7.326h-34.891L398.547,359.837
		z M398.596,371.656h36.698l2.979,7.326h-39.648L398.596,371.656z M398.644,383.475h41.464l2.979,7.326h-44.414L398.644,383.475z
		 M398.683,395.275h46.231l2.979,7.326h-49.171L398.683,395.275z M398.762,414.419l-0.02-7.326h50.978l2.989,7.326H398.762z"/>
	<path style="fill:#606060;" d="M473.855,390.484c0.127-0.205,0.255-0.408,0.382-0.613c0.137-0.223,0.267-0.451,0.404-0.674
		C474.378,389.626,474.118,390.056,473.855,390.484z"/>
	<path style="fill:#606060;" d="M154.507,361.878l-0.018,0.105c0.013-0.035,0.027-0.07,0.04-0.105H154.507z"/>
	<path style="fill:#606060;" d="M35.74,386.485c0.707,1.19,1.407,2.383,2.133,3.561c0.017,0.028,0.035,0.056,0.052,0.084
		c0.058,0.094,0.119,0.185,0.177,0.279C37.304,389.112,36.522,387.799,35.74,386.485z"/>
</g>
<g>
	<path style="fill:#FFFFFF;" d="M93.087,390.801v-7.326H34.793v1.428v0.005v0.003c0.031,0.052,0.063,0.102,0.093,0.154
		c0.28,0.478,0.572,0.944,0.854,1.419c0.781,1.314,1.563,2.627,2.362,3.924c0.024,0.039,0.047,0.08,0.072,0.119
		c0.056,0.09,0.109,0.183,0.165,0.274h0.006h0.006H93.087z"/>
	<rect x="107.66" y="383.48" style="fill:#FFFFFF;" width="58.28" height="7.326"/>
	<rect x="180.52" y="383.48" style="fill:#FFFFFF;" width="58.28" height="7.326"/>
	<rect x="253.38" y="383.48" style="fill:#FFFFFF;" width="58.28" height="7.326"/>
	<rect x="326.24" y="383.48" style="fill:#FFFFFF;" width="58.29" height="7.326"/>
	<path style="fill:#FFFFFF;" d="M452.797,383.475v7.326h20.857h0.002h0.006c0.065-0.105,0.128-0.211,0.193-0.317
		c0.264-0.428,0.523-0.859,0.785-1.287c0.346-0.566,0.694-1.132,1.037-1.7c0.591-0.979,1.172-1.966,1.75-2.955
		c0.003-0.004,0.005-0.008,0.007-0.013c0.206-0.352,0.418-0.7,0.622-1.054h-0.002h-0.024L452.797,383.475L452.797,383.475z"/>
</g>
<path style="fill:#7CB142;" d="M69.059,430.868h-0.004h-0.006c0.069,0.073,0.14,0.144,0.208,0.217
	c1.3,1.386,2.616,2.757,3.946,4.113c0.148,0.15,0.294,0.302,0.441,0.452c1.373,1.394,2.763,2.771,4.167,4.133
	c0.11,0.107,0.219,0.215,0.329,0.322c1.46,1.411,2.937,2.804,4.43,4.18c0.059,0.055,0.117,0.11,0.177,0.164
	c15.683,14.426,33.17,26.92,52.084,37.104c0.181,0.098,0.365,0.191,0.547,0.288c1.676,0.897,3.361,1.779,5.059,2.639
	c0.338,0.172,0.681,0.337,1.02,0.507c1.547,0.776,3.101,1.54,4.666,2.285c0.451,0.215,0.906,0.422,1.358,0.634
	c1.462,0.685,2.929,1.362,4.405,2.02c0.537,0.24,1.079,0.472,1.618,0.708c1.4,0.613,2.805,1.217,4.218,1.806
	c0.61,0.254,1.223,0.5,1.835,0.75c1.353,0.551,2.711,1.094,4.076,1.623c0.668,0.258,1.338,0.51,2.008,0.764
	c1.32,0.498,2.644,0.988,3.975,1.465c0.717,0.257,1.436,0.508,2.156,0.759c1.294,0.451,2.592,0.893,3.895,1.323
	c0.76,0.251,1.523,0.498,2.286,0.742c1.273,0.407,2.551,0.804,3.832,1.192c0.798,0.241,1.597,0.48,2.398,0.713
	c1.259,0.367,2.523,0.724,3.79,1.072c0.829,0.228,1.658,0.454,2.491,0.674c1.249,0.33,2.504,0.648,3.761,0.959
	c0.858,0.213,1.715,0.425,2.576,0.629c1.241,0.294,2.487,0.574,3.734,0.849c0.884,0.195,1.768,0.392,2.655,0.578
	c1.237,0.26,2.48,0.504,3.723,0.745c0.904,0.176,1.806,0.354,2.713,0.52c1.241,0.227,2.488,0.437,3.736,0.646
	c0.916,0.154,1.83,0.312,2.749,0.456c1.25,0.196,2.507,0.372,3.763,0.55c0.924,0.131,1.846,0.267,2.773,0.388
	c1.265,0.165,2.536,0.308,3.807,0.454c0.926,0.107,1.849,0.221,2.778,0.317c1.293,0.134,2.593,0.246,3.892,0.361
	c0.912,0.081,1.821,0.172,2.736,0.243c1.352,0.105,2.711,0.185,4.07,0.269c0.868,0.054,1.733,0.12,2.604,0.165
	c1.498,0.078,3.004,0.127,4.509,0.179c0.735,0.025,1.467,0.065,2.204,0.084c2.245,0.058,4.497,0.089,6.756,0.089
	s4.51-0.031,6.755-0.089c0.742-0.019,1.478-0.059,2.218-0.084c1.5-0.052,3.001-0.101,4.494-0.178
	c0.878-0.046,1.751-0.112,2.627-0.166c1.35-0.084,2.701-0.163,4.044-0.268c0.925-0.072,1.845-0.164,2.767-0.246
	c1.287-0.114,2.576-0.224,3.858-0.358c0.942-0.098,1.878-0.214,2.817-0.322c1.256-0.145,2.514-0.286,3.765-0.449
	c0.943-0.123,1.88-0.262,2.82-0.395c1.239-0.175,2.479-0.35,3.713-0.543c0.937-0.147,1.868-0.307,2.802-0.464
	c1.228-0.206,2.457-0.413,3.679-0.637c0.926-0.169,1.848-0.351,2.77-0.531c1.223-0.238,2.445-0.478,3.662-0.733
	c0.908-0.19,1.812-0.391,2.717-0.591c1.225-0.271,2.449-0.546,3.668-0.834c0.883-0.209,1.763-0.427,2.642-0.645
	c1.233-0.306,2.464-0.617,3.69-0.941c0.856-0.226,1.708-0.458,2.56-0.693c1.243-0.342,2.482-0.691,3.717-1.052
	c0.824-0.24,1.647-0.486,2.467-0.734c1.258-0.381,2.511-0.77,3.76-1.17c0.786-0.251,1.571-0.506,2.354-0.764
	c1.279-0.423,2.553-0.856,3.823-1.299c0.743-0.259,1.486-0.519,2.226-0.784c1.305-0.468,2.604-0.949,3.9-1.438
	c0.694-0.262,1.389-0.523,2.08-0.791c1.34-0.519,2.673-1.053,4.002-1.594c0.635-0.258,1.271-0.514,1.904-0.778
	c1.39-0.579,2.772-1.174,4.15-1.777c0.56-0.245,1.122-0.486,1.68-0.735c1.455-0.649,2.901-1.316,4.342-1.991
	c0.473-0.221,0.948-0.438,1.419-0.662c1.547-0.736,3.082-1.492,4.611-2.259c0.355-0.178,0.714-0.351,1.068-0.531
	c1.686-0.855,3.359-1.73,5.023-2.62c0.192-0.103,0.386-0.202,0.578-0.305c18.924-10.191,36.42-22.694,52.11-37.131
	c0.018-0.017,0.036-0.034,0.054-0.051c1.535-1.414,3.053-2.846,4.553-4.296c0.073-0.071,0.145-0.143,0.219-0.214
	c1.443-1.398,2.87-2.813,4.279-4.244c0.114-0.116,0.227-0.233,0.34-0.349c1.364-1.39,2.713-2.795,4.045-4.216
	c0.057-0.061,0.117-0.12,0.174-0.182H69.059V430.868z"/>
<path style="fill:#FFFFFF;" d="M352.413,107.329c0,8.273,6.701,14.984,14.984,14.984c1.114,0,2.188-0.117,3.223-0.352
	c2.276,2.247,5.392,3.624,8.84,3.624c3.673,0,6.984-1.573,9.279-4.093c2.256,2.1,5.275,3.389,8.605,3.389
	c3.487,0,6.652-1.426,8.938-3.722c2.276,2.295,5.441,3.722,8.938,3.722c5.724,0,10.549-3.819,12.083-9.045
	c1.778,0.967,3.809,1.504,5.978,1.504c6.945,0,12.581-5.626,12.581-12.581c0-6.945-5.636-12.581-12.581-12.581
	c-0.459,0-0.918,0.02-1.377,0.068c-1.367-3.643-4.386-6.476-8.146-7.599c-1.68-7.013-7.99-12.21-15.511-12.21
	c-4.337,0-8.273,1.729-11.155,4.552c-2.657-1.348-5.656-2.1-8.83-2.1c-10.119,0-18.461,7.658-19.526,17.504
	c-0.44-0.039-0.889-0.059-1.338-0.059C359.114,92.335,352.413,99.046,352.413,107.329z"/>
<circle style="fill:#FFFF00;" cx="340.99" cy="66.21" r="26.16"/>
<path style="fill:#9BCB64;" d="M30.583,295.213l-0.039-0.957c0.895-0.006,3.001,1.937,4.519,3.467
	c0.203-0.234,0.401-0.534,0.589-0.927c0,0-0.183,0.682-0.153,1.371c0.756,0.778,1.286,1.364,1.286,1.364
	c-0.948-3.8,0.225-9.006,0.225-9.006l0.674,0.85c-1.066,0.972-0.537,5.173,0.051,8.355c0.722,0.106,1.796,0.192,2.831-0.014
	c0.389,0.275,0.8,0.517,1.22,0.743c0.48-2.797-0.751-2.804-0.751-2.804l1.856-11.741l2.227,1.446
	c-0.993,6.45-0.897,11.004-0.373,14.198c1.309,0.289,2.688,0.365,4.095,0.17c1.221-0.166,2.374-0.518,3.429-1.016
	c0.02,0.008,0.048,0.02,0.071,0.029c-0.423-5.262-1.643-15.033-1.643-15.033l0.654-0.518c-0.569,1.462,2.295,12.923,3.41,17.246
	c0.169,0.062,0.354,0.119,0.576,0.16c0,0-0.373,0.258-0.372,0.625c0.024,0.094,0.047,0.179,0.068,0.259
	c0.03,0.059,0.064,0.119,0.119,0.181c0,0-0.026,0.015-0.062,0.038c0.064,0.243,0.101,0.382,0.101,0.382
	c1.162-1.807,2.774-13.626,2.774-13.626l1.778,1.055c-1.787,0.254-3.223,12.767-3.223,12.767c-0.316,0.084-0.83,0.396-1.471,0.86
	c0.441,0,0.918,0,1.423,0c0.026-0.044,0.052-0.085,0.077-0.137c0,0-0.014,0.058-0.029,0.137c2.664,0,6.18,0,10.243,0
	c0.496-0.131,1.702-0.531,1.224-1.221l-0.166-0.391l0.527-0.244l-0.049-0.342l-0.44,0.059l-0.029-0.215l0.586-0.313l0.488-0.068
	c0,0,0.479-0.693-0.322-0.508c0,0-0.606-0.303,0.469-0.84c0,0,0.273,0.459,0.703,0.293c0,0,1.231-0.928,0.059-1.114
	c0,0-0.381-0.791-1.182-0.146c0.127-0.117,0.557-0.518,0.44-0.996l0.293-0.039c0.947,0.664,2.129,0.987,3.37,0.82
	c0.498-0.068,0.957-0.215,1.397-0.42c0.557,0.264,2.989,1.192,3.311-1.397c0,0,2.041-0.43,1.436-1.289l-0.156-0.391l0.527-0.244
	l-0.049-0.342l-0.449,0.049l-0.029-0.195l0.586-0.322l0.498-0.068c0,0,0.479-0.703-0.332-0.518c0,0-0.606-0.303,0.479-0.83
	c0,0,0.264,0.449,0.703,0.283c0,0,1.231-0.938,0.059-1.133c0,0-0.381-0.781-1.192-0.137c0.176-0.146,0.84-0.781,0.166-1.426
	c0,0,1.26-0.488,0.43-1.211c0,0,1.172-0.967,0.381-2.1c-0.801-1.123-1.621-1.934-2.227-1.143c0,0-0.215-1.221-1.221-1.621
	c0.117-0.147,0.332-0.313,0.723-0.508c0,0,0.342,0.567,0.889,0.361c0,0,1.563-1.192,0.078-1.426c0,0-0.488-1.006-1.514-0.176
	c0.225-0.186,1.074-0.996,0.215-1.817c0,0,1.592-0.615,0.547-1.534c0,0,1.485-1.221,0.488-2.657
	c-1.016-1.426-2.061-2.452-2.833-1.455c0,0-0.479-2.745-3.204-2.11c-0.068-0.264,0.107-0.674,1.182-1.201
	c0,0,0.508,0.83,1.299,0.518c0,0,2.286-1.719,0.107-2.081c0,0-0.723-1.455-2.198-0.264c0.322-0.264,1.553-1.446,0.303-2.637
	c0,0,2.334-0.908,0.801-2.247c0,0,2.168-1.778,0.703-3.878c-1.475-2.09-2.999-3.585-4.122-2.12c0,0-0.838-4.698-5.753-2.742
	c-0.235,0.094-0.469,0.185-0.723,0.31c0,0-1.602-4.054-4.884,0.234c0,0-0.44-0.752-1.172-1.172c0.4-0.518,0.869-1.465,0.137-2.52
	c-1.104-1.582-2.266-2.715-3.126-1.612c0,0-0.684-3.907-4.903-1.836c0,0-1.221-3.067-3.702,0.176c0,0-0.977-1.67-2.383-0.879
	c0,0-2.09,0.01-1.436,1.407c0,0-2.217-1.231-2.872,0.391c0,0-1.26-0.889-1.778,0.576c0,0-2.295,0.283-1.602,2.54
	c-0.82,0.039-1.846,0.606-3.096,2.227c0,0-1.465-2.481-3.556-1.319c0,0-3.126,0.02-2.139,2.11c0,0-3.331-1.836-4.298,0.586
	c0,0-1.895-1.328-2.667,0.869c0,0-4.239,0.508-1.846,5.07c0,0-2.393-0.059-1.846,1.621c0,0-1.553,1.387,0.137,2.764
	c0,0-1.446,1.641-0.547,3.741c-0.205,0.107-0.352,0.293-0.234,0.645c0,0-0.742,0.654,0.059,1.319c0,0-0.908,1.035,0.02,2.247
	c0,0-0.02,0.088-0.02,0.215c-0.225-0.059-0.488-0.039-0.781,0.117c0,0-1.485,0.01-1.016,1.006c0,0-1.582-0.879-2.041,0.283
	c0,0-0.908-0.635-1.28,0.41c0,0-2.022,0.244-0.879,2.422c0,0-1.143-0.029-0.879,0.772c0,0-0.742,0.664,0.068,1.319
	c0,0-0.918,1.045,0.01,2.256c0,0-0.283,1.377,1.748,1.758c0,0-0.713,0.488-0.195,1.084c0,0-1.084,0.567-0.186,1.524
	c0,0,0.948,1.172,1.592-0.186c0,0-0.332,1.221,0.498,1.123c0,0,0.781,0.205,1.494,0.068c0.879,0.625,1.973,0.938,3.116,0.84
	c0.059,0.098,0.146,0.205,0.283,0.313c0,0-0.918,1.035,0.01,2.247c0,0-0.283,1.367,1.739,1.748c0,0-0.703,0.479-0.186,1.074
	c0,0-1.084,0.557-0.195,1.514c0,0,0.947,1.162,1.582-0.186c0,0-0.322,1.211,0.498,1.123c0,0,0.772,0.205,1.485,0.059
	c0.947,0.654,2.12,0.987,3.35,0.82c0.488-0.068,0.957-0.215,1.387-0.42c0.567,0.254,2.979,1.192,3.292-1.387
	c0,0,1.68-0.352,1.534-1.055c0.562,0.444,1.45,0.898,2.31,0.306C31.269,293.818,30.583,295.213,30.583,295.213z"/>
<g>
	<path style="fill:#4E342E;" d="M44.678,314.368c0,0,1.906-1.851,4.21-3.969c0-0.597,0-1.076,0-1.403c0-0.212,0-0.411,0-0.603
		c-0.31,0.518-0.674,0.836-0.957,0.193c0,0-2.263-1.389-3.187-7.027c-0.523-3.194-0.619-7.748,0.373-14.198l-2.227-1.446
		l-1.856,11.741c0,0,1.231,0.008,0.751,2.804c-0.01,0.06-0.017,0.113-0.028,0.175c0,0,2.266,7.101,1.905,7.805
		c0,0-0.537,3.37-2.012,2.383l-3.116-7.345c0,0-0.412-1.654-0.799-3.747c-0.588-3.182-1.117-7.383-0.051-8.355l-0.674-0.85
		c0,0-1.172,5.206-0.225,9.006c0,0-0.53-0.587-1.286-1.364c-0.139-0.143-0.284-0.29-0.436-0.444
		c-1.519-1.53-3.624-3.473-4.519-3.467l0.039,0.957c0,0,0.686-1.395,4.058,2.894c0.523,0.665,1.104,1.455,1.764,2.42
		c0,0,3.389,9.524,3.507,11.389c0,0-0.4,5.685-0.166,6.759c0,0,1.087,5.574,0.861,10.989c-0.147,3.526-0.849,6.984-2.775,8.791
		l7.482,1.524c0,0-0.215-1.241,0.137-5.47l-0.429-4.845l-0.782-8.82C44.238,320.844,44.024,315.823,44.678,314.368z"/>
	<path style="fill:#4E342E;" d="M59.74,291.511l-1.778-1.055c0,0-1.612,11.819-2.774,13.626c0,0-0.037-0.139-0.101-0.382
		c-0.017-0.064-0.037-0.14-0.057-0.219c-0.021-0.08-0.043-0.165-0.068-0.259c-0.059-0.225-0.126-0.486-0.204-0.785
		c-1.114-4.323-3.979-15.784-3.41-17.246l-0.654,0.518c0,0,1.22,9.771,1.643,15.033c0.136,1.689,0.19,2.917,0.095,3.204l-1.16,1.195
		c0.053-0.001,0.099-0.004,0.154-0.004c0.517,0,1.78,0,3.618,0c0.64-0.464,1.155-0.776,1.471-0.86
		C56.517,304.277,57.953,291.765,59.74,291.511z"/>
</g>
<path style="fill:#9BCB64;" d="M440.734,253.534c0,0-4.239,0.508-1.846,5.07c0,0-2.403-0.059-1.846,1.621
	c0,0-1.553,1.387,0.137,2.764c0,0-1.446,1.641-0.547,3.741c-0.205,0.107-0.352,0.293-0.234,0.645c0,0-0.752,0.664,0.059,1.319
	c0,0-0.918,1.045,0.02,2.247c0,0-0.02,0.088-0.02,0.215c-0.225-0.059-0.488-0.039-0.781,0.117c0,0-1.485,0.01-1.016,1.006
	c0,0-1.582-0.879-2.041,0.283c0,0-0.908-0.635-1.28,0.41c0,0-2.022,0.244-0.879,2.422c0,0-1.143-0.029-0.879,0.772
	c0,0-0.742,0.664,0.068,1.319c0,0-0.918,1.045,0.01,2.256c0,0-0.293,1.377,1.748,1.758c0,0-0.713,0.488-0.195,1.084
	c0,0-1.084,0.567-0.186,1.524c0,0,0.947,1.172,1.592-0.186c0,0-0.332,1.221,0.498,1.123c0,0,0.781,0.205,1.495,0.068
	c0.879,0.625,1.973,0.938,3.116,0.84c0.059,0.098,0.147,0.205,0.273,0.313c0,0-0.908,1.035,0.02,2.247c0,0-0.283,1.367,1.739,1.748
	c0,0-0.703,0.479-0.186,1.074c0,0-1.084,0.557-0.195,1.514c0,0,0.947,1.162,1.582-0.186c0,0-0.332,1.211,0.498,1.123
	c0,0,0.036,0.009,0.088,0.02c0.216,0.047,0.822,0.156,1.397,0.038c0.938,0.654,2.12,0.987,3.341,0.82
	c0.498-0.068,0.967-0.215,1.397-0.42c0.567,0.254,2.979,1.192,3.292-1.387c0,0,1.68-0.352,1.534-1.055
	c0.562,0.444,1.45,0.898,2.31,0.306c-3.372-4.289-4.058-2.894-4.058-2.894l-0.039-0.957c0.895,0,2.999,1.941,4.518,3.468
	c0.203-0.234,0.402-0.535,0.59-0.929c0,0-0.183,0.683-0.153,1.373c0.756,0.777,1.286,1.362,1.286,1.362
	c-0.947-3.8,0.225-9.006,0.225-9.006l0.674,0.85c-1.066,0.972-0.537,5.173,0.051,8.355c0.722,0.106,1.796,0.192,2.831-0.014
	c0.386,0.274,0.794,0.514,1.212,0.739c0.487-2.792-0.743-2.8-0.743-2.8l1.856-11.741l2.227,1.446
	c-0.992,6.448-0.897,11.002-0.374,14.198c1.309,0.29,2.688,0.365,4.096,0.171c1.221-0.166,2.374-0.518,3.428-1.016
	c0.02,0.008,0.048,0.02,0.071,0.029c-0.423-5.262-1.643-15.033-1.643-15.033l0.654-0.518c-0.57,1.463,2.3,12.941,3.412,17.256
	c0.169,0.062,0.353,0.118,0.573,0.16c0,0-0.36,0.243-0.377,0.595c0.029,0.111,0.055,0.212,0.079,0.303
	c0.028,0.051,0.055,0.103,0.103,0.157c0,0-0.022,0.012-0.053,0.032c0.065,0.247,0.102,0.388,0.102,0.388
	c1.162-1.807,2.764-13.626,2.764-13.626l1.788,1.065c-1.788,0.244-3.223,12.757-3.223,12.757c-0.328,0.087-0.872,0.422-1.547,0.916
	c0.062,0.074,0.945,1.099,1.567-0.183c0,0-0.322,1.201,0.498,1.114c0,0,0.772,0.205,1.485,0.059c0.938,0.664,2.12,0.987,3.35,0.82
	c0.488-0.068,0.957-0.205,1.387-0.42c0.567,0.264,2.979,1.192,3.302-1.397c0,0,2.022-0.41,1.426-1.27l-0.166-0.391l0.527-0.244
	l-0.049-0.342L488.03,297l-0.03-0.214l0.586-0.313l0.488-0.068c0,0,0.479-0.693-0.322-0.508c0,0-0.606-0.303,0.469-0.84
	c0,0,0.273,0.459,0.694,0.293c0,0,1.24-0.928,0.059-1.114c0,0-0.371-0.791-1.172-0.146c0.127-0.107,0.557-0.518,0.44-0.987
	l0.293-0.049c0.947,0.664,2.129,0.987,3.37,0.82c0.488-0.068,0.957-0.215,1.397-0.42c0.557,0.264,2.989,1.192,3.302-1.397
	c0,0,2.051-0.43,1.446-1.289l-0.166-0.391l0.527-0.244l-0.039-0.342l-0.449,0.049l-0.039-0.195l0.596-0.322l0.498-0.068
	c0,0,0.479-0.703-0.342-0.518c0,0-0.596-0.303,0.488-0.83c0,0,0.264,0.449,0.703,0.283c0,0,1.231-0.938,0.059-1.133
	c0,0-0.391-0.781-1.192-0.137c0.176-0.146,0.84-0.781,0.166-1.426c0,0,1.26-0.488,0.43-1.211c0,0,1.172-0.967,0.381-2.09
	c-0.801-1.133-1.621-1.944-2.227-1.153c0,0-0.215-1.211-1.221-1.621c0.107-0.147,0.332-0.313,0.723-0.508
	c0,0,0.342,0.567,0.889,0.361c0,0,1.563-1.182,0.068-1.426c0,0-0.488-1.006-1.504-0.176c0.225-0.186,1.074-0.996,0.215-1.817
	c0,0,1.592-0.615,0.537-1.534c0,0,1.495-1.221,0.498-2.657c-1.016-1.426-2.061-2.452-2.833-1.455c0,0-0.479-2.745-3.204-2.11
	c-0.068-0.264,0.098-0.674,1.182-1.201c0,0,0.508,0.83,1.299,0.518c0,0,2.276-1.719,0.107-2.081c0,0-0.723-1.455-2.198-0.254
	c0.313-0.273,1.553-1.455,0.303-2.647c0,0,2.335-0.908,0.791-2.247c0,0,2.178-1.778,0.713-3.878c-1.475-2.09-2.999-3.575-4.132-2.12
	c0,0-0.899-5.177-6.466-2.432c0,0-1.602-4.054-4.884,0.234c0,0-0.44-0.752-1.182-1.172c0.41-0.518,0.879-1.465,0.146-2.52
	c-1.104-1.582-2.266-2.715-3.126-1.612c0,0-0.684-3.907-4.904-1.836c0,0-1.221-3.067-3.702,0.176c0,0-0.977-1.67-2.383-0.879
	c0,0-2.09,0.01-1.436,1.407c0,0-2.227-1.231-2.872,0.391c0,0-1.27-0.889-1.787,0.576c0,0-2.286,0.283-1.592,2.549
	c-0.82,0.029-1.856,0.596-3.096,2.217c0,0-1.465-2.481-3.565-1.319c0,0-3.116,0.02-2.139,2.11c0,0-3.321-1.836-4.288,0.586
	c0,0-1.01-0.703-1.856-0.229C441.233,252.61,440.942,252.941,440.734,253.534z"/>
<path style="fill:#4E342E;" d="M464.411,314.846c0,0-0.215-5.021,0.43-6.476c0,0,6.875-6.67,10.301-9.175
	c0.675-0.494,1.219-0.829,1.547-0.916c0,0,1.436-12.513,3.223-12.757l-1.788-1.065c0,0-1.602,11.819-2.764,13.626
	c0,0-0.037-0.14-0.102-0.388c-0.015-0.056-0.032-0.122-0.049-0.189c-0.024-0.092-0.05-0.192-0.079-0.303
	c-0.057-0.219-0.122-0.468-0.196-0.755c-1.113-4.315-3.982-15.793-3.412-17.256l-0.654,0.518c0,0,1.22,9.771,1.643,15.033
	c0.136,1.689,0.19,2.917,0.095,3.204l-2.911,2.999c0,0-0.996,3.018-1.592,1.651c0,0-2.263-1.393-3.187-7.037
	c-0.523-3.196-0.618-7.75,0.374-14.198l-2.227-1.446l-1.856,11.741c0,0,1.23,0.008,0.743,2.8c-0.011,0.061-0.017,0.116-0.03,0.179
	c0,0,2.266,7.101,1.914,7.804c0,0-0.537,3.37-2.022,2.383l-3.106-7.345c0,0-0.412-1.654-0.799-3.747
	c-0.588-3.182-1.117-7.383-0.051-8.355l-0.674-0.85c0,0-1.172,5.206-0.225,9.006c0,0-0.53-0.586-1.286-1.362
	c-0.139-0.143-0.285-0.291-0.437-0.444c-1.519-1.528-3.623-3.468-4.518-3.468l0.039,0.957c0,0,0.686-1.395,4.058,2.894
	c0.523,0.665,1.104,1.455,1.764,2.42c0,0,3.38,9.524,3.507,11.389c0,0-0.401,5.685-0.166,6.759c0,0,2.113,10.862-0.174,16.986
	c-0.419,1.122-0.985,2.086-1.74,2.794l7.482,1.524c0,0-0.173-1.017,0.043-4.317c0.024-0.359,0.05-0.737,0.084-1.153L464.411,314.846
	z"/>
<g>
	<polygon style="fill:#FFFFFF;" points="226.076,329.664 226.076,333.571 219.639,333.571 219.639,337.469 213.349,337.469 
		213.349,343.407 285.982,343.407 285.982,337.469 279.692,337.469 279.692,333.571 273.255,333.571 273.255,329.664 
		249.666,329.664 	"/>
	<polygon style="fill:#FFFFFF;" points="435.293,371.656 398.596,371.656 398.625,378.982 438.272,378.982 	"/>
	<polygon style="fill:#FFFFFF;" points="440.109,383.475 398.644,383.475 398.674,390.801 443.088,390.801 	"/>
	<polygon style="fill:#FFFFFF;" points="444.915,395.275 398.683,395.275 398.723,402.6 447.894,402.6 	"/>
	<path style="fill:#FFFFFF;" d="M398.781,418.913l0.029,5.91l0.293,1.416h48.074h0.003c0.026-0.03,0.052-0.06,0.079-0.09
		c0.031-0.035,0.061-0.07,0.092-0.104c0.13-0.147,0.258-0.295,0.387-0.442c0.821-0.929,1.64-1.86,2.451-2.797
		c1.114-1.287,2.218-2.583,3.301-3.893h-0.01h-0.041H398.781z"/>
	<polygon style="fill:#FFFFFF;" points="425.672,348.028 398.498,348.018 398.527,355.344 428.651,355.344 	"/>
	<polygon style="fill:#FFFFFF;" points="398.742,407.094 398.762,414.419 452.709,414.419 449.72,407.094 	"/>
	<polygon style="fill:#FFFFFF;" points="430.488,359.837 398.547,359.837 398.576,367.163 433.467,367.163 	"/>
</g>
<polygon style="fill:#747474;" points="320.756,110.161 320.756,92.267 178.575,92.267 178.575,110.161 182.844,110.161 
	316.487,110.161 "/>
<g>
	<polygon style="fill:#B9DDF9;" points="227.112,277.504 222.189,277.504 232.504,326.861 237.417,326.861 	"/>
	<polygon style="fill:#B9DDF9;" points="219.893,287.496 219.893,326.861 228.118,326.861 	"/>
	<polygon style="fill:#B9DDF9;" points="248.064,277.504 235.873,277.504 246.188,326.861 248.064,326.861 	"/>
</g>
<g>
	<polygon style="fill:#E1F1FB;" points="222.189,277.504 219.893,277.504 219.893,287.496 228.118,326.861 232.504,326.861 	"/>
	<polygon style="fill:#E1F1FB;" points="235.873,277.504 227.112,277.504 237.417,326.861 246.188,326.861 	"/>
</g>
<path style="fill:#785448;" d="M281.04,274.701h-31.374h-31.374v54.964h7.785h23.589h23.589h7.785L281.04,274.701L281.04,274.701z
	 M246.188,326.861h-8.771h-4.913h-4.386h-8.224v-39.364v-9.992h2.295h4.923h8.762h12.19v49.357h-1.876V326.861z M275.804,326.861
	h-8.185h-4.581h-4.093h-7.677v-24.405c-0.185,0.105-0.387,0.18-0.615,0.18c-0.713,0-1.28-0.567-1.28-1.27
	c0-0.713,0.567-1.28,1.28-1.28c0.228,0,0.431,0.076,0.615,0.181v-12.772v-9.992h2.149h4.581h8.185h13.255v49.357h-3.634V326.861z"/>
<g>
	<polygon style="fill:#B9DDF9;" points="279.438,277.504 266.183,277.504 275.804,326.861 279.438,326.861 	"/>
	<polygon style="fill:#B9DDF9;" points="257.998,277.504 253.416,277.504 263.038,326.861 267.619,326.861 	"/>
	<path style="fill:#B9DDF9;" d="M251.268,287.496v12.772c0.385,0.219,0.654,0.617,0.654,1.099c0,0.475-0.27,0.871-0.654,1.089
		v24.405h7.677L251.268,287.496z"/>
</g>
<g>
	<polygon style="fill:#E1F1FB;" points="266.183,277.504 257.998,277.504 267.619,326.861 275.804,326.861 	"/>
	<polygon style="fill:#E1F1FB;" points="253.416,277.504 251.268,277.504 251.268,287.496 258.945,326.861 263.038,326.861 	"/>
</g>
<path style="fill:#9F877E;" d="M251.922,301.367c0-0.482-0.27-0.88-0.654-1.099c-0.185-0.105-0.387-0.181-0.615-0.181
	c-0.713,0-1.28,0.567-1.28,1.28c0,0.703,0.567,1.27,1.28,1.27c0.228,0,0.431-0.076,0.615-0.18
	C251.652,302.238,251.922,301.842,251.922,301.367z M250.242,301.249c-0.225,0-0.42-0.195-0.42-0.42c0-0.234,0.195-0.42,0.42-0.42
	c0.234,0,0.42,0.186,0.42,0.42C250.662,301.054,250.476,301.249,250.242,301.249z"/>
<path style="fill:#FFF7C3;" d="M250.242,300.409c-0.225,0-0.42,0.186-0.42,0.42c0,0.225,0.195,0.42,0.42,0.42
	c0.234,0,0.42-0.195,0.42-0.42C250.662,300.595,250.476,300.409,250.242,300.409z"/>
<path style="fill:#B1E9F1;" d="M249.666,162.146c12.22,0,22.124-9.905,22.124-22.124c0-12.21-9.905-22.114-22.124-22.114
	c-12.21,0-22.114,9.905-22.114,22.114C227.551,152.241,237.456,162.146,249.666,162.146z M236.411,134.952h9.543v-9.543h9.24v9.543
	h9.553v9.24h-9.553v9.543h-9.24v-9.543h-9.543L236.411,134.952L236.411,134.952z"/>
<polygon style="fill:#FF3C00;" points="245.954,153.736 255.194,153.736 255.194,144.193 264.747,144.193 264.747,134.952 
	255.194,134.952 255.194,125.409 245.954,125.409 245.954,134.952 236.411,134.952 236.411,144.193 245.954,144.193 "/>
<polygon style="fill:#747474;" points="316.487,232.523 182.844,232.523 182.844,250.261 196.011,250.261 303.32,250.261 
	316.487,250.261 "/>
<path style="fill:#DB2C00;" d="M114.928,298.7h-4.131h-1.837c-0.889,0-1.612,0.723-1.612,1.612v2.608h9.182v-2.608
	C116.53,299.423,115.817,298.7,114.928,298.7z"/>
<path style="fill:#747474;" d="M118.83,303.545c-0.415-0.385-0.967-0.625-1.577-0.625h-0.723h-9.182h-0.283h-0.616
	c-0.609,0-1.161,0.24-1.577,0.625c-0.432,0.401-0.708,0.961-0.737,1.592c5.787,0,11.129,0,15.431,0
	C119.538,304.506,119.262,303.945,118.83,303.545z"/>
<path style="fill:#64B3F5;" d="M137.485,309.15c7.153,7.658,27.786,30.135,27.786,30.135c1.778,0,2.032,0,2.725,0
	c0.002,0,0.008,0.002,0.01,0.002c-2.892-3.013-6.152-6.313-9.471-9.623c-3.052-3.044-6.152-6.093-9.066-8.938
	C144.559,315.933,140.182,311.728,137.485,309.15z"/>
<path style="fill:#F9F9F9;" d="M168.007,339.287c-0.002,0-0.008-0.002-0.01-0.002c-0.694,0-0.948,0-2.725,0
	c0,0-20.633-22.477-27.786-30.135c-1.337-1.431-2.205-2.347-2.377-2.499c-1.7-1.514-2.051-1.514-5.294-1.514
	c-0.479,0-2.431,0-5.411,0c-1.4,0-3.023,0-4.836,0c-4.302,0-9.644,0-15.431,0c-3.579,0-7.326,0-11.107,0c-9.259,0-18.7,0-26.269,0
	c-4.063,0-7.579,0-10.243,0c-0.016,0-0.032,0-0.048,0c-0.505,0-0.982,0-1.423,0c-1.838,0-3.101,0-3.618,0
	c-0.055,0-0.102,0.003-0.154,0.004c-2.287,0.037-2.385,0.884-2.385,3.251c0,0.192,0,0.391,0,0.603c0,0.328,0,0.806,0,1.403
	c0,3.385,0,10.821,0,19.265c0,3.7,0,7.591,0,11.419h111.461v6.72H48.888c0,5.463,0,10.438,0,14.075c0,0.014,0,0.025,0,0.039h6.525
	l-1.364,6.007h2.625l0.213-0.908h-0.203c0-8.459,7.238-15.355,16.176-15.355c8.906,0,16.138,6.864,16.172,15.295l0.169,0.969h64.272
	l0.156-0.908h-0.048c0-1.764,0.331-3.453,0.91-5.033l0.018-0.105h0.022c2.23-5.94,8.193-10.217,15.225-10.217
	c8.928,0,16.176,6.896,16.176,15.355h-0.355l0.248,0.908h2.41l-1.17-6.007h5.704c0-0.013,0-0.026,0-0.039c0-0.874,0-1.78,0-2.681
	c-0.307,0.38-0.666,0.611-1.055,0.611c-1.114,0-2.012-1.827-2.012-4.073c0-1.318,0.314-2.479,0.794-3.224
	c-3.153-2.857-9.026-6.402-13.991-9.103C172.13,341.027,168.469,339.303,168.007,339.287z M94.992,308.663
	c0-0.313,0.264-0.576,0.586-0.576h20.932c0.322,0,0.586,0.264,0.586,0.576v29.938c0,0.322-0.264,0.576-0.586,0.576H95.578
	c-0.322,0-0.586-0.254-0.586-0.576C94.992,338.601,94.992,308.663,94.992,308.663z M130.742,307.501c1.885,0,2.725,0,3.927,1.309
	c1.104,1.192,24.537,30.368,24.537,30.368h-35.125v-31.677C124.081,307.501,128.867,307.501,130.742,307.501z M67.574,315.911h5.695
	c0.391,0,0.703,0.313,0.703,0.694v5.519h5.519c0.381,0,0.694,0.313,0.694,0.703v5.695c0,0.391-0.313,0.703-0.694,0.703h-5.519v5.519
	c0,0.381-0.313,0.693-0.703,0.693h-5.695c-0.391,0-0.703-0.313-0.703-0.693v-5.519h-5.509c-0.391,0-0.703-0.313-0.703-0.703v-5.695
	c0-0.391,0.313-0.703,0.703-0.703h5.509v-5.519C66.871,316.224,67.183,315.911,67.574,315.911z"/>
<g>
	<path style="fill:#64B3F5;" d="M124.081,339.178h35.125c0,0-23.433-29.177-24.537-30.368c-1.201-1.309-2.042-1.309-3.927-1.309
		c-1.875,0-6.662,0-6.662,0v31.677H124.081z"/>
	<path style="fill:#64B3F5;" d="M95.578,339.178h20.932c0.322,0,0.586-0.254,0.586-0.576v-29.938c0-0.313-0.264-0.576-0.586-0.576
		H95.578c-0.322,0-0.586,0.264-0.586,0.576v29.938C94.992,338.924,95.256,339.178,95.578,339.178z"/>
</g>
<path style="fill:#747474;" d="M188.233,367.925l0.12,0.615c0,0,2.686,0,4.425,0c1.729,0,2.608,0,2.608-1.993s0-4.63,0-4.63h-2.618
	h-5.704L188.233,367.925z"/>
<path style="fill:#DB2C00;" d="M66.871,322.123h-5.509c-0.391,0-0.703,0.313-0.703,0.703v5.695c0,0.391,0.313,0.703,0.703,0.703
	h5.509v5.519c0,0.381,0.313,0.693,0.703,0.693h5.695c0.391,0,0.703-0.313,0.703-0.693v-5.519h5.519c0.381,0,0.694-0.313,0.694-0.703
	v-5.695c0-0.391-0.313-0.703-0.694-0.703h-5.519v-5.519c0-0.381-0.313-0.694-0.703-0.694h-5.695c-0.391,0-0.703,0.313-0.703,0.694
	V322.123z"/>
<g>
	<path style="fill:#747474;" d="M72.858,351.661c-8.938,0-16.176,6.896-16.176,15.355h0.203h4.348
		c1.202-5.32,5.947-9.289,11.624-9.289c5.677,0,10.416,3.969,11.615,9.289h4.56c0-0.02-0.003-0.04-0.003-0.06
		C88.996,358.525,81.765,351.661,72.858,351.661z"/>
	<path style="fill:#747474;" d="M169.755,351.661c-7.032,0-12.995,4.277-15.225,10.217c-0.013,0.035-0.028,0.07-0.04,0.105
		c-0.579,1.58-0.91,3.269-0.91,5.033h0.048h4.502c1.2-5.32,5.939-9.289,11.625-9.289c5.677,0,10.416,3.969,11.615,9.289h4.205h0.355
		C185.931,358.557,178.683,351.661,169.755,351.661z"/>
	<path style="fill:#747474;" d="M48.888,361.917h-2.715c0,0,0,2.637,0,4.63s0.889,1.993,2.618,1.993c1.739,0,5.118,0,5.118,0
		l0.14-0.615l1.364-6.007h-6.525V361.917z"/>
</g>
<path style="fill:#BBBBBB;" d="M191.713,359.808c0.389,0,0.748-0.231,1.055-0.611c0.58-0.717,0.967-1.994,0.967-3.463
	c0-2.247-0.899-4.073-2.022-4.073c-0.46,0-0.879,0.324-1.218,0.85c-0.48,0.745-0.794,1.906-0.794,3.224
	C189.701,357.981,190.6,359.808,191.713,359.808z"/>
<path style="fill:#424242;" d="M72.858,357.727c-5.677,0-10.423,3.969-11.624,9.289c-0.192,0.849-0.302,1.73-0.302,2.637
	c0,6.584,5.343,11.917,11.927,11.917c6.583,0,11.917-5.333,11.917-11.917c0-0.908-0.11-1.788-0.302-2.637
	C83.274,361.696,78.535,357.727,72.858,357.727z M79.998,369.654c0,3.946-3.194,7.14-7.14,7.14s-7.15-3.194-7.15-7.14
	c0-3.956,3.204-7.15,7.15-7.15C76.804,362.503,79.998,365.698,79.998,369.654z"/>
<path style="fill:#FFFFFF;" d="M72.858,362.503c-3.946,0-7.15,3.194-7.15,7.15c0,3.946,3.204,7.14,7.15,7.14s7.14-3.194,7.14-7.14
	C79.998,365.698,76.804,362.503,72.858,362.503z"/>
<path style="fill:#424242;" d="M169.755,357.727c-5.686,0-10.425,3.969-11.625,9.289c-0.192,0.849-0.302,1.73-0.302,2.637
	c0,6.584,5.333,11.917,11.927,11.917c6.583,0,11.917-5.333,11.917-11.917c0-0.908-0.11-1.788-0.302-2.637
	C180.171,361.696,175.432,357.727,169.755,357.727z M176.895,369.654c0,3.946-3.194,7.14-7.14,7.14s-7.15-3.194-7.15-7.14
	c0-3.956,3.204-7.15,7.15-7.15C173.701,362.503,176.895,365.698,176.895,369.654z"/>
<path style="fill:#FFFFFF;" d="M169.755,362.503c-3.946,0-7.15,3.194-7.15,7.15c0,3.946,3.204,7.14,7.15,7.14s7.14-3.194,7.14-7.14
	C176.895,365.698,173.701,362.503,169.755,362.503z"/>
<path style="fill:#FF3C00;" d="M160.349,341.083H48.888c0,0.778,0,1.554,0,2.325c0,1.489,0,2.958,0,4.396h111.461V341.083z"/>
<g>
</g>
<g>
</g>
<g>
</g>
<g>
</g>
<g>
</g>
<g>
</g>
<g>
</g>
<g>
</g>
<g>
</g>
<g>
</g>
<g>
</g>
<g>
</g>
<g>
</g>
<g>
</g>
<g>
</g>
</svg>
