<?xml version="1.0" encoding="iso-8859-1"?>
<!-- Generator: Adobe Illustrator 19.0.0, SVG Export Plug-In . SVG Version: 6.00 Build 0)  -->
<svg version="1.1" id="Layer_1" xmlns="http://www.w3.org/2000/svg" xmlns:xlink="http://www.w3.org/1999/xlink" x="0px" y="0px"
	 viewBox="0 0 512 512" style="enable-background:new 0 0 512 512;" xml:space="preserve">
<path style="fill:#B1E9F1;" d="M255.997,0C397.385,0,512,114.615,512,255.997C512,397.385,397.385,512,255.997,512
	C114.615,512,0,397.385,0,255.997C0,114.615,114.615,0,255.997,0z"/>
<path style="fill:#9BCB64;" d="M6.797,314.801h498.405C478.63,427.844,377.145,512,255.997,512S33.37,427.844,6.797,314.801z"/>
<path style="fill:#FFFFFF;" d="M195.156,58.259h121.688c7.637,0,13.882,6.246,13.882,13.882v257.793H181.274V72.141
	C181.274,64.504,187.519,58.259,195.156,58.259z"/>
<polygon style="fill:#E6E6E6;" points="181.274,165.032 117.081,165.032 117.081,329.934 181.274,329.934 "/>
<polygon style="fill:#785448;" points="240.371,142.386 271.629,142.386 271.629,101.566 240.371,101.566 "/>
<polygon style="fill:#B9DDF9;" points="241.968,140.302 270.032,140.302 270.032,103.65 241.968,103.65 "/>
<path style="fill:#E1F1FB;" d="M262.847,103.65l-10.272,36.652h-8.734l10.266-36.652H262.847z M257.47,140.302h4.367l8.194-29.238
	v-7.414h-2.289L257.47,140.302z"/>
<polygon style="fill:#785448;" points="194.586,142.386 225.844,142.386 225.844,101.566 194.586,101.566 "/>
<polygon style="fill:#B9DDF9;" points="196.177,140.302 224.247,140.302 224.247,103.65 196.177,103.65 "/>
<path style="fill:#E1F1FB;" d="M217.056,103.65l-10.266,36.652h-8.74l10.272-36.652H217.056z M211.685,140.302h4.367l8.194-29.238
	v-7.414h-2.295L211.685,140.302z"/>
<polygon style="fill:#785448;" points="285.059,142.386 316.316,142.386 316.316,101.566 285.059,101.566 "/>
<polygon style="fill:#B9DDF9;" points="286.65,140.302 314.719,140.302 314.719,103.65 286.65,103.65 "/>
<path style="fill:#E1F1FB;" d="M307.529,103.65l-10.266,36.652h-8.74l10.272-36.652H307.529z M302.158,140.302h4.367l8.194-29.238
	v-7.414h-2.289L302.158,140.302z"/>
<polygon style="fill:#785448;" points="240.371,194.821 271.629,194.821 271.629,154.002 240.371,154.002 "/>
<polygon style="fill:#B9DDF9;" points="241.968,192.737 270.032,192.737 270.032,156.086 241.968,156.086 "/>
<path style="fill:#E1F1FB;" d="M262.847,156.086l-10.272,36.652h-8.734l10.266-36.652H262.847z M257.47,192.737h4.367l8.194-29.238
	v-7.414h-2.289L257.47,192.737z"/>
<polygon style="fill:#785448;" points="194.586,194.821 225.844,194.821 225.844,154.002 194.586,154.002 "/>
<polygon style="fill:#B9DDF9;" points="196.177,192.737 224.247,192.737 224.247,156.086 196.177,156.086 "/>
<path style="fill:#E1F1FB;" d="M217.056,156.086l-10.266,36.652h-8.74l10.272-36.652H217.056z M211.685,192.737h4.367l8.194-29.238
	v-7.414h-2.295L211.685,192.737z"/>
<polygon style="fill:#785448;" points="285.059,194.821 316.316,194.821 316.316,154.002 285.059,154.002 "/>
<polygon style="fill:#B9DDF9;" points="286.65,192.737 314.719,192.737 314.719,156.086 286.65,156.086 "/>
<path style="fill:#E1F1FB;" d="M307.529,156.086l-10.266,36.652h-8.74l10.272-36.652H307.529z M302.158,192.737h4.367l8.194-29.238
	v-7.414h-2.289L302.158,192.737z"/>
<polygon style="fill:#785448;" points="240.371,247.251 271.629,247.251 271.629,206.438 240.371,206.438 "/>
<polygon style="fill:#B9DDF9;" points="241.968,245.173 270.032,245.173 270.032,208.521 241.968,208.521 "/>
<path style="fill:#E1F1FB;" d="M262.847,208.521l-10.272,36.652h-8.734l10.266-36.652H262.847z M257.47,245.173h4.367l8.194-29.238
	v-7.414h-2.289L257.47,245.173z"/>
<polygon style="fill:#785448;" points="194.586,247.251 225.844,247.251 225.844,206.438 194.586,206.438 "/>
<polygon style="fill:#B9DDF9;" points="196.177,245.173 224.247,245.173 224.247,208.521 196.177,208.521 "/>
<path style="fill:#E1F1FB;" d="M217.056,208.521l-10.266,36.652h-8.74l10.272-36.652H217.056z M211.685,245.173h4.367l8.194-29.238
	v-7.414h-2.295L211.685,245.173z"/>
<polygon style="fill:#785448;" points="285.059,247.251 316.316,247.251 316.316,206.438 285.059,206.438 "/>
<polygon style="fill:#B9DDF9;" points="286.65,245.173 314.719,245.173 314.719,208.521 286.65,208.521 "/>
<path style="fill:#E1F1FB;" d="M307.529,208.521l-10.266,36.652h-8.74l10.272-36.652H307.529z M302.158,245.173h4.367l8.194-29.238
	v-7.414h-2.289L302.158,245.173z"/>
<path style="fill:#FF7042;" d="M214.333,79.701h83.335c9.374,0,17.04-7.666,17.04-17.046l0,0c0-9.374-7.666-17.04-17.04-17.04
	h-83.335c-9.374,0-17.046,7.666-17.046,17.04l0,0C197.287,72.035,204.958,79.701,214.333,79.701z"/>
<polygon style="fill:#785448;" points="254.594,329.605 223.337,329.605 223.337,274.845 254.594,274.845 "/>
<polygon style="fill:#B9DDF9;" points="252.998,326.805 224.934,326.805 224.934,277.639 252.998,277.639 "/>
<path style="fill:#E1F1FB;" d="M232.124,277.639l10.266,49.166h8.734l-10.266-49.166H232.124z M237.495,326.805h-4.367
	l-8.194-39.217v-9.949h2.295L237.495,326.805z"/>
<polygon style="fill:#785448;" points="254.594,329.605 285.851,329.605 285.851,274.845 254.594,274.845 "/>
<polygon style="fill:#B9DDF9;" points="256.197,326.805 284.255,326.805 284.255,277.639 256.197,277.639 "/>
<path style="fill:#E1F1FB;" d="M262.9,277.639l9.586,49.166h8.153l-9.586-49.166H262.9z M267.913,326.805h-4.074l-7.643-39.217
	v-9.949h2.137L267.913,326.805z"/>
<path style="fill:#9F877E;" d="M255.574,300.133c0.704,0,1.274,0.569,1.274,1.274c0,0.704-0.569,1.274-1.274,1.274
	c-0.704,0-1.268-0.569-1.268-1.274C254.307,300.702,254.87,300.133,255.574,300.133z"/>
<path style="fill:#FFF7C3;" d="M255.169,300.456c0.235,0,0.423,0.188,0.423,0.417c0,0.229-0.188,0.417-0.423,0.417
	c-0.229,0-0.417-0.188-0.417-0.417C254.753,300.643,254.94,300.456,255.169,300.456z"/>
<polygon style="fill:#FFA98F;" points="204.019,283.797 305.239,283.797 285.851,266.463 223.337,266.463 "/>
<polygon style="fill:#FF7042;" points="204.019,283.797 305.239,283.797 305.239,291.41 204.019,291.41 "/>
<polygon style="fill:#785448;" points="133.551,217.561 164.803,217.561 164.803,176.742 133.551,176.742 "/>
<polygon style="fill:#B9DDF9;" points="135.142,215.477 163.212,215.477 163.212,178.832 135.142,178.832 "/>
<path style="fill:#E1F1FB;" d="M156.021,178.832l-10.266,36.646h-8.74l10.272-36.646H156.021z M150.645,215.477h4.373l8.194-29.232
	v-7.414h-2.295L150.645,215.477z"/>
<polygon style="fill:#E6E6E6;" points="394.919,165.032 330.726,165.032 330.726,329.934 394.919,329.934 "/>
<polygon style="fill:#785448;" points="133.78,278.661 165.037,278.661 165.037,237.842 133.78,237.842 "/>
<polygon style="fill:#B9DDF9;" points="135.377,276.577 163.441,276.577 163.441,239.925 135.377,239.925 "/>
<path style="fill:#E1F1FB;" d="M156.25,239.925l-10.266,36.652h-8.734l10.266-36.652H156.25z M150.879,276.577h4.367l8.194-29.238
	v-7.414h-2.289L150.879,276.577z"/>
<polygon style="fill:#785448;" points="346.54,217.561 377.791,217.561 377.791,176.742 346.54,176.742 "/>
<polygon style="fill:#B9DDF9;" points="348.131,215.477 376.2,215.477 376.2,178.832 348.131,178.832 "/>
<path style="fill:#E1F1FB;" d="M369.01,178.832l-10.266,36.646h-8.74l10.272-36.646H369.01z M363.639,215.477h4.367l8.194-29.232
	v-7.414h-2.289L363.639,215.477z"/>
<polygon style="fill:#785448;" points="346.769,278.661 378.026,278.661 378.026,237.842 346.769,237.842 "/>
<polygon style="fill:#B9DDF9;" points="348.365,276.577 376.429,276.577 376.429,239.925 348.365,239.925 "/>
<path style="fill:#E1F1FB;" d="M369.239,239.925l-10.266,36.652h-8.734l10.266-36.652H369.239z M363.868,276.577h4.367l8.194-29.238
	v-7.414h-2.289L363.868,276.577z"/>
<path style="fill:#FFFFFF;" d="M209.649,72.757V52.553h4.085v7.96h7.96v-7.96h4.091v20.204h-4.091v-8.828h-7.96v8.828H209.649z
	 M229.172,62.778c0-2.06,0.311-3.792,0.927-5.189c0.458-1.033,1.086-1.955,1.884-2.776c0.792-0.816,1.661-1.421,2.606-1.826
	c1.262-0.528,2.718-0.798,4.361-0.798c2.982,0,5.359,0.927,7.15,2.776c1.79,1.849,2.683,4.426,2.683,7.719
	c0,3.27-0.892,5.829-2.665,7.672c-1.773,1.849-4.144,2.771-7.108,2.771c-3.005,0-5.4-0.922-7.173-2.759
	C230.064,68.537,229.172,66.007,229.172,62.778z M233.375,62.643c0,2.289,0.534,4.027,1.591,5.212
	c1.062,1.18,2.407,1.773,4.033,1.773c1.632,0,2.964-0.587,4.015-1.761c1.045-1.174,1.567-2.935,1.567-5.283
	c0-2.319-0.511-4.044-1.532-5.183c-1.01-1.145-2.366-1.714-4.05-1.714c-1.685,0-3.046,0.581-4.074,1.732
	C233.897,58.575,233.375,60.313,233.375,62.643z M256.508,72.757V55.969h-5.981v-3.416h16.031v3.416h-5.958v16.788H256.508z
	 M269.198,72.757V52.553h14.951v3.416H273.29v4.485h10.102v3.416H273.29v5.477h11.258v3.41H269.198z M288.135,72.757V52.729h4.091
	v16.618h10.126v3.41H288.135z"/>
<path style="fill:#689D38;" d="M394.919,292.232v22.57h110.283c1.737-7.402,3.146-14.933,4.232-22.57H394.919z M6.797,314.801
	c-1.737-7.402-3.152-14.933-4.232-22.57h114.515v22.57H6.797z"/>
<path style="fill:#FFFFFF;" d="M173.038,329.934h7.044l-20.415,163.3c-2.248-0.91-4.485-1.861-6.698-2.829L173.038,329.934z"/>
<path style="fill:#969696;" d="M152.975,490.405l20.063-160.471h-55.958v-15.133H6.797C25.334,393.634,80.3,458.414,152.975,490.405
	z"/>
<g>
	<path style="fill:#BBBBBB;" d="M22.517,354.922c0,1.145-0.616,2.148-1.538,2.694c-0.898-2.078-1.779-4.168-2.618-6.275h1.033
		c1.726,0,3.123,1.397,3.123,3.123V354.922z"/>
	<path style="fill:#FFB100;" d="M16.383,346.258c13.09-7.69,39.052-22.687,63.946-15.884c0,0,5.805,1.385,15.097,9.075
		c0,0,50.804-2.835,60.096,12.708c0,0-4.942,8.376-42.915,10.302c0,0-61.581,0.616-77.559,0.182c0,0-4.925,0.475-11.658-3.727
		l-2.542-1.591C19.277,353.678,17.792,349.986,16.383,346.258z"/>
	<path style="fill:#333333;" d="M37.966,362.94l27.365,0.153c0-4.813-2.506-9.832-6.293-11.751H44.253
		C40.473,353.261,37.966,358.133,37.966,362.94z"/>
	<path style="fill:#424242;" d="M40.121,362.336c0,6.363,5.165,11.523,11.528,11.523s11.528-5.16,11.528-11.523
		c0-6.375-5.165-11.388-11.528-11.388S40.121,355.961,40.121,362.336z"/>
	<path style="fill:#FFFFFF;" d="M42.85,362.336c0,4.854,3.945,8.793,8.799,8.793s8.799-3.939,8.799-8.793
		c0-4.86-3.945-8.799-8.799-8.799S42.85,357.475,42.85,362.336z"/>
	<path style="fill:#BBBBBB;" d="M44.646,362.336c0,3.862,3.14,6.997,7.003,6.997s6.997-3.135,6.997-6.997
		c0-3.868-3.135-7.003-6.997-7.003S44.646,358.467,44.646,362.336z"/>
	<path style="fill:#333333;" d="M133.152,360.41c0.464-0.188,2.154-0.241,2.143-0.364c-0.458-5.799-6.692-11.276-13.477-11.276
		c-7.555,0-13.683,5.993-13.683,13.689l25.211,0.047L133.152,360.41z"/>
	<path style="fill:#424242;" d="M110.289,362.506c0,6.363,5.165,11.528,11.528,11.528c6.369,0,11.528-5.165,11.528-11.528
		c0-6.369-5.16-11.528-11.528-11.528C115.455,350.978,110.289,356.137,110.289,362.506z"/>
	<path style="fill:#FFFFFF;" d="M113.019,362.506c0,4.854,3.939,8.793,8.799,8.793c4.86,0,8.799-3.939,8.799-8.793
		c0-4.86-3.939-8.793-8.799-8.793C116.957,353.713,113.019,357.646,113.019,362.506z"/>
	<path style="fill:#BBBBBB;" d="M114.821,362.506c0,3.862,3.135,6.991,6.997,6.991c3.862,0,6.997-3.129,6.997-6.991
		c0-3.868-3.135-7.003-6.997-7.003C117.955,355.503,114.821,358.638,114.821,362.506z"/>
	<g>
		<path style="fill:#FFFFFF;" d="M52.929,340.911l-4.443-9.451c-8.77,2.501-16.823,6.31-23.421,9.867
			C44.112,342.889,52.929,340.911,52.929,340.911z"/>
		<path style="fill:#FFFFFF;" d="M56.439,332.405c0,0,5.723,9.779,12.961,9.779c0,0,17.281,1.151,25.939-2.806
			c-7.525-6.216-12.755-8.282-14.428-8.834C72.634,330.797,56.68,331.401,56.439,332.405z"/>
	</g>
	<path style="fill:#333333;" d="M74.142,347.514c0,0.528-0.428,0.957-0.957,0.957h-4.79c-0.534,0-0.963-0.428-0.963-0.957
		c0-0.534,0.428-0.963,0.963-0.963h4.79C73.714,346.552,74.142,346.98,74.142,347.514z"/>
	<path style="fill:#FFFFFF;" d="M148.69,352.433c0,1.426-1.156,2.583-2.583,2.583c-1.421,0-2.577-1.156-2.577-2.583
		c0-1.421,1.156-2.577,2.577-2.577C147.533,349.856,148.69,351.013,148.69,352.433z"/>
	<path style="fill:#FF3C00;" d="M99.06,394.15c0,0,20.439,0.581,27.23,1.139c8.065,0.663,23.462,4.444,23.462,10.771
		c0,9.157-6.856,15.702-12.262,15.702c-16.876,0-49.066-0.076-76.684-0.147c-10.043-11.828-19.048-24.571-26.837-38.101
		c2.612-0.382,5.283-0.599,7.965-0.599c0,0,13.025-0.452,18.778-0.511C69.734,382.305,76.42,382.417,99.06,394.15z"/>
	<path style="fill:#FBF47E;" d="M146.935,404.288c-0.252,0.745-4.015,0.182-8.406-1.274c-4.391-1.45-7.748-3.234-7.508-3.986
		c0.252-0.751,4.015-0.176,8.406,1.274C143.824,401.758,147.181,403.542,146.935,404.288z"/>
	<path style="fill:#DB2C00;" d="M107.871,418.334H58.053c0.98,1.197,1.984,2.383,2.988,3.563h46.83V418.334z"/>
	<path style="fill:#424242;" d="M133.757,415.276c0,7.836-6.351,14.182-14.182,14.182s-14.182-6.345-14.182-14.182
		c0-7.83,6.351-14.182,14.182-14.182S133.757,407.446,133.757,415.276z"/>
	<path style="fill:#BBBBBB;" d="M129.108,415.276c0,5.265-4.273,9.533-9.533,9.533c-5.271,0-9.533-4.267-9.533-9.533
		c0-5.265,4.262-9.533,9.533-9.533C124.835,405.743,129.108,410.011,129.108,415.276z"/>
	<g>
		<path style="fill:#FFFFFF;" d="M121.888,415.276c0,1.28-1.033,2.313-2.313,2.313c-1.274,0-2.313-1.033-2.313-2.313
			s1.039-2.313,2.313-2.313C120.855,412.963,121.888,413.997,121.888,415.276z"/>
		<path style="fill:#FFFFFF;" d="M42.152,396.745c1.661,0.129,3.51,0.205,5.582,0.205c11.1,0,36.522,0,36.522,0
			s8.341-0.205,14.804-2.536c-0.211-0.012,0,0,0,0c-8.118-4.209-14.182-7.05-19.042-8.799c-23.961-1.033-37.057-0.393-44.441,0.616
			C37.685,389.795,39.88,393.299,42.152,396.745z"/>
	</g>
	<g>
		<path style="fill:#FF3C00;" d="M39.633,392.865v-8.646h2.037v11.798C40.983,394.972,40.303,393.922,39.633,392.865z"/>
		<polygon style="fill:#FF3C00;" points="93.161,396.41 92.116,398.435 65.807,384.923 66.846,382.898 		"/>
	</g>
	<path style="fill:#333333;" d="M54.654,402.55c0,0.628-0.505,1.021-1.139,1.021h-5.688c-0.634,0-1.139-0.393-1.139-1.021
		s0.505-1.015,1.139-1.015h5.688C54.15,401.535,54.654,401.922,54.654,402.55z"/>
</g>
<path style="fill:#FFFF00;" d="M127.963,62.185c13.829,0,25.041,11.211,25.041,25.041s-11.211,25.041-25.041,25.041
	s-25.041-11.211-25.041-25.041S114.134,62.185,127.963,62.185z"/>
<g>
	<path d="M356.401,106.961c0,0,5.77-1.239,10.601-0.317c4.837,0.927,9.879,4.942,15.338,5.254c5.453,0.305,4.32-1.749,4.32-1.749
		s-3.504,0.517-4.432-2.471c-0.922-2.982,2.888-5.353,8.746-9.462c5.87-4.121,7.003-8.235,5.87-10.812c0,0-1.033,1.649-5.87,4.22
		c-4.837,2.577-8.329,7.314-12.133,10.701c-3.81,3.399-4.021,3.604-7.619,2.882C367.625,104.484,359.906,103.357,356.401,106.961z"
		/>
	<path d="M351.529,141.2c0,0,5.77-1.239,10.595-0.311c4.843,0.927,9.885,4.937,15.338,5.248c5.453,0.305,4.32-1.749,4.32-1.749
		s-3.498,0.517-4.426-2.465c-0.922-2.988,2.882-5.359,8.746-9.468c5.87-4.115,7.003-8.235,5.87-10.806c0,0-1.033,1.644-5.87,4.22
		c-4.837,2.571-8.329,7.308-12.139,10.695c-3.81,3.399-4.015,3.604-7.619,2.888C362.747,138.729,355.028,137.596,351.529,141.2z"/>
	<path d="M419.456,125.099c0,0,5.77-1.239,10.595-0.311c4.843,0.927,9.879,4.937,15.338,5.248c5.453,0.305,4.32-1.749,4.32-1.749
		s-3.498,0.517-4.432-2.465c-0.916-2.988,2.888-5.359,8.752-9.468c5.87-4.115,6.997-8.235,5.87-10.812c0,0-1.033,1.649-5.87,4.226
		c-4.837,2.571-8.335,7.308-12.139,10.695c-3.81,3.399-4.015,3.604-7.619,2.888C430.673,122.628,422.954,121.495,419.456,125.099z"
		/>
	<path style="fill:#9BCB64;" d="M465.968,270.971c0.117,0.475-0.305,0.88-0.44,0.992c0.798-0.64,1.18,0.141,1.18,0.141
		c1.168,0.182-0.059,1.109-0.059,1.109c-0.423,0.164-0.699-0.282-0.699-0.282c-1.068,0.522-0.47,0.828-0.47,0.828
		c0.798-0.182,0.323,0.505,0.323,0.505l-0.487,0.076l-0.581,0.311l0.029,0.211l0.44-0.065l0.047,0.346l-0.522,0.241l0.159,0.387
		c0.599,0.857-1.421,1.268-1.421,1.268c-0.317,2.577-2.724,1.649-3.287,1.397c-0.428,0.205-0.892,0.346-1.379,0.411
		c-1.233,0.17-2.401-0.153-3.34-0.81c-0.704,0.141-1.479-0.065-1.479-0.065c-0.816,0.088-0.493-1.115-0.493-1.115
		c-0.64,1.332-1.573,0.182-1.573,0.182c-0.892-0.951,0.182-1.514,0.182-1.514c-0.517-0.581,0.194-1.062,0.194-1.062
		c-1.356-0.252-1.673-0.951-1.732-1.385c-0.575-0.176-1.045-0.376-1.327-0.499c-1.057,0.505-2.201,0.851-3.41,1.021
		c-3.029,0.417-5.94-0.376-8.247-2.008c-1.761,0.346-3.669-0.147-3.669-0.147c-2.031,0.205-1.227-2.765-1.227-2.765
		c-1.092,2.278-2.518,1.626-3.305,1.004c0.147,0.699-1.532,1.045-1.532,1.045c-0.311,2.571-2.712,1.644-3.281,1.391
		c-0.423,0.2-0.892,0.346-1.385,0.411c-1.215,0.17-2.389-0.158-3.328-0.81c-0.71,0.147-1.479-0.065-1.479-0.065
		c-0.822,0.088-0.493-1.115-0.493-1.115c-0.64,1.338-1.579,0.182-1.579,0.182c-0.886-0.951,0.194-1.509,0.194-1.509
		c-0.517-0.593,0.188-1.068,0.188-1.068c-2.019-0.382-1.732-1.743-1.732-1.743c-0.927-1.203-0.018-2.236-0.018-2.236
		c-0.129-0.106-0.223-0.211-0.282-0.311c-1.139,0.1-2.225-0.217-3.099-0.839c-0.71,0.141-1.491-0.065-1.491-0.065
		c-0.828,0.094-0.499-1.121-0.499-1.121c-0.64,1.35-1.579,0.188-1.579,0.188c-0.904-0.957,0.182-1.52,0.182-1.52
		c-0.517-0.593,0.2-1.08,0.2-1.08c-2.037-0.376-1.749-1.749-1.749-1.749c-0.927-1.215-0.012-2.254-0.012-2.254
		c-0.81-0.652-0.07-1.309-0.07-1.309c-0.258-0.798,0.875-0.769,0.875-0.769c-1.133-2.166,0.886-2.413,0.886-2.413
		c0.364-1.045,1.268-0.405,1.268-0.405c0.458-1.162,2.037-0.288,2.037-0.288c-0.47-0.992,1.016-0.998,1.016-0.998
		c0.288-0.158,0.552-0.176,0.775-0.123c-0.006-0.129,0.018-0.211,0.018-0.211c-0.927-1.203-0.023-2.236-0.023-2.236
		c-0.798-0.657-0.059-1.321-0.059-1.321c-0.112-0.346,0.035-0.534,0.241-0.64c-0.898-2.09,0.546-3.727,0.546-3.727
		c-1.685-1.374-0.141-2.747-0.141-2.747c-0.546-1.679,1.837-1.626,1.837-1.626c-2.383-4.543,1.837-5.048,1.837-5.048
		c0.769-2.184,2.665-0.863,2.665-0.863c0.957-2.413,4.273-0.581,4.273-0.581c-0.98-2.084,2.131-2.101,2.131-2.101
		c2.09-1.162,3.545,1.315,3.545,1.315c1.244-1.62,2.272-2.184,3.088-2.219c-0.693-2.254,1.591-2.536,1.591-2.536
		c0.517-1.462,1.779-0.575,1.779-0.575c0.646-1.614,2.859-0.387,2.859-0.387c-0.652-1.391,1.432-1.403,1.432-1.403
		c1.397-0.781,2.371,0.88,2.371,0.88c2.477-3.234,3.686-0.182,3.686-0.182c4.209-2.06,4.89,1.837,4.89,1.837
		c0.857-1.098,2.008,0.029,3.117,1.602c0.728,1.045,0.258,1.996-0.147,2.518c0.728,0.417,1.174,1.156,1.174,1.156
		c3.27-4.267,4.866-0.229,4.866-0.229c5.541-2.735,6.445,2.418,6.445,2.418c1.121-1.45,2.641,0.035,4.115,2.119
		c1.462,2.084-0.71,3.862-0.71,3.862c1.532,1.327-0.787,2.231-0.787,2.231c1.239,1.192,0.012,2.371-0.305,2.636
		c1.467-1.192,2.184,0.264,2.184,0.264c2.172,0.352-0.106,2.072-0.106,2.072c-0.787,0.305-1.291-0.522-1.291-0.522
		c-1.074,0.528-1.244,0.933-1.18,1.197c2.712-0.634,3.193,2.107,3.193,2.107c0.769-0.992,1.814,0.023,2.818,1.45
		c0.998,1.426-0.487,2.641-0.487,2.641c1.051,0.916-0.54,1.532-0.54,1.532c0.857,0.81,0.006,1.62-0.211,1.808
		c1.015-0.828,1.503,0.17,1.503,0.17c1.479,0.241-0.076,1.426-0.076,1.426c-0.546,0.205-0.886-0.364-0.886-0.364
		c-0.387,0.194-0.605,0.37-0.716,0.511c1.004,0.405,1.221,1.614,1.221,1.614c0.599-0.787,1.415,0.018,2.213,1.145
		c0.792,1.121-0.382,2.084-0.382,2.084c0.828,0.722-0.423,1.215-0.423,1.215c0.669,0.634,0.006,1.274-0.17,1.415
		c0.804-0.646,1.186,0.135,1.186,0.135c1.168,0.194-0.059,1.127-0.059,1.127c-0.429,0.164-0.699-0.276-0.699-0.276
		c-1.074,0.522-0.481,0.822-0.481,0.822c0.816-0.176,0.335,0.517,0.335,0.517l-0.499,0.065l-0.587,0.329l0.041,0.194l0.446-0.053
		l0.041,0.34l-0.528,0.241l0.164,0.399c0.605,0.857-1.438,1.28-1.438,1.28c-0.311,2.583-2.741,1.655-3.293,1.397
		c-0.434,0.2-0.898,0.346-1.391,0.411c-1.239,0.17-2.413-0.153-3.358-0.816L465.968,270.971z"/>
	<path style="fill:#4E342E;" d="M442.307,311.702c0,0-0.217-1.233,0.129-5.447l-1.203-13.618c0,0-0.211-5.001,0.434-6.445
		c0,0,9.809-9.527,11.804-10.055c0,0,1.426-12.468,3.211-12.714l-1.779-1.051c0,0-1.602,11.775-2.759,13.571
		c0,0-4.526-17.023-3.821-18.819l-0.657,0.511c0,0,2.125,16.993,1.732,18.167l-2.9,2.988c0,0-0.986,3.005-1.585,1.644
		c0,0-5.535-3.381-2.8-21.149l-2.225-1.438l-1.843,11.699c0,0,1.28-0.006,0.71,2.964c0,0,2.26,7.067,1.908,7.766
		c0,0-0.54,3.369-2.013,2.377l-3.093-7.314c0,0-2.612-10.448-0.851-12.057l-0.675-0.845c0,0-1.162,5.183-0.223,8.969
		c0,0-4.749-5.259-6.216-5.248l0.041,0.951c0,0,0.898-1.867,5.799,5.289c0,0,3.375,9.486,3.487,11.341c0,0-0.393,5.676-0.153,6.744
		c0,0,2.947,15.144-1.914,19.699L442.307,311.702z"/>
	<path style="fill:#9BCB64;" d="M94.341,264.373c0.117,0.47-0.305,0.88-0.44,0.986c0.798-0.64,1.18,0.141,1.18,0.141
		c1.168,0.188-0.059,1.115-0.059,1.115c-0.423,0.164-0.699-0.288-0.699-0.288c-1.068,0.528-0.47,0.834-0.47,0.834
		c0.798-0.188,0.323,0.505,0.323,0.505l-0.487,0.07l-0.581,0.311l0.029,0.211l0.44-0.059l0.047,0.34l-0.522,0.241l0.158,0.393
		c0.599,0.857-1.421,1.268-1.421,1.268c-0.323,2.577-2.724,1.649-3.293,1.391c-0.423,0.211-0.886,0.352-1.374,0.417
		c-1.233,0.17-2.401-0.153-3.34-0.816c-0.704,0.147-1.479-0.059-1.479-0.059c-0.816,0.082-0.493-1.115-0.493-1.115
		c-0.646,1.332-1.573,0.176-1.573,0.176c-0.892-0.945,0.182-1.514,0.182-1.514c-0.517-0.581,0.194-1.057,0.194-1.057
		c-1.356-0.252-1.673-0.957-1.732-1.385c-0.575-0.176-1.045-0.376-1.332-0.499c-1.051,0.499-2.195,0.851-3.405,1.021
		c-3.029,0.411-5.94-0.376-8.247-2.013c-1.761,0.352-3.669-0.147-3.669-0.147c-2.031,0.211-1.227-2.759-1.227-2.759
		c-1.086,2.272-2.518,1.626-3.305,0.998c0.141,0.699-1.532,1.051-1.532,1.051c-0.311,2.571-2.718,1.644-3.281,1.391
		c-0.423,0.2-0.892,0.34-1.379,0.411c-1.221,0.17-2.395-0.158-3.34-0.81c-0.704,0.141-1.473-0.065-1.473-0.065
		c-0.822,0.088-0.499-1.121-0.499-1.121c-0.634,1.344-1.573,0.188-1.573,0.188c-0.886-0.951,0.194-1.509,0.194-1.509
		c-0.517-0.593,0.182-1.068,0.182-1.068c-2.013-0.387-1.732-1.743-1.732-1.743c-0.922-1.203-0.012-2.236-0.012-2.236
		c-0.129-0.106-0.223-0.211-0.282-0.311c-1.139,0.1-2.231-0.217-3.099-0.839c-0.716,0.141-1.491-0.065-1.491-0.065
		c-0.828,0.088-0.499-1.121-0.499-1.121c-0.64,1.344-1.579,0.182-1.579,0.182c-0.904-0.951,0.182-1.52,0.182-1.52
		c-0.517-0.587,0.194-1.074,0.194-1.074c-2.031-0.382-1.743-1.749-1.743-1.749c-0.927-1.215-0.012-2.254-0.012-2.254
		c-0.81-0.652-0.07-1.309-0.07-1.309c-0.258-0.798,0.875-0.769,0.875-0.769c-1.133-2.172,0.88-2.413,0.88-2.413
		c0.37-1.045,1.274-0.411,1.274-0.411c0.458-1.156,2.037-0.282,2.037-0.282c-0.47-0.992,1.015-1.004,1.015-1.004
		c0.288-0.158,0.546-0.176,0.775-0.117c0-0.129,0.018-0.211,0.018-0.211c-0.927-1.203-0.018-2.236-0.018-2.236
		c-0.804-0.663-0.065-1.321-0.065-1.321c-0.117-0.346,0.035-0.534,0.241-0.64c-0.898-2.09,0.546-3.727,0.546-3.727
		c-1.691-1.374-0.141-2.753-0.141-2.753c-0.546-1.673,1.837-1.62,1.837-1.62c-2.377-4.543,1.837-5.048,1.837-5.048
		c0.769-2.184,2.659-0.863,2.659-0.863c0.963-2.413,4.279-0.587,4.279-0.587c-0.98-2.078,2.131-2.096,2.131-2.096
		c2.084-1.162,3.545,1.309,3.545,1.309c1.244-1.614,2.272-2.178,3.088-2.213c-0.693-2.254,1.591-2.536,1.591-2.536
		c0.517-1.462,1.773-0.575,1.773-0.575c0.652-1.614,2.865-0.393,2.865-0.393c-0.652-1.385,1.432-1.397,1.432-1.397
		c1.397-0.781,2.371,0.875,2.371,0.875c2.477-3.234,3.686-0.176,3.686-0.176c4.209-2.066,4.89,1.837,4.89,1.837
		c0.857-1.104,2.007,0.023,3.117,1.597c0.728,1.051,0.252,2.002-0.147,2.518c0.734,0.417,1.168,1.162,1.168,1.162
		c3.275-4.273,4.866-0.235,4.866-0.235c5.547-2.729,6.451,2.424,6.451,2.424c1.121-1.45,2.647,0.035,4.115,2.119
		c1.456,2.084-0.71,3.857-0.71,3.857c1.532,1.332-0.792,2.236-0.792,2.236c1.244,1.186,0.012,2.371-0.299,2.636
		c1.467-1.192,2.184,0.264,2.184,0.264c2.166,0.346-0.106,2.072-0.106,2.072c-0.792,0.299-1.297-0.522-1.297-0.522
		c-1.068,0.528-1.244,0.933-1.174,1.192c2.712-0.628,3.199,2.113,3.199,2.113c0.763-0.992,1.808,0.023,2.812,1.444
		c0.998,1.426-0.487,2.647-0.487,2.647c1.051,0.91-0.54,1.532-0.54,1.532c0.857,0.81,0.006,1.62-0.211,1.808
		c1.015-0.828,1.503,0.17,1.503,0.17c1.479,0.241-0.07,1.426-0.07,1.426c-0.552,0.2-0.892-0.364-0.892-0.364
		c-0.393,0.194-0.605,0.364-0.716,0.511c1.004,0.399,1.221,1.608,1.221,1.608c0.599-0.787,1.415,0.018,2.213,1.145
		c0.792,1.127-0.382,2.09-0.382,2.09c0.828,0.716-0.428,1.209-0.428,1.209c0.675,0.634,0.006,1.28-0.164,1.421
		c0.804-0.652,1.186,0.135,1.186,0.135c1.168,0.194-0.059,1.127-0.059,1.127c-0.434,0.164-0.699-0.282-0.699-0.282
		c-1.074,0.528-0.481,0.822-0.481,0.822c0.81-0.176,0.335,0.522,0.335,0.522l-0.499,0.065l-0.581,0.329l0.035,0.188l0.44-0.047
		l0.047,0.335l-0.522,0.247l0.158,0.399c0.605,0.851-1.438,1.274-1.438,1.274c-0.317,2.583-2.741,1.655-3.299,1.397
		c-0.434,0.2-0.892,0.352-1.385,0.417c-1.239,0.164-2.413-0.158-3.358-0.816L94.341,264.373z"/>
	<path style="fill:#4E342E;" d="M70.679,305.104c0,0-0.217-1.239,0.129-5.447l-1.203-13.618c0,0-0.211-5.001,0.434-6.451
		c0,0,9.814-9.521,11.798-10.049c0,0,1.426-12.468,3.217-12.714l-1.779-1.057c0,0-1.597,11.781-2.759,13.571
		c0,0-4.526-17.023-3.821-18.819l-0.657,0.517c0,0,2.125,16.993,1.726,18.167l-2.888,2.988c0,0-0.992,3.005-1.591,1.638
		c0,0-5.535-3.375-2.8-21.149l-2.225-1.432l-1.843,11.693c0,0,1.28,0,0.716,2.97c0,0,2.254,7.067,1.902,7.766
		c0,0-0.54,3.363-2.013,2.377l-3.099-7.32c0,0-2.606-10.443-0.845-12.057l-0.675-0.839c0,0-1.162,5.183-0.223,8.969
		c0,0-4.749-5.259-6.222-5.254l0.041,0.951c0,0,0.91-1.867,5.805,5.295c0,0,3.369,9.486,3.493,11.341c0,0-0.399,5.67-0.164,6.744
		c0,0,2.953,15.138-1.914,19.693L70.679,305.104z"/>
</g>
<polygon style="fill:#FFFFFF;" points="223.337,329.605 286.174,329.605 286.174,333.632 223.337,333.632 "/>
<polygon style="fill:#E6E6E6;" points="219.821,337.659 289.69,337.659 289.69,333.632 219.821,333.632 "/>
<polygon style="fill:#FFFFFF;" points="216.17,337.659 293.341,337.659 293.341,341.686 216.17,341.686 "/>
<path style="fill:#FED700;" d="M322.268,360.81c7.455,1.415,14.675,3.44,21.912,5.682c13.031,4.038,24.83,7.983,38.501,9.674
	c20.357,2.524,41.664,0.229,61.739-3.44c13.207-2.418,26.526-2.266,39.322,0.293C441.25,455.549,355.221,512,255.997,512
	c-5.477,0-10.906-0.194-16.301-0.534c-12.644-17.974-20.239-39.915-20.239-59.438C219.457,403.712,273.495,351.57,322.268,360.81z"
	/>
<path style="fill:#9999FF;" d="M262.348,511.918c-13.577-14.182-23.215-34.257-25.235-52.805l0,0
	c4.631-38.594,49.008-73.972,81.943-67.727c34.785,6.592,54.302,25.493,128.462,11.928c6.422-1.174,12.714-1.608,18.831-1.397
	C421.24,466.82,346.88,509.857,262.348,511.918z"/>
<path style="fill:#FFFFFF;" d="M295.583,415.429c21.137,0,38.26,17.128,38.26,38.26c0,21.126-17.122,38.26-38.26,38.26
	c-21.126,0-38.254-17.134-38.254-38.26C257.33,432.557,274.458,415.429,295.583,415.429z M295.583,432.123
	c11.922,0,21.572,9.65,21.572,21.566c0,11.916-9.65,21.566-21.572,21.566c-11.91,0-21.566-9.65-21.566-21.566
	C274.018,441.773,283.674,432.123,295.583,432.123z"/>
<path style="fill:#FF0000;" d="M330.65,469.015l-15.99-5.248c1.591-3.011,2.495-6.439,2.495-10.079
	c0-3.645-0.904-7.067-2.495-10.079l15.99-5.254c2.054,4.696,3.193,9.885,3.193,15.332S332.705,464.319,330.65,469.015z
	 M295.583,415.429c5.459,0,10.642,1.139,15.338,3.199l-5.254,15.99c-3.011-1.597-6.439-2.495-10.084-2.495
	c-3.639,0-7.061,0.898-10.073,2.495l-5.254-15.99C284.953,416.568,290.136,415.429,295.583,415.429z M310.921,488.749
	c-4.696,2.054-9.879,3.199-15.338,3.199c-5.447,0-10.63-1.145-15.326-3.199l5.254-15.995c3.005,1.602,6.433,2.501,10.073,2.501
	c3.645,0,7.073-0.898,10.084-2.501L310.921,488.749z M260.529,469.015c-2.054-4.696-3.199-9.879-3.199-15.326
	s1.145-10.636,3.199-15.332l15.99,5.254c-1.597,3.005-2.501,6.433-2.501,10.079c0,3.639,0.904,7.067,2.501,10.079L260.529,469.015z"
	/>
<path style="fill:#8383FF;" d="M237.114,459.112c4.625-38.594,49.008-73.972,81.943-67.727
	c34.785,6.592,54.302,25.493,128.462,11.928c6.422-1.174,12.714-1.608,18.831-1.397c2.929-4.215,5.747-8.517,8.423-12.908
	c-8.687-1.162-17.839-1.033-27.254,0.693c-74.16,13.559-93.677-5.336-128.462-11.928c-34.791-6.598-82.343,33.247-82.343,74.254
	C236.715,454.358,236.85,456.717,237.114,459.112z"/>
<path style="fill:#FFFFFF;" d="M311.045,368.493h-0.006c-1.385,0-2.512,1.127-2.512,2.512v8.881l-10.19,2.442v-4.085
	c0-1.385-1.127-2.518-2.512-2.518h-0.006c-1.385,0-2.512,1.133-2.512,2.518v24.653c0,1.385,1.127,2.518,2.512,2.518h0.006
	c1.385,0,2.512-1.133,2.512-2.518v-9.227l10.19-2.436v4.432c0,1.379,1.127,2.512,2.512,2.512h0.006c1.385,0,2.512-1.133,2.512-2.512
	v-24.659C313.557,369.62,312.43,368.493,311.045,368.493z M298.336,385.346l10.19-2.436v5.306l-10.19,2.436V385.346z"/>
<g>
</g>
<g>
</g>
<g>
</g>
<g>
</g>
<g>
</g>
<g>
</g>
<g>
</g>
<g>
</g>
<g>
</g>
<g>
</g>
<g>
</g>
<g>
</g>
<g>
</g>
<g>
</g>
<g>
</g>
</svg>
