<?xml version="1.0" encoding="iso-8859-1"?>
<!-- Generator: Adobe Illustrator 19.0.0, SVG Export Plug-In . SVG Version: 6.00 Build 0)  -->
<svg version="1.1" id="Layer_1" xmlns="http://www.w3.org/2000/svg" xmlns:xlink="http://www.w3.org/1999/xlink" x="0px" y="0px"
	 viewBox="0 0 512 512" style="enable-background:new 0 0 512 512;" xml:space="preserve">
<path style="fill:#FFFFFF;" d="M182.71,11.942c17.021,0,30.825,13.804,30.825,30.825s-13.804,30.825-30.825,30.825
	s-30.825-13.804-30.825-30.825c0-12.059,6.922-22.49,17.002-27.559c2.613-0.936,5.235-1.833,7.877-2.691
	C178.683,12.137,180.682,11.942,182.71,11.942z"/>
<path style="fill:#B1E3FB;" d="M256,0c141.385,0,256,114.615,256,256S397.385,512,256,512S0,397.385,0,256S114.615,0,256,0z"/>
<g>
	<polygon style="fill:#9BCB64;" points="76.157,369.933 237.458,27.296 408.245,369.933 	"/>
	<polygon style="fill:#54892E;" points="408.245,369.933 237.458,27.296 237.458,369.933 	"/>
	<path style="fill:#9BCB64;" d="M295.55,369.933l152.567-264.072l57.79,94.474C509.885,218.263,512,236.883,512,256
		c0,40.935-9.622,79.617-26.711,113.933H295.55z"/>
	<path style="fill:#54892E;" d="M505.907,200.335l-57.79-94.474v264.072h37.172C502.378,335.617,512,296.935,512,256
		C512,236.883,509.885,218.263,505.907,200.335z"/>
	<path style="fill:#9BCB64;" d="M2.135,289.184l102.283-177.046l161.545,264.082H29.948C15.783,349.655,6.161,320.292,2.135,289.184
		z"/>
	<polygon style="fill:#54892E;" points="265.963,376.221 104.418,112.139 104.418,376.221 	"/>
</g>
<path style="fill:#689D38;" d="M65.794,326.814l-8.598-5.001l-17.723,25.191l-22.471,0.877C53.93,443.876,147,512,256,512
	c110.881,0,205.287-70.502,240.87-169.12l-18.815-13.2l-7.019,5.04l-31.108-24.879l-12.049-1.57l-28.69,7.896l-12.04-8.511
	l-12.712,10.09l-16.485-6.337l-11.035,2.525l-17.06,7.877l-5.683,9.134l-17.07,8.179l-12.508,1.121l-39.667,19.663l-36.255-16.154
	l-15.266,4.504l-9.047-14.165l-27.092,7.234l-21.077-20.462l-27.774-11.026l-15.227,5.917l-9.632-8.16L65.794,326.814z"/>
<g>
	<path style="fill:#EDEDED;" d="M105.802,63.425c2.739,0,5.323,0.653,7.614,1.804c2.476-2.418,5.878-3.919,9.622-3.919
		c6.483,0,11.923,4.484,13.375,10.529c3.246,0.975,5.839,3.422,7.029,6.561c0.39-0.039,0.79-0.058,1.189-0.058
		c5.986,0,10.85,4.855,10.85,10.85s-4.865,10.86-10.85,10.86c-1.872,0-3.626-0.478-5.157-1.306
		c-1.326,4.514-5.488,7.809-10.431,7.809c-3.003,0-5.732-1.228-7.701-3.217c-1.969,1.989-4.699,3.217-7.711,3.217
		c-2.866,0-5.479-1.111-7.419-2.934c-1.979,2.174-4.835,3.539-8.013,3.539c-2.964,0-5.654-1.189-7.614-3.12
		c-0.897,0.195-1.823,0.292-2.778,0.292c-7.146,0-12.936-5.781-12.936-12.927c0-7.146,5.791-12.927,12.936-12.927
		c0.38,0,0.77,0.019,1.15,0.049C89.873,70.034,97.058,63.425,105.802,63.425z"/>
	<path style="fill:#EDEDED;" d="M323.743,62.664c2.749,0,5.333,0.653,7.623,1.813c2.476-2.427,5.869-3.929,9.622-3.929
		c6.483,0,11.923,4.484,13.375,10.529c3.246,0.975,5.839,3.422,7.029,6.561c0.39-0.039,0.79-0.058,1.189-0.058
		c5.995,0,10.85,4.855,10.85,10.85s-4.855,10.86-10.85,10.86c-1.872,0-3.626-0.478-5.157-1.306
		c-1.316,4.514-5.488,7.809-10.421,7.809c-3.022,0-5.742-1.228-7.711-3.227c-1.969,1.998-4.699,3.227-7.711,3.227
		c-2.866,0-5.479-1.111-7.419-2.934c-1.979,2.174-4.835,3.539-8.013,3.539c-2.964,0-5.654-1.189-7.614-3.129
		c-0.897,0.205-1.833,0.302-2.778,0.302c-7.146,0-12.936-5.781-12.936-12.927c0-7.136,5.791-12.936,12.936-12.936
		c0.38,0,0.77,0.02,1.15,0.058C307.824,69.274,315.018,62.664,323.743,62.664z"/>
</g>
<path style="fill:#54892E;" d="M85.671,447.093l0.341-5.527l25.464,19.839l0.975-16.115l1.033-0.468l1.092-0.487l25.347-11.269
	c38.663-16.963,81.294-34.871,123.789-51.181l2.418-15.023l23.338,19.527l2.418-15.023l6.892-2.574
	c7.565-2.739,15.081-5.401,22.539-7.974l0.39-0.136l2.905-1.004l4.933-9.076l18.708,8.754l4.933-9.086l0.575-0.185l1.482-0.487
	c1.745-0.546,3.471-1.092,5.196-1.628l0.78-0.234l5.069-9.515l18.747,10.646l5.069-9.515l1.521-0.439l1.462-0.429
	c0.887-0.234,1.774-0.468,2.652-0.702l27.618-9.671l0.595-0.214l0.585-0.205l0.565-0.205l3.87-11.172l19.488,24.099l2.583-7.487
	l3.432-11.64l19.887,13.911l3.432-11.64l8.306-0.195c4.026,0.088,7.838,0.351,11.396,0.79c1.745,0.224,3.461,0.458,5.128,0.721
	C472.537,432.802,373.52,512,256,512C190.586,512,130.925,487.463,85.671,447.093z"/>
<path style="fill:#FFED58;" d="M316.013,314.745c-6.727-8.121-6.444-18.776-5.508-24.947c0.39-1.667,0.741-3.324,1.082-4.991l0,0
	l0,0c0.985-4.826,1.911-9.612,3.412-14.418c0.868-2.798-1.15-10.957-1.784-12.829c-1.521-4.494-4.553-5.615-7.662-8.306
	c-4.241-3.666-9.359-4.845-14.652-4.699c-4.991,0.136-9.992-0.234-14.993-0.497c-0.595-0.039-1.336-0.77-1.667-1.365
	c-0.429-0.79-0.663-1.755-0.741-2.671c-0.078-0.887-0.195-2.184,0.312-2.632c1.404-1.258,3.003-2.73,4.738-3.1
	c2.388-0.497,4.328-0.799,5.986-3.071c1.911-2.603,1.998-5.713-1.072-6.502c-3.1-0.79-4.007-3.636-6.259-5.089
	c-0.253-0.166-0.331-0.994-0.156-1.355c0.702-1.394,0.419-2.486-1.199-3.471c0.887-0.234,1.443-0.302,1.92-0.526
	c1.579-0.721,3.393-1.199,4.64-2.301c2.145-1.911,4.133-4.065,5.791-6.395c1.404-1.969,2.564-3.938,5.099-4.621
	c0.731-0.195,1.423-0.858,1.911-1.482c3.071-3.851,6.083-7.74,9.086-11.64c0.448-0.595,0.76-1.306,1.033-2.008
	c1.336-3.363,0.556-6.502-1.082-9.544c-0.253,0.79-0.244,1.56-0.263,2.33c-0.029,1.248,0.137,2.535-0.156,3.714
	c-1.911,7.614-7.818,10.616-14.262,11.923c-1.453,0.292-1.599-0.497-1.18-1.667c1.189-3.305,2.203-6.688,3.568-9.914
	c1.043-2.457,2.145-5.06,3.87-7.019c4.894-5.557,4.64-11.455,1.989-17.733c-0.166-0.39-0.253-0.819-0.37-1.238
	c-1.063,1.082-0.907,2.125-0.868,2.886c0.127,2.31,0.458,4.631,0.37,6.931c-0.088,2.086-0.76,4.085-2.71,5.313
	c-1.121,0.702-1.813,0.77-2.32-0.809c-1.15-3.51-2.505-6.961-3.841-10.412c-0.224-0.585-0.741-1.072-1.121-1.599
	c-0.478,0.702-0.556,1.18-0.536,1.657c0.107,2.574,0.253,5.138,0.361,7.701c0.059,1.472,0.107,2.905-1.599,3.675
	c-0.302,0.127-0.478,0.926-0.429,1.384c0.205,2.184-1.316,3.432-3.393,2.7c-0.712-0.244-1.852-0.643-2.544-0.946
	c-5.333-2.876-8.852-7.906-13.599-11.562c0.029,0.721,0.244,1.277,0.595,1.726c3.899,4.982,7.809,9.963,13.122,13.599
	c1.579,1.072,3.159,1.959,5.216,1.755c2.018-0.205,2.486,0.273,2.281,2.349c-0.663,6.678-3.042,12.176-9.758,15.091
	c-2.466,1.072-4.64,2.895-6.795,4.582c-2.564,2.008-5.547,2.476-8.598,2.739c-0.663,0.058-1.589-0.526-1.998-1.102
	c-0.195-0.273,0.37-1.365,0.858-1.803c2.554-2.33,3.656-5.372,4.348-8.589c0.458-2.135-0.01-4.133-1.316-5.927
	c-0.175,0.312-0.234,0.614-0.166,0.887c1.189,4.601-2.515,10.07-6.561,11.747c-1.696,0.712-3.227,0.692-4.904,0.039
	c-1.141-0.439-2.388-0.721-3.607-0.838c-1.043-0.107-1.462-0.507-1.813-1.492c-0.614-1.696-1.443-4.309-2.213-5.947
	c-0.234,0.088-0.819,0.244-0.751,1.316c0.39,1.267,0.702,2.554,1.18,3.782c0.526,1.345,0.283,2.164-1.277,2.018
	c-6.181-0.595-12.166-1.852-17.323-5.596c-0.448-0.322-0.916-0.751-1.121-1.238c-1.316-3.042-2.866-6.025-2.515-9.515
	c0.078-0.819-0.107-1.657-0.166-2.486c-0.244-0.682-0.565-0.624-0.838-0.653c-0.263,2.583-0.507,5.742-0.76,8.325
	c-0.205,0.02-0.4,0.029-0.595,0.049c-4.055-4.241-7.048-9.037-6.551-15.247c0.331-4.104,1.082-8.179,1.657-12.264
	c0.185-1.297,0.439-2.574,0.653-3.851c-0.234-0.068-0.468-0.146-0.712-0.224c-0.731,1.755-1.482,3.51-2.213,5.264
	c-0.751,1.852-1.414,3.753-2.271,5.547c-0.224,0.468-1.189,1.024-1.579,0.877c-3.12-1.131-5.713-2.788-5.83-6.649
	c-0.058-1.911,0.166-3.295-0.02-5.196c-0.156-1.053-0.819-1.375-0.975-1.423c-0.283,0.926-0.819,2.613-0.79,3.529
	c0.107,2.876,0.341,5.752,0.682,8.608c0.214,1.726,0.331,5.313,0.702,7.029c-5.099-2.349-4.679-8.569-7.497-11.815
	c-0.117,2.262-0.253,4.543,0.419,6.571c1.355,4.055,3.841,7.438,7.467,9.885c0.604,0.4,1.082,1.014,1.56,1.579
	c0.799,0.946,1.433,2.047,2.34,2.866c2.574,2.369,5.362,4.514,7.867,6.941c7.818,7.536,17.011,12.088,27.832,13.287
	c3.1,0.341,3.422,0.946,2.749,4.046c-0.692,3.149-1.111,6.327,0.848,9.271c0.244,0.37,0.292,0.994,0.175,1.433
	c-0.741,2.769-1.56,5.508-2.34,8.267c-0.682,2.408-1.433,4.796-2.008,7.224c-1.092,4.689-2.096,9.378-3.1,14.077
	c-0.156,0.78-0.146,1.609-0.088,2.408c0.244,3.363,0.634,6.727,0.79,10.09c0.205,4.748,0.175,9.515,0.4,14.262
	c0.107,2.564,0.39,5.128,0.838,7.662c0.595,3.393,1.414,6.639,4.075,9.271c2.457,2.427,3.724,5.498,3.529,9.193
	c-0.097,1.998,0.556,4.085,1.072,6.073c0.848,3.266,2.271,6.434,2.691,9.749c0.585,4.631,0.429,9.359,0.663,14.038
	c0.068,1.56,0.37,3.11,0.575,4.66c0.107,0.799,0.322,1.609,0.322,2.408c0,0.985-0.02,1.969-0.029,2.944
	c-0.146,3.061-0.478,9.885-0.77,11.406c0,0-2.466,2.359-2.466,4.523h4.796c0,0,0.224-2.262,1.414-4.143c0,0,0.517-9.69,1.521-14.808
	l-0.02,0.01c0.049-0.312,0.097-0.614,0.136-0.936c0.331-2.603,1.355-5.138,1.443-7.731c0.195-6.073-0.01-12.157,0-18.23
	c0-1.306,0.205-2.613,0.292-3.929c0.097-1.443,1.238-5.878,7.35-6.366c2.427-0.478,5.147,1.199,5.44,3.607
	c0.478,3.977,0.751,7.984,0.897,11.991c0.068,1.911-0.302,3.851-0.595,5.761c-0.38,2.457-1.423,4.933-0.127,7.35
	c1.95,3.656,0.809,7.682,1.209,11.64c-0.136,3.12-0.448,9.758-0.702,11.26c0,0-2.154,2.359-2.154,4.523h4.231
	c0,0,0.244-2.262,1.277-4.143c0,0,0.273-6.454,0.848-11.611c0.049-0.02,0.088-0.039,0.117-0.068c0-0.01-0.049-0.02-0.107-0.029
	c0.127-1.121,0.263-2.184,0.429-3.1l-0.098,0.039c0.448-2.154,0.955-5.118,0.887-9.593c-0.098-5.878,1.248-11.416,2.661-17.002
	c0.107-0.429,0.487-0.78,0.741-1.17c0.37,0.292,0.829,0.517,1.102,0.877c1.345,1.803,2.476,3.802,3.987,5.449
	c3.607,3.948,9.222,8.94,10.187,14.311c0.127,0.682,0.409,1.677,0.614,2.583c0.01,9.261-1.93,18.717-1.93,18.717
	c-2.632,2.037-4.514,4.738-4.514,4.738h6.395c0.565-3.393,1.482-3.237,1.482-3.237s1.092-4.172,2.33-9.788l0.068,0.068
	c0.049-0.322,0.088-0.634,0.117-0.946c2.008-9.261,4.27-21.915,2.866-26.731c0.029-0.195,0.068-0.39,0.098-0.575
	c0.517,1.219,1.121,2.369,1.833,3.422c5.956,8.881,1.004,33.048,1.004,33.048c-2.642,2.037-4.523,4.738-4.523,4.738h6.405
	c0.565-3.393,1.482-3.237,1.482-3.237S320.127,319.717,316.013,314.745z M295.316,196.085L295.316,196.085
	c-0.682,3.022-6.19,4.26-9.173,2.856C289.136,198.015,292.129,197.079,295.316,196.085z M283.462,203.386L283.462,203.386
	c-3.188,0.994-6.366,1.998-9.885,3.1C274.483,203.63,280.459,201.749,283.462,203.386z"/>
<path style="fill:#FFFFFF;" d="M100.47,261.089V249.02h32.034c1.531-35.193,16.426-66.925,39.736-90.234
	c23.299-23.299,55.041-38.195,90.224-39.736V87.026h12.069v32.024c35.193,1.54,66.925,16.436,90.234,39.736
	c23.299,23.309,38.195,55.041,39.736,90.234h32.034v12.069h-32.034c-1.54,35.193-16.436,66.915-39.736,90.224
	c-23.309,23.309-55.041,38.205-90.234,39.736v32.034h-12.069v-32.034c-35.193-1.531-66.925-16.427-90.224-39.736
	c-23.309-23.309-38.205-55.041-39.736-90.224H100.47z M274.532,130.72v35.856h-12.069V130.72
	c-31.976,1.521-60.783,15.11-81.986,36.314c-21.203,21.194-34.783,50.011-36.314,81.986h35.865v12.069h-35.865
	c1.531,31.976,15.11,60.783,36.314,81.986c21.203,21.203,50.011,34.793,81.986,36.314v-35.856h12.069v35.856
	c31.976-1.521,60.793-15.11,81.986-36.314c21.203-21.203,34.793-50.011,36.324-81.986h-35.865V249.02h35.865
	c-1.531-31.976-15.12-60.793-36.324-81.986C335.325,145.83,306.508,132.241,274.532,130.72z"/>
<g>
</g>
<g>
</g>
<g>
</g>
<g>
</g>
<g>
</g>
<g>
</g>
<g>
</g>
<g>
</g>
<g>
</g>
<g>
</g>
<g>
</g>
<g>
</g>
<g>
</g>
<g>
</g>
<g>
</g>
</svg>
