<?xml version="1.0" encoding="iso-8859-1"?>
<!-- Generator: Adobe Illustrator 19.0.0, SVG Export Plug-In . SVG Version: 6.00 Build 0)  -->
<svg version="1.1" id="Layer_1" xmlns="http://www.w3.org/2000/svg" xmlns:xlink="http://www.w3.org/1999/xlink" x="0px" y="0px"
	 viewBox="0 0 512 512" style="enable-background:new 0 0 512 512;" xml:space="preserve">
<path style="fill:#3EBCF6;" d="M255.998,0C397.386,0,512,114.614,512,255.998C512,397.386,397.386,512,255.998,512
	C114.614,512,0,397.386,0,255.998C0,114.614,114.614,0,255.998,0z"/>
<path style="fill:#51C3F7;" d="M73.985,261.58l0.009,4.495c0.023,11.42,0.886,13.928,2.485,20.735l0.123-0.014
	c13.709,80.349,80.12,142.713,162.401,150.264l0.69,0.064c1.083,0.091,2.174,0.183,3.266,0.26l1.448,0.087
	c0.927,0.064,1.855,0.114,2.791,0.164c0.598,0.027,1.206,0.037,1.814,0.069c0.836,0.023,1.663,0.059,2.499,0.087
	c0.964,0.014,1.928,0.023,2.896,0.027c0.471,0.014,0.95,0.023,1.421,0.023l0.21-0.005c1.366,0,2.732-0.023,4.084-0.046l0.649-0.014
	c1.293-0.041,2.567-0.091,3.842-0.151l1.092-0.05c1.133-0.064,2.27-0.137,3.403-0.219l1.603-0.123
	c0.745-0.064,1.475-0.128,2.211-0.201c81.564-7.601,147.491-69.065,161.844-148.487c1.745-6.811,1.763-8.94,2.64-19.743h0.009
	l0.196-0.005l0,0h0.005c0.027-0.69,0.041-1.361,0.05-2.042v-0.05v-0.05v-0.046v-0.105v-0.05v-0.041l0,0v-0.055v-0.055v-0.146v-0.05
	v-0.05v-0.046v-0.05h0.005v-0.055v-0.046v-0.05v-0.05v-0.05v-0.05v-0.046c1.147-13.558-0.626-35.837-5.221-53.072l-0.242-0.923
	c-19.812-78.969-91.267-137.464-176.38-137.464c-87.178,0-160.017,61.364-177.723,143.247h-0.005
	c-0.018,0.064-0.037,0.128-0.055,0.187l-0.292,1.11l-0.178,0.676l-0.32,1.192c-2.248,9.282-2.96,20.351-3.175,30.031
	c-0.055,1.8-0.087,3.6-0.087,5.404v0.347C73.985,258.186,73.985,259.935,73.985,261.58z"/>
<path style="fill:#62C9F8;" d="M150.643,259.232l0.005,2.599c0.014,6.61,0.516,8.063,1.444,12l0.069-0.009
	c7.935,46.508,46.376,82.605,94.003,86.977l0.397,0.037c0.626,0.055,1.261,0.105,1.891,0.151l0.836,0.055
	c0.539,0.037,1.078,0.064,1.617,0.091c0.352,0.018,0.699,0.023,1.051,0.041c0.484,0.014,0.964,0.032,1.448,0.05
	c0.557,0.009,1.115,0.014,1.676,0.018c0.274,0.005,0.548,0.009,0.818,0.009h0.123c0.79,0,1.581-0.014,2.366-0.027l0.379-0.009
	c0.745-0.023,1.485-0.05,2.22-0.087l0.63-0.027c0.653-0.041,1.316-0.082,1.969-0.128l0.927-0.073
	c0.434-0.037,0.854-0.073,1.284-0.114c47.212-4.404,85.369-39.976,93.679-85.949c1.01-3.942,1.019-5.176,1.526-11.429h0.005h0.114
	l0,0h0.005c0.014-0.402,0.023-0.79,0.032-1.183v-0.032v-0.027v-0.023v-0.064v-0.027v-0.027l0,0v-0.027v-0.032v-0.082v-0.032v-0.027
	v-0.027v-0.027l0,0v-0.032v-0.027v-0.027v-0.032v-0.027v-0.032v-0.027c0.662-7.843-0.361-20.744-3.024-30.716l-0.137-0.534
	c-11.466-45.713-52.826-79.568-102.098-79.568c-50.46,0-92.619,35.517-102.865,82.911h-0.005c-0.009,0.037-0.018,0.078-0.032,0.11
	l-0.169,0.644l-0.105,0.388l-0.183,0.694c-1.302,5.368-1.713,11.781-1.836,17.382c-0.032,1.042-0.055,2.083-0.055,3.125v0.201
	C150.643,257.263,150.643,258.277,150.643,259.232z"/>
<path style="fill:#4CB5AB;" d="M10.708,265.097c0,0,36.344-36.111,62.455-39.647c26.111-3.536,78.334,33.841,100.184,35.86
	c21.849,2.019,84.2-63.639,108.708-52.529c24.513,11.114,81.002,42.931,112.44,48.486c31.442,5.555,78.869-55.558,101.248-62.624
	c2.791-0.886,5.564-1.635,8.291-2.248c5.199,20.337,7.967,41.648,7.967,63.602c0,8.227-0.402,16.358-1.165,24.389
	c-108.543,20.675-373.832,59.884-431.277,36.481C21.397,293.173,10.708,265.097,10.708,265.097z"/>
<path style="fill:#26A599;" d="M0.306,268.478c14.463-11.041,50.313-23.042,74.821-6.368c21.721,14.773,25.81,16.062,39.898,12.599
	c65.754-42.337,99.663-28.482,130.717,9.575c11.114,9.78,25.349,15.134,40.382,18.231c23.859-12.243,50.555-25.755,75.237-38.285
	c69.161-35.111,108.356-10.717,150.552-14.769c0.055,2.174,0.087,4.353,0.087,6.537c0,23.215-3.106,45.7-8.899,67.078H8.899
	C4.152,305.553,1.211,287.285,0.306,268.478z"/>
<path style="fill:#7FDDE9;" d="M8.899,323.076h494.203C473.628,431.921,374.175,512,255.998,512
	C137.825,512,38.372,431.921,8.899,323.076z"/>
<g>
	<path style="fill:#FFFFFF;" d="M197.471,114.272c26.157,0,47.362,21.205,47.362,47.362s-21.205,47.362-47.362,47.362
		s-47.358-21.205-47.358-47.362S171.314,114.272,197.471,114.272z"/>
	<path style="fill:#FFFFFF;" d="M83.67,91.143c2.343,0,4.244,1.896,4.244,4.239c0,2.343-1.9,4.244-4.244,4.244
		c-2.343,0-4.239-1.9-4.239-4.244C79.431,93.039,81.326,91.143,83.67,91.143z M460.449,194.081c2.343,0,4.239,1.896,4.239,4.239
		c0,2.343-1.896,4.244-4.239,4.244s-4.244-1.9-4.244-4.244C456.205,195.977,458.105,194.081,460.449,194.081z M51.551,169.934
		c2.343,0,4.244,1.9,4.244,4.244s-1.9,4.239-4.244,4.239c-2.343,0-4.239-1.896-4.239-4.239S49.208,169.934,51.551,169.934z
		 M421.661,86.201c2.343,0,4.239,1.9,4.239,4.244c0,2.343-1.896,4.239-4.239,4.239s-4.244-1.896-4.244-4.239
		C417.417,88.101,419.317,86.201,421.661,86.201z M413.178,163.776c2.339,0,4.239,1.9,4.239,4.244c0,2.343-1.9,4.239-4.239,4.239
		c-2.343,0-4.244-1.896-4.244-4.239C408.934,165.677,410.834,163.776,413.178,163.776z M328.32,23.471
		c2.343,0,4.244,1.896,4.244,4.239s-1.9,4.244-4.244,4.244s-4.239-1.9-4.239-4.244S325.977,23.471,328.32,23.471z M188.728,21.648
		c2.343,0,4.239,1.9,4.239,4.244s-1.896,4.239-4.239,4.239c-2.343,0-4.244-1.896-4.244-4.239S186.384,21.648,188.728,21.648z
		 M102.87,163.776c2.343,0,4.244,1.9,4.244,4.244c0,2.343-1.9,4.239-4.244,4.239c-2.339,0-4.239-1.896-4.239-4.239
		C98.63,165.677,100.531,163.776,102.87,163.776z"/>
</g>
<path style="fill:#64BFB6;" d="M52.364,411.131c7.579,4.312,15.312,7.601,22.315,8.552c26.111,3.536,78.334-33.841,100.184-35.86
	s84.2,63.639,108.708,52.529c24.513-11.114,81.002-42.931,112.44-48.486c16.911-2.988,38.45,13.312,58.225,30.118
	c14.216-17.382,26.194-36.659,35.49-57.403c-118.972-21.26-354.879-54.219-408.651-32.315
	c-30.058,12.243-47.431,25.659-57.211,35.764C31.68,380.799,41.259,396.577,52.364,411.131z"/>
<path style="fill:#4CB5AE;" d="M38.244,390.639c13.051,1.699,26.961,0.164,38.4-7.615c21.721-14.773,25.81-16.062,39.898-12.599
	c65.754,42.337,99.663,28.482,130.717-9.575c11.11-9.78,25.349-15.134,40.382-18.231c23.859,12.243,50.555,25.755,75.232,38.285
	c45.042,22.868,77.37,20.493,106.099,17.172c15.363-22.987,27.098-48.596,34.407-76.018H8.62
	C15.148,346.556,25.211,369.612,38.244,390.639z M18.798,282.986l-0.018-0.005c-0.493,1.101-0.991,2.266-1.503,3.485
	C17.779,285.302,18.282,284.142,18.798,282.986z"/>
<path style="fill:#DFF5F9;" d="M237.319,511.319c5.678-7.811,9.031-17.423,9.031-27.82c0-26.157-21.205-47.362-47.362-47.362
	s-47.358,21.205-47.358,47.362c0,2.206,0.151,4.381,0.443,6.51C178.44,501.74,207.155,509.14,237.319,511.319z"/>
<path style="fill:#00877A;" d="M7.944,319.517h496.107c-0.356,1.412-0.74,2.819-1.128,4.216H9.077
	C8.689,322.336,8.305,320.929,7.944,319.517z"/>
<path style="fill:#B1E9F1;" d="M255.989,327.585l-19.693,13.832L255.989,327.585z M231.54,344.756l-93.898,65.927L231.54,344.756z
	 M134.102,413.173l-48.376,33.969L134.102,413.173z M255.989,327.585v13.407V327.585z M255.989,345.359v26.331V345.359z
	 M255.989,376.281V512V376.281z M255.989,327.585l18.93,13.325L255.989,327.585z M281.319,345.414l66.224,46.604L281.319,345.414z
	 M350.928,394.398l43.941,30.926L350.928,394.398z M398.446,427.846l27.646,19.456L398.446,427.846z M117.986,360.096
	c29.848,0,54.041,0.676,54.041,1.512s-24.193,1.517-54.041,1.517c-29.844,0-54.036-0.681-54.036-1.517
	S88.142,360.096,117.986,360.096z M488.273,363.737c-1.43,3.074-2.905,6.126-4.449,9.132c-9.141-0.717-15.573-2.435-15.573-4.436
	C468.251,366.121,476.844,364.189,488.273,363.737z M448.722,424.493c-1.188,1.357-2.389,2.709-3.6,4.038
	c-17.939-0.005-34.083-0.251-45.435-0.644l-1.243-0.041c-9.68-0.361-15.554-0.822-15.554-1.334c0-0.443,4.445-0.854,11.978-1.188
	l1.192-0.05c11.457-0.48,29.35-0.781,49.459-0.781H448.722z M386.144,476.478c-3.335,1.969-6.715,3.869-10.141,5.692
	c-10.836,0.868-25.81,1.407-42.356,1.407c-33.055,0-59.847-2.147-59.847-4.797s26.792-4.797,59.847-4.797
	C356.277,473.984,375.97,474.994,386.144,476.478z M99.777,458.8c-3.074-2.371-6.098-4.815-9.063-7.323
	c4.5-0.142,9.346-0.219,14.399-0.219c23.572,0,42.68,1.695,42.68,3.787c0,2.092-19.108,3.787-42.68,3.787
	C103.308,458.832,101.527,458.822,99.777,458.8z M43.566,398.893c-2.403-3.563-4.714-7.19-6.934-10.877
	c4.12-0.256,8.606-0.397,13.302-0.397c20.013,0,36.239,2.544,36.239,5.683s-16.226,5.678-36.239,5.678
	C47.76,398.98,45.636,398.953,43.566,398.893z M312.227,435.388c14.668,0,26.564,1.631,26.564,3.636
	c0,2.005-11.895,3.636-26.564,3.636c-14.673,0-26.568-1.631-26.568-3.636C285.659,437.019,297.554,435.388,312.227,435.388z
	 M92.737,330.047c42.26,0,76.516,1.471,76.516,3.28c0,1.814-34.256,3.284-76.516,3.284s-76.516-1.471-76.516-3.284
	C16.221,331.518,50.478,330.047,92.737,330.047z M274.302,371.462c24.27,0,43.941,1.128,43.941,2.522
	c0,1.398-19.67,2.526-43.941,2.526c-5.811,0-11.356-0.064-16.432-0.183l-1.882-0.046c-15.12-0.397-25.623-1.275-25.623-2.298
	c0-1.019,10.502-1.896,25.623-2.293l1.941-0.05C262.992,371.526,268.514,371.462,274.302,371.462z M386.176,391.662
	c33.055,0,59.852,0.676,59.852,1.512s-26.797,1.517-59.852,1.517c-12.576,0-24.243-0.101-33.877-0.265l-1.37-0.027
	c-14.91-0.274-24.599-0.722-24.599-1.224c0-0.461,8.241-0.877,21.214-1.156l1.348-0.027
	C359.119,391.785,372.078,391.662,386.176,391.662z M441.226,342.673c24.965,0,45.202,1.014,45.202,2.27s-20.237,2.275-45.202,2.275
	c-24.965,0-45.202-1.019-45.202-2.275S416.261,342.673,441.226,342.673z M182.099,410.304c38.509,0,69.728,0.745,69.728,1.663
	c0,0.918-31.219,1.663-69.728,1.663c-18.135,0-34.654-0.169-47.056-0.439l-0.941-0.018c-13.389-0.306-21.735-0.731-21.735-1.206
	c0-0.516,9.84-0.978,25.275-1.284l1.051-0.018C150.602,410.437,165.686,410.304,182.099,410.304z M271.274,340.905l3.645,0.005
	l2.078,0.005c27.852,0.119,49.582,1.087,49.582,2.261c0,1.087-18.528,1.992-43.292,2.22l-1.969,0.018
	c-3.257,0.023-6.615,0.037-10.045,0.037c-4.554,0-8.976-0.023-13.206-0.064l-2.079-0.027c-8.547-0.101-16.253-0.283-22.562-0.525
	l-1.887-0.078c-9.639-0.411-15.573-0.964-15.573-1.581c0-0.708,7.921-1.348,20.328-1.759l2.156-0.069
	c5.221-0.16,11.142-0.279,17.537-0.356l2.129-0.023C262.334,340.924,266.742,340.905,271.274,340.905z"/>
<g>
</g>
<g>
</g>
<g>
</g>
<g>
</g>
<g>
</g>
<g>
</g>
<g>
</g>
<g>
</g>
<g>
</g>
<g>
</g>
<g>
</g>
<g>
</g>
<g>
</g>
<g>
</g>
<g>
</g>
</svg>
