<?xml version="1.0" encoding="iso-8859-1"?>
<!-- Generator: Adobe Illustrator 19.0.0, SVG Export Plug-In . SVG Version: 6.00 Build 0)  -->
<svg version="1.1" id="Layer_1" xmlns="http://www.w3.org/2000/svg" xmlns:xlink="http://www.w3.org/1999/xlink" x="0px" y="0px"
	 viewBox="0 0 512 512" style="enable-background:new 0 0 512 512;" xml:space="preserve">
<path style="fill:#FFECB4;" d="M255.997,0C397.385,0,512,114.615,512,255.997C512,397.385,397.385,512,255.997,512
	C114.615,512,0,397.385,0,255.997C0,114.615,114.615,0,255.997,0z"/>
<path style="fill:#FFFFFF;" d="M467.964,147.175c2.659,0,5.165,0.434,7.384,1.192c2.401-1.597,5.694-2.583,9.321-2.583
	c0.863,0,1.702,0.053,2.518,0.158c4.209,8.828,7.93,17.932,11.123,27.283c-1.925,1.45-4.714,2.36-7.813,2.36
	c-2.923,0-5.565-0.804-7.472-2.119c-1.908,1.315-4.549,2.119-7.472,2.119c-2.776,0-5.306-0.734-7.185-1.925
	c-1.919,1.426-4.684,2.324-7.766,2.324c-2.876,0-5.482-0.781-7.378-2.054c-0.869,0.129-1.773,0.2-2.7,0.2
	c-6.921,0-12.526-3.815-12.526-8.523s5.606-8.517,12.526-8.517c0.376,0,0.751,0.012,1.121,0.035
	C452.532,151.531,459.5,147.175,467.964,147.175z"/>
<path style="fill:#FFB54C;" d="M271.018,70.38c52.048,0,94.241,42.193,94.241,94.241s-42.193,94.241-94.241,94.241
	s-94.241-42.193-94.241-94.241S218.97,70.38,271.018,70.38z"/>
<path d="M245.742,32.402c0,0,5.794-1.244,10.642-0.317c4.854,0.933,9.914,4.96,15.391,5.271s4.338-1.755,4.338-1.755
	s-3.51,0.517-4.444-2.477c-0.927-3,2.894-5.377,8.781-9.503c5.887-4.132,7.026-8.265,5.887-10.848c0,0-1.033,1.649-5.887,4.232
	c-4.854,2.589-8.365,7.337-12.186,10.742c-3.821,3.41-4.033,3.616-7.648,2.894C257.007,29.919,249.258,28.786,245.742,32.402z"/>
<path style="fill:#E55000;" d="M312.923,335.387c0.106-0.053,0.423-0.135,0.892-0.247l0.018-0.006
	c0.311-0.07,0.681-0.153,1.104-0.241l0.035-0.006c1.244-0.264,2.888-0.564,4.426-0.816h0.012c1.156-0.182,2.254-0.335,3.093-0.411
	c1.779-0.164,3.305-0.399,4.238-0.305c2.882-24.002,1.62-41.876,0.851-49.055c-0.992-0.657-1.837-1.796-2.031-3.117
	c-0.188-1.285,0.605-2.618,1.655-3.328c-0.076-1.878-0.229-5.389-0.452-9.674l-0.006-0.123c-0.305-5.741-0.734-12.855-1.274-19.335
	l0,0l-0.006-0.117c-0.299-3.604-0.634-7.003-0.998-9.85l-0.205,0.006l-0.2,0.006l-0.194,0.012h-0.065
	c-0.798,0.035-1.538,0.07-2.213,0.1h-0.018l-0.159,0.006l-0.147,0.012l-0.153,0.006h-0.018c-0.675,0.029-1.268,0.059-1.779,0.082
	l-0.076,0.006h-0.076l-0.082,0.006h-0.082l-0.076,0.006l-0.076,0.006h-0.006l-0.599,0.029h-0.023h-0.041h-0.035l-0.029,0.006h-0.035
	h-0.035l-0.035,0.006h-0.029h-0.029h-0.035l-0.029,0.006h-0.029h-0.029l-0.023,0.006h-0.023l-0.481,0.023
	c-0.517,0.17-1.18,0.34-1.931,0.511h-0.006c-0.252,0.053-0.511,0.106-0.781,0.164l0,0l-0.182,0.035l0,0l-0.082,0.018l0,0
	c-0.217,0.041-0.446,0.082-0.669,0.123l0,0l-0.082,0.018l-0.158,0.029c-0.317,0.059-0.64,0.112-0.963,0.17l0,0l-0.076,0.012
	l-0.041,0.006l-0.117,0.023c-0.176,0.029-0.352,0.059-0.534,0.088l0,0l-0.123,0.018l-0.123,0.023
	c-0.252,0.041-0.499,0.076-0.74,0.117h-0.018l-0.147,0.023l-0.082,0.012c-0.223,0.035-0.446,0.065-0.657,0.1h-0.006
	c-1.086,0.164-2.096,0.299-2.9,0.405l-0.053,0.006c-0.293,0.041-0.558,0.076-0.787,0.106h-0.018l-0.041,0.006l-0.041,0.006h-0.035
	l-0.035,0.006l-0.035,0.006l-0.035,0.006l-0.029,0.006c-0.446,0.053-0.71,0.082-0.71,0.082c-2.131,1.062-3.193,3.193-3.193,3.193
	c-0.264-1.327,1.861-4.52,1.861-4.52c0.211-0.387,0.587-0.734,1.08-1.039c-1.274,0.123-2.407,0.64-2.407,0.64
	c0.399-1.197,2.923-2.395,2.923-2.395c0-1.72,11.364-1.679,13.078-0.669h5.735c-0.2-1.315-0.411-2.448-0.628-3.352
	c-1.168-0.006-2.354-0.035-3.551-0.106c-23.145-1.327-35.706-21.149-38.577-30.324c-3.992-12.773,3.369-32.102,13.835-44.693
	c8.799-10.589,7.713-29.267-10.906-22.082c0,0-1.585,6.111-7.584,8.112c-3.886,1.297-6.363,0.787-8.13-0.528
	c-0.27-0.012-3.862-0.082-5.482,1.28c-1.444,1.221-3.504,4.314-5.706,6.827c-1.808,2.054-3.71,3.722-5.465,3.639
	c-2.424-0.112-1.667-6.345-0.023-11.699c1.004-3.252,2.336-6.181,3.481-7.191c3.011-2.659,5.318-3.281,9.286-3.434l0.018,0.012
	c0.851-2.207,2.806-3.992,4.972-5.265c4.52-2.659,10.108-1.332,10.108-1.332s13.066-5.025,24.653,3.281
	c9.398,6.739,4.878,23.855-3.099,34.497c-7.983,10.642-16.764,33.787-5.06,35.912c0,0,20.31-10.196,38.137-8.511
	c10.149,0.957,27.841,15.432,36.352,25.012c5.647,6.345,7.537,9.386,7.813,10.895c0.299,0.622,0.517,1.209,0.605,1.696
	c1.057,1.72,2.125,3.921,1.162,4.567c-1.197,0.798-3.322-3.064-3.322-3.064s1.919,3.956,0.399,4.86
	c-0.904,0.534-2.683-1.303-4.226-3.258c-1.268-1.174-2.782-2.823-4.173-4.367c-2.876-2.313-5.929-4.737-7.478-5.124
	c0,0-11.828,7.449-28.428,9.732c1.021,0.112,2.066,0.223,3.134,0.335l0.282,0.029c0.851,0.088,1.708,0.176,2.577,0.264l0.153,0.012
	c1.221,0.129,2.454,0.252,3.686,0.37l0.123,0.012l0.98,0.1h0.012l0.335,0.029l0.182,0.023l1.509,0.147h0.018l0.305,0.029
	l0.147,0.012l1.497,0.147l0.117,0.006l0.264,0.029l0.194,0.018l0.869,0.082l0.059,0.006l0.229,0.018l0.223,0.023l0.041,0.006
	l1.914,0.176l0.1,0.012l0.2,0.018l0.194,0.018l0.053,0.006l1.538,0.141l0,0l0,0l0.153,0.012l0.153,0.018l0.147,0.012l0.082,0.006
	l1.285,0.123l0,0l0.299,0.023l0.106,0.012l0.112,0.006l0.065,0.012l1.156,0.106h0.006l0.076,0.006l0.076,0.006l0.07,0.006
	l0.076,0.006l0.07,0.006l0.076,0.012h0.07l1.591,0.147l0,0h0.018l0.041,0.006h0.041l0.041,0.006l0.041,0.006h0.041l0.041,0.006
	l0.035,0.006h0.041l0.041,0.006h0.041l0.041,0.006l0.035,0.006h0.041l0.041,0.006h0.041l0.035,0.006h0.041l0.035,0.006h0.023
	l0.352,0.035c0.775-0.605,1.779-1.015,2.835-1.004c3.129,0.035,5.653,5.694-0.112,5.717c-0.787,0.006-1.444-0.065-1.99-0.188
	l-0.012-0.006h-0.012l-0.018-0.006l-0.023-0.006l-0.023-0.006h-0.006h-0.018l-0.018-0.012h-0.023l-0.023-0.006v-0.006h-0.018
	l-0.023-0.006l-0.018-0.006l-0.023-0.006l0,0l-0.018-0.006l-0.059-0.018l-0.023-0.006l-0.018-0.006l-0.023-0.006l-0.018-0.006l0,0
	l-0.023-0.006l-0.018-0.012h-0.018l-0.018-0.012l0,0l-0.018-0.006l-0.023-0.006l-0.018-0.006l-0.018-0.006l-0.018-0.006
	l-0.018-0.006l-0.023-0.006l-0.018-0.012l-0.018-0.006l-0.018-0.006l-0.018-0.006l-0.012-0.006h-0.006l-0.018-0.012l-0.018-0.006
	l-0.018-0.006l-0.006-0.006h-0.012l-0.018-0.006l-0.018-0.012l-0.018-0.006l-0.018-0.006l-0.012-0.012l-0.018-0.006l-0.018-0.006
	l-0.006-0.006h-0.012l-0.018-0.012l-0.012-0.006l-0.018-0.006v-0.006l-0.018-0.006l-0.018-0.006l-0.012-0.012h-0.006l-0.023-0.012
	l-0.018-0.012l-0.018-0.006l-0.012-0.006l0,0l-0.018-0.012l-0.012-0.006l-0.018-0.012l-0.012-0.006l0,0l-0.018-0.012
	c-0.54-0.317-0.845-0.728-0.963-1.18l-0.646-0.012l-0.47-0.006l0,0c-0.258-0.006-0.528-0.006-0.798-0.012l0,0l-0.546-0.006l0,0
	c-0.276,0-0.558,0-0.834-0.006h-0.047h-0.147c-0.387,0-0.787,0-1.186,0h-0.117h-0.429c-0.499,0-0.992,0-1.503,0.006l0,0h-0.54
	c-0.382,0.006-0.775,0.012-1.162,0.012h-0.029l-0.405,0.006h-0.106c-0.505,0.006-1.01,0.012-1.52,0.023h-0.382h-0.041
	c-0.464,0.012-0.933,0.018-1.403,0.023l-0.018,0.006h-0.235l-1.098,0.023l-0.229,0.006l-0.288,0.006l-1.086,0.023h-0.147
	l-0.305,0.006h-0.035l-1.197,0.035h-0.217l-0.276,0.012l-0.992,0.023h-0.029l-0.258,0.006l-0.252,0.012l-1.104,0.029h-0.047
	l-0.229,0.006l-0.235,0.006h-0.018c-1.632,0.053-3.234,0.106-4.79,0.153l-0.194,0.012h-0.065l-1.057,0.035l-0.1,0.006h-0.117
	l-0.112,0.006l-0.117,0.006h-0.088l-1.045,0.041l0,0l-0.528,0.023l0,0l-1.18,0.041l0,0l-0.17,0.006l-0.065,0.006l-0.176,0.006
	h-0.065h-0.059l0,0l-0.839,0.035h-0.023l-0.035,0.006h-0.029h-0.035h-0.035l-0.029,0.006h-0.035h-0.029h-0.035h-0.029l-0.035,0.006
	h-0.029h-0.035h-0.029h-0.035l-0.029,0.006h-0.012l-0.722,0.029l0.041,0.998v0.094l0.012,0.235l0.006,0.164l0,0l0.065,1.579
	l0.012,0.247l0.006,0.282l0.047,1.18l0,0l0,0l0.018,0.329l0.006,0.176l0,0l0.047,1.15l0.006,0.135l0.018,0.37v0.006l0,0l0.059,1.503
	l0.012,0.235l0.012,0.247l0.041,0.98l0.018,0.346l0.065,1.444l0.006,0.129c0.029,0.652,0.065,1.297,0.094,1.955v0.012
	c0.428,8.687,1.051,18.079,2.025,23.615l0.006,0.006v0.012v0.006v0.006v0.012l0.012,0.029v0.012v0.006v0.012l0.006,0.006v0.006
	v0.012c0.065,0.364,0.135,0.716,0.2,1.051l0.006,0.006v0.006v0.006v0.006l0.006,0.006v0.006c0.018,0.106,0.041,0.211,0.065,0.317
	l0,0l0.006,0.012l0,0l0.012,0.012l0.012,0.006l0,0l0,0l0.018,0.012l0,0l0.023,0.012l0,0l0.012,0.012
	c0.123,0.076,0.235,0.176,0.346,0.288l0,0l0.012,0.006l0.006,0.012l0.023,0.018v0.006l0.012,0.012l0.006,0.006l0,0l0.012,0.012
	l0.006,0.006l0.006,0.006l0.012,0.018l0.006,0.006l0.012,0.012l0,0l0.012,0.012l0.012,0.012l0,0l0.006,0.012l0.012,0.012l0,0
	l0.006,0.006l0.012,0.018l0,0l0.012,0.012l0.006,0.012l0,0l0.012,0.012l0.006,0.012l0,0l0.012,0.012l0.006,0.012h0.006l0.006,0.012
	c0.182,0.241,0.34,0.534,0.481,0.886v0.006v0.006l0.006,0.006v0.012l0.006,0.006v0.006l0.006,0.006v0.012l0,0l0.006,0.006v0.012
	l0.006,0.006v0.006l0.006,0.012v0.006l0.006,0.006v0.006v0.006l0.006,0.006v0.012l0.006,0.006v0.012l0.006,0.006v0.006v0.006
	l0.006,0.006v0.012l0.006,0.006v0.006l0.006,0.012v0.006l0,0l0.006,0.012v0.006v0.012l0.006,0.006l0.006,0.012v0.006l0,0v0.012
	l0.006,0.006l0.006,0.006v0.012v0.006l0.006,0.012l0.006,0.018v0.006l0.006,0.012v0.006v0.012l0.006,0.012l0,0l0.006,0.006v0.018
	l0.006,0.006v0.012l0.006,0.012l0.006,0.018v0.006l0.006,0.012v0.006v0.012l0.006,0.006l0.006,0.023v0.006l0.006,0.012v0.006
	c0.065,0.235,0.117,0.481,0.159,0.751c0.059,0.364,0.094,0.699,0.117,1.016v-0.006c0.012,0.123,0.018,0.241,0.018,0.352l0,0
	c0.012,0.417-0.012,0.787-0.065,1.109l-0.006,0.018l0,0v0.012v0.018l-0.006,0.018v0.012l-0.006,0.012v0.006v0.018l-0.006,0.012
	v0.018l-0.006,0.018v0.012l-0.006,0.018l-0.006,0.012v0.018l-0.006,0.012v0.018v0.012l-0.006,0.018l-0.006,0.012v0.018l-0.006,0.012
	l-0.006,0.018v0.012l0,0l-0.006,0.018l-0.006,0.012v0.012l-0.006,0.018v0.006l-0.006,0.006v0.012l-0.006,0.018v0.012l-0.006,0.012
	l0,0l-0.006,0.018v0.012l-0.006,0.012l-0.006,0.018v0.012l-0.006,0.012l-0.006,0.012l-0.006,0.018v0.006v0.006l-0.006,0.012
	l-0.006,0.012v0.018l-0.006,0.012l0,0l-0.006,0.012l-0.006,0.012l-0.006,0.012v0.018h-0.006l-0.006,0.012v0.012l-0.006,0.012
	l-0.006,0.012v0.012h-0.006v0.012l-0.006,0.012l-0.006,0.012l-0.006,0.012v0.006l-0.006,0.006l-0.006,0.012v0.012l-0.006,0.018
	l-0.006,0.006l0,0l-0.006,0.012c-0.17,0.37-0.393,0.64-0.652,0.828v0.669v0.023v0.035v0.035v0.035v0.035v0.035v0.035v0.035v0.035
	v0.035v0.012l0,0l0.006,1.244v0.047v0.059v0.059v0.059v0.053l0.006,1.215l0,0v0.376l0,0l0.006,1.385l0,0v0.364l0,0v1.033l0,0v0.358
	v0.012l0,0v1.268l0,0v0.17v0.159v0.164v0.035v0.792v0.07v0.194v0.188v0.059l0,0v1.098l0,0v0.481l0,0v1.25l0,0v0.235v0.223v1.01
	v0.229v0.258v0.041v0.487v0.023v0.293v0.117l-0.006,1.033l0,0v0.376v0.023v0.904v0.17v0.288v1.409l-0.006,0.205v0.293v0.787v0.123
	v0.37l-0.006,1.162v0.323v0.229l0,0v0.569v0.364l-0.006,0.182l-0.006,1.996v0.147v0.27v1.098l0,0l-0.006,0.305v0.112v0.828l0,0
	l-0.006,0.481v0.023l0,0v0.945v0.117v0.352l-0.006,1.156v0.006l-0.006,0.411v1.139l-0.006,0.47v0.023v1.027l-0.006,0.405v0.053
	l-0.006,1.016v0.258l0,0l-0.006,1.303l0,0v0.235v0.182l0,0l-0.006,1.462v0.094v0.305l0,0l-0.006,0.781l-0.006,0.399v0.094
	l-0.006,1.514v0.041v0.446l-0.006,1.115l-0.006,0.387v0.065l-0.006,1.403v0.382v0.059l-0.006,0.822v0.317v0.041l-0.018,2.078
	c0.059,0.023,0.112,0.059,0.17,0.106c0.053,0.053,0.106,0.094,0.158,0.147l0,0l0.012,0.006l0,0l0,0h0.006l0.006,0.006v0.006h0.006
	l0,0l0.006,0.006l0,0l0.006,0.006l0,0l0,0l0.006,0.006l0.006,0.006h0.006v0.006l0,0l0.006,0.006l0.012,0.006l0.006,0.006
	l0.006,0.006l0,0l0,0l0.006,0.006v0.006h0.006l0,0l0.006,0.006h0.006v0.006h0.006l0,0l0.006,0.006l0.006,0.006l0,0l0,0l0.006,0.006
	l0,0l0.006,0.006l0.006,0.006l0,0l0,0l0.006,0.006l0.006,0.006l0,0l0,0l0.006,0.006l0.006,0.006l0,0h0.006v0.006h0.006l0.006,0.006
	l0,0v0.006h0.006l0.006,0.006l0,0l0,0l0.006,0.006h0.006v0.006l0,0l0.006,0.006h0.006v0.006h0.006l0,0l0.006,0.006v0.006h0.006l0,0
	l0.006,0.006l0.006,0.006l0,0l0.006,0.006l0,0l0.006,0.006c0.159,0.147,0.311,0.293,0.458,0.434l0,0
	c0.088,0.088,0.17,0.17,0.252,0.252l0,0c0.153,0.164,0.305,0.329,0.446,0.493l0,0c0.07,0.076,0.141,0.159,0.205,0.235l0,0
	c0.176,0.211,0.335,0.411,0.487,0.616h0.006c0.041,0.053,0.082,0.112,0.117,0.164l0,0c0.704,0.957,1.156,1.837,1.444,2.489v0.006
	l0.006,0.006l0,0v0.006l0,0v0.006h0.006v0.006l0,0l0.006,0.006v0.006l0,0v0.006l0,0h0.006v0.006l0,0v0.006v0.006h0.006v0.006l0,0
	l0.006,0.006v0.006l0,0l0,0v0.006l0.006,0.006l0,0v0.006v0.006h0.006v0.006l0,0l0,0l0.006,0.006v0.006l0,0v0.006l0.006,0.006v0.006
	v0.006h0.006v0.006l0,0v0.006l0,0l0.006,0.006l0,0v0.006l0.006,0.006l0,0v0.006l0,0v0.006h0.006v0.006v0.006l0,0h0.006v0.006l0,0
	v0.006c0.241,0.581,0.329,0.939,0.329,0.939c0.886,0.886,0.933,2.436,0.933,2.436c0-0.382-1.121-1.514-1.919-2.189
	c-1.861-0.317-10.56-1.726-14.27-1.133c-1.462,0.399-1.996,1.332-2.26,1.861c0,0,0.088-0.851,0.464-1.602
	c-1.421-3.328-3.669-4.314-4.344-4.543c-0.317-0.059-0.511-0.106-0.511-0.106c-1.197,0.399-2.659,0.663-2.659,0.663
	C310.528,336.455,312.389,335.657,312.923,335.387z M345.853,235.37L345.853,235.37l0.364,0.047l0,0l8.353,1.004h-27.829v-0.012
	v-0.029l0,0c-0.012-0.293-0.029-0.575-0.041-0.845l0,0l-0.018-0.44l0,0c-0.018-0.399-0.041-0.769-0.059-1.092v-0.012l-0.023-0.423
	v-0.035c-0.012-0.176-0.023-0.335-0.035-0.481l2.9,0.352l0.17,0.018l0.223,0.029l1.479,0.176l0.335,0.041l0.141,0.018l0,0
	l1.591,0.194l0.141,0.012l0.405,0.047l0,0l1.467,0.182l0,0l0.352,0.041l0,0l2.031,0.241l0.076,0.012l0.305,0.035l0.059,0.012l0,0
	l1.79,0.211l0,0l0.376,0.047l0,0l1.503,0.182l0,0l0.517,0.059l0,0l1.35,0.164l0,0l0.252,0.029l0,0L345.853,235.37z M325.479,248.607
	L325.479,248.607L325.479,248.607z"/>
<path style="fill:#FFFFFF;" d="M134.056,75.827c4.76,0,9.251,0.769,13.231,2.137c4.303-2.87,10.196-4.637,16.7-4.637
	c11.264,0,20.703,5.3,23.227,12.432c5.629,1.145,10.143,4.038,12.203,7.748c0.675-0.053,1.362-0.076,2.06-0.076
	c10.401,0,18.842,5.735,18.842,12.814c0,7.073-8.441,12.808-18.842,12.808c-3.246,0-6.298-0.552-8.957-1.532
	c-2.289,5.324-9.521,9.21-18.091,9.21c-5.236,0-9.967-1.45-13.389-3.798c-3.416,2.348-8.153,3.798-13.389,3.798
	c-4.972,0-9.503-1.315-12.873-3.451c-3.446,2.559-8.394,4.168-13.906,4.168c-5.16,0-9.826-1.403-13.225-3.686
	c-1.556,0.235-3.176,0.352-4.831,0.352c-12.403,0-22.452-6.833-22.452-15.262s10.049-15.262,22.452-15.262
	c0.669,0,1.344,0.023,2.002,0.065C106.415,83.628,118.894,75.827,134.056,75.827z"/>
<path d="M138.048,52.4c0,0,5.794-1.239,10.636-0.311c4.86,0.927,9.92,4.96,15.397,5.271c5.477,0.305,4.338-1.761,4.338-1.761
	s-3.51,0.522-4.443-2.477c-0.927-2.994,2.894-5.377,8.781-9.497c5.887-4.132,7.026-8.265,5.887-10.853c0,0-1.033,1.655-5.887,4.238
	c-4.854,2.583-8.365,7.337-12.186,10.736c-3.821,3.416-4.033,3.622-7.648,2.9C149.312,49.917,141.564,48.785,138.048,52.4z"/>
<path style="fill:#B1E9F1;" d="M4.86,305.826h502.274C483.948,423.359,380.333,512,255.997,512
	C131.667,512,28.046,423.359,4.86,305.826z"/>
<g>
	<path style="fill:#DFF5F9;" d="M293.676,305.826h213.458c-0.869,4.402-1.843,8.77-2.935,13.09
		c-18.062,0.423-37.649,0.657-58.124,0.657c-90.238,0-163.382-4.52-163.382-10.102C282.693,308.186,286.585,306.953,293.676,305.826
		z"/>
	<path style="fill:#DFF5F9;" d="M388.228,328.302c51.303,0,92.885,2.013,92.885,4.508c0,2.495-41.582,4.514-92.885,4.514
		c-51.297,0-92.879-2.019-92.879-4.514C295.349,330.316,336.931,328.302,388.228,328.302z M478.565,382.563
		c-0.616,1.08-1.25,2.154-1.878,3.228c-12.673,1.872-44.905,3.205-82.677,3.205c-48.831,0-88.418-2.225-88.418-4.972
		s39.586-4.972,88.418-4.972C433.819,379.053,467.477,380.532,478.565,382.563z M12.268,334.46
		c-0.276-0.845-0.558-1.691-0.822-2.542c6.879-1.438,25.886-2.471,48.256-2.471c28.17,0,51.009,1.644,51.009,3.663
		c0,2.025-22.84,3.663-51.009,3.663C38.166,336.772,19.746,335.816,12.268,334.46z M164.591,374.932
		c62.596,0,113.341,1.35,113.341,3.011c0,1.661-50.745,3.011-113.341,3.011s-113.341-1.35-113.341-3.011
		C51.25,376.283,101.995,374.932,164.591,374.932z M138.488,392.66c46.026,0,83.335,1.233,83.335,2.747
		c0,1.52-37.309,2.753-83.335,2.753c-46.02,0-83.329-1.233-83.329-2.753C55.159,393.892,92.468,392.66,138.488,392.66z
		 M260.071,410.111c51.062,0,92.462,1.514,92.462,3.387c0,1.867-41.4,3.381-92.462,3.381s-92.456-1.514-92.456-3.381
		C167.614,411.625,209.009,410.111,260.071,410.111z"/>
</g>
<g>
</g>
<g>
</g>
<g>
</g>
<g>
</g>
<g>
</g>
<g>
</g>
<g>
</g>
<g>
</g>
<g>
</g>
<g>
</g>
<g>
</g>
<g>
</g>
<g>
</g>
<g>
</g>
<g>
</g>
</svg>
