<?xml version="1.0" encoding="iso-8859-1"?>
<!-- Generator: Adobe Illustrator 19.0.0, SVG Export Plug-In . SVG Version: 6.00 Build 0)  -->
<svg version="1.1" id="Layer_1" xmlns="http://www.w3.org/2000/svg" xmlns:xlink="http://www.w3.org/1999/xlink" x="0px" y="0px"
	 viewBox="0 0 512 512" style="enable-background:new 0 0 512 512;" xml:space="preserve">
<path style="fill:#FFC36E;" d="M256,0c141.386,0,256,114.614,256,256c0,141.386-114.614,256-256,256C114.614,512,0,397.386,0,256
	C0,114.614,114.614,0,256,0z"/>
<g>
	<path style="fill:#FFB54C;" d="M8.793,322.696h494.412C508.928,301.429,512,279.075,512,256C512,114.614,397.386,0,256,0
		C114.614,0,0,114.614,0,256C0,279.075,3.072,301.429,8.793,322.696z"/>
	<path style="fill:#FFFFFF;" d="M185.08,191.516c0,18.937-15.352,34.289-34.286,34.289c-18.937,0-34.288-15.352-34.288-34.289
		c0-18.936,15.351-34.286,34.288-34.286C169.728,157.23,185.08,172.58,185.08,191.516z"/>
	<path style="fill:#ED6C00;" d="M285.485,1.699c-1.825,0.836-3.61,1.922-5.168,3.331c-0.202,0.181,10.379,4.086,15.913,2.139
		c0,0-3.047,7.6-2.188,16.882c0,0,8.388-7.307,11.551-11.467c0,0,0.193,1.359,0.639,3.338c-0.21,0.742-0.384,1.5-0.501,2.277
		c-0.007,0.051,0.369-0.041,1-0.257c0.023,0.085,0.046,0.169,0.069,0.257c-0.477,0.08-0.953,0.181-1.427,0.314
		c-0.078,0.023,0.832,1.038,2.222,2.277c0.408,1.207,0.884,2.439,1.443,3.624c0,0,0.381-0.63,0.919-1.716
		c1.748,1.267,3.734,2.385,5.491,2.598c0,0-4.611,4.132-7.137,10.713c0,0,8.134-2.144,11.671-3.903c0,0-1.551,4.673-1.627,9.172
		c0,0,1.714-1.097,3.748-3.012c0.22,2.813,0.855,9.004,2.36,12.246c0,0-8.984-5.22-15.038-6.329c0,0,4.897,9.612,9.785,12.392
		c0,0-6.212,2.089-8.437,7.364c0,0,8.604,3.092,14.905-1.207c0,0-3.768,4.821,0.981,12.259c0,0,8.791-5.124,10.782-16.66
		c3.397,1.033,6.824,1.971,10.273,2.813c-0.007,0.185-0.016,0.369-0.018,0.547c0,0,0.22-0.142,0.587-0.403
		c0.689,0.167,1.381,0.321,2.073,0.481c1.62,1.945,3.896,4.336,6.237,5.662c0,0-8.347-2.801-15.901-0.185
		c0,0,7.552,5.662,12.113,6.865c0,0-9.754,3.578-14.474,7.525c0,0,5.048,1.138,9.897,1.182c1.143,1.814,2.563,3.731,4.135,5.046
		c0,0-7.044-3.88-14.571-3.161c-1.697-1.977-6.214-6.027-15.624-7.591c0,0,3.459,6.118,6.781,9.229c0,0-8.707,0.227-13.788,5.267
		c-0.144,0.142,7.983,2.726,12.097,1.062c0,0-2.036,5.846-1.065,12.83c0,0,3.706-3.544,6.4-6.647
		c0.627,0.247,1.608,0.619,2.797,1.02c0.488,1.624,1.191,3.587,2.144,5.378c0,0,0.914-1.688,1.746-4.224
		c2.753,0.694,5.751,1.159,8.015,0.752c0,0-3.425,5.584-1.746,11.061c0,0,8.583-3.148,10.658-10.489c0,0,0.202,6.116,8.617,8.778
		c0,0,3.456-9.57-2.416-19.702c1.704-0.719,3.394-1.471,5.073-2.24c-0.32,2.249-0.49,5.154-0.055,8.292c0,0,6.082-5.814,8.327-9.066
		c0,0,0.905,4.843,3.014,8.819c0,0,1.023-1.89,1.889-4.668c2.321,1.228,8.242,4.201,11.939,4.666c0,0-9.192,4.841-13.345,9.382
		c0,0,10.74,0.956,15.693-1.711c0,0-0.55,2.32-0.268,5.191c-3.267,0.369-8.006,1.583-13.637,5.037
		c-2.426-1.267-5.621-2.44-9.771-3.132c0,0,3.461,6.119,6.783,9.229c0,0-8.704,0.229-13.79,5.266
		c-0.142,0.144,7.985,2.726,12.097,1.063c0,0-2.034,5.848-1.065,12.829c0,0,6.084-5.813,8.328-9.064c0,0,0.257,1.359,0.807,3.218
		c-0.188,1.2-0.278,2.431-0.227,3.675c0.002,0.061,0.492-0.174,1.269-0.632c0.339,0.855,0.724,1.723,1.166,2.556
		c0,0,0.994-1.835,1.853-4.551c2.9-2.105,6.402-5.191,7.534-8.237c0,0,3.894,7.199,11.584,12.475c0,0-0.257-11.121-1.429-16.212
		c0,0,3.383,2.093,7.609,3.717c-0.392,0.188-0.767,0.381-1.122,0.582c0,0,9.921,4.233,15.455,3.232c0,0-3.422,5.584-1.745,11.059
		c0,0,8.582-3.148,10.658-10.486c0,0,0.204,6.113,8.615,8.775c0,0,3.459-9.568-2.414-19.697c4.826-2.048,9.57-4.288,14.218-6.718
		c2.369-1.239,4.779-2.495,7.137-3.832c-0.703,2.046-2.648,8.544-1.938,16.204c0,0,5.213-4.545,8.97-8.505
		c-3.496-5.447-7.198-10.745-11.082-15.899c-1.426,0.293-2.973,0.701-4.531,1.269l0,0c-1.129-3.298-3.209-7.217-7.074-10.679
		c0.799-0.696,1.592-1.399,2.38-2.107c-0.683-0.804-1.359-1.613-2.05-2.408c-0.907,0.873-1.819,1.741-2.735,2.602
		c-0.607-0.431-1.237-0.852-1.912-1.255c0,0-6.845-6.535-14.898-4.891l0,0c-2-3.109-4.824-6.501-8.526-8.732
		c0.6-0.632,1.2-1.269,1.793-1.915c3.274-0.1,7.124-0.534,9.564-1.849c0,0-1.523,6.372,1.763,11.059c0,0,2.887-2.275,4.925-5.884
		c-4.304-4.412-8.766-8.668-13.377-12.761c-0.598,0.882-1.233,1.739-1.883,2.559c-0.644,0.811-1.31,1.61-1.979,2.405
		c-1.922,1.36-3.795,2.861-5.142,4.331c0,0,0.472,0.044,1.257,0.087c-0.114,0.119-0.226,0.243-0.339,0.367
		c-0.74-0.252-1.505-0.458-2.3-0.602c0,0-5.564-1.223-13.993,2.625c1.244-3.828,2.275-9.524-0.229-14.303
		c1.152,1.796,3.282,3.832,7.275,5.094c0,0,1.576-4.364,0.788-10.319c0.692-1.424,1.377-2.9,1.954-4.267
		c-6.114-4.67-12.443-9.073-18.971-13.189c0.408,0.623,0.845,1.25,1.31,1.85c-0.206,0.426-0.437,0.855-0.685,1.262
		c-1.926-0.729-4.585-1.5-7.525-1.766c-0.605-0.603-1.273-1.164-2.013-1.672c0.632-1.266,1.287-2.62,1.887-3.944
		c-2.87-1.681-5.774-3.31-8.714-4.883c0.126,2.405,0.621,6.988,2.479,11.994c-0.729-0.295-1.455-0.603-2.179-0.917
		c-0.151-2.348-0.93-6.244-3.878-10.981c0.735-0.259,1.434-0.555,2.068-0.894c-3.078-1.622-6.191-3.184-9.341-4.68
		c-0.168,0.52-0.32,1.049-0.454,1.583c-1.707,1.553-3.28,3.397-4.421,5.553c-0.078,0.146,4.178,0.224,8.517-0.609
		c-0.239,2.082-0.394,4.469-0.204,6.427c-0.057-0.028-0.114-0.055-0.171-0.087c-0.754-0.591-4.107-3.088-8.347-4.313
		c-2.456-1.331-4.891-2.703-7.302-4.105c0.238-0.703,0.46-1.427,0.655-2.189l0,0c0,0,1.459-2.861,1.91-6.682
		c-4.998-2.119-10.086-4.075-15.24-5.881l-0.025-0.007l-0.527-0.131l-0.011-0.059c-1.161-0.404-2.325-0.802-3.496-1.189
		c0.456,0.291,0.928,0.575,1.409,0.852l0,0c-1.454-0.208-3.005-0.284-4.568-0.119c-1.147-0.85-2.313-1.638-3.438-2.273l0.032-0.534
		C315.671,6.558,300.784,3.454,285.485,1.699z M440.095,78.128c0.064,0.692,0.195,1.395,0.41,2.096c0,0,0.437-0.16,1.136-0.495
		L440.095,78.128z M413.411,54.111c3.321,2.593,6.584,5.262,9.767,8.015c-2.034-0.894-3.869-1.833-4.934-2.394
		c-2.623,2.675-4.948,4.856-4.948,4.856C412.788,60.656,413.004,57.009,413.411,54.111z M311.898,18.139L311.898,18.139
		c0.323-0.905,0.632-1.883,0.911-2.912c2.162-1.186,4.337-2.671,5.766-4.338c0.11,2.343,0.437,6.668,1.415,9.687
		C319.99,20.577,316.38,18.705,311.898,18.139z M333.583,97.675L333.583,97.675c0.353-0.44,0.673-0.859,0.936-1.239
		c0,0,0.053,0.288,0.165,0.772C334.31,97.358,333.941,97.514,333.583,97.675z M340.522,95.306L340.522,95.306
		c0.243-2.494,0.066-5.168-0.96-7.655c2.245,2.158,5.413,4.945,7.873,6.105C347.434,93.755,344.258,94.3,340.522,95.306z
		 M388.963,123.336L388.963,123.336c-0.305-0.902-0.705-1.787-1.235-2.637c0,0-0.14-0.24-0.454-0.644
		c1.418,0.08,2.811,0.096,4.071-0.005C391.346,120.051,390.276,121.288,388.963,123.336z M400.742,61.073L400.742,61.073
		c-0.135-0.208-0.53-0.785-1.265-1.558c0.163-0.401,0.309-0.81,0.431-1.239C399.908,58.276,399.954,59.49,400.742,61.073z
		 M382.857,47.429L382.857,47.429c0.245,0.449,0.504,0.884,0.783,1.283c0,0-0.723-0.692-1.968-1.635
		C382.064,47.2,382.458,47.317,382.857,47.429z M377.348,53.122L377.348,53.122c0,0-2.781-0.259-6.285-0.293
		c1.124-0.953,2.208-2.05,3.136-3.296C375.234,50.948,376.322,52.251,377.348,53.122z M348.546,37.599L348.546,37.599
		c0.199,1.193,0.454,2.366,0.783,3.392c0,0-1.127-0.584-2.895-1.198C347.146,39.138,347.856,38.409,348.546,37.599z M329.762,14.179
		L329.762,14.179c0.969,3.448,2.769,8.684,5.309,11.229c0,0-3.298,0.193-6.485,1.91c0.126-0.816,0.174-1.656,0.129-2.515
		c0,0-0.009-0.49-0.186-1.349C328.786,21.85,329.387,17.952,329.762,14.179z M333.254,36.982L333.254,36.982
		c0,0-2.119,7.209-1.231,12.17c0,0-2.893-7.438-9.073-11.721c1.542-1.572,3.15-3.564,4.277-5.873
		c2.755,1.374,7.651,3.148,12.445,1.508c0,0-2.288,1.701-2.914,5.465c-0.589,0.073-1.177,0.181-1.759,0.332
		C334.497,38.203,333.922,37.571,333.254,36.982z M335.947,40.29L335.947,40.29c0.202,0.195,0.419,0.398,0.658,0.619
		c0.009,0.259,0.039,0.535,0.067,0.804C336.458,41.234,336.217,40.757,335.947,40.29z M337.782,55.277L337.782,55.277
		c0.044-0.745,0.067-1.502,0.051-2.288c0,0,0.763-3.717-0.115-7.953c0.497-0.16,1.475-0.511,2.733-1.132
		c1.436,0.914,2.96,1.635,4.339,1.805c0,0-4.114,3.688-6.7,9.645C337.986,55.328,337.883,55.303,337.782,55.277z M348.071,57.788
		L348.071,57.788c-2.751-0.611-5.493-1.278-8.224-1.976c2.669-0.763,7.101-2.114,9.474-3.292
		C349.322,52.519,348.555,54.842,348.071,57.788z M351.631,33.049L351.631,33.049c0.19-0.357,0.373-0.723,0.547-1.097
		c1.448,0.913,2.909,1.807,4.38,2.682c1.578,2.277,4.412,5.722,7.153,6.673c0,0-2.698,1.544-5.646,4.535
		c0-0.208,0.002-0.417-0.009-0.627C358.056,45.215,357.951,39.642,351.631,33.049z M351.931,58.605L351.931,58.605
		c-0.112-0.025-0.227-0.05-0.337-0.073c2.13-2.034,4.566-4.95,5.749-8.434c2.801-0.197,6.971-0.57,9.36-1.175
		c0,0-1.031,1.75-2.046,4.162c-1.292,0.135-2.524,0.33-3.613,0.612c0,0,1.056,0.829,2.669,1.924
		c-0.204,0.63-0.392,1.274-0.543,1.922c0,0,0.822-0.307,2.063-0.923c2.442,1.546,5.564,3.264,8.311,3.94
		c-0.32,0.247-0.648,0.49-0.969,0.74c-1.959,0.112-3.958-0.007-5.878-0.222C361.76,60.527,356.796,59.581,351.931,58.605z
		 M367.73,64.925L367.73,64.925c-0.914,0.669-1.83,1.326-2.749,1.986c-0.543-0.508-1.111-1.01-1.727-1.498
		c0,0-0.394-0.493-1.116-1.211C364,64.513,365.867,64.763,367.73,64.925z M360.711,88.865L360.711,88.865
		c-0.208-0.28-0.419-0.559-0.644-0.838c0.692-0.917,1.333-1.936,1.839-3.061c1.287,0.183,2.655,0.286,3.917,0.213
		c0.3,0.252,0.623,0.504,0.985,0.745C364.788,86.929,362.752,87.905,360.711,88.865z M367.922,70.123L367.922,70.123
		c-0.259-0.332-0.527-0.667-0.809-0.996c1.498-0.987,2.978-1.996,4.449-3.024c-0.619,1.452-1.049,3.131-0.99,4.932
		C369.752,70.709,368.871,70.405,367.922,70.123z M380.339,78.637L380.339,78.637c-0.149-0.286-0.305-0.566-0.479-0.843
		c0,0-2.298-3.977-9.243-6.741c0.485-0.048,5.165-0.596,9.121-3.333c1.26,0.311,2.875,0.63,4.51,0.772
		c0.662,1.558,1.876,3.315,4.045,4.987c-0.005,0.046-0.009,0.087-0.016,0.135c-0.55,0.398-1.107,0.785-1.665,1.155
		C384.577,76.12,382.472,77.4,380.339,78.637z M385.801,82.593L385.801,82.593c0,0,4.982,5.628,9.659,7.506
		c0,0-7.635-1.468-14.479,1.34c0.735-2.726,1.214-6.082,0.561-9.334c2.24-1.214,4.455-2.49,6.582-3.866
		c0.036,0.841,0.109,1.711,0.233,2.602c0,0,6.084-5.814,8.328-9.064c0,0,0.543,2.891,1.759,6.036c-1.943,1.095-4,2.453-6.148,4.143
		c0,0,9.059,2.075,15.058,1.601c0,0-1.438,1.665-3.026,4.325c-0.208,0.197-0.415,0.392-0.623,0.589
		c-0.605-0.431-1.237-0.853-1.91-1.258C401.795,87.213,394.319,80.069,385.801,82.593z M417.581,114.181L417.581,114.181
		c0,0,6.409,6.929,10.676,8.938c0,0-6.423,1.104-11.755,3.07c-1.94-4.242-6.856-13.02-15.18-15.593
		c1.326-2.174,2.394-4.883,2.275-7.912c0,0,2.083,5.757,10.91,5.681c0,0,0.22-7.062-4.751-13.939
		c1.006-1.154,1.826-2.366,2.275-3.573c0,0,3.894,7.199,11.579,12.475c0,0-0.096-4.24-0.447-8.684
		c2.05,1.095,8.375,4.343,12.253,4.831c0,0-9.192,4.843-13.348,9.382c0,0,2.261,0.199,5.186,0.16
		c1.175,2.282,3.358,6.054,5.935,8.21C433.188,117.227,425.483,112.969,417.581,114.181z M433.248,91.966L433.248,91.966
		c-2.907,0.014-6.663,0.431-10.139,2.02c-0.215-2.54-0.513-5.081-0.925-6.872C422.184,87.114,427.57,90.452,433.248,91.966z
		 M431.571,87.775L431.571,87.775c1.844,1.67,4.316,3.61,6.71,4.574c0,0-1.979-0.381-4.824-0.385
		C433.337,91.634,432.717,89.978,431.571,87.775z M432.263,108.679L432.263,108.679c2.057-0.27,4.031-0.742,5.5-1.533
		c0,0-0.63,2.655-0.197,5.793C436.269,111.473,434.494,109.845,432.263,108.679z M454.521,111.707L454.521,111.707
		c-4.254,2.313-8.608,4.46-12.985,6.522c-0.268-0.357-0.548-0.719-0.841-1.077c2.025-1.972,5.944-6.544,5.72-12.218
		c0,0,1.979,5.392,10.145,5.656C455.879,110.962,455.202,111.34,454.521,111.707z M457.322,110.168L457.322,110.168
		c-0.002-0.106-0.007-0.236-0.014-0.382c0.186,0.03,0.371,0.055,0.561,0.082C457.687,109.968,457.506,110.069,457.322,110.168z"/>
	<path style="fill:#FFFFFF;" d="M62.058,272.133l2.275-5.429c0,0-4.247,1.395-7.585,1.395c-3.335,0-17.44,0-20.169,0
		c-2.733,0-7.433-0.788-7.433-0.788l1.972,4.822h5.172l-0.046,2.018h-4.856v2.015h4.838l-0.516,23.88l2.387,0.439l0.222-24.319
		h17.14l0.22,24.221l2.389-0.243l-0.515-23.978h4.76v-2.015h-4.779l-0.048-2.018H62.058z M38.347,272.133L38.347,272.133h7.339
		l-0.135,2.018h-7.225L38.347,272.133z M55.454,274.151L55.454,274.151h-7.525l-0.099-2.018h7.603L55.454,274.151z"/>
	<path style="fill:#BD360C;" d="M509.83,289.413c-2.405-0.165-4.81-0.229-7.156-0.163c-5.376,0.154-10.885,1.711-16.06,3.079
		c-2.472,0.653-6.92,2.292-8.784-0.248c-1.033-1.409-2.165-2.205-3.764-2.897c-1.892-0.82-4.387-0.539-6.38-0.595
		c-0.966-0.028-1.738-0.724-2.684-0.74c-1.51-0.023-3.019-0.051-4.527-0.06c-2.238-0.018-4.294,0.057-6.471,0.617
		c-2.451,0.627-4.519,1.381-7.103,1.388c-6.148,0.025-12.239,0.398-18.355-0.461c-2.483-0.35-4.922-0.483-7.417-0.696
		c-1.434-0.121-2.645-0.584-3.917-1.191c-0.99-0.474-2.49-0.515-3.397-1.084c-0.357-0.222-0.843-0.318-1.258-0.341
		c-0.325-0.018-0.609-0.062-0.871-0.129c0.165-0.33,0.098-0.77-0.346-0.863c-1.535-0.328-2.675-1.374-4.208-1.711
		c-1.093-0.243-2.286-0.039-3.369,0.126c-3.698,0.57-7.358,2.989-11.048,3.113c-0.793,0.027-1.681-1.125-2.428-1.374
		c-1.145-0.381-2.251-0.511-3.458-0.536c-3.65-0.076-7.204,1.328-10.663-0.417c-2.811-1.416-4.817-2.804-7.882-3.734
		c-3.835-1.161-6.812-2.254-10.876-2.016c-2.38,0.14-4.526,0.454-6.787-0.487c-2.023-0.839-3.917-1.966-5.848-2.989
		c-3.303-1.757-4.079-6.65-5.761-9.783c-1.278-2.387-2.854-4.693-5.213-6.107c-1.308-0.783-2.788-1.343-3.903-2.408
		c-1.122-1.065-1.755-2.245-3.026-3.223c-2.875-2.217-5.28-4.984-8.095-7.275c-3.349-2.718-8.1-3.804-11.838-5.962
		c-3.131-1.81-6.775-4.902-7.79-8.457c-0.845-2.962-1.956-5.36-4.224-7.538c-1.07-1.026-2.371-1.798-3.464-2.826
		c-0.726-0.685-1.926-0.872-2.414-1.802c-0.009-0.396-0.096-0.795-0.272-1.139c-0.039-0.094-0.059-0.142-0.064-0.146
		c-0.06-0.204-0.124-0.406-0.197-0.602c-0.02-0.042-0.039-0.083-0.062-0.124l0,0c-0.133-0.499-0.311-0.822-0.728-1.146
		c-0.209-0.16-0.477-0.222-0.747-0.215c-0.176-0.055-0.378-0.055-0.593,0.041c-2.964,1.297-6.05,0.557-9.167,0.692
		c-3.386,0.149-6.398,1.372-9.884,1.212c-0.382-0.016-0.797,0.208-0.907,0.597c-1.102,3.899-4.737,5.814-6.185,9.367
		c-0.692,1.697-1.155,3.969-2.627,5.174c-1.682,1.377-3.475,2.545-5.22,3.837c-1.391,1.031-2.325,2.616-3.218,4.054
		c-1.409,2.27-3.583,3.592-5.601,5.282c-2.071,1.732-4.226,3.328-6.537,4.728c-1.269,0.768-3.663,3.543-4.906,3.867
		c-0.886,0.231-0.946,1.29-0.421,1.736c-2.763,1.365-5.466,2.925-7.88,4.595c-1.821,1.258-3.342,2.693-4.759,4.384
		c-1.888,2.254-0.965,5.351-3.75,7.179c-4.018,2.636-9.152,3.452-13.511,5.412c-1.409,0.632-6.003,3.805-9.827,5.312
		c-1.317-0.41-7.442,1.455-8.285,1.659c-3.287,0.788-6.512,1.759-9.82,2.474c-4.517,0.976-7.821-0.721-10.709-4.036
		c-3.31-3.793-6.109-7.243-11.199-8.448c-2.444-0.582-5.007-0.659-7.472-0.222c-3.917,0.694-7.33,1.333-11.359,0.964
		c-2.677-0.245-4.627-1.56-7.412-1.452c-2.375,0.094-4.726,0.934-6.718,2.187c-2.014,1.265-3.285,3.266-4.691,5.108
		c-2.238,2.93-5.406,4.866-8.773,6.206c-1.651,0.657-3.367,1.147-5.083,1.603c-1.697,0.451-3.301,1.168-4.996,1.553
		c-1.434,0.325-3.131-0.19-4.488,0.231c-1.376,0.428-2.627,1.003-3.915,1.653c-3.145,1.583-9.117,1.753-12.44,0.58
		c0.016-0.165-0.087-0.359-0.277-0.387c-0.424-0.062-0.843-0.144-1.255-0.238c-1.991-0.889-3.766-1.894-6.132-1.887
		c-0.162,0-0.277,0.071-0.35,0.167c-0.273-0.044-0.547-0.089-0.827-0.117c-3.862-0.387-8.201,0.547-12.008,1.148
		c-4.437,0.703-8.301,2.721-12.827,2.735c-3.607,0.009-8.464,0.992-11.792-0.325c-1.134-0.449-2.32-1.416-3.585-1.548
		c-1.693-0.177-3.248,0.229-4.911,0.52c-1.928,0.334-4.173,0.073-6.134,0.08c-2.648,0.007-5.119,0.055-7.701-0.699
		c-1.384-0.403-2.786-0.538-4.192-0.536c1.322,9.208,3.115,18.265,5.39,27.13c4.428-0.025,8.315-0.103,10.269-0.204
		c5.6-0.284,11.212-0.03,16.804,0.323c3.332,0.208,6.673,0.316,10.017,0.373c4.008,0.891,7.447,1.613,11.682,1.626
		c5.234,0.021,10.528,0.261,15.748-0.137c3.349-0.255,6.876-0.781,10.211-1.622c5.724,0.011,11.445,0.197,17.093,0.969
		c4.881,0.669,88.434,1.961,99.761,2.023c2.598,0.014,26.514,0.193,32.181-0.382c10.8-1.097,153.982-1.331,165.058-1.601
		c11.446-0.282,22.878-0.378,34.327-0.362c10.663,0.014,21.303,0.733,31.977,0.747c4.943,0.007,10.219-0.504,15.1,0.213
		c2.82,0.412,14.161,0.726,24.97,0.866C506.127,311.836,508.353,300.745,509.83,289.413z"/>
	<path style="fill:#FFC36E;" d="M62.058,360.539l2.275,5.429c0,0-4.247-1.395-7.585-1.395c-3.335,0-17.44,0-20.169,0
		c-2.733,0-7.433,0.791-7.433,0.791l1.972-4.824h5.172l-0.046-2.018h-4.856v-2.016h4.838l-0.516-23.878l2.387-0.44l0.222,24.317
		h17.14l0.22-24.219l2.389,0.243l-0.515,23.976h4.76v2.016h-4.779l-0.048,2.018H62.058z M38.347,360.539L38.347,360.539h7.339
		l-0.135-2.018h-7.225L38.347,360.539z M55.454,358.521L55.454,358.521h-7.525l-0.099,2.018h7.603L55.454,358.521z"/>
	<path style="fill:#DF6641;" d="M496.897,342.796c-3.481-0.612-6.952-1.572-10.283-2.453c-2.472-0.653-6.92-2.293-8.784,0.247
		c-1.033,1.409-2.165,2.206-3.764,2.898c-1.892,0.82-4.387,0.538-6.38,0.596c-0.966,0.027-1.738,0.726-2.684,0.74
		c-1.51,0.025-3.019,0.05-4.527,0.062c-2.238,0.016-4.294-0.06-6.471-0.617c-2.451-0.628-4.519-1.381-7.103-1.39
		c-6.148-0.023-12.239-0.399-18.355,0.462c-2.483,0.348-4.922,0.481-7.417,0.694c-1.434,0.123-2.645,0.584-3.917,1.191
		c-0.99,0.474-2.49,0.516-3.397,1.084c-0.357,0.222-0.843,0.32-1.258,0.344c-0.325,0.016-0.609,0.059-0.871,0.126
		c0.165,0.332,0.098,0.77-0.346,0.866c-1.535,0.325-2.675,1.372-4.208,1.711c-1.093,0.24-2.286,0.039-3.369-0.129
		c-3.698-0.57-7.358-2.987-11.048-3.113c-0.793-0.028-1.681,1.127-2.428,1.374c-1.145,0.38-2.251,0.513-3.458,0.538
		c-3.65,0.073-7.204-1.329-10.663,0.415c-2.811,1.418-4.817,2.803-7.882,3.733c-3.835,1.161-6.812,2.254-10.876,2.016
		c-2.38-0.137-4.526-0.454-6.787,0.488c-2.023,0.841-3.917,1.967-5.848,2.991c-3.303,1.755-4.079,6.647-5.761,9.781
		c-1.278,2.387-2.854,4.695-5.213,6.107c-1.308,0.783-2.788,1.345-3.903,2.407c-1.122,1.065-1.755,2.247-3.026,3.225
		c-2.875,2.217-5.28,4.984-8.095,7.273c-3.349,2.721-8.1,3.807-11.838,5.965c-3.131,1.807-6.775,4.899-7.79,8.454
		c-0.845,2.964-1.956,5.362-4.224,7.54c-1.07,1.027-2.371,1.798-3.464,2.825c-0.726,0.685-1.926,0.875-2.414,1.803
		c-0.009,0.396-0.096,0.797-0.272,1.14c-0.039,0.092-0.059,0.14-0.064,0.147c-0.06,0.201-0.124,0.403-0.197,0.602
		c-0.02,0.039-0.039,0.082-0.062,0.124l0,0c-0.133,0.497-0.311,0.82-0.728,1.143c-0.209,0.163-0.477,0.224-0.747,0.216
		c-0.176,0.055-0.378,0.055-0.593-0.039c-2.964-1.299-6.05-0.557-9.167-0.694c-3.386-0.149-6.398-1.372-9.884-1.211
		c-0.382,0.018-0.797-0.208-0.907-0.598c-1.102-3.896-4.737-5.811-6.185-9.366c-0.692-1.697-1.155-3.967-2.627-5.174
		c-1.682-1.374-3.475-2.545-5.22-3.837c-1.391-1.029-2.325-2.613-3.218-4.052c-1.409-2.27-3.583-3.593-5.601-5.282
		c-2.071-1.734-4.226-3.331-6.537-4.73c-1.269-0.765-3.663-3.541-4.906-3.866c-0.886-0.229-0.946-1.287-0.421-1.736
		c-2.763-1.365-5.466-2.925-7.88-4.593c-1.821-1.258-3.342-2.694-4.759-4.384c-1.888-2.254-0.965-5.353-3.75-7.181
		c-4.018-2.637-9.152-3.452-13.511-5.413c-1.409-0.632-6.003-3.803-9.827-5.309c-1.317,0.41-7.442-1.457-8.285-1.659
		c-3.287-0.79-6.512-1.761-9.82-2.476c-4.517-0.973-7.821,0.724-10.709,4.036c-3.31,3.796-6.109,7.243-11.199,8.451
		c-2.444,0.58-5.007,0.658-7.472,0.222c-3.917-0.696-7.33-1.333-11.359-0.965c-2.677,0.243-4.627,1.56-7.412,1.45
		c-2.375-0.092-4.726-0.934-6.718-2.187c-2.014-1.264-3.285-3.264-4.691-5.106c-2.238-2.932-5.406-4.866-8.773-6.206
		c-1.651-0.659-3.367-1.147-5.083-1.606c-1.697-0.451-3.301-1.166-4.996-1.55c-1.434-0.325-3.131,0.188-4.488-0.233
		c-1.376-0.429-2.627-1.001-3.915-1.652c-3.145-1.585-9.117-1.752-12.44-0.579c0.016,0.162-0.087,0.357-0.277,0.384
		c-0.424,0.062-0.843,0.144-1.255,0.238c-1.991,0.889-3.766,1.897-6.132,1.89c-0.162-0.003-0.277-0.073-0.35-0.169
		c-0.273,0.044-0.547,0.089-0.827,0.119c-3.862,0.385-8.201-0.547-12.008-1.149c-4.437-0.701-8.301-2.722-12.827-2.733
		c-3.607-0.009-8.464-0.994-11.792,0.325c-1.134,0.449-2.32,1.413-3.585,1.546c-1.693,0.176-3.248-0.229-4.911-0.518
		c-1.928-0.337-4.173-0.076-6.134-0.08l-0.847-0.002c-2.119-6.206-4.011-12.516-5.656-18.926c4.428-0.025,8.315-0.103,10.269-0.204
		c5.6-0.284,11.212-0.03,16.804,0.323c3.332,0.208,6.673,0.316,10.017,0.373c4.008,0.891,7.447,1.613,11.682,1.626
		c5.234,0.021,10.528,0.261,15.748-0.137c3.349-0.255,6.876-0.781,10.211-1.622c5.724,0.011,11.445,0.197,17.093,0.969
		c4.881,0.669,88.434,1.961,99.761,2.023c2.598,0.014,26.514,0.193,32.181-0.382c10.8-1.097,153.982-1.331,165.058-1.601
		c11.446-0.282,22.878-0.378,34.327-0.362c10.663,0.014,21.303,0.733,31.977,0.747c4.943,0.007,10.219-0.504,15.1,0.213
		c2.82,0.412,14.161,0.726,24.97,0.866C501.38,329.483,499.273,336.203,496.897,342.796z"/>
	<path style="fill:#FFF7C3;" d="M185.08,422.086c0,18.937-15.352,34.288-34.286,34.288c-18.937,0-34.288-15.351-34.288-34.288
		c0-18.934,15.351-34.286,34.288-34.286C169.728,387.8,185.08,403.152,185.08,422.086z"/>
</g>
<path style="fill:#FFFFFF;" d="M255.656,139.565c4.341,0,8.437,0.701,12.062,1.943c3.924-2.612,9.298-4.224,15.228-4.224
	c10.267,0,18.873,4.831,21.177,11.332c5.131,1.049,9.247,3.683,11.126,7.064c0.616-0.046,1.241-0.067,1.876-0.067
	c9.483,0,17.18,5.23,17.18,11.682c0,6.451-7.697,11.68-17.18,11.68c-2.957,0-5.738-0.506-8.164-1.399
	c-2.087,4.854-8.681,8.4-16.497,8.4c-4.772,0-9.09-1.324-12.202-3.464c-3.115,2.14-7.436,3.464-12.211,3.464
	c-4.533,0-8.663-1.198-11.735-3.15c-3.14,2.335-7.656,3.801-12.679,3.801c-4.703,0-8.961-1.281-12.055-3.363
	c-1.421,0.215-2.9,0.325-4.41,0.325c-11.306,0-20.466-6.231-20.466-13.916c0-7.687,9.16-13.918,20.466-13.918
	c0.614,0,1.228,0.021,1.828,0.06C230.452,146.675,241.832,139.565,255.656,139.565z"/>
<g>
	<path style="fill:#FFCE8A;" d="M458.532,333.109c13.741,0,24.883,1.088,24.883,2.428c0,1.342-11.142,2.43-24.883,2.43
		s-24.883-1.088-24.883-2.43C433.649,334.197,444.79,333.109,458.532,333.109z"/>
	<path style="fill:#FFCE8A;" d="M412.482,371.898c15.42,0,27.923,0.848,27.923,1.892c0,1.047-12.502,1.895-27.923,1.895
		s-27.923-0.847-27.923-1.895C384.559,372.746,397.061,371.898,412.482,371.898z"/>
	<path style="fill:#FFCE8A;" d="M389.509,413.81c10.89,0,19.718,0.598,19.718,1.338c0,0.737-8.828,1.335-19.718,1.335
		c-10.89,0-19.718-0.598-19.718-1.335C369.791,414.408,378.619,413.81,389.509,413.81z"/>
	<path style="fill:#FFCE8A;" d="M381.739,340.687c17.956,0,32.515,0.79,32.515,1.763s-14.559,1.764-32.515,1.764
		c-17.958,0-32.517-0.791-32.517-1.764S363.781,340.687,381.739,340.687z"/>
	<path style="fill:#FFCE8A;" d="M340.618,428.261c15.564,0,28.181,0.678,28.181,1.514s-12.617,1.514-28.181,1.514
		c-15.565,0-28.182-0.678-28.182-1.514S325.053,428.261,340.618,428.261z"/>
	<path style="fill:#FFCE8A;" d="M341.491,385.227c18.911,0,34.242,0.917,34.242,2.046c0,1.129-15.331,2.046-34.242,2.046
		c-18.912,0-34.242-0.917-34.242-2.046C307.248,386.144,322.579,385.227,341.491,385.227z"/>
	<path style="fill:#FFCE8A;" d="M215.069,406.116c32.153,0,58.216,0.907,58.216,2.025s-26.063,2.025-58.216,2.025
		c-32.156,0-58.218-0.907-58.218-2.025S182.913,406.116,215.069,406.116z"/>
	<path style="fill:#FFCE8A;" d="M242.435,336.746c29.957,0,54.242,1.357,54.242,3.031s-24.285,3.03-54.242,3.03
		s-54.242-1.356-54.242-3.03S212.478,336.746,242.435,336.746z"/>
	<path style="fill:#FFCE8A;" d="M163.372,378.654c21.442,0,38.823,1.88,38.823,4.201c0,2.32-17.381,4.201-38.823,4.201
		c-21.443,0-38.824-1.881-38.824-4.201C124.548,380.534,141.929,378.654,163.372,378.654z"/>
	<path style="fill:#FFCE8A;" d="M103.797,330.614c24.602,0,44.546,0.648,44.546,1.446c0,0.799-19.944,1.448-44.546,1.448
		c-24.601,0-44.545-0.648-44.545-1.448C59.252,331.263,79.196,330.614,103.797,330.614z"/>
	<path style="fill:#FFCE8A;" d="M30.843,377.922c-0.717-1.322-1.413-2.659-2.107-3.992c14.367-0.137,33.462-0.213,41.025-0.213
		c11.982,0,30.055,0.974,30.055,2.176c0,1.203-18.689,2.176-30.055,2.176C62.63,378.07,44.525,378.019,30.843,377.922z"/>
	<path style="fill:#FFCE8A;" d="M62.215,423.284c-2.02-2.338-3.99-4.723-5.925-7.135c19.836,0.126,68.265,1.862,68.265,3.628
		C124.555,421.603,76.864,422.865,62.215,423.284z"/>
	<path style="fill:#FFCE8A;" d="M292.691,361.595c15.538,0,28.134,0.811,28.134,1.81s-12.596,1.81-28.134,1.81
		c-15.537,0-28.133-0.811-28.133-1.81S277.154,361.595,292.691,361.595z"/>
	<path style="fill:#FFCE8A;" d="M367.84,456.764c19.172,0,35.798,0.95,43.989,2.338c-2.098,1.612-4.219,3.196-6.368,4.744
		c-9.064,0.925-22.553,1.512-37.621,1.512c-27.291,0-49.416-1.924-49.416-4.297C318.424,458.688,340.549,456.764,367.84,456.764z"/>
	<path style="fill:#FFCE8A;" d="M233.119,455.639c37.488,0,67.878,1.94,67.878,4.332c0,2.391-30.39,4.331-67.878,4.331
		c-37.488,0-67.878-1.94-67.878-4.331C165.241,457.579,195.631,455.639,233.119,455.639z"/>
</g>
<g>
</g>
<g>
</g>
<g>
</g>
<g>
</g>
<g>
</g>
<g>
</g>
<g>
</g>
<g>
</g>
<g>
</g>
<g>
</g>
<g>
</g>
<g>
</g>
<g>
</g>
<g>
</g>
<g>
</g>
</svg>
