<?xml version="1.0" encoding="iso-8859-1"?>
<!-- Generator: Adobe Illustrator 19.0.0, SVG Export Plug-In . SVG Version: 6.00 Build 0)  -->
<svg version="1.1" id="Layer_1" xmlns="http://www.w3.org/2000/svg" xmlns:xlink="http://www.w3.org/1999/xlink" x="0px" y="0px"
	 viewBox="0 0 512 512" style="enable-background:new 0 0 512 512;" xml:space="preserve">
<path style="fill:#FCD077;" d="M256,0c141.386,0,256,114.614,256,256c0,141.386-114.614,256-256,256C114.614,512,0,397.386,0,256
	C0,114.614,114.614,0,256,0z"/>
<path style="fill:#FCD585;" d="M60.236,262.004l0.007,4.838c0.025,12.28,0.955,14.976,2.677,22.299l0.131-0.016
	c14.745,86.421,86.171,153.497,174.671,161.617l0.74,0.069c1.166,0.096,2.341,0.195,3.514,0.28l1.558,0.099
	c0.998,0.069,1.995,0.119,3.003,0.171c0.646,0.03,1.299,0.039,1.947,0.076c0.9,0.022,1.789,0.064,2.689,0.092
	c1.037,0.018,2.077,0.027,3.117,0.034c0.504,0.011,1.022,0.02,1.525,0.02l0.227-0.005c1.469,0,2.939-0.023,4.393-0.05l0.699-0.014
	c1.386-0.046,2.76-0.096,4.132-0.163l1.171-0.05c1.221-0.073,2.449-0.152,3.663-0.239l1.723-0.135
	c0.799-0.069,1.585-0.138,2.377-0.213c87.728-8.18,158.635-74.285,174.073-159.705c1.876-7.332,1.897-9.618,2.84-21.239h0.009
	l0.211-0.007l0,0h0.007c0.028-0.742,0.044-1.461,0.057-2.192v-0.057v-0.053v-0.048V267.3v-0.053v-0.048l0,0v-0.055v-0.057v-0.156
	v-0.057v-0.053v-0.048v-0.057h0.003v-0.057v-0.053v-0.05v-0.057v-0.053v-0.053v-0.053c1.23-14.582-0.671-38.542-5.619-57.08
	l-0.259-0.994C424.216,123.329,347.366,60.42,255.816,60.42c-93.762,0-172.105,65.997-191.148,154.069h-0.005
	c-0.02,0.067-0.039,0.135-0.057,0.199l-0.317,1.194l-0.195,0.724l-0.346,1.287c-2.414,9.982-3.179,21.889-3.408,32.3
	c-0.062,1.931-0.098,3.871-0.098,5.811v0.371C60.236,258.355,60.236,260.235,60.236,262.004z"/>
<path style="fill:#FFF7C3;" d="M135.898,259.683l0.005,2.968c0.016,7.534,0.587,9.188,1.643,13.679l0.078-0.009
	c9.048,53.021,52.867,94.17,107.164,99.154l0.454,0.041c0.717,0.06,1.436,0.119,2.155,0.172l0.958,0.059
	c0.614,0.044,1.225,0.076,1.842,0.105c0.396,0.018,0.795,0.025,1.196,0.046c0.552,0.016,1.097,0.042,1.649,0.057
	c0.636,0.012,1.273,0.016,1.912,0.021c0.309,0.007,0.625,0.011,0.934,0.011h0.14c0.9,0,1.803-0.016,2.694-0.032l0.433-0.009
	c0.847-0.027,1.691-0.059,2.534-0.098l0.717-0.032c0.749-0.044,1.503-0.092,2.247-0.144l1.058-0.082
	c0.49-0.044,0.971-0.085,1.459-0.133c53.82-5.019,97.321-45.572,106.793-97.981c1.152-4.496,1.166-5.901,1.743-13.029h0.007
	l0.131-0.005l0,0h0.002c0.016-0.451,0.025-0.896,0.034-1.345v-0.034v-0.032v-0.03v-0.069v-0.032v-0.03l0,0v-0.035v-0.034v-0.096
	v-0.036v-0.032v-0.03v-0.034h0.003v-0.034v-0.034v-0.032v-0.034v-0.032v-0.032v-0.032c0.753-8.944-0.413-23.643-3.448-35.019
	l-0.16-0.607c-13.07-52.112-60.22-90.706-116.386-90.706c-57.525,0-105.588,40.489-117.271,94.522h-0.002
	c-0.014,0.041-0.025,0.082-0.037,0.123l-0.192,0.731l-0.119,0.444l-0.213,0.791c-1.48,6.125-1.949,13.428-2.091,19.814
	c-0.037,1.186-0.06,2.375-0.06,3.566v0.229C135.898,257.445,135.898,258.6,135.898,259.683z"/>
<path style="fill:#FFA526;" d="M7.353,276.714c0,0,36.826-31.645,63.278-34.739c26.452-3.097,79.365,29.649,101.5,31.418
	c22.137,1.773,85.307-55.756,110.137-46.023c24.835,9.738,82.066,37.614,113.919,42.484c31.851,4.868,79.904-48.678,102.579-54.874
	c3.234-0.886,6.443-1.614,9.581-2.197C510.738,226.831,512,241.269,512,256c0,11.818-0.82,23.442-2.369,34.833
	c-112.582,18.289-375.087,51.475-432.52,31.242C18.183,301.315,7.353,276.714,7.353,276.714z"/>
<path style="fill:#F98B00;" d="M0.816,276.48c16.84-8.491,47.865-15.384,69.843-2.385c21.894,12.944,26.015,14.076,40.212,11.041
	c66.274-37.099,100.45-24.958,131.748,8.388c5.42,4.143,11.576,7.385,18.201,9.927c6.627-2.542,12.784-5.784,18.201-9.927
	c31.301-33.347,65.477-45.487,131.752-8.388c14.197,3.035,18.318,1.903,40.207-11.041c18.362-10.858,43.034-7.839,60.477-1.599
	c-1.099,17.299-3.919,34.13-8.285,50.325H8.828C4.796,307.871,2.075,292.384,0.816,276.48z"/>
<path style="fill:#FFDD95;" d="M8.828,322.822h494.343C473.781,431.801,374.264,512,256,512S38.219,431.801,8.828,322.822z"/>
<g>
	<path style="fill:#FFFFFF;" d="M76.473,153.558c4.737,0,9.206,0.928,13.162,2.573c4.279-3.459,10.145-5.591,16.614-5.591
		c11.201,0,20.593,6.398,23.105,15.003c5.598,1.391,10.09,4.879,12.14,9.355c0.673-0.065,1.354-0.092,2.046-0.092
		c10.346,0,18.744,6.926,18.744,15.471s-8.398,15.467-18.744,15.467c-3.225,0-6.26-0.673-8.908-1.856
		c-2.275,6.43-9.469,11.123-17.998,11.123c-5.207,0-9.916-1.752-13.315-4.586c-3.397,2.834-8.111,4.586-13.32,4.586
		c-4.947,0-9.453-1.585-12.807-4.171c-3.422,3.092-8.349,5.03-13.83,5.03c-5.131,0-9.777-1.693-13.153-4.449
		c-1.551,0.284-3.163,0.431-4.81,0.431c-12.337,0-22.332-8.251-22.332-18.426c0-10.18,9.994-18.428,22.332-18.428
		c0.669,0,1.339,0.025,1.995,0.078C48.976,162.976,61.391,153.558,76.473,153.558z"/>
	<path style="fill:#FFFFFF;" d="M387.431,188.617c1.812,0,3.518,0.353,5.032,0.983c1.635-1.322,3.88-2.137,6.351-2.137
		c4.281,0,7.873,2.445,8.835,5.736c2.14,0.532,3.855,1.864,4.641,3.576c0.257-0.023,0.518-0.034,0.783-0.034
		c3.954,0,7.165,2.648,7.165,5.914s-3.211,5.914-7.165,5.914c-1.235,0-2.393-0.257-3.408-0.71c-0.868,2.458-3.621,4.254-6.879,4.254
		c-1.993,0-3.793-0.671-5.092-1.752c-1.301,1.081-3.102,1.752-5.092,1.752c-1.892,0-3.615-0.607-4.895-1.597
		c-1.31,1.182-3.196,1.924-5.289,1.924c-1.963,0-3.739-0.648-5.03-1.701c-0.591,0.109-1.209,0.167-1.837,0.167
		c-4.717,0-8.54-3.156-8.54-7.048c0-3.89,3.823-7.044,8.54-7.044c0.257,0,0.51,0.009,0.762,0.03
		C376.919,192.217,381.666,188.617,387.431,188.617z"/>
	<path style="fill:#FFFFFF;" d="M297.073,41.584c2.918,0,5.674,0.573,8.111,1.587c2.637-2.132,6.249-3.447,10.237-3.447
		c6.901,0,12.69,3.942,14.236,9.247c3.45,0.855,6.219,3.005,7.481,5.761c0.415-0.037,0.834-0.055,1.262-0.055
		c6.372,0,11.547,4.267,11.547,9.534c0,5.264-5.175,9.529-11.547,9.529c-1.99,0-3.859-0.412-5.49-1.141
		c-1.402,3.961-5.837,6.851-11.092,6.851c-3.207,0-6.109-1.079-8.203-2.824c-2.094,1.745-4.998,2.824-8.21,2.824
		c-3.046,0-5.822-0.975-7.891-2.567c-2.107,1.903-5.145,3.099-8.523,3.099c-3.159,0-6.022-1.045-8.102-2.742
		c-0.958,0.174-1.949,0.266-2.964,0.266c-7.602,0-13.762-5.085-13.762-11.357c0-6.27,6.159-11.352,13.762-11.352
		c0.412,0,0.822,0.016,1.23,0.048C280.129,47.388,287.78,41.584,297.073,41.584z"/>
	<path style="fill:#FFFFFF;" d="M446.586,93.592c2.877,0,5.635,0.394,8.208,1.12c12.708,15.645,23.609,32.815,32.382,51.195
		c-1.805,0.573-3.768,0.886-5.816,0.886c-4.512,0-8.59-1.513-11.531-3.969c-2.943,2.456-7.023,3.969-11.533,3.969
		c-4.284,0-8.185-1.376-11.089-3.61c-2.962,2.674-7.229,4.355-11.973,4.355c-4.444,0-8.466-1.466-11.389-3.855
		c-1.344,0.247-2.737,0.378-4.167,0.378c-10.672,0-19.331-7.145-19.331-15.957s8.659-15.952,19.331-15.952
		c0.582,0,1.166,0.025,1.732,0.067C422.78,101.745,433.528,93.592,446.586,93.592z"/>
</g>
<path style="fill:#FCCB68;" d="M34.197,383.899c12.103,8.047,27.077,16.224,39.662,17.725c26.01,3.097,78.037-29.65,99.802-31.421
	c21.765-1.768,83.88,55.758,108.298,46.025c24.42-9.737,80.692-37.616,112.014-42.484c19.8-3.076,45.957,17.185,68.157,34.073
	c12.784-17.333,23.435-36.336,31.57-56.622L80.229,321.521c-35.507-2.548-51.651,21.997-60.239,33.809
	C24.141,365.182,28.894,374.721,34.197,383.899z"/>
<path style="fill:#FBAD4D;" d="M29.212,374.828c15.192,3.165,32.72,2.98,46.6-5.326c21.64-12.944,25.712-14.076,39.747-11.041
	c65.505,37.099,99.287,24.959,130.224-8.388c5.356-4.144,11.442-7.385,17.99-9.928c6.549,2.543,12.635,5.784,17.99,9.928
	c30.937,33.347,64.719,45.487,130.227,8.388c14.032-3.035,18.107-1.903,39.744,11.041c9.022,5.399,19.589,7.372,30.055,7.215
	c9.39-17.527,16.799-36.272,21.933-55.937L8.487,321.555C13.426,340.233,20.417,358.077,29.212,374.828z"/>
<path style="fill:#ED6C00;" d="M7.366,317.132h497.267c-0.421,1.725-0.859,3.44-1.317,5.151H8.684
	C8.226,320.573,7.788,318.857,7.366,317.132z"/>
<g>
	<path d="M301.741,185.596c0,0-5.768-1.237-10.596-0.314c-4.84,0.927-9.882,4.941-15.338,5.25c-5.454,0.307-4.32-1.752-4.32-1.752
		s3.5,0.518,4.428-2.467c0.921-2.985-2.884-5.356-8.745-9.465c-5.871-4.116-7.003-8.233-5.871-10.809c0,0,1.033,1.647,5.871,4.221
		c4.833,2.575,8.33,7.31,12.136,10.697c3.809,3.402,4.017,3.603,7.618,2.886C290.522,183.121,298.241,181.992,301.741,185.596z"/>
	<path d="M339.729,217.545c0,0-5.768-1.237-10.596-0.314c-4.84,0.928-9.882,4.941-15.338,5.252c-5.454,0.305-4.32-1.754-4.32-1.754
		s3.5,0.52,4.428-2.465c0.923-2.987-2.884-5.358-8.745-9.467c-5.871-4.116-7.003-8.233-5.871-10.809c0,0,1.033,1.647,5.871,4.221
		c4.835,2.575,8.33,7.31,12.136,10.697c3.809,3.402,4.018,3.603,7.618,2.887C328.509,215.071,336.229,213.942,339.729,217.545z"/>
	<path d="M351.237,184.817c0,0-5.768-1.237-10.596-0.314c-4.84,0.927-9.882,4.941-15.338,5.252c-5.454,0.305-4.32-1.752-4.32-1.752
		s3.5,0.518,4.428-2.467c0.923-2.985-2.884-5.356-8.746-9.467c-5.871-4.116-7.002-8.233-5.871-10.809c0,0,1.033,1.649,5.871,4.221
		c4.835,2.575,8.331,7.31,12.136,10.699c3.809,3.4,4.018,3.603,7.619,2.884C340.018,182.342,347.737,181.213,351.237,184.817z"/>
</g>
<g>
</g>
<g>
</g>
<g>
</g>
<g>
</g>
<g>
</g>
<g>
</g>
<g>
</g>
<g>
</g>
<g>
</g>
<g>
</g>
<g>
</g>
<g>
</g>
<g>
</g>
<g>
</g>
<g>
</g>
</svg>
