<?xml version="1.0" encoding="iso-8859-1"?>
<!-- Generator: Adobe Illustrator 19.0.0, SVG Export Plug-In . SVG Version: 6.00 Build 0)  -->
<svg version="1.1" id="Layer_1" xmlns="http://www.w3.org/2000/svg" xmlns:xlink="http://www.w3.org/1999/xlink" x="0px" y="0px"
	 viewBox="0 0 512 512" style="enable-background:new 0 0 512 512;" xml:space="preserve">
<path style="fill:#FFD34E;" d="M256,0c141.385,0,256,114.615,256,256S397.385,512,256,512S0,397.385,0,256S114.615,0,256,0z"/>
<path style="fill:#FFFFFF;" d="M253.943,144.807c27.852,0,50.43,22.578,50.43,50.43s-22.578,50.43-50.43,50.43
	c-27.842,0-50.43-22.578-50.43-50.43S226.101,144.807,253.943,144.807z"/>
<path style="fill:#9F877E;" d="M16.826,347.433l22.539-0.887l17.694-25.132l8.569,4.982l27.706-19.156l9.612,8.13l15.198-5.898
	l27.706,10.997l21.028,20.423l27.043-7.224l9.018,14.136l15.247-4.494l36.168,16.124l39.58-19.624l12.488-1.111l17.021-8.169
	l5.683-9.115l17.021-7.857l11.016-2.515l16.436,6.307l12.683-10.061l12.02,8.501l28.632-7.887l12.02,1.57l31.04,24.82l7.009-5.03
	l19.77,13.882C506.619,315.945,512,286.601,512,256c0-6.678-0.263-13.297-0.76-19.848l-10.558,2.291l-33.106,19.595l-29.597,9.437
	l-20.053-25.493l-23.582-15.344l-16.797,4.016l-6.775,11.806l-15.549,4.25l-3.256,13.609l-18.318,16.368l-9.027-11.094
	l-13.287-7.789l-5.274-10.86l-52.165-29.987l-61.699,28.807l-23.572-20.072l-17.304,13.258l-18.815,30.416l-52.916,2.028
	l-31.098-7.926l-17.05-9.446l-18.064,4.718L0.01,255.483L0,256C0,288.219,5.966,319.035,16.826,347.433z"/>
<path style="fill:#8B6E62;" d="M65.628,326.395l-8.569-4.982l-17.694,25.132l-22.539,0.887C53.637,443.662,146.825,512,256,512
	c110.784,0,205.122-70.376,240.773-168.857l-19.77-13.882l-7.009,5.03l-31.04-24.82l-12.02-1.57l-28.632,7.887l-12.02-8.501
	l-12.683,10.061l-16.436-6.307l-11.016,2.515l-17.021,7.857l-5.683,9.115l-17.021,8.169l-12.488,1.111l-39.58,19.624l-36.168-16.124
	l-15.247,4.494l-9.018-14.136l-27.043,7.224l-21.028-20.423l-27.706-10.997l-15.198,5.898l-9.612-8.13L65.628,326.395z"/>
<g>
	<path style="fill:#FFFFFF;" d="M90.809,97.682c2.73,0,5.313,0.653,7.594,1.804c2.476-2.418,5.869-3.919,9.602-3.919
		c6.473,0,11.893,4.484,13.346,10.509c3.237,0.975,5.83,3.412,7.019,6.551c0.39-0.049,0.78-0.058,1.18-0.058
		c5.976,0,10.831,4.845,10.831,10.821c0,5.986-4.855,10.831-10.831,10.831c-1.862,0-3.617-0.468-5.147-1.297
		c-1.316,4.504-5.469,7.789-10.402,7.789c-3.003,0-5.722-1.228-7.692-3.207c-1.959,1.979-4.679,3.207-7.692,3.207
		c-2.856,0-5.459-1.111-7.399-2.925c-1.979,2.164-4.826,3.529-7.994,3.529c-2.964,0-5.644-1.189-7.594-3.12
		c-0.897,0.205-1.833,0.302-2.788,0.302c-7.126,0-12.897-5.771-12.897-12.897s5.771-12.907,12.897-12.907
		c0.39,0,0.78,0.02,1.16,0.058C74.919,104.272,82.094,97.682,90.809,97.682z"/>
	<path style="fill:#FFFFFF;" d="M287.157,55.021c2.73,0,5.313,0.653,7.604,1.804c2.466-2.418,5.859-3.909,9.593-3.909
		c6.473,0,11.903,4.475,13.356,10.499c3.227,0.975,5.83,3.412,7.009,6.551c0.39-0.039,0.78-0.058,1.18-0.058
		c5.986,0,10.831,4.845,10.831,10.831c0,5.976-4.845,10.831-10.831,10.831c-1.862,0-3.617-0.478-5.138-1.306
		c-1.316,4.504-5.479,7.799-10.402,7.799c-3.012,0-5.732-1.228-7.692-3.217c-1.969,1.989-4.689,3.217-7.701,3.217
		c-2.856,0-5.459-1.121-7.399-2.925c-1.979,2.154-4.826,3.519-7.984,3.519c-2.973,0-5.654-1.18-7.604-3.11
		c-0.897,0.195-1.823,0.292-2.778,0.292c-7.126,0-12.907-5.771-12.907-12.897c0-7.126,5.781-12.907,12.907-12.907
		c0.39,0,0.77,0.02,1.15,0.058C271.266,61.621,278.441,55.021,287.157,55.021z"/>
</g>
<path style="fill:#6C4C40;" d="M85.437,446.889l0.361-5.976l25.415,19.79l0.965-16.076l1.033-0.468l1.102-0.487l25.288-11.25
	c38.575-16.924,81.119-34.793,123.516-51.064l2.418-14.993l23.28,19.478l2.418-14.984l6.873-2.564
	c7.545-2.73,15.052-5.391,22.5-7.965l0.38-0.137l2.905-0.994l4.913-9.057l18.678,8.735l4.913-9.066l0.575-0.185l1.482-0.487
	c1.735-0.546,3.461-1.092,5.177-1.628l0.78-0.234l5.069-9.495l18.698,10.626l5.06-9.495l1.511-0.439l1.462-0.419
	c0.887-0.244,1.774-0.478,2.652-0.712l27.56-9.651l0.595-0.205l0.575-0.205l0.565-0.205l3.86-11.152l19.449,24.05l2.583-7.467
	l3.412-11.611l19.848,13.882l3.422-11.62l8.296-0.195c4.016,0.088,7.818,0.351,11.377,0.79c2.154,0.273,4.241,0.575,6.268,0.897
	C472.674,432.695,373.598,512,256,512C190.479,512,130.72,487.375,85.437,446.889z"/>
<g>
	<g>
		<polygon style="fill:#DFDFDF;" points="122.404,440.24 121.829,440.435 99.797,374.992 100.363,374.797 		"/>
		<polygon style="fill:#DFDFDF;" points="127.893,437.783 127.366,438.066 94.309,377.449 94.825,377.166 		"/>
		<polygon style="fill:#DFDFDF;" points="132.874,434.401 132.416,434.781 89.317,380.822 89.785,380.452 		"/>
		<polygon style="fill:#DFDFDF;" points="137.203,430.218 136.803,430.667 84.999,385.014 85.389,384.565 		"/>
		<polygon style="fill:#DFDFDF;" points="140.722,425.344 140.42,425.861 81.47,389.888 81.782,389.372 		"/>
		<polygon style="fill:#DFDFDF;" points="143.354,419.924 143.14,420.489 78.837,395.299 79.062,394.753 		"/>
		<polygon style="fill:#DFDFDF;" points="145.002,414.143 144.885,414.728 77.19,401.089 77.317,400.505 		"/>
		<polygon style="fill:#DFDFDF;" points="145.616,408.157 145.606,408.752 76.576,407.075 76.586,406.48 		"/>
		<polygon style="fill:#DFDFDF;" points="145.187,402.152 145.275,402.737 77.005,413.08 76.917,412.486 		"/>
		<polygon style="fill:#DFDFDF;" points="143.725,396.313 143.91,396.878 78.477,418.92 78.282,418.354 		"/>
		<polygon style="fill:#DFDFDF;" points="141.268,390.824 141.56,391.341 80.933,424.418 80.641,423.882 		"/>
		<polygon style="fill:#DFDFDF;" points="137.885,385.842 138.265,386.301 84.306,429.4 83.936,428.932 		"/>
		<polygon style="fill:#DFDFDF;" points="133.703,381.514 134.151,381.904 88.498,433.718 88.05,433.328 		"/>
		<polygon style="fill:#DFDFDF;" points="128.829,377.995 129.336,378.297 93.373,437.237 92.866,436.935 		"/>
		<polygon style="fill:#DFDFDF;" points="123.418,375.363 123.964,375.577 98.793,439.87 98.228,439.655 		"/>
		<polygon style="fill:#DFDFDF;" points="117.627,373.715 118.212,373.832 104.574,441.517 103.989,441.4 		"/>
		<polygon style="fill:#DFDFDF;" points="111.642,373.101 112.236,373.111 110.56,442.131 109.965,442.131 		"/>
		<polygon style="fill:#DFDFDF;" points="105.637,373.53 106.221,373.432 116.565,441.702 115.98,441.8 		"/>
	</g>
	<g>
		<path style="fill:#FFBF06;" d="M133.596,355.641c-19.878,17.187-27.335,52.779-27.637,54.281l8.091,0.965
			c0.058-0.341,7.243-34.51,24.976-49.845c18.211-15.744,57.8-30.738,58.19-30.894l-2.7-7.019
			C192.838,323.763,153.015,338.844,133.596,355.641z"/>
		<polygon style="fill:#FFBF06;" points="166.77,395.035 161.75,392.657 192.448,327.857 197.469,330.236 		"/>
		<path style="fill:#FFBF06;" d="M173.556,306.498c8.998,11.406,53.53,64.234,53.978,64.77l4.484-3.792
			c-0.448-0.526-44.922-53.276-53.861-64.614c-7.146-9.057,3.714-18.123,4.182-18.503l-3.704-4.553
			C173.117,284.271,164.957,295.609,173.556,306.498z"/>
	</g>
	<polygon style="fill:#521A17;" points="145.518,381.894 147.137,379.993 161.886,392.481 160.268,394.392 	"/>
</g>
<polygon style="fill:#FFFFFF;" points="74.616,365.663 134.112,345.454 136.277,351.868 86.344,368.685 "/>
<g>
	<g>
		<polygon style="fill:#FFBF06;" points="123.321,335.315 126.781,333.239 157.529,384.497 154.068,386.564 		"/>
		<polygon style="fill:#FFBF06;" points="161.487,394.304 162.237,398.262 108.863,408.42 108.103,404.462 		"/>
	</g>
	<polygon style="fill:#FFFFFF;" points="163.124,394.802 163.329,395.893 109.945,406.051 109.741,404.96 	"/>
	<path style="fill:#A28A7B;" d="M126.781,333.239l-3.461,2.076l7.77,12.946c1.384-0.156,2.817-0.39,4.26-0.721L126.781,333.239z"/>
	<path style="fill:#202020;" d="M145.908,396.527c6.629,19.663-3.948,40.983-23.621,47.613
		c-19.673,6.619-40.993-3.948-47.622-23.621c-6.619-19.673,3.958-41.003,23.631-47.622
		C117.969,366.267,139.289,376.844,145.908,396.527z M141.307,398.077L141.307,398.077c-5.761-17.138-24.333-26.351-41.461-20.579
		c-17.138,5.771-26.341,24.333-20.57,41.471c5.761,17.119,24.333,26.341,41.461,20.57S147.078,415.196,141.307,398.077z"/>
	<path style="fill:#424242;" d="M174.55,389.888c2.34,6.951-1.404,14.487-8.345,16.826c-6.951,2.34-14.477-1.394-16.816-8.355
		c-2.34-6.941,1.394-14.477,8.335-16.807C164.674,379.204,172.21,382.947,174.55,389.888z M171.099,391.048L171.099,391.048
		c-1.696-5.05-7.165-7.76-12.215-6.064c-5.04,1.706-7.76,7.175-6.064,12.215c1.696,5.06,7.175,7.77,12.225,6.073
		C170.085,401.567,172.805,396.098,171.099,391.048z"/>
	<g>
		<path style="fill:#521A17;" d="M116.575,335.071c0,0,1.16,13.122,12.079,3.938c10.919-9.183,12.274-6.629,16.543-8.823
			c4.26-2.184-3.012-4.494-8.033-3.051C132.143,328.579,118.437,331.698,116.575,335.071z"/>
		<path style="fill:#521A17;" d="M166.878,392.598c0.838,2.496-0.507,5.206-3.003,6.044c-2.496,0.848-5.206-0.497-6.044-3.003
			c-0.838-2.486,0.497-5.196,3.003-6.044C163.329,388.757,166.039,390.103,166.878,392.598z"/>
	</g>
	<g>
		<path style="fill:#424242;" d="M109.029,401.723l0.682,1.628c0.273-0.127,27.14-11.386,45.809-18.961l-0.663-1.609
			C136.179,390.346,109.302,401.616,109.029,401.723z"/>
		<path style="fill:#424242;" d="M112.578,412.027c0.283-0.029,29.256-3.129,49.319-5.03l-0.175-1.745
			c-20.063,1.901-49.046,5.001-49.328,5.03L112.578,412.027z"/>
	</g>
	<path style="fill:#521A17;" d="M149.827,377.449c0.604,0.985,0.507,2.145-0.205,2.583l-5.605,3.432
		c-0.721,0.429-1.794-0.01-2.398-0.994c-0.595-0.985-0.507-2.135,0.214-2.574l5.596-3.441
		C148.15,376.016,149.223,376.455,149.827,377.449z"/>
	<path style="fill:#424242;" d="M117.247,405.067c1.189,3.539-0.712,7.37-4.25,8.559c-3.539,1.199-7.37-0.712-8.559-4.241
		c-1.189-3.539,0.712-7.37,4.25-8.559C112.217,399.637,116.058,401.528,117.247,405.067z"/>
	<path style="fill:#FFFFFF;" d="M106.514,408.684c0.819,2.427,3.461,3.743,5.888,2.925c2.447-0.819,3.753-3.471,2.925-5.898
		c-0.819-2.437-3.451-3.753-5.898-2.925C106.992,403.605,105.695,406.246,106.514,408.684z"/>
	<path style="fill:#A28A7B;" d="M160.102,395.113c0.429,1.287,1.833,1.989,3.129,1.55c1.297-0.429,1.989-1.842,1.55-3.129
		c-0.429-1.297-1.833-1.989-3.129-1.55C160.356,392.413,159.664,393.827,160.102,395.113z"/>
	<path style="fill:#521A17;" d="M189.543,286.913c-0.419,1.618-2.067,2.593-3.675,2.164l-12.576-3.246
		c-1.618-0.419-2.583-2.057-2.164-3.675c0.409-1.618,2.057-2.583,3.675-2.164l12.566,3.246
		C188.988,283.657,189.953,285.295,189.543,286.913z"/>
</g>
<path style="fill:#FFFBE5;" d="M123.486,252.88c0.029,1.063,0.117,11.708-2.71,13.687l9.018,0.78l6.814-7.263
	c1.726-0.634,5.713-1.823,8.423-5.771c0.341-0.487,0.838-1.394,0.721-2.018c-0.331-1.774-1.511-2.603-1.443-3.344
	c0.107-1.287,1.57-1.969,0.331-4.455c0.39-0.741,1.492-0.907,1.472-2.281c-0.019-1.735-1.482-0.565-3.383-3.588
	c-0.468-0.76-1.579-2.934-0.029-2.905c0.273-0.273-0.029-0.263,0.234-0.595l1.316,0.585c0.205-0.341,0.136-0.127,0.166-0.575
	c0.029-0.546-0.146-1.258-0.292-1.755c-0.263-0.887-0.673-1.823-1.092-2.642c-1.219-2.369-2.837-1.794-5.44-1.745
	c-2.076,0.049-3.441-1.989-4.757-0.77l-0.341-1.433c-0.4-0.887-0.526-0.712-1.16-0.838c-0.556-0.107-0.595-0.234-1.375-0.127
	C110.023,228.47,123.428,251.194,123.486,252.88z"/>
<path style="fill:#ADD37F;" d="M143.812,272.446c0.595,8.16-3.012,12.829-3.88,16.105c-3.539,13.278-7.029,20.414-0.127,27.832
	l-25.736,13.629c-0.585-1.706-0.809-3.704-0.536-6.054c0.136-0.907-1.696-11.455-1.638-16.582c0.136-13.2-1.209-24.284,5.352-38.722
	c2.164-4.757,6.717-11.338,13.726-8.013C134.61,262.366,142.506,265.339,143.812,272.446z"/>
<path style="fill:#FFED58;" d="M139.464,316.013l0.497,0.546l28.778,7.536c4.007,2.34,5.05,6.317,4.709,11.562l-1.472,42.602
	l10.948,3.11c4.923,3.948,2.262,7.409-1.111,7.438l-21.691-0.507l-0.37-3.49l0.741-3.168l1.433-5.216l-5.732-38.332
	c-7.282-0.448-46.004,7.506-42.66-14.136c5.03-1.219,10.694-7.692,17.138-8.033C133.713,315.759,136.92,315.857,139.464,316.013z"/>
<path style="fill:#FFFFFF;" d="M172.854,352.96l-0.877,25.298l10.948,3.11c4.923,3.948,2.262,7.409-1.111,7.438l-21.691-0.507
	l-0.37-3.49l2.174-8.384l-3.315-22.159L172.854,352.96z"/>
<path d="M185.361,386.847c-0.575,1.189-1.989,1.95-3.549,1.959l-21.691-0.507l-0.331-3.051L185.361,386.847z"/>
<path style="fill:#FFED58;" d="M135.916,308.233c0.283,2.934,1.472,5.605,4.046,8.325c0,0-15.218-14.214-21.32-7.545
	c-2.262,2.476-4.562,2.769-6.571,2.154c-0.117-1.414-0.185-2.72-0.175-3.792c0.136-13.2-1.209-24.294,5.352-38.722
	c0.76-1.677,1.823-3.568,3.178-5.186c9.037-0.419-7.448,12.751-0.195,29.139C124.305,301.799,131.51,304.89,135.916,308.233z"/>
<g>
	<path style="fill:#FFFFFF;" d="M138.899,271.13l6.327,15.198l28.554-12.361l5.781,0.098l3.734,4.075
		c3.256,3.11-0.838,5.683-4.231,6.337l-5.391-3.178l-4.767,1.95l-25.288,13.258c-4.416,1.813-7.243,0.078-8.257-2.71l-9.261-16.807
		C122.141,263.389,138.694,264.394,138.899,271.13z"/>
	<path style="fill:#521A17;" d="M167.628,391.341c-0.487-1.209-0.166-2.486,0.712-2.847l6.892-2.798
		c0.887-0.361,1.998,0.331,2.496,1.54c0.497,1.219,0.175,2.486-0.712,2.847l-6.892,2.808
		C169.247,393.251,168.126,392.559,167.628,391.341z"/>
	<path style="fill:#FFED58;" d="M170.943,275.195l2.837-1.228l5.781,0.098l3.734,4.075c3.256,3.11-0.838,5.683-4.231,6.337
		l-5.391-3.188l-2.388,0.985C169.695,281.366,168.779,275.868,170.943,275.195z"/>
	<polygon style="fill:#521A17;" points="172.415,387.363 173.828,389.83 163.388,395.552 161.984,393.086 	"/>
	<path style="fill:#FFFFFF;" d="M171.43,389.713c0.234,0.692,0.975,1.063,1.667,0.829c0.692-0.234,1.072-0.975,0.838-1.667
		c-0.234-0.692-0.985-1.063-1.677-0.838C171.567,388.27,171.196,389.021,171.43,389.713z"/>
	<g>
		<polygon style="fill:#DFDFDF;" points="239.213,400.894 238.647,401.089 216.606,335.647 217.171,335.452 		"/>
		<polygon style="fill:#DFDFDF;" points="244.711,398.438 244.185,398.72 211.117,338.113 211.644,337.821 		"/>
		<polygon style="fill:#DFDFDF;" points="249.693,395.065 249.225,395.435 206.136,341.486 206.594,341.106 		"/>
		<polygon style="fill:#DFDFDF;" points="254.011,390.883 253.621,391.321 201.817,345.668 202.207,345.22 		"/>
		<polygon style="fill:#DFDFDF;" points="257.54,385.998 257.228,386.515 198.288,350.543 198.59,350.036 		"/>
		<polygon style="fill:#DFDFDF;" points="260.163,380.588 259.948,381.144 195.656,355.963 195.87,355.407 		"/>
		<polygon style="fill:#DFDFDF;" points="261.82,374.797 261.703,375.382 193.998,361.744 194.125,361.169 		"/>
		<polygon style="fill:#DFDFDF;" points="262.434,368.812 262.424,369.406 193.394,367.739 193.404,367.135 		"/>
		<polygon style="fill:#DFDFDF;" points="262.005,362.806 262.093,363.401 193.823,373.735 193.726,373.14 		"/>
		<polygon style="fill:#DFDFDF;" points="260.533,356.967 260.728,357.532 195.285,379.574 195.1,379.009 		"/>
		<polygon style="fill:#DFDFDF;" points="258.076,351.488 258.369,352.005 197.742,385.072 197.459,384.546 		"/>
		<polygon style="fill:#DFDFDF;" points="254.703,346.497 255.074,346.955 201.125,390.054 200.745,389.586 		"/>
		<polygon style="fill:#DFDFDF;" points="250.512,342.178 250.96,342.568 205.307,394.373 204.859,393.983 		"/>
		<polygon style="fill:#DFDFDF;" points="245.637,338.649 246.154,338.951 210.181,397.902 209.674,397.59 		"/>
		<polygon style="fill:#DFDFDF;" points="240.227,336.017 240.773,336.232 215.602,400.534 215.036,400.31 		"/>
		<polygon style="fill:#DFDFDF;" points="234.436,334.37 235.021,334.487 221.382,402.172 220.798,402.064 		"/>
		<polygon style="fill:#DFDFDF;" points="228.46,333.755 229.045,333.765 227.368,402.795 226.773,402.786 		"/>
		<polygon style="fill:#DFDFDF;" points="222.455,334.184 223.04,334.097 233.373,402.367 232.788,402.454 		"/>
	</g>
	<path style="fill:#202020;" d="M262.727,357.181c6.629,19.673-3.958,40.993-23.631,47.612
		c-19.673,6.629-40.993-3.948-47.613-23.621c-6.629-19.673,3.948-40.993,23.621-47.622
		C234.777,326.931,256.107,337.509,262.727,357.181z M258.125,358.731L258.125,358.731c-5.771-17.138-24.333-26.351-41.471-20.579
		c-17.128,5.771-26.341,24.342-20.57,41.471s24.333,26.341,41.471,20.57C254.684,394.431,263.887,375.85,258.125,358.731z"/>
	<path style="fill:#424242;" d="M234.056,365.731c1.189,3.529-0.712,7.37-4.241,8.559c-3.539,1.189-7.37-0.712-8.559-4.25
		c-1.189-3.539,0.702-7.37,4.241-8.559C229.035,360.291,232.866,362.192,234.056,365.731z"/>
	<path style="fill:#FFFFFF;" d="M223.322,369.338c0.819,2.437,3.461,3.743,5.888,2.925c2.447-0.819,3.753-3.461,2.934-5.898
		c-0.819-2.427-3.461-3.753-5.898-2.925C223.81,364.259,222.504,366.901,223.322,369.338z"/>
</g>
<path style="fill:#606060;" d="M141.931,236.21l-8.452,1.501c0,0-8.433,4.65-4.016,8.16c4.416,3.5-7.214,3.86-7.214,3.86
	c-2.817-6.736-8.286-21.788,7.711-23.904c0.78-0.107,0.819,0.02,1.375,0.127c0.634,0.127,0.76-0.049,1.16,0.838l0.341,1.433
	c1.316-1.219,2.681,0.819,4.757,0.77c2.603-0.049,4.221-0.634,5.44,1.745c0.419,0.819,0.829,1.755,1.092,2.642
	c0.146,0.497,0.322,1.209,0.292,1.755c-0.029,0.448,0.039,0.234-0.166,0.575l-1.316-0.585c-0.263,0.331,0.039,0.322-0.234,0.595
	C142.223,235.713,141.999,235.908,141.931,236.21z"/>
<g>
	<path style="fill:#5C4036;" d="M476.222,265.719c-1.053-0.936-0.663-0.877-2.252-1.033c-0.965,1.131-1.033,2.086-2.047,3.636
		c-1.267,1.92-1.345,1.423-0.487,3.88c-0.614,0.517-1.131,0.634-1.492,0.868l-0.429,2.593c0.302,1.053,1.053-0.058,0.721,3.042
		c-0.614,5.752,1.414,4.231-1.901,6.697c-0.244,2.242-0.185,2.973,0.897,4.689c1.95,3.09,0.809,1.102,0.487,3.909
		c-0.273,2.388,0.78,1.102,0.185,4.377c-0.4,2.184,0.487,2.827,1.891,3.383c-0.653,2.808-0.292,1.901,0.37,4.182
		c0.604,2.115-0.448,1.959,0,4.133c0.39,1.921,1.365,1.55,2.622,3.256l1.687,1.784c-2.018,4.007,2.535,8.735,2.934,9.875
		c1.18,3.451-1.277,8.998-1.628,10.607c-0.351,1.657-0.429,0.312,0.088,1.355c2.037,0.663,5.362,0.4,7.516-0.448
		c-0.507-1.316-1.199-1.638-1.716-3.714c-0.38-1.531-0.507-3.354-0.448-5.06c4.25-3.627,1.628-4.036,3.09-6.463
		c0.507-0.848,0.955-0.575,1.521-1.852c0.916-2.047-0.205-3.168,0.312-5.128c0.634-2.466,0.926-2.973-0.175-5.381
		c1.072-0.975,1.248-0.244,2.281-1.248c0.838-0.819,0.751-1.716,1.18-2.583c1.589-3.276,1.657-2.242,0.029-5.43
		c2.418-0.887,1.238-1.384,1.414-3.597c0.253-3.032,1.433-0.156,1.102-10.509c-0.117-3.422,0.76-2.076,1.209-4.67
		c0.468-2.7-0.819-3.1-0.965-4.504c-0.107-1.209,0.897-2.934,0.692-4.982c-0.205-1.92-0.39-1.053-0.673-2.281
		c-0.624-2.603,0.721-4.28-4.211-4.533c-1.248-5.06-3.617-1.901-4.289-1.57c-1.998,0.994-1.404-0.975-3.685,0.039
		c-1.053,0.478-0.536,0.692-1.842,1.072C477.246,264.959,478.601,263.633,476.222,265.719z"/>
	<path style="fill:#5C4036;" d="M447.932,287.089c-1.043-0.936-0.653-0.877-2.242-1.033c-0.975,1.121-1.033,2.086-2.047,3.626
		c-1.277,1.93-1.355,1.433-0.487,3.89c-0.614,0.517-1.131,0.624-1.501,0.868l-0.419,2.593c0.292,1.053,1.043-0.058,0.712,3.032
		c-0.614,5.752,1.414,4.231-1.891,6.707c-0.244,2.242-0.195,2.973,0.897,4.689c1.94,3.09,0.799,1.102,0.487,3.909
		c-0.283,2.388,0.78,1.092,0.185,4.377c-0.4,2.174,0.487,2.827,1.882,3.383c-0.643,2.798-0.283,1.901,0.37,4.172
		c0.614,2.115-0.439,1.969,0,4.133c0.39,1.92,1.375,1.56,2.632,3.266l1.677,1.774c-2.018,4.016,2.544,8.735,2.934,9.885
		c1.18,3.451-1.277,8.998-1.618,10.607c-0.361,1.657-0.439,0.312,0.088,1.355c2.028,0.653,5.352,0.39,7.516-0.448
		c-0.517-1.316-1.199-1.638-1.716-3.724c-0.38-1.521-0.507-3.344-0.448-5.05c4.241-3.636,1.628-4.046,3.081-6.463
		c0.517-0.848,0.955-0.575,1.531-1.852c0.916-2.047-0.205-3.168,0.302-5.128c0.643-2.466,0.936-2.973-0.166-5.391
		c1.072-0.965,1.248-0.234,2.281-1.238c0.829-0.829,0.751-1.716,1.17-2.593c1.599-3.266,1.667-2.232,0.039-5.42
		c2.418-0.887,1.228-1.384,1.404-3.607c0.253-3.032,1.443-0.146,1.102-10.509c-0.107-3.422,0.76-2.076,1.209-4.67
		c0.468-2.691-0.819-3.09-0.955-4.494c-0.117-1.209,0.887-2.934,0.682-4.982c-0.195-1.92-0.39-1.053-0.673-2.281
		c-0.614-2.613,0.731-4.28-4.202-4.543c-1.248-5.05-3.617-1.891-4.299-1.56c-1.998,0.985-1.394-0.975-3.685,0.039
		c-1.043,0.468-0.536,0.692-1.833,1.063C448.965,286.328,450.32,285.002,447.932,287.089z"/>
</g>
<g>
	<path d="M397.063,180.165c0,0,7.809-1.677,14.34-0.429c6.551,1.258,13.365,6.688,20.755,7.107c7.38,0.419,5.839-2.369,5.839-2.369
		s-4.728,0.702-5.986-3.334c-1.248-4.046,3.899-7.253,11.835-12.81c7.935-5.566,9.466-11.143,7.935-14.623
		c0,0-1.394,2.223-7.935,5.703c-6.541,3.49-11.269,9.895-16.427,14.477c-5.147,4.601-5.43,4.874-10.304,3.909
		C412.252,176.812,401.801,175.291,397.063,180.165z"/>
	<path d="M88.888,175.164c0,0,7.809-1.667,14.34-0.419c6.551,1.258,13.375,6.688,20.755,7.107c7.37,0.409,5.839-2.369,5.839-2.369
		s-4.728,0.692-5.986-3.344c-1.248-4.036,3.899-7.243,11.835-12.81c7.935-5.566,9.476-11.133,7.935-14.623
		c0,0-1.394,2.232-7.935,5.713c-6.541,3.48-11.279,9.885-16.427,14.477c-5.147,4.601-5.43,4.874-10.304,3.899
		C104.077,171.82,93.626,170.29,88.888,175.164z"/>
</g>
<g>
</g>
<g>
</g>
<g>
</g>
<g>
</g>
<g>
</g>
<g>
</g>
<g>
</g>
<g>
</g>
<g>
</g>
<g>
</g>
<g>
</g>
<g>
</g>
<g>
</g>
<g>
</g>
<g>
</g>
</svg>
