<?xml version="1.0" encoding="iso-8859-1"?>
<!-- Generator: Adobe Illustrator 19.0.0, SVG Export Plug-In . SVG Version: 6.00 Build 0)  -->
<svg version="1.1" id="Layer_1" xmlns="http://www.w3.org/2000/svg" xmlns:xlink="http://www.w3.org/1999/xlink" x="0px" y="0px"
	 viewBox="0 0 512 512" style="enable-background:new 0 0 512 512;" xml:space="preserve">
<path style="fill:#B1E3FB;" d="M255.997,0C397.385,0,512,114.615,512,255.997C512,397.385,397.385,512,255.997,512
	C114.615,512,0,397.385,0,255.997C0,114.615,114.615,0,255.997,0z"/>
<path style="fill:#FFFF00;" d="M205.534,46.982c26.937,0,48.773,21.836,48.773,48.773s-21.836,48.773-48.773,48.773
	c-26.931,0-48.773-21.836-48.773-48.773S178.603,46.982,205.534,46.982z"/>
<path style="fill:#7FD3F9;" d="M511.906,262.847H0.094C3.727,401.071,116.904,512,255.997,512
	C395.096,512,508.273,401.071,511.906,262.847z"/>
<path style="fill:#424242;" d="M0.657,274.299l510.621,1.01c0.475-6.375,0.722-12.814,0.722-19.312
	c0-23.955-3.305-47.141-9.462-69.141l-0.886-3.082c-0.517-1.755-1.045-3.504-1.597-5.242l-0.34-1.104l-0.405-1.197
	c-0.599-1.82-1.215-3.622-1.849-5.424c-1.35-0.922-3.475-1.896-5.072-2.342c-2.759,0.757-4.702,2.154-6.474,3.481
	c-2.096,1.561-0.088,4.226-0.792,6.169c-1.174,1.526,0.428-0.434-1.35,0.763l-1.233,1.356l-8.64,0.012l-0.217,11.593
	c-5.5,0.059-3.504,0.458-4.972-1.784c-0.035,1.215,0.211,0.969-0.875,1.655l-0.687,0.276c-0.088,0.059-0.235,0.1-0.317,0.158
	c-1.057,0.745-0.593,2.178-0.593,3.228c-2.958,0.704-6.41,0.839-9.486,1.497c-2.765,0.599-0.675,0.417-2.929,0.916
	c0.047,0.088,0.188,0.117,0.211,0.252c0.023,0.123,0.164,0.188,0.194,0.229c0.023,0.047,0.117,0.164,0.147,0.217l0.023,1.027
	c0,0.035,0,0.129,0,0.164c0,0.041,0.012,0.135,0.018,0.17l-0.029,2.33c0,0.029,0,0.135,0.006,0.164l0.018,2.835
	c0,0.041,0.023,0.135,0.023,0.164l-0.047,2.172c0,0.035,0.006,0.135,0.006,0.164c0.006,0.035,0.018,0.141,0.023,0.17
	c0,0.041,0.018,0.141,0.018,0.164l-0.059,1.814c-0.006,0.035-0.041,0.141-0.041,0.17l0.669,1.162l-3.217-0.217l-0.258-10.648
	l-10.196,0.012l-0.2,4.555l-5.5,0.006c0.029-2.125,0.123-9.304-0.258-9.991l-7.954-0.082c-0.176-14.07,1.949-27.706,3.54-41.553
	l-10.83,1.262c-0.047-0.065-0.123-0.194-0.159-0.241c-0.035-0.059-0.082-0.17-0.147-0.247c-5.113,0.458-8.846,0.522-14,0
	l-1.033,1.526l-10.214-2.254c0.816,6.122,3.428,18.607,2.577,24.155c-0.434,0.581-2.377,1.192-3.293,2.031
	c-2.248,2.06-1.878-0.675-1.779,5.653c0.041,2.594,0.957,3.17-1.286,3.592c-1.708-1.421-0.387-51.543-0.622-57.636l-8.13-0.065
	l2.806-8.646c-2.882-2.489-5.195-1.462-10.495-1.761c-0.094-3.704,0.088-16.089-1.503-18.643l-1.303,18.701
	c-6.392,0.059-6.31-0.581-10.707,1.409l2.894,8.952l-8.306-0.006l-0.023,82.102c-1.679,0.012-0.822,0.123-1.696-0.522
	c-0.851-0.634-0.628-0.511-0.37-1.467c0.1-0.358,0.211-0.059,0.217-0.657l-0.352-1.244c0.117-1.403,0.47-0.252,0.158-1.702
	l-0.012-2.289c-0.241-1.033,0.264-1.092-0.012-2.301c-0.018-0.088-0.082-0.37-0.053-0.616c0.117-0.828,0.475,0.534,0.241-1.062
	l-0.323-0.845c-0.082-1.15,0.534,0.188,0.335-1.467c-0.029-0.2-0.517,0.076-0.194-1.262c0.716-2.964-0.035,0.188-0.599-2.436
	c-1.597-0.217-2.084-0.135-3.452-0.423c-0.91-0.194,0.458-0.106-1.556-0.329c-0.88-0.1-1.696-0.053-2.589-0.041
	c0.511-7.989,1.667-13.231-0.54-21.308c-2.278-8.306-5.207-10.806-8.658-17.739l-2.6,0.757l-1.931-3.023
	c-2.242,0.734-6.287,2.683-8.388,2.976l-0.734-11.963l-1.268,12.79c-5.03,2.706-9.809,2.542-11.769,7.026
	c-0.869,1.972-0.405,2.195-3.399,2.853l0.029-30.84c-1.955,0.499-3.328,1.409-5.148,1.966c-0.91-4.085,0.188-18.214-1.168-20.48
	l-1.104,21.584c-2.501,0.88-18.795,7.566-19.564,8.682c-0.64,1.961,0.153,29.261-0.029,34.092l-2.923,0.053
	c-0.382,3.569-1.421-0.581-1.961,2.882c-0.082,0.546,0.147,1.444,0.029,2.031c-0.346,1.779-1.286,0.98-1.332,3.328
	c-0.047,2.166-0.828,1.808-1.133,3.698c-0.27,1.708,0.751,1.133-1.01,1.632c-1.526-1.849-0.223-43.496-0.481-49.718
	c-0.845-0.293-0.511-0.129-1.068-0.311l-1.033-7.701c-1.602-0.558-1.057,0.035-2.512-0.669v-8.165l-3.375-0.023l-0.176-2.894
	l-6.111-0.035l-0.517-10.378c-0.029,0.505-0.675,9.092-0.91,10.396l-5.154,0.029v2.729l-3.446,0.247l-0.035,16.483
	c-2.759,0.053-1.52-0.194-2.078,0.628c-0.587,1.796-0.012,30.799-0.006,37.379c0.006,1.209,0.511,2.818-0.094,3.986
	c-0.499,0.969,0.382,0.382-0.992,0.834c-1.685-0.534-0.886-1.591-1.139-2.782c-0.264-1.28-0.006-0.61-0.98-1.297
	c-1.397-1.004-4.038-1.168-5.541-0.358c-0.088,0.047-0.188,0.129-0.27,0.176l-0.475,0.376c-1.309,1.18-0.493,1.996-0.927,3.651
	l-4.355,0.299l0.376,2.096c0.023,0.059,0.076,0.158,0.094,0.205c0.006,0.053,0.029,0.153,0.029,0.194
	c0.023,0.704-0.229,0.053-0.564,1.332c-0.311,1.174-0.07,3.968-0.07,5.312l0.035,8.012c0.018,2.512,0.922,0.88-0.728,2.548
	c-2.166-0.652-1.286-0.07-1.268-4.549c0.006-1.667,0.029-3.346-0.018-5.013l-2.184-0.517c0.182-5.524,0.839-7.819-7.414-10.266
	c-4.837,1.597-4.185,2.025-7.079,3.939c-0.986,0.646-0.023,4.708-0.305,5.846c-0.17,0.693-0.687,0.599-1.52,0.992
	c-1.638,0.781-3.187,0.699-5.377,0.528l-0.07-4.537l-6.21-0.012l-0.018-12.362h-9.721l-0.029,5.465
	c-3.815,0.106-2.724-0.059-4.743,1.421c-0.581,0.423-1.027,0.264-1.233,0.828c0,1.303,0.276,2.759-0.428,3.698
	c-0.892,1.197-0.487-0.81-0.916,1.321c-0.117,0.593,0.082,1.379-0.041,2.002c-0.652,3.258-1.174-0.522-1.086,7.414l-0.387-0.517
	c-0.035-0.076-0.117-0.194-0.153-0.282c-0.029-0.088-0.076-0.188-0.1-0.282c-0.082-0.299-0.053-0.951-0.065-1.28l-7.66-0.029
	l-0.07,3.322l-4.056,0.047c0.816-2.272,0.241-4.532,0.282-6.885c0.035-1.961,0.857-1.092-1.297-1.849l0.804-0.487
	c0.511-0.364,0.147,0.053,0.64-0.517c-0.094-0.053-0.241-0.247-0.282-0.182l-0.364-0.992c0.499-0.346,0.141,0.065,0.64-0.499
	c-0.751-0.499,0.481-0.076-1.426-0.663l1.421-0.998l-1.415-1.004c2.348-0.652,0.452-0.018,1.415-0.669
	c-0.534-0.61-0.053-0.117-0.628-0.505l-0.81-0.493c1.978-0.581,0.704-0.194,1.45-0.675c-0.517-0.587-0.07-0.141-0.64-0.511
	l-0.522-0.329c-0.053-0.035-0.194-0.1-0.282-0.158l1.444-0.669l-1.485-1.004c1.966-0.699,0.892,0.217,1.415-0.998
	c-1.79-0.663-1.626-1.737-3.046-2.63c-0.129-0.082-0.728-0.411-0.798-0.464l-2.548-1.814c-0.1-0.035-0.299-0.053-0.434-0.1h-1.033
	c-1.356,0.564-0.945-0.012-1.961,0.634c-1.332,0.851,0.282,0.106-0.945,1.244c-3.516,0.34-11.211,0.974-14.129,2.324l-1.608,0.804
	c0.393,0.657,0.875,0.569,0.863,1.074l-0.945,0.927l1.503,0.669c-1.438,1.021-0.757-0.141-1.509,0.998
	c1.203,1.497,1.045,0.135,0,1.673c0.423,0.546,0.751,0.47,0.681,1.456c-0.006,0.047-0.023,0.153-0.023,0.2l0.018,2.09
	c0.106,0.17,0.728,0.511,0.828,0.587c-1.409,0.423-0.916,0.364-1.491,0.675c1.092,1.004,0.311,0.164,1.497,1.004l-1.121,0.47
	c-0.082,0.035-0.252,0.135-0.376,0.2l0.552,0.382c0.029,0.041,0.164,0.153,0.188,0.2l0.029,1.867c0,0.047,0.018,0.129,0.012,0.176
	c0,0.041-0.023,0.135-0.023,0.176c-0.006,0.041-0.059,0.141-0.065,0.188l0.1,1.156c0.006,0.047,0.029,0.141,0.029,0.188
	l-0.164,4.514c0.17,0.904,0.564-0.247,0.2,0.734c-0.012,0.041-0.61,0.564-0.816,0.769l0.687,0.364
	c0.076,0.035,0.745,0.293,0.769,0.299l-1.467,0.998l0.98,0.528c0.904,0.663-0.07-0.528,0.47,0.475
	c-0.634,0.164-0.499,0.147-1.045,0.382c-1.591,0.669,0.34-0.023-0.898,0.428c-0.176-2.935-0.769-7.572-0.035-9.492
	c-0.135-0.053-0.364-0.205-0.434-0.129c-0.282,0.299-2.606-1.426-2.8-1.556l0.657-0.81c0.07-0.029,0.217-0.117,0.329-0.176
	l-0.018-1.661c-0.951-1.162,0.176-0.053-1.526-1.01c1.908-0.992,0.64,0.176,1.52-0.998c-0.112-0.053-0.276-0.229-0.323-0.158
	l-0.34-0.933c0.564-0.387,0.17,0.053,0.687-0.569l-1.514-0.675l1.509-1.004l-0.693-1.109c0.505-0.352,0.194,0,0.693-0.558
	c-0.106-0.059-0.27-0.247-0.323-0.176l-1.162-0.487l0.851-1.368c-0.065-0.029-0.798-0.288-0.839-0.305
	c0.076-0.053,0.223-0.205,0.258-0.158l1.215-0.845c-0.763-0.464,0.047-0.211-1.462-0.669l1.467-0.998l-1.556-1.074
	c2.072-0.247,0.757,0.088,1.55-0.599l-1.215-0.839c-0.041-0.029-0.17-0.1-0.247-0.158c1.415-0.405,0.816-0.282,1.467-0.663
	l-1.485-1.01c2.195-0.781,1.35,0.564,1.286-1.227c-13.501-0.006-2.988-0.781-11.018-1.614c-2.013-0.205-3.886-0.393-5.946-0.54
	l-0.106-7.965l-1.884-0.393c-0.117-0.018-0.276-0.059-0.382-0.076l-0.745-8.875c-0.241-1.344-0.74-0.323-1.966-1.696
	c-0.751-0.839-1.051-1.156-2.553-1.749c-2.107-0.845-3.857-1.808-5.882-2.565c-7.167,2.002-8.235,4.191-9.28,4.972
	c-0.065,0.041-0.182,0.117-0.252,0.158l-1.274,0.552l-0.006,8.676c-0.652,0.945,0.147,0.205-1.192,0.622
	c-0.886,0.282-0.411-0.217-1.802,0.376L92.409,190.8l-2.688,0.663c-0.352,2.776,0.581,8.012-0.1,10.36
	c-0.288,0.992,0.223,0.657-0.992,1.086c-1.655-0.47-1.25,0.593-1.168-3.428c0.07-3.064-1.027-10.196,0.728-12.356
	c-0.094-0.059-0.282-0.211-0.323-0.153c-0.558,0.769-1.638-1.773-1.109-3.798c0.569-2.166,1.473-1.186-1.074-3.481l-6.381-6.774
	c-0.094,0.076-0.2,0.112-0.235,0.252l-4.209,4.778l-14.34-0.012c-0.423,2.448,0.663,5.553-0.816,7.543
	c-1.52,2.031-0.082,4.479-0.71,6.656c-0.792,1.327,0.258,0.065-1.878,0.998l-0.059,16.248l-2.113-0.012
	c-1.303-1.092,0.082-0.065-0.511-0.91c-0.575-0.839-0.205-0.399-0.798-0.81c-1.168-0.822-1.356,0.816-1.338-2.178
	c-2.548-0.106-2.272,0.335-3.011-0.657l-0.018-13.976l-5.676-0.029c0.018-2.565-1.156-1.826-1.139-4.678
	c0.047-7.196,0.141-5.048-1.438-6.351c-1.579-1.303,1.491-1.203-6.803-1.186l-0.687,1.021c-0.059,0.065-0.164,0.141-0.241,0.194
	c-0.094,0.082-0.446,0.293-0.54,0.382c-0.546,0.464-0.458-0.012-0.769,0.927c-0.053,0.17-0.041,1.121-0.035,1.338l-0.546,2.172
	c-0.845,1.027-0.699,0.211-0.781,2.501c-0.088,2.512-1.209,0.687-1.121,7.701c0.018,1.397,0.511,1.802-0.98,2.201
	c-1.462-0.346-0.534,0.558-1.015-0.904c-0.082-0.258-0.035-1.626-0.023-1.984c0.07-2.683,0.323-5.617-0.188-8.265
	c-0.164-0.839-0.135-0.065-0.147-0.757l0.352-1.79l-14.281-0.035c0.023,0.481,0.323,1.567,0.323,1.579l-0.335,28.352H9.169
	c-0.423-1.08-1.808-4.115-3.146-4.532c-0.07-0.018-0.235-0.035-0.311-0.041l-0.652-0.053c-0.452-0.082-0.593-0.053-0.657-0.041
	C1.526,223.936,0,239.79,0,255.997C0,262.155,0.229,268.253,0.657,274.299z"/>
<path style="fill:#DFF5F9;" d="M218.665,321.27c31.756,0,57.507,0.91,57.507,2.025c0,1.121-25.751,2.025-57.507,2.025
	c-31.762,0-57.507-0.904-57.507-2.025C161.157,322.18,186.903,321.27,218.665,321.27z M500.671,331.507l-0.182,0.628
	c-8.664,0.411-33.857,0.71-63.6,0.71c-36.898,0-66.811-0.464-66.811-1.027c0-0.569,29.913-1.033,66.811-1.033
	C466.843,330.785,492.189,331.09,500.671,331.507z M496.01,345.213l-0.763,2.013c-2.096,0.012-4.256,0.018-6.48,0.018
	c-17.797,0-32.226-0.458-32.226-1.027c0-0.569,14.428-1.027,32.226-1.027C491.262,345.19,493.686,345.196,496.01,345.213z
	 M490.604,358.561c-0.663,1.52-1.344,3.035-2.037,4.543c-30.259-0.065-54.285-1.057-54.285-2.272
	C434.283,359.595,459.394,358.585,490.604,358.561z M475.231,388.251c-0.745,1.227-1.509,2.448-2.272,3.663
	c-7.367,0.446-17.299,0.716-28.228,0.716c-22.711,0-41.124-1.174-41.124-2.624c0-1.444,18.414-2.618,41.124-2.618
	C456.829,387.388,467.706,387.723,475.231,388.251z M453.466,418.933c-0.91,1.098-1.837,2.184-2.771,3.27
	c-24.806-0.252-42.339-0.886-42.339-1.62C408.356,419.819,427.204,419.168,453.466,418.933z M421.005,451.71
	c-2.794,2.36-5.641,4.661-8.535,6.897c-10.002,0.258-21.237,0.405-33.124,0.405c-41.629,0-75.381-1.779-75.381-3.98
	s33.752-3.986,75.381-3.986C394.749,451.047,409.072,451.294,421.005,451.71z M373.383,483.549
	c-3.481,1.796-7.003,3.516-10.572,5.154l-4.279,0.012c-33.629,0-60.894-1.174-60.894-2.624c0-1.444,27.266-2.618,60.894-2.618
	C363.656,483.472,368.628,483.496,373.383,483.549z M64.704,426.094c-0.992-1.109-1.972-2.225-2.947-3.352
	c11.763-0.387,27.706-0.628,45.263-0.628c36.188,0,65.52,1.016,65.52,2.26s-29.332,2.254-65.52,2.254
	C90.883,426.629,76.115,426.429,64.704,426.094z M53.974,413.228c-1.127-1.45-2.248-2.9-3.346-4.373
	c15.033-0.804,38.536-1.327,64.95-1.327c45.386,0,82.178,1.532,82.178,3.428s-36.792,3.428-82.178,3.428
	C91.048,414.384,69.03,413.938,53.974,413.228z M35.031,385.316c-0.417-0.716-0.839-1.421-1.25-2.137
	c11-0.728,33.335-1.227,59.104-1.227c36.663,0,66.388,1.01,66.388,2.254c0,1.25-29.725,2.26-66.388,2.26
	C68.061,386.467,46.419,385.997,35.031,385.316z M14.158,340.124l-0.605-1.732c10.947-0.311,27.823-0.517,46.765-0.517
	c32.995,0,59.738,0.616,59.738,1.374c0,0.763-26.743,1.379-59.738,1.379C41.723,340.629,25.117,340.429,14.158,340.124z
	 M11.611,332.452c-0.282-0.904-0.54-1.814-0.81-2.718c13.741-0.458,34.315-0.745,57.319-0.745c41.383,0,74.923,0.933,74.923,2.09
	s-33.54,2.09-74.923,2.09C45.568,333.168,25.346,332.887,11.611,332.452z M7.044,315.805c-0.164-0.681-0.34-1.356-0.499-2.037
	c10.771-0.223,25.129-0.364,40.89-0.364c33.429,0,60.524,0.616,60.524,1.379c0,0.757-27.095,1.374-60.524,1.374
	C31.909,316.157,17.756,316.022,7.044,315.805z M280.692,394.861c34.838,0,63.078,1.491,63.078,3.322
	c0,1.837-28.24,3.322-63.078,3.322c-34.832,0-63.072-1.485-63.072-3.322C217.62,396.352,245.86,394.861,280.692,394.861z
	 M378.302,415.341c16.6,0,30.054,1.174,30.054,2.618c0,1.45-13.454,2.624-30.054,2.624c-16.594,0-30.048-1.174-30.048-2.624
	C348.254,416.515,361.708,415.341,378.302,415.341z M371.499,442.072c33.194,0,60.102-1.174,60.102-2.618
	c0-1.45-26.908-2.624-60.102-2.624s-60.102,1.174-60.102,2.624C311.397,440.898,338.304,442.072,371.499,442.072z M114.439,445.136
	c18.091,0,32.76-1.01,32.76-2.254s-14.669-2.26-32.76-2.26s-32.76,1.016-32.76,2.26S96.348,445.136,114.439,445.136z
	 M220.484,439.12c40.473,0,73.28,0.675,73.28,1.503c0,0.834-32.807,1.509-73.28,1.509s-73.285-0.675-73.285-1.509
	C147.199,439.795,180.012,439.12,220.484,439.12z M186.862,464.695c24.759,0,44.828,1.01,44.828,2.26
	c0,1.244-20.069,2.254-44.828,2.254s-44.834-1.01-44.834-2.254C142.028,465.704,162.103,464.695,186.862,464.695z M277.387,418.058
	c19.517,0,35.342,0.675,35.342,1.503c0,0.834-15.825,1.509-35.342,1.509c-19.523,0-35.348-0.675-35.348-1.509
	C242.038,418.734,257.864,418.058,277.387,418.058z M340.206,328.731c16.5,0,29.872,0.693,29.872,1.544s-13.372,1.544-29.872,1.544
	c-16.494,0-29.866-0.693-29.866-1.544S323.712,328.731,340.206,328.731z M333.444,344.474c32.995,0,59.738-0.693,59.738-1.544
	s-26.743-1.544-59.738-1.544s-59.744,0.693-59.744,1.544S300.45,344.474,333.444,344.474z M341.245,354.447
	c41.377,0,74.923-1.051,74.923-2.342c0-1.297-33.546-2.348-74.923-2.348c-41.383,0-74.923,1.051-74.923,2.348
	C266.322,353.396,299.863,354.447,341.245,354.447z M320.56,371.933c33.423,0,60.524-0.693,60.524-1.544s-27.101-1.544-60.524-1.544
	c-33.429,0-60.524,0.693-60.524,1.544S287.131,371.933,320.56,371.933z M406.237,315.359c22.576,0,40.872-0.693,40.872-1.544
	s-18.296-1.544-40.872-1.544c-22.576,0-40.872,0.693-40.872,1.544S383.661,315.359,406.237,315.359z M67.081,351.905
	c16.5,0,29.872-0.616,29.872-1.379c0-0.757-13.372-1.374-29.872-1.374c-16.494,0-29.866,0.616-29.866,1.374
	C37.215,351.289,50.587,351.905,67.081,351.905z M163.764,348.236c36.904,0,66.817,0.411,66.817,0.916
	c0,0.511-29.913,0.916-66.817,0.916c-36.898,0-66.811-0.405-66.811-0.916C96.953,348.647,126.866,348.236,163.764,348.236z
	 M133.111,363.821c22.576,0,40.872,0.616,40.872,1.374c0,0.757-18.296,1.374-40.872,1.374s-40.878-0.616-40.878-1.374
	C92.233,364.437,110.536,363.821,133.111,363.821z M215.648,335.405c17.797,0,32.226,0.411,32.226,0.916
	c0,0.505-14.428,0.916-32.226,0.916c-17.803,0-32.231-0.411-32.231-0.916C183.416,335.816,197.844,335.405,215.648,335.405z"/>
<path style="fill:#606060;" d="M0.622,273.736h510.756c-0.205,2.964-0.446,5.923-0.751,8.858H1.368
	C1.062,279.659,0.828,276.7,0.622,273.736z"/>
<path style="fill:#FFFFFF;" d="M275.755,169.088l17.387-6.692l-19.423,3.017l-2.184-2.923l12.626-11.98l-15.602,9.081
	c-0.522-0.405-1.062-0.781-1.614-1.115c-0.781-0.47-1.708-0.927-2.729-1.35l2.776-16.512l-6.756,15.244
	c-1.538-0.358-3.152-0.587-4.749-0.622l-11.405-17.991l7.355,18.379c-1.673,0.405-3.228,1.127-4.514,2.26l-9.844-4.849v1.796
	l7.848,5.518c-0.875,1.409-1.385,2.671-1.649,3.774l-6.199,0.875v1.826l6.034,0.235c0.299,2.049,1.45,3.076,1.45,3.076l0.018,0.323
	l0.188,2.911c0.129,1.796,0.311,3.886,0.522,4.989c0.417,2.184,0.728,3.328,1.667,3.434c0.933,0.106,1.767-0.728,1.767-0.728
	l0.211,1.667c0,0-0.939,2.289-1.667,3.745c-0.728,1.462-1.456,3.434-1.456,3.434s-3.956-1.867-5.312-3.123
	c-1.35-1.244-1.456-1.145-2.078-2.911c-0.628-1.773-0.211-2.812-1.145-4.373c-0.076-0.123-0.141-0.247-0.2-0.37v332.17
	c-12.861-0.939-25.458-2.835-37.72-5.6v-67.175l-3.205-5.342l5.77-4.062v-9.838l16.177-1.491c0.235-0.288,0.517-0.575,0.857-0.851
	c3.639-3.017,8.846-5.934,11.757-10.307c2.917-4.373,4.373-22.482,4.79-28.627c0.417-6.14,0.205-8.635,0.205-8.635
	s-1.872-5.001-3.223-9.374c-1.356-4.367-2.706-8.535-3.334-11.863c-0.622-3.334-0.828-5.829-1.767-10.724
	s-0.939-19.153-0.939-19.153s-0.205-2.495-0.834-4.579c-0.622-2.084-0.834-4.895-0.834-4.895s-0.722-1.972-1.456-5.095
	c-0.728-3.123-1.127-7.437-1.444-13.929s1.579-14.44,1.579-14.44s-1.133-1.638-2.459-3.786c-1.327-2.142-1.702-10.466,0.499-19.735
	c2.213-9.269,7.76-16.271,7.76-16.271s-0.505-1.068-2.143-5.171c-1.638-4.097-1.262-4.473-2.084-10.026
	c-0.816-5.547-1.262-4.35-3.023-6.175c-1.767-1.831-0.945-5.612-1.702-5.171c-0.757,0.44-1.139-0.945-3.851-0.757
	c-2.706,0.188-1.89-3.405-1.761-8.764c0.123-5.359,3.023-12.362,3.845-14.064c0.822-1.702,0.123-4.35-0.757-7.314
	c-0.88-2.964-1.767-6.304-4.162-12.168c-2.401-5.87-4.226-17.152-4.796-20.498c-0.564-3.34-1.133-8.576-1.133-7.877
	c0,0.687-1.197,2.078-2.33,2.078c-1.139,0-2.589-3.217-2.589-3.217s-0.44-0.129-0.505-2.272c-0.059-2.143-0.88-2.143-1.45-3.275
	c-0.564-1.133,0.505-1.708,0.505-1.708s-0.129-1.197,0.44-2.518c0.569-1.327-0.311-5.547-0.311-5.547s-1.139-0.317-2.084-2.084
	s0.757-2.395,0.757-2.395s-1.385-0.88-1.385-2.33s0.88-1.514,0.88-1.514s-1.327-1.203-1.074-2.589
	c0.258-1.385,1.767-1.133,1.767-1.133v-1.831c0,0-0.382-1.139-0.787-1.855c-2.266-0.182-2.589-2.354-1.655-3.058
	c-0.622-0.223-1.092-0.106-2.16-0.446c-1.062-0.34-2.272-1.831-3.029-2.524c-0.751-0.693-0.564-1.45,0-1.955
	c0.569-0.499,0.822-2.712,1.197-3.399c-0.117-1.597-2.407-2.741-2.407-2.741l1.767,0.1l-0.517-1.456l2.078,0.211l0.522-1.356
	l2.911,0.417l1.561-1.978l1.884,0.745c-0.047-0.734-0.288-1.415-0.986-2.583c-1.514-2.019-3.217-5.741-1.262-8.329
	c1.955-2.583,3.023-1.321,4.537-3.088c1.514-1.767,3.152-3.845,4.796-3.088c1.638,0.757-0.065,5.23,1.514,4.285
	c1.573-0.945,2.454,0.44,4.162-0.693c1.702-1.133,2.958-3.78,3.463-2.964c0.505,0.822,0,2.148-0.188,3.786
	c-0.188,1.638-4.731,5.295-5.612,7.126c-0.886,1.826-1.197,2.712-1.955,3.023c-0.44,0.188-0.329,0.904-0.153,1.743v0.006
	c0.129,0.599,0.282,1.268,0.282,1.843l3.992-0.669l0.417,1.561l2.7-0.411l-0.517,1.45l1.872,0.211c0,0-1.25,1.145-1.872,2.395
	c-0.628,1.25,0.517,2.289,1.35,3.956c0.834,1.667-1.145,2.395-1.145,3.434c0,1.039-6.152,1.773-6.152,1.773s0.939,1.221,0.834,1.949
	c-0.1,0.728-1.655,1.691-1.655,1.691l-0.417,4.162c0,0,0.417,0.106,2.084,2.189c1.661,2.078,2.917,5.101,4.056,8.746
	c1.145,3.645,0.939,5.201,2.606,10.824c1.661,5.623,0.728,4.579,4.267,12.385c3.54,7.807,6.557,18.114,6.768,21.032
	c0.006,0.141,0.816-0.428,0.828-0.293l6.78-0.37l0,0v1.826l-6.698-1.004c0.387,2.219,0.763,3.598,1.691,3.692
	c0.963,0.094,1.644,1.415,2.818,3.293l0.294,0.446c1.239,1.82,1.18,4.385,1.896,5.882v332.17c6.246,0.458,12.556,0.699,18.919,0.699
	c24.542,0,48.274-3.463,70.744-9.908l-0.147-60.571l4.919-6.844l-7.061-1.491l0.217-9.198l-15.496-4.033
	c-0.311-0.552-0.646-1.168-1.01-1.867c-3.956-7.596-6.246-17.698-6.246-17.698s1.767,1.667,1.25-4.684
	c-0.522-6.351-1.978-13.53-2.189-17.275c-0.205-3.751,0.522-8.535,0.522-8.535s2.911-1.462,2.184-4.895
	c-0.728-3.434-1.456-11.763-1.456-11.763s1.667,0.517,1.145-4.373c-0.517-4.89-4.473-55.899-4.473-55.899s2.911,0.728,4.373,1.872
	c1.456,1.145,7.807,1.145,10.824-4.367c3.017-5.518,4.162-9.891,4.373-12.702c0.205-2.812,2.812-7.079,2.6-9.891
	c-0.205-2.812,0.628-8.74-1.039-10.824c-1.667-2.084-1.462-4.79-1.978-6.868c-0.522-2.09-0.317-2.501-1.039-3.545
	c-0.734-1.039-1.878-2.806-1.878-2.806l4.684-11.247l-4.473-7.701l-4.479-0.933l-4.267,9.051c0,0-1.561-0.933-2.395-1.561
	c-0.834-0.622-6.14-10.824-7.701-14.052c-1.561-3.223-3.54-5.829-5.306-7.907c-1.773-2.084-2.401-2.606-4.168-3.44
	c-1.767-0.828,0.522-1.561-2.6-3.017c-3.123-1.456-5.829-3.751-6.874-6.351c-1.039-2.6-0.828-1.978-0.828-1.978
	s1.556,0.522,1.972-1.039c0.417-1.561-1.456-4.579-1.456-4.579s1.145-3.857,0.628-5.829c-0.522-1.984-2.084-3.023-2.084-3.023
	l-0.628-3.123l1.567-0.205c0.933-1.462,0.728-2.501-0.106-5.518C276.448,170.755,276.154,169.968,275.755,169.088z M237.078,153.034
	L237.078,153.034l-8.529-4.197l8.529,5.993V153.034z"/>
<path style="fill:#00BA4A;" d="M238.464,164.333l-8.165,1.033c-0.018-0.135-0.035-0.27-0.047-0.411
	c-0.294-2.906-3.598-13.125-7.361-20.826c-3.757-7.707-2.794-6.692-4.614-12.262c-1.826-5.571-1.661-7.138-2.911-10.748
	c-1.244-3.61-2.577-6.592-4.303-8.629c-1.726-2.031-2.143-2.125-2.143-2.125c-0.933-1.121-4.461-3.563-4.461-3.563
	s-2.612,0.986-1.256,2.272c1.356,1.286,1.55,0.869,2.454,0.44c0.904-0.434,1.931,0.041,1.35,0.974
	c-0.587,0.933,0.581,2.63,2.148,4.109s3.217,9.462,3.997,11.98c0.781,2.518,0.358,1.82,0.499,3.34
	c0.147,1.52-0.81-3.633-2.489-5.518c-1.685-1.884-3.234-6.416-3.27-7.637c-0.035-1.215-0.493-3.135-2.049-4.109
	c-1.55-0.969-2.413-2.776-2.413-2.776s0.364,2.225,1.315,3.422c0.945,1.192,2.002,2.583,1.72,3.305
	c-0.282,0.716-1.033-0.687-1.784-1.984s-1.573-1.579-1.573-1.579s-0.123-0.916-0.147-1.726c-0.023-0.816-1.485-2.096-1.485-2.096
	s0.065,2.137-0.74,2.465c-0.804,0.323-1.286,1.356-1.286,1.356s1.121,0.07,1.931,0.047c0.816-0.023,2.148,0.346,2.189,1.767
	c0.035,1.421-1.074,1.655-2.295,1.691c-1.215,0.035-2.219,0.569-0.998,0.534c1.221-0.035,2.73-0.481,2.759,0.534
	s-1.467,1.972-2.389,1.796c-0.669-0.129-0.493,1.162,0,1.638c0.205,0.112,0.335,0.141,0.335,0.141l0.006,0.029
	c0.1,0.012,0.205-0.018,0.317-0.1c0.898-0.634,2.994-1.914,2.935-0.487c-0.059,1.426,0.323,4.361-0.675,4.895
	c-1.004,0.534-1.591,1.268-1.591,1.268s0.505-0.018,2.236-0.065c1.726-0.053,3.451-0.1,4.085,0.798c0.64,0.898-1.82,0.258-3.451,0.2
	c-1.626-0.059-3.516,1.321-3.516,1.321s1.808-0.763,3.228-0.804c1.421-0.041,3.968,0.194,4.003,1.309
	c0.029,1.121-2.759-0.428-3.868-0.194c-1.115,0.235-3.616,1.626-3.616,1.626s3.023-0.998,2.436-0.17s0.822,0.382,2.148,0.446
	c1.321,0.065,1.356,1.28,1.285,2.301c-0.076,1.021-1.708,0.863-2.712,1.297c-1.004,0.434-1.379,1.561-1.379,1.561
	s1.397-0.951,2.418-0.781c1.021,0.176,0.123,0.61-0.681,1.039c-0.716,0.387-0.628,0.505-0.716,1.696
	c0.487,0.669,1.051,1.25,1.538,1.233c0.863-0.023,1.732-0.839,2.096-1.538c0.135-0.74,0.282-1.362,0.429-1.691
	c0.382-0.822-0.035,2.342,1.285,5.858c1.321,3.522,3.968,7.513,4.625,5.359c0.652-2.154,3.146,5.782,3.945,8.64
	c0.804,2.859,2.436,14.898,3.968,18.167c1.532,3.264,2.465,10.724,2.465,10.724s-1.89,4.373-3.721,5.717
	c-1.837,1.35-4.303,5.741-2.342,3.81c1.961-1.925,4.631-4.162,6.263-7.519c1.632-3.352,2.677-7.126,3.763-9.462
	c1.086-2.33,5.659-8.652,3.628-3.986c-2.025,4.661-6.979,12.72-4.755,9.92s8.059-10.155,5.706-7.067
	c-2.366,3.088-4.256,7.461-2.994,6.269c1.262-1.186,1.432-0.182,0.91,1.561c-0.528,1.743,2.524-2.377,3.768-4.138
	c1.244-1.761,4.074-3.428,1.033,0.98c-2.548,3.686-7.725,9.122-8.635,13.372c-0.182,0.839,0.939,2.283-2.219,9.961
	c-0.54,1.315-1.444-0.247-3.005,0.663c-1.039,0.61-2.724,1.491-3.745,2.659c0.17,0.023,0.358,0.023,0.569,0.006
	c2.706-0.264,3.123,1.109,3.862,0.646c0.745-0.458,0.035,3.346,1.849,5.124c0.47,0.458,0.845,0.716,1.156,0.945
	c0.44-5.588,1.597-14.857,1.62-9.961c0.029,6.187,0.875,15.661,1.808,13.043c0.933-2.618,0.264-11.088,0.693-16.283
	c0.428-5.189,5.606-20.451,4.625-14.522c-0.986,5.929-1.831,11.564,1.655,7.725c3.498-3.845,3.281-11.141,3.17-15.138
	c-0.106-0.282-0.247-0.569-0.446-0.88c-0.98-1.532-0.828-3.51-2.231-5.447l2.495-0.235l7.05-0.663
	c0.182,1.79,0.423,3.874,0.663,4.972c0.481,2.178,0.828,3.311,1.767,3.387c0.939,0.076,1.743-0.781,1.743-0.781l0.035,0.223
	c0.517-1.309,0.393-2.195,0.247-2.536c-0.182-0.423,0.657-0.963,0.657-0.963s0.458,0.845,1.479,0.646
	c1.027-0.2,0.922-0.969,0.922-0.969s-1.174,1.045-1.714,0.305c-0.998-1.368,1.274-1.532,1.702-0.734c0,0,0.798-2.084-0.335-2.653
	c-1.133-0.569-2.6-0.875-3.187-0.258c-0.581,0.622-0.158,0.352,0.963,0.493c1.121,0.135-0.411,0.781-0.74,1.221
	c-0.329,0.44-0.669,0.622-0.669,0.622s-0.757-2.301,0.581-3.628c1.338-1.321,2.424-2.383,3.587-3.792
	c1.162-1.403,0.969-2.178,0.969-2.178s1.937,1.579,4.455,2.712c2.524,1.127,3.927,2.037,3.927,2.037s-1.109,0.288-2.741,0.335
	c-1.632,0.047-3.933,0.622-4.074,1.831c-0.135,1.209-1.162,7.249-0.34,6.022c0.822-1.227,1.696-0.734,1.72,0.035
	c0.018,0.775-0.493,0.875-1.015,0.716c-0.517-0.153-1.25,1.068-2.025,1.092c-0.775,0.018-0.939,0.194-0.059,1.027
	c0.886,0.834,0.898,1.438,0.299,1.456c-0.605,0.018-0.845,0.54-0.74,1.221c0.106,0.681,0.411-0.61,1.356-0.64
	c0.945-0.023,0.693,0.153,1.972-0.229c1.274-0.376,2.148,0.112,1.556,0.475c-0.587,0.358-2.383,0.751-3.152,0.775
	c-0.775,0.023-1.356,0.81,0.023,0.769c1.368-0.035,2.06,0.029,2.906-0.335c0.851-0.37,0.734,1.696,0.669,2.301
	c-0.07,0.599-2.184,1.861-3.211,1.89c-1.033,0.029-3.98-0.916-1.796,0.311s1.632,3.046,2.683,3.874
	c1.057,0.828,3.798,3.498,5.03,4.496c1.227,0.998,4.573,0.816,6.486,1.79c1.919,0.974,5.923,2.835,7.537,2.107
	c1.608-0.734,1.086-0.892,1.086-0.892s-1.849-1.837-2.33-3.628s-0.364-3.598,0.64-1.561c1.004,2.031,2.97,4.725,2.97,4.725
	s1.737,0.722,2.424,0.616c0.681-0.106,1.949-0.828,2.489,0.018c0.534,0.834,3.023,2.371,5.154,2.342
	c-0.575-0.663,0.546-1.403-2.084-2.542c-3.158-1.368-5.929-3.581-7.044-6.152c-1.115-2.577-0.892-1.955-0.892-1.955
	s1.579,0.475,1.949-1.098c0.376-1.573-1.585-4.537-1.585-4.537s1.039-3.88,0.458-5.841c-0.575-1.966-2.166-2.964-2.166-2.964
	l-0.71-3.105c0,0,0.657,1.239,1.556-0.247c0.892-1.485,0.657-2.518-0.264-5.518c-0.188-0.616-0.505-1.397-0.933-2.266l16.53-4.678
	l-18.666,1.062c-0.669-0.963-1.426-1.937-2.26-2.859l11.945-10.09l-0.616,0.305l-13.835,7.637c-0.963-0.751-0.845-0.974-2.201-1.737
	c-0.792-0.446-1.732-0.88-2.765-1.268l2.266-14.945l-0.622,1.479l-4.69,12.016c0,0,0.61,0.417,1.544,1.074
	c0.933,0.657-0.088,1.062-0.088,1.062s0.652-0.258-2.906-0.839c-3.557-0.587-4.267-1.479-4.267-1.479l0.012-0.018h-0.023
	l-11.887-16.553l2.718,5.911l5.747,10.302l1.802,1.579c0,0-2.324,0.264-4.467,1.35c-2.137,1.086-3.352,2.724-3.352,2.724
	c-0.98,1.532-1.403,2.988-1.362,4.379L238.464,164.333z M294.938,358.368l-0.522,10.918c0,0,1.732,1.966,3.768,2.911
	c2.043,0.951,2.225,1.614,2.225,1.614s-1.01-6.011-1.28-9.691S297.239,362.5,294.938,358.368z M238.059,357.059
	c0.229,0.687,0.47,1.379,0.71,2.078c1.286,3.774,2.976,8.007,3.393,9.04c0.534-9.55,1.456-34.72,2.383-37.608
	c0.998-3.099,1.109,7.191,0.405,14.252s0.088,9.386,0.834-2.371c0.751-11.757,2.031-23.89,4.091-27.735
	c2.06-3.851,6.762-16.26,6.339-11.916c-0.417,4.344-1.415,39.217-1.256,44.811c0.158,5.588,0.61-16.629,1.444-25.681
	c0.822-9.051,2.935-30.048,2.184-43.93c0,0-0.828,15.549-1.673,17.375c-0.851,1.831-6.028,16.782-9.004,19.934
	c-2.982,3.158-8.969,8.564-9.791,17.792c-0.822,9.227-2.823,14.886-2.823,14.886s1.849,1.573,3.387-1.362
	c1.544-2.929,3.721-15.273,3.358-9.122c-0.37,6.152-4.144,13.113-4.044,16.723C238.018,354.969,238.035,355.955,238.059,357.059z
	 M227.135,275.098l3.768-16.7C230.903,258.398,226.489,265.16,227.135,275.098z M248.055,238.916c0,0-12.11,28.187-14.205,45.398
	c-2.096,17.205-2.389,32.889-2.389,32.889s-3.24-23.327,0.376-38.917S241.628,252.927,248.055,238.916z M267.426,219.745
	c0,0,1.767,10.278-0.305,15.133c-2.078,4.854-4.52,16.353-4.379,21.325c0.141,4.978,0.646,3.305,2.119-3.375
	c1.467-6.68,0.452-9.973,2.301-16.295c1.849-6.322,1.303-6.122,3.616-9.134c2.313-3.017,4.678-10.46,5.13-14.158
	c0.446-3.704-1.121-0.522-2.894,2.107C271.247,217.978,269.627,219.316,267.426,219.745z M261.538,220.279
	c0,0-14.088,23.45-9.621,18.343C256.384,233.521,255.756,230.956,261.538,220.279z M306.431,229.905c0,0,0.106,3.751-1.884,5.218
	c-1.996,1.467-3.651,3.862-1.802,2.87c1.855-0.992,5.459-6.257,4.144-2.935c-1.315,3.322-7.114,8.494-4.802,7.331
	c2.313-1.156,3.792-4.332,3.228-2.125s0.358,1.556,1.673-1.767C308.304,235.177,307.887,231.59,306.431,229.905z M309.202,236.732
	l3.029,2.865c0,0-0.546-1.567,0.364-2.459c0.91-0.886,1.485-0.757,1.485-0.757l-2.782-4.314L309.202,236.732z M307.84,239.573
	l-1.82,4.367l1.784,2.037c0,0,0.053-0.792,0.616-1.239s1.215-0.323,1.215-0.323s-0.47-1.209,0.023-1.726
	c0.487-0.517,1.726,0.023,1.726,0.023L307.84,239.573z M308.145,252.804l-3.346-6.31l-1.896,4.156l3.322,5.588L308.145,252.804z
	 M318.118,240.618l4.344-11.311l-0.106-0.164l-2.694-0.886l-4.009,11.082L318.118,240.618z M281.813,207.923
	c-2.283,0.065-1.297,2.665-0.264,6.862c1.033,4.197,2.407,10.284,3.399,19.887c0.992,9.597,4.168,19.617,5.764,25.111
	c1.602,5.488,1.667,7.895,0.247,8.658s-2.782,3.686-4.162-2.53c-1.379-6.222-4.203-12.397-7.02-18.337
	c-2.818-5.94-3.81-7.114-3.81-7.114s2.606,7.15,4.42,11.669c1.814,4.526,3.023,13.154,3.123,16.764
	c0.1,3.604-0.217,0.728,2.683,1.127c2.9,0.399,5.752-0.886,5.623,3.211c-0.123,4.091-0.299,14.933-0.088,22.388
	c0.211,7.455,0.428,15.156,0.428,15.156s2.935,1.597,4.895,2.747c1.955,1.145-1.908,0.775-1.908,0.775s-0.429,10.366-0.323,13.97
	c0.1,3.61,0.223,7.936,0.223,7.936s2.107-2.225,4.285-1.802c2.172,0.417,3.669,2.06,3.669,2.06s-4.173-19.864-4.69-29.473
	c-0.511-9.615-3.663-27.336-4.285-32.378c-0.622-5.036-3.164-26.626-5.077-34.756c-1.914-8.13-5.23-23.204-3.105-16.283
	c2.119,6.921,8.224,18.543,9.597,24.524c1.374,5.976,3.592,7.836,2.201,1.139c-1.397-6.698-3.387-17.475-5.453-22.47
	c-2.066-5.001-10.19-19.934-7.173-15.45c3.011,4.49,9.58,15.379,7.502,9.902c-2.084-5.477-2.002-11.018-0.194-6.739
	c1.808,4.285,4.338,8.787,3.997,5.189c-0.34-3.604-5.265-7.555-3.105-7.619C295.378,211.991,290.424,207.072,281.813,207.923z
	 M262.301,207.389c-4.062,5.377-13.014,14.575-14.774,17.257c-1.767,2.683,3.14-5.218,1.092-3.322
	c-2.054,1.902-14.311,19.746-16.518,25.469c-2.207,5.717-3.199,7.719-2.019,3.082c1.186-4.637,11.053-23.339,16.805-29.156
	C252.645,214.896,256.255,212.296,262.301,207.389z M275.409,204.231c-2.97-0.329-8.065,0.023-9.779,0.681
	c-1.72,0.663,2.647-0.176,3.98-0.012c1.332,0.17-4.156,1.039-6.04,3.135c-1.878,2.096-1.579,1.884,0.428,0.605
	c2.007-1.286,8.558-4.226,5.952-2.518c-2.606,1.702-9.785,7.725-11.57,9.715c-1.779,1.996,1.608-0.957,5.506-3.827
	c3.903-2.87,11.088-8.687,8.617-5.758c-2.471,2.929-12.837,11.593-13.706,13.46c-0.869,1.861-12.579,13.624-15.144,16.659
	c-2.571,3.029-11.716,13.982-12.679,17.164c-0.957,3.187-1.567,4.913,1.855,0.346c3.422-4.573,7.39-8.5,12.597-15.091
	c5.207-6.598,12.802-17.075,16.518-20.732c3.71-3.657,10.096-10.413,11.787-11.253c1.685-0.834-8.67,9.85-5.706,7.795
	c2.97-2.06,6.768-7.296,8.2-7.866S278.526,204.295,275.409,204.231z M238.675,171.717l-2.765,0.969
	c-1.227-1.843-1.984-3.886-2.947-3.956c-0.933-0.065-2.131-0.704-2.583-2.911l8.13,0.094l5.418,0.059
	c0.364,2.037,1.538,3.035,1.538,3.035l0.023,0.317L238.675,171.717z"/>
<path style="fill:#61FFA0;" d="M275.861,180.986c-1.902,1.796-3.275,1.902-3.275,4.866c0,2.958,1.573,9.398,1.573,9.398
	s3.821,6.469,2.976,3.827c-0.845-2.647-1.374-6.668,0.211-3.915c1.585,2.747,2.483,1.79,0.605-1.861
	c-1.878-3.645-1.661-5.97-0.605-5.124s1.908,1.479,0.317-1.691C276.072,183.31,277.24,181.403,275.861,180.986z M246.406,172.281
	c-0.123-1.057-0.188-4.408,0.558-5.529c0.745-1.115,0.869-1.239,0-2.049c-0.869-0.804-1.18-1.925-0.558-1.673
	c0.622,0.247,0.869,0.37,1.115,0.992c0.252,0.622,0.44-0.745-0.123-1.491c-0.558-0.745-1.614-1.303-0.804-1.679
	c0.804-0.37,1.18,0.499,1.426,1.368s0.247,2.295,0.745,1.99c0.499-0.311,0.434-1.679,0-2.735c-0.434-1.051-1.491-2.107-0.869-2.483
	c0.622-0.376,1.368,1.057,1.55,2.049c0.188,0.992,0.065,2.794,0.81,2.295c0.745-0.493,0.681-1.796,0.311-2.911
	c-0.37-1.121-0.875-2.36-0.434-2.671c0.434-0.311,1.18,1.608,1.18,2.606c0,0.992,0.123,2.36,1.051,2.049
	c0.933-0.311,0.875-1.737,0.622-2.859c-0.247-1.115-0.681-2.976-0.182-3.041c0.493-0.065,1.115,1.18,1.115,2.483
	c0,1.303-0.434,3.041,0.745,2.735c1.18-0.311,1.426-1.121,1.18-2.923c-0.247-1.802-0.933-2.917,0-2.917s0.745,1.491,0.745,2.606
	c0,1.121-0.311,2.671,1.057,2.671s1.303-1.303,1.303-2.36c0-1.051-0.622-3.099,0.558-2.982c1.18,0.129,0.247,2.113,0.247,3.234
	c0,1.115-0.558,1.984,0.875,2.231c1.421,0.252,1.115-1.426,1.421-2.483c0.311-1.051-0.059-2.295,0.751-1.984
	c0.804,0.311,0.182,1.18,0,2.295c-0.188,1.121-0.81,2.424,0.434,2.859c1.239,0.434,1.362-0.875,1.55-1.614
	c0.188-0.745,0.247-2.606,1.239-2.236c0.998,0.37,0,1.984-0.428,2.606c-0.434,0.622-1.244,2.049-0.188,2.36
	c1.057,0.311,1.239-0.622,1.925-1.362c0.681-0.751,0.927-2.301,1.426-1.867c0.499,0.434-0.123,1.115-0.681,2.113
	c-0.564,0.992-1.743,2.236-0.499,2.788c1.244,0.564,0.745-0.493,1.679-1.362c0.927-0.869,0.681-2.424,1.491-1.802
	c0.804,0.622-0.311,1.925-0.875,2.489c-0.558,0.558-0.869,1.673-0.247,2.049c0.622,0.37,0.622-0.81,1.368-1.432
	c0.745-0.616,0.499-2.113,1.18-1.368c0.681,0.751-0.123,1.614-0.558,2.366c-0.434,0.74-1.368,0.869-0.564,1.303
	c0.81,0.428,0.564-0.188,1.426-0.751c0.875-0.552,0.81-1.608,1.309-1.239c0.499,0.376-0.129,0.687-0.681,1.802
	c-0.564,1.115-1.121,1.55-0.687,1.737c0.434,0.188,1.057,0.059,1.491-0.493c0.434-0.564,0.622-0.998,0.933-0.745
	c0.305,0.247-0.81,1.297-0.81,1.796c0,0.499-0.311,0.869,0.188,1.121c0.493,0.247,0.37,0.188,0.804-0.311
	c0.44-0.499,0.687,0.182,0.311,0.804c-0.37,0.622-0.558,0.499-0.37,1.679c0.182,1.18,1.362,2.853,0.182,2.853
	c-1.174,0-1.174,1.861-2.542,0.745c-1.368-1.115-2.236-2.671-1.737-3.598c0.493-0.933,2.236-2.424,0.059-2.172
	c-2.172,0.247-3.974,0.247-4.285-1.057c-0.311-1.303-1.426-2.172-1.426-1.368s-0.558,1.115-1.368,0.434
	c-0.804-0.681-2.107-0.247-3.41-0.927c-1.303-0.687-3.17-0.311-3.727-1.121c-0.558-0.804-2.049-2.483-2.483-1.368
	c-0.434,1.121-4.033,3.54-5.4,4.972c-1.368,1.426-2.483,2.606-1.432,4.156c1.057,1.556,0.869,6.21,0.188,5.283
	c-0.681-0.933-0.992-4.103-0.992-5.16C246.594,173.026,246.47,173.208,246.406,172.281z M257.77,174.635
	c-0.211,1.268-0.106,3.493,0.74,4.655c0.845,1.168-2.964,3.07-1.162,3.07c1.802,0,2.753,1.268,2.33,2.113
	c-0.428,0.845,1.268,2.647,2.958-0.106c1.696-2.747,1.908-5.923,3.176-6.668c1.268-0.74,0.423-2.747-1.691-2.747
	c-0.622,0-1.25,0.065-1.884,0.129c0.018-0.082,0.029-0.164,0.029-0.247c0-0.616-0.546-1.121-1.221-1.121
	c-0.675,0-1.221,0.505-1.221,1.121c0,0.123,0.023,0.247,0.065,0.358C259.167,175.145,258.457,174.993,257.77,174.635z"/>
<path style="fill:#66B96A;" d="M324.452,433.168l0.217-9.18l-15.279-3.974v10.049l15.033,3.123L324.452,433.168z M303.96,231.167
	c-0.023-0.035-0.059-0.076-0.088-0.123l0,0c-1.444-2.043-5.952-10.718-7.367-13.653c-1.561-3.223-3.54-5.829-5.306-7.907
	c-1.773-2.084-2.401-2.606-4.168-3.44c-0.423-0.2-0.61-0.393-0.704-0.587c-0.094,0.029-0.182,0.041-0.252,0.041
	c-2.172,0-5.025,0-5.934,1.033c-0.916,1.021,1.708-0.346,4.109-0.235c2.395,0.117,3.992,0.804,1.597,0.804
	c-2.395,0-3.311,0-1.027,0.569s8.218,3.311,3.422,2.166c-4.79-1.139-5.934-1.479-8.329-1.139c-2.401,0.34-2.97,0.798-3.17,1.726
	c-0.393,4.737-3.551,17.492-5.394,21.572c-1.837,4.074-0.393,3.945,1.714,0.393c2.101-3.551,3.287,0,2.236,2.63
	c-1.057,2.63-4.344,3.293-1.843,3.422s3.287,5.259,1.444,4.473c-1.837-0.792-6.445-2.894-8.018-1.843
	c-1.579,1.051-2.894,3.023-0.135,3.158c2.765,0.129,4.08,2.231,2.894,6.703c-1.186,4.473-6.31,13.677-9.732,15.256
	c-3.416,1.579-7.76,4.602-6.838,7.103c0.922,2.501,2.101,3.422,2.101,3.422s-1.708-5.394,4.215-8.682
	c5.917-3.287,9.468-6.838,10.648-13.019c1.186-6.181,1.708-9.075,2.636-6.838c0.916,2.236,1.315,10.255,1.315,17.093
	s2.301,25.464,2.641,34.791c0.346,9.327,2.418,22.112,3.111,27.635c0.693,5.529-6.216,10.713-12.086,15.197
	c-5.876,4.496-14.164,6.915-15.896,10.366c-1.726,3.457,0.346,3.804,3.804,6.909c3.457,3.111,8.288,6.909-1.039,11.399
	c-9.321,4.49-17.269,8.294-18.995,11.053c-1.732,2.765,3.798-1.726,3.798,1.726c0,3.457-0.687,13.818-3.111,16.582
	c-2.418,2.765-8.635,15.543-2.759,8.288c5.87-7.249,6.903-12.432,8.288-19.341c1.379-6.909,3.804-16.929,4.49-7.948
	c0.693,8.981,1.379,25.91-2.418,29.015c-3.798,3.111-6.563,5.529-6.563,5.529l14.164-1.379c0,0-0.141-1.456,0.646-1.567
	c0.787-0.112,1.01-0.112,1.01-0.112s-1.121-1.796,0.335-2.583c1.462-0.781,1.908-1.79,1.908-1.79s-1.121-0.675-0.335-1.573
	c0.787-0.898-0.335-2.131,1.121-2.465c1.456-0.34,3.475-1.01,4.937-0.223c1.456,0.781,1.344-0.117-0.675-1.35
	c-2.019-1.233-1.567-0.558-3.363-0.335s-2.131-0.787,0.787-1.239c2.911-0.446,4.819-0.112,4.819-2.688
	c0-2.583,1.344-3.704-0.223-1.796c-1.573,1.908-2.577,2.583-4.038,2.806c-1.456,0.223-2.019-1.462-2.242-7.402
	c-0.223-5.946,0.898-18.514,2.694-19.071c1.79-0.564,1.344-2.688,1.567,2.242c0.223,4.937,0.112,11.552-0.452,15.479
	c-0.558,3.927-1.679,8.077,0.229,6.058c1.908-2.019,2.806-4.931,2.806-12.562c0-7.625,1.79-5.16,1.79-12.227
	c0-7.067-0.558-16.829,2.36-18.508c2.917-1.685,2.688-5.16,3.029,0.675c0.335,5.829,0.446,17.61,0.335,20.75
	c-0.112,3.14-0.335,26.585-0.675,29.948c-0.335,3.369,0.787,6.733,3.029,2.583c2.248-4.15,2.583-9.31,2.131-14.921
	c-0.446-5.606,1.016-19.071,1.016-26.473s0.892-10.431,3.475-10.994c2.577-0.558,5.16-4.038,5.048,4.15
	c-0.112,8.188,0.787,36.569,0.898,41.84c0.112,5.277-1.239,8.863,0.787,9.315c2.019,0.446,4.596,1.344,2.354,2.242
	c-2.242,0.898-5.389,1.679-5.389,1.679l-0.446,9.539l26.708,5.547v-10.049l0,0l-0.217-0.059c-0.311-0.552-0.646-1.168-1.01-1.867
	c-3.956-7.596-6.246-17.698-6.246-17.698s1.773,1.667,1.25-4.684s-1.978-13.53-2.189-17.275c-0.205-3.751,0.522-8.535,0.522-8.535
	s2.911-1.462,2.189-4.895c-0.728-3.434-1.462-11.763-1.462-11.763s1.667,0.517,1.15-4.373c-0.522-4.89-4.479-55.899-4.479-55.899
	s2.911,0.728,4.373,1.872c0.869,0.687,3.498,0.963,6.116-0.112v-4.696c-1.62-0.094-3.252-0.992-4.514-2.7
	c-2.882-3.88-0.158-18.144-0.158-18.144c0.158,13.295,0.452,14.992,3.54,17.252c0.346,0.258,0.734,0.393,1.133,0.446v-5.136
	c-0.094-0.059-0.194-0.123-0.294-0.205c-3.598-2.812-3.129-12.826-3.129-12.826c1.268,5.629,1.649,7.32,3.422,9.098v-23.638v23.638
	c0.194,0.2,0.411,0.393,0.652,0.605c2.342,2.049,5.782-1.25,5.782-1.25s-2.958,6.803-6.433,4.578v5.136
	c3.117,0.405,7.279-4.508,5.342-0.493c-1.227,2.548-3.275,3.757-5.342,3.639v4.696l0,0c1.749-0.722,3.498-2.049,4.708-4.256
	c3.017-5.518,4.162-9.891,4.373-12.702c0.205-2.812,2.812-7.079,2.6-9.891c-0.205-2.812,0.628-8.74-1.039-10.824
	c-1.667-2.084-1.462-4.79-1.978-6.868c-0.522-2.09-0.317-2.501-1.045-3.545c-0.37-0.522-0.839-1.239-1.221-1.814l0,0l-0.018-0.023
	l-0.006-0.012l-0.012-0.018l-0.018-0.023l-0.006-0.012l-0.006-0.018l-0.094-0.129l-0.006-0.018l-0.018-0.023l-0.029-0.047
	l-0.006-0.012l-0.012-0.012l-0.012-0.023l-0.029-0.041l-0.012-0.012l-0.006-0.012l-0.012-0.023l-0.006-0.012l-0.012-0.012
	l-0.088-0.141l-0.006-0.006l-0.023-0.029l-0.006-0.012v-0.006l-0.012-0.018l-0.012-0.012v-0.006l-0.029-0.047l-0.012-0.012l0,0
	l-0.012-0.018l-0.023-0.041l0,0l-0.012-0.012l-0.006-0.012l0,0l-0.012-0.018l-0.006-0.006l0,0l-0.018-0.035l0,0l-0.006-0.006l0,0
	l-0.006-0.012l-0.006-0.006l0,0l-0.006-0.012l-0.006-0.006l0,0l-0.006-0.006v-0.006l0,0l-0.006-0.006l-0.006-0.006l0,0v-0.006
	v-0.006l0,0h-0.006l0,0v-0.006h-0.006l0,0l0,0l4.684-11.247l-4.473-7.701l-4.479-0.933l-1.479,3.135l0,0l0,0l-2.788,5.917
	c0,0-1.561-0.933-2.395-1.561c-0.012-0.006-0.023-0.018-0.035-0.029l-0.006-0.006l0,0c-0.018-0.012-0.029-0.029-0.047-0.047l0,0
	v-0.006h-0.006l-0.035-0.041l-0.006-0.006l-0.006-0.012l-0.012-0.006l-0.006-0.012l-0.006-0.006l-0.006-0.006v-0.006l-0.012-0.006
	l-0.006-0.012l-0.006-0.006l-0.029-0.035v-0.006l-0.012-0.012v-0.012L303.96,231.167z M309.389,250.186v0.71V250.186z"/>
<polygon style="fill:#429F46;" points="196.154,433.185 199.229,438.315 199.276,438.28 281.402,435.099 281.719,426.223 "/>
<path style="fill:#388D3C;" d="M217.896,92.028c0.458-0.54,0.851-0.904,0.851-0.904l-1.872-0.205l0.517-1.456l-2.706,0.411
	l-0.417-1.561l-3.986,0.669c0-0.575-0.158-1.244-0.282-1.843v-0.006c-0.176-0.839-0.288-1.556,0.153-1.743
	c0.757-0.311,1.068-1.197,1.955-3.023c0.88-1.831,5.424-5.488,5.612-7.126c0.188-1.638,0.693-2.964,0.188-3.786
	c-0.07-0.117-0.164-0.164-0.264-0.153c-0.781,3.252-1.462,3.217-2.465,2.518c-0.235,0.223-0.481,0.429-0.734,0.599
	c-1.708,1.133-2.589-0.252-4.162,0.693c-1.086,0.652-0.622-1.262-0.757-2.765c-0.076,0.053-0.158,0.112-0.235,0.176
	c-0.446,0.37-0.875,0.534-1.256,0.517v5.048c0.247-0.47,0.511-0.939,0.798-1.403c1.679-0.616,0.44,2.09-0.798,4.097v8.13
	C212.249,89.093,215.178,90.631,217.896,92.028z M228.55,148.837l18.296,9.01l-0.886,0.869L228.55,148.837z M210.999,102.676
	c0.663-0.082,6.081-0.787,6.081-1.767c0-0.282,0.147-0.54,0.34-0.804c-0.945-2.195-4.755-3.757-12.321-3.757
	c-8.476,0-11.258,2.201-11.528,3.862c0.657,0.675,1.432,1.409,2.143,1.638c0.986,0.317,1.467,0.235,2.025,0.405l-0.147-1.104
	l0.916,0.716c0.07-0.029,0.147-0.065,0.217-0.1l-0.305-1.497l1.086,1.168c0.065-0.023,0.135-0.053,0.2-0.076l-0.088-1.72
	l0.974,1.421c0.076-0.023,0.158-0.041,0.241-0.065l-0.123-1.82l1.045,1.591c0.147-0.029,0.288-0.059,0.428-0.082l-0.076-2.131
	l0.969,2.007c0.135-0.012,0.264-0.023,0.399-0.035l0.035-2.489l0.569,2.459c0.1,0,0.2,0,0.299,0l0.481-2.413l0.158,2.43
	c0.164,0.012,0.323,0.023,0.481,0.041l1.127-1.949l-0.44,2.037c0.112,0.018,0.229,0.035,0.34,0.059l1.655-1.943l-0.64,2.184
	c0.141,0.041,0.282,0.082,0.417,0.129l1.573-1.691l-0.798,1.972c0.1,0.041,0.2,0.088,0.299,0.129l1.691-1.843l-1.045,2.166
	c0.229,0.117,0.44,0.247,0.634,0.37l1.403-0.927L210.999,102.676z M208.034,73.039L208.034,73.039
	c-0.693-0.035-1.215-0.681-1.421-1.831c-0.91,0.628-1.796,1.72-2.641,2.706c-0.599,0.699-1.127,0.922-1.667,1.098
	c0.158,0.405,0.452,0.452,1.127,0.241c1.104-0.335,2.119-0.252,1.978,0.693c-0.464,0.828,1.849-0.927,1.291,0.552
	c-0.552,1.479-1.197,4.162-1.667,2.683c-0.458-1.479-1.661,0.834-2.213-0.37c-0.558-1.197-2.853,0.176-3.874,3.205
	c0.411,1.268,1.098,2.448,1.749,3.316c0.699,1.168,0.939,1.849,0.986,2.583l-1.884-0.745l-1.561,1.978l-2.911-0.417l-0.522,1.356
	l-2.078-0.211l0.517,1.462l-1.767-0.106c0,0,1.215,0.61,1.925,1.556c2.366-2.113,5.406-3.223,11.916-3.804
	c0.963-0.088,1.867-0.106,2.718-0.07v-8.13c-0.804,1.303-1.608,2.313-1.608,1.914c0-0.822,0.605-2.665,1.608-4.608V73.039z"/>
<path style="fill:#429F46;" d="M221.212,452.714l37.274-1.685c3.487-0.158,6.334,2.571,6.334,6.064v34.421
	c0,3.493-2.847,6.474-6.334,6.633l-37.274,1.685c-3.487,0.158-6.334-2.565-6.334-6.058v-34.427
	C214.879,455.86,217.725,452.873,221.212,452.714z"/>
<g>
</g>
<g>
</g>
<g>
</g>
<g>
</g>
<g>
</g>
<g>
</g>
<g>
</g>
<g>
</g>
<g>
</g>
<g>
</g>
<g>
</g>
<g>
</g>
<g>
</g>
<g>
</g>
<g>
</g>
</svg>
