<?xml version="1.0" encoding="iso-8859-1"?>
<!-- Generator: Adobe Illustrator 19.0.0, SVG Export Plug-In . SVG Version: 6.00 Build 0)  -->
<svg version="1.1" id="Layer_1" xmlns="http://www.w3.org/2000/svg" xmlns:xlink="http://www.w3.org/1999/xlink" x="0px" y="0px"
	 viewBox="0 0 512 512" style="enable-background:new 0 0 512 512;" xml:space="preserve">
<path style="fill:#8FC9F7;" d="M255.997,0C397.385,0,512,114.615,512,255.997C512,397.385,397.385,512,255.997,512
	C114.615,512,0,397.385,0,255.997C0,114.615,114.615,0,255.997,0z"/>
<path style="fill:#64B3F5;" d="M273.847,358.696L506.564,203.35c3.557,16.993,5.436,34.603,5.436,52.647
	c0,11.84-0.822,23.491-2.377,34.902L273.847,358.696L0.293,243.899c1.532-33.006,9.315-64.381,22.194-92.967L273.847,358.696z
	 M255.997,0c36.74,0,71.659,7.754,103.234,21.689l-85.383,337.007l208.61-222.151c-13.765-26.039-31.891-49.43-53.404-69.176
	L273.847,358.696L63.019,87.796C91.435,55.23,127.957,29.925,169.44,15.015l104.407,343.681L255.821,0H255.997z"/>
<path style="fill:#ADD37F;" d="M116.681,470.788c2.941-2.254,6.052-4.561,9.357-6.909
	c131.303-93.331,308.274-120.456,373.083-127.541C465.428,438.362,369.321,512,255.997,512
	C204.618,512,156.779,496.85,116.681,470.788z"/>
<path style="fill:#9BCB64;" d="M132.548,480.303c125.21-85.976,288.745-113.764,358.192-122.041
	C451.264,448.74,361.027,512,255.997,512C211.233,512,169.158,500.495,132.548,480.303z"/>
<path style="fill:#BF0513;" d="M260.581,29.502c-51.984,11.487-99.641,33.846-138.758,65.655
	c-59.116,48.068-91.67,111.821-91.67,179.794c0,27.618,5.4,54.684,15.743,80.059H29.96c-9.785-25.258-15.086-52.119-15.086-80.053
	c0-121.078,99.172-223.19,235.065-255.809L260.581,29.502z"/>
<path style="fill:#FF4D00;" d="M271.429,40.056c-52.095,10.437-99.888,32.243-138.805,63.882
	c-56.228,45.72-87.191,106.356-87.191,171.013c0,27.712,5.7,54.725,16.629,80.059H45.897c-10.343-25.37-15.743-52.436-15.743-80.053
	c0-67.967,32.554-131.72,91.67-179.783c39.129-31.815,86.792-54.161,138.787-65.643L271.429,40.056z"/>
<path style="fill:#FFAC00;" d="M282.423,50.739c-52.265,9.269-100.263,30.488-138.993,61.98
	c-53.345,43.373-82.724,100.891-82.724,162.232c0,27.823,6.064,54.766,17.651,80.059H62.062
	c-10.93-25.334-16.629-52.336-16.629-80.053c0-64.657,30.964-125.281,87.191-170.995c38.923-31.65,86.727-53.451,138.84-63.876
	L282.423,50.739z"/>
<path style="fill:#FFDA00;" d="M293.57,61.581c-52.483,7.965-100.768,28.569-139.339,59.926
	c-50.457,41.025-78.24,95.427-78.24,153.444c0,27.958,6.457,54.813,18.789,80.059H78.357
	c-11.587-25.293-17.651-52.224-17.651-80.053c0-61.334,29.379-118.842,82.724-162.214c38.741-31.492,86.745-52.717,139.022-61.968
	L293.57,61.581z"/>
<path style="fill:#ADE900;" d="M304.922,72.622c-52.764,6.492-101.443,26.414-139.885,57.672
	c-47.569,38.677-73.767,89.956-73.767,144.657c0,27.999,6.879,55.101,19.969,80.059H94.781
	c-12.333-25.24-18.789-52.095-18.789-80.053c0-58.018,27.782-112.402,78.24-153.427c38.577-31.369,86.874-51.96,139.368-59.92
	L304.922,72.622z"/>
<path style="fill:#64B3F5;" d="M316.533,83.91c-53.134,4.807-102.335,23.978-140.695,55.165
	c-44.682,36.335-69.288,84.491-69.288,135.876c0,28.193,7.42,55.171,21.484,80.059h-16.8
	c-13.084-24.959-19.963-52.048-19.963-80.053c0-54.701,26.197-105.963,73.767-144.64c38.454-31.269,87.138-51.174,139.926-57.66
	L316.533,83.91z"/>
<path style="fill:#2B686C;" d="M328.478,95.526c-53.598,2.835-103.509,21.173-141.828,52.336
	c-41.805,33.987-64.821,79.02-64.821,127.089c0,28.31,7.995,55.47,23.104,80.059h-16.899c-14.064-24.882-21.484-51.86-21.484-80.053
	c0-51.379,24.607-99.524,69.288-135.864c38.366-31.187,87.59-50.346,140.736-55.147L328.478,95.526z"/>
<path style="fill:#9BCB64;" d="M14.458,340.969c72.076-0.822,253.039,8.705,365.805,116.153c5.318,5.06,10.689,9.368,16.107,12.972
	C356.055,496.58,307.834,512,255.997,512C144.399,512,49.501,440.581,14.458,340.969z"/>
<path style="fill:#7CB142;" d="M27.759,372.045c77.705,0.593,240.254,14.346,346.798,110.888
	C339.109,501.487,298.783,512,255.997,512C156.391,512,70.075,455.109,27.759,372.045z"/>
<path style="fill:#747474;" d="M236.016,511.225c-4.426-7.549-8.5-11.687-8.5-11.687h48.35c5.441,0,9.891,3.986,13.383,10.313
	C278.367,511.26,267.267,512,255.997,512C249.276,512,242.608,511.736,236.016,511.225z"/>
<path style="fill:#BD360C;" d="M438.398,353.877c-0.07,0.293-1.503,12.121-1.503,12.121l3.052,0.288l-0.041-11.939L438.398,353.877z
	"/>
<path style="fill:#64DB16;" d="M433.156,332.634c0,0,5.036-1.127,4.455,0.317c-0.575,1.456-7.056,5.236-7.056,5.236
	s5.142-0.822,4.367,1.145c-0.769,1.972-7.179,5.289-7.179,5.289s8.288-1.426,6.022,1.203c-2.266,2.63-10.472,7.056-10.472,7.056
	s10.431-2.471,10.096,0.464c-0.329,2.923-4.59,3.768-5.477,5.617c0,0,10.296-2.043,11.423-0.481c1.168,0,11.552,2.037,11.575,1.52
	c-0.757-1.902-5.165-3.299-5.306-6.246c-0.129-2.947,10.114,0.223,10.114,0.223s-7.889-4.972-9.973-7.748
	c-2.078-2.776,6.087-0.792,6.087-0.792s-6.169-3.733-6.803-5.758c-0.64-2.025,4.443-0.851,4.443-0.851s-6.216-4.209-6.692-5.694
	s4.473-0.029,4.473-0.029c-4.168-3.921-5.706-8.024-6.715-10.178C439.378,325.009,437.576,328.995,433.156,332.634z"/>
<path style="fill:#ADE900;" d="M433.156,332.634c0,0,5.036-1.127,4.455,0.317c-0.575,1.456-7.056,5.236-7.056,5.236
	s5.142-0.822,4.367,1.145c-0.769,1.972-7.179,5.289-7.179,5.289s8.288-1.426,6.022,1.203c-2.266,2.63-10.472,7.056-10.472,7.056
	s10.431-2.471,10.096,0.464c-0.329,2.923-4.59,3.768-5.477,5.617c-2.107,0.804,8.511-1.432,11.423-0.481l1.297-35.354l-0.094-0.2
	C439.378,325.009,437.576,328.995,433.156,332.634z"/>
<g>
	<path style="fill:#FFFFFF;" d="M232.741,15.643c6.885,0,13.383,1.632,19.142,4.537c6.234-6.105,14.769-9.867,24.178-9.867
		c16.301,0,29.966,11.282,33.617,26.461c8.147,2.448,14.686,8.599,17.668,16.488c0.974-0.1,1.972-0.153,2.976-0.153
		c15.062,0,27.271,12.209,27.271,27.271c0,15.068-12.209,27.277-27.271,27.277c-4.696,0-9.11-1.18-12.961-3.27
		c-3.311,11.335-13.777,19.611-26.186,19.611c-7.578,0-14.434-3.093-19.382-8.083c-4.937,4.989-11.798,8.083-19.376,8.083
		c-7.202,0-13.753-2.794-18.631-7.355c-4.989,5.453-12.157,8.875-20.128,8.875c-7.461,0-14.223-2.994-19.148-7.848
		c-2.248,0.499-4.59,0.757-6.991,0.757c-17.95,0-32.49-14.546-32.49-32.49s14.54-32.496,32.49-32.496
		c0.98,0,1.949,0.047,2.906,0.135C192.726,32.243,210.793,15.643,232.741,15.643z"/>
	<path style="fill:#FFFFFF;" d="M404.241,140.977c4.121,0,8.018,0.98,11.464,2.718c3.739-3.651,8.846-5.905,14.487-5.905
		c9.762,0,17.95,6.756,20.14,15.849c4.878,1.467,8.793,5.148,10.578,9.879c0.587-0.065,1.18-0.094,1.784-0.094
		c9.022,0,16.336,7.314,16.336,16.336c0,9.022-7.314,16.336-16.336,16.336c-2.812,0-5.459-0.704-7.766-1.949
		c-1.984,6.786-8.253,11.74-15.684,11.74c-4.537,0-8.646-1.849-11.611-4.843c-2.958,2.994-7.067,4.843-11.611,4.843
		c-4.309,0-8.235-1.673-11.159-4.402c-2.988,3.264-7.279,5.318-12.057,5.318c-4.467,0-8.517-1.796-11.47-4.702
		c-1.344,0.299-2.747,0.452-4.185,0.452c-10.754,0-19.465-8.711-19.465-19.465c0-10.748,8.711-19.465,19.465-19.465
		c0.587,0,1.168,0.029,1.743,0.082C380.274,150.926,391.092,140.977,404.241,140.977z"/>
</g>
<polygon style="fill:#FFEF76;" points="405.773,375.701 352.269,375.701 352.269,424.087 405.773,424.087 "/>
<path style="fill:#FFC928;" d="M35.178,299.921c0,4.033,15.315,7.302,34.21,7.302c18.883,0,34.204-3.27,34.204-7.302H35.178z"/>
<g>
	<polygon style="fill:#FFEF76;" points="111.017,375.701 164.521,375.701 164.521,424.087 111.017,424.087 	"/>
	<polygon style="fill:#FFEF76;" points="306.642,305.592 260.734,305.592 259.149,305.592 213.241,305.592 213.241,362.306 
		259.149,362.306 260.734,362.306 306.642,362.306 	"/>
</g>
<polygon style="fill:#F7A724;" points="213.165,355.679 218.324,355.679 218.324,349.686 227.886,349.686 227.886,355.679 
	234.466,355.679 234.466,349.686 244.034,349.686 244.034,355.679 250.614,355.679 250.614,349.686 260.182,349.686 
	260.182,355.679 266.757,355.679 266.757,349.686 276.319,349.686 276.319,355.679 282.899,355.679 282.899,349.686 
	292.467,349.686 292.467,355.679 297.626,355.679 297.626,349.686 307.194,349.686 307.194,355.679 310.986,355.679 
	310.986,349.686 313.193,349.686 313.193,355.679 313.193,424.087 203.597,424.087 203.597,355.679 203.597,349.686 
	213.165,349.686 "/>
<polygon style="fill:#FFFF8B;" points="218.324,355.679 218.324,352.932 227.886,352.932 227.886,355.679 227.886,358.925 
	234.466,358.925 234.466,355.679 234.466,352.932 244.034,352.932 244.034,355.679 244.034,358.925 250.614,358.925 
	250.614,355.679 250.614,352.932 260.182,352.932 260.182,355.679 260.182,358.925 266.757,358.925 266.757,355.679 
	266.757,352.932 276.319,352.932 276.319,355.679 276.319,358.925 282.899,358.925 282.899,355.679 282.899,352.932 
	292.467,352.932 292.467,355.679 292.467,358.925 297.626,358.925 297.626,355.679 297.626,352.932 307.194,352.932 
	307.194,355.679 307.194,358.925 310.986,358.925 310.986,355.679 310.986,352.932 313.193,352.932 313.193,355.679 
	313.193,424.087 203.597,424.087 203.597,355.679 203.597,352.932 213.165,352.932 213.165,355.679 213.165,358.925 
	218.324,358.925 "/>
<g>
	<path style="fill:#FFC928;" d="M442.618,294.621c-18.895,0-34.204,3.264-34.204,7.296c0,4.027,15.309,7.296,34.204,7.296
		c18.889,0,34.21-3.27,34.21-7.296C476.828,297.884,461.507,294.621,442.618,294.621z"/>
	<path style="fill:#FFC928;" d="M408.414,301.917c0,4.027,15.309,7.296,34.204,7.296c18.889,0,34.21-3.27,34.21-7.296H408.414z"/>
</g>
<g>
	<path style="fill:#FBD734;" d="M453.36,309.524c-3.962-10.437-18.613-9.85-21.695,0v118.108h14.27
		c2.536-2.806,5.013-5.659,7.425-8.576V309.524z"/>
	<path style="fill:#FBD734;" d="M80.124,307.529c-3.956-10.431-18.602-9.844-21.695,0v111.275c1.914,2.319,3.874,4.59,5.864,6.838
		h15.831C80.124,386.267,80.124,346.898,80.124,307.529z"/>
</g>
<path style="fill:#F9BF2C;" d="M62.849,424.011v-7.15h11.845v7.226h8.024v-7.226h11.845v7.226h8.012v-7.226h11.863v7.226h8.012
	v-7.226h11.851v7.226h8.018v-7.226h11.845v7.226h8.018v-7.226h11.845v7.226h8.012v-7.226H193.9v7.226h8.018v-7.226h11.845v7.226
	h8.018v-7.226h11.851v7.226h8.012v-7.226h11.857v7.226h8.012v-7.226h11.851v7.226h8.012v-7.226h11.851v7.226h8.012v-7.226h11.857
	v7.226h8.018v-7.226h11.845v7.226h8.018v-7.226h11.851v7.226h8.018v-7.226h11.845v7.226h8.018v-7.226h11.845v7.226h8.018v-7.226
	h11.857v7.226h8.012v-7.226h11.851v7.226h8.018v-7.226h11.845v3.61c-33.2,39.557-78.146,68.918-129.472,82.736H189.304
	C139.521,489.806,95.738,461.783,62.849,424.011z"/>
<path style="fill:#FFED58;" d="M62.849,424.011v-3.61h11.845v3.686v3.545h8.024v-3.545l0,0v-3.686h11.845v3.686v3.545h8.012v-3.545
	v-3.686h11.863v3.686v3.545h8.012v-3.545v-3.686h11.851v3.686v3.545h8.018v-3.545v-3.686h11.845v3.686v3.545h8.018v-3.545v-3.686
	h11.845v3.686v3.545h8.012v-3.545v-3.686H193.9v3.686v3.545h8.018v-3.545v-3.686h11.845v3.686v3.545h8.018v-3.545v-3.686h11.851
	v3.686v3.545h8.012v-3.545v-3.686h11.857v3.686v3.545h8.012v-3.545v-3.686h11.851v3.686v3.545h8.012v-3.545v-3.686h11.851v3.686
	v3.545h8.012v-3.545v-3.686h11.857v3.686v3.545h8.018v-3.545v-3.686h11.845v3.686v3.545h8.018v-3.545v-3.686h11.851v3.686v3.545
	h8.018v-3.545v-3.686h11.845v3.686v3.545h8.018v-3.545v-3.686h11.845v3.686v3.545h8.018v-3.545v-3.686h11.857v3.686v3.545h8.012
	v-3.545v-3.686h11.851v3.686v3.545h8.018v-3.545v-3.686h11.845v0.07c-33.2,39.557-78.146,68.918-129.472,82.736H189.304
	C139.521,489.806,95.738,461.783,62.849,424.011z"/>
<path style="fill:#FF8D00;" d="M230.986,468.944c4.819-31.198,50.874-29.719,53.046,0v34.262h-53.046
	C230.986,491.784,230.986,480.367,230.986,468.944z"/>
<path style="fill:#FFB100;" d="M230.986,472.22c4.819-28.216,50.874-26.872,53.046,0v30.987h-53.046
	C230.986,492.876,230.986,482.551,230.986,472.22z"/>
<g>
	<path style="fill:#FFD34E;" d="M238.558,458.437c2.231-1.961,4.802-3.51,7.578-4.625v49.395h-7.578V458.437z"/>
	<path style="fill:#FFD34E;" d="M253.72,451.84c2.506-0.323,5.066-0.364,7.578-0.117v51.485h-7.578V451.84z"/>
	<path style="fill:#FFD34E;" d="M268.87,453.413c2.788,1.01,5.365,2.424,7.584,4.25v45.544h-7.584V453.413z"/>
	<path style="fill:#FFD34E;" d="M164.632,322.831h38.964v180.375h-14.293c-8.4-2.266-16.635-4.942-24.671-8.012V322.831z"/>
</g>
<path style="fill:#FFEF76;" d="M137.737,273.982c4.901-6.78,23.033-6.392,26.849,0v76.625h-26.849
	C137.737,325.068,137.737,299.528,137.737,273.982z"/>
<path style="fill:#F9BF2C;" d="M157.547,322.831c17.803,0,35.624,0,53.433,0c-11.546-10.437-20.386-22.229-26.426-35.425
	C178.503,301.318,169.117,312.859,157.547,322.831z"/>
<path style="fill:#FFEF76;" d="M196.16,322.831h8.799c-8.84-4.203-20.967-33.329-20.28-32.971
	C185.224,307.711,191.288,319.28,196.16,322.831z"/>
<path style="fill:#FBD734;" d="M184.261,319.145c14.751,0,26.72,1.655,26.72,3.686c0,2.037-11.969,3.692-26.72,3.692
	c-14.757,0-26.714-1.655-26.714-3.692C157.547,320.801,169.504,319.145,184.261,319.145z"/>
<g>
	<polygon style="fill:#FF9F00;" points="168.213,347.08 179.653,347.08 179.653,356.102 168.213,356.102 	"/>
	<polygon style="fill:#FF9F00;" points="188.171,347.08 199.611,347.08 199.611,356.102 188.171,356.102 	"/>
	<polygon style="fill:#FF9F00;" points="168.213,362.541 179.653,362.541 179.653,371.563 168.213,371.563 	"/>
	<polygon style="fill:#FF9F00;" points="188.171,362.541 199.611,362.541 199.611,371.563 188.171,371.563 	"/>
</g>
<path style="fill:#F9BF2C;" d="M91.535,375.701h72.986v-25.094h-53.498C107.894,360.093,100.569,368.182,91.535,375.701z"/>
<path style="fill:#FFEF76;" d="M100.95,375.701h7.126c2.283-5.782,3.757-14.276,2.947-25.088l-0.006,0.006
	C110.723,352.557,106.327,366.486,100.95,375.701z"/>
<polygon style="fill:#FBD734;" points="111.023,379.388 91.535,375.701 164.632,375.701 164.632,379.388 "/>
<path style="fill:#F9BF2C;" d="M107.847,217.532c28.974,0,57.936,0,86.904,0c-18.778-21.302-33.159-45.357-42.967-72.276
	C141.922,173.643,126.66,197.175,107.847,217.532z"/>
<path style="fill:#FFEF76;" d="M170.649,217.532h14.317c-14.381-8.57-34.104-68.008-32.995-67.275
	C152.863,186.68,162.725,210.271,170.649,217.532z"/>
<path style="fill:#FBD734;" d="M151.302,210.007c24.002,0,43.449,3.369,43.449,7.525s-19.447,7.525-43.449,7.525
	s-43.455-3.369-43.455-7.525S127.3,210.007,151.302,210.007z"/>
<path style="fill:#FF9F00;" d="M115.848,396.78c1.291-8.335,13.583-7.936,14.17,0v9.151h-14.17
	C115.848,402.885,115.848,399.833,115.848,396.78z"/>
<path style="fill:#FFC928;" d="M115.848,397.655c1.291-7.531,13.583-7.179,14.17,0v8.277h-14.17
	C115.848,403.167,115.848,400.414,115.848,397.655z"/>
<path style="fill:#FFEF76;" d="M182.307,223.865v45.18h-62.285v-45.18c0-3.581,13.941-6.474,31.14-6.474
	C168.366,217.391,182.307,220.285,182.307,223.865z"/>
<path style="fill:#FF9F00;" d="M140.249,396.78c1.286-8.335,13.583-7.936,14.164,0v9.151h-14.164
	C140.249,402.885,140.249,399.833,140.249,396.78z"/>
<path style="fill:#FFC928;" d="M140.249,397.655c1.286-7.531,13.583-7.179,14.164,0v8.277h-14.164
	C140.249,403.167,140.249,400.414,140.249,397.655z"/>
<path style="fill:#FBD734;" d="M151.161,262.565c17.205,0,31.146,2.894,31.146,6.48c0,3.581-13.941,6.474-31.146,6.474
	c-17.199,0-31.14-2.894-31.14-6.474C120.021,265.459,133.962,262.565,151.161,262.565z"/>
<path style="fill:#FF9F00;" d="M124.453,243.576c0.939-7.625,9.908-7.255,10.331,0v8.37h-10.331
	C124.453,249.159,124.453,246.37,124.453,243.576z"/>
<path style="fill:#FFC928;" d="M124.453,244.381c0.939-6.897,9.908-6.563,10.331,0v7.566h-10.331
	C124.453,249.423,124.453,246.905,124.453,244.381z"/>
<polygon style="fill:#FFD34E;" points="274.405,160.494 245.813,160.494 245.813,231.819 274.405,231.819 "/>
<path style="fill:#FF9F00;" d="M146.001,243.576c0.933-7.625,9.902-7.255,10.325,0v8.37h-10.325
	C146.001,249.159,146.001,246.37,146.001,243.576z"/>
<path style="fill:#FFC928;" d="M146.001,244.381c0.933-6.897,9.902-6.563,10.325,0v7.566h-10.325
	C146.001,249.423,146.001,246.905,146.001,244.381z"/>
<path style="fill:#FF9F00;" d="M167.544,243.576c0.945-7.625,9.908-7.255,10.331,0v8.37h-10.331
	C167.544,249.159,167.544,246.37,167.544,243.576z"/>
<path style="fill:#FFC928;" d="M167.544,244.381c0.945-6.897,9.908-6.563,10.331,0v7.566h-10.331
	C167.544,249.423,167.544,246.905,167.544,244.381z"/>
<path style="fill:#F9BF2C;" d="M283.374,266.087h-48.415V230.07c0-0.123,0.023-0.241,0.065-0.37h-0.217c0-3.199,0-6.392,0-9.591
	c2.002,0,4.003,0,5.999,0v6.598c0.751-0.188,1.561-0.358,2.424-0.522v-8.91c2.002,0,3.997,0,5.993,0v8.089
	c0.798-0.07,1.608-0.141,2.43-0.2v-9.304c2.002,0,4.003,0,5.999,0v9.057c0.499-0.006,1.004-0.006,1.509-0.006
	c0.311,0,0.616,0,0.922,0v-9.051c1.996,0,3.997,0,5.993,0v9.263c0.828,0.053,1.644,0.117,2.43,0.188v-8.036c1.996,0,3.997,0,5.999,0
	v8.799c0.857,0.153,1.667,0.317,2.424,0.493v-6.457c2.002,0,3.997,0,5.999,0v8.981L283.374,266.087z"/>
<path style="fill:#FFEF76;" d="M283.345,266.087h-48.385v-33.664c0-0.123,0.023-0.241,0.065-0.358h-0.065v-1.996
	c0-0.123,0.023-0.241,0.065-0.37h-0.217v-0.035v-0.112v-0.035v-0.117v-0.029v-0.117v-0.035v-0.117v-0.035v-0.112v-0.041v-0.106
	v-0.041v-0.117v-0.029v-0.117v-0.029v-0.123v-0.035v-0.112v-0.035v-0.112v-0.035v-0.117v-0.035v-0.117v-0.035v-0.112v-0.035v-0.112
	v-0.041v-0.112v-0.035v-0.112v-0.041v-0.112v-0.035v-0.117v-0.035v-0.112v-0.041v-0.112v-0.035v-0.117v-0.029v-0.112v-0.041v-0.112
	v-0.041v-0.112v-0.041v-0.112v-0.035v-0.112v-0.041v-0.112v-0.035v-0.112v-0.035v-0.117v-0.035v-0.112v-0.035v-0.117v-0.035v-0.112
	v-0.041v-0.112v-0.035v-0.117v-0.029v-0.117v-0.035v-0.117v-0.029v-0.112v-0.041v-0.117v-0.029v-0.112v-0.047v-0.112v-0.035v-0.112
	v-0.035v-0.117v-0.035v-0.112v-0.041v-0.106v-0.041v-0.112v-0.041v-0.112v-0.035v-0.112v-0.035c2.002,0,4.003,0,5.999,0v4.232v2.366
	c0.751-0.188,1.561-0.358,2.424-0.522v-2.366v-6.545c2.002,0,3.997,0,5.993,0v5.723v2.366c0.798-0.076,1.608-0.141,2.43-0.205v-2.36
	v-6.938c2.002,0,4.003,0,5.999,0v6.692v2.366c0.499-0.006,1.004-0.012,1.509-0.012c0.311,0,0.616,0,0.922,0.006v-2.366v-6.686
	c1.996,0,3.997,0,5.993,0v6.897v2.366c0.828,0.047,1.644,0.112,2.43,0.182v-2.36v-5.67c1.996,0,3.997,0,5.999,0v6.433v2.366
	c0.857,0.147,1.667,0.317,2.424,0.493v-2.366v-4.091c2.002,0,3.997,0,5.999,0v6.615v2.354L283.345,266.087z"/>
<path style="fill:#FFD34E;" d="M352.157,322.831h-38.964v180.375h9.497c10.084-2.718,19.917-6.028,29.467-9.902V322.831z"/>
<path style="fill:#FFEF76;" d="M379.053,273.982c-4.907-6.78-23.028-6.392-26.855,0v76.625h26.855
	C379.053,325.068,379.053,299.528,379.053,273.982z"/>
<path style="fill:#F9BF2C;" d="M359.242,322.831c-17.815,0-35.618,0-53.433,0c11.552-10.437,20.386-22.229,26.42-35.425
	C338.293,301.318,347.673,312.859,359.242,322.831z"/>
<path style="fill:#FFEF76;" d="M320.63,322.831h-8.805c8.846-4.203,20.967-33.329,20.286-32.971
	C331.566,307.711,325.502,319.28,320.63,322.831z"/>
<path style="fill:#FBD734;" d="M332.523,319.145c-14.751,0-26.714,1.655-26.714,3.686c0,2.037,11.963,3.692,26.714,3.692
	c14.763,0,26.72-1.655,26.72-3.692C359.242,320.801,347.285,319.145,332.523,319.145z"/>
<g>
	<polygon style="fill:#FF9F00;" points="348.577,347.08 337.13,347.08 337.13,356.102 348.577,356.102 	"/>
	<polygon style="fill:#FF9F00;" points="328.619,347.08 317.179,347.08 317.179,356.102 328.619,356.102 	"/>
	<polygon style="fill:#FF9F00;" points="348.577,362.541 337.13,362.541 337.13,371.563 348.577,371.563 	"/>
	<polygon style="fill:#FF9F00;" points="328.619,362.541 317.179,362.541 317.179,371.563 328.619,371.563 	"/>
</g>
<path style="fill:#F9BF2C;" d="M425.255,375.701h-72.986v-25.094h53.504C408.896,360.093,416.221,368.182,425.255,375.701z"/>
<path style="fill:#FFEF76;" d="M415.846,375.701h-7.138c-2.283-5.782-3.751-14.276-2.935-25.088v0.006
	C406.06,352.557,410.469,366.486,415.846,375.701z"/>
<polygon style="fill:#FBD734;" points="405.773,379.388 425.255,375.701 352.157,375.701 352.157,379.388 "/>
<path style="fill:#F9BF2C;" d="M408.937,217.532c-28.968,0-57.93,0-86.898,0c18.778-21.302,33.159-45.357,42.967-72.276
	C374.862,173.643,390.124,197.175,408.937,217.532z"/>
<path style="fill:#FFEF76;" d="M346.147,217.532h-14.323c14.387-8.57,34.104-68.008,32.989-67.275
	C363.926,186.68,354.059,210.271,346.147,217.532z"/>
<path style="fill:#FBD734;" d="M365.482,210.007c-23.99,0-43.443,3.369-43.443,7.525s19.453,7.525,43.443,7.525
	c24.008,0,43.455-3.369,43.455-7.525S389.49,210.007,365.482,210.007z"/>
<path style="fill:#FF9F00;" d="M400.942,396.78c-1.286-8.335-13.589-7.936-14.17,0v9.151h14.17
	C400.942,402.885,400.942,399.833,400.942,396.78z"/>
<path style="fill:#FFC928;" d="M400.942,397.655c-1.286-7.531-13.589-7.179-14.17,0v8.277h14.17
	C400.942,403.167,400.942,400.414,400.942,397.655z"/>
<path style="fill:#FFEF76;" d="M334.483,223.865v45.18h62.285v-45.18c0-3.581-13.941-6.474-31.146-6.474
	C348.424,217.391,334.483,220.285,334.483,223.865z"/>
<path style="fill:#FF9F00;" d="M376.541,396.78c-1.285-8.335-13.589-7.936-14.17,0v9.151h14.17
	C376.541,402.885,376.541,399.833,376.541,396.78z"/>
<path style="fill:#FFC928;" d="M376.541,397.655c-1.285-7.531-13.589-7.179-14.17,0v8.277h14.17
	C376.541,403.167,376.541,400.414,376.541,397.655z"/>
<path style="fill:#FF9F00;" d="M392.337,243.576c-0.939-7.625-9.908-7.255-10.331,0v8.37h10.331
	C392.337,249.159,392.337,246.37,392.337,243.576z"/>
<path style="fill:#FFC928;" d="M392.337,244.381c-0.939-6.897-9.908-6.563-10.331,0v7.566h10.331
	C392.337,249.423,392.337,246.905,392.337,244.381z"/>
<path style="fill:#FBD734;" d="M365.623,262.565c-17.199,0-31.14,2.894-31.14,6.48c0,3.581,13.941,6.474,31.14,6.474
	c17.205,0,31.146-2.894,31.146-6.474C396.768,265.459,382.827,262.565,365.623,262.565z"/>
<path style="fill:#FF9F00;" d="M370.794,243.576c-0.939-7.625-9.908-7.255-10.331,0v8.37h10.331
	C370.794,249.159,370.794,246.37,370.794,243.576z"/>
<path style="fill:#FFC928;" d="M370.794,244.381c-0.939-6.897-9.908-6.563-10.331,0v7.566h10.331
	C370.794,249.423,370.794,246.905,370.794,244.381z"/>
<path style="fill:#FF9F00;" d="M349.246,243.576c-0.939-7.625-9.908-7.255-10.331,0v8.37h10.331
	C349.246,249.159,349.246,246.37,349.246,243.576z"/>
<g>
	<path style="fill:#FFC928;" d="M349.246,244.381c-0.939-6.897-9.908-6.563-10.331,0v7.566h10.331
		C349.246,249.423,349.246,246.905,349.246,244.381z"/>
	<path style="fill:#FFC928;" d="M408.303,301.917h68.413v-50.898c0-0.176-0.029-0.352-0.088-0.528h0.299c0-4.52,0-9.04,0-13.554
		c-2.818,0-5.647,0-8.47,0v9.321c-1.057-0.264-2.207-0.511-3.428-0.74v-12.585c-2.829,0-5.653,0-8.476,0v11.423
		c-1.115-0.106-2.26-0.2-3.434-0.282v-13.154c-2.823,0-5.647,0-8.476,0v12.814c-0.704-0.018-1.421-0.018-2.131-0.018
		c-0.434,0-0.869,0-1.303,0v-12.796c-2.818,0-5.641,0-8.47,0v13.102c-1.168,0.07-2.313,0.158-3.428,0.258v-11.346
		c-2.829,0-5.653,0-8.482,0v12.432c-1.215,0.217-2.354,0.446-3.428,0.693v-9.122c-2.829,0-5.647,0-8.476,0v12.685L408.303,301.917z"
		/>
</g>
<path style="fill:#FFEF76;" d="M408.414,301.917h68.302v-42.052c0-0.176-0.029-0.346-0.088-0.522h0.088v-8.323
	c0-0.176-0.029-0.352-0.088-0.528h0.299v-0.041v-0.17v-0.041v-0.17v-0.041v-0.17v-0.041v-0.17v-0.041v-0.164v-0.047v-0.17v-0.041
	v-0.17v-0.047v-0.17v-0.041v-0.17v-0.041v-0.17v-0.041v-0.17v-0.041v-0.17v-0.041v-0.17v-0.035v-0.176v-0.041v-0.164v-0.047v-0.17
	v-0.041v-0.17v-0.047v-0.164v-0.041v-0.17v-0.047v-0.164v-0.041v-0.176v-0.041v-0.164v-0.053c-2.818,0-5.647,0-8.47,0v0.475v8.858
	c-1.057-0.264-2.207-0.511-3.428-0.74v-8.858v-3.733c-2.829,0-5.653,0-8.476,0v2.571v8.852c-1.115-0.1-2.26-0.194-3.434-0.276
	v-8.858v-4.291c-2.823,0-5.647,0-8.476,0v3.95v8.852c-0.704-0.012-1.421-0.018-2.131-0.018c-0.434,0-0.869,0.006-1.303,0.006v-8.858
	v-3.933c-2.818,0-5.641,0-8.47,0v4.238v8.852c-1.168,0.076-2.313,0.158-3.428,0.264v-8.858v-2.495c-2.829,0-5.653,0-8.482,0v3.581
	v8.858c-1.215,0.217-2.354,0.44-3.428,0.687v-8.852v-0.276c-2.829,0-5.647,0-8.476,0v3.839v8.858L408.414,301.917z"/>
<path style="fill:#F9BF2C;" d="M323.941,303.367h-63.207h-1.585h-63.207c8.018-12.286,14.522-25.493,17.299-40.989h45.908h1.585
	h45.908C309.419,277.874,315.923,291.081,323.941,303.367z"/>
<path style="fill:#FFEF76;" d="M315.588,303.367h-6.334c-2.025-9.456-3.334-23.327-2.612-40.983l0,0
	C306.906,265.553,310.81,288.311,315.588,303.367z"/>
<polygon style="fill:#FBD734;" points="306.642,309.389 323.941,303.367 260.84,303.367 259.044,303.367 195.942,303.367 
	213.241,309.389 259.044,309.389 260.84,309.389 "/>
<path style="fill:#FFEF76;" d="M204.295,303.367h6.339c2.019-9.456,3.322-23.327,2.606-40.983l0,0
	C212.977,265.553,209.073,288.311,204.295,303.367z"/>
<path style="fill:#F9BF2C;" d="M288.551,164.585c-19.036,0-38.078,0-57.108,0c12.333-8.588,21.789-18.296,28.246-29.144
	C266.158,146.888,276.189,156.374,288.551,164.585z"/>
<path style="fill:#FFEF76;" d="M247.286,164.585h-9.415c9.456-3.457,22.417-27.424,21.689-27.131
	C258.973,152.141,252.487,161.662,247.286,164.585z"/>
<g>
	<path style="fill:#FF9F00;" d="M260,161.551c-15.772,0-28.557,1.356-28.557,3.035c0,1.673,12.785,3.035,28.557,3.035
		s28.551-1.362,28.551-3.035C288.551,162.907,275.773,161.551,260,161.551z"/>
	<path style="fill:#FF9F00;" d="M264.919,175.955c-0.945-7.619-9.914-7.255-10.331,0v8.376h10.331
		C264.919,181.538,264.919,178.755,264.919,175.955z"/>
</g>
<path style="fill:#FFFFFF;" d="M264.919,176.76c-0.945-6.891-9.914-6.563-10.331,0v7.572h10.331
	C264.919,181.802,264.919,179.284,264.919,176.76z"/>
<path style="fill:#FF9F00;" d="M264.919,200.979c-0.945-7.625-9.914-7.261-10.331,0v8.37h10.331
	C264.919,206.555,264.919,203.767,264.919,200.979z"/>
<path style="fill:#FFFFFF;" d="M264.919,201.777c-0.945-6.885-9.914-6.563-10.331,0v7.572h10.331
	C264.919,206.825,264.919,204.301,264.919,201.777z"/>
<path style="fill:#8B6E62;" d="M152.341,110.829l1.919,42.621l0.029,0.605c0.018,0.329-0.27,0.599-0.587,0.599h-2.636
	c-0.323,0-0.587-0.27-0.587-0.599l0,0v-0.605L152.341,110.829z M152.364,106.937c1.033,0,1.872,0.845,1.872,1.884
	c0,1.045-0.839,1.878-1.872,1.878c-1.027,0-1.867-0.834-1.867-1.878C150.498,107.783,151.337,106.937,152.364,106.937z"/>
<polygon style="fill:#ED5250;" points="154.46,115.525 181.08,117.333 181.08,122.95 214.409,124.987 177.628,133.986 
	177.628,129.443 154.46,133.986 "/>
<path style="fill:#8B6E62;" d="M363.439,110.336l1.914,42.627l0.029,0.593c0.012,0.335-0.264,0.605-0.593,0.605h-2.63
	c-0.329,0-0.593-0.27-0.593-0.605l0,0v-0.593L363.439,110.336z M363.463,106.444c1.027,0,1.861,0.839,1.861,1.884
	c0,1.039-0.834,1.884-1.861,1.884c-1.033,0-1.867-0.845-1.867-1.884C361.596,107.284,362.43,106.444,363.463,106.444z"/>
<path style="fill:#FF9F00;" d="M210.482,382.229c1.021-6.604,10.759-6.287,11.217,0v7.243h-11.217
	C210.482,387.054,210.482,384.635,210.482,382.229z"/>
<path style="fill:#FFC928;" d="M210.482,382.916c1.021-5.97,10.759-5.682,11.217,0v6.557h-11.217
	C210.482,387.289,210.482,385.099,210.482,382.916z"/>
<path style="fill:#FF9F00;" d="M230.856,382.229c1.021-6.604,10.754-6.287,11.217,0v7.243h-11.217
	C230.856,387.054,230.856,384.635,230.856,382.229z"/>
<path style="fill:#FFC928;" d="M230.856,382.916c1.021-5.97,10.754-5.682,11.217,0v6.557h-11.217
	C230.856,387.289,230.856,385.099,230.856,382.916z"/>
<path style="fill:#FF9F00;" d="M251.225,382.229c1.015-6.604,10.759-6.287,11.217,0v7.243h-11.217
	C251.225,387.054,251.225,384.635,251.225,382.229z"/>
<path style="fill:#FFC928;" d="M251.225,382.916c1.015-5.97,10.759-5.682,11.217,0v6.557h-11.217
	C251.225,387.289,251.225,385.099,251.225,382.916z"/>
<path style="fill:#FF9F00;" d="M271.593,382.229c1.021-6.604,10.759-6.287,11.217,0v7.243h-11.217
	C271.593,387.054,271.593,384.635,271.593,382.229z"/>
<path style="fill:#FFC928;" d="M271.593,382.916c1.021-5.97,10.759-5.682,11.217,0v6.557h-11.217
	C271.593,387.289,271.593,385.099,271.593,382.916z"/>
<path style="fill:#FF9F00;" d="M291.962,382.229c1.021-6.604,10.759-6.287,11.217,0v7.243h-11.217
	C291.962,387.054,291.962,384.635,291.962,382.229z"/>
<path style="fill:#FFC928;" d="M291.962,382.916c1.021-5.97,10.759-5.682,11.217,0v6.557h-11.217
	C291.962,387.289,291.962,385.099,291.962,382.916z"/>
<path style="fill:#FF9F00;" d="M222.005,324.968c1.015-6.598,10.754-6.287,11.211,0v7.243h-11.211
	C222.005,329.799,222.005,327.387,222.005,324.968z"/>
<path style="fill:#FFC928;" d="M222.005,325.667c1.015-5.97,10.754-5.688,11.211,0v6.545h-11.211
	C222.005,330.028,222.005,327.844,222.005,325.667z"/>
<path style="fill:#FF9F00;" d="M247.973,324.968c1.027-6.598,10.759-6.287,11.223,0v7.243h-11.223
	C247.973,329.799,247.973,327.387,247.973,324.968z"/>
<path style="fill:#FFC928;" d="M247.973,325.667c1.027-5.97,10.759-5.688,11.223,0v6.545h-11.223
	C247.973,330.028,247.973,327.844,247.973,325.667z"/>
<path style="fill:#FF9F00;" d="M273.953,324.968c1.021-6.598,10.759-6.287,11.217,0v7.243h-11.217
	C273.953,329.799,273.953,327.387,273.953,324.968z"/>
<g>
	<path style="fill:#FFC928;" d="M273.953,325.667c1.021-5.97,10.759-5.688,11.217,0v6.545h-11.217
		C273.953,330.028,273.953,327.844,273.953,325.667z"/>
	<path style="fill:#FFC928;" d="M408.414,301.917c0-4.033,15.309-7.296,34.204-7.296c18.889,0,34.21,3.264,34.21,7.296H408.414z"/>
	<path style="fill:#FFC928;" d="M69.388,292.619c-18.895,0-34.21,3.27-34.21,7.302c0,4.033,15.315,7.302,34.21,7.302
		c18.883,0,34.204-3.27,34.204-7.302C103.592,295.889,88.271,292.619,69.388,292.619z"/>
</g>
<path style="fill:#FBD734;" d="M79.871,306.877c-4.215-9.521-17.733-9.01-21.19-0.018c3.369,0.235,6.973,0.364,10.718,0.364
	C73.056,307.223,76.573,307.1,79.871,306.877z"/>
<path style="fill:#FFC928;" d="M35.067,299.921h68.419v-50.898c0-0.176-0.029-0.352-0.088-0.528h0.305c0-4.52,0-9.034,0-13.554
	c-2.829,0-5.653,0-8.482,0v9.327c-1.057-0.264-2.201-0.511-3.428-0.745v-12.591c-2.823,0-5.647,0-8.476,0v11.429
	c-1.109-0.1-2.26-0.2-3.428-0.276v-13.154c-2.823,0-5.653,0-8.476,0v12.808c-0.704-0.012-1.415-0.018-2.137-0.018
	c-0.434,0-0.869,0.006-1.297,0.006v-12.796c-2.823,0-5.647,0-8.476,0v13.096c-1.168,0.076-2.313,0.164-3.422,0.258v-11.352
	c-2.829,0-5.653,0-8.482,0v12.438c-1.215,0.217-2.36,0.446-3.434,0.693v-9.122c-2.818,0-5.641,0-8.47,0v12.685L35.067,299.921z"/>
<path style="fill:#FFEF76;" d="M35.178,299.921h68.308V257.87c0-0.17-0.035-0.346-0.088-0.517h0.088v-8.329
	c0-0.176-0.029-0.352-0.088-0.528h0.305v-0.035v-0.176v-0.041v-0.164v-0.041v-0.176v-0.041v-0.17v-0.041v-0.17v-0.041v-0.17v-0.041
	v-0.17v-0.041v-0.17v-0.041v-0.17v-0.041v-0.17v-0.041v-0.176v-0.041v-0.164v-0.041v-0.176v-0.041v-0.17v-0.041v-0.17v-0.041v-0.17
	v-0.041v-0.164v-0.047v-0.17v-0.035v-0.176v-0.041v-0.164v-0.053v-0.164v-0.041v-0.17v-0.041c-2.829,0-5.653,0-8.482,0v0.47v8.858
	c-1.057-0.264-2.201-0.517-3.428-0.74v-8.864v-3.733c-2.823,0-5.647,0-8.476,0v2.571v8.864c-1.109-0.112-2.26-0.205-3.428-0.282
	v-8.858v-4.297c-2.823,0-5.653,0-8.476,0v3.95v8.852c-0.704-0.006-1.415-0.012-2.137-0.012c-0.434,0-0.869,0-1.297,0.006v-8.858
	v-3.939c-2.823,0-5.647,0-8.476,0v4.238v8.858c-1.168,0.07-2.313,0.158-3.422,0.258v-8.858v-2.495c-2.829,0-5.653,0-8.482,0v3.581
	v8.858c-1.215,0.217-2.36,0.446-3.434,0.693v-8.858v-0.264c-2.818,0-5.641,0-8.47,0v3.827v8.858L35.178,299.921z"/>
<path style="fill:#FFC928;" d="M35.178,299.921c0-4.033,15.315-7.302,34.21-7.302c18.883,0,34.204,3.27,34.204,7.302H35.178z"/>
<path style="fill:#8B6E62;" d="M259.801,96.049l1.925,42.627l0.018,0.599c0.018,0.323-0.264,0.599-0.587,0.599h-2.63
	c-0.329,0-0.593-0.276-0.593-0.599l0,0v-0.599L259.801,96.049z M259.824,92.157c1.033,0,1.872,0.839,1.872,1.884
	c0,1.039-0.839,1.878-1.872,1.878s-1.867-0.839-1.867-1.878C257.958,92.996,258.791,92.157,259.824,92.157z"/>
<g>
	<polygon style="fill:#ED5250;" points="261.914,100.745 288.54,102.553 288.54,108.164 321.869,110.207 285.088,119.2 
		285.088,114.662 261.914,119.2 	"/>
	<polygon style="fill:#ED5250;" points="365.552,115.038 392.172,116.84 392.172,122.457 425.496,124.494 388.721,133.493 
		388.721,128.955 365.552,133.493 	"/>
</g>
<path style="fill:#BD360C;" d="M456.465,344.92c-0.07,0.293-1.503,12.121-1.503,12.121l3.046,0.288l-0.035-11.939L456.465,344.92z"
	/>
<path style="fill:#64DB16;" d="M451.223,323.677c0,0,5.036-1.127,4.455,0.323c-0.581,1.456-7.061,5.23-7.061,5.23
	s5.142-0.822,4.373,1.15c-0.775,1.972-7.179,5.289-7.179,5.289s8.282-1.426,6.022,1.203c-2.266,2.63-10.472,7.056-10.472,7.056
	s10.431-2.471,10.096,0.458c-0.335,2.929-4.596,3.768-5.482,5.623c0,0,10.302-2.049,11.429-0.481c1.168,0,11.546,2.031,11.57,1.52
	c-0.751-1.902-5.16-3.305-5.301-6.251c-0.129-2.941,10.114,0.229,10.114,0.229s-7.889-4.978-9.973-7.754
	c-2.078-2.771,6.081-0.787,6.081-0.787s-6.163-3.739-6.797-5.764c-0.64-2.019,4.443-0.845,4.443-0.845s-6.216-4.209-6.698-5.694
	c-0.475-1.491,4.479-0.029,4.479-0.029c-4.173-3.921-5.706-8.024-6.715-10.184C457.445,316.052,455.643,320.043,451.223,323.677z"/>
<path style="fill:#ADE900;" d="M451.223,323.677c0,0,5.036-1.127,4.455,0.323c-0.581,1.456-7.061,5.23-7.061,5.23
	s5.142-0.822,4.373,1.15c-0.775,1.972-7.179,5.289-7.179,5.289s8.282-1.426,6.022,1.203c-2.266,2.63-10.472,7.056-10.472,7.056
	s10.431-2.471,10.096,0.458c-0.335,2.929-4.596,3.768-5.482,5.623c-2.101,0.804,8.517-1.438,11.429-0.481l1.297-35.36l-0.094-0.2
	C457.445,316.052,455.643,320.043,451.223,323.677z"/>
<g>
</g>
<g>
</g>
<g>
</g>
<g>
</g>
<g>
</g>
<g>
</g>
<g>
</g>
<g>
</g>
<g>
</g>
<g>
</g>
<g>
</g>
<g>
</g>
<g>
</g>
<g>
</g>
<g>
</g>
</svg>
