<?xml version="1.0" encoding="iso-8859-1"?>
<!-- Generator: Adobe Illustrator 19.0.0, SVG Export Plug-In . SVG Version: 6.00 Build 0)  -->
<svg version="1.1" id="Layer_1" xmlns="http://www.w3.org/2000/svg" xmlns:xlink="http://www.w3.org/1999/xlink" x="0px" y="0px"
	 viewBox="0 0 530.399 530.399" style="enable-background:new 0 0 530.399 530.399;" xml:space="preserve">
<g>
	<g>
		<g>
			<path style="fill:#64B3F5;" d="M0,273.332l0.006,6.554c0.041,16.636,1.296,20.288,3.634,30.205l0.171-0.018
				c19.981,117.073,116.737,207.934,236.625,218.941l1.007,0.088c1.578,0.135,3.168,0.265,4.758,0.383l2.108,0.13
				c1.354,0.094,2.703,0.165,4.069,0.236c0.872,0.041,1.761,0.053,2.638,0.1c1.219,0.035,2.426,0.088,3.645,0.13
				c1.407,0.024,2.809,0.035,4.222,0.041c0.683,0.018,1.384,0.029,2.061,0.029l0.312-0.006c1.99,0,3.981-0.029,5.948-0.065
				l0.954-0.024c1.873-0.059,3.734-0.13,5.589-0.218l1.59-0.071c1.649-0.1,3.315-0.206,4.959-0.324l2.338-0.183
				c1.084-0.088,2.149-0.183,3.221-0.289c118.84-11.077,214.895-100.631,235.813-216.349c2.544-9.929,2.568-13.026,3.846-28.768
				h0.012l0.289-0.012l0,0h0.012c0.035-1.001,0.053-1.979,0.077-2.968v-0.077v-0.071v-0.071v-0.153v-0.071v-0.065l0,0v-0.077v-0.077
				v-0.212v-0.077v-0.071v-0.065v-0.077h0.006v-0.077v-0.077v-0.065v-0.077v-0.071v-0.077v-0.071
				c1.661-19.752-0.913-52.212-7.614-77.322l-0.353-1.349C493.079,85.474,388.967,0.248,264.945,0.248
				c-127.014,0-233.145,89.407-258.944,208.717l0,0c-4.258,14.351-5.518,32.619-5.86,48.366c-0.082,2.621-0.135,5.247-0.135,7.874
				v0.501C0,268.391,0,270.935,0,273.332z"/>
			<path style="fill:#41BA41;" d="M528.648,236.832c-1.343-11.949-3.469-24.127-6.354-34.951l-0.353-1.349
				c-2.626-10.459-5.877-20.676-9.705-30.605l-0.218-0.106l-10.824,6.019l-13.78,0.93l-36.847-0.583l-17.649,3.722l-13.085-3.722
				l-27.69,4.87l-6.083,6.007l-35.293-12.885l-7.302,3.156l-19.175-7.738l-32.56,20.617l-10.647-3.151l-18.862,14.899l-24.645-7.45
				l-42.106-37.43l-7.803,4.211l-9.128,9.446l-15.517-10.877l-9.128,5.418l-22.808-14.452l-17.231,5.553h-17.72l-31.4,22.378
				l-8.822-3.722l-17.95,4.582l-27.943,13.268c-1.496,5.294-2.838,10.653-4.016,16.077l0,0c-4.258,14.351-5.518,32.619-5.86,48.366
				c-0.071,2.409-0.124,4.823-0.135,7.243l9.104-5.524l19.652-11.837l11.431,1.513l15.535,13.333l12.337,3.009l16.46-4.299
				l15.535,8.604l28.338,7.22l48.213-1.843l17.143-27.719l15.771-12.072l21.477,18.279l56.216-26.241l47.53,27.319l4.8,9.899
				l12.12,7.096l8.221,10.105l16.683-14.905l2.968-12.408l14.169-3.875l6.172-10.753l15.311-3.657l21.483,13.98l18.279,23.232
				l26.966-8.604l30.163-17.85l11.884-2.585L528.648,236.832z"/>
			<path style="fill:#518F29;" d="M0,273.332l0.006,6.554c0.041,16.636,1.296,20.288,3.634,30.205l0.171-0.018
				c1.072,6.272,2.379,12.467,3.881,18.58l18.55-0.866l29.009,18.721l36.494-1.431l16.118-22.902l7.809,4.54l25.252-17.461
				l8.757,7.414l13.845-5.377l25.246,10.023l19.163,18.609l24.639-6.59l8.215,12.885l13.886-4.093l32.955,14.687l36.07-17.879
				l11.378-1.019l15.512-7.438l5.171-8.303l15.517-7.161l10.029-2.291l14.982,5.754l11.56-9.175l10.948,7.744l26.088-7.185
				l10.948,1.431l28.291,22.614l6.384-4.576l23.974,16.831l3.422-1.908c3.215-10.288,5.818-20.841,7.768-31.63
				c2.544-9.929,2.568-13.026,3.846-28.768h0.012l0.289-0.012l0,0h0.012c0.035-1.001,0.053-1.979,0.077-2.968v-0.077v-0.071v-0.071
				v-0.153v-0.071v-0.065l0,0v-0.077v-0.077v-0.212v-0.077v-0.071v-0.065v-0.077h0.006v-0.077v-0.077v-0.065v-0.077v-0.071v-0.077
				v-0.071c0.948-11.236,0.518-26.601-1.26-42.371l-4.682,7.161l-11.884,2.585l-30.163,17.85l-26.966,8.604L436.674,249.8
				l-21.483-13.98l-15.311,3.657l-6.172,10.753l-14.169,3.875l-2.968,12.408l-16.683,14.905l-8.221-10.105l-12.12-7.096l-4.8-9.899
				l-47.53-27.319l-56.216,26.241l-21.477-18.279l-15.771,12.072l-17.143,27.719l-48.213,1.843l-28.338-7.22l-15.535-8.604
				l-16.46,4.299l-12.337-3.009l-15.535-13.333l-11.431-1.513L9.11,259.051l-9.104,5.524v0.63v0.501C0,268.391,0,270.935,0,273.332z
				"/>
			<path style="fill:#378B00;" d="M115.671,326.716l-7.809-4.54l-16.118,22.902l-36.494,1.431l-29.009-18.721l-18.55,0.866
				c26.548,107.998,119.281,189.949,232.744,200.361l1.007,0.088c1.578,0.135,3.168,0.265,4.758,0.383l2.108,0.13
				c1.354,0.094,2.703,0.165,4.069,0.236c0.872,0.041,1.761,0.053,2.638,0.1c1.219,0.035,2.426,0.088,3.645,0.13
				c1.407,0.024,2.809,0.035,4.222,0.041c0.683,0.018,1.384,0.029,2.061,0.029l0.312-0.006c1.99,0,3.981-0.029,5.948-0.065
				l0.954-0.024c1.873-0.059,3.734-0.13,5.589-0.218l1.59-0.071c1.649-0.1,3.315-0.206,4.959-0.324l2.338-0.183
				c1.084-0.088,2.149-0.183,3.221-0.289c107.763-10.047,196.798-84.619,228.045-184.72l-3.422,1.908l-23.974-16.831l-6.384,4.576
				l-28.291-22.614l-10.948-1.431l-26.088,7.185l-10.948-7.744l-11.56,9.175l-14.982-5.754l-10.029,2.291l-15.517,7.161
				l-5.171,8.303l-15.512,7.438l-11.378,1.019l-36.07,17.879l-32.955-14.687l-13.886,4.093l-8.215-12.885l-24.639,6.59
				l-19.163-18.609l-25.246-10.023l-13.845,5.377l-8.757-7.414L115.671,326.716z"/>
			<g>
				<path style="fill:#FFFFFF;" d="M121.49,92.452c5.4,0,10.488,1.278,14.993,3.551c4.876-4.77,11.554-7.72,18.927-7.72
					c12.761,0,23.456,8.833,26.318,20.712c6.378,1.92,11.495,6.737,13.833,12.915c0.76-0.082,1.537-0.124,2.326-0.124
					c11.79,0,21.353,9.558,21.353,21.353s-9.564,21.353-21.353,21.353c-3.675,0-7.132-0.925-10.147-2.562
					c-2.591,8.875-10.789,15.358-20.5,15.358c-5.93,0-11.301-2.42-15.17-6.331c-3.869,3.91-9.24,6.331-15.176,6.331
					c-5.63,0-10.765-2.191-14.581-5.759c-3.904,4.27-9.517,6.943-15.759,6.943c-5.848,0-11.136-2.338-14.987-6.142
					c-1.761,0.395-3.598,0.595-5.477,0.595c-14.051,0-25.435-11.389-25.435-25.44c0-14.045,11.383-25.435,25.435-25.435
					c0.766,0,1.525,0.035,2.273,0.106C90.172,105.449,104.312,92.452,121.49,92.452z"/>
				<path style="fill:#FFFFFF;" d="M358.998,81.675c3.687,0,7.161,0.872,10.241,2.426c3.327-3.262,7.891-5.277,12.926-5.277
					c8.716,0,16.024,6.036,17.979,14.151c4.352,1.313,7.85,4.599,9.446,8.822c0.518-0.059,1.054-0.082,1.59-0.082
					c8.05,0,14.587,6.525,14.587,14.587c0,8.05-6.537,14.581-14.587,14.581c-2.509,0-4.87-0.636-6.931-1.749
					c-1.773,6.06-7.367,10.488-14.004,10.488c-4.052,0-7.715-1.649-10.359-4.323c-2.644,2.674-6.313,4.323-10.365,4.323
					c-3.851,0-7.355-1.496-9.964-3.934c-2.668,2.915-6.501,4.747-10.765,4.747c-3.993,0-7.603-1.596-10.235-4.199
					c-1.201,0.271-2.456,0.406-3.74,0.406c-9.599,0-17.378-7.779-17.378-17.373c0-9.599,7.779-17.378,17.378-17.378
					c0.518,0,1.042,0.024,1.549,0.071C337.604,90.556,347.262,81.675,358.998,81.675z"/>
			</g>
			<path style="fill:#FFFF00;" d="M239.493,20.229c21.748,0,39.374,17.626,39.374,39.368s-17.626,39.368-39.374,39.368
				c-21.736,0-39.368-17.626-39.368-39.368S217.757,20.229,239.493,20.229z"/>
			<path d="M91.739,128.045c0,0,6.766-1.449,12.426-0.365c5.671,1.084,11.584,5.789,17.979,6.154
				c6.39,0.359,5.065-2.055,5.065-2.055s-4.099,0.607-5.194-2.891c-1.078-3.498,3.386-6.278,10.259-11.095
				c6.878-4.829,8.203-9.652,6.878-12.673c0,0-1.213,1.932-6.878,4.953c-5.671,3.015-9.77,8.563-14.228,12.538
				c-4.47,3.987-4.711,4.222-8.934,3.38C104.895,125.148,95.843,123.817,91.739,128.045z"/>
			<g>
				<path style="fill:#9B73A7;" d="M229.293,527.754c2.161-11.595,7.379-19.104,12.467-26.424c2.032-2.921,4.128-5.93,6.013-9.175
					c6.054-10.429,0.654-16.265-4.57-21.895c-1.59-1.731-3.239-3.51-4.511-5.383l-0.83-1.402l-0.153-0.3l0.33-0.171
					c9.369-4.664,20.081-7.132,30.982-7.132h0.265c11.113,0.047,21.989,2.644,31.459,7.526l0.33,0.165l-0.159,0.312l-0.583,0.954
					c-1.278,1.867-2.927,3.663-4.523,5.388c-5.218,5.642-10.606,11.466-4.558,21.895c1.879,3.227,3.969,6.248,6.001,9.163
					c4.894,7.037,9.911,14.263,12.214,25.117c-6.466,1.089-12.997,1.961-19.61,2.579c-1.072,0.106-2.138,0.2-3.221,0.289
					l-2.338,0.183c-1.643,0.118-3.31,0.224-4.959,0.324l-1.59,0.071c-1.855,0.088-3.716,0.159-5.589,0.218l-0.954,0.024
					c-1.967,0.035-3.957,0.065-5.948,0.065l-0.312,0.006c-0.677,0-1.378-0.012-2.061-0.029c-1.413-0.006-2.815-0.018-4.222-0.041
					c-1.219-0.041-2.426-0.094-3.645-0.13c-0.877-0.047-1.767-0.059-2.638-0.1c-1.366-0.071-2.715-0.141-4.069-0.236l-2.108-0.13
					c-1.59-0.118-3.18-0.247-4.758-0.383l-1.007-0.088C236.702,528.673,232.986,528.249,229.293,527.754z"/>
				<g>
					<path style="fill:#FFFFFF;" d="M213.317,427.624l-60.88-129.045l-38.019-19.787l2.444,35.558l-0.418,0.035L213.317,427.624z
						 M149.468,292.283l-18.645-39.515l3.569-1.92l18.65,39.527l8.468-80.19l40.216,51.122l-4.281-47.536l3.975-0.406l4.34,48.225
						l51.77-80.709l55.969,73.5l-1.201-48.307l3.987-0.112l1.131,45.457l29.345-48.784l21.913,74.884l14.434-42.995l3.757,1.437
						l-13.898,41.394l36.288-28.597l5.86,36.07l5.07-7.614l3.251,2.473L318.058,438.053l-4.381-176.693l-55.869-73.353
						l-51.452,80.202l13.456,172.129L99.53,300.94l2.944-2.886l10.076,11.772l-2.626-38.125L149.468,292.283z M156.323,297.336
						l60.121,127.438l-14.039-155.976l-37.966-48.26L156.323,297.336z M411.852,289.733l-5.43-33.438l-35.876,28.273L324.989,420.28
						L411.852,289.733z M366.436,284.174l-20.935-71.551l-27.896,46.376l3.952,158.873L366.436,284.174z"/>
					<path style="fill:#FF6E40;" d="M421.504,292.071c-5.677-21.883-35.899-44.026-36.453-37.101
						c-70.762-77.093-205.213-85.802-283.354,56.729C-12.337,25.194,562.009,63.048,421.504,292.071z"/>
					<g>
						<polygon style="fill:#FFFFFF;" points="291.982,474.506 288.183,473.257 319.212,429.585 323.011,430.833 						"/>
						<polygon style="fill:#FFFFFF;" points="245.606,464.165 216.355,438.506 220.001,436.881 249.257,462.545 						"/>
					</g>
				</g>
				<g>
					<path style="fill:#372B28;" d="M261.182,414.897c-0.059-0.742-1.154-1.525-2.385-2.179l0.024-0.1l-1.042-1.101
						c1.231-2.803,1.154-4.711,1.154-4.711l-2.485-5.017l-1.714,5.012l-0.43,1.036l-0.371-0.389
						c-0.094,0.701-0.147,1.266-0.188,1.755c-0.194,0.489-0.383,0.948-0.577,1.372c-0.365-1.678-0.954-3.263-0.954-3.263
						l-0.342,0.271c-0.224-2.061-1.225-4.758-1.225-4.758c-0.907,0.73-1.59,1.325-2.155,1.82c0.194-1.513,0.218-2.897,0.218-2.897
						l-1.025,0.336c0.642-2.008,0.695-5.194,0.695-5.194c-5.73,1.808-4.546,2.332-13.168,2.138c-5.96-0.135-7.573-1.749-7.573-1.749
						s3.91,4.8,9.646,6.637c-0.53-0.006-1.107-0.018-1.743-0.029c-5.966-0.135-7.567-1.749-7.567-1.749s4.976,6.119,11.961,7.185
						l-0.771,0.277c-5.606,2.038-7.685,1.119-7.685,1.119s5.176,2.933,11.054,2.691c-0.554,0.212-1.137,0.436-1.808,0.677
						c-5.606,2.038-7.691,1.125-7.691,1.125s6.902,3.91,13.81,2.326c-4.599,3.198-10.1,5.918-10.1,5.918s7.344-1.737,13.044-4.34
						l-0.124,0.212c-4.776,8.309-6.973,10.806-6.973,10.806s8.139-5.559,11.866-9.546c-0.306,1.007-0.713,2.244-1.26,3.828
						c-1.949,5.642-3.975,6.666-3.975,6.666S262.03,426.151,261.182,414.897z"/>
					<path style="fill:#372B28;" d="M276.087,413.955c0.053-0.736,1.154-1.525,2.385-2.167l-0.024-0.112l1.036-1.101
						c-1.231-2.803-1.148-4.711-1.148-4.711l2.479-5.017l1.725,5.012l0.424,1.042l0.371-0.395c0.094,0.701,0.141,1.266,0.183,1.761
						c0.194,0.483,0.383,0.936,0.577,1.372c0.377-1.672,0.966-3.268,0.966-3.268l0.33,0.277c0.218-2.067,1.225-4.764,1.225-4.764
						c0.913,0.736,1.59,1.325,2.161,1.826c-0.194-1.519-0.218-2.897-0.218-2.897l1.019,0.33c-0.636-2.008-0.689-5.188-0.689-5.188
						c5.736,1.808,4.54,2.332,13.168,2.132c5.96-0.13,7.561-1.743,7.561-1.743s-3.898,4.794-9.64,6.637
						c0.536-0.006,1.107-0.024,1.743-0.024c5.966-0.141,7.567-1.755,7.567-1.755s-4.97,6.113-11.949,7.179l0.771,0.277
						c5.6,2.049,7.679,1.119,7.679,1.119s-5.182,2.939-11.054,2.697c0.548,0.206,1.137,0.43,1.808,0.677
						c5.606,2.043,7.691,1.119,7.691,1.119s-6.908,3.916-13.821,2.326c4.611,3.204,10.105,5.924,10.105,5.924
						s-7.338-1.749-13.038-4.346l0.13,0.218c4.764,8.309,6.973,10.812,6.973,10.812s-8.15-5.559-11.866-9.558
						c0.3,1.013,0.701,2.25,1.248,3.828c1.949,5.642,3.981,6.672,3.981,6.672S275.239,425.215,276.087,413.955z"/>
				</g>
				<path style="fill:#FFDECC;" d="M306.109,383.739c-2.697-1.16-6.513,1.684-8.515,6.348c-2.002,4.67-1.443,9.393,1.254,10.553
					c2.703,1.154,6.519-1.684,8.515-6.354C309.372,389.616,308.807,384.899,306.109,383.739z"/>
				<path style="fill:#FFBF06;" d="M235.241,423.242h63.63c4.37,0,7.944,3.575,7.944,7.944v23.574c0,4.37-3.575,7.944-7.944,7.944
					h-63.63c-4.37,0-7.944-3.575-7.944-7.944v-23.574C227.297,426.817,230.872,423.242,235.241,423.242z"/>
				<g>
					<path style="fill:#FFDECC;" d="M280.74,424.909c-0.247,0.395-24.816,0.783-25.093,1.172
						c-7.715,11.012-5.07,17.249-18.327,20.211c-13.191,2.956,16.854,0.966,16.837,12.125l33.844-1.402
						c-0.018-11.166,28.008-8.227,14.552-11.236c-9.74-2.173-5.053-6.531-13.68-12.638
						C285.574,430.809,282.76,428.095,280.74,424.909z"/>
					<path style="fill:#FFDECC;" d="M281.47,401.4v31.571c-7.084,9.316-18.686,8.992-25.77,0V401.4
						C255.7,384.357,281.47,384.357,281.47,401.4z"/>
				</g>
				<path style="fill:#F7C5AA;" d="M281.47,401.4v21.141c-4.876,3.81-9.575,5.954-12.885,5.954c-3.31,0-8.009-2.144-12.885-5.954
					V401.4C255.7,384.357,281.47,384.357,281.47,401.4z"/>
				<g>
					<path style="fill:#FFDECC;" d="M268.585,423.236c-8.386,0-26.112-13.185-31.594-32.077
						c-5.53-19.074,4.894-46.435,31.594-46.435c26.707,0,37.124,27.354,31.589,46.435
						C294.697,410.051,276.977,423.236,268.585,423.236z"/>
					<path style="fill:#FFDECC;" d="M231.643,383.739c2.697-1.16,6.513,1.684,8.515,6.348c2.002,4.67,1.437,9.393-1.26,10.553
						c-2.697,1.154-6.513-1.684-8.515-6.354C228.381,389.616,228.946,384.899,231.643,383.739z"/>
				</g>
				<g>
					<path style="fill:#4E3327;" d="M240.695,369.381c-1.031,9.01-2.102,7.308,0.53,20.311c1.826,8.987,4.582,11.083,4.582,11.083
						s-17.549-10.865-14.31-27.49C231.997,370.718,240.695,369.387,240.695,369.381z"/>
					<path style="fill:#4E3327;" d="M293.76,372.338c1.508,8.227,2.332,6.766,0.883,18.332c-1.001,7.997-3.274,9.705-3.274,9.705
						s14.693-8.586,10.736-23.862C301.498,374.163,293.76,372.338,293.76,372.338z"/>
				</g>
				<path style="fill:#FFBF06;" d="M231.095,381.377c0,0,10.977-12.308,26.701-12.337c15.712-0.035,30.529,4.976,39.191,13.863
					c8.669,8.892,10.147,7.414,10.147,7.414c0-0.006,0.901-1.525,1.672-3.963c0.995-3.186,3.545-4.676,3.239-6.496
					c-0.306-1.82-1.001-7.079-0.548-8.692c0.448-1.614-1.496-11.389-8.533-18.409c-7.043-7.026-13.068-20.017-32.219-21.601
					c-19.157-1.596-16.136,3.192-20.252,4.164c-4.122,0.978-11.713-0.018-18.474,14.905c-2.939,6.472-1.79,11.154-2.385,14.664
					c-0.76,4.576-2.727,7.114-2.732,8.669C226.891,376.301,231.095,381.377,231.095,381.377z"/>
				<path style="fill:#9B73A7;" d="M248.686,478.522l-0.112-0.212c-1.39-2.626-3.569-4.964-5.683-7.226
					c-1.584-1.69-3.215-3.445-4.476-5.282c-1.49-2.191-2.409-4.829-2.738-7.868c-1.531,0.895-3.315,1.99-5.012,3.051l-0.677,0.43
					v-0.724c0-15.459,6.142-26.389,18.403-30.234l0.224-0.065c-0.318,1.455-1.631,1.937-0.548,3.062
					c2.78,2.862,10.241,4.57,19.958,4.57h0.895c4.57-0.041,20.729,1.519,19.834-4.964c14.452,4.487,19.239,12.09,19.239,27.631v0.76
					l-0.695-0.477c-1.69-1.16-3.48-2.356-4.982-3.315c-0.312,3.156-1.237,5.877-2.762,8.091c-1.26,1.855-2.909,3.616-4.499,5.318
					c-2.114,2.261-4.299,4.611-5.683,7.243l-0.112,0.212C277.041,493.115,263.773,496.024,248.686,478.522z"/>
				<g>
					<path style="fill:#8E9095;" d="M280.693,374.776c10.259-0.159,13.15,6.042,14.746,12.767c0.989,4.158,0.389,7.467-1.79,9.858
						c-2.132,2.332-5.777,3.657-10.259,3.728c-6.254,0.094-9.817-4.346-12.473-8.71c-0.1-0.159-0.194-0.318-0.283-0.477
						c-0.783-1.325-1.154-1.82-1.955-1.808c-0.807,0.012-1.154,0.524-1.884,1.867c-0.082,0.159-0.171,0.324-0.259,0.489
						c-2.485,4.434-5.865,8.987-12.114,9.081c-4.487,0.071-8.18-1.142-10.406-3.41c-2.273-2.314-3.009-5.606-2.191-9.793
						c1.325-6.766,3.969-13.056,14.228-13.215L280.693,374.776z"/>
					<path style="fill:#48494B;" d="M280.693,374.776c10.259-0.159,13.15,6.042,14.746,12.767c0.989,4.158,0.389,7.467-1.79,9.858
						c-2.132,2.332-5.777,3.657-10.259,3.728c-6.254,0.094-9.817-4.346-12.473-8.71c-0.1-0.159-0.194-0.318-0.283-0.477
						c-0.783-1.325-1.154-1.82-1.955-1.808c-0.807,0.012-1.154,0.524-1.884,1.867c-0.082,0.159-0.171,0.324-0.259,0.489
						c-2.485,4.434-5.865,8.987-12.114,9.081c-4.487,0.071-8.18-1.142-10.406-3.41c-2.273-2.314-3.009-5.606-2.191-9.793
						c1.325-6.766,3.969-13.056,14.228-13.215L280.693,374.776z M280.669,373.486L280.669,373.486l-24.645,0.377
						c-11.36,0.177-14.287,7.32-15.653,14.287c-0.901,4.582-0.047,8.233,2.52,10.853c2.52,2.568,6.625,3.94,11.554,3.857
						c3.204-0.047,6.066-1.154,8.492-3.292c2.232-1.967,3.804-4.517,4.923-6.513c0.094-0.165,0.177-0.336,0.271-0.495
						c0.118-0.224,0.377-0.701,0.577-0.989c0.206,0.283,0.489,0.754,0.612,0.966c0.094,0.165,0.194,0.324,0.289,0.489
						c1.201,1.967,2.868,4.464,5.182,6.36c2.515,2.061,5.418,3.08,8.621,3.033c4.929-0.077,8.975-1.572,11.389-4.211
						c2.462-2.703,3.168-6.378,2.085-10.924C295.244,380.364,292.029,373.309,280.669,373.486z"/>
					<path style="fill:#A7FFFF;" d="M294.231,387.761c-1.555-6.554-4.217-12.055-13.515-11.913
						c-1.013,0.018-23.632,0.365-24.645,0.383c-9.299,0.141-11.737,5.718-13.032,12.32c-1.873,9.558,5.218,12.043,11.36,11.949
						c4.964-0.077,8.062-3.18,11.024-8.486c0.824-1.46,1.39-2.927,3.233-2.956c1.843-0.029,2.473,1.419,3.345,2.856
						c3.18,5.212,6.395,8.215,11.366,8.139C289.508,399.957,296.493,397.26,294.231,387.761z"/>
					<g>
						<path style="fill:#48494B;" d="M240.424,388.279c0.477-2.432,1.148-4.882,2.291-7.055l-8.233-1.843
							c-1.413-0.294-2.838,0.471-3.18,1.708l-2.014,7.349c-0.165,0.595-0.041,1.231,0.324,1.749
							c0.371,0.524,0.966,0.895,1.649,1.031l8.91,1.943C239.994,391.677,240.076,390.046,240.424,388.279z"/>
						<path style="fill:#48494B;" d="M296.887,387.284c-0.571-2.42-1.337-4.841-2.573-6.973l7.002-1.955
							c1.402-0.336,2.85,0.377,3.239,1.602l2.314,7.285c0.183,0.589,0.094,1.225-0.253,1.755c-0.353,0.536-0.925,0.925-1.614,1.084
							l-7.662,2.073C297.453,390.664,297.305,389.039,296.887,387.284z"/>
					</g>
				</g>
				<path style="fill:#303C4E;" d="M231.184,440.408c1.319-1.714,2.862-3.321,4.558-4.747c1.46-1.231,3.039-2.326,4.688-3.262
					l1.013-0.548c1.137-0.583,6.395-1.525,6.395-1.525c0-0.006,1.089,9.399-1.154,17.031c-1.684,5.748-6.961,8.751-6.961,8.751
					c-1.066,1.254-2.102,2.462-3.127,3.651c-10.488,12.231-6.855,19.687-20.553,18.827c-11.601-0.73-20.352-7.367-25.758-12.279
					c-4.275-6.566,1.402-13.132,7.102-11.554l3.875,1.902C225,471.438,211.244,459.648,231.184,440.408z"/>
				<path style="fill:#C46065;" d="M260.964,430.933c-1.79,2.438-2.338,1.508-3.327,6.843c-1.737,9.369-0.053,24.045-0.053,24.045
					s-10.429,0.477-12.65-3.84c-0.442-0.877-3.586,0.395-5.194,2.261c-0.813,0.954,1.325-20.717,4.552-25.97
					c0.636-1.025,5.165-6.272,6.702-5.659C252.526,429.214,260.964,430.933,260.964,430.933z"/>
				<path style="fill:#D16E70;" d="M255.888,419.95c-0.277,2.974,0.218,3.728,1.508,3.875c1.537,0.701,4.387,1.39,11.219,1.39
					c6.837,0,11.389-1.272,12.608-2.25c0.247-1.125,0.247-2.591,0.247-2.591s3.263,0.13,2.909,1.896
					c-0.353,1.767-0.824,4.499,0.524,5.995c1.349,1.49,3.357,1.137,0.012,3.168c-5.648,3.433-7.98,3.192-16.436,3.192
					c-8.451,0-11.342-1.007-15.671-2.833c-3.045-1.29-5.171-2.285-2.98-3.963c2.208-1.678,1.92-1.926,3.074-3.368
					c1.148-1.443-2.049-2.273-0.094-3.392C254.757,419.95,255.888,419.95,255.888,419.95z"/>
				<path style="fill:#D75C6A;" d="M274.226,406.612c0,0-2.562,9.522-5.718,9.522c-3.151,0-5.565-9.328-5.565-9.328
					s2.414-1.425,5.565-1.425C271.665,405.381,274.226,406.617,274.226,406.612z"/>
				<path style="fill:#FFCF7F;" d="M196.421,454.566c1.278,1.496,2.049,3.445,2.049,5.571c0,3.822-2.485,7.055-5.924,8.15
					c-0.807-0.683-1.566-1.343-2.261-1.979C186.251,460.113,191.068,453.93,196.421,454.566z"/>
				<polygon style="fill:#FFFFFF;" points="190.856,467.321 220.419,436.528 217.533,433.754 187.97,464.565 				"/>
				<path style="fill:#FFCF7F;" d="M191.327,452.61c0.877-0.801,3.239,0.365,5.271,2.603c2.026,2.238,2.956,4.699,2.079,5.5
					c-0.883,0.801-3.239-0.365-5.271-2.603C191.374,455.873,190.444,453.411,191.327,452.61z"/>
				<path style="fill:#FFA940;" d="M188.76,454.153c0.883-0.801,3.245,0.365,5.271,2.603c2.032,2.238,2.962,4.705,2.079,5.506
					c-0.877,0.795-3.239-0.371-5.265-2.609C188.813,457.416,187.876,454.954,188.76,454.153z"/>
				<path style="fill:#FFCF7F;" d="M187.164,455.602c0.883-0.801,3.245,0.371,5.277,2.609c2.026,2.238,2.956,4.699,2.079,5.494
					c-0.889,0.801-3.245-0.365-5.277-2.603C187.217,458.865,186.28,456.403,187.164,455.602z"/>
				<path style="fill:#FFA940;" d="M185.114,457.263c0.883-0.801,3.239,0.371,5.271,2.609c2.026,2.238,2.962,4.699,2.079,5.494
					c-0.889,0.801-3.245-0.371-5.271-2.603C185.161,460.525,184.231,458.058,185.114,457.263z"/>
				<path style="fill:#303C4E;" d="M305.414,443.141c-1.319-1.714-2.868-3.327-4.564-4.741c-1.455-1.231-3.033-2.332-4.688-3.268
					l-1.013-0.548c-1.137-0.583-6.395-1.525-6.395-1.525c0-0.006-1.084,9.393,1.154,17.037c1.69,5.742,6.967,8.739,6.967,8.739
					c1.06,1.26,2.102,2.462,3.121,3.657c10.494,12.226,6.855,19.687,20.558,18.821c11.595-0.718,20.346-7.361,25.753-12.267
					c4.275-6.578-1.396-13.138-7.096-11.56l-3.875,1.908C311.592,474.17,325.355,462.38,305.414,443.141z"/>
				<path style="fill:#FFCF7F;" d="M340.183,457.292c-1.29,1.502-2.061,3.445-2.061,5.583c0,3.816,2.485,7.055,5.924,8.144
					c0.813-0.677,1.566-1.337,2.261-1.973C350.342,462.846,345.524,456.656,340.183,457.292z"/>
				<polygon style="fill:#FFFFFF;" points="349.558,472.456 316.904,437.67 319.371,435.073 352.02,469.859 				"/>
				<path style="fill:#FFCF7F;" d="M345.271,455.343c-0.883-0.801-3.239,0.365-5.271,2.609c-2.032,2.232-2.962,4.694-2.079,5.494
					c0.883,0.807,3.239-0.365,5.271-2.609C345.218,458.6,346.154,456.144,345.271,455.343z"/>
				<path style="fill:#FFA940;" d="M347.833,456.886c-0.883-0.801-3.245,0.371-5.271,2.609c-2.026,2.238-2.956,4.699-2.079,5.5
					c0.883,0.801,3.239-0.371,5.271-2.609C347.786,460.148,348.716,457.687,347.833,456.886z"/>
				<path style="fill:#FFCF7F;" d="M349.429,458.335c-0.877-0.807-3.245,0.371-5.271,2.609c-2.026,2.238-2.962,4.699-2.079,5.5
					c0.883,0.801,3.245-0.371,5.271-2.609C349.382,461.597,350.312,459.135,349.429,458.335z"/>
				<path style="fill:#FFA940;" d="M351.484,459.995c-0.883-0.801-3.245,0.371-5.271,2.609c-2.032,2.238-2.962,4.699-2.079,5.5
					c0.883,0.801,3.239-0.371,5.271-2.609C351.431,463.258,352.367,460.796,351.484,459.995z"/>
				<g>
					<polygon style="fill:#FFFFFF;" points="237.579,423.242 242.891,423.242 242.891,471.084 238.934,466.526 					"/>
					<polygon style="fill:#FFFFFF;" points="300.209,423.242 294.903,423.242 294.903,471.408 298.854,466.815 					"/>
				</g>
				<path style="fill:#FFD34E;" d="M442.634,237.621c-3.987,1.59-8.321,2.462-12.856,2.462c-19.587,0-35.458-16.259-35.458-36.317
					c0-17.914,12.65-32.79,29.309-35.77C439.024,187.017,446.615,210.338,442.634,237.621z M92.628,270.676
					c10.712,0,20.311,4.858,26.813,12.549c-6.172,8.733-12.108,18.197-17.744,28.473c-5.759-14.463-9.681-28.061-12.108-40.893
					C90.59,270.723,91.603,270.676,92.628,270.676z M107.115,174.144c10.588,6.284,17.714,18.014,17.714,31.447
					c0,20.058-15.871,36.323-35.458,36.323c-0.913,0-1.802-0.041-2.697-0.106C86.586,215.067,94.13,192.576,107.115,174.144z
					 M175.904,195.574c12.208,0,22.979,6.319,29.357,15.947c-20.523,8.362-40.569,21.477-59.202,39.992
					c-3.557-5.659-5.612-12.396-5.612-19.622C140.446,211.839,156.317,195.574,175.904,195.574z M271.247,195.886
					c7.65,0,14.734,2.485,20.529,6.702c-12.231-2.261-24.781-3.08-37.43-2.314C259.368,197.476,265.128,195.886,271.247,195.886z
					 M236.078,119.924c19.587,0,35.458,16.259,35.458,36.317s-15.871,36.317-35.458,36.317s-35.463-16.259-35.463-36.317
					S216.491,119.924,236.078,119.924z M180.998,122.085c-1.001,19.145-16.471,34.345-35.41,34.345
					c-6.443,0-12.491-1.761-17.696-4.835C142.837,138.91,160.975,129.093,180.998,122.085z M347.568,120.701
					c-2.721,17.284-17.355,30.481-34.998,30.481c-19.587,0-35.458-16.254-35.458-36.317c0-2.067,0.165-4.093,0.495-6.077
					C301.846,109.795,325.743,113.823,347.568,120.701z M337.639,188.419c19.587,0,35.458,16.259,35.458,36.317
					c0,5.53-1.213,10.771-3.368,15.464c-18.362-15.688-39.733-27.366-62.6-33.985C313.306,195.562,324.66,188.419,337.639,188.419z"
					/>
			</g>
			<path d="M309.36,65.457c0,0,6.766-1.449,12.426-0.365c5.671,1.089,11.584,5.795,17.979,6.154c6.39,0.359,5.065-2.049,5.065-2.049
				s-4.105,0.607-5.188-2.891c-1.084-3.498,3.38-6.284,10.253-11.101c6.878-4.823,8.203-9.646,6.878-12.667
				c0,0-1.213,1.932-6.878,4.947c-5.671,3.015-9.77,8.568-14.234,12.538c-4.464,3.987-4.705,4.228-8.928,3.38
				C322.516,62.56,313.465,61.234,309.36,65.457z"/>
		</g>
	</g>
</g>
<g>
</g>
<g>
</g>
<g>
</g>
<g>
</g>
<g>
</g>
<g>
</g>
<g>
</g>
<g>
</g>
<g>
</g>
<g>
</g>
<g>
</g>
<g>
</g>
<g>
</g>
<g>
</g>
<g>
</g>
</svg>
