<?xml version="1.0" encoding="iso-8859-1"?>
<!-- Generator: Adobe Illustrator 19.0.0, SVG Export Plug-In . SVG Version: 6.00 Build 0)  -->
<svg version="1.1" id="Layer_1" xmlns="http://www.w3.org/2000/svg" xmlns:xlink="http://www.w3.org/1999/xlink" x="0px" y="0px"
	 viewBox="0 0 512 512" style="enable-background:new 0 0 512 512;" xml:space="preserve">
<path style="fill:#B1E9F1;" d="M256.005,0C397.384,0,512,114.616,512,256.005C512,397.384,397.384,512,256.005,512
	C114.616,512,0,397.384,0,256.005C0,114.616,114.616,0,256.005,0z"/>
<path style="fill:#FFCB00;" d="M193.462,14.867c31.677,0,57.366,25.68,57.366,57.366c0,31.677-25.689,57.366-57.366,57.366
	c-31.687,0-57.376-25.689-57.376-57.366C136.085,40.546,161.775,14.867,193.462,14.867z"/>
<g>
	<path style="fill:#FFFFFF;" d="M116.892,70.309c4.239,0,8.234,1.016,11.78,2.794c3.829-3.751,9.074-6.066,14.867-6.066
		c10.022,0,18.422,6.935,20.669,16.273c5.011,1.504,9.025,5.284,10.862,10.139c0.606-0.068,1.211-0.098,1.836-0.098
		c9.25,0,16.771,7.511,16.771,16.781c0,9.26-7.521,16.771-16.771,16.771c-2.891,0-5.607-0.733-7.971-2.012
		c-2.041,6.964-8.478,12.053-16.107,12.053c-4.659,0-8.869-1.895-11.917-4.972c-3.038,3.077-7.257,4.972-11.917,4.972
		c-4.425,0-8.459-1.719-11.458-4.522c-3.057,3.35-7.472,5.46-12.376,5.46c-4.591,0-8.742-1.836-11.77-4.825
		c-1.387,0.313-2.823,0.469-4.298,0.469c-11.038,0-19.985-8.947-19.985-19.985s8.947-19.985,19.985-19.985
		c0.596,0,1.192,0.039,1.778,0.088C92.296,80.526,103.402,70.309,116.892,70.309z"/>
	<path style="fill:#FFFFFF;" d="M291.286,30.456c4.239,0,8.234,1.006,11.77,2.784c3.829-3.751,9.084-6.066,14.867-6.066
		c10.022,0,18.432,6.945,20.678,16.273c5.011,1.504,9.025,5.284,10.862,10.149c0.596-0.068,1.211-0.107,1.827-0.107
		c9.26,0,16.771,7.511,16.771,16.781c0,9.26-7.511,16.771-16.771,16.771c-2.882,0-5.597-0.733-7.971-2.012
		c-2.032,6.964-8.469,12.053-16.097,12.053c-4.659,0-8.879-1.895-11.917-4.972c-3.038,3.077-7.258,4.972-11.917,4.972
		c-4.425,0-8.459-1.719-11.458-4.522c-3.067,3.36-7.472,5.46-12.376,5.46c-4.591,0-8.752-1.836-11.77-4.825
		c-1.387,0.313-2.833,0.469-4.308,0.469c-11.038,0-19.975-8.947-19.975-19.985s8.938-19.975,19.975-19.975
		c0.606,0,1.201,0.029,1.788,0.078C266.681,40.663,277.797,30.456,291.286,30.456z"/>
</g>
<path style="fill:#7FC583;" d="M0.254,267.13h511.492C505.924,403.353,393.663,512,256.005,512S6.085,403.353,0.254,267.13z"/>
<g>
	<g>
		<path style="fill:#8B6E62;" d="M403.059,194.516c-0.606,0-1.221-0.225-1.709-0.654l-31.472-27.887
			c-1.065-0.938-1.162-2.569-0.215-3.634c0.938-1.074,2.579-1.172,3.643-0.225l31.462,27.887c1.065,0.947,1.162,2.569,0.225,3.643
			C404.476,194.214,403.773,194.516,403.059,194.516z"/>
		<path style="fill:#8B6E62;" d="M405.267,200.778c-1.016,0-1.973-0.606-2.383-1.592c-0.547-1.319,0.078-2.833,1.397-3.37
			l41.884-17.348c1.309-0.547,2.823,0.078,3.37,1.397c0.547,1.309-0.078,2.823-1.397,3.37l-41.884,17.348
			C405.931,200.709,405.589,200.778,405.267,200.778z"/>
	</g>
	<path style="fill:#689D38;" d="M391.924,165.32c-0.117,13.47-11.135,24.293-24.595,24.175
		c-13.47-0.117-24.293-11.135-24.175-24.605c0.117-13.47,11.126-24.293,24.595-24.175
		C381.219,140.832,392.041,151.851,391.924,165.32z"/>
	<path style="fill:#8B6E62;" d="M402.395,288.131c-0.01,0-0.029,0-0.039,0c-2.852-0.02-5.138-2.354-5.118-5.206l1.26-159.753
		c0.029-2.842,2.335-5.118,5.167-5.118c0.01,0,0.029,0,0.039,0c2.842,0.02,5.138,2.344,5.118,5.196l-1.27,159.763
		C407.533,285.846,405.228,288.131,402.395,288.131z"/>
	<path style="fill:#9BCB64;" d="M445.374,125.458c-0.195,23.052-19.047,41.572-42.099,41.367
		c-23.042-0.205-41.562-19.047-41.357-42.099c0.195-23.042,19.047-41.562,42.09-41.367
		C427.059,83.564,445.579,102.416,445.374,125.458z"/>
	<path style="fill:#7CB142;" d="M445.374,125.458c-0.195,22.808-18.647,41.171-41.367,41.367V83.359
		C427.059,83.564,445.579,102.416,445.374,125.458z"/>
	<path style="fill:#689D38;" d="M477.188,170.869c-0.156,17.68-14.613,31.882-32.292,31.726
		c-17.68-0.156-31.882-14.613-31.736-32.292c0.156-17.68,14.613-31.882,32.292-31.726
		C463.132,138.732,477.334,153.189,477.188,170.869z"/>
	<g>
		<path style="fill:#8B6E62;" d="M302.861,177.325c-0.596,0-1.201-0.205-1.69-0.635l-30.104-26.207
			c-1.074-0.938-1.192-2.569-0.254-3.643s2.569-1.182,3.643-0.244l30.104,26.207c1.074,0.938,1.182,2.569,0.244,3.643
			C304.297,177.032,303.584,177.325,302.861,177.325z"/>
		<path style="fill:#8B6E62;" d="M305.01,183.254c-0.996,0-1.954-0.586-2.374-1.573c-0.557-1.309,0.059-2.823,1.367-3.38
			l39.618-16.82c1.309-0.547,2.823,0.049,3.389,1.368c0.557,1.309-0.059,2.833-1.367,3.38l-39.628,16.82
			C305.694,183.186,305.352,183.254,305.01,183.254z"/>
	</g>
	<path style="fill:#9BCB64;" d="M292.077,149.575c0,12.786-10.373,23.15-23.159,23.15c-12.786,0-23.15-10.364-23.15-23.15
		c0-12.786,10.364-23.16,23.15-23.16C281.704,126.415,292.077,136.789,292.077,149.575z"/>
	<path style="fill:#8B6E62;" d="M302.861,267.121c-2.852,0-5.157-2.305-5.157-5.157V109.497c0-2.842,2.305-5.157,5.157-5.157
		s5.167,2.315,5.167,5.157v152.466C308.028,264.815,305.713,267.121,302.861,267.121z"/>
	<path style="fill:#689D38;" d="M342.489,111.285c0,21.89-17.738,39.628-39.628,39.628c-21.88,0-39.618-17.738-39.618-39.628
		c0-21.88,17.738-39.618,39.618-39.618C324.751,71.667,342.489,89.405,342.489,111.285z"/>
	<path style="fill:#54892E;" d="M342.489,111.285c0,21.89-17.738,39.628-39.628,39.628V71.667
		C324.751,71.667,342.489,89.405,342.489,111.285z"/>
	<path style="fill:#9BCB64;" d="M373.063,154.126c0,16.791-13.607,30.397-30.397,30.397c-16.781,0-30.388-13.607-30.388-30.397
		c0-16.781,13.607-30.388,30.388-30.388C359.456,123.739,373.063,137.345,373.063,154.126z"/>
	<path style="fill:#8B6E62;" d="M73.522,191.166c-0.996,0-1.954-0.586-2.374-1.573c-0.557-1.309,0.059-2.823,1.368-3.38
		l34.988-14.847c1.299-0.547,2.823,0.049,3.38,1.367c0.557,1.309-0.049,2.823-1.368,3.38l-34.979,14.847
		C74.206,191.107,73.864,191.166,73.522,191.166z"/>
	<path style="fill:#9BCB64;" d="M128.955,172.568c0,11.292-9.152,20.444-20.444,20.444s-20.444-9.152-20.444-20.444
		c0-11.292,9.152-20.454,20.444-20.454S128.955,161.277,128.955,172.568z"/>
	<path style="fill:#8B6E62;" d="M73.522,275.238c-2.842,0-5.157-2.315-5.157-5.167V146.596c0-2.852,2.315-5.157,5.157-5.157
		c2.852,0,5.167,2.305,5.167,5.157v123.475C78.69,272.923,76.375,275.238,73.522,275.238z"/>
	<path style="fill:#689D38;" d="M112.301,140.588c0,21.421-17.357,38.778-38.778,38.778c-21.411,0-38.778-17.357-38.778-38.778
		c0-21.411,17.367-38.778,38.778-38.778C94.943,101.81,112.301,119.177,112.301,140.588z"/>
	<path style="fill:#54892E;" d="M112.301,140.588c0,21.421-17.357,38.778-38.778,38.778V101.81
		C94.943,101.81,112.301,119.177,112.301,140.588z"/>
	<path style="fill:#8B6E62;" d="M73.522,206.785c-0.596,0-1.201-0.205-1.69-0.625l-26.588-23.15
		c-1.074-0.938-1.182-2.569-0.254-3.634c0.938-1.084,2.569-1.192,3.643-0.254l26.588,23.14c1.074,0.938,1.182,2.569,0.254,3.634
		C74.968,206.492,74.245,206.785,73.522,206.785z"/>
	<path style="fill:#9BCB64;" d="M65.376,175.577c0,14.828-12.014,26.842-26.832,26.842c-13.763,0-25.103-10.364-26.656-23.706
		c2.461-7.785,5.284-15.414,8.449-22.847c4.776-4.425,11.174-7.121,18.207-7.121C53.362,148.744,65.376,160.759,65.376,175.577z"/>
	<path style="fill:#FFFFFF;fill-opacity:0.102;" d="M68.365,196.294L68.365,196.294l-7.228-6.29
		c2.188-3.399,3.624-7.326,4.083-11.546c1.026,0.225,2.081,0.381,3.145,0.527V196.294z"/>
	<path style="fill:#8B6E62;" d="M210.721,196.9c-1.006,0-1.963-0.586-2.374-1.573c-0.557-1.309,0.049-2.823,1.367-3.38
		l41.728-17.719c1.299-0.547,2.823,0.059,3.389,1.377c0.557,1.309-0.059,2.823-1.377,3.38l-41.728,17.709
		C211.405,196.841,211.053,196.9,210.721,196.9z"/>
	<path style="fill:#689D38;" d="M276.84,175.205c0,13.47-10.92,24.39-24.39,24.39c-13.47,0-24.39-10.92-24.39-24.39
		s10.92-24.39,24.39-24.39C265.919,150.815,276.84,161.736,276.84,175.205z"/>
	<path style="fill:#8B6E62;" d="M210.721,293.689c-2.852,0-5.157-2.305-5.157-5.157v-144.3c0-2.852,2.305-5.167,5.157-5.167
		s5.157,2.315,5.157,5.167v144.3C215.879,291.384,213.573,293.689,210.721,293.689z"/>
	<path style="fill:#9BCB64;" d="M252.449,137.062c0,23.052-18.676,41.738-41.728,41.738s-41.738-18.686-41.738-41.738
		c0-23.042,18.686-41.728,41.738-41.728S252.449,114.02,252.449,137.062z"/>
	<path style="fill:#7CB142;" d="M252.449,137.062c0,23.052-18.676,41.738-41.728,41.738V95.334
		C233.773,95.334,252.449,114.02,252.449,137.062z"/>
	<path style="fill:#8B6E62;" d="M210.721,215.527c-0.606,0-1.201-0.205-1.69-0.635l-31.716-27.604
		c-1.074-0.938-1.192-2.569-0.254-3.634c0.938-1.084,2.569-1.192,3.643-0.254l31.706,27.604c1.074,0.938,1.192,2.569,0.254,3.643
		C212.157,215.234,211.444,215.527,210.721,215.527z"/>
	<path style="fill:#689D38;" d="M200.993,178.8c0,17.68-14.329,32.009-32.009,32.009s-32.009-14.329-32.009-32.009
		s14.329-32.009,32.009-32.009S200.993,161.12,200.993,178.8z"/>
	<path style="fill:#9BCB64;" d="M470.233,232.123c19.926,0,36.688,13.519,41.63,31.882c-0.117,3.77-0.303,7.511-0.576,11.233
		h-84.169C427.118,251.424,446.419,232.123,470.233,232.123z"/>
	<path style="fill:#7CB142;" d="M470.233,232.123c19.926,0,36.688,13.519,41.63,31.882c-0.117,3.77-0.303,7.511-0.576,11.233
		h-41.054V232.123z"/>
	<path style="fill:#9BCB64;" d="M406.976,244.577c16.937,0,30.661,13.724,30.661,30.661h-61.322
		C376.315,258.3,390.039,244.577,406.976,244.577z"/>
	<path style="fill:#7CB142;" d="M406.976,244.577c16.937,0,30.661,13.724,30.661,30.661h-30.661V244.577z"/>
	<path style="fill:#689D38;" d="M442.443,244.596c16.918,0,30.632,13.714,30.632,30.642h-61.264
		C411.811,258.31,425.525,244.596,442.443,244.596z"/>
	<path style="fill:#54892E;" d="M442.443,244.596c16.918,0,30.632,13.714,30.632,30.642h-30.632V244.596z"/>
	<path style="fill:#9BCB64;" d="M49.689,259.775c-19.77,0-35.799,16.029-35.799,35.799h71.598
		C85.488,275.804,69.459,259.775,49.689,259.775z"/>
	<path style="fill:#7CB142;" d="M49.689,295.574h35.799c0-19.77-16.029-35.799-35.799-35.799V295.574z"/>
	<path style="fill:#9BCB64;" d="M95.793,270.119c-14.066,0-25.465,11.399-25.465,25.455h50.92
		C121.248,281.518,109.849,270.119,95.793,270.119z"/>
	<path style="fill:#7CB142;" d="M98.118,295.574h23.13c0-13.274-10.159-24.175-23.13-25.348V295.574z"/>
	<path style="fill:#689D38;" d="M66.343,270.139c-14.056,0-25.445,11.389-25.445,25.435h50.881
		C91.778,281.528,80.389,270.139,66.343,270.139z"/>
	<path style="fill:#54892E;" d="M68.365,295.574h23.413c0-13.362-10.305-24.322-23.404-25.357h-0.01V295.574z"/>
	<path style="fill:#7CB142;" d="M283.042,246.667c-21.548,0-39.022,17.475-39.022,39.022h78.045
		C322.065,264.141,304.6,246.667,283.042,246.667z"/>
	<g>
		<path style="fill:#9BCB64;" d="M283.042,285.689h39.022c0-21.548-17.475-39.022-39.022-39.022V285.689z"/>
		<path style="fill:#9BCB64;" d="M333.298,257.939c-15.326,0-27.75,12.425-27.75,27.75h55.501
			C361.048,270.364,348.623,257.939,333.298,257.939z"/>
	</g>
	<path style="fill:#689D38;" d="M301.191,257.968c-15.306,0-27.721,12.405-27.721,27.721h55.452
		C328.922,270.373,316.507,257.968,301.191,257.968z"/>
	<path style="fill:#54892E;" d="M301.191,285.689h27.731c0-15.306-12.415-27.721-27.731-27.721V285.689z"/>
	<path style="fill:#E5E5E5;" d="M464.968,285.318c-6.759,0-12.229,5.47-12.229,12.22h24.449
		C477.188,290.788,471.718,285.318,464.968,285.318z M154.517,282.866c-14.036,0-25.426,11.379-25.426,25.426h50.851
		C179.943,294.246,168.563,282.866,154.517,282.866z M176.495,265.05c-5.48,0-9.924,4.444-9.924,9.934h19.858
		C186.429,269.494,181.984,265.05,176.495,265.05z M257.167,313.195c-6.75,0-12.229,5.47-12.229,12.22h24.449
		C269.387,318.665,263.917,313.195,257.167,313.195z M384.256,299.618c-5.48,0-9.934,4.444-9.934,9.934h19.868
		C394.19,304.063,389.746,299.618,384.256,299.618z"/>
</g>
<path style="fill:#66B96A;" d="M249.05,322.954c117.155,0,212.128,17.23,212.128,38.485s-94.973,38.485-212.128,38.485
	s-212.118-17.23-212.118-38.485S131.895,322.954,249.05,322.954z"/>
<g>
</g>
<g>
</g>
<g>
</g>
<g>
</g>
<g>
</g>
<g>
</g>
<g>
</g>
<g>
</g>
<g>
</g>
<g>
</g>
<g>
</g>
<g>
</g>
<g>
</g>
<g>
</g>
<g>
</g>
</svg>
