<?xml version="1.0" encoding="iso-8859-1"?>
<!-- Generator: Adobe Illustrator 19.0.0, SVG Export Plug-In . SVG Version: 6.00 Build 0)  -->
<svg version="1.1" id="Layer_1" xmlns="http://www.w3.org/2000/svg" xmlns:xlink="http://www.w3.org/1999/xlink" x="0px" y="0px"
	 viewBox="0 0 512 512" style="enable-background:new 0 0 512 512;" xml:space="preserve">
<path style="fill:#606060;" d="M256.005,0C397.384,0,512,114.616,512,256.005C512,397.384,397.384,512,256.005,512
	C114.616,512,0,397.384,0,256.005C0,114.616,114.616,0,256.005,0z"/>
<path style="fill:#FFFFFF;" d="M360.95,72.399c76.492,0,138.508,62.006,138.508,138.498S437.442,349.405,360.95,349.405
	s-138.498-62.016-138.498-138.508S284.459,72.399,360.95,72.399z"/>
<path style="fill:#E5E5E5;" d="M240.308,278.969c-8.518-15.072-14.3-31.902-16.664-49.816c12.884,4.689,22.085,17.035,22.085,31.531
	C245.729,267.433,243.737,273.704,240.308,278.969z M330.338,121.043c-9.006,0-16.312-7.306-16.312-16.312
	c0-8.996,7.306-16.302,16.312-16.302c9.006,0,16.302,7.306,16.302,16.302C346.641,113.737,339.344,121.043,330.338,121.043z
	 M263.135,151.255c10.032,0,18.158,8.137,18.158,18.158c0,10.032-8.127,18.158-18.158,18.158c-10.022,0-18.158-8.127-18.158-18.158
	C244.977,159.391,253.114,151.255,263.135,151.255z M324.546,194.946c-10.119,0-18.334-8.205-18.334-18.334
	c0-10.119,8.215-18.334,18.334-18.334c10.129,0,18.334,8.215,18.334,18.334C342.88,186.741,334.675,194.946,324.546,194.946z
	 M407.738,134.825c-9.006,0-16.303-7.297-16.303-16.302s7.297-16.312,16.303-16.312c9.006,0,16.302,7.306,16.302,16.312
	S416.744,134.825,407.738,134.825z M381.756,203.747c-8.996,0-16.302-7.306-16.302-16.303c0-9.006,7.306-16.312,16.302-16.312
	c9.006,0,16.302,7.306,16.302,16.312C398.058,196.441,390.762,203.747,381.756,203.747z M462.526,116.755
	c13.724,14.798,24.244,32.595,30.485,52.297c-3.653,1.543-7.658,2.393-11.878,2.393c-16.849,0-30.505-13.655-30.505-30.505
	C450.629,131.094,455.288,122.332,462.526,116.755z M444.846,229.847c-9.006,0-16.302-7.297-16.302-16.303
	c0-9.006,7.297-16.302,16.302-16.302c9.006,0,16.303,7.297,16.303,16.302C461.149,222.55,453.852,229.847,444.846,229.847z
	 M450.15,293.865c-9.006,0-16.303-7.297-16.303-16.303c0-9.006,7.297-16.302,16.303-16.302c9.006,0,16.302,7.297,16.302,16.302
	C466.453,286.568,459.156,293.865,450.15,293.865z M387.363,318.724c-9.006,0-16.302-7.297-16.302-16.302
	c0-9.006,7.297-16.302,16.302-16.302c9.006,0,16.303,7.297,16.303,16.302C403.665,311.428,396.369,318.724,387.363,318.724z
	 M371.109,254.725c-4.239,0-7.687-3.438-7.687-7.687c0-4.249,3.448-7.687,7.687-7.687c4.249,0,7.697,3.438,7.697,7.687
	C378.806,251.287,375.358,254.725,371.109,254.725z M319.73,301.953c-9.006,0-16.302-7.297-16.302-16.302
	c0-9.006,7.297-16.302,16.302-16.302c9.006,0,16.303,7.297,16.303,16.302C336.033,294.656,328.736,301.953,319.73,301.953z
	 M285.934,229.847c5.275,0,9.543,4.278,9.543,9.543c0,5.275-4.269,9.543-9.543,9.543c-5.265,0-9.543-4.269-9.543-9.543
	C276.39,234.125,280.669,229.847,285.934,229.847z"/>
<g>
	<path style="fill:#DFDFDF;" d="M82.45,444.172c20.63,11.018,45.02,15.101,73.991,10.09c81.63,0,141.213-69.371,133.096-154.937
		c-0.479-5.099-1.201-10.139-2.129-15.111H1.553C8.469,347.246,38.261,403.392,82.45,444.172z"/>
	<path style="fill:#BBBBBB;" d="M288.59,291.325c-0.098,4.015-1.074,7.931-2.842,11.721c-0.078-0.01-0.156-0.01-0.225-0.02
		c-0.039,0.147,0.078,0.391-0.02,0.518c-0.244,0.313-0.498-0.029-0.576,0.42c-0.029,0.205,0,0.42,0.039,0.635
		c-0.078,0.166-0.166,0.322-0.254,0.479c-1.602,0.283,0.4,0.254-3.917,0.254l0.117,1.231l-0.742,0.078
		c-0.4,0.078-0.322-0.156-0.391,0.186l-0.684,0.957c-0.635,0.176-2.129,0.381-3.204,0.469c-1.553-0.117-2.657-0.342-3.673-0.557
		c-1.192-0.244-0.117-0.664-0.537-0.977c-0.674-0.244,0.254,0.068-0.762-0.117l-0.713-0.215h-4.835l-0.293-1.836
		c-3.067-0.01-1.963-0.078-2.745,0.283c-0.039-0.195,0.098-0.156-0.518-0.264l-0.391-0.049c-0.049,0-0.127-0.01-0.176-0.02
		c-0.606-0.117-0.361-0.352-0.381-0.518c-1.661-0.107-3.595-0.127-5.323-0.234c-1.553-0.098-0.381-0.068-1.651-0.147
		c0.02-0.01,0.098-0.02,0.117-0.039c0.01-0.02,0.088-0.029,0.098-0.039c0.01,0,0.068-0.02,0.078-0.029v-0.166c0,0,0-0.02,0-0.029
		v-0.02l-0.049-0.371c0,0,0-0.02,0-0.029l-0.029-0.449l0.01-0.02l-0.059-0.342c0-0.01,0-0.029,0-0.029c0-0.01,0.01-0.02,0.01-0.029
		c0,0,0.01-0.02,0.01-0.029l-0.059-0.283c0-0.01-0.029-0.02-0.029-0.029l0.361-0.176l-1.797,0.029l0.02,1.69l-5.704-0.01
		l-0.176-0.713h-3.077c0.049,0.332,0.205,1.465,0,1.582l-4.444,0.01c0.117,2.227,1.504,4.386,2.608,6.584l-6.076-0.205
		c-0.02,0.01-0.059,0.029-0.088,0.039c-0.01,0.01-0.039,0.029-0.078,0.039c-2.862-0.068-4.943-0.078-7.814,0l-0.606-0.244
		l-5.675,0.361c0.361-0.967,1.631-2.95,1.074-3.829c-0.254-0.088-1.348-0.186-1.875-0.322c-1.28-0.322-1.035,0.107-1.074-0.889
		c-0.01-0.42,0.488-0.508-0.772-0.576c-0.938,0.225,0.557,8.166,0.518,9.133l-4.542,0.01l1.7,1.367
		c-1.573,0.4-2.882,0.234-5.841,0.283c0,0.586,0.293,2.549-0.557,2.95l-1.016-2.96c-3.575-0.01-3.516,0.088-6.007-0.225l1.485-1.416
		h-4.64l-1.25-13.001c-0.938-0.01-0.459-0.02-0.938,0.078c-0.469,0.098-0.342,0.078-0.186,0.234c0.059,0.059,0.117,0.01,0.127,0.098
		l-0.176,0.205c0.088,0.215,0.264,0.039,0.117,0.264l0.02,0.361c-0.107,0.166,0.166,0.176,0.039,0.371
		c-0.01,0.01-0.049,0.059-0.02,0.098c0.078,0.127,0.254-0.088,0.147,0.166l-0.166,0.137c-0.029,0.176,0.293-0.029,0.205,0.225
		c-0.01,0.039-0.293-0.01-0.088,0.205c0.449,0.469-0.02-0.029-0.293,0.381c-0.889,0.039-1.162,0.029-1.934,0.068
		c-0.498,0.029,0.264,0.02-0.86,0.049c-0.488,0.02-0.947,0.01-1.446,0.01c0.4,1.27,1.133,2.1,0.02,3.38
		c-1.143,1.309-2.745,1.709-4.571,2.813l-1.465-0.127l-1.035,0.479c-1.27-0.117-3.555-0.42-4.737-0.469l-0.225,1.895l-0.899-2.032
		c-2.862-0.42-5.529-0.4-6.691-1.104c-0.518-0.313-0.264-0.352-1.944-0.459l0.479,4.884c-1.104-0.068-1.875-0.215-2.901-0.303
		c-0.449,0.645,0.371,2.882-0.352,3.243l-0.938-3.419c-1.407-0.147-10.618-1.201-11.067-1.377c-0.391-0.313-0.361-4.64-0.527-5.402
		l-1.641-0.01c-0.264-0.567-0.781,0.098-1.133-0.459c-0.059-0.078,0.059-0.225-0.02-0.322c-0.215-0.273-0.733-0.156-0.791-0.527
		c-0.059-0.342-0.488-0.283-0.684-0.586c-0.186-0.264,0.4-0.176-0.596-0.254c-0.82,0.293,0.527,6.896,0.479,7.873
		c-0.469,0.049-0.283,0.029-0.586,0.049l-0.469,1.221c-0.889,0.088-0.586,0-1.397,0.107l0.127,1.299h-1.885l-0.059,0.459h-3.409
		l-0.137,1.651c-0.029-0.078-0.518-1.446-0.664-1.651h-2.882l-0.039-0.44l-1.934-0.039l-0.264-2.608
		c-1.543-0.01-0.85,0.029-1.172-0.098c-0.352-0.283-0.469-4.874-0.567-5.919c-0.01-0.195,0.244-0.449-0.107-0.635
		c-0.293-0.156,0.205-0.059-0.567-0.127c-0.938,0.078-0.479,0.244-0.596,0.44c-0.137,0.195,0,0.098-0.527,0.205
		c-0.772,0.156-2.247,0.186-3.096,0.049c-0.049,0-0.107-0.01-0.156-0.02l-0.273-0.059c-0.742-0.195-0.303-0.322-0.567-0.586
		l-2.442-0.039l0.176-0.332c0.02-0.01,0.049-0.029,0.049-0.039c0.01-0.01,0.02-0.02,0.02-0.029c0-0.107-0.127-0.01-0.342-0.215
		c-0.186-0.186-0.098-0.625-0.117-0.84l-0.098-1.27c-0.029-0.391,0.498-0.137-0.449-0.4c-1.201,0.107-0.713,0.01-0.635,0.723
		c0.029,0.264,0.068,0.527,0.068,0.791l-1.221,0.078c0.186,0.879,0.596,1.241-3.985,1.631c-2.725-0.254-2.374-0.322-4.015-0.625
		c-0.567-0.098-0.088-0.742-0.264-0.928c-0.107-0.107-0.391-0.088-0.86-0.156c-0.928-0.117-1.797-0.107-3.018-0.078l0.029,0.713
		h-3.468l0.176,1.963h-5.441l-0.098-0.869c-2.129-0.01-1.514,0.01-2.667-0.225c-0.332-0.068-0.586-0.039-0.703-0.127
		c-0.02-0.205,0.117-0.44-0.293-0.586c-0.518-0.195-0.264,0.127-0.537-0.205c-0.068-0.098,0.029-0.225-0.049-0.322
		c-0.41-0.518-0.654,0.078-0.723-1.172l-0.205,0.078c-0.02,0.01-0.068,0.029-0.078,0.049c-0.02,0.01-0.039,0.029-0.059,0.039
		c-0.039,0.049-0.01,0.156-0.01,0.205l-4.288,0.01l-0.088-0.527l-2.266-0.01c0.488,0.361,0.205,0.713,0.264,1.094
		c0.049,0.303,0.488,0.166-0.703,0.293l0.459,0.078c0.293,0.049,0.078-0.01,0.361,0.078c-0.049,0.01-0.127,0.039-0.147,0.029
		l-0.195,0.156c0.293,0.049,0.078-0.01,0.371,0.078c-0.41,0.078,0.264,0.01-0.791,0.107l0.811,0.156l-0.772,0.156
		c1.319,0.107,0.244,0.01,0.801,0.107c-0.293,0.098-0.029,0.02-0.352,0.078l-0.44,0.078c1.114,0.098,0.391,0.029,0.821,0.107
		c-0.283,0.098-0.039,0.02-0.352,0.078l-0.283,0.059c-0.029,0-0.117,0.01-0.156,0.02l0.811,0.107l-0.811,0.156
		c1.104,0.117,0.498-0.029,0.811,0.166c-0.996,0.098-0.889,0.273-1.67,0.41c-0.068,0.01-0.4,0.068-0.44,0.078l-1.397,0.283
		c-0.049,0.01-0.166,0.01-0.244,0.02h-0.576c-0.762-0.088-0.527,0-1.104-0.107c-0.752-0.127,0.156-0.01-0.547-0.195
		c-1.973-0.049-6.281-0.147-7.931-0.361l-0.908-0.127c0.205-0.107,0.479-0.098,0.469-0.176l-0.547-0.147l0.83-0.107
		c-0.82-0.156-0.43,0.029-0.86-0.156c0.654-0.234,0.576-0.02-0.02-0.264c0.225-0.088,0.41-0.078,0.352-0.234
		c0,0-0.01-0.02-0.01-0.029l-0.029-0.332c0.059-0.02,0.4-0.078,0.459-0.088c-0.801-0.068-0.518-0.059-0.85-0.107
		c0.596-0.156,0.176-0.029,0.83-0.156l-0.635-0.078c-0.049-0.01-0.147-0.02-0.215-0.029l0.303-0.068c0.01,0,0.088-0.02,0.098-0.029
		l-0.01-0.293c0-0.01,0.01-0.02,0.01-0.029s-0.02-0.02-0.02-0.029c-0.01,0-0.039-0.02-0.039-0.029l0.039-0.186
		c0,0,0.01-0.02,0.01-0.029l-0.156-0.713c0.078-0.147,0.313,0.039,0.098-0.117c-0.01,0-0.352-0.088-0.469-0.117l0.381-0.059
		c0.039-0.01,0.41-0.049,0.42-0.049l-0.83-0.156l0.537-0.088c0.498-0.098-0.029,0.088,0.254-0.078
		c-0.352-0.02-0.273-0.02-0.586-0.059c-0.899-0.098,0.195,0.01-0.508-0.068c-0.059,0.469-0.313,1.201,0.127,1.504
		c-0.078,0.01-0.205,0.039-0.244,0.029c-0.156-0.049-1.436,0.215-1.543,0.244l0.381,0.127c0.039,0,0.127,0.02,0.186,0.029
		l0.02,0.264c-0.518,0.186,0.098,0-0.84,0.156c1.084,0.156,0.352-0.029,0.86,0.156c-0.059,0.01-0.147,0.039-0.176,0.029
		l-0.176,0.147c0.322,0.059,0.098-0.01,0.391,0.088l-0.83,0.107l0.85,0.156l-0.371,0.186c0.293,0.049,0.117,0,0.4,0.078
		c-0.059,0.01-0.147,0.039-0.176,0.029l-0.645,0.078l0.498,0.215c-0.039,0.01-0.44,0.049-0.469,0.049
		c0.049,0.01,0.127,0.039,0.147,0.029l0.694,0.127c-0.42,0.078,0.029,0.039-0.801,0.107l0.83,0.166l-0.85,0.166
		c1.162,0.039,0.42-0.01,0.869,0.098l-0.664,0.127c-0.02,0.01-0.098,0.02-0.137,0.029c0.801,0.059,0.459,0.039,0.83,0.107
		l-0.811,0.156c1.231,0.127,0.742-0.088,0.733,0.195c-7.541,0-1.651,0.127-6.134,0.254c-1.123,0.029-2.168,0.068-3.311,0.088
		l0.059,1.26l-1.045,0.059c-0.068,0.01-0.156,0.01-0.215,0.02l-0.283,1.407c-0.117,0.215-0.41,0.049-1.074,0.264
		c-0.41,0.137-0.567,0.186-1.397,0.283c-1.172,0.127-2.129,0.283-3.253,0.4c-4.034-0.313-4.669-0.664-5.265-0.781
		c-0.039-0.01-0.098-0.02-0.137-0.029l-0.723-0.088l-0.137-1.377c-0.381-0.147,0.078-0.029-0.674-0.098
		c-0.498-0.049-0.225,0.039-1.016-0.059l-0.342-3.389l-1.504-0.098c-0.244-0.44,0.195-1.27-0.215-1.641
		c-0.176-0.156,0.117-0.107-0.567-0.176c-0.918,0.078-0.713-0.088-0.606,0.547c0.088,0.479-0.42,1.612,0.596,1.954
		c-0.059,0.01-0.156,0.039-0.186,0.029c-0.322-0.127-0.889,0.273-0.557,0.596c0.352,0.342,0.84,0.195-0.557,0.557l-3.458,1.074
		c-0.059-0.02-0.117-0.02-0.137-0.039l-2.422-0.762h-8.019c-0.273-0.391,0.293-0.879-0.567-1.192
		c-0.879-0.322-0.117-0.713-0.498-1.055c-0.459-0.215,0.147-0.01-1.065-0.156l-0.273-2.579h-1.182
		c-0.713,0.176,0.039,0.01-0.273,0.147s-0.117,0.059-0.44,0.127c-0.635,0.137-0.762-0.127-0.713,0.352
		c-1.416,0.01-1.28-0.059-1.67,0.098l0.195,2.217h-3.175c0.059,0.41-0.615,0.293-0.567,0.742c0.137,1.143,0.156,0.801-0.703,1.006
		c-0.86,0.205,0.85,0.195-3.78,0.186l-0.4-0.156c-0.039-0.01-0.098-0.02-0.137-0.029c-0.059-0.01-0.254-0.049-0.313-0.059
		c-0.313-0.078-0.254,0-0.44-0.156c-0.039-0.02-0.039-0.166-0.039-0.205l-0.342-0.342c-0.488-0.166-0.391-0.039-0.469-0.4
		c-0.088-0.4-0.694-0.107-0.752-1.221c-0.01-0.225,0.264-0.283-0.576-0.352c-0.811,0.059-0.313-0.088-0.557,0.147
		c-0.039,0.039,0.01,0.254,0.02,0.313c0.078,0.43,0.264,0.889,0.02,1.309c-0.078,0.137-0.078,0.01-0.068,0.127l0.215,0.273
		l-7.98,0.01c0.01-0.078,0.156-0.244,0.166-0.244l-0.615-4.493H5.099c-0.147,0.117-0.547,0.381-1.026,0.557
		c-0.606-3.389-1.133-6.808-1.612-10.237L288.59,291.325z"/>
	<path style="fill:#EDEDED;" d="M122.791,299.501c17.856,0,32.361,0.361,32.41,0.791c0.039,0.44-14.408,0.801-32.263,0.801
		s-32.371-0.361-32.41-0.801C90.489,299.862,104.926,299.501,122.791,299.501z M4.483,303.838l-0.186-0.967
		c7.629-0.205,20.073-0.342,34.129-0.342c23.267,0,42.168,0.371,42.207,0.82c0.049,0.459-18.784,0.82-42.05,0.82
		C24.576,304.17,12.161,304.043,4.483,303.838z M3.341,297.352l-0.127-0.801c6.046-0.088,14.124-0.137,23.003-0.137
		c18.793,0,34.051,0.244,34.08,0.537c0.029,0.303-15.179,0.547-33.982,0.547C17.465,297.499,9.406,297.44,3.341,297.352z
		 M5.255,306.29c0.107,0.186,0.215,0.361,0.322,0.547c5.88,0.156,16.625,0.264,28.903,0.264c18.549,0,33.562-0.244,33.533-0.537
		c-0.029-0.303-15.091-0.547-33.64-0.547C21.909,306.016,11.038,306.133,5.255,306.29z M18.178,323.999
		c0.137,0.147,0.283,0.303,0.42,0.459c4.562,0.371,18.92,0.635,35.897,0.635c20.62,0,37.294-0.391,37.245-0.879
		c-0.049-0.488-16.801-0.889-37.411-0.889C36.844,323.325,22.202,323.608,18.178,323.999z M28.346,334.03
		c0.557,0.479,1.114,0.957,1.68,1.436c8.342,0.361,22.378,0.596,38.27,0.596c25.514,0,46.143-0.606,46.075-1.348
		s-20.815-1.348-46.339-1.348C51.125,333.366,36.366,333.63,28.346,334.03z M34.9,339.432c0.488,0.381,0.987,0.762,1.485,1.133
		c6.759,0.186,16.605,0.303,27.555,0.303c20.346,0,36.795-0.4,36.756-0.889c-0.049-0.488-16.576-0.889-36.932-0.889
		C52.053,339.09,41.621,339.227,34.9,339.432z M216.426,365.209c1.69-0.625,3.36-1.27,5.001-1.934
		c-4.259-0.059-8.986-0.088-13.948-0.088c-18.911,0-34.197,0.459-34.148,1.026c0.059,0.567,15.433,1.026,34.344,1.026
		C210.702,365.238,213.632,365.229,216.426,365.209z M241.431,353.322c1.358-0.811,2.686-1.641,3.995-2.491
		c-7.414-0.234-16.996-0.381-27.457-0.381c-23.404,0-42.314,0.703-42.236,1.573c0.078,0.86,19.125,1.563,42.529,1.563
		C226.828,353.585,234.779,353.488,241.431,353.322z M260.547,339.149c0.479-0.44,0.957-0.879,1.426-1.319
		c-16.566,0.068-28.864,0.342-28.825,0.664C233.177,338.807,244.752,339.07,260.547,339.149z M271.751,327.056
		c0.273-0.352,0.557-0.713,0.83-1.074c-3.995-0.313-11.565-0.518-20.219-0.518c-12.767,0-23.081,0.459-23.023,1.026
		c0.049,0.567,10.452,1.026,23.218,1.026C260.576,327.515,267.629,327.339,271.751,327.056z M279.106,315.93
		c0.322-0.596,0.635-1.192,0.947-1.788c-0.762,0-1.534,0-2.305,0c-17.856,0-32.302,0.4-32.253,0.889
		c0.049,0.498,14.564,0.899,32.419,0.899C278.315,315.93,278.715,315.93,279.106,315.93z M282.192,309.669
		c0.107-0.244,0.225-0.498,0.332-0.752c-2.149-0.02-4.503-0.029-6.974-0.029c-10.002,0-18.1,0.186-18.08,0.41
		c0.02,0.215,8.156,0.4,18.158,0.4C277.943,309.699,280.161,309.689,282.192,309.669z M160.407,328.394
		c19.584,0,35.516,0.586,35.584,1.299c0.068,0.723-15.746,1.309-35.34,1.309c-19.584,0-35.516-0.586-35.584-1.309
		C124.999,328.98,140.823,328.394,160.407,328.394z M216.054,336.433c9.328,0,16.937,0.459,16.996,1.026
		c0.049,0.576-7.472,1.035-16.801,1.035c-9.338,0-16.937-0.459-16.996-1.035C199.205,336.892,206.716,336.433,216.054,336.433z
		 M213.222,346.934c18.666,0,33.748-0.459,33.699-1.035c-0.059-0.567-15.228-1.026-33.894-1.026s-33.748,0.459-33.699,1.026
		C179.386,346.474,194.556,346.934,213.222,346.934z M68.795,348.135c10.178,0,18.383-0.4,18.344-0.889
		c-0.049-0.488-8.332-0.879-18.51-0.879c-10.168,0-18.383,0.391-18.334,0.879C50.343,347.735,58.626,348.135,68.795,348.135z
		 M128.203,345.771c22.759,0,41.23,0.264,41.259,0.596c0.029,0.322-18.393,0.586-41.152,0.586s-41.23-0.264-41.259-0.586
		C87.022,346.035,105.444,345.771,128.203,345.771z M110.249,355.813c13.919,0,25.24,0.4,25.289,0.889
		c0.049,0.488-11.204,0.879-25.123,0.879s-25.25-0.391-25.289-0.879C85.078,356.213,96.321,355.813,110.249,355.813z
		 M159.411,337.498c10.979,0,19.897,0.264,19.926,0.596c0.039,0.322-8.84,0.586-19.819,0.586c-10.969,0-19.897-0.264-19.926-0.586
		C139.563,337.762,148.432,337.498,159.411,337.498z M191.41,302.431c9.27,0,16.82,0.273,16.849,0.606
		c0.029,0.332-7.463,0.606-16.742,0.606c-9.27,0-16.82-0.273-16.849-0.606C174.639,302.705,182.131,302.431,191.41,302.431z
		 M188.187,308.614c18.559,0,33.572-0.273,33.533-0.615c-0.029-0.332-15.091-0.596-33.64-0.596c-18.559,0-33.572,0.264-33.533,0.596
		C154.576,308.341,169.638,308.614,188.187,308.614z M192.944,312.522c23.267,0,42.09-0.41,42.041-0.918
		c-0.039-0.508-18.94-0.918-42.207-0.918s-42.09,0.41-42.041,0.918C150.786,312.111,169.677,312.522,192.944,312.522z
		 M181.965,319.388c18.793,0,34.012-0.264,33.972-0.606c-0.029-0.332-15.287-0.606-34.08-0.606c-18.803,0-34.012,0.273-33.982,0.606
		C147.914,319.125,163.171,319.388,181.965,319.388z M245.924,304.043c20.747,0,37.548-0.176,37.528-0.4
		c-0.02-0.225-16.859-0.41-37.606-0.41s-37.548,0.186-37.528,0.41C208.338,303.867,225.178,304.043,245.924,304.043z
		 M228.04,297.176c12.688,0,22.954-0.273,22.915-0.606c-0.029-0.332-10.344-0.606-23.033-0.606c-12.698,0-22.954,0.273-22.925,0.606
		C205.027,296.903,215.341,297.176,228.04,297.176z M38.7,311.525c9.279,0,16.771-0.244,16.742-0.537
		c-0.029-0.293-7.57-0.537-16.849-0.537c-9.27,0-16.771,0.244-16.742,0.537C21.88,311.281,29.421,311.525,38.7,311.525z
		 M92.921,310.089c20.747,0,37.587,0.156,37.606,0.361c0.02,0.195-16.781,0.352-37.538,0.352c-20.747,0-37.577-0.156-37.596-0.352
		C55.374,310.246,72.174,310.089,92.921,310.089z M76.267,316.204c12.698,0,23.003,0.244,23.033,0.537
		c0.029,0.303-10.237,0.547-22.925,0.547c-12.698,0-23.013-0.244-23.033-0.547C53.313,316.448,63.579,316.204,76.267,316.204z
		 M121.619,305.049c10.002,0,18.139,0.166,18.149,0.361c0.02,0.195-8.078,0.361-18.08,0.361c-10.012,0-18.139-0.166-18.158-0.361
		C103.51,305.215,111.607,305.049,121.619,305.049z"/>
	<path style="fill:#202020;" d="M288.59,291.325c-1.28-12.688-3.409-25.054-6.29-37.01c-0.078,0.02-0.147,0.039-0.215,0.059
		c-0.078-0.459-0.039-1.231-0.176-1.631c-0.332-0.987-0.488,0.088-0.694-1.338c-0.088-0.625-0.127-1.319-0.147-2.002
		c-0.137-0.508-0.264-1.016-0.4-1.514c-1.68-0.889,0.332-0.801-3.995-0.801l-0.244-3.878l-0.762-0.234
		c-0.42-0.244-0.273,0.488-0.449-0.596l-0.957-3.028c-0.684-0.537-2.237-1.192-3.341-1.465c-1.514,0.381-2.559,1.074-3.516,1.739
		c-1.114,0.781,0.088,2.12-0.244,3.087c-0.606,0.762,0.225-0.215-0.733,0.381l-0.645,0.674l-4.835,0.01l0.254,5.802
		c-3.077,0.029-1.944,0.225-2.842-0.899c0.02,0.615,0.156,0.488-0.43,0.83l-0.381,0.137c-0.049,0.029-0.127,0.049-0.166,0.078
		c-0.567,0.381-0.264,1.094-0.234,1.621c-1.631,0.352-3.555,0.42-5.255,0.742c-1.524,0.303-0.361,0.215-1.612,0.459
		c0.029,0.049,0.117,0.059,0.127,0.127c0.02,0.059,0.098,0.098,0.117,0.117c0.01,0.02,0.068,0.088,0.088,0.107l0.049,0.518
		c0,0.01,0,0.059,0,0.078c0,0.02,0.02,0.068,0.02,0.088l0.059,1.162c0,0.02,0,0.059,0,0.078l0.107,1.416
		c0,0.02,0.01,0.068,0.02,0.088l0.039,1.084c0,0.02,0.01,0.068,0.01,0.088c0,0.01,0.01,0.068,0.02,0.078
		c0,0.02,0.01,0.068,0.02,0.088l0.02,0.908c0,0.02-0.02,0.068-0.02,0.078l0.41,0.586l-1.807-0.117l-0.479-5.323l-5.695,0.01
		l0.029,2.276h-3.077c-0.049-1.055-0.225-4.649-0.459-4.991l-4.444-0.039c-0.547-7.043,0.215-13.851,0.664-20.776l-6.017,0.625
		c-0.02-0.029-0.068-0.088-0.088-0.117c-0.029-0.029-0.059-0.088-0.098-0.127c-2.842,0.234-4.923,0.264-7.824,0l-0.527,0.762
		l-5.783-1.123c0.654,3.067,2.501,9.309,2.208,12.083c-0.225,0.283-1.299,0.596-1.778,1.016c-1.192,1.026-1.074-0.342-0.82,2.823
		c0.107,1.299,0.635,1.582-0.606,1.797c-0.996-0.713-1.836-25.777-2.168-28.825l-4.542-0.029l1.299-4.317
		c-1.69-1.25-2.95-0.742-5.919-0.889c-0.176-1.846-0.459-8.049-1.436-9.318l-0.137,9.348c-3.565,0.029-3.546-0.293-5.939,0.703
		l1.905,4.483l-4.649-0.01l2.579,41.054c-0.938,0.01-0.459,0.068-0.967-0.264c-0.498-0.313-0.371-0.254-0.254-0.733
		c0.049-0.176,0.117-0.02,0.098-0.322l-0.234-0.625c0.02-0.703,0.254-0.127,0.039-0.85l-0.078-1.143
		c-0.166-0.518,0.107-0.547-0.078-1.153c-0.02-0.039-0.059-0.186-0.049-0.303c0.039-0.42,0.283,0.264,0.098-0.537l-0.205-0.42
		c-0.088-0.576,0.303,0.088,0.137-0.733c-0.02-0.107-0.283,0.039-0.147-0.635c0.313-1.485-0.01,0.098-0.41-1.221
		c-0.899-0.107-1.172-0.059-1.944-0.205c-0.508-0.098,0.254-0.049-0.879-0.166c-0.498-0.049-0.947-0.029-1.446-0.02
		c0.029-3.995,0.508-6.623-0.977-10.657c-1.534-4.151-3.253-5.402-5.402-8.869l-1.426,0.371l-1.172-1.504
		c-1.231,0.361-3.428,1.338-4.601,1.485l-0.781-5.978l-0.313,6.398c-2.725,1.348-5.402,1.27-6.349,3.507
		c-0.43,0.987-0.166,1.104-1.817,1.426l-0.957-15.414c-1.074,0.244-1.817,0.694-2.813,0.977c-0.635-2.041-0.469-9.104-1.299-10.237
		l0.068,10.793c-1.377,0.44-10.276,3.78-10.666,4.337c-0.293,0.987,1.006,14.632,1.055,17.055l-1.631,0.02
		c-0.098,1.788-0.811-0.293-1.006,1.446c-0.029,0.273,0.127,0.713,0.088,1.016c-0.137,0.889-0.694,0.488-0.645,1.661
		c0.039,1.084-0.41,0.908-0.518,1.846c-0.098,0.86,0.459,0.576-0.508,0.82c-0.918-0.928-1.494-21.753-1.836-24.859
		c-0.488-0.147-0.293-0.068-0.615-0.156l-0.82-3.849c-0.908-0.283-0.586,0.01-1.426-0.342l-0.254-4.083l-1.885-0.01l-0.186-1.446
		l-3.419-0.02l-0.615-5.187c-0.01,0.254-0.098,4.552-0.186,5.196l-2.882,0.02l0.088,1.358l-1.914,0.127l0.498,8.244
		c-1.543,0.02-0.86-0.098-1.143,0.313c-0.273,0.899,0.967,15.394,1.172,18.696c0.039,0.596,0.381,1.407,0.078,1.983
		c-0.254,0.488,0.225,0.195-0.527,0.42c-0.967-0.273-0.547-0.791-0.723-1.387c-0.195-0.645-0.029-0.303-0.596-0.654
		c-0.811-0.498-2.295-0.586-3.106-0.176c-0.049,0.029-0.098,0.059-0.147,0.088l-0.254,0.186c-0.694,0.596-0.215,1.006-0.4,1.827
		l-2.422,0.147l0.273,1.055c0.01,0.029,0.049,0.078,0.059,0.098c0,0.029,0.02,0.078,0.02,0.098c0.039,0.352-0.127,0.029-0.273,0.664
		c-0.137,0.596,0.088,1.993,0.127,2.657l0.273,4.015c0.088,1.25,0.547,0.43-0.322,1.27c-1.231-0.332-0.723-0.039-0.86-2.276
		c-0.039-0.83-0.088-1.67-0.166-2.501l-1.241-0.264c-0.068-2.764,0.225-3.907-4.464-5.138c-2.647,0.801-2.276,1.016-3.829,1.973
		c-0.527,0.322,0.137,2.354,0.01,2.921c-0.068,0.352-0.361,0.303-0.811,0.498c-0.899,0.391-1.768,0.352-2.999,0.264l-0.176-2.266
		l-3.477-0.01l-0.4-6.183h-5.431l0.156,2.735c-2.129,0.059-1.524-0.029-2.608,0.713c-0.313,0.205-0.567,0.127-0.654,0.41
		c0.039,0.654,0.234,1.377-0.127,1.856c-0.459,0.596-0.293-0.41-0.469,0.654c-0.049,0.303,0.088,0.684,0.039,1.006
		c-0.264,1.621-0.674-0.264-0.381,3.702l-0.225-0.264c-0.02-0.029-0.078-0.088-0.098-0.137c-0.02-0.039-0.049-0.088-0.068-0.137
		c-0.049-0.156-0.059-0.479-0.078-0.645l-4.278-0.01l0.068,1.661l-2.266,0.02c0.381-1.133-0.01-2.266-0.059-3.438
		c-0.049-0.987,0.44-0.547-0.781-0.928l0.43-0.244c0.273-0.176,0.078,0.029,0.342-0.254c-0.059-0.029-0.137-0.127-0.166-0.098
		l-0.234-0.488c0.273-0.176,0.078,0.029,0.342-0.254c-0.43-0.244,0.273-0.039-0.811-0.332l0.762-0.498l-0.83-0.508
		c1.299-0.322,0.254,0,0.772-0.332c-0.313-0.303-0.029-0.059-0.361-0.244l-0.479-0.254c1.094-0.283,0.391-0.098,0.791-0.332
		c-0.303-0.303-0.039-0.068-0.371-0.254l-0.303-0.166c-0.029-0.02-0.107-0.049-0.156-0.078l0.781-0.332l-0.86-0.508
		c1.074-0.352,0.508,0.107,0.762-0.498c-1.026-0.322-0.967-0.869-1.788-1.309c-0.078-0.049-0.42-0.205-0.459-0.234l-1.485-0.918
		c-0.059-0.01-0.166-0.02-0.244-0.039H84.58c-0.733,0.283-0.518-0.01-1.074,0.313c-0.713,0.43,0.166,0.059-0.488,0.625
		c-1.954,0.166-6.232,0.488-7.824,1.162l-0.869,0.4c0.234,0.332,0.508,0.283,0.518,0.537l-0.508,0.469l0.869,0.332
		c-0.772,0.508-0.43-0.068-0.82,0.498c0.723,0.752,0.596,0.068,0.059,0.83c0.254,0.283,0.44,0.244,0.43,0.733
		c-0.01,0.02-0.01,0.078-0.01,0.098l0.078,1.045c0.059,0.088,0.42,0.254,0.479,0.303c-0.781,0.205-0.498,0.176-0.811,0.332
		c0.645,0.498,0.176,0.078,0.869,0.498l-0.615,0.234c-0.039,0.02-0.137,0.068-0.205,0.098l0.322,0.195
		c0.02,0.02,0.098,0.078,0.117,0.098l0.068,0.938c0,0.02,0.02,0.068,0.02,0.088c0,0.02-0.01,0.068-0.02,0.088
		c0,0.02-0.02,0.068-0.029,0.088l0.098,0.586c0,0.02,0.02,0.068,0.02,0.088l0.049,2.256c0.127,0.459,0.313-0.127,0.137,0.371
		c0,0.02-0.322,0.283-0.43,0.381l0.391,0.186c0.049,0.02,0.43,0.147,0.44,0.147l-0.781,0.498l0.557,0.264
		c0.537,0.332-0.049-0.264,0.283,0.244c-0.352,0.078-0.273,0.068-0.576,0.186c-0.86,0.332,0.195-0.01-0.488,0.215
		c-0.186-1.465-0.664-3.78-0.313-4.747c-0.078-0.029-0.215-0.098-0.254-0.059c-0.147,0.147-1.494-0.713-1.612-0.781l0.342-0.4
		c0.039-0.02,0.127-0.059,0.176-0.088l-0.059-0.84c-0.567-0.576,0.098-0.02-0.879-0.498c1.035-0.498,0.361,0.088,0.811-0.498
		c-0.059-0.029-0.156-0.117-0.186-0.078l-0.225-0.469c0.313-0.195,0.107,0.02,0.371-0.293l-0.869-0.332l0.811-0.498l-0.42-0.557
		c0.273-0.176,0.107,0,0.371-0.283c-0.059-0.029-0.156-0.127-0.186-0.088l-0.664-0.244l0.43-0.684
		c-0.029-0.01-0.449-0.147-0.479-0.147c0.049-0.029,0.117-0.107,0.147-0.078l0.645-0.43c-0.44-0.234,0.02-0.107-0.83-0.332
		l0.781-0.498l-0.899-0.537c1.143-0.117,0.42,0.039,0.85-0.293l-0.713-0.43c-0.02-0.01-0.098-0.049-0.137-0.078
		c0.772-0.195,0.44-0.137,0.791-0.332l-0.86-0.498c1.201-0.391,0.781,0.283,0.684-0.615c-7.551-0.01-1.7-0.391-6.212-0.811
		c-1.133-0.098-2.188-0.195-3.341-0.273l-0.313-3.975l-1.065-0.195c-0.059-0.01-0.156-0.029-0.215-0.049l-0.694-4.435
		c-0.176-0.674-0.42-0.156-1.153-0.84c-0.449-0.42-0.625-0.586-1.485-0.879c-1.201-0.42-2.208-0.908-3.37-1.28
		c-3.936,0.996-4.474,2.09-5.03,2.481c-0.029,0.02-0.098,0.059-0.137,0.078l-0.694,0.273l0.273,4.347
		c-0.342,0.469,0.088,0.098-0.645,0.313c-0.488,0.137-0.244-0.117-0.996,0.186l0.654,10.686l-1.485,0.332
		c-0.107,1.387,0.576,4.005,0.273,5.177c-0.137,0.488,0.137,0.322-0.527,0.547c-0.938-0.244-0.674,0.293-0.762-1.719
		c-0.059-1.534-0.889-5.099,0.02-6.173c-0.049-0.039-0.166-0.107-0.186-0.078c-0.283,0.381-0.967-0.889-0.733-1.905
		c0.244-1.084,0.781-0.596-0.713-1.739l-3.78-3.389c-0.049,0.039-0.107,0.059-0.127,0.127l-2.198,2.393l-8.019-0.01
		c-0.156,1.231,0.547,2.784-0.215,3.77c-0.791,1.016,0.088,2.247-0.186,3.331c-0.4,0.664,0.137,0.029-1.026,0.498l0.479,8.127
		l-1.182-0.01c-0.762-0.547,0.049-0.029-0.313-0.459c-0.342-0.41-0.127-0.195-0.469-0.4c-0.684-0.41-0.733,0.41-0.82-1.084
		c-1.426-0.049-1.26,0.166-1.7-0.332l-0.449-6.994l-3.175-0.01c-0.078-1.28-0.713-0.908-0.781-2.335
		c-0.205-3.604-0.088-2.53-1.006-3.175c-0.928-0.654,0.791-0.606-3.839-0.596l-0.352,0.508c-0.039,0.029-0.098,0.068-0.127,0.098
		c-0.059,0.039-0.244,0.147-0.303,0.186c-0.283,0.244-0.244,0-0.391,0.469c-0.029,0.088,0.01,0.557,0.02,0.674l-0.234,1.084
		c-0.44,0.508-0.391,0.107-0.361,1.25c0.029,1.25-0.654,0.342-0.381,3.849c0.049,0.703,0.342,0.899-0.479,1.104
		c-0.83-0.176-0.283,0.273-0.596-0.449c-0.059-0.137-0.068-0.82-0.078-0.996c-0.049-1.348,0-2.803-0.371-4.132
		c-0.117-0.42-0.068-0.039-0.098-0.381l0.137-0.889l-7.98-0.02c0.02,0.234,0.225,0.772,0.234,0.791l0.703,14.173H2.208
		c-0.273-0.537-1.133-2.061-1.895-2.266c-0.049-0.01-0.137-0.02-0.176-0.029H0.029c0.078,11.126,0.879,22.085,2.335,32.83
		L288.59,291.325z"/>
</g>
<path style="fill:#F1EAE3;" d="M93.83,255.956c0.039,0,0.078,0.039,0.078,0.078c0.01,0.039-0.02,0.078-0.059,0.078
	c-0.049,0-0.078-0.039-0.088-0.078C93.761,255.995,93.791,255.956,93.83,255.956z"/>
<path style="fill:#66B96A;" d="M34.861,385.028c43.301-10.715,299.999-71.774,466.521-55.882
	C469.901,434.893,371.969,512,256.005,512C161.677,512,79.276,460.973,34.861,385.028z"/>
<path style="fill:#54892E;" d="M365.033,318.656c0.059,0.127,0.107,0.254,0.166,0.381c0.098-0.225,0.205-0.44,0.303-0.654
	c0.781-0.43,1.563-0.869,2.364-1.309c0.576,3.292,0.752,6.593,1.074,9.182c0.049-1.172,0.723-3.595,1.739-6.105
	c-0.449-1.27-0.987-2.52-1.651-3.692c0.244-0.137,0.498-0.273,0.742-0.4c0.576,0.918,1.055,1.875,1.465,2.803
	c0.449-0.996,0.938-1.963,1.465-2.852c-0.088-0.449-0.176-0.889-0.283-1.328c0.303-0.147,0.596-0.303,0.899-0.449
	c0.059,0.195,0.107,0.391,0.147,0.596c0.117-0.156,0.225-0.313,0.342-0.449c-0.078-0.098-0.147-0.195-0.225-0.283
	c0.215-0.107,0.41-0.205,0.625-0.303l0.039,0.039l0.098-0.117c0.244-0.117,0.488-0.234,0.733-0.352
	c-0.156,0.313-0.303,0.606-0.459,0.889c1.143,1.348,1.993,2.94,2.647,4.435c0.449-0.987,0.947-1.963,1.475-2.842
	c-0.254-1.328-0.596-2.569-1.016-3.741c0.293-0.137,0.596-0.273,0.889-0.4c0.088,0.234,0.176,0.479,0.254,0.723
	c0.508,0.361,0.977,0.781,1.407,1.241c0.371-0.43,0.752-0.791,1.133-1.065c-0.264,0.527-0.518,1.016-0.752,1.485
	c1.143,1.338,1.983,2.94,2.637,4.435c0.449-0.987,0.947-1.963,1.475-2.852c-0.264-1.397-0.625-2.715-1.084-3.936
	c-0.176-0.147-0.361-0.293-0.547-0.43c0.156,0.059,0.313,0.117,0.459,0.186c-0.225-0.567-0.459-1.114-0.723-1.641
	c0.293-0.117,0.576-0.234,0.869-0.352c0.459,0.869,0.84,1.797,1.162,2.764c0.508,0.361,0.977,0.781,1.407,1.231
	c0.371-0.43,0.752-0.791,1.123-1.055c-0.254,0.518-0.508,1.016-0.752,1.475c1.143,1.348,1.993,2.94,2.647,4.435
	c0.449-0.987,0.947-1.954,1.475-2.842c-0.264-1.407-0.635-2.715-1.084-3.936c-0.186-0.156-0.361-0.293-0.547-0.44
	c0.147,0.059,0.303,0.127,0.449,0.195c-0.479-1.241-1.055-2.393-1.709-3.438c0.264-0.098,0.537-0.195,0.801-0.283
	c0.967,1.338,1.68,2.862,2.217,4.483c0.508,0.361,0.977,0.781,1.407,1.241c0.371-0.43,0.752-0.791,1.133-1.065
	c-0.264,0.527-0.518,1.016-0.752,1.485c1.143,1.338,1.983,2.94,2.637,4.435c0.449-0.987,0.947-1.963,1.475-2.852
	c-0.264-1.397-0.635-2.715-1.084-3.936c-0.176-0.147-0.361-0.293-0.547-0.43c0.156,0.059,0.303,0.117,0.459,0.186
	c-0.723-1.866-1.661-3.507-2.774-4.923c0.225-0.078,0.449-0.147,0.674-0.215c1.592,1.621,2.667,3.682,3.409,5.91
	c0.508,0.361,0.977,0.781,1.407,1.231c0.371-0.42,0.742-0.791,1.123-1.065c-0.254,0.537-0.508,1.026-0.752,1.485
	c1.143,1.348,1.993,2.94,2.647,4.444c0.449-0.996,0.938-1.973,1.465-2.852c-0.264-1.407-0.625-2.715-1.084-3.936
	c-0.176-0.156-0.352-0.303-0.547-0.44c0.156,0.059,0.313,0.127,0.459,0.195c-0.938-2.422-2.237-4.474-3.819-6.134
	c0.166-0.039,0.322-0.068,0.479-0.107c2.295,1.739,3.731,4.239,4.65,7.004c0.508,0.361,0.977,0.781,1.407,1.241
	c0.371-0.43,0.752-0.791,1.133-1.065c-0.264,0.527-0.518,1.016-0.762,1.485c1.153,1.338,1.993,2.94,2.647,4.435
	c0.449-0.987,0.947-1.963,1.475-2.852c-0.264-1.397-0.635-2.715-1.084-3.936c-0.176-0.147-0.361-0.293-0.547-0.43
	c0.156,0.059,0.303,0.117,0.449,0.186c-1.104-2.862-2.715-5.206-4.708-7.004l0.166-0.02c3.028,1.709,4.786,4.571,5.851,7.795
	c0.518,0.361,0.977,0.781,1.407,1.231c0.371-0.42,0.752-0.781,1.133-1.065c-0.254,0.527-0.508,1.026-0.752,1.485
	c1.143,1.348,1.993,2.94,2.647,4.444c0.449-0.996,0.938-1.963,1.465-2.852c-0.264-1.407-0.625-2.715-1.084-3.936
	c-0.176-0.147-0.352-0.293-0.547-0.44c0.156,0.059,0.313,0.127,0.459,0.195c-1.172-3.018-2.891-5.46-5.04-7.297
	c3.331,1.68,5.216,4.669,6.349,8.058c0.508,0.371,0.977,0.781,1.407,1.241c0.371-0.43,0.752-0.791,1.133-1.065
	c-0.264,0.527-0.518,1.016-0.762,1.485c1.143,1.338,1.993,2.94,2.647,4.435c0.449-0.987,0.947-1.963,1.475-2.842
	c-0.264-1.407-0.635-2.725-1.084-3.946c-0.176-0.147-0.361-0.293-0.547-0.43c0.156,0.059,0.303,0.127,0.449,0.195
	c-1.162-3.028-2.891-5.47-5.04-7.306c3.331,1.69,5.226,4.679,6.349,8.068c0.508,0.361,0.977,0.781,1.407,1.231
	c0.371-0.43,0.752-0.781,1.133-1.065c-0.254,0.527-0.508,1.026-0.752,1.485c1.143,1.348,1.993,2.94,2.637,4.444
	c0.449-0.996,0.947-1.973,1.475-2.852c-0.264-1.407-0.625-2.715-1.084-3.936c-0.176-0.156-0.352-0.293-0.547-0.44
	c0.156,0.059,0.303,0.127,0.459,0.195c-0.879-2.256-2.061-4.19-3.497-5.792c0.371,0.107,0.733,0.234,1.104,0.361
	c1.758,1.661,2.911,3.839,3.702,6.193c0.508,0.371,0.977,0.781,1.407,1.241c0.371-0.43,0.752-0.791,1.123-1.065
	c-0.254,0.527-0.508,1.016-0.752,1.485c1.143,1.338,1.993,2.94,2.647,4.435c0.449-0.987,0.947-1.963,1.475-2.842
	c-0.264-1.407-0.635-2.725-1.084-3.946c-0.176-0.147-0.361-0.293-0.547-0.43c0.147,0.059,0.303,0.127,0.449,0.195
	c-0.117-0.313-0.244-0.615-0.371-0.918c0.527,0.42,1.055,0.86,1.563,1.328c0.039,0.117,0.078,0.234,0.117,0.352
	c0.508,0.361,0.977,0.781,1.407,1.231l0.039-0.039c0.127,0.127,0.244,0.273,0.361,0.41l-0.02,0.049
	c1.143,1.348,1.983,2.94,2.637,4.444c0.107-0.234,0.215-0.459,0.322-0.684c0.195,0.303,0.4,0.596,0.596,0.908
	c-0.147,0.332-0.283,0.664-0.41,1.006c0.635,1.621,1.055,2.989,1.416,3.546c0.049-0.938,0.068-1.836,0.049-2.715
	c0.547,1.006,1.065,2.071,1.563,3.194c0.059,0.694,0.127,1.348,0.205,1.973c0.02-0.303,0.068-0.674,0.156-1.104
	c0.498,1.211,0.977,2.481,1.416,3.829c15.169,47.022-56.81,132.95-84.619,163.806c-29.86,13.021-62.67,20.522-97.17,21.186
	c94.347-46.69,79.549-177.198,79.549-177.198s4.317-3.399,11.204-7.971c-0.049,0.645-0.088,1.328-0.098,2.081
	c0.938-0.088,1.866-0.186,2.813-0.283l-0.029-0.078c-0.186-0.977-0.391-2.012-0.625-3.077c0.85-0.557,1.748-1.123,2.667-1.7
	c0.107,1.026,0.195,2.002,0.303,2.891c0.039-0.772,0.332-2.081,0.821-3.595c0.781-0.479,1.582-0.967,2.393-1.465
	c0.42,1.123,0.733,2.022,1.006,2.442c0.049-1.055,0.059-2.071,0.029-3.057c0.381-0.225,0.762-0.449,1.143-0.684
	c0.264,2.247,0.42,4.396,0.645,6.193c0.049-1.182,0.713-3.604,1.739-6.115c-0.147-0.4-0.293-0.801-0.459-1.192
	C364.477,318.968,364.75,318.812,365.033,318.656z M433.447,311.848c0.117,0.42,0.234,0.84,0.332,1.27
	c0.107-0.156,0.225-0.303,0.332-0.449C433.897,312.385,433.682,312.111,433.447,311.848z M434.551,313.264
	c-0.186,0.342-0.352,0.674-0.527,0.987c0.733,3.595,0.908,7.297,1.26,10.129c0.049-1.182,0.723-3.604,1.739-6.115
	C436.407,316.517,435.606,314.807,434.551,313.264z M437.55,319.916c-0.322,1.309-0.537,2.813-0.625,4.747
	c0.586,0.01,1.172,0.01,1.768,0.02C438.38,323.149,438.028,321.537,437.55,319.916z M427.411,312.023
	c0.127,0.41,0.234,0.84,0.332,1.27c0.117-0.156,0.225-0.313,0.342-0.459C427.87,312.551,427.645,312.287,427.411,312.023z
	 M428.514,313.44c-0.176,0.342-0.352,0.664-0.518,0.977c0.723,3.595,0.908,7.297,1.25,10.139c0.059-1.182,0.723-3.604,1.739-6.115
	C430.37,316.683,429.579,314.973,428.514,313.44z M433.242,315.735c-0.459,0.899-0.86,1.748-1.192,2.647
	c0.635,1.631,1.055,2.989,1.416,3.546C433.584,319.711,433.496,317.65,433.242,315.735z M431.523,320.092
	c-0.322,1.26-0.527,2.715-0.615,4.562c0.567,0,1.143,0,1.709,0C432.324,323.188,431.982,321.635,431.523,320.092z M421.384,312.189
	c0.117,0.42,0.234,0.84,0.332,1.27c0.107-0.156,0.225-0.303,0.332-0.449C421.833,312.727,421.618,312.453,421.384,312.189z
	 M422.488,313.616c-0.186,0.332-0.352,0.664-0.527,0.977c0.733,3.595,0.908,7.287,1.26,10.119l0,0
	c0.059-1.182,0.723-3.604,1.739-6.105C424.344,316.858,423.552,315.149,422.488,313.616z M427.215,315.901
	c-0.459,0.899-0.86,1.748-1.192,2.657c0.635,1.621,1.055,2.989,1.407,3.546C427.547,319.886,427.469,317.816,427.215,315.901z
	 M425.496,320.258c-0.313,1.241-0.518,2.647-0.615,4.435c0.557-0.01,1.114-0.01,1.68-0.02
	C426.268,323.256,425.926,321.752,425.496,320.258z M415.347,312.365c0.127,0.42,0.234,0.84,0.342,1.27
	c0.107-0.166,0.215-0.313,0.332-0.459C415.806,312.902,415.582,312.629,415.347,312.365z M416.451,313.782
	c-0.176,0.342-0.352,0.664-0.518,0.977c0.723,3.565,0.899,7.218,1.25,10.051h0.01c0.078-1.211,0.742-3.575,1.739-6.027
	C418.307,317.025,417.516,315.315,416.451,313.782z M421.179,316.077c-0.459,0.899-0.86,1.748-1.192,2.647
	c0.635,1.631,1.055,2.989,1.416,3.546C421.521,320.053,421.443,317.992,421.179,316.077z M419.46,320.433
	c-0.303,1.211-0.508,2.598-0.606,4.347c0.547-0.01,1.104-0.02,1.651-0.029C420.222,323.354,419.889,321.889,419.46,320.433z
	 M409.321,312.531c0.117,0.42,0.234,0.84,0.332,1.27c0.107-0.156,0.225-0.303,0.332-0.449
	C409.78,313.069,409.555,312.795,409.321,312.531z M410.424,313.948c-0.176,0.342-0.352,0.664-0.518,0.987
	c0.713,3.546,0.899,7.189,1.241,10.012h0.02c0.088-1.211,0.742-3.565,1.729-5.997C412.28,317.2,411.489,315.491,410.424,313.948z
	 M415.152,316.243c-0.459,0.899-0.86,1.748-1.192,2.657c0.635,1.621,1.055,2.989,1.416,3.546
	C415.494,320.228,415.406,318.158,415.152,316.243z M413.433,320.6c-0.303,1.211-0.508,2.579-0.606,4.308l1.631-0.039
	C414.185,323.491,413.853,322.045,413.433,320.6z M403.294,312.707c0.117,0.42,0.225,0.84,0.332,1.27
	c0.107-0.156,0.225-0.313,0.332-0.459C403.743,313.244,403.519,312.971,403.294,312.707z M404.398,314.123
	c-0.186,0.342-0.361,0.664-0.527,0.977c0.723,3.556,0.899,7.218,1.241,10.041h0.02c0.088-1.211,0.742-3.575,1.739-6.017
	C406.254,317.366,405.453,315.657,404.398,314.123z M409.116,316.419c-0.459,0.899-0.86,1.748-1.192,2.647
	c0.635,1.631,1.055,2.989,1.416,3.546C409.457,320.404,409.379,318.333,409.116,316.419z M407.396,320.775
	c-0.303,1.201-0.508,2.579-0.606,4.308c0.547-0.02,1.094-0.039,1.641-0.049C408.149,323.657,407.826,322.211,407.396,320.775z
	 M397.257,312.873c0.117,0.42,0.234,0.84,0.332,1.27c0.117-0.156,0.225-0.303,0.342-0.459
	C397.716,313.41,397.492,313.137,397.257,312.873z M398.361,314.289c-0.176,0.342-0.352,0.664-0.518,0.987
	c0.723,3.585,0.899,7.267,1.25,10.1l0,0c0.059-1.192,0.733-3.595,1.739-6.085C400.217,317.542,399.426,315.833,398.361,314.289z
	 M403.089,316.585c-0.459,0.899-0.86,1.748-1.192,2.647c0.635,1.631,1.055,2.999,1.416,3.555
	C403.431,320.57,403.343,318.499,403.089,316.585z M401.37,320.941c-0.313,1.221-0.518,2.618-0.606,4.366
	c0.547-0.02,1.094-0.049,1.641-0.068C402.122,323.852,401.799,322.397,401.37,320.941z M391.231,313.049
	c0.117,0.42,0.234,0.84,0.332,1.27c0.107-0.156,0.225-0.313,0.332-0.459C391.68,313.576,391.465,313.313,391.231,313.049z
	 M392.334,314.465c-0.186,0.342-0.352,0.664-0.527,0.977c0.733,3.604,0.908,7.297,1.26,10.129c0.049-1.172,0.723-3.595,1.739-6.105
	C394.19,317.708,393.389,315.999,392.334,314.465z M397.052,316.761c-0.459,0.899-0.86,1.748-1.192,2.647
	c0.635,1.631,1.055,2.989,1.416,3.546C397.394,320.746,397.316,318.675,397.052,316.761z M395.333,321.117
	c-0.313,1.241-0.518,2.657-0.606,4.464l1.67-0.088C396.105,324.087,395.773,322.592,395.333,321.117z M385.194,313.215
	c0.127,0.42,0.234,0.84,0.332,1.27c0.117-0.156,0.225-0.313,0.342-0.459C385.653,313.752,385.429,313.479,385.194,313.215z
	 M386.298,314.631c-0.176,0.342-0.352,0.664-0.518,0.987c0.723,3.595,0.908,7.287,1.25,10.129c0.059-1.182,0.723-3.604,1.739-6.115
	C388.154,317.884,387.363,316.175,386.298,314.631z M391.026,316.927c-0.459,0.899-0.86,1.748-1.192,2.657
	c0.635,1.621,1.055,2.989,1.416,3.546C391.367,320.912,391.279,318.841,391.026,316.927z M389.306,321.283
	c-0.322,1.28-0.527,2.745-0.615,4.61c0.567-0.029,1.133-0.059,1.7-0.098C390.098,324.35,389.756,322.817,389.306,321.283z
	 M379.167,313.391c0.117,0.41,0.234,0.84,0.332,1.26c0.107-0.147,0.225-0.303,0.332-0.449
	C379.617,313.918,379.402,313.655,379.167,313.391z M380.271,314.807c-0.186,0.342-0.352,0.664-0.527,0.977
	c0.733,3.595,0.908,7.297,1.26,10.129c0.049-1.172,0.723-3.595,1.739-6.105C382.127,318.05,381.336,316.341,380.271,314.807z
	 M384.999,317.103c-0.469,0.899-0.86,1.748-1.192,2.647c0.635,1.631,1.045,2.989,1.407,3.546
	C385.331,321.078,385.253,319.017,384.999,317.103z M383.27,321.459c-0.322,1.319-0.537,2.842-0.625,4.796
	c0.586-0.039,1.162-0.068,1.748-0.107C384.09,324.643,383.739,323.051,383.27,321.459z M374.235,314.973
	c-0.176,0.342-0.352,0.664-0.518,0.987c0.723,3.595,0.908,7.287,1.26,10.129c0.049-1.182,0.713-3.604,1.739-6.115
	C376.091,318.226,375.299,316.517,374.235,314.973z M378.962,317.269c-0.459,0.899-0.86,1.748-1.192,2.657
	c0.635,1.621,1.055,2.989,1.416,3.546C379.304,321.254,379.226,319.183,378.962,317.269z M377.243,321.625
	c-0.342,1.377-0.557,2.969-0.635,5.04c0.596-0.039,1.201-0.078,1.807-0.127C378.093,324.975,377.732,323.295,377.243,321.625z
	 M372.936,317.445c-0.459,0.899-0.86,1.748-1.192,2.647c0.635,1.621,1.055,2.989,1.407,3.546
	C373.268,321.42,373.189,319.359,372.936,317.445z M371.216,321.791c-0.361,1.436-0.586,3.116-0.654,5.333
	c0.625-0.049,1.25-0.098,1.866-0.147C372.105,325.337,371.734,323.559,371.216,321.791z M366.899,317.611
	c-0.459,0.899-0.86,1.748-1.192,2.657c0.635,1.621,1.055,2.989,1.416,3.546C367.241,321.596,367.163,319.525,366.899,317.611z
	 M365.18,321.967c-0.371,1.504-0.596,3.272-0.654,5.665c0.645-0.059,1.289-0.117,1.934-0.166
	C366.127,325.728,365.737,323.852,365.18,321.967z M359.153,322.143c-0.4,1.582-0.625,3.458-0.664,6.037
	c0.664-0.068,1.338-0.127,2.012-0.186C360.149,326.157,359.739,324.145,359.153,322.143z"/>
<path style="fill:#8BC40F;" d="M269.758,317.386l11.301,1.446l11.536-7.131c2.256-0.801,3.653-2.315,5.118-2.833
	c1.778-0.645,3.008,0.537,5.245,0.303c1.612-1.553,0.723-2.12,3.096-3.175c2.374-1.055,2.149,0.176,3.741,0.801
	c5.323-2.335,2.921-5.968,9.406-8c2.227-0.684,1.241-0.938,3.067-1.719c2.979-1.26,6.076-0.733,6.007-6.916
	c1.074,0.156,0.645,0.576,1.924,0.586c-0.391-2.608-0.83-3.233,1.768-4.708c0.488,0.469,1.074,0.908,1.426,1.338
	c0.029-2.852-0.625-3.809,2.393-5.597c0.44-0.254,0.039,0.244,1.026-0.586c0.664-3.858-2.549-4.845-0.576-7.775l1.817,1.241
	c1.661-2.94,1.543-3.38,0.527-6.222c-1.094-3.048,1.104-0.684-2.178-5.626l1.905-1.094c-0.195-1.895-2.061-1.69-3.106-3.096
	c0.254-1.123,0.781-1.524,0.928-2.432c0.244-1.387-0.567-1.719-0.918-2.569c-0.86-0.244,0.42,0.908,0.244-0.713
	c-0.205-1.875-2.764-2.1-3.839-2.295c0.147-1.387,0.195-0.195,0.42-1.582c-5.011,0.029-1.817,0.254-4.591-1.973
	c-1.494-1.192-3.682-0.176-5.783-0.303c-0.107-1.709,0.85-0.567,1.455-2.813l-4.689-1.797c-0.322-0.664-0.029-0.205-0.869-0.684
	c-1.074-0.625-0.4,0.156-1.123-0.801l2.149-1.123c0.908-0.567,0.293-0.088,0.82-0.576c-1.573-2.764-5.411,0.107-8.459-1.231
	l-0.449-3.399c-3.839,2.608-4.122,1.963-7.746,1.944l-0.742-2.647c-0.059,0.039-3.536,3.634-4.601,1.241
	c-0.215-0.479-0.234-0.469-0.225-1.074c0.029-0.83,0.449-1.348,0.713-2.12l-4.503,1.289l0.147-1.817
	c-1.016,0.449-1.973,1.407-2.911,1.348c-1.045-0.059-0.283-0.938-2.461-0.615c-4.142,0.596-2.608,1.729-6.711,0.733
	c-0.83-0.205,0.381-0.449-1.084,0.059c-1.172,0.4-1.328,1.065-5.685,2.041c-4.786,1.055-3.126,0.352-4.278-2.256
	c-4.269,0.508-7.248,5.763-8.723,6.183c-1.514,0.43-3.194-1.788-6.974,3.077c-1.172,1.494-0.303,1.153-1.651,2.247
	c-1.856,0.85-2.168-0.752-3.868,0.713c-1.661,1.348,0.322,4.62-5.216,4.903c-2.129,0.117-2.178,0.293-3.184-0.117l-0.918-0.42
	c-3.77,3.8-3.233,5.03-5.822,6.417c-0.908-0.625-0.225-0.654-0.86-1.309c-7.277,7.785-1.104,8.781-7.834,10.11
	c0.479,1.827,1.885,3.37,1.446,5.167c-0.479,1.905-2.413,3.36-4.024,1.836c-0.264,2.755,0.694,6.857-1.231,8.889
	c-1.006-0.41-0.938-0.694-1.426-1.788c-0.4,1.866-0.596,2.96-0.537,4.933c0.059,2.393-0.654,2.95-0.928,4.776
	c-1.514,0.039-1.192-0.352-2.833-0.088c-0.371,1.836,0.039,3.067,0.801,4.493c0.967,1.817,0.625,1.875,0.674,4.269
	c-1.319,0.44-2.94,0.879-2.569,2.276c0.293,1.133,1.827,0.84,2.911,0.996l0.674,4.493l-1.973-0.352
	c0.967,6.945,4.063,6.974,4.591,9.074c-1.534,0.801-1.895,0.352-3.096,0.234c0.908,4.142,4.21,3.087,6.017,5.949l-2.286,1.436
	c2.012,1.631,5.021,0.137,6.535,0c1.074-0.098,0.977,0.215,2.051,0.332c-0.274,1.68-0.322,1.993,1.211,2.491
	c2.344,0.772,5.187,0.039,7.814-0.4c2.618-0.449,1.563,0.44,1.983,2.471c5.841-0.586,3.36-2.266,9.992-3.116l0.283,2.12
	c1.465-1.162,4.679-1.553,6.486-2.608c2.52-1.475,2.1-2.032,5.743-3.243l-0.84,3.946
	C265.714,321.664,269.358,320.092,269.758,317.386z"/>
<path style="fill:#BD360C;" d="M274.779,315.55c1.651,1.289,7.209,11.819,8.078,14.652c1.651,3.243,1.934,8.586,2.344,12.571
	c-0.957,12.307-4.171,14.525-13.831,20.923c-3.087,2.051-5.636,3.243-6.554,6.3c4.044-3.497,6.105-4.044,11.516-6.222
	c4.718-1.895,10.071-3.536,15.003-4.659c4.591-1.065,9.016-1.426,13.489-2.208c2.989-0.537,7.521-1.055,10.217-2.325
	c1.631-0.772,0.195,0.313,3.262-0.606c-0.479-1.494-0.547-1.504-2.432-1.241c-3.653,0.518-6.75,0.723-8.684-2.061
	c-1.387-2.012-2.911-10.1-3.38-12.923c-0.85-2.178,0.527-5.743,2.305-7.746c0.84-1.231-1.631-5.265-3.663-4.044
	c-0.674,0.811-0.742,1.104-1.133,1.983c-0.254-0.176-8.996-11.36-3.38-17.758c1.114-2.54,3.604-2.794,6.691-3.829
	c1.924-0.645,6.222-2.559,6.828-3.692c-1.905,1.153-7.726,3.663-9.719,3.458c2.081-1.983,6.457-4.503,9.143-5.773
	c0.996-0.469,2.452-0.967,3.262-1.661c-3.008-0.654-7.922,1.748-11.145,3.204c0.527-2.774,5.519-5.226,8.469-6.759
	c3.419-1.788,8.176-0.371,11.829-2.96c-0.889-0.205-7.785,1.455-8.85,1.651c0.86-0.85,2.51-1.543,4.122-2.696
	c0.84-0.606,2.471-1.143,2.96-1.866c0.147-0.215-0.303-0.606-0.293-0.83c-0.733,0.694-4.112,2.706-5.314,3.341
	c-4.532,2.383-9.26,3.194-13.06,6.388c-2.969,2.51-3.487,5.792-5.206,7.228c-2.51,2.12-3.331,2.364-5.997,4.903l-0.742,0.762
	c-0.225-1.153-0.947-8.547-0.664-9.231c0.186-0.449,4.61-5.841,5.333-6.593c4.64-4.864,5.851-8.508,10.344-11.213
	c0.469-0.459,4.337-3.624,4.503-4.698c-1.241,0.772-5.265,4.181-6.437,4.689c0.4-1.407,1.309-1.973,1.299-4.054
	c-1.289,0.82-2.041,2.471-3.018,4.161c-0.694,1.201-1.397,3.048-2.266,3.595l-2.325-5.519c-0.078,1.709,0.264,3.37,0.459,5.03
	c0.264,2.256,0.567,2.051-0.85,3.614c-1.367,1.514-4.376,5.294-6.115,6.574l0.781-12.044c-2.51,2.686-2.1,6.515-3.116,10.354
	c-0.557-0.86-1.514-5.724-2.012-7.345c-1.074-3.516-1.221-3.497-0.244-7.472c0.234-0.938,0.615-2.735,0.987-3.555
	c0.625-1.358,1.778-1.543,2.901-2.657c1.729-1.719,2.208-3.741,3.507-6.036c6.632-2.325,4.522-0.459,8.361,1.67
	c1.328,0.742,6.134,2.012,8.459,0.645c-1.895-0.567-4.737-0.371-6.447-1.182l-3.302-3.096c9.895-2.784,3.497,1.221,17.738-0.195
	c-0.762-1.27-3.682-0.225-5.724-0.244c-1.661-0.029-3.741-0.694-4.991-1.143c0.273-0.293,0.098-0.176,0.752-0.557
	c0.567-0.352,0.039-0.059,0.537-0.293c0.244-0.117,1.211-0.459,1.494-0.557c1.348-0.498,1.827-0.567,2.618-1.319l-0.283,0.039
	c-1.553,0.41-5.87,1.719-6.867,1.26l-0.537-0.498c-0.713,0.781-0.801,1.221-2.266,1.661l-8.869,2.071
	c-0.176-0.791,0.342-3.722,0.938-4.503c0.742-0.957,2.51-1.475,3.497-2.276c0.664-0.527,0.4-0.156,0.781-0.86
	c-0.098-0.02-0.234-0.02-0.303-0.02c-0.088,0-0.215-0.01-0.322,0l-1.709,0.606c-0.899,0.459-0.723,0.527-1.797,0.781
	c0.44-0.772,0.713-1.621,1.28-2.413c0.498-0.674,1.836-1.485,1.983-2.237c0.029-0.147,0.127-0.186,0.176-0.283
	c-6.3,2.911-4.249,6.31-6.242,9.992c-1.494,0.029-2.256-1.133-2.764-2.491c-1.524-4.054,4.2-5.411,2.002-12.942
	c-0.654,1.866-0.391,4.806-1.534,6.837c-0.449,0.781-0.85,1.26-1.69,1.573c-1.465-2.657-1.641-3.78-3.946-5.323
	c-1.534-1.016-3.175-1.475-5.099-1.592c-0.576-0.039-0.85-0.176-1.563,0.244c3.018,0.059,3.614,0.44,5.441,1.846
	c1.377,1.074,2.657,2.403,3.311,4.22c1.739,4.845,2.041,6.837,5.128,10.305c-0.283,1.465-1.602,3.878-2.364,4.884
	c-1.309,1.729-1.26,2.051-3.829,2.618c-1.455-0.156-2.803,8.703-3.272,9.231l-0.42,0.273c-0.205-0.01-0.215,0.215-0.762,0.449
	c0.576,2.305,1.621,4.22,2.442,6.486c-3.38-2.335-9.055-3.653-10.627-4.356c-0.205-1.866,0.44-3.165-0.078-5.441
	c-0.371-1.582-1.289-3.067-1.416-4.776c2.237-1.954,3.165-1.221,4.845-4.356c0.957-1.778,1.241-5.177,1.573-5.704
	c-1.573,1.866-0.635,6.212-6.74,8.234l-0.127-6.554l-0.957,1.914c-0.273,0.957-0.02,0.733-0.557,1.524
	c-1.905-1.993-0.537-6.583-0.606-9.533l-0.967,1.348c-2.755,6.076,0.039,7.98,1.192,9.778c0.615,0.947,0.654,4.181,1.592,5.988
	c1.114,2.178,1.016,3.712,0.703,6.115c-2.657-0.635-4.005-3.565-8.478-1.612c0.41,0.742,5.148,1.231,6.662,3.048
	c-3.311,4.083-10.666,4.532-14.232,3.409c5.089-10.969,2.335-11.829,2.325-19.653c3.116-1.885,4.337-6.818,3.331-8.166
	c-0.811,3.145-0.772,5.597-3.927,7.209c-0.078-0.879-0.234-1.504-0.371-2.393c-0.049-0.313-0.117-0.86-0.205-1.133
	c-0.039-0.088-0.068-0.166-0.098-0.244l-0.43-0.557c-1.026,2.774,0.742,5.919,0.987,8.596c-5.753,0.371-4.474-4.943-6.105-8.117
	c-1.123,0.772-1.104,0.977-0.547,3.888c0.596,3.028,2.598,5.304,6.076,5.499c0.215,0.02,0.508,0.137,0.557,0.049
	c0.039-0.078,0.186,0.01,0.273,0.02c0.469,3.77-0.86,10.715-4.142,13.88c-1.162-1.436-2.559-1.592-3.282-2.637
	c-0.772-3.331-1.905-5.636-2.188-10.813l-1.123,2.159c-0.059,3.223,2.305,7.892,0.86,8.791c-0.977,0.635-5.538,1.504-8.117,0.684
	c-2.901-0.938-2.95-1.416-4.474-4.415c-0.41,1.543,0.42,0.615-0.879,1.534c-0.987-0.479-1.885-2.159-2.667-3.399
	c-0.674-1.074-1.055-2.979-1.895-3.888c-0.703,3.419,1.377,6.378,3.292,8.449c1.895,2.051,4.591,2.637,7.736,3.399
	c-5.06,4.913-8.781,5.069-13.626,6.134c1.817,0.488,2.93,0.498,5.577-0.293c6.417-1.875,6.349-3.829,9.797-5.558
	c0.967-0.479,4.562-0.947,6.124-1.348c0.264,0.195,4.308,3.829,4.327,3.868c-0.742,1.241-2.286,2.803-3.595,4.073
	c-1.104,1.074-2.52,2.579-3.829,3.497c-1.553,1.074-3.819,1.963-5.675,2.022c-1.153,0.039-2.335-0.361-3.331-0.801
	c-0.918-0.391,0.029-0.264-1.25-0.322c0.723,2.588,1.748,2.354,4.337,2.159c9.231-0.703,12.63-8.615,15.228-9.826
	c0.811-0.391,4.962,1.035,14.271-2.53c4.405-1.69,2.735-1.26,5.88,0.039c1.27,0.537,3.458,0.664,4.649,1.866
	c1.914,1.944,4.542,6.662,5.255,9.406c1.328,5.148,0.479,6.857-1.143,11.507c-0.996-0.381-2.579-0.381-2.95-1.641
	c-0.674-2.354-0.908-6.603-0.371-9.211l1.28-3.702c-3.741,2.354-4.112,7.287-4.102,10.549c-1.104-0.098-1.895-0.879-2.657-1.397
	c-1.201-0.791-1.123-0.596-1.143-2.071c-0.02-1.934-0.684-3.468-1.856-4.816l-0.996-0.908c0.293,0.654-0.342,1.016-0.273,1.573
	c0.156,1.045,1.543,1.7,1.377,2.598l-0.176,1.426c-1.221,0.977-2.335-0.352-3.712-0.342l-4.122-0.918
	c0.86,0.967,2.969,2.061,3.956,2.813c0.957,0.733,2.315,2.462,3.106,2.794c-1.485,0.488-2.51,0.225-3.995,0.342
	c-4.962,0.361-3.067-0.02-6.691-1.651c-0.996-0.449-1.885-1.172-3.028-1.133c-1.26,2.921,1.338,2.335,4.015,3.761
	c-2.696,0.996-7.365,2.266-9.914,2.54c-2.344-2.833-1.993-3.858-7.59-3.839l-11.253,0.733c3.936,1.895,15.912-0.996,16.322,4.015
	c-2.081,0.488-3.614-0.029-5.45,0.195c4.093,1.602,3.8,1.211,9.572-0.361c-0.596,2.315-2.315,2.657-3.555,4.366
	c6.486-1.289,0.801-4.249,13.509-6.486C267.98,312.355,272.942,311.545,274.779,315.55z"/>
<path style="fill:#CE3E11;" d="M276.156,312.6c0,0,2.715,3.751,4.903,6.232c2.188,2.491,11.038,12.122,9.299,20.161
	c-1.729,8.039-0.557,11.116-4.542,15.189c-3.975,4.083-9.25,5.294-8.762,7.199c0.488,1.914,13.284-6.476,19.262-6.388
	c5.978,0.078,9.787-0.527,8.088-2.168c-1.709-1.651-3.722-2.256-4.757-7.736c-1.035-5.48,4.64-11.809,3.995-13.861
	c-0.645-2.061-1.631-3.428-2.93-1.407c-1.299,2.012-4.308,1.211-4.19-1.416c0.127-2.628-5.441-11.419-3.341-15.023
	c2.09-3.595,5.402-6.837,1.26-4.132c-4.132,2.706-5.939,7.629-6.369,4.396c-0.43-3.233,1.309-8.088-0.674-4.171
	c-1.993,3.927-1.114,9.866-3.819,7.453C280.884,314.504,276.156,312.6,276.156,312.6z"/>
<path d="M389.58,264.024c-2.667-0.254-1.553,0.547-4.024,0.635c-0.869,0.029-0.869-0.166-1.27-0.645l-0.156,0.908
	c-0.01,0.029-0.02,0.117-0.039,0.176c-2.999-0.078-0.078,0.391-2.198,0.508l0.078-1.768c-0.527,0.205-0.4,0.996-1.387,1.866
	c-0.4,0.352-0.459,0.137-0.381,0.567c0,0.01,0.029,0.068,0.029,0.078c0.098,0.469,0.205,0.361-0.205,0.977
	c-1.172,1.768,0.273-0.967-0.352,0.449c-0.186,1.739,0.645,1.397,0.244,2.647c-0.234,0.742-0.684,1.983-0.987,2.794
	c-0.811,2.168-0.195,1.25-0.195,2.969c-0.01,0.977-0.86,1.729-1.241,2.52l-2.354-0.625c-0.059-1.465,1.954-1.153,1.328-3.878
	c-1.367-5.968-7.57-2.178-10.96-1.387c-13.333,3.096-10.217,9.465-11.272,10.793c-1.065-0.44-1.182-0.254-0.205-1.172
	c-1.387,0.332-1.084,1.309-1.885,0.225c0.273,0.86,0.586,0.811,0.654,1.807c-0.527-0.215-1.27-0.84-1.094-1.739
	c0.078-0.41,0.391-0.752,0.694-0.977l0.996-0.606c0.039-0.029,0.127-0.078,0.176-0.117c-3.956-0.078-1.084,4.923-3.477,3.712
	c-0.508-0.254-0.391-0.293-0.576-0.86l-3.018,2.53l2.628-0.488c-0.772,1.436-1.162,0.967-1.25,1.739c0,0.02,0,0.098,0,0.107
	c-0.068,1.407-2.94,0.664-3.878,8.742c-2.872,24.83,2.305,24.478,1.836,32.029l-5.304,0.449l0.107,5.743l102.24-7.795l0.234-6.994
	c0.117-4.728-2.569-7.062-3.321-10.95c-0.635-3.262-0.449-2.637-1.866-5.069c-0.85-1.475-1.582-3.438-2.657-4.493
	c-3.096-3.048-7.844-0.606-10.217,1.7c-1.065,1.026-2.325,2.921-3.272,4.317c-1.016,1.504-2.344,3.106-3.106,4.454
	c-1.387-0.576-1.788-1.983-1.758-3.809c1.944-0.176,2.491,0.674,3.682-1.065c-0.244-1.123-1.563-2.715-2.159-3.868
	c-0.977-1.905-3.204-6.593-3.35-8.674c-0.225-3.262-1.651-5.88-3.907-7.971c-1.211-1.133-1.788-1.563-4.122-1.621
	c-1.827-0.049-3.321-0.42-5.314-0.449c-0.869-0.01-1.807,0.01-2.706-0.02l-2.471-0.029c0.176-1.387-0.137-0.117,0.967-0.82
	c0.586-0.371,0.684-0.83,0.752-1.758c0.293-4.044,1.114-3.946,1.241-5.734c0.078-1.045-0.225-1.504-0.244-2.061
	c-0.029-0.869,1.172-0.029-0.586-2.696c-2.071-3.135-0.703-2.422-4.278-4.728c-0.371-0.244-0.195-0.342-0.762-0.41
	c-2.393-0.293-0.908-0.293-1.954-0.713c-0.82-0.332-0.205,0.459-1.201,0.01c-0.664-0.283-0.44-0.615-1.28-1.016
	c-0.176,0.606-0.049-0.723,0.049,0.234L389.58,264.024z"/>
<g>
	<g>
		<path style="fill:#C5FF00;" d="M268.029,387.089c-1.084-1.973-2.999-4.63-5.45-6.144c-1.68-1.045-3.614-1.553-5.685-0.908
			c2.051-2.081,7.15-1.602,10.276,3.048c-0.352-6.496,3.526-11.331,6.29-11.38c-1.914,1.153-3.145,3.087-3.888,5.226
			C268.293,380.554,269.338,386.269,268.029,387.089z"/>
		<path style="fill:#C5FF00;" d="M289.147,381.932c0.186-2.452,0.088-5.978-1.016-8.605c-0.752-1.797-1.973-3.175-3.897-3.458
			c2.657-1.162,6.31,1.612,6.32,7.668c3.067-6.662,8.547-9.758,10.696-8.547c-2.071,0.293-4.005,1.661-5.685,3.468
			C292.712,375.524,290.573,381.707,289.147,381.932z"/>
		<path style="fill:#C5FF00;" d="M302.597,391.172c0.283-2.335,0.928-5.314,2.208-7.863c1.035-2.1,2.501-3.907,4.503-4.845
			c-2.54-0.303-6.711,3.751-7.619,9.963c-2.149-5.802-7.297-7.16-9.68-5.206c2.081-0.391,3.858,0.371,5.304,1.661
			c1.719,1.534,2.852,4.718,3.868,6.437C301.65,391.27,302.129,391.231,302.597,391.172z"/>
		<path style="fill:#C5FF00;" d="M314.114,389.17c1.006-2.335,2.54-5.236,4.503-7.531c1.592-1.866,3.468-3.321,5.538-3.722
			c-2.149-1.026-7.13,1.973-9.934,8.117c-0.039-6.574-4.151-9.416-6.886-8.078c1.963,0.186,3.282,1.475,4.151,3.204
			c1.133,2.256,0.996,6.398,1.475,8.273C313.342,389.345,313.733,389.258,314.114,389.17z"/>
	</g>
	<path style="fill:#8B6E62;" d="M323.227,370.484c-0.029,0.039-7.101,8.772-9.358,18.735c-0.303,0.078-0.606,0.147-0.899,0.215
		c2.266-10.276,9.572-19.301,9.592-19.331L323.227,370.484z M268.381,387.665c0.4,0.147,0.811,0.283,1.221,0.41
		c-4.523-9.592-1.504-20.454-1.494-20.493h-0.85C267.238,367.622,264.327,378.083,268.381,387.665z M282.329,390.986
		c0.342,0.049,0.684,0.088,1.035,0.127c-2.032-5.558-0.674-11.907-0.664-11.936l-0.869,0.049
		C281.821,379.246,280.512,385.37,282.329,390.986z M291.071,391.68c0.361,0.01,0.713,0.01,1.065,0.02
		c-0.225-0.469-0.459-0.967-0.713-1.494c-4.483-9.612,3.868-30.28,3.888-30.349l-0.82-0.107c-0.02,0.059-8.508,21.059-3.897,30.925
		C290.759,391.026,290.915,391.358,291.071,391.68z M301.65,391.27c0.303-0.029,0.596-0.059,0.889-0.088
		c-0.244-7.023,3.595-12.093,3.604-12.102l-0.694-0.352C305.44,378.747,301.455,384.012,301.65,391.27z"/>
</g>
<path style="fill:#FFFFFF;" d="M279.975,378.669c0,0-3.145-4.454-5.499-2.51C272.122,378.093,273.04,379.929,279.975,378.669z
	 M282.808,377.38c0,0-3.595-5.87,0.391-6.584S282.808,377.38,282.808,377.38z M284.84,378.279c1.797,0.117,8.586-3.302,6.486-5.05
	C289.245,371.48,284.84,378.279,284.84,378.279z M283.999,380.515c0,0,1.377,6.056,4.386,3.448
	C291.404,381.375,283.999,380.515,283.999,380.515z M281.304,381.375c0,0-7.062,6.388-3.067,6.974
	C282.232,388.916,281.304,381.375,281.304,381.375z M279.965,380.74c0,0-7.902,0.205-8.01,3.604
	C271.858,387.753,279.965,380.74,279.965,380.74z"/>
<path style="fill:#FFE900;" d="M281.567,376.843c1.534-0.684,3.077-0.195,3.458,1.104c0.381,1.309-0.547,2.921-2.081,3.614
	c-1.524,0.684-3.077,0.186-3.458-1.114C279.116,379.148,280.044,377.536,281.567,376.843z"/>
<path style="fill:#FF3C00;" d="M281.978,378.269c0.615-0.283,1.231-0.078,1.387,0.43c0.147,0.518-0.225,1.162-0.84,1.436
	c-0.596,0.273-1.221,0.078-1.367-0.44S281.382,378.532,281.978,378.269z"/>
<path style="fill:#FFFFFF;" d="M302.412,378.865c0,0-3.145-4.444-5.499-2.51C294.559,378.298,295.477,380.134,302.412,378.865z
	 M305.254,377.585c0,0-3.604-5.87,0.391-6.593C309.63,370.279,305.254,377.585,305.254,377.585z M307.286,378.474
	c1.797,0.127,8.576-3.302,6.486-5.04C311.681,371.685,307.286,378.474,307.286,378.474z M306.436,380.711
	c0,0,1.377,6.056,4.396,3.468C313.84,381.57,306.436,380.711,306.436,380.711z M303.74,381.57c0,0-7.062,6.398-3.067,6.974
	C304.668,389.121,303.74,381.57,303.74,381.57z M302.402,380.935c0,0-7.902,0.215-8,3.614
	C294.295,387.949,302.402,380.935,302.402,380.935z"/>
<path style="fill:#FFE900;" d="M304.014,377.048c1.524-0.694,3.077-0.195,3.458,1.104c0.381,1.299-0.557,2.921-2.081,3.604
	c-1.534,0.694-3.077,0.195-3.458-1.104C301.552,379.353,302.48,377.741,304.014,377.048z"/>
<path style="fill:#FF3C00;" d="M304.424,378.464c0.615-0.273,1.231-0.078,1.377,0.44c0.156,0.518-0.215,1.153-0.83,1.436
	c-0.606,0.273-1.231,0.078-1.377-0.44C303.447,379.382,303.818,378.738,304.424,378.464z"/>
<path style="fill:#FFFFFF;" d="M292.527,358.968c0,0-3.223-4.708-5.695-3.184C284.361,357.327,285.299,359.212,292.527,358.968z
	 M295.506,358.137c0,0-3.682-6.144,0.479-6.261C300.146,351.749,295.506,358.137,295.506,358.137z M297.606,359.28
	c1.866,0.371,8.967-1.963,6.818-3.927C302.265,353.39,297.606,359.28,297.606,359.28z M296.698,361.302c0,0,1.367,6.007,4.532,3.936
	S296.698,361.302,296.698,361.302z M293.885,361.761c0,0-7.433,5.138-3.282,6.242C294.764,369.116,293.885,361.761,293.885,361.761z
	 M292.497,360.96c0,0-8.234-0.918-8.381,2.335C283.98,366.547,292.497,360.96,292.497,360.96z"/>
<path style="fill:#FFE900;" d="M294.207,357.454c1.602-0.449,3.214,0.234,3.595,1.543c0.381,1.299-0.615,2.715-2.217,3.165
	c-1.592,0.44-3.204-0.244-3.585-1.543C291.618,359.319,292.615,357.903,294.207,357.454z"/>
<path style="fill:#FF3C00;" d="M294.627,358.87c0.645-0.176,1.28,0.098,1.426,0.615c0.156,0.518-0.234,1.074-0.879,1.26
	c-0.635,0.176-1.27-0.098-1.426-0.625C293.601,359.612,293.992,359.046,294.627,358.87z"/>
<path style="fill:#FFFFFF;" d="M265.656,366.87c0,0-2.745-4.015-4.855-2.706C258.691,365.463,259.492,367.075,265.656,366.87z
	 M268.195,366.166c0,0-3.135-5.236,0.4-5.343C272.141,360.726,268.195,366.166,268.195,366.166z M269.983,367.143
	c1.592,0.313,7.638-1.67,5.812-3.35C273.948,362.113,269.983,367.143,269.983,367.143z M269.211,368.862c0,0,1.162,5.118,3.858,3.35
	C275.765,370.454,269.211,368.862,269.211,368.862z M266.818,369.243c0,0-6.339,4.386-2.803,5.323
	C267.56,375.524,266.818,369.243,266.818,369.243z M265.626,368.569c0,0-7.013-0.781-7.14,1.993
	C258.369,373.326,265.626,368.569,265.626,368.569z"/>
<path style="fill:#FFE900;" d="M267.091,365.58c1.367-0.381,2.735,0.205,3.057,1.319c0.322,1.104-0.518,2.315-1.885,2.686
	c-1.358,0.391-2.735-0.205-3.057-1.309C264.884,367.163,265.734,365.961,267.091,365.58z"/>
<path style="fill:#FF3C00;" d="M267.443,366.782c0.547-0.147,1.094,0.088,1.221,0.527c0.127,0.44-0.205,0.918-0.752,1.074
	c-0.547,0.147-1.094-0.088-1.221-0.527C266.564,367.417,266.906,366.938,267.443,366.782z"/>
<path style="fill:#FFFFFF;" d="M325.142,368.657c0,0,2.93-5.919,5.333-5.138C332.878,364.301,332.047,366.567,325.142,368.657z
	 M322.27,368.765c0,0,3.321-7.56-0.654-6.339C317.64,363.656,322.27,368.765,322.27,368.765z M320.306,370.63
	c-1.788,0.987-8.635,0.879-6.642-1.866C315.667,366.03,320.306,370.63,320.306,370.63z M321.225,372.437c0,0-1.114,6.662-4.2,5.538
	C313.938,376.862,321.225,372.437,321.225,372.437z M323.93,371.988c0,0,7.267,2.911,3.321,5.411
	C323.325,379.9,323.93,371.988,323.93,371.988z M325.229,370.708c0,0,7.834-3.614,8.078-0.293
	C333.552,373.736,325.229,370.708,325.229,370.708z"/>
<path style="fill:#FFE900;" d="M323.481,367.632c-1.543,0.059-3.057,1.299-3.38,2.764c-0.322,1.475,0.664,2.618,2.208,2.569
	c1.543-0.059,3.057-1.299,3.38-2.774C326.011,368.726,325.024,367.583,323.481,367.632z"/>
<path style="fill:#FF3C00;" d="M323.129,369.234c-0.615,0.02-1.221,0.518-1.338,1.104c-0.127,0.586,0.264,1.045,0.869,1.016
	c0.615-0.02,1.221-0.508,1.338-1.094C324.135,369.673,323.735,369.214,323.129,369.234z"/>
<path style="fill:#FFFFFF;" d="M414.371,84.16c0.44,0.615,0.107,1.661-0.733,2.325c-2.002,1.592-3.575-0.654-1.573-2.237
	C412.905,83.574,413.941,83.534,414.371,84.16z M181.398,55.169c0.811-0.147,1.475,0.547,1.475,1.543
	c0,0.987-0.664,1.905-1.475,2.041c-0.82,0.137-1.485-0.557-1.485-1.543C179.914,56.214,180.578,55.305,181.398,55.169z
	 M298.641,41.63c0.82-0.137,1.485,0.557,1.485,1.543c0,0.996-0.664,1.905-1.485,2.041c-0.811,0.137-1.475-0.547-1.475-1.543
	C297.167,42.685,297.831,41.767,298.641,41.63z M107.417,76.629c0.821-0.137,1.485,0.557,1.485,1.543
	c0,0.987-0.664,1.905-1.485,2.041c-0.811,0.147-1.475-0.557-1.475-1.543S106.606,76.765,107.417,76.629z M89.297,100.316
	c0.82-0.137,1.475,0.547,1.475,1.543c0,0.987-0.654,1.905-1.475,2.041s-1.485-0.557-1.485-1.543
	C87.813,101.361,88.477,100.452,89.297,100.316z M132.569,95.246c0.82-0.137,1.485,0.547,1.485,1.543
	c0,0.987-0.664,1.905-1.485,2.041s-1.475-0.557-1.475-1.543C131.094,96.291,131.748,95.383,132.569,95.246z M166.229,78.797
	c0.82-0.137,1.485,0.557,1.485,1.543c0,0.987-0.664,1.905-1.485,2.041s-1.475-0.547-1.475-1.543
	C164.754,79.852,165.408,78.934,166.229,78.797z M149.213,51.183c0.82-0.137,1.485,0.557,1.485,1.543
	c0,0.996-0.664,1.905-1.485,2.051c-0.811,0.137-1.475-0.557-1.475-1.543C147.738,52.238,148.403,51.33,149.213,51.183z
	 M111.119,111.871c0.811-0.137,1.475,0.547,1.475,1.543c0,0.987-0.664,1.905-1.475,2.041c-0.821,0.137-1.475-0.557-1.475-1.543
	S110.298,112.008,111.119,111.871z M136.642,68.551c0.811-0.137,1.475,0.557,1.475,1.543c0,0.996-0.664,1.914-1.475,2.051
	c-0.82,0.137-1.485-0.557-1.485-1.543C135.157,69.606,135.822,68.687,136.642,68.551z M86.709,130.791
	c0.811-0.137,1.475,0.547,1.475,1.543c0,0.987-0.664,1.905-1.475,2.041c-0.82,0.137-1.485-0.557-1.485-1.543
	C85.224,131.836,85.888,130.928,86.709,130.791z M320.834,28.473c0.82-0.147,1.485,0.547,1.485,1.543
	c0,0.987-0.664,1.905-1.485,2.041c-0.811,0.137-1.475-0.557-1.475-1.543C319.359,29.518,320.023,28.61,320.834,28.473z
	 M270.901,41.386c0.82-0.137,1.485,0.557,1.485,1.543c0,0.996-0.664,1.905-1.485,2.041c-0.811,0.137-1.475-0.547-1.475-1.543
	C269.426,42.441,270.09,41.523,270.901,41.386z M203.581,20.034c0.821-0.137,1.485,0.557,1.485,1.543
	c0,0.987-0.664,1.905-1.485,2.041c-0.811,0.137-1.475-0.557-1.475-1.543C202.106,21.089,202.77,20.171,203.581,20.034z
	 M261.66,12.913c0.811-0.137,1.475,0.557,1.475,1.543c0,0.996-0.664,1.905-1.475,2.041c-0.82,0.137-1.485-0.547-1.485-1.543
	C260.176,13.968,260.84,13.05,261.66,12.913z M54.397,178.849c0.82-0.137,1.475,0.547,1.475,1.543c0,0.987-0.654,1.905-1.475,2.041
	s-1.485-0.557-1.485-1.543C52.912,179.904,53.577,178.986,54.397,178.849z M36.268,202.536c0.82-0.147,1.485,0.547,1.485,1.543
	c0,0.987-0.664,1.905-1.485,2.041c-0.811,0.137-1.475-0.557-1.475-1.543C34.793,203.581,35.457,202.673,36.268,202.536z
	 M96.194,153.404c0.811-0.137,1.475,0.557,1.475,1.543c0,0.996-0.664,1.905-1.475,2.041c-0.82,0.147-1.485-0.547-1.485-1.543
	C94.709,154.459,95.373,153.54,96.194,153.404z M58.099,214.091c0.811-0.147,1.475,0.547,1.475,1.543
	c0,0.987-0.664,1.905-1.475,2.041c-0.82,0.137-1.485-0.557-1.485-1.543C56.614,215.136,57.279,214.228,58.099,214.091z
	 M83.613,170.771c0.82-0.137,1.485,0.557,1.485,1.543c0,0.996-0.664,1.905-1.485,2.051c-0.811,0.137-1.475-0.557-1.475-1.553
	C82.138,171.826,82.802,170.908,83.613,170.771z M33.679,233.002c0.82-0.137,1.485,0.557,1.485,1.543
	c0,0.996-0.664,1.905-1.485,2.041c-0.811,0.147-1.475-0.547-1.475-1.534C32.205,234.057,32.869,233.138,33.679,233.002z
	 M367.514,34.129c0.44,0.615,0.107,1.661-0.733,2.335c-0.84,0.664-1.875,0.703-2.305,0.088c-0.43-0.625-0.107-1.67,0.733-2.335
	S367.085,33.513,367.514,34.129z M340.418,34.295c0.44,0.615,0.107,1.661-0.733,2.325c-0.84,0.664-1.875,0.703-2.305,0.088
	s-0.107-1.661,0.733-2.335C338.953,33.709,339.989,33.67,340.418,34.295z M361.488,68.599c0.43,0.615,0.107,1.661-0.733,2.335
	c-0.84,0.664-1.875,0.703-2.305,0.078c-0.44-0.615-0.107-1.661,0.733-2.325C360.022,68.023,361.048,67.984,361.488,68.599z
	 M388.466,86.865c0.43,0.615,0.107,1.661-0.733,2.325c-0.84,0.674-1.875,0.713-2.305,0.088c-0.44-0.615-0.107-1.661,0.733-2.335
	C387.001,86.279,388.027,86.24,388.466,86.865z M405.277,53.42c0.43,0.625,0.107,1.661-0.733,2.335
	c-0.84,0.664-1.875,0.703-2.305,0.088c-0.44-0.625-0.107-1.661,0.733-2.335C403.812,52.844,404.847,52.805,405.277,53.42z
	 M339.08,61.098c0.44,0.625,0.107,1.67-0.733,2.335s-1.875,0.703-2.305,0.088c-0.43-0.625-0.107-1.661,0.733-2.335
	C337.615,60.521,338.65,60.482,339.08,61.098z M385.683,54.163c0.43,0.615,0.107,1.661-0.733,2.325
	c-0.84,0.674-1.875,0.713-2.305,0.088c-0.44-0.615-0.107-1.661,0.733-2.325C384.217,53.586,385.253,53.547,385.683,54.163z
	 M313.586,52.57c0.44,0.615,0.107,1.661-0.733,2.325c-0.84,0.674-1.875,0.703-2.305,0.088c-0.43-0.615-0.107-1.661,0.733-2.325
	C312.121,51.984,313.156,51.945,313.586,52.57z M460.729,152.906c0.43,0.615,0.107,1.661-0.733,2.325
	c-0.84,0.674-1.875,0.713-2.305,0.098c-0.43-0.625-0.107-1.67,0.733-2.335C459.264,152.329,460.299,152.29,460.729,152.906z"/>
<g>
	<path style="fill:#424242;" d="M302.08,465.593l6.017,0.068c1.963,0.029,3.565,1.651,3.565,3.624v15.169
		c0,1.963-1.602,3.546-3.565,3.526l-6.017-0.078c-1.963-0.02-3.575-1.641-3.575-3.614v-15.16
		C298.505,467.156,300.116,465.574,302.08,465.593z"/>
	<path style="fill:#424242;" d="M351.681,466.189l6.007,0.078c1.963,0.02,3.575,1.651,3.575,3.614v15.169
		c0,1.963-1.612,3.555-3.575,3.526l-6.007-0.068c-1.973-0.029-3.575-1.651-3.575-3.614v-15.169
		C348.106,467.762,349.708,466.169,351.681,466.189z"/>
</g>
<path style="fill:#9D9D9D;" d="M353.556,453.315c12.014,5.47,10.364,12.708,7.599,22.105c-1.143,3.897-4.776,7.56-8.859,7.511
	l-45.626-0.625c-4.073-0.059-7.306-3.36-8.166-7.345c-1.924-9.006-3.79-16.342,6.583-21.724c0.713-4.855,1.866-10.022,3.243-15.404
	c0.449-1.748,1.494-3.135,3.302-3.262c12.903-0.86,24.312-0.703,35.027,0.42c1.807,0.195,2.54,1.69,3.302,3.35
	C352.638,444.172,353.165,448.783,353.556,453.315z"/>
<g>
	<polygon style="fill:#606060;" points="310.754,436.016 347.92,436.456 351.73,452.465 306.407,451.918 	"/>
	<path style="fill:#606060;" d="M329.4,455.093c5.04,0.059,9.338,0.83,11.038,1.856l-22.066-0.264
		C320.062,455.698,324.36,455.034,329.4,455.093z"/>
	<path style="fill:#606060;" d="M319.359,461.119c6.007-0.42,12.6-0.273,20.014,0.234c5.323,0.371,3.077,11.643-0.85,12.259
		c-6.808,1.084-11.536,1.26-18.061-0.147C316.565,472.626,313.957,461.491,319.359,461.119z"/>
</g>
<g>
	<path style="fill:#FFFFFF;" d="M348.897,459.664c1.446,0.02,2.608,1.201,2.608,2.637c0,1.436-1.162,2.598-2.608,2.579
		c-1.436-0.02-2.608-1.201-2.608-2.637C346.289,460.797,347.461,459.645,348.897,459.664z"/>
	<path style="fill:#FFFFFF;" d="M356.506,459.742c1.875,0.02,3.399,1.563,3.399,3.438c0,1.885-1.524,3.389-3.399,3.36
		c-1.885-0.02-3.409-1.563-3.409-3.438C353.097,461.217,354.621,459.713,356.506,459.742z"/>
</g>
<path style="fill:#BBBBBB;" d="M350.85,462.643c-0.156,0.928-0.977,1.631-1.954,1.612c-0.977-0.01-1.788-0.723-1.954-1.651
	L350.85,462.643z"/>
<path style="fill:#747474;" d="M348.897,460.279c0.977,0.01,1.797,0.733,1.954,1.661l-3.907-0.049
	C347.109,460.963,347.92,460.27,348.897,460.279z"/>
<path style="fill:#BBBBBB;" d="M356.506,462.311c0.449,0.01,0.82,0.381,0.82,0.84c0,0.459-0.371,0.82-0.82,0.82
	c-0.459-0.01-0.83-0.381-0.83-0.84C355.676,462.673,356.047,462.311,356.506,462.311z"/>
<path style="fill:#747474;" d="M357.268,460.377c1.201,0.352,2.081,1.446,2.11,2.745l-1.543-0.303
	c-0.088-0.332-0.293-0.615-0.567-0.801l0,0V460.377z M359.085,464.431c-0.469,0.947-1.446,1.592-2.579,1.582
	c-0.801-0.01-1.524-0.342-2.041-0.879l1.309-0.84c0.215,0.137,0.459,0.215,0.733,0.215c0.381,0.01,0.723-0.147,0.977-0.391l0,0
	L359.085,464.431z M353.761,463.981c-0.088-0.273-0.137-0.567-0.137-0.879c0-1.387,0.987-2.53,2.305-2.784v1.573
	c-0.469,0.205-0.791,0.674-0.801,1.211l0,0L353.761,463.981z"/>
<path style="fill:#FFFFFF;" d="M348.946,460.631c0.195,0.01,0.352,0.166,0.352,0.361c0,0.195-0.156,0.352-0.352,0.352
	s-0.361-0.166-0.361-0.361C348.584,460.787,348.75,460.631,348.946,460.631z"/>
<path style="fill:#747474;" d="M346.738,468.777l11.321,0.137c0.576,0.01,1.055,0.488,1.055,1.065l-0.01,1.846
	c0,0.576-0.469,1.045-1.045,1.035l-11.331-0.137c-0.576,0-1.045-0.479-1.045-1.055v-1.856
	C345.683,469.236,346.152,468.768,346.738,468.777z"/>
<path style="fill:#FFFFFF;" d="M346.738,468.777l0.645,0.01l0.137,3.946l-0.733-0.01l-0.137-3.946
	C346.68,468.777,346.699,468.777,346.738,468.777z M348.477,468.797l0.733,0.01l0.147,3.956l-0.733-0.01L348.477,468.797z
	 M350.313,468.826l0.733,0.01l0.137,3.946l-0.733-0.01L350.313,468.826z M352.14,468.846l0.733,0.01l0.147,3.946l-0.733-0.01
	L352.14,468.846z M353.976,468.865l0.733,0.01l0.147,3.946h-0.733L353.976,468.865z M355.803,468.885l0.733,0.01l0.147,3.956
	l-0.733-0.01L355.803,468.885z M357.639,468.904l0.42,0.01c0.107,0,0.215,0.02,0.313,0.049l0.137,3.8
	c-0.137,0.068-0.293,0.098-0.459,0.098h-0.264L357.639,468.904z"/>
<path style="fill:#DFDFDF;" d="M353.878,475.019c1.172,0.02,2.12,0.977,2.12,2.149c0,1.172-0.947,2.11-2.12,2.1
	c-1.172-0.01-2.12-0.977-2.12-2.149C351.759,475.947,352.706,475.009,353.878,475.019z"/>
<path style="fill:#BBBBBB;" d="M353.878,475.361c0.987,0.01,1.778,0.821,1.778,1.807s-0.791,1.768-1.778,1.758
	c-0.987-0.01-1.788-0.82-1.788-1.807C352.091,476.142,352.892,475.351,353.878,475.361z"/>
<path style="fill:#747474;" d="M353.878,476.719c0.234,0.01,0.42,0.195,0.42,0.43c0,0.234-0.186,0.42-0.42,0.42
	c-0.234,0-0.43-0.195-0.43-0.43C353.449,476.904,353.644,476.719,353.878,476.719z"/>
<g>
	<path style="fill:#606060;" d="M348.448,475.976l2.852,0.029c-0.147,0.342-0.225,0.713-0.225,1.104c0,0.088,0,0.176,0.01,0.254
		l-3.067-0.029L348.448,475.976z M348.702,479.209l3.35,0.039c-0.41-0.361-0.723-0.84-0.869-1.367l-2.911-0.039L348.702,479.209z"/>
	<polygon style="fill:#606060;" points="321.254,478.545 339.422,478.76 338.103,480.245 322.358,480.049 	"/>
</g>
<g>
	<path style="fill:#FFFFFF;" d="M311.388,459.215c-1.436-0.02-2.608,1.133-2.608,2.569c0,1.446,1.172,2.628,2.608,2.647
		c1.446,0.01,2.608-1.143,2.608-2.579C313.996,460.406,312.834,459.224,311.388,459.215z"/>
	<path style="fill:#FFFFFF;" d="M303.838,459.137c-1.875-0.029-3.399,1.485-3.399,3.36c0,1.875,1.524,3.419,3.399,3.448
		c1.885,0.02,3.409-1.485,3.409-3.36C307.247,460.699,305.723,459.156,303.838,459.137z"/>
</g>
<path style="fill:#BBBBBB;" d="M309.435,462.145c0.166,0.938,0.977,1.651,1.954,1.661s1.797-0.684,1.963-1.612L309.435,462.145z"/>
<path style="fill:#747474;" d="M311.388,459.83c-0.977-0.01-1.788,0.684-1.954,1.612l3.917,0.049
	C313.186,460.553,312.365,459.84,311.388,459.83z"/>
<path style="fill:#BBBBBB;" d="M303.838,461.706c-0.449,0-0.82,0.361-0.82,0.82c0,0.459,0.371,0.84,0.82,0.84
	c0.459,0,0.83-0.361,0.83-0.82S304.297,461.715,303.838,461.706z"/>
<path style="fill:#747474;" d="M303.076,459.762c-1.201,0.313-2.081,1.387-2.11,2.686l1.553-0.264
	c0.078-0.332,0.283-0.606,0.557-0.791l0,0V459.762z M301.259,463.767c0.469,0.967,1.446,1.631,2.579,1.641
	c0.801,0.01,1.524-0.303,2.051-0.82l-1.319-0.879c-0.215,0.127-0.459,0.205-0.733,0.205c-0.381-0.01-0.723-0.166-0.967-0.43v0.01
	L301.259,463.767z M306.583,463.444c0.088-0.273,0.137-0.567,0.137-0.869c0-1.397-0.987-2.559-2.305-2.842v1.573
	c0.469,0.215,0.791,0.684,0.801,1.231l0,0L306.583,463.444z"/>
<path style="fill:#FFFFFF;" d="M311.349,460.182c-0.195,0-0.352,0.156-0.352,0.352c0,0.195,0.156,0.352,0.352,0.352
	c0.195,0.01,0.352-0.147,0.352-0.342C311.701,460.348,311.545,460.182,311.349,460.182z"/>
<path style="fill:#747474;" d="M313.557,468.377l-11.331-0.137c-0.576,0-1.045,0.459-1.045,1.035v1.856
	c0,0.576,0.479,1.055,1.055,1.065l11.331,0.127c0.576,0.01,1.045-0.459,1.045-1.035v-1.846
	C314.602,468.865,314.133,468.387,313.557,468.377z"/>
<path style="fill:#E5E5E5;" d="M313.557,468.377l-0.645-0.01l-0.147,3.946l0.733,0.01l0.147-3.936
	C313.616,468.377,313.586,468.377,313.557,468.377z M311.808,468.357l-0.733-0.01l-0.147,3.946l0.733,0.01L311.808,468.357z
	 M309.982,468.338l-0.733-0.01l-0.147,3.946l0.733,0.01L309.982,468.338z M308.146,468.318l-0.733-0.01l-0.147,3.946l0.733,0.01
	L308.146,468.318z M306.319,468.289l-0.733-0.01l-0.147,3.946l0.733,0.01L306.319,468.289z M304.483,468.269l-0.733-0.01
	l-0.147,3.946l0.733,0.01L304.483,468.269z M302.656,468.25l-0.43-0.01c-0.107,0-0.215,0.02-0.313,0.049l-0.137,3.79
	c0.137,0.068,0.293,0.107,0.459,0.117h0.273L302.656,468.25z"/>
<path style="fill:#DFDFDF;" d="M306.417,474.453c-1.172-0.02-2.12,0.918-2.12,2.1c0,1.162,0.947,2.129,2.12,2.139
	c1.172,0.02,2.12-0.918,2.12-2.09C308.536,475.429,307.589,474.462,306.417,474.453z"/>
<path style="fill:#BBBBBB;" d="M306.417,474.794c-0.987-0.01-1.788,0.772-1.788,1.758c0,0.987,0.801,1.788,1.788,1.807
	c0.987,0.01,1.778-0.781,1.778-1.768C308.194,475.615,307.403,474.804,306.417,474.794z"/>
<path style="fill:#747474;" d="M306.417,476.152c-0.234-0.01-0.43,0.186-0.43,0.42c0,0.234,0.195,0.42,0.43,0.43
	c0.234,0,0.42-0.186,0.42-0.42C306.837,476.347,306.651,476.152,306.417,476.152z"/>
<path style="fill:#606060;" d="M311.838,475.537l-2.852-0.039c0.147,0.342,0.234,0.723,0.234,1.114c0,0.078-0.01,0.166-0.02,0.254
	l3.067,0.029L311.838,475.537z M311.594,478.76l-3.35-0.039c0.41-0.352,0.713-0.82,0.869-1.348l2.911,0.029L311.594,478.76z"/>
<path style="fill:#FFFFFF;" d="M471.249,117.37c-0.088,0.508-0.4,1.035-0.908,1.436c-2.002,1.592-3.565-0.654-1.563-2.247
	c0.518-0.41,1.123-0.586,1.602-0.508L471.249,117.37z M238.1,87.481c0.82-0.137,1.475,0.557,1.475,1.543
	c0,0.996-0.654,1.905-1.475,2.041c-0.82,0.147-1.485-0.547-1.485-1.534C236.616,88.536,237.28,87.617,238.1,87.481z M164.129,108.95
	c0.811-0.137,1.475,0.547,1.475,1.543c0,0.987-0.664,1.905-1.475,2.041c-0.82,0.137-1.485-0.557-1.485-1.543
	C162.644,109.995,163.308,109.087,164.129,108.95z M146,132.628c0.82-0.137,1.485,0.557,1.485,1.543
	c0,0.996-0.664,1.905-1.485,2.051c-0.811,0.137-1.475-0.557-1.475-1.543C144.525,133.682,145.189,132.774,146,132.628z
	 M189.281,127.558c0.811-0.137,1.475,0.557,1.475,1.543c0,0.996-0.664,1.905-1.475,2.051c-0.82,0.137-1.485-0.557-1.485-1.553
	C187.796,128.613,188.46,127.695,189.281,127.558z M222.941,111.119c0.811-0.147,1.475,0.547,1.475,1.543
	c0,0.987-0.664,1.905-1.475,2.041c-0.82,0.137-1.485-0.557-1.485-1.543C221.456,112.164,222.12,111.256,222.941,111.119z
	 M205.925,83.505c0.811-0.137,1.475,0.557,1.475,1.543c0,0.987-0.664,1.905-1.475,2.041c-0.82,0.137-1.485-0.557-1.485-1.543
	S205.105,83.642,205.925,83.505z M167.821,144.183c0.82-0.137,1.485,0.557,1.485,1.543c0,0.996-0.664,1.914-1.485,2.051
	c-0.811,0.137-1.475-0.557-1.475-1.543C166.346,145.238,167.01,144.32,167.821,144.183z M193.344,100.872
	c0.82-0.137,1.485,0.557,1.485,1.543s-0.664,1.905-1.485,2.041s-1.475-0.547-1.475-1.543
	C191.869,101.927,192.524,101.009,193.344,100.872z M143.411,163.103c0.82-0.137,1.485,0.557,1.485,1.543
	c0,0.996-0.664,1.905-1.485,2.041s-1.475-0.547-1.475-1.543C141.936,164.158,142.591,163.24,143.411,163.103z M377.536,60.785
	c1.954-0.322,1.954,3.262,0,3.585C375.602,64.702,375.602,61.117,377.536,60.785z M260.293,52.356
	c0.82-0.137,1.475,0.547,1.475,1.543c0,0.987-0.654,1.905-1.475,2.041s-1.475-0.557-1.475-1.543S259.472,52.492,260.293,52.356z
	 M318.363,45.235c0.82-0.137,1.475,0.547,1.475,1.543c0,0.987-0.654,1.905-1.475,2.041s-1.485-0.557-1.485-1.543
	C316.878,46.28,317.542,45.372,318.363,45.235z M111.099,211.161c0.82-0.137,1.485,0.557,1.485,1.543
	c0,0.996-0.664,1.914-1.485,2.051c-0.811,0.137-1.475-0.557-1.475-1.543C109.624,212.216,110.288,211.307,111.099,211.161z
	 M92.98,234.848c0.811-0.137,1.475,0.557,1.475,1.543c0,0.996-0.664,1.905-1.475,2.041c-0.82,0.147-1.485-0.547-1.485-1.543
	C91.495,235.903,92.159,234.985,92.98,234.848z M152.896,185.725c0.82-0.137,1.485,0.547,1.485,1.543
	c0,0.987-0.664,1.905-1.485,2.041s-1.475-0.557-1.475-1.543C151.421,186.78,152.075,185.862,152.896,185.725z M114.801,246.403
	c0.821-0.137,1.475,0.557,1.475,1.543c0,0.996-0.654,1.905-1.475,2.051c-0.82,0.137-1.475-0.557-1.475-1.553
	C113.326,247.458,113.981,246.54,114.801,246.403z M140.325,203.093c0.811-0.137,1.475,0.547,1.475,1.543
	c0,0.987-0.664,1.905-1.475,2.041c-0.82,0.137-1.485-0.557-1.485-1.543C138.84,204.148,139.504,203.229,140.325,203.093z
	 M424.226,66.451c0.43,0.615,0.098,1.661-0.742,2.325c-0.83,0.674-1.866,0.713-2.305,0.088c-0.43-0.615-0.098-1.661,0.742-2.325
	C422.761,65.864,423.787,65.825,424.226,66.451z M397.13,66.607c0.43,0.625,0.098,1.661-0.742,2.335
	c-0.83,0.664-1.866,0.703-2.295,0.088C393.057,67.554,396.095,65.132,397.13,66.607z M442.385,86.484
	c0.44,0.615,0.107,1.661-0.733,2.325c-0.84,0.674-1.875,0.713-2.305,0.088c-0.43-0.615-0.107-1.661,0.733-2.325
	C440.92,85.898,441.955,85.859,442.385,86.484z"/>
<g>
</g>
<g>
</g>
<g>
</g>
<g>
</g>
<g>
</g>
<g>
</g>
<g>
</g>
<g>
</g>
<g>
</g>
<g>
</g>
<g>
</g>
<g>
</g>
<g>
</g>
<g>
</g>
<g>
</g>
</svg>
