<?xml version="1.0" encoding="iso-8859-1"?>
<!-- Generator: Adobe Illustrator 19.0.0, SVG Export Plug-In . SVG Version: 6.00 Build 0)  -->
<svg version="1.1" id="Layer_1" xmlns="http://www.w3.org/2000/svg" xmlns:xlink="http://www.w3.org/1999/xlink" x="0px" y="0px"
	 viewBox="0 0 512 512" style="enable-background:new 0 0 512 512;" xml:space="preserve">
<path style="fill:#FFEBB1;" d="M256,0c141.386,0,256,114.614,256,256c0,141.386-114.614,256-256,256C114.614,512,0,397.386,0,256
	C0,114.614,114.614,0,256,0z"/>
<g>
	<path style="fill:#FFB54C;" d="M467.965,147.179c2.659,0,5.165,0.431,7.383,1.191c2.402-1.599,5.694-2.586,9.322-2.586
		c0.861,0,1.705,0.055,2.522,0.162c4.21,8.826,7.928,17.931,11.121,27.279c-1.926,1.452-4.712,2.364-7.815,2.364
		c-2.921,0-5.564-0.809-7.473-2.119c-1.905,1.31-4.549,2.119-7.472,2.119c-2.776,0-5.305-0.733-7.186-1.929
		c-1.92,1.43-4.684,2.327-7.761,2.327c-2.879,0-5.486-0.783-7.38-2.057c-0.87,0.131-1.773,0.199-2.699,0.199
		c-6.922,0-12.529-3.814-12.529-8.518c0-4.707,5.608-8.522,12.529-8.522c0.376,0,0.751,0.014,1.12,0.037
		C452.535,151.534,459.501,147.179,467.965,147.179z"/>
	<path style="fill:#FFB54C;" d="M274.778,92.878c3.072,0,5.968,0.497,8.533,1.377c2.776-1.849,6.578-2.989,10.772-2.989
		c7.263,0,13.352,3.417,14.983,8.017c3.63,0.742,6.542,2.604,7.87,4.998c0.435-0.034,0.88-0.048,1.327-0.048
		c6.709,0,12.153,3.7,12.153,8.265c0,4.563-5.445,8.263-12.153,8.263c-2.092,0-4.059-0.357-5.775-0.99
		c-1.477,3.434-6.141,5.942-11.671,5.942c-3.377,0-6.43-0.936-8.633-2.451c-2.204,1.514-5.259,2.451-8.638,2.451
		c-3.207,0-6.13-0.847-8.304-2.228c-2.219,1.651-5.415,2.689-8.968,2.689c-3.326,0-6.338-0.907-8.528-2.377
		c-1.006,0.151-2.053,0.229-3.12,0.229c-7.999,0-14.479-4.407-14.479-9.845c0-5.438,6.481-9.845,14.479-9.845
		c0.435,0,0.868,0.014,1.294,0.041C256.948,97.91,265,92.878,274.778,92.878z"/>
</g>
<g>
	<path d="M263.437,41.327c0,0,5.791-1.241,10.638-0.314c4.858,0.931,9.918,4.959,15.395,5.271c5.474,0.307,4.336-1.759,4.336-1.759
		s-3.512,0.52-4.444-2.476c-0.926-2.996,2.895-5.376,8.78-9.501c5.892-4.132,7.028-8.265,5.892-10.851c0,0-1.035,1.654-5.892,4.238
		c-4.854,2.584-8.363,7.337-12.184,10.738c-3.823,3.413-4.031,3.617-7.646,2.896C274.7,38.844,266.952,37.711,263.437,41.327z"/>
	<path d="M193.72,59.123c0,0,5.791-1.241,10.637-0.314c4.858,0.931,9.918,4.959,15.395,5.271c5.475,0.307,4.336-1.759,4.336-1.759
		s-3.512,0.52-4.444-2.476c-0.925-2.996,2.895-5.376,8.78-9.501c5.892-4.132,7.028-8.265,5.892-10.851c0,0-1.035,1.654-5.892,4.238
		c-4.854,2.584-8.363,7.337-12.184,10.738c-3.823,3.413-4.031,3.617-7.646,2.896C204.983,56.64,197.234,55.507,193.72,59.123z"/>
</g>
<path style="fill:#4CCFDF;" d="M0.078,262.045h511.844C508.711,400.639,395.366,512,256,512
	C116.634,512,3.289,400.639,0.078,262.045z"/>
<path style="fill:#FFDF81;" d="M506.766,307.743c-73.802-14.373-234.255-36.336-328.594,20.176
	c-125.455,75.153,29.698,104.244,83.638,118.79c53.94,14.545,30.908,9.698,93.938,14.545c18.422,1.415,35.75,1.695,51.606,1.211
	C457.533,425.618,493.796,370.934,506.766,307.743z"/>
<path style="fill:#FFD34E;" d="M4.982,306.449c60.373,1.938,214.001,13.675,278.038,82.075
	c47.193,50.41,6.228,93.533-39.342,123.176C125.086,506.079,27.632,419.77,4.982,306.449z"/>
<path style="fill:#FFC928;" d="M147.96,488.132c95.377-125.909,263.63-123.032,335.769-115.083C441.233,455.566,355.209,512,256,512
	C217.391,512,180.789,503.435,147.96,488.132z"/>
<path style="fill:#B1E9F1;" d="M82.394,276.629c24.601,0,44.545,0.474,44.545,1.06s-19.944,1.06-44.545,1.06
	c-24.602,0-44.546-0.474-44.546-1.06S57.792,276.629,82.394,276.629z M509.942,288.597c-0.131,1.013-0.284,2.018-0.423,3.028
	c-19.534-0.03-35.152-0.696-35.152-1.514C474.367,289.289,490.209,288.619,509.942,288.597z M462.547,270.112
	c23.765,0,43.029,0.813,43.029,1.816c0,1.004-19.264,1.817-43.029,1.817c-23.765,0-43.029-0.813-43.029-1.817
	C419.518,270.926,438.783,270.112,462.547,270.112z M342.697,283.748c39.245,0,71.06,0.543,71.06,1.212
	c0,0.669-31.815,1.211-71.06,1.211s-71.06-0.543-71.06-1.211C271.638,284.291,303.452,283.748,342.697,283.748z M210.121,294.961
	c19.917,0,36.061,0.882,36.061,1.967c0,1.086-16.144,1.968-36.061,1.968c-19.917,0-36.061-0.882-36.061-1.968
	C174.059,295.843,190.204,294.961,210.121,294.961z M215.122,271.324c29.54,0,53.486,1.086,53.486,2.424
	c0,1.338-23.946,2.424-53.486,2.424s-53.486-1.086-53.486-2.424C161.636,272.41,185.582,271.324,215.122,271.324z M83.301,289.202
	c38.577,0,69.848,0.951,69.848,2.122s-31.272,2.121-69.848,2.121s-69.848-0.95-69.848-2.121S44.724,289.202,83.301,289.202z"/>
<path style="fill:#747474;" d="M71.456,118.803h45.254c8.968-17.729,26.431-41.975,34.804-41.975h62.875
	c8.373,0,25.834,24.246,34.802,41.975h191.359c21.501,0,39.092,17.59,39.092,39.092v199.394c0,21.502-17.59,39.092-39.092,39.092
	H71.456c-21.502,0-39.092-17.589-39.092-39.092V157.895C32.364,136.393,49.954,118.803,71.456,118.803z"/>
<path style="fill:#606060;" d="M71.456,118.803h45.254c8.968-17.729,26.431-41.975,34.804-41.975h62.875
	c8.373,0,25.834,24.246,34.802,41.975h191.359c21.501,0,39.092,17.59,39.092,39.092v6.769H32.364v-6.769
	C32.364,136.393,49.954,118.803,71.456,118.803z"/>
<path style="fill:#424242;" d="M154.006,95.693h56.908c9.247,0,16.813,7.568,16.813,16.815v17.542
	c0,9.247-7.566,16.815-16.813,16.815h-56.908c-9.247,0-16.813-7.568-16.813-16.815v-17.542
	C137.192,103.261,144.758,95.693,154.006,95.693z"/>
<path style="fill:#999999;" d="M153.068,106.835h58.784c2.602,0,4.735,2.13,4.735,4.734v19.42c0,2.604-2.133,4.734-4.735,4.734
	h-58.784c-2.604,0-4.734-2.13-4.734-4.734v-19.42C148.334,108.965,150.464,106.835,153.068,106.835z"/>
<polygon style="fill:#FFFFFF;" points="158.99,117.49 205.929,117.49 205.929,125.066 158.99,125.066 "/>
<polygon style="fill:#424242;" points="86.727,185.052 370.668,185.052 370.668,381.416 86.727,381.416 "/>
<polygon style="fill:#F9F9F9;" points="92.91,191.235 364.488,191.235 364.488,375.236 92.91,375.236 "/>
<g>
	<path style="fill:#424242;" d="M59,289.821c8.702,0,15.757,7.055,15.757,15.757c0,8.702-7.055,15.757-15.757,15.757
		c-8.702,0-15.757-7.055-15.757-15.757C43.242,296.876,50.297,289.821,59,289.821z M59,200.446c8.702,0,15.757,7.055,15.757,15.757
		c0,8.702-7.055,15.757-15.757,15.757c-8.702,0-15.757-7.055-15.757-15.757C43.242,207.501,50.297,200.446,59,200.446z M59,245.133
		c8.702,0,15.757,7.056,15.757,15.757c0,8.702-7.055,15.757-15.757,15.757c-8.702,0-15.757-7.055-15.757-15.757
		C43.242,252.189,50.297,245.133,59,245.133z M59,334.509c8.702,0,15.757,7.055,15.757,15.757c0,8.702-7.055,15.757-15.757,15.757
		c-8.702,0-15.757-7.055-15.757-15.757C43.242,341.564,50.297,334.509,59,334.509z"/>
	<path style="fill:#424242;" d="M421.087,324.904c5.857,0,10.606,4.748,10.606,10.606c0,5.857-4.748,10.606-10.606,10.606
		c-5.857,0-10.605-4.749-10.605-10.606C410.482,329.652,415.23,324.904,421.087,324.904z"/>
	<path style="fill:#424242;" d="M421.087,303.214c17.837,0,32.296,14.458,32.296,32.296c0,17.837-14.458,32.295-32.296,32.295
		c-17.837,0-32.295-14.458-32.295-32.295C388.792,317.672,403.25,303.214,421.087,303.214z M421.087,311.719
		c13.139,0,23.79,10.651,23.79,23.79c0,13.139-10.651,23.79-23.79,23.79c-13.139,0-23.79-10.652-23.79-23.79
		C397.297,322.37,407.948,311.719,421.087,311.719z"/>
</g>
<path style="fill:#FF3C00;" d="M449.725,277.026c5.857,0,10.606,4.748,10.606,10.606c0,5.857-4.748,10.606-10.606,10.606
	c-5.857,0-10.606-4.749-10.606-10.606C439.119,281.774,443.867,277.026,449.725,277.026z"/>
<g>
	<path style="fill:#424242;" d="M431.24,194.684c18,1.203,31.816,8.26,31.816,16.788c0,8.528-13.817,15.585-31.816,16.788V194.684z
		 M420.329,228.26c-18-1.2-31.819-8.26-31.819-16.788c0-8.528,13.819-15.588,31.819-16.788V228.26z"/>
	<polygon style="fill:#424242;" points="352.38,110.193 414.958,110.193 414.958,118.803 352.38,118.803 	"/>
</g>
<path style="fill:#EDEDED;" d="M319.186,132.757h115.759c4.501,0,8.182,3.681,8.182,8.182l0,0c0,4.502-3.681,8.182-8.182,8.182
	H319.186c-4.501,0-8.182-3.681-8.182-8.182l0,0C311.004,136.438,314.686,132.757,319.186,132.757z"/>
<path style="fill:#BBBBBB;" d="M330.173,132.757h15.147v16.364h-15.147V132.757z M408.814,132.757h15.148v16.364h-15.148V132.757z
	 M382.6,132.757h15.148v16.364H382.6V132.757z M356.386,132.757h15.148v16.364h-15.148V132.757z"/>
<polygon style="fill:#FFEBB1;" points="92.91,191.12 364.488,191.12 364.488,375.236 92.91,375.236 "/>
<path style="fill:#FFB54C;" d="M230.338,191.246c2.325,0,4.517,0.429,6.46,1.187c0.662-0.502,1.401-0.944,2.203-1.313h11.9
	c2.664,1.226,4.643,3.251,5.39,5.649c2.747,0.639,4.95,2.245,5.956,4.308c0.33-0.03,0.667-0.041,1.004-0.041
	c5.078,0,9.199,3.191,9.199,7.126c0,3.935-4.121,7.124-9.199,7.124c-1.583,0-3.072-0.307-4.371-0.852
	c-1.118,2.959-4.647,5.121-8.832,5.121c-2.554,0-4.866-0.806-6.533-2.112c-1.668,1.306-3.981,2.112-6.537,2.112
	c-2.428,0-4.641-0.731-6.285-1.919c-1.679,1.422-4.098,2.318-6.787,2.318c-2.517,0-4.796-0.783-6.455-2.05
	c-0.76,0.131-1.553,0.197-2.36,0.197c-6.054,0-10.958-3.801-10.958-8.489s4.904-8.489,10.958-8.489c0.328,0,0.656,0.011,0.978,0.036
	C216.844,195.587,222.94,191.246,230.338,191.246z"/>
<path d="M244.272,243.596c0,0,4.382-1.072,8.052-0.27c3.677,0.802,7.507,4.274,11.653,4.544c4.142,0.264,3.28-1.519,3.28-1.519
	s-2.658,0.449-3.363-2.135c-0.701-2.581,2.192-4.634,6.645-8.191c4.457-3.564,5.319-7.126,4.457-9.357c0,0-0.783,1.427-4.457,3.653
	c-3.674,2.229-6.329,6.327-9.222,9.261c-2.893,2.941-3.051,3.118-5.786,2.497C252.795,241.454,246.931,240.476,244.272,243.596z"/>
<path style="fill:#FFDF81;" d="M210.854,338.233l44.447-61.586l10.674,16.575l52.183-71.765l42.832,66.497l0.064,0.101
	l-42.896-66.598v63.748v8.388l18.451,8.061l-36.895,16.119l29.265,11.783l-12.227,8.677h-88.723H210.854z M360.99,287.954
	l3.498,5.472L360.99,287.954z M364.488,293.424l-3.434-5.369L364.488,293.424z"/>
<polygon style="fill:#F98B00;" points="318.158,221.457 360.99,287.954 364.488,293.426 364.488,338.233 316.752,338.233 
	328.979,329.556 299.714,317.773 336.609,301.654 318.158,293.594 318.158,285.205 "/>
<path style="fill:#FC9038;" d="M139.008,194.497c14.22,0,25.747,13.132,25.747,29.331s-11.526,29.331-25.747,29.331
	s-25.746-13.132-25.746-29.331S124.788,194.497,139.008,194.497z"/>
<polygon style="fill:#FFDF81;" points="176.234,245.22 198.869,212.822 246.155,289.228 210.854,338.233 109.061,337.108 "/>
<path style="fill:#F98B00;" d="M198.869,212.822l47.286,76.406l-35.301,49.005c-8.024-6.307-9.492-21.525-15.358-29.233
	l11.787-8.706l-22.758-9.536l28.686-13.043l-14.342-6.524v-6.785V212.822z"/>
<path style="fill:#FFB54C;" d="M92.91,227.677c1.507,0.272,2.946,0.68,4.295,1.207c2.819-2.139,6.688-3.464,10.951-3.464
	c7.385,0,13.577,3.961,15.233,9.286c3.695,0.859,6.654,3.019,8.003,5.793c0.444-0.042,0.896-0.057,1.349-0.057
	c10.569,0-0.667,20.169-5.873,17.997c-1.498,3.981-6.244,6.884-11.865,6.884c-3.434,0-6.537-1.081-8.78-2.836
	c-2.238,1.755-5.346,2.836-8.78,2.836c-1.599,0-3.129-0.236-4.533-0.664V227.677z"/>
<polygon style="fill:#4CCFDF;" points="92.91,337.108 364.488,337.108 364.488,375.236 92.91,375.236 "/>
<path style="fill:#FFDF81;" d="M364.488,368.735c-49.317-7.589-115.491-11.717-169.096,6.5h169.096V368.735z"/>
<polygon style="fill:#F98B00;" points="109.059,337.108 364.488,337.108 364.488,338.797 109.059,338.797 "/>
<path style="fill:#903B13;" d="M281.463,349.054l0.073-3.102v-0.005l4.331,0.135l5.057,0.154c-0.95-0.463-1.926-1.219-2.9-2.234
	l7.972,0.241c-0.183-1.397-0.417-2.763-0.69-4.103l-0.057-0.268l-0.027-0.11l-0.03-0.156l-0.059-0.268l-0.025-0.123l-0.034-0.14
	l-0.057-0.266l-0.032-0.14l-0.03-0.123l-0.064-0.261l-0.037-0.154l-0.027-0.112l-0.067-0.264l-0.039-0.162l-0.025-0.096
	l-0.071-0.261l-0.042-0.177l-0.022-0.084l-0.071-0.259l-0.05-0.187l-0.021-0.074l-0.071-0.254l-0.057-0.199l-0.018-0.06
	l-0.073-0.257l-0.062-0.208l-0.014-0.046l-0.075-0.255l-0.067-0.222l-0.011-0.034l-0.08-0.252l-0.069-0.231l-0.009-0.02
	l-0.078-0.255l-0.078-0.24l-0.005-0.009l-0.082-0.25l-0.085-0.249v-0.005l-0.084-0.245l-0.087-0.252v-0.014l-0.085-0.231
	l-0.087-0.249l-0.014-0.028l-0.078-0.218l-0.087-0.247l-0.094-0.245l-0.09-0.245l-0.018-0.053l-0.076-0.191l-0.094-0.245
	l-0.023-0.062l-0.073-0.181l-0.094-0.243l-0.03-0.075l-0.069-0.168l-0.094-0.238l-0.036-0.089l-0.064-0.154l-0.099-0.238
	l-0.041-0.099l-0.06-0.142l-0.1-0.241l-0.048-0.107l-0.055-0.129l-0.105-0.24l-0.051-0.119l-0.053-0.115l-0.106-0.235l-0.059-0.133
	l-0.046-0.103l-0.108-0.238l-0.066-0.14l-0.039-0.094l-0.113-0.233l-0.069-0.154l-0.039-0.078l-0.109-0.238l-0.08-0.158l-0.03-0.071
	l-0.115-0.23l-0.084-0.179l-0.028-0.052l-0.115-0.231l-0.094-0.183l-0.02-0.048l-0.115-0.231l-0.101-0.195l-0.016-0.034
	l-0.119-0.225l-0.106-0.208l-0.011-0.022l-0.119-0.227l-0.005,0.002c-2.075-3.951-4.521-7.669-7.206-11.231
	c1.003,4.769,1.223,9.087,0.934,12.885l-0.007,0.067l-0.005,0.066l-0.007,0.062l-0.004,0.044l-0.003,0.02
	c-0.041,0.522-0.092,1.031-0.156,1.528l-0.007,0.06l-0.009,0.059c-0.259,1.993-0.662,3.823-1.173,5.482v0.002v-0.009l-0.092-0.259
	l-0.009-0.02l-0.002-0.007l0.813-34.474l-1.558-0.05c-2.971,3.475-5.846,7.016-8.501,10.711l-0.112,0.156l-0.112,0.158l-0.112,0.158
	l-0.113,0.156l-0.002,0.003l-0.107,0.156l-0.108,0.156l-0.112,0.158l-0.11,0.154l-0.022,0.034l-0.087,0.126l-0.108,0.158
	l-0.112,0.16l-0.108,0.156l-0.041,0.059l-0.067,0.098l-0.107,0.158l-0.113,0.16l-0.107,0.158l-0.057,0.087l-0.048,0.071
	l-0.105,0.161l-0.108,0.16l-0.108,0.16l-0.076,0.115l-0.03,0.046l-0.106,0.16l-0.105,0.16l-0.108,0.16l-0.094,0.144l-0.011,0.018
	l-0.105,0.16l-0.103,0.163l-0.106,0.16l-0.101,0.16l-0.011,0.011l-0.094,0.152l-0.105,0.165l-0.1,0.16l-0.104,0.163l-0.027,0.039
	l-0.074,0.123l-0.105,0.165l-0.099,0.163l-0.1,0.165l-0.042,0.067l-0.062,0.096l-0.101,0.167l-0.096,0.16l-0.104,0.168l-0.199,0.327
	l-0.098,0.168l-0.096,0.163l-0.076,0.123l-0.025,0.044l-0.096,0.169l-0.098,0.165l-0.096,0.168l-0.092,0.154l-0.007,0.011
	l-0.094,0.168l-0.098,0.169l-0.094,0.165l-0.094,0.167l-0.014,0.018l-0.082,0.151l-0.096,0.172l-0.092,0.167l-0.096,0.168
	l-0.025,0.048l-0.064,0.121l-0.096,0.169l-0.092,0.169l-0.092,0.169l-0.041,0.076l-0.051,0.096l-0.094,0.168
	c-1.049,1.972-2.027,3.995-2.912,6.084l-0.046,0.117l-0.051,0.114l-0.011,0.025l-0.039,0.092l-0.046,0.115l-0.046,0.115
	l-0.051,0.117l-0.05,0.117l-0.044,0.119l-0.039,0.089l-0.009,0.028l-0.048,0.117l-0.046,0.117l-0.048,0.117l-0.044,0.119
	l-0.048,0.119l-0.048,0.117l-0.014,0.032l-0.03,0.085l-0.048,0.119l-0.044,0.119l-0.046,0.119l-0.048,0.114l-0.044,0.119
	l-0.039,0.096l-0.007,0.025l-0.044,0.119l-0.044,0.117l-0.046,0.119l-0.044,0.119l-0.044,0.121l-0.044,0.117l-0.016,0.042
	l-0.027,0.08l-0.044,0.119l-0.042,0.121l-0.044,0.119l-0.041,0.119l-0.042,0.124l-0.039,0.105l-0.007,0.013l-0.042,0.121
	l-0.042,0.119l-0.041,0.124l-0.039,0.119l-0.042,0.121l-0.041,0.121l-0.082,0.245l-0.042,0.119l-0.039,0.126l-0.041,0.119
	l-0.037,0.124l-0.041,0.115v0.007l-0.039,0.121l-0.039,0.126l-0.042,0.124l-0.037,0.123l-0.036,0.124l-0.039,0.121l-0.018,0.057
	l-0.02,0.067l-0.037,0.126l-0.039,0.121l-0.039,0.123l-0.034,0.126l-0.037,0.124l-0.039,0.123l-0.034,0.126l-0.039,0.122
	l-0.034,0.128c-1.058,3.683-1.828,7.552-2.24,11.721l15.929,0.488h0.003l5.882,0.181l-0.075,3.106l-21.811-0.671l0.009,0.028
	l0.011,0.022l0.012,0.026l0.011,0.025l0.011,0.025l0.012,0.023l0.011,0.025l0.011,0.025l0.012,0.025l0.011,0.023l0.009,0.016v0.009
	l0.014,0.025l0.011,0.026l0.009,0.022l0.014,0.028l0.009,0.023l0.014,0.025l0.011,0.023l0.009,0.025l0.014,0.025l0.009,0.023
	l0.007,0.011l0.007,0.016l0.011,0.02l0.009,0.023l0.014,0.027l0.009,0.021l0.013,0.022l0.009,0.028l0.014,0.023l0.012,0.022
	l0.022,0.051l0.003,0.002l0.011,0.018l0.011,0.028l0.012,0.023l0.011,0.022l0.012,0.025l0.013,0.026l0.012,0.02l0.011,0.025
	l0.014,0.02v0.005l0.009,0.023l0.011,0.016v0.007l0.014,0.023l0.011,0.022l0.014,0.025l0.012,0.021l0.014,0.025l0.011,0.023
	l0.014,0.022l0.009,0.026l0.013,0.02l0.014,0.023l0.005,0.013l0.007,0.012l0.011,0.025l0.011,0.02l0.016,0.026l0.011,0.02
	l0.009,0.025l0.014,0.023l0.014,0.022l0.011,0.023l0.014,0.02l0.011,0.026l0.02,0.034l0.018,0.036l0.018,0.037l0.018,0.034
	l0.02,0.037l0.02,0.034l0.005,0.007l0.014,0.028l0.02,0.036l0.021,0.034l0.02,0.037l0.016,0.034l0.021,0.034l0.009,0.014
	l0.014,0.018l0.021,0.039l0.02,0.034l0.018,0.032l0.02,0.034l0.02,0.036l0.062,0.101l0.018,0.034l0.02,0.037l0.018,0.032l0.02,0.028
	l0.002,0.007l0.021,0.034l0.02,0.034l0.023,0.034l0.02,0.032l0.041,0.069h0.003l0.08,0.133l0.02,0.032l0.023,0.034l0.007,0.005
	l0.034,0.062l0.023,0.03l0.018,0.034l0.022,0.032l0.023,0.032l0.011,0.014l0.007,0.02l0.023,0.034l0.022,0.028l0.023,0.034
	l0.042,0.064l0.018,0.023l0.005,0.009l0.023,0.032l0.02,0.034l0.023,0.03l0.023,0.032l0.02,0.032l0.02,0.028h0.003l0.02,0.034
	l0.025,0.032l0.02,0.032l0.023,0.03l0.02,0.032l0.023,0.03l0.003,0.005l0.02,0.03l0.02,0.03l0.028,0.034l0.03,0.039l0.023,0.037
	l0.027,0.034l0.012,0.014l0.016,0.023l0.028,0.039l0.03,0.036l0.023,0.032l0.02,0.028l0.007,0.011l0.028,0.034l0.028,0.034
	l0.03,0.037l0.025,0.036l0.005,0.007l0.023,0.025l0.027,0.039l0.028,0.034l0.028,0.034l0.016,0.021l0.014,0.016l0.028,0.036
	l0.03,0.035l0.025,0.03l0.028,0.039l0.027,0.034l0.03,0.034l0.025,0.034l0.03,0.034l0.011,0.009l0.018,0.028l0.028,0.03l0.027,0.034
	l0.028,0.034l0.02,0.028l0.012,0.007l0.027,0.032l0.03,0.036l0.025,0.03l0.059,0.069l0.03,0.034l0.028,0.032l0.032,0.032
	l0.013,0.018l0.014,0.016l0.03,0.032l0.03,0.032l0.027,0.032l0.025,0.03h41.543l0.005-0.208l0.048-2.098l0.037-1.502
	L281.463,349.054z M280.374,328.223l0.02,0.082l0.701-29.714c-1.624,5.598-2.313,11.082-2.313,16.229l0,0v0.039l0.005,0.307
	l-0.003,0.158l0.005,0.183v0.284l0.005,0.059l0.007,0.344v0.059l0.005,0.28l0.007,0.185l0.007,0.154l0.012,0.309l0.002,0.025
	l0.014,0.339l0.005,0.09l0.014,0.247l0.011,0.21l0.007,0.124l0.02,0.33v0.003l0.02,0.332l0.009,0.117l0.016,0.214l0.018,0.235
	l0.007,0.094l0.03,0.33v0.023l0.027,0.302l0.014,0.142l0.016,0.186l0.027,0.259l0.007,0.067l0.036,0.323l0.005,0.05l0.03,0.273
	l0.021,0.162l0.016,0.158l0.037,0.28l0.004,0.041l0.044,0.316l0.009,0.078l0.034,0.239l0.023,0.19l0.02,0.126l0.046,0.305
	l0.002,0.011l0.046,0.312l0.018,0.101l0.032,0.21l0.037,0.211l0.018,0.098l0.05,0.307l0.003,0.013l0.052,0.295l0.021,0.124
	l0.034,0.181l0.044,0.231l0.016,0.071l0.057,0.302l0.009,0.039l0.053,0.261l0.027,0.149l0.034,0.151l0.051,0.255l0.011,0.046
	l0.065,0.295l0.013,0.062l0.051,0.234l0.036,0.165l0.034,0.128l0.065,0.268l0.002,0.025L280.374,328.223z"/>
<path style="fill:#B1E9F1;" d="M92.91,349.711c14.669,0.098,25.541,0.458,25.541,0.886c0,0.429-10.871,0.788-25.541,0.886V349.711z
	 M364.488,344.111v3.038c-14.138-0.169-24.606-0.785-24.606-1.519C339.883,344.897,350.351,344.281,364.488,344.111z M92.91,364.165
	v-3.624c25.648,0.126,45.375,0.889,45.375,1.812C138.285,363.277,118.558,364.037,92.91,364.165z M281.742,355.821
	c29.703,0,53.782,0.47,53.782,1.047c0,0.575-24.079,1.045-53.782,1.045c-29.7,0-53.779-0.47-53.779-1.045
	C227.963,356.29,252.042,355.821,281.742,355.821z M181.403,365.489c15.075,0,27.293,0.76,27.293,1.697
	c0,0.934-12.218,1.695-27.293,1.695c-15.072,0-27.292-0.76-27.292-1.695C154.111,366.25,166.331,365.489,181.403,365.489z
	 M185.187,345.11c22.359,0,40.482,0.934,40.482,2.089c0,1.152-18.124,2.089-40.482,2.089c-22.356,0-40.48-0.936-40.48-2.089
	C144.708,346.044,162.831,345.11,185.187,345.11z"/>
<g>
</g>
<g>
</g>
<g>
</g>
<g>
</g>
<g>
</g>
<g>
</g>
<g>
</g>
<g>
</g>
<g>
</g>
<g>
</g>
<g>
</g>
<g>
</g>
<g>
</g>
<g>
</g>
<g>
</g>
</svg>
