<?xml version="1.0" encoding="iso-8859-1"?>
<!-- Generator: Adobe Illustrator 19.0.0, SVG Export Plug-In . SVG Version: 6.00 Build 0)  -->
<svg version="1.1" id="Layer_1" xmlns="http://www.w3.org/2000/svg" xmlns:xlink="http://www.w3.org/1999/xlink" x="0px" y="0px"
	 viewBox="0 0 512 512" style="enable-background:new 0 0 512 512;" xml:space="preserve">
<path style="fill:#B1E3FB;" d="M256,0c141.386,0,256,114.614,256,256c0,141.386-114.614,256-256,256C114.614,512,0,397.386,0,256
	C0,114.614,114.614,0,256,0z"/>
<path style="fill:#7EB953;" d="M19.94,156.793h63.702c22.842,22.601,100.766,102.689,102.288,144.559
	c1.438,39.623,50.812,34.465,64.776,54.428c-16.877,8.572-37.465,16.185-53.731,23.312c-36.398,15.957-51.106,29.478-90.821,32.316
	c-14.934,1.067-33.406,0.625-53.298,0.369C19.716,368.623,0,314.617,0,256C0,220.821,7.103,187.302,19.94,156.793z M492.06,156.793
	C504.897,187.302,512,220.821,512,256c0,32.646-6.123,63.86-17.262,92.569c-1.661-1.32-3.363-2.644-5.101-3.972
	c0.44-2.371,0.655-4.817,0.616-7.341c-0.03-1.831-0.121-3.613-0.247-5.372c-5.287-74.832-208.13-130.128-135.997-145.337
	c-23.142-15.661-57.716-24.18-86.278-29.753H492.06z"/>
<path style="fill:#5E8345;" d="M70.48,79.599c24.056,4.762,50.007,14.007,71.712,19.319c29.297,7.167,50.866,7.167,67.292,10.275
	c16.422,3.109,27.698,9.33,42.406,14.202c14.71,4.863,32.85,8.379,50.009,14.6c17.157,6.221,33.338,15.143,49.636,20.283
	c16.305,5.138,32.726,6.489-59.687,9.33c-63.755,1.961-179.303,4.623-278.203,5.733C25.706,137.978,45.283,106.092,70.48,79.599z"/>
<path style="fill:#447B5D;" d="M344.124,104.947c3.741-13.116,25.919-18.119,40.997-29.748c9.55-7.367,16.245-17.393,22.102-25.76
	c39.575,29.022,70.492,69.14,88.189,115.77c-58.065,3.549-125.817,7.436-155.826,0.857
	C291.484,155.52,340.384,118.063,344.124,104.947z"/>
<path style="fill:#598763;" d="M211.161,141.7c20.217-9.6,42.283-22.851,59.071-36.373c16.79-13.519,28.314-27.311,35.667-30.289
	c7.355-2.973,10.539,4.87,15.934,10.281c5.395,5.406,12.992,8.381,22.551,11.222c9.563,2.84,21.083,5.544,35.667,10.276
	c14.589,4.732,32.236,11.492,48.907,22.718c16.667,11.222,32.357,26.908,49.517,38.67c5.209,3.571,13.022,5.988,20.725,7.692
	c0.758,2.302,1.482,4.618,2.176,6.95c-36.038,2.509-108.871,5.896-158.183,3.711c-58.796-2.604-110.944-4.572-141.338-8.361
	c-30.392-3.791-32.877-7.19-43.76-6.959C147.214,171.469,190.937,151.298,211.161,141.7z"/>
<path style="fill:#20B6E9;" d="M170.505,171.637c-0.665,0.804,1.278-1.281,0.103,0.277c-3.417-0.703-6.24-1.086-10.143-1.003
	c-0.039,0-0.08,0-0.117,0.004c-20.066,0.422-40.798,0.822-61.629,1.187c14.948,15.548,35.261,37.788,52.526,60.596
	c18.822,24.863,34.023,50.394,34.685,68.654c1.198,32.928,35.491,34.93,55.071,46.115c2.497,1.438,4.755,3.017,6.677,4.833
	c1.136,1.07,2.153,2.224,3.028,3.479c-16.875,8.572-37.465,16.185-53.731,23.312c-36.398,15.957-51.106,29.478-90.821,32.316
	c-14.934,1.067-33.406,0.625-53.298,0.369C99.651,472.711,173.23,512,256,512c108.741,0,201.632-67.8,238.738-163.431
	c-1.661-1.32-3.363-2.644-5.101-3.972c0.44-2.371,0.655-4.817,0.616-7.341c-0.03-1.821-0.105-3.608-0.243-5.356
	c-3.961-56.398-55.474-76.244-89.71-99.203c-11.197-7.506-20.545-15.345-25.779-24.906c-4.531-8.272-11.687-15.279-20.51-21.246
	c-2.88-0.089-5.699-0.193-8.446-0.314c-58.798-2.607-110.944-4.572-141.34-8.363c-1.819-0.225-3.537-0.452-5.163-0.676
	C183.135,175.008,176.064,172.768,170.505,171.637z M387.983,245.22c-6.646-4.022-15.306-6.796-25.243-9.389
	C372.682,238.424,381.35,241.198,387.983,245.22z"/>
<g>
	<path style="fill:#484A49;" d="M277.065,456.718c9.025,1.035,23.921,4.524,35.468,2.717c11.547-1.812,19.757-8.925,20.167-16.298
		c0.41-7.371-6.975-15.003-15.127-20.565c-8.148-5.564-17.056-9.055-26.26-6.984c-9.206,2.068-18.701,9.701-23.685,17.782
		c-4.982,8.084-5.451,16.621-4.107,20.183C264.869,457.107,268.042,455.685,277.065,456.718z"/>
	<path style="fill:#484A49;" d="M359.023,352.311c9.028,1.035,23.919,4.529,35.466,2.719c11.549-1.814,19.757-8.927,20.167-16.3
		c0.41-7.371-6.975-15.003-15.122-20.565c-8.15-5.564-17.061-9.055-26.264-6.984c-9.202,2.068-18.701,9.701-23.686,17.787
		c-4.982,8.083-5.451,16.621-4.102,20.178C346.828,352.701,349.996,351.278,359.023,352.311z"/>
</g>
<g>
	<path style="fill:#65696A;" d="M275.541,430.722c1.934-3.816,7.33-9.057,14.305-10.61c6.975-1.551,15.535,0.582,21.046,3.591
		c5.507,3.005,7.969,6.888,7.854,9.765c-0.119,2.879-2.815,4.753-7.769,5.044c-4.95,0.291-12.163-1.004-18.261-1.134
		c-6.098-0.126-11.078,0.907-14.333,0.229C275.131,436.93,273.606,434.533,275.541,430.722z"/>
	<path style="fill:#65696A;" d="M357.497,326.315c1.936-3.816,7.328-9.055,14.307-10.606c6.975-1.553,15.533,0.582,21.044,3.587
		c5.511,3.005,7.972,6.89,7.855,9.765c-0.117,2.879-2.813,4.755-7.765,5.049c-4.955,0.286-12.166-1.006-18.265-1.134
		c-6.094-0.131-11.078,0.905-14.332,0.225C357.087,332.523,355.566,330.131,357.497,326.315z"/>
</g>
<path style="fill:#99BE29;" d="M310.863,423.282c-2.048-3.042-5.253-8.145-8.193-11.077c-2.941-2.932-5.621-3.693-6.492-4.499
	c-0.872-0.804,0.062-1.657,2.151-1.567c2.089,0.092,5.333,1.12,7.848,3.603c2.518,2.485,4.3,6.423,4.405,5.864
	c0.098-0.559-1.48-5.619-3.166-9.085c-1.683-3.47-3.47-5.348-3.284-5.931c0.183-0.586,2.329,0.133,4.075,2.932
	c1.743,2.795,3.085,7.676,4.018,9.643c0.932,1.971,1.459,1.029,1.947-1.322c0.485-2.346,0.93-6.109,2.435-8.549
	c1.5-2.439,4.054-3.557,6.063-3.626c2.013-0.064,3.47,0.916,3.935,1.569c0.468,0.648-0.059,0.962-1.702,1.61
	c-1.647,0.648-4.402,1.634-6.276,4.029c-1.878,2.394-2.872,6.198-3.083,7.928c-0.215,1.727,0.353,1.379,0.93,0.822
	c0.58-0.561,1.169-1.333,2.944-2.749c1.773-1.415,4.737-3.475,7.614-4.368c2.884-0.896,5.681-0.627,7.364,0.539
	c1.686,1.163,2.249,3.22,2.192,3.937c-0.061,0.715-0.749,0.09-1.887-0.739c-1.134-0.827-2.716-1.858-5.536-1.187
	c-2.822,0.671-6.876,3.044-8.967,5.711c-2.089,2.662-2.209,5.616-2.799,7.584c-0.591,1.97-1.642,2.952-2.613,2.952
	C313.804,427.308,312.91,426.326,310.863,423.282z"/>
<path style="fill:#7BD4F2;" d="M275.94,215.486c22.943,25.389,58.193,86.439,61.998,119.568c6.688,58.25-2.153,53.108,31.446,96.023
	c11.684,14.93,20.212,27.439,26.221,39.525c-1.322,0.861-2.652,1.709-3.99,2.545c-5.852-10.945-14.273-22.723-26.585-37.688
	c-36.355-44.193-27.22-38.987-32.988-100.405c-3.436-36.557-38.723-93.819-59.316-122.908
	C273.649,212.858,274.733,213.987,275.94,215.486z M492.346,354.508l-0.321,0.788c-1.003-1.184-2.034-2.387-3.092-3.605
	C490.094,352.607,491.233,353.546,492.346,354.508z M484.867,370.788c-1.219,2.428-2.464,4.845-3.759,7.227
	c-1.491-3.397-3.136-6.814-4.966-10.253c-19.021-35.687-155.588-69.011-151.941-132.902
	c10.956,70.004,135.215,84.961,157.691,129.686C482.952,366.655,483.942,368.735,484.867,370.788z M443.471,430.304
	c-1.086,1.166-2.174,2.325-3.28,3.471c-11.018-9.852-23.442-14.805-39.971-37.961c-0.857-1.14-1.682-2.325-2.476-3.559
	C417.237,412.458,431.67,420.327,443.471,430.304z M337.67,498.691c-1.58,0.532-3.175,1.047-4.769,1.548
	c0.446-16.103,2.538-31.881,3.069-34.966C336.875,473.096,337.122,485.853,337.67,498.691z M226.946,510.348l-1.354-0.153
	l-3.157-14.388c-4.851-46.176,27.882-73.568,56.173-100.307C243.495,445.751,225.766,447.432,226.946,510.348z M133.64,480.916
	c-1.968-1.072-3.913-2.174-5.848-3.296c10.771-13.995,28.287-21.61,46.39-20.46C158.469,461.608,143.428,468.686,133.64,480.916z
	 M80.106,441.992c-1.785-1.688-3.553-3.397-5.289-5.136c5.609-0.966,11.971-1.878,19.445-2.792
	c40.141-4.893,32.397-0.275,67.608-13.677c36.772-14.001,149.445-37.984,125.338-96.61
	c-22.794-55.445-51.232-91.915-106.775-110.616c55.162,10.197,89.297,57.192,111.173,108.026
	c28.092,65.258-88.12,91.764-127.7,106.177C126.353,441.034,115.796,436.899,80.106,441.992z M181.534,188.005
	c0.119,0.027,25.064,9.792,25.188,9.822c36.998,21.472,24.908,11.725,62.511,43.569c1.141,2.036,1.844,3.688,2.023,4.822
	C257.542,228.606,199.172,201.925,181.534,188.005z"/>
<path style="fill:#FFED58;" d="M311.421,292.51l-15.794-64.57c-2.886-11.799-13.828-18.797-24.317-15.551l-19.667,6.088
	c-10.489,3.249-16.71,15.56-13.824,27.362l16.002,65.416C267.039,365.292,325.399,349.661,311.421,292.51z"/>
<path style="fill:#E6AC05;" d="M299.464,290.602l-2.565-10.482c-0.211-0.861-1.006-1.37-1.771-1.132l-33.667,10.422
	c-0.763,0.236-1.216,1.132-1.006,1.993l2.689,10.997c0.21,0.859,1.008,1.368,1.771,1.132l33.667-10.422
	c0.76-0.236,1.211-1.122,1.008-1.979C299.549,290.955,299.508,290.778,299.464,290.602z M293.841,267.611l-2.691-10.997
	c-0.211-0.861-1.006-1.37-1.771-1.134l-33.667,10.424c-0.763,0.236-1.217,1.132-1.006,1.991l2.689,10.999
	c0.21,0.859,1.005,1.368,1.771,1.132l33.667-10.425C293.598,269.366,294.049,268.47,293.841,267.611z M288.089,244.105l-0.666-2.735
	c-2.201-8.998-9.413-14.683-16.025-12.637l-12.399,3.839c-6.611,2.048-10.221,11.084-8.022,20.082l0.669,2.732
	c0.211,0.861,1.006,1.37,1.771,1.134l33.667-10.425C287.849,245.86,288.3,244.963,288.089,244.105z M267.675,314.885
	c11.739,22.7,34.135,16.703,33.691-10.445c-0.007-0.518-0.208-0.958-0.577-1.267c-0.369-0.309-0.802-0.404-1.244-0.266l-31.008,9.6
	c-0.444,0.137-0.776,0.47-0.95,0.95C267.412,313.939,267.442,314.436,267.675,314.885z"/>
<path style="fill:#FFD500;" d="M294.185,289.899l-2.414-9.87l-26.949,8.343l2.552,10.434c0.311,1.273,0.65,2.49,1.006,3.655
	l26.72-8.273C294.847,292.804,294.547,291.378,294.185,289.899z M289.475,270.641l-3.454-14.121l-26.949,8.344l3.454,14.122
	L289.475,270.641z M283.725,247.135l-0.018-0.075c-1.915-7.83-7.484-12.995-12.374-11.481l-9.167,2.838
	c-4.891,1.514-7.323,9.158-5.408,16.987l0.018,0.073L283.725,247.135z M272.02,311.428c9.273,17.314,24.129,13.391,24.059-7.447
	L272.02,311.428z"/>
<path style="fill:#BA8100;" d="M259.981,268.587l26.949-8.345l-0.909-3.722l-26.949,8.344L259.981,268.587z M267.322,298.594
	l0.051,0.211c0.311,1.273,0.65,2.49,1.006,3.655l26.72-8.273c-0.231-1.274-0.504-2.582-0.829-3.938L267.322,298.594z
	 M273.702,314.25l22.247-6.888c0.087-1.072,0.135-2.199,0.131-3.381l-24.059,7.447C272.564,312.443,273.125,313.382,273.702,314.25z
	 M292.588,283.377l-0.818-3.349l-26.949,8.343l0.82,3.349L292.588,283.377z M288.58,266.986l-26.949,8.342l0.896,3.658l26.949-8.345
	L288.58,266.986z M282.693,243.923l-26.491,8.201c0.103,1.079,0.286,2.176,0.557,3.28l0.018,0.073l26.949-8.342l-0.018-0.075
	C283.437,245.958,283.095,244.909,282.693,243.923z"/>
<path style="fill:#747474;" d="M263.32,222.974c2.011-0.623,3.462-1.867,3.237-2.781c-0.222-0.911-2.034-1.147-4.045-0.524
	c-2.011,0.623-3.461,1.866-3.239,2.78C259.498,223.361,261.31,223.596,263.32,222.974z M292.112,340.689
	c2.011-0.623,3.461-1.869,3.239-2.781c-0.222-0.911-2.034-1.147-4.048-0.524c-2.011,0.623-3.461,1.867-3.236,2.781
	C288.288,341.076,290.1,341.312,292.112,340.689z M258.826,319.317c0.553,2.263,1.659,3.894,2.47,3.642
	c0.81-0.25,1.022-2.288,0.467-4.552c-0.554-2.263-1.661-3.894-2.471-3.644C258.481,315.015,258.272,317.054,258.826,319.317z
	 M307.809,303.583c0.554,2.263,1.659,3.894,2.472,3.642c0.811-0.249,1.019-2.288,0.465-4.551c-0.552-2.263-1.659-3.894-2.472-3.645
	C307.463,299.281,307.255,301.32,307.809,303.583z M243.702,255.491c0.554,2.263,1.661,3.894,2.471,3.644
	c0.811-0.252,1.02-2.29,0.468-4.554c-0.555-2.263-1.661-3.894-2.472-3.642C243.358,251.192,243.149,253.228,243.702,255.491z
	 M292.815,240.286c0.555,2.263,1.661,3.894,2.472,3.644c0.81-0.252,1.019-2.291,0.467-4.554c-0.554-2.263-1.661-3.894-2.471-3.642
	C292.471,235.987,292.263,238.023,292.815,240.286z"/>
<g>
	<polygon style="fill:#785448;" points="281.29,317.329 281.738,315.119 228.047,301.375 227.598,303.583 	"/>
	<polygon style="fill:#785448;" points="270.284,292.829 270.733,290.618 217.041,276.874 216.594,279.085 	"/>
	<polygon style="fill:#785448;" points="265.332,269.879 265.778,267.668 212.089,253.922 211.64,256.133 	"/>
</g>
<g>
	<path style="fill:#FFBF06;" d="M234.589,305.374c-9.481-0.525-5.99,7.117-11.405,5.731l-25.852-6.618
		c-1.853-0.474-3.063-2.382-2.687-4.24l2.408-11.909c0.375-1.858,2.199-2.989,4.052-2.515l25.854,6.62
		c4.838,1.237,0.197,8.702,8.077,10.72C235.144,303.191,234.649,305.118,234.589,305.374z"/>
	<path style="fill:#FFBF06;" d="M223.583,280.874c-9.481-0.524-5.988,7.119-11.403,5.733l-25.854-6.62
		c-1.853-0.474-3.063-2.38-2.687-4.238l2.41-11.911c0.376-1.855,2.199-2.987,4.052-2.513l25.852,6.618
		c4.84,1.239,0.199,8.702,8.079,10.72C224.14,278.691,223.643,280.617,223.583,280.874z"/>
	<path style="fill:#FFBF06;" d="M218.631,257.924c-9.481-0.524-5.99,7.117-11.405,5.731l-25.852-6.617
		c-1.853-0.474-3.063-2.383-2.687-4.24l2.407-11.909c0.376-1.858,2.199-2.989,4.052-2.515l25.854,6.62
		c4.838,1.237,0.199,8.702,8.077,10.72C219.185,255.741,218.69,257.667,218.631,257.924z"/>
</g>
<g>
	<path style="fill:#FFFF00;" d="M221.844,300.93L221.844,300.93c0.144-0.71-0.311-1.436-1.014-1.615l-21.177-5.422
		c-0.701-0.181-1.393,0.252-1.537,0.962l0,0c-0.142,0.71,0.314,1.436,1.015,1.615l21.179,5.422
		C221.011,302.071,221.702,301.639,221.844,300.93z"/>
	<path style="fill:#FFFF00;" d="M210.84,276.43L210.84,276.43c0.142-0.71-0.314-1.436-1.015-1.615l-21.179-5.422
		c-0.701-0.179-1.39,0.252-1.535,0.962l0,0c-0.144,0.71,0.311,1.436,1.015,1.615l21.176,5.422
		C210.007,277.573,210.696,277.14,210.84,276.43z"/>
	<path style="fill:#FFFF00;" d="M205.886,253.48L205.886,253.48c0.144-0.71-0.311-1.436-1.015-1.615l-21.176-5.422
		c-0.701-0.181-1.393,0.252-1.535,0.962l0,0c-0.144,0.71,0.312,1.436,1.015,1.615l21.177,5.422
		C205.052,254.621,205.744,254.188,205.886,253.48z"/>
	<path style="fill:#FFFF00;" d="M283.526,319.223l0.956-4.726c0.195-0.962-0.426-1.949-1.379-2.194H283.1
		c-0.953-0.245-1.892,0.344-2.087,1.308l-0.955,4.723c-0.195,0.965,0.426,1.952,1.379,2.195l0.002,0.002
		C282.392,320.774,283.332,320.186,283.526,319.223z"/>
	<path style="fill:#FFFF00;" d="M272.52,294.723l0.955-4.723c0.197-0.964-0.424-1.951-1.379-2.197l0,0
		c-0.955-0.243-1.895,0.346-2.089,1.308l-0.955,4.724c-0.195,0.964,0.426,1.951,1.379,2.197h0.002
		C271.386,296.274,272.325,295.685,272.52,294.723z"/>
	<path style="fill:#FFFF00;" d="M267.567,271.773l0.955-4.725c0.195-0.962-0.426-1.949-1.379-2.195h-0.002
		c-0.953-0.245-1.892,0.344-2.087,1.308l-0.956,4.724c-0.195,0.962,0.426,1.951,1.379,2.194h0.003
		C266.434,273.324,267.373,272.735,267.567,271.773z"/>
</g>
<g>
	<polygon style="fill:#785448;" points="293.009,313.7 291.621,312.058 331.503,269.343 332.892,270.985 	"/>
	<polygon style="fill:#785448;" points="291.326,286.314 289.936,284.674 329.817,241.958 331.208,243.601 	"/>
	<polygon style="fill:#785448;" points="285.143,263.745 283.756,262.102 323.637,219.389 325.025,221.029 	"/>
</g>
<g>
	<path style="fill:#FFBF06;" d="M327.699,276.547c7.909-5.91,8.386,2.668,12.405-1.64l19.205-20.568
		c1.376-1.473,1.548-3.809,0.38-5.188l-7.486-8.847c-1.166-1.378-3.248-1.3-4.625,0.172l-19.202,20.568
		c-3.594,3.851,3.786,7.593-2.066,13.86C326.23,274.991,327.533,276.359,327.699,276.547z"/>
	<path style="fill:#FFBF06;" d="M326.015,249.16c7.907-5.908,8.383,2.671,12.406-1.638l19.202-20.568
		c1.377-1.475,1.548-3.809,0.383-5.188l-7.486-8.849c-1.168-1.379-3.251-1.3-4.625,0.174l-19.204,20.568
		c-3.594,3.848,3.787,7.591-2.066,13.861C324.545,247.605,325.848,248.974,326.015,249.16z"/>
	<path style="fill:#FFBF06;" d="M319.833,226.59c7.91-5.908,8.386,2.669,12.406-1.637l19.205-20.57
		c1.376-1.473,1.548-3.809,0.38-5.188l-7.486-8.846c-1.166-1.379-3.248-1.301-4.624,0.171l-19.203,20.57
		c-3.594,3.848,3.786,7.591-2.066,13.858C318.364,225.035,319.668,226.405,319.833,226.59z"/>
</g>
<g>
	<path style="fill:#FFFF00;" d="M336.63,265.394l-0.002-0.003c-0.444-0.527-0.421-1.37,0.053-1.878l15.904-17.033
		c0.472-0.506,1.223-0.493,1.67,0.034v0.002c0.446,0.527,0.423,1.372-0.051,1.879l-15.904,17.033
		C337.825,265.934,337.074,265.921,336.63,265.394z"/>
	<path style="fill:#FFFF00;" d="M334.944,238.007L334.944,238.007c-0.446-0.527-0.424-1.372,0.05-1.879l15.904-17.033
		c0.474-0.508,1.225-0.493,1.67,0.034h0.003c0.444,0.527,0.421,1.372-0.053,1.881l-15.904,17.031
		C336.142,238.55,335.39,238.534,334.944,238.007z"/>
	<path style="fill:#FFFF00;" d="M328.764,215.437l-0.003-0.002c-0.444-0.525-0.421-1.37,0.053-1.879l15.901-17.033
		c0.474-0.506,1.226-0.49,1.672,0.034v0.003c0.446,0.527,0.424,1.372-0.05,1.878l-15.904,17.033
		C329.96,215.98,329.208,215.964,328.764,215.437z"/>
	<path style="fill:#FFFF00;" d="M291.841,316.484l-2.751-3.251c-0.667-0.785-0.63-2.05,0.078-2.808l0.003-0.003
		c0.708-0.758,1.83-0.735,2.497,0.05l2.751,3.253c0.667,0.785,0.63,2.05-0.078,2.808l-0.002,0.003
		C293.63,317.294,292.508,317.272,291.841,316.484z"/>
	<path style="fill:#FFFF00;" d="M290.155,289.099l-2.751-3.251c-0.665-0.788-0.63-2.05,0.078-2.811h0.002
		c0.708-0.76,1.833-0.735,2.497,0.051l2.751,3.251c0.667,0.787,0.632,2.05-0.078,2.81l0,0
		C291.944,289.91,290.822,289.887,290.155,289.099z"/>
	<path style="fill:#FFFF00;" d="M283.975,266.53l-2.751-3.253c-0.666-0.785-0.63-2.05,0.078-2.808l0.002-0.003
		c0.708-0.758,1.83-0.735,2.497,0.053l2.751,3.251c0.664,0.785,0.63,2.05-0.078,2.809l-0.003,0.002
		C285.764,267.339,284.642,267.316,283.975,266.53z"/>
	<path style="fill:#FFFF00;" d="M203.291,20.043c14.646,0,26.516,11.872,26.516,26.519c0,14.644-11.87,26.516-26.516,26.516
		c-14.644,0-26.517-11.872-26.517-26.516C176.774,31.915,188.646,20.043,203.291,20.043z"/>
</g>
<g>
	<path style="fill:#FFFFFF;" d="M252.353,21.14c2.648,0,5.145,0.628,7.355,1.743c2.393-2.343,5.671-3.789,9.286-3.789
		c6.26,0,11.508,4.332,12.912,10.164c3.131,0.939,5.639,3.303,6.785,6.334c0.375-0.042,0.758-0.059,1.146-0.059
		c5.781,0,10.474,4.689,10.474,10.477c0,5.786-4.693,10.475-10.474,10.475c-1.806,0-3.5-0.456-4.98-1.256
		c-1.271,4.353-5.291,7.532-10.058,7.532c-2.91,0-5.544-1.186-7.443-3.106c-1.899,1.92-4.533,3.106-7.444,3.106
		c-2.765,0-5.282-1.074-7.156-2.825c-1.915,2.094-4.668,3.409-7.731,3.409c-2.868,0-5.463-1.147-7.352-3.014
		c-0.864,0.192-1.766,0.291-2.687,0.291c-6.895,0-12.479-5.587-12.479-12.479c0-6.895,5.584-12.482,12.479-12.482
		c0.373,0,0.749,0.018,1.116,0.053C236.986,27.517,243.926,21.14,252.353,21.14z"/>
	<path style="fill:#FFFFFF;" d="M141.496,42.608c2.648,0,5.145,0.628,7.356,1.743c2.393-2.343,5.671-3.789,9.286-3.789
		c6.26,0,11.508,4.331,12.912,10.164c3.132,0.939,5.64,3.303,6.785,6.334c0.375-0.042,0.758-0.06,1.145-0.06
		c5.782,0,10.475,4.689,10.475,10.478c0,5.786-4.693,10.475-10.475,10.475c-1.805,0-3.5-0.456-4.98-1.256
		c-1.271,4.353-5.291,7.532-10.058,7.532c-2.909,0-5.543-1.186-7.442-3.106c-1.899,1.92-4.533,3.106-7.444,3.106
		c-2.765,0-5.282-1.074-7.156-2.825c-1.915,2.094-4.668,3.408-7.731,3.408c-2.868,0-5.463-1.147-7.353-3.014
		c-0.863,0.193-1.766,0.291-2.687,0.291c-6.895,0-12.479-5.587-12.479-12.48c0-6.895,5.584-12.481,12.479-12.481
		c0.373,0,0.749,0.018,1.116,0.053C126.128,48.985,133.069,42.608,141.496,42.608z"/>
</g>
<g>
</g>
<g>
</g>
<g>
</g>
<g>
</g>
<g>
</g>
<g>
</g>
<g>
</g>
<g>
</g>
<g>
</g>
<g>
</g>
<g>
</g>
<g>
</g>
<g>
</g>
<g>
</g>
<g>
</g>
</svg>
