<?xml version="1.0" encoding="iso-8859-1"?>
<!-- Generator: Adobe Illustrator 19.0.0, SVG Export Plug-In . SVG Version: 6.00 Build 0)  -->
<svg version="1.1" id="Layer_1" xmlns="http://www.w3.org/2000/svg" xmlns:xlink="http://www.w3.org/1999/xlink" x="0px" y="0px"
	 viewBox="0 0 512 512" style="enable-background:new 0 0 512 512;" xml:space="preserve">
<path style="fill:#FFEBB1;" d="M256.005,0C397.384,0,512,114.616,512,256.005C512,397.384,397.384,512,256.005,512
	C114.616,512,0,397.384,0,256.005C0,114.616,114.616,0,256.005,0z"/>
<path style="fill:#FFEDB9;" d="M49.435,262.334l0.01,5.109c0.029,12.952,1.006,15.795,2.823,23.521l0.137-0.01
	c15.56,91.183,90.929,161.96,184.309,170.527l0.781,0.068c1.231,0.107,2.471,0.205,3.712,0.293l1.641,0.107
	c1.055,0.078,2.1,0.127,3.165,0.186c0.684,0.029,1.368,0.039,2.061,0.078c0.947,0.029,1.885,0.068,2.833,0.098
	c1.094,0.02,2.188,0.029,3.292,0.029c0.527,0.02,1.074,0.029,1.602,0.029l0.244-0.01c1.553,0,3.096-0.02,4.64-0.049l0.733-0.02
	c1.465-0.039,2.911-0.098,4.366-0.166l1.231-0.059c1.289-0.078,2.579-0.156,3.868-0.254l1.817-0.137
	c0.84-0.068,1.67-0.147,2.51-0.225c92.56-8.635,167.381-78.377,183.664-168.514c1.983-7.736,2.002-10.149,2.999-22.407h0.01
	l0.225-0.01l0,0h0.01c0.029-0.781,0.039-1.543,0.059-2.315v-0.059v-0.049v-0.059v-0.117v-0.059v-0.049l0,0v-0.059v-0.059v-0.166
	v-0.059v-0.059v-0.049v-0.059l0,0v-0.059v-0.059v-0.049v-0.068v-0.049v-0.059v-0.059c1.299-15.384-0.703-40.663-5.929-60.228
	l-0.273-1.045C433.496,116.012,352.404,49.63,255.8,49.63c-98.929,0-181.594,69.645-201.686,162.566l0,0
	c-0.02,0.068-0.039,0.147-0.068,0.215l-0.332,1.26l-0.205,0.762l-0.361,1.358c-2.549,10.53-3.35,23.091-3.595,34.08
	c-0.068,2.041-0.107,4.083-0.107,6.134v0.391C49.435,258.486,49.435,260.469,49.435,262.334z"/>
<g>
	<path style="fill:#FFB54C;" d="M467.967,147.182c2.657,0,5.167,0.43,7.384,1.192c2.403-1.602,5.695-2.588,9.319-2.588
		c0.86,0,1.709,0.049,2.52,0.156c4.21,8.83,7.931,17.934,11.126,27.282c-1.924,1.455-4.718,2.364-7.814,2.364
		c-2.921,0-5.568-0.811-7.472-2.12c-1.905,1.309-4.552,2.12-7.472,2.12c-2.774,0-5.304-0.733-7.189-1.924
		c-1.914,1.426-4.679,2.325-7.756,2.325c-2.882,0-5.49-0.781-7.384-2.061c-0.869,0.137-1.768,0.205-2.696,0.205
		c-6.925,0-12.532-3.819-12.532-8.518c0-4.708,5.607-8.527,12.532-8.527c0.371,0,0.752,0.02,1.114,0.039
		C452.534,151.528,459.498,147.182,467.967,147.182z"/>
	<path style="fill:#FFB54C;" d="M274.779,92.872c3.067,0,5.968,0.498,8.527,1.377c2.784-1.846,6.583-2.989,10.774-2.989
		c7.267,0,13.353,3.419,14.984,8.019c3.634,0.742,6.544,2.608,7.873,5.001c0.44-0.039,0.879-0.049,1.328-0.049
		c6.71,0,12.151,3.702,12.151,8.264c0,4.562-5.441,8.264-12.151,8.264c-2.09,0-4.063-0.361-5.773-0.996
		c-1.485,3.438-6.144,5.949-11.673,5.949c-3.38,0-6.427-0.938-8.635-2.452c-2.208,1.514-5.255,2.452-8.635,2.452
		c-3.214,0-6.134-0.85-8.303-2.227c-2.227,1.651-5.421,2.686-8.977,2.686c-3.321,0-6.33-0.908-8.527-2.374
		c-1.006,0.147-2.051,0.225-3.116,0.225c-8,0-14.476-4.405-14.476-9.846c0-5.441,6.476-9.846,14.476-9.846
		c0.43,0,0.869,0.02,1.289,0.039C256.943,97.913,265.001,92.872,274.779,92.872z"/>
</g>
<g>
	<path d="M263.438,41.328c0,0,5.792-1.241,10.637-0.313c4.855,0.928,9.914,4.952,15.394,5.265c5.48,0.313,4.337-1.758,4.337-1.758
		s-3.516,0.518-4.444-2.471c-0.928-2.999,2.891-5.382,8.781-9.504c5.89-4.132,7.023-8.264,5.89-10.852c0,0-1.035,1.651-5.89,4.239
		c-4.855,2.579-8.361,7.336-12.18,10.735c-3.829,3.419-4.034,3.624-7.648,2.901S266.955,37.704,263.438,41.328z"/>
	<path d="M191.293,91.241c0,0,5.792-1.241,10.637-0.313c4.855,0.928,9.914,4.962,15.394,5.275c5.48,0.303,4.337-1.758,4.337-1.758
		s-3.507,0.518-4.444-2.481c-0.928-2.999,2.901-5.372,8.781-9.504c5.89-4.132,7.033-8.264,5.89-10.852c0,0-1.035,1.661-5.89,4.239
		c-4.855,2.588-8.361,7.336-12.18,10.745c-3.829,3.409-4.034,3.614-7.648,2.891C202.555,88.76,194.809,87.627,191.293,91.241z"/>
	<path d="M293.191,153.589c0,0,5.783-1.241,10.637-0.313c4.855,0.928,9.914,4.962,15.394,5.265c5.47,0.313,4.337-1.758,4.337-1.758
		s-3.516,0.527-4.444-2.471c-0.928-2.999,2.891-5.382,8.781-9.504c5.89-4.132,7.023-8.264,5.89-10.852c0,0-1.035,1.661-5.89,4.239
		c-4.855,2.588-8.371,7.336-12.19,10.735c-3.819,3.419-4.024,3.624-7.638,2.901C304.453,151.108,296.698,149.975,293.191,153.589z"
		/>
</g>
<path style="fill:#FFDF81;" d="M249.031,263.35l58.734-71.422l14.095,19.223l68.951-83.241l56.595,77.127l0.088,0.117
	l-56.683-77.244v73.942v9.729l24.38,9.348l-48.751,18.686l38.671,13.675l-16.156,10.061H271.731H249.031z M447.405,205.036
	l42.48,58.314l-42.392-58.197L447.405,205.036z"/>
<polygon style="fill:#F98B00;" points="390.811,127.91 447.405,205.036 489.886,263.35 388.955,263.35 405.111,253.289 
	366.44,239.614 415.191,220.929 390.811,211.581 390.811,201.852 "/>
<path style="fill:#FC9038;" d="M154.107,96.643c18.784,0,34.012,15.228,34.012,34.021c0,18.784-15.228,34.021-34.012,34.021
	c-18.793,0-34.021-15.238-34.021-34.021C120.086,111.871,135.314,96.643,154.107,96.643z"/>
<polygon style="fill:#FFDF81;" points="203.288,155.474 233.197,117.898 295.672,206.511 249.031,263.35 114.528,262.041 "/>
<path style="fill:#F98B00;" d="M233.197,117.898l62.475,88.614l-46.641,56.839c-10.598-7.316-12.542-24.967-20.288-33.904
	l15.57-10.1l-30.065-11.057l37.899-15.13l-18.95-7.56v-7.873V117.898z"/>
<path style="fill:#FFB54C;" d="M87.402,134.679c4.122,0,8.019,0.664,11.467,1.846c3.722-2.481,8.83-4.015,14.466-4.015
	c9.758,0,17.943,4.591,20.131,10.764c4.874,1.006,8.791,3.507,10.569,6.72c0.586-0.039,1.182-0.059,1.788-0.059
	c13.968,0-0.879,23.384-7.765,20.874c-1.973,4.61-8.244,7.98-15.677,7.98c-4.532,0-8.635-1.25-11.594-3.292
	c-2.96,2.041-7.062,3.292-11.604,3.292c-4.308,0-8.234-1.143-11.155-2.989c-2.989,2.208-7.277,3.604-12.053,3.604
	c-4.464,0-8.508-1.211-11.458-3.194c-1.348,0.205-2.745,0.303-4.19,0.303c-10.745,0-19.448-5.919-19.448-13.226
	c0-7.297,8.703-13.216,19.448-13.216c0.586,0,1.172,0.02,1.739,0.049C63.442,141.438,74.265,134.679,87.402,134.679z"/>
<path style="fill:#4CCFDF;" d="M0.078,262.041h511.844C508.718,400.637,395.372,512,256.005,512S3.292,400.637,0.078,262.041z"/>
<path style="fill:#FFDF81;" d="M506.764,307.745c-73.796-14.378-234.252-36.346-328.59,20.171
	c-125.458,75.154,29.694,104.242,83.632,118.796c53.938,14.544,30.905,9.699,93.937,14.544c18.422,1.416,35.76,1.69,51.613,1.211
	C457.535,425.623,493.803,370.933,506.764,307.745z"/>
<path style="fill:#FFD34E;" d="M4.982,306.446c60.375,1.944,214.003,13.675,278.041,82.079
	c47.188,50.412,6.222,93.537-39.345,123.182C125.087,506.081,27.633,419.772,4.982,306.446z"/>
<path style="fill:#FFC928;" d="M147.963,488.137c95.373-125.917,263.634-123.036,335.769-115.085
	C441.232,455.562,355.217,512,256.005,512C217.393,512,180.793,503.443,147.963,488.137z"/>
<polygon style="fill:#F98B00;" points="114.528,262.041 487.854,262.041 487.854,264.005 114.528,264.005 "/>
<path style="fill:#903B13;" d="M342.323,275.902l0.098-3.604l0,0l5.724,0.156l6.681,0.176c-1.25-0.537-2.54-1.416-3.829-2.588
	l10.53,0.283c-0.234-1.621-0.547-3.214-0.908-4.767l-0.078-0.303l-0.029-0.137l-0.039-0.176l-0.078-0.313l-0.039-0.147l-0.039-0.156
	l-0.078-0.313l-0.049-0.156l-0.039-0.147l-0.078-0.303l-0.049-0.176l-0.039-0.127l-0.088-0.313l-0.049-0.186l-0.029-0.117
	l-0.098-0.293l-0.059-0.205l-0.029-0.098l-0.088-0.303l-0.068-0.215l-0.029-0.088l-0.098-0.293l-0.068-0.234l-0.029-0.068
	l-0.098-0.303l-0.078-0.234l-0.02-0.059l-0.098-0.293l-0.088-0.254l-0.02-0.039l-0.098-0.293l-0.098-0.273l-0.01-0.02l-0.107-0.293
	l-0.098-0.283l-0.01-0.01l-0.107-0.293l-0.107-0.283v-0.01l-0.117-0.283l-0.117-0.293v-0.02l-0.107-0.264l-0.117-0.293l-0.02-0.029
	l-0.098-0.254l-0.117-0.283l-0.127-0.283l-0.117-0.283l-0.02-0.068l-0.107-0.215l-0.117-0.283l-0.029-0.078l-0.098-0.205
	l-0.127-0.283l-0.039-0.088l-0.088-0.195l-0.127-0.273l-0.049-0.107l-0.088-0.176l-0.127-0.273l-0.059-0.117l-0.078-0.166
	l-0.127-0.273l-0.068-0.127l-0.068-0.147l-0.147-0.283l-0.059-0.137l-0.068-0.137l-0.147-0.273l-0.078-0.147l-0.059-0.127
	l-0.137-0.273l-0.088-0.166l-0.059-0.107l-0.147-0.264l-0.088-0.186l-0.049-0.088l-0.147-0.273l-0.107-0.186l-0.039-0.078
	l-0.156-0.273l-0.107-0.205l-0.039-0.059l-0.147-0.273l-0.127-0.205l-0.029-0.059l-0.156-0.264l-0.127-0.234l-0.02-0.039
	l-0.156-0.254l-0.147-0.244l-0.01-0.029l-0.156-0.264h-0.01c-2.745-4.581-5.978-8.889-9.524-13.021
	c1.328,5.529,1.621,10.539,1.241,14.945l-0.01,0.078l-0.01,0.078l-0.01,0.068v0.049l-0.01,0.029
	c-0.049,0.606-0.117,1.192-0.205,1.768l-0.01,0.068l-0.01,0.068c-0.342,2.315-0.879,4.435-1.543,6.359l0,0v-0.01l-0.127-0.293
	l-0.01-0.029v-0.01l1.065-39.98l-2.051-0.059c-3.927,4.034-7.726,8.137-11.233,12.425l-0.147,0.176l-0.147,0.186l-0.156,0.186
	l-0.147,0.176v0.01l-0.147,0.176l-0.137,0.176l-0.147,0.186l-0.147,0.186l-0.029,0.039l-0.117,0.147l-0.147,0.176L329,231.8
	l-0.137,0.186l-0.059,0.068l-0.088,0.117l-0.147,0.176l-0.147,0.195l-0.137,0.176l-0.078,0.107l-0.068,0.078l-0.137,0.186
	l-0.137,0.186l-0.147,0.186l-0.098,0.137l-0.039,0.049l-0.147,0.186l-0.137,0.186l-0.137,0.186l-0.127,0.166l-0.01,0.029
	l-0.147,0.186l-0.137,0.186l-0.137,0.186l-0.137,0.186l-0.01,0.01l-0.127,0.176l-0.137,0.195l-0.137,0.186l-0.137,0.186
	l-0.029,0.049l-0.098,0.147l-0.137,0.186l-0.137,0.195l-0.137,0.186l-0.049,0.078l-0.078,0.107l-0.137,0.195l-0.127,0.186
	l-0.137,0.195l-0.264,0.381l-0.127,0.195l-0.137,0.186l-0.098,0.147l-0.029,0.049l-0.127,0.195l-0.127,0.195l-0.127,0.195
	l-0.127,0.176l-0.01,0.01l-0.117,0.195l-0.137,0.195l-0.117,0.195l-0.127,0.195l-0.02,0.02l-0.107,0.176l-0.127,0.195l-0.127,0.195
	l-0.127,0.195l-0.029,0.049l-0.088,0.147l-0.127,0.195l-0.117,0.195l-0.117,0.195l-0.059,0.088l-0.068,0.117l-0.117,0.195
	c-1.397,2.286-2.686,4.63-3.849,7.052l-0.068,0.137l-0.068,0.127l-0.01,0.029l-0.049,0.107l-0.059,0.137l-0.068,0.137l-0.059,0.127
	l-0.068,0.137l-0.059,0.137l-0.049,0.107l-0.02,0.029l-0.059,0.137l-0.059,0.137l-0.068,0.137l-0.059,0.137l-0.059,0.137
	l-0.068,0.137l-0.02,0.039l-0.039,0.098l-0.059,0.137l-0.059,0.137l-0.059,0.137l-0.068,0.137l-0.059,0.137l-0.049,0.117l-0.01,0.02
	l-0.059,0.137l-0.059,0.147l-0.059,0.137l-0.059,0.137l-0.059,0.137l-0.049,0.137l-0.029,0.049l-0.029,0.098l-0.059,0.137
	l-0.059,0.137l-0.059,0.137l-0.049,0.137l-0.059,0.147l-0.049,0.127l-0.01,0.01l-0.059,0.137l-0.049,0.147l-0.059,0.137
	l-0.049,0.147l-0.059,0.137l-0.049,0.137l-0.107,0.293l-0.059,0.137l-0.049,0.147l-0.059,0.137l-0.049,0.137l-0.049,0.137v0.01
	l-0.059,0.137l-0.049,0.147l-0.049,0.146l-0.049,0.137l-0.049,0.147l-0.059,0.147l-0.02,0.068l-0.029,0.068l-0.049,0.147
	l-0.049,0.147l-0.049,0.137l-0.049,0.147l-0.049,0.147l-0.049,0.147l-0.049,0.147l-0.049,0.137l-0.049,0.147
	c-1.397,4.278-2.413,8.762-2.96,13.597l21.05,0.567l0,0l7.775,0.215l-0.098,3.595l-28.825-0.772l0.02,0.029l0.01,0.029l0.02,0.029
	l0.01,0.02l0.02,0.029l0.01,0.029l0.02,0.029l0.01,0.029l0.02,0.029l0.01,0.029l0.02,0.02v0.01l0.01,0.029l0.02,0.029l0.01,0.029
	l0.02,0.029l0.02,0.029l0.01,0.029l0.02,0.02l0.01,0.029l0.02,0.029l0.01,0.029l0.01,0.01l0.01,0.02l0.02,0.029l0.01,0.029
	l0.02,0.029l0.01,0.02l0.02,0.029l0.01,0.029l0.02,0.029l0.02,0.029l0.029,0.059l0,0l0.01,0.02l0.02,0.029l0.02,0.029l0.01,0.029
	l0.02,0.029l0.01,0.029l0.02,0.02l0.02,0.029l0.01,0.029l0,0l0.02,0.029l0.01,0.02v0.01l0.02,0.02l0.02,0.029l0.01,0.029l0.02,0.029
	l0.02,0.029l0.02,0.02l0.01,0.029l0.02,0.029l0.01,0.02l0.02,0.029l0.01,0.02l0.01,0.01l0.01,0.029l0.02,0.029l0.02,0.02l0.02,0.029
	l0.01,0.029l0.02,0.029l0.01,0.02l0.02,0.029l0.02,0.029l0.01,0.02l0.029,0.049l0.029,0.039l0.02,0.039l0.029,0.039l0.029,0.049
	l0.02,0.039l0.01,0.01l0.02,0.029l0.029,0.039l0.02,0.039l0.029,0.049l0.02,0.039l0.029,0.039l0.01,0.01l0.02,0.029l0.029,0.039
	l0.029,0.039l0.02,0.039l0.029,0.039l0.029,0.049l0.078,0.117l0.029,0.039l0.029,0.039l0.02,0.039l0.029,0.029v0.01l0.029,0.039
	l0.029,0.039l0.029,0.039l0.02,0.039l0.059,0.078h0.01l0.098,0.156l0.029,0.039l0.029,0.039h0.01l0.049,0.078l0.029,0.029
	l0.02,0.039l0.029,0.039l0.039,0.039l0.01,0.02l0.01,0.02l0.029,0.039l0.029,0.029l0.029,0.039l0.059,0.078l0.02,0.029l0.01,0.01
	l0.029,0.039l0.029,0.039l0.029,0.029l0.029,0.039l0.029,0.039l0.029,0.029l0,0l0.029,0.039l0.029,0.039l0.029,0.039l0.029,0.029
	l0.029,0.039l0.029,0.039l0,0l0.029,0.039l0.029,0.029l0.029,0.039l0.039,0.049l0.039,0.039l0.029,0.049l0.02,0.01l0.02,0.029
	l0.039,0.039l0.039,0.049l0.029,0.039l0.029,0.029l0.01,0.01l0.029,0.039l0.039,0.039l0.039,0.049l0.039,0.039v0.01l0.029,0.029
	l0.039,0.039l0.039,0.049l0.029,0.039l0.02,0.02l0.02,0.02l0.039,0.039l0.039,0.039l0.039,0.039l0.029,0.049l0.039,0.039
	l0.039,0.039l0.039,0.039l0.039,0.039l0.01,0.01l0.029,0.029l0.029,0.039l0.039,0.039l0.039,0.039l0.029,0.029l0.01,0.01
	l0.039,0.039l0.039,0.039l0.029,0.039l0.078,0.078l0.039,0.039l0.039,0.039l0.039,0.039l0.02,0.02l0.02,0.02l0.039,0.029
	l0.039,0.039l0.039,0.039l0.029,0.039h54.895v-0.244l0.068-2.432l0.049-1.748L342.323,275.902z M340.887,251.736l0.029,0.098
	l0.928-34.461c-2.149,6.496-3.057,12.854-3.057,18.823l0,0v0.049v0.352v0.186l0.01,0.215v0.322v0.068l0.01,0.4v0.068l0.01,0.322
	l0.01,0.215l0.01,0.186l0.01,0.352l0.01,0.029l0.02,0.4v0.098l0.02,0.293l0.01,0.244l0.01,0.137l0.029,0.391l0,0l0.029,0.381
	l0.01,0.137l0.029,0.244l0.02,0.273l0.01,0.117l0.039,0.381v0.02l0.039,0.352l0.01,0.166l0.029,0.215l0.039,0.303v0.078l0.049,0.371
	l0.01,0.059l0.039,0.313l0.029,0.195l0.02,0.176l0.049,0.332v0.049l0.059,0.361l0.02,0.088l0.039,0.283l0.029,0.215l0.029,0.147
	l0.059,0.352l0.01,0.02l0.059,0.361l0.02,0.117l0.049,0.244l0.049,0.244l0.02,0.107l0.068,0.361v0.01l0.068,0.352l0.029,0.137
	l0.049,0.215l0.059,0.264l0.02,0.088l0.068,0.352l0.02,0.039l0.068,0.303l0.039,0.176l0.039,0.176l0.068,0.293l0.02,0.049
	l0.078,0.352l0.02,0.068l0.068,0.273l0.049,0.186l0.049,0.156l0.078,0.303l0.01,0.029L340.887,251.736z"/>
<path style="fill:#B1E9F1;" d="M82.392,276.625c24.605,0,44.551,0.479,44.551,1.065c0,0.586-19.946,1.065-44.551,1.065
	s-44.541-0.479-44.541-1.065C37.85,277.103,57.786,276.625,82.392,276.625z M509.949,288.6c-0.137,1.006-0.283,2.012-0.42,3.028
	c-19.545-0.029-35.164-0.703-35.164-1.514C474.365,289.294,490.208,288.62,509.949,288.6z M462.546,270.11
	c23.765,0,43.027,0.811,43.027,1.817c0,1.006-19.262,1.817-43.027,1.817s-43.027-0.811-43.027-1.817
	C419.518,270.92,438.78,270.11,462.546,270.11z M342.694,283.746c39.247,0,71.061,0.547,71.061,1.211
	c0,0.674-31.814,1.211-71.061,1.211s-71.061-0.537-71.061-1.211C271.633,284.293,303.447,283.746,342.694,283.746z M210.116,294.959
	c19.917,0,36.063,0.879,36.063,1.973c0,1.084-16.146,1.963-36.063,1.963s-36.053-0.879-36.053-1.963
	C174.063,295.838,190.199,294.959,210.116,294.959z M215.117,271.321c29.548,0,53.489,1.084,53.489,2.422
	s-23.941,2.422-53.489,2.422c-29.538,0-53.479-1.084-53.479-2.422S185.579,271.321,215.117,271.321z M83.3,289.206
	c38.573,0,69.85,0.947,69.85,2.12s-31.277,2.12-69.85,2.12s-69.85-0.947-69.85-2.12S44.727,289.206,83.3,289.206z"/>
<g>
</g>
<g>
</g>
<g>
</g>
<g>
</g>
<g>
</g>
<g>
</g>
<g>
</g>
<g>
</g>
<g>
</g>
<g>
</g>
<g>
</g>
<g>
</g>
<g>
</g>
<g>
</g>
<g>
</g>
</svg>
