<?xml version="1.0" encoding="iso-8859-1"?>
<!-- Generator: Adobe Illustrator 19.0.0, SVG Export Plug-In . SVG Version: 6.00 Build 0)  -->
<svg version="1.1" id="Layer_1" xmlns="http://www.w3.org/2000/svg" xmlns:xlink="http://www.w3.org/1999/xlink" x="0px" y="0px"
	 viewBox="0 0 512 512" style="enable-background:new 0 0 512 512;" xml:space="preserve">
<g>
	<path style="fill:#B9DDF9;" d="M256,0c141.383,0,256,114.611,256,256c0,141.383-114.617,256-256,256C114.611,512,0,397.383,0,256
		C0,114.611,114.611,0,256,0z"/>
	<path style="fill:#64B3F5;" d="M344.458,15.7l-81.044,319.89l206.627-220.042c-15.423-23.456-34.592-44.226-56.658-61.457
		L263.414,335.59L67.052,83.282c27.083-29.604,61.028-52.818,99.318-67.14l97.045,319.448L246.56,0.194
		C249.693,0.077,252.838,0,256,0C287.094,0,316.892,5.547,344.458,15.7z M499.81,177.794c5.2,16.218,8.833,33.143,10.7,50.598
		c0.018,1.148,0.029,2.303,0.029,3.451c0,2.244-0.029,4.476-0.082,6.702l-0.012,0.3c-0.059,2.138-0.135,4.275-0.247,6.407
		l-0.024,0.501c-0.106,2.008-0.23,3.999-0.377,5.995l-0.082,1.101c-0.147,1.784-0.306,3.569-0.483,5.341l-0.165,1.649
		c-0.165,1.508-0.33,3.009-0.518,4.505l-0.094,0.783L263.414,335.59L1.784,225.795c3.569-30.352,12.438-59.084,25.676-85.237
		L263.414,335.59L499.81,177.794z"/>
	<polygon style="fill:#9F877E;" points="33.055,276.623 178.142,15.358 331.768,276.623 	"/>
	<polygon style="fill:#8B6E62;" points="331.768,276.623 178.142,15.358 178.142,276.623 	"/>
	<polygon style="fill:#EDEDED;" points="134.021,94.807 153.255,86.704 149.298,117.468 169.179,93.835 178.142,135.747 
		194.56,85.808 232.285,107.439 220.684,87.711 178.142,15.358 	"/>
	<polygon style="fill:#9F877E;" points="230.395,276.623 367.626,75.255 511.335,274.409 511.17,276.623 	"/>
	<polygon style="fill:#8B6E62;" points="511.335,274.409 367.626,75.255 367.626,276.623 511.17,276.623 	"/>
	<polygon style="fill:#EDEDED;" points="325.896,136.489 344.087,130.247 340.342,153.956 359.146,135.741 367.626,168.048 
		383.149,129.558 418.836,146.229 407.865,131.018 367.626,75.255 	"/>
	<path style="fill:#9F877E;" d="M41.582,116.113l109.141,163.172H1.066C0.371,271.618,0,263.85,0,256
		C0,204.371,15.3,156.323,41.582,116.113z"/>
	<path style="fill:#8B6E62;" d="M150.723,279.285L41.582,116.113c-10.282,15.735-18.886,32.666-25.546,50.539v112.633H150.723z"/>
	<path style="fill:#EDEDED;" d="M31.559,132.797l31.948,16.1l-10.17-15.211l-11.754-17.573
		C38.037,121.537,34.692,127.096,31.559,132.797z"/>
	<path style="fill:#7CB142;" d="M511.729,244.575c-23.774-11.707-49.874-14.086-73.365-14.045c-16.313,0.024-53.737,6.395-78.447,16
		c-14.475-0.294-27.36,0.289-34.05,1.095c-27.602,3.345-58.389,11.136-85.314,19.51c-0.088,0.024-2.691,0.336-4.576,0.135
		c0.512,0.053-0.565-0.277-2.032-0.783c-38.396-11.737-82.028-20.959-120.948-25.676c-9.746-1.184-28.509-2.026-49.591-1.596
		c-17.855-6.943-40.263-12.72-61.216-16.795C0.754,233.41,0,244.617,0,256c0,141.383,114.611,256,256,256
		c141.383,0,256-114.617,256-256C512,252.172,511.9,248.362,511.729,244.575z"/>
	<path style="fill:#429F46;" d="M313.582,505.493V328.664c-0.748-0.171-1.508-0.324-2.261-0.471
		c-1.349-0.253-2.691-0.506-4.052-0.713c-0.624-0.094-1.013-0.159-1.243-0.2c-0.106-0.012-0.218-0.029-0.347-0.041
		c-11.23-1.331-22.543-1.661-33.756-3.003c-6.702-0.801-13.492-1.625-20.017-3.398c-6.431-1.737-12.597-4.505-18.68-7.179
		c-6.36-2.815-8.698-4.075-14.222-6.001c-5.789-2.02-11.572-3.068-17.573-4.199c-0.907-0.171-1.755-0.453-2.562-0.819
		c-2.138-0.13-4.517-0.3-1.814-0.2c-7.797-0.294-17.891-7.45-17.891-15.476c0-7.791,10.082-13.185,17.891-13.162
		c-4.099-0.018,4.358-0.271,5.406-0.306c0.883-0.035,2.927-0.159,3.857-0.212c-0.807-0.059-0.954-0.807,2.114-1.154
		c0.554-0.082,3.58-0.618,3.775-0.648c6.531-1.131,14.375-1.684,20.688-3.704c1.667-0.53,1.354-0.377,3.221-0.571l-3.168-1.025
		c-38.39-11.737-81.032-20.653-119.953-25.37c-9.746-1.184-28.509-2.026-49.591-1.596c-17.855-6.943-40.263-12.72-61.216-16.795
		C0.754,233.41,0,244.617,0,256c0,141.383,114.611,256,256,256C275.799,512,295.073,509.75,313.582,505.493z"/>
</g>
<polygon style="fill:#785448;" points="22.231,234.305 16.866,234.399 16.866,248.957 22.231,248.868 "/>
<path style="fill:#7CB142;" d="M23.733,239.322c-2.338,0.783-4.688-0.106-7.426-0.813c-2.732-0.701-5.86-1.213-6.531-3.628
	c-0.671-2.414,1.119-6.737,2.344-13.103c1.231-6.366,1.902-14.775,3.186-21.66c1.284-6.878,3.18-12.231,4.635-14.163
	c1.455-1.937,2.456-0.465,3.687,3.527c1.225,3.999,2.679,10.506,4.187,16.548c1.502,6.042,3.068,11.613,3.569,16.13
	c0.506,4.523-0.053,7.985-1.502,10.948C28.426,236.072,26.082,238.539,23.733,239.322z"/>
<path style="fill:#ADD37F;" d="M9.634,233.457c0.071-2.544,1.472-6.413,2.485-11.678c1.231-6.366,1.902-14.775,3.186-21.66
	c1.084-5.812,2.603-10.53,3.928-13.026c1.337,2.179,2.668,4.352,2.78,5.765c0.1,1.413-1.013,2.061-1.614,2.432
	c-0.601,0.371-0.683,0.465-0.966,1.555c-0.277,1.089-0.754,3.174-0.512,4.493c0.236,1.307,1.184,1.855,2.102,2.297
	c0.925,0.442,1.82,0.771,2.338,1.431c0.512,0.654,0.654,1.637,0.459,2.279c-0.194,0.648-0.724,0.954-1.525,1.402
	c-0.795,0.448-1.855,1.025-1.531,1.46c0.318,0.436,2.02,0.736,3.015,1.178c0.989,0.436,1.266,1.013,1.349,1.549
	c0.088,0.536-0.024,1.031-0.695,1.39c-0.671,0.359-1.896,0.589-2.138,1.19c-0.236,0.595,0.518,1.566,1.678,2.385
	c1.154,0.824,2.721,1.502,3.81,2.096c1.089,0.601,1.702,1.131,1.814,2.108s-0.283,2.409-1.496,2.95
	c-1.213,0.542-3.251,0.206-4.953-0.106c-1.702-0.312-3.074-0.595-3.657-0.347c-0.583,0.247-0.389,1.007,0.183,1.69
	c0.571,0.677,1.519,1.266,2.933,1.873c1.407,0.607,3.274,1.231,4.311,2.091c1.036,0.854,1.225,1.949,0.866,3.021
	c-0.365,1.066-1.284,2.102-2.903,2.579c-1.619,0.465-3.94,0.365-7.626-0.43C15.099,234.965,12.461,234.258,9.634,233.457z"/>
<g>
	<path style="fill:#F6F6F6;" d="M216.338,311.886c49.214,10.6,95.908,35.84,12.12,86.321c-42,25.305-82.522,47.289-120.913,66.375
		C149.415,494.433,200.655,512,256,512c85.208,0,160.681-41.641,207.216-105.672c-9.475-44.609-61.446-73.571-131.795-90.908
		c-104.482-25.747-137.796-25.747-146.883-32.56c-7.921-5.942,43.178-13.904,56.375-15.841h-5.212
		c-13.415,0.86-42.318,3.298-80.685,9.782C106.402,285.021,167.123,301.286,216.338,311.886z"/>
	
		<linearGradient id="SVGID_1_" gradientUnits="userSpaceOnUse" x1="389.5092" y1="-44738.1992" x2="389.5092" y2="-86337.3984" gradientTransform="matrix(0.0059 0 0 -0.0059 -48.7114 -135.1545)">
		<stop  offset="0" style="stop-color:#000000"/>
		<stop  offset="0.212" style="stop-color:#343434"/>
		<stop  offset="0.561" style="stop-color:#000000"/>
		<stop  offset="0.788" style="stop-color:#343434"/>
		<stop  offset="1" style="stop-color:#000000"/>
	</linearGradient>
	<path style="fill:url(#SVGID_1_);" d="M216.338,311.886c49.214,10.6,95.908,35.84,12.12,86.321
		c-42,25.305-82.522,47.289-120.913,66.375C149.415,494.433,200.655,512,256,512c85.208,0,160.681-41.641,207.216-105.672
		c-9.475-44.609-61.446-73.571-131.795-90.908c-104.482-25.747-137.796-25.747-146.883-32.56
		c-7.921-5.942,43.178-13.904,56.375-15.841h-5.212c-13.415,0.86-42.318,3.298-80.685,9.782
		C106.402,285.021,167.123,301.286,216.338,311.886z"/>
	<path style="fill:#606060;" d="M216.338,311.886c49.214,10.6,95.908,35.84,12.12,86.321c-42,25.305-82.522,47.289-120.913,66.375
		C149.415,494.433,200.655,512,256,512c85.208,0,160.681-41.641,207.216-105.672c-9.475-44.609-61.446-73.571-131.795-90.908
		c-104.482-25.747-137.796-25.747-146.883-32.56c-7.921-5.942,43.172-13.904,56.375-15.841h-5.212
		c-13.415,0.86-42.318,3.298-80.685,9.782C106.402,285.021,167.123,301.286,216.338,311.886z"/>
	<path style="fill:#FFFFFF;" d="M167.642,290.233c5.294,1.802,10.936,3.127,16.772,4.458c23.397,5.053,50.05,10.765,79.36,17.673
		c14.599,3.657,29.822,7.891,45.157,13.739c15.117,5.96,31.282,13.121,43.207,26.171c12.273,12.673,15.258,34.097,4.599,49.98
		c-9.576,16.183-23.697,29.91-38.49,43.101c-26.972,22.943-56.988,44.533-89.112,65.244c2.491,0.259,4.994,0.489,7.503,0.671
		c29.421-20.441,57.035-41.765,83.741-64.526c14.834-13.262,27.796-27.378,37.507-43.832c10.912-16.189,7.832-38.602-4.811-51.476
		c-12.231-13.315-28.526-20.452-43.726-26.418c-15.423-5.854-30.687-10.064-45.316-13.698
		c-29.362-6.843-56.028-12.485-79.437-17.455c-5.824-1.307-11.46-2.609-16.701-4.376c-2.532-0.93-5.312-1.82-6.99-3.634
		c-1.808-2.108,1.843-3.857,3.781-4.776c9.411-3.869,18.774-5.412,26.983-7.102c23.962-4.293,40.345-6.119,47.577-6.843h-2.02
		c-8.027,0.713-23.644,2.444-45.669,6.272c-8.245,1.649-17.573,3.115-27.166,7.026c-1.761,0.877-6.272,2.644-4.075,5.895
		C162.312,288.454,165.051,289.243,167.642,290.233z"/>
</g>
<path style="fill:#BD360C;" d="M107.121,423.795c-0.153,0.636-3.321,26.73-3.321,26.73l6.731,0.648l-0.082-26.353L107.121,423.795z"
	/>
<path style="fill:#64DB16;" d="M95.549,376.919c0,0,11.118-2.473,9.835,0.73c-1.272,3.192-15.57,11.537-15.57,11.537
	s11.348-1.82,9.634,2.532c-1.69,4.346-15.824,11.654-15.824,11.654s18.279-3.139,13.274,2.656c-5,5.807-23.102,15.565-23.102,15.565
	s23.02-5.447,22.278,1.013c-0.73,6.46-10.123,8.321-12.084,12.408c0,0,22.714-4.529,25.205-1.066
	c2.568,0.012,25.482,4.487,25.523,3.368c-1.667-4.205-11.383-7.308-11.684-13.792c-0.306-6.507,22.29,0.489,22.29,0.489
	s-17.396-10.959-21.989-17.09c-4.599-6.113,13.421-1.749,13.421-1.749s-13.598-8.245-15.011-12.697
	c-1.402-4.47,9.799-1.884,9.799-1.884s-13.704-9.287-14.746-12.561c-1.066-3.28,9.858-0.059,9.858-0.059
	c-9.199-8.651-12.573-17.702-14.811-22.466C109.288,360.111,105.301,368.921,95.549,376.919z"/>
<path style="fill:#ADE900;" d="M95.549,376.919c0,0,11.118-2.473,9.835,0.73c-1.272,3.192-15.57,11.537-15.57,11.537
	s11.348-1.82,9.634,2.532c-1.69,4.346-15.824,11.654-15.824,11.654s18.279-3.139,13.286,2.656
	c-5.012,5.807-23.114,15.565-23.114,15.565s23.02-5.447,22.284,1.013c-0.736,6.46-10.129,8.321-12.09,12.408
	c-4.635,1.784,18.774-3.168,25.205-1.066l2.85-78l-0.2-0.442C109.288,360.111,105.301,368.921,95.549,376.919z"/>
<path style="fill:#8BC40F;" d="M435.396,210.873l5.895,2.897l6.525-2.409c1.237-0.106,2.067-0.801,2.874-0.866
	c0.978-0.082,1.561,0.866,2.756,1.119c0.948-0.683,0.512-1.19,1.826-1.431c1.319-0.241,1.125,0.483,1.932,1.154
	c2.95-0.512,1.902-3.204,5.447-3.321c1.219-0.035,0.713-0.371,1.725-0.53c1.655-0.259,3.257,0.612,3.586-3.245
	c0.559,0.283,0.312,0.465,0.983,0.701c-0.053-1.696-0.247-2.161,1.219-2.615c0.224,0.371,0.512,0.754,0.671,1.084
	c0.188-1.773-0.106-2.485,1.602-3.062c0.247-0.088,0.006,0.153,0.577-0.188c0.577-2.285-1.066-3.469,0.153-4.941l0.889,1.089
	c1.048-1.537,1.013-1.831,0.648-3.781c-0.4-2.091,0.624-0.23-0.824-3.881l1.078-0.353c0.006-1.213-0.989-1.407-1.46-2.467
	c0.2-0.654,0.506-0.813,0.642-1.354c0.2-0.819-0.206-1.172-0.336-1.761c-0.448-0.3,0.165,0.642,0.165-0.406
	c0.006-1.195-1.337-1.79-1.896-2.096c0.165-0.842,0.118-0.088,0.318-0.919c-2.65-0.86-0.972-0.159-2.309-2.038
	c-0.718-1.001-1.937-0.754-3.039-1.201c0.041-1.084,0.483-0.206,0.936-1.502l-2.373-1.943c-0.135-0.471,0-0.13-0.418-0.577
	c-0.536-0.577-0.224,0.029-0.554-0.695l1.207-0.324c0.518-0.188,0.165,0,0.465-0.212c-0.665-1.996-2.868-0.883-4.393-2.25
	l-0.035-2.197c-2.185,0.942-2.303,0.495-4.217-0.159l-0.236-1.778c-0.035,0.012-2.085,1.637-2.509-0.035
	c-0.082-0.347-0.094-0.342-0.053-0.713c0.065-0.512,0.318-0.76,0.501-1.195l-2.456,0.012l0.183-1.107
	c-0.565,0.106-1.131,0.53-1.619,0.33c-0.548-0.224-0.088-0.636-1.266-0.819c-2.22-0.353-1.478,0.618-3.586-0.724
	c-0.43-0.271,0.224-0.212-0.583-0.159c-0.642,0.041-0.76,0.436-3.121,0.271c-2.597-0.183-1.678-0.33-2.132-2.161
	c-2.291-0.436-4.175,2.314-4.982,2.314c-0.819,0-1.584-1.672-3.869,0.689c-0.707,0.724-0.23,0.665-1.007,1.101
	c-1.036,0.206-1.101-0.842-2.085-0.236c-0.96,0.548-0.106,2.933-3.051,2.132c-1.137-0.3-1.172-0.194-1.678-0.63l-0.459-0.424
	c-2.22,1.702-2.008,2.568-3.463,2.974c-0.442-0.554-0.077-0.448-0.377-0.972c-4.311,3.569-1.101,5.277-4.741,4.911
	c0.147,1.225,0.795,2.432,0.459,3.474c-0.365,1.101-1.478,1.667-2.238,0.436c-0.306,1.667-0.035,4.393-1.184,5.318
	c-0.506-0.436-0.453-0.601-0.648-1.366c-0.318,1.089-0.489,1.743-0.577,2.98c-0.106,1.502-0.518,1.72-0.771,2.803
	c-0.801-0.236-0.612-0.424-1.49-0.548c-0.306,1.078-0.165,1.914,0.153,2.939c0.406,1.301,0.218,1.278,0.106,2.768
	c-0.724,0.047-1.614,0.035-1.496,0.972c0.088,0.76,0.919,0.842,1.478,1.137l0.094,2.909l-1.025-0.565
	c0.1,4.499,1.731,5.059,1.89,6.46c-0.854,0.224-1.025-0.118-1.655-0.395c0.241,2.732,2.043,2.656,2.833,4.758l-1.296,0.489
	c0.966,1.372,2.65,0.972,3.457,1.148c0.577,0.135,0.506,0.312,1.066,0.565c-0.247,1.007-0.289,1.195,0.495,1.773
	c1.19,0.889,2.744,0.942,4.152,1.125c1.413,0.183,0.801,0.548,0.907,1.89c3.121,0.665,1.914-0.824,5.465-0.183l0.024,1.372
	c0.848-0.465,2.573-0.135,3.592-0.483c1.413-0.471,1.231-0.895,3.221-1.007l-0.671,2.308
	C433.005,212.828,435.025,212.492,435.396,210.873z"/>
<path style="fill:#BD360C;" d="M438.164,210.619c0.795,1.095,3.109,8.627,3.404,10.547c0.683,2.303,0.512,5.677,0.489,8.239
	c-1.231,7.491-3.062,8.303-8.551,10.588c-1.755,0.73-3.174,1.025-3.84,2.768c2.344-1.472,3.469-1.449,6.46-1.849
	c2.603-0.347,5.536-0.424,8.209-0.259c2.485,0.147,4.853,0.707,7.261,1.007c1.619,0.188,4.04,0.671,5.547,0.347
	c0.901-0.194,0.082,0.23,1.761,0.2c-0.165-1.013-0.206-1.036-1.213-1.201c-1.967-0.318-3.61-0.736-4.47-2.815
	c-0.612-1.49-0.942-6.796-1.025-8.633c-0.318-1.513,0.618-3.486,1.678-4.423c0.518-0.612-0.548-3.563-1.696-3.162
	c-0.4,0.389-0.453,0.559-0.713,1.036c-0.13-0.153-4.087-8.657-0.742-11.648c0.742-1.39,2.079-1.101,3.775-1.207
	c1.054-0.059,3.439-0.501,3.828-1.089c-1.078,0.377-4.305,0.907-5.347,0.43c1.219-0.866,3.681-1.661,5.176-1.979
	c0.554-0.118,1.354-0.165,1.826-0.459c-1.549-0.936-4.293-0.306-6.083,0.035c0.442-1.637,3.227-2.285,4.882-2.721
	c1.914-0.506,4.34,1.213,6.431,0.241c-0.459-0.283-4.205-0.465-4.782-0.53c0.506-0.377,1.419-0.524,2.338-0.954
	c0.483-0.23,1.378-0.277,1.678-0.636c0.094-0.112-0.124-0.436-0.1-0.565c-0.436,0.294-2.338,0.954-3.009,1.142
	c-2.544,0.683-5.094,0.353-7.291,1.672c-1.714,1.042-2.185,2.992-3.18,3.586c-1.455,0.872-1.902,0.877-3.463,1.99l-0.436,0.347
	c-0.053-0.76,0.006-5.489,0.194-5.865c0.124-0.247,2.785-2.827,3.21-3.168c2.744-2.208,3.598-4.264,6.136-5.153
	c0.271-0.206,2.515-1.496,2.662-2.132c-0.701,0.259-3.033,1.672-3.681,1.778c0.289-0.807,0.801-0.995,0.925-2.291
	c-0.73,0.283-1.225,1.178-1.843,2.061c-0.436,0.618-0.919,1.643-1.413,1.837l-0.901-3.851c-0.141,1.054-0.059,2.144-0.059,3.215
	c0.006,1.455,0.183,1.378-0.66,2.102c-0.813,0.695-2.632,2.526-3.622,3.015l1.125-7.361c-1.484,1.231-1.496,3.681-2.261,5.895
	c-0.247-0.63-0.459-3.828-0.63-4.923c-0.359-2.379-0.436-2.391,0.318-4.699c0.177-0.542,0.489-1.59,0.73-2.043
	c0.412-0.73,1.031-0.642,1.696-1.137c1.013-0.766,1.384-1.937,2.208-3.145c3.645-0.277,2.42,0.512,4.323,2.52
	c0.66,0.689,3.127,2.332,4.434,1.884c-0.966-0.683-2.485-1.06-3.339-1.873l-1.561-2.503c5.4,0.012,1.778,1.372,9.393,3.003
	c-0.33-0.93-1.932-0.789-3.015-1.166c-0.877-0.306-1.938-1.089-2.568-1.59c0.165-0.135,0.059-0.088,0.43-0.212
	c0.318-0.118,0.024-0.029,0.306-0.082c0.13-0.035,0.665-0.077,0.819-0.088c0.742-0.071,1.001-0.029,1.466-0.359l-0.153-0.024
	c-0.848-0.024-3.215,0.035-3.71-0.43l-0.253-0.4c-0.424,0.359-0.495,0.618-1.296,0.63l-4.817-0.271
	c-0.047-0.53,0.4-2.261,0.766-2.638c0.448-0.465,1.413-0.477,1.985-0.795c0.377-0.218,0.218-0.035,0.465-0.4
	c-0.053-0.035-0.124-0.059-0.165-0.065c-0.041-0.018-0.112-0.047-0.165-0.059l-0.948,0.071c-0.501,0.135-0.406,0.206-0.989,0.177
	c0.277-0.406,0.471-0.889,0.819-1.278c0.306-0.336,1.06-0.601,1.178-1.048c0.024-0.082,0.082-0.088,0.112-0.141
	c-3.504,0.701-2.621,3.174-3.893,5.123c-0.789-0.247-1.125-1.107-1.313-2.038c-0.565-2.797,2.538-2.632,1.826-7.709
	c-0.459,1.042-0.495,2.927-1.219,3.987c-0.283,0.406-0.524,0.636-0.983,0.689c-0.618-1.92-0.642-2.65-1.778-4.022
	c-0.742-0.901-1.584-1.466-2.597-1.884c-0.3-0.13-0.442-0.259-0.842-0.124c1.596,0.571,1.884,0.907,2.774,2.108
	c0.665,0.907,1.26,1.967,1.496,3.209c0.636,3.321,0.677,4.617,2.102,7.32c-0.236,0.866-1.078,2.132-1.543,2.626
	c-0.789,0.842-0.789,1.054-2.173,0.954c-0.76-0.359-2.002,4.923-2.285,5.165l-0.241,0.1c-0.1-0.041-0.124,0.1-0.424,0.147
	c0.165,1.537,0.607,2.915,0.907,4.464c-1.649-2.043-4.57-3.869-5.365-4.582c0-1.195,0.424-1.89,0.283-3.398
	c-0.1-1.048-0.501-2.144-0.465-3.227c1.301-0.824,1.743-0.2,2.821-1.861c0.612-0.936,0.966-3.003,1.166-3.274
	c-0.936,0.889-0.701,3.757-4.052,3.94l0.324-4.099l-0.618,1.025c-0.206,0.542-0.053,0.448-0.383,0.848
	c-0.895-1.578,0.106-4.193,0.241-6.036l-0.595,0.66c-1.814,3.298-0.448,4.976,0.053,6.301c0.271,0.695,0.1,2.715,0.483,4.005
	c0.465,1.561,0.324,2.497,0.018,3.934c-1.372-0.866-1.908-2.927-4.393-2.497c0.177,0.536,2.65,1.672,3.345,3.074
	c-1.996,1.955-5.913,0.936-7.732-0.389c3.339-5.936,1.938-6.949,2.397-11.825c1.761-0.63,2.703-3.48,2.25-4.499
	c-0.618,1.82-0.742,3.345-2.509,3.798c0.012-0.565-0.035-0.978-0.059-1.561c0-0.206,0-0.554-0.035-0.742
	c-0.012-0.059-0.024-0.112-0.041-0.165l-0.188-0.424c-0.701,1.549,0.041,3.822,0.006,5.53c-3.056-0.783-2.073-3.869-2.744-6.13
	c-0.642,0.283-0.642,0.418-0.518,2.32c0.135,1.996,1.06,3.763,2.891,4.499c0.106,0.041,0.259,0.177,0.289,0.124
	c0.024-0.041,0.094,0.041,0.141,0.065c0.024,2.426-1.089,6.519-3.015,7.909c-0.53-1.101-1.26-1.443-1.578-2.22
	c-0.206-2.214-0.671-3.846-0.512-7.114l-0.724,1.148c-0.224,1.996,0.748,5.312-0.065,5.618c-0.559,0.224-3.021-0.041-4.334-1.007
	c-1.478-1.089-1.478-1.396-2.108-3.533c-0.306,0.889,0.188,0.459-0.554,0.801c-0.495-0.477-0.872-1.672-1.207-2.585
	c-0.294-0.783-0.389-2.043-0.777-2.762c-0.571,2.008,0.359,4.217,1.243,5.848c0.883,1.608,2.273,2.45,3.893,3.474
	c-2.968,2.167-4.947,1.614-7.567,1.419c0.93,0.624,1.519,0.824,2.962,0.807c3.504-0.047,3.586-1.272,5.512-1.737
	c0.536-0.13,2.467,0.212,3.321,0.236c0.13,0.177,2.043,3.145,2.055,3.174c-0.465,0.642-1.378,1.343-2.138,1.902
	c-0.654,0.471-1.49,1.16-2.238,1.496c-0.883,0.4-2.138,0.554-3.121,0.265c-0.612-0.183-1.213-0.636-1.714-1.084
	c-0.465-0.412,0.029-0.159-0.642-0.424c0.23,1.737,0.789,1.778,2.161,2.108c4.929,1.19,7.196-3.139,8.639-3.433
	c0.453-0.1,2.562,1.513,7.703,0.936c2.432-0.271,1.519-0.3,3.103,1.06c0.642,0.559,1.79,1.025,2.344,1.985
	c0.901,1.549,2.014,4.953,2.226,6.784c0.4,3.439-0.153,4.352-1.284,6.955c-0.512-0.412-1.349-0.689-1.466-1.537
	c-0.212-1.584-0.088-4.27,0.353-5.795l0.895-2.085c-2.12,0.801-2.609,3.81-2.797,5.848c-0.577-0.259-0.948-0.883-1.325-1.343
	c-0.589-0.707-0.554-0.565-0.477-1.49c0.106-1.201-0.153-2.273-0.701-3.327l-0.465-0.742c0.112,0.465-0.247,0.577-0.236,0.936
	c0.018,0.671,0.707,1.331,0.571,1.855l-0.177,0.866c-0.707,0.389-1.219-0.636-1.949-0.872l-2.12-1.296
	c0.395,0.748,1.449,1.802,1.92,2.444c0.465,0.624,1.084,1.943,1.478,2.285c-0.813,0.047-1.343-0.3-2.132-0.489
	c-2.644-0.648-1.619-0.554-3.439-2.202c-0.501-0.459-0.925-1.066-1.537-1.243c-0.842,1.596,0.571,1.69,1.902,3.05
	c-1.484,0.141-4.034,0.112-5.394-0.165c-1.072-2.179-0.824-2.756-3.787-3.728l-5.995-1.525c1.973,1.879,8.474,2.179,8.398,5.371
	c-1.137-0.059-1.914-0.654-2.897-0.836c2.067,1.72,1.938,1.425,5.082,1.46c-0.448,1.337-1.378,1.248-2.132,2.091
	c3.498,0.342,0.671-2.503,7.52-1.655C434.76,207.428,437.434,207.805,438.164,210.619z"/>
<path style="fill:#CE3E11;" d="M439.065,209.024c0,0,1.213,2.809,2.226,4.747c1.007,1.932,5.118,9.487,3.722,14.187
	c-1.396,4.699-0.954,6.825-3.304,8.657c-2.344,1.837-5.206,1.661-5.059,2.939c0.141,1.278,7.408-1.69,10.565-0.583
	c3.156,1.095,5.212,1.39,4.405,0.071c-0.807-1.325-1.837-2.055-2.055-5.653c-0.224-3.592,3.156-6.531,2.933-7.921
	c-0.218-1.396-0.654-2.42-1.466-1.396c-0.807,1.025-2.35,0-2.126-1.619c0.218-1.608-2.202-8.068-0.883-9.947
	c1.319-1.867,3.268-3.298,0.913-2.344c-2.344,0.954-3.592,3.704-3.628,1.614s1.172-4.805-0.112-2.709
	c-1.284,2.085-1.172,5.942-2.456,3.957C441.45,211.044,439.065,209.024,439.065,209.024z"/>
<g>
	<g>
		<path style="fill:#C5FF00;" d="M420.02,253.603c-0.465-2.391-1.525-5.824-3.386-8.38c-1.272-1.755-2.921-3.098-5.017-3.374
			c2.467-1.125,7.055,1.572,8.692,7.479c1.431-6.484,6.331-9.487,8.91-8.309c-2.085,0.277-3.745,1.614-5.017,3.368
			C422.034,247.361,421.457,253.379,420.02,253.603z"/>
		<path style="fill:#C5FF00;" d="M440.979,257.855c0.836-2.308,1.702-5.777,1.39-8.822c-0.206-2.085-0.96-3.957-2.668-5.082
			c2.768,0.041,5.412,4.34,3.775,10.241c4.646-5.135,10.559-5.742,12.22-3.622c-1.99-0.624-4.158-0.135-6.201,0.883
			C446.026,253.179,442.357,258.255,440.979,257.855z"/>
		<path style="fill:#C5FF00;" d="M450.943,272.748c0.895-2.15,2.297-4.758,4.169-6.684c1.531-1.584,3.374-2.703,5.489-2.727
			c-2.267-1.419-7.232,0.695-9.758,6.337c-0.418-6.584-4.817-10.159-7.556-9.31c2.032,0.53,3.463,2.055,4.458,3.946
			c1.178,2.25,1.366,5.848,1.843,7.956C450.036,272.43,450.49,272.601,450.943,272.748z"/>
		<path style="fill:#C5FF00;" d="M462.156,275.864c1.561-1.837,3.769-3.987,6.207-5.359c1.979-1.113,4.105-1.708,6.142-1.184
			c-1.714-1.943-7.143-1.213-11.407,3.533c1.749-6.413-1.296-10.983-4.187-10.883c1.767,1.042,2.644,2.88,2.974,4.941
			c0.442,2.697-0.813,6.66-0.877,8.698C461.39,275.693,461.767,275.781,462.156,275.864z"/>
	</g>
	<path style="fill:#8B6E62;" d="M475.647,261.677c-0.029,0.024-8.945,5.424-13.739,14.122c-0.3-0.059-0.595-0.124-0.889-0.183
		c4.888-9.01,14.098-14.575,14.122-14.599L475.647,261.677z M420.191,254.316c0.336,0.312,0.677,0.63,1.019,0.936
		c-1.596-11.33,4.146-20.564,4.164-20.6l-0.783-0.377C424.566,234.305,419.037,243.203,420.191,254.316z M432.216,263.667
		c0.3,0.2,0.607,0.395,0.919,0.583c-0.371-6.301,2.603-11.89,2.615-11.913l-0.813-0.33
		C434.925,252.025,432.051,257.407,432.216,263.667z M440.125,268.184c0.33,0.171,0.66,0.324,0.983,0.489
		c-0.082-0.554-0.171-1.148-0.259-1.773c-1.555-11.319,11.784-27.772,11.819-27.82l-0.73-0.471
		c-0.035,0.047-13.58,16.76-11.984,28.391C440.013,267.413,440.072,267.802,440.125,268.184z M450.042,272.43
		c0.277,0.106,0.565,0.206,0.848,0.3c1.661-6.937,6.596-10.182,6.607-10.194l-0.542-0.642
		C456.938,261.913,451.815,265.287,450.042,272.43z"/>
</g>
<path style="fill:#FFFFFF;" d="M433.364,250.641c0,0-1.708-5.712-4.411-4.853C426.251,246.642,426.604,248.827,433.364,250.641z
	 M436.344,250.641c0,0-1.743-7.296,2.144-6.236C442.375,245.459,436.344,250.641,436.344,250.641z M437.987,252.408
	c1.625,0.907,8.839,0.554,7.373-2.067C443.9,247.726,437.987,252.408,437.987,252.408z M436.597,254.21c0,0-0.365,6.501,3.127,5.288
	C443.223,258.297,436.597,254.21,436.597,254.21z M433.871,253.862c0,0-8.274,3.127-4.729,5.441
	C432.687,261.618,433.871,253.862,433.871,253.862z M432.799,252.661c0,0-7.373-3.274-8.392,0
	C423.394,255.923,432.799,252.661,432.799,252.661z"/>
<path style="fill:#FFE900;" d="M435.337,249.575c1.608,0,2.903,1.16,2.903,2.597c0,1.431-1.296,2.597-2.903,2.597
	c-1.596,0-2.897-1.166-2.897-2.597C432.44,250.735,433.741,249.575,435.337,249.575z"/>
<path style="fill:#FF3C00;" d="M435.337,251.136c0.642,0,1.16,0.465,1.16,1.036c0,0.565-0.518,1.031-1.16,1.031
	c-0.636,0-1.154-0.465-1.154-1.031C434.183,251.601,434.701,251.136,435.337,251.136z"/>
<path style="fill:#FFFFFF;" d="M454.094,260.694c0,0-1.708-5.712-4.411-4.853C446.98,256.695,447.333,258.88,454.094,260.694z
	 M457.079,260.694c0,0-1.743-7.296,2.144-6.242C463.11,255.511,457.079,260.694,457.079,260.694z M458.716,262.454
	c1.637,0.907,8.839,0.554,7.373-2.061C464.629,257.778,458.716,262.454,458.716,262.454z M457.333,264.256
	c0,0-0.365,6.507,3.127,5.3C463.958,268.343,457.333,264.256,457.333,264.256z M454.606,263.915c0,0-8.286,3.121-4.735,5.436
	C453.416,271.665,454.606,263.915,454.606,263.915z M453.534,262.702c0,0-7.379-3.262-8.392,0
	C444.124,265.97,453.534,262.702,453.534,262.702z"/>
<path style="fill:#FFE900;" d="M456.078,259.628c1.596,0,2.897,1.16,2.897,2.591s-1.301,2.597-2.897,2.597
	c-1.608,0-2.909-1.166-2.909-2.597S454.471,259.628,456.078,259.628z"/>
<path style="fill:#FF3C00;" d="M456.078,261.182c0.636,0,1.154,0.465,1.154,1.036s-0.518,1.031-1.154,1.031
	c-0.642,0-1.16-0.459-1.16-1.031S455.436,261.182,456.078,261.182z"/>
<path style="fill:#FFFFFF;" d="M450.331,236.99c0,0-1.714-5.995-4.411-5.595C443.211,231.802,443.57,234.046,450.331,236.99z
	 M453.31,237.491c0,0-1.743-7.597,2.144-5.889C459.335,233.31,453.31,237.491,453.31,237.491z M454.948,239.523
	c1.631,1.178,8.845,2.032,7.379-0.824C460.86,235.83,454.948,239.523,454.948,239.523z M453.564,241.095
	c0,0-0.365,6.443,3.127,5.818C460.183,246.289,453.564,241.095,453.564,241.095z M450.837,240.3c0,0-8.286,1.731-4.735,4.641
	C449.647,247.85,450.837,240.3,450.837,240.3z M449.765,238.91c0,0-7.379-4.505-8.398-1.402
	C440.361,240.606,449.765,238.91,449.765,238.91z"/>
<path style="fill:#FFE900;" d="M452.303,236.248c1.608,0.271,2.909,1.649,2.909,3.08c0,1.437-1.301,2.385-2.909,2.114
	c-1.602-0.277-2.903-1.649-2.903-3.08C449.4,236.931,450.702,235.983,452.303,236.248z"/>
<path style="fill:#FF3C00;" d="M452.303,237.809c0.642,0.112,1.16,0.66,1.16,1.231c0,0.565-0.518,0.948-1.16,0.836
	c-0.636-0.106-1.154-0.654-1.154-1.225C451.149,238.086,451.667,237.709,452.303,237.809z"/>
<path style="fill:#FFFFFF;" d="M423.294,232.88c0,0-1.455-5.112-3.763-4.77C417.229,228.457,417.535,230.371,423.294,232.88z
	 M425.844,233.304c0,0-1.496-6.466,1.82-5.017C430.979,229.747,425.844,233.304,425.844,233.304z M427.228,235.041
	c1.396,1.007,7.538,1.731,6.289-0.707C432.269,231.891,427.228,235.041,427.228,235.041z M426.05,236.378
	c0,0-0.306,5.489,2.668,4.959C431.698,240.806,426.05,236.378,426.05,236.378z M423.724,235.701c0,0-7.055,1.478-4.028,3.957
	C422.717,242.131,423.724,235.701,423.724,235.701z M422.811,234.517c0,0-6.289-3.84-7.149-1.195
	C414.802,235.966,422.811,234.517,422.811,234.517z"/>
<path style="fill:#FFE900;" d="M424.979,232.25c1.372,0.23,2.473,1.402,2.473,2.626c0,1.219-1.101,2.026-2.473,1.79
	c-1.366-0.218-2.473-1.396-2.473-2.621C422.505,232.827,423.612,232.026,424.979,232.25z"/>
<path style="fill:#FF3C00;" d="M424.979,233.581c0.542,0.094,0.983,0.559,0.983,1.042c0,0.489-0.442,0.807-0.983,0.718
	c-0.542-0.088-0.983-0.559-0.983-1.042C423.995,233.81,424.437,233.492,424.979,233.581z"/>
<path style="fill:#FFFFFF;" d="M477.915,260.741c0,0,4.317-4.476,6.337-2.656C486.271,259.904,484.887,261.736,477.915,260.741z
	 M475.229,259.586c0,0,5.123-5.901,1.113-6.46C472.326,252.573,475.229,259.586,475.229,259.586z M472.903,260.535
	c-1.914,0.183-8.233-2.933-5.642-4.723S472.903,260.535,472.903,260.535z M473.274,262.702c0,0-2.838,5.995-5.394,3.545
	C465.318,263.803,473.274,262.702,473.274,262.702z M475.895,263.45c0,0,5.942,6.024,1.619,6.731
	C473.192,270.887,475.895,263.45,475.895,263.45z M477.449,262.778c0,0,8.233-0.082,7.556,3.257
	C484.334,269.374,477.449,262.778,477.449,262.778z"/>
<path style="fill:#FFE900;" d="M476.66,259.015c-1.449-0.624-3.18-0.088-3.875,1.207c-0.701,1.284-0.1,2.838,1.349,3.463
	s3.18,0.082,3.875-1.213C478.71,261.182,478.097,259.634,476.66,259.015z"/>
<path style="fill:#FF3C00;" d="M475.901,260.423c-0.577-0.253-1.266-0.029-1.543,0.477c-0.277,0.512-0.035,1.131,0.536,1.378
	c0.571,0.247,1.266,0.035,1.543-0.483C476.707,261.288,476.472,260.664,475.901,260.423z"/>
<polygon style="fill:#785448;" points="49.944,233.062 44.58,233.151 44.58,247.714 49.944,247.62 "/>
<path style="fill:#7CB142;" d="M51.452,238.08c-2.344,0.783-4.694-0.112-7.426-0.813c-2.738-0.707-5.865-1.213-6.537-3.628
	c-0.665-2.414,1.119-6.737,2.35-13.103c1.225-6.366,1.896-14.775,3.18-21.654c1.284-6.884,3.18-12.237,4.635-14.175
	c1.455-1.937,2.456-0.459,3.687,3.533c1.225,3.999,2.679,10.506,4.187,16.548c1.508,6.036,3.074,11.613,3.575,16.136
	c0.501,4.517-0.059,7.974-1.508,10.942C56.14,234.829,53.796,237.297,51.452,238.08z"/>
<path style="fill:#ADD37F;" d="M37.348,232.214c0.077-2.544,1.472-6.413,2.491-11.678c1.225-6.366,1.896-14.775,3.18-21.654
	c1.084-5.818,2.609-10.541,3.934-13.032c1.331,2.179,2.662,4.352,2.774,5.765c0.106,1.413-1.013,2.061-1.614,2.432
	c-0.601,0.371-0.683,0.465-0.966,1.555c-0.277,1.089-0.748,3.174-0.512,4.493c0.236,1.307,1.184,1.855,2.108,2.297
	c0.925,0.442,1.814,0.777,2.326,1.431c0.518,0.654,0.66,1.631,0.465,2.279c-0.194,0.642-0.724,0.954-1.519,1.402
	c-0.801,0.448-1.861,1.025-1.537,1.46c0.318,0.436,2.02,0.736,3.015,1.172c0.989,0.442,1.272,1.019,1.349,1.555
	c0.088,0.536-0.024,1.025-0.689,1.384c-0.671,0.365-1.902,0.595-2.138,1.195c-0.241,0.595,0.512,1.566,1.672,2.385
	c1.154,0.824,2.721,1.496,3.81,2.096c1.089,0.601,1.702,1.131,1.814,2.108c0.112,0.978-0.277,2.409-1.49,2.95
	c-1.213,0.542-3.257,0.2-4.959-0.112c-1.702-0.306-3.068-0.589-3.657-0.342c-0.583,0.241-0.395,1.007,0.183,1.684
	c0.571,0.683,1.519,1.272,2.933,1.879c1.407,0.607,3.274,1.231,4.311,2.091c1.036,0.854,1.225,1.949,0.866,3.015
	c-0.365,1.072-1.284,2.108-2.903,2.579c-1.619,0.471-3.94,0.371-7.62-0.424C42.807,233.716,40.175,233.015,37.348,232.214z"/>
<polygon style="fill:#785448;" points="78.889,242.709 73.53,242.803 73.53,257.36 78.889,257.272 "/>
<path style="fill:#7CB142;" d="M80.396,247.726c-2.344,0.783-4.688-0.106-7.426-0.807c-2.738-0.707-5.86-1.213-6.531-3.628
	c-0.671-2.42,1.113-6.737,2.344-13.109c1.225-6.366,1.896-14.775,3.186-21.654c1.284-6.884,3.18-12.231,4.629-14.169
	c1.455-1.937,2.456-0.459,3.687,3.533c1.231,3.993,2.679,10.5,4.187,16.542c1.508,6.042,3.074,11.619,3.575,16.136
	c0.501,4.517-0.059,7.98-1.508,10.942C85.09,244.481,82.74,246.943,80.396,247.726z"/>
<path style="fill:#ADD37F;" d="M66.292,241.866c0.077-2.55,1.478-6.419,2.491-11.684c1.225-6.366,1.896-14.775,3.186-21.654
	c1.084-5.818,2.603-10.535,3.928-13.032c1.331,2.179,2.662,4.358,2.774,5.771c0.106,1.407-1.013,2.055-1.614,2.432
	c-0.601,0.371-0.677,0.465-0.96,1.555c-0.283,1.084-0.754,3.168-0.518,4.487c0.236,1.313,1.19,1.861,2.108,2.303
	c0.925,0.436,1.814,0.771,2.332,1.425c0.518,0.66,0.654,1.637,0.459,2.279c-0.194,0.648-0.724,0.96-1.519,1.402
	c-0.795,0.448-1.855,1.025-1.537,1.46c0.324,0.436,2.026,0.736,3.015,1.178c0.989,0.436,1.272,1.013,1.354,1.549
	c0.082,0.536-0.024,1.031-0.695,1.39c-0.671,0.365-1.902,0.589-2.138,1.19c-0.236,0.601,0.512,1.566,1.672,2.391
	c1.16,0.819,2.721,1.496,3.81,2.096c1.089,0.601,1.708,1.125,1.82,2.102s-0.283,2.409-1.496,2.95
	c-1.213,0.548-3.251,0.206-4.959-0.1c-1.702-0.312-3.068-0.595-3.651-0.353c-0.589,0.247-0.395,1.013,0.183,1.69
	c0.571,0.677,1.519,1.272,2.927,1.873c1.407,0.607,3.28,1.231,4.317,2.091c1.031,0.86,1.225,1.949,0.86,3.021
	c-0.359,1.066-1.284,2.108-2.903,2.579c-1.614,0.471-3.94,0.365-7.62-0.424C71.757,243.368,69.125,242.667,66.292,241.866z"/>
<polygon style="fill:#785448;" points="106.885,247.655 101.52,247.744 101.52,262.301 106.885,262.213 "/>
<path style="fill:#7CB142;" d="M108.387,252.673c-2.344,0.777-4.688-0.112-7.426-0.813c-2.732-0.707-5.86-1.213-6.525-3.628
	c-0.671-2.414,1.113-6.743,2.338-13.103c1.231-6.372,1.902-14.781,3.186-21.66c1.284-6.884,3.18-12.231,4.635-14.169
	c1.449-1.937,2.456-0.459,3.681,3.533c1.231,3.993,2.685,10.5,4.193,16.548c1.508,6.042,3.068,11.613,3.575,16.13
	c0.501,4.517-0.059,7.98-1.513,10.942C113.08,249.416,110.736,251.884,108.387,252.673z"/>
<path style="fill:#ADD37F;" d="M94.289,246.807c0.071-2.55,1.466-6.413,2.485-11.678c1.231-6.372,1.902-14.781,3.186-21.66
	c1.084-5.812,2.609-10.535,3.934-13.032c1.331,2.179,2.662,4.358,2.768,5.771s-1.007,2.061-1.608,2.432
	c-0.601,0.371-0.683,0.465-0.966,1.555c-0.277,1.089-0.754,3.174-0.512,4.487c0.236,1.313,1.184,1.861,2.108,2.297
	c0.919,0.442,1.814,0.777,2.326,1.431c0.518,0.66,0.66,1.637,0.465,2.279c-0.2,0.648-0.724,0.96-1.519,1.402
	c-0.801,0.442-1.861,1.019-1.537,1.466c0.318,0.436,2.02,0.736,3.009,1.172c0.995,0.436,1.272,1.019,1.354,1.549
	c0.088,0.536-0.024,1.031-0.695,1.396c-0.671,0.353-1.902,0.589-2.132,1.184c-0.241,0.601,0.512,1.566,1.672,2.391
	c1.154,0.819,2.721,1.496,3.81,2.096s1.702,1.125,1.814,2.102c0.112,0.978-0.277,2.409-1.496,2.95
	c-1.213,0.548-3.251,0.206-4.953-0.1c-1.702-0.312-3.068-0.595-3.657-0.353c-0.589,0.241-0.395,1.013,0.177,1.69
	c0.577,0.677,1.525,1.272,2.939,1.879c1.407,0.607,3.28,1.231,4.311,2.085c1.031,0.86,1.231,1.949,0.866,3.021
	c-0.365,1.066-1.284,2.108-2.903,2.579c-1.619,0.465-3.94,0.365-7.62-0.424C99.748,248.309,97.115,247.608,94.289,246.807z"/>
<polygon style="fill:#785448;" points="133.762,242.661 128.403,242.75 128.403,257.307 133.762,257.225 "/>
<path style="fill:#7CB142;" d="M135.27,247.679c-2.344,0.783-4.688-0.112-7.426-0.813c-2.738-0.707-5.86-1.213-6.531-3.628
	c-0.671-2.414,1.113-6.737,2.344-13.103c1.225-6.366,1.896-14.775,3.186-21.66c1.284-6.878,3.18-12.231,4.629-14.169
	c1.455-1.932,2.456-0.459,3.687,3.533c1.231,3.999,2.679,10.506,4.187,16.548c1.508,6.042,3.074,11.613,3.575,16.13
	s-0.059,7.985-1.508,10.942C139.963,244.428,137.614,246.89,135.27,247.679z"/>
<path style="fill:#ADD37F;" d="M121.166,241.813c0.077-2.544,1.472-6.413,2.491-11.678c1.225-6.366,1.896-14.775,3.186-21.66
	c1.084-5.812,2.603-10.535,3.928-13.026c1.331,2.179,2.662,4.352,2.774,5.765c0.106,1.413-1.013,2.061-1.614,2.432
	c-0.601,0.371-0.683,0.465-0.96,1.555s-0.754,3.174-0.518,4.487c0.241,1.319,1.19,1.861,2.108,2.303
	c0.925,0.436,1.814,0.771,2.332,1.431c0.518,0.654,0.654,1.631,0.459,2.279c-0.194,0.642-0.724,0.954-1.519,1.396
	c-0.795,0.448-1.855,1.025-1.531,1.466c0.318,0.436,2.02,0.736,3.009,1.172c0.989,0.436,1.272,1.019,1.354,1.549
	c0.082,0.542-0.024,1.036-0.695,1.396c-0.671,0.359-1.902,0.589-2.138,1.184c-0.236,0.601,0.512,1.572,1.672,2.391
	c1.16,0.819,2.727,1.496,3.81,2.096c1.089,0.601,1.702,1.125,1.82,2.102c0.112,0.983-0.283,2.409-1.496,2.956
	c-1.213,0.542-3.251,0.206-4.959-0.106c-1.702-0.312-3.068-0.589-3.651-0.353c-0.589,0.247-0.395,1.013,0.177,1.696
	c0.577,0.677,1.525,1.266,2.933,1.873c1.407,0.607,3.28,1.231,4.317,2.091c1.031,0.854,1.231,1.949,0.86,3.021
	c-0.359,1.06-1.284,2.102-2.903,2.573c-1.614,0.471-3.934,0.371-7.62-0.424C126.631,243.315,123.998,242.614,121.166,241.813z"/>
<path style="fill:#BD360C;" d="M153.178,395.098c-0.124,0.501-2.609,21.006-2.609,21.006l5.282,0.506l-0.059-20.706L153.178,395.098
	z"/>
<path style="fill:#64DB16;" d="M144.08,358.268c0,0,8.733-1.943,7.732,0.571c-1.007,2.509-12.237,9.063-12.237,9.063
	s8.916-1.431,7.573,1.99c-1.331,3.416-12.438,9.157-12.438,9.157s14.363-2.473,10.429,2.085c-3.928,4.564-18.15,12.231-18.15,12.231
	s18.091-4.281,17.502,0.795c-0.571,5.076-7.95,6.543-9.493,9.752c0,0,17.85-3.557,19.805-0.836
	c2.02,0.012,20.023,3.527,20.058,2.644c-1.313-3.304-8.945-5.736-9.181-10.836c-0.241-5.112,17.514,0.383,17.514,0.383
	s-13.668-8.61-17.278-13.427c-3.61-4.805,10.547-1.372,10.547-1.372s-10.689-6.478-11.796-9.976
	c-1.107-3.516,7.697-1.484,7.697-1.484s-10.765-7.296-11.59-9.87c-0.836-2.573,7.75-0.047,7.75-0.047
	c-7.232-6.796-9.882-13.91-11.637-17.655C154.874,345.053,151.747,351.985,144.08,358.268z"/>
<path style="fill:#ADE900;" d="M144.08,358.268c0,0,8.733-1.943,7.732,0.571c-1.007,2.509-12.237,9.063-12.237,9.063
	s8.916-1.431,7.573,1.99c-1.331,3.416-12.438,9.157-12.438,9.157s14.363-2.473,10.441,2.085
	c-3.94,4.564-18.162,12.231-18.162,12.231s18.091-4.281,17.508,0.795c-0.577,5.076-7.956,6.543-9.499,9.752
	c-3.639,1.402,14.752-2.491,19.805-0.836l2.244-61.287l-0.159-0.353C154.874,345.053,151.747,351.985,144.08,358.268z"/>
<path style="fill:#424242;" d="M251.33,393.402l12.973,0.159c4.246,0.053,7.715,3.563,7.715,7.809v32.731
	c0,4.246-3.469,7.673-7.715,7.62l-12.973-0.153c-4.246-0.053-7.715-3.563-7.715-7.809v-32.731
	C243.615,396.788,247.084,393.355,251.33,393.402z"/>
<path style="fill:#BD360C;" d="M202.663,369.863c-0.124,0.524-2.727,21.954-2.727,21.954l5.524,0.53l-0.065-21.642L202.663,369.863z
	"/>
<path style="fill:#64DB16;" d="M193.159,331.367c0,0,9.128-2.032,8.074,0.601c-1.048,2.621-12.779,9.469-12.779,9.469
	s9.31-1.49,7.915,2.079c-1.396,3.575-13.003,9.575-13.003,9.575s15.011-2.585,10.901,2.185
	c-4.111,4.764-18.968,12.779-18.968,12.779s18.904-4.476,18.291,0.83c-0.601,5.306-8.315,6.837-9.923,10.188
	c0,0,18.65-3.716,20.7-0.872c2.108,0.012,20.929,3.686,20.959,2.768c-1.366-3.457-9.346-6.001-9.593-11.33
	c-0.253-5.341,18.303,0.4,18.303,0.4s-14.287-8.998-18.056-14.033c-3.775-5.017,11.024-1.437,11.024-1.437
	s-11.171-6.772-12.332-10.424c-1.154-3.669,8.05-1.549,8.05-1.549s-11.254-7.626-12.12-10.312c-0.866-2.697,8.103-0.053,8.103-0.053
	c-7.556-7.108-10.323-14.54-12.167-18.45C204.442,317.558,201.168,324.795,193.159,331.367z"/>
<path style="fill:#ADE900;" d="M193.159,331.367c0,0,9.128-2.032,8.074,0.601c-1.048,2.621-12.779,9.469-12.779,9.469
	s9.31-1.49,7.915,2.079c-1.396,3.575-13.003,9.575-13.003,9.575s15.011-2.585,10.906,2.185
	c-4.116,4.764-18.974,12.779-18.974,12.779s18.904-4.476,18.291,0.83c-0.601,5.306-8.315,6.837-9.923,10.188
	c-3.804,1.466,15.417-2.603,20.7-0.872l2.338-64.054l-0.165-0.365C204.442,317.558,201.168,324.795,193.159,331.367z"/>
<path style="fill:#424242;" d="M358.368,394.697l12.973,0.153c4.246,0.053,7.715,3.563,7.715,7.809v32.731
	c0,4.246-3.469,7.673-7.715,7.62l-12.973-0.153c-4.246-0.053-7.709-3.563-7.709-7.815v-32.725
	C350.66,398.078,354.122,394.644,358.368,394.697z"/>
<path style="fill:#BD360C;" d="M463.875,350.995c-0.1,0.424-2.226,17.932-2.226,17.932l4.511,0.43l-0.053-17.667L463.875,350.995z"
	/>
<path style="fill:#64DB16;" d="M456.108,319.548c0,0,7.455-1.661,6.602,0.489c-0.854,2.144-10.447,7.738-10.447,7.738
	s7.609-1.219,6.466,1.696c-1.137,2.921-10.618,7.821-10.618,7.821s12.267-2.108,8.904,1.784c-3.351,3.893-15.5,10.447-15.5,10.447
	s15.447-3.663,14.946,0.671c-0.489,4.34-6.79,5.589-8.103,8.321c0,0,15.235-3.033,16.907-0.707
	c1.725,0.006,17.096,3.009,17.125,2.255c-1.119-2.821-7.638-4.9-7.838-9.252c-0.206-4.364,14.952,0.33,14.952,0.33
	s-11.666-7.355-14.752-11.466c-3.08-4.105,9.004-1.178,9.004-1.178s-9.122-5.524-10.07-8.515c-0.942-2.997,6.572-1.26,6.572-1.26
	s-9.193-6.231-9.893-8.427c-0.713-2.202,6.613-0.041,6.613-0.041c-6.172-5.807-8.433-11.878-9.935-15.076
	C465.33,308.265,462.656,314.183,456.108,319.548z"/>
<path style="fill:#ADE900;" d="M456.108,319.548c0,0,7.455-1.661,6.602,0.489c-0.854,2.144-10.447,7.738-10.447,7.738
	s7.609-1.219,6.466,1.696c-1.137,2.921-10.618,7.821-10.618,7.821s12.267-2.108,8.916,1.784
	c-3.363,3.893-15.512,10.447-15.512,10.447s15.447-3.663,14.952,0.671c-0.495,4.34-6.796,5.589-8.109,8.321
	c-3.109,1.201,12.597-2.12,16.907-0.707l1.908-52.329l-0.13-0.3C465.33,308.265,462.656,314.183,456.108,319.548z"/>
<path style="fill:#BD360C;" d="M415.845,326.497c-0.082,0.33-1.708,13.757-1.708,13.757l3.463,0.336l-0.041-13.562L415.845,326.497z
	"/>
<path style="fill:#64DB16;" d="M409.891,302.376c0,0,5.718-1.272,5.059,0.377c-0.654,1.643-8.009,5.936-8.009,5.936
	s5.836-0.936,4.959,1.307c-0.872,2.232-8.144,5.995-8.144,5.995s9.405-1.619,6.825,1.366c-2.573,2.986-11.884,8.009-11.884,8.009
	s11.843-2.803,11.466,0.524c-0.377,3.321-5.212,4.281-6.219,6.384c0,0,11.69-2.326,12.968-0.548
	c1.325,0.006,13.121,2.309,13.138,1.731c-0.86-2.161-5.86-3.763-6.013-7.102c-0.159-3.345,11.472,0.259,11.472,0.259
	s-8.951-5.642-11.319-8.798c-2.367-3.151,6.908-0.901,6.908-0.901s-6.996-4.24-7.726-6.531c-0.724-2.297,5.041-0.966,5.041-0.966
	s-7.049-4.788-7.591-6.466c-0.542-1.69,5.076-0.035,5.076-0.035c-4.735-4.452-6.472-9.11-7.62-11.56
	C416.958,293.731,414.908,298.259,409.891,302.376z"/>
<path style="fill:#ADE900;" d="M409.891,302.376c0,0,5.718-1.272,5.059,0.377c-0.654,1.643-8.009,5.936-8.009,5.936
	s5.836-0.936,4.959,1.307c-0.872,2.232-8.144,5.995-8.144,5.995s9.405-1.619,6.831,1.366c-2.579,2.986-11.89,8.009-11.89,8.009
	s11.843-2.803,11.466,0.524c-0.377,3.321-5.212,4.281-6.219,6.384c-2.385,0.919,9.658-1.631,12.968-0.548l1.466-40.139l-0.1-0.23
	C416.958,293.731,414.908,298.259,409.891,302.376z"/>
<path style="fill:#9D9D9D;" d="M362.426,366.901c25.917,11.802,22.355,27.431,16.407,47.707
	c-2.467,8.415-10.323,16.33-19.122,16.206l-98.464-1.337c-8.792-0.118-15.788-7.249-17.632-15.871
	c-4.158-19.422-8.192-35.251,14.198-46.876c1.555-10.477,4.034-21.624,7.002-33.226c0.972-3.793,3.221-6.79,7.132-7.049
	c27.843-1.849,52.471-1.531,75.585,0.913c3.904,0.412,5.483,3.639,7.132,7.22C360.447,347.173,361.589,357.126,362.426,366.901z"/>
<polygon style="fill:#FFFFFF;" points="270.051,329.565 350.253,330.531 358.48,365.064 260.658,363.886 "/>
<g>
	<path style="fill:#606060;" d="M310.296,370.741c10.871,0.135,20.152,1.79,23.803,4.016l-47.618-0.577
		C290.138,372.048,299.419,370.611,310.296,370.741z"/>
	<path style="fill:#606060;" d="M288.613,383.738c12.968-0.889,27.207-0.583,43.196,0.524c11.489,0.795,6.643,25.117-1.843,26.459
		c-14.687,2.32-24.887,2.703-38.956-0.324C282.589,408.584,276.971,384.539,288.613,383.738z"/>
</g>
<g>
	<path style="fill:#FFFFFF;" d="M352.367,380.605c3.109,0.035,5.63,2.585,5.63,5.695s-2.52,5.6-5.63,5.559
		c-3.109-0.035-5.624-2.585-5.624-5.695S349.258,380.57,352.367,380.605z"/>
	<path style="fill:#FFFFFF;" d="M368.78,380.764c4.057,0.053,7.349,3.38,7.349,7.438c0,4.057-3.292,7.302-7.349,7.255
		c-4.052-0.047-7.344-3.374-7.344-7.432C361.436,383.968,364.728,380.717,368.78,380.764z"/>
</g>
<path style="fill:#BBBBBB;" d="M356.596,387.048c-0.359,2.002-2.12,3.504-4.228,3.475c-2.108-0.024-3.863-1.566-4.228-3.575
	L356.596,387.048z"/>
<path style="fill:#747474;" d="M352.367,381.942c2.108,0.024,3.869,1.566,4.228,3.581l-8.457-0.106
	C348.504,383.42,350.259,381.912,352.367,381.942z"/>
<path style="fill:#BBBBBB;" d="M368.78,386.329c0.989,0.006,1.784,0.819,1.784,1.808c0,0.983-0.795,1.773-1.784,1.761
	c-0.983-0.012-1.784-0.819-1.784-1.808C366.996,387.106,367.796,386.311,368.78,386.329z"/>
<path style="fill:#747474;" d="M370.441,382.16c2.585,0.748,4.487,3.115,4.54,5.913l-3.333-0.654
	c-0.183-0.713-0.618-1.325-1.207-1.731l0,0V382.16z M374.357,390.899c-1.007,2.049-3.127,3.445-5.577,3.416
	c-1.72-0.024-3.28-0.742-4.405-1.89l2.839-1.826c0.453,0.294,0.989,0.465,1.566,0.471c0.824,0.012,1.572-0.318,2.108-0.854l0,0
	L374.357,390.899z M362.867,389.921c-0.183-0.595-0.289-1.225-0.289-1.884c0-2.997,2.132-5.477,4.964-6.013v3.386
	c-1.001,0.453-1.702,1.449-1.72,2.621l0,0L362.867,389.921z"/>
<path style="fill:#FFFFFF;" d="M352.462,382.701c0.424,0.006,0.766,0.353,0.766,0.777c0,0.418-0.342,0.754-0.766,0.754
	c-0.418-0.006-0.76-0.353-0.76-0.771C351.702,383.037,352.043,382.696,352.462,382.701z"/>
<path style="fill:#747474;" d="M347.697,400.28l24.445,0.294c1.248,0.018,2.261,1.042,2.261,2.291l-0.006,3.993
	c0,1.243-1.019,2.25-2.267,2.232l-24.445-0.289c-1.248-0.018-2.261-1.048-2.261-2.291l0.006-3.999
	C345.43,401.269,346.449,400.262,347.697,400.28z"/>
<path style="fill:#FFFFFF;" d="M347.697,400.28l1.39,0.012l0.312,8.533l-1.578-0.024l-0.312-8.515
	C347.574,400.28,347.633,400.28,347.697,400.28z M351.46,400.321l1.584,0.024l0.312,8.527l-1.584-0.024L351.46,400.321z
	 M355.412,400.374l1.584,0.018l0.312,8.527l-1.578-0.024L355.412,400.374z M359.369,400.416l1.584,0.024l0.306,8.527l-1.578-0.018
	L359.369,400.416z M363.327,400.469l1.578,0.018l0.312,8.527l-1.578-0.024L363.327,400.469z M367.278,400.516l1.578,0.018
	l0.312,8.527l-1.578-0.024L367.278,400.516z M371.23,400.563l0.913,0.012c0.236,0,0.459,0.035,0.671,0.112l0.3,8.197
	c-0.294,0.135-0.63,0.212-0.983,0.206l-0.589-0.006L371.23,400.563z"/>
<path style="fill:#DFDFDF;" d="M363.109,413.76c2.532,0.029,4.582,2.102,4.582,4.635c0,2.526-2.049,4.552-4.582,4.523
	c-2.526-0.035-4.576-2.108-4.576-4.635C358.533,415.75,360.582,413.725,363.109,413.76z"/>
<path style="fill:#BBBBBB;" d="M363.109,414.49c2.126,0.024,3.846,1.773,3.846,3.893c0,2.126-1.72,3.828-3.846,3.798
	c-2.126-0.024-3.845-1.767-3.845-3.893C359.263,416.169,360.983,414.467,363.109,414.49z"/>
<path style="fill:#747474;" d="M363.109,417.423c0.512,0.006,0.919,0.418,0.919,0.925c0,0.501-0.406,0.913-0.919,0.907
	c-0.506-0.006-0.913-0.424-0.913-0.93C362.196,417.818,362.602,417.417,363.109,417.423z"/>
<g>
	<path style="fill:#606060;" d="M351.402,415.815l6.154,0.071c-0.318,0.73-0.489,1.531-0.489,2.373c0,0.188,0.012,0.371,0.029,0.554
		l-6.619-0.077L351.402,415.815z M351.937,422.782l7.226,0.088c-0.883-0.771-1.543-1.796-1.873-2.956l-6.278-0.077L351.937,422.782z
		"/>
	<polygon style="fill:#606060;" points="292.706,421.351 331.909,421.822 329.071,425.02 295.085,424.607 	"/>
</g>
<g>
	<path style="fill:#FFFFFF;" d="M271.423,379.627c-3.103-0.035-5.63,2.45-5.63,5.559s2.526,5.665,5.63,5.701
		c3.109,0.035,5.63-2.45,5.63-5.559S274.533,379.663,271.423,379.627z"/>
	<path style="fill:#FFFFFF;" d="M255.128,379.468c-4.052-0.053-7.344,3.198-7.344,7.249c0,4.063,3.292,7.391,7.344,7.438
		c4.063,0.053,7.349-3.198,7.349-7.255C262.478,382.843,259.192,379.516,255.128,379.468z"/>
</g>
<path style="fill:#BBBBBB;" d="M267.201,385.97c0.359,2.008,2.114,3.557,4.222,3.581c2.114,0.024,3.869-1.478,4.222-3.48
	L267.201,385.97z"/>
<path style="fill:#747474;" d="M271.423,380.964c-2.108-0.024-3.863,1.478-4.222,3.48l8.445,0.1
	C275.292,382.531,273.537,380.988,271.423,380.964z"/>
<path style="fill:#BBBBBB;" d="M255.128,385.028c-0.983-0.018-1.784,0.771-1.784,1.761s0.801,1.796,1.784,1.808
	c0.989,0.012,1.79-0.777,1.79-1.767C256.919,385.846,256.118,385.039,255.128,385.028z"/>
<path style="fill:#747474;" d="M253.468,380.811c-2.579,0.689-4.482,3.009-4.535,5.812l3.333-0.577
	c0.183-0.707,0.612-1.307,1.207-1.702h-0.006V380.811z M249.557,389.462c1.007,2.073,3.127,3.522,5.571,3.551
	c1.725,0.018,3.286-0.665,4.411-1.784l-2.838-1.89c-0.453,0.277-0.995,0.436-1.572,0.43c-0.819-0.012-1.566-0.359-2.102-0.907l0,0
	L249.557,389.462z M261.041,388.761c0.188-0.589,0.294-1.219,0.294-1.879c0-2.997-2.132-5.524-4.964-6.136v3.392
	c1.001,0.477,1.702,1.49,1.72,2.662v-0.006L261.041,388.761z"/>
<path style="fill:#FFFFFF;" d="M271.329,381.724c-0.424-0.006-0.766,0.33-0.766,0.754c0,0.424,0.342,0.771,0.766,0.771
	c0.424,0.006,0.76-0.324,0.76-0.748C272.089,382.077,271.753,381.73,271.329,381.724z"/>
<path style="fill:#747474;" d="M276.099,399.414l-24.451-0.294c-1.243-0.012-2.261,0.989-2.261,2.238l0.006,3.993
	c0.006,1.248,1.025,2.279,2.267,2.291l24.451,0.294c1.248,0.018,2.261-0.989,2.261-2.238l-0.012-3.993
	C278.36,400.463,277.342,399.426,276.099,399.414z"/>
<path style="fill:#E5E5E5;" d="M276.093,399.414l-1.39-0.018l-0.312,8.521l1.584,0.018l0.306-8.51
	C276.223,399.42,276.158,399.414,276.093,399.414z M272.33,399.373l-1.578-0.018l-0.312,8.51l1.578,0.024L272.33,399.373z
	 M268.379,399.32l-1.584-0.018l-0.306,8.521l1.578,0.018L268.379,399.32z M264.421,399.273l-1.578-0.018l-0.312,8.515l1.584,0.024
	L264.421,399.273z M260.47,399.226l-1.578-0.018l-0.312,8.521l1.578,0.018L260.47,399.226z M256.518,399.179l-1.584-0.018
	l-0.312,8.515l1.584,0.024L256.518,399.179z M252.561,399.132l-0.913-0.012c-0.23,0-0.459,0.029-0.671,0.094l-0.3,8.192
	c0.3,0.147,0.636,0.23,0.989,0.236l0.583,0.006L252.561,399.132z"/>
<path style="fill:#DFDFDF;" d="M260.682,412.523c-2.526-0.029-4.576,1.99-4.576,4.523c0,2.526,2.049,4.605,4.576,4.635
	c2.526,0.029,4.582-1.996,4.582-4.523C265.263,414.626,263.208,412.553,260.682,412.523z"/>
<path style="fill:#BBBBBB;" d="M260.682,413.259c-2.12-0.029-3.846,1.672-3.846,3.793c0,2.126,1.725,3.869,3.846,3.893
	c2.126,0.029,3.845-1.672,3.845-3.798C264.527,415.026,262.808,413.277,260.682,413.259z"/>
<path style="fill:#747474;" d="M260.682,416.186c-0.506-0.006-0.913,0.4-0.913,0.901c0,0.506,0.406,0.925,0.913,0.93
	c0.506,0.006,0.919-0.4,0.919-0.907C261.6,416.61,261.188,416.192,260.682,416.186z"/>
<path style="fill:#FFFFFF;" d="M330.449,25.423c2.897,0,5.636,0.618,8.056,1.708c2.621-2.291,6.207-3.704,10.17-3.704
	c6.855,0,12.602,4.24,14.139,9.941c3.422,0.925,6.172,3.233,7.432,6.201c0.406-0.041,0.824-0.059,1.248-0.059
	c6.337,0,11.472,4.588,11.472,10.253c0,5.659-5.135,10.253-11.472,10.253c-1.973,0-3.828-0.448-5.447-1.231
	c-1.396,4.264-5.801,7.367-11.018,7.367c-3.186,0-6.072-1.16-8.15-3.033c-2.079,1.873-4.964,3.033-8.15,3.033
	c-3.027,0-5.783-1.048-7.838-2.762c-2.096,2.049-5.112,3.339-8.468,3.339c-3.139,0-5.977-1.125-8.05-2.95
	c-0.948,0.183-1.932,0.283-2.944,0.283c-7.544,0-13.662-5.465-13.662-12.214c0-6.743,6.119-12.214,13.662-12.214
	c0.418,0,0.824,0.018,1.225,0.053C313.624,31.665,321.22,25.423,330.449,25.423z"/>
<path style="fill:#DFDFDF;" d="M382.949,50.315c-0.324,5.406-5.324,9.699-11.454,9.699c-1.973,0-3.828-0.448-5.447-1.231
	c-1.396,4.264-5.801,7.367-11.018,7.367c-3.186,0-6.072-1.16-8.15-3.033c-2.079,1.873-4.964,3.033-8.15,3.033
	c-3.027,0-5.783-1.048-7.838-2.762c-2.096,2.049-5.112,3.339-8.468,3.339c-3.139,0-5.977-1.125-8.05-2.95
	c-0.948,0.183-1.932,0.283-2.944,0.283c-7.544,0-13.662-5.465-13.662-12.214c0-0.73,0.071-1.443,0.206-2.132
	c-0.018,0.259-0.024,0.53-0.024,0.795c0,6.749,6.113,12.214,13.662,12.214c1.007,0,1.996-0.1,2.944-0.283
	c2.073,1.82,4.911,2.944,8.05,2.944c3.351,0,6.372-1.278,8.468-3.333c2.049,1.714,4.805,2.768,7.832,2.768
	c3.192,0,6.072-1.166,8.15-3.039c2.085,1.873,4.964,3.039,8.156,3.039c5.212,0,9.617-3.115,11.012-7.373
	c1.619,0.783,3.474,1.225,5.447,1.225C377.284,58.672,381.954,55.074,382.949,50.315z M340.489,45.457
	c-14.393-1.331-15.4,11.925-4.234,14.346c10.064,2.179,13.927-7.473,5.512-10.406c-7.467-2.603-11.566,4.364-5.783,6.79
	c4.046,1.696,7.073-1.407,4.646-3.086c-1.278-0.889-2.273,0.094-2.933-0.895c2.391-2.632,8.351,2.114,3.969,4.794
	c-5.306,3.245-13.886-3.698-7.62-7.862c6.066-4.034,17.243,2.638,12.39,8.798c-5.029,6.384-20.017,1.72-18.851-6.507
	c1.354-9.575,20.841-9.204,25.14,1.449c0.459,1.125,1.036,3.893-0.065,4.723c-0.342-0.071-0.406-2.267-0.506-2.785
	C351.243,50.139,346.896,46.47,340.489,45.457z M324.212,29.574c9.464-3.457,15.688,6.619,8.922,10.376
	c-6.101,3.38-12.814-3.422-8.168-7.108c4.111-3.274,9.864,1.419,6.849,4.27c-2.108,1.99-5.506,0.106-4.523-1.602
	c0.524-0.901,1.625-0.306,1.672-1.184c-2.762-1.637-4.929,3.039-0.766,4.37c5.047,1.614,8.133-5.2,2.032-7.361
	c-5.907-2.096-10.906,4.953-4.959,8.892c6.16,4.087,14.646-2.049,10.406-8.215c-4.929-7.167-18.338-3.592-16.895,5.371
	c0.153,0.948,0.901,3.18,2.014,3.639c0.206-0.112-0.66-1.82-0.807-2.238C318.676,35.01,320.172,31.441,324.212,29.574z
	 M302.093,45.133c-7.927,8.987,3.498,19.157,10.895,13.174c6.66-5.388-0.194-14.958-6.766-11.242
	c-5.824,3.304-1.484,11.113,3.392,8.845c3.416-1.578,2.043-5.883-0.595-5.412c-1.402,0.247-0.978,1.643-2.173,1.384
	c-1.248-3.528,5.795-4.258,6.154,0.683c0.43,5.989-9.811,6.955-10.618-0.353c-0.783-7.073,10.429-10.017,13.692-2.267
	c3.374,8.038-7.815,15.046-14.658,8.362c-7.956-7.773,1.484-20.959,13.056-16.324c1.219,0.495,3.975,2.067,4.211,3.422
	c-0.224,0.188-2.226-1.331-2.738-1.637C311.315,41.052,305.997,41.435,302.093,45.133z M355.836,27.396
	c-9.758-3.563-16.177,6.825-9.199,10.7c6.284,3.492,13.209-3.528,8.421-7.338c-4.246-3.368-10.176,1.472-7.067,4.411
	c2.179,2.055,5.677,0.112,4.664-1.655c-0.542-0.93-1.678-0.318-1.725-1.219c2.85-1.684,5.088,3.139,0.789,4.511
	c-5.206,1.661-8.38-5.371-2.091-7.597c6.089-2.155,11.242,5.112,5.112,9.175c-6.348,4.211-15.099-2.12-10.73-8.474
	c5.082-7.391,18.91-3.704,17.426,5.536c-0.159,0.978-0.93,3.286-2.079,3.757c-0.218-0.118,0.677-1.879,0.83-2.314
	C361.542,33.002,359.999,29.321,355.836,27.396z M377.466,44.114c6.702,7.008-2.962,14.929-9.21,10.264
	c-5.636-4.199,0.165-11.654,5.718-8.757c4.923,2.573,1.254,8.657-2.868,6.896c-2.886-1.237-1.725-4.593,0.506-4.222
	c1.184,0.194,0.819,1.278,1.831,1.084c1.06-2.756-4.9-3.321-5.2,0.53c-0.365,4.67,8.292,5.418,8.975-0.271
	c0.665-5.518-8.816-7.815-11.572-1.773c-2.856,6.26,6.602,11.731,12.39,6.519c6.731-6.06-1.254-16.342-11.036-12.726
	c-1.036,0.383-3.363,1.614-3.563,2.668c0.194,0.147,1.879-1.042,2.32-1.278C369.669,40.934,374.162,41.229,377.466,44.114z"/>
<path style="fill:#606060;" d="M272.395,414.861l-6.154-0.071c0.312,0.73,0.483,1.537,0.483,2.385c0,0.183-0.006,0.365-0.024,0.548
	l6.619,0.082L272.395,414.861z M271.853,421.816l-7.226-0.088c0.883-0.754,1.543-1.755,1.873-2.909l6.278,0.077L271.853,421.816z"/>
<path style="fill:#FFE900;" d="M324.836,48.131c0.253-0.718,0.689-1.478,1.354-2.279c5.229-6.301,14.357-3.386,14.357-3.386
	s-5.259,3.127-7.444,5.612c-1.113,1.272-1.201,2.626-1.219,3.828c0.436-0.63,1.054-1.248,1.896-1.849
	c6.684-4.729,14.752,0.448,14.752,0.448s-5.895,1.661-8.645,3.498c-1.402,0.936-1.843,2.22-2.167,3.38
	c0.577-0.495,1.337-0.936,2.314-1.296c7.679-2.838,14.128,4.246,14.128,4.246s-6.125,0.077-9.252,1.137
	c-1.602,0.542-2.356,1.672-2.968,2.709c0.683-0.33,1.531-0.554,2.562-0.654c8.156-0.754,12.549,7.762,12.549,7.762
	s-5.936-1.513-9.234-1.296c-1.678,0.112-2.703,1.001-3.563,1.843c0.748-0.135,1.625-0.135,2.644,0.035
	c8.074,1.384,10.117,10.742,10.117,10.742s-5.341-2.992-8.586-3.639c-1.655-0.324-2.874,0.271-3.922,0.866
	c0.76,0.059,1.608,0.277,2.55,0.718c7.438,3.422,6.99,12.991,6.99,12.991s-4.387-4.275-7.349-5.736
	c-1.519-0.748-2.85-0.483-4.016-0.183c0.718,0.247,1.478,0.689,2.279,1.349c6.295,5.229,3.386,14.357,3.386,14.357
	s-3.127-5.259-5.618-7.438c-1.266-1.113-2.621-1.207-3.822-1.219c0.624,0.424,1.248,1.048,1.849,1.896
	c4.729,6.684-0.448,14.746-0.448,14.746s-1.655-5.895-3.498-8.645c-0.936-1.402-2.22-1.837-3.38-2.161
	c0.495,0.577,0.936,1.331,1.296,2.308c2.839,7.679-4.246,14.128-4.246,14.128s-0.077-6.125-1.137-9.252
	c-0.548-1.602-1.672-2.356-2.715-2.968c0.33,0.683,0.559,1.531,0.66,2.568c0.754,8.15-7.762,12.549-7.762,12.549
	s1.513-5.936,1.296-9.234c-0.112-1.684-1.007-2.709-1.849-3.569c0.141,0.748,0.141,1.625-0.029,2.65
	c-1.384,8.068-10.742,10.111-10.742,10.111s2.997-5.341,3.639-8.58c0.324-1.661-0.271-2.88-0.866-3.928
	c-0.053,0.76-0.283,1.608-0.718,2.55c-3.422,7.438-12.991,6.984-12.991,6.984s4.275-4.376,5.736-7.344
	c0.748-1.519,0.483-2.85,0.188-4.016c-0.253,0.718-0.689,1.484-1.354,2.279c-5.235,6.295-14.363,3.386-14.363,3.386
	s5.265-3.127,7.45-5.612c1.107-1.272,1.201-2.621,1.219-3.828c-0.436,0.63-1.054,1.248-1.902,1.849
	c-6.684,4.729-14.746-0.448-14.746-0.448s5.895-1.655,8.639-3.492c1.407-0.936,1.849-2.22,2.167-3.38
	c-0.577,0.489-1.337,0.93-2.309,1.29c-7.679,2.838-14.128-4.246-14.128-4.246s6.125-0.077,9.252-1.142
	c1.596-0.542,2.356-1.667,2.968-2.703c-0.689,0.324-1.531,0.559-2.568,0.654c-8.15,0.754-12.549-7.762-12.549-7.762
	s5.936,1.513,9.234,1.296c1.684-0.112,2.703-1.007,3.569-1.843c-0.748,0.135-1.625,0.135-2.65-0.035
	c-8.068-1.384-10.111-10.747-10.111-10.747s5.335,2.997,8.586,3.645c1.655,0.33,2.874-0.271,3.922-0.86
	c-0.76-0.059-1.608-0.289-2.55-0.718c-7.438-3.422-6.99-12.991-6.99-12.991s4.381,4.27,7.349,5.73
	c1.513,0.748,2.844,0.483,4.01,0.188c-0.713-0.253-1.472-0.689-2.273-1.354c-6.301-5.229-3.386-14.357-3.386-14.357
	s3.127,5.265,5.612,7.438c1.266,1.119,2.626,1.207,3.828,1.219c-0.63-0.43-1.248-1.048-1.849-1.896
	c-4.729-6.684,0.448-14.746,0.448-14.746s1.655,5.895,3.492,8.645c0.942,1.402,2.226,1.843,3.386,2.167
	c-0.495-0.583-0.936-1.337-1.301-2.314c-2.839-7.679,4.252-14.128,4.252-14.128s0.071,6.125,1.137,9.252
	c0.542,1.602,1.672,2.356,2.709,2.968c-0.33-0.683-0.554-1.531-0.654-2.568c-0.754-8.15,7.762-12.544,7.762-12.544
	s-1.513,5.93-1.296,9.234c0.106,1.678,1.007,2.703,1.843,3.563c0-0.029-0.006-0.059-0.012-0.082
	c-0.012-0.059-0.018-0.118-0.029-0.183c0-0.029-0.006-0.059-0.012-0.094c-0.012-0.071-0.018-0.141-0.024-0.212
	c0-0.024,0-0.047-0.006-0.077c-0.006-0.077-0.012-0.159-0.012-0.241c0-0.018,0-0.035,0-0.053c-0.006-0.094-0.006-0.183-0.006-0.277
	v-0.035c0-0.1,0.006-0.2,0.012-0.306v-0.024c0.006-0.106,0.018-0.218,0.024-0.33v-0.012c0.012-0.112,0.029-0.23,0.041-0.347v-0.006
	c0.018-0.118,0.041-0.241,0.059-0.371l0,0l0,0c0.024-0.124,0.047-0.247,0.071-0.371l0,0c0.024-0.124,0.053-0.247,0.082-0.365l0,0
	c0.029-0.118,0.059-0.241,0.094-0.359l0,0c0.035-0.118,0.065-0.236,0.1-0.347l0,0c0.035-0.112,0.077-0.224,0.112-0.342l0,0
	c0.041-0.106,0.082-0.218,0.124-0.33l0,0c0.047-0.106,0.088-0.212,0.135-0.324l0,0c0.047-0.106,0.094-0.206,0.141-0.312l0,0
	c0.053-0.1,0.1-0.206,0.147-0.306l0,0c0.053-0.1,0.106-0.2,0.159-0.3l0,0c0.218-0.389,0.453-0.76,0.707-1.113l0,0
	c0.059-0.088,0.124-0.177,0.194-0.259l0,0c0.065-0.088,0.13-0.171,0.194-0.253l0,0c0.336-0.418,0.695-0.801,1.066-1.154l0,0
	c0.147-0.141,0.3-0.277,0.448-0.412l0,0c0.077-0.065,0.159-0.135,0.23-0.194l0,0c0.077-0.065,0.159-0.13,0.236-0.188l0,0
	c0.153-0.124,0.312-0.247,0.465-0.359l0,0c0.395-0.289,0.795-0.554,1.184-0.789c0.077-0.047,0.159-0.094,0.236-0.141l0,0
	c0.077-0.041,0.159-0.088,0.236-0.13l0,0c0.077-0.047,0.153-0.088,0.23-0.13l0,0c0.077-0.047,0.153-0.088,0.23-0.118l0,0
	c0.077-0.041,0.153-0.082,0.23-0.124l0,0c0.071-0.035,0.147-0.077,0.224-0.112c0.147-0.071,0.294-0.135,0.436-0.206l0,0
	c0.071-0.035,0.141-0.065,0.212-0.094l0,0c0.071-0.035,0.141-0.059,0.212-0.088l0,0c0.065-0.029,0.135-0.059,0.194-0.088l0,0
	c0.071-0.024,0.135-0.053,0.206-0.082l0,0c0.065-0.024,0.124-0.047,0.188-0.077c0.065-0.018,0.124-0.041,0.183-0.065l0,0
	c0.065-0.024,0.124-0.047,0.183-0.071l0,0c0.059-0.018,0.118-0.041,0.171-0.059c0.112-0.041,0.224-0.082,0.324-0.112
	c0.047-0.018,0.1-0.029,0.147-0.047c0.053-0.018,0.094-0.029,0.141-0.047c0.047-0.012,0.088-0.024,0.13-0.041
	c0.041-0.012,0.082-0.024,0.124-0.035c0.041-0.012,0.077-0.018,0.112-0.029c0.035-0.012,0.071-0.024,0.106-0.029
	c0.029-0.012,0.059-0.018,0.094-0.029c0.024-0.006,0.047-0.012,0.077-0.018c0.024-0.006,0.047-0.012,0.071-0.018
	c0.018-0.006,0.035-0.012,0.053-0.018c0.018,0,0.035-0.006,0.047-0.006c0.012-0.006,0.024-0.006,0.035-0.012h0.018h0.006l0,0
	l-0.006,0.012l-0.012,0.018l-0.012,0.024l-0.024,0.035l-0.018,0.041l0,0l-0.029,0.047l-0.029,0.059l-0.029,0.059l-0.035,0.065
	c-0.029,0.041-0.053,0.094-0.082,0.153l-0.047,0.082l-0.047,0.088c-0.018,0.029-0.035,0.065-0.053,0.1l0,0
	c-0.018,0.029-0.035,0.065-0.053,0.1l0,0c-0.018,0.035-0.035,0.065-0.059,0.1c-0.018,0.035-0.035,0.077-0.053,0.112
	c-0.018,0.041-0.041,0.082-0.059,0.118l0,0c-0.024,0.035-0.041,0.077-0.065,0.118c-0.018,0.041-0.041,0.082-0.065,0.13l0,0
	c-0.024,0.041-0.041,0.082-0.065,0.124l0,0c-0.024,0.047-0.047,0.088-0.065,0.135c-0.024,0.041-0.047,0.088-0.071,0.135l0,0
	c-0.024,0.047-0.047,0.094-0.077,0.141l0,0c-0.018,0.047-0.047,0.094-0.071,0.147l0,0c-0.024,0.041-0.047,0.094-0.071,0.147l0,0
	c-0.024,0.047-0.053,0.1-0.077,0.147l0,0c-0.024,0.053-0.047,0.1-0.071,0.153l0,0c-0.053,0.106-0.106,0.206-0.159,0.318l0,0
	c-0.024,0.053-0.047,0.106-0.077,0.159l0,0c-0.024,0.059-0.053,0.112-0.077,0.171l0,0c-0.106,0.218-0.212,0.442-0.312,0.677l0,0
	c-0.029,0.053-0.053,0.112-0.082,0.171l0,0c-0.024,0.059-0.053,0.118-0.077,0.177l0,0c-0.024,0.059-0.047,0.112-0.077,0.171l0,0
	c-0.053,0.118-0.106,0.236-0.159,0.359l0,0c-0.047,0.118-0.094,0.236-0.147,0.353l0,0c-0.024,0.059-0.047,0.124-0.071,0.183l0,0
	c-0.029,0.059-0.053,0.118-0.077,0.183l0,0c-0.047,0.118-0.094,0.236-0.141,0.353l0,0c-0.071,0.183-0.141,0.365-0.206,0.542l0,0
	c-0.059,0.171-0.124,0.347-0.183,0.524l0,0c-0.018,0.059-0.035,0.118-0.053,0.177l0,0c-0.018,0.053-0.041,0.112-0.059,0.171l0,0
	c-0.018,0.059-0.035,0.112-0.053,0.171l0,0c-0.012,0.059-0.029,0.112-0.047,0.165c-0.018,0.059-0.035,0.112-0.047,0.171l0,0
	c-0.018,0.053-0.029,0.106-0.047,0.165c-0.012,0.053-0.029,0.106-0.041,0.159s-0.024,0.106-0.035,0.159
	c-0.018,0.053-0.029,0.106-0.041,0.159s-0.018,0.1-0.029,0.153c-0.006,0.047-0.018,0.094-0.024,0.147v0.006
	c-0.012,0.041-0.018,0.094-0.024,0.135v0.012c-0.006,0.041-0.012,0.088-0.018,0.135v0.012c-0.006,0.041-0.012,0.088-0.012,0.13
	l-0.006,0.018c0,0.041,0,0.082-0.006,0.13v0.012c0,0.041-0.006,0.082-0.006,0.124v0.012c0,0.041,0,0.082,0,0.124v0.018
	c0,0.041,0.006,0.082,0.006,0.124v0.012c0.006,0.041,0.006,0.077,0.006,0.118l0.006,0.012c0,0.041,0.006,0.082,0.012,0.118v0.012
	c0,0.041,0.006,0.077,0.012,0.118v0.012c0.012,0.041,0.012,0.077,0.024,0.118v0.012c0.006,0.035,0.012,0.077,0.018,0.112
	l0.006,0.012c0.006,0.035,0.012,0.077,0.018,0.112l0.006,0.012c0.006,0.035,0.018,0.077,0.024,0.112l0.006,0.006
	c0.006,0.041,0.018,0.077,0.024,0.112l0.006,0.006c0.012,0.041,0.024,0.077,0.029,0.112l0.006,0.006
	c0.012,0.041,0.024,0.077,0.035,0.118l0,0c0.012,0.041,0.024,0.071,0.035,0.112l0,0c0.183,0.518,0.43,0.983,0.677,1.425
	c0.059-0.76,0.283-1.608,0.718-2.55c3.422-7.438,12.997-6.984,12.997-6.984s-4.275,4.381-5.736,7.344
	C324.277,45.628,324.536,46.965,324.836,48.131z"/>
<path style="fill:#FFD500;" d="M314.018,46.482c16.742,0,30.316,13.574,30.316,30.322c0,16.742-13.574,30.316-30.316,30.316
	c-16.748,0-30.322-13.574-30.322-30.316C283.696,60.056,297.27,46.482,314.018,46.482z"/>
<path style="fill:#FFE900;" d="M314.018,51.87c13.768,0,24.928,11.166,24.928,24.934s-11.16,24.928-24.928,24.928
	c-13.768,0-24.934-11.16-24.934-24.928S300.25,51.87,314.018,51.87z"/>
<path style="fill:#FFFF00;" d="M314.018,57.694c10.547,0,19.104,8.557,19.104,19.11s-8.557,19.104-19.104,19.104
	c-10.559,0-19.11-8.551-19.11-19.104S303.459,57.694,314.018,57.694z"/>
<path style="fill:#FFFFFF;" d="M266.441,64.272c2.573,0,5.012,0.548,7.167,1.513c2.332-2.038,5.53-3.298,9.051-3.298
	c6.107,0,11.219,3.775,12.585,8.851c3.05,0.819,5.5,2.88,6.613,5.518c0.365-0.035,0.742-0.053,1.119-0.053
	c5.636,0,10.206,4.087,10.206,9.128c0,5.035-4.57,9.128-10.206,9.128c-1.761,0-3.41-0.4-4.853-1.101
	c-1.243,3.798-5.159,6.566-9.805,6.566c-2.839,0-5.406-1.036-7.255-2.709c-1.849,1.672-4.417,2.709-7.255,2.709
	c-2.697,0-5.147-0.936-6.973-2.462c-1.873,1.826-4.558,2.968-7.538,2.968c-2.797,0-5.324-1.001-7.167-2.626
	c-0.848,0.165-1.725,0.259-2.621,0.259c-6.719,0-12.167-4.87-12.167-10.871c0-6.007,5.447-10.871,12.167-10.871
	c0.365,0,0.73,0.012,1.089,0.041C251.46,69.826,258.226,64.272,266.441,64.272z"/>
<path style="fill:#DFDFDF;" d="M313.17,86.427c-0.289,4.811-4.741,8.633-10.194,8.633c-1.761,0-3.41-0.4-4.853-1.101
	c-1.243,3.798-5.159,6.566-9.805,6.566c-2.839,0-5.406-1.036-7.255-2.709c-1.849,1.672-4.417,2.709-7.255,2.709
	c-2.697,0-5.147-0.936-6.973-2.462c-1.873,1.826-4.558,2.968-7.538,2.968c-2.797,0-5.324-1.001-7.167-2.626
	c-0.848,0.165-1.725,0.259-2.621,0.259c-6.719,0-12.167-4.87-12.167-10.871c0-0.654,0.065-1.29,0.188-1.908
	c-0.018,0.236-0.029,0.477-0.029,0.713c0,6.007,5.447,10.877,12.167,10.877c0.901,0,1.778-0.088,2.621-0.259
	c1.843,1.625,4.376,2.626,7.161,2.626c2.986,0,5.677-1.142,7.544-2.968c1.826,1.525,4.275,2.462,6.973,2.462
	c2.839,0,5.406-1.036,7.255-2.709c1.849,1.672,4.417,2.709,7.255,2.709c4.646,0,8.563-2.768,9.805-6.56
	c1.443,0.695,3.098,1.089,4.853,1.089C308.129,93.865,312.287,90.661,313.17,86.427z M275.381,82.098
	c-12.814-1.184-13.71,10.612-3.769,12.767c8.951,1.943,12.396-6.649,4.9-9.263c-6.643-2.308-10.294,3.893-5.147,6.048
	c3.604,1.513,6.295-1.248,4.14-2.744c-1.142-0.795-2.026,0.082-2.609-0.795c2.126-2.344,7.432,1.879,3.527,4.258
	c-4.723,2.891-12.361-3.286-6.784-6.99c5.4-3.592,15.347,2.35,11.03,7.832c-4.476,5.677-17.814,1.525-16.778-5.801
	c1.201-8.515,18.55-8.186,22.378,1.296c0.406,1.001,0.919,3.463-0.059,4.205c-0.306-0.065-0.359-2.014-0.453-2.479
	C284.944,86.268,281.081,83.005,275.381,82.098z M260.888,67.965c8.427-3.08,13.963,5.889,7.938,9.234
	c-5.424,3.009-11.401-3.045-7.267-6.331c3.657-2.915,8.78,1.266,6.095,3.804c-1.879,1.773-4.9,0.094-4.022-1.425
	c0.465-0.807,1.443-0.277,1.484-1.054c-2.456-1.455-4.387,2.703-0.683,3.893c4.499,1.431,7.238-4.635,1.814-6.554
	c-5.259-1.867-9.711,4.405-4.423,7.915c5.489,3.634,13.038-1.826,9.269-7.314c-4.387-6.384-16.324-3.198-15.04,4.776
	c0.135,0.848,0.801,2.838,1.796,3.245c0.183-0.1-0.589-1.619-0.718-1.996C255.959,72.806,257.29,69.625,260.888,67.965z
	 M241.195,81.81c-7.055,8.003,3.115,17.049,9.699,11.725c5.93-4.794-0.177-13.309-6.024-9.999c-5.182,2.939-1.313,9.882,3.021,7.874
	c3.039-1.413,1.82-5.241-0.53-4.823c-1.248,0.224-0.866,1.46-1.932,1.237c-1.113-3.145,5.159-3.787,5.477,0.607
	c0.383,5.33-8.733,6.183-9.452-0.312c-0.695-6.301,9.287-8.922,12.184-2.026c3.009,7.155-6.955,13.397-13.044,7.45
	c-7.084-6.92,1.319-18.662,11.619-14.528c1.089,0.436,3.545,1.837,3.751,3.045c-0.2,0.165-1.979-1.19-2.438-1.46
	C249.41,78.182,244.67,78.518,241.195,81.81z M289.037,66.027c-8.686-3.174-14.399,6.072-8.192,9.517
	c5.6,3.109,11.754-3.139,7.497-6.525c-3.775-3.003-9.057,1.307-6.289,3.922c1.938,1.831,5.053,0.1,4.152-1.466
	c-0.483-0.836-1.49-0.289-1.531-1.089c2.532-1.502,4.529,2.791,0.701,4.016c-4.635,1.478-7.461-4.776-1.867-6.766
	c5.424-1.92,10.011,4.546,4.558,8.168c-5.659,3.745-13.45-1.884-9.558-7.538c4.523-6.584,16.837-3.304,15.512,4.923
	c-0.141,0.872-0.824,2.921-1.849,3.339c-0.194-0.1,0.607-1.667,0.736-2.049C294.119,71.015,292.741,67.741,289.037,66.027z
	 M308.288,80.909c5.966,6.236-2.632,13.286-8.197,9.14c-5.012-3.745,0.147-10.382,5.088-7.797c4.381,2.285,1.119,7.703-2.55,6.136
	c-2.568-1.101-1.537-4.087,0.448-3.757c1.054,0.171,0.736,1.137,1.637,0.96c0.936-2.456-4.364-2.956-4.635,0.471
	c-0.324,4.158,7.385,4.823,7.997-0.241c0.589-4.911-7.856-6.955-10.306-1.578c-2.544,5.577,5.877,10.447,11.03,5.807
	c5.989-5.394-1.119-14.546-9.829-11.325c-0.919,0.336-2.992,1.431-3.168,2.373c0.171,0.124,1.672-0.93,2.061-1.137
	C301.345,78.076,305.35,78.335,308.288,80.909z"/>
<g>
</g>
<g>
</g>
<g>
</g>
<g>
</g>
<g>
</g>
<g>
</g>
<g>
</g>
<g>
</g>
<g>
</g>
<g>
</g>
<g>
</g>
<g>
</g>
<g>
</g>
<g>
</g>
<g>
</g>
</svg>
