<?xml version="1.0" encoding="iso-8859-1"?>
<!-- Generator: Adobe Illustrator 19.0.0, SVG Export Plug-In . SVG Version: 6.00 Build 0)  -->
<svg version="1.1" id="Layer_1" xmlns="http://www.w3.org/2000/svg" xmlns:xlink="http://www.w3.org/1999/xlink" x="0px" y="0px"
	 viewBox="0 0 512 512" style="enable-background:new 0 0 512 512;" xml:space="preserve">
<path style="fill:#B1E3FB;" d="M256,0c141.388,0,256,114.612,256,256S397.388,512,256,512S0,397.388,0,256S114.612,0,256,0z"/>
<path style="fill:#6C4C40;" d="M150.913,489.501c11.5-2.224,23.377-3.789,37.861-10.99c43.784-21.758,25.779-66.634-4.613-84.307
	c2.67-8.457-1.856-2.143,5.718-8.402c5.386-4.449,16.686-6.137,14.229-21.403c-1.392-8.661-15.448-19.543-20.675-27.349
	c-12.25-14.016-52.623-60.848-57.349-81l-10.535-9.066c-3.416-3.926-4.394-5.345-7.16-8.784
	c-8.693-10.795-21.667-27.026-34.95-32.83c-33.872-14.807-17.009-40.454-34.459-69.472c-1.797-2.989-3.389-5.518-4.854-7.679
	C12.423,165.825,0,209.464,0,256C0,359.936,61.935,449.397,150.913,489.501z"/>
<path style="fill:#8B6E62;" d="M150.913,489.501c11.5-2.224,23.377-3.789,37.861-10.99c41.605-20.675,27.412-62.226-0.177-81.473
	c-0.523-0.218-22.267-9.471-29.428-26.175c-7.242-16.904-8.716-27.117-36.829-44.68c-28.108-17.564-51.927-49.507-64-74.263
	c-7.665-15.721-35.05-32.653-54.019-42.924C1.497,224.234,0,239.942,0,256C0,359.936,61.935,449.397,150.913,489.501z"/>
<path style="fill:#9F877E;" d="M112.947,468.329c3.344-15.881,6.755-44.835,4.431-74.158
	c-2.224-27.954-66.784-42.051-100.861-47.564C35.396,396.482,69.4,438.934,112.947,468.329z"/>
<path style="fill:#606060;" d="M317.057,329.726c-23.746,3.066-69.168,13.538-89.061,26.68c-43.62,28.813,0.419,67.439,5.95,75.568
	c16.29,23.928-31.402,54.338-47.683,64.751c-2.115,1.351-4.176,2.625-6.196,3.821C204.059,507.992,229.561,512,256,512
	c67.303,0,128.523-25.984,174.222-68.453c-44.835-19.934-95.37-31.743-103.686-63.641c-8.488-32.548,12.109-43.266,27.467-55.389
	c-0.214-4.399,0.296-2.861-1.174-4.977c-8.625,0.751-15.144-0.896-21.84,1.892C325.914,323.544,324.463,326.223,317.057,329.726z"/>
<path style="fill:#6C4C40;" d="M450.502,191.522c0.76,18.938-4.217,61.644-13.756,73.539c-5.127,6.387-19.033,11.436-27.108,14.652
	c-12.378,4.917-18.251,8.684-27.217,13.538c-9.585,9.612-17.859-2.347-22.549,13.592c-0.437,18.023,2.093,24.178-7.588,33.663
	c-7.651,7.492-16.404,11.031-14.716,27.412c3.871,37.502,51.895,28.627,104.868,61.989l0.878,0.564
	C485.921,384.751,512,323.425,512,256c0-44.148-11.177-85.681-30.851-121.936c-1.124,2.156-2.161,4.363-3.089,6.61
	C469.298,161.986,472.401,182.524,450.502,191.522z"/>
<path style="fill:#8B6E62;" d="M507.046,306.298c-35.66,2.543-63.195,19.124-63.195,39.208c0,14.621,14.598,27.38,36.297,34.222
	C492.653,357.124,501.842,332.428,507.046,306.298z"/>
<path style="fill:#D5CBC7;" d="M126.085,256.05c4.726,20.152,45.099,66.984,57.349,81c10.435,0.673,81.959,1.301,90.766-1.337
	c5.386-1.61,24.874-12.36,47.624-11.363l-4.767,5.377c7.406-3.503,8.857-6.182,13.934-8.293c6.696-2.789,13.215-1.142,21.84-1.892
	c1.469,2.115,0.96,0.578,1.174,4.977c6.491-8.384-0.664-10.376,5.868-17.673c4.69-15.94,12.965-3.98,22.549-13.592
	c-23.869-8.816-8.006-10.795-47.096-6.61c-67.03,7.183-44.794-75.059-92.431-77.806c-19.01-1.096-33.167,9.385-49.311-2.002
	c-35.1-24.751-2.088-46.068-107.552-60.006c3.375,13.597,15.357,35.419,21.248,52.996l13.138,41.969
	C122.368,246.97,124.393,250.232,126.085,256.05z"/>
<path style="fill:#BBA9A3;" d="M126.085,256.05c4.726,20.152,45.099,66.984,57.349,81c10.435,0.673,81.959,1.301,90.766-1.337
	c5.386-1.61,24.874-12.36,47.624-11.363l-4.767,5.377c7.406-3.503,8.857-6.182,13.934-8.293c6.491-2.702,12.815-1.237,21.053-1.829
	c0.182-0.223,0.373-0.455,0.582-0.687c1.283-4.353,2.829-6.628,4.604-7.824c0.4-1.242,1.169-2.611,2.643-4.249
	c0.987-3.366,2.138-5.482,3.425-6.828c-7.501-4.108-5.832-4.444-35.214-1.296c-67.034,7.178-44.794-75.059-92.431-77.811
	c-19.015-1.092-33.167,9.389-49.316-1.997c-33.685-23.75-4.663-44.344-95.47-58.286c5.059,12.255,12.255,26.785,16.413,39.199
	l13.138,41.969C122.368,246.97,124.393,250.232,126.085,256.05z"/>
<path style="fill:#9F877E;" d="M126.085,256.05c4.726,20.152,45.099,66.984,57.349,81c10.435,0.673,81.959,1.301,90.766-1.337
	c3.562-1.064,13.283-6.118,26.034-9.139c-10.012-9.662-23.873-23.787-26.384-26.466c-8.056-8.589-13.269-18.847-17.914-29.541
	c-3.093-7.124-8.625-22.349-14.525-27.335c-2.047-1.733-4.258-2.293-6.905-2.443c-10.399-0.6-21.48,3.698-32.876,3.362
	c-9.849-0.291-18.706-3.289-26.762-8.971c-13.975-9.849-18.687-17.9-27.039-31.852c-3.093-5.163-5.536-7.547-10.986-10.349
	c-3.717-1.915-31.788-9.021-36.41-10.467v0.005c2.575,5.932,5.008,11.827,6.846,17.309l13.138,41.969
	C122.368,246.97,124.393,250.232,126.085,256.05z"/>
<path style="fill:#5C4036;" d="M34.127,128.218c5.991-10.372,12.683-20.289,20.02-29.678c11.131,13.72,22.868,32.175,31.884,48.288
	c3.375,13.597,15.357,35.419,21.248,52.996l13.138,41.969c1.952,5.177,3.976,8.438,5.668,14.257l-10.535-9.066
	c-3.416-3.926-4.394-5.345-7.16-8.784c-8.693-10.795-21.667-27.026-34.95-32.83c-33.872-14.807-17.009-40.454-34.459-69.472
	C37.184,132.908,35.591,130.379,34.127,128.218z"/>
<path style="fill:#8B8E85;" d="M459.918,101.234l-0.3,0.983c-5.363,17.727-7.351,32.953-8.639,52.618l-0.478,36.688
	c21.899-8.998,18.796-29.537,27.558-50.849c0.928-2.247,1.965-4.453,3.089-6.61C474.903,122.559,467.788,111.592,459.918,101.234z"
	/>
<g>
	<path style="fill:#D5CBC7;" d="M183.434,337.05c5.227,7.806,19.283,18.687,20.675,27.349c2.456,15.266-8.843,16.954-14.229,21.403
		c-7.574,6.259-3.048-0.055-5.718,8.402c30.392,17.673,48.397,62.549,4.613,84.307c-14.484,7.201-26.362,8.766-37.861,10.99
		c9.426,4.249,19.156,7.947,29.155,11.045c2.02-1.196,4.08-2.47,6.196-3.821c16.281-10.413,63.973-40.823,47.683-64.751
		c-5.532-8.129-49.571-46.755-5.95-75.568c19.893-13.142,65.315-23.614,89.061-26.68l4.767-5.377
		c-22.75-0.996-42.238,9.753-47.624,11.363C265.394,338.351,193.87,337.723,183.434,337.05z"/>
	<path style="fill:#D5CBC7;" d="M354.004,324.517c-15.357,12.123-35.955,22.841-27.467,55.389
		c8.316,31.898,58.851,43.707,103.686,63.641c4.517-4.199,8.884-8.557,13.092-13.074l-0.878-0.564
		c-52.973-33.362-100.997-24.487-104.868-61.989c-1.688-16.381,7.065-19.92,14.716-27.412c9.68-9.485,7.151-15.639,7.588-33.663
		C353.34,314.141,360.495,316.133,354.004,324.517z"/>
</g>
<path style="fill:#FFFFFF;" d="M352.043,319.604c-19.966,9.512-42.961,26.293-59.119,44.134
	c-11.541,12.733-18.956,27.371-17.591,43.498c1.697,20.07,17.364,30.588,32.798,40.95c18.137,12.169,36.174,22.827,34.036,48.934
	c-1.915,0.687-3.839,1.346-5.777,1.988c1.542-22.882-14.916-35.009-31.47-46.122c-16.59-11.136-33.431-22.44-35.359-45.276
	c-1.515-17.932,6.537-33.99,19.083-47.842C305.448,341.317,331.591,329.353,352.043,319.604L352.043,319.604z"/>
<g>
	<path style="fill:#424242;" d="M246.97,438.884l12.05,0.146c3.944,0.05,7.169,3.312,7.169,7.256v30.401
		c0,3.949-3.225,7.133-7.169,7.083l-12.05-0.141c-3.944-0.05-7.165-3.312-7.165-7.256v-30.406
		C239.806,442.023,243.026,438.834,246.97,438.884z"/>
	<path style="fill:#424242;" d="M346.416,440.085l12.05,0.146c3.944,0.045,7.169,3.307,7.169,7.251v30.406
		c0,3.944-3.225,7.133-7.169,7.083l-12.05-0.146c-3.944-0.046-7.169-3.312-7.169-7.256v-30.406
		C339.247,443.224,342.472,440.035,346.416,440.085z"/>
</g>
<path style="fill:#FFFFFF;" d="M350.183,414.26c24.078,10.963,20.771,25.488,15.239,44.326c-2.288,7.815-9.589,15.166-17.759,15.057
	l-91.481-1.246c-8.17-0.109-14.666-6.733-16.376-14.739c-3.867-18.05-7.615-32.757,13.188-43.552
	c1.447-9.739,3.744-20.093,6.505-30.874c0.901-3.521,2.993-6.305,6.628-6.546c25.866-1.72,48.747-1.424,70.218,0.846
	c3.63,0.382,5.099,3.38,6.628,6.705C348.34,395.932,349.405,405.176,350.183,414.26z"/>
<g>
	<polygon style="fill:#606060;" points="264.357,379.569 338.874,380.47 346.521,412.554 255.636,411.458 	"/>
	<path style="fill:#606060;" d="M301.749,417.831c10.099,0.123,18.724,1.665,22.122,3.726l-44.244-0.532
		C283.026,419.041,291.646,417.708,301.749,417.831z"/>
	<path style="fill:#606060;" d="M281.611,429.904c12.041-0.832,25.27-0.541,40.131,0.482c10.672,0.741,6.168,23.336-1.71,24.583
		c-13.647,2.161-23.127,2.511-36.196-0.3C276.016,452.99,270.793,430.65,281.611,429.904z"/>
</g>
<g>
	<path style="fill:#FFFFFF;" d="M340.839,426.993c2.889,0.036,5.231,2.402,5.231,5.29c0,2.889-2.343,5.199-5.231,5.163
		c-2.889-0.032-5.227-2.402-5.227-5.29C335.612,429.272,337.95,426.956,340.839,426.993z"/>
	<path style="fill:#FFFFFF;" d="M356.087,427.143c3.771,0.045,6.824,3.139,6.824,6.905c0,3.771-3.052,6.792-6.824,6.742
		c-3.767-0.045-6.824-3.134-6.824-6.905C349.264,430.118,352.321,427.097,356.087,427.143z"/>
</g>
<path style="fill:#BBBBBB;" d="M344.765,432.975c-0.332,1.865-1.965,3.257-3.926,3.234c-1.961-0.023-3.589-1.456-3.926-3.325
	L344.765,432.975z"/>
<path style="fill:#747474;" d="M340.839,428.235c1.961,0.023,3.594,1.456,3.926,3.325l-7.852-0.096
	C337.25,429.604,338.878,428.207,340.839,428.235z"/>
<path style="fill:#BBBBBB;" d="M356.087,432.306c0.919,0.014,1.66,0.764,1.66,1.679c0,0.919-0.741,1.651-1.66,1.642
	c-0.914-0.009-1.66-0.764-1.66-1.679C354.427,433.029,355.173,432.297,356.087,432.306z"/>
<path style="fill:#747474;" d="M357.629,428.435c2.402,0.691,4.171,2.893,4.217,5.495l-3.093-0.61
	c-0.168-0.664-0.573-1.233-1.124-1.61l0,0V428.435z M361.269,436.555c-0.937,1.906-2.907,3.202-5.181,3.175
	c-1.601-0.018-3.048-0.691-4.094-1.756l2.638-1.697c0.423,0.273,0.923,0.432,1.456,0.437c0.769,0.014,1.46-0.296,1.956-0.796l0,0
	L361.269,436.555z M350.597,435.649c-0.173-0.555-0.268-1.142-0.268-1.751c0-2.789,1.979-5.09,4.608-5.591v3.152
	c-0.928,0.419-1.578,1.342-1.592,2.429h-0.005L350.597,435.649z"/>
<path style="fill:#FFFFFF;" d="M340.925,428.944c0.396,0.005,0.714,0.323,0.714,0.714s-0.318,0.705-0.714,0.701
	c-0.391-0.005-0.705-0.323-0.705-0.719C340.22,429.254,340.534,428.94,340.925,428.944z"/>
<path style="fill:#747474;" d="M336.504,445.271l22.709,0.273c1.16,0.014,2.102,0.969,2.097,2.129l-0.005,3.707
	c0,1.16-0.946,2.093-2.106,2.079l-22.709-0.273c-1.16-0.014-2.106-0.969-2.102-2.129l0.005-3.707
	C334.393,446.189,335.344,445.257,336.504,445.271z"/>
<path style="fill:#FFFFFF;" d="M336.504,445.271l1.292,0.014l0.291,7.92l-1.474-0.018l-0.287-7.911
	C336.381,445.271,336.445,445.271,336.504,445.271z M339.997,445.312l1.469,0.014l0.291,7.924l-1.474-0.018L339.997,445.312z
	 M343.673,445.357l1.465,0.018l0.291,7.92l-1.469-0.018L343.673,445.357z M347.344,445.398l1.469,0.018l0.291,7.92l-1.469-0.014
	L347.344,445.398z M351.02,445.443l1.465,0.018l0.291,7.92l-1.469-0.018L351.02,445.443z M354.691,445.489l1.469,0.018l0.291,7.92
	l-1.469-0.018L354.691,445.489z M358.362,445.534l0.851,0.009c0.218,0,0.423,0.036,0.623,0.1l0.282,7.615
	c-0.282,0.132-0.591,0.205-0.919,0.205l-0.546-0.009L358.362,445.534z"/>
<path style="fill:#DFDFDF;" d="M350.82,457.794c2.347,0.027,4.253,1.956,4.253,4.303c0,2.352-1.906,4.231-4.253,4.203
	c-2.347-0.027-4.253-1.956-4.253-4.303C346.566,459.645,348.472,457.762,350.82,457.794z"/>
<path style="fill:#BBBBBB;" d="M350.82,458.472c1.974,0.023,3.576,1.642,3.576,3.616s-1.601,3.553-3.576,3.53
	c-1.974-0.023-3.571-1.642-3.571-3.616S348.845,458.449,350.82,458.472z"/>
<path style="fill:#747474;" d="M350.82,461.197c0.469,0.005,0.855,0.391,0.855,0.86c0,0.469-0.387,0.846-0.855,0.842
	c-0.469-0.009-0.851-0.391-0.851-0.86C349.969,461.57,350.351,461.192,350.82,461.197z"/>
<g>
	<path style="fill:#606060;" d="M339.938,459.705l5.718,0.068c-0.291,0.673-0.45,1.419-0.45,2.206c0,0.173,0.009,0.341,0.023,0.509
		l-6.15-0.073L339.938,459.705z M340.439,466.173l6.719,0.082c-0.823-0.719-1.437-1.665-1.742-2.743l-5.836-0.068L340.439,466.173z"
		/>
	<polygon style="fill:#606060;" points="285.409,464.85 321.833,465.286 319.19,468.252 287.625,467.87 	"/>
</g>
<g>
	<path style="fill:#FFFFFF;" d="M265.635,426.083c-2.884-0.032-5.227,2.279-5.227,5.168c0,2.889,2.343,5.259,5.227,5.29
		c2.889,0.036,5.231-2.275,5.231-5.163C270.866,428.489,268.523,426.119,265.635,426.083z"/>
	<path style="fill:#FFFFFF;" d="M250.5,425.933c-3.771-0.045-6.828,2.975-6.828,6.742c0,3.771,3.057,6.864,6.828,6.91
		c3.771,0.046,6.828-2.975,6.828-6.746C257.328,429.072,254.271,425.978,250.5,425.933z"/>
</g>
<path style="fill:#BBBBBB;" d="M261.714,431.978c0.332,1.865,1.961,3.298,3.921,3.321c1.965,0.027,3.594-1.369,3.93-3.23
	L261.714,431.978z"/>
<path style="fill:#747474;" d="M265.635,427.325c-1.961-0.023-3.589,1.374-3.921,3.234l7.852,0.096
	C269.229,428.785,267.6,427.348,265.635,427.325z"/>
<path style="fill:#BBBBBB;" d="M250.5,431.096c-0.914-0.009-1.66,0.728-1.66,1.638c0,0.919,0.746,1.674,1.66,1.683
	c0.919,0.009,1.66-0.723,1.66-1.638C252.161,431.86,251.419,431.11,250.5,431.096z"/>
<path style="fill:#747474;" d="M248.963,427.184c-2.402,0.637-4.171,2.798-4.221,5.4l3.098-0.541
	c0.168-0.655,0.573-1.215,1.124-1.578l0,0V427.184z M245.323,435.222c0.933,1.924,2.902,3.271,5.177,3.298
	c1.601,0.018,3.052-0.619,4.094-1.66l-2.634-1.756c-0.423,0.259-0.923,0.409-1.46,0.4c-0.764-0.009-1.456-0.332-1.956-0.842l0,0
	L245.323,435.222z M255.991,434.571c0.177-0.55,0.273-1.133,0.273-1.742c0-2.789-1.983-5.136-4.613-5.704v3.152
	c0.933,0.441,1.579,1.383,1.597,2.47l0,0L255.991,434.571z"/>
<path style="fill:#FFFFFF;" d="M265.548,428.034c-0.391-0.005-0.71,0.309-0.71,0.701c0,0.391,0.318,0.71,0.71,0.714
	c0.391,0.009,0.71-0.309,0.71-0.696C266.258,428.362,265.94,428.039,265.548,428.034z"/>
<path style="fill:#747474;" d="M269.979,444.47l-22.713-0.277c-1.16-0.014-2.102,0.923-2.102,2.079l0.009,3.712
	c0,1.155,0.946,2.111,2.106,2.124l22.709,0.277c1.16,0.014,2.102-0.923,2.102-2.079l-0.009-3.712
	C272.081,445.439,271.135,444.484,269.979,444.47z"/>
<path style="fill:#E5E5E5;" d="M269.975,444.47l-1.292-0.018l-0.291,7.915l1.474,0.018l0.287-7.906
	C270.093,444.475,270.034,444.47,269.975,444.47z M266.481,444.424l-1.469-0.014l-0.291,7.911l1.469,0.018L266.481,444.424z
	 M262.81,444.384l-1.474-0.023l-0.287,7.915l1.469,0.018L262.81,444.384z M259.134,444.338l-1.469-0.018l-0.291,7.915l1.469,0.018
	L259.134,444.338z M255.463,444.293l-1.474-0.018l-0.287,7.915l1.465,0.018L255.463,444.293z M251.788,444.247l-1.469-0.018
	l-0.291,7.915l1.469,0.018L251.788,444.247z M248.112,444.202l-0.846-0.009c-0.214,0-0.428,0.027-0.623,0.086l-0.277,7.611
	c0.277,0.136,0.587,0.218,0.914,0.218l0.546,0.009L248.112,444.202z"/>
<path style="fill:#DFDFDF;" d="M255.659,456.643c-2.352-0.027-4.253,1.856-4.253,4.203c0,2.352,1.901,4.281,4.253,4.308
	c2.347,0.027,4.253-1.856,4.253-4.203C259.912,458.599,258.006,456.675,255.659,456.643z"/>
<path style="fill:#BBBBBB;" d="M255.659,457.325c-1.974-0.023-3.576,1.556-3.576,3.53c0,1.974,1.601,3.594,3.576,3.616
	c1.974,0.027,3.576-1.556,3.576-3.53S257.633,457.353,255.659,457.325z"/>
<path style="fill:#747474;" d="M255.659,460.046c-0.473-0.005-0.851,0.373-0.851,0.846c0,0.469,0.378,0.851,0.851,0.855
	c0.469,0.009,0.851-0.368,0.851-0.837C256.509,460.437,256.127,460.055,255.659,460.046z"/>
<path style="fill:#606060;" d="M266.54,458.818l-5.718-0.068c0.291,0.682,0.45,1.433,0.45,2.22c0,0.168-0.009,0.341-0.023,0.509
	l6.15,0.073L266.54,458.818z M266.04,465.277l-6.719-0.077c0.823-0.701,1.438-1.638,1.742-2.702l5.836,0.068L266.04,465.277z"/>
<g>
	<path style="fill:#9F877E;" d="M36.697,278.709c0,0,18.419,25.661,33.813,34.113c15.398,8.452,12.983,13.888,5.136,14.188
		c-7.852,0.3-2.42,0.6-14.193-3.021s-13.579-1.811-17.204-9.357C40.623,307.085,36.697,278.709,36.697,278.709z"/>
	<path style="fill:#9F877E;" d="M115.34,341.348c0.277,0.337,0.555,0.673,0.828,0.996c20.116,24.292,18.669,21.708,20.307,26.175
		c1.656,4.526,1.811,3.021,2.111,6.037c0.3,3.021,1.66,3.471,0.455,4.526c-1.21,1.06-10.567,1.36-13.888-2.111
		c-3.325-3.471-5.586-4.531-8.757-11.927c-3.171-7.392-3.921-8.147-4.076-10.413c-0.15-2.265-1.811-6.792-1.811-6.792l-3.171-9.512
		c0,0,2.115-1.961,3.926,0.15C113.075,340.593,115.34,341.348,115.34,341.348z"/>
	<path style="fill:#9F877E;" d="M156.049,413.623c6.037,4.226,30.792,22.345,31.697,31.402c0.905,9.053,18.091,1.519,1.351,14.648
		c-16.745,13.119-14.634,11.914-18.86,14.025c-4.226,2.115,2.72,11.777-9.057,1.515c-11.773-10.267-23.245-9.362-19.32-21.135
		s3.016-17.814,4.526-22.941C147.897,426.001,156.049,413.623,156.049,413.623z"/>
</g>
<path style="fill:#8B6E62;" d="M129.178,216.792c0,0-3.162,8.293,47.701,28.982c50.858,20.693,50.717,25.361,58.564,36.833
	c7.847,11.468,13.283,11.473,9.057,19.925s-31.998,1.811-38.039-8.457c-6.037-10.263-14.029-13.442-15.699-20.525
	c-1.665-7.083-6.642-7.247-11.473-10.267c-4.827-3.016-13.283-7.847-13.283-7.847l-14.489-4.226l-12.678-6.037l-3.021-5.436
	L129.178,216.792z"/>
<path style="fill:#6C4C40;" d="M198.009,340.866c0,0,23.396-3.016,26.566,0.905c3.171,3.921,0.605,7.092-2.111,10.112
	c-2.72,3.021-13.888,9.053-19.324,4.076c-5.432-4.977-17.054-12.978-17.054-12.978L198.009,340.866z"/>
<path style="fill:#FFF7C3;" d="M189.448,8.757c8.861,10.021,14.243,23.195,14.243,37.625c0,31.393-25.447,56.84-56.835,56.84
	c-26.78,0-49.229-18.519-55.248-43.452C119.725,36.192,152.979,18.551,189.448,8.757z"/>
<path style="fill:#FFF39B;" d="M180.268,11.395c9.221,8.811,14.971,21.226,14.971,34.986c0,26.725-21.662,48.388-48.383,48.388
	c-24.21,0-44.266-17.787-47.824-41C123.06,35.091,150.499,20.598,180.268,11.395z"/>
<path style="fill:#FFEF76;" d="M170.174,14.762c9.689,7.156,15.972,18.651,15.972,31.62c0,21.703-17.591,39.294-39.29,39.294
	c-21.362,0-38.744-17.045-39.281-38.28C126.658,33.795,147.697,22.759,170.174,14.762z"/>
<path style="fill:#FFFFFF;" d="M242.53,39.918c4.326,0,8.407,0.701,12.018,1.938c3.908-2.602,9.262-4.208,15.171-4.208
	c10.226,0,18.801,4.813,21.094,11.286c5.113,1.046,9.216,3.671,11.086,7.037c0.614-0.045,1.237-0.068,1.87-0.068
	c9.448,0,17.113,5.213,17.113,11.641c0,6.423-7.665,11.636-17.113,11.636c-2.948,0-5.718-0.505-8.134-1.397
	c-2.079,4.836-8.648,8.37-16.436,8.37c-4.754,0-9.053-1.319-12.155-3.453c-3.102,2.133-7.406,3.453-12.164,3.453
	c-4.517,0-8.634-1.196-11.691-3.139c-3.13,2.329-7.629,3.785-12.633,3.785c-4.685,0-8.925-1.274-12.009-3.348
	c-1.415,0.214-2.889,0.323-4.394,0.323c-11.263,0-20.389-6.205-20.389-13.861c0-7.661,9.125-13.865,20.389-13.865
	c0.614,0,1.224,0.018,1.824,0.059C217.424,47,228.761,39.918,242.53,39.918z"/>
<g>
	<path d="M230.093,162.568c0,0,5.768-1.237,10.595-0.314c4.84,0.923,9.885,4.94,15.339,5.25c5.454,0.305,4.322-1.756,4.322-1.756
		s-3.498,0.523-4.431-2.461c-0.919-2.984,2.884-5.359,8.748-9.471c5.873-4.112,7.001-8.229,5.873-10.808
		c0,0-1.033,1.647-5.873,4.221c-4.836,2.575-8.329,7.31-12.137,10.699c-3.808,3.403-4.017,3.603-7.62,2.884
		C241.311,160.093,233.592,158.961,230.093,162.568z"/>
	<path d="M285.923,199.547c0,0,5.768-1.233,10.599-0.309c4.84,0.923,9.88,4.94,15.335,5.25c5.454,0.305,4.322-1.751,4.322-1.751
		s-3.498,0.514-4.426-2.47c-0.923-2.984,2.884-5.354,8.743-9.462c5.868-4.117,7.005-8.234,5.868-10.813c0,0-1.028,1.651-5.868,4.226
		c-4.836,2.57-8.329,7.306-12.137,10.695c-3.808,3.403-4.017,3.603-7.615,2.884C297.146,197.077,289.426,195.944,285.923,199.547z"
		/>
	<path d="M325.482,109.29c0,0,5.768-1.237,10.595-0.309c4.84,0.923,9.885,4.936,15.339,5.25c5.454,0.305,4.322-1.751,4.322-1.751
		s-3.498,0.514-4.426-2.47c-0.923-2.984,2.88-5.354,8.748-9.466c5.868-4.117,6.996-8.234,5.868-10.808c0,0-1.033,1.647-5.868,4.221
		s-8.334,7.31-12.141,10.699c-3.808,3.398-4.017,3.603-7.62,2.884C336.699,106.815,328.98,105.687,325.482,109.29z"/>
</g>
<g>
</g>
<g>
</g>
<g>
</g>
<g>
</g>
<g>
</g>
<g>
</g>
<g>
</g>
<g>
</g>
<g>
</g>
<g>
</g>
<g>
</g>
<g>
</g>
<g>
</g>
<g>
</g>
<g>
</g>
</svg>
