<?xml version="1.0" encoding="iso-8859-1"?>
<!-- Generator: Adobe Illustrator 19.0.0, SVG Export Plug-In . SVG Version: 6.00 Build 0)  -->
<svg version="1.1" id="Layer_1" xmlns="http://www.w3.org/2000/svg" xmlns:xlink="http://www.w3.org/1999/xlink" x="0px" y="0px"
	 viewBox="0 0 512 512" style="enable-background:new 0 0 512 512;" xml:space="preserve">
<g>
	<path style="fill:#B9DDF9;" d="M256,0c141.383,0,256,114.611,256,256c0,141.383-114.617,256-256,256C114.611,512,0,397.383,0,256
		C0,114.611,114.611,0,256,0z"/>
	<polygon style="fill:#9F877E;" points="30.539,276.855 177.265,12.642 332.62,276.855 	"/>
	<polygon style="fill:#8B6E62;" points="332.62,276.855 177.265,12.642 177.265,276.855 	"/>
	<polygon style="fill:#EDEDED;" points="132.649,92.988 152.098,84.792 148.097,115.906 168.202,92.01 177.265,134.388 
		193.867,83.89 232.016,105.765 220.288,85.812 177.265,12.642 	"/>
	<path style="fill:#9F877E;" d="M230.106,276.855L368.883,73.222l142.672,197.71c-0.117,1.98-0.246,3.954-0.404,5.923H230.106z"/>
	<path style="fill:#8B6E62;" d="M511.555,270.933L368.883,73.222v203.633h142.268C511.309,274.887,511.438,272.913,511.555,270.933z
		"/>
	<polygon style="fill:#EDEDED;" points="326.68,135.144 345.081,128.829 341.29,152.807 360.312,134.388 368.883,167.054 
		384.583,128.132 420.676,144.992 409.574,129.614 368.883,73.222 	"/>
	<path style="fill:#9F877E;" d="M40.908,117.142l108.63,162.408H1.09C0.381,271.794,0,263.938,0,256
		C0,204.811,15.032,157.148,40.908,117.142z"/>
	<path style="fill:#8B6E62;" d="M149.538,279.55L40.908,117.142c-11.429,17.663-20.744,36.819-27.575,57.118v105.29H149.538z"/>
	<path style="fill:#EDEDED;" d="M31.605,132.707l29.731,14.98l-10.287-15.378l-10.141-15.167
		C37.628,122.209,34.529,127.4,31.605,132.707z"/>
	<path style="fill:#7CB142;" d="M511.672,243.053c-23.24-10.639-48.465-12.847-71.254-12.812
		c-16.497,0.029-54.341,6.468-79.333,16.181c-14.64-0.293-27.663,0.293-34.435,1.113c-27.909,3.386-59.045,11.26-86.269,19.725
		c-0.094,0.023-2.724,0.34-4.628,0.135c0.516,0.059-0.574-0.281-2.056-0.791c-38.829-11.869-82.953-21.189-122.309-25.964
		c-9.859-1.195-28.834-2.045-50.153-1.617c-17.253-6.708-38.711-12.343-59.069-16.421C0.744,233.534,0,244.682,0,256
		c0,141.383,114.611,256,256,256c141.383,0,256-114.617,256-256C512,251.653,511.889,247.341,511.672,243.053z"/>
	<path style="fill:#429F46;" d="M314.231,505.339V329.486c-0.756-0.176-1.523-0.334-2.285-0.48c-1.365-0.258-2.724-0.51-4.095-0.721
		c-0.633-0.1-1.031-0.158-1.26-0.199c-0.111-0.018-0.223-0.029-0.357-0.047c-11.347-1.342-22.794-1.675-34.136-3.035
		c-6.772-0.814-13.638-1.646-20.24-3.433c-6.497-1.763-12.742-4.558-18.887-7.27c-6.432-2.835-8.799-4.112-14.382-6.063
		c-5.858-2.039-11.705-3.099-17.774-4.241c-0.914-0.176-1.775-0.463-2.589-0.832c-2.162-0.129-4.564-0.305-1.834-0.199
		c-7.885-0.299-18.096-7.534-18.096-15.653c0-7.879,10.199-13.333,18.096-13.316c-4.148-0.012,4.411-0.264,5.466-0.305
		c0.896-0.035,2.958-0.158,3.907-0.211c-0.82-0.059-0.967-0.814,2.132-1.166c0.557-0.088,3.62-0.627,3.814-0.656
		c6.608-1.148,14.54-1.711,20.926-3.749c1.681-0.533,1.371-0.381,3.257-0.574l-3.199-1.037
		c-38.834-11.869-81.951-20.885-121.307-25.659c-9.859-1.195-28.834-2.045-50.153-1.617c-17.253-6.708-38.711-12.343-59.069-16.421
		C0.744,233.534,0,244.682,0,256c0,141.383,114.611,256,256,256C276.029,512,295.526,509.692,314.231,505.339z"/>
	<path style="fill:#F6F6F6;" d="M215.889,312.515c49.772,10.721,96.989,36.245,12.255,87.294
		c-41.4,24.944-81.383,46.702-119.333,65.659C150.446,494.777,201.208,512,256,512c86.093,0,162.262-42.502,208.665-107.663
		c-11.599-43.029-63.211-71.201-132.391-88.249c-105.665-26.04-139.356-26.04-148.542-32.923
		c-8.008-6.016,43.667-14.066,57.007-16.022h-5.267c-13.568,0.873-42.795,3.333-81.6,9.889
		C104.716,285.344,166.123,301.794,215.889,312.515z"/>
	
		<linearGradient id="SVGID_1_" gradientUnits="userSpaceOnUse" x1="389.5712" y1="-44997" x2="389.5712" y2="-86793.2031" gradientTransform="matrix(0.0059 0 0 -0.0059 -48.7129 -135.1746)">
		<stop  offset="0" style="stop-color:#000000"/>
		<stop  offset="0.212" style="stop-color:#343434"/>
		<stop  offset="0.561" style="stop-color:#000000"/>
		<stop  offset="0.788" style="stop-color:#343434"/>
		<stop  offset="1" style="stop-color:#000000"/>
	</linearGradient>
	<path style="fill:url(#SVGID_1_);" d="M215.889,312.515c49.772,10.721,96.989,36.245,12.255,87.294
		c-41.4,24.944-81.383,46.702-119.333,65.659C150.446,494.777,201.208,512,256,512c86.093,0,162.262-42.502,208.665-107.663
		c-11.599-43.029-63.211-71.201-132.391-88.249c-105.665-26.04-139.356-26.04-148.542-32.923
		c-8.008-6.016,43.667-14.066,57.007-16.022h-5.267c-13.568,0.873-42.795,3.333-81.6,9.889
		C104.716,285.344,166.123,301.794,215.889,312.515z"/>
	<path style="fill:#606060;" d="M215.889,312.515c49.772,10.721,96.989,36.245,12.255,87.294
		c-41.4,24.944-81.383,46.702-119.333,65.659C150.446,494.777,201.208,512,256,512c86.093,0,162.262-42.502,208.665-107.663
		c-11.599-43.029-63.211-71.201-132.391-88.249c-105.665-26.04-139.356-26.04-148.542-32.923
		c-8.008-6.016,43.656-14.066,57.007-16.022h-5.267c-13.568,0.873-42.795,3.333-81.6,9.889
		C104.716,285.344,166.123,301.794,215.889,312.515z"/>
	<path style="fill:#FFFFFF;" d="M166.644,290.616c5.354,1.822,11.06,3.163,16.96,4.511c23.661,5.108,50.621,10.885,80.252,17.868
		c14.763,3.702,30.164,7.979,45.671,13.896c15.29,6.028,31.635,13.269,43.697,26.462c12.414,12.818,15.431,34.488,4.646,50.551
		c-9.678,16.362-23.96,30.246-38.922,43.585c-26.181,22.273-55.197,43.275-86.204,63.445c2.478,0.223,4.974,0.416,7.475,0.568
		c28.336-19.871,55.032-40.574,80.885-62.607c15.003-13.415,28.114-27.686,37.932-44.324c11.031-16.374,7.92-39.039-4.862-52.056
		c-12.373-13.468-28.852-20.685-44.224-26.72c-15.595-5.923-31.031-10.17-45.823-13.849c-29.696-6.924-56.661-12.63-80.334-17.651
		c-5.893-1.324-11.588-2.642-16.889-4.429c-2.56-0.937-5.372-1.84-7.077-3.679c-1.816-2.127,1.869-3.896,3.831-4.821
		c9.52-3.919,18.987-5.477,27.282-7.182c24.236-4.341,40.803-6.186,48.114-6.924h-2.039c-8.12,0.721-23.913,2.472-46.181,6.345
		c-8.342,1.664-17.774,3.152-27.475,7.106c-1.781,0.885-6.344,2.671-4.118,5.958C161.254,288.824,164.019,289.615,166.644,290.616z"
		/>
</g>
<path style="fill:#F3501E;" d="M223.58,509.961c-15.044-25.7-48.348-77.347-47.112-98.817c1.541-26.72,24.447-47.13,51.166-45.589
	c26.714,1.541,47.124,24.447,45.583,51.166c-1.271,22.05-30.533,70.03-43.597,93.931
	C227.599,510.442,225.584,510.213,223.58,509.961z"/>
<path style="fill:#FFFFFF;" d="M224.442,375.38c20.826-0.24,37.897,16.456,38.131,37.282c0.234,20.82-16.45,37.897-37.276,38.131
	s-37.897-16.456-38.137-37.282C186.925,392.685,203.615,375.614,224.442,375.38z"/>
<path style="fill:#F3501E;" d="M238.777,267.283c-12.642-22.777-51.769-81.371-50.428-104.605
	c1.541-26.72,24.447-47.13,51.166-45.589c26.714,1.547,47.124,24.452,45.583,51.166C283.733,192.01,249.866,245.871,238.777,267.283
	z"/>
<path style="fill:#FFFFFF;" d="M236.322,126.913c20.826-0.24,37.903,16.456,38.137,37.282c0.228,20.826-16.456,37.897-37.282,38.131
	c-20.826,0.234-37.897-16.45-38.137-37.282C198.806,144.219,215.496,127.148,236.322,126.913z"/>
<g>
</g>
<g>
</g>
<g>
</g>
<g>
</g>
<g>
</g>
<g>
</g>
<g>
</g>
<g>
</g>
<g>
</g>
<g>
</g>
<g>
</g>
<g>
</g>
<g>
</g>
<g>
</g>
<g>
</g>
</svg>
