<?xml version="1.0" encoding="iso-8859-1"?>
<!-- Generator: Adobe Illustrator 19.0.0, SVG Export Plug-In . SVG Version: 6.00 Build 0)  -->
<svg version="1.1" id="Layer_1" xmlns="http://www.w3.org/2000/svg" xmlns:xlink="http://www.w3.org/1999/xlink" x="0px" y="0px"
	 viewBox="0 0 512 512" style="enable-background:new 0 0 512 512;" xml:space="preserve">
<path style="fill:#B1E9F1;" d="M255.998,0C397.386,0,512,114.614,512,255.998C512,397.386,397.386,512,255.998,512
	C114.614,512,0,397.386,0,255.998C0,114.614,114.614,0,255.998,0z"/>
<path style="fill:#FFFFFF;" d="M213.427,49.701c3.166,0,6.153,0.749,8.798,2.083c2.869-2.8,6.788-4.532,11.114-4.532
	c7.492,0,13.773,5.185,15.449,12.165c3.746,1.124,6.752,3.947,8.122,7.574c0.448-0.046,0.905-0.073,1.366-0.073
	c6.925,0,12.535,5.614,12.535,12.54s-5.61,12.535-12.535,12.535c-2.156,0-4.184-0.544-5.957-1.503
	c-1.521,5.208-6.331,9.013-12.032,9.013c-3.485,0-6.637-1.421-8.908-3.714c-2.27,2.293-5.422,3.714-8.908,3.714
	c-3.312,0-6.318-1.284-8.561-3.38c-2.293,2.508-5.591,4.079-9.255,4.079c-3.426,0-6.532-1.375-8.798-3.604
	c-1.032,0.228-2.11,0.347-3.211,0.347c-8.25,0-14.933-6.683-14.933-14.933c0-8.245,6.683-14.933,14.933-14.933
	c0.448,0,0.891,0.023,1.334,0.059C195.041,57.33,203.341,49.701,213.427,49.701z"/>
<g>
	<polygon style="fill:#E54A18;" points="300.674,320.481 440.838,320.481 440.838,187.037 300.674,187.037 	"/>
	<polygon style="fill:#E54A18;" points="205.639,320.481 65.479,320.481 65.479,187.037 205.639,187.037 	"/>
</g>
<polygon style="fill:#606060;" points="205.639,154.841 70.313,154.841 55.617,196.612 205.639,196.612 "/>
<polygon style="fill:#F3F3F3;" points="205.639,320.481 65.479,320.481 65.479,339.343 205.639,339.343 "/>
<polygon style="fill:#785448;" points="158.281,250.603 127.026,250.603 127.026,209.787 158.281,209.787 "/>
<polygon style="fill:#B9DDF9;" points="156.682,248.52 128.62,248.52 128.62,211.87 156.682,211.87 "/>
<path style="fill:#E1F1FB;" d="M135.806,211.87l10.269,36.65h8.739l-10.269-36.65H135.806z M141.178,248.52h-4.367l-8.191-29.236
	v-7.414h2.289L141.178,248.52z"/>
<polygon style="fill:#785448;" points="110.412,250.603 79.156,250.603 79.156,209.787 110.412,209.787 "/>
<polygon style="fill:#B9DDF9;" points="108.817,248.52 80.751,248.52 80.751,211.87 108.817,211.87 "/>
<path style="fill:#E1F1FB;" d="M87.941,211.87l10.269,36.65h8.739l-10.274-36.65H87.941z M93.309,248.52h-4.363l-8.195-29.236
	v-7.414h2.293L93.309,248.52z"/>
<polygon style="fill:#785448;" points="158.281,305.448 127.026,305.448 127.026,264.631 158.281,264.631 "/>
<polygon style="fill:#B9DDF9;" points="156.682,303.365 128.62,303.365 128.62,266.715 156.682,266.715 "/>
<path style="fill:#E1F1FB;" d="M135.806,266.715l10.269,36.65h8.739l-10.269-36.65H135.806z M141.178,303.365h-4.367l-8.191-29.236
	v-7.414h2.289L141.178,303.365z"/>
<polygon style="fill:#785448;" points="110.412,305.448 79.156,305.448 79.156,264.631 110.412,264.631 "/>
<polygon style="fill:#B9DDF9;" points="108.817,303.365 80.751,303.365 80.751,266.715 108.817,266.715 "/>
<path style="fill:#E1F1FB;" d="M87.941,266.715l10.269,36.65h8.739l-10.274-36.65H87.941z M93.309,303.365h-4.363l-8.195-29.236
	v-7.414h2.293L93.309,303.365z"/>
<polygon style="fill:#606060;" points="300.674,154.841 436.005,154.841 450.705,196.612 300.674,196.612 "/>
<g>
	<polygon style="fill:#F3501E;" points="316.26,141.525 252.124,106.538 183.118,141.525 183.118,229.685 316.26,229.685 	"/>
	<polygon style="fill:#606060;" points="321.989,151.639 251.621,113.714 176.736,150.629 165.27,141.744 252.156,99.357 
		334.108,143.069 	"/>
</g>
<polygon style="fill:#F3501E;" points="196.242,336.369 303.136,336.369 303.136,250.278 196.242,250.278 "/>
<g>
	<polygon style="fill:#F3F3F3;" points="184.781,248.396 212.92,248.396 212.92,313.451 184.781,313.451 	"/>
	<polygon style="fill:#F3F3F3;" points="285.444,248.396 313.588,248.396 313.588,313.451 285.444,313.451 	"/>
	<polygon style="fill:#F3F3F3;" points="180.866,339.85 216.84,339.85 216.84,311.779 180.866,311.779 	"/>
</g>
<path style="fill:#5C4036;" d="M226.191,336.369h46.997v-42.068c0-12.923-10.575-23.498-23.498-23.498l0,0
	c-12.923,0-23.498,10.575-23.498,23.498V336.369z"/>
<path style="fill:#6C4C40;" d="M226.191,336.369h24.873v-65.525c-0.452-0.023-0.914-0.041-1.375-0.041l0,0
	c-12.923,0-23.498,10.575-23.498,23.498V336.369z"/>
<polygon style="fill:#F3F3F3;" points="300.674,320.481 440.838,320.481 440.838,339.343 300.674,339.343 "/>
<polygon style="fill:#E5E5E5;" points="182.46,248.396 215.245,248.396 215.245,254.851 182.46,254.851 "/>
<polygon style="fill:#785448;" points="348.041,250.603 379.296,250.603 379.296,209.787 348.041,209.787 "/>
<polygon style="fill:#E5E5E5;" points="283.123,248.396 315.909,248.396 315.909,254.851 283.123,254.851 "/>
<g>
	<polygon style="fill:#F3F3F3;" points="178.975,229.685 320.399,229.685 320.399,250.278 178.975,250.278 	"/>
	<polygon style="fill:#F3F3F3;" points="281.529,339.85 317.503,339.85 317.503,311.779 281.529,311.779 	"/>
</g>
<polygon style="fill:#B9DDF9;" points="349.635,248.52 377.697,248.52 377.697,211.87 349.635,211.87 "/>
<path style="fill:#E1F1FB;" d="M370.511,211.87l-10.269,36.65h-8.734l10.269-36.65H370.511z M365.139,248.52h4.367l8.191-29.236
	v-7.414h-2.289L365.139,248.52z"/>
<polygon style="fill:#785448;" points="395.906,250.603 427.161,250.603 427.161,209.787 395.906,209.787 "/>
<polygon style="fill:#B9DDF9;" points="397.5,248.52 425.566,248.52 425.566,211.87 397.5,211.87 "/>
<path style="fill:#E1F1FB;" d="M418.376,211.87l-10.269,36.65h-8.734l10.269-36.65H418.376z M413.004,248.52h4.372l8.191-29.236
	v-7.414h-2.293L413.004,248.52z"/>
<polygon style="fill:#785448;" points="348.041,305.448 379.296,305.448 379.296,264.631 348.041,264.631 "/>
<polygon style="fill:#B9DDF9;" points="349.635,303.365 377.697,303.365 377.697,266.715 349.635,266.715 "/>
<path style="fill:#E1F1FB;" d="M370.511,266.715l-10.269,36.65h-8.734l10.269-36.65H370.511z M365.139,303.365h4.367l8.191-29.236
	v-7.414h-2.289L365.139,303.365z"/>
<polygon style="fill:#785448;" points="395.906,305.448 427.161,305.448 427.161,264.631 395.906,264.631 "/>
<polygon style="fill:#B9DDF9;" points="397.5,303.365 425.566,303.365 425.566,266.715 397.5,266.715 "/>
<path style="fill:#E1F1FB;" d="M418.376,266.715l-10.269,36.65h-8.734l10.269-36.65H418.376z M413.004,303.365h4.372l8.191-29.236
	v-7.414h-2.293L413.004,303.365z"/>
<polygon style="fill:#785448;" points="197.398,214.752 218.854,214.752 218.854,173.936 197.398,173.936 "/>
<polygon style="fill:#B9DDF9;" points="198.494,212.669 217.758,212.669 217.758,176.019 198.494,176.019 "/>
<path style="fill:#E1F1FB;" d="M212.824,176.019l-7.049,36.65h-5.998l7.049-36.65H212.824z M209.138,212.669h2.997l5.623-29.236
	v-7.414h-1.571L209.138,212.669z"/>
<polygon style="fill:#785448;" points="238.872,214.752 260.328,214.752 260.328,173.936 238.872,173.936 "/>
<polygon style="fill:#B9DDF9;" points="239.968,212.669 259.237,212.669 259.237,176.019 239.968,176.019 "/>
<path style="fill:#E1F1FB;" d="M254.298,176.019l-7.049,36.65h-5.998l7.053-36.65H254.298z M250.612,212.669h2.997l5.628-29.236
	v-7.414h-1.576L250.612,212.669z"/>
<polygon style="fill:#785448;" points="278.761,214.752 300.217,214.752 300.217,173.936 278.761,173.936 "/>
<polygon style="fill:#B9DDF9;" points="279.857,212.669 299.121,212.669 299.121,176.019 279.857,176.019 "/>
<path style="fill:#E1F1FB;" d="M294.187,176.019l-7.049,36.65h-5.998l7.053-36.65H294.187z M290.501,212.669h2.997l5.623-29.236
	v-7.414h-1.571L290.501,212.669z"/>
<path style="fill:#747474;" d="M211.664,140.78h76.046c4.175,0,7.588,3.412,7.588,7.588v9.922c0,4.175-3.412,7.588-7.588,7.588
	h-76.046c-4.171,0-7.588-3.412-7.588-7.588v-9.922C204.076,144.193,207.493,140.78,211.664,140.78z"/>
<path style="fill:#FFD34E;" d="M216.625,143.677h66.124c5.313,0,9.652,4.344,9.652,9.652l0,0c0,5.308-4.34,9.652-9.652,9.652
	h-66.124c-5.308,0-9.652-4.344-9.652-9.652l0,0C206.973,148.021,211.317,143.677,216.625,143.677z"/>
<path style="fill:#BBBBBB;" d="M252.023,67.75c1.064,0,1.928,0.959,1.928,2.142c0,1.179-0.863,2.138-1.928,2.138
	c-1.069,0-1.932-0.959-1.932-2.138C250.091,68.709,250.954,67.75,252.023,67.75z"/>
<path style="fill:#FFFFFF;" d="M225.035,149.78c-0.059,0.105-0.128,0.187-0.196,0.233c-0.069,0.05-0.155,0.073-0.26,0.073
	c-0.105,0-0.224-0.041-0.347-0.119c-0.128-0.082-0.279-0.169-0.457-0.265c-0.174-0.1-0.375-0.187-0.612-0.265
	c-0.233-0.082-0.512-0.119-0.831-0.119c-0.288,0-0.539,0.032-0.754,0.101c-0.219,0.069-0.397,0.164-0.544,0.288
	c-0.151,0.123-0.26,0.274-0.333,0.443c-0.069,0.174-0.105,0.365-0.105,0.571c0,0.265,0.078,0.484,0.219,0.653
	c0.151,0.178,0.343,0.329,0.585,0.452s0.516,0.233,0.827,0.329c0.306,0.101,0.626,0.206,0.946,0.315
	c0.329,0.11,0.644,0.238,0.95,0.384c0.311,0.146,0.585,0.333,0.831,0.557c0.242,0.224,0.434,0.498,0.58,0.822
	c0.146,0.324,0.219,0.717,0.219,1.183c0,0.503-0.087,0.978-0.256,1.416c-0.174,0.439-0.425,0.822-0.758,1.151
	c-0.329,0.324-0.74,0.58-1.215,0.772c-0.48,0.187-1.032,0.283-1.645,0.283c-0.356,0-0.703-0.037-1.055-0.105
	c-0.343-0.069-0.672-0.169-0.987-0.301c-0.32-0.128-0.617-0.279-0.895-0.461c-0.274-0.178-0.525-0.379-0.74-0.603l0.612-0.991
	c0.05-0.073,0.114-0.137,0.196-0.183c0.082-0.05,0.174-0.078,0.265-0.078c0.132,0,0.27,0.055,0.416,0.16
	c0.151,0.105,0.329,0.224,0.534,0.352c0.206,0.128,0.448,0.247,0.722,0.352c0.279,0.105,0.608,0.16,0.991,0.16
	c0.589,0,1.051-0.142,1.375-0.425c0.324-0.279,0.484-0.681,0.484-1.206c0-0.292-0.069-0.534-0.215-0.717s-0.347-0.343-0.585-0.471
	c-0.242-0.128-0.516-0.233-0.827-0.315c-0.306-0.091-0.626-0.183-0.941-0.288c-0.32-0.105-0.635-0.228-0.941-0.37
	c-0.311-0.146-0.585-0.333-0.827-0.566c-0.247-0.228-0.439-0.521-0.585-0.868s-0.219-0.777-0.219-1.284
	c0-0.407,0.082-0.804,0.242-1.192c0.164-0.384,0.397-0.726,0.708-1.023c0.306-0.301,0.69-0.539,1.142-0.722
	c0.452-0.178,0.973-0.27,1.558-0.27c0.662,0,1.27,0.105,1.827,0.311c0.553,0.206,1.028,0.493,1.416,0.863L225.035,149.78z
	 M235.226,156.28c0.114,0,0.215,0.041,0.306,0.132l0.818,0.886c-0.457,0.562-1.01,0.991-1.672,1.288
	c-0.662,0.301-1.457,0.452-2.385,0.452c-0.827,0-1.571-0.142-2.234-0.429c-0.662-0.279-1.229-0.676-1.695-1.179
	c-0.471-0.507-0.827-1.11-1.078-1.809c-0.251-0.699-0.375-1.462-0.375-2.293c0-0.836,0.132-1.608,0.402-2.302
	c0.265-0.699,0.644-1.302,1.133-1.804c0.489-0.503,1.064-0.9,1.74-1.179c0.672-0.279,1.421-0.42,2.238-0.42
	c0.813,0,1.535,0.132,2.165,0.402c0.63,0.265,1.169,0.617,1.613,1.051l-0.694,0.964c-0.046,0.064-0.096,0.119-0.16,0.164
	c-0.064,0.046-0.155,0.069-0.27,0.069c-0.073,0-0.155-0.023-0.238-0.069c-0.082-0.041-0.174-0.096-0.27-0.16
	c-0.1-0.064-0.21-0.137-0.343-0.215c-0.128-0.073-0.274-0.146-0.443-0.21c-0.174-0.064-0.37-0.119-0.589-0.164
	c-0.228-0.041-0.489-0.059-0.781-0.059c-0.498,0-0.955,0.082-1.37,0.26c-0.411,0.178-0.772,0.434-1.069,0.772
	c-0.297,0.338-0.53,0.749-0.694,1.238c-0.164,0.484-0.247,1.042-0.247,1.663c0,0.63,0.091,1.188,0.265,1.676
	c0.178,0.489,0.42,0.904,0.722,1.233c0.306,0.338,0.662,0.594,1.074,0.767c0.416,0.183,0.854,0.274,1.329,0.274
	c0.283,0,0.539-0.018,0.772-0.05c0.224-0.027,0.434-0.078,0.63-0.146c0.192-0.069,0.375-0.155,0.548-0.26
	c0.174-0.105,0.343-0.233,0.512-0.388c0.05-0.046,0.105-0.082,0.164-0.114C235.108,156.294,235.167,156.28,235.226,156.28z
	 M247.19,147.747v11.169h-2.083v-4.883h-5.244v4.883h-2.088v-11.169h2.088v4.806h5.244v-4.806H247.19z M260.328,153.329
	c0,0.822-0.137,1.576-0.407,2.275c-0.27,0.694-0.653,1.302-1.147,1.814c-0.498,0.507-1.092,0.904-1.786,1.188
	c-0.694,0.288-1.466,0.434-2.316,0.434c-0.841,0-1.613-0.146-2.307-0.434c-0.699-0.283-1.293-0.681-1.786-1.188
	c-0.498-0.512-0.886-1.119-1.156-1.814c-0.274-0.699-0.411-1.453-0.411-2.275c0-0.818,0.137-1.576,0.411-2.275
	c0.27-0.694,0.658-1.297,1.156-1.809c0.493-0.507,1.087-0.909,1.786-1.192c0.694-0.288,1.466-0.429,2.307-0.429
	c0.566,0,1.096,0.064,1.599,0.196c0.498,0.132,0.959,0.315,1.375,0.557c0.416,0.238,0.795,0.525,1.124,0.873
	c0.333,0.338,0.612,0.726,0.845,1.147c0.233,0.42,0.411,0.877,0.53,1.375C260.269,152.265,260.328,152.785,260.328,153.329z
	 M258.2,153.329c0-0.612-0.082-1.16-0.242-1.649c-0.164-0.484-0.402-0.895-0.703-1.238c-0.306-0.338-0.672-0.598-1.105-0.781
	c-0.439-0.178-0.932-0.265-1.476-0.265c-0.544,0-1.037,0.087-1.466,0.265c-0.439,0.183-0.809,0.443-1.115,0.781
	c-0.306,0.343-0.544,0.754-0.708,1.238c-0.164,0.489-0.247,1.037-0.247,1.649c0,0.617,0.082,1.16,0.247,1.649
	c0.164,0.489,0.402,0.9,0.708,1.233c0.306,0.343,0.676,0.598,1.115,0.777c0.429,0.183,0.923,0.274,1.466,0.274
	c0.544,0,1.037-0.091,1.476-0.274c0.434-0.178,0.799-0.434,1.105-0.777c0.302-0.333,0.539-0.745,0.703-1.233
	C258.117,154.489,258.2,153.946,258.2,153.329z M272.804,153.329c0,0.822-0.132,1.576-0.402,2.275
	c-0.27,0.694-0.653,1.302-1.147,1.814c-0.493,0.507-1.092,0.904-1.786,1.188c-0.694,0.288-1.466,0.434-2.316,0.434
	c-0.845,0-1.617-0.146-2.311-0.434c-0.69-0.283-1.288-0.681-1.786-1.188c-0.493-0.512-0.882-1.119-1.156-1.814
	c-0.27-0.699-0.407-1.453-0.407-2.275c0-0.818,0.137-1.576,0.407-2.275c0.274-0.694,0.662-1.297,1.156-1.809
	c0.498-0.507,1.096-0.909,1.786-1.192c0.694-0.288,1.466-0.429,2.311-0.429c0.566,0,1.101,0.064,1.599,0.196
	s0.955,0.315,1.375,0.557c0.416,0.238,0.79,0.525,1.124,0.873c0.333,0.338,0.612,0.726,0.845,1.147
	c0.233,0.42,0.407,0.877,0.525,1.375C272.744,152.265,272.804,152.785,272.804,153.329z M270.684,153.329
	c0-0.612-0.082-1.16-0.247-1.649c-0.169-0.484-0.402-0.895-0.703-1.238c-0.306-0.338-0.676-0.598-1.11-0.781
	c-0.434-0.178-0.927-0.265-1.471-0.265c-0.548,0-1.037,0.087-1.471,0.265c-0.434,0.183-0.804,0.443-1.11,0.781
	c-0.306,0.343-0.544,0.754-0.708,1.238c-0.169,0.489-0.251,1.037-0.251,1.649c0,0.617,0.082,1.16,0.251,1.649
	c0.164,0.489,0.402,0.9,0.708,1.233c0.306,0.343,0.676,0.598,1.11,0.777c0.434,0.183,0.923,0.274,1.471,0.274
	c0.544,0,1.037-0.091,1.471-0.274c0.434-0.178,0.804-0.434,1.11-0.777c0.301-0.333,0.534-0.745,0.703-1.233
	C270.602,154.489,270.684,153.946,270.684,153.329z M281.177,157.203v1.713h-6.542v-11.169h2.078v9.456H281.177z"/>
<path style="fill:#747474;" d="M227.826,233.975h43.722c3.508,0,6.382,2.873,6.382,6.382v0.005c0,3.508-2.873,6.382-6.382,6.382
	h-43.722c-3.508,0-6.382-2.873-6.382-6.382v-0.005C221.444,236.848,224.318,233.975,227.826,233.975z"/>
<polygon style="fill:#E5E5E5;" points="250.091,69.924 253.951,69.924 253.951,100.357 250.091,100.357 "/>
<polygon style="fill:#FF3C00;" points="253.951,72.199 253.951,85.342 268.798,81.774 266.331,80.175 281.995,83.514 
	268.944,74.661 269.519,76.84 "/>
<path style="fill:#BBBBBB;" d="M10.694,329.389h490.612c-1.38,4.618-2.878,9.182-4.504,13.686H15.198
	C13.572,338.571,12.074,334.008,10.694,329.389z"/>
<path style="fill:#606060;" d="M68.444,430.212h375.112c23.174-24.933,41.433-54.489,53.246-87.137H15.198
	C27.011,375.724,45.27,405.279,68.444,430.212z"/>
<g>
	<path style="fill:#FFFFFF;" d="M38.025,390.291h55.676v-7.295h-58.07v3.33C36.417,387.656,37.212,388.976,38.025,390.291z"/>
	<polygon style="fill:#FFFFFF;" points="108.219,390.291 166.284,390.291 166.284,382.996 108.219,382.996 	"/>
	<polygon style="fill:#FFFFFF;" points="180.802,390.291 238.867,390.291 238.867,382.996 180.802,382.996 	"/>
	<polygon style="fill:#FFFFFF;" points="253.385,390.291 311.45,390.291 311.45,382.996 253.385,382.996 	"/>
	<polygon style="fill:#FFFFFF;" points="325.968,390.291 384.038,390.291 384.038,382.996 325.968,382.996 	"/>
	<path style="fill:#FFFFFF;" d="M452.048,390.291h21.927c1.489-2.407,2.942-4.838,4.349-7.295h-26.276V390.291z"/>
</g>
<path style="fill:#7CB142;" d="M443.56,430.208H68.44C115.19,480.512,181.912,512,255.998,512
	C330.088,512,396.81,480.512,443.56,430.208z"/>
<path style="fill:#FFFFFF;" d="M406.033,88.946c3.166,0,6.153,0.749,8.798,2.088c2.864-2.805,6.788-4.536,11.114-4.536
	c7.492,0,13.773,5.185,15.449,12.165c3.746,1.124,6.752,3.947,8.118,7.579c0.452-0.05,0.909-0.073,1.37-0.073
	c6.921,0,12.535,5.614,12.535,12.535c0,6.925-5.614,12.535-12.535,12.535c-2.156,0-4.184-0.544-5.957-1.503
	c-1.521,5.212-6.331,9.013-12.032,9.013c-3.485,0-6.637-1.416-8.908-3.714c-2.27,2.298-5.427,3.714-8.908,3.714
	c-3.312,0-6.322-1.284-8.565-3.38c-2.289,2.508-5.587,4.079-9.25,4.079c-3.431,0-6.537-1.375-8.798-3.604
	c-1.037,0.228-2.11,0.347-3.211,0.347c-8.25,0-14.933-6.683-14.933-14.933c0-8.245,6.683-14.933,14.933-14.933
	c0.448,0,0.891,0.023,1.334,0.059C387.646,96.579,395.947,88.946,406.033,88.946z"/>
<path style="fill:#FFFF00;" d="M369.223,69.404c14.394,0,26.061,11.667,26.061,26.061s-11.667,26.066-26.061,26.066
	s-26.061-11.672-26.061-26.066S354.829,69.404,369.223,69.404z"/>
<g>
	<path style="fill:#9BCB64;" d="M69.769,298.934c0.119,0.471-0.301,0.873-0.434,0.987c0.795-0.64,1.174,0.142,1.174,0.142
		c1.169,0.187-0.059,1.11-0.059,1.11c-0.42,0.169-0.694-0.283-0.694-0.283c-1.069,0.525-0.471,0.831-0.471,0.831
		c0.799-0.183,0.324,0.503,0.324,0.503l-0.489,0.073l-0.585,0.315l0.032,0.206l0.443-0.055l0.046,0.343l-0.525,0.238l0.16,0.393
		c0.598,0.854-1.416,1.27-1.416,1.27c-0.324,2.572-2.727,1.645-3.294,1.393c-0.425,0.206-0.886,0.347-1.375,0.411
		c-1.233,0.169-2.403-0.151-3.339-0.813c-0.708,0.142-1.48-0.064-1.48-0.064c-0.818,0.087-0.493-1.11-0.493-1.11
		c-0.64,1.329-1.571,0.178-1.571,0.178c-0.895-0.95,0.183-1.517,0.183-1.517c-0.516-0.585,0.192-1.055,0.192-1.055
		c-1.357-0.256-1.672-0.959-1.731-1.389c-0.576-0.178-1.046-0.375-1.329-0.503c-1.051,0.503-2.197,0.854-3.408,1.023
		c-3.029,0.416-5.939-0.375-8.25-2.01c-1.759,0.347-3.664-0.146-3.664-0.146c-2.037,0.206-1.229-2.764-1.229-2.764
		c-1.092,2.275-2.522,1.626-3.307,1.005c0.146,0.699-1.526,1.046-1.526,1.046c-0.315,2.572-2.718,1.645-3.284,1.389
		c-0.42,0.201-0.895,0.343-1.384,0.411c-1.22,0.169-2.394-0.155-3.335-0.809c-0.708,0.142-1.48-0.064-1.48-0.064
		c-0.818,0.087-0.489-1.119-0.489-1.119c-0.64,1.338-1.581,0.183-1.581,0.183c-0.886-0.95,0.196-1.507,0.196-1.507
		c-0.521-0.594,0.183-1.069,0.183-1.069c-2.015-0.384-1.731-1.745-1.731-1.745c-0.927-1.201-0.014-2.234-0.014-2.234
		c-0.132-0.105-0.219-0.21-0.279-0.311c-1.142,0.1-2.229-0.215-3.102-0.836c-0.713,0.137-1.489-0.069-1.489-0.069
		c-0.827,0.091-0.502-1.119-0.502-1.119c-0.64,1.348-1.581,0.183-1.581,0.183c-0.9-0.955,0.187-1.521,0.187-1.521
		c-0.516-0.589,0.196-1.073,0.196-1.073c-2.037-0.379-1.745-1.75-1.745-1.75c-0.932-1.215-0.014-2.252-0.014-2.252
		c-0.809-0.653-0.073-1.311-0.073-1.311c-0.256-0.799,0.877-0.772,0.877-0.772c-1.133-2.165,0.882-2.412,0.882-2.412
		c0.365-1.042,1.27-0.407,1.27-0.407c0.457-1.16,2.037-0.288,2.037-0.288c-0.471-0.991,1.014-0.996,1.014-0.996
		c0.288-0.16,0.553-0.178,0.781-0.119c-0.005-0.132,0.014-0.215,0.014-0.215c-0.927-1.206-0.018-2.238-0.018-2.238
		c-0.804-0.658-0.059-1.32-0.059-1.32c-0.119-0.343,0.032-0.534,0.233-0.64c-0.895-2.088,0.548-3.723,0.548-3.723
		c-1.686-1.375-0.137-2.755-0.137-2.755c-0.553-1.672,1.836-1.622,1.836-1.622c-2.385-4.545,1.836-5.048,1.836-5.048
		c0.767-2.184,2.663-0.859,2.663-0.859c0.959-2.417,4.276-0.589,4.276-0.589c-0.982-2.079,2.129-2.097,2.129-2.097
		c2.088-1.165,3.549,1.311,3.549,1.311c1.243-1.617,2.266-2.184,3.083-2.216c-0.69-2.257,1.59-2.535,1.59-2.535
		c0.516-1.462,1.777-0.576,1.777-0.576c0.649-1.617,2.86-0.393,2.86-0.393c-0.653-1.389,1.434-1.398,1.434-1.398
		c1.393-0.781,2.371,0.877,2.371,0.877c2.476-3.234,3.686-0.178,3.686-0.178c4.207-2.065,4.888,1.832,4.888,1.832
		c0.854-1.096,2.01,0.027,3.115,1.603c0.731,1.051,0.26,2.001-0.142,2.517c0.731,0.42,1.169,1.165,1.169,1.165
		c3.271-4.271,4.865-0.233,4.865-0.233c5.55-2.732,6.45,2.421,6.45,2.421c1.119-1.453,2.645,0.032,4.111,2.115
		c1.462,2.088-0.708,3.86-0.708,3.86c1.535,1.334-0.79,2.234-0.79,2.234c1.243,1.188,0.014,2.371-0.301,2.636
		c1.466-1.192,2.184,0.265,2.184,0.265c2.17,0.352-0.105,2.069-0.105,2.069c-0.79,0.306-1.293-0.516-1.293-0.516
		c-1.074,0.525-1.247,0.932-1.179,1.192c2.713-0.63,3.198,2.11,3.198,2.11c0.763-0.996,1.809,0.023,2.814,1.448
		c0.996,1.425-0.489,2.64-0.489,2.64c1.051,0.914-0.539,1.535-0.539,1.535c0.854,0.813,0.005,1.622-0.21,1.804
		c1.01-0.827,1.498,0.174,1.498,0.174c1.485,0.242-0.069,1.425-0.069,1.425c-0.548,0.201-0.891-0.365-0.891-0.365
		c-0.393,0.196-0.608,0.37-0.717,0.512c1.005,0.402,1.215,1.613,1.215,1.613c0.603-0.786,1.421,0.018,2.22,1.147
		c0.79,1.119-0.384,2.078-0.384,2.078c0.827,0.722-0.425,1.215-0.425,1.215c0.672,0.635,0.005,1.275-0.169,1.421
		c0.804-0.649,1.188,0.137,1.188,0.137c1.165,0.192-0.059,1.124-0.059,1.124c-0.429,0.164-0.699-0.279-0.699-0.279
		c-1.078,0.525-0.48,0.822-0.48,0.822c0.813-0.178,0.333,0.516,0.333,0.516l-0.493,0.069l-0.589,0.329l0.037,0.192l0.448-0.055
		l0.041,0.343l-0.525,0.242l0.16,0.397c0.608,0.854-1.434,1.279-1.434,1.279c-0.315,2.581-2.741,1.654-3.298,1.393
		c-0.434,0.201-0.895,0.352-1.389,0.416c-1.238,0.164-2.412-0.155-3.358-0.813L69.769,298.934z"/>
	<path style="fill:#4E342E;" d="M46.111,339.663c0,0-0.219-1.238,0.128-5.45l-1.201-13.618c0,0-0.21-5.002,0.439-6.446
		c0,0,9.808-9.529,11.795-10.054c0,0,1.43-12.466,3.216-12.713l-1.782-1.055c0,0-1.599,11.777-2.755,13.576
		c0,0-4.527-17.025-3.824-18.821l-0.658,0.512c0,0,2.124,16.993,1.731,18.167l-2.892,2.988c0,0-0.996,3.006-1.594,1.64
		c0,0-5.532-3.376-2.796-21.15l-2.225-1.434l-1.846,11.694c0,0,1.284-0.005,0.717,2.969c0,0,2.257,7.071,1.9,7.766
		c0,0-0.539,3.367-2.01,2.38l-3.097-7.318c0,0-2.608-10.447-0.85-12.055l-0.672-0.845c0,0-1.165,5.18-0.224,8.972
		c0,0-4.746-5.262-6.222-5.253l0.041,0.95c0,0,0.904-1.868,5.802,5.294c0,0,3.371,9.483,3.495,11.343c0,0-0.397,5.669-0.164,6.743
		c0,0,2.951,15.139-1.909,19.693L46.111,339.663z"/>
	<path style="fill:#9BCB64;" d="M488.351,292.958c0.119,0.471-0.301,0.877-0.434,0.987c0.795-0.64,1.174,0.142,1.174,0.142
		c1.169,0.187-0.059,1.115-0.059,1.115c-0.42,0.164-0.694-0.288-0.694-0.288c-1.069,0.53-0.471,0.831-0.471,0.831
		c0.799-0.187,0.32,0.507,0.32,0.507l-0.484,0.069l-0.585,0.315l0.032,0.21l0.439-0.059l0.05,0.343l-0.525,0.238l0.16,0.393
		c0.598,0.854-1.416,1.27-1.416,1.27c-0.324,2.572-2.727,1.645-3.294,1.389c-0.429,0.21-0.891,0.352-1.375,0.42
		c-1.233,0.164-2.403-0.155-3.339-0.818c-0.708,0.146-1.48-0.064-1.48-0.064c-0.818,0.091-0.493-1.11-0.493-1.11
		c-0.644,1.329-1.576,0.178-1.576,0.178c-0.891-0.95,0.183-1.517,0.183-1.517c-0.512-0.58,0.196-1.055,0.196-1.055
		c-1.357-0.256-1.672-0.955-1.731-1.389c-0.576-0.178-1.046-0.375-1.329-0.498c-1.055,0.498-2.197,0.854-3.408,1.019
		c-3.029,0.416-5.943-0.375-8.25-2.005c-1.759,0.347-3.668-0.151-3.668-0.151c-2.033,0.21-1.224-2.759-1.224-2.759
		c-1.092,2.275-2.522,1.626-3.307,1c0.146,0.699-1.53,1.046-1.53,1.046c-0.311,2.572-2.713,1.645-3.28,1.389
		c-0.425,0.201-0.895,0.347-1.384,0.411c-1.22,0.174-2.394-0.155-3.335-0.809c-0.708,0.142-1.48-0.064-1.48-0.064
		c-0.822,0.091-0.493-1.119-0.493-1.119c-0.635,1.338-1.581,0.183-1.581,0.183c-0.882-0.95,0.201-1.503,0.201-1.503
		c-0.521-0.594,0.183-1.074,0.183-1.074c-2.015-0.379-1.731-1.745-1.731-1.745c-0.927-1.197-0.014-2.234-0.014-2.234
		c-0.132-0.105-0.219-0.21-0.283-0.311c-1.137,0.1-2.225-0.215-3.097-0.836c-0.717,0.137-1.489-0.064-1.489-0.064
		c-0.827,0.091-0.502-1.124-0.502-1.124c-0.64,1.348-1.581,0.187-1.581,0.187c-0.9-0.959,0.183-1.521,0.183-1.521
		c-0.512-0.589,0.201-1.078,0.201-1.078c-2.037-0.379-1.75-1.75-1.75-1.75c-0.927-1.211-0.014-2.252-0.014-2.252
		c-0.809-0.653-0.069-1.306-0.069-1.306c-0.256-0.804,0.877-0.772,0.877-0.772c-1.133-2.17,0.882-2.412,0.882-2.412
		c0.365-1.046,1.27-0.411,1.27-0.411c0.457-1.156,2.037-0.283,2.037-0.283c-0.471-0.991,1.014-1,1.014-1
		c0.288-0.16,0.553-0.178,0.777-0.119c-0.005-0.132,0.014-0.215,0.014-0.215c-0.923-1.201-0.018-2.238-0.018-2.238
		c-0.799-0.658-0.059-1.316-0.059-1.316c-0.114-0.347,0.032-0.534,0.238-0.644c-0.895-2.088,0.548-3.728,0.548-3.728
		c-1.686-1.37-0.137-2.745-0.137-2.745c-0.553-1.676,1.836-1.622,1.836-1.622c-2.385-4.545,1.836-5.052,1.836-5.052
		c0.767-2.184,2.663-0.863,2.663-0.863c0.959-2.412,4.276-0.585,4.276-0.585c-0.982-2.079,2.129-2.097,2.129-2.097
		c2.088-1.165,3.545,1.316,3.545,1.316c1.243-1.622,2.27-2.184,3.088-2.22c-0.694-2.257,1.59-2.531,1.59-2.531
		c0.516-1.462,1.777-0.576,1.777-0.576c0.649-1.622,2.86-0.397,2.86-0.397c-0.653-1.384,1.434-1.398,1.434-1.398
		c1.393-0.781,2.371,0.877,2.371,0.877c2.476-3.234,3.686-0.178,3.686-0.178c4.207-2.06,4.888,1.836,4.888,1.836
		c0.854-1.101,2.01,0.027,3.115,1.603c0.731,1.046,0.256,1.996-0.146,2.517c0.731,0.416,1.174,1.16,1.174,1.16
		c3.271-4.271,4.86-0.233,4.86-0.233c5.55-2.732,6.455,2.421,6.455,2.421c1.119-1.453,2.64,0.032,4.111,2.115
		c1.462,2.088-0.708,3.865-0.708,3.865c1.535,1.329-0.79,2.229-0.79,2.229c1.238,1.188,0.009,2.371-0.306,2.64
		c1.471-1.197,2.188,0.26,2.188,0.26c2.17,0.352-0.105,2.074-0.105,2.074c-0.79,0.302-1.297-0.521-1.297-0.521
		c-1.073,0.525-1.243,0.927-1.174,1.192c2.709-0.63,3.193,2.11,3.193,2.11c0.767-0.996,1.809,0.023,2.819,1.448
		c0.996,1.425-0.489,2.64-0.489,2.64c1.051,0.914-0.544,1.535-0.544,1.535c0.859,0.813,0.009,1.622-0.206,1.804
		c1.01-0.827,1.498,0.174,1.498,0.174c1.485,0.242-0.073,1.425-0.073,1.425c-0.548,0.201-0.886-0.365-0.886-0.365
		c-0.393,0.196-0.608,0.37-0.717,0.512c1,0.402,1.215,1.613,1.215,1.613c0.603-0.786,1.421,0.018,2.216,1.147
		c0.795,1.124-0.379,2.083-0.379,2.083c0.827,0.722-0.425,1.211-0.425,1.211c0.672,0.635,0.005,1.279-0.169,1.421
		c0.804-0.649,1.183,0.137,1.183,0.137c1.169,0.187-0.055,1.124-0.055,1.124c-0.429,0.164-0.699-0.279-0.699-0.279
		c-1.078,0.525-0.48,0.822-0.48,0.822c0.813-0.178,0.329,0.521,0.329,0.521l-0.493,0.064l-0.585,0.324l0.037,0.196l0.443-0.05
		l0.041,0.338l-0.521,0.242l0.16,0.397c0.608,0.854-1.439,1.279-1.439,1.279c-0.311,2.581-2.736,1.658-3.294,1.393
		c-0.434,0.201-0.9,0.352-1.393,0.42c-1.233,0.164-2.412-0.155-3.353-0.818L488.351,292.958z"/>
	<path style="fill:#4E342E;" d="M464.688,333.688c0,0-0.215-1.238,0.132-5.45l-1.201-13.613c0,0-0.215-5.002,0.434-6.45
		c0,0,9.812-9.525,11.799-10.054c0,0,1.43-12.466,3.216-12.713l-1.782-1.051c0,0-1.599,11.777-2.759,13.572
		c0,0-4.522-17.025-3.819-18.821l-0.658,0.512c0,0,2.124,16.993,1.731,18.172l-2.896,2.983c0,0-0.991,3.006-1.59,1.645
		c0,0-5.532-3.38-2.796-21.155l-2.229-1.434l-1.841,11.699c0,0,1.279-0.005,0.713,2.965c0,0,2.257,7.071,1.905,7.766
		c0,0-0.539,3.371-2.01,2.375l-3.097-7.314c0,0-2.613-10.447-0.85-12.055l-0.672-0.845c0,0-1.165,5.185-0.228,8.972
		c0,0-4.746-5.258-6.217-5.249l0.041,0.946c0,0,0.904-1.864,5.802,5.294c0,0,3.371,9.483,3.49,11.343c0,0-0.393,5.669-0.16,6.738
		c0,0,2.951,15.143-1.909,19.702L464.688,333.688z"/>
</g>
<g>
	<polygon style="fill:#FFFFFF;" points="226.191,329.389 273.188,329.389 273.188,333.272 226.191,333.272 	"/>
	<polygon style="fill:#FFFFFF;" points="219.772,333.272 279.606,333.272 279.606,337.16 219.772,337.16 	"/>
	<polygon style="fill:#FFFFFF;" points="213.51,337.16 285.869,337.16 285.869,343.075 213.51,343.075 	"/>
</g>
<g>
	<path style="fill:#B9DDF9;" d="M229.548,354.231c0,2.385,0.822,4.317,1.846,4.317c1.014,0,1.841-1.932,1.841-4.317
		c0-2.38-0.827-4.317-1.841-4.317C230.371,349.914,229.548,351.851,229.548,354.231z"/>
	<path style="fill:#606060;" d="M197.946,324.972h-5.669c-0.361,0-0.649-0.288-0.649-0.649c0-0.356,0.288-0.649,0.649-0.649h5.669
		c0.598,0,1.147,0.247,1.549,0.644l0,0c0.397,0.397,0.64,0.946,0.64,1.549c0,0.361-0.288,0.649-0.644,0.649
		c-0.361,0-0.649-0.288-0.649-0.649c0-0.247-0.1-0.475-0.265-0.635C198.416,325.072,198.193,324.972,197.946,324.972z"/>
	<g>
		<path style="fill:#424242;" d="M151.794,371.251c0,0.877,0.708,1.59,1.585,1.59h30.648c0.877,0,1.59-0.713,1.59-1.59v-2.412
			c0-0.877-0.713-1.59-1.59-1.59h-30.648c-0.877,0-1.585,0.713-1.585,1.59V371.251z"/>
		<path style="fill:#424242;" d="M231.736,358.05c0,1.069-0.868,1.937-1.937,1.937h-1.585c-1.069,0-1.937-0.868-1.937-1.937v-7.633
			c0-1.073,0.868-1.937,1.937-1.937h1.585c1.069,0,1.937,0.863,1.937,1.937V358.05z"/>
	</g>
	<path style="fill:#FFE93A;" d="M218.813,337.621H194.89v27.875h31.739v-18.336C226.629,341.892,224.08,337.621,218.813,337.621z"/>
	<polygon style="fill:#424242;" points="229.329,368.881 33.014,368.881 33.014,363.335 229.329,363.335 	"/>
	<path style="fill:#FFE93A;" d="M186.078,312.798H42.726c-5.272,0-9.543,4.271-9.543,9.538v44.914h162.433v-44.914
		C195.616,317.069,191.345,312.798,186.078,312.798z"/>
	<g>
		<polygon style="fill:#424242;" points="195.095,357.565 33.224,357.565 33.224,354.706 195.095,354.706 		"/>
		<polygon style="fill:#424242;" points="195.095,351.736 33.224,351.736 33.224,348.881 195.095,348.881 		"/>
		<polygon style="fill:#424242;fill-opacity:0.8;" points="195.616,322.674 33.224,322.674 33.224,321.486 195.616,321.486 		"/>
	</g>
	
		<linearGradient id="SVGID_1_" gradientUnits="userSpaceOnUse" x1="-16235.4658" y1="31.616" x2="-16235.4658" y2="38.9387" gradientTransform="matrix(0.0046 0 0 -0.0046 -48.7762 -136.017)">
		<stop  offset="0" style="stop-color:#0C0C0C"/>
		<stop  offset="0.051" style="stop-color:#0C0C0C"/>
		<stop  offset="0.631" style="stop-color:#525252"/>
		<stop  offset="1" style="stop-color:#818181"/>
	</linearGradient>
	<path style="fill:url(#SVGID_1_);" d="M36.422,369.511c0,0-1.585,0-3.047,0c-1.466,0-1.759-0.617-1.759-2.024s0-6.066,0-6.066
		h7.323L36.422,369.511z"/>
	<path style="fill:#606060;" d="M92.66,353.66c-8.369,0-15.148,6.834-15.148,15.23h30.291
		C107.803,360.494,101.024,353.66,92.66,353.66z"/>
	<path style="fill:#FBD734;" d="M77.804,368.894c0.767-7.875,7.122-14.02,14.856-14.02c7.729,0,14.084,6.144,14.846,14.02h0.758
		c0-0.014,0,0.009,0,0c0-8.625-6.989-16.185-15.605-16.185c-8.62,0-15.614,7.56-15.614,16.185c0,0.009,0.005-0.014,0.005,0H77.804z"
		/>
	<path style="fill:#202020;" d="M104.345,368.776c-0.155,6.455-5.514,11.562-11.964,11.407c-6.455-0.151-11.562-5.509-11.411-11.959
		c0.155-6.455,5.514-11.562,11.964-11.411C99.389,356.967,104.5,362.321,104.345,368.776z"/>
	<path style="fill:#FFFFFF;" d="M100.796,368.693c-0.105,4.495-3.837,8.054-8.332,7.944c-4.495-0.105-8.054-3.837-7.944-8.332
		c0.105-4.495,3.837-8.054,8.332-7.949C97.347,360.466,100.905,364.198,100.796,368.693z"/>
	<path style="fill:#FFE93A;" d="M33.224,321.486h162.351c-0.429-4.874-4.518-8.689-9.497-8.689H42.726
		C37.742,312.798,33.658,316.612,33.224,321.486z"/>
	<path style="fill:#FF6E40;" d="M42.671,361.576c0-0.297,0.242-0.539,0.534-0.539h3.568c0.297,0,0.534,0.242,0.534,0.539v1.928
		c0,0.297-0.238,0.539-0.534,0.539h-3.568c-0.292,0-0.534-0.242-0.534-0.539V361.576z"/>
	<path style="fill:#606060;" d="M201.495,335.584c0,0.676-0.548,1.224-1.224,1.224h-1.192c-0.676,0-1.22-0.548-1.22-1.224v-8.3
		c0-0.676,0.544-1.224,1.22-1.224h1.192c0.676,0,1.224,0.548,1.224,1.224V335.584z"/>
	<path style="fill:#FBD734;" d="M197.932,345.236h27.939l0.005,0.005c2.028,0.041,3.664,1.695,3.664,3.737v18.272h-41.145v-12.476
		C188.394,349.507,192.665,345.236,197.932,345.236z"/>
	<path style="fill:#424242;" d="M225.51,369.511c0,0,3.221,0,4.687,0c1.462,0,1.754-0.617,1.754-2.024s0-6.066,0-6.066h-8.958
		L225.51,369.511z"/>
	<path style="fill:#606060;" d="M206.415,353.66c-8.364,0-15.148,6.834-15.148,15.23h30.291
		C221.559,360.494,214.78,353.66,206.415,353.66z"/>
	<path style="fill:#FFE93A;" d="M191.564,368.894c0.763-7.875,7.122-14.02,14.851-14.02s14.088,6.144,14.851,14.02h0.758
		c0-0.014,0,0.009,0,0c0-8.625-6.989-16.185-15.609-16.185s-15.609,7.56-15.609,16.185c0,0.009,0.005-0.014,0.005,0H191.564z"/>
	<path style="fill:#202020;" d="M218.105,368.776c-0.155,6.455-5.514,11.562-11.964,11.407c-6.459-0.151-11.566-5.509-11.411-11.959
		c0.151-6.455,5.509-11.562,11.964-11.411C213.149,356.967,218.256,362.321,218.105,368.776z"/>
	<path style="fill:#FFFFFF;" d="M214.556,368.693c-0.11,4.495-3.837,8.054-8.332,7.944c-4.495-0.105-8.054-3.837-7.944-8.332
		c0.1-4.495,3.833-8.054,8.332-7.949C211.102,360.466,214.661,364.198,214.556,368.693z"/>
</g>
<g>
	<path style="fill:#8FC9F7;" d="M40.382,340.622h16.601c0.877,0,1.59-0.713,1.59-1.594v-10.927c0-0.882-0.713-1.594-1.59-1.594
		H40.382c-0.877,0-1.59,0.713-1.59,1.594v10.927C38.793,339.91,39.505,340.622,40.382,340.622z"/>
	<path style="fill:#8FC9F7;" d="M68.965,328.101v10.927c0,0.882,0.713,1.594,1.59,1.594H87.16c0.873,0,1.585-0.713,1.585-1.594
		v-10.927c0-0.882-0.713-1.594-1.585-1.594H70.555C69.678,326.507,68.965,327.219,68.965,328.101z"/>
	<path style="fill:#8FC9F7;" d="M99.142,328.101v10.927c0,0.882,0.708,1.594,1.585,1.594h16.605c0.877,0,1.59-0.713,1.59-1.594
		v-10.927c0-0.882-0.713-1.594-1.59-1.594h-16.605C99.85,326.507,99.142,327.219,99.142,328.101z"/>
	<path style="fill:#8FC9F7;" d="M129.314,328.101v10.927c0,0.882,0.713,1.594,1.59,1.594h16.601c0.877,0,1.585-0.713,1.585-1.594
		v-10.927c0-0.882-0.708-1.594-1.585-1.594h-16.601C130.027,326.507,129.314,327.219,129.314,328.101z"/>
	<path style="fill:#8FC9F7;" d="M158.564,328.101v10.927c0,0.882,0.713,1.594,1.594,1.594h16.601c0.877,0,1.59-0.713,1.59-1.594
		v-10.927c0-0.882-0.713-1.594-1.59-1.594h-16.601C159.277,326.507,158.564,327.219,158.564,328.101z"/>
	<path style="fill:#8FC9F7;" d="M185.406,327.836v10.927c0,0.877,0.713,1.59,1.59,1.59h4.577c0.877,0,1.59-0.713,1.59-1.59v-10.927
		c0-0.882-0.713-1.59-1.59-1.59h-4.577C186.119,326.246,185.406,326.954,185.406,327.836z"/>
</g>
<path style="fill:#FFFFFF;" d="M398.181,402.045h48.984l-2.969-7.295h-46.047L398.181,402.045z M453.848,418.458
	c-1.987,2.421-4.025,4.792-6.098,7.131h-49.194l-0.288-1.407l-0.023-5.888h55.535L453.848,418.458z M439.408,382.996h-41.305
	l0.027,7.295h44.247L439.408,382.996z M397.984,354.971h30.017l-2.969-7.295l-27.08-0.005L397.984,354.971z M398.08,378.515h39.505
	l-2.969-7.295h-36.563L398.08,378.515z M398.034,366.743h34.759l-2.974-7.295h-31.817L398.034,366.743z M398.222,413.817h53.735
	l-2.969-7.295h-50.793L398.222,413.817z"/>
<g>
</g>
<g>
</g>
<g>
</g>
<g>
</g>
<g>
</g>
<g>
</g>
<g>
</g>
<g>
</g>
<g>
</g>
<g>
</g>
<g>
</g>
<g>
</g>
<g>
</g>
<g>
</g>
<g>
</g>
</svg>
