<?xml version="1.0" encoding="iso-8859-1"?>
<!-- Generator: Adobe Illustrator 19.0.0, SVG Export Plug-In . SVG Version: 6.00 Build 0)  -->
<svg version="1.1" id="Layer_1" xmlns="http://www.w3.org/2000/svg" xmlns:xlink="http://www.w3.org/1999/xlink" x="0px" y="0px"
	 viewBox="0 0 512 512" style="enable-background:new 0 0 512 512;" xml:space="preserve">
<path style="fill:#FEE9C1;" d="M0,263.857l0.012,6.328c0.029,16.078,1.244,19.605,3.498,29.191l0.17-0.023
	c19.283,113.118,112.69,200.914,228.415,211.544l0.969,0.094c1.526,0.123,3.064,0.252,4.596,0.364l2.037,0.129
	c1.309,0.088,2.612,0.153,3.927,0.223c0.845,0.041,1.696,0.053,2.548,0.1c1.18,0.029,2.342,0.082,3.516,0.123
	c1.356,0.023,2.712,0.029,4.08,0.041c0.657,0.018,1.332,0.029,1.99,0.029l0.299-0.006c1.919,0,3.845-0.035,5.741-0.065l0.922-0.023
	c1.814-0.059,3.604-0.123,5.4-0.211l1.532-0.065c1.591-0.094,3.199-0.2,4.79-0.317l2.248-0.17c1.051-0.088,2.078-0.182,3.111-0.282
	c114.721-10.707,207.441-97.235,227.634-209.038c2.454-9.597,2.483-12.591,3.716-27.8h0.012l0.282-0.012l0,0l0,0
	c0.041-0.969,0.059-1.914,0.076-2.865v-0.076V271v-0.065v-0.147v-0.07v-0.065l0,0v-0.07v-0.076v-0.205v-0.076v-0.065v-0.065v-0.076
	h0.006v-0.07v-0.07v-0.07v-0.07v-0.07v-0.065v-0.076c1.608-19.083-0.875-50.446-7.349-74.706l-0.34-1.303
	C475.977,82.343,375.473,0,255.757,0C133.147,0,30.7,86.381,5.8,201.665H5.794c-0.029,0.082-0.053,0.176-0.076,0.258l-0.417,1.561
	l-0.252,0.951l-0.452,1.685c-3.158,13.066-4.156,28.651-4.461,42.275c-0.076,2.53-0.123,5.066-0.123,7.607v0.487
	C0,259.079,0,261.544,0,263.857z"/>
<path style="fill:#FEEBC7;" d="M40.426,262.612l0.006,5.336c0.029,13.536,1.051,16.506,2.947,24.577l0.141-0.018
	c16.242,95.256,94.898,169.187,192.35,178.139l0.816,0.076c1.286,0.106,2.577,0.211,3.874,0.305l1.708,0.112
	c1.104,0.076,2.201,0.129,3.311,0.188c0.71,0.035,1.432,0.047,2.148,0.088c0.986,0.023,1.966,0.07,2.958,0.1
	c1.145,0.018,2.283,0.029,3.434,0.035c0.552,0.012,1.121,0.023,1.679,0.023l0.252-0.006c1.614,0,3.234-0.023,4.831-0.053
	l0.775-0.018c1.526-0.053,3.041-0.106,4.549-0.176l1.291-0.059c1.338-0.082,2.688-0.164,4.033-0.264l1.896-0.147
	c0.88-0.076,1.743-0.153,2.618-0.235c96.606-9.016,174.688-81.879,191.687-176.032c2.066-8.083,2.09-10.601,3.129-23.409h0.012
	l0.235-0.012l0,0h0.006c0.029-0.81,0.047-1.608,0.059-2.413v-0.065v-0.053v-0.059v-0.123v-0.059v-0.053l0,0v-0.065v-0.059v-0.176
	v-0.059v-0.059v-0.053v-0.065h0.006v-0.065v-0.059v-0.053v-0.065v-0.059v-0.053v-0.065c1.356-16.066-0.74-42.48-6.187-62.913
	l-0.288-1.092C441.239,109.767,356.613,40.42,255.798,40.42c-103.251,0-189.521,72.745-210.494,169.821l0,0
	c-0.023,0.076-0.047,0.147-0.065,0.223l-0.352,1.315l-0.211,0.798l-0.382,1.421c-2.659,11-3.504,24.125-3.757,35.595
	c-0.065,2.137-0.106,4.267-0.106,6.41v0.411C40.426,258.592,40.426,260.664,40.426,262.612z"/>
<path style="fill:#FEEFD2;" d="M117.697,260.241l0.006,3.422c0.018,8.682,0.675,10.589,1.89,15.766l0.094-0.012
	c10.419,61.111,60.876,108.546,123.402,114.286l0.522,0.047c0.822,0.07,1.649,0.141,2.483,0.2l1.098,0.065
	c0.704,0.053,1.409,0.088,2.119,0.129c0.458,0.018,0.922,0.023,1.379,0.047c0.634,0.023,1.262,0.047,1.896,0.07
	c0.74,0.012,1.467,0.018,2.207,0.023c0.352,0.006,0.722,0.012,1.074,0.012h0.158c1.039,0,2.078-0.018,3.105-0.035l0.493-0.012
	c0.986-0.035,1.955-0.07,2.923-0.117l0.828-0.035c0.857-0.047,1.726-0.106,2.583-0.164l1.221-0.1
	c0.564-0.047,1.121-0.094,1.679-0.153c61.974-5.782,112.068-52.524,122.974-112.925c1.327-5.183,1.338-6.803,2.008-15.021h0.006
	l0.153-0.006l0,0l0,0c0.023-0.522,0.035-1.033,0.041-1.55v-0.041v-0.035v-0.035v-0.082v-0.035v-0.035l0,0v-0.041v-0.041v-0.106
	v-0.041v-0.041v-0.029v-0.041h0.006v-0.041v-0.035v-0.041v-0.035v-0.041v-0.035v-0.035c0.869-10.313-0.475-27.254-3.974-40.367
	l-0.182-0.699c-15.05-60.061-69.347-104.548-134.021-104.548c-66.242,0-121.583,46.671-135.037,108.945h-0.006
	c-0.012,0.047-0.023,0.1-0.041,0.141l-0.223,0.845l-0.135,0.511l-0.247,0.916c-1.702,7.056-2.242,15.473-2.407,22.834
	c-0.041,1.368-0.07,2.741-0.07,4.115v0.258C117.697,257.664,117.697,258.991,117.697,260.241z"/>
<path style="fill:#FEF5E5;" d="M190.214,258.016l0.006,1.626c0.006,4.132,0.317,5.036,0.898,7.502l0.041-0.006
	c4.96,29.068,28.962,51.631,58.699,54.361l0.247,0.023c0.393,0.029,0.792,0.065,1.186,0.094l0.522,0.029
	c0.335,0.023,0.669,0.041,1.01,0.059c0.211,0.012,0.434,0.018,0.652,0.023c0.305,0.012,0.605,0.023,0.904,0.035
	c0.346,0.006,0.699,0.012,1.045,0.012c0.17,0.006,0.346,0.006,0.517,0.006h0.076c0.493,0,0.986-0.006,1.473-0.018l0.241-0.006
	c0.464-0.018,0.922-0.029,1.385-0.053l0.393-0.018c0.411-0.023,0.822-0.053,1.233-0.082l0.575-0.041
	c0.27-0.023,0.534-0.047,0.798-0.076c29.484-2.753,53.31-24.982,58.493-53.715c0.634-2.465,0.64-3.234,0.957-7.144h0.006h0.07l0,0
	l0,0c0.012-0.252,0.018-0.493,0.018-0.74v-0.018v-0.018v-0.018v-0.041v-0.012v-0.018l0,0v-0.023v-0.018v-0.053v-0.018v-0.018v-0.018
	v-0.018h0.006v-0.018v-0.018v-0.018v-0.023v-0.012v-0.023v-0.018c0.411-4.901-0.229-12.961-1.89-19.194l-0.088-0.335
	c-7.161-28.569-32.983-49.73-63.747-49.73c-31.51,0-57.836,22.2-64.234,51.825l0,0c-0.006,0.018-0.012,0.041-0.023,0.065
	l-0.106,0.399l-0.065,0.247l-0.112,0.434c-0.81,3.352-1.074,7.361-1.145,10.859c-0.023,0.652-0.035,1.303-0.035,1.955v0.123
	C190.214,256.789,190.214,257.423,190.214,258.016z"/>
<path style="fill:#FFB54C;" d="M48.286,278.567c0,0,39.223-18.948,47.511-23.409c8.294-4.455,59.391,24.524,59.391,24.524
	l62.972-25.634c0,0,47.886,24.894,59.016,31.081c11.135,6.193-28.944,13.624-51.96,11.892
	C202.2,295.284,42.844,293.799,48.286,278.567z"/>
<path style="fill:#FFCB7F;" d="M0.053,274.452c15.69-10.836,26.755-22.581,42.662-13.689c15.913,8.893,47.881,19.67,58.276,21.648
	c10.396,1.984,34.544-22.493,55.746-21.648c21.208,0.845,61.786,25.117,69.705,23.133c7.918-1.978,44.541-37.649,61.37-33.681
	c16.829,3.968,28.328,36.528,47.135,32.073c18.807-4.461,91.47-51.626,109.244-44.952c17.78,6.674,44.077,25.651,66.958,36.698
	c-1.233,15.197-1.262,18.191-3.716,27.788c-1.943,10.754-4.561,21.272-7.801,31.515L16.536,346.64
	C9.192,327.246,0.446,295.46,0.053,274.452z"/>
<g>
	<path style="fill:#FFFFFF;" d="M463.697,149.265c2.606,0,5.06,0.423,7.238,1.168c2.354-1.567,5.576-2.536,9.134-2.536
		c3.281,0,6.281,0.828,8.576,2.184c3.34,7.343,6.345,14.868,8.993,22.564c-0.687-0.141-1.344-0.329-1.961-0.558
		c-1.256,2.917-5.207,5.042-9.897,5.042c-2.865,0-5.453-0.792-7.326-2.078c-1.867,1.286-4.455,2.078-7.32,2.078
		c-2.724,0-5.195-0.716-7.044-1.89c-1.878,1.403-4.59,2.283-7.602,2.283c-2.823,0-5.377-0.769-7.232-2.019
		c-0.851,0.129-1.737,0.194-2.641,0.194c-6.786,0-12.28-3.739-12.28-8.353c0-4.62,5.494-8.359,12.28-8.359
		c0.364,0,0.734,0.018,1.092,0.035C448.576,153.538,455.403,149.265,463.697,149.265z"/>
	<path style="fill:#FFFFFF;" d="M331.155,82.918c4.655,0,9.051,0.751,12.943,2.09c4.209-2.812,9.979-4.543,16.342-4.543
		c11.018,0,20.251,5.189,22.728,12.174c5.506,1.127,9.92,3.956,11.939,7.59c0.663-0.053,1.332-0.07,2.013-0.07
		c10.172,0,18.431,5.612,18.431,12.544c0,6.932-8.259,12.55-18.431,12.55c-3.176,0-6.163-0.546-8.764-1.503
		c-2.236,5.212-9.315,9.022-17.704,9.022c-5.119,0-9.756-1.421-13.096-3.721c-3.34,2.301-7.977,3.721-13.102,3.721
		c-4.866,0-9.298-1.291-12.597-3.387c-3.369,2.506-8.212,4.085-13.606,4.085c-5.048,0-9.615-1.379-12.937-3.61
		c-1.52,0.229-3.111,0.346-4.731,0.346c-12.133,0-21.965-6.692-21.965-14.951c0-8.253,9.832-14.945,21.965-14.945
		c0.663,0,1.321,0.023,1.966,0.065C304.107,90.555,316.316,82.918,331.155,82.918z"/>
	<path style="fill:#FFFFFF;" d="M128.087,173.971c2.606,0,5.06,0.423,7.238,1.168c2.354-1.567,5.576-2.536,9.134-2.536
		c6.158,0,11.323,2.9,12.702,6.803c3.082,0.628,5.547,2.213,6.674,4.244c0.37-0.029,0.745-0.041,1.127-0.041
		c5.688,0,10.307,3.14,10.307,7.014c0,3.874-4.62,7.015-10.307,7.015c-1.773,0-3.446-0.305-4.895-0.845
		c-1.25,2.917-5.207,5.042-9.897,5.042c-2.865,0-5.453-0.792-7.32-2.078c-1.867,1.286-4.461,2.078-7.326,2.078
		c-2.718,0-5.195-0.716-7.038-1.89c-1.884,1.403-4.596,2.283-7.607,2.283c-2.818,0-5.377-0.769-7.232-2.019
		c-0.851,0.129-1.737,0.194-2.641,0.194c-6.786,0-12.28-3.739-12.28-8.353s5.494-8.359,12.28-8.359c0.364,0,0.734,0.018,1.098,0.041
		C112.972,178.245,119.799,173.971,128.087,173.971z"/>
</g>
<path d="M276.113,69.511c0,0,5.676-1.215,10.425-0.305c4.755,0.91,9.715,4.86,15.086,5.165c5.365,0.305,4.25-1.726,4.25-1.726
	s-3.446,0.511-4.355-2.424c-0.91-2.941,2.835-5.277,8.599-9.321c5.776-4.05,6.885-8.106,5.776-10.642c0,0-1.015,1.62-5.776,4.156
	c-4.755,2.536-8.194,7.196-11.939,10.531c-3.745,3.352-3.95,3.551-7.49,2.841C287.149,67.075,279.559,65.966,276.113,69.511z"/>
<path style="fill:#DFF5F9;" d="M4.808,305.492c119.81,15.573,220.637-1.884,356.078,25.933
	c47.417,9.744,97.587-22.264,145.878-26.109c0.235-1.162,0.458-2.324,0.669-3.493l0.74-3.017
	c-48.567,3.504-99.078,35.982-146.794,26.18c-136.164-27.964-237.348-10.167-358.004-26.18l0.135,0.569l0.17-0.023
	C4.027,301.412,4.403,303.455,4.808,305.492z"/>
<g>
	<path d="M168.877,113.717c0,0,5.676-1.215,10.425-0.305c4.76,0.91,9.721,4.86,15.086,5.171c5.365,0.299,4.25-1.726,4.25-1.726
		s-3.44,0.505-4.355-2.43c-0.904-2.941,2.835-5.277,8.605-9.321c5.77-4.05,6.885-8.106,5.77-10.642c0,0-1.01,1.62-5.77,4.156
		c-4.755,2.536-8.194,7.196-11.939,10.531c-3.745,3.352-3.95,3.551-7.496,2.841C179.912,111.281,172.322,110.172,168.877,113.717z"
		/>
	<path d="M353.437,172.21c0,0,5.67-1.221,10.425-0.311c4.76,0.916,9.715,4.866,15.086,5.171c5.359,0.299,4.244-1.726,4.244-1.726
		s-3.44,0.511-4.35-2.43c-0.91-2.935,2.835-5.271,8.599-9.315c5.776-4.056,6.891-8.106,5.776-10.642c0,0-1.015,1.62-5.776,4.156
		c-4.755,2.536-8.194,7.196-11.939,10.531c-3.745,3.346-3.95,3.545-7.49,2.841C364.473,169.774,356.877,168.665,353.437,172.21z"/>
</g>
<path style="fill:#903B13;" d="M377.609,325.573l0.763-3.451v-0.006l5.471,1.215l6.398,1.415c-1.104-0.751-2.184-1.837-3.205-3.205
	l10.079,2.225c0.07-1.602,0.07-3.187,0.012-4.749l-0.018-0.317l-0.006-0.129l-0.006-0.176l-0.018-0.317l-0.006-0.147l-0.012-0.164
	l-0.018-0.311l-0.012-0.164l-0.012-0.147l-0.023-0.305l-0.018-0.176l-0.006-0.135l-0.023-0.311l-0.023-0.194l-0.012-0.112
	l-0.029-0.305l-0.018-0.211l-0.012-0.1l-0.029-0.305l-0.023-0.223l-0.012-0.082l-0.035-0.305l-0.029-0.235l-0.012-0.07l-0.041-0.305
	l-0.029-0.252l-0.012-0.053l-0.041-0.299l-0.035-0.27l-0.006-0.035l-0.047-0.305l-0.041-0.276l-0.006-0.023l-0.047-0.305
	l-0.047-0.288v-0.012l-0.053-0.299l-0.053-0.299v-0.006l-0.053-0.293l-0.059-0.299v-0.018l-0.053-0.282l-0.059-0.299l-0.006-0.029
	l-0.053-0.264l-0.065-0.299l-0.065-0.293l-0.059-0.299l-0.018-0.065l-0.053-0.229l-0.065-0.299l-0.018-0.076l-0.053-0.217
	l-0.065-0.293l-0.023-0.088l-0.047-0.205l-0.076-0.293l-0.023-0.106l-0.047-0.182l-0.076-0.293l-0.029-0.123l-0.047-0.17
	l-0.076-0.293l-0.035-0.135l-0.047-0.153l-0.082-0.293l-0.035-0.147l-0.041-0.147l-0.082-0.288l-0.047-0.158l-0.041-0.129
	l-0.082-0.288l-0.053-0.176l-0.035-0.117l-0.088-0.288l-0.059-0.182l-0.029-0.106l-0.088-0.288l-0.065-0.2l-0.029-0.088
	l-0.094-0.282l-0.07-0.217l-0.023-0.07l-0.094-0.282l-0.076-0.235l-0.018-0.053l-0.1-0.288l-0.082-0.241l-0.018-0.041l-0.1-0.282
	l-0.094-0.258l-0.006-0.029l-0.106-0.282l0,0c-1.79-4.925-4.103-9.679-6.744-14.311c0.247,5.57-0.405,10.448-1.591,14.616
	l-0.018,0.076l-0.023,0.07l-0.018,0.065l-0.018,0.053l-0.006,0.023c-0.17,0.569-0.34,1.127-0.528,1.667l-0.023,0.065l-0.023,0.065
	c-0.763,2.16-1.667,4.109-2.671,5.829v0.006v-0.012l-0.065-0.311l-0.006-0.023v-0.006l8.458-38.307l-1.972-0.434
	c-4.526,3.146-8.94,6.398-13.113,9.873l-0.17,0.147l-0.176,0.147l-0.182,0.147l-0.17,0.147l-0.006,0.006l-0.17,0.147l-0.17,0.147
	l-0.176,0.147l-0.176,0.147l-0.035,0.035l-0.141,0.117l-0.17,0.147l-0.176,0.153l-0.17,0.153l-0.065,0.053l-0.106,0.094l-0.17,0.153
	l-0.176,0.153l-0.17,0.147l-0.094,0.082l-0.07,0.07l-0.176,0.153l-0.17,0.147l-0.17,0.158l-0.123,0.106l-0.047,0.047l-0.17,0.153
	l-0.17,0.153l-0.164,0.153l-0.153,0.135l-0.018,0.018l-0.17,0.153l-0.164,0.158l-0.17,0.159l-0.164,0.153l-0.012,0.006l-0.153,0.147
	l-0.17,0.158l-0.164,0.153l-0.164,0.158l-0.041,0.035l-0.123,0.123l-0.164,0.159l-0.164,0.158l-0.164,0.153l-0.07,0.065
	l-0.094,0.094l-0.164,0.164l-0.159,0.158l-0.164,0.158l-0.329,0.317l-0.159,0.164l-0.158,0.158l-0.123,0.123l-0.041,0.041
	l-0.158,0.158l-0.158,0.164l-0.159,0.159l-0.147,0.153l-0.012,0.012l-0.158,0.164l-0.164,0.164l-0.153,0.158l-0.158,0.164
	l-0.018,0.018l-0.141,0.147l-0.159,0.17l-0.153,0.164l-0.153,0.164l-0.047,0.041l-0.106,0.123l-0.159,0.164l-0.153,0.17l-0.153,0.17
	l-0.076,0.07l-0.076,0.094l-0.158,0.17c-1.761,1.937-3.434,3.956-5.007,6.075l-0.088,0.117l-0.088,0.117l-0.018,0.023l-0.07,0.094
	l-0.082,0.117l-0.088,0.117l-0.088,0.117l-0.088,0.117l-0.082,0.123l-0.065,0.088l-0.018,0.029l-0.088,0.117l-0.088,0.123
	l-0.082,0.117l-0.082,0.117l-0.082,0.123l-0.088,0.117l-0.029,0.035l-0.053,0.088l-0.088,0.117l-0.082,0.123l-0.082,0.123
	l-0.082,0.117l-0.082,0.123l-0.07,0.1l-0.012,0.023l-0.082,0.117l-0.082,0.123l-0.082,0.123l-0.082,0.123l-0.082,0.123l-0.082,0.123
	l-0.029,0.041l-0.053,0.082l-0.076,0.123l-0.082,0.123l-0.082,0.123l-0.076,0.123l-0.076,0.123l-0.076,0.112l-0.012,0.018
	l-0.076,0.123l-0.076,0.123l-0.082,0.123l-0.076,0.129l-0.076,0.123l-0.082,0.123l-0.153,0.252l-0.082,0.129l-0.076,0.123
	l-0.076,0.129l-0.076,0.129l-0.076,0.117v0.006l-0.076,0.129l-0.076,0.129l-0.076,0.129l-0.076,0.129l-0.07,0.123l-0.076,0.129
	l-0.035,0.059l-0.041,0.07l-0.076,0.129l-0.076,0.129l-0.07,0.129l-0.07,0.129l-0.076,0.129l-0.076,0.129l-0.07,0.135l-0.076,0.129
	l-0.07,0.129c-2.137,3.857-3.95,7.989-5.371,12.544l20.145,4.455l0,0l7.443,1.649l-0.769,3.446l-27.583-6.105l0.006,0.035
	l0.012,0.029l0.006,0.029l0.012,0.029l0.006,0.035l0.012,0.023l0.006,0.035l0.012,0.029l0.006,0.029l0.012,0.029l0.006,0.023v0.006
	l0.012,0.029l0.012,0.035l0.006,0.029l0.012,0.029l0.006,0.029l0.012,0.035l0.012,0.023l0.006,0.029l0.012,0.035l0.006,0.023
	l0.006,0.018l0.006,0.018l0.012,0.029l0.006,0.029l0.012,0.029l0.012,0.029l0.012,0.029l0.006,0.029l0.006,0.029l0.012,0.029
	l0.018,0.065h0.006l0.006,0.023l0.012,0.035l0.012,0.029l0.006,0.029l0.012,0.029l0.012,0.029l0.006,0.029l0.012,0.029l0.012,0.029
	l0,0l0.006,0.029l0.012,0.023v0.006l0.012,0.029l0.012,0.023l0.012,0.035l0.012,0.023l0.006,0.035l0.012,0.029l0.012,0.023
	l0.012,0.035l0.006,0.023l0.012,0.029l0.006,0.018l0.006,0.012l0.012,0.029l0.012,0.029l0.006,0.029l0.012,0.029l0.012,0.029
	l0.012,0.029l0.012,0.029l0.012,0.029l0.012,0.023l0.006,0.029l0.018,0.047l0.023,0.041l0.012,0.053l0.018,0.041l0.018,0.047
	l0.018,0.041l0.006,0.012l0.012,0.029l0.018,0.047l0.018,0.041l0.018,0.047l0.018,0.047l0.012,0.041l0.012,0.018l0.012,0.023
	l0.018,0.047l0.018,0.041l0.018,0.047l0.018,0.041l0.023,0.047l0.053,0.129l0.018,0.041l0.018,0.047l0.018,0.041l0.018,0.035
	l0.006,0.006l0.018,0.041l0.018,0.041l0.023,0.047l0.018,0.041l0.035,0.088l0.006,0.006l0.076,0.164l0.018,0.041l0.023,0.041
	l0.006,0.012l0.029,0.07l0.023,0.041l0.018,0.047l0.018,0.041l0.023,0.041l0.012,0.018l0.006,0.023l0.023,0.041l0.018,0.041
	l0.023,0.041l0.041,0.082l0.018,0.029l0.006,0.018l0.018,0.035l0.023,0.047l0.018,0.035l0.023,0.041l0.023,0.041l0.018,0.035v0.006
	l0.023,0.041l0.023,0.041l0.018,0.041l0.023,0.041l0.023,0.041l0.018,0.035l0.006,0.006l0.018,0.035l0.023,0.041l0.023,0.047
	l0.029,0.053l0.023,0.047l0.023,0.041l0.012,0.018l0.018,0.029l0.023,0.053l0.029,0.047l0.023,0.047l0.023,0.035l0.006,0.012
	l0.029,0.041l0.023,0.053l0.029,0.041l0.029,0.047v0.012l0.023,0.035l0.029,0.047l0.023,0.047l0.029,0.047l0.018,0.023l0.012,0.023
	l0.029,0.047l0.029,0.047l0.023,0.041l0.029,0.047l0.029,0.047l0.029,0.041l0.029,0.047l0.023,0.047l0.012,0.012l0.018,0.035
	l0.029,0.041l0.029,0.047l0.029,0.041l0.023,0.035l0.006,0.012l0.029,0.041l0.029,0.047l0.029,0.041l0.059,0.094l0.029,0.041
	l0.029,0.047l0.029,0.041l0.018,0.029l0.012,0.018l0.029,0.047l0.035,0.041l0.023,0.041l0.029,0.041l0.006,0.006l0.029,0.041
	l0.029,0.047l0.035,0.041l0.023,0.041l0.012,0.018l0.023,0.023l0.029,0.047l0.029,0.041l0.035,0.041l0.018,0.029l0.012,0.018
	l0.035,0.041l0.023,0.041l0.035,0.047l0.029,0.041h0.006l0.029,0.041l0.029,0.041l0.035,0.041l0.035,0.041l0.012,0.023l0.018,0.023
	l0.035,0.041l0.029,0.041l0.041,0.053l0.041,0.053l0.029,0.029l0.012,0.018l0.041,0.053l0.041,0.059l0.018,0.012l0.029,0.035
	l0.041,0.053l0.041,0.053l0,0l0.041,0.053l0.041,0.053l0.029,0.035l0.018,0.012l0.041,0.053l0.041,0.053l0.018,0.018l0.029,0.035
	l0.041,0.047l0.041,0.053l0.047,0.047l0.041,0.053l0.029,0.029l0.018,0.023l0.047,0.053l0.041,0.047l0.012,0.012l0.029,0.035
	l0.047,0.053l0.047,0.047l0,0l0.041,0.047l0.047,0.053l0.029,0.029l0.018,0.018l0.041,0.047l0.047,0.053l0.012,0.012l0.035,0.035
	l0.047,0.047l0.041,0.047v0.006l0.053,0.047l0.041,0.047l0.029,0.029l0.018,0.018l0.047,0.053l0.053,0.041l0.006,0.012l0.035,0.041
	l0.053,0.041l0.041,0.047v0.006l0.047,0.047l0.053,0.047l0.023,0.029l0.023,0.018l0.041,0.047l0.053,0.041l0.006,0.012l0.041,0.035
	l0.047,0.047l0.041,0.041l0.006,0.006l0.053,0.047l0.241,0.223l0.053,0.047c1.749,1.62,3.786,2.976,5.999,4.044l0.023,0.018
	l0.07,0.029l0.376,0.182l-0.023,0.006l0.023-0.006c3.95,1.872,8.511,3.041,13.33,3.692l2.413,8.024l5.195,1.15l1.749-7.942h0.006
	l0.117-0.558h0.123h0.123l0.117,0.006h0.123h0.123l0,0h0.117h0.006h0.117h0.006h0.112l0.252,0.006h0.117h0.123h0.123h0.117h0.123
	h0.123l0,0h0.117h0.006h0.117l0,0h0.117h0.006l0.364-0.006h0.123h0.123l0,0h0.117h0.006l1.573-0.029l0,0l0.123-0.006h0.117l0,0
	h0.123v-0.006h0.123v-0.006h0.117l0,0l0.364-0.012h0.006l0.112-0.006h0.006h0.117h0.006l0.358-0.012h0.006l0.117-0.006h0.006
	l0.235-0.012h0.006l0.117-0.006l0,0l0.235-0.012h0.006l0.241-0.006h0.006l0.235-0.012h0.006l0.112-0.006h0.006l0.117-0.006h0.006
	l0.112-0.006h0.006l0.07-0.006h0.059l0.129-0.012h0.059l0.076-0.006l0.129-0.006l0.047-0.006h0.082l0.129-0.012h0.041l0.094-0.006
	l0.123-0.006h0.029l0.106-0.006l0.129-0.006l0.018-0.006h0.112l0.129-0.012h0.012l0.117-0.012l0.123-0.006h0.006l0.129-0.006
	l0.117-0.012h0.018l0.123-0.006l0.106-0.006h0.023l0.129-0.012l0.1-0.006h0.029l0.129-0.012l0.088-0.006h0.041l0.129-0.012
	l0.076-0.006l0.053-0.006l0.129-0.006l0.065-0.006l0.065-0.006l0.129-0.006l0.053-0.006l0.076-0.006l0.123-0.012l0.047-0.006
	l0.082-0.006l0.129-0.006l0.035-0.006l0.094-0.006l0.123-0.012h0.029l0.1-0.006l0.129-0.012h0.018l0.112-0.012l0.123-0.012h0.012
	l0.117-0.012l0.123-0.006l0.006-0.006l0.123-0.006l0.117-0.006l0.012-0.006l0.129-0.012l0.106-0.006l0.018-0.006l0.129-0.012
	l0.1-0.006l0.023-0.006l0.129-0.006l0.088-0.006l0.041-0.006l0.123-0.012l0.076-0.006l0.053-0.006l0.123-0.012l0.065-0.012h0.059
	l0.129-0.012l0.053-0.006l0.07-0.006l0.129-0.012l0.041-0.006l0.082-0.012l0.123-0.006l0.035-0.006l0.094-0.012l0.123-0.012h0.029
	l0.094-0.006l0.123-0.018h0.018l0.112-0.012l0.117-0.012h0.012l0.112-0.012l0.129-0.012l0.065-0.012l0.07-0.006h0.023l0.047-0.006
	l0.07-0.006l0.07-0.012l0.065-0.006h0.006l0.065-0.006l0.065-0.006l0.076-0.006l0.047-0.012h0.018l0.07-0.006l0.065-0.006
	l0.07-0.006l0.029-0.006h0.041l0.065-0.012l0.07-0.006l0.065-0.006l0.018-0.006l-0.135,6.956l1.573,0.346l1.691-7.666l0.211-0.951
	l0.511-2.33l0.37-1.667L377.609,325.573z M380.715,302.034l0.006,0.1l7.285-33.012c-3.264,5.846-5.324,11.804-6.433,17.551v0.006
	l-0.006,0.041l-0.065,0.34l-0.035,0.182l-0.035,0.2l-0.059,0.323l-0.006,0.065l-0.065,0.382l-0.018,0.07l-0.047,0.311l-0.035,0.211
	l-0.023,0.176l-0.053,0.34l-0.006,0.035l-0.053,0.382l-0.012,0.1l-0.035,0.276l-0.035,0.241l-0.018,0.141l-0.047,0.376l0,0
	l-0.041,0.376l-0.012,0.135l-0.029,0.241l-0.029,0.27l-0.006,0.106l-0.035,0.376l-0.006,0.023l-0.029,0.346l-0.012,0.158
	l-0.018,0.211l-0.023,0.299l-0.006,0.076l-0.023,0.37l-0.006,0.053l-0.018,0.317l-0.012,0.188l-0.012,0.176l-0.012,0.323
	l-0.006,0.047l-0.012,0.364l-0.006,0.088l-0.012,0.276l-0.006,0.217l-0.006,0.147l-0.006,0.352v0.012l-0.006,0.358v0.117
	l-0.006,0.247v0.241v0.112v0.358v0.018l0.006,0.34v0.147l0.006,0.205l0.006,0.276v0.082l0.012,0.352v0.041l0.012,0.311l0.006,0.17
	l0.012,0.176l0.006,0.299l0.006,0.053l0.018,0.346l0.006,0.07l0.018,0.276l0.012,0.194l0.012,0.147l0.018,0.317v0.029
	L380.715,302.034z M360.657,333.497c-0.112,0.035-0.223,0.076-0.335,0.106C360.434,333.573,360.546,333.532,360.657,333.497z"/>
<path style="fill:#9FD2D9;" d="M508.132,298.982c-0.194,0.828-0.411,1.702-0.646,2.636L508.132,298.982z M506.764,305.316
	C485.292,415.429,393.323,500.266,279.8,510.861c-1.033,0.1-2.06,0.194-3.111,0.282l-2.248,0.17
	c-1.591,0.117-3.199,0.217-4.79,0.317l-1.532,0.065c-1.796,0.088-3.586,0.153-5.4,0.211l-0.922,0.023
	c-1.896,0.029-3.821,0.065-5.741,0.065L255.757,512c-0.657,0-1.332-0.012-1.99-0.029c-1.368-0.012-2.724-0.018-4.08-0.041
	c-1.174-0.041-2.336-0.094-3.516-0.123c-0.851-0.047-1.702-0.059-2.548-0.1c-1.315-0.07-2.618-0.135-3.927-0.223l-2.037-0.129
	c-1.532-0.112-3.07-0.241-4.596-0.364l-0.969-0.094C118.472,500.46,26.374,415.634,4.808,305.492
	c119.81,15.573,220.637-1.884,356.078,25.933C408.303,341.169,458.473,309.161,506.764,305.316z"/>
<path style="fill:#44BAC9;" d="M494.936,346.857C461.032,436.22,378.572,501.646,279.8,510.861c-1.033,0.1-2.06,0.194-3.111,0.282
	l-2.248,0.17c-1.591,0.117-3.199,0.217-4.79,0.317l-1.532,0.065c-1.796,0.088-3.586,0.153-5.4,0.211l-0.922,0.023
	c-1.896,0.029-3.821,0.065-5.741,0.065L255.757,512c-0.657,0-1.332-0.012-1.99-0.029c-1.368-0.012-2.724-0.018-4.08-0.041
	c-1.174-0.041-2.336-0.094-3.516-0.123c-0.851-0.047-1.702-0.059-2.548-0.1c-1.315-0.07-2.618-0.135-3.927-0.223l-2.037-0.129
	c-1.532-0.112-3.07-0.241-4.596-0.364l-0.969-0.094c-98.925-9.087-181.532-74.565-215.477-164.04c55.887,0,119.699-25.264,167.673,0
	C284.032,379.846,389.308,336.373,494.936,346.857z"/>
<path style="fill:#22B1C3;" d="M445.172,427.996c-41.741,46.014-99.976,76.76-165.372,82.865c-1.033,0.1-2.06,0.194-3.111,0.282
	l-2.248,0.17c-1.591,0.117-3.199,0.217-4.79,0.317l-1.532,0.065c-1.796,0.088-3.586,0.153-5.4,0.211l-0.922,0.023
	c-1.896,0.029-3.821,0.065-5.741,0.065L255.757,512c-0.657,0-1.332-0.012-1.99-0.029c-1.368-0.012-2.724-0.018-4.08-0.041
	c-1.174-0.041-2.336-0.094-3.516-0.123c-0.851-0.047-1.702-0.059-2.548-0.1c-1.315-0.07-2.618-0.135-3.927-0.223l-2.037-0.129
	c-1.532-0.112-3.07-0.241-4.596-0.364l-0.969-0.094c-65.537-6.017-123.907-36.798-165.718-82.9
	C200.556,400.754,308.773,450.977,445.172,427.996z"/>
<path style="fill:#DFF5F9;" d="M139.363,387.371c35.19,0,63.718,0.775,63.718,1.732s-28.528,1.732-63.718,1.732
	s-63.718-0.775-63.718-1.732S104.173,387.371,139.363,387.371z M404.106,464.53c2.636-1.878,5.23-3.81,7.783-5.782
	c-37.121,0.252-65.285,1.462-65.285,2.923C346.605,463.028,370.906,464.172,404.106,464.53z M485.04,369.526
	c1.315-2.653,2.594-5.336,3.821-8.042c-21.39,0.681-36.352,2.26-36.352,4.091C452.509,367.296,465.71,368.787,485.04,369.526z
	 M218.43,434.43c23.779,0,43.056,0.998,43.056,2.231c0,1.227-19.277,2.225-43.056,2.225s-43.056-0.998-43.056-2.225
	C175.375,435.427,194.651,434.43,218.43,434.43z M359.941,414.12c21.167,0,38.324,0.792,38.324,1.773
	c0,0.98-17.158,1.773-38.324,1.773c-21.167,0-38.324-0.792-38.324-1.773C321.617,414.912,338.774,414.12,359.941,414.12z
	 M219.909,465.135c43.185,0,78.187,1.444,78.187,3.223c0,1.773-35.002,3.217-78.187,3.217s-78.193-1.444-78.193-3.217
	C141.717,466.579,176.725,465.135,219.909,465.135z M333.732,384.395c55.482,0,100.463,1.332,100.463,2.976
	c0,1.638-44.981,2.97-100.463,2.97s-100.463-1.332-100.463-2.97C233.269,385.727,278.25,384.395,333.732,384.395z M305.521,333.374
	c28.968,0,52.459,0.863,52.459,1.931s-23.491,1.931-52.459,1.931s-52.459-0.863-52.459-1.931S276.554,333.374,305.521,333.374z
	 M117.715,324.457c33.752,0,61.117,0.552,61.117,1.239c0,0.681-27.365,1.239-61.117,1.239c-33.758,0-61.123-0.558-61.123-1.239
	C56.592,325.009,83.957,324.457,117.715,324.457z"/>
<g>
</g>
<g>
</g>
<g>
</g>
<g>
</g>
<g>
</g>
<g>
</g>
<g>
</g>
<g>
</g>
<g>
</g>
<g>
</g>
<g>
</g>
<g>
</g>
<g>
</g>
<g>
</g>
<g>
</g>
</svg>
