<?xml version="1.0" encoding="iso-8859-1"?>
<!-- Generator: Adobe Illustrator 19.0.0, SVG Export Plug-In . SVG Version: 6.00 Build 0)  -->
<svg version="1.1" id="Layer_1" xmlns="http://www.w3.org/2000/svg" xmlns:xlink="http://www.w3.org/1999/xlink" x="0px" y="0px"
	 viewBox="0 0 516.026 516.026" style="enable-background:new 0 0 516.026 516.026;" xml:space="preserve">
<path style="fill:#64B3F5;" d="M258.013,0c141.385,0,256,114.615,256,256s-114.615,256-256,256s-256-114.615-256-256
	S116.628,0,258.013,0z"/>
<g>
	<g>
		<g>
			<path style="fill:#808080;" d="M402.011,323.938c37.776,0,71.701,13.19,94.981,34.12
				c-30.981,72.52-93.967,128.088-171.216,148.96c-30.894-18.552-50.888-48.1-50.888-81.392
				C274.888,369.465,331.801,323.938,402.011,323.938z"/>
			<path style="fill:#CCCCCC;" d="M258.042,432.1c50.313,0,93.802,23.387,114.401,57.312
				c-27.667,13.619-58.092,22.471-90.234,25.464c-1.053,0.098-2.096,0.195-3.159,0.283l-2.291,0.175
				c-1.618,0.117-3.246,0.214-4.874,0.322l-1.55,0.068c-1.823,0.088-3.646,0.156-5.488,0.214l-0.936,0.019
				c-1.93,0.029-3.89,0.068-5.839,0.068h-0.302c-0.673,0-1.355-0.01-2.028-0.029c-1.384-0.01-2.769-0.019-4.143-0.039
				c-1.199-0.039-2.379-0.088-3.578-0.127c-0.868-0.049-1.735-0.058-2.593-0.097c-1.336-0.068-2.661-0.136-3.987-0.234l-2.067-0.127
				c-1.57-0.107-3.129-0.244-4.679-0.37l-0.985-0.098c-32.112-2.944-62.528-11.737-90.195-25.298
				C164.075,455.575,207.622,432.1,258.042,432.1z"/>
			<path style="fill:#999999;" d="M63.829,343.748c70.2,0,127.123,45.526,127.123,101.688c0,20.482-7.575,39.55-20.599,55.509
				C99.714,475.735,43.191,420.84,15.778,351.264C30.606,346.419,46.828,343.748,63.829,343.748z"/>
			<path style="fill:#26A599;" d="M94.499,328.52c2.544-1.628,4.884-3.363,5.576-6.142c0.916-3.675-1.657-10.353-1.384-15.062
				c-0.185,0.478-0.429,0.965-0.721,1.472c-3.285,5.635-8.433,7.731-6.649,13.599C91.915,324.338,93.183,326.366,94.499,328.52z
				 M43.903,354.939c-3.334-10.002-9.086-1.969-11.143-12.42c-1.17-5.976,4.221-12.995,1.16-18.396
				c-2.622-4.592-13.619-8.803-14.087-14.34c-0.536-6.385,6.366-14.565,7.877-20.589c1.667-6.639-2.603-14.565-3.305-21.096
				c-1.384-12.907,8.949-6.863,24.801-26.672c1.121-1.414,4.494-4.211,6.278-3.89c4.943,0.897,0.614,6.444-0.858,10.85
				c-2.154,6.405-0.029,11.796,0.682,18.142c0.877,7.828-4.904,4.211-8.667,13.336c-3.032,7.35,1.735,10.451,3.588,16.329
				c1.872,5.937-3.88,9.524-3.334,15.354c0.721,7.643,9.115,7.809,12.274,13.209c2.632,4.484-2.008,11.104-2.057,16.037
				c-0.078,7.428,3.948,10.07,9.183,14.155c0.77,0.595,1.521,1.462,2.223,2.505c2.057-2.535,3.841-5.225,3.324-8.442
				c-1.053-6.619-9.164-11.026-8.803-19.507c0.37-8.472,6.112-9.905,6.463-16.612c0.341-6.717-5.605-9.505-2.096-18.883
				c3.5-9.388,7.097-8.208,7.857-12.839c0.751-4.631-2.993-19.926,3.432-30.864c6.424-10.928,20.228-21.749,18.22-9.914
				c-2.018,11.835-0.994,17.245,4.64,22.695c5.635,5.44,2.203,12.712-3.295,17.294c-5.498,4.582-7.146,11.737-3.753,15.032
				c2.505,2.457,5.001,5.518,4.796,9.232c0.146-0.302,0.312-0.585,0.526-0.848c3.704-4.66,13.512-5.869,18.366-9.008
				c5.333-3.441,7.536-11.503,11.23-16.378c7.292-9.612,10.334,0.975,33.516-2.486c1.657-0.253,5.683-0.029,6.668,1.306
				c2.73,3.724-3.695,4.757-7.477,6.814c-5.518,3.003-7.536,7.984-11.113,12.741c-4.397,5.849-5.947-0.234-14.262,3.588
				c-6.707,3.071-5.508,8.179-8.013,13.326c-2.535,5.196-8.657,4.016-12.001,8.306c-4.397,5.644,1.092,11.026-0.234,16.67
				c-1.111,4.699-8.413,6.268-11.601,9.583c-4.777,4.991-3.773,9.31-2.886,15.374c1.102,7.487-10.49,26.36-16.027,19.41
				c-0.946-1.189-1.774-2.33-2.496-3.451c-2.213,1.716-4.826,2.847-7.594,3.003c-2.505,0.156-4.533-0.117-6.171-0.692
				c-0.507,0.107-1.063,0.127-1.677,0.039C43.318,378.453,46.292,362.114,43.903,354.939z"/>
			<path style="fill:#B1DDD9;" d="M65.311,376.026c0,0-0.653-0.78-1.891-2.242c-0.604-0.731-1.365-1.638-2.252-2.71
				c-0.848-1.102-1.794-2.388-2.856-3.821c-4.192-5.791-9.788-14.487-14.594-25.902c-2.408-5.693-4.553-12.069-6.337-18.951
				c-1.755-6.883-2.954-14.301-3.529-22.022c-0.565-7.731-0.448-15.764,0.507-23.806c0.497-4.114,1.492-8.189,2.964-12.059
				c1.462-3.88,3.393-7.536,5.576-10.987c0,0-0.4,1.092-1.16,3.09c-0.692,2.028-1.706,4.972-2.525,8.745
				c-0.819,3.782-1.355,8.325-1.238,13.56c0.01,1.316,0.019,2.671,0.039,4.055c0.039,1.384,0.127,2.798,0.195,4.241
				c0.029,0.731,0.068,1.462,0.097,2.203c0.029,0.731,0.127,1.482,0.185,2.232c0.127,1.501,0.253,3.032,0.38,4.592
				c0.702,6.22,1.716,12.82,3.139,19.585c1.462,6.756,3.383,13.658,5.664,20.54C52.17,350.172,58.546,363.635,65.311,376.026z
				 M75.742,380.052c0,0,0.097-16.046,1.755-39.95c0.117-1.501,0.224-3.022,0.331-4.572c0.107-1.55,0.273-3.149,0.312-4.718
				c0.068-1.589,0.146-3.198,0.224-4.826c0.068-1.628,0.039-3.315,0.078-5.001c0.078-3.373-0.01-6.892,0.01-10.47
				c-0.029-3.607-0.049-7.272,0.02-11.055c0.019-3.763,0.224-7.623,0.458-11.523c0.195-1.95,0.39-3.909,0.585-5.878
				c0.078-0.994,0.273-1.979,0.429-2.964c0.166-0.985,0.331-1.979,0.507-2.964c0.185-0.985,0.312-1.989,0.546-2.954
				c0.224-0.975,0.458-1.95,0.682-2.925c0.419-1.959,1.033-3.89,1.57-5.83c0.263-0.965,0.595-1.93,0.926-2.886l1.004-2.856
				l0.263-0.712l0.302-0.702l0.614-1.384l1.228-2.769c0,0-0.263,1.121-0.76,3.178c-0.117,0.507-0.263,1.082-0.409,1.696
				c-0.156,0.634-0.244,1.326-0.38,2.067s-0.273,1.54-0.419,2.379c-0.078,0.429-0.156,0.858-0.234,1.306
				c-0.058,0.448-0.127,0.916-0.185,1.394c-0.244,1.901-0.565,3.977-0.76,6.249c-0.097,1.141-0.273,2.31-0.331,3.529
				c-0.078,1.209-0.146,2.466-0.224,3.753c-0.331,5.147-0.195,10.928-0.058,17.128c0.117,3.129,0.244,6.356,0.361,9.661
				c0.058,1.667,0.117,3.354,0.175,5.06c0.029,1.716,0.068,3.441,0.097,5.196c0.01,0.877,0.029,1.755,0.02,2.642
				c-0.01,0.887-0.029,1.774-0.039,2.671c-0.058,1.794-0.039,3.587-0.166,5.42c-0.136,1.823-0.273,3.656-0.409,5.488
				c-0.146,1.842-0.409,3.617-0.624,5.44C81.426,351.829,78.989,366.54,75.742,380.052z M86.622,374.047
				c0,0,0.049-0.877,0.146-2.525c0.049-0.829,0.117-1.852,0.195-3.051c0.117-1.189,0.302-2.564,0.487-4.104
				c0.819-6.132,2.554-14.906,6.307-24.947c0.429-1.267,1.014-2.505,1.54-3.802c0.273-0.643,0.546-1.297,0.819-1.94
				c0.273-0.663,0.565-1.316,0.887-1.96c0.634-1.306,1.287-2.622,1.94-3.968c0.322-0.682,0.692-1.336,1.063-1.999
				c0.37-0.653,0.751-1.326,1.131-1.998c0.38-0.673,0.76-1.345,1.15-2.018c0.39-0.682,0.838-1.326,1.258-1.998
				c0.868-1.326,1.716-2.691,2.652-4.016c0.975-1.297,1.95-2.613,2.944-3.938c0.487-0.673,1.043-1.297,1.579-1.94
				c0.546-0.634,1.092-1.267,1.648-1.911c4.475-5.06,9.69-9.807,15.627-13.697c1.521-0.897,3.051-1.813,4.592-2.72
				c1.531-0.838,3.051-1.638,4.621-2.457c3.09-1.648,6.356-3.139,9.651-4.387c0,0-0.838,0.565-2.379,1.589
				c-0.78,0.497-1.687,1.18-2.759,1.96c-1.072,0.76-2.271,1.687-3.617,2.7c-1.336,1.024-2.866,2.135-4.426,3.373
				c-0.77,0.614-1.57,1.258-2.398,1.92c-0.419,0.331-0.838,0.663-1.267,1.004c-0.419,0.341-0.809,0.741-1.228,1.111
				c-0.829,0.76-1.677,1.54-2.554,2.349c-0.214,0.195-0.439,0.39-0.663,0.595c-0.205,0.224-0.409,0.439-0.624,0.663
				c-0.419,0.429-0.838,0.877-1.267,1.326c-0.429,0.448-0.868,0.897-1.306,1.355s-0.887,0.907-1.297,1.414
				c-0.838,0.985-1.687,1.979-2.564,3.003c-3.354,4.163-6.785,8.745-9.856,13.833c-3.1,5.06-6.122,10.441-8.764,16.105
				c-0.721,1.384-1.326,2.827-1.969,4.27c-0.634,1.433-1.326,2.856-1.891,4.319c-0.614,1.462-1.219,2.915-1.823,4.367
				c-0.565,1.482-1.121,2.944-1.687,4.416C90.336,362.251,88.377,368.178,86.622,374.047z"/>
			<path style="fill:#F9BF2C;" d="M349.319,379.906c-0.994-3.783-1.92-8.657-1.297-12.088c1.102-6.142,2.008-21.574-2.535-33.838
				c0,0,6.483-9.768,1.998-13.629c-4.494-3.86-4.952,7.955-4.952,7.955s-5.674-10.451-4.767-14.087c0,0,6.356-4.991,4.991-7.945
				c-1.355-2.954-5.089,1.355-5.089,1.355s0.292-5.898,2.232-8.169c1.95-2.271,2.603-5.001,0-6.814
				c-2.593-1.813-7.36,4.767-8.949,12.264c-1.589,7.497,2.037,19.302,2.037,19.302s-3.851-5.449-6.805-4.319
				c-2.954,1.141,0.682,5.245,4.543,8.413c3.86,3.168,7.36,3.168,10.041,9.534c2.671,6.356,6.083,18.444,4.26,24.664
				c-1.813,6.22,0.136,22.627,2.457,24.294c1.433,1.043,2.934,1.618,3.578,1.082c0.507,0.936,1.141,1.696,1.92,2.213
				c0.565,0.37,0.877-0.127,1.014-1.189c1.423,0.136,3.471-1.823,3.188-4.241c-0.448-3.86,4.767-12.04,9.875-14.311
				c5.108-2.271,14.418-7.945,16.465-11.123c2.047-3.188,5.849-5.225,5.849-5.225c8.033,2.213,10.733-5.908,12.342-7.458
				c1.618-1.55,5.43-5.255,3.198-6.619c-2.232-1.365-4.348,0.682-6.853,4.085c-2.496,3.402-7.497,5.089-7.497,5.089
				c2.73-3.539,2.262-18.25,2.262-18.25s2.515-0.468,4.553-2.057c2.047-1.589,6.59-8.403,5.937-10.217
				c-0.653-1.813-5.781,0.224-5.781,0.224s-1.063-3.178-1.492-4.543c-0.429-1.355,4.289-13.395-1.16-9.076
				c-5.449,4.309,1.16,16.115,1.16,16.115c-2.476,1.141-4.562,4.094-4.562,4.094c-1.589-0.682-3.636-12.488-5.557-11.806
				c-1.93,0.673-3.071,4.085,0,12.352c3.071,8.277,0,13.307,0,13.307s-6.483-18.172-9.437-12.04
				c-2.954,6.132,9.437,15.549,9.437,15.549c-4.202,13.044-13.297,16.017-13.297,16.017c1.365-4.543-0.682-11.806-4.718-9.671
				c-4.036,2.135-0.273,11.26-0.848,13.073c-0.575,1.823-5.333,5.225-9.875,10.226c-1.969,2.164-3.071,5.03-3.685,7.584
				c-0.166-1.414-0.341-2.847-0.517-4.221c-0.916-7.039,3.412-25.473,8.062-29.197c4.65-3.734,16.69-6.912,16.69-9.866
				c0-2.944-9.992-4.767-16.69,2.505c0,0,3.568-9.768,7.75-13.18c4.172-3.402,9.066-9.076,10.704-14.301
				c1.638-5.225,3.88-6.132,7.419-7.039c3.529-0.916,4.455-2.73,3.88-4.767c-0.575-2.047-9.203,0-9.203,0s3.051-11.133,9.359-15.676
				c6.307-4.543,13.57-11.806,14.253-17.479c0.682-5.683-4.543-7.039-6.58-3.178c-2.047,3.851-2.037,10.441-7.828,14.077
				c-5.8,3.636-9.661,12.556-10.119,14.681c0,0-1.267-11.279,2.778-17.411c4.046-6.132,16.251-22.266,14.116-25.434
				c-2.135-3.159-11.435,6.59-15.978,17.041c-4.543,10.441-6.59,23.143-6.59,31.781s-0.565,17.041-9.368,26.799
				c0,0,2.447-7.039,0-12.936c0,0,6.249-11.591,3.159-15.676c-3.1-4.085-6.278,6.356-6.278,6.356s-0.146-9.3,1.969-14.984
				c2.115-5.674-4.192-7.945-7.74-2.954c-3.539,5.001-2.671,11.581-2.671,11.581s-6.093-8.628-8.364-6.58
				c-2.271,2.037,1.511,11.123,8.364,13.17c0,0,2.993,7.721,5.264,9.31c2.271,1.589,3.636,10.46,1.706,15.9
				c0,0-3.422-5.459-5.177-5.001s3.012,12.098,3.012,12.098s-6.834,16.056-7.506,21.74
				C350.947,360.788,348.9,371.512,349.319,379.906z"/>
			<path style="fill:#7CB142;" d="M470.563,353.779c-1.823-5.128-7.136-13.775-22.539-17.401
				c-22.568-5.303-33.682-19.878-34.803-38.839c0,0-2.505,41.832,24.206,49.66c22.227,6.512,28.729,14.184,29.792,20.209
				c-1.482,3.831-2.856,5.995-2.856,5.995s37.835-30.426,23.982-56.406c-13.853-25.99-35.953-24.606-20.755-65.131
				c0,0-29.938,27.579-7.828,60.763C470.261,328.403,471.821,342.9,470.563,353.779z"/>
			<path style="fill:#ADD37F;" d="M484.036,338.903c0,0,24.537-21.486,28.681-41.364c0,0,6.454,23.407-10.587,44.132
				s-34.998,29.149-37.766,31.732c-0.946,0.887-0.244-0.965,1.55-4.436c7.019-26.321-27.404-46.033-45.302-66.905
				c-18.883-22.022,14.282-57.108,14.282-57.108c-19.809,50.664,38.225,65.862,41.91,87.046c1.297,7.497,0.127,14.876-1.94,21.281
				C477.709,348.583,480.868,343.582,484.036,338.903z"/>
			<path style="fill:#36464E;" d="M226.427,466.747c-1.726-6.561-3.334-15.042-2.262-21.008c1.911-10.665,3.49-37.513-4.406-58.823
				c0,0,11.279-16.972,3.471-23.689c-7.809-6.707-8.598,13.833-8.598,13.833s-9.866-18.172-8.286-24.489
				c0,0,11.045-8.686,8.676-13.814c-2.369-5.128-8.852,2.369-8.852,2.369s0.507-10.265,3.89-14.214
				c3.383-3.948,4.514-8.686,0-11.845c-4.504-3.149-12.8,8.286-15.559,21.32c-2.769,13.024,3.539,33.555,3.539,33.555
				s-6.697-9.476-11.835-7.506c-5.128,1.979,1.189,9.105,7.896,14.623c6.717,5.508,12.8,5.508,17.46,16.573
				c4.65,11.055,10.568,32.063,7.409,42.875c-3.159,10.802,0.234,39.326,4.26,42.241c2.505,1.803,5.118,2.788,6.229,1.872
				c0.877,1.628,1.979,2.944,3.334,3.841c0.994,0.653,1.531-0.214,1.755-2.067c2.486,0.244,6.054-3.168,5.557-7.38
				c-0.79-6.707,8.286-20.921,17.158-24.869c8.881-3.948,25.083-13.814,28.632-19.341c3.558-5.527,10.158-9.076,10.158-9.076
				c13.98,3.851,18.659-10.265,21.467-12.966c2.808-2.691,9.437-9.144,5.547-11.513c-3.88-2.369-7.565,1.189-11.903,7.107
				c-4.348,5.917-13.034,8.852-13.034,8.852c4.738-6.151,3.929-31.732,3.929-31.732s4.367-0.799,7.916-3.568
				c3.558-2.759,11.455-14.604,10.324-17.762c-1.131-3.159-10.061,0.39-10.061,0.39s-1.842-5.527-2.583-7.896
				c-0.751-2.369,7.458-23.29-2.018-15.783c-9.476,7.497,2.018,28.027,2.018,28.027c-4.309,1.969-7.945,7.097-7.945,7.097
				c-2.759-1.18-6.307-21.71-9.651-20.521c-3.354,1.18-5.342,7.107,0,21.486c5.333,14.379,0,23.124,0,23.124
				s-11.269-31.586-16.397-20.921c-5.138,10.655,16.397,27.023,16.397,27.023c-7.292,22.675-23.104,27.842-23.104,27.842
				c2.369-7.896-1.189-20.531-8.208-16.807c-7.029,3.714-0.478,19.575-1.482,22.734c-0.985,3.149-9.261,9.076-17.158,17.762
				c-3.432,3.773-5.342,8.754-6.405,13.18c-0.283-2.447-0.604-4.943-0.916-7.341c-1.579-12.235,5.937-44.269,14.028-50.752
				c8.082-6.483,29.002-12.01,29.002-17.138s-17.353-8.296-29.002,4.348c0,0,6.2-16.982,13.463-22.9
				c7.253-5.927,15.764-15.793,18.62-24.869c2.847-9.076,6.746-10.665,12.878-12.235c6.151-1.589,7.75-4.748,6.756-8.296
				c-0.994-3.548-15.998,0-15.998,0s5.313-19.341,16.271-27.238c10.967-7.896,23.592-20.521,24.781-30.396
				c1.18-9.866-7.896-12.235-11.445-5.527c-3.558,6.707-3.539,18.162-13.609,24.479c-10.08,6.317-16.787,21.837-17.577,25.522
				c0,0-2.213-19.605,4.816-30.26c7.029-10.655,28.261-38.722,24.547-44.21c-3.714-5.488-19.887,11.445-27.784,29.607
				c-7.896,18.152-11.445,40.242-11.445,55.255c0,15.003-0.985,29.616-16.29,46.589c0,0,4.25-12.244,0-22.5
				c0,0,10.86-20.141,5.479-27.238c-5.381-7.107-10.909,11.045-10.909,11.045s-0.244-16.183,3.432-26.048
				c3.675-9.866-7.292-13.814-13.453-5.128c-6.161,8.676-4.66,20.131-4.66,20.131c0.01,0-10.577-15.003-14.526-11.455
				c-3.948,3.558,2.622,19.351,14.526,22.9c0.01,0,5.216,13.424,9.154,16.183c3.948,2.769,6.337,18.181,2.973,27.647
				c0,0-5.947-9.485-8.998-8.696s5.235,21.028,5.235,21.028s-11.884,27.92-13.044,37.786
				C229.255,433.533,225.696,452.172,226.427,466.747z"/>
			<path style="fill:#D74214;" d="M171.026,405.408c0,0,3.042-5.479,0.585-7.156c-2.457-1.687-6.239-3.285-2.778-4.748
				c3.461-1.462,12.371,1.092,16.855,2.018c4.484,0.926,9.456,0.107,12.4-1.082c0,0,4.679,2.184,8.608,1.55
				c3.919-0.634,10.987,5.128,12.147,2.408c1.15-2.73-3.344-5.362-6.795-5.849c-3.441-0.478-7.77-1.579-7.77-1.579
				s8.608-2.691,9.505-7.682c0.887-4.982-3.636-6.171-3.636-6.171s1.16-5.839-3.821-6.736c-4.982-0.887-2.301,6.59-2.301,6.59
				s-2.593,2.681-3.363,4.484c-0.76,1.804-2.193,4.611-5.147,4.094c0,0,1.131-6.707-1.462-6.892
				c-2.603-0.195-5.352,9.173-5.352,9.173s-3.285-1.774-4.133-3.919c-0.858-2.145,0.185-4.026,0.185-4.026s4.689-2.759,3.519-4.718
				c-1.18-1.959-6.005,1.355-6.005,1.355s-2.135-2.847-5.537-3.802c-3.402-0.955-4.455-3.841-1.033-4.338
				c3.422-0.507,9.203,1.95,13.005,1.609c3.802-0.341,5.596-2.018,3.334-3.704c0,0,4.124-3.86,2.359-5.586
				c-1.765-1.725-5.157,2.203-6.532,2.603c-1.365,0.39-8.686,0.214-9.368-1.54c-0.682-1.745,1.014-5.177,4.094-4.972
				c3.081,0.214,13.083,2.496,15.637-0.078c2.554-2.574-3.422-2.905-6.424-2.72c-2.993,0.195-5.635-1.414-5.635-1.414
				s7.828-2.047,8.706-5.82s-2.593-6.697-2.593-6.697s-0.439-4.328,2.271-5.372c2.72-1.053,7.643-2.379,7.584-5.079
				c-0.058-2.71-4.787,3.09-6.961,1.687c-2.164-1.414-2.135-3.11-4.231-2.525c-2.096,0.575-4.611,6.044-4.455,10.519
				c0,0-4.075,1.219-6.483,2.886c-2.408,1.657-3.373,3.929-4.436,2.993c-1.063-0.936,2.193-10.772-1.024-11.893
				c-3.217-1.111-5.722,5.381-4.709,8.735c1.014,3.354,3.12,7.419,2.076,7.955c-1.043,0.526-2.7,5.43-3.412,8.052
				c-0.702,2.632-3.656,9.066-5.45,7.506c-1.784-1.55-0.79-5.518-1.833-7.419c-1.043-1.911,7.312-7.136,4.904-11.572
				c-2.418-4.436-5.518,6.434-7.428,5.138s-2.379-7.097-3.88-8.715c0,0-1.394-1.316,2.008-4.748c3.402-3.432,4.933-5.956,2.418-7.75
				c-2.515-1.803-5.878,5.547-6.824,4.904c-0.946-0.643-2.798-6.795-2.174-8.472c0.634-1.686,12.244-9.534,11.718-15.198
				s-7.107-3.324-8.208-1.599c0,0-1.745-5.917-3.519-5.791c-1.784,0.136-5.82,6.785-2.622,8.462
				c3.188,1.686,5.401,3.354,3.763,6.073s-3.295,2.018-3.295,2.018s-0.712-4.202-5.099-5.576c-4.387-1.375-7.984,5.401-6.912,8.043
				c0,0-6.268-2.164-7.214-0.37s2.096,7.711,7.477,8.033c0,0-0.029,5.596,3.89,7.867c0,0-6.385-2.34-7.487,0.614
				c-1.092,2.944,10.509,3.958,10.509,3.958s1.657,5.089,5.352,7.877c3.695,2.778,4.631,6.346,2.154,7
				c-2.476,0.663-12.498,0.556-13.287-1.238c-0.78-1.794,2.964-10.938-1.784-12.82c-4.748-1.891-6.415,4.358-6.532,6.931
				c0,0-3.285,0.858-6.61-2.808s-0.848-9.203-2.661-10.821c-1.823-1.618-6.727,3.256-4.748,7.682c0,0-4.962,1.735-4.289,5.674
				c0.663,3.948,7.146,10.1,9.719,11.435c0,0-1.579,2.252-3.656,2.106c-2.086-0.146-10.363,0.975-8.754,4.094
				c1.599,3.12,7.292,2.359,7.292,2.359s2.778,3.86,6.2,0.916c3.422-2.934,3.451-7.594,7.341-8.725
				c3.89-1.141,11.445,0.02,10.48,1.726s-9.485,9.066-5.372,10.324c4.124,1.258,10.031-6.483,14.048-5.264
				c4.026,1.219,6.961,6.356,5.527,9.164c-1.433,2.808-2.086,3.022-4.884-0.361c-2.788-3.373-4.211,3.821-2.447,5.791
				c1.765,1.969,3.324,6.034,0.234,7.165c-3.1,1.131-3.695-0.702-4.055-3.968c-0.38-3.266-1.969-4.679-1.969-4.679
				s3.334-4.192,0.604-5.342c-2.73-1.16-4.504,4.182-4.504,4.182s-1.735-1.648-3.471,0.146s6.005,12.625,4.572,14.701
				c-1.443,2.067,9.174,8.511,17.86,10.246C164.289,408.645,167.896,411.637,171.026,405.408z"/>
			<path style="fill:#FF7042;" d="M206.17,382.508c0.107-0.468-0.01-1.102-0.175-1.54c-0.37-0.985-1.842-0.985-2.232-0.02
				c-0.166,0.419-0.341,0.829-0.507,1.248c-0.312,0.77,0.185,1.462,0.936,1.648c0.37,0.078,0.751,0.01,1.053-0.185
				C205.721,383.513,206.053,383.064,206.17,382.508z M142.54,317.524c-0.341-0.39-0.78-0.692-1.326-0.634
				c-0.448,0.058-0.799,0.351-0.965,0.76c-0.02,0.059-0.029,0.117-0.039,0.175c-0.175,0.117-0.37,0.302-0.478,0.4
				c-0.565,0.439-0.458,1.297,0.185,1.589c0.088,0.039,0.175,0.088,0.263,0.127l0.039,0.02l0.097,0.039
				c0.263,0.127,0.565,0.088,0.809-0.049c0.136-0.068,0.253-0.175,0.341-0.312c0.107-0.078,0.195-0.166,0.292-0.263
				c0.088-0.078,0.166-0.175,0.244-0.253l0.039-0.029l0.049-0.039l0.02-0.01C142.667,318.801,142.969,318.021,142.54,317.524z
				 M132.596,323.305c-1.287-0.546-2.135,1.453-0.848,1.998S133.883,323.851,132.596,323.305z M193.077,386.817
				c-0.068-0.039-0.341-0.224-0.068-0.029c-0.478-0.331-1.15-0.214-1.384,0.351c-0.244,0.565,0.136,1.131,0.702,1.248
				c-0.322-0.068,0,0,0.088,0.02C193.477,388.738,194.062,387.354,193.077,386.817z M193.301,381.982
				c-0.517-0.224-1.131,0.029-1.355,0.546c-0.214,0.517,0.029,1.131,0.556,1.355c0.517,0.214,1.131-0.029,1.355-0.556
				C194.072,382.82,193.818,382.197,193.301,381.982z M152.513,313.39c-0.556-0.234-0.926,0.634-0.37,0.877
				C152.708,314.502,153.078,313.634,152.513,313.39z M158.518,310.807c-0.156-0.565-0.994-0.897-1.501-0.634
				c-0.448,0.234-0.887,0.448-1.219,0.848c-0.322,0.39-0.429,0.907-0.517,1.394c-0.088,0.458,0.302,0.975,0.78,1.014
				c0.195,0.01,0.39-0.029,0.575-0.107c0.448,0.127,0.955,0.029,1.375-0.273C158.752,312.494,158.733,311.606,158.518,310.807z
				 M151.168,307.142c-0.127-0.205-0.312-0.38-0.556-0.478c-0.624-0.273-1.316,0.039-1.599,0.643c-0.185,0.4-0.214,0.751-0.088,1.18
				c0.166,0.517,0.78,0.819,1.306,0.76c0.214-0.029,0.409-0.107,0.585-0.234c0.263-0.263,0.302-0.292,0.117-0.107l0.166-0.127
				C151.675,308.331,151.597,307.57,151.168,307.142z M172.605,340.199c-0.546-0.234-0.907,0.614-0.351,0.848
				C172.79,341.281,173.161,340.423,172.605,340.199z M173.453,335.617c-1.15-0.487-1.911,1.297-0.76,1.784
				C173.843,337.879,174.604,336.105,173.453,335.617z M174.623,355.397c0.068-0.497,0.195-0.985,0.097-1.482l0.02-0.078v-0.02
				c0-0.439,0-0.458,0.01-0.059c0.088-0.331-0.078-0.78-0.273-1.043c-0.331-0.439-0.799-0.565-1.326-0.565
				c-0.361,0.01-0.702,0.185-1.024,0.37l-0.058,0.02c-0.468,0.166-0.868,0.682-0.907,1.18c-0.039,0.38,0.039,0.751,0.205,1.102
				c0.195,0.439,0.439,0.838,0.682,1.238c0.253,0.429,0.858,0.624,1.336,0.565C174.019,356.548,174.526,356.031,174.623,355.397z
				 M131.631,358.078c0.02-0.448,0.059-0.916-0.01-1.365l-0.029-0.127l0.127-0.059c0.517-0.263,0.595-0.868,0.175-1.258
				c-0.79-0.76-2.174-0.79-2.973,0.107c-0.448,0.507-0.497,1.141-0.341,1.764c-0.02,0.078-0.039,0.166-0.049,0.253
				c-0.049,0.468,0.224,0.819,0.595,0.955c0.068,0.117,0.146,0.224,0.224,0.331C129.984,359.502,131.592,359.258,131.631,358.078z
				 M142.989,366.121c-1.267-0.536-2.096,1.423-0.838,1.96C143.418,368.607,144.246,366.657,142.989,366.121z M139.733,368.626
				c-0.097-0.029-0.185-0.059-0.273-0.088c-0.604-0.214-1.267,0-1.531,0.624c-0.263,0.614,0.049,1.238,0.614,1.521
				c0.088,0.049,0.175,0.088,0.253,0.137c0.585,0.292,1.316-0.068,1.56-0.634C140.6,369.621,140.337,368.841,139.733,368.626z
				 M113.148,365.77c-1.423-0.604-2.359,1.609-0.936,2.203C113.635,368.578,114.571,366.365,113.148,365.77z M137.91,384.302
				c0.039-0.107,0.058-0.224,0.058-0.322l0.029-0.098c0.195-0.975-1.258-1.599-1.813-0.77l-0.058,0.088
				c-0.068,0.078-0.136,0.156-0.185,0.263l-0.068,0.136c-0.322,0.653,0.058,1.17,0.595,1.365c0.497,0.244,1.15,0.156,1.394-0.526
				L137.91,384.302z M176.836,387.822l0.02-0.059c0.166-0.361,0.117-0.751-0.058-1.082c-0.127-0.244-0.331-0.439-0.604-0.556
				c-0.273-0.117-0.556-0.117-0.819-0.049c-0.361,0.097-0.682,0.341-0.819,0.712l-0.029,0.059l-0.039,0.117
				c-0.039,0.088-0.068,0.175-0.097,0.273c-0.166,0.341-0.117,0.741,0.058,1.063c0.127,0.234,0.322,0.429,0.595,0.546
				c0.263,0.117,0.546,0.117,0.799,0.049c0.361-0.097,0.673-0.341,0.809-0.702c0.049-0.088,0.088-0.175,0.127-0.263L176.836,387.822
				z M168.345,368.061c-0.195-0.166-0.39-0.263-0.643-0.322c-0.273-0.068-0.614,0.098-0.78,0.312l-0.019,0.029
				c-0.39,0.517-0.088,1.258,0.546,1.355c0.068,0.01,0.127,0.01,0.195,0L168.345,368.061z M167.692,369.436
				c0.068-0.01,0.146-0.029,0.224-0.049C167.809,369.416,167.74,369.436,167.692,369.436L167.692,369.436z M167.692,369.436
				l0.068,0.01c0.76,0.088,1.189-0.897,0.585-1.384L167.692,369.436z M167.692,369.436L167.692,369.436L167.692,369.436z
				 M155.896,387.315c0.166-0.4,0.253-0.829,0.097-1.248c-0.185-0.487-0.634-0.809-1.15-0.829c-0.439-0.02-0.731,0.127-1.014,0.458
				c-0.156,0.185-0.273,0.458-0.292,0.702c-0.02,0.234,0.02,0.458,0.127,0.663l0.068,0.127l0.01,0.029
				c0.02,0.302,0.156,0.575,0.478,0.712c0.224,0.088,0.487,0.068,0.712-0.029C155.33,387.929,155.74,387.704,155.896,387.315z
				 M170.558,375.246c-0.848-0.351-1.404,0.965-0.556,1.326C170.85,376.932,171.406,375.616,170.558,375.246z M166.473,381.046
				l-0.146-0.322v-0.01c-0.078-0.185-0.195-0.331-0.322-0.448l-0.107-0.078l-0.058-0.039c-0.322-0.185-0.712-0.185-1.053-0.039
				c-0.341,0.136-0.624,0.4-0.721,0.76l-0.01,0.078l-0.029,0.117c-0.019,0.175,0.01,0.361,0.088,0.546v0.01l0.117,0.331
				C164.757,383.425,167.117,382.469,166.473,381.046z M179.215,382.528c-0.253-0.01-0.526-0.049-0.76,0.088
				c-0.536,0.292-0.721,0.731-0.565,1.316c0.078,0.263,0.292,0.429,0.468,0.614c0.536,0.526,1.492,0.175,1.755-0.448
				C180.375,383.474,179.965,382.538,179.215,382.528z M176.924,379.399c0.068-0.692,0.175-1.579-0.351-2.135
				c-0.517-0.536-1.072-0.643-1.735-0.877c-0.653-0.224-1.511-0.01-1.755,0.712c-0.283,0.819-0.361,1.872,0.419,2.447
				c0.38,0.448,0.897,0.809,1.394,1.014C175.754,380.89,176.826,380.374,176.924,379.399z M158.021,368.587
				c0.058-0.234,0.068-0.487-0.049-0.702c-0.273-0.507-0.712-0.692-1.258-0.536c-0.234,0.068-0.429,0.244-0.546,0.458
				c-0.341,0.575-0.273,1.316,0.409,1.609C157.27,369.708,157.846,369.231,158.021,368.587z M156.773,360.905l-0.01-0.068
				c-0.234-0.624-0.994-0.916-1.599-0.673c-0.595,0.244-0.946,0.985-0.673,1.589c0.283,0.614,0.799,1.082,1.511,1.004
				c0.341-0.029,0.643-0.253,0.819-0.556C157.231,361.783,157.163,361.208,156.773,360.905z M151.772,364.337
				c0.136-0.409,0.049-0.868-0.351-1.209c-0.107-0.088-0.224-0.146-0.351-0.205c-0.175-0.117-0.37-0.195-0.614-0.224
				c-0.078-0.01-0.166-0.02-0.244-0.029l-0.049-0.01c-0.195-0.059-0.107-0.02,0,0l0.117,0.049c-1.258-0.439-2.349,0.887-1.579,2.018
				c0.38,0.575,0.858,1.267,1.54,1.521c0.536,0.195,1.131,0.078,1.492-0.39C152.065,365.448,152.123,364.766,151.772,364.337z
				 M133.854,348.837c-1.141-0.478-1.891,1.287-0.751,1.764C134.234,351.089,134.985,349.314,133.854,348.837z M123.91,356.821
				c0.292-0.322,0.263-0.78,0.156-1.16c-0.146-0.507-0.546-0.975-1.004-1.199c-0.292-0.146-0.751-0.097-0.994,0.117
				c-0.497,0.448-0.916,0.877-1.121,1.54c-0.195,0.634,0.117,1.17,0.76,1.326c0.312,0.068,0.634,0.146,0.946,0.224
				c0.39,0.088,0.712-0.185,0.838-0.526C123.647,357.074,123.793,356.957,123.91,356.821z M117.759,346.253
				c-0.916-0.39-1.511,1.024-0.604,1.414C118.071,348.047,118.675,346.633,117.759,346.253z M116.628,352.834
				c0.136-0.575,0.029-1.18-0.312-1.657c-0.039-0.175-0.107-0.351-0.224-0.487c-0.38-0.526-1.267-0.731-1.784-0.263
				c-0.653,0.585-0.955,1.267-0.721,2.125c0.107,0.409,0.419,0.721,0.712,0.994c0.253,0.234,0.634,0.283,0.946,0.351
				C115.936,354.062,116.492,353.428,116.628,352.834z M183.962,342.734c-1.433-0.614-2.379,1.618-0.946,2.223
				C184.459,345.571,185.405,343.338,183.962,342.734z M191.683,344.781h-0.029l-0.01-0.166v-0.029l0.02-0.146
				c0.263-1.121-1.56-1.657-1.989-0.653c-0.107,0.01-0.214,0.029-0.331,0.068c-0.556,0.224-0.751,0.741-0.751,1.297
				c0,0.721,0.702,1.414,1.316,1.687c0.673,0.302,1.365-0.068,1.638-0.682l0.136-0.039
				C192.375,345.97,192.483,344.791,191.683,344.781z M180.472,348.388c-1.228-0.517-2.028,1.384-0.799,1.901
				C180.891,350.806,181.701,348.915,180.472,348.388z M142.813,328.091c0.029-0.351,0.01-0.702-0.049-1.053
				c0.214-0.634,0.224-1.238-0.01-1.882c-0.331-0.946-1.813-1.219-2.388-0.341c-0.487,0.741-1.043,1.472-0.975,2.408
				c0.068,0.907,0.946,1.55,1.735,1.842C141.828,329.32,142.764,328.93,142.813,328.091z M147.843,329.827
				c0.02-0.088,0.029-0.185,0.039-0.273c0.117-1.053-1.219-1.609-1.891-0.799c-0.058,0.068-0.117,0.137-0.175,0.214
				c-0.253,0.312-0.312,0.76-0.156,1.131l0.01,0.029c0.224,0.565,0.887,0.848,1.453,0.614l0.02-0.01
				C147.522,330.587,147.804,330.226,147.843,329.827z M144.568,337.148c0.049-0.283-0.039-0.595-0.136-0.858l-0.02-0.068
				l-0.029-0.068v-0.029c-0.02-0.273-0.127-0.507-0.292-0.673c-0.292-0.663-1.053-0.985-1.735-0.712
				c-0.907,0.351-0.994,1.228-0.78,2.028c0.029,0.127,0.205,0.4,0.244,0.458l0.049,0.068l0.01,0.01
				c0.059,0.146,0.146,0.38,0.253,0.487c0.341,0.361,0.741,0.604,1.267,0.536C144.022,338.24,144.451,337.752,144.568,337.148z"/>
			<path style="fill:#666666;" d="M131.846,449.336c40.213-18.912,72.813-8.16,72.813,24.011c0,10.957-3.792,22.997-10.373,34.842
				c-32.746-8.218-63.035-22.636-89.532-41.949C113.128,459.611,122.273,453.83,131.846,449.336z"/>
			<g>
				<path style="fill:#FFEF76;" d="M206.862,205.453c0,0,2.7-1.16,2.934-3.968c0.224-2.798-6.775-2.798-11.913-12.147
					c-5.138-9.339-1.17-36.655-18.454-49.738c-17.275-13.083-44.6-22.87-66.788-1.043c-22.178,21.827-20.784,29.168-33.623,27.014
					c-12.849-2.154-11.815-30.504-14.019-31.781c-4.884-2.847-10.509,13.053-10.509,20.053c0,7.009,5.138,22.422,0,29.431
					c-5.138,7-11.962,8.832-11.201,13.073c0.673,3.792,9.105,4.202,15.413,0c6.298-4.202,15.881-16.582,22.88-14.945
					c7.009,1.638,9.115,29.421,38.303,42.27c29.188,12.839,48.11,7.935,58.385-1.17c10.275-9.105,15.647-8.637,21.018-10.743
					C204.659,209.665,206.979,208.963,206.862,205.453z"/>
				<path style="fill:#FF9F00;" d="M85.715,165.591c-1.823,0.468-3.929,0.448-6.697-0.02c-2.037-0.341-3.724-1.345-5.128-2.788
					v20.872c2.7-1.774,5.342-2.798,7.692-2.252c1.501,0.351,2.769,1.891,4.133,4.231V165.591z"/>
				<path style="fill:#F9BF2C;" d="M177.109,145.05c0,0-0.731,0.166-2.106,0.468c-1.365,0.322-3.363,0.858-5.81,1.755
					c-2.457,0.907-5.362,2.223-8.433,4.153c-3.061,1.93-6.317,4.455-9.378,7.692c-3.071,3.217-5.986,7.107-8.491,11.552
					c-2.544,4.436-4.64,9.437-6.317,14.769c-1.638,5.333-2.827,11.016-3.48,16.865c-0.663,5.839-0.517,11.864-0.059,17.86
					c0,0-0.097-0.848-0.292-2.418c-0.224-1.57-0.409-3.86-0.604-6.756c-0.331-5.781,0.068-14.048,2.398-23.27
					c1.17-4.611,2.837-9.437,5.147-14.194c2.349-4.738,5.303-9.437,9.047-13.541c3.714-4.124,8.15-7.701,13.063-10.226
					c2.457-1.267,4.991-2.31,7.565-3.1C171.942,145.899,174.545,145.382,177.109,145.05z M111.071,144.797
					c0,0-0.253,0.331-0.731,0.955c-0.468,0.634-1.199,1.521-2.018,2.739c-1.696,2.388-3.958,5.917-6.103,10.421
					c-2.135,4.514-4.163,10.002-5.372,16.105c-0.585,3.051-0.926,6.249-1.033,9.524c-0.029,3.276,0.214,6.6,0.79,9.914
					c0,0-0.117-0.458-0.341-1.316c-0.117-0.419-0.244-0.946-0.4-1.56c-0.166-0.624-0.253-1.345-0.4-2.145
					c-0.546-3.188-0.877-7.828-0.166-13.122c0.088-0.653,0.166-1.336,0.283-2.018c0.136-0.673,0.273-1.355,0.409-2.047
					c0.244-1.404,0.702-2.788,1.072-4.221c0.897-2.817,1.95-5.703,3.354-8.472C103.107,153.98,106.919,148.833,111.071,144.797z
					 M142.803,135.234c0,0-0.624,0.312-1.784,0.877c-0.575,0.273-1.287,0.624-2.125,1.033c-0.829,0.419-1.764,0.955-2.817,1.521
					c-0.526,0.292-1.092,0.575-1.657,0.916c-0.556,0.351-1.15,0.712-1.764,1.092c-0.614,0.38-1.267,0.76-1.911,1.189
					c-0.643,0.439-1.306,0.907-1.989,1.375c-1.394,0.916-2.749,2.057-4.231,3.198c-0.185,0.136-0.361,0.283-0.546,0.429
					l-0.536,0.478c-0.351,0.312-0.712,0.643-1.082,0.965c-0.712,0.663-1.501,1.287-2.184,2.037
					c-0.721,0.731-1.443,1.482-2.184,2.232c-0.702,0.799-1.384,1.638-2.106,2.466c-0.731,0.809-1.345,1.745-2.018,2.661
					c-0.331,0.458-0.673,0.916-1.004,1.384c-0.322,0.478-0.604,0.985-0.916,1.472c-2.447,3.948-4.572,8.433-5.859,13.365
					c-1.316,4.904-1.94,10.178-1.881,15.539c0.068,5.362,0.965,10.802,1.969,16.212c0,0-0.185-0.76-0.536-2.164
					c-0.166-0.702-0.39-1.57-0.614-2.583c-0.205-1.014-0.448-2.174-0.721-3.471c-0.253-1.306-0.429-2.759-0.673-4.319
					c-0.146-0.79-0.156-1.609-0.234-2.457c-0.058-0.858-0.127-1.735-0.185-2.642c0-0.907,0.019-1.833,0.029-2.798
					c0.039-0.955-0.02-1.94,0.127-2.944c0.097-1.004,0.205-2.028,0.322-3.071c0.029-0.253,0.039-0.526,0.078-0.79
					c0.058-0.253,0.107-0.517,0.156-0.78c0.107-0.526,0.205-1.063,0.312-1.599c0.097-0.536,0.205-1.072,0.312-1.618
					c0.097-0.546,0.292-1.072,0.439-1.618c0.322-1.082,0.604-2.203,0.985-3.295c0.419-1.082,0.848-2.174,1.287-3.285
					c0.458-1.102,1.043-2.154,1.57-3.246c2.262-4.299,5.255-8.403,8.803-12.03c0.916-0.877,1.794-1.803,2.749-2.632l2.925-2.457
					c1.024-0.751,2.047-1.501,3.071-2.242c1.033-0.731,2.125-1.375,3.178-2.047C133.864,138.977,138.358,136.891,142.803,135.234z
					 M160.302,138.977c0,0-0.702,0.205-2.018,0.585c-0.653,0.185-1.443,0.487-2.379,0.799c-0.468,0.156-0.955,0.37-1.482,0.575
					c-0.526,0.214-1.092,0.429-1.657,0.712c-4.631,2.037-10.958,5.908-16.719,12.4c-5.791,6.444-10.889,15.452-13.746,25.931
					c-1.423,5.225-2.31,10.802-2.496,16.504c-0.185,5.713,0.458,11.542,0.858,17.372c0,0-0.478-3.295-1.17-8.881
					c-0.136-1.394-0.302-2.944-0.429-4.621c-0.029-0.838-0.068-1.716-0.097-2.613c-0.049-0.907-0.078-1.842-0.049-2.808
					c0.01-1.92,0.166-3.958,0.38-6.083c0.244-2.125,0.575-4.338,1.063-6.6c0.965-4.523,2.466-9.261,4.621-13.941
					c2.174-4.65,4.962-9.261,8.481-13.365c1.745-2.047,3.656-3.987,5.703-5.761c2.057-1.755,4.26-3.334,6.561-4.709
					C150.32,141.697,155.36,139.893,160.302,138.977z"/>
				<path style="fill:#FF9F00;" d="M192.122,189.114c0,4.124-3.344,8.296-7.467,8.296s-7.477-4.172-7.477-8.296
					s3.354-8.062,7.477-8.062S192.122,184.991,192.122,189.114z"/>
				<path style="fill:#FEFEFE;" d="M191.42,189.114c0,3.743-3.032,6.775-6.766,6.775c-3.743,0-6.775-3.032-6.775-6.775
					c0-3.743,3.032-6.775,6.775-6.775C188.388,182.339,191.42,185.371,191.42,189.114z"/>
				<path d="M190.962,187.408c0,1.735-1.414,3.149-3.159,3.149c-1.735,0-3.149-1.414-3.149-3.149c0-1.745,1.414-3.149,3.149-3.149
					C189.548,184.26,190.962,185.663,190.962,187.408z"/>
				<path style="fill:#ED6C00;" d="M201.266,202.772c0,0,2.925,2.564,5.138,2.915C206.404,205.687,201.266,208.378,201.266,202.772z
					"/>
				<g>
					<path style="fill:#FF9F00;" d="M159.815,196.036c0,0-16.329-4.114-23.845,6.502c-7.516,10.607-11.133,15.179-19.595,12.683
						c-8.472-2.505-19.975-40.057-13.112-50.488c6.863-10.421,21.701-11.523,41.724,1.745
						c20.014,13.268,24.108,17.723,25.425,22.285C171.718,193.316,166.395,196.806,159.815,196.036z"/>
					<path style="fill:#FF9F00;" d="M57.512,153.844c0-5.674,3.695-17.197,7.692-19.839c-0.068-0.097-0.127-0.175-0.205-0.214
						c-4.884-2.847-10.509,13.053-10.509,20.053c0,7.009,5.147,22.422,0,29.431c-5.128,7-11.962,8.832-11.201,13.073
						c0.4,2.262,3.558,3.324,7.38,2.915c-2.359-0.283-4.075-1.287-4.367-2.915c-0.751-4.241,6.073-6.073,11.211-13.073
						C62.65,176.266,57.512,160.853,57.512,153.844z"/>
					<path style="fill:#FF9F00;" d="M110.886,140.576c22.178-21.827,49.504-12.04,66.788,1.033
						c17.275,13.083,13.307,40.408,18.444,49.747c5.138,9.339,12.147,9.339,11.913,12.147c-0.049,0.565-0.195,1.072-0.409,1.511
						c0.819-0.565,2.018-1.696,2.174-3.529c0.224-2.798-6.775-2.798-11.913-12.147c-5.138-9.339-1.17-36.655-18.454-49.738
						c-17.275-13.083-44.6-22.87-66.788-1.043c-5.069,4.991-8.91,9.222-11.962,12.761
						C103.419,148.219,106.743,144.651,110.886,140.576z"/>
				</g>
			</g>
			<path style="fill:#EF6291;" d="M262.722,20.141c-4.27-2.262-27.559,28.213-27.559,28.213s-39.502-10.285-42.494-7.302
				c-2.983,2.993,19.926,36.519,19.926,36.519s-20.589,17.265-18.269,22.909c2.33,5.644,39.843,0,39.843,0
				s14.945,28.3,23.572,28.593c8.637,0.292,4.445-39.667,4.445-39.667s36.06-8.842,36.06-14.818
				c0-5.976-31.537-14.613-31.537-14.613S268.366,23.124,262.722,20.141z"/>
			<path style="fill:#C1185A;" d="M203.586,97.058c0,0,1.033-0.556,2.876-1.472c1.833-0.916,4.514-2.125,7.74-3.5
				c3.217-1.345,6.97-2.925,10.987-4.611c3.977-1.745,8.169-3.646,12.235-6.005c0,0-0.985,0.887-2.739,2.34
				c-0.214,0.185-0.448,0.38-0.692,0.575c-0.253,0.175-0.517,0.361-0.799,0.556c-0.565,0.37-1.17,0.78-1.813,1.209
				c-1.267,0.907-2.798,1.696-4.426,2.593C220.393,92.271,211.502,95.244,203.586,97.058z M204.347,50.586
				c0,0,4.553,1.989,11.094,5.411c6.522,3.402,15.11,8.355,23.104,14.175c0,0-5.216-2.223-12.069-5.781
				C219.652,60.841,211.015,55.928,204.347,50.586z M245.681,70.239c0,0,0.604-4.426,2.028-10.948
				c1.384-6.502,3.714-15.179,7.604-23.251c0,0-0.234,1.258-0.692,3.354c-0.448,2.096-1.209,4.991-1.94,8.403
				c-0.4,1.696-0.838,3.5-1.336,5.362c-0.458,1.872-0.975,3.812-1.55,5.742C248.654,62.781,247.29,66.72,245.681,70.239z
				 M252.456,76.469c0,0,0.273,0.029,0.78,0.078c0.253,0.019,0.556,0.049,0.926,0.088c0.361,0.01,0.78,0.029,1.258,0.049
				c1.872,0.039,4.562-0.068,7.77-0.341c6.444-0.507,14.993-1.667,23.748-1.862c0,0-1.199,0.331-3.237,0.838
				c-2.037,0.497-4.913,1.16-8.286,1.745c-3.373,0.575-7.253,1.092-11.25,1.16C260.197,78.282,255.956,77.999,252.456,76.469z
				 M245.896,83.517c0,0,0.448,0.985,1.18,2.759c0.37,0.887,0.799,1.959,1.287,3.207c0.234,0.624,0.497,1.287,0.741,1.989
				c0.224,0.712,0.458,1.462,0.692,2.242c0.478,1.57,0.975,3.285,1.462,5.099c0.263,0.907,0.458,1.852,0.634,2.827
				c0.185,0.965,0.37,1.95,0.556,2.964c0.838,4.016,1.033,8.442,1.092,12.8c0,0-0.331-1.209-0.809-3.256
				c-0.507-2.037-1.033-4.923-1.95-8.199c-0.419-1.648-0.838-3.412-1.228-5.245c-0.478-1.823-0.965-3.704-1.394-5.635
				c-0.214-0.965-0.419-1.93-0.614-2.905c-0.214-0.965-0.429-1.93-0.643-2.895C246.48,87.338,246.139,85.408,245.896,83.517z"/>
			<path style="fill:#CD91D7;" d="M337.299,190.06c0,0,12.469,12.381,11.026,22.217c-1.453,9.846-12.556,24.81-6.97,36.07
				c5.576,11.26,12.03,12.634,23.095,14.652c0,0-15.374-6.151-14.984-18.133c0.39-11.971,8.579-19.546,6.649-32.58
				c-1.93-13.024-10.782-23.66-10.782-23.66L337.299,190.06z M504.508,173.799c-1.043-3.139-2.145-6.249-3.305-9.339
				c-2.447,0.205-5.021,0.721-7.721,1.638c-24.235,8.179-31.537,24.235-54.895,33.282s-54.29-9.544-61.602-22.432
				s-8.764,1.053-6.132,4.913c0,0,16.651,28.905,49.923,28.32c33.282-0.585,54.3-26.468,70.073-33.233
				C495.227,175.076,499.907,174.101,504.508,173.799z M487.926,134.941c-1.755-3.334-3.588-6.639-5.488-9.895
				c-14.262,11.464-20.774,36.08-42.972,43.391c-23.065,7.584-35.329-12.556-35.329-12.556l-11.679,8.481
				c0,0,25.113,23.338,48.47,14.876c23.358-8.472,36.772-36.587,46.716-44.083L487.926,134.941z M470.797,106.894
				c-1.969-2.817-3.997-5.586-6.073-8.306c-8.725,16.056-15.227,35.319-26.721,41.071c-13.131,6.59-23.221,2.788-26.058-1.881
				c-2.837-4.67-10.451,0.838-6.931,3.558c0,0,18.981,17.167,35.914,6.366C454.77,138.88,463.924,119.314,470.797,106.894z
				 M351.883,189.163c0,0,10.626,26.448,37.952,41.169c26.565,14.301,70.649,1.17,88.459,2.33
				c17.811,1.17,26.565,9.924,26.565,9.924s-10.217-14.594-26.273-17.08c-16.056-2.476-54.914,11.542-79.832,0
				c-13.921-6.444-35.778-22.919-36.947-34.588C360.637,179.239,351.883,189.163,351.883,189.163z"/>
			<circle style="fill:#FFFFFF;" cx="217.137" cy="189.309" r="4.523"/>
			<path style="fill:#A946BB;" d="M407.109,118.515c0,0-3.334-22.763-20.492-30.952s-57.215,5.839-70.064,25.113
				c-12.849,19.263-16.933,56.055,13.434,68.894c0,0-8.472,7.594,0,13.434c8.462,5.839,14.009-4.377,19.848-2.925
				c5.839,1.462,14.886,9.349,22.48,2.925s4.67-16.641,10.802-21.018c6.132-4.387,14.311-0.585,22.48-7.594
				c8.179-7.009,2.622-16.641,6.132-21.896c3.5-5.255,13.434-3.207,15.764-16.056C429.833,115.59,407.109,118.515,407.109,118.515z"
				/>
			<path style="fill:#F1E3F3;" d="M336.119,117.93c-12.43-1.969-22.49,42.036-4.094,43.499
				C350.421,162.89,352.76,120.552,336.119,117.93z"/>
			<g>
				<circle style="fill:#FFFFFF;" cx="218.297" cy="171.187" r="6.668"/>
				<circle style="fill:#FFFFFF;" cx="211.103" cy="148.57" r="9.115"/>
				<circle style="fill:#FFFFFF;" cx="251.16" cy="274.552" r="9.115"/>
				<circle style="fill:#FFFFFF;" cx="271.788" cy="234.299" r="9.115"/>
				<circle style="fill:#FFFFFF;" cx="181.827" cy="257.345" r="9.115"/>
				<circle style="fill:#FFFFFF;" cx="167.614" cy="91.686" r="9.115"/>
				<circle style="fill:#FFFFFF;" cx="307.956" cy="75.299" r="9.115"/>
			</g>
		</g>
	</g>
</g>
<g>
</g>
<g>
</g>
<g>
</g>
<g>
</g>
<g>
</g>
<g>
</g>
<g>
</g>
<g>
</g>
<g>
</g>
<g>
</g>
<g>
</g>
<g>
</g>
<g>
</g>
<g>
</g>
<g>
</g>
</svg>
