<?xml version="1.0" encoding="iso-8859-1"?>
<!-- Generator: Adobe Illustrator 19.0.0, SVG Export Plug-In . SVG Version: 6.00 Build 0)  -->
<svg version="1.1" id="Layer_1" xmlns="http://www.w3.org/2000/svg" xmlns:xlink="http://www.w3.org/1999/xlink" x="0px" y="0px"
	 viewBox="0 0 512 512" style="enable-background:new 0 0 512 512;" xml:space="preserve">
<path style="fill:#FFECB4;" d="M256.005,0C397.384,0,512,114.616,512,256.005C512,397.384,397.384,512,256.005,512
	C114.616,512,0,397.384,0,256.005C0,114.616,114.616,0,256.005,0z"/>
<path style="fill:#FFE8A3;" d="M98.567,260.83l0.01,3.888c0.02,9.875,0.762,12.044,2.149,17.934l0.107-0.01
	c11.858,69.488,69.303,123.436,140.471,129.971l0.596,0.049c0.938,0.078,1.875,0.156,2.823,0.225l1.25,0.078
	c0.811,0.059,1.612,0.098,2.413,0.137c0.518,0.029,1.045,0.039,1.573,0.059c0.723,0.029,1.436,0.059,2.159,0.078
	c0.84,0.02,1.67,0.02,2.51,0.029c0.4,0.01,0.82,0.02,1.221,0.02l0.186-0.01c1.182,0,2.364-0.02,3.536-0.039l0.557-0.01
	c1.114-0.039,2.217-0.078,3.321-0.127l0.947-0.049c0.977-0.059,1.963-0.117,2.94-0.186l1.387-0.107
	c0.645-0.059,1.28-0.117,1.914-0.176c70.553-6.574,127.568-59.74,139.983-128.427c1.514-5.9,1.534-7.736,2.286-17.084h0.01h0.176
	l0,0l0,0c0.02-0.596,0.029-1.182,0.049-1.768v-0.039v-0.049v-0.039v-0.088v-0.049v-0.039l0,0v-0.039v-0.049v-0.127v-0.039v-0.049
	v-0.039v-0.039l0,0v-0.049v-0.049v-0.039v-0.039v-0.049v-0.039v-0.039c0.987-11.731-0.537-30.993-4.523-45.909l-0.205-0.791
	c-17.133-68.306-78.944-118.904-152.564-118.904c-75.398,0-138.4,53.078-153.716,123.905l0,0c-0.02,0.049-0.029,0.107-0.049,0.156
	l-0.254,0.967l-0.156,0.576l-0.273,1.035c-1.944,8.029-2.559,17.602-2.745,25.973c-0.049,1.553-0.078,3.116-0.078,4.679v0.293
	C98.567,257.89,98.567,259.404,98.567,260.83z"/>
<path style="fill:#FFE599;" d="M129.375,259.883l0.01,3.126c0.02,7.951,0.615,9.69,1.729,14.427l0.088-0.01
	c9.533,55.892,55.735,99.28,112.975,104.535l0.479,0.039c0.762,0.068,1.514,0.127,2.276,0.186l1.006,0.059
	c0.645,0.049,1.289,0.078,1.944,0.117c0.41,0.02,0.84,0.02,1.26,0.049c0.586,0.01,1.153,0.039,1.739,0.059
	c0.674,0.01,1.338,0.01,2.012,0.02c0.332,0.01,0.664,0.01,0.987,0.01h0.147c0.957,0,1.905-0.02,2.842-0.029l0.459-0.01
	c0.889-0.029,1.778-0.068,2.667-0.107l0.762-0.029c0.781-0.049,1.582-0.098,2.364-0.156l1.114-0.088
	c0.518-0.039,1.026-0.088,1.543-0.137c56.741-5.294,102.601-48.048,112.584-103.295c1.221-4.747,1.231-6.222,1.846-13.743l0,0h0.137
	l0,0h0.01c0.01-0.479,0.02-0.947,0.029-1.416v-0.039v-0.029v-0.039v-0.068v-0.039v-0.029l0,0v-0.039v-0.039v-0.098v-0.039v-0.029
	v-0.029v-0.039h0.01v-0.039v-0.029v-0.039v-0.039v-0.029v-0.029v-0.039c0.791-9.436-0.44-24.927-3.643-36.922l-0.166-0.635
	c-13.782-54.944-63.491-95.637-122.703-95.637c-60.639,0-111.314,42.695-123.631,99.661l0,0c-0.02,0.039-0.029,0.088-0.039,0.127
	l-0.205,0.772l-0.127,0.469l-0.225,0.83c-1.563,6.457-2.051,14.154-2.198,20.893c-0.039,1.25-0.068,2.501-0.068,3.761v0.234
	C129.375,257.519,129.375,258.74,129.375,259.883z"/>
<path style="fill:#FFE28E;" d="M160.739,258.916l0.01,2.354c0.01,5.978,0.459,7.287,1.299,10.852h0.068
	c7.17,42.05,41.923,74.685,84.99,78.641l0.361,0.029c0.567,0.049,1.133,0.098,1.709,0.137l0.752,0.049
	c0.488,0.029,0.977,0.059,1.465,0.078c0.313,0.02,0.635,0.02,0.947,0.039c0.44,0.01,0.869,0.039,1.309,0.049
	c0.508,0.01,1.006,0.01,1.514,0.02c0.254,0,0.498,0.01,0.742,0.01l0.117-0.01c0.713,0,1.426-0.01,2.139-0.02l0.332-0.01
	c0.674-0.02,1.348-0.049,2.012-0.078l0.576-0.029c0.586-0.029,1.182-0.068,1.778-0.107l0.84-0.068
	c0.391-0.029,0.772-0.068,1.153-0.107c42.695-3.975,77.195-36.141,84.707-77.713c0.908-3.565,0.918-4.679,1.377-10.334h0.01h0.107
	l0,0l0,0c0.01-0.361,0.02-0.713,0.029-1.065v-0.029v-0.029v-0.02v-0.059v-0.02v-0.029l0,0v-0.029v-0.02v-0.078v-0.029v-0.02v-0.029
	v-0.029l0,0v-0.029v-0.02v-0.029v-0.029v-0.02v-0.029v-0.029c0.596-7.091-0.332-18.754-2.735-27.77l-0.127-0.488
	c-10.373-41.328-47.765-71.94-92.316-71.94c-45.616,0-83.74,32.117-93.009,74.978l0,0c-0.01,0.029-0.02,0.059-0.029,0.098
	l-0.156,0.576l-0.088,0.352l-0.166,0.625c-1.182,4.855-1.553,10.657-1.661,15.716c-0.039,0.938-0.049,1.885-0.049,2.833v0.176
	C160.739,257.148,160.739,258.056,160.739,258.916z"/>
<path style="fill:#FFDF81;" d="M199.264,257.744l0.01,1.397c0.01,3.555,0.273,4.337,0.772,6.466l0.039-0.01
	c4.269,25.045,24.976,44.483,50.617,46.837l0.215,0.02c0.342,0.029,0.684,0.059,1.026,0.088l0.449,0.02
	c0.283,0.02,0.576,0.039,0.869,0.059c0.186,0,0.371,0.01,0.567,0.02c0.254,0.01,0.518,0.02,0.772,0.029c0.303,0,0.606,0,0.908,0.01
	c0.147,0,0.293,0,0.44,0h0.068c0.42,0,0.85-0.01,1.27-0.01l0.205-0.01c0.4-0.01,0.801-0.029,1.192-0.049l0.342-0.01
	c0.361-0.02,0.713-0.049,1.065-0.068l0.498-0.039c0.234-0.02,0.459-0.039,0.684-0.068c25.435-2.364,45.977-21.528,50.451-46.28
	c0.547-2.12,0.557-2.784,0.82-6.154h0.01h0.059l0,0l0,0c0.01-0.215,0.01-0.43,0.02-0.635v-0.02v-0.02v-0.01v-0.029v-0.02v-0.01l0,0
	v-0.02v-0.02v-0.039v-0.02v-0.02v-0.01v-0.02l0,0v-0.01v-0.02v-0.02v-0.01v-0.02v-0.01v-0.02c0.361-4.229-0.195-11.165-1.631-16.537
	l-0.068-0.293c-6.183-24.615-28.454-42.842-54.983-42.842c-27.174,0-49.875,19.125-55.393,44.649l0,0
	c-0.01,0.02-0.01,0.039-0.02,0.059l-0.088,0.342l-0.059,0.215l-0.098,0.371c-0.703,2.891-0.928,6.339-0.987,9.358
	c-0.02,0.557-0.029,1.123-0.029,1.69v0.107C199.264,256.679,199.264,257.226,199.264,257.744z"/>
<g>
	<path style="fill:#FFFFFF;" d="M467.967,147.182c2.657,0,5.167,0.43,7.384,1.192c2.403-1.602,5.695-2.588,9.319-2.588
		c0.86,0,1.709,0.049,2.52,0.156c4.21,8.83,7.931,17.934,11.126,27.282c-1.924,1.455-4.718,2.364-7.814,2.364
		c-2.921,0-5.568-0.811-7.472-2.12c-1.905,1.309-4.552,2.12-7.472,2.12c-2.774,0-5.304-0.733-7.189-1.924
		c-1.914,1.426-4.679,2.325-7.756,2.325c-2.882,0-5.49-0.781-7.384-2.061c-0.869,0.137-1.768,0.205-2.696,0.205
		c-6.925,0-12.532-3.819-12.532-8.518c0-4.708,5.607-8.527,12.532-8.527c0.371,0,0.752,0.02,1.114,0.039
		C452.534,151.528,459.498,147.182,467.967,147.182z"/>
	<path style="fill:#FFFFFF;" d="M314.788,73.61c4.337,0,8.439,0.703,12.063,1.944c3.917-2.618,9.299-4.229,15.228-4.229
		c10.266,0,18.871,4.835,21.177,11.331c5.128,1.055,9.24,3.692,11.126,7.072c0.615-0.049,1.241-0.068,1.875-0.068
		c9.485,0,17.182,5.226,17.182,11.682c0,6.447-7.697,11.682-17.182,11.682c-2.96,0-5.743-0.508-8.166-1.407
		c-2.09,4.855-8.684,8.4-16.498,8.4c-4.767,0-9.084-1.319-12.2-3.458c-3.116,2.139-7.433,3.458-12.21,3.458
		c-4.532,0-8.664-1.192-11.741-3.145c-3.135,2.335-7.648,3.8-12.679,3.8c-4.698,0-8.957-1.28-12.053-3.36
		c-1.416,0.215-2.901,0.322-4.405,0.322c-11.311,0-20.473-6.232-20.473-13.919s9.162-13.919,20.473-13.919
		c0.615,0,1.221,0.029,1.827,0.068C289.587,80.721,300.966,73.61,314.788,73.61z"/>
</g>
<g>
	<path d="M263.438,41.328c0,0,5.792-1.241,10.637-0.313c4.855,0.928,9.914,4.952,15.394,5.265c5.48,0.313,4.337-1.758,4.337-1.758
		s-3.516,0.518-4.444-2.471c-0.928-2.999,2.891-5.382,8.781-9.504c5.89-4.132,7.023-8.264,5.89-10.852c0,0-1.035,1.651-5.89,4.239
		c-4.855,2.579-8.361,7.336-12.18,10.735c-3.829,3.419-4.034,3.624-7.648,2.901S266.955,37.704,263.438,41.328z"/>
	<path d="M149.897,85.351c0,0,5.783-1.241,10.637-0.313c4.855,0.938,9.914,4.962,15.394,5.275c5.47,0.303,4.337-1.758,4.337-1.758
		s-3.516,0.518-4.444-2.481c-0.928-2.989,2.891-5.372,8.781-9.494c5.89-4.132,7.023-8.264,5.89-10.852c0,0-1.035,1.651-5.89,4.239
		c-4.855,2.579-8.371,7.336-12.19,10.735c-3.819,3.409-4.034,3.614-7.648,2.891C161.159,82.87,153.404,81.737,149.897,85.351z"/>
</g>
<path style="fill:#B1E9F1;" d="M0.078,262.041h511.844C508.718,400.637,395.372,512,256.005,512S3.292,400.637,0.078,262.041z"/>
<path style="fill:#FFB100;" d="M425.916,284.283L425.916,284.283L425.916,284.283c-0.84-4.435,4.933-12.962,6.916-19.79
	c1.983-6.828-4.874-16.723-4.874-16.723c5.646,2.735,13.812-0.684,18.93-3.409c5.118-2.735,13.314-4.435,13.314-4.435
	c-21.499-18.774-37.606-4.444-37.606-4.444s-7.443-5.802-15.98-13.646c-4.415-4.063-13.03-10.5-22.73-16.097
	c-0.85-0.996-4.327-5.167-4.327-7.004c0-6.076,12.063-11.008,3.546-12.669c-11.438-2.237-34.266,7.111-36.981,8.254
	c-15.384,0.313-32.585,5.411-43.965,14.544c-14.036,11.262-3.79,20.131-3.79,20.131s-14.261,10.246-11.106,17.406
	c0.293,0.654,0.674,1.182,1.143,1.612l0,0c0.83,0.742,1.924,1.153,3.223,1.289l0,0c2.501,0.273,23.56-7.267,25.416-8.019
	c4.356-1.758,9.612-3.526,15.629-5.05c0.479,2.774,1.534,5.841,3.712,8.371c5.431,6.349,10.413,5.734,10.881,4.542
	c0.791-2.041-3.429-7.111-1.651-15.56c1.035-0.166,2.09-0.322,3.165-0.459c1.7,2.344,3.761,4.562,5.626,6.163
	c5.118,4.386,14.72,10.188,16.918,8.137c1.631-1.524-3.643-8.518-5.304-15.658c1.123-0.029,2.256-0.039,3.399-0.039
	c22.183,0,46.759,11.604,46.759,11.604C404.915,265.509,425.887,284.263,425.916,284.283L425.916,284.283z M314.475,234.223
	L314.475,234.223C302.627,247.927,306.895,242.994,314.475,234.223z"/>
<path style="fill:#C0EDF3;" d="M274.3,275.023c39.325,0,71.198,9.572,71.198,21.372c0,11.809-31.872,21.372-71.198,21.372
	c-39.315,0-71.188-9.563-71.188-21.372C203.112,284.595,234.985,275.023,274.3,275.023z"/>
<g>
	<path style="fill:#DFF5F9;" d="M391.201,300.028c51.301,0,92.882,2.686,92.882,5.997c0,3.302-41.582,5.988-92.882,5.988
		s-92.882-2.686-92.882-5.988C298.319,302.715,339.901,300.028,391.201,300.028z M483.869,372.789
		c-0.508,0.996-1.045,1.973-1.563,2.96c-10.217,2.813-44.541,4.874-85.322,4.874c-48.839,0-88.428-2.96-88.428-6.603
		c0-3.653,39.589-6.603,88.428-6.603C440.197,367.417,476.162,369.732,483.869,372.789z M62.67,301.562
		c28.17,0,51.008,2.168,51.008,4.855s-22.837,4.864-51.008,4.864s-51.008-2.178-51.008-4.864S34.5,301.562,62.67,301.562z
		 M167.557,361.947c62.602,0,113.346,1.797,113.346,4.005c0,2.198-50.744,3.995-113.346,3.995
		c-62.592,0-113.336-1.797-113.336-3.995C54.221,363.744,104.965,361.947,167.557,361.947z M141.458,385.487
		c46.026,0,83.329,1.631,83.329,3.643c0,2.022-37.303,3.653-83.329,3.653s-83.329-1.631-83.329-3.653
		C58.128,387.118,95.432,385.487,141.458,385.487z M263.038,408.656c51.066,0,92.462,2.012,92.462,4.493
		c0,2.481-41.396,4.493-92.462,4.493c-51.056,0-92.452-2.012-92.452-4.493C170.585,410.669,211.981,408.656,263.038,408.656z"/>
	<path style="fill:#DFF5F9;" d="M235.209,282.085c-0.332,1.524-38.505,15.13-1.387,25.631c0.4,0.107,0.801,0.215,1.221,0.332
		C235.453,308.165,214.345,297.606,235.209,282.085z"/>
	<path style="fill:#DFF5F9;" d="M255.907,301.484c2.53,0.264,14.749,18.305,43.77,2.569c0.303-0.166,0.625-0.342,0.938-0.518
		C300.927,303.359,276.517,311.965,255.907,301.484z"/>
	<path style="fill:#DFF5F9;" d="M304.356,289.049c-3.341-0.4-16.879-24.42-55.139-0.615c-0.4,0.244,10.061-3.722,9.651-3.458
		C258.447,285.24,277.182,273.196,304.356,289.049z"/>
</g>
<g>
</g>
<g>
</g>
<g>
</g>
<g>
</g>
<g>
</g>
<g>
</g>
<g>
</g>
<g>
</g>
<g>
</g>
<g>
</g>
<g>
</g>
<g>
</g>
<g>
</g>
<g>
</g>
<g>
</g>
</svg>
