<?xml version="1.0" encoding="iso-8859-1"?>
<!-- Generator: Adobe Illustrator 19.0.0, SVG Export Plug-In . SVG Version: 6.00 Build 0)  -->
<svg version="1.1" id="Layer_1" xmlns="http://www.w3.org/2000/svg" xmlns:xlink="http://www.w3.org/1999/xlink" x="0px" y="0px"
	 viewBox="0 0 511.999 511.999" style="enable-background:new 0 0 511.999 511.999;" xml:space="preserve">
<circle style="fill:#747474;" cx="255.999" cy="255.999" r="255.999"/>
<path style="fill:#FF6E40;" d="M188.187,97.156c13.85,0,27.699,0,41.55,0l-20.648-21.209L188.187,97.156z"/>
<g>
	<path style="fill:#BBBBBB;" d="M205.642,77.294h6.835c1.292,0,2.345,1.054,2.345,2.346v0.002c0,1.292-1.053,2.346-2.345,2.346
		h-6.835c-1.292,0-2.346-1.054-2.346-2.346V79.64C203.297,78.348,204.35,77.294,205.642,77.294z"/>
	<path style="fill:#BBBBBB;" d="M209.117,49.298l2.414,27.996h-4.943l2.211-28.008c-1.548-0.133-2.765-1.432-2.765-3.014
		c0-1.672,1.354-3.026,3.026-3.026c1.672,0,3.026,1.354,3.026,3.026C212.086,47.924,210.762,49.266,209.117,49.298z"/>
</g>
<path style="fill:#FFFFFF;" d="M282.822,27.114c17.028,0,30.834,13.805,30.834,30.834c0,17.029-13.806,30.834-30.834,30.834
	s-30.834-13.805-30.834-30.834C251.988,40.919,265.794,27.114,282.822,27.114z"/>
<path style="fill:#E5E5E5;" d="M255.965,73.1c-1.897-3.356-3.184-7.101-3.708-11.089c2.867,1.043,4.916,3.791,4.916,7.021
	C257.172,70.532,256.728,71.929,255.965,73.1z M276.005,37.943c-2.004,0-3.628-1.626-3.628-3.63c0-2.005,1.624-3.628,3.628-3.628
	c2.007,0,3.63,1.624,3.63,3.628C279.636,36.317,278.012,37.943,276.005,37.943z M261.048,44.669c2.231,0,4.043,1.812,4.043,4.043
	c0,2.233-1.812,4.043-4.043,4.043c-2.234,0-4.043-1.81-4.043-4.043C257.005,46.48,258.814,44.669,261.048,44.669z M274.718,54.397
	c-2.254,0-4.082-1.828-4.082-4.082c0-2.254,1.828-4.082,4.082-4.082c2.254,0,4.082,1.828,4.082,4.082
	C278.8,52.569,276.972,54.397,274.718,54.397z M293.238,41.011c-2.005,0-3.631-1.624-3.631-3.628c0-2.004,1.626-3.63,3.631-3.63
	c2.004,0,3.628,1.626,3.628,3.63C296.866,39.386,295.242,41.011,293.238,41.011z M287.454,56.355c-2.004,0-3.628-1.626-3.628-3.63
	s1.624-3.63,3.628-3.63c2.004,0,3.631,1.626,3.631,3.63S289.458,56.355,287.454,56.355z M305.435,36.991
	c3.053,3.294,5.397,7.254,6.787,11.641c-0.813,0.344-1.707,0.534-2.646,0.534c-3.75,0-6.791-3.041-6.791-6.791
	C302.785,40.182,303.823,38.232,305.435,36.991z M301.5,62.167c-2.007,0-3.63-1.626-3.63-3.63s1.624-3.628,3.63-3.628
	c2.004,0,3.628,1.624,3.628,3.628S303.504,62.167,301.5,62.167z M302.68,76.419c-2.004,0-3.63-1.626-3.63-3.63
	c0-2.005,1.626-3.628,3.63-3.628c2.004,0,3.628,1.624,3.628,3.628C306.308,74.793,304.684,76.419,302.68,76.419z M288.702,81.951
	c-2.007,0-3.63-1.624-3.63-3.628c0-2.004,1.624-3.63,3.63-3.63c2.004,0,3.628,1.626,3.628,3.63
	C292.331,80.327,290.706,81.951,288.702,81.951z M285.086,67.704c-0.946,0-1.713-0.766-1.713-1.711c0-0.944,0.767-1.711,1.713-1.711
	c0.944,0,1.711,0.768,1.711,1.711C286.796,66.938,286.029,67.704,285.086,67.704z M273.646,78.218c-2.004,0-3.628-1.624-3.628-3.628
	c0-2.005,1.624-3.631,3.628-3.631c2.005,0,3.631,1.626,3.631,3.631C277.277,76.593,275.651,78.218,273.646,78.218z M266.121,62.167
	c1.175,0,2.126,0.951,2.126,2.124c0,1.175-0.951,2.126-2.126,2.126c-1.173,0-2.124-0.951-2.124-2.126
	C263.998,63.118,264.949,62.167,266.121,62.167z"/>
<g>
	<path style="fill:#FFFFFF;" d="M225.243,62.471c0.955,0,1.729,0.774,1.729,1.732c0,0.958-0.774,1.734-1.729,1.734
		c-0.958,0-1.732-0.777-1.732-1.734C223.511,63.245,224.286,62.471,225.243,62.471z M308.572,203.354
		c0.957,0,1.736,0.776,1.736,1.734c0,0.958-0.779,1.732-1.736,1.732c-0.956,0-1.732-0.774-1.732-1.732
		C306.84,204.13,307.616,203.354,308.572,203.354z M380.266,48.185c0.958,0,1.732,0.774,1.732,1.729
		c0,0.958-0.774,1.732-1.732,1.732s-1.732-0.774-1.732-1.732C378.534,48.959,379.308,48.185,380.266,48.185z M380.263,96.952
		c0.956,0,1.73,0.776,1.73,1.731c0,0.958-0.774,1.732-1.73,1.732c-0.958,0-1.732-0.774-1.732-1.732
		C378.531,97.729,379.305,96.952,380.263,96.952z M412.737,101.717c0.958,0,1.732,0.774,1.732,1.732
		c0,0.958-0.774,1.732-1.732,1.732s-1.732-0.774-1.732-1.732C411.006,102.491,411.78,101.717,412.737,101.717z M391.927,81.385
		c0.958,0,1.732,0.774,1.732,1.73c0,0.958-0.774,1.732-1.732,1.732c-0.955,0-1.73-0.774-1.73-1.732
		C390.197,82.159,390.972,81.385,391.927,81.385z M136.085,141.905c0.958,0,1.732,0.774,1.732,1.732
		c0,0.956-0.774,1.734-1.732,1.734c-0.955,0-1.729-0.778-1.729-1.734C134.356,142.68,135.13,141.905,136.085,141.905z
		 M158.921,203.354c0.958,0,1.732,0.776,1.732,1.734c0,0.958-0.774,1.732-1.732,1.732c-0.956,0-1.734-0.774-1.734-1.732
		C157.186,204.13,157.965,203.354,158.921,203.354z M78.025,247.934c0.958,0,1.734,0.779,1.734,1.736
		c0,0.956-0.776,1.732-1.734,1.732c-0.958,0-1.732-0.776-1.732-1.732C76.293,248.712,77.067,247.934,78.025,247.934z
		 M67.199,218.923c0.958,0,1.732,0.774,1.732,1.732c0,0.955-0.774,1.734-1.732,1.734c-0.955,0-1.731-0.779-1.731-1.734
		C65.468,219.698,66.244,218.923,67.199,218.923z M110.503,252.698c0.958,0,1.732,0.774,1.732,1.732
		c0,0.958-0.774,1.734-1.732,1.734c-0.958,0-1.732-0.776-1.732-1.734C108.772,253.473,109.546,252.698,110.503,252.698z
		 M55.192,186.488c0.958,0,1.732,0.774,1.732,1.73c0,0.958-0.774,1.736-1.732,1.736c-0.956,0-1.73-0.778-1.73-1.736
		C53.462,187.262,54.236,186.488,55.192,186.488z M44.369,157.475c0.955,0,1.729,0.774,1.729,1.732c0,0.955-0.774,1.729-1.729,1.729
		c-0.958,0-1.732-0.774-1.732-1.729C42.637,158.249,43.411,157.475,44.369,157.475z M87.668,191.25c0.958,0,1.734,0.774,1.734,1.732
		s-0.776,1.732-1.734,1.732s-1.732-0.774-1.732-1.732S86.711,191.25,87.668,191.25z M126.444,198.594
		c0.955,0,1.729,0.774,1.729,1.73c0,0.957-0.774,1.731-1.729,1.731c-0.958,0-1.732-0.774-1.732-1.731
		C124.712,199.368,125.487,198.594,126.444,198.594z M115.618,169.576c0.956,0,1.732,0.779,1.732,1.736
		c0,0.955-0.776,1.732-1.732,1.732c-0.958,0-1.732-0.777-1.732-1.732C113.886,170.355,114.661,169.576,115.618,169.576z
		 M162.384,103.004c0.957,0,1.731,0.774,1.731,1.732s-0.774,1.732-1.731,1.732c-0.958,0-1.732-0.774-1.732-1.732
		S161.427,103.004,162.384,103.004z M175.781,60.201c0.956,0,1.732,0.774,1.732,1.732c0,0.955-0.776,1.734-1.732,1.734
		c-0.957,0-1.731-0.779-1.731-1.734C174.05,60.976,174.824,60.201,175.781,60.201z M128.657,106.03c0.958,0,1.736,0.774,1.736,1.732
		c0,0.957-0.779,1.734-1.736,1.734c-0.955,0-1.729-0.777-1.729-1.734C126.928,106.804,127.702,106.03,128.657,106.03z
		 M140.763,78.795c0.958,0,1.732,0.776,1.732,1.732c0,0.958-0.774,1.736-1.732,1.736c-0.955,0-1.729-0.779-1.729-1.736
		C139.033,79.571,139.808,78.795,140.763,78.795z M103.611,137.141c0.958,0,1.732,0.778,1.732,1.736c0,0.956-0.774,1.73-1.732,1.73
		c-0.958,0-1.732-0.774-1.732-1.73C101.879,137.92,102.654,137.141,103.611,137.141z M92.785,108.128
		c0.958,0,1.732,0.777,1.732,1.732c0,0.958-0.774,1.736-1.732,1.736c-0.957,0-1.734-0.779-1.734-1.736
		C91.052,108.905,91.828,108.128,92.785,108.128z M404.841,246.081c0.958,0,1.732,0.774,1.732,1.732s-0.774,1.734-1.732,1.734
		c-0.955,0-1.732-0.777-1.732-1.734S403.887,246.081,404.841,246.081z M394.016,217.068c0.958,0,1.732,0.777,1.732,1.732
		c0,0.958-0.774,1.732-1.732,1.732c-0.956,0-1.73-0.774-1.73-1.732C392.286,217.845,393.061,217.068,394.016,217.068z
		 M437.318,250.845c0.955,0,1.734,0.774,1.734,1.732c0,0.955-0.779,1.729-1.734,1.729c-0.955,0-1.732-0.774-1.732-1.729
		C435.586,251.619,436.363,250.845,437.318,250.845z M298.927,260.042c0.958,0,1.732,0.774,1.732,1.729
		c0,0.958-0.774,1.732-1.732,1.732c-0.955,0-1.729-0.774-1.729-1.732C297.198,260.816,297.973,260.042,298.927,260.042z
		 M288.105,231.029c0.955,0,1.729,0.774,1.729,1.732c0,0.955-0.774,1.729-1.729,1.729c-0.958,0-1.732-0.774-1.732-1.729
		C286.373,231.804,287.147,231.029,288.105,231.029z M331.406,264.804c0.958,0,1.732,0.774,1.732,1.732s-0.774,1.732-1.732,1.732
		c-0.955,0-1.734-0.774-1.734-1.732S330.452,264.804,331.406,264.804z M276.097,198.594c0.955,0,1.732,0.774,1.732,1.73
		c0,0.957-0.777,1.731-1.732,1.731c-0.958,0-1.732-0.774-1.732-1.731C274.365,199.368,275.14,198.594,276.097,198.594z
		 M265.272,169.576c0.958,0,1.732,0.779,1.732,1.736c0,0.955-0.774,1.732-1.732,1.732c-0.958,0-1.734-0.777-1.734-1.732
		C263.537,170.355,264.314,169.576,265.272,169.576z M242.996,42.119c0.958,0,1.732,0.774,1.732,1.732
		c0,0.958-0.774,1.734-1.732,1.734c-0.956,0-1.732-0.776-1.732-1.734C241.264,42.893,242.04,42.119,242.996,42.119z"/>
	<path style="fill:#FFFFFF;" d="M347.789,43.42c0.958,0,1.732,0.774,1.732,1.732c0,0.955-0.774,1.732-1.732,1.732
		s-1.732-0.777-1.732-1.732C346.057,44.195,346.832,43.42,347.789,43.42z"/>
	<path style="fill:#FFFFFF;" d="M359.451,76.621c0.958,0,1.732,0.776,1.732,1.731c0,0.958-0.774,1.734-1.732,1.734
		s-1.732-0.777-1.732-1.734C357.719,77.397,358.493,76.621,359.451,76.621z"/>
</g>
<path style="fill:#C9CDD2;" d="M328.664,39.329c3.752,0,7.296,0.892,10.43,2.474c3.397-3.324,8.044-5.371,13.173-5.371
	c8.881,0,16.325,6.146,18.316,14.415c4.434,1.333,7.996,4.682,9.62,8.983c0.534-0.057,1.074-0.089,1.622-0.089
	c8.207,0,14.862,6.654,14.862,14.861c0,8.208-6.655,14.86-14.862,14.86c-2.554,0-4.959-0.646-7.06-1.783
	c-1.805,6.176-7.506,10.683-14.264,10.683c-4.13,0-7.866-1.684-10.557-4.403c-2.693,2.719-6.43,4.403-10.56,4.403
	c-3.924,0-7.493-1.521-10.147-4.006c-2.719,2.971-6.624,4.836-10.968,4.836c-4.064,0-7.747-1.632-10.429-4.275
	c-1.228,0.27-2.501,0.412-3.812,0.412c-9.774,0-17.7-7.926-17.7-17.702c0-9.777,7.926-17.7,17.7-17.7
	c0.536,0,1.062,0.025,1.587,0.071C306.869,48.377,316.71,39.329,328.664,39.329z"/>
<g>
	<path style="fill:#BBC2CA;" d="M396.664,75.409c-0.419,7.832-6.901,14.053-14.839,14.053c-2.554,0-4.959-0.646-7.06-1.783
		c-1.805,6.176-7.506,10.683-14.264,10.683c-4.13,0-7.866-1.684-10.557-4.403c-2.693,2.719-6.43,4.403-10.56,4.403
		c-3.924,0-7.493-1.521-10.147-4.006c-2.719,2.971-6.624,4.836-10.968,4.836c-4.064,0-7.747-1.632-10.429-4.275
		c-1.228,0.27-2.501,0.412-3.812,0.412c-9.774,0-17.7-7.926-17.7-17.702c0-1.056,0.092-2.091,0.27-3.1
		c-0.026,0.385-0.039,0.772-0.039,1.161c0,9.777,7.926,17.702,17.702,17.702c1.308,0,2.584-0.142,3.809-0.412
		c2.685,2.643,6.366,4.274,10.43,4.274c4.343,0,8.251-1.864,10.967-4.835c2.655,2.485,6.224,4.006,10.15,4.006
		c4.128,0,7.864-1.684,10.558-4.403c2.694,2.719,6.427,4.405,10.557,4.405c6.758,0,12.461-4.51,14.266-10.685
		c2.098,1.136,4.504,1.782,7.058,1.782C389.327,87.524,395.377,82.304,396.664,75.409z"/>
	<path style="fill:#BBC2CA;" d="M389.563,66.42c8.675,10.157-3.837,21.642-11.934,14.882c-7.293-6.091,0.215-16.9,7.408-12.697
		c6.377,3.727,1.626,12.548-3.715,9.994c-3.736-1.789-2.238-6.655,0.655-6.121c1.533,0.284,1.068,1.855,2.378,1.571
		c1.365-3.994-6.347-4.812-6.739,0.77c-0.472,6.762,10.745,7.852,11.63-0.398c0.857-7.994-11.423-11.323-14.992-2.568
		c-3.702,9.08,8.553,17.006,16.046,9.454c8.716-8.782-1.622-23.687-14.293-18.446c-1.34,0.554-4.356,2.337-4.611,3.866
		c0.245,0.208,2.435-1.51,2.999-1.851C379.457,61.812,385.284,62.238,389.563,66.42z"/>
	<path style="fill:#BBC2CA;" d="M291.932,67.898c-10.262,13.027,4.538,27.76,14.112,19.088c8.627-7.809-0.254-21.676-8.761-16.284
		c-7.541,4.781-1.922,16.094,4.395,12.818c4.418-2.292,2.646-8.534-0.776-7.85c-1.81,0.364-1.26,2.38-2.811,2.016
		c-1.615-5.127,7.509-6.173,7.969,0.987c0.559,8.675-12.706,10.071-13.753-0.513c-1.014-10.253,13.51-14.523,17.732-3.292
		c4.375,11.646-10.118,21.811-18.98,12.124c-10.306-11.265,1.92-30.383,16.908-23.66c1.585,0.713,5.154,2.997,5.454,4.959
		c-0.291,0.268-2.879-1.936-3.549-2.375C303.882,61.986,296.99,62.533,291.932,67.898z"/>
	<path style="fill:#BBC2CA;" d="M320.581,45.349c12.262-5.015,20.32,9.586,11.556,15.033c-7.893,4.906-16.588-4.959-10.578-10.308
		c5.328-4.739,12.781,2.064,8.876,6.194c-2.733,2.888-7.135,0.154-5.857-2.323c0.675-1.31,2.105-0.444,2.164-1.715
		c-3.58-2.366-6.391,4.409-0.994,6.338c6.537,2.336,10.527-7.543,2.629-10.674c-7.649-3.033-14.119,7.181-6.425,12.891
		c7.981,5.921,18.973-2.974,13.483-11.907c-6.384-10.393-23.752-5.207-21.885,7.779c0.199,1.374,1.168,4.616,2.609,5.278
		c0.27-0.163-0.855-2.637-1.042-3.246C313.416,53.227,315.352,48.055,320.581,45.349z"/>
	<path style="fill:#BBC2CA;" d="M361.544,42.192c-12.642-5.172-20.953,9.886-11.916,15.503c8.141,5.06,17.109-5.115,10.91-10.628
		c-5.497-4.891-13.18,2.125-9.153,6.384c2.817,2.98,7.358,0.16,6.038-2.394c-0.696-1.351-2.169-0.458-2.231-1.768
		c3.69-2.442,6.59,4.544,1.023,6.535c-6.741,2.408-10.855-7.778-2.712-11.009c7.889-3.127,14.564,7.408,6.627,13.295
		c-8.23,6.107-19.565-3.067-13.904-12.28c6.584-10.716,24.493-5.367,22.567,8.024c-0.204,1.416-1.203,4.76-2.689,5.443
		c-0.28-0.167,0.88-2.719,1.077-3.346C368.936,50.315,366.938,44.983,361.544,42.192z"/>
	<path style="fill:#BBC2CA;" d="M341.669,68.363c-18.643-1.929-19.947,17.28-5.48,20.79c13.029,3.161,18.039-10.828,7.131-15.08
		c-9.671-3.768-14.976,6.332-7.488,9.843c5.238,2.456,9.16-2.038,6.02-4.476c-1.661-1.287-2.944,0.144-3.801-1.289
		c3.102-3.821,10.817,3.058,5.141,6.94c-6.877,4.705-17.988-5.358-9.873-11.394c7.864-5.846,22.336,3.83,16.053,12.752
		c-6.514,9.254-25.923,2.492-24.416-9.433c1.752-13.872,26.99-13.336,32.563,2.101c0.588,1.633,1.34,5.644-0.085,6.849
		c-0.442-0.103-0.529-3.282-0.659-4.036C355.593,75.15,349.969,69.834,341.669,68.363z"/>
</g>
<path style="fill:#747474;" d="M374.44,449.825c11.845,4.922,21.986,9.957,29.153,15.347l-0.176,0.126l-0.09,0.062l-0.089,0.061
	l-0.09,0.065l-0.089,0.061l-0.087,0.062l-0.09,0.062l-0.089,0.064l-0.09,0.062l-0.03,0.02
	C393.558,460.586,383.903,455.263,374.44,449.825z"/>
<path style="fill:#64B3F5;" d="M40.736,312.768c-1.099,0.829,1.828-0.873-3.683,2.746c-5.28,3.466-18.951-4.879-30.078,0.023
	c26.839,112.669,128.14,196.462,249.024,196.462c60.78,0,116.6-21.195,160.507-56.576c-42.152-23.231-91.742-65.769-110.745-75.057
	c-17.438-8.524-50.334-11.785-84.923-20.3c-34.586-8.514-70.869-22.278-97.285-29.585c-22.283-6.162-40.134-8.32-48.146-12.044
	C56.019,315.954,47.481,313.909,40.736,312.768z"/>
<path style="fill:#B9DDF9;" d="M167.453,351.012c26.693,20.086,66.49,67.31,69.312,92.106c4.746,41.664-4.67,39.598,28.312,68.703
	c-3.014,0.105-6.037,0.179-9.078,0.179l-0.109-0.003c-32.028-27.272-22.954-26.699-26.345-69.197
	c-2.181-27.32-42.232-71.736-65.846-94.44C164.796,348.937,166.058,349.837,167.453,351.012z M403.604,465.179
	c-1.894,1.338-3.811,2.648-5.742,3.935c-36.916-26.26-179.826-57.132-172.367-101.112
	C234.307,416.546,364.101,435.456,403.604,465.179z M327.441,501.884c-1.335,0.387-2.675,0.758-4.019,1.124
	c-4.341-3.108-8.908-6.821-13.735-11.423c-0.985-0.894-1.931-1.817-2.834-2.776C314.277,494.047,321.115,498.278,327.441,501.884z
	 M153.173,490.49c-0.669-0.293-1.345-0.577-2.011-0.877c3.214-1.617,6.421-3.225,9.584-4.829
	C158.144,486.798,155.62,488.692,153.173,490.49z M133.346,480.75c-2.181-1.193-4.339-2.424-6.478-3.676
	c35.255-9.557,61.05-23.468,48.388-45.066c-24.851-42.388-57.664-70.998-124.66-87.88c67.005,10.551,106.207,47.278,130.189,86.194
	C195.68,454.493,169.707,470.104,133.346,480.75z M53.339,325.517c0.146,0.025,30.156,8.622,30.305,8.652
	c44.133,17.936,29.865,10.046,74.156,35.718c1.281,1.572,2.057,2.836,2.211,3.688C144.189,359.757,74.17,336.801,53.339,325.517z"/>
<path style="fill:#B1703D;" d="M70.445,304.689l414.168,6.75c2.21,29.95-3.841,60.859-16.839,88.42
	c-18.792,27.612-42.843,51.345-70.711,69.782c-21.916-12.511-46.128-25.471-63.842-39.703
	c-19.079-15.329-24.736-33.718-41.701-43.089c-16.962-9.373-48.059-12.005-81.115-20.741c-33.056-8.739-68.07-23.577-93.373-31.196
	c-25.302-7.618-40.894-8.015-47.347-12.857C64.384,318.075,65.252,311.095,70.445,304.689z"/>
<path style="fill:#E6A150;" d="M73.056,299.415l433.296,7.335c-8.902,27.737-15.746,49.363-23.493,67.94
	c-19.096,36.425-46.703,67.678-80.183,91.13c-22.702-13.032-48.756-26.622-66.845-41.158
	c-19.395-15.581-24.737-33.716-41.698-43.086c-16.964-9.374-48.062-12.006-81.118-20.742c-33.056-8.739-68.068-23.579-93.37-31.196
	c-25.305-7.618-40.895-8.015-47.348-12.857C66.998,312.802,67.866,305.822,73.056,299.415z"/>
<path style="fill:#7FC583;" d="M70.75,293.348l436.782,6.655l-0.013,0.091l-0.138,0.836l-0.137,0.832l-0.042,0.233l-0.849,4.755
	c-0.099,1.574-0.239,3.157-0.404,4.744c-12.761,57.726-45.004,108.119-89.476,143.952c-22.29-11.694-46.007-22.909-64.57-36.849
	c-19.853-14.907-26.468-33.716-44.617-43.089c-18.149-9.374-51.422-12.006-86.789-20.742c-35.368-8.737-72.83-23.577-99.903-31.196
	c-27.073-7.618-43.753-8.015-50.657-12.857C64.265,306.734,65.193,299.754,70.75,293.348z"/>
<path style="fill:#66B96A;" d="M179.958,295.013l328.31,4.682c-8.044,46.77-28.766,89.204-58.514,123.625
	c-13.615-7.355-25.714-13.581-39.206-24.083c-14.657-11.41-21.587-28.505-36.391-36.428c-14.804-7.924-41.943-10.15-70.792-17.537
	c-28.848-7.385-59.405-19.933-81.487-26.372c-22.081-6.441-35.69-6.775-41.32-10.871
	C176.403,305.007,176.592,299.938,179.958,295.013z"/>
<polygon style="fill:#785448;" points="321.527,300.664 325.366,300.726 325.366,311.155 321.527,311.093 "/>
<path style="fill:#7CB142;" d="M320.448,304.256c1.679,0.563,3.358-0.078,5.319-0.582c1.961-0.501,4.199-0.866,4.68-2.597
	c0.479-1.73-0.8-4.827-1.679-9.387c-0.882-4.561-1.361-10.585-2.282-15.512c-0.919-4.93-2.279-8.762-3.319-10.15
	c-1.04-1.388-1.759-0.33-2.641,2.531c-0.88,2.859-1.919,7.523-2.998,11.851c-1.082,4.327-2.199,8.32-2.561,11.557
	c-0.359,3.237,0.042,5.717,1.082,7.839C317.088,301.929,318.767,303.695,320.448,304.256z"/>
<path style="fill:#ADD37F;" d="M330.55,300.057c-0.053-1.823-1.056-4.595-1.782-8.367c-0.882-4.561-1.361-10.585-2.282-15.512
	c-0.776-4.167-1.869-7.548-2.815-9.335c-0.955,1.56-1.91,3.118-1.986,4.13c-0.078,1.012,0.721,1.477,1.152,1.743
	c0.428,0.266,0.49,0.334,0.689,1.113c0.2,0.781,0.541,2.275,0.369,3.216c-0.169,0.942-0.85,1.331-1.51,1.647
	c-0.66,0.314-1.299,0.555-1.67,1.024c-0.369,0.472-0.47,1.173-0.33,1.634c0.14,0.462,0.52,0.685,1.091,1.003
	c0.57,0.319,1.331,0.733,1.099,1.047c-0.229,0.314-1.45,0.527-2.16,0.843c-0.71,0.314-0.909,0.729-0.969,1.111
	c-0.059,0.385,0.021,0.735,0.499,0.994c0.481,0.259,1.361,0.423,1.531,0.852c0.169,0.431-0.369,1.122-1.2,1.711
	c-0.83,0.589-1.949,1.072-2.728,1.503c-0.781,0.428-1.221,0.806-1.301,1.507c-0.08,0.701,0.199,1.725,1.07,2.114
	c0.871,0.392,2.329,0.147,3.551-0.075c1.219-0.222,2.199-0.424,2.618-0.25c0.421,0.174,0.282,0.724-0.129,1.209
	c-0.41,0.485-1.09,0.909-2.1,1.345c-1.01,0.435-2.35,0.882-3.09,1.496c-0.74,0.614-0.88,1.397-0.621,2.162
	c0.261,0.765,0.921,1.512,2.08,1.849c1.161,0.337,2.822,0.261,5.461-0.305C326.635,301.133,328.523,300.63,330.55,300.057z"/>
<polygon style="fill:#785448;" points="337.768,299.844 342.067,299.915 342.067,311.593 337.768,311.521 "/>
<path style="fill:#7CB142;" d="M336.56,303.866c1.881,0.63,3.761-0.087,5.956-0.65c2.195-0.564,4.703-0.971,5.239-2.91
	c0.538-1.938-0.894-5.403-1.881-10.509c-0.985-5.108-1.521-11.851-2.552-17.372c-1.031-5.518-2.554-9.808-3.718-11.361
	c-1.163-1.555-1.97-0.371-2.954,2.834c-0.985,3.202-2.151,8.422-3.361,13.269c-1.209,4.844-2.462,9.316-2.865,12.94
	c-0.403,3.624,0.046,6.4,1.209,8.778C332.797,301.259,334.679,303.236,336.56,303.866z"/>
<path style="fill:#ADD37F;" d="M347.869,299.164c-0.057-2.041-1.179-5.145-1.995-9.366c-0.985-5.108-1.521-11.851-2.552-17.372
	c-0.87-4.664-2.094-8.45-3.154-10.45c-1.068,1.748-2.137,3.493-2.224,4.625c-0.084,1.134,0.811,1.654,1.292,1.952
	c0.481,0.297,0.547,0.373,0.772,1.248c0.224,0.872,0.605,2.545,0.414,3.598c-0.19,1.054-0.953,1.492-1.69,1.844
	c-0.74,0.353-1.457,0.621-1.872,1.148c-0.412,0.526-0.524,1.312-0.369,1.827c0.156,0.518,0.582,0.768,1.221,1.125
	c0.639,0.357,1.489,0.82,1.233,1.171c-0.259,0.353-1.624,0.591-2.419,0.944c-0.795,0.353-1.02,0.815-1.086,1.246
	c-0.067,0.429,0.022,0.822,0.559,1.113c0.538,0.289,1.523,0.472,1.713,0.953c0.191,0.481-0.414,1.258-1.345,1.915
	c-0.927,0.659-2.183,1.2-3.055,1.682c-0.873,0.481-1.365,0.905-1.455,1.688c-0.092,0.786,0.222,1.932,1.198,2.369
	c0.973,0.437,2.607,0.165,3.974-0.085c1.365-0.249,2.462-0.474,2.932-0.279c0.472,0.195,0.314,0.809-0.144,1.354
	c-0.458,0.545-1.221,1.019-2.352,1.505c-1.129,0.487-2.629,0.987-3.459,1.674c-0.829,0.689-0.985,1.566-0.694,2.423
	c0.291,0.855,1.031,1.691,2.329,2.069c1.299,0.376,3.157,0.293,6.114-0.342C343.489,300.368,345.602,299.807,347.869,299.164z"/>
<polygon style="fill:#785448;" points="352.038,302.069 355.664,302.125 355.664,311.977 352.038,311.918 "/>
<path style="fill:#7CB142;" d="M351.019,305.461c1.587,0.531,3.173-0.076,5.023-0.55c1.851-0.474,3.967-0.82,4.421-2.453
	c0.454-1.635-0.756-4.558-1.587-8.867c-0.829-4.306-1.283-9.996-2.153-14.653c-0.868-4.655-2.153-8.276-3.136-9.586
	c-0.981-1.31-1.661-0.312-2.492,2.391c-0.832,2.701-1.814,7.106-2.834,11.195c-1.022,4.086-2.077,7.859-2.419,10.914
	c-0.339,3.058,0.039,5.399,1.022,7.406C347.844,303.261,349.431,304.929,351.019,305.461z"/>
<path style="fill:#ADD37F;" d="M360.559,301.493c-0.05-1.723-0.994-4.339-1.684-7.903c-0.829-4.306-1.283-9.996-2.153-14.653
	c-0.733-3.933-1.763-7.128-2.66-8.815c-0.902,1.473-1.802,2.946-1.876,3.901c-0.073,0.955,0.683,1.392,1.088,1.644
	c0.405,0.253,0.462,0.317,0.653,1.054c0.187,0.738,0.508,2.147,0.348,3.036c-0.16,0.891-0.801,1.257-1.424,1.555
	c-0.623,0.297-1.228,0.524-1.578,0.969c-0.351,0.444-0.444,1.107-0.312,1.544c0.133,0.435,0.491,0.646,1.029,0.948
	c0.538,0.3,1.258,0.69,1.04,0.987c-0.218,0.295-1.37,0.497-2.041,0.795c-0.669,0.297-0.859,0.687-0.916,1.051
	c-0.055,0.362,0.02,0.694,0.474,0.939c0.451,0.243,1.283,0.398,1.443,0.804c0.163,0.406-0.348,1.06-1.134,1.615
	c-0.783,0.557-1.839,1.012-2.577,1.418c-0.737,0.408-1.152,0.763-1.228,1.424c-0.075,0.662,0.188,1.629,1.01,1.998
	s2.201,0.14,3.353-0.071c1.152-0.211,2.078-0.401,2.474-0.236c0.396,0.165,0.266,0.683-0.121,1.143
	c-0.387,0.458-1.031,0.859-1.984,1.269c-0.955,0.412-2.219,0.834-2.918,1.413c-0.701,0.58-0.832,1.32-0.586,2.044
	c0.245,0.721,0.869,1.427,1.965,1.743c1.095,0.319,2.664,0.25,5.156-0.286C356.864,302.51,358.647,302.036,360.559,301.493z"/>
<polygon style="fill:#785448;" points="367.85,301.91 371.689,301.972 371.689,312.401 367.85,312.339 "/>
<path style="fill:#7CB142;" d="M366.771,305.502c1.679,0.564,3.358-0.078,5.319-0.582c1.961-0.502,4.199-0.866,4.68-2.598
	c0.481-1.729-0.799-4.826-1.679-9.387c-0.879-4.561-1.36-10.585-2.281-15.512c-0.919-4.93-2.279-8.762-3.319-10.15
	c-1.04-1.388-1.759-0.33-2.639,2.532c-0.882,2.858-1.922,7.522-3.001,11.851c-1.081,4.327-2.199,8.319-2.561,11.556
	c-0.359,3.237,0.042,5.718,1.082,7.839C363.411,303.174,365.09,304.941,366.771,305.502z"/>
<path style="fill:#ADD37F;" d="M376.873,301.303c-0.053-1.823-1.054-4.595-1.783-8.367c-0.879-4.561-1.36-10.585-2.281-15.512
	c-0.777-4.167-1.869-7.548-2.815-9.334c-0.955,1.56-1.91,3.12-1.986,4.13c-0.078,1.012,0.721,1.477,1.152,1.743
	c0.431,0.266,0.49,0.334,0.689,1.113c0.199,0.781,0.541,2.275,0.371,3.216c-0.172,0.941-0.85,1.331-1.512,1.647
	c-0.659,0.314-1.299,0.554-1.67,1.024c-0.369,0.472-0.47,1.173-0.33,1.633c0.14,0.463,0.52,0.685,1.09,1.006
	c0.57,0.316,1.331,0.731,1.1,1.045c-0.229,0.314-1.45,0.527-2.16,0.843c-0.708,0.314-0.909,0.729-0.969,1.111
	c-0.059,0.384,0.02,0.735,0.499,0.994c0.481,0.259,1.36,0.424,1.53,0.852c0.172,0.431-0.369,1.122-1.2,1.711
	c-0.829,0.588-1.949,1.072-2.728,1.502c-0.781,0.429-1.221,0.807-1.301,1.508c-0.08,0.701,0.199,1.725,1.07,2.114
	c0.871,0.392,2.329,0.146,3.551-0.076c1.221-0.222,2.199-0.423,2.62-0.249c0.419,0.174,0.28,0.723-0.131,1.209
	c-0.41,0.485-1.09,0.909-2.1,1.344c-1.01,0.435-2.35,0.882-3.09,1.496c-0.739,0.613-0.879,1.397-0.618,2.162
	c0.259,0.766,0.918,1.512,2.079,1.849c1.159,0.336,2.82,0.263,5.459-0.305C372.961,302.38,374.846,301.876,376.873,301.303z"/>
<polygon style="fill:#785448;" points="382.526,303.56 385.928,303.617 385.928,312.855 382.526,312.797 "/>
<path style="fill:#7CB142;" d="M381.571,306.741c1.488,0.499,2.976-0.069,4.711-0.515c1.736-0.444,3.72-0.768,4.146-2.3
	c0.426-1.532-0.708-4.276-1.488-8.315c-0.779-4.041-1.205-9.376-2.018-13.741c-0.816-4.366-2.021-7.763-2.941-8.991
	c-0.921-1.23-1.56-0.293-2.339,2.242c-0.779,2.534-1.699,6.663-2.657,10.498c-0.958,3.832-1.949,7.369-2.268,10.237
	c-0.318,2.865,0.037,5.062,0.958,6.943C378.596,304.679,380.082,306.244,381.571,306.741z"/>
<path style="fill:#ADD37F;" d="M390.518,303.023c-0.046-1.617-0.932-4.07-1.578-7.412c-0.779-4.041-1.205-9.376-2.018-13.741
	c-0.69-3.69-1.657-6.686-2.495-8.269c-0.845,1.381-1.693,2.763-1.761,3.66c-0.067,0.896,0.641,1.308,1.022,1.542
	c0.381,0.236,0.435,0.295,0.611,0.987c0.177,0.692,0.479,2.013,0.328,2.85c-0.151,0.834-0.754,1.177-1.337,1.457
	c-0.584,0.28-1.152,0.493-1.48,0.909s-0.415,1.038-0.291,1.446c0.123,0.41,0.46,0.607,0.964,0.891
	c0.507,0.282,1.18,0.648,0.976,0.925c-0.204,0.278-1.285,0.468-1.915,0.747c-0.628,0.277-0.804,0.644-0.859,0.985
	c-0.052,0.339,0.018,0.651,0.444,0.88c0.424,0.229,1.205,0.376,1.354,0.756c0.151,0.381-0.328,0.994-1.063,1.514
	c-0.735,0.522-1.727,0.951-2.416,1.331c-0.692,0.381-1.082,0.715-1.152,1.335c-0.071,0.621,0.176,1.528,0.948,1.874
	c0.77,0.346,2.063,0.131,3.142-0.066c1.082-0.197,1.949-0.376,2.321-0.222c0.373,0.153,0.249,0.641-0.115,1.072
	c-0.362,0.431-0.964,0.807-1.86,1.191c-0.894,0.385-2.083,0.779-2.737,1.324s-0.779,1.239-0.55,1.917
	c0.231,0.676,0.816,1.338,1.845,1.635c1.028,0.298,2.497,0.234,4.835-0.27C387.055,303.976,388.725,303.53,390.518,303.023z"/>
<polygon style="fill:#785448;" points="399.394,301.72 403.614,301.789 403.614,313.249 399.394,313.18 "/>
<path style="fill:#7CB142;" d="M398.208,305.667c1.847,0.619,3.692-0.084,5.846-0.639c2.153-0.552,4.616-0.953,5.143-2.854
	c0.527-1.901-0.88-5.303-1.847-10.314c-0.966-5.012-1.493-11.632-2.506-17.047c-1.01-5.417-2.503-9.63-3.646-11.153
	c-1.143-1.525-1.936-0.361-2.902,2.781c-0.967,3.143-2.11,8.267-3.296,13.022c-1.186,4.755-2.417,9.144-2.813,12.701
	c-0.396,3.555,0.044,6.281,1.187,8.615C394.515,303.11,396.361,305.051,398.208,305.667z"/>
<path style="fill:#ADD37F;" d="M409.308,301.054c-0.057-2.004-1.159-5.049-1.959-9.194c-0.966-5.012-1.493-11.632-2.506-17.047
	c-0.854-4.579-2.052-8.294-3.094-10.257c-1.049,1.714-2.098,3.427-2.183,4.54c-0.085,1.111,0.795,1.622,1.267,1.912
	c0.474,0.293,0.54,0.369,0.758,1.225c0.22,0.859,0.594,2.499,0.408,3.532c-0.188,1.035-0.935,1.464-1.659,1.81
	c-0.726,0.348-1.43,0.612-1.837,1.127c-0.406,0.518-0.515,1.287-0.362,1.796c0.154,0.506,0.57,0.752,1.198,1.102
	c0.625,0.351,1.461,0.804,1.207,1.15c-0.252,0.344-1.592,0.58-2.373,0.925c-0.779,0.346-0.998,0.802-1.065,1.221
	c-0.067,0.421,0.023,0.809,0.549,1.093c0.527,0.286,1.494,0.468,1.682,0.937c0.188,0.472-0.408,1.235-1.32,1.88
	c-0.911,0.646-2.141,1.178-2.998,1.649c-0.857,0.474-1.343,0.887-1.43,1.659c-0.087,0.77,0.22,1.895,1.175,2.323
	c0.958,0.429,2.561,0.16,3.901-0.082c1.343-0.245,2.419-0.467,2.879-0.275c0.463,0.193,0.309,0.795-0.142,1.329
	c-0.451,0.536-1.198,1.001-2.309,1.477c-1.109,0.479-2.582,0.969-3.395,1.645c-0.813,0.676-0.967,1.535-0.68,2.375
	c0.284,0.841,1.01,1.661,2.283,2.032c1.276,0.369,3.1,0.289,6.002-0.334C405.009,302.235,407.082,301.683,409.308,301.054z"/>
<polygon style="fill:#785448;" points="414.174,303.156 418.013,303.218 418.013,313.648 414.174,313.586 "/>
<path style="fill:#7CB142;" d="M413.095,306.748c1.679,0.563,3.36-0.078,5.319-0.582c1.961-0.501,4.201-0.865,4.68-2.597
	c0.481-1.73-0.799-4.827-1.679-9.387c-0.88-4.561-1.361-10.585-2.281-15.512c-0.919-4.93-2.279-8.762-3.319-10.15
	s-1.759-0.33-2.639,2.531c-0.88,2.859-1.922,7.523-3.001,11.852c-1.079,4.327-2.199,8.319-2.561,11.556
	c-0.359,3.237,0.041,5.717,1.081,7.839C409.734,304.421,411.416,306.187,413.095,306.748z"/>
<path style="fill:#ADD37F;" d="M423.196,302.549c-0.052-1.823-1.053-4.595-1.782-8.367c-0.88-4.561-1.361-10.585-2.281-15.512
	c-0.777-4.167-1.867-7.548-2.815-9.335c-0.956,1.56-1.909,3.12-1.986,4.13c-0.078,1.012,0.721,1.477,1.152,1.743
	c0.431,0.266,0.491,0.334,0.69,1.113c0.202,0.781,0.541,2.275,0.371,3.216c-0.169,0.942-0.85,1.331-1.51,1.647
	c-0.66,0.314-1.301,0.555-1.67,1.024c-0.371,0.472-0.472,1.173-0.332,1.634c0.142,0.462,0.522,0.685,1.09,1.005
	c0.57,0.317,1.331,0.731,1.1,1.045c-0.229,0.314-1.448,0.527-2.158,0.843c-0.71,0.313-0.912,0.728-0.971,1.111
	c-0.059,0.385,0.02,0.735,0.499,0.994c0.481,0.259,1.36,0.423,1.53,0.852c0.172,0.431-0.369,1.122-1.2,1.711
	c-0.829,0.589-1.949,1.072-2.728,1.503c-0.781,0.428-1.221,0.807-1.301,1.507c-0.08,0.701,0.202,1.725,1.07,2.114
	c0.87,0.392,2.329,0.147,3.55-0.075c1.221-0.222,2.199-0.424,2.621-0.25c0.419,0.174,0.28,0.724-0.131,1.209
	c-0.41,0.485-1.09,0.909-2.1,1.345c-1.01,0.435-2.35,0.882-3.09,1.496c-0.74,0.614-0.88,1.397-0.619,2.162
	c0.259,0.765,0.919,1.512,2.08,1.849c1.159,0.337,2.82,0.263,5.458-0.305C419.284,303.626,421.169,303.122,423.196,302.549z"/>
<polygon style="fill:#785448;" points="423.561,304.664 426.962,304.721 426.962,313.959 423.561,313.901 "/>
<path style="fill:#7CB142;" d="M422.605,307.845c1.489,0.5,2.976-0.069,4.712-0.515c1.736-0.444,3.72-0.768,4.146-2.3
	c0.424-1.533-0.708-4.277-1.489-8.315c-0.779-4.041-1.205-9.376-2.018-13.743c-0.815-4.366-2.02-7.761-2.941-8.989
	c-0.921-1.23-1.56-0.293-2.339,2.24c-0.779,2.536-1.702,6.666-2.657,10.498c-0.958,3.834-1.949,7.371-2.268,10.239
	c-0.319,2.865,0.034,5.062,0.958,6.943C419.63,305.783,421.117,307.348,422.605,307.845z"/>
<path style="fill:#ADD37F;" d="M431.552,304.127c-0.046-1.617-0.932-4.07-1.578-7.412c-0.779-4.041-1.205-9.376-2.018-13.743
	c-0.689-3.688-1.656-6.684-2.494-8.267c-0.848,1.382-1.693,2.763-1.761,3.658c-0.069,0.898,0.641,1.308,1.022,1.544
	c0.38,0.236,0.435,0.295,0.611,0.987c0.177,0.692,0.479,2.013,0.328,2.848c-0.151,0.836-0.754,1.18-1.338,1.459
	c-0.584,0.28-1.152,0.493-1.479,0.909c-0.328,0.417-0.415,1.038-0.292,1.446c0.124,0.41,0.461,0.607,0.965,0.889
	c0.506,0.284,1.177,0.65,0.973,0.927c-0.202,0.278-1.283,0.468-1.912,0.747c-0.628,0.277-0.807,0.644-0.859,0.985
	c-0.053,0.339,0.018,0.651,0.444,0.88c0.424,0.229,1.205,0.376,1.354,0.756c0.151,0.38-0.328,0.994-1.063,1.514
	c-0.735,0.522-1.727,0.948-2.416,1.331c-0.692,0.38-1.082,0.715-1.153,1.335c-0.071,0.621,0.177,1.528,0.948,1.874
	c0.77,0.346,2.062,0.128,3.143-0.067c1.081-0.197,1.949-0.376,2.321-0.222c0.373,0.154,0.249,0.641-0.115,1.072
	c-0.362,0.431-0.964,0.807-1.86,1.192c-0.893,0.384-2.082,0.779-2.737,1.324c-0.656,0.545-0.779,1.239-0.55,1.915
	c0.231,0.678,0.816,1.34,1.844,1.638c1.026,0.297,2.497,0.233,4.836-0.27C428.087,305.078,429.759,304.634,431.552,304.127z"/>
<polygon style="fill:#785448;" points="445.056,303.988 448.895,304.05 448.895,314.478 445.056,314.417 "/>
<path style="fill:#7CB142;" d="M443.977,307.58c1.679,0.561,3.361-0.08,5.319-0.582c1.961-0.504,4.202-0.868,4.68-2.598
	c0.481-1.729-0.8-4.826-1.679-9.387c-0.88-4.56-1.361-10.585-2.279-15.514c-0.921-4.927-2.282-8.762-3.322-10.147
	c-1.04-1.388-1.759-0.33-2.639,2.528c-0.88,2.861-1.92,7.525-3.001,11.852c-1.079,4.329-2.199,8.322-2.559,11.559
	c-0.362,3.237,0.039,5.715,1.079,7.839C440.617,305.252,442.298,307.018,443.977,307.58z"/>
<path style="fill:#ADD37F;" d="M454.078,303.381c-0.053-1.826-1.054-4.595-1.782-8.368c-0.88-4.56-1.361-10.585-2.279-15.514
	c-0.779-4.165-1.87-7.548-2.818-9.332c-0.955,1.56-1.908,3.118-1.986,4.13s0.721,1.475,1.152,1.743
	c0.431,0.266,0.49,0.332,0.689,1.113c0.202,0.781,0.541,2.273,0.371,3.216c-0.169,0.941-0.849,1.331-1.51,1.645
	c-0.659,0.316-1.301,0.557-1.67,1.026c-0.371,0.47-0.47,1.171-0.33,1.633c0.14,0.463,0.52,0.685,1.088,1.004
	c0.57,0.319,1.331,0.733,1.101,1.047c-0.231,0.314-1.45,0.527-2.16,0.841c-0.71,0.316-0.911,0.731-0.971,1.113
	c-0.059,0.382,0.021,0.735,0.502,0.994c0.479,0.259,1.358,0.424,1.528,0.853c0.171,0.428-0.369,1.122-1.198,1.711
	c-0.832,0.589-1.951,1.07-2.73,1.5c-0.781,0.431-1.221,0.809-1.301,1.51c-0.08,0.699,0.202,1.725,1.072,2.114
	c0.868,0.39,2.329,0.146,3.548-0.075c1.221-0.222,2.201-0.424,2.62-0.25c0.419,0.174,0.28,0.724-0.131,1.209
	c-0.41,0.485-1.09,0.909-2.1,1.345c-1.008,0.435-2.348,0.88-3.09,1.496c-0.74,0.614-0.88,1.397-0.619,2.162
	c0.259,0.765,0.919,1.512,2.08,1.846c1.159,0.337,2.82,0.264,5.458-0.302C450.166,304.455,452.051,303.953,454.078,303.381z"/>
<polygon style="fill:#785448;" points="458.243,307.88 460.79,307.921 460.79,314.836 458.243,314.795 "/>
<path style="fill:#7CB142;" d="M457.528,310.262c1.113,0.371,2.229-0.053,3.528-0.387c1.301-0.332,2.786-0.575,3.103-1.723
	c0.319-1.147-0.531-3.2-1.113-6.223c-0.584-3.026-0.902-7.021-1.512-10.29c-0.611-3.268-1.512-5.809-2.204-6.73
	c-0.689-0.919-1.165-0.218-1.75,1.679c-0.582,1.897-1.273,4.989-1.988,7.859c-0.717,2.871-1.459,5.518-1.697,7.665
	c-0.241,2.146,0.025,3.791,0.715,5.197C455.299,308.718,456.415,309.889,457.528,310.262z"/>
<path style="fill:#ADD37F;" d="M464.228,307.476c-0.037-1.21-0.701-3.046-1.182-5.548c-0.584-3.026-0.902-7.021-1.512-10.29
	c-0.516-2.763-1.239-5.005-1.869-6.189c-0.632,1.035-1.265,2.068-1.318,2.739c-0.05,0.671,0.479,0.978,0.766,1.157
	c0.284,0.177,0.325,0.22,0.458,0.738c0.131,0.518,0.357,1.507,0.245,2.132c-0.115,0.623-0.564,0.882-1.001,1.093
	c-0.437,0.208-0.864,0.367-1.109,0.681c-0.245,0.311-0.312,0.774-0.218,1.081c0.092,0.307,0.344,0.456,0.721,0.667
	c0.378,0.211,0.882,0.485,0.731,0.694c-0.154,0.206-0.962,0.348-1.434,0.557c-0.47,0.209-0.603,0.483-0.642,0.738
	c-0.041,0.254,0.011,0.488,0.33,0.659c0.319,0.172,0.903,0.282,1.015,0.566c0.112,0.284-0.245,0.745-0.795,1.134
	c-0.55,0.389-1.295,0.71-1.812,0.996c-0.515,0.284-0.809,0.536-0.861,0.999c-0.053,0.465,0.133,1.146,0.71,1.404
	c0.577,0.259,1.544,0.096,2.355-0.05c0.809-0.149,1.457-0.282,1.736-0.165c0.279,0.114,0.185,0.479-0.087,0.801
	c-0.27,0.321-0.722,0.603-1.393,0.891c-0.669,0.289-1.558,0.584-2.048,0.992c-0.49,0.408-0.584,0.928-0.412,1.434
	c0.174,0.506,0.612,1.001,1.382,1.225c0.767,0.222,1.869,0.174,3.619-0.202C461.633,308.188,462.884,307.857,464.228,307.476z"/>
<path style="fill:#E5E5E5;" d="M188.187,161.944c20.785,0,20.765,0,41.55,0l10.401,145.445h-62.355L188.187,161.944z"/>
<path style="fill:#484A49;" d="M236.513,313.556c2.666,0.274,7.064,1.127,10.477,0.779c3.411-0.351,5.837-1.904,5.958-3.551
	c0.121-1.647-2.062-3.392-4.469-4.675c-2.407-1.285-5.039-2.108-7.758-1.691c-2.719,0.419-5.525,2.083-6.996,3.866
	c-1.473,1.785-1.612,3.695-1.214,4.497C232.91,313.583,233.844,313.281,236.513,313.556z"/>
<path style="fill:#65696A;" d="M236.062,307.731c0.572-0.845,2.164-1.991,4.226-2.304c2.062-0.314,4.588,0.204,6.217,0.902
	c1.629,0.701,2.355,1.581,2.321,2.224c-0.035,0.644-0.832,1.051-2.296,1.093c-1.461,0.041-3.591-0.284-5.395-0.342
	c-1.8-0.059-3.273,0.149-4.233-0.018C235.94,309.116,235.491,308.576,236.062,307.731z"/>
<path style="fill:#99BE29;" d="M246.498,306.235c-0.607-0.69-1.553-1.847-2.422-2.518c-0.87-0.671-1.661-0.854-1.92-1.037
	c-0.257-0.185,0.018-0.371,0.637-0.342c0.616,0.03,1.576,0.278,2.318,0.845c0.745,0.568,1.271,1.457,1.301,1.333
	c0.03-0.126-0.437-1.265-0.934-2.048c-0.497-0.785-1.026-1.214-0.971-1.345c0.055-0.128,0.69,0.042,1.205,0.676
	c0.516,0.634,0.912,1.734,1.186,2.178c0.275,0.444,0.431,0.239,0.575-0.286c0.144-0.522,0.275-1.363,0.719-1.901
	c0.444-0.538,1.198-0.776,1.791-0.781c0.594-0.007,1.026,0.22,1.164,0.369c0.137,0.146-0.018,0.216-0.505,0.353
	c-0.485,0.137-1.3,0.344-1.855,0.871c-0.555,0.527-0.847,1.374-0.909,1.759c-0.064,0.387,0.103,0.312,0.275,0.188
	c0.171-0.121,0.346-0.291,0.868-0.6c0.525-0.307,1.4-0.754,2.252-0.941c0.849-0.186,1.676-0.113,2.174,0.156
	c0.499,0.27,0.667,0.733,0.648,0.893c-0.018,0.161-0.222,0.016-0.557-0.174c-0.337-0.192-0.804-0.431-1.635-0.293
	c-0.834,0.137-2.032,0.648-2.65,1.235c-0.616,0.586-0.653,1.246-0.827,1.684s-0.485,0.653-0.772,0.648
	C247.366,307.151,247.103,306.927,246.498,306.235z"/>
<path style="fill:#FF3C00;" d="M231.506,186.667l2.162,30.261h-49.413l2.164-30.261H231.506z M235.697,245.298l2.165,30.261h-57.802
	l2.164-30.261H235.697z"/>
<path style="fill:#484A49;" d="M215.645,312.053c1.977,0.204,5.241,0.836,7.77,0.577c2.531-0.259,4.329-1.411,4.421-2.634
	c0.089-1.221-1.531-2.515-3.315-3.466c-1.787-0.953-3.739-1.565-5.757-1.256c-2.016,0.312-4.098,1.544-5.188,2.868
	c-1.093,1.324-1.196,2.739-0.9,3.335C212.972,312.073,213.666,311.849,215.645,312.053z"/>
<path style="fill:#65696A;" d="M215.311,307.733c0.424-0.627,1.606-1.477,3.134-1.711c1.528-0.231,3.404,0.153,4.611,0.671
	c1.209,0.52,1.748,1.173,1.723,1.649c-0.025,0.477-0.617,0.779-1.702,0.811c-1.085,0.03-2.666-0.211-4.002-0.255
	c-1.335-0.044-2.428,0.11-3.14-0.014C215.222,308.762,214.887,308.359,215.311,307.733z"/>
<polygon style="fill:#EDEDED;" points="161.452,269.003 161.452,307.985 109.147,307.985 109.147,269.024 135.141,249.348 "/>
<polygon style="fill:#F9F9F9;" points="156.49,271.447 156.49,307.859 114.446,307.859 114.446,271.447 135.332,255.64 "/>
<path style="fill:#BBBBBB;" d="M124.98,285.273c4.655-4.56,9.36-4.837,14.127,0v22.712H124.98
	C124.98,300.415,124.98,292.844,124.98,285.273z"/>
<path style="fill:#747474;" d="M128.235,285.273c4.655-4.56,9.359-4.837,14.129,0v22.712h-14.129
	C128.235,300.415,128.235,292.844,128.235,285.273z"/>
<polygon style="fill:#DFDFDF;" points="161.452,273.699 215.964,276.265 215.964,307.967 161.452,307.985 "/>
<polygon style="fill:#E54A18;" points="161.452,273.699 215.964,276.265 215.964,279.377 161.452,279.396 "/>
<polygon style="fill:#F3501E;" points="135.141,249.348 179.362,249.4 215.964,276.265 171.491,276.285 "/>
<polygon style="fill:#FF7042;" points="108.165,276.116 135.162,255.764 162.897,276.285 171.29,276.285 171.29,276.15 
	135.141,249.348 99.813,276.003 99.813,276.116 "/>
<g>
	<path style="fill:#747474;" d="M172.389,287.244h7.569c0.694,0,1.26,0.566,1.26,1.26v5.269c0,0.694-0.566,1.26-1.26,1.26h-7.569
		c-0.694,0-1.26-0.566-1.26-1.26v-5.269C171.129,287.809,171.695,287.244,172.389,287.244z"/>
	<path style="fill:#747474;" d="M194.141,287.244h6.62c0.955,0,1.734,0.779,1.734,1.734v4.32c0,0.955-0.779,1.734-1.734,1.734h-6.62
		c-0.956,0-1.734-0.779-1.734-1.734v-4.32C192.407,288.022,193.185,287.244,194.141,287.244z"/>
</g>
<path style="fill:#F3F3F3;" d="M188.187,161.944c13.85,0,27.699,0,41.55,0V96.673h-41.55
	C188.187,118.429,188.187,140.188,188.187,161.944z"/>
<path style="fill:#BBBBBB;" d="M175.876,133.039c24.141,5.282,46.364,4.808,67.142,0c2.367-0.545,4.412,1.986,4.412,4.414
	c0,7.671,0,15.34,0,23.012c0,2.428-2.073,3.766-4.412,4.414c-22.801,6.301-45.182,6.301-67.142,0
	c-2.332-0.671-4.412-1.986-4.412-4.414c0-7.672,0-15.341,0-23.012C171.464,135.025,173.505,132.521,175.876,133.039z
	 M235.835,139.017l6.068-1.152v18.281l-6.068,1.155V139.017z M177.284,137.913l6.455,1.228v18.281l-6.455-1.228V137.913z
	 M189.392,140.002l6.456,0.735v18.281l-6.456-0.733V140.002z M201.501,141.159l6.455,0.224v18.282l-6.455-0.222V141.159z
	 M213.611,141.349l6.448-0.302v18.283l-6.448,0.303V141.349z M225.719,140.545l6.315-0.824v18.281l-6.315,0.824V140.545z"/>
<path style="fill:#FFEF76;" d="M195.282,133.396c9.121,0,18.24,0,27.359,0v-29.629h-27.359
	C195.282,113.644,195.282,123.519,195.282,133.396z"/>
<g>
	<polygon style="fill:#FFFFFF;" points="202.504,175.003 215.428,175.003 215.428,183.829 202.504,183.829 	"/>
	<polygon style="fill:#FFFFFF;" points="202.504,226.7 215.428,226.7 215.428,235.526 202.504,235.526 	"/>
</g>
<path style="fill:#FFF9CE;" d="M222.641,103.767c74.919,9.275,177.709,21.773,259.312,31.822
	c19.168,35.891,30.046,76.88,30.046,120.411c0,5.433-0.191,10.819-0.522,16.168l-288.836-138.77V103.767z"/>
<path style="fill:#EDEDED;" d="M227.561,135.762c5.243-0.637,10.393-1.551,15.457-2.724c2.367-0.545,4.412,1.986,4.412,4.414v7.864
	l-5.527-2.657v-4.794l-6.068,1.152v0.724L227.561,135.762z"/>
<path style="fill:#F1EAE3;" d="M271.651,92.456c0.115,0,0.206,0.092,0.206,0.206s-0.092,0.206-0.206,0.206s-0.206-0.091-0.206-0.206
	S271.536,92.456,271.651,92.456z"/>
<g>
	<polygon style="fill:#FFFFFF;" points="177.284,137.913 177.284,156.194 183.739,157.422 183.739,139.141 	"/>
	<polygon style="fill:#FFFFFF;" points="235.835,139.741 235.835,157.301 241.903,156.146 241.903,142.659 	"/>
	<polygon style="fill:#FFFFFF;" points="195.848,159.019 195.848,140.738 189.392,140.002 189.392,158.286 	"/>
	<polygon style="fill:#FFFFFF;" points="201.501,141.159 201.501,159.443 207.956,159.665 207.956,141.383 	"/>
	<polygon style="fill:#FFFFFF;" points="213.611,141.349 213.611,159.633 220.059,159.33 220.059,141.047 	"/>
	<polygon style="fill:#FFFFFF;" points="225.719,140.545 225.719,158.826 229.737,158.302 232.034,158.002 232.034,139.721 
		229.737,140.021 	"/>
</g>
<path style="fill:#484A49;" d="M103.719,310.992c1.979,0.204,5.241,0.838,7.772,0.577c2.531-0.258,4.329-1.411,4.418-2.632
	c0.09-1.223-1.527-2.515-3.315-3.467c-1.784-0.953-3.738-1.565-5.754-1.253c-2.018,0.309-4.098,1.544-5.19,2.867
	c-1.093,1.324-1.194,2.739-0.898,3.336C101.048,311.013,101.74,310.789,103.719,310.992z"/>
<path style="fill:#65696A;" d="M103.384,306.672c0.423-0.628,1.606-1.477,3.136-1.709c1.528-0.233,3.404,0.151,4.611,0.671
	c1.207,0.518,1.748,1.171,1.72,1.647c-0.025,0.479-0.616,0.781-1.701,0.811c-1.086,0.03-2.664-0.211-4.002-0.255
	c-1.335-0.041-2.428,0.112-3.14-0.014C103.295,307.701,102.96,307.297,103.384,306.672z"/>
<path style="fill:#ADB2BA;" d="M101.559,133.151c2.586,0,5.028,0.616,7.188,1.704c2.341-2.288,5.544-3.702,9.078-3.702
	c6.121,0,11.252,4.235,12.624,9.934c3.058,0.921,5.511,3.227,6.632,6.194c0.366-0.041,0.74-0.061,1.118-0.061
	c5.656,0,10.241,4.585,10.241,10.241c0,5.658-4.585,10.242-10.241,10.242c-1.761,0-3.418-0.444-4.866-1.228
	c-1.244,4.256-5.174,7.364-9.831,7.364c-2.847,0-5.422-1.161-7.277-3.035c-1.855,1.874-4.43,3.035-7.277,3.035
	c-2.703,0-5.163-1.049-6.993-2.763c-1.874,2.048-4.566,3.333-7.559,3.333c-2.801,0-5.34-1.125-7.188-2.946
	c-0.845,0.185-1.725,0.284-2.627,0.284c-6.737,0-12.2-5.463-12.2-12.2c0-6.737,5.463-12.2,12.2-12.2c0.369,0,0.733,0.018,1.093,0.05
	C86.537,139.388,93.319,133.151,101.559,133.151z"/>
<g>
	<path style="fill:#97A2AE;" d="M148.425,158.018c-0.291,5.397-4.758,9.685-10.228,9.685c-1.761,0-3.418-0.444-4.866-1.228
		c-1.244,4.256-5.174,7.364-9.831,7.364c-2.847,0-5.422-1.161-7.277-3.035c-1.855,1.874-4.43,3.035-7.277,3.035
		c-2.703,0-5.163-1.049-6.993-2.763c-1.874,2.048-4.566,3.333-7.559,3.333c-2.801,0-5.34-1.125-7.188-2.946
		c-0.845,0.185-1.725,0.284-2.627,0.284c-6.737,0-12.2-5.463-12.2-12.2c0-0.728,0.064-1.443,0.188-2.135
		c-0.018,0.264-0.028,0.532-0.028,0.799c0,6.737,5.463,12.2,12.2,12.2c0.903,0,1.783-0.099,2.627-0.284
		c1.849,1.821,4.387,2.946,7.186,2.946c2.994,0,5.688-1.285,7.56-3.333c1.832,1.713,4.29,2.763,6.995,2.763
		c2.848,0,5.422-1.161,7.277-3.035c1.856,1.874,4.43,3.035,7.278,3.035c4.657,0,8.587-3.108,9.831-7.364
		c1.448,0.783,3.104,1.228,4.866,1.228C143.367,166.367,147.536,162.771,148.425,158.018z"/>
	<path style="fill:#97A2AE;" d="M143.53,151.822c5.978,7-2.643,14.916-8.226,10.257c-5.026-4.197,0.149-11.648,5.106-8.751
		c4.396,2.57,1.12,8.65-2.561,6.888c-2.575-1.233-1.542-4.586,0.454-4.217c1.053,0.195,0.733,1.278,1.637,1.082
		c0.942-2.753-4.375-3.317-4.645,0.531c-0.325,4.662,7.405,5.411,8.015-0.274c0.592-5.509-7.873-7.804-10.333-1.769
		c-2.55,6.256,5.896,11.719,11.061,6.514c6.006-6.054-1.12-16.325-9.855-12.713c-0.923,0.381-3.003,1.608-3.177,2.664
		c0.169,0.144,1.679-1.04,2.066-1.276C136.564,148.647,140.582,148.94,143.53,151.822z"/>
	<path style="fill:#97A2AE;" d="M76.24,152.841c-7.071,8.979,3.127,19.131,9.729,13.155c5.944-5.381-0.177-14.94-6.038-11.222
		c-5.2,3.294-1.326,11.091,3.028,8.832c3.047-1.58,1.823-5.882-0.535-5.408c-1.246,0.249-0.869,1.637-1.936,1.388
		c-1.113-3.532,5.174-4.256,5.493,0.681c0.384,5.979-8.759,6.941-9.481-0.353c-0.698-7.066,9.314-10.01,12.223-2.27
		c3.014,8.026-6.975,15.033-13.082,8.358c-7.103-7.765,1.324-20.94,11.652-16.307c1.093,0.488,3.551,2.064,3.759,3.418
		c-0.199,0.183-1.986-1.335-2.444-1.638C84.477,148.766,79.729,149.144,76.24,152.841z"/>
	<path style="fill:#97A2AE;" d="M95.988,137.302c8.448-3.459,14.003,6.606,7.962,10.36c-5.441,3.381-11.433-3.42-7.289-7.103
		c3.672-3.269,8.808,1.42,6.116,4.267c-1.883,1.99-4.918,0.106-4.036-1.601c0.468-0.903,1.45-0.307,1.491-1.182
		c-2.466-1.631-4.402,3.037-0.685,4.368c4.508,1.61,7.257-5.199,1.814-7.357c-5.273-2.089-9.733,4.95-4.428,8.885
		c5.497,4.079,13.075-2.05,9.291-8.207c-4.401-7.161-16.369-3.587-15.083,5.362c0.137,0.946,0.806,3.182,1.8,3.638
		c0.185-0.112-0.592-1.816-0.722-2.236C91.047,142.73,92.382,139.166,95.988,137.302z"/>
	<path style="fill:#97A2AE;" d="M124.22,135.125c-8.714-3.566-14.442,6.812-8.212,10.683c5.609,3.489,11.789-3.526,7.518-7.325
		c-3.789-3.369-9.085,1.466-6.309,4.4c1.942,2.055,5.071,0.11,4.162-1.649c-0.481-0.931-1.496-0.317-1.539-1.219
		c2.545-1.684,4.542,3.131,0.708,4.503c-4.647,1.661-7.483-5.362-1.869-7.587c5.435-2.155,10.035,5.106,4.565,9.163
		c-5.671,4.208-13.485-2.112-9.581-8.464c4.538-7.385,16.882-3.7,15.554,5.532c-0.14,0.976-0.83,3.28-1.853,3.75
		c-0.193-0.115,0.607-1.874,0.742-2.307C129.314,140.724,127.937,137.047,124.22,135.125z"/>
	<path style="fill:#97A2AE;" d="M110.52,153.162c-12.849-1.329-13.746,11.911-3.777,14.328c8.981,2.18,12.434-7.463,4.916-10.393
		c-6.666-2.595-10.321,4.364-5.161,6.785c3.613,1.693,6.313-1.407,4.151-3.086c-1.146-0.888-2.032,0.101-2.621-0.888
		c2.137-2.632,7.456,2.107,3.544,4.783c-4.74,3.244-12.399-3.692-6.806-7.852c5.42-4.029,15.395,2.639,11.064,8.789
		c-4.49,6.377-17.867,1.718-16.827-6.501c1.207-9.561,18.602-9.192,22.444,1.448c0.406,1.124,0.923,3.889-0.06,4.721
		c-0.305-0.071-0.364-2.263-0.453-2.783C120.117,157.839,116.241,154.176,110.52,153.162z"/>
</g>
<g>
</g>
<g>
</g>
<g>
</g>
<g>
</g>
<g>
</g>
<g>
</g>
<g>
</g>
<g>
</g>
<g>
</g>
<g>
</g>
<g>
</g>
<g>
</g>
<g>
</g>
<g>
</g>
<g>
</g>
</svg>
