<?xml version="1.0" encoding="iso-8859-1"?>
<!-- Generator: Adobe Illustrator 19.0.0, SVG Export Plug-In . SVG Version: 6.00 Build 0)  -->
<svg version="1.1" id="Layer_1" xmlns="http://www.w3.org/2000/svg" xmlns:xlink="http://www.w3.org/1999/xlink" x="0px" y="0px"
	 viewBox="0 0 512 512" style="enable-background:new 0 0 512 512;" xml:space="preserve">
<path style="fill:#B1E9F1;" d="M256.005,0C397.384,0,512,114.616,512,256.005C512,397.384,397.384,512,256.005,512
	C114.616,512,0,397.384,0,256.005C0,114.616,114.616,0,256.005,0z"/>
<path style="fill:#FFFFFF;" d="M212.059,35.096c2.071,0,4.034,0.498,5.763,1.367c1.875-1.836,4.444-2.969,7.277-2.969
	c4.903,0,9.016,3.399,10.119,7.961c2.452,0.742,4.425,2.598,5.314,4.972c0.303-0.039,0.596-0.049,0.899-0.049
	c4.532,0,8.215,3.673,8.215,8.215c0,4.532-3.682,8.205-8.215,8.205c-1.416,0-2.745-0.361-3.897-0.987
	c-0.996,3.419-4.151,5.91-7.883,5.91c-2.286,0-4.347-0.928-5.831-2.442c-1.494,1.514-3.555,2.442-5.841,2.442
	c-2.168,0-4.132-0.85-5.607-2.217c-1.494,1.641-3.653,2.667-6.056,2.667c-2.247,0-4.288-0.899-5.763-2.354
	c-0.684,0.147-1.387,0.225-2.11,0.225c-5.402,0-9.778-4.376-9.778-9.778s4.376-9.787,9.778-9.787c0.293,0,0.586,0.02,0.879,0.039
	C200.016,40.097,205.456,35.096,212.059,35.096z"/>
<path style="fill:#FFFF00;" d="M269.856,30.329c19.116,0,34.607,15.492,34.607,34.607c0,19.106-15.492,34.607-34.607,34.607
	s-34.607-15.502-34.607-34.607C235.248,45.821,250.74,30.329,269.856,30.329z"/>
<path style="fill:#FFFFFF;" d="M143.44,317.845c-5.822,1.182-11.956,1.817-18.295,1.817c-37.528,0-67.955-22.124-67.955-49.415
	c0-22.427,20.561-41.367,48.722-47.393c1.788-4.454,4.669-8.557,8.43-12.151c-13.489-6.74-22.329-18.031-22.329-30.837
	c0-20.649,23.023-37.391,51.428-37.391c14.476,0,27.545,4.337,36.893,11.34c8.127-3.907,17.856-6.183,28.327-6.183
	c8.801,0,17.084,1.602,24.332,4.444c6.3-15.482,25.992-26.774,49.318-26.774c27.184,0,49.445,15.335,51.31,34.754
	c2.813-0.342,5.695-0.527,8.645-0.527c28.405,0,51.428,16.742,51.428,37.401c0,2.501-0.342,4.943-0.987,7.306
	c1.612-0.107,3.243-0.166,4.894-0.166c28.405,0,51.428,16.742,51.428,37.401c0,5.568-1.67,10.852-4.669,15.589
	c14.661,6.593,24.439,18.383,24.439,31.843c0,20.649-23.033,37.391-51.437,37.391c-11.936,0-22.925-2.95-31.648-7.912H143.44
	V317.845z"/>
<path style="fill:#8FC9F7;" d="M0.039,253.221h511.932c0,0.928,0.029,1.856,0.029,2.784C512,397.384,397.384,512,256.005,512
	C114.616,512,0,397.384,0,256.005C0,255.077,0.029,254.149,0.039,253.221z"/>
<path style="fill:#B9DDF9;" d="M381.209,329.234c51.301,0,92.882,2.227,92.882,4.972c0,2.745-41.582,4.972-92.882,4.972
	s-92.882-2.227-92.882-4.972C288.327,331.461,329.908,329.234,381.209,329.234z M474.286,389.795l-1.358,2.168
	c-9.377,2.403-44.287,4.19-85.937,4.19c-48.829,0-88.418-2.452-88.418-5.48c0-3.028,39.589-5.48,88.418-5.48
	C431.025,385.194,467.527,387.187,474.286,389.795z M13.118,337.088c-0.547-1.641-1.094-3.282-1.602-4.933
	c9.279-1.006,24.263-1.661,41.162-1.661c28.17,0,51.008,1.807,51.008,4.044c0,2.227-22.837,4.034-51.008,4.034
	C36.717,338.572,22.476,337.996,13.118,337.088z M157.575,380.652c62.592,0,113.336,1.485,113.336,3.321
	c0,1.827-50.744,3.311-113.336,3.311c-62.602,0-113.346-1.485-113.346-3.311C44.229,382.137,94.973,380.652,157.575,380.652z
	 M131.465,400.198c46.026,0,83.339,1.358,83.339,3.028c0,1.67-37.313,3.028-83.339,3.028c-46.016,0-83.329-1.358-83.329-3.028
	C48.136,401.555,85.449,400.198,131.465,400.198z M253.055,419.44c51.056,0,92.452,1.67,92.452,3.731
	c0,2.061-41.396,3.731-92.452,3.731c-51.066,0-92.462-1.67-92.462-3.731C160.593,421.11,201.989,419.44,253.055,419.44z"/>
<path style="fill:#FFFFFF;" d="M338.201,63.305c2.081,0,4.034,0.488,5.763,1.358c1.875-1.827,4.444-2.969,7.277-2.969
	c4.913,0,9.025,3.399,10.129,7.971c2.442,0.733,4.415,2.588,5.314,4.962c0.293-0.029,0.596-0.049,0.899-0.049
	c4.532,0,8.205,3.682,8.205,8.215s-3.673,8.215-8.205,8.215c-1.416,0-2.745-0.361-3.907-0.987c-0.996,3.409-4.151,5.9-7.883,5.9
	c-2.276,0-4.347-0.928-5.831-2.432c-1.485,1.504-3.555,2.432-5.831,2.432c-2.168,0-4.142-0.84-5.616-2.217
	c-1.494,1.641-3.653,2.676-6.056,2.676c-2.247,0-4.278-0.899-5.763-2.364c-0.674,0.156-1.377,0.234-2.1,0.234
	c-5.402,0-9.787-4.386-9.787-9.787c0-5.402,4.386-9.778,9.787-9.778c0.293,0,0.586,0.01,0.869,0.039
	C326.157,68.297,331.598,63.305,338.201,63.305z"/>
<path style="fill:#5C4036;" d="M241.041,247.976l-6.818,18.012l-16.879,15.746c0,0,13.958,2.921,10.549,7.463
	c-3.409,4.542-16.723,12.014-16.723,12.014l-13.792-0.488l-2.588,10.383c0,0-3.575,0.654-17.211,4.874l-3.731,5.675l-25.807,0.488
	l1.143,8.273l-31.97-0.811c0,0-6.017,9.406-10.881,9.406c-4.864,0-28.727-1.621-28.727-1.621l-8.596,6.496
	c0,0-32.302-0.811-34.9,0.811c-2.588,1.621-5.187,8.273-5.187,8.273l-9.035,2.12C7.218,324.927,0.156,291.833,0.01,257.099
	c1.963-2.315,3.214-3.428,3.429-2.803c1.289,3.897,171.386-3.253,171.386-3.253L241.041,247.976z"/>
<g>
	<path style="fill:#3E2622;" d="M23.208,299.403c0,0,12.268-18.119,23.501-16.283L7.14,273.919l-6.369,2.071
		c0.684,8.83,1.817,17.533,3.37,26.09C11.936,301.152,23.208,299.403,23.208,299.403z"/>
	<path style="fill:#3E2622;" d="M191.996,256.064c0,0-11.36,17.69-11.36,22.72c0,5.03,0.059-14.945,0.059-14.945l-24.859,0.762
		c0,0,18.793-16.332,25.445-12.923C187.933,255.087,191.996,256.064,191.996,256.064z"/>
</g>
<path style="fill:#54892E;" d="M0.361,242.428c3.429,1.446,5.802,2.286,5.802,1.836c0-0.811-3.018-4.972-5.372-8.508
	c0.098-1.25,0.225-2.501,0.342-3.751c6.759,3.839,22.144,11.37,18.022,9.006c-4.552-2.588-9.094-15.58-4.22-12.649
	c4.864,2.921,15.902,9.729,15.902,9.729s19.799-13.958,18.823-9.729c-0.967,4.22-6.808,9.406-6.808,9.406
	s26.608-14.281,29.528-10.383c2.93,3.897-5.314,3.331-6.085,4.62c-0.772,1.299,4.181,4.708,10.833,1.621
	c6.662-3.077,21.098-6.808,18.344-3.409c-2.764,3.409-1.621,6.33,3.087,4.874c4.698-1.465,15.58,4.22,12.493-0.322
	c-3.087-4.552-11.36-12.014-6.818-9.094s9.416,5.196,10.881,7.795c1.455,2.598,16.058-14.281,14.114-9.25
	c-1.954,5.03-10.061,12.327-8.439,12.327s11.36-3.077,16.879-4.376s6.652,1.299,3.575,3.087c-3.087,1.788,1.778,0,19.79-1.465
	c18.022-1.465,18.989,2.276,17.367,5.353c-1.621,3.087,13.47-6.163,21.421-6.163s8.273,1.944,8.273,1.944s-8.273-0.322-9.895,2.598
	s11.682,2.266,11.682,2.266c7.59,0.44,11.604,1.69,17.094,0.615c8.273-1.612,20.288,4.22,21.431,9.25c0,0-1.123-1.797-6.154-1.797
	c2.11,2.432,4.366,7.492,4.532,12.522c0,0-5.538-5.919-7.16-8.684c-1.621-2.755,3.204,7.756,3.204,7.756
	c-12.513-11.458-14.642-5.304-23.697-4.562c-7.951,0.645-6.163-0.654-10.549-0.654s3.976,1.377-3.487,3.165
	c-7.472,1.788-12.18-0.166-23.619,2.022c-11.438,2.198-12.171,3.897-12.171,3.897s18.989-2.921,10.305,1.055
	c-8.684,3.985-22.642,6.984-32.292,7.795c-9.66,0.811-11.038,2.755-12.014,2.676c-0.967-0.088-0.244-3.087-4.142-3.575
	c-3.888-0.488-3.643,6.173-14.036,6.662c-10.383,0.479-10.139,0.156-12.415-3.253c-2.276-3.409-21.587,2.51-29.538,5.109
	s-9.905,0.156-18.178-2.432c-8.273-2.598-24.185-6.164-20.776-1.788c3.409,4.376,16.723,8.928,7.14,7.306
	c-9.572-1.621-43.652-0.488-39.267,4.054c4.376,4.542,40.566,12.005,31.97,13.958c-3.634,0.821-16.478,4.19-30.583,7.99
	C1.895,291.814,0,274.134,0,256.005C0,251.443,0.117,246.921,0.361,242.428z"/>
<path style="fill:#B1E3FB;" d="M226.145,298.319c-1.192-0.059-4.229-0.781-7.023-1.983c-2.579-1.104-5.587-0.176-5.587-0.176
	s-1.582,4.63-6.613,4.894c-5.03,0.273-8.156-5.011-9.953-1.416c-1.807,3.604-1.26,9.846-7.384,10.569
	c-6.124,0.723-11.35,1.797-14.955,6.486c-3.595,4.679-3.595,0.957-10.559,2.882c-6.964,1.914-14.974-1.026-16.517,0.42
	c-3.057,2.842-2.911,8.547-8.342,8.703c-4.083,0.117-11.204,0.928-15.863,1.065c-4.669,0.137-8.625-1.905-9.826,0.615
	c-1.201,2.52-2.608,5.275-7.424,5.997c-4.825,0.723-10.862,2.549-16.195,1.817c-5.323-0.733-10.354-1.993-12.815-0.4
	c-9.768,6.3-2.559,4.708-14.359,4.708c-5.997,0-18.588-3.233-25.435-0.869c-6.242,2.159-17.68,10.432-18.149,10.471l-0.449,0.068
	c0.86,2.11,1.739,4.21,2.657,6.29c0.938-0.205,1.944-0.352,3.077-0.352c4.806,0,2.647-6.486,10.09-6.486
	c13.323,0,16.586-8.684,30.73-4.562c11.526,3.37,9.367-2.159,14.652-2.159c5.284,0,14.652-0.234,23.296-0.957
	s12.483-1.68,15.843-5.05c3.36-3.36,7.209-1.914,18.012-3.36c10.803-1.436,18.735-4.806,20.893-6.964s1.807,0.244,11.292-1.914
	c9.485-2.168,5.519-4.571,13.45-6.847c7.922-2.276,6.955-0.479,13.802-2.764c6.847-2.276,6.964-8.879,7.687-10.803
	c0.723-1.924,11.165-4.327,16.332-3.966C225.666,302.636,226.145,298.319,226.145,298.319z"/>
<path style="fill:#DFF3FD;" d="M336.423,283.179c5.968,0,10.803,1.084,10.803,2.413c0,1.338-4.835,2.422-10.803,2.422
	s-10.803-1.084-10.803-2.422C325.62,284.263,330.455,283.179,336.423,283.179z M431.582,274.544
	c7.287,2.94,16.088,7.844,16.791,14.564c1.035,10.002-39.96,17.426-57.445,19.272l-0.195,0.068
	c24.273-1.7,109.722-9.563,44.248-32.849l-1.944-0.674l-1.602-0.547L431.582,274.544z M241.265,274.544
	c-7.277,2.94-16.078,7.844-16.781,14.564c-1.045,10.002,39.96,17.426,57.435,19.272l0.205,0.068
	c-24.273-1.7-109.732-9.563-44.248-32.849l1.934-0.674l1.602-0.547L241.265,274.544z M336.423,271.702
	c54.553,0,98.782,6.154,98.782,13.743s-44.229,13.734-98.782,13.734s-98.772-6.144-98.772-13.734S281.87,271.702,336.423,271.702z
	 M336.423,277.133c45.967,0,83.222,3.722,83.222,8.312c0,4.591-37.254,8.312-83.222,8.312c-45.958,0-83.212-3.722-83.212-8.312
	C253.211,280.854,290.466,277.133,336.423,277.133z M336.423,279.702c35.33,0,63.96,2.569,63.96,5.743
	c0,3.165-28.629,5.734-63.96,5.734c-35.32,0-63.96-2.569-63.96-5.734C272.464,282.271,301.103,279.702,336.423,279.702z
	 M336.423,281.225c25.025,0,45.303,1.885,45.303,4.22c0,2.335-20.278,4.22-45.303,4.22c-25.015,0-45.303-1.885-45.303-4.22
	C291.12,283.111,311.408,281.225,336.423,281.225z"/>
<path style="fill:#FFEF76;" d="M330.475,223.39c0,0,1.387-1.661,3.419-1.25s0.586,5.363,6.144,10.92
	c5.558,5.548,25.709,8.361,31.413,23.267c3.448,9.006,5.284,20.366,1.797,30.417h-72.419c-0.469-1.739-0.84-3.585-1.104-5.538
	c-3.096-23.296,4.259-35.672,12.815-41.074c8.557-5.402,9.328-9.299,11.917-12.669C327.046,224.093,328.023,222.599,330.475,223.39z
	"/>
<path style="fill:#F9BF2C;" d="M367.114,256.855c0,0-0.264,0.488-0.762,1.397c-0.508,0.899-1.299,2.198-2.442,3.751
	c-1.143,1.553-2.667,3.331-4.659,5.109c-2.002,1.778-4.454,3.556-7.375,5.06c-2.901,1.514-6.251,2.774-9.924,3.634
	c-3.653,0.889-7.629,1.348-11.741,1.436c-4.112,0.068-8.381-0.264-12.649-0.996c-4.269-0.733-8.498-2.071-12.649-3.624
	c0,0,0.586,0.244,1.651,0.703c1.065,0.479,2.647,1.084,4.65,1.817c4.024,1.416,9.963,2.833,16.967,3.077
	c3.497,0.117,7.257-0.068,11.106-0.723c3.829-0.694,7.756-1.817,11.438-3.624c3.673-1.788,7.121-4.19,9.914-7.15
	c1.397-1.465,2.657-3.048,3.741-4.708C365.453,260.342,366.352,258.603,367.114,256.855z M367.016,283.15
	c0,0-0.342,0.371-0.987,1.074c-0.313,0.352-0.703,0.791-1.162,1.299c-0.361,0.371-0.762,0.781-1.211,1.221h0.469
	C365.151,285.562,366.108,284.361,367.016,283.15z M367.964,269.992c0,0-0.293,0.459-0.83,1.309
	c-0.264,0.43-0.645,0.918-1.055,1.524c-0.205,0.293-0.459,0.596-0.713,0.928c-0.254,0.332-0.527,0.674-0.84,1.026
	c-2.393,2.862-6.427,6.535-12.21,9.289c-2.198,1.055-4.63,1.963-7.248,2.676h3.546c0.85-0.313,1.7-0.664,2.53-1.035
	c1.817-0.821,3.575-1.768,5.255-2.852c1.67-1.094,3.233-2.335,4.679-3.682C363.988,276.498,366.293,273.304,367.964,269.992z
	 M318.587,286.744c-3.956-1.045-7.824-2.637-11.751-4.073c0,0,2.227,1.016,6.037,2.647c0.967,0.381,2.032,0.811,3.184,1.25
	l0.527,0.176H318.587z"/>
<path style="fill:#FF9F00;" d="M339.012,237.182c-2.921-0.85-6.544,0.664-7.394,3.585s1.407,6.144,4.327,6.984
	c2.921,0.85,6.398-0.703,7.238-3.634C344.033,241.197,341.932,238.032,339.012,237.182z"/>
<path style="fill:#FEFEFE;" d="M338.875,237.671c-2.647-0.762-5.421,0.762-6.183,3.409c-0.772,2.647,0.752,5.411,3.399,6.183
	c2.647,0.762,5.411-0.752,6.183-3.399C343.046,241.216,341.522,238.442,338.875,237.671z"/>
<path d="M339.989,238.354c-1.231-0.352-2.52,0.352-2.882,1.592c-0.352,1.221,0.352,2.51,1.582,2.872
	c1.231,0.361,2.52-0.352,2.882-1.582C341.932,240.005,341.219,238.716,339.989,238.354z"/>
<path style="fill:#ED6C00;" d="M331.237,227.903c0,0-1.221-2.588-1.016-4.229C330.221,223.673,327.261,226.76,331.237,227.903z"/>
<g>
	<path style="fill:#FF9F00;" d="M327.486,258.623c0,0-0.44,12.395-9.494,15.541c-9.055,3.135-13.03,4.757-13.001,11.262
		c0,0.41,0.098,0.85,0.273,1.319h42.412c-0.234-3.419-0.987-7.277-2.325-11.555c-5.275-16.889-7.59-20.708-10.539-22.564
		C331.852,250.76,328.287,253.807,327.486,258.623z"/>
	<path style="fill:#FF9F00;" d="M371.734,286.744c3.116-9.836,1.28-20.825-2.071-29.577c-5.704-14.915-25.855-17.719-31.413-23.277
		s-4.112-10.51-6.144-10.92c-0.42-0.078-0.801-0.078-1.153-0.02c0.567-0.469,1.612-1.084,2.94-0.811
		c2.032,0.41,0.586,5.363,6.144,10.92c5.558,5.548,25.699,8.352,31.413,23.267c3.448,9.006,5.284,20.366,1.797,30.417H371.734z"/>
</g>
<path style="fill:#FF7042;" d="M51.037,227.903c1.319-0.987,2.647-1.846,3.985-2.598c8.381,4.483,16.976,4.405,25.787-0.039
	c1.446,0.762,2.911,1.631,4.376,2.637c0.43,0.293,0.938-0.43,0.938-0.957c0-1.172,0-2.354,0-3.526c0-0.527-0.488-0.703-0.938-0.957
	c-10.833-6.232-22.202-6.457-34.148,0c-0.459,0.244-0.938,0.43-0.938,0.957c0,1.172,0,2.354,0,3.526
	C50.099,227.473,50.617,228.215,51.037,227.903z"/>
<path style="fill:#E54A18;" d="M83.007,229.231v23.472c0,2.823-2.305,5.138-5.128,5.138H58.187c-2.823,0-5.128-2.315-5.128-5.138
	v-23.658C53.059,228.186,82.919,231.292,83.007,229.231z"/>
<path style="fill:#BD360C;" d="M50.627,222.531c11.223,8.215,22.837,8.058,34.813,0c0.44-0.293,0.957,0.43,0.957,0.957
	c0,1.182,0,2.354,0,3.536c0,0.527-0.498,0.703-0.957,0.957c-11.047,6.222-22.632,6.457-34.813,0
	c-0.469-0.244-0.957-0.43-0.957-0.957c0-1.182,0-2.354,0-3.536C49.669,222.96,50.197,222.218,50.627,222.531z"/>
<path style="fill:#FFFFFF;" d="M83.818,228.46c7.091,11.116-5.783,20.376-15.873,20.376c-10.666,0-23.013-9.211-15.375-20.835
	c-0.01-0.039-0.01-0.068-0.01-0.107c0-0.576,0.469-1.045,1.045-1.045s1.045,0.469,1.045,1.045c0,0.547-0.42,0.996-0.967,1.035
	c-6.476,10.569,4.493,18.754,14.261,18.754c9.201,0,20.776-8.283,14.661-18.432c-0.488-0.088-0.85-0.518-0.85-1.026
	c0-0.576,0.459-1.045,1.045-1.045c0.576,0,1.035,0.469,1.035,1.045C83.837,228.303,83.837,228.381,83.818,228.46z"/>
<path style="fill:#606060;" d="M114.059,247.692l1.289,7.121c0,0,7.629,1.407,8.498,3.233c0.879,1.827,0.137,3.702,0.137,3.702
	c-13.773-0.615-8.879-4.62-17.963-3.253c-1.006,0.147-1.944-0.244-2.54-1.065c-0.596-0.83-0.684-1.846-0.225-2.745
	c2.129-4.21,4.825-9.621,4.571-9.436C107.407,245.544,114.059,247.692,114.059,247.692z"/>
<path style="fill:#FFCBBB;" d="M157.36,132.071l-3.907-4.503l3.077-2.872c2.911-2.745,1.817-4.757,4.728-2.774
	C172.334,107.563,169.257,127.001,157.36,132.071z"/>
<path style="fill:#424242;" d="M125.78,250.193l1.289,7.131c0,0,7.629,1.407,8.498,3.233s0.127,3.702,0.127,3.702
	c-13.773-0.615-8.869-4.62-17.963-3.253c-0.996,0.147-1.944-0.244-2.54-1.074c-0.596-0.82-0.674-1.836-0.215-2.745
	c2.129-4.2,4.825-9.612,4.571-9.426C119.128,248.054,125.78,250.193,125.78,250.193z"/>
<path style="fill:#BBBBBB;" d="M115.983,132.53l-10.491,16.049l9.592,59.467c0.039,0.234,0.088,0.44,0.039,0.674l-8.019,38.505
	l8.391,3.497l13.48-40.312c0.068-0.225,0.049-0.43,0.039-0.674l-1.446-53.85L115.983,132.53z"/>
<path style="fill:#DFDFDF;" d="M126.425,149.721l-1.895-4.581l-18.197-2.969c-10.774,16.996,7.648,30.036,14.798,55.257
	c1.504,5.284-2.676,44.014-3.399,52.736l9.563,3.761C136.964,193.657,142.288,201.471,126.425,149.721z"/>
<path style="fill:#FFB54C;" d="M129.424,86.435l-1.621,3.448c-2.559-1.807-6.007-3.341-9.875-5.626l2.676-4.239L129.424,86.435z"/>
<path style="fill:#9BCB64;" d="M116.012,85.615l-5.079,25.221c-0.449,2.237-0.332,11.458,0.361,11.575l42.969,7.511l1.035-4.259
	l-31.98-9.113c-0.674-0.186,0.361-1.065,0.43-1.768l2.012-20.014L116.012,85.615z"/>
<path style="fill:#4EC1F5;" d="M125.477,147.436l-19.838-4.083c3.487-20.395-4.024-46.846,6.066-54.485
	c0.537-0.41,5.704-4.122,6.183-4.63c6.535,3.897,11.663,5.46,13.675,9.856C137.101,121.424,123.221,125.272,125.477,147.436z"/>
<path style="fill:#ADD37F;" d="M125.282,89.62c-10.774-1.553-7.101,34.324-4.786,48.82c0.664,4.21,38.026-4.708,37.538-5.402
	l-2.93-4.229c-4.933-0.205-26.344,4.483-26.041-0.518C130.127,110.523,131.094,88.604,125.282,89.62z"/>
<path style="fill:#FFDFB1;" d="M137.277,69.127l0.352,2.774l-1.514,1.563l2.803,5.636l-0.225,0.899l-2.325,0.449l0.029,1.836
	l-0.088,0.654l-1.289,0.098l1.016,0.381l-0.127,1.328l-0.918,0.352l-0.029,1.534l-0.361,1.241c0,0-0.596,2.12-3.536,0.664
	c-3.819-1.905-7.267-3.38-11.536-5.616c-0.908-1.719-10.647-18.393,1.055-23.062C128.535,56.692,136.076,62.319,137.277,69.127z"/>
<path style="fill:#424242;" d="M122.762,67.925c0,0-3.526,2.403-3.048,4.278c0.479,1.866,1.866,3.429,1.866,3.429l-0.674,5.245
	l-2.149,0.606c0,0-8.098-10.315-3.79-17.436c7.521-12.444,24.761,0.147,22.359,3.214C135.441,69.674,122.762,67.925,122.762,67.925z
	"/>
<g>
	<path style="fill:#181818;" d="M178.868,105.971l2.569-1.954c0.059-0.273,0.166-0.537,0.303-0.772l0,0
		c0.176-0.293,0.42-0.557,0.713-0.772l0,0l2.471-1.748c0.264-0.195,0.567-0.332,0.869-0.4c0.244-0.068,0.488-0.088,0.733-0.078
		l4.415-3.233c0.029-0.098,0.068-0.195,0.117-0.273v-0.01c0.088-0.147,0.205-0.283,0.352-0.4c0.176-0.127,1.807-1.465,2.12-1.592
		l1.221-0.518l-0.557,1.211c-0.059,0.127-0.127,0.215-0.195,0.293c0.039,0.049,0.078,0.107,0.127,0.186l0,0
		c0.078,0.107,0.166,0.244,0.254,0.381h0.01l0.195,0.293l0,0l0.147,0.215v0.01c0.078,0.117,0.147,0.234,0.234,0.352l0,0
		c0.078,0.117,0.166,0.225,0.244,0.322l0,0L178.868,105.971z M179.181,106.381l0.547-0.41l1.534-1.172l0.654-0.498
		c0.068-0.547,0.352-1.055,0.84-1.407l2.462-1.748c0.44-0.313,0.967-0.43,1.465-0.361l4.728-3.458
		c0.029-0.244,0.137-0.449,0.313-0.576c0,0,1.768-1.436,2.002-1.534c-0.098,0.215-0.391,0.352-0.264,0.635
		c0.049,0.117,0.156,0.215,0.225,0.322c0.147,0.234,0.313,0.469,0.469,0.703c0.049,0.068,0.098,0.137,0.137,0.215
		c0.147,0.215,0.293,0.44,0.459,0.645l0.059,0.078c0.078,0.088,0.156,0.176,0.234,0.264l0.078,0.068
		c0.049,0.059,0.127,0.166,0.205,0.186c0.098,0.039,0.273-0.039,0.381-0.049c-0.117,0.01-1.68,1.328-1.895,1.485
		c-0.166,0.127-0.371,0.166-0.596,0.137l-4.835,3.409c-0.117,0.449-0.381,0.869-0.791,1.153l-2.471,1.758
		c-0.527,0.381-1.182,0.469-1.758,0.303l-2.969,1.963L179.181,106.381z M193.94,95.656c-0.02-0.029-0.029-0.059-0.01-0.01
		L193.94,95.656L193.94,95.656z M195.21,97.483l0.01,0.01c0.088,0.098,0.176,0.205,0.264,0.293l0.01,0.01
		c0.049-0.01,0.098-0.02,0.166-0.029h0.01h0.01l0.059,1.035c-0.088,0.01-0.586,0.547-1.065,0.947v-0.01l-0.547,0.449h-0.01
		c-0.137,0.107-0.303,0.176-0.469,0.215c-0.098,0.02-0.186,0.029-0.283,0.029l-4.542,3.204c-0.068,0.215-0.176,0.43-0.303,0.615
		c-0.166,0.244-0.381,0.469-0.625,0.645l-2.471,1.748c-0.322,0.234-0.684,0.381-1.055,0.44c-0.303,0.059-0.606,0.049-0.908-0.01
		l-2.784,1.856l-0.459,0.303l-0.273-0.479l-1.211-2.12l-0.225-0.391l0.361-0.273L195.21,97.483z"/>
	<g>
		<path style="fill:#202020;" d="M287.926,27.037c0.303-0.127,0.615-0.176,0.879-0.039l0,0c0.322,0.176,0.518,0.43,0.43,0.84
			c-0.049,0.244-0.215,0.518-0.586,0.84l0,0c-0.166,0.137-0.908,0.703-0.908,0.703l-0.02,0.01l-0.049,0.039l-31.501,23.286
			c-0.02,0.088-0.049,0.186-0.098,0.273l0,0c-0.088,0.166-0.205,0.322-0.371,0.44l-4.689,3.448
			c-0.156,0.117-0.332,0.186-0.518,0.215l0,0c-0.088,0.02-0.176,0.02-0.273,0.02l-3.976,2.93v0.01L227.844,73.62
			c-0.029,0.117-0.068,0.225-0.127,0.342l0,0c-0.088,0.176-0.234,0.342-0.41,0.479l-0.01-0.01l-6.027,4.405
			c-0.166,0.117-0.352,0.195-0.537,0.234v0.01c-0.107,0.02-0.225,0.029-0.332,0.029l-17.416,12.835l-0.606,0.459l-0.195-0.742
			l-0.42-1.612l-0.088-0.342l0.293-0.205l17.201-12.405c0.039-0.078,0.078-0.156,0.127-0.225l0,0
			c0.088-0.117,0.195-0.225,0.313-0.313l0,0l6.037-4.396l0,0c0.137-0.107,0.293-0.176,0.449-0.225l0,0
			c0.098-0.029,0.186-0.039,0.283-0.049l22.788-16.439c0.029-0.068,0.059-0.137,0.098-0.195l0,0
			c0.078-0.127,0.186-0.244,0.313-0.332l0,0l4.698-3.448l0,0c0.137-0.098,0.283-0.166,0.449-0.205l0,0
			c0.078-0.02,0.166-0.029,0.244-0.029l31.96-23.609l0.01-0.01l0.107-0.078l0.273-0.186l0.01-0.01
			C287.506,27.242,287.721,27.115,287.926,27.037L287.926,27.037z"/>
		<path style="fill:#202020;" d="M152.515,124.686l-0.01-0.02l2.432-1.856l0.43-0.322l0.303,0.43l1.885,2.569l0.322,0.43
			l-0.449,0.303c-0.01,0.01-2.295,1.641-2.715,1.797l0,0c-0.576,0.215-0.967-0.293-1.475-0.967c-0.166-0.205-0.342-0.44-0.547-0.684
			l0,0C151.812,125.36,152.183,124.882,152.515,124.686z"/>
	</g>
	<g>
		<path style="fill:#181818;" d="M258.017,57.415c-0.938-1.006-1.856-1.69-2.159-1.621c-1.143-0.918-2.686-1.543-2.764-1.573
			l-0.107,0.254c0.02,0.01,1.67,0.684,2.794,1.621c0.127,0.42,0.674,1.221,1.446,2.051c1.006,1.074,2.002,1.788,2.217,1.582
			C259.658,59.525,259.023,58.49,258.017,57.415z"/>
		<path style="fill:#181818;" d="M288.532,31.667c-0.674-0.527-1.348-0.801-1.602-0.684c-0.967-0.596-1.465-0.635-1.494-0.635
			l-0.01,0.273c0,0,0.479,0.039,1.397,0.635c0.068,0.303,0.469,0.801,1.055,1.26c0.742,0.576,1.494,0.86,1.68,0.615
			C289.743,32.898,289.284,32.244,288.532,31.667z"/>
	</g>
	<path style="fill:#FFC928;" d="M193.12,95.627c0,0,0,0,0.947-0.684c0.938-0.674,7.824-5.616,7.824-5.616s0.205-0.293,0.645,0.234
		c0.43,0.537,1.768,1.739,1.407,2.149c-0.361,0.42-7.941,6.525-8.576,6.808C194.751,98.792,193.12,95.627,193.12,95.627z
		 M156.695,121.678l-1.348,0.928c0,0-0.625,0.371,0.039,1.241c0.664,0.869,1.543,2.09,1.543,2.09s0.127,0.361,0.908-0.342
		l23.404-17.162c0,0-0.147-0.254-0.586-0.83c-0.42-0.576-1.319-1.788-1.377-1.836c-0.039-0.029-1.612,1.104-2.383,1.661
		C172.021,110.943,156.695,121.678,156.695,121.678z"/>
	<path style="fill:#181818;" d="M286.715,28.893c0.234,0.303,0.273,0.664,0.098,0.801l-2.725,2.071
		c-0.186,0.137-0.518,0-0.752-0.303c-0.225-0.303-0.273-0.664-0.088-0.801l2.715-2.071C286.148,28.454,286.48,28.59,286.715,28.893z
		"/>
	<path style="fill:#202020;" d="M188.099,102.875l68.824-45.147l32.322-24.996l0.527-0.41l0.264,0.615
		c0.098,0.225,44.405,151.352,40.957,189.984l-1.035-0.098c3.253-36.434-37.479-181.506-40.615-188.861l-31.804,24.595l-0.029,0.029
		l-68.844,45.166L188.099,102.875z"/>
</g>
<path style="fill:#FFCBBB;" d="M155.328,118.181c0.606-0.44,1.885,0.313,2.842,1.67c0.967,1.358,1.25,2.813,0.635,3.243
	c-0.606,0.44-1.885-0.313-2.842-1.67C154.996,120.066,154.713,118.611,155.328,118.181z"/>
<path style="fill:#EBC1B4;" d="M157.369,116.559c0.615-0.43,1.885,0.322,2.852,1.68c0.957,1.358,1.241,2.803,0.635,3.243
	c-0.615,0.43-1.885-0.313-2.852-1.68C157.047,118.445,156.764,116.999,157.369,116.559z"/>
<path style="fill:#FFCBBB;" d="M159.714,115.27c0.606-0.43,1.885,0.322,2.842,1.68c0.967,1.358,1.25,2.803,0.635,3.243
	c-0.606,0.43-1.885-0.313-2.842-1.68C159.382,117.155,159.098,115.71,159.714,115.27z"/>
<path style="fill:#EBC1B4;" d="M161.687,113.991c0.606-0.44,1.885,0.313,2.842,1.67c0.967,1.358,1.25,2.813,0.635,3.243
	c-0.606,0.44-1.885-0.313-2.842-1.67C161.355,115.876,161.071,114.42,161.687,113.991z"/>
<path style="fill:#6C4C40;" d="M112.809,71.256c-0.156-0.244-0.303-0.479-0.44-0.723l-0.02-0.02l-0.01-0.029
	c-0.137-0.234-0.273-0.469-0.4-0.694l-0.01-0.029c-0.127-0.234-0.254-0.459-0.361-0.684l-0.029-0.059
	c-0.107-0.215-0.205-0.43-0.303-0.635l-0.039-0.098c-0.098-0.205-0.186-0.42-0.264-0.625l-0.02-0.049
	c-0.088-0.205-0.166-0.41-0.244-0.615l-0.029-0.088c-0.068-0.195-0.137-0.391-0.195-0.586l-0.029-0.098
	c-0.059-0.186-0.107-0.381-0.166-0.567l-0.02-0.088c-0.049-0.195-0.098-0.391-0.137-0.576l-0.01-0.059
	c-0.039-0.195-0.078-0.381-0.107-0.576l-0.02-0.078c-0.029-0.176-0.049-0.352-0.078-0.537l-0.01-0.088
	c-0.02-0.195-0.039-0.381-0.049-0.567v-0.029c-0.02-0.186-0.02-0.371-0.029-0.557v-0.049c0-0.195,0-0.381,0-0.567l0.01-0.01v-0.01
	c0-0.186,0.01-0.361,0.029-0.547v-0.01v-0.01v-0.02c0.02-0.186,0.039-0.361,0.059-0.537v-0.01c0.029-0.166,0.059-0.342,0.088-0.518
	l0.02-0.078c0.029-0.156,0.059-0.313,0.098-0.459l0.01-0.049c0.039-0.156,0.088-0.313,0.127-0.469l0.02-0.059
	c0.049-0.147,0.088-0.293,0.147-0.44l0.02-0.068c0.059-0.147,0.107-0.273,0.166-0.41l0.029-0.088c0.059-0.127,0.117-0.264,0.176-0.4
	l0.039-0.068c0.068-0.127,0.127-0.254,0.195-0.381l0.039-0.068c0.068-0.137,0.147-0.254,0.215-0.381l0.039-0.059
	c0.078-0.127,0.156-0.254,0.244-0.371l0.029-0.059c0.078-0.117,0.166-0.234,0.254-0.342l0.049-0.078
	c0.088-0.117,0.186-0.225,0.273-0.342l0.029-0.039c0.098-0.107,0.195-0.225,0.293-0.332l0.039-0.049
	c0.098-0.107,0.195-0.205,0.293-0.313l0.078-0.068c0.107-0.107,0.215-0.205,0.322-0.313h0.01l0.01-0.01
	c0.117-0.107,0.234-0.205,0.352-0.303c4.239-3.546,10.999-3.927,14.847,0.244l4.034,4.366c0.361,0.381,1.397,1.455,1.397,1.455
	c-2.315,2.842-5.607,5.685-9.572,8.098c-3.79,2.295-7.638,3.849-11.106,4.63C113.111,72.936,112.809,71.256,112.809,71.256z"/>
<path style="fill:#5C4036;" d="M123.983,83.818l-0.352,0.107l-0.049,0.02l-0.293,0.078h-0.01l-0.361,0.107l-0.332,0.088h-0.02
	l-0.361,0.098l-0.313,0.078l-0.049,0.01l-0.352,0.078l-0.332,0.078l-0.029,0.01l-0.361,0.068l-0.303,0.068l-0.059,0.01l-0.352,0.068
	l-0.313,0.059l-0.049,0.01l-0.361,0.059l-0.01,0.01l-0.215,0.029l-0.342,0.059l-0.381,0.059l-0.44,0.059l-0.225,0.029l-0.479,0.059
	l-0.244,0.029l-0.332,0.029l-0.4,0.039l-0.244,0.02l-0.42,0.029l-0.352,0.029l-0.254,0.01l-0.449,0.029h-0.234l-0.41,0.02h-0.234
	l-0.449,0.01h-0.156l-0.469-0.01h-0.215l-0.41-0.02h-0.225l-0.449-0.029l-0.137-0.01l-0.498-0.039l-0.107-0.01l-0.469-0.039
	l-0.156-0.02l-0.44-0.049l-0.147-0.02l-0.449-0.068l-0.107-0.02l-0.42-0.068l-0.156-0.039l-0.42-0.078l-0.078-0.02
	c-0.156-0.029-0.303-0.068-0.459-0.107l-0.049-0.01c-0.156-0.039-0.303-0.078-0.449-0.117l-0.049-0.02
	c-0.147-0.039-0.293-0.088-0.43-0.127l-0.068-0.029c-0.137-0.039-0.273-0.088-0.41-0.137l-0.02-0.01
	c-0.137-0.049-0.273-0.098-0.4-0.147l-0.029-0.01l-0.029-0.02c-0.127-0.049-0.244-0.107-0.371-0.156l-0.02-0.01l-0.029-0.02
	c-0.127-0.059-0.244-0.117-0.352-0.176h-0.01l0,0c-0.137-0.068-0.254-0.137-0.371-0.205c0,0,7.316-7.277,8.058-8.732
	c0.43-0.821,0.762-1.524,0.967-1.973c3.468-0.781,7.316-2.335,11.106-4.63l0.01-0.01l0,0h0.01l0.01-0.01l0.01-0.01l0.02-0.01l0,0
	l0.01-0.01h0.01l0.01-0.01h0.01l0.01-0.01h0.01l0.01-0.01l0.01-0.01h0.01l0.01-0.01h0.01v-0.01l0.01-0.01h0.01l0,0l0.01-0.01h0.01
	l0.01-0.01h0.01l0.01-0.01h0.01v-0.01l0.02-0.01h0.01l0.01-0.01l0,0l0.01-0.01h0.01l0.01-0.01h0.01l0.01-0.01h0.01l0.01-0.01l0,0
	l0.01-0.01h0.01l0,0v-0.01h0.01h0.01l0.01-0.02h0.01l0.01-0.01h0.01l0.01-0.01h0.01l0.01-0.01l0,0l0.02-0.01l0.01-0.01l0.01-0.01
	h0.01l0.01-0.01l0.01-0.01c3.731-2.335,6.828-5.06,9.045-7.765c2.325,1.729,16.498-7.531,16.107-2.911c0,0-8.908-1.084-11.243,13.05
	C137.59,77.224,131.162,81.639,123.983,83.818z"/>
<g>
</g>
<g>
</g>
<g>
</g>
<g>
</g>
<g>
</g>
<g>
</g>
<g>
</g>
<g>
</g>
<g>
</g>
<g>
</g>
<g>
</g>
<g>
</g>
<g>
</g>
<g>
</g>
<g>
</g>
</svg>
