<?xml version="1.0" encoding="iso-8859-1"?>
<!-- Generator: Adobe Illustrator 19.0.0, SVG Export Plug-In . SVG Version: 6.00 Build 0)  -->
<svg version="1.1" id="Layer_1" xmlns="http://www.w3.org/2000/svg" xmlns:xlink="http://www.w3.org/1999/xlink" x="0px" y="0px"
	 viewBox="0 0 512 512" style="enable-background:new 0 0 512 512;" xml:space="preserve">
<path style="fill:#B1E3FB;" d="M256,0c141.386,0,256,114.614,256,256c0,141.386-114.614,256-256,256C114.614,512,0,397.386,0,256
	C0,114.614,114.614,0,256,0z"/>
<path style="fill:#9BCB64;" d="M256,254.555c95.822,0,184.022,11.918,254.188,31.917C495.123,413.492,387.074,512,256,512
	C124.926,512,16.877,413.492,1.812,286.472C71.976,266.473,160.179,254.555,256,254.555z"/>
<path style="fill:#ADD37F;" d="M0.616,273.631c35.255-55.092,69.06-103.281,104.789-141.423
	c11.745-12.539,32.825-13.373,46.353-4.522c90.352,59.101,128.071,120.422,152.973,182.281L10.12,327.454
	C5.115,310.194,1.878,292.185,0.616,273.631z"/>
<path style="fill:#689D38;" d="M138.935,122.564c4.62,0.911,9.023,2.637,12.823,5.121
	c90.352,59.101,128.071,120.422,152.973,182.281l-150.063,8.906c0,0-10.331-19.749-35.136-49.844
	c-24.807-30.094,48.421-26.853,25.772-68.336C122.652,159.212,138.935,122.564,138.935,122.564z"/>
<path style="fill:#ADD37F;" d="M240.16,317.21c28.144-81.711,62.896-165.497,154.248-267.079c1.906-2.117,3.901-3.972,5.953-5.557
	C467.761,90.684,512,168.17,512,256c0,18.508-1.984,36.552-5.716,53.947C418.309,312.15,327.085,315.313,240.16,317.21z"/>
<path style="fill:#689D38;" d="M506.225,310.224l-127.631,3.96c-30.891-44.09,0.419-74.438,7.905-75.604
	c8.588-1.345,62.593-70.767,25.518-90.715c-28.425-15.295-12.097-71.612-2.93-97.065C471.559,97.479,512,172.014,512,256
	C512,274.607,509.993,292.744,506.225,310.224z"/>
<path style="fill:#FFFF00;" d="M263.955,62.806c20.33,0,36.809,16.482,36.809,36.809c0,20.329-16.479,36.81-36.809,36.81
	c-20.329,0-36.808-16.481-36.808-36.81C227.147,79.288,243.626,62.806,263.955,62.806z"/>
<path style="fill:#F1EAE3;" d="M250.619,140.811c0.135,0,0.245,0.11,0.245,0.247c0,0.135-0.11,0.245-0.245,0.245
	c-0.137,0-0.247-0.11-0.247-0.245C250.372,140.922,250.482,140.811,250.619,140.811z"/>
<path style="fill:#B1E9F1;" d="M163.859,348.919h150.075v156.496C295.318,509.721,275.926,512,256,512
	c-32.483,0-63.549-6.064-92.14-17.099V348.919z"/>
<polygon style="fill:#B1E3FB;" points="163.859,348.919 178.866,284.129 178.866,348.919 "/>
<polygon style="fill:#7FD3F9;" points="178.866,284.129 298.928,284.129 298.928,348.919 178.866,348.919 "/>
<polygon style="fill:#B1E3FB;" points="313.934,348.919 298.928,284.129 298.928,348.919 "/>
<g>
	<path style="fill:#9F877E;" d="M184.697,262.489h-0.002c-3.21,0-5.83,2.621-5.83,5.83v80.6h11.659v-80.6
		C190.525,265.11,187.904,262.489,184.697,262.489z"/>
	<path style="fill:#9F877E;" d="M319.766,327.284L319.766,327.284c-3.207,0-5.83,2.623-5.83,5.83v172.301
		c3.922-0.907,7.809-1.909,11.66-2.994V333.114C325.596,329.907,322.973,327.284,319.766,327.284z"/>
	<path style="fill:#9F877E;" d="M293.101,262.489h-0.005c-3.204,0-5.827,2.621-5.827,5.83v80.6h11.659v-80.6
		C298.928,265.11,296.308,262.489,293.101,262.489z"/>
	<path style="fill:#9F877E;" d="M158.03,327.284L158.03,327.284c-3.207,0-5.83,2.623-5.83,5.827v156.956
		c3.837,1.704,7.724,3.315,11.659,4.833V333.111C163.859,329.907,161.237,327.284,158.03,327.284z"/>
</g>
<path style="fill:#747474;" d="M401.214,466.835v-217.65c0-41.745-22.7-45.537-42.784-45.79c-0.797-1.802-1.704-3.582-2.717-5.339
	c-1.951-3.378-4.19-6.464-6.654-9.241v-0.002c24.228,0,63.07,2.847,63.07,45.775v224.282
	C408.564,461.62,404.925,464.275,401.214,466.835z"/>
<path style="fill:#606060;" d="M318.062,178.872c15.482-8.94,36.402-1.702,46.72,16.165c10.31,17.867,6.118,39.603-9.36,48.541
	L318.062,178.872z"/>
<path style="fill:#424242;" d="M313.46,176.596h-0.003c-1.356,0.783-1.825,2.528-1.042,3.884l38.787,67.182
	c0.783,1.356,2.529,1.823,3.888,1.04l0,0c1.356-0.783,1.825-2.531,1.042-3.887l-38.787-67.18
	C316.564,176.279,314.816,175.812,313.46,176.596z"/>
<path style="fill:#FED79F;" d="M244.733,297.128l-2.882,6.144c-4.569-3.227-10.724-5.962-17.615-10.037l4.767-7.566L244.733,297.128
	z"/>
<g>
	<path style="fill:#FFDFB1;" d="M220.811,295.649l-9.068,45.006c-0.3,1.498-0.458,4.765-0.472,8.265h22.865
		c0.233-0.408,0.444-0.834,0.483-1.225l3.588-35.716L220.811,295.649z"/>
	<path style="fill:#FFDFB1;" d="M203.492,348.919c-0.685-21.218-0.575-39.733,9.628-47.452c0.973-0.742,10.184-7.355,11.046-8.269
		c11.648,6.957,20.798,9.735,24.393,17.58c3.356,16.584,2.705,28.315,0.545,38.141H203.492z"/>
</g>
<path style="fill:#FED79F;" d="M237.352,302.8c-11.797-1.7-13.883,21.765-12.781,46.119h20.675
	C246.134,324.022,245.289,301.416,237.352,302.8z"/>
<path style="fill:#FFDFB1;" d="M258.746,266.243l0.623,4.953l-2.694,2.778l4.998,10.054l-0.41,1.617l-4.146,0.795l0.071,3.28
	l-0.163,1.164l-2.311,0.162l1.825,0.685l-0.236,2.38l-1.642,0.63l-0.051,2.724l-0.639,2.206c0,0-1.067,3.784-6.299,1.189
	c-6.826-3.386-12.976-6.032-20.595-10.015c-1.612-3.056-18.993-32.811,1.892-41.135
	C243.156,244.057,256.609,254.098,258.746,266.243z"/>
<path style="fill:#424242;" d="M232.851,264.109c0,0-6.29,4.279-5.433,7.619c0.857,3.335,3.333,6.123,3.333,6.123l-1.203,9.348
	l-3.841,1.088c0,0-14.444-18.396-6.766-31.097c13.426-22.201,44.191,0.255,39.9,5.72
	C255.462,267.217,232.851,264.109,232.851,264.109z"/>
<path style="fill:#DFF3FD;" d="M308.457,192.057c1.049,1.049-0.875,4.678-4.3,8.102c-3.427,3.427-7.055,5.35-8.104,4.302
	c-1.051-1.052,0.875-4.678,4.3-8.104C303.778,192.932,307.406,191.006,308.457,192.057z M290.677,208.678
	c0.547,0.547-1.75,3.731-5.129,7.112c-3.379,3.378-6.562,5.674-7.11,5.127c-0.547-0.548,1.748-3.732,5.129-7.11
	C286.946,210.428,290.13,208.13,290.677,208.678z M299.361,241.507c0.502,0.502-1.833,3.649-5.211,7.027
	c-3.378,3.379-6.526,5.713-7.027,5.211c-0.505-0.504,1.83-3.649,5.211-7.029C295.712,243.337,298.858,241.003,299.361,241.507z
	 M295.722,221.331c1.51,1.508-0.568,6.024-4.63,10.088c-4.066,4.064-8.583,6.136-10.09,4.631c-1.508-1.51,0.568-6.026,4.629-10.09
	C289.697,221.897,294.214,219.822,295.722,221.331z M325.573,243.903c1.095,1.097-1.791,5.763-6.45,10.42
	c-4.659,4.657-9.325,7.545-10.418,6.45c-1.095-1.095,1.791-5.761,6.45-10.418C319.812,245.697,324.478,242.808,325.573,243.903z
	 M320.032,230.096c1.051,1.051-1.283,5.085-5.209,9.011c-3.926,3.926-7.962,6.26-9.011,5.211c-1.051-1.051,1.283-5.088,5.209-9.014
	C314.947,231.378,318.983,229.046,320.032,230.096z M319.29,206.2c0.914,0.914-1.492,4.799-5.374,8.681
	c-3.882,3.88-7.767,6.288-8.681,5.374s1.491-4.802,5.373-8.681C314.491,207.691,318.376,205.286,319.29,206.2z"/>
<path style="fill:#FFFFFF;" d="M175.814,49.127c4.034,0,7.839,0.958,11.206,2.657c3.647-3.571,8.64-5.774,14.149-5.774
	c9.539,0,17.535,6.604,19.674,15.487c4.769,1.432,8.592,5.032,10.338,9.653c0.572-0.065,1.155-0.092,1.743-0.092
	c8.81,0,15.961,7.144,15.961,15.963c0,8.815-7.151,15.959-15.961,15.959c-2.749,0-5.333-0.692-7.587-1.912
	c-1.938,6.634-8.063,11.478-15.326,11.478c-4.432,0-8.443-1.807-11.336-4.732c-2.896,2.925-6.909,4.732-11.344,4.732
	c-4.212,0-8.052-1.637-10.905-4.304c-2.916,3.189-7.112,5.193-11.779,5.193c-4.368,0-8.324-1.75-11.201-4.593
	c-1.319,0.293-2.693,0.444-4.095,0.444c-10.505,0-19.017-8.514-19.017-19.017c0-10.502,8.512-19.017,19.017-19.017
	c0.57,0,1.141,0.028,1.699,0.082C152.4,58.846,162.971,49.127,175.814,49.127z"/>
<g>
</g>
<g>
</g>
<g>
</g>
<g>
</g>
<g>
</g>
<g>
</g>
<g>
</g>
<g>
</g>
<g>
</g>
<g>
</g>
<g>
</g>
<g>
</g>
<g>
</g>
<g>
</g>
<g>
</g>
</svg>
