<?xml version="1.0" encoding="iso-8859-1"?>
<!-- Generator: Adobe Illustrator 19.0.0, SVG Export Plug-In . SVG Version: 6.00 Build 0)  -->
<svg version="1.1" id="Layer_1" xmlns="http://www.w3.org/2000/svg" xmlns:xlink="http://www.w3.org/1999/xlink" x="0px" y="0px"
	 viewBox="0 0 516.026 516.026" style="enable-background:new 0 0 516.026 516.026;" xml:space="preserve">
<path style="fill:#B1E9F1;" d="M258.013,0c141.388,0,256,114.612,256,256s-114.612,256-256,256s-256-114.612-256-256
	S116.625,0,258.013,0z"/>
<g>
	<g>
		<g>
			<path style="fill:#EDEDED;" d="M52.12,343.746c77.333,0,225.108,50.53,252.811,95.857c8.921,14.593-71.902,59.724-80.399,74.29
				c-97.176-12.405-177.58-78.425-210.61-167.485C26.25,344.669,39.024,343.746,52.12,343.746z"/>
			<path style="fill:#FBFBFB;" d="M57.338,421.611c55.157-1.074,118.975-4.995,149.994-16.545
				c60.898-22.677,144.904-64.4,246.543-40.254c13.392,3.184,25.038,6.578,35.196,10.067
				c-39.631,76.96-116.536,131.576-206.862,139.996c-1.051,0.1-2.097,0.191-3.162,0.287l-2.288,0.173
				c-1.615,0.118-3.248,0.223-4.872,0.318l-1.556,0.068c-1.824,0.091-3.648,0.159-5.491,0.214l-0.933,0.023
				c-1.933,0.032-3.885,0.064-5.841,0.064l-0.3,0.005c-0.669,0-1.356-0.009-2.029-0.027c-1.387-0.009-2.766-0.018-4.144-0.041
				c-1.196-0.036-2.379-0.091-3.571-0.123c-0.869-0.05-1.738-0.059-2.593-0.1c-1.337-0.073-2.666-0.141-3.999-0.232l-2.065-0.132
				c-1.56-0.109-3.121-0.241-4.672-0.368l-0.987-0.091C162.848,508.411,100.226,473.47,57.338,421.611z"/>
			<polygon style="fill:#FBD734;" points="354.743,303.56 490.208,309.091 477.271,377.513 354.743,377.554 			"/>
			<polygon style="fill:#E54A18;" points="354.743,303.56 490.208,309.091 490.208,315.81 354.743,315.851 			"/>
			<polygon style="fill:#FFED58;" points="372.566,293.425 359.624,377.554 272.624,377.554 259.687,293.466 315.785,251.001 			"/>
			<path style="fill:#F7A724;" d="M295.347,328.538c10.044-9.84,20.198-10.445,30.487,0v49.016h-30.487
				C295.347,361.214,295.347,344.879,295.347,328.538z"/>
			<polygon style="fill:#FF7042;" points="257.567,308.773 315.831,264.848 375.687,309.137 393.796,309.137 393.796,308.846 
				315.785,251.001 411.219,251.119 490.213,309.096 394.233,309.137 315.785,251.001 239.539,308.527 239.539,308.773 			"/>
			<g>
				<path style="fill:#F9BF2C;" d="M300.883,328.538c10.044-9.84,20.198-10.445,30.487,0v49.016h-30.487
					C300.883,361.214,300.883,344.879,300.883,328.538z"/>
				<path style="fill:#F9BF2C;" d="M304.836,288.298h16.331c1.502,0,2.72,1.218,2.72,2.72v11.363c0,1.502-1.218,2.72-2.72,2.72
					h-16.331c-1.502,0-2.72-1.218-2.72-2.72v-11.363C302.116,289.516,303.333,288.298,304.836,288.298z"/>
			</g>
			<g>
				<path style="fill:#FFFFFF;" d="M73.96,346.98c-10.49,7.306-17.204,18.451-17.204,30.951c0,8.397,3.034,16.194,8.211,22.618
					c0,0,35.787,13.824,76.974-0.705c5.636-7.265,7.651-13.82,7.651-21.913c0-13.661-8.02-25.711-20.225-32.885
					c-7.46-4.381-16.477-6.951-26.193-6.951C92.101,338.096,81.939,341.43,73.96,346.98z"/>
				<path style="fill:#333333;" d="M185.575,308.682l-11.445-4.572l0.155-3.826l9.385-1.36c1.037-0.15,1.756-1.115,1.606-2.152
					c-0.15-1.037-1.115-1.76-2.152-1.61l-8.625,1.251l1.974-6.687c0.296-1.01-0.277-2.065-1.283-2.361s-2.065,0.277-2.361,1.283
					l-2.083,7.374l-0.014,2.493v0.005l-0.305,5.463l-22.313,7.315l-21.226-10.103c-0.951-0.45-2.097-0.05-2.543,0.901
					c-0.45,0.946-0.055,2.079,0.892,2.529l22.572,10.754l24.31-7.979l12.05,4.808c0.232,0.096,0.469,0.136,0.701,0.136
					c0.76,0,1.469-0.45,1.77-1.196C187.026,310.174,186.553,309.069,185.575,308.682z"/>
				<path style="fill:#FFFFFF;" d="M84.9,291c-11.236,5.809-18.915,17.527-18.915,31.047c0,19.297,15.644,31.092,34.941,31.092
					c19.292,0,34.936-11.796,34.936-31.092c0-13.579-7.752-25.338-19.065-31.124c-4.767-2.434-10.158-3.817-15.871-3.817
					C95.149,287.106,89.704,288.516,84.9,291z"/>
				<g>
					<path style="fill:#0000FF;" d="M117.544,304.656c0,1.597-1.296,2.893-2.893,2.893c-1.601,0-2.898-1.296-2.898-2.893
						c0-1.601,1.296-2.898,2.898-2.898C116.248,301.758,117.544,303.055,117.544,304.656z"/>
					<path style="fill:#0000FF;" d="M121.343,317.139c0,1.597-1.296,2.893-2.893,2.893c-1.601,0-2.893-1.296-2.893-2.893
						c0-1.601,1.292-2.893,2.893-2.893C120.046,314.245,121.343,315.537,121.343,317.139z"/>
					<path style="fill:#0000FF;" d="M122.43,329.08c0,1.597-1.296,2.893-2.898,2.893c-1.597,0-2.893-1.296-2.893-2.893
						c0-1.601,1.296-2.898,2.893-2.898C121.133,326.182,122.43,327.479,122.43,329.08z"/>
				</g>
				<path style="fill:#FFFFFF;" d="M117.471,254.24c-1.724-1.665-3.694-3.075-5.85-4.171c-20.107-4.963-30.16,3.289-34.099,15.712
					c-0.441,1.82-0.682,3.717-0.682,5.668c0,0.523,0.023,1.033,0.055,1.542c0.796,12.514,11.191,22.427,23.91,22.427
					c13.233,0,23.964-10.731,23.964-23.969C124.768,264.698,121.966,258.597,117.471,254.24z"/>
			</g>
			<g>
				<path style="fill:#FF1644;" d="M114.282,351.079c-4.117,1.351-8.629,2.061-13.356,2.061c-9.412,0-17.955-2.802-24.237-7.92
					c-0.933,0.56-1.847,1.146-2.729,1.76c7.888,6.287,16.108,10.008,26.967,10.008c7.515,0,13.929-1.356,19.583-4.604
					c3.171-1.824,6.105-4.235,8.857-7.338c-0.805-0.473-1.629-0.928-2.47-1.356C123.435,346.98,119.136,349.478,114.282,351.079z"/>
				<path style="fill:#FF1644;" d="M84.9,291c4.231,3.757,9.794,6.046,15.899,6.046c6.146,0,11.755-2.32,15.994-6.123
					c-0.405-0.205-0.814-0.405-1.224-0.596c-4.071,3.189-9.198,5.09-14.771,5.09c-5.527,0-10.617-1.874-14.671-5.022
					C85.71,290.591,85.305,290.791,84.9,291z"/>
			</g>
			<path style="fill:#333333;" d="M97.265,342.586l-8.575,2.97l-24.223-14.261l8.748-19.797c0.423-0.96-0.014-2.079-0.973-2.502
				c-0.96-0.428-2.083,0.009-2.502,0.969l-10.117,22.891l26.616,15.667l-2.829,9.608l7.874,10.881
				c0.368,0.514,0.951,0.792,1.538,0.792c0.387,0,0.778-0.123,1.115-0.364c0.851-0.614,1.042-1.801,0.423-2.652l-6.778-9.375
				l1.851-6.287l6.423,6.118c0.364,0.35,0.837,0.528,1.31,0.528c0.5,0,1.001-0.2,1.374-0.591c0.723-0.76,0.696-1.961-0.064-2.684
				l-6.396-6.091l6.428-2.224c0.992-0.346,1.519-1.428,1.178-2.42C99.339,342.768,98.256,342.24,97.265,342.586z"/>
			<path style="fill:#FFFFFF;" d="M253.541,308.773l62.29-47.951l59.137,43.761c-0.014,0.136-0.023,0.277-0.023,0.419
				c0,3.162,3.466,5.723,7.738,5.723c2.82,0,5.286-1.115,6.642-2.784c1.351,1.669,3.817,2.784,6.632,2.784
				c3.389,0,6.264-1.61,7.315-3.853l0.61,0.018c1.397,0,2.707-0.273,3.839-0.751c0.66,2.666,3.817,4.685,7.606,4.685
				c3.357,0,6.214-1.579,7.283-3.789c1.124,0.469,2.411,0.732,3.789,0.732c0.942,0,1.842-0.127,2.679-0.35
				c1.083,2.184,3.926,3.748,7.26,3.748c3.152,0,5.873-1.401,7.074-3.407l0.346,0.009c1.251,0,2.434-0.218,3.48-0.61
				c0.023,3.148,3.475,5.695,7.738,5.695c2.789,0,5.231-1.096,6.596-2.734c1.014-0.223,1.947-0.596,2.738-1.083
				c1.315,0.755,2.961,1.201,4.749,1.201c1.142,0,2.224-0.182,3.193-0.505c1.242,1.938,3.908,3.275,6.996,3.275
				c2.934,0,5.482-1.21,6.796-2.984c0.678,0.141,1.397,0.218,2.138,0.218c4.272,0,7.733-2.561,7.733-5.723s-3.462-5.723-7.733-5.723
				c-1.824,0-3.498,0.464-4.817,1.246l-72.147-52.95l-95.434-0.114l73.835,54.747l0.018-0.023l-73.853-54.725l-80.272,61.548v0.246
				H253.541z"/>
			<polygon style="fill:#FFA98F;" points="361.289,234.069 369.85,233.441 369.85,270.675 361.289,262.25 			"/>
			<path style="fill:#FF8964;" d="M374.818,233.441h13.752c2.907,0,5.286,2.379,5.286,5.29v31.943h-24.324v-31.943
				C369.532,235.821,371.911,233.441,374.818,233.441z"/>
			<path style="fill:#FFFFFF;" d="M372.352,241.566c0.241,0.146,0.509,0.232,0.792,0.232c0.746,0,1.406-0.587,1.779-1.469
				c0.805,0.2,1.874-0.041,2.82-0.714c0.255-0.187,0.487-0.387,0.687-0.605c-0.064,0.446,0.018,0.873,0.259,1.215
				c0.673,0.946,2.361,0.901,3.771-0.109c0.419-0.296,0.769-0.651,1.028-1.019c0.05,0.2,0.118,0.4,0.196,0.596
				c0.651,1.601,2.047,2.552,3.13,2.115c0.414-0.168,0.719-0.519,0.905-0.978c0.723,1.01,1.765,1.519,2.616,1.174
				c0.5-0.196,0.842-0.669,1.001-1.269c0.728,1.037,1.788,1.565,2.643,1.219c0.519-0.205,0.864-0.701,1.019-1.324
				c0.705,0.81,1.619,1.187,2.379,0.883c1.074-0.432,1.428-2.088,0.782-3.689c-0.173-0.423-0.396-0.805-0.66-1.124l0.009-0.155
				v-3.53c0-0.746-0.61-1.36-1.356-1.36h-34.468c-0.741,0-1.351,0.614-1.351,1.36v3.53c0,0.177,0.032,0.346,0.096,0.5
				c-0.191,0.473-0.305,1.028-0.305,1.619c0,1.729,0.942,3.13,2.106,3.13c0.901,0,1.674-0.846,1.97-2.038
				c0.287,0.218,0.61,0.337,0.955,0.337c0.691,0,1.31-0.496,1.692-1.269c0.155,1.506,1.028,2.657,2.083,2.657
				c0.705,0,1.333-0.519,1.715-1.319C371.015,240.984,371.638,241.539,372.352,241.566z"/>
			<rect x="380.845" y="333.037" style="fill:#747474;" width="33.208" height="20.63"/>
			<rect x="385.704" y="336.058" style="fill:#FFED58;" width="23.491" height="14.589"/>
			<g>
				<rect x="395.975" y="336.058" style="fill:#747474;" width="2.952" height="14.589"/>
				<rect x="433.482" y="333.037" style="fill:#747474;" width="33.208" height="20.63"/>
			</g>
			<rect x="438.345" y="336.058" style="fill:#FFED58;" width="23.491" height="14.589"/>
			<rect x="448.612" y="336.058" style="fill:#747474;" width="2.952" height="14.589"/>
			<g>
				<path style="fill:#785448;" d="M232.593,374.997c-0.15,0.573-3.289,23.728-3.289,23.728l6.673,0.564l-0.068-23.377
					L232.593,374.997z"/>
				<path style="fill:#2E7C32;" d="M221.107,333.401c0,0,11.036-2.197,9.767,0.641c-1.265,2.843-15.462,10.24-15.462,10.24
					s11.272-1.615,9.576,2.247c-1.692,3.867-15.721,10.349-15.721,10.349s18.141-2.789,13.183,2.356
					c-4.963,5.145-22.945,13.811-22.945,13.811s22.859-4.836,22.126,0.901c-0.732,5.732-10.058,7.378-12,11.004
					c0,0,22.559-4.008,25.02-0.937c2.57,0.005,25.32,3.976,25.361,2.984c-1.66-3.735-11.313-6.478-11.609-12.241
					c-0.296-5.768,22.145,0.437,22.145,0.437s-17.282-9.73-21.844-15.162c-4.558-5.436,13.333-1.556,13.333-1.556
					s-13.511-7.319-14.907-11.272c-1.397-3.958,9.726-1.665,9.726-1.665s-13.602-8.243-14.652-11.15
					c-1.051-2.911,9.794-0.05,9.794-0.05c-9.13-7.679-12.482-15.712-14.707-19.938C234.754,318.481,230.796,326.296,221.107,333.401
					z"/>
				<path style="fill:#388D3C;" d="M221.107,333.401c0,0,11.036-2.197,9.767,0.641c-1.265,2.843-15.462,10.24-15.462,10.24
					s11.272-1.615,9.576,2.252c-1.692,3.862-15.721,10.344-15.721,10.344s18.141-2.789,13.183,2.356
					c-4.968,5.145-22.945,13.811-22.945,13.811s22.859-4.836,22.126,0.901c-0.728,5.732-10.058,7.374-12,11.004
					c-4.608,1.588,18.637-2.802,25.02-0.937l2.843-69.218l-0.205-0.396C234.754,318.481,230.796,326.296,221.107,333.401z"/>
			</g>
			<g>
				<path style="fill:#785448;" d="M212.841,380.283c-0.155,0.573-3.293,23.728-3.293,23.728l6.673,0.564l-0.068-23.377
					L212.841,380.283z"/>
				<path style="fill:#2E7C32;" d="M201.35,338.687c0,0,11.036-2.197,9.771,0.641c-1.269,2.839-15.467,10.24-15.467,10.24
					s11.272-1.615,9.58,2.247c-1.692,3.862-15.726,10.349-15.726,10.349s18.146-2.793,13.183,2.356
					c-4.963,5.145-22.945,13.811-22.945,13.811s22.863-4.836,22.131,0.901c-0.732,5.732-10.058,7.378-12,11.004
					c0,0,22.559-4.008,25.015-0.942c2.57,0.005,25.324,3.98,25.361,2.989c-1.66-3.735-11.309-6.478-11.609-12.241
					c-0.296-5.764,22.145,0.441,22.145,0.441s-17.282-9.735-21.84-15.171c-4.563-5.432,13.329-1.551,13.329-1.551
					s-13.511-7.319-14.907-11.277c-1.397-3.953,9.726-1.66,9.726-1.66s-13.602-8.238-14.648-11.15
					c-1.051-2.911,9.789-0.055,9.789-0.055c-9.13-7.674-12.482-15.708-14.707-19.934
					C214.998,323.767,211.044,331.582,201.35,338.687z"/>
				<path style="fill:#388D3C;" d="M201.35,338.687c0,0,11.036-2.197,9.771,0.641c-1.269,2.839-15.462,10.24-15.462,10.24
					s11.268-1.615,9.576,2.247c-1.692,3.862-15.726,10.349-15.726,10.349s18.146-2.793,13.183,2.356
					c-4.963,5.145-22.945,13.811-22.945,13.811s22.863-4.836,22.131,0.901c-0.732,5.736-10.062,7.378-12,11.004
					c-4.613,1.583,18.633-2.807,25.015-0.942l2.843-69.213l-0.205-0.396C214.998,323.767,211.044,331.582,201.35,338.687z"/>
			</g>
			<g>
				<path style="fill:#FFFFFF;" d="M206,326.123c0,0,10.945-9.562,12.2-12.332c1.256-2.766,5.281,0.76,8.429,8.934
					c3.143,8.175,2.265,16.103-2.015,12.455c-4.276-3.653-3.898-0.505-5.159,1.506c-1.256,2.015-6.541-1.506-6.037-4.276
					c0.505-2.77-2.306,2.456-5.159,2.388c-2.848-0.059-8.552-4.399-5.409-6.541C206,326.123,206,326.123,206,326.123z"/>
				<path style="fill:#FFFFFF;" d="M228.231,324.012c0,0,6.328-7.847,6.855-9.894c0.523-2.038,3.698-0.114,6.833,5.09
					c3.13,5.209,3.485,10.731,0.123,8.752c-3.362-1.979-2.729,0.123-3.344,1.647c-0.619,1.528-4.654-0.241-4.64-2.193
					c0.014-1.952-1.283,1.956-3.239,2.256c-1.956,0.296-6.369-1.983-4.481-3.821C228.231,324.012,228.231,324.012,228.231,324.012z"
					/>
				<path style="fill:#FFFFFF;" d="M196.997,345.961l19.866-4.654c0,0,18.938,4.021,20.762,5.536
					c1.824,1.506-6.792,3.521-9.876,2.133c-3.08-1.383-1.128,0.628-5.468,1.824s-8.175,1.005-9.248-1.005
					c-1.069-2.011-3.021-2.325-5.222-1.447c-2.197,0.883-7.947,3.73-9.307,2.079c-1.356-1.656-1.883-1.447-1.697-2.957
					C196.997,345.961,196.997,345.961,196.997,345.961z"/>
				<path style="fill:#FFFFFF;" d="M191.497,358.789l25.242-4.658c0,0,24.055,4.03,26.375,5.536
					c2.32,1.515-8.629,3.521-12.546,2.143c-3.912-1.383-1.433,0.628-6.946,1.824c-5.518,1.192-10.39,1.001-11.75-1.01
					c-1.356-2.011-3.835-2.325-6.632-1.442c-2.793,0.878-10.099,3.726-11.823,2.07c-1.729-1.651-2.402-1.442-2.161-2.952
					C191.497,358.789,191.497,358.789,191.497,358.789z"/>
				<path style="fill:#FFFFFF;" d="M182.358,372.791l34.177-4.658c0,0,32.571,4.026,35.71,5.536
					c3.139,1.51-11.682,3.521-16.986,2.138c-5.295-1.383-1.942,0.628-9.407,1.824s-14.066,1.005-15.908-1.005
					c-1.838-2.011-5.195-2.325-8.98-1.447s-13.674,3.726-16.013,2.074c-2.338-1.651-3.243-1.442-2.92-2.952
					C182.358,372.791,182.358,372.791,182.358,372.791z"/>
			</g>
			<circle style="fill:#333333;" cx="91.71" cy="271.639" r="4.59"/>
			<circle style="fill:#FFFF00;" cx="92.907" cy="272.708" r="2.516"/>
			<circle style="fill:#333333;" cx="111.398" cy="266.258" r="4.59"/>
			<circle style="fill:#FFFF00;" cx="112.59" cy="267.327" r="2.516"/>
			<path style="fill:#FFA526;" d="M105.981,273.746c0,0,29.937-2.77,31.952-3.021c2.011-0.25,2.893,4.281-1.888,4.781
				c-4.781,0.505-27.171,3.776-27.171,3.776S101.327,279.782,105.981,273.746z"/>
			<path style="fill:#2B2A29;" d="M95.955,284.618c0.023,0.018,8.125,6.51,16.763-0.505c1.237-1.037,2.579,0.564,1.096,1.347
				c-9.73,7.902-18.933,0.523-18.96,0.5C93.325,285.173,94.835,283.713,95.955,284.618z"/>
			<path style="fill:#7FDDE9;" d="M131.055,69.195c6.214,0,12.073,1.474,17.263,4.09c5.618-5.5,13.31-8.893,21.799-8.893
				c14.693,0,27.012,10.172,30.305,23.86c7.347,2.202,13.238,7.752,15.931,14.871c0.878-0.1,1.774-0.146,2.684-0.146
				c13.57,0,24.587,11.009,24.587,24.592s-11.018,24.587-24.587,24.587c-4.235,0-8.216-1.064-11.686-2.948
				c-2.989,10.222-12.428,17.682-23.614,17.682c-6.828,0-13.006-2.784-17.464-7.288c-4.458,4.504-10.645,7.288-17.477,7.288
				c-6.487,0-12.401-2.52-16.799-6.632c-4.49,4.917-10.954,8.002-18.146,8.002c-6.728,0-12.824-2.693-17.254-7.074
				c-2.029,0.45-4.149,0.682-6.305,0.682c-16.185,0-29.3-13.115-29.3-29.291c0-16.181,13.115-29.296,29.3-29.296
				c0.873,0,1.751,0.041,2.616,0.123C94.981,84.166,111.271,69.195,131.055,69.195z"/>
			<path style="fill:#26C5D9;" d="M355.457,92.668c4.285,0,8.334,1.019,11.914,2.825c3.871-3.794,9.18-6.137,15.039-6.137
				c10.135,0,18.637,7.019,20.907,16.458c5.072,1.524,9.134,5.35,10.99,10.263c0.61-0.068,1.228-0.1,1.851-0.1
				c9.366,0,16.963,7.597,16.963,16.968s-7.597,16.963-16.963,16.963c-2.92,0-5.668-0.732-8.061-2.029
				c-2.061,7.051-8.57,12.196-16.29,12.196c-4.713,0-8.975-1.92-12.055-5.027c-3.075,3.107-7.338,5.027-12.055,5.027
				c-4.476,0-8.557-1.738-11.591-4.572c-3.098,3.389-7.556,5.518-12.519,5.518c-4.645,0-8.848-1.861-11.905-4.881
				c-1.401,0.314-2.861,0.473-4.353,0.473c-11.163,0-20.211-9.053-20.211-20.211c0-11.168,9.048-20.216,20.211-20.216
				c0.605,0,1.21,0.032,1.806,0.086C330.57,102.999,341.806,92.668,355.457,92.668z"/>
			<path style="fill:#DFF5F9;" d="M267.912,25.252c4.285,0,8.329,1.019,11.909,2.82c3.876-3.794,9.184-6.137,15.039-6.137
				c10.14,0,18.637,7.019,20.912,16.458c5.068,1.524,9.134,5.354,10.986,10.263c0.61-0.068,1.228-0.096,1.856-0.096
				c9.362,0,16.963,7.592,16.963,16.963s-7.601,16.968-16.963,16.968c-2.92,0-5.668-0.737-8.065-2.038
				c-2.061,7.056-8.57,12.2-16.29,12.2c-4.713,0-8.975-1.92-12.05-5.027c-3.075,3.107-7.342,5.027-12.055,5.027
				c-4.481,0-8.557-1.738-11.591-4.572c-3.098,3.389-7.56,5.518-12.519,5.518c-4.645,0-8.852-1.861-11.909-4.881
				c-1.401,0.309-2.861,0.469-4.353,0.469c-11.163,0-20.211-9.048-20.211-20.211s9.048-20.211,20.211-20.211
				c0.61,0,1.215,0.027,1.806,0.086C243.019,35.578,254.26,25.252,267.912,25.252z"/>
			<path style="fill:#FFFFFF;" d="M456.554,209.655h0.182c0.387,0,0.701,0.314,0.701,0.705v2.643l1.888-2.138
				c0.136-0.155,0.318-0.237,0.528-0.237c0.209,0,0.387,0.082,0.528,0.237l0.05,0.059c0.232,0.264,0.232,0.664,0,0.928l-2.993,3.394
				v2.652l1.046-1.306c0.132-0.164,0.305-0.255,0.519-0.264c0.209-0.009,0.391,0.064,0.537,0.214l0.1,0.1
				c0.255,0.268,0.277,0.682,0.032,0.964l-2.234,2.529v2.029l1.756-1.014l1.155-3.439c0.114-0.337,0.455-0.532,0.805-0.464
				l0.073,0.014c0.205,0.041,0.368,0.155,0.473,0.341c0.1,0.177,0.123,0.378,0.059,0.578l-0.623,1.851l2.293-1.328l1.442-4.285
				c0.114-0.337,0.459-0.537,0.805-0.464l0.077,0.018c0.205,0.041,0.364,0.15,0.469,0.337c0.105,0.177,0.123,0.373,0.059,0.573
				l-0.91,2.702l2.288-1.319c0.337-0.196,0.769-0.082,0.96,0.255l0.091,0.155c0.196,0.337,0.077,0.764-0.259,0.96l-2.288,1.324
				l2.793,0.56c0.205,0.045,0.364,0.159,0.473,0.341c0.105,0.182,0.123,0.378,0.055,0.578l-0.023,0.073
				c-0.114,0.332-0.459,0.532-0.81,0.459l-4.426-0.892l-2.297,1.324l1.656,0.255c0.205,0.032,0.373,0.141,0.482,0.314
				c0.118,0.177,0.141,0.373,0.086,0.573l-0.041,0.136c-0.1,0.359-0.455,0.582-0.819,0.509l-3.307-0.669l-1.756,1.014l1.756,1.014
				l3.557-0.719c0.346-0.068,0.687,0.127,0.801,0.469l0.027,0.068c0.064,0.196,0.045,0.396-0.059,0.578s-0.264,0.296-0.469,0.341
				l-1.915,0.382l2.297,1.328l4.426-0.892c0.355-0.073,0.696,0.123,0.81,0.464l0.023,0.073c0.068,0.196,0.05,0.391-0.055,0.573
				c-0.109,0.177-0.268,0.296-0.473,0.337l-2.793,0.564l2.288,1.324c0.341,0.196,0.455,0.623,0.259,0.96l-0.091,0.155
				c-0.191,0.337-0.623,0.45-0.96,0.259l-2.288-1.324l0.91,2.702c0.064,0.2,0.045,0.396-0.059,0.573
				c-0.105,0.182-0.264,0.3-0.469,0.341l-0.077,0.014c-0.346,0.073-0.691-0.127-0.805-0.464l-1.442-4.285l-2.293-1.328l0.61,1.56
				c0.073,0.196,0.059,0.396-0.032,0.578c-0.096,0.187-0.255,0.309-0.455,0.359l-0.136,0.036c-0.364,0.086-0.732-0.1-0.855-0.455
				l-1.074-3.198l-1.756-1.019v2.033l2.397,2.72c0.237,0.264,0.237,0.66,0.005,0.928l-0.05,0.055
				c-0.136,0.159-0.318,0.241-0.528,0.241s-0.391-0.082-0.528-0.241l-1.296-1.465v2.652l2.993,3.389
				c0.232,0.268,0.232,0.664,0,0.933l-0.05,0.059c-0.141,0.155-0.318,0.237-0.528,0.237c-0.209,0-0.391-0.082-0.528-0.237
				l-1.888-2.138v2.643c0,0.387-0.314,0.705-0.701,0.705h-0.182c-0.382,0-0.701-0.318-0.701-0.705v-2.643l-1.888,2.138
				c-0.136,0.155-0.318,0.237-0.528,0.237c-0.205,0-0.387-0.082-0.523-0.237l-0.05-0.059c-0.237-0.268-0.237-0.664,0-0.933
				l2.989-3.389v-2.652l-1.046,1.306c-0.132,0.164-0.305,0.255-0.519,0.264c-0.209,0.014-0.391-0.064-0.537-0.214l-0.1-0.1
				c-0.259-0.268-0.277-0.687-0.032-0.964l2.234-2.529v-2.033l-1.76,1.019l-1.151,3.434c-0.114,0.337-0.455,0.537-0.805,0.469
				l-0.073-0.014c-0.205-0.045-0.368-0.155-0.473-0.337s-0.123-0.382-0.059-0.578l0.623-1.856l-2.297,1.328l-1.437,4.285
				c-0.114,0.337-0.459,0.537-0.81,0.464l-0.073-0.014c-0.205-0.041-0.364-0.159-0.469-0.341c-0.105-0.177-0.127-0.373-0.059-0.573
				l0.91-2.702l-2.293,1.324c-0.332,0.191-0.764,0.077-0.96-0.259l-0.086-0.155c-0.196-0.337-0.077-0.764,0.259-0.96l2.288-1.324
				l-2.798-0.564c-0.2-0.041-0.364-0.159-0.469-0.337c-0.105-0.182-0.123-0.378-0.055-0.573l0.023-0.073
				c0.114-0.341,0.455-0.537,0.805-0.464l4.435,0.892l2.293-1.328l-1.651-0.25c-0.209-0.032-0.373-0.141-0.491-0.318
				c-0.109-0.177-0.136-0.368-0.082-0.573l0.036-0.132c0.105-0.359,0.459-0.587,0.823-0.514l3.307,0.669l1.756-1.014l-1.756-1.014
				l-3.557,0.719c-0.346,0.073-0.687-0.127-0.805-0.459l-0.023-0.073c-0.068-0.2-0.05-0.396,0.059-0.578
				c0.105-0.182,0.259-0.296,0.469-0.337l1.915-0.391l-2.293-1.324l-4.435,0.892c-0.35,0.073-0.691-0.127-0.805-0.459l-0.023-0.073
				c-0.068-0.2-0.05-0.396,0.055-0.578c0.105-0.182,0.268-0.296,0.469-0.341l2.798-0.56l-2.288-1.324
				c-0.337-0.196-0.455-0.623-0.259-0.96l0.086-0.155c0.196-0.337,0.628-0.45,0.96-0.255l2.293,1.319l-0.91-2.702
				c-0.068-0.2-0.046-0.396,0.059-0.573c0.105-0.187,0.264-0.296,0.469-0.337l0.073-0.018c0.35-0.073,0.696,0.127,0.81,0.464
				l1.437,4.285l2.297,1.328l-0.61-1.56c-0.073-0.196-0.064-0.396,0.032-0.578c0.1-0.187,0.255-0.309,0.455-0.359l0.136-0.036
				c0.364-0.091,0.732,0.105,0.851,0.455l1.074,3.198l1.76,1.014v-2.029l-2.402-2.72c-0.232-0.268-0.232-0.66,0-0.928l0.05-0.055
				c0.136-0.159,0.318-0.241,0.528-0.241s0.391,0.082,0.528,0.241l1.296,1.465v-2.652l-2.989-3.394
				c-0.237-0.264-0.237-0.664,0-0.928l0.05-0.059c0.136-0.155,0.318-0.237,0.523-0.237c0.209,0,0.391,0.082,0.528,0.237l1.888,2.138
				v-2.643C455.854,209.969,456.172,209.655,456.554,209.655z M80.593,164.105h0.177c0.387,0,0.701,0.318,0.701,0.705v2.648
				l1.888-2.143c0.141-0.155,0.318-0.237,0.528-0.237c0.209,0,0.391,0.082,0.528,0.237l0.05,0.059c0.237,0.268,0.237,0.664,0,0.933
				l-2.993,3.389v2.652l1.051-1.306c0.127-0.164,0.305-0.255,0.514-0.264s0.396,0.064,0.541,0.214l0.096,0.105
				c0.259,0.264,0.277,0.678,0.032,0.96l-2.234,2.534v2.024l1.76-1.014l1.155-3.434c0.114-0.341,0.455-0.532,0.801-0.464
				l0.077,0.014c0.205,0.041,0.364,0.15,0.469,0.337c0.105,0.177,0.127,0.378,0.059,0.578l-0.623,1.851l2.297-1.328l1.442-4.285
				c0.114-0.337,0.455-0.537,0.805-0.464l0.077,0.018c0.2,0.041,0.364,0.155,0.469,0.337c0.105,0.177,0.123,0.378,0.059,0.573
				l-0.91,2.702l2.288-1.319c0.337-0.196,0.764-0.082,0.96,0.259l0.091,0.15c0.191,0.337,0.077,0.764-0.259,0.96l-2.293,1.324
				l2.798,0.564c0.205,0.041,0.364,0.155,0.469,0.337c0.105,0.182,0.123,0.378,0.059,0.578l-0.023,0.073
				c-0.114,0.337-0.459,0.532-0.81,0.459l-4.431-0.892l-2.297,1.328l1.656,0.25c0.209,0.032,0.378,0.141,0.487,0.318
				c0.114,0.177,0.141,0.373,0.082,0.573l-0.036,0.136c-0.1,0.355-0.455,0.582-0.819,0.509l-3.307-0.669l-1.756,1.01l1.756,1.019
				l3.553-0.719c0.35-0.073,0.687,0.127,0.805,0.464l0.027,0.068c0.064,0.2,0.045,0.396-0.059,0.578s-0.264,0.3-0.469,0.341
				l-1.92,0.387l2.297,1.324l4.431-0.892c0.35-0.073,0.696,0.127,0.81,0.464l0.023,0.073c0.064,0.196,0.045,0.391-0.059,0.573
				c-0.105,0.182-0.264,0.3-0.469,0.341l-2.798,0.56l2.293,1.324c0.341,0.196,0.45,0.623,0.259,0.96l-0.091,0.155
				c-0.196,0.337-0.623,0.45-0.96,0.259l-2.288-1.324l0.91,2.702c0.064,0.2,0.045,0.396-0.059,0.578
				c-0.105,0.182-0.268,0.296-0.469,0.337l-0.077,0.014c-0.35,0.073-0.691-0.127-0.805-0.464l-1.442-4.285l-2.297-1.328l0.61,1.56
				c0.077,0.196,0.064,0.396-0.032,0.582c-0.096,0.182-0.25,0.305-0.455,0.355l-0.136,0.036c-0.359,0.086-0.728-0.1-0.851-0.455
				l-1.074-3.198l-1.76-1.014v2.029l2.402,2.72c0.237,0.268,0.237,0.66,0,0.928l-0.045,0.055c-0.141,0.159-0.318,0.241-0.532,0.241
				c-0.209,0-0.387-0.082-0.528-0.241l-1.296-1.46v2.648l2.993,3.394c0.237,0.264,0.237,0.66,0,0.928l-0.05,0.059
				c-0.136,0.155-0.318,0.237-0.528,0.237c-0.209,0-0.387-0.082-0.528-0.237l-1.888-2.138v2.643c0,0.391-0.314,0.705-0.701,0.705
				h-0.177c-0.387,0-0.705-0.314-0.705-0.705v-2.643l-1.883,2.138c-0.141,0.155-0.318,0.237-0.528,0.237
				c-0.209,0-0.387-0.082-0.528-0.237l-0.05-0.059c-0.237-0.268-0.237-0.664,0-0.928l2.989-3.394v-2.648l-1.046,1.306
				c-0.127,0.159-0.305,0.255-0.514,0.264c-0.209,0.009-0.396-0.068-0.541-0.214l-0.096-0.105c-0.259-0.268-0.277-0.682-0.032-0.964
				l2.229-2.529v-2.029l-1.756,1.014l-1.155,3.439c-0.109,0.332-0.45,0.532-0.801,0.464l-0.073-0.014
				c-0.205-0.041-0.368-0.155-0.473-0.337c-0.105-0.182-0.127-0.382-0.059-0.578l0.623-1.856l-2.297,1.328l-1.442,4.285
				c-0.109,0.337-0.455,0.537-0.805,0.464l-0.073-0.014c-0.205-0.041-0.364-0.155-0.469-0.337c-0.105-0.182-0.127-0.378-0.059-0.578
				l0.91-2.702l-2.293,1.324c-0.332,0.191-0.769,0.077-0.96-0.259l-0.086-0.155c-0.196-0.337-0.082-0.764,0.255-0.96l2.288-1.324
				l-2.793-0.56c-0.205-0.041-0.364-0.159-0.469-0.341s-0.123-0.378-0.059-0.573l0.027-0.073c0.114-0.337,0.455-0.537,0.805-0.464
				l4.431,0.892l2.297-1.324l-1.656-0.255c-0.205-0.032-0.373-0.141-0.487-0.314c-0.109-0.177-0.141-0.373-0.082-0.573l0.036-0.136
				c0.105-0.359,0.455-0.582,0.819-0.509l3.307,0.669l1.756-1.019l-1.756-1.01l-3.553,0.719c-0.346,0.073-0.691-0.127-0.805-0.464
				l-0.023-0.068c-0.068-0.2-0.05-0.4,0.055-0.578c0.105-0.187,0.264-0.3,0.473-0.341l1.915-0.387l-2.297-1.328l-4.431,0.892
				c-0.35,0.073-0.691-0.123-0.805-0.459l-0.027-0.073c-0.064-0.2-0.045-0.396,0.059-0.578s0.264-0.296,0.469-0.337l2.793-0.564
				l-2.288-1.324c-0.337-0.196-0.45-0.623-0.255-0.96l0.086-0.15c0.191-0.341,0.628-0.455,0.96-0.259l2.293,1.319l-0.91-2.702
				c-0.068-0.196-0.045-0.396,0.059-0.573c0.105-0.182,0.264-0.296,0.469-0.337l0.073-0.018c0.35-0.073,0.696,0.127,0.805,0.464
				l1.442,4.285l2.297,1.328l-0.61-1.556c-0.077-0.2-0.064-0.4,0.032-0.582c0.1-0.187,0.255-0.309,0.455-0.359l0.136-0.036
				c0.364-0.091,0.732,0.105,0.851,0.455l1.074,3.198l1.756,1.014v-2.024l-2.397-2.725c-0.237-0.264-0.237-0.66,0-0.928l0.05-0.055
				c0.136-0.159,0.314-0.241,0.528-0.241c0.209,0,0.387,0.082,0.528,0.241l1.292,1.465v-2.652l-2.989-3.389
				c-0.237-0.268-0.237-0.664,0-0.933l0.05-0.059c0.141-0.155,0.318-0.237,0.528-0.237c0.209,0,0.387,0.082,0.528,0.237l1.883,2.143
				v-2.648C79.887,164.424,80.206,164.105,80.593,164.105z M98.848,210.373h0.177c0.387,0,0.701,0.314,0.701,0.701v2.648
				l1.888-2.138c0.136-0.155,0.318-0.241,0.528-0.241s0.391,0.086,0.528,0.241l0.05,0.055c0.237,0.268,0.237,0.664,0,0.933
				l-2.993,3.389v2.652l1.046-1.306c0.132-0.164,0.309-0.255,0.519-0.264c0.209-0.009,0.396,0.064,0.537,0.214l0.1,0.105
				c0.255,0.268,0.277,0.682,0.032,0.96l-2.234,2.534v2.029l1.756-1.014l1.155-3.439c0.114-0.337,0.455-0.532,0.805-0.464
				l0.077,0.014c0.205,0.041,0.364,0.155,0.469,0.337c0.105,0.182,0.123,0.378,0.059,0.578l-0.623,1.851l2.293-1.324l1.447-4.285
				c0.114-0.341,0.455-0.537,0.805-0.469l0.073,0.018c0.205,0.041,0.368,0.155,0.469,0.337c0.105,0.182,0.123,0.378,0.059,0.578
				l-0.91,2.698l2.288-1.319c0.341-0.196,0.769-0.077,0.964,0.259l0.086,0.15c0.196,0.337,0.077,0.769-0.255,0.96l-2.293,1.324
				l2.793,0.564c0.209,0.041,0.368,0.155,0.473,0.341c0.105,0.177,0.123,0.373,0.055,0.573l-0.023,0.073
				c-0.114,0.337-0.455,0.537-0.805,0.464l-4.431-0.896l-2.297,1.328l1.656,0.255c0.209,0.032,0.373,0.136,0.482,0.314
				c0.118,0.177,0.146,0.373,0.086,0.573l-0.036,0.136c-0.105,0.355-0.455,0.582-0.823,0.509l-3.303-0.669l-1.76,1.014l1.76,1.014
				l3.553-0.719c0.346-0.073,0.687,0.127,0.805,0.464l0.023,0.068c0.068,0.2,0.05,0.4-0.055,0.578
				c-0.105,0.182-0.268,0.3-0.469,0.341l-1.92,0.387l2.297,1.328l4.431-0.896c0.35-0.073,0.691,0.127,0.805,0.464l0.023,0.073
				c0.068,0.2,0.05,0.396-0.055,0.573c-0.105,0.182-0.264,0.3-0.473,0.341l-2.793,0.564l2.293,1.324
				c0.337,0.191,0.45,0.623,0.255,0.96l-0.086,0.15c-0.196,0.337-0.623,0.45-0.964,0.259l-2.288-1.324l0.91,2.702
				c0.064,0.2,0.045,0.396-0.059,0.578c-0.1,0.182-0.264,0.296-0.469,0.337l-0.073,0.018c-0.35,0.068-0.691-0.127-0.805-0.469
				l-1.447-4.285l-2.293-1.324l0.61,1.556c0.073,0.2,0.064,0.396-0.032,0.582c-0.096,0.182-0.25,0.309-0.455,0.359l-0.136,0.032
				c-0.364,0.086-0.732-0.1-0.851-0.455l-1.078-3.193l-1.756-1.019v2.029l2.397,2.72c0.237,0.268,0.241,0.66,0.005,0.928
				l-0.05,0.055c-0.136,0.159-0.318,0.241-0.528,0.241c-0.209,0-0.391-0.077-0.528-0.237l-1.296-1.465v2.652l2.993,3.389
				c0.237,0.268,0.237,0.664,0,0.933l-0.05,0.059c-0.136,0.15-0.318,0.232-0.528,0.232s-0.391-0.082-0.528-0.232l-1.888-2.143v2.648
				c0,0.387-0.314,0.701-0.701,0.701h-0.177c-0.387,0-0.705-0.314-0.705-0.701v-2.648l-1.888,2.143
				c-0.136,0.15-0.318,0.232-0.528,0.232c-0.205,0-0.387-0.082-0.523-0.232l-0.05-0.059c-0.237-0.268-0.237-0.664,0-0.933
				l2.989-3.389v-2.652l-1.046,1.306c-0.132,0.164-0.305,0.255-0.519,0.264c-0.209,0.009-0.391-0.064-0.537-0.214l-0.1-0.105
				c-0.255-0.264-0.277-0.682-0.032-0.96l2.234-2.534v-2.029l-1.756,1.019l-1.155,3.435c-0.109,0.332-0.455,0.532-0.805,0.464
				l-0.073-0.014c-0.205-0.041-0.364-0.155-0.469-0.337c-0.109-0.182-0.127-0.378-0.059-0.578l0.623-1.851l-2.297,1.324
				l-1.442,4.285c-0.114,0.341-0.455,0.537-0.81,0.469l-0.068-0.018c-0.205-0.041-0.368-0.155-0.473-0.337s-0.123-0.378-0.055-0.578
				l0.905-2.702l-2.288,1.324c-0.337,0.191-0.769,0.077-0.964-0.259l-0.086-0.15c-0.196-0.337-0.077-0.769,0.259-0.96l2.288-1.324
				l-2.793-0.564c-0.205-0.041-0.368-0.159-0.469-0.341c-0.105-0.177-0.127-0.373-0.059-0.573l0.027-0.073
				c0.109-0.337,0.455-0.537,0.801-0.464l4.435,0.896l2.293-1.328l-1.651-0.255c-0.209-0.027-0.373-0.136-0.487-0.314
				c-0.114-0.177-0.141-0.373-0.086-0.573l0.041-0.136c0.105-0.355,0.455-0.582,0.819-0.509l3.307,0.669l1.756-1.014l-1.756-1.014
				l-3.553,0.719c-0.35,0.073-0.691-0.127-0.805-0.464l-0.023-0.068c-0.073-0.2-0.055-0.396,0.055-0.578
				c0.105-0.187,0.264-0.3,0.469-0.341l1.915-0.387l-2.293-1.328l-4.435,0.896c-0.346,0.073-0.691-0.127-0.801-0.464l-0.027-0.073
				c-0.068-0.2-0.045-0.396,0.059-0.573c0.1-0.187,0.264-0.3,0.469-0.341l2.793-0.564l-2.288-1.324
				c-0.337-0.191-0.455-0.623-0.259-0.96l0.086-0.15c0.196-0.337,0.628-0.455,0.964-0.259l2.288,1.319l-0.905-2.698
				c-0.068-0.2-0.05-0.396,0.055-0.578s0.268-0.296,0.473-0.337l0.068-0.018c0.355-0.068,0.696,0.127,0.81,0.469l1.442,4.285
				l2.297,1.324l-0.61-1.556c-0.077-0.2-0.068-0.396,0.032-0.582c0.096-0.187,0.25-0.309,0.45-0.359l0.141-0.032
				c0.359-0.091,0.732,0.1,0.846,0.455l1.078,3.198l1.756,1.014v-2.029l-2.397-2.72c-0.237-0.268-0.237-0.66,0-0.928l0.05-0.059
				c0.132-0.155,0.314-0.237,0.523-0.237s0.391,0.082,0.532,0.237l1.292,1.465v-2.652l-2.989-3.389
				c-0.237-0.268-0.237-0.664,0-0.933l0.05-0.055c0.136-0.155,0.318-0.241,0.523-0.241c0.209,0,0.391,0.086,0.528,0.241l1.888,2.138
				v-2.648C98.143,210.687,98.461,210.373,98.848,210.373z M158.062,216.046h0.177c0.387,0,0.701,0.314,0.701,0.701v2.648
				l1.888-2.138c0.136-0.159,0.318-0.237,0.528-0.237c0.209,0,0.387,0.077,0.528,0.237l0.05,0.055c0.237,0.268,0.237,0.664,0,0.933
				l-2.993,3.389v2.652l1.046-1.306c0.132-0.164,0.309-0.255,0.519-0.264c0.209-0.009,0.396,0.064,0.541,0.214l0.096,0.105
				c0.259,0.264,0.277,0.682,0.032,0.964l-2.234,2.529v2.029l1.76-1.014l1.151-3.439c0.114-0.337,0.455-0.532,0.805-0.464
				l0.077,0.014c0.2,0.041,0.364,0.155,0.469,0.337s0.127,0.378,0.059,0.578l-0.623,1.851l2.297-1.324l1.442-4.285
				c0.114-0.337,0.455-0.537,0.805-0.469l0.073,0.018c0.205,0.041,0.368,0.155,0.469,0.337c0.105,0.182,0.127,0.378,0.059,0.578
				l-0.905,2.702l2.288-1.324c0.337-0.191,0.764-0.077,0.96,0.259l0.086,0.155c0.196,0.332,0.077,0.764-0.255,0.96l-2.293,1.324
				l2.798,0.56c0.205,0.045,0.364,0.159,0.469,0.341c0.105,0.177,0.123,0.378,0.055,0.573l-0.023,0.073
				c-0.114,0.337-0.455,0.532-0.805,0.464l-4.431-0.896l-2.297,1.328l1.656,0.25c0.209,0.032,0.373,0.141,0.487,0.318
				s0.141,0.373,0.082,0.573l-0.036,0.136c-0.105,0.355-0.455,0.582-0.823,0.509l-3.303-0.669l-1.756,1.014l1.756,1.014l3.553-0.719
				c0.346-0.068,0.687,0.127,0.805,0.464l0.027,0.073c0.064,0.196,0.045,0.396-0.059,0.573c-0.105,0.187-0.264,0.3-0.473,0.341
				l-1.915,0.387l2.297,1.328l4.431-0.896c0.35-0.068,0.691,0.127,0.805,0.464l0.023,0.073c0.068,0.2,0.05,0.396-0.055,0.573
				c-0.105,0.182-0.264,0.3-0.469,0.341l-2.798,0.564l2.293,1.319c0.337,0.196,0.45,0.628,0.255,0.964l-0.086,0.155
				c-0.196,0.332-0.623,0.45-0.96,0.255l-2.288-1.324l0.905,2.707c0.068,0.196,0.045,0.391-0.059,0.573
				c-0.1,0.182-0.264,0.296-0.469,0.337l-0.073,0.018c-0.35,0.068-0.691-0.127-0.805-0.469l-1.442-4.285l-2.297-1.324l0.61,1.56
				c0.077,0.191,0.064,0.391-0.032,0.578c-0.096,0.187-0.25,0.305-0.455,0.359l-0.136,0.032c-0.364,0.091-0.732-0.1-0.851-0.455
				l-1.074-3.198l-1.76-1.014v2.029l2.397,2.72c0.237,0.268,0.241,0.66,0.005,0.933l-0.05,0.05
				c-0.136,0.159-0.318,0.246-0.528,0.246c-0.209,0-0.387-0.086-0.528-0.241l-1.296-1.465v2.652l2.993,3.389
				c0.237,0.268,0.237,0.664,0,0.933l-0.05,0.055c-0.141,0.159-0.318,0.241-0.528,0.241c-0.209,0-0.391-0.082-0.528-0.241
				l-1.888-2.133v2.643c0,0.387-0.314,0.701-0.701,0.701h-0.177c-0.387,0-0.705-0.314-0.705-0.701v-2.643l-1.888,2.133
				c-0.136,0.159-0.318,0.241-0.523,0.241c-0.209,0-0.391-0.082-0.528-0.241l-0.05-0.055c-0.237-0.268-0.237-0.664,0-0.933
				l2.989-3.389v-2.652l-1.046,1.306c-0.127,0.164-0.305,0.255-0.519,0.264c-0.205,0.009-0.391-0.064-0.537-0.214l-0.1-0.105
				c-0.255-0.268-0.273-0.682-0.032-0.964l2.234-2.529v-2.029l-1.756,1.014l-1.155,3.439c-0.109,0.337-0.455,0.537-0.801,0.464
				l-0.077-0.014c-0.205-0.041-0.364-0.155-0.469-0.337c-0.105-0.177-0.127-0.378-0.059-0.578l0.623-1.851l-2.297,1.324
				l-1.442,4.285c-0.114,0.341-0.455,0.537-0.805,0.469l-0.077-0.018c-0.2-0.041-0.364-0.155-0.469-0.337s-0.123-0.378-0.055-0.573
				l0.91-2.707l-2.293,1.324c-0.337,0.196-0.769,0.077-0.96-0.255l-0.091-0.155c-0.191-0.337-0.077-0.769,0.259-0.964l2.288-1.319
				l-2.793-0.564c-0.205-0.041-0.368-0.159-0.469-0.341c-0.105-0.177-0.123-0.373-0.059-0.573l0.027-0.073
				c0.109-0.337,0.455-0.532,0.801-0.464l4.435,0.896l2.293-1.328l-1.651-0.25c-0.209-0.032-0.373-0.146-0.487-0.318
				c-0.114-0.177-0.141-0.373-0.086-0.573l0.041-0.132c0.105-0.364,0.455-0.587,0.819-0.514l3.307,0.669l1.756-1.014l-1.756-1.014
				l-3.553,0.719c-0.35,0.073-0.691-0.127-0.805-0.464l-0.023-0.068c-0.068-0.2-0.05-0.4,0.055-0.578
				c0.105-0.182,0.264-0.3,0.469-0.341l1.915-0.387l-2.293-1.328l-4.435,0.896c-0.346,0.068-0.691-0.127-0.801-0.464l-0.027-0.073
				c-0.064-0.196-0.045-0.396,0.059-0.573c0.1-0.182,0.264-0.296,0.469-0.341l2.793-0.56l-2.288-1.324
				c-0.337-0.196-0.45-0.628-0.259-0.96l0.091-0.155c0.191-0.337,0.623-0.45,0.96-0.259l2.293,1.324l-0.91-2.702
				c-0.068-0.2-0.05-0.396,0.055-0.578s0.268-0.296,0.469-0.337l0.077-0.018c0.35-0.068,0.691,0.132,0.805,0.469l1.442,4.285
				l2.297,1.324l-0.61-1.556c-0.077-0.196-0.064-0.396,0.032-0.582c0.096-0.182,0.25-0.305,0.45-0.359l0.141-0.036
				c0.359-0.086,0.732,0.105,0.846,0.459l1.078,3.198l1.756,1.014v-2.029l-2.397-2.72c-0.237-0.268-0.237-0.66,0-0.928l0.05-0.055
				c0.132-0.164,0.314-0.246,0.528-0.246c0.205,0,0.387,0.082,0.528,0.241l1.292,1.465v-2.652l-2.989-3.389
				c-0.237-0.268-0.237-0.664,0-0.933l0.05-0.055c0.136-0.159,0.318-0.237,0.528-0.237c0.205,0,0.387,0.077,0.523,0.237l1.888,2.138
				v-2.648C157.357,216.36,157.675,216.046,158.062,216.046z M216.785,260.349h0.182c0.387,0,0.701,0.314,0.701,0.701v2.643
				l1.888-2.133c0.136-0.159,0.318-0.241,0.528-0.241s0.387,0.082,0.528,0.241l0.05,0.055c0.232,0.268,0.232,0.664,0,0.933
				l-2.993,3.389v2.652l1.046-1.306c0.132-0.164,0.309-0.255,0.519-0.264s0.396,0.064,0.537,0.214l0.1,0.105
				c0.255,0.268,0.277,0.682,0.032,0.964l-2.234,2.529v2.029l1.756-1.014l1.155-3.439c0.114-0.337,0.455-0.537,0.805-0.464
				l0.077,0.014c0.2,0.041,0.364,0.155,0.469,0.337c0.105,0.177,0.123,0.378,0.059,0.578l-0.623,1.851l2.293-1.324l1.447-4.285
				c0.109-0.341,0.455-0.537,0.801-0.469l0.077,0.018c0.205,0.041,0.364,0.155,0.469,0.337c0.105,0.182,0.123,0.378,0.059,0.573
				l-0.91,2.707l2.288-1.324c0.337-0.196,0.769-0.077,0.96,0.255l0.091,0.155c0.196,0.337,0.077,0.769-0.255,0.964l-2.293,1.319
				l2.793,0.564c0.205,0.041,0.368,0.155,0.473,0.341c0.105,0.177,0.123,0.373,0.055,0.573l-0.023,0.073
				c-0.114,0.337-0.455,0.532-0.81,0.464l-4.426-0.896l-2.297,1.324l1.656,0.255c0.205,0.032,0.373,0.141,0.482,0.318
				c0.118,0.177,0.146,0.373,0.086,0.573l-0.041,0.132c-0.1,0.359-0.45,0.587-0.819,0.514l-3.303-0.669l-1.76,1.014l1.76,1.014
				l3.553-0.719c0.346-0.073,0.687,0.127,0.801,0.464l0.027,0.068c0.064,0.2,0.045,0.4-0.059,0.578
				c-0.1,0.182-0.264,0.3-0.469,0.341l-1.915,0.387l2.297,1.328l4.426-0.896c0.355-0.068,0.696,0.123,0.81,0.464l0.023,0.073
				c0.068,0.196,0.05,0.396-0.055,0.573c-0.105,0.182-0.268,0.296-0.473,0.337l-2.793,0.564l2.293,1.324
				c0.337,0.196,0.45,0.628,0.255,0.96l-0.091,0.155c-0.191,0.337-0.623,0.45-0.96,0.259l-2.288-1.324l0.91,2.702
				c0.064,0.2,0.045,0.396-0.059,0.578c-0.105,0.182-0.264,0.296-0.469,0.337l-0.077,0.018c-0.346,0.068-0.691-0.132-0.801-0.469
				l-1.447-4.285l-2.293-1.324l0.61,1.556c0.073,0.196,0.064,0.396-0.032,0.578c-0.096,0.186-0.255,0.309-0.455,0.364l-0.136,0.032
				c-0.364,0.091-0.732-0.1-0.851-0.455l-1.078-3.198l-1.756-1.014v2.029l2.397,2.72c0.237,0.268,0.237,0.66,0.005,0.928
				l-0.05,0.055c-0.136,0.159-0.318,0.246-0.528,0.246s-0.391-0.082-0.528-0.241l-1.296-1.469v2.657l2.993,3.389
				c0.232,0.268,0.232,0.66,0,0.933l-0.05,0.055c-0.141,0.159-0.318,0.237-0.528,0.237s-0.391-0.077-0.528-0.237l-1.888-2.138v2.648
				c0,0.387-0.314,0.701-0.701,0.701h-0.182c-0.382,0-0.701-0.314-0.701-0.701v-2.648l-1.888,2.138
				c-0.136,0.159-0.318,0.237-0.528,0.237c-0.205,0-0.387-0.077-0.523-0.237l-0.05-0.055c-0.237-0.273-0.237-0.664,0-0.933
				l2.989-3.389v-2.657l-1.046,1.31c-0.132,0.164-0.305,0.255-0.519,0.264c-0.209,0.009-0.391-0.064-0.537-0.214l-0.1-0.105
				c-0.255-0.264-0.277-0.682-0.032-0.964l2.234-2.529v-2.029l-1.76,1.014l-1.151,3.439c-0.114,0.337-0.455,0.532-0.805,0.464
				l-0.073-0.014c-0.205-0.041-0.368-0.155-0.469-0.337c-0.109-0.182-0.127-0.378-0.059-0.578l0.619-1.851l-2.297,1.324
				l-1.437,4.285c-0.114,0.337-0.455,0.537-0.81,0.469l-0.073-0.018c-0.2-0.041-0.364-0.155-0.469-0.337
				c-0.105-0.182-0.127-0.378-0.055-0.578l0.905-2.702l-2.293,1.324c-0.332,0.191-0.764,0.077-0.96-0.259l-0.086-0.155
				c-0.196-0.332-0.077-0.764,0.259-0.96l2.288-1.324l-2.793-0.564c-0.205-0.041-0.368-0.155-0.473-0.337
				c-0.105-0.177-0.123-0.378-0.055-0.573l0.023-0.073c0.114-0.341,0.459-0.532,0.805-0.464l4.435,0.896l2.293-1.328l-1.651-0.25
				c-0.209-0.032-0.373-0.146-0.491-0.318c-0.109-0.177-0.136-0.373-0.082-0.573l0.041-0.136c0.105-0.355,0.455-0.582,0.819-0.509
				l3.307,0.669l1.756-1.014l-1.756-1.014l-3.553,0.719c-0.35,0.068-0.691-0.127-0.805-0.464l-0.027-0.073
				c-0.068-0.196-0.05-0.396,0.059-0.573c0.105-0.187,0.259-0.3,0.469-0.341l1.915-0.391l-2.293-1.324l-4.435,0.896
				c-0.346,0.068-0.691-0.127-0.805-0.464l-0.023-0.073c-0.068-0.2-0.05-0.396,0.055-0.573c0.105-0.187,0.268-0.3,0.473-0.341
				l2.793-0.564l-2.288-1.319c-0.337-0.196-0.455-0.628-0.259-0.964l0.086-0.155c0.196-0.332,0.628-0.45,0.96-0.255l2.293,1.324
				l-0.905-2.707c-0.073-0.196-0.05-0.391,0.055-0.573c0.105-0.182,0.268-0.296,0.469-0.337l0.073-0.018
				c0.355-0.068,0.696,0.127,0.81,0.469l1.437,4.285l2.297,1.324l-0.605-1.56c-0.077-0.191-0.068-0.391,0.032-0.578
				c0.096-0.187,0.25-0.305,0.45-0.359l0.136-0.036c0.364-0.086,0.732,0.105,0.851,0.459l1.074,3.198l1.76,1.014v-2.029l-2.402-2.72
				c-0.232-0.268-0.232-0.66,0-0.933l0.05-0.05c0.136-0.159,0.318-0.246,0.528-0.246c0.209,0,0.391,0.086,0.532,0.241l1.292,1.465
				v-2.652l-2.989-3.389c-0.237-0.268-0.237-0.664,0-0.933l0.05-0.055c0.136-0.159,0.318-0.241,0.523-0.241
				c0.209,0,0.391,0.082,0.528,0.241l1.888,2.133v-2.643C216.085,260.663,216.403,260.349,216.785,260.349z M217.004,211.406h0.177
				c0.387,0,0.701,0.314,0.701,0.701v2.643l1.888-2.138c0.136-0.155,0.318-0.237,0.528-0.237c0.209,0,0.387,0.082,0.528,0.237
				l0.05,0.059c0.232,0.264,0.232,0.664,0,0.928l-2.993,3.394v2.652l1.051-1.306c0.127-0.164,0.305-0.255,0.514-0.264
				c0.209-0.009,0.396,0.064,0.537,0.214l0.1,0.1c0.255,0.268,0.277,0.682,0.032,0.964l-2.234,2.534v2.024l1.76-1.014l1.151-3.435
				c0.114-0.337,0.455-0.537,0.805-0.469l0.073,0.014c0.209,0.041,0.368,0.159,0.473,0.341c0.105,0.177,0.123,0.378,0.059,0.578
				l-0.623,1.851l2.297-1.324l1.437-4.29c0.118-0.337,0.459-0.532,0.81-0.464l0.073,0.018c0.205,0.041,0.364,0.15,0.469,0.337
				c0.105,0.182,0.127,0.378,0.059,0.573l-0.91,2.702l2.293-1.319c0.332-0.196,0.764-0.077,0.96,0.255l0.086,0.155
				c0.196,0.337,0.082,0.769-0.255,0.96l-2.293,1.324l2.793,0.564c0.209,0.041,0.368,0.155,0.473,0.337
				c0.105,0.182,0.123,0.378,0.059,0.578l-0.023,0.073c-0.118,0.332-0.464,0.532-0.81,0.464l-4.431-0.896l-2.297,1.324l1.651,0.255
				c0.209,0.032,0.378,0.141,0.487,0.318c0.114,0.173,0.141,0.373,0.086,0.573l-0.041,0.132c-0.1,0.359-0.45,0.587-0.814,0.514
				l-3.312-0.669l-1.756,1.014l1.756,1.014l3.553-0.723c0.35-0.068,0.691,0.132,0.81,0.469l0.023,0.068
				c0.068,0.2,0.05,0.396-0.055,0.578c-0.109,0.182-0.264,0.3-0.473,0.341l-1.915,0.382l2.297,1.328l4.431-0.892
				c0.35-0.073,0.691,0.123,0.81,0.464l0.023,0.073c0.064,0.196,0.045,0.391-0.059,0.573c-0.105,0.182-0.264,0.296-0.473,0.337
				l-2.793,0.564l2.293,1.324c0.337,0.196,0.45,0.628,0.255,0.964l-0.086,0.15c-0.196,0.337-0.628,0.455-0.96,0.259l-2.293-1.324
				l0.91,2.702c0.068,0.2,0.045,0.396-0.059,0.578s-0.264,0.296-0.469,0.337l-0.073,0.014c-0.35,0.073-0.691-0.127-0.81-0.464
				l-1.437-4.285l-2.297-1.328l0.61,1.56c0.073,0.196,0.064,0.396-0.032,0.582c-0.096,0.182-0.25,0.305-0.455,0.355l-0.136,0.036
				c-0.364,0.091-0.732-0.1-0.851-0.455l-1.074-3.198l-1.76-1.014v2.029l2.397,2.72c0.237,0.264,0.241,0.66,0.005,0.928l-0.05,0.055
				c-0.136,0.159-0.318,0.241-0.528,0.241c-0.209,0-0.391-0.082-0.532-0.237l-1.292-1.465v2.648l2.993,3.394
				c0.232,0.268,0.232,0.66,0,0.933l-0.05,0.055c-0.141,0.155-0.318,0.237-0.528,0.237c-0.209,0-0.391-0.082-0.528-0.237
				l-1.888-2.138v2.643c0,0.391-0.314,0.705-0.701,0.705h-0.177c-0.387,0-0.705-0.314-0.705-0.705v-2.643l-1.888,2.138
				c-0.136,0.155-0.314,0.237-0.528,0.237c-0.209,0-0.387-0.082-0.523-0.237l-0.05-0.055c-0.237-0.273-0.237-0.664,0-0.933
				l2.989-3.394v-2.648l-1.046,1.301c-0.132,0.168-0.309,0.259-0.514,0.268c-0.214,0.009-0.396-0.064-0.541-0.218l-0.096-0.1
				c-0.259-0.268-0.282-0.682-0.032-0.964l2.229-2.529v-2.029l-1.756,1.014l-1.155,3.439c-0.114,0.337-0.455,0.532-0.805,0.464
				l-0.073-0.014c-0.205-0.041-0.364-0.155-0.473-0.337c-0.105-0.182-0.123-0.378-0.059-0.578l0.623-1.856l-2.293,1.328
				l-1.442,4.285c-0.114,0.337-0.455,0.537-0.805,0.464l-0.073-0.014c-0.209-0.041-0.368-0.155-0.473-0.337
				s-0.123-0.378-0.055-0.578l0.905-2.702l-2.288,1.324c-0.337,0.196-0.769,0.077-0.96-0.259l-0.091-0.15
				c-0.196-0.337-0.077-0.769,0.255-0.964l2.297-1.324l-2.798-0.564c-0.205-0.041-0.364-0.155-0.473-0.337
				c-0.105-0.182-0.123-0.378-0.055-0.573l0.023-0.073c0.114-0.341,0.459-0.537,0.81-0.464l4.431,0.892l2.297-1.328l-1.656-0.25
				c-0.209-0.032-0.373-0.141-0.487-0.318c-0.114-0.173-0.141-0.368-0.086-0.569l0.041-0.136c0.105-0.359,0.45-0.587,0.819-0.509
				l3.307,0.669l1.756-1.014l-1.756-1.014l-3.553,0.719c-0.35,0.068-0.691-0.127-0.805-0.464l-0.023-0.073
				c-0.068-0.196-0.05-0.396,0.05-0.578c0.109-0.177,0.268-0.296,0.473-0.337l1.92-0.391l-2.297-1.324l-4.431,0.896
				c-0.35,0.068-0.696-0.132-0.81-0.464l-0.023-0.073c-0.068-0.2-0.05-0.396,0.055-0.578c0.109-0.182,0.268-0.296,0.473-0.337
				l2.798-0.564l-2.297-1.324c-0.332-0.191-0.45-0.623-0.255-0.96l0.091-0.155c0.191-0.332,0.623-0.45,0.96-0.255l2.288,1.319
				l-0.905-2.702c-0.068-0.196-0.05-0.391,0.055-0.573c0.105-0.187,0.264-0.296,0.473-0.337l0.073-0.018
				c0.35-0.068,0.691,0.127,0.805,0.464l1.442,4.29l2.293,1.324l-0.605-1.56c-0.077-0.196-0.068-0.391,0.027-0.578
				c0.1-0.182,0.255-0.309,0.455-0.359l0.136-0.036c0.364-0.086,0.732,0.105,0.855,0.455l1.074,3.198l1.756,1.014v-2.024
				l-2.397-2.72c-0.237-0.268-0.241-0.66-0.005-0.928l0.05-0.055c0.141-0.164,0.318-0.246,0.528-0.246
				c0.214,0,0.391,0.082,0.532,0.241l1.292,1.465v-2.652l-2.989-3.394c-0.237-0.264-0.237-0.664,0-0.928l0.05-0.059
				c0.136-0.155,0.314-0.237,0.523-0.237c0.214,0,0.391,0.082,0.528,0.237l1.888,2.138v-2.643
				C216.299,211.72,216.617,211.406,217.004,211.406z M139.807,169.783h0.177c0.391,0,0.705,0.314,0.705,0.701v2.643l1.883-2.133
				c0.141-0.159,0.318-0.241,0.528-0.241c0.214,0,0.391,0.082,0.528,0.241l0.05,0.055c0.237,0.268,0.237,0.664,0,0.933l-2.989,3.389
				v2.652l1.046-1.306c0.127-0.164,0.305-0.255,0.514-0.264c0.209-0.009,0.396,0.064,0.541,0.214l0.096,0.1
				c0.259,0.268,0.277,0.687,0.036,0.964l-2.234,2.529v2.033l1.756-1.019l1.155-3.435c0.114-0.337,0.455-0.537,0.801-0.469
				l0.077,0.014c0.205,0.045,0.364,0.159,0.469,0.341c0.105,0.177,0.127,0.378,0.059,0.578l-0.623,1.851l2.297-1.324l1.442-4.285
				c0.114-0.341,0.455-0.537,0.805-0.469l0.077,0.018c0.2,0.041,0.364,0.155,0.469,0.337c0.105,0.182,0.123,0.373,0.059,0.573
				l-0.91,2.702l2.288-1.319c0.337-0.196,0.769-0.077,0.96,0.255l0.091,0.155c0.191,0.337,0.077,0.769-0.259,0.964l-2.288,1.319
				l2.793,0.56c0.205,0.045,0.364,0.159,0.469,0.341c0.105,0.182,0.123,0.378,0.059,0.578l-0.023,0.073
				c-0.114,0.332-0.459,0.532-0.81,0.464l-4.426-0.896l-2.302,1.324l1.656,0.255c0.209,0.032,0.378,0.141,0.487,0.318
				c0.114,0.173,0.141,0.373,0.082,0.573l-0.036,0.132c-0.105,0.359-0.455,0.587-0.819,0.514l-3.307-0.669l-1.756,1.014l1.756,1.014
				l3.553-0.719c0.35-0.073,0.691,0.127,0.805,0.464l0.027,0.068c0.064,0.2,0.045,0.4-0.059,0.578
				c-0.105,0.182-0.264,0.3-0.469,0.341l-1.92,0.382l2.302,1.328l4.426-0.892c0.35-0.068,0.696,0.123,0.81,0.464l0.023,0.073
				c0.064,0.196,0.045,0.396-0.059,0.573c-0.105,0.182-0.264,0.296-0.469,0.337l-2.793,0.564l2.288,1.324
				c0.341,0.196,0.45,0.628,0.259,0.96l-0.091,0.155c-0.191,0.337-0.623,0.45-0.96,0.259l-2.288-1.324l0.91,2.702
				c0.064,0.2,0.045,0.396-0.059,0.578s-0.268,0.296-0.469,0.337l-0.077,0.014c-0.35,0.073-0.691-0.127-0.805-0.464l-1.442-4.285
				l-2.297-1.324l0.61,1.556c0.077,0.196,0.064,0.396-0.032,0.578c-0.096,0.187-0.25,0.309-0.455,0.359l-0.136,0.036
				c-0.359,0.091-0.732-0.1-0.851-0.455l-1.074-3.198l-1.756-1.014v2.029l2.397,2.72c0.237,0.268,0.237,0.66,0,0.928l-0.05,0.055
				c-0.136,0.159-0.314,0.246-0.528,0.246c-0.205,0-0.387-0.086-0.528-0.241l-1.292-1.469v2.652l2.989,3.394
				c0.237,0.268,0.237,0.66,0,0.933l-0.05,0.055c-0.136,0.155-0.314,0.237-0.528,0.237c-0.209,0-0.387-0.082-0.528-0.237
				l-1.883-2.138v2.648c0,0.387-0.314,0.701-0.705,0.701h-0.177c-0.387,0-0.701-0.314-0.701-0.701v-2.648l-1.888,2.138
				c-0.141,0.155-0.318,0.237-0.528,0.237c-0.209,0-0.387-0.082-0.523-0.237l-0.055-0.055c-0.237-0.273-0.237-0.664,0-0.933
				l2.993-3.394v-2.652l-1.051,1.306c-0.127,0.168-0.305,0.259-0.514,0.268c-0.209,0.009-0.391-0.064-0.541-0.218l-0.096-0.1
				c-0.259-0.268-0.277-0.682-0.032-0.964l2.234-2.529v-2.029l-1.76,1.014l-1.151,3.439c-0.114,0.337-0.455,0.532-0.805,0.464
				l-0.073-0.014c-0.205-0.041-0.368-0.155-0.473-0.337s-0.127-0.378-0.059-0.578l0.623-1.851l-2.297,1.324l-1.437,4.285
				c-0.118,0.337-0.459,0.537-0.81,0.464l-0.073-0.014c-0.205-0.041-0.364-0.155-0.469-0.337s-0.127-0.378-0.059-0.578l0.91-2.702
				l-2.293,1.324c-0.337,0.191-0.764,0.077-0.96-0.259l-0.086-0.155c-0.196-0.332-0.077-0.764,0.255-0.96l2.293-1.324l-2.798-0.564
				c-0.205-0.041-0.364-0.155-0.469-0.337c-0.105-0.177-0.123-0.378-0.059-0.573l0.027-0.073c0.114-0.341,0.455-0.532,0.805-0.464
				l4.431,0.892l2.297-1.328l-1.656-0.246c-0.209-0.032-0.368-0.146-0.487-0.318c-0.109-0.177-0.141-0.373-0.082-0.573l0.036-0.136
				c0.105-0.359,0.455-0.582,0.823-0.509l3.303,0.669l1.756-1.014l-1.756-1.014l-3.553,0.719c-0.346,0.068-0.687-0.127-0.805-0.464
				l-0.023-0.073c-0.068-0.196-0.05-0.396,0.055-0.578s0.264-0.296,0.473-0.337l1.915-0.391l-2.297-1.324l-4.431,0.896
				c-0.35,0.068-0.691-0.132-0.805-0.464l-0.027-0.073c-0.064-0.2-0.045-0.396,0.059-0.578c0.105-0.182,0.264-0.296,0.469-0.341
				l2.798-0.56l-2.293-1.319c-0.332-0.196-0.45-0.628-0.255-0.964l0.086-0.155c0.196-0.332,0.623-0.45,0.96-0.255l2.293,1.319
				l-0.91-2.702c-0.068-0.2-0.045-0.391,0.059-0.573c0.105-0.182,0.264-0.296,0.469-0.337l0.073-0.018
				c0.35-0.068,0.691,0.127,0.81,0.469l1.437,4.285l2.297,1.324l-0.61-1.56c-0.077-0.191-0.064-0.391,0.032-0.578
				c0.1-0.187,0.255-0.309,0.455-0.359l0.136-0.036c0.359-0.086,0.732,0.105,0.851,0.459l1.074,3.193l1.76,1.019v-2.033
				l-2.402-2.716c-0.232-0.268-0.237-0.66,0-0.933l0.05-0.05c0.136-0.164,0.314-0.246,0.528-0.246c0.209,0,0.387,0.082,0.528,0.241
				l1.296,1.465v-2.652l-2.993-3.389c-0.237-0.268-0.237-0.664,0-0.933l0.055-0.055c0.136-0.159,0.314-0.241,0.523-0.241
				c0.209,0,0.387,0.082,0.528,0.241l1.888,2.133v-2.643C139.106,170.097,139.42,169.783,139.807,169.783z M198.748,165.138h0.177
				c0.387,0,0.705,0.314,0.705,0.705v2.643l1.888-2.138c0.132-0.155,0.314-0.237,0.523-0.237s0.391,0.082,0.528,0.237l0.05,0.055
				c0.237,0.268,0.237,0.664,0,0.933l-2.989,3.394v2.652l1.046-1.306c0.132-0.168,0.305-0.259,0.514-0.268
				c0.209-0.009,0.396,0.064,0.537,0.218l0.1,0.1c0.259,0.268,0.282,0.682,0.032,0.964l-2.229,2.529v2.029l1.756-1.014l1.155-3.439
				c0.114-0.337,0.45-0.532,0.801-0.464l0.077,0.014c0.205,0.041,0.364,0.155,0.469,0.337s0.127,0.382,0.059,0.578l-0.623,1.856
				l2.297-1.328l1.442-4.285c0.114-0.337,0.455-0.537,0.805-0.464l0.077,0.014c0.2,0.041,0.364,0.155,0.464,0.341
				c0.105,0.177,0.127,0.373,0.059,0.573l-0.905,2.702l2.288-1.319c0.337-0.196,0.764-0.077,0.96,0.255l0.091,0.155
				c0.191,0.332,0.077,0.769-0.259,0.96l-2.293,1.324l2.798,0.56c0.205,0.045,0.364,0.159,0.469,0.341
				c0.105,0.182,0.123,0.378,0.059,0.578l-0.023,0.073c-0.114,0.332-0.459,0.532-0.81,0.459l-4.431-0.892l-2.297,1.324l1.656,0.255
				c0.209,0.032,0.373,0.136,0.487,0.318c0.114,0.173,0.141,0.368,0.086,0.569l-0.041,0.136c-0.105,0.359-0.455,0.587-0.819,0.509
				l-3.307-0.669l-1.76,1.014l1.76,1.019l3.553-0.723c0.35-0.068,0.687,0.132,0.805,0.464l0.023,0.073
				c0.068,0.2,0.05,0.396-0.055,0.578c-0.105,0.182-0.264,0.3-0.469,0.341l-1.92,0.382l2.297,1.328l4.431-0.896
				c0.355-0.068,0.696,0.127,0.81,0.464l0.023,0.073c0.064,0.2,0.045,0.396-0.059,0.578c-0.105,0.177-0.264,0.296-0.469,0.337
				l-2.798,0.564l2.293,1.324c0.337,0.191,0.45,0.628,0.259,0.96l-0.091,0.155c-0.196,0.332-0.623,0.45-0.96,0.255l-2.288-1.319
				l0.905,2.702c0.068,0.2,0.045,0.396-0.059,0.573c-0.1,0.187-0.264,0.3-0.464,0.341l-0.077,0.014
				c-0.35,0.073-0.691-0.127-0.805-0.464l-1.442-4.29l-2.297-1.324l0.61,1.56c0.077,0.196,0.064,0.391-0.032,0.578
				c-0.096,0.187-0.25,0.309-0.455,0.359l-0.136,0.036c-0.364,0.086-0.732-0.1-0.851-0.455l-1.074-3.198l-1.756-1.014v2.029
				l2.397,2.716c0.232,0.268,0.237,0.66,0,0.933l-0.05,0.055c-0.136,0.155-0.318,0.241-0.523,0.241
				c-0.214,0-0.396-0.082-0.532-0.241l-1.292-1.465v2.652l2.989,3.394c0.237,0.264,0.237,0.66,0,0.928l-0.05,0.059
				c-0.136,0.155-0.318,0.237-0.528,0.237s-0.391-0.082-0.523-0.237l-1.888-2.138v2.643c0,0.387-0.318,0.705-0.705,0.705h-0.177
				c-0.387,0-0.705-0.318-0.705-0.705v-2.643l-1.888,2.138c-0.132,0.155-0.314,0.237-0.523,0.237c-0.209,0-0.391-0.082-0.528-0.237
				l-0.05-0.059c-0.237-0.268-0.237-0.664,0-0.928l2.989-3.394v-2.652l-1.046,1.306c-0.132,0.164-0.305,0.259-0.514,0.268
				c-0.209,0.009-0.391-0.064-0.537-0.218l-0.1-0.1c-0.259-0.268-0.282-0.682-0.032-0.964l2.229-2.529v-2.029l-1.756,1.014
				l-1.155,3.435c-0.109,0.337-0.45,0.537-0.801,0.469l-0.073-0.014c-0.205-0.041-0.368-0.159-0.473-0.337
				c-0.105-0.182-0.123-0.382-0.059-0.578l0.623-1.856l-2.297,1.324l-1.437,4.29c-0.114,0.337-0.459,0.537-0.81,0.464l-0.073-0.014
				c-0.205-0.041-0.364-0.155-0.469-0.341c-0.105-0.177-0.127-0.373-0.059-0.573l0.91-2.702l-2.293,1.319
				c-0.337,0.196-0.764,0.077-0.96-0.255l-0.091-0.155c-0.191-0.332-0.077-0.769,0.259-0.96l2.293-1.324l-2.798-0.564
				c-0.205-0.041-0.364-0.159-0.469-0.337c-0.105-0.182-0.123-0.378-0.059-0.578l0.027-0.073c0.109-0.337,0.455-0.532,0.805-0.464
				l4.431,0.896l2.297-1.328l-1.656-0.25c-0.209-0.032-0.373-0.141-0.487-0.318c-0.114-0.173-0.141-0.368-0.086-0.573l0.041-0.132
				c0.105-0.359,0.455-0.587,0.819-0.509l3.307,0.669l1.76-1.019l-1.76-1.014l-3.553,0.723c-0.35,0.068-0.687-0.132-0.805-0.464
				l-0.023-0.073c-0.068-0.2-0.05-0.396,0.055-0.578s0.264-0.3,0.469-0.341l1.92-0.387l-2.297-1.324l-4.431,0.892
				c-0.35,0.073-0.696-0.127-0.805-0.459l-0.027-0.073c-0.064-0.2-0.045-0.396,0.059-0.578s0.264-0.296,0.469-0.341l2.798-0.56
				l-2.293-1.324c-0.337-0.191-0.45-0.628-0.259-0.96l0.091-0.155c0.196-0.332,0.623-0.45,0.96-0.255l2.293,1.319l-0.91-2.702
				c-0.068-0.2-0.046-0.396,0.059-0.573c0.105-0.187,0.264-0.3,0.469-0.341l0.073-0.014c0.35-0.073,0.696,0.127,0.81,0.464
				l1.437,4.285l2.297,1.328l-0.61-1.56c-0.073-0.196-0.064-0.391,0.032-0.578c0.096-0.187,0.255-0.309,0.455-0.364l0.136-0.032
				c0.364-0.091,0.732,0.1,0.851,0.455l1.074,3.198l1.756,1.014v-2.029l-2.397-2.72c-0.232-0.264-0.237-0.66,0-0.928l0.05-0.055
				c0.136-0.159,0.318-0.241,0.523-0.241c0.214,0,0.396,0.082,0.532,0.237l1.292,1.469v-2.652l-2.989-3.394
				c-0.237-0.268-0.237-0.664,0-0.933l0.05-0.055c0.136-0.155,0.318-0.237,0.528-0.237c0.209,0,0.391,0.082,0.523,0.237l1.888,2.138
				v-2.643C198.043,165.452,198.362,165.138,198.748,165.138z M272.206,139.982h0.177c0.391,0,0.705,0.314,0.705,0.701v2.648
				l1.888-2.143c0.136-0.155,0.314-0.232,0.528-0.232c0.209,0,0.387,0.077,0.523,0.232l0.055,0.059c0.232,0.268,0.232,0.664,0,0.933
				l-2.993,3.389v2.652l1.046-1.306c0.132-0.164,0.305-0.255,0.514-0.264c0.214-0.009,0.396,0.064,0.541,0.214l0.096,0.105
				c0.259,0.264,0.282,0.678,0.032,0.96l-2.229,2.534v2.024l1.756-1.014l1.155-3.435c0.114-0.337,0.455-0.532,0.805-0.464
				l0.073,0.014c0.205,0.036,0.364,0.155,0.469,0.337c0.109,0.182,0.127,0.378,0.064,0.578l-0.623,1.851l2.293-1.324l1.442-4.29
				c0.118-0.337,0.459-0.532,0.805-0.464l0.077,0.018c0.205,0.041,0.364,0.155,0.464,0.337c0.109,0.182,0.127,0.378,0.064,0.578
				l-0.91,2.698l2.288-1.319c0.337-0.196,0.769-0.077,0.964,0.259l0.086,0.15c0.196,0.337,0.077,0.769-0.259,0.96l-2.288,1.324
				l2.793,0.564c0.209,0.041,0.364,0.159,0.469,0.337c0.109,0.182,0.127,0.378,0.059,0.578l-0.023,0.073
				c-0.114,0.337-0.459,0.532-0.81,0.464l-4.426-0.896l-2.297,1.328l1.651,0.25c0.209,0.032,0.373,0.141,0.487,0.318
				c0.114,0.173,0.141,0.373,0.086,0.573l-0.041,0.136c-0.1,0.355-0.45,0.582-0.819,0.509l-3.307-0.669l-1.756,1.014l1.756,1.014
				l3.553-0.719c0.35-0.073,0.691,0.127,0.81,0.464l0.023,0.068c0.064,0.2,0.046,0.396-0.055,0.578
				c-0.109,0.187-0.268,0.3-0.473,0.341l-1.915,0.387l2.297,1.324l4.426-0.892c0.355-0.073,0.696,0.127,0.81,0.464l0.023,0.073
				c0.068,0.2,0.05,0.391-0.059,0.573c-0.105,0.182-0.259,0.3-0.469,0.341l-2.793,0.564l2.288,1.319
				c0.337,0.196,0.455,0.628,0.259,0.964l-0.086,0.15c-0.196,0.337-0.628,0.455-0.964,0.259l-2.288-1.324l0.91,2.702
				c0.064,0.2,0.046,0.396-0.064,0.578c-0.1,0.182-0.259,0.296-0.464,0.337l-0.077,0.014c-0.346,0.073-0.687-0.123-0.805-0.464
				l-1.442-4.285l-2.293-1.328l0.61,1.56c0.073,0.196,0.064,0.396-0.036,0.582c-0.096,0.187-0.25,0.305-0.45,0.355l-0.136,0.036
				c-0.364,0.091-0.737-0.1-0.855-0.455l-1.074-3.198l-1.756-1.014v2.029l2.397,2.72c0.237,0.268,0.237,0.66,0.005,0.928
				l-0.05,0.055c-0.141,0.159-0.318,0.241-0.528,0.241c-0.214,0-0.391-0.082-0.532-0.237l-1.292-1.465v2.648l2.993,3.394
				c0.232,0.268,0.232,0.664,0,0.933l-0.055,0.055c-0.136,0.155-0.314,0.241-0.523,0.241c-0.214,0-0.391-0.086-0.528-0.241
				l-1.888-2.138v2.643c0,0.391-0.314,0.705-0.705,0.705h-0.177c-0.387,0-0.701-0.314-0.701-0.705v-2.643l-1.888,2.138
				c-0.136,0.155-0.318,0.241-0.528,0.241c-0.209,0-0.387-0.086-0.523-0.241l-0.05-0.055c-0.241-0.268-0.241-0.664,0-0.933
				l2.989-3.394v-2.648l-1.051,1.306c-0.127,0.164-0.305,0.255-0.514,0.264s-0.391-0.064-0.537-0.214l-0.1-0.105
				c-0.255-0.268-0.277-0.682-0.032-0.964l2.234-2.529v-2.029l-1.756,1.014l-1.16,3.439c-0.109,0.337-0.45,0.532-0.801,0.464
				l-0.073-0.014c-0.205-0.041-0.364-0.155-0.473-0.337c-0.105-0.182-0.123-0.378-0.059-0.578l0.623-1.856l-2.293,1.328
				l-1.442,4.285c-0.114,0.341-0.455,0.537-0.81,0.464l-0.073-0.014c-0.205-0.041-0.364-0.155-0.469-0.337
				c-0.105-0.182-0.127-0.378-0.059-0.578l0.91-2.702l-2.288,1.324c-0.337,0.196-0.769,0.077-0.964-0.259l-0.091-0.15
				c-0.191-0.337-0.077-0.769,0.259-0.964l2.293-1.319l-2.793-0.564c-0.209-0.041-0.368-0.159-0.473-0.341
				c-0.105-0.182-0.123-0.373-0.055-0.573l0.023-0.073c0.114-0.337,0.459-0.537,0.805-0.464l4.431,0.892l2.297-1.324l-1.656-0.255
				c-0.205-0.032-0.373-0.141-0.482-0.314c-0.114-0.177-0.146-0.373-0.086-0.573l0.041-0.136c0.105-0.359,0.45-0.582,0.814-0.509
				l3.307,0.669l1.76-1.014l-1.76-1.014l-3.553,0.719c-0.35,0.073-0.687-0.127-0.805-0.464l-0.023-0.068
				c-0.068-0.2-0.05-0.4,0.055-0.582c0.105-0.177,0.268-0.296,0.473-0.337l1.915-0.387l-2.297-1.328l-4.431,0.896
				c-0.346,0.068-0.691-0.127-0.805-0.464l-0.023-0.073c-0.068-0.2-0.05-0.396,0.055-0.578c0.105-0.177,0.264-0.296,0.473-0.337
				l2.793-0.564l-2.293-1.324c-0.337-0.191-0.45-0.623-0.259-0.96l0.091-0.15c0.196-0.337,0.628-0.455,0.964-0.259l2.288,1.319
				l-0.91-2.698c-0.068-0.2-0.046-0.396,0.059-0.578c0.105-0.182,0.264-0.296,0.469-0.337l0.073-0.018
				c0.355-0.068,0.696,0.127,0.81,0.464l1.442,4.29l2.293,1.324l-0.605-1.556c-0.077-0.2-0.068-0.396,0.027-0.582
				c0.1-0.182,0.255-0.309,0.455-0.359l0.136-0.036c0.364-0.086,0.732,0.105,0.851,0.455l1.078,3.198l1.756,1.014v-2.024
				l-2.397-2.72c-0.237-0.268-0.241-0.66-0.005-0.928l0.05-0.055c0.136-0.164,0.318-0.246,0.528-0.246
				c0.209,0,0.391,0.082,0.528,0.241l1.296,1.465v-2.652l-2.989-3.389c-0.241-0.268-0.241-0.664,0-0.933l0.05-0.059
				c0.136-0.155,0.314-0.232,0.523-0.232c0.209,0,0.391,0.077,0.528,0.232l1.888,2.143v-2.648
				C271.505,140.296,271.819,139.982,272.206,139.982z M258.841,181.696h0.177c0.387,0,0.701,0.314,0.701,0.701v2.648l1.888-2.143
				c0.136-0.155,0.318-0.237,0.528-0.237s0.391,0.082,0.528,0.237l0.05,0.059c0.237,0.268,0.237,0.664,0,0.933l-2.993,3.389v2.652
				l1.046-1.306c0.132-0.164,0.309-0.255,0.519-0.264c0.209-0.009,0.396,0.064,0.537,0.214l0.1,0.1
				c0.259,0.268,0.277,0.682,0.032,0.964l-2.234,2.534v2.024l1.756-1.014l1.155-3.435c0.114-0.337,0.455-0.532,0.805-0.469
				l0.077,0.014c0.205,0.041,0.364,0.159,0.469,0.341c0.105,0.182,0.123,0.378,0.059,0.578l-0.623,1.851l2.293-1.324l1.447-4.29
				c0.114-0.337,0.455-0.532,0.805-0.464l0.073,0.018c0.205,0.041,0.368,0.155,0.469,0.337c0.105,0.182,0.123,0.378,0.059,0.573
				l-0.91,2.702l2.293-1.319c0.337-0.196,0.764-0.077,0.96,0.259l0.091,0.15c0.191,0.337,0.073,0.769-0.259,0.96l-2.293,1.324
				l2.798,0.564c0.205,0.041,0.364,0.155,0.469,0.337s0.123,0.378,0.055,0.578l-0.023,0.073c-0.114,0.337-0.455,0.532-0.805,0.464
				l-4.431-0.896l-2.297,1.328l1.656,0.25c0.209,0.032,0.373,0.141,0.482,0.318c0.118,0.173,0.146,0.373,0.086,0.573l-0.036,0.132
				c-0.105,0.359-0.455,0.587-0.823,0.514l-3.303-0.669l-1.76,1.014l1.76,1.014l3.553-0.719c0.346-0.073,0.687,0.127,0.805,0.464
				l0.023,0.068c0.068,0.2,0.05,0.396-0.055,0.578c-0.105,0.182-0.268,0.3-0.469,0.341l-1.92,0.387l2.297,1.324l4.431-0.892
				c0.35-0.073,0.691,0.127,0.805,0.464l0.023,0.073c0.068,0.2,0.05,0.391-0.055,0.573s-0.264,0.296-0.469,0.337l-2.798,0.564
				l2.293,1.324c0.337,0.196,0.45,0.628,0.259,0.964l-0.091,0.15c-0.196,0.337-0.623,0.455-0.96,0.259l-2.293-1.324l0.91,2.702
				c0.064,0.2,0.046,0.396-0.059,0.578c-0.1,0.182-0.264,0.296-0.469,0.337l-0.073,0.014c-0.35,0.073-0.691-0.127-0.805-0.464
				l-1.447-4.285l-2.293-1.324l0.61,1.556c0.073,0.196,0.064,0.396-0.032,0.582c-0.096,0.182-0.25,0.305-0.455,0.355l-0.136,0.036
				c-0.364,0.091-0.732-0.1-0.851-0.455l-1.078-3.198l-1.756-1.014v2.029l2.397,2.72c0.237,0.268,0.241,0.66,0.005,0.928
				l-0.05,0.055c-0.136,0.159-0.318,0.241-0.528,0.241s-0.391-0.082-0.528-0.237l-1.296-1.465v2.648l2.993,3.394
				c0.237,0.268,0.237,0.664,0,0.933l-0.05,0.055c-0.136,0.155-0.318,0.241-0.528,0.241s-0.391-0.086-0.528-0.241l-1.888-2.138
				v2.643c0,0.391-0.314,0.705-0.701,0.705h-0.177c-0.387,0-0.705-0.314-0.705-0.705v-2.643l-1.888,2.138
				c-0.136,0.155-0.318,0.241-0.523,0.241c-0.209,0-0.391-0.086-0.528-0.241l-0.05-0.055c-0.237-0.268-0.237-0.664,0-0.933
				l2.989-3.394v-2.648l-1.046,1.306c-0.132,0.164-0.305,0.255-0.519,0.264c-0.205,0.009-0.391-0.064-0.537-0.218l-0.1-0.1
				c-0.255-0.268-0.277-0.682-0.032-0.964l2.234-2.529v-2.029l-1.756,1.014l-1.155,3.439c-0.109,0.337-0.455,0.532-0.801,0.464
				l-0.077-0.014c-0.205-0.041-0.364-0.155-0.469-0.337c-0.105-0.182-0.127-0.378-0.059-0.578l0.623-1.851l-2.297,1.324
				l-1.442,4.285c-0.114,0.337-0.455,0.537-0.805,0.464l-0.073-0.014c-0.205-0.041-0.368-0.155-0.473-0.337
				c-0.1-0.182-0.123-0.378-0.055-0.578l0.905-2.702l-2.288,1.324c-0.337,0.196-0.769,0.077-0.964-0.259l-0.086-0.15
				c-0.191-0.337-0.077-0.769,0.259-0.964l2.288-1.324l-2.793-0.564c-0.205-0.041-0.368-0.155-0.469-0.337
				c-0.105-0.182-0.123-0.373-0.059-0.573l0.027-0.073c0.109-0.337,0.455-0.537,0.801-0.464l4.435,0.892l2.293-1.324l-1.651-0.255
				c-0.209-0.032-0.373-0.141-0.487-0.318c-0.114-0.173-0.141-0.368-0.086-0.569l0.041-0.136c0.105-0.359,0.455-0.582,0.819-0.509
				l3.307,0.669l1.756-1.014l-1.756-1.014l-3.553,0.719c-0.35,0.068-0.691-0.127-0.805-0.464l-0.023-0.073
				c-0.073-0.196-0.055-0.396,0.055-0.578c0.105-0.177,0.264-0.296,0.469-0.337l1.915-0.387l-2.293-1.328l-4.435,0.896
				c-0.346,0.068-0.691-0.127-0.801-0.464l-0.027-0.073c-0.064-0.2-0.045-0.396,0.059-0.578c0.1-0.182,0.264-0.296,0.469-0.337
				l2.793-0.564l-2.288-1.324c-0.337-0.191-0.45-0.623-0.259-0.96l0.086-0.15c0.196-0.337,0.628-0.455,0.964-0.259l2.288,1.319
				l-0.905-2.702c-0.068-0.196-0.045-0.391,0.055-0.573c0.105-0.182,0.268-0.296,0.473-0.337l0.073-0.018
				c0.35-0.068,0.691,0.127,0.805,0.464l1.442,4.29l2.297,1.324l-0.61-1.56c-0.077-0.196-0.068-0.391,0.032-0.578
				c0.096-0.182,0.25-0.309,0.45-0.359l0.141-0.036c0.359-0.086,0.732,0.105,0.846,0.455l1.078,3.198l1.756,1.014v-2.024
				l-2.397-2.72c-0.237-0.268-0.237-0.66,0-0.928l0.05-0.055c0.132-0.164,0.314-0.246,0.523-0.246c0.209,0,0.391,0.082,0.532,0.241
				l1.292,1.465v-2.652l-2.989-3.389c-0.237-0.268-0.237-0.664,0-0.933l0.05-0.059c0.136-0.155,0.318-0.237,0.528-0.237
				c0.205,0,0.387,0.082,0.523,0.237l1.888,2.143v-2.648C258.136,182.01,258.454,181.696,258.841,181.696z M314.361,210.483h0.177
				c0.387,0,0.701,0.314,0.701,0.701v2.648l1.888-2.138c0.136-0.155,0.318-0.237,0.528-0.237s0.387,0.082,0.528,0.237l0.05,0.055
				c0.237,0.268,0.237,0.664,0,0.933l-2.993,3.389v2.652l1.046-1.306c0.132-0.164,0.309-0.255,0.519-0.264s0.396,0.064,0.537,0.214
				l0.1,0.105c0.255,0.264,0.277,0.682,0.032,0.96l-2.234,2.534v2.029l1.756-1.019l1.155-3.434c0.114-0.337,0.455-0.532,0.805-0.464
				l0.073,0.014c0.209,0.041,0.368,0.155,0.473,0.337c0.105,0.182,0.123,0.382,0.059,0.578l-0.623,1.851l2.293-1.324l1.447-4.285
				c0.114-0.341,0.455-0.537,0.805-0.469l0.073,0.018c0.205,0.041,0.368,0.155,0.469,0.337c0.105,0.182,0.123,0.378,0.059,0.578
				l-0.91,2.698l2.288-1.319c0.337-0.191,0.769-0.077,0.964,0.259l0.091,0.15c0.191,0.337,0.073,0.769-0.259,0.96l-2.293,1.328
				l2.793,0.56c0.209,0.041,0.368,0.159,0.473,0.337c0.105,0.182,0.123,0.382,0.055,0.578l-0.023,0.073
				c-0.114,0.337-0.459,0.537-0.805,0.464l-4.431-0.896l-2.297,1.328l1.656,0.255c0.205,0.027,0.373,0.136,0.482,0.314
				c0.118,0.177,0.146,0.373,0.086,0.573l-0.041,0.136c-0.1,0.355-0.45,0.582-0.814,0.509l-3.307-0.669l-1.76,1.014l1.76,1.014
				l3.553-0.719c0.35-0.073,0.687,0.127,0.805,0.464l0.023,0.068c0.068,0.2,0.05,0.4-0.055,0.578
				c-0.105,0.187-0.268,0.3-0.469,0.341l-1.92,0.387l2.297,1.328l4.431-0.896c0.35-0.073,0.691,0.127,0.805,0.464l0.023,0.073
				c0.068,0.2,0.05,0.396-0.055,0.573c-0.105,0.182-0.264,0.3-0.473,0.341l-2.793,0.564l2.293,1.324
				c0.337,0.191,0.45,0.623,0.259,0.96l-0.091,0.15c-0.196,0.337-0.628,0.455-0.964,0.259l-2.288-1.324l0.91,2.707
				c0.064,0.196,0.045,0.391-0.059,0.573c-0.1,0.182-0.264,0.296-0.469,0.337l-0.073,0.018c-0.35,0.068-0.691-0.127-0.805-0.469
				l-1.447-4.285l-2.293-1.324l0.61,1.556c0.073,0.2,0.064,0.396-0.032,0.582c-0.096,0.187-0.25,0.309-0.455,0.355l-0.136,0.036
				c-0.364,0.091-0.732-0.1-0.851-0.455l-1.078-3.198l-1.756-1.014v2.029l2.397,2.72c0.237,0.268,0.241,0.66,0.005,0.933
				l-0.05,0.055c-0.136,0.155-0.318,0.237-0.528,0.237s-0.391-0.082-0.528-0.237l-1.296-1.465v2.652l2.993,3.389
				c0.237,0.268,0.237,0.664,0,0.933l-0.05,0.055c-0.141,0.155-0.318,0.241-0.528,0.241s-0.391-0.086-0.528-0.241l-1.888-2.138
				v2.648c0,0.387-0.314,0.701-0.701,0.701h-0.177c-0.387,0-0.705-0.314-0.705-0.701v-2.648l-1.888,2.138
				c-0.136,0.155-0.318,0.241-0.528,0.241c-0.205,0-0.387-0.086-0.523-0.241l-0.05-0.055c-0.237-0.268-0.237-0.664,0-0.933
				l2.989-3.389v-2.652l-1.046,1.306c-0.132,0.164-0.305,0.255-0.519,0.264c-0.209,0.009-0.391-0.064-0.537-0.214l-0.1-0.105
				c-0.255-0.268-0.277-0.682-0.027-0.96l2.229-2.534v-2.029l-1.756,1.014l-1.155,3.439c-0.114,0.337-0.455,0.532-0.805,0.464
				l-0.073-0.014c-0.205-0.041-0.364-0.155-0.469-0.337c-0.109-0.177-0.127-0.378-0.064-0.578l0.623-1.851l-2.293,1.324
				l-1.442,4.285c-0.114,0.341-0.455,0.537-0.81,0.469l-0.068-0.018c-0.209-0.041-0.368-0.155-0.473-0.337
				c-0.105-0.182-0.123-0.378-0.059-0.573l0.91-2.707l-2.288,1.324c-0.337,0.196-0.769,0.077-0.964-0.259l-0.086-0.15
				c-0.196-0.337-0.077-0.769,0.259-0.96l2.288-1.324l-2.793-0.564c-0.205-0.041-0.364-0.159-0.469-0.341
				c-0.109-0.177-0.127-0.373-0.059-0.573l0.027-0.073c0.109-0.337,0.455-0.537,0.801-0.464l4.435,0.896l2.293-1.328l-1.651-0.25
				c-0.209-0.036-0.373-0.141-0.487-0.318c-0.114-0.177-0.141-0.373-0.086-0.573l0.041-0.136c0.105-0.355,0.455-0.582,0.819-0.509
				l3.307,0.669l1.756-1.014l-1.756-1.014l-3.553,0.719c-0.35,0.073-0.691-0.127-0.81-0.464l-0.023-0.068
				c-0.068-0.2-0.05-0.4,0.059-0.578c0.105-0.182,0.264-0.3,0.469-0.341l1.915-0.387l-2.293-1.328l-4.435,0.896
				c-0.346,0.073-0.691-0.127-0.801-0.464l-0.027-0.073c-0.068-0.196-0.05-0.396,0.059-0.578c0.105-0.177,0.264-0.296,0.469-0.337
				l2.793-0.56l-2.288-1.328c-0.337-0.191-0.455-0.623-0.259-0.96l0.086-0.15c0.196-0.337,0.628-0.45,0.964-0.259l2.288,1.319
				l-0.91-2.698c-0.064-0.2-0.046-0.396,0.059-0.578c0.105-0.182,0.264-0.296,0.473-0.337l0.068-0.018
				c0.355-0.068,0.696,0.127,0.81,0.469l1.442,4.285l2.293,1.324l-0.605-1.556c-0.077-0.2-0.068-0.396,0.032-0.582
				c0.096-0.182,0.25-0.309,0.45-0.359l0.136-0.036c0.364-0.086,0.737,0.105,0.855,0.459l1.074,3.193l1.756,1.019v-2.029
				l-2.397-2.72c-0.237-0.268-0.237-0.66-0.005-0.928l0.055-0.055c0.136-0.164,0.314-0.241,0.523-0.241
				c0.214,0,0.391,0.077,0.532,0.237l1.292,1.465v-2.652l-2.989-3.389c-0.237-0.268-0.237-0.664,0-0.933l0.05-0.055
				c0.136-0.155,0.318-0.237,0.523-0.237c0.209,0,0.391,0.082,0.528,0.237l1.888,2.138v-2.648
				C313.656,210.796,313.975,210.483,314.361,210.483z M272.561,236.849h0.177c0.387,0,0.701,0.314,0.701,0.705v2.643l1.888-2.138
				c0.136-0.155,0.318-0.237,0.528-0.237c0.209,0,0.387,0.082,0.528,0.237l0.05,0.059c0.232,0.264,0.232,0.664,0,0.928l-2.993,3.394
				v2.652l1.051-1.306c0.127-0.164,0.305-0.255,0.514-0.264s0.391,0.064,0.537,0.214l0.1,0.1c0.255,0.268,0.277,0.682,0.032,0.964
				l-2.234,2.529v2.029l1.76-1.014l1.151-3.439c0.114-0.337,0.455-0.532,0.805-0.464l0.073,0.014
				c0.209,0.041,0.368,0.155,0.473,0.341c0.105,0.177,0.123,0.378,0.059,0.578l-0.623,1.851l2.297-1.328l1.438-4.285
				c0.118-0.337,0.459-0.537,0.81-0.464l0.073,0.018c0.205,0.041,0.364,0.15,0.469,0.337c0.105,0.177,0.127,0.373,0.059,0.573
				l-0.91,2.702l2.293-1.319c0.332-0.196,0.764-0.077,0.96,0.255l0.086,0.155c0.196,0.337,0.077,0.764-0.259,0.96l-2.288,1.324
				l2.793,0.56c0.209,0.045,0.368,0.159,0.473,0.341c0.105,0.182,0.123,0.378,0.055,0.578l-0.018,0.073
				c-0.118,0.332-0.464,0.532-0.81,0.459l-4.431-0.892l-2.297,1.324l1.651,0.255c0.209,0.032,0.378,0.141,0.487,0.314
				c0.114,0.177,0.141,0.378,0.086,0.573l-0.041,0.136c-0.1,0.359-0.45,0.582-0.819,0.509l-3.307-0.669l-1.756,1.014l1.756,1.014
				l3.553-0.719c0.35-0.068,0.691,0.132,0.81,0.464l0.023,0.073c0.068,0.2,0.05,0.396-0.055,0.578
				c-0.109,0.182-0.264,0.3-0.473,0.341l-1.915,0.382l2.297,1.328l4.431-0.896c0.35-0.068,0.691,0.127,0.81,0.469l0.018,0.073
				c0.068,0.196,0.05,0.391-0.055,0.573c-0.105,0.177-0.264,0.296-0.473,0.337l-2.793,0.564l2.288,1.324
				c0.341,0.196,0.455,0.628,0.259,0.96l-0.086,0.155c-0.196,0.337-0.628,0.45-0.96,0.259l-2.293-1.324l0.91,2.702
				c0.068,0.2,0.046,0.396-0.059,0.573c-0.105,0.182-0.264,0.3-0.469,0.341l-0.073,0.014c-0.35,0.073-0.691-0.127-0.81-0.464
				l-1.438-4.285l-2.297-1.328l0.61,1.56c0.073,0.196,0.064,0.396-0.032,0.578c-0.096,0.186-0.25,0.309-0.455,0.359l-0.136,0.036
				c-0.364,0.086-0.732-0.1-0.851-0.455l-1.074-3.198l-1.76-1.014v2.029l2.397,2.72c0.237,0.264,0.241,0.66,0.005,0.928l-0.05,0.055
				c-0.136,0.159-0.318,0.241-0.528,0.241c-0.209,0-0.391-0.082-0.532-0.241l-1.292-1.465v2.652l2.993,3.389
				c0.232,0.268,0.232,0.664,0,0.933l-0.05,0.059c-0.141,0.155-0.318,0.237-0.528,0.237c-0.209,0-0.391-0.082-0.528-0.237
				l-1.888-2.138v2.643c0,0.387-0.314,0.705-0.701,0.705h-0.177c-0.387,0-0.705-0.318-0.705-0.705v-2.643l-1.888,2.138
				c-0.136,0.155-0.314,0.237-0.528,0.237c-0.209,0-0.387-0.082-0.523-0.237l-0.05-0.059c-0.241-0.268-0.241-0.664,0-0.933
				l2.989-3.389v-2.652l-1.046,1.306c-0.132,0.164-0.309,0.259-0.514,0.268c-0.214,0.009-0.396-0.068-0.541-0.218l-0.096-0.1
				c-0.259-0.268-0.282-0.682-0.032-0.964l2.229-2.529v-2.029l-1.756,1.014l-1.155,3.434c-0.114,0.337-0.455,0.537-0.805,0.469
				l-0.073-0.014c-0.205-0.041-0.364-0.155-0.473-0.337c-0.105-0.182-0.123-0.378-0.059-0.578l0.623-1.856l-2.293,1.328
				l-1.442,4.285c-0.114,0.337-0.455,0.537-0.805,0.464l-0.073-0.014c-0.209-0.041-0.368-0.159-0.473-0.341
				c-0.105-0.177-0.123-0.373-0.055-0.573l0.905-2.702l-2.288,1.324c-0.337,0.191-0.769,0.077-0.96-0.259l-0.091-0.155
				c-0.196-0.332-0.077-0.764,0.255-0.96l2.293-1.324l-2.793-0.564c-0.209-0.041-0.364-0.159-0.473-0.337
				c-0.105-0.182-0.123-0.378-0.055-0.573l0.023-0.073c0.114-0.341,0.459-0.537,0.81-0.469l4.426,0.896l2.302-1.328l-1.66-0.25
				c-0.205-0.032-0.368-0.141-0.482-0.318c-0.114-0.173-0.141-0.368-0.086-0.573l0.041-0.132c0.105-0.359,0.45-0.587,0.819-0.514
				l3.307,0.669l1.756-1.014l-1.756-1.014l-3.553,0.719c-0.35,0.073-0.691-0.127-0.805-0.459l-0.023-0.073
				c-0.068-0.2-0.05-0.396,0.05-0.578c0.109-0.182,0.268-0.296,0.473-0.337l1.92-0.391l-2.302-1.324l-4.426,0.892
				c-0.35,0.073-0.696-0.127-0.81-0.459l-0.023-0.073c-0.068-0.2-0.05-0.396,0.055-0.578c0.109-0.182,0.264-0.296,0.473-0.341
				l2.793-0.56l-2.293-1.324c-0.332-0.196-0.45-0.623-0.255-0.96l0.091-0.155c0.191-0.332,0.623-0.45,0.96-0.255l2.288,1.319
				l-0.905-2.702c-0.068-0.2-0.05-0.396,0.055-0.573c0.105-0.187,0.264-0.296,0.473-0.337l0.073-0.018
				c0.35-0.073,0.691,0.127,0.805,0.464l1.442,4.285l2.293,1.328l-0.605-1.56c-0.077-0.196-0.068-0.396,0.027-0.578
				c0.1-0.187,0.255-0.309,0.455-0.359l0.136-0.036c0.364-0.091,0.732,0.105,0.855,0.455l1.074,3.198l1.756,1.014v-2.029
				l-2.397-2.72c-0.237-0.264-0.241-0.66-0.005-0.928l0.05-0.055c0.141-0.159,0.318-0.241,0.528-0.241s0.391,0.082,0.528,0.237
				l1.296,1.469v-2.652l-2.989-3.394c-0.241-0.264-0.241-0.664,0-0.928l0.05-0.059c0.136-0.155,0.314-0.237,0.523-0.237
				c0.214,0,0.391,0.082,0.528,0.237l1.888,2.138v-2.643C271.856,237.163,272.174,236.849,272.561,236.849z M327.726,168.768h0.177
				c0.391,0,0.705,0.314,0.705,0.701v2.648l1.888-2.143c0.136-0.15,0.314-0.232,0.528-0.232c0.209,0,0.387,0.082,0.523,0.232
				l0.05,0.059c0.237,0.268,0.237,0.664,0,0.933l-2.989,3.389v2.652l1.046-1.306c0.132-0.164,0.305-0.255,0.514-0.264
				c0.214-0.009,0.396,0.064,0.541,0.214l0.096,0.105c0.259,0.264,0.282,0.682,0.032,0.96l-2.229,2.534v2.029l1.756-1.019
				l1.155-3.434c0.114-0.337,0.455-0.532,0.805-0.464l0.073,0.014c0.205,0.041,0.364,0.155,0.469,0.337
				c0.109,0.182,0.127,0.378,0.059,0.578l-0.619,1.851l2.293-1.324l1.442-4.285c0.114-0.341,0.455-0.537,0.805-0.469l0.077,0.018
				c0.2,0.041,0.364,0.155,0.469,0.337c0.105,0.182,0.123,0.378,0.055,0.578l-0.905,2.698l2.288-1.319
				c0.337-0.191,0.769-0.077,0.964,0.259l0.086,0.15c0.196,0.337,0.077,0.769-0.259,0.96l-2.288,1.324l2.793,0.564
				c0.205,0.041,0.364,0.159,0.469,0.341c0.105,0.177,0.127,0.373,0.059,0.573l-0.023,0.073c-0.114,0.337-0.459,0.537-0.805,0.464
				l-4.431-0.896l-2.297,1.328l1.651,0.255c0.209,0.032,0.373,0.136,0.487,0.314c0.114,0.177,0.141,0.373,0.086,0.573l-0.041,0.136
				c-0.105,0.355-0.455,0.582-0.819,0.509l-3.307-0.669l-1.756,1.014l1.756,1.014l3.553-0.719c0.35-0.073,0.691,0.127,0.805,0.464
				l0.027,0.068c0.064,0.2,0.05,0.396-0.059,0.578c-0.105,0.187-0.264,0.3-0.469,0.341l-1.915,0.387l2.297,1.328l4.431-0.896
				c0.35-0.073,0.691,0.127,0.805,0.464l0.023,0.073c0.068,0.2,0.046,0.396-0.059,0.573c-0.105,0.182-0.264,0.3-0.469,0.341
				l-2.793,0.564l2.288,1.324c0.337,0.191,0.455,0.623,0.259,0.96l-0.086,0.15c-0.196,0.337-0.628,0.455-0.964,0.259l-2.288-1.324
				l0.905,2.702c0.068,0.2,0.05,0.4-0.055,0.578c-0.105,0.182-0.268,0.296-0.469,0.337l-0.077,0.018
				c-0.35,0.073-0.691-0.127-0.805-0.469l-1.442-4.285l-2.293-1.324l0.605,1.556c0.077,0.2,0.068,0.396-0.032,0.582
				c-0.096,0.187-0.25,0.309-0.45,0.359l-0.141,0.032c-0.359,0.091-0.732-0.1-0.851-0.455l-1.074-3.193l-1.756-1.019v2.029
				l2.397,2.72c0.237,0.268,0.237,0.66,0,0.928l-0.05,0.059c-0.136,0.155-0.314,0.237-0.523,0.237c-0.214,0-0.391-0.082-0.532-0.237
				l-1.292-1.465v2.652l2.989,3.389c0.237,0.268,0.237,0.664,0,0.933l-0.05,0.059c-0.136,0.15-0.314,0.237-0.523,0.237
				c-0.214,0-0.391-0.086-0.528-0.237l-1.888-2.143v2.648c0,0.387-0.314,0.705-0.705,0.705h-0.177c-0.387,0-0.701-0.318-0.701-0.705
				v-2.648l-1.888,2.143c-0.136,0.15-0.318,0.237-0.528,0.237s-0.391-0.086-0.523-0.237l-0.05-0.059
				c-0.241-0.268-0.241-0.664,0-0.933l2.989-3.389v-2.652l-1.051,1.306c-0.127,0.164-0.305,0.255-0.514,0.264
				c-0.209,0.009-0.391-0.064-0.537-0.214l-0.1-0.105c-0.255-0.264-0.277-0.682-0.032-0.96l2.234-2.534v-2.029l-1.756,1.019
				l-1.155,3.435c-0.114,0.337-0.455,0.532-0.805,0.464l-0.073-0.014c-0.205-0.041-0.368-0.155-0.473-0.337
				c-0.105-0.182-0.123-0.378-0.059-0.578l0.623-1.851l-2.293,1.324l-1.442,4.285c-0.114,0.341-0.455,0.541-0.81,0.469l-0.073-0.018
				c-0.205-0.041-0.364-0.155-0.469-0.337c-0.105-0.177-0.127-0.378-0.059-0.578l0.91-2.702l-2.288,1.324
				c-0.341,0.196-0.769,0.077-0.964-0.259l-0.091-0.15c-0.191-0.337-0.077-0.769,0.259-0.96l2.293-1.324l-2.793-0.564
				c-0.209-0.041-0.368-0.159-0.473-0.341c-0.105-0.177-0.123-0.373-0.055-0.573l0.023-0.073c0.109-0.337,0.455-0.537,0.805-0.464
				l4.431,0.896l2.297-1.328l-1.656-0.255c-0.205-0.032-0.373-0.136-0.482-0.314c-0.114-0.177-0.146-0.373-0.086-0.573l0.041-0.136
				c0.105-0.355,0.45-0.582,0.814-0.509l3.307,0.669l1.76-1.014l-1.76-1.014l-3.553,0.719c-0.35,0.073-0.687-0.127-0.805-0.464
				l-0.023-0.068c-0.068-0.2-0.05-0.396,0.055-0.578c0.105-0.182,0.268-0.3,0.469-0.341l1.92-0.387l-2.297-1.328l-4.431,0.896
				c-0.35,0.073-0.696-0.127-0.805-0.464l-0.023-0.073c-0.068-0.2-0.05-0.396,0.055-0.573c0.105-0.182,0.264-0.3,0.473-0.341
				l2.793-0.564l-2.293-1.324c-0.337-0.191-0.45-0.623-0.259-0.96l0.091-0.15c0.196-0.337,0.623-0.45,0.964-0.259l2.288,1.319
				l-0.91-2.698c-0.068-0.2-0.045-0.396,0.059-0.578c0.105-0.182,0.264-0.296,0.469-0.337l0.073-0.018
				c0.355-0.068,0.696,0.127,0.81,0.469l1.442,4.285l2.293,1.324l-0.605-1.556c-0.077-0.2-0.068-0.396,0.027-0.582
				c0.1-0.182,0.255-0.309,0.455-0.359l0.136-0.036c0.364-0.086,0.732,0.105,0.851,0.459l1.078,3.193l1.756,1.019v-2.029
				l-2.397-2.72c-0.237-0.268-0.241-0.66-0.005-0.928l0.05-0.055c0.136-0.159,0.318-0.241,0.528-0.241s0.391,0.082,0.528,0.237
				l1.296,1.465v-2.652l-2.989-3.389c-0.241-0.268-0.241-0.664,0-0.933l0.05-0.059c0.132-0.15,0.314-0.232,0.523-0.232
				s0.391,0.082,0.528,0.232l1.888,2.143v-2.648C327.026,169.082,327.34,168.768,327.726,168.768z M375.009,177.63h0.177
				c0.387,0,0.705,0.314,0.705,0.705v2.643l1.888-2.138c0.136-0.155,0.314-0.237,0.528-0.237c0.205,0,0.387,0.082,0.523,0.237
				l0.055,0.059c0.232,0.264,0.232,0.664,0,0.928l-2.993,3.394v2.652l1.046-1.306c0.132-0.164,0.309-0.255,0.514-0.264
				c0.214-0.009,0.396,0.064,0.541,0.209l0.096,0.105c0.259,0.268,0.282,0.682,0.032,0.964l-2.229,2.529v2.029l1.756-1.014
				l1.155-3.439c0.114-0.337,0.455-0.532,0.805-0.464l0.073,0.014c0.205,0.041,0.364,0.155,0.473,0.341
				c0.105,0.177,0.123,0.378,0.059,0.578l-0.623,1.851l2.293-1.328l1.442-4.285c0.114-0.337,0.459-0.537,0.805-0.464l0.077,0.014
				c0.205,0.045,0.364,0.155,0.469,0.341c0.105,0.177,0.123,0.373,0.059,0.573l-0.91,2.702l2.288-1.319
				c0.337-0.196,0.769-0.082,0.96,0.255l0.091,0.155c0.196,0.337,0.077,0.764-0.259,0.96l-2.293,1.324l2.798,0.56
				c0.205,0.045,0.364,0.159,0.469,0.341c0.109,0.182,0.127,0.378,0.059,0.573l-0.023,0.077c-0.114,0.332-0.459,0.532-0.81,0.459
				l-4.426-0.892l-2.302,1.324l1.656,0.255c0.209,0.032,0.378,0.141,0.487,0.314c0.114,0.177,0.141,0.373,0.086,0.573l-0.041,0.136
				c-0.1,0.359-0.455,0.582-0.819,0.509l-3.307-0.669l-1.756,1.014l1.756,1.014l3.553-0.719c0.35-0.068,0.691,0.127,0.805,0.464
				l0.027,0.073c0.064,0.196,0.046,0.396-0.059,0.573c-0.105,0.187-0.264,0.3-0.469,0.341l-1.92,0.387l2.302,1.328l4.426-0.892
				c0.355-0.073,0.696,0.123,0.81,0.459l0.023,0.077c0.068,0.196,0.05,0.391-0.059,0.573c-0.105,0.177-0.264,0.296-0.469,0.337
				l-2.798,0.564l2.293,1.324c0.337,0.196,0.455,0.623,0.259,0.96l-0.091,0.155c-0.191,0.337-0.623,0.45-0.96,0.259l-2.288-1.328
				l0.91,2.707c0.064,0.196,0.046,0.396-0.059,0.578c-0.105,0.177-0.264,0.296-0.469,0.337l-0.077,0.014
				c-0.346,0.073-0.691-0.127-0.805-0.464l-1.442-4.285l-2.293-1.328l0.61,1.56c0.073,0.196,0.064,0.396-0.032,0.578
				c-0.1,0.187-0.255,0.309-0.459,0.359l-0.132,0.036c-0.364,0.086-0.732-0.105-0.855-0.455l-1.074-3.198l-1.756-1.014v2.029
				l2.397,2.72c0.237,0.264,0.237,0.66,0.005,0.928l-0.05,0.055c-0.141,0.159-0.318,0.241-0.528,0.241
				c-0.214,0-0.391-0.082-0.532-0.241l-1.292-1.465v2.652l2.993,3.389c0.232,0.268,0.232,0.664,0,0.933l-0.055,0.059
				c-0.136,0.155-0.318,0.237-0.523,0.237c-0.214,0-0.391-0.082-0.528-0.237l-1.888-2.138v2.643c0,0.387-0.318,0.705-0.705,0.705
				h-0.177c-0.387,0-0.705-0.318-0.705-0.705v-2.643l-1.883,2.138c-0.136,0.155-0.318,0.237-0.528,0.237
				c-0.209,0-0.387-0.082-0.528-0.237l-0.05-0.059c-0.237-0.268-0.237-0.664,0-0.933l2.989-3.389v-2.652l-1.046,1.306
				c-0.127,0.164-0.305,0.255-0.514,0.264c-0.209,0.009-0.391-0.064-0.537-0.214l-0.1-0.105c-0.259-0.264-0.277-0.678-0.032-0.96
				l2.229-2.529v-2.029l-1.756,1.014l-1.155,3.435c-0.109,0.337-0.45,0.537-0.801,0.469l-0.073-0.018
				c-0.205-0.041-0.368-0.15-0.473-0.337c-0.105-0.177-0.123-0.378-0.059-0.573l0.623-1.856l-2.297,1.328l-1.438,4.285
				c-0.114,0.337-0.459,0.537-0.81,0.464l-0.073-0.014c-0.205-0.041-0.364-0.159-0.469-0.337c-0.105-0.182-0.127-0.382-0.059-0.578
				l0.91-2.707l-2.293,1.328c-0.332,0.191-0.764,0.077-0.96-0.259l-0.086-0.155c-0.196-0.337-0.082-0.764,0.255-0.96l2.293-1.324
				l-2.798-0.564c-0.205-0.041-0.364-0.159-0.469-0.337c-0.105-0.182-0.123-0.378-0.059-0.573l0.027-0.077
				c0.114-0.337,0.459-0.532,0.805-0.459l4.431,0.892l2.297-1.328l-1.656-0.25c-0.205-0.032-0.373-0.141-0.487-0.318
				c-0.109-0.173-0.136-0.368-0.082-0.573l0.036-0.132c0.105-0.359,0.455-0.587,0.819-0.514l3.312,0.669l1.756-1.014l-1.756-1.014
				l-3.557,0.719c-0.346,0.073-0.687-0.123-0.805-0.459l-0.023-0.073c-0.068-0.196-0.05-0.396,0.055-0.578
				c0.109-0.182,0.264-0.296,0.473-0.337l1.915-0.391l-2.297-1.324l-4.431,0.892c-0.346,0.073-0.691-0.127-0.805-0.459l-0.027-0.077
				c-0.064-0.196-0.045-0.391,0.059-0.573s0.264-0.296,0.469-0.341l2.798-0.56l-2.293-1.324c-0.337-0.196-0.45-0.623-0.255-0.96
				l0.086-0.155c0.196-0.337,0.628-0.45,0.96-0.255l2.293,1.319l-0.91-2.702c-0.068-0.2-0.046-0.396,0.059-0.573
				c0.105-0.187,0.264-0.296,0.469-0.341l0.073-0.014c0.35-0.073,0.696,0.127,0.81,0.464l1.438,4.285l2.297,1.328l-0.605-1.56
				c-0.077-0.196-0.068-0.396,0.027-0.578c0.1-0.187,0.255-0.309,0.455-0.359l0.136-0.036c0.364-0.091,0.732,0.105,0.851,0.455
				l1.074,3.198l1.756,1.014v-2.029l-2.397-2.72c-0.232-0.268-0.237-0.66,0-0.928l0.05-0.055c0.136-0.159,0.318-0.241,0.528-0.241
				c0.209,0,0.391,0.082,0.528,0.241l1.292,1.465v-2.652l-2.989-3.394c-0.237-0.264-0.237-0.664,0-0.928l0.05-0.059
				c0.141-0.155,0.318-0.237,0.528-0.237c0.209,0,0.391,0.082,0.528,0.237l1.883,2.138v-2.643
				C374.304,177.944,374.622,177.63,375.009,177.63z M422.787,161.089h0.182c0.387,0,0.701,0.314,0.701,0.701v2.648l1.888-2.138
				c0.136-0.159,0.318-0.237,0.528-0.237s0.387,0.077,0.528,0.237l0.05,0.055c0.232,0.268,0.232,0.664,0,0.933l-2.993,3.389v2.652
				l1.046-1.306c0.132-0.164,0.305-0.255,0.519-0.264c0.209-0.009,0.391,0.064,0.537,0.214l0.1,0.105
				c0.259,0.264,0.277,0.682,0.032,0.964l-2.234,2.529v2.029l1.76-1.014l1.151-3.439c0.118-0.337,0.455-0.532,0.805-0.464
				l0.073,0.014c0.209,0.041,0.368,0.155,0.473,0.337c0.105,0.182,0.123,0.378,0.059,0.578l-0.623,1.851l2.297-1.324l1.437-4.285
				c0.118-0.337,0.459-0.537,0.81-0.469l0.073,0.018c0.205,0.041,0.364,0.155,0.469,0.337c0.105,0.182,0.127,0.378,0.059,0.578
				l-0.91,2.698l2.293-1.319c0.332-0.191,0.764-0.077,0.96,0.259l0.086,0.155c0.196,0.332,0.077,0.764-0.259,0.96l-2.288,1.324
				l2.798,0.56c0.2,0.045,0.364,0.159,0.469,0.341c0.105,0.177,0.123,0.378,0.055,0.573l-0.023,0.073
				c-0.114,0.337-0.459,0.532-0.805,0.464l-4.431-0.896l-2.297,1.328l1.651,0.25c0.209,0.032,0.378,0.141,0.491,0.318
				c0.109,0.177,0.136,0.373,0.082,0.573l-0.036,0.136c-0.105,0.355-0.459,0.582-0.823,0.509l-3.307-0.669l-1.756,1.014l1.756,1.014
				l3.557-0.719c0.346-0.068,0.687,0.127,0.805,0.464l0.023,0.068c0.068,0.2,0.05,0.4-0.059,0.578
				c-0.105,0.187-0.259,0.3-0.469,0.341l-1.915,0.387l2.297,1.328l4.431-0.896c0.35-0.068,0.691,0.127,0.805,0.464l0.023,0.073
				c0.068,0.2,0.05,0.396-0.055,0.573c-0.105,0.182-0.268,0.3-0.469,0.341l-2.798,0.564l2.288,1.319
				c0.341,0.196,0.455,0.628,0.259,0.964l-0.086,0.155c-0.196,0.332-0.628,0.45-0.96,0.255l-2.293-1.324l0.91,2.707
				c0.068,0.196,0.046,0.391-0.059,0.573c-0.105,0.182-0.264,0.296-0.469,0.337l-0.073,0.018c-0.35,0.068-0.691-0.127-0.81-0.469
				l-1.437-4.285l-2.297-1.324l0.61,1.56c0.073,0.191,0.064,0.391-0.032,0.578s-0.25,0.305-0.455,0.355l-0.136,0.036
				c-0.364,0.091-0.732-0.1-0.851-0.455l-1.074-3.198l-1.76-1.014v2.029l2.402,2.72c0.232,0.268,0.232,0.66,0,0.933l-0.05,0.05
				c-0.136,0.159-0.318,0.246-0.528,0.246s-0.391-0.086-0.532-0.241l-1.292-1.465v2.652l2.993,3.389
				c0.232,0.268,0.232,0.664,0,0.933l-0.05,0.055c-0.141,0.159-0.318,0.241-0.528,0.241s-0.391-0.082-0.528-0.241l-1.888-2.138
				v2.648c0,0.387-0.314,0.701-0.701,0.701h-0.182c-0.382,0-0.701-0.314-0.701-0.701v-2.648l-1.888,2.138
				c-0.136,0.159-0.318,0.241-0.528,0.241c-0.205,0-0.387-0.082-0.523-0.241l-0.05-0.055c-0.237-0.268-0.237-0.664,0-0.933
				l2.989-3.389v-2.652l-1.046,1.306c-0.132,0.164-0.309,0.255-0.519,0.264c-0.209,0.009-0.391-0.064-0.537-0.214l-0.096-0.105
				c-0.259-0.268-0.282-0.682-0.036-0.964l2.234-2.529v-2.029l-1.756,1.014l-1.155,3.439c-0.114,0.337-0.455,0.537-0.805,0.464
				l-0.068-0.014c-0.209-0.041-0.373-0.155-0.478-0.337c-0.105-0.177-0.123-0.378-0.059-0.578l0.623-1.851l-2.293,1.324
				l-1.442,4.285c-0.114,0.341-0.455,0.537-0.805,0.469l-0.073-0.018c-0.209-0.041-0.368-0.155-0.473-0.337
				c-0.105-0.182-0.123-0.378-0.055-0.573l0.905-2.707l-2.288,1.324c-0.337,0.196-0.769,0.077-0.96-0.255l-0.091-0.155
				c-0.196-0.337-0.077-0.769,0.255-0.964l2.293-1.319l-2.793-0.564c-0.205-0.041-0.364-0.159-0.473-0.341
				c-0.105-0.177-0.123-0.373-0.055-0.573l0.023-0.073c0.114-0.337,0.459-0.532,0.81-0.464l4.426,0.896l2.297-1.328l-1.656-0.25
				c-0.205-0.032-0.368-0.146-0.482-0.318c-0.114-0.177-0.146-0.373-0.086-0.573l0.041-0.132c0.105-0.364,0.455-0.587,0.819-0.514
				l3.303,0.669l1.76-1.014l-1.76-1.014l-3.553,0.719c-0.346,0.073-0.687-0.127-0.801-0.464l-0.023-0.068
				c-0.068-0.2-0.05-0.4,0.055-0.578c0.1-0.182,0.264-0.3,0.469-0.341l1.915-0.387l-2.297-1.328l-4.426,0.896
				c-0.35,0.068-0.696-0.127-0.81-0.464l-0.023-0.073c-0.068-0.196-0.05-0.396,0.055-0.573c0.109-0.182,0.268-0.296,0.473-0.341
				l2.793-0.56l-2.293-1.324c-0.332-0.196-0.45-0.628-0.255-0.96l0.091-0.155c0.191-0.337,0.623-0.45,0.96-0.259l2.288,1.319
				l-0.905-2.698c-0.068-0.2-0.05-0.396,0.055-0.578c0.105-0.182,0.264-0.296,0.473-0.337l0.073-0.018
				c0.35-0.068,0.691,0.132,0.805,0.469l1.442,4.285l2.293,1.324l-0.605-1.556c-0.077-0.196-0.068-0.396,0.027-0.582
				c0.1-0.182,0.255-0.309,0.455-0.359l0.136-0.036c0.364-0.086,0.732,0.105,0.855,0.459l1.074,3.198l1.756,1.014v-2.029
				l-2.397-2.72c-0.237-0.268-0.237-0.66-0.005-0.928l0.05-0.055c0.136-0.164,0.318-0.246,0.528-0.246
				c0.209,0,0.391,0.082,0.528,0.241l1.296,1.465v-2.652l-2.989-3.389c-0.237-0.268-0.237-0.664,0-0.933l0.05-0.055
				c0.136-0.159,0.318-0.237,0.523-0.237c0.209,0,0.391,0.077,0.528,0.237l1.888,2.138v-2.648
				C422.087,161.403,422.405,161.089,422.787,161.089z"/>
		</g>
	</g>
</g>
<g>
</g>
<g>
</g>
<g>
</g>
<g>
</g>
<g>
</g>
<g>
</g>
<g>
</g>
<g>
</g>
<g>
</g>
<g>
</g>
<g>
</g>
<g>
</g>
<g>
</g>
<g>
</g>
<g>
</g>
</svg>
