<?xml version="1.0" encoding="iso-8859-1"?>
<!-- Generator: Adobe Illustrator 19.0.0, SVG Export Plug-In . SVG Version: 6.00 Build 0)  -->
<svg version="1.1" id="Layer_1" xmlns="http://www.w3.org/2000/svg" xmlns:xlink="http://www.w3.org/1999/xlink" x="0px" y="0px"
	 viewBox="0 0 512 512" style="enable-background:new 0 0 512 512;" xml:space="preserve">
<path style="fill:#4EC1F5;" d="M256.005,0C397.384,0,512,114.616,512,256.005C512,397.384,397.384,512,256.005,512
	C114.616,512,0,397.384,0,256.005C0,114.616,114.616,0,256.005,0z"/>
<path style="fill:#FFFFFF;" d="M323.813,63.989c3.302,0,6.408,0.791,9.162,2.178c2.979-2.921,7.052-4.718,11.555-4.718
	c7.795,0,14.329,5.392,16.078,12.649c3.888,1.172,7.013,4.112,8.439,7.883c0.469-0.049,0.947-0.068,1.426-0.068
	c7.199,0,13.04,5.831,13.04,13.04c0,7.199-5.841,13.04-13.04,13.04c-2.247,0-4.356-0.567-6.193-1.563
	c-1.592,5.421-6.593,9.377-12.522,9.377c-3.624,0-6.906-1.475-9.27-3.868c-2.364,2.393-5.636,3.868-9.26,3.868
	c-3.448,0-6.584-1.338-8.908-3.516c-2.383,2.598-5.812,4.239-9.631,4.239c-3.565,0-6.798-1.426-9.143-3.751
	c-1.084,0.234-2.208,0.361-3.35,0.361c-8.576,0-15.531-6.955-15.531-15.541c0-8.576,6.955-15.531,15.531-15.531
	c0.469,0,0.928,0.02,1.387,0.068C304.688,71.93,313.322,63.989,323.813,63.989z"/>
<path style="fill:#FFFF00;" d="M278.393,52.17c18.246,0,33.025,14.779,33.025,33.015c0,18.246-14.779,33.025-33.025,33.025
	c-18.237,0-33.015-14.779-33.015-33.025C245.378,66.949,260.156,52.17,278.393,52.17z"/>
<g>
	<path style="fill:#7FD3F9;" d="M511.912,262.823H0.098C3.712,401.057,116.892,512,256.005,512
		C395.108,512,508.288,401.057,511.912,262.823z"/>
	<path style="fill:#DFF5F9;" d="M218.799,321.029c31.638,0,57.298,0.899,57.298,2.012s-25.66,2.022-57.298,2.022
		s-57.288-0.908-57.288-2.022S187.161,321.029,218.799,321.029z M500.747,331.286l-0.156,0.508
		c-7.492,0.44-33.474,0.762-64.38,0.762c-36.766,0-66.558-0.459-66.558-1.026c0-0.567,29.792-1.026,66.558-1.026
		C467.332,330.504,493.461,330.836,500.747,331.286z M496.137,344.892l-0.752,1.983c-2.403,0.02-4.913,0.029-7.492,0.029
		c-17.729,0-32.107-0.459-32.107-1.026c0-0.567,14.378-1.026,32.107-1.026C490.745,344.853,493.51,344.863,496.137,344.892z
		 M490.775,358.176c-0.654,1.514-1.328,3.028-2.022,4.532c-30.642-0.049-55.149-1.045-55.149-2.266
		C433.603,359.192,459.195,358.176,490.775,358.176z M475.478,387.831c-0.703,1.172-1.426,2.335-2.149,3.497
		c-7.433,0.488-17.816,0.791-29.313,0.791c-22.622,0-40.966-1.172-40.966-2.618c0-1.436,18.344-2.608,40.966-2.608
		C456.665,386.894,467.967,387.265,475.478,387.831z M453.979,418.307c-0.908,1.104-1.836,2.198-2.755,3.282
		c-25.387-0.244-43.447-0.879-43.447-1.631C407.777,419.186,427.166,418.532,453.979,418.307z M421.814,451.029
		c-2.715,2.315-5.47,4.571-8.283,6.779c-10.373,0.283-22.153,0.44-34.646,0.44c-41.474,0-75.095-1.768-75.095-3.966
		c0-2.188,33.621-3.966,75.095-3.966C394.855,450.316,409.653,450.58,421.814,451.029z M374.967,482.716
		c-3.37,1.778-6.789,3.487-10.256,5.109c-2.159,0.01-4.347,0.01-6.564,0.01c-33.504,0-60.668-1.162-60.668-2.608
		c0-1.446,27.164-2.608,60.668-2.608C363.978,482.618,369.624,482.657,374.967,482.716z M64.096,425.418
		c-0.957-1.084-1.895-2.168-2.833-3.262c11.819-0.41,28.209-0.664,46.319-0.664c36.043,0,65.269,1.006,65.269,2.247
		s-29.225,2.247-65.269,2.247C90.87,425.985,75.642,425.77,64.096,425.418z M53.469,412.573c-1.084-1.397-2.159-2.803-3.214-4.229
		c14.906-0.84,38.847-1.387,65.855-1.387c45.205,0,81.864,1.534,81.864,3.419s-36.659,3.419-81.864,3.419
		C90.968,413.794,68.482,413.316,53.469,412.573z M34.705,384.755l-1.153-1.973c10.539-0.772,33.416-1.299,59.945-1.299
		c36.532,0,66.138,1.006,66.138,2.247c0,1.241-29.606,2.247-66.138,2.247C67.896,385.976,45.684,385.477,34.705,384.755z
		 M14.036,339.784l-0.586-1.67c10.862-0.332,28.141-0.547,47.608-0.547c32.869,0,59.515,0.615,59.515,1.377
		c0,0.752-26.647,1.367-59.515,1.367C41.933,340.311,24.927,340.106,14.036,339.784z M11.506,332.135
		c-0.273-0.879-0.518-1.768-0.781-2.647c13.685-0.469,34.627-0.772,58.109-0.772c41.22,0,74.636,0.928,74.636,2.081
		c0,1.153-33.416,2.081-74.636,2.081C45.801,332.878,25.201,332.585,11.506,332.135z M6.984,315.559
		c-0.156-0.664-0.332-1.319-0.479-1.983c10.833-0.234,25.523-0.381,41.718-0.381c33.299,0,60.297,0.606,60.297,1.367
		c0,0.752-26.998,1.367-60.297,1.367C32.273,315.93,17.768,315.794,6.984,315.559z M280.6,394.337
		c34.705,0,62.836,1.485,62.836,3.311c0,1.836-28.131,3.311-62.836,3.311s-62.836-1.475-62.836-3.311
		C217.764,395.822,245.895,394.337,280.6,394.337z M377.839,414.742c16.537,0,29.938,1.162,29.938,2.608
		c0,1.446-13.401,2.608-29.938,2.608c-16.527,0-29.938-1.162-29.938-2.608C347.901,415.904,361.312,414.742,377.839,414.742z
		 M371.06,441.369c33.074,0,59.877-1.162,59.877-2.608c0-1.436-26.803-2.608-59.877-2.608c-33.064,0-59.877,1.172-59.877,2.608
		C311.183,440.207,337.996,441.369,371.06,441.369z M114.977,444.426c18.022,0,32.634-1.006,32.634-2.247
		s-14.613-2.247-32.634-2.247c-18.031,0-32.644,1.006-32.644,2.247S96.946,444.426,114.977,444.426z M220.616,438.429
		c40.322,0,73.005,0.674,73.005,1.504s-32.683,1.494-73.005,1.494s-73.005-0.664-73.005-1.494S180.294,438.429,220.616,438.429z
		 M187.122,463.913c24.664,0,44.658,1.006,44.658,2.247c0,1.241-19.995,2.247-44.658,2.247s-44.668-1.006-44.668-2.247
		C142.454,464.919,162.458,463.913,187.122,463.913z M277.309,417.447c19.448,0,35.203,0.674,35.203,1.504
		c0,0.83-15.755,1.494-35.203,1.494c-19.458,0-35.223-0.664-35.223-1.494C242.086,418.121,257.851,417.447,277.309,417.447z
		 M339.891,328.463c16.429,0,29.753,0.684,29.753,1.534s-13.323,1.534-29.753,1.534c-16.439,0-29.753-0.684-29.753-1.534
		S323.452,328.463,339.891,328.463z M333.151,344.14c32.869,0,59.515-0.694,59.515-1.534c0-0.85-26.647-1.543-59.515-1.543
		s-59.515,0.694-59.515,1.543C273.636,343.446,300.282,344.14,333.151,344.14z M340.926,354.074c41.22,0,74.636-1.045,74.636-2.335
		c0-1.289-33.416-2.335-74.636-2.335c-41.23,0-74.646,1.045-74.646,2.335C266.281,353.029,299.696,354.074,340.926,354.074z
		 M320.316,371.5c33.298,0,60.297-0.694,60.297-1.543c0-0.84-26.998-1.534-60.297-1.534s-60.297,0.694-60.297,1.534
		C260.019,370.806,287.018,371.5,320.316,371.5z M405.667,315.139c22.495,0,40.722-0.694,40.722-1.534
		c0-0.85-18.227-1.543-40.722-1.543c-22.486,0-40.712,0.694-40.712,1.543C364.955,314.446,383.182,315.139,405.667,315.139z
		 M67.798,351.544c16.429,0,29.753-0.615,29.753-1.367c0-0.762-13.323-1.367-29.753-1.367c-16.439,0-29.763,0.606-29.763,1.367
		C38.036,350.929,51.359,351.544,67.798,351.544z M164.109,347.891c36.766,0,66.568,0.41,66.568,0.918
		c0,0.498-29.802,0.908-66.568,0.908c-36.756,0-66.558-0.41-66.558-0.908C97.551,348.301,127.353,347.891,164.109,347.891z
		 M133.575,363.412c22.486,0,40.712,0.615,40.712,1.367c0,0.762-18.227,1.377-40.712,1.377c-22.495,0-40.722-0.615-40.722-1.377
		C92.853,364.027,111.08,363.412,133.575,363.412z M215.801,335.105c17.729,0,32.097,0.41,32.097,0.918
		c0,0.508-14.368,0.908-32.097,0.908c-17.738,0-32.107-0.4-32.107-0.908C183.694,335.515,198.062,335.105,215.801,335.105z"/>
	<path style="fill:#747474;" d="M412.271,223.449c0,0,19.467,9.113,27.584,22.495c-8.117,2.032-30.427,4.093-30.427,4.093
		l-12.864-9.328L412.271,223.449z"/>
	<path style="fill:#DFDFDF;" d="M49.396,162.937c0,0,19.467,22.437,25.426,33.797c9.192-5.685,12.161-16.498,12.024-16.898
		C86.709,179.425,63.462,167.528,49.396,162.937z"/>
	<polygon style="fill:#706B67;" points="74.822,200.299 74.822,178.087 92.394,193.051 95.041,206.707 	"/>
	<path style="fill:#EDE9E7;" d="M401.878,245.671c-0.156-0.537,37.977,0.273,37.977,0.273v8.645H396.32L401.878,245.671z"/>
	<polygon style="fill:#D5CBC7;" points="484.465,264.405 401.878,264.063 401.878,252.156 464.45,252.156 	"/>
	<g>
		<path style="fill:#606060;" d="M111.05,141.575c0,0,10.852,23.218,13.401,33.513c2.549,10.286,9.582-9.182,9.582-9.182
			S116.725,144.544,111.05,141.575z"/>
		<path style="fill:#606060;" d="M154.849,109.126c0,0,14.329,31.902,18.119,52.189c12.327-2.852,13.519-22.993,13.519-22.993
			S162.966,113.18,154.849,109.126z"/>
	</g>
	<g>
		<path style="fill:#DFDFDF;" d="M158.776,113.092l-3.927-3.966c0,0,14.945,46.026,15.824,52.189
			c0.879,6.144,3.712,0.567,3.712,0.567S159.538,116.325,158.776,113.092z"/>
		<path style="fill:#DFDFDF;" d="M114.284,145.482l-3.233-3.907c0,0,15.951,46.026,16.83,52.18c0.879,6.154,3.722,0.576,3.722,0.576
			S115.036,148.705,114.284,145.482z"/>
	</g>
	<path style="fill:#E5E5E5;" d="M111.05,217.822c0,0,13.782-36.776,13.519-44.61c0.703-0.791,1.573-1.621,2.432-2.403l0.049-0.039
		c1.797-1.602,3.536-2.921,3.536-2.921l0,0l5.949-4.923l19.409,44.668c1.016,2.081,1.895,4.083,2.588,5.949l6.183,14.232
		c0,0-1.123,2.217-2.696,4.581c0.01,0.264-0.068,0.391-0.264,0.391c-3.428,5.011-8.732,10.129-9.572-4.347
		C141.799,224.084,123.905,217.822,111.05,217.822z"/>
	<g>
		<path style="fill:#FFFFFF;" d="M111.05,141.575c0,0,39.208,45.157,48.663,90.04c24.879,0,13.665-69.615,13.665-69.615
			S146.469,141.839,111.05,141.575z"/>
		<path style="fill:#FFFFFF;" d="M49.396,162.937c0,0,47.862,41.904,55.432,56.507c7.57,14.603,17.709-8.928,17.709-8.928
			l2.032-37.313C124.569,173.203,91.31,157.799,49.396,162.937z"/>
	</g>
	<path style="fill:#E5E5E5;" d="M172.969,161.316c0,0,1.621,52.453-10.276,70.026c10.012,1.895,46.378,14.144,46.378,14.144
		l-1.055-2.901l4.298,0.928l-8.791-74.089l-19.809-18.93c0,0-6.417-1.895-10.471,5.411c-0.557,0.987-0.449,3.135,0.137,6.095
		L172.969,161.316z"/>
	<path style="fill:#FFFFFF;" d="M212.313,243.512c0,0-23.394-103.021-57.464-134.386c21.909,4.864,70.573,21.899,99.778,77.605
		C253.28,198.082,250.974,231.068,212.313,243.512z"/>
	<path style="fill:#DFDFDF;" d="M324.389,247.194c0,0-41.367-20.18-54.084-15.58c-9.651,0-36.678,26.227-53.44,10.266
		c-1.084-11.624,37.762-55.149,37.762-55.149s0.41,0.83,1.094,2.295C255.722,189.027,319.037,223.449,324.389,247.194z"/>
	<path style="fill:#FFFFFF;" d="M337.644,178.087c0,0-41.074-16.781-81.923,10.94c26.578,14.368,47.579,32.585,54.876,48.263
		c5.138-0.273,9.27,0.537,9.27,0.537S331.286,181.047,337.644,178.087z"/>
	<path style="fill:#DFDFDF;" d="M435.254,205.173c1.055,0.322-25.963,26.715-32.722,38.339c-8.107-0.537-8.107-0.537-8.107-0.537
		s-14.066-22.984-25.963-28.669C377.39,211.6,413.892,198.746,435.254,205.173z"/>
	<g>
		<path style="fill:#747474;" d="M329.801,203.395c0,0,13.519,21.46,13.792,25.24c2.969,2.979,12.698,6.759,12.698,6.759
			s-1.358-16.762-7.16-21.089L329.801,203.395z"/>
		<path style="fill:#747474;" d="M503.16,270.637h-18.696v-6.847H27.535v6.847H8.84v13.685h494.32V270.637z M324.389,241.881
			c0.273-2.159,20.551-15.951,20.551-15.951l35.965,4.327l10.481,9.485l3.038,3.233l-4.601,6.75L324.389,241.881z M231.165,241.881
			l14.398-17.055l24.742,6.789l24.244-8.166l16.859,18.432H231.165z M168.104,231.615l4.776-12.405l23.873,5.617l3.8,15.882
			L168.104,231.615z M124.296,220.792l2.374-8.645l20.102,5.48l3.888,10.149L124.296,220.792z M55.081,227.551l-5.685-5.675
			c0,0,4.132-0.41,9.875-0.899c2.93-4.532,9.514-14.222,15.55-19.653c8.058-7.257,28.923,0,28.923,0l1.367,22.124
			c0.869,0.469,1.338,0.772,1.338,0.772l-5.128,6.037H88.907l2.383,0.391l7.551,15.648l-10.842,8.127l-45.899-6.964l6.154-4.347
			v-4.923l5.216-0.586l2.178-3.399c0,0-0.313-3.77-0.273-6.642L55.081,227.551z"/>
	</g>
	<path style="fill:#BBBBBB;" d="M329.801,203.395c-0.733-0.361,30.808,5.206,38.661,10.911c0,0,30.017,17.846,25.963,28.669
		c0,0-10.012-14.339-29.206-7.58c-6.222,0.547-8.928,0-8.928,0S340.077,208.436,329.801,203.395z"/>
	<path style="fill:#BBA9A3;" d="M95.207,228.372c1.182-1.807,8.478-12.161,19.301-10.412c0.332-2.569,38.856,10.168,56.165,13.655
		c17.299,3.477,26.627,8.107,26.627,8.107h172.793l18.11,6.163v-5.177l16.732-3.282c0,0-2.989,3.419-3.155,13.079l0.098,0.039v4.044
		v9.201H42.099v-17.846h52.942v-3.595l-18.393-8.576v-5.402H95.207z"/>
	<polygon style="fill:#FFFFFF;" points="392.901,261.543 77.986,261.543 77.986,255.546 392.901,255.546 	"/>
	<g>
		<polygon style="fill:#747474;" points="401.878,251.248 334.812,251.248 334.812,248.835 401.878,248.835 		"/>
		<polygon style="fill:#747474;" points="275.99,248.376 95.041,248.376 95.041,246.218 275.99,246.218 		"/>
	</g>
</g>
<path style="fill:#FFFFFF;" d="M203.454,39.042c3.712,0,7.209,0.879,10.315,2.442c3.35-3.282,7.941-5.304,13.011-5.304
	c8.771,0,16.127,6.076,18.09,14.241c4.386,1.319,7.912,4.63,9.514,8.879c0.527-0.059,1.055-0.088,1.602-0.088
	c8.107,0,14.681,6.574,14.681,14.681s-6.574,14.681-14.681,14.681c-2.53,0-4.903-0.635-6.974-1.758
	c-1.788,6.105-7.414,10.549-14.095,10.549c-4.083,0-7.775-1.661-10.432-4.347c-2.657,2.686-6.349,4.347-10.432,4.347
	c-3.878,0-7.404-1.504-10.032-3.956c-2.676,2.94-6.544,4.786-10.833,4.786c-4.015,0-7.658-1.621-10.305-4.229
	c-1.211,0.264-2.471,0.41-3.761,0.41c-9.67,0-17.494-7.834-17.494-17.494s7.824-17.484,17.494-17.484
	c0.527,0,1.045,0.02,1.563,0.068C181.926,47.989,191.654,39.042,203.454,39.042z"/>
<g>
	<path d="M399.944,163.123c0,0,5.763-1.241,10.598-0.313c4.835,0.928,9.875,4.943,15.335,5.255c5.45,0.303,4.317-1.758,4.317-1.758
		s-3.497,0.518-4.425-2.462c-0.928-2.989,2.882-5.363,8.742-9.475c5.87-4.112,7.004-8.225,5.87-10.803c0,0-1.035,1.641-5.87,4.22
		s-8.332,7.306-12.141,10.696c-3.8,3.399-4.015,3.604-7.609,2.891C411.157,160.651,403.44,159.518,399.944,163.123z"/>
	<path d="M88.614,110.367c0,0,5.773-1.241,10.598-0.313c4.845,0.928,9.875,4.943,15.335,5.255c5.45,0.303,4.317-1.758,4.317-1.758
		s-3.497,0.518-4.425-2.461c-0.918-2.989,2.891-5.363,8.752-9.465c5.861-4.122,6.994-8.234,5.861-10.813c0,0-1.026,1.651-5.861,4.22
		c-4.835,2.579-8.332,7.306-12.141,10.696c-3.809,3.399-4.015,3.604-7.619,2.891C99.837,107.895,92.111,106.762,88.614,110.367z"/>
</g>
<g>
</g>
<g>
</g>
<g>
</g>
<g>
</g>
<g>
</g>
<g>
</g>
<g>
</g>
<g>
</g>
<g>
</g>
<g>
</g>
<g>
</g>
<g>
</g>
<g>
</g>
<g>
</g>
<g>
</g>
</svg>
