<?xml version="1.0" encoding="iso-8859-1"?>
<!-- Generator: Adobe Illustrator 19.0.0, SVG Export Plug-In . SVG Version: 6.00 Build 0)  -->
<svg version="1.1" id="Layer_1" xmlns="http://www.w3.org/2000/svg" xmlns:xlink="http://www.w3.org/1999/xlink" x="0px" y="0px"
	 viewBox="0 0 512 512" style="enable-background:new 0 0 512 512;" xml:space="preserve">
<path style="fill:#8FC9F7;" d="M256.005,0C397.384,0,512,114.616,512,256.005C512,397.384,397.384,512,256.005,512
	C114.616,512,0,397.384,0,256.005C0,114.616,114.616,0,256.005,0z"/>
<path style="fill:#ADD37F;" d="M24.029,364.389h463.942C447.161,451.586,358.645,512,256.005,512S64.849,451.586,24.029,364.389z"/>
<path style="fill:#B9DDF9;" d="M237.26,364.389h30.71l47.657,140.618c-19.135,4.562-39.091,6.994-59.623,6.994
	c-21.899,0-43.164-2.755-63.452-7.931L237.26,364.389z"/>
<path style="fill:#8FC9F7;" d="M240.054,368.218l-42.764,137.013c18.862,4.425,38.505,6.769,58.714,6.769
	c18.803,0,37.137-2.051,54.788-5.9l-45.557-137.883H240.054z"/>
<g>
	<polygon style="fill:#F3F3F3;" points="42.783,385.067 71.09,385.067 67.886,217.09 47.667,217.09 	"/>
	<polygon style="fill:#FFFFFF;" points="147.758,261.123 144.779,261.123 144.779,366.118 147.758,366.118 	"/>
	<polygon style="fill:#F3F3F3;" points="147.758,261.123 146.273,261.123 146.273,366.118 147.758,366.118 	"/>
	<polygon style="fill:#FFFFFF;" points="57.288,381.785 57.288,217.09 47.667,217.09 42.783,385.067 71.09,385.067 71.032,381.785 	
		"/>
	<polygon style="fill:#F3F3F3;" points="143.03,261.123 149.506,261.123 146.273,257.753 	"/>
	<g>
		<polygon style="fill:#9D9D9D;" points="145.941,255.458 146.596,255.458 146.273,252.098 		"/>
		<path style="fill:#9D9D9D;" d="M147.416,257.597c0,0.635-0.518,1.143-1.143,1.143s-1.143-0.508-1.143-1.143
			s0.518-1.143,1.143-1.143S147.416,256.962,147.416,257.597z"/>
		<path style="fill:#9D9D9D;" d="M147.045,255.8c0,0.43-0.352,0.772-0.772,0.772c-0.43,0-0.772-0.342-0.772-0.772
			c0-0.42,0.342-0.772,0.772-0.772C146.693,255.028,147.045,255.38,147.045,255.8z"/>
		<path style="fill:#9D9D9D;" d="M195.21,237.915c0-0.645-0.391-1.192-0.957-1.436c0.205-0.166,0.332-0.42,0.332-0.703
			c0-0.43-0.293-0.791-0.694-0.899v-1.407c0.244-0.098,0.43-0.342,0.43-0.625s-0.176-0.527-0.43-0.625h0.02l-0.264-2.598
			l-0.244,2.598c-0.244,0.098-0.43,0.342-0.43,0.625s0.186,0.527,0.43,0.625v1.407c-0.4,0.107-0.694,0.469-0.694,0.899
			c0,0.283,0.127,0.537,0.322,0.703c-0.557,0.244-0.947,0.791-0.947,1.436c0,0.86,0.703,1.553,1.563,1.553
			S195.21,238.774,195.21,237.915z"/>
	</g>
	<path style="fill:#F3F3F3;" d="M188.792,241.314l3.311-3.302c0,0,0.606,0.371,1.563,0.371c1.045,0,1.543-0.371,1.543-0.371l3.8,3.8
		L188.792,241.314z"/>
	<path style="fill:#FFFFFF;" d="M182.102,261.113c0,0-4.523-3.253-1.954-10.911c2.461-7.345,8.449-10.246,14.105-10.246
		c5.646,0,13.665,4.425,14.74,12.825c0.957,7.453-2.335,8.996-4.171,9.504C202.975,262.794,182.473,265.568,182.102,261.113z"/>
	<path style="fill:#F9F9F9;" d="M193.569,239.976v23.55c-5.656,0.264-11.34-0.088-11.536-2.413c0,0-4.523-3.253-1.954-10.911
		C182.463,243.111,188.109,240.181,193.569,239.976z"/>
	<polygon style="fill:#F3F3F3;" points="187.318,273.577 179.494,276.42 179.494,258.779 187.318,255.937 	"/>
	<path style="fill:#9D9D9D;" d="M185.579,260.947c-0.938-0.928-2.041-0.664-2.198-1.319l-0.029,0.02
		c-0.147,0.762-1.25,1.299-2.188,2.901c-0.723,1.241-0.869,3.214-0.889,4.308v0.625c0,0.049,0,0.078,0,0.107c0.01,0.059,0,0.059,0,0
		c0-0.02,0-0.029,0-0.059v8.557l6.154-2.247v-10.032C186.351,262.774,186.145,261.504,185.579,260.947z"/>
	<polygon style="fill:#FFFFFF;" points="200.993,273.577 208.817,276.42 208.817,258.779 200.993,255.937 	"/>
	<g>
		<path style="fill:#9D9D9D;" d="M202.731,260.947c0.947-0.928,2.041-0.664,2.188-1.319l0.039,0.02
			c0.147,0.762,1.25,1.299,2.188,2.901c0.723,1.241,0.869,3.214,0.889,4.308v0.625c0,0.049,0,0.078,0,0.107c0,0.059,0,0.059,0,0
			c0-0.02,0-0.029,0-0.059v8.557l-6.154-2.247v-10.032C201.96,262.774,202.165,261.504,202.731,260.947z"/>
		<path style="fill:#9D9D9D;" d="M257.626,151.059c0,0-0.4,2.432-3.077,2.657l-0.469-4.649l-0.42,4.63
			c-2.198-0.313-2.989-2.637-2.989-2.637s-0.127,3.458,2.872,3.849l-0.254,2.764c-0.84,0.313-1.436,1.123-1.436,2.071
			s0.596,1.758,1.436,2.071v4.659c-1.328,0.352-2.305,1.553-2.305,2.979c0,0.938,0.42,1.778,1.084,2.344
			c-1.846,0.781-3.155,2.608-3.155,4.737c0,2.842,2.315,5.148,5.167,5.148c2.862,0,5.177-2.305,5.177-5.148
			c0-2.129-1.299-3.956-3.155-4.737c0.664-0.567,1.084-1.407,1.084-2.344c0-1.426-0.977-2.628-2.305-2.979v-4.659
			c0.84-0.313,1.426-1.123,1.426-2.071c0-0.938-0.586-1.748-1.426-2.071h0.059l-0.273-2.764
			C257.704,154.537,257.626,151.059,257.626,151.059z"/>
	</g>
	<path style="fill:#F3F3F3;" d="M238.022,188.197l10.95-10.94c0,0,2.012,1.231,5.177,1.231c3.477,0,5.118-1.231,5.118-1.231
		l12.591,12.591L238.022,188.197z"/>
	<path style="fill:#FFFFFF;" d="M215.879,254.149c0,0-14.974-10.764-6.466-36.131c8.156-24.341,27.995-33.933,46.69-33.933
		s45.274,14.642,48.839,42.48c3.155,24.674-7.736,29.782-13.821,31.472C285.035,259.717,217.1,268.908,215.879,254.149z"/>
	<path style="fill:#F9F9F9;" d="M256.103,184.084c-0.703,0-1.397,0.02-2.1,0.049v78.025c17.143-0.801,34.207-3.321,37.118-4.122
		c6.085-1.69,16.977-6.798,13.821-31.472C301.376,198.726,274.798,184.084,256.103,184.084z"/>
	<polygon style="fill:#DFDFDF;" points="300.517,255.761 211.688,255.761 211.688,251.043 300.517,251.043 	"/>
	<g>
		<polygon style="fill:#FFFFFF;" points="211.737,360.941 176.348,360.941 176.348,273.577 211.737,273.577 		"/>
		<polygon style="fill:#FFFFFF;" points="300.566,353.859 211.737,353.859 211.737,254.921 300.566,254.921 		"/>
	</g>
	<polygon style="fill:#DFDFDF;" points="284.947,312.824 227.454,312.824 227.454,270.979 284.947,270.979 	"/>
	<path style="fill:#9D9D9D;" d="M275.335,288.639c-8.078-6.251-17.572-6.906-18.871-10.403h-0.313
		c-1.289,3.497-10.784,4.151-18.862,10.403c-6.222,4.825-7.492,14.3-7.678,19.633v3.116c0.01,0.234,0.02,0.41,0.029,0.547
		c0.02,0.303,0.01,0.273,0,0c-0.01-0.078-0.02-0.176-0.029-0.293v42.217H282.7v-49.533
		C282.046,299.061,280.21,292.419,275.335,288.639z"/>
	<g>
		<polygon style="fill:#DFDFDF;" points="229.612,353.859 211.737,353.859 211.737,348.028 229.612,348.028 		"/>
		<polygon style="fill:#DFDFDF;" points="300.566,353.859 282.7,353.859 282.7,348.028 300.566,348.028 		"/>
	</g>
	<polygon style="fill:#9D9D9D;" points="300.566,256.611 211.737,256.611 211.737,254.921 300.566,254.921 	"/>
	<polygon style="fill:#DFDFDF;" points="211.737,279.077 176.26,279.077 176.26,277.396 211.737,277.396 	"/>
	<polygon style="fill:#F3F3F3;" points="288.532,260.752 223.781,260.752 217.569,260.752 217.569,266.964 217.569,348.028 
		223.781,348.028 223.781,266.964 288.532,266.964 288.532,348.028 294.744,348.028 294.744,266.964 294.744,260.752 	"/>
	<path style="fill:#9D9D9D;" d="M201.461,290.222c-3.194-2.481-6.955-2.745-7.463-4.122h-0.127
		c-0.518,1.377-4.278,1.641-7.472,4.122c-2.461,1.905-2.969,5.665-3.038,7.765v1.241c0,0.088,0,0.166,0.01,0.215
		c0.01,0.117,0,0.117,0,0c-0.01-0.029-0.01-0.068-0.01-0.117v16.723h21.02v-19.624C204.118,294.344,203.395,291.716,201.461,290.222
		z"/>
	<path style="fill:#DFDFDF;" d="M204.382,281.636h-21.02h-2.315v34.412v2.305h2.315h21.02h2.305v-2.305v-32.107v-2.305H204.382z
		 M183.362,316.048L183.362,316.048v-32.107h21.02v32.107H183.362z"/>
	<polygon style="fill:#F3F3F3;" points="205.867,338.143 182.043,338.143 182.043,322.084 205.867,322.084 	"/>
	<path style="fill:#9D9D9D;" d="M201.461,329.547c-3.194-2.471-6.955-2.735-7.463-4.122h-0.127
		c-0.518,1.387-4.278,1.651-7.472,4.122c-2.461,1.914-2.969,5.665-3.038,7.775v1.231c0,0.098,0,0.166,0.01,0.225
		c0.01,0.117,0,0.107,0,0c-0.01-0.039-0.01-0.068-0.01-0.117v16.713h21.02v-19.614C204.118,333.679,203.395,331.041,201.461,329.547
		z"/>
	<path style="fill:#DFDFDF;" d="M204.382,320.971h-21.02h-2.315v34.402v2.305h2.315h21.02h2.305v-2.305v-32.097v-2.305H204.382z
		 M183.362,355.373L183.362,355.373v-32.097h21.02v32.097H183.362z"/>
	<polygon style="fill:#FFFFFF;" points="173.223,361.204 146.273,367.446 146.273,280.083 173.223,273.841 	"/>
	<polygon style="fill:#DFDFDF;" points="173.223,279.34 146.205,285.601 146.205,283.921 173.223,277.66 	"/>
	<polygon style="fill:#F3F3F3;" points="169.374,297 150.61,301.347 150.61,288.395 169.374,284.058 	"/>
	<path style="fill:#DFDFDF;" d="M167.626,283.199l-16.009,3.712l-1.758,0.41v34.402v2.305l1.758-0.4l16.009-3.712l1.748-0.4v-2.305
		v-32.107v-2.305L167.626,283.199z M151.616,321.322L151.616,321.322v-32.107l16.009-3.702v32.097L151.616,321.322z"/>
	<polygon style="fill:#F3F3F3;" points="168.759,339.451 150.61,343.652 150.61,327.593 168.759,323.393 	"/>
	<polygon style="fill:#824F41;" points="162.165,318.88 156.969,320.082 156.969,309.894 162.165,308.693 	"/>
	<polygon style="fill:#723B2F;" points="163.318,308.419 155.816,310.158 155.816,309.034 163.318,307.296 	"/>
	<path style="fill:#9D9D9D;" d="M165.399,331.627c-2.432-1.905-5.294-1.514-5.685-2.803l-0.098,0.02
		c-0.391,1.475-3.253,2.403-5.685,5.441c-1.875,2.344-2.256,6.183-2.315,8.312v1.231c0,0.098,0,0.166,0.01,0.215
		c0,0.117,0,0.107,0,0c-0.01-0.029-0.01-0.068-0.01-0.117v16.723l16.009-3.702v-19.624
		C167.421,335.29,166.874,332.79,165.399,331.627z"/>
	<path style="fill:#DFDFDF;" d="M167.626,322.534l-16.009,3.712l-1.758,0.4v34.412v2.305l1.758-0.4l16.009-3.712l1.748-0.41v-2.305
		v-32.107v-2.305L167.626,322.534z M151.616,360.648L151.616,360.648v-32.097l16.009-3.712v32.107L151.616,360.648z"/>
	<polygon style="fill:#FFFFFF;" points="176.202,255.937 173.223,255.937 173.223,360.941 176.202,360.941 	"/>
	<polygon style="fill:#F9F9F9;" points="176.202,255.937 174.717,255.937 174.717,360.941 176.202,360.941 	"/>
	<polygon style="fill:#F3F3F3;" points="171.484,255.937 177.95,255.937 174.717,252.576 	"/>
	<g>
		<polygon style="fill:#9D9D9D;" points="174.395,250.281 175.039,250.281 174.717,246.921 		"/>
		<path style="fill:#9D9D9D;" d="M175.86,252.42c0,0.625-0.508,1.143-1.143,1.143c-0.625,0-1.143-0.518-1.143-1.143
			c0-0.635,0.518-1.143,1.143-1.143C175.352,251.277,175.86,251.785,175.86,252.42z"/>
		<path style="fill:#9D9D9D;" d="M175.489,250.623c0,0.42-0.342,0.772-0.772,0.772c-0.43,0-0.772-0.352-0.772-0.772
			c0-0.42,0.342-0.772,0.772-0.772C175.147,249.851,175.489,250.203,175.489,250.623z"/>
	</g>
	<polygon style="fill:#F9F9F9;" points="200.993,273.577 187.327,273.577 187.327,255.937 200.993,255.937 	"/>
	<path style="fill:#9D9D9D;" d="M197.945,260.313c-1.631-1.27-3.555-1.397-3.819-2.11h-0.059c-0.264,0.713-2.188,0.84-3.829,2.11
		c-1.25,0.977-1.514,2.891-1.553,3.976v0.625c0,0.049,0,0.088,0.01,0.117c0,0.059,0,0.049,0,0c-0.01-0.02-0.01-0.039-0.01-0.059
		v8.547h10.754v-10.032C199.303,262.422,198.941,261.074,197.945,260.313z"/>
	<polygon style="fill:#DFDFDF;" points="209.735,259.131 200.993,255.937 187.327,255.937 178.214,259.316 178.214,257.626 
		187.327,254.256 200.993,254.256 209.735,257.255 	"/>
	<polygon style="fill:#FFFFFF;" points="364.555,261.123 367.524,261.123 367.524,366.118 364.555,366.118 	"/>
	<g>
		<polygon style="fill:#F3F3F3;" points="364.555,261.123 366.039,261.123 366.039,366.118 364.555,366.118 		"/>
		<polygon style="fill:#F3F3F3;" points="369.282,261.123 362.806,261.123 366.039,257.753 		"/>
	</g>
	<g>
		<path style="fill:#9D9D9D;" d="M319.056,231.917l-0.244-2.598l-0.254,2.598h0.02c-0.254,0.098-0.44,0.342-0.44,0.625
			c0,0.293,0.195,0.547,0.469,0.635v1.387c-0.42,0.098-0.723,0.469-0.723,0.908c0,0.283,0.127,0.537,0.322,0.703
			c-0.557,0.244-0.947,0.791-0.947,1.436c0,0.86,0.694,1.553,1.553,1.553c0.869,0,1.563-0.694,1.563-1.553
			c0-0.645-0.391-1.192-0.947-1.436c0.195-0.166,0.322-0.42,0.322-0.703c0-0.42-0.283-0.772-0.664-0.889v-1.426
			c0.234-0.107,0.4-0.342,0.4-0.615C319.486,232.259,319.31,232.015,319.056,231.917z"/>
		<polygon style="fill:#9D9D9D;" points="366.362,255.458 365.717,255.458 366.039,252.098 		"/>
		<path style="fill:#9D9D9D;" d="M364.906,257.597c0,0.635,0.498,1.143,1.133,1.143c0.625,0,1.143-0.508,1.143-1.143
			s-0.518-1.143-1.143-1.143C365.405,256.454,364.906,256.962,364.906,257.597z"/>
		<path style="fill:#9D9D9D;" d="M365.268,255.8c0,0.43,0.342,0.772,0.772,0.772s0.772-0.342,0.772-0.772
			c0-0.42-0.342-0.772-0.772-0.772S365.268,255.38,365.268,255.8z"/>
	</g>
	<path style="fill:#F3F3F3;" d="M323.667,241.011l-3.311-3.302c0,0-0.606,0.371-1.563,0.371c-1.045,0-1.543-0.371-1.543-0.371
		l-3.8,3.8L323.667,241.011z"/>
	<path style="fill:#FFFFFF;" d="M330.211,261.113c0,0,4.522-3.253,1.954-10.911c-2.461-7.345-8.459-10.246-14.105-10.246
		c-5.636,0-13.665,4.425-14.74,12.825c-0.957,7.453,2.335,8.996,4.171,9.504C309.327,262.794,329.84,265.568,330.211,261.113z"/>
	<path style="fill:#9D9D9D;" d="M379.578,262.754c0-0.361,0.293-0.654,0.654-0.654c0.361,0,0.645,0.293,0.645,0.654
		c0,0.352-0.283,0.645-0.645,0.645C379.871,263.399,379.578,263.106,379.578,262.754z"/>
	<path style="fill:#F9F9F9;" d="M318.675,239.976v23.55c5.656,0.264,11.34-0.088,11.536-2.413c0,0,4.522-3.253,1.954-10.911
		C329.791,243.111,324.135,240.181,318.675,239.976z"/>
	<g>
		<path style="fill:#9D9D9D;" d="M379.841,261.856c0-0.215,0.176-0.381,0.391-0.381c0.215,0,0.381,0.166,0.381,0.381
			c0,0.225-0.166,0.391-0.381,0.391C380.017,262.247,379.841,262.08,379.841,261.856z"/>
		<path style="fill:#9D9D9D;" d="M379.949,260.635c0-0.147,0.127-0.273,0.283-0.273s0.273,0.127,0.273,0.273
			c0,0.156-0.117,0.283-0.273,0.283S379.949,260.791,379.949,260.635z"/>
	</g>
	<g>
		<path style="fill:#F3F3F3;" d="M382.244,264.161l-1.367-1.377c0,0-0.264,0.156-0.654,0.156c-0.44,0-0.645-0.156-0.645-0.156
			l-1.582,1.592L382.244,264.161z"/>
		<path style="fill:#F3F3F3;" d="M376.833,265.685c0,1.094,1.514,1.983,3.389,1.983c1.866,0,3.38-0.889,3.38-1.983
			s-1.514-1.983-3.38-1.983C378.347,263.702,376.833,264.591,376.833,265.685z"/>
	</g>
	<path style="fill:#FFFFFF;" d="M384.911,271.819c0,0,2.002-0.205,0.938-3.399c-1.026-3.048-3.526-4.259-5.87-4.259
		c-2.354,0-5.695,1.846-6.144,5.343c-0.391,3.096,0.342,2.1,1.114,2.315c0.381,0.107,3.419-0.879,5.665-0.791
		C382.869,271.106,384.842,272.747,384.911,271.819z"/>
	<polygon style="fill:#9D9D9D;" points="380.125,261.709 380.33,261.709 380.33,260.615 380.125,260.615 	"/>
	<polygon style="fill:#DFDFDF;" points="324.995,273.577 332.819,276.42 332.819,258.779 324.995,255.937 	"/>
	<path style="fill:#9D9D9D;" d="M326.734,260.947c0.938-0.928,2.041-0.664,2.188-1.319l0.039,0.02
		c0.147,0.762,1.25,1.299,2.188,2.901c0.723,1.241,0.869,3.214,0.889,4.308v0.625c0,0.049,0,0.078,0,0.107
		c-0.01,0.059-0.01,0.059,0,0c0-0.02,0-0.029,0-0.059v8.557l-6.154-2.247v-10.032C325.962,262.774,326.167,261.504,326.734,260.947z
		"/>
	<polygon style="fill:#FFFFFF;" points="311.32,273.577 303.496,276.42 303.496,258.779 311.32,255.937 	"/>
	<path style="fill:#9D9D9D;" d="M309.581,260.947c-0.938-0.928-2.041-0.664-2.188-1.319l-0.039,0.02
		c-0.147,0.762-1.25,1.299-2.188,2.901c-0.723,1.241-0.869,3.214-0.889,4.308v0.625c0,0.049,0,0.078,0,0.107c0,0.059,0,0.059,0,0
		c0-0.02,0-0.029,0-0.059v8.557l6.154-2.247v-10.032C310.353,262.774,310.138,261.504,309.581,260.947z"/>
	<polygon style="fill:#FFFFFF;" points="300.566,360.941 335.974,360.941 335.974,273.577 300.566,273.577 	"/>
	<polygon style="fill:#DFDFDF;" points="300.566,279.077 336.052,279.077 336.052,277.396 300.566,277.396 	"/>
	<polygon style="fill:#F3F3F3;" points="305.625,295.838 330.27,295.838 330.27,282.896 305.625,282.896 	"/>
	<path style="fill:#9D9D9D;" d="M310.851,290.222c3.194-2.481,6.955-2.745,7.463-4.122h0.127c0.518,1.377,4.269,1.641,7.472,4.122
		c2.461,1.905,2.969,5.665,3.038,7.765v1.241c0,0.088,0,0.166-0.01,0.215c-0.01,0.117-0.01,0.117,0,0
		c0.01-0.029,0.01-0.068,0.01-0.117v16.723h-21.02v-19.624C308.185,294.344,308.917,291.716,310.851,290.222z"/>
	<path style="fill:#DFDFDF;" d="M305.625,281.636v2.305v32.107v2.305h2.305h21.02h2.315v-2.305v-34.412h-2.315h-21.02H305.625z
		 M307.931,316.048L307.931,316.048v-32.107h21.02v32.107H307.931z"/>
	<polygon style="fill:#F3F3F3;" points="306.446,338.143 330.27,338.143 330.27,322.084 306.446,322.084 	"/>
	<path style="fill:#9D9D9D;" d="M310.851,329.547c3.194-2.471,6.955-2.735,7.463-4.122h0.127c0.518,1.387,4.269,1.651,7.472,4.122
		c2.461,1.914,2.969,5.665,3.038,7.775v1.231c0,0.098,0,0.166-0.01,0.225c-0.01,0.117-0.01,0.107,0,0
		c0.01-0.039,0.01-0.068,0.01-0.117v16.713h-21.02v-19.614C308.185,333.679,308.917,331.041,310.851,329.547z"/>
	<path style="fill:#DFDFDF;" d="M305.625,320.971v2.305v32.097v2.305h2.305h21.02h2.315v-2.305v-34.402h-2.315h-21.02H305.625z
		 M307.931,355.373L307.931,355.373v-32.097h21.02v32.097H307.931z"/>
	<polygon style="fill:#FFFFFF;" points="339.08,361.204 366.039,367.446 366.039,280.083 339.08,273.841 	"/>
	<polygon style="fill:#DFDFDF;" points="339.08,279.34 366.108,285.601 366.108,283.921 339.08,277.66 	"/>
	<polygon style="fill:#F3F3F3;" points="342.929,297 361.703,301.347 361.703,288.395 342.929,284.058 	"/>
	<path style="fill:#9D9D9D;" d="M346.904,292.302c2.442-1.914,5.304-1.514,5.695-2.803l0.098,0.02
		c0.391,1.475,3.243,2.393,5.685,5.441c1.875,2.344,2.256,6.183,2.315,8.303v1.241c0,0.088,0,0.166,0,0.215
		c-0.01,0.117-0.01,0.107,0,0c0-0.029,0-0.068,0-0.117v16.723l-16.009-3.712v-19.614
		C344.882,295.955,345.439,293.455,346.904,292.302z"/>
	<path style="fill:#DFDFDF;" d="M342.929,282.798v2.305v32.107v2.305l1.758,0.4l16.009,3.712l1.758,0.4v-2.305v-34.402l-1.758-0.41
		l-16.009-3.712L342.929,282.798z M344.687,317.611L344.687,317.611v-32.097l16.009,3.702v32.107L344.687,317.611z"/>
	<polygon style="fill:#F3F3F3;" points="343.554,339.451 361.703,343.652 361.703,327.593 343.554,323.393 	"/>
	<path style="fill:#9D9D9D;" d="M346.904,331.627c2.442-1.905,5.304-1.514,5.695-2.803l0.098,0.02
		c0.391,1.475,3.243,2.403,5.685,5.441c1.875,2.344,2.256,6.183,2.315,8.312v1.231c0,0.098,0,0.166,0,0.215
		c-0.01,0.117-0.01,0.107,0,0c0-0.029,0-0.068,0-0.117v16.723l-16.009-3.702v-19.624C344.882,335.29,345.439,332.79,346.904,331.627
		z"/>
	<path style="fill:#DFDFDF;" d="M342.929,322.123v2.305v32.107v2.305l1.758,0.41l16.009,3.712l1.758,0.4v-2.305v-34.412l-1.758-0.4
		l-16.009-3.712L342.929,322.123z M344.687,356.946L344.687,356.946v-32.107l16.009,3.712v32.097L344.687,356.946z"/>
	<polygon style="fill:#FFFFFF;" points="336.101,255.937 339.08,255.937 339.08,360.941 336.101,360.941 	"/>
	<g>
		<polygon style="fill:#F3F3F3;" points="336.101,255.937 337.596,255.937 337.596,360.941 336.101,360.941 		"/>
		<polygon style="fill:#F3F3F3;" points="340.829,255.937 334.353,255.937 337.596,252.576 		"/>
	</g>
	<g>
		<polygon style="fill:#9D9D9D;" points="337.918,250.281 337.273,250.281 337.596,246.921 		"/>
		<path style="fill:#9D9D9D;" d="M336.453,252.42c0,0.625,0.508,1.143,1.143,1.143c0.625,0,1.143-0.518,1.143-1.143
			c0-0.635-0.518-1.143-1.143-1.143C336.961,251.277,336.453,251.785,336.453,252.42z"/>
		<path style="fill:#9D9D9D;" d="M336.824,250.623c0,0.42,0.342,0.772,0.772,0.772c0.42,0,0.772-0.352,0.772-0.772
			c0-0.42-0.352-0.772-0.772-0.772C337.166,249.851,336.824,250.203,336.824,250.623z"/>
	</g>
	<polygon style="fill:#F9F9F9;" points="311.32,273.577 324.985,273.577 324.985,255.937 311.32,255.937 	"/>
	<path style="fill:#9D9D9D;" d="M314.368,260.313c1.631-1.27,3.555-1.397,3.819-2.11h0.059c0.264,0.713,2.188,0.84,3.829,2.11
		c1.25,0.977,1.514,2.891,1.553,3.976v0.625c0,0.049-0.01,0.088-0.01,0.117c-0.01,0.059,0,0.049,0,0c0-0.02,0.01-0.039,0.01-0.059
		v8.547h-10.754v-10.032C313.01,262.422,313.371,261.074,314.368,260.313z"/>
	<g>
		<path style="fill:#DFDFDF;" d="M383.436,271.819v7.922l3.516,1.28v-7.922L383.436,271.819z M386.601,277.006L386.601,277.006
			c0,0.02,0,0.039,0,0.049c0-0.01,0-0.02,0-0.029v3.839l-2.764-1.006v-4.503c0.029-0.469,0.127-1.035,0.381-1.289
			c0.42-0.41,0.918-0.293,0.987-0.586h0.01c0.068,0.342,0.567,0.586,0.987,1.309c0.322,0.557,0.391,1.446,0.4,1.934V277.006z"/>
		<path style="fill:#DFDFDF;" d="M135.724,271.819v7.922l3.516,1.28v-7.922L135.724,271.819z M138.889,277.006L138.889,277.006
			c0,0.02,0,0.039,0,0.049c0-0.01,0-0.02,0-0.029v3.839l-2.764-1.006v-4.503c0.039-0.469,0.127-1.035,0.381-1.289
			c0.42-0.41,0.918-0.293,0.987-0.586h0.02c0.068,0.342,0.557,0.586,0.987,1.309c0.322,0.557,0.381,1.446,0.391,1.934V277.006z"/>
	</g>
	<path style="fill:#FFFFFF;" d="M373.776,273.099v7.922l3.516-1.28v-7.922L373.776,273.099z M376.891,279.858L376.891,279.858
		l-2.764,1.006v-3.839c0,0.01,0,0.02,0,0.029c0-0.01,0-0.029,0-0.049v-0.283c0.01-0.488,0.078-1.377,0.4-1.934
		c0.42-0.723,0.918-0.967,0.977-1.309h0.02c0.068,0.293,0.557,0.176,0.977,0.586c0.264,0.254,0.352,0.82,0.391,1.289V279.858z"/>
	<path style="fill:#F3F3F3;" d="M377.292,271.819v7.922h6.134v-7.922H377.292z M382.821,275.853L382.821,275.853
		c0,0.02,0,0.039-0.01,0.049c0.01-0.01,0.01-0.02,0.01-0.029v3.849h-4.835v-4.513c0.059-0.479,0.234-1.084,0.674-1.426
		c0.733-0.567,1.592-0.625,1.719-0.947h0.02c0.117,0.322,0.987,0.381,1.719,0.947c0.567,0.44,0.684,1.299,0.703,1.788V275.853z"/>
	<polygon style="fill:#9E6E59;" points="302.578,259.131 311.32,255.937 324.985,255.937 334.089,259.316 334.089,257.626 
		324.985,254.256 311.32,254.256 302.578,257.255 	"/>
	<g>
		<polygon style="fill:#FFFFFF;" points="210.057,381.307 301.992,381.307 301.992,353.859 210.057,353.859 		"/>
		<polygon style="fill:#FFFFFF;" points="301.992,355.373 210.057,355.373 210.057,353.859 301.992,353.859 		"/>
	</g>
	<polygon style="fill:#DFDFDF;" points="301.992,357.678 210.057,357.678 210.057,355.373 301.992,355.373 	"/>
	<g>
		<polygon style="fill:#F3F3F3;" points="298.016,364.389 214.394,364.389 214.394,359.729 298.016,359.729 		"/>
		<polygon style="fill:#F3F3F3;" points="298.016,381.307 214.726,381.307 214.726,367.583 298.016,367.583 		"/>
		<polygon style="fill:#F3F3F3;" points="301.992,385.136 443.625,385.136 443.625,357.678 301.992,357.678 		"/>
		<polygon style="fill:#F3F3F3;" points="443.625,359.202 301.992,359.202 301.992,357.678 443.625,357.678 		"/>
	</g>
	<polygon style="fill:#9D9D9D;" points="443.625,361.507 301.992,361.507 301.992,359.202 443.625,359.202 	"/>
	<g>
		<polygon style="fill:#DFDFDF;" points="438.644,368.218 306.719,368.218 306.719,363.558 438.644,363.558 		"/>
		<polygon style="fill:#DFDFDF;" points="438.644,385.136 306.485,385.136 306.485,371.412 438.644,371.412 		"/>
	</g>
	<polygon style="fill:#F3F3F3;" points="68.433,385.136 210.057,385.136 210.057,357.678 68.433,357.678 	"/>
	<polygon style="fill:#9D9D9D;" points="210.057,361.507 68.433,361.507 68.433,359.202 210.057,359.202 	"/>
	<g>
		<polygon style="fill:#DFDFDF;" points="205.085,368.218 73.151,368.218 73.151,363.558 205.085,363.558 		"/>
		<polygon style="fill:#DFDFDF;" points="205.085,385.136 73.268,385.136 73.268,371.412 205.085,371.412 		"/>
	</g>
	<polygon style="fill:#FFFFFF;" points="388.369,357.678 373.356,357.678 375.055,280.561 385.78,280.561 	"/>
	<g>
		<path style="fill:#DFDFDF;" d="M387.49,310.754c-1.465-1.426-4.454-2.149-6.652-2.149c-2.188,0-5.118,0.586-6.525,1.866
			c-0.234,0.205-0.449,0.43-0.664,0.654v2.686c0.215-0.166,0.43-0.371,0.664-0.596c1.407-1.348,4.337-2.002,6.525-2.002
			c2.198,0,5.187,0.713,6.652,2.149c0.098,0.107,0.205,0.205,0.303,0.293v-2.588C387.695,310.959,387.587,310.861,387.49,310.754z"
			/>
		<path style="fill:#DFDFDF;" d="M388.173,338.816c-1.621-1.621-4.933-2.432-7.365-2.432c-2.422,0-5.685,0.664-7.238,2.1
			c-0.254,0.234-0.508,0.488-0.742,0.742v3.028c0.234-0.195,0.488-0.41,0.742-0.664c1.553-1.534,4.816-2.266,7.238-2.266
			c2.432,0,5.743,0.811,7.365,2.422c0.117,0.117,0.234,0.234,0.342,0.332v-2.921C388.408,339.041,388.291,338.934,388.173,338.816z"
			/>
		<path style="fill:#DFDFDF;" d="M386.659,280.776c-1.367-1.094-4.142-1.641-6.183-1.641s-4.776,0.44-6.085,1.416
			c-0.215,0.156-0.42,0.332-0.615,0.498v2.051c0.195-0.127,0.4-0.273,0.615-0.449c1.309-1.035,4.044-1.534,6.085-1.534
			s4.816,0.547,6.183,1.641c0.098,0.078,0.195,0.156,0.293,0.225v-1.973C386.855,280.932,386.757,280.854,386.659,280.776z"/>
		<path style="fill:#DFDFDF;" d="M388.203,271.672c-1.68-1.094-5.128-1.641-7.658-1.641s-5.919,0.449-7.531,1.426
			c-0.264,0.156-0.527,0.322-0.772,0.498v2.051c0.244-0.127,0.508-0.283,0.772-0.449c1.612-1.045,5.001-1.543,7.531-1.543
			s5.978,0.557,7.658,1.651c0.127,0.078,0.244,0.147,0.352,0.225v-1.973C388.447,271.829,388.33,271.751,388.203,271.672z"/>
	</g>
	<path style="fill:#9D9D9D;" d="M454.155,177.208c0-0.4,0.234-0.723,0.547-0.82v-1.27c-0.195-0.088-0.342-0.313-0.342-0.567
		c0-0.342,0.244-0.606,0.527-0.606c0.293,0,0.527,0.264,0.527,0.606c0,0.254-0.137,0.479-0.332,0.567v1.27
		c0.313,0.098,0.537,0.42,0.537,0.82c0,0.254-0.098,0.488-0.254,0.635c0.44,0.215,0.742,0.713,0.742,1.299
		c0,0.781-0.547,1.407-1.221,1.407s-1.221-0.625-1.221-1.407c0-0.586,0.303-1.084,0.742-1.299
		C454.253,177.696,454.155,177.462,454.155,177.208z"/>
	<g>
		<path style="fill:#F3F3F3;" d="M458.697,182.229l-2.598-2.999c0,0-0.479,0.332-1.221,0.332c-0.82,0-1.211-0.332-1.211-0.332
			l-2.989,3.448L458.697,182.229z"/>
		<path style="fill:#F3F3F3;" d="M463.718,198.023c0,0,3.761-0.449,1.748-7.394c-1.924-6.662-6.623-9.279-11.057-9.279
			c-4.425,0-10.715,4.005-11.565,11.624c-0.742,6.75,0.645,4.581,2.09,5.05c0.713,0.225,6.447-1.914,10.686-1.739
			C459.859,196.47,463.581,200.035,463.718,198.023z"/>
	</g>
	<path style="fill:#DFDFDF;" d="M460.924,198.023v17.25l6.623,2.784v-17.26L460.924,198.023z M466.892,209.315L466.892,209.315
		c0,0.049,0,0.078-0.01,0.107c0.01-0.02,0.01-0.039,0.01-0.059v8.361l-5.216-2.188v-9.817c0.068-1.016,0.244-2.256,0.723-2.803
		c0.791-0.908,1.729-0.645,1.856-1.28l0.029,0.01c0.127,0.742,1.065,1.27,1.856,2.842c0.606,1.211,0.733,3.145,0.752,4.21V209.315z"
		/>
	<path style="fill:#FFFFFF;" d="M442.727,200.797v17.26l6.623-2.784v-17.25L442.727,200.797z M448.597,215.537L448.597,215.537
		l-5.216,2.188v-8.361c0,0.02,0.01,0.039,0.01,0.059c0-0.029-0.01-0.059-0.01-0.107v-0.615c0.02-1.065,0.147-2.999,0.762-4.21
		c0.791-1.573,1.719-2.1,1.846-2.842l0.029-0.01c0.127,0.635,1.065,0.371,1.856,1.28c0.479,0.547,0.654,1.788,0.723,2.803V215.537z"
		/>
	<g>
		<path style="fill:#F3F3F3;" d="M449.349,198.023v17.25h11.565v-17.25H449.349z M459.771,206.804L459.771,206.804
			c-0.01,0.049-0.01,0.078-0.01,0.107c0-0.02,0-0.039,0.01-0.059v8.371h-9.113v-9.817c0.117-1.045,0.43-2.364,1.27-3.106
			c1.387-1.25,3.008-1.377,3.233-2.071h0.049c0.234,0.694,1.856,0.82,3.243,2.071c1.065,0.947,1.28,2.823,1.319,3.888V206.804z"/>
		<polygon style="fill:#F3F3F3;" points="470.233,385.048 441.926,385.048 445.129,217.061 465.359,217.061 		"/>
	</g>
	<polygon style="fill:#FFFFFF;" points="454.702,381.766 454.702,217.061 445.071,217.061 440.187,385.048 468.504,385.048 
		468.445,381.766 	"/>
	<g>
		<path style="fill:#DFDFDF;" d="M468.563,282.837c-2.755-3.126-8.381-4.679-12.513-4.679c-4.132,0-9.67,1.27-12.307,4.054
			c-0.44,0.449-0.86,0.928-1.26,1.426v5.851c0.4-0.371,0.82-0.801,1.26-1.289c2.637-2.95,8.176-4.376,12.307-4.376
			c4.132,0,9.758,1.563,12.513,4.689c0.195,0.225,0.391,0.43,0.586,0.635v-5.636C468.953,283.286,468.758,283.052,468.563,282.837z"
			/>
		<path style="fill:#DFDFDF;" d="M469.862,343.945c-3.057-3.526-9.289-5.284-13.87-5.284c-4.581,0-10.725,1.446-13.665,4.581
			c-0.479,0.508-0.938,1.055-1.377,1.612v6.603c0.44-0.43,0.899-0.908,1.377-1.465c2.94-3.331,9.084-4.933,13.665-4.933
			c4.581,0,10.813,1.758,13.87,5.284c0.225,0.254,0.44,0.498,0.654,0.733v-6.359C470.301,344.453,470.086,344.199,469.862,343.945z"
			/>
	</g>
	<path style="fill:#FFFFFF;" d="M454.174,181.379c-4.347,0.107-8.879,2.755-10.764,9.27c-2.012,6.945,1.748,7.384,1.748,7.384
		c0.137,2.022,3.858-1.543,8.098-1.729c0.303-0.01,0.606-0.01,0.918,0V181.379z"/>
	<g>
		<path style="fill:#DFDFDF;" d="M467.009,217.52c-2.569-2.383-7.814-3.565-11.653-3.565c-3.849,0-9.006,0.967-11.467,3.087
			c-0.4,0.352-0.791,0.723-1.162,1.094v4.464c0.371-0.283,0.762-0.615,1.162-0.987c2.461-2.256,7.619-3.331,11.467-3.331
			c3.839,0,9.084,1.182,11.653,3.575c0.186,0.166,0.361,0.332,0.537,0.488v-4.308C467.371,217.862,467.195,217.686,467.009,217.52z"
			/>
		<path style="fill:#DFDFDF;" d="M469.92,197.701c-3.184-2.383-9.67-3.575-14.437-3.575s-11.155,0.977-14.202,3.096
			c-0.498,0.352-0.977,0.713-1.436,1.094v4.474c0.459-0.293,0.938-0.615,1.436-0.987c3.048-2.256,9.436-3.35,14.202-3.35
			s11.253,1.192,14.437,3.585c0.225,0.176,0.449,0.332,0.674,0.488v-4.308C470.37,198.043,470.145,197.867,469.92,197.701z"/>
	</g>
	<g>
		<path style="fill:#9D9D9D;" d="M133.438,262.764c0-0.352-0.293-0.645-0.654-0.645c-0.352,0-0.645,0.293-0.645,0.645
			c0,0.361,0.293,0.654,0.645,0.654C133.145,263.419,133.438,263.126,133.438,262.764z"/>
		<path style="fill:#9D9D9D;" d="M133.175,261.875c0-0.205-0.176-0.381-0.391-0.381s-0.391,0.176-0.391,0.381
			c0,0.215,0.176,0.391,0.391,0.391S133.175,262.09,133.175,261.875z"/>
		<path style="fill:#9D9D9D;" d="M133.067,260.654c0-0.147-0.127-0.273-0.283-0.273s-0.273,0.127-0.273,0.273
			c0,0.156,0.117,0.283,0.273,0.283S133.067,260.811,133.067,260.654z"/>
	</g>
	<g>
		<path style="fill:#F3F3F3;" d="M130.772,264.181l1.367-1.367c0,0,0.254,0.147,0.654,0.147c0.44,0,0.645-0.147,0.645-0.147
			l1.582,1.573L130.772,264.181z"/>
		<path style="fill:#F3F3F3;" d="M136.173,265.704c0,1.094-1.504,1.983-3.38,1.983c-1.866,0-3.38-0.889-3.38-1.983
			s1.514-1.983,3.38-1.983C134.669,263.721,136.173,264.61,136.173,265.704z"/>
	</g>
	<path style="fill:#FFFFFF;" d="M128.105,271.839c0,0-2.002-0.205-0.938-3.399c1.035-3.057,3.526-4.259,5.87-4.259
		c2.354,0,5.695,1.836,6.134,5.343c0.4,3.096-0.332,2.1-1.104,2.315c-0.381,0.107-3.419-0.879-5.675-0.801
		C130.146,271.125,128.183,272.766,128.105,271.839z"/>
	<polygon style="fill:#9D9D9D;" points="132.891,261.729 132.686,261.729 132.686,260.635 132.891,260.635 	"/>
	<path style="fill:#FFFFFF;" d="M126.064,273.118v7.922l3.516-1.28v-7.922L126.064,273.118z M126.425,276.742L126.425,276.742
		c0-0.498,0.068-1.377,0.391-1.934c0.42-0.723,0.918-0.967,0.987-1.309h0.01c0.068,0.293,0.567,0.166,0.987,0.586
		c0.254,0.254,0.352,0.82,0.391,1.289v4.503l-2.764,1.006v-3.839c0,0.01,0,0.02,0,0.029c0-0.01,0-0.029,0-0.049V276.742z"/>
	<path style="fill:#F3F3F3;" d="M129.59,271.839v7.922h6.134v-7.922H129.59z M130.195,275.589L130.195,275.589
		c0.02-0.488,0.137-1.348,0.703-1.788c0.733-0.576,1.592-0.625,1.719-0.947h0.02c0.127,0.322,0.987,0.371,1.719,0.947
		c0.449,0.342,0.615,0.947,0.674,1.426v4.513h-4.835v-3.849c0,0.01,0,0.02,0,0.029c0-0.01,0-0.029,0-0.049V275.589z"/>
	<polygon style="fill:#FFFFFF;" points="124.647,357.707 139.67,357.707 137.961,280.581 127.236,280.581 	"/>
	<g>
		<path style="fill:#DFDFDF;" d="M125.536,310.773c1.455-1.436,4.444-2.149,6.632-2.149c2.198,0,5.138,0.586,6.535,1.866
			c0.234,0.205,0.449,0.43,0.664,0.654v2.686c-0.215-0.176-0.43-0.361-0.664-0.596c-1.397-1.358-4.337-2.002-6.535-2.002
			c-2.188,0-5.177,0.713-6.632,2.149c-0.107,0.098-0.215,0.195-0.313,0.293v-2.588C125.321,310.978,125.429,310.881,125.536,310.773
			z"/>
		<path style="fill:#DFDFDF;" d="M124.843,338.826c1.621-1.612,4.933-2.422,7.365-2.422c2.422,0,5.685,0.664,7.248,2.1
			c0.254,0.234,0.498,0.488,0.733,0.742v3.028c-0.234-0.195-0.479-0.41-0.733-0.664c-1.563-1.534-4.825-2.266-7.248-2.266
			c-2.432,0-5.743,0.811-7.365,2.432c-0.117,0.117-0.234,0.215-0.342,0.322v-2.921C124.608,339.061,124.725,338.943,124.843,338.826
			z"/>
		<path style="fill:#DFDFDF;" d="M126.357,280.786c1.358-1.094,4.142-1.631,6.183-1.631s4.776,0.44,6.085,1.416
			c0.215,0.156,0.42,0.332,0.615,0.498v2.051c-0.195-0.127-0.4-0.273-0.615-0.449c-1.309-1.035-4.044-1.534-6.085-1.534
			s-4.825,0.547-6.183,1.641c-0.098,0.078-0.195,0.156-0.293,0.225v-1.973C126.161,280.952,126.259,280.864,126.357,280.786z"/>
		<path style="fill:#DFDFDF;" d="M124.813,271.692c1.68-1.094,5.128-1.641,7.658-1.641c2.53,0,5.919,0.449,7.531,1.426
			c0.264,0.156,0.527,0.322,0.772,0.498v2.051c-0.244-0.127-0.508-0.283-0.772-0.449c-1.612-1.035-5.001-1.543-7.531-1.543
			c-2.53,0-5.978,0.547-7.658,1.651c-0.117,0.078-0.234,0.147-0.361,0.225v-1.983C124.579,271.848,124.696,271.77,124.813,271.692z"
			/>
	</g>
	<path style="fill:#9D9D9D;" d="M59.261,172.177c0-0.615-0.449-1.114-1.016-1.114c-0.567,0-1.026,0.498-1.026,1.114
		c0,0.479,0.283,0.879,0.664,1.045v2.784c-0.459,0.137-0.83,0.508-0.977,0.996c-0.625,0.469-1.026,1.25-1.026,2.129
		c0,1.436,1.055,2.588,2.364,2.588s2.364-1.153,2.364-2.588c0-0.879-0.4-1.661-1.026-2.129c-0.147-0.479-0.518-0.86-0.977-0.996
		v-2.784C58.988,173.057,59.261,172.656,59.261,172.177z"/>
	<g>
		<path style="fill:#F3F3F3;" d="M51.516,184.153l4.601-4.327c0,0,0.85,0.479,2.178,0.479c1.455,0,2.149-0.479,2.149-0.479
			l5.294,4.972L51.516,184.153z"/>
		<path style="fill:#F3F3F3;" d="M49.298,198.033c0,0-3.761-0.44-1.748-7.384c1.924-6.662,6.623-9.289,11.057-9.289
			c4.425,0,10.725,4.015,11.565,11.633c0.742,6.75-0.645,4.581-2.09,5.04c-0.713,0.234-6.447-1.905-10.686-1.729
			C53.156,196.49,49.435,200.055,49.298,198.033z"/>
	</g>
	<path style="fill:#FFFFFF;" d="M45.469,200.817v17.26l6.623-2.784v-17.26L45.469,200.817z M46.133,208.709L46.133,208.709
		c0.01-1.055,0.137-2.989,0.742-4.2c0.791-1.573,1.729-2.1,1.856-2.842l0.029-0.01c0.127,0.635,1.065,0.371,1.856,1.28
		c0.479,0.547,0.654,1.788,0.723,2.803v9.817l-5.206,2.198v-8.371c0,0.02,0,0.039,0,0.059c0-0.029,0-0.068,0-0.107V208.709z"/>
	<path style="fill:#DFDFDF;" d="M63.667,198.033v17.26l6.632,2.784v-17.26L63.667,198.033z M64.419,205.74L64.419,205.74
		c0.068-1.016,0.244-2.256,0.723-2.803c0.791-0.908,1.729-0.645,1.856-1.28l0.029,0.01c0.127,0.742,1.055,1.27,1.846,2.842
		c0.615,1.211,0.742,3.145,0.762,4.2v0.625c0,0.039,0,0.078,0,0.107c0-0.02,0-0.039,0-0.059v8.371l-5.216-2.198V205.74z"/>
	<path style="fill:#F3F3F3;" d="M52.102,198.033v17.26h11.565v-17.26H52.102z M53.254,206.209L53.254,206.209
		c0.029-1.065,0.244-2.94,1.319-3.897c1.377-1.241,3.008-1.367,3.233-2.061h0.049c0.225,0.694,1.846,0.82,3.233,2.061
		c0.83,0.752,1.153,2.071,1.27,3.106v9.826h-9.104v-8.371c0,0.02,0,0.039,0,0.059c0-0.029,0-0.068,0-0.107V206.209z"/>
	<g>
		<path style="fill:#DFDFDF;" d="M44.453,282.857c2.755-3.126,8.381-4.679,12.513-4.679s9.67,1.27,12.307,4.044
			c0.44,0.459,0.86,0.938,1.26,1.436v5.851c-0.4-0.371-0.82-0.801-1.26-1.289c-2.637-2.96-8.176-4.376-12.307-4.376
			s-9.758,1.563-12.513,4.679c-0.195,0.234-0.391,0.44-0.586,0.645v-5.636C44.063,283.306,44.258,283.081,44.453,282.857z"/>
		<path style="fill:#DFDFDF;" d="M43.154,343.964c3.057-3.526,9.299-5.284,13.88-5.284s10.715,1.446,13.646,4.571
			c0.479,0.518,0.947,1.065,1.397,1.621v6.603c-0.449-0.42-0.918-0.908-1.397-1.455c-2.93-3.341-9.065-4.943-13.646-4.943
			s-10.823,1.758-13.88,5.284c-0.225,0.254-0.44,0.498-0.654,0.733v-6.369C42.715,344.472,42.93,344.218,43.154,343.964z"/>
		<path style="fill:#DFDFDF;" d="M46.006,217.539c2.569-2.383,7.814-3.575,11.653-3.575c3.849,0,9.006,0.977,11.467,3.096
			c0.4,0.342,0.791,0.713,1.172,1.094v4.464c-0.381-0.283-0.772-0.615-1.172-0.987c-2.461-2.256-7.619-3.341-11.467-3.341
			c-3.839,0-9.084,1.192-11.653,3.575c-0.186,0.176-0.361,0.342-0.537,0.498v-4.308C45.645,217.881,45.821,217.705,46.006,217.539z"
			/>
	</g>
	<path style="fill:#FFFFFF;" d="M58.314,181.379c-4.347,0.107-8.879,2.755-10.764,9.27c-2.012,6.945,1.748,7.384,1.748,7.384
		c0.137,2.022,3.858-1.543,8.098-1.729c0.293-0.01,0.606-0.01,0.918,0V181.379z"/>
	<path style="fill:#DFDFDF;" d="M43.105,197.72c3.165-2.393,9.67-3.575,14.427-3.575c4.767,0,11.145,0.967,14.202,3.096
		c0.498,0.352,0.977,0.713,1.446,1.094v4.474c-0.469-0.293-0.947-0.615-1.446-0.987c-3.057-2.266-9.436-3.35-14.202-3.35
		c-4.757,0-11.262,1.192-14.427,3.585c-0.234,0.176-0.459,0.332-0.674,0.488v-4.308C42.646,198.062,42.871,197.886,43.105,197.72z"
		/>
	<path style="fill:#9D9D9D;" d="M474.804,388.965H37.196c-1.446-2.364-2.833-4.767-4.2-7.179h444.465v2.696
		C476.592,385.985,475.713,387.48,474.804,388.965z"/>
	<polygon style="fill:#FFFFFF;" points="282.7,266.964 229.612,266.964 223.781,266.964 223.781,348.028 229.612,348.028 
		229.612,272.796 282.7,272.796 282.7,348.028 288.532,348.028 288.532,272.796 288.532,266.964 	"/>
	<path style="fill:#9D9D9D;" d="M165.399,292.302c-2.432-1.914-5.294-1.514-5.685-2.803l-0.098,0.02
		c-0.391,1.475-3.253,2.393-5.685,5.441c-1.875,2.344-2.256,6.183-2.315,8.303v1.241c0,0.088,0,0.166,0.01,0.215
		c0,0.117,0,0.107,0,0c-0.01-0.029-0.01-0.068-0.01-0.117v16.723l16.009-3.712v-19.614
		C167.421,295.955,166.874,293.455,165.399,292.302z"/>
</g>
<path style="fill:#F3F3F3;" d="M183.362,283.941v14.046c0.068-2.1,0.576-5.861,3.038-7.765c3.194-2.481,6.955-2.745,7.472-4.122
	h0.127c0.508,1.377,4.269,1.641,7.463,4.122c1.934,1.494,2.657,4.122,2.921,6.203v-12.483H183.362z"/>
<path style="fill:#8BC40F;" d="M426.903,424.656l5.255,1.592l5.372-2.393c1.055-0.195,1.7-0.791,2.383-0.908
	c0.82-0.156,1.397,0.488,2.432,0.567c0.762-0.596,0.342-0.928,1.446-1.231c1.104-0.303,0.996,0.254,1.739,0.674
	c2.481-0.664,1.368-2.54,4.376-2.969c1.035-0.137,0.576-0.332,1.426-0.547c0.869-0.215,1.748-0.107,2.286-0.684l0.117-0.156
	c0.254-0.361,0.41-0.947,0.4-1.895c0.469,0.147,0.313,0.303,0.801,0.41l0.068-0.098c-0.166-1.153-0.332-1.475,0.85-1.934l0.381,0.41
	l0.264-0.322c-0.029-0.86-0.02-1.28,1.133-1.758c0.176-0.078,0.049,0.068,0.342-0.107l0.147-0.186
	c0.225-1.67-1.182-2.383-0.283-3.565l0.84,0.723c0.772-1.231,0.723-1.446,0.244-2.852c-0.508-1.504,0.518-0.225-1.006-2.794
	l0.879-0.361c-0.088-0.889-0.947-0.947-1.436-1.68c0.117-0.508,0.361-0.654,0.43-1.065c0.107-0.625-0.264-0.84-0.43-1.26
	c-0.4-0.186,0.195,0.449,0.117-0.322c-0.098-0.879-1.289-1.201-1.788-1.377c0.068-0.625,0.088-0.078,0.195-0.694
	c-2.335-0.391-0.84-0.029-2.139-1.289c-0.694-0.674-1.709-0.381-2.686-0.606c-0.059-0.801,0.391-0.195,0.674-1.192l-2.188-1.211
	c-0.147-0.342-0.01-0.107-0.4-0.391c-0.498-0.381-0.186,0.039-0.518-0.459l0.996-0.361c0.43-0.186,0.137-0.01,0.381-0.195
	c-0.723-1.407-2.51-0.381-3.936-1.25l-0.205-1.621c-1.788,0.899-1.924,0.576-3.604,0.283l-0.352-1.299
	c-0.02,0.02-1.641,1.407-2.139,0.215c-0.098-0.244-0.107-0.244-0.098-0.518c0.01-0.391,0.205-0.596,0.332-0.928l-2.09,0.234
	l0.059-0.84c-0.469,0.137-0.918,0.498-1.348,0.4c-0.488-0.117-0.137-0.459-1.153-0.488c-1.924-0.049-1.211,0.596-3.116-0.195
	c-0.391-0.156,0.176-0.176-0.508-0.059c-0.547,0.088-0.615,0.391-2.647,0.488c-2.227,0.107-1.446-0.088-1.993-1.397
	c-1.983-0.107-3.37,2.1-4.054,2.178c-0.703,0.078-1.485-1.084-3.243,0.869c-0.547,0.606-0.137,0.518-0.772,0.908
	c-0.869,0.254-1.006-0.518-1.797,0.02c-0.772,0.498,0.147,2.178-2.422,1.866c-0.996-0.117-1.016-0.039-1.494-0.313l-0.42-0.273
	c-1.748,1.475-1.504,2.09-2.706,2.53c-0.43-0.371-0.098-0.322-0.4-0.684c-3.389,3.038-0.508,3.995-3.643,4.073
	c0.225,0.889,0.879,1.719,0.674,2.52c-0.225,0.85-1.123,1.367-1.875,0.527c-0.127,1.26,0.322,3.253-0.576,4.044
	c-0.469-0.273-0.43-0.4-0.664-0.957c-0.186,0.84-0.273,1.338-0.244,2.256c0.029,1.123-0.303,1.319-0.43,2.149
	c-0.703-0.098-0.557-0.264-1.328-0.264c-0.166,0.82,0.029,1.426,0.381,2.159c0.449,0.918,0.293,0.918,0.313,2.032
	c-0.615,0.098-1.367,0.176-1.201,0.85c0.147,0.557,0.86,0.537,1.358,0.703l0.313,2.139l-0.918-0.322
	c0.459,3.311,1.895,3.575,2.139,4.591c-0.713,0.254-0.879,0.01-1.436-0.127c0.42,1.993,1.954,1.768,2.794,3.243l-1.065,0.479
	c0.938,0.928,2.335,0.479,3.048,0.527c0.498,0.039,0.449,0.186,0.947,0.322c-0.127,0.762-0.147,0.899,0.567,1.26
	c1.084,0.537,2.413,0.43,3.634,0.44c1.221,0,0.723,0.332,0.928,1.309c2.715,0.195,1.563-0.791,4.64-0.645l0.137,1.006
	c0.684-0.42,2.178-0.342,3.018-0.694c1.172-0.479,0.977-0.772,2.667-1.045l-0.391,1.768
	C425.027,426.326,426.717,425.887,426.903,424.656z"/>
<path style="fill:#BD360C;" d="M429.237,424.207c0.772,0.742,3.36,6.076,3.761,7.472c0.772,1.631,0.899,4.142,1.094,6.037
	c-0.078,0.957-0.186,1.778-0.332,2.491c3.018-2.911,5.958-5.89,8.82-8.947c-0.156-0.049-0.313-0.049-0.469,0.02
	c-0.303,0.322-0.342,0.459-0.518,0.83c-0.117-0.098-4.19-6.007-1.582-8.537c0.518-1.084,1.68-1.006,3.126-1.231
	c0.889-0.147,2.891-0.703,3.175-1.172c-0.889,0.381-3.595,1.084-4.532,0.82c0.977-0.752,3.008-1.573,4.259-1.954
	c0.459-0.127,1.143-0.244,1.514-0.508c-1.397-0.547-3.682,0.186-5.187,0.596c0.254-1.241,2.569-1.983,3.946-2.461
	c1.592-0.557,3.8,0.488,5.499-0.42c-0.41-0.166-3.614,0.049-4.112,0.049c0.4-0.322,1.162-0.518,1.915-0.918
	c0.391-0.215,1.153-0.332,1.377-0.625c0.068-0.088-0.137-0.313-0.137-0.41c-0.342,0.254-1.914,0.928-2.471,1.123
	c-2.11,0.742-4.308,0.733-6.076,1.924c-1.387,0.928-1.621,2.403-2.422,2.94c-1.172,0.781-1.553,0.83-2.784,1.797l-0.352,0.293
	c-0.107-0.547-0.44-4.054-0.303-4.337c0.078-0.205,2.139-2.354,2.471-2.647c2.159-1.895,2.725-3.487,4.816-4.386
	c0.215-0.176,2.022-1.338,2.1-1.817c-0.576,0.254-2.452,1.514-2.999,1.661c0.186-0.625,0.606-0.82,0.606-1.788
	c-0.596,0.283-0.947,0.987-1.407,1.7c-0.322,0.498-0.645,1.299-1.055,1.485l-1.084-2.755c-0.039,0.791,0.127,1.592,0.215,2.374
	c0.127,1.074,0.264,1.006-0.391,1.621c-0.635,0.586-2.041,2.11-2.842,2.559l0.361-5.538c-1.172,1.055-0.977,2.862-1.446,4.571
	c-0.264-0.449-0.713-2.784-0.938-3.585c-0.498-1.719-0.576-1.719-0.117-3.497c0.107-0.42,0.283-1.221,0.459-1.573
	c0.293-0.576,0.83-0.576,1.348-0.996c0.801-0.664,1.026-1.563,1.631-2.53c3.087-0.547,2.11,0.147,3.897,1.455
	c0.606,0.449,2.842,1.426,3.927,0.977c-0.879-0.42-2.208-0.557-2.999-1.074l-1.534-1.7c4.601-0.508,1.621,0.84,8.254,1.328
	c-0.361-0.645-1.709-0.391-2.667-0.576c-0.772-0.137-1.739-0.615-2.325-0.928c0.137-0.117,0.049-0.078,0.352-0.205
	c0.264-0.107,0.02-0.02,0.254-0.088c0.107-0.029,0.567-0.117,0.694-0.137c0.635-0.117,0.85-0.117,1.221-0.4l-0.137-0.01
	c-0.723,0.068-2.735,0.332-3.194,0.039l-0.254-0.273c-0.332,0.303-0.361,0.498-1.045,0.586l-4.132,0.244
	c-0.078-0.381,0.156-1.7,0.44-2.012c0.342-0.391,1.172-0.488,1.631-0.781c0.303-0.195,0.176-0.039,0.361-0.342
	c-0.049-0.01-0.107-0.02-0.147-0.029c-0.039,0-0.098-0.02-0.147-0.02l-0.801,0.137c-0.42,0.147-0.332,0.186-0.83,0.225
	c0.205-0.322,0.332-0.703,0.596-1.016c0.234-0.283,0.85-0.547,0.918-0.889c0.01-0.068,0.059-0.068,0.088-0.117
	c-2.93,0.85-1.973,2.598-2.911,4.151c-0.694-0.107-1.045-0.703-1.28-1.377c-0.713-2.022,1.954-2.188,0.928-5.87
	c-0.303,0.82-0.176,2.208-0.713,3.057c-0.205,0.332-0.391,0.518-0.791,0.606c-0.674-1.358-0.762-1.895-1.836-2.803
	c-0.713-0.596-1.465-0.938-2.364-1.153c-0.273-0.059-0.4-0.147-0.733-0.01c1.407,0.273,1.68,0.498,2.54,1.299
	c0.635,0.606,1.231,1.328,1.534,2.227c0.811,2.393,0.947,3.35,2.393,5.206c-0.137,0.664-0.752,1.68-1.104,2.09
	c-0.606,0.694-0.586,0.85-1.778,0.899c-0.684-0.186-1.309,3.829-1.534,4.034l-0.195,0.098c-0.088-0.02-0.098,0.088-0.352,0.147
	c0.264,1.123,0.762,2.09,1.133,3.214c-1.563-1.358-4.21-2.432-4.933-2.882c-0.098-0.879,0.195-1.436-0.049-2.54
	c-0.166-0.762-0.596-1.534-0.654-2.335c1.045-0.733,1.475-0.313,2.256-1.641c0.449-0.742,0.576-2.305,0.733-2.53
	c-0.733,0.752-0.293,2.842-3.135,3.292l-0.059-3.057l-0.449,0.82c-0.127,0.42-0.01,0.332-0.254,0.654
	c-0.889-1.074-0.254-3.106-0.283-4.483l-0.449,0.557c-1.28,2.598,0.02,3.712,0.547,4.64c0.293,0.488,0.313,2.002,0.742,2.911
	c0.527,1.104,0.479,1.817,0.332,2.901c-1.241-0.508-1.866-1.973-3.946-1.426c0.195,0.381,2.393,0.987,3.106,1.954
	c-1.543,1.631-4.972,1.25-6.632,0.44c2.374-4.698,1.094-5.314,1.084-8.957c1.455-0.625,2.022-2.823,1.553-3.536
	c-0.381,1.407-0.361,2.549-1.827,3.038c-0.039-0.41-0.107-0.713-0.176-1.143c-0.02-0.147-0.049-0.41-0.098-0.537
	c-0.01-0.049-0.029-0.088-0.039-0.127l-0.205-0.293c-0.469,1.211,0.342,2.823,0.459,4.083c-2.676-0.293-2.081-2.657-2.842-4.269
	c-0.518,0.273-0.508,0.361-0.244,1.768c0.264,1.455,1.201,2.676,2.823,3.048c0.098,0.02,0.234,0.098,0.254,0.068
	c0.02-0.039,0.088,0.02,0.127,0.029c0.225,1.788-0.4,4.913-1.924,6.124c-0.537-0.762-1.192-0.957-1.524-1.494
	c-0.361-1.612-0.889-2.774-1.016-5.206l-0.527,0.918c-0.02,1.494,1.074,3.858,0.4,4.161c-0.459,0.215-2.579,0.244-3.78-0.342
	c-1.348-0.664-1.367-0.899-2.081-2.413c-0.186,0.684,0.195,0.322-0.41,0.645c-0.459-0.303-0.869-1.153-1.241-1.797
	c-0.303-0.557-0.488-1.475-0.879-1.963c-0.332,1.534,0.645,3.077,1.534,4.2c0.879,1.104,2.139,1.592,3.595,2.198
	c-2.344,1.875-4.083,1.651-6.33,1.758c0.84,0.371,1.358,0.469,2.588,0.313c2.989-0.352,2.96-1.27,4.562-1.797
	c0.44-0.147,2.12-0.068,2.842-0.137c0.127,0.117,2.002,2.129,2.022,2.159c-0.352,0.508-1.065,1.114-1.68,1.592
	c-0.518,0.42-1.162,0.996-1.778,1.319c-0.723,0.381-1.778,0.615-2.637,0.488c-0.537-0.068-1.094-0.352-1.553-0.635
	c-0.43-0.264,0.02-0.117-0.586-0.254c0.342,1.26,0.82,1.241,2.022,1.348c4.298,0.42,5.88-2.989,7.082-3.341
	c0.381-0.117,2.315,0.879,6.642-0.029c2.051-0.43,1.27-0.361,2.735,0.488c0.586,0.352,1.602,0.586,2.159,1.25
	c0.899,1.055,2.12,3.458,2.452,4.796c0.615,2.501,0.225,3.233-0.527,5.255c-0.469-0.254-1.211-0.381-1.377-0.996
	c-0.313-1.143-0.42-3.145-0.176-4.308l0.596-1.631c-1.739,0.801-1.914,3.067-1.905,4.591c-0.518-0.147-0.889-0.576-1.231-0.869
	c-0.567-0.469-0.527-0.371-0.537-1.055c-0.01-0.908-0.322-1.67-0.869-2.393l-0.459-0.508c0.137,0.332-0.166,0.449-0.127,0.713
	c0.068,0.498,0.723,0.918,0.645,1.319l-0.088,0.654c-0.567,0.352-1.084-0.352-1.729-0.459l-1.914-0.762
	c0.4,0.518,1.387,1.201,1.836,1.621s1.084,1.338,1.446,1.553c-0.684,0.107-1.162-0.098-1.856-0.156
	c-2.305-0.234-1.426-0.254-3.106-1.309c-0.469-0.283-0.879-0.694-1.416-0.772c-0.586,1.26,0.625,1.201,1.866,2.071
	c-1.25,0.254-3.429,0.459-4.61,0.381c-1.084-1.494-0.928-1.954-3.526-2.393l-5.245-0.557c1.836,1.192,7.404,0.811,7.599,3.175
	c-0.967,0.068-1.68-0.303-2.54-0.342c1.914,1.074,1.778,0.869,4.454,0.596c-0.273,1.035-1.074,1.055-1.651,1.748
	c3.018-0.078,0.381-1.914,6.281-1.924C426.082,422.175,428.387,422.204,429.237,424.207z M426.659,446.81
	c-0.918,0.44-1.651,0.86-1.993,1.768L426.659,446.81z"/>
<path style="fill:#CE3E11;" d="M429.882,422.947c0,0,1.26,1.963,2.276,3.302c1.026,1.328,5.138,6.525,4.327,10.119
	c-0.117,0.527-0.205,1.006-0.273,1.446c1.494-1.485,2.979-2.979,4.435-4.503c-0.625,0.059-1.328-0.508-1.289-1.367
	c0.059-1.211-2.53-5.753-1.553-7.267c0.967-1.504,2.51-2.745,0.586-1.817s-2.764,3.077-2.96,1.534
	c-0.205-1.534,0.606-3.663-0.313-1.993c-0.928,1.661-0.527,4.503-1.778,3.155C432.08,424.217,429.882,422.947,429.882,422.947z"/>
<polygon style="fill:#6C4C40;" points="334.167,445.989 335.232,445.989 332.204,459.449 331.139,459.449 "/>
<polygon style="fill:#8B6E62;" points="337.898,445.989 334.988,445.989 331.96,459.449 334.88,459.449 "/>
<polygon style="fill:#6C4C40;" points="339.315,447.865 338.25,447.865 341.268,461.325 342.333,461.325 "/>
<polygon style="fill:#8B6E62;" points="339.178,447.865 342.089,447.865 345.117,461.325 342.196,461.325 "/>
<polygon style="fill:#6C4C40;" points="401.516,445.989 402.581,445.989 399.553,459.449 398.488,459.449 "/>
<polygon style="fill:#8B6E62;" points="405.257,445.989 402.337,445.989 399.318,459.449 402.229,459.449 "/>
<polygon style="fill:#6C4C40;" points="406.664,447.865 405.599,447.865 408.627,461.325 408.93,461.325 409.575,460.836 "/>
<path style="fill:#8B6E62;" d="M406.527,447.865h2.921l2.501,11.155c-0.83,0.635-1.651,1.27-2.481,1.905L406.527,447.865z"/>
<polygon style="fill:#9F877E;" points="331.217,429.843 418.864,429.843 418.864,433.955 331.217,433.955 "/>
<polygon style="fill:#6C4C40;" points="418.854,448.607 413.443,444.202 323.559,443.01 323.559,445.217 331.217,450.814 
	418.854,450.814 "/>
<g>
	<polygon style="fill:#9F877E;" points="331.217,436.69 418.864,436.69 418.864,440.802 331.217,440.802 	"/>
	<polygon style="fill:#9F877E;" points="331.217,448.607 418.864,448.607 418.864,450.814 331.217,450.814 	"/>
</g>
<polygon style="fill:#8B6E62;" points="352.208,429.999 356.047,429.999 356.047,450.814 352.208,450.814 "/>
<polygon style="fill:#6C4C40;" points="352.208,429.999 351.397,429.843 351.397,450.658 352.208,450.814 "/>
<g>
	<path style="fill:#4E342E;" d="M353.976,439.298c0.273,0,0.498,0.225,0.498,0.508s-0.225,0.508-0.498,0.508
		c-0.283,0-0.518-0.225-0.518-0.508S353.693,439.298,353.976,439.298z"/>
	<path style="fill:#4E342E;" d="M353.976,449.31c0.273,0,0.498,0.225,0.498,0.508c0,0.273-0.225,0.508-0.498,0.508
		c-0.283,0-0.518-0.234-0.518-0.508C353.458,449.535,353.693,449.31,353.976,449.31z"/>
	<path style="fill:#4E342E;" d="M353.976,431.396c0.273,0,0.498,0.225,0.498,0.508c0,0.273-0.225,0.508-0.498,0.508
		c-0.283,0-0.518-0.234-0.518-0.508C353.458,431.621,353.693,431.396,353.976,431.396z"/>
</g>
<polygon style="fill:#8B6E62;" points="396.808,429.999 400.637,429.999 400.637,450.814 396.808,450.814 "/>
<polygon style="fill:#6C4C40;" points="396.808,429.999 395.988,429.843 395.988,450.658 396.808,450.814 "/>
<g>
	<path style="fill:#4E342E;" d="M398.566,439.298c0.283,0,0.508,0.225,0.508,0.508s-0.225,0.508-0.508,0.508
		s-0.508-0.225-0.508-0.508S398.283,439.298,398.566,439.298z"/>
	<path style="fill:#4E342E;" d="M398.566,449.31c0.283,0,0.508,0.225,0.508,0.508c0,0.273-0.225,0.508-0.508,0.508
		s-0.508-0.234-0.508-0.508C398.058,449.535,398.283,449.31,398.566,449.31z"/>
	<path style="fill:#4E342E;" d="M398.566,431.396c0.283,0,0.508,0.225,0.508,0.508c0,0.273-0.225,0.508-0.508,0.508
		s-0.508-0.234-0.508-0.508C398.058,431.621,398.283,431.396,398.566,431.396z"/>
</g>
<path style="fill:#FFFFFF;" d="M370.23,116.159c3.292,0,6.398,0.781,9.152,2.168c2.979-2.921,7.062-4.718,11.565-4.718
	c7.785,0,14.32,5.392,16.068,12.649c3.897,1.172,7.023,4.112,8.449,7.892c0.469-0.059,0.938-0.078,1.426-0.078
	c7.189,0,13.03,5.841,13.03,13.04c0,7.199-5.841,13.04-13.03,13.04c-2.247,0-4.356-0.567-6.203-1.563
	c-1.582,5.421-6.583,9.377-12.522,9.377c-3.624,0-6.896-1.475-9.26-3.868c-2.364,2.393-5.646,3.868-9.27,3.868
	c-3.438,0-6.574-1.338-8.908-3.516c-2.383,2.608-5.812,4.239-9.621,4.239c-3.575,0-6.798-1.426-9.152-3.751
	c-1.074,0.244-2.198,0.361-3.341,0.361c-8.586,0-15.541-6.955-15.541-15.531c0-8.586,6.955-15.541,15.541-15.541
	c0.459,0,0.928,0.029,1.377,0.068C351.095,124.09,359.739,116.159,370.23,116.159z"/>
<path style="fill:#FFFF00;" d="M283.277,64.409c19.037,0,34.48,15.433,34.48,34.48c0,19.037-15.443,34.471-34.48,34.471
	c-19.047,0-34.48-15.433-34.48-34.471C248.796,79.842,264.229,64.409,283.277,64.409z"/>
<path style="fill:#FFFFFF;" d="M214.326,84.208c1.739,0,3.37,0.42,4.825,1.153c1.573-1.543,3.712-2.491,6.085-2.491
	c4.112,0,7.551,2.842,8.469,6.671c2.061,0.615,3.702,2.159,4.454,4.151c0.244-0.029,0.498-0.039,0.752-0.039
	c3.79,0,6.867,3.077,6.867,6.877c0,3.79-3.077,6.867-6.867,6.867c-1.182,0-2.295-0.293-3.262-0.82
	c-0.84,2.852-3.477,4.933-6.603,4.933c-1.905,0-3.634-0.772-4.884-2.032c-1.241,1.26-2.969,2.032-4.874,2.032
	c-1.817,0-3.468-0.703-4.698-1.846c-1.26,1.367-3.067,2.237-5.07,2.237c-1.885,0-3.585-0.752-4.825-1.983
	c-0.567,0.127-1.162,0.195-1.758,0.195c-4.523,0-8.195-3.663-8.195-8.185c0-4.522,3.673-8.185,8.195-8.185
	c0.244,0,0.488,0.01,0.733,0.029C204.245,88.399,208.797,84.208,214.326,84.208z"/>
<g>
	<path d="M65.132,159.538c0,0,5.773-1.241,10.598-0.313c4.835,0.928,9.885,4.943,15.335,5.245c5.45,0.313,4.327-1.748,4.327-1.748
		s-3.497,0.518-4.425-2.471c-0.928-2.979,2.872-5.353,8.742-9.465c5.861-4.112,6.994-8.234,5.861-10.803c0,0-1.026,1.641-5.861,4.22
		c-4.835,2.569-8.332,7.306-12.141,10.696c-3.809,3.399-4.015,3.604-7.619,2.882C76.355,157.067,68.638,155.934,65.132,159.538z"/>
	<path d="M339.969,201.54c0,0,5.773-1.241,10.598-0.313c4.845,0.928,9.885,4.943,15.345,5.245c5.45,0.313,4.317-1.748,4.317-1.748
		s-3.497,0.518-4.425-2.471c-0.928-2.979,2.882-5.353,8.742-9.465c5.87-4.112,7.004-8.234,5.87-10.803c0,0-1.035,1.641-5.87,4.22
		c-4.835,2.569-8.332,7.306-12.141,10.696c-3.8,3.399-4.015,3.604-7.609,2.882C351.192,199.058,343.476,197.935,339.969,201.54z"/>
</g>
<polygon style="fill:#6C4C40;" points="102.093,447.376 103.158,447.376 100.472,459.332 99.554,458.638 "/>
<path style="fill:#8B6E62;" d="M105.834,447.376h-2.921l-2.647,11.8c0.713,0.557,1.426,1.114,2.159,1.661h0.381L105.834,447.376z"/>
<polygon style="fill:#6C4C40;" points="107.241,449.252 106.176,449.252 109.195,462.712 110.269,462.712 "/>
<polygon style="fill:#8B6E62;" points="107.104,449.252 110.015,449.252 113.043,462.712 110.132,462.712 "/>
<polygon style="fill:#6C4C40;" points="169.442,447.376 170.507,447.376 167.479,460.836 166.414,460.836 "/>
<polygon style="fill:#8B6E62;" points="173.184,447.376 170.263,447.376 167.245,460.836 170.155,460.836 "/>
<polygon style="fill:#6C4C40;" points="174.59,449.252 173.525,449.252 176.553,462.712 177.618,462.712 "/>
<polygon style="fill:#8B6E62;" points="174.453,449.252 177.374,449.252 180.392,462.712 177.481,462.712 "/>
<polygon style="fill:#9F877E;" points="99.143,431.23 186.79,431.23 186.79,435.342 99.143,435.342 "/>
<polygon style="fill:#6C4C40;" points="186.79,449.984 181.379,445.579 91.485,444.387 91.485,446.595 99.143,452.192 
	186.79,452.192 "/>
<g>
	<polygon style="fill:#9F877E;" points="99.143,438.077 186.79,438.077 186.79,442.18 99.143,442.18 	"/>
	<polygon style="fill:#9F877E;" points="99.143,449.984 186.79,449.984 186.79,452.192 99.143,452.192 	"/>
</g>
<polygon style="fill:#8B6E62;" points="120.144,431.376 123.973,431.376 123.973,452.192 120.144,452.192 "/>
<polygon style="fill:#6C4C40;" points="120.144,431.376 119.324,431.23 119.324,452.045 120.144,452.192 "/>
<g>
	<path style="fill:#4E342E;" d="M121.902,440.685c0.273,0,0.498,0.225,0.498,0.498c0,0.283-0.225,0.508-0.498,0.508
		c-0.283,0-0.508-0.225-0.508-0.508C121.395,440.91,121.619,440.685,121.902,440.685z"/>
	<path style="fill:#4E342E;" d="M121.902,450.697c0.273,0,0.498,0.225,0.498,0.498c0,0.283-0.225,0.518-0.498,0.518
		c-0.283,0-0.508-0.234-0.508-0.518C121.395,450.922,121.619,450.697,121.902,450.697z"/>
	<path style="fill:#4E342E;" d="M121.902,432.773c0.273,0,0.498,0.234,0.498,0.508c0,0.283-0.225,0.508-0.498,0.508
		c-0.283,0-0.508-0.225-0.508-0.508C121.395,433.008,121.619,432.773,121.902,432.773z"/>
</g>
<polygon style="fill:#8B6E62;" points="164.734,431.376 168.563,431.376 168.563,452.192 164.734,452.192 "/>
<polygon style="fill:#6C4C40;" points="164.734,431.376 163.924,431.23 163.924,452.045 164.734,452.192 "/>
<g>
	<path style="fill:#4E342E;" d="M166.493,440.685c0.283,0,0.508,0.225,0.508,0.498c0,0.283-0.225,0.508-0.508,0.508
		c-0.273,0-0.508-0.225-0.508-0.508C165.985,440.91,166.219,440.685,166.493,440.685z"/>
	<path style="fill:#4E342E;" d="M166.493,450.697c0.283,0,0.508,0.225,0.508,0.498c0,0.283-0.225,0.518-0.508,0.518
		c-0.273,0-0.508-0.234-0.508-0.518C165.985,450.922,166.219,450.697,166.493,450.697z"/>
	<path style="fill:#4E342E;" d="M166.493,432.773c0.283,0,0.508,0.234,0.508,0.508c0,0.283-0.225,0.508-0.508,0.508
		c-0.273,0-0.508-0.225-0.508-0.508C165.985,433.008,166.219,432.773,166.493,432.773z"/>
</g>
<g>
	<g>
		<path style="fill:#C5FF00;" d="M101.683,460.26c3.321-1.055,6.339-0.762,8.137,0.762c-2.12-0.303-4.181,0.01-6.124,0.752
			L101.683,460.26z"/>
		<path style="fill:#C5FF00;" d="M130.293,479.043c-0.078-2.618-0.83-5.079-2.588-7.111c2.833,0.84,4.913,4.093,5.148,8.547
			L130.293,479.043z"/>
	</g>
	<path style="fill:#8B6E62;" d="M136.554,482.462c8.557-8.361,16.556-14.017,16.596-14.046l1.104,1.25
		c-0.039,0.039-7.795,5.519-16.146,13.616L136.554,482.462z M97.756,457.251l-1.338-1.074c4.337-6.408,8.303-10.032,8.342-10.051
		l1.26,1.114C105.991,447.259,102.044,450.873,97.756,457.251z"/>
</g>
<g>
	<path style="fill:#FFFFFF;" d="M126.239,476.699c-1.983-1.162-3.946-2.354-5.88-3.565c1.065-1.592,2.618-2.344,4.864-0.996
		C127.48,473.486,127.363,475.126,126.239,476.699z"/>
	<path style="fill:#FFFFFF;" d="M151.011,464.587c0,0-0.039-12.005-5.245-12.669C140.539,451.254,140.032,455.601,151.011,464.587z
		 M156.275,467.058c0,0,0.733-14.974,7.033-9.787C169.618,462.458,156.275,467.058,156.275,467.058z M158.249,471.678
		c2.403,3.038,15.316,8.371,14.095,2.315C171.113,467.918,158.249,471.678,158.249,471.678z M154.869,473.857
		c0,0-4.034,11.751,2.755,12.415C164.422,486.946,154.869,473.857,154.869,473.857z M150.229,470.965c0,0-16.244-1.104-11.184,6.124
		C144.095,484.338,150.229,470.965,150.229,470.965z M148.969,467.84c0,0-11.321-12.2-14.818-6.974
		C130.664,466.081,148.969,467.84,148.969,467.84z"/>
</g>
<path style="fill:#FFE900;" d="M155.054,464.235c2.833,1.338,4.522,4.571,3.78,7.218c-0.752,2.667-3.653,3.731-6.486,2.393
	c-2.823-1.338-4.523-4.562-3.77-7.218C149.33,463.981,152.222,462.917,155.054,464.235z"/>
<path style="fill:#FF3C00;" d="M154.234,467.136c1.143,0.527,1.807,1.807,1.514,2.872c-0.293,1.045-1.455,1.485-2.588,0.938
	c-1.123-0.518-1.788-1.807-1.494-2.862C151.968,467.029,153.111,466.609,154.234,467.136z"/>
<path style="fill:#FFFFFF;" d="M103.09,442.873c0,0-0.029-10.227-4.483-10.803C94.162,431.513,93.732,435.225,103.09,442.873z
	 M95.402,455.356c-0.938-0.762-1.885-1.524-2.823-2.295c-3.262-5.626,9.836-4.747,9.836-4.747S98.987,455.786,95.402,455.356z
	 M107.583,444.993c0,0,0.615-12.767,5.988-8.351C118.953,441.076,107.583,444.993,107.583,444.993z M109.253,448.919
	c2.051,2.589,13.05,7.14,12.014,1.973C120.222,445.716,109.253,448.919,109.253,448.919z M106.362,450.785
	c0,0-3.429,10.002,2.364,10.569C114.518,461.93,106.362,450.785,106.362,450.785z M101.341,445.647c0,0-9.641-10.383-12.62-5.939
	C85.752,444.153,101.341,445.647,101.341,445.647z"/>
<path style="fill:#FFE900;" d="M106.538,442.59c2.413,1.133,3.849,3.878,3.214,6.144c-0.635,2.256-3.106,3.175-5.519,2.032
	c-2.413-1.123-3.849-3.878-3.214-6.144C101.654,442.365,104.135,441.457,106.538,442.59z"/>
<path style="fill:#FF3C00;" d="M105.844,445.051c0.957,0.459,1.534,1.543,1.28,2.442c-0.254,0.899-1.241,1.27-2.198,0.811
	c-0.957-0.449-1.534-1.543-1.289-2.442C103.9,444.954,104.877,444.602,105.844,445.051z"/>
<path d="M194.985,79.686c0,0,5.773-1.241,10.598-0.313c4.835,0.928,9.885,4.943,15.335,5.255c5.45,0.303,4.317-1.758,4.317-1.758
	s-3.497,0.518-4.425-2.461c-0.918-2.989,2.882-5.353,8.752-9.465c5.861-4.122,6.994-8.234,5.861-10.813c0,0-1.026,1.651-5.861,4.22
	c-4.845,2.579-8.332,7.306-12.141,10.706c-3.809,3.389-4.015,3.604-7.619,2.872C206.199,77.215,198.482,76.082,194.985,79.686z"/>
<g>
</g>
<g>
</g>
<g>
</g>
<g>
</g>
<g>
</g>
<g>
</g>
<g>
</g>
<g>
</g>
<g>
</g>
<g>
</g>
<g>
</g>
<g>
</g>
<g>
</g>
<g>
</g>
<g>
</g>
</svg>
