<?xml version="1.0" encoding="iso-8859-1"?>
<!-- Generator: Adobe Illustrator 19.0.0, SVG Export Plug-In . SVG Version: 6.00 Build 0)  -->
<svg version="1.1" id="Layer_1" xmlns="http://www.w3.org/2000/svg" xmlns:xlink="http://www.w3.org/1999/xlink" x="0px" y="0px"
	 viewBox="0 0 512 512" style="enable-background:new 0 0 512 512;" xml:space="preserve">
<g>
	<path style="fill:#DFDFDF;" d="M256,0c141.388,0,256,114.612,256,256S397.388,512,256,512S0,397.388,0,256S114.612,0,256,0z"/>
	<path style="fill:#9BCB64;" d="M511.65,269.492c-16.809,0.587-31.511-1.542-50.926-3.698c-17.304-1.924-34.836,6.523-52.136,4.535
		c-14.398-1.656-28.19-9.316-42.574-7.538c-11.35,1.401-21.48,8.589-32.894,9.389c-13.993,0.983-27.053-7.761-41.082-8.079
		c-17.3-0.391-32.63,11.973-49.889,13.238c-14.188,1.037-28.136-5.55-42.324-4.399c-11.345,0.914-21.731,6.696-32.903,8.875
		c-18.728,3.662-37.834-2.989-56.904-3.544c-16.922-0.496-41.601,9.84-58.505,10.722c-18.419,0.969-34.068-5.145-49.921-4.44
		C15.794,412.5,124.27,512,256,512C392.857,512,504.631,404.607,511.65,269.492z"/>
	<path style="fill:#ADD37F;" d="M489.696,360.645c-41.469-8.602-83.056-23.482-124.961-20.293
		c-31.829,2.425-62.121,15.212-93.896,18.292c-67.071,6.496-133.9-30.597-200.179-18.419c-16.799,3.089-33.913,9.303-50.931,14.475
		C58.368,447.086,149.599,512,256,512C360.109,512,449.688,449.856,489.696,360.645z"/>
	<path style="fill:#9BCB64;" d="M414.733,440.467c0,0-74.131,0.805-176.925-31.807c-47.069-14.934-95.111-28.954-144.449-26.589
		c-18.81,0.901-37.538,3.43-56.117,6.965C82.178,462.771,163.337,512,256,512c59.96,0,115.104-20.621,158.733-55.152V440.467z"/>
	<path style="fill:#ADD37F;" d="M414.82,456.78c-50.012-6.478-100.119-14.584-148.903-20.757
		c-36.506-4.622-73.621-7.806-109.995-2.224c-22.299,3.421-43.889,10.076-65.16,17.718C135.356,489.241,193.014,512,256,512
		C316.001,512,371.176,491.352,414.82,456.78z"/>
</g>
<path style="fill:#AEAEAE;" d="M287.465,449.706c2.638,5.686-17.878,4.881-12.901-0.027c-2.197-0.532-8.175-2.952-3.234-5.682
	c-2.957-0.76-4.817-1.856-4.817-3.08c0-0.837,0.869-1.615,2.356-2.265c-2.716-0.751-4.403-1.806-4.403-2.97
	c0-0.419,0.214-0.819,0.619-1.196c-1.392-0.623-2.193-1.351-2.193-2.133c0-0.628,0.514-1.219,1.428-1.751
	c-1.515-0.641-2.397-1.406-2.397-2.224c0-0.723,0.687-1.401,1.888-1.992c-1.155-0.582-1.815-1.246-1.815-1.956
	c0-1.115,1.624-2.12,4.267-2.866c-0.396-0.382-0.605-0.787-0.605-1.201c0-1.128,1.551-2.161,4.112-2.948
	c-1.224-0.623-1.92-1.333-1.92-2.088c0-1.051,1.342-2.015,3.589-2.779c-1.961-0.755-3.116-1.679-3.116-2.679
	c0-1.014,1.192-1.952,3.225-2.72c-1.083-0.614-1.688-1.296-1.688-2.02c0-0.582,0.391-1.137,1.115-1.656
	c-3.398-0.896-5.509-2.143-5.509-3.525c0-0.541,0.323-1.055,0.91-1.538c-2.047-0.796-3.248-1.765-3.248-2.807
	c0-0.214,0.05-0.423,0.146-0.628c-2.488-0.937-3.953-2.083-3.953-3.325c0-0.91,0.805-1.779,2.229-2.547
	c-4.886-1.237-7.933-2.998-7.933-4.954c0-0.869,0.605-1.697,1.706-2.461c-7.356-1.528-12.096-3.926-12.096-6.623
	c0-0.987,0.632-1.929,1.797-2.807c-1.442-0.964-2.234-2.015-2.234-3.116c0-1.647,1.765-3.18,4.813-4.476
	c-0.405-0.569-0.614-1.16-0.614-1.76c0-1.865,2.011-3.603,5.482-5.068c-0.428-0.596-0.655-1.215-0.655-1.847
	c0-1.997,2.243-3.853,6.087-5.395c-3.134-1.565-4.917-3.362-4.917-5.268c0-1.428,1.001-2.793,2.816-4.044
	c-3.744-1.779-5.891-3.83-5.891-6.023c0-1.815,1.465-3.535,4.09-5.081c-4.799-1.938-7.597-4.262-7.597-6.773
	c0-0.992,0.441-1.961,1.274-2.884c-9.612-2.443-15.612-5.909-15.612-9.753c0-0.682,0.191-1.351,0.55-2.006
	c-6.432-2.443-10.208-5.427-10.208-8.657c0-0.732,0.196-1.447,0.569-2.152c-7.005-2.761-11.109-6.096-11.109-9.698
	c0-1.119,0.405-2.211,1.165-3.275c-6.678-2.957-10.526-6.432-10.526-10.153c0-0.969,0.264-1.92,0.764-2.848
	c-5.468-2.87-8.557-6.123-8.557-9.571c0-1.983,1.019-3.903,2.934-5.723c-3.503-2.384-5.427-4.986-5.427-7.701
	c0-3.976,4.108-7.692,11.236-10.858c-1.788-1.76-2.743-3.616-2.743-5.536c0-2.12,1.169-4.171,3.348-6.1
	c-2.202-2.002-3.389-4.112-3.389-6.305c0-2.629,1.706-5.149,4.826-7.488c-2.325-1.542-4.021-3.175-5.004-4.863
	c-12.396-4.199-19.806-9.512-19.806-15.298c0-0.446,0.045-0.887,0.136-1.328c-7.183-3.603-11.263-7.724-11.263-12.096
	c0-1.128,0.273-2.229,0.792-3.316c-11.959-4.508-19.133-10.008-19.502-15.949c-8.234-4.285-12.892-9.153-12.892-14.307
	c0-0.869,0.136-1.724,0.396-2.575c-13.925-5.582-22.054-12.305-22.054-19.543c0-2.438,0.928-4.822,2.684-7.124
	c-3.726-2.429-5.736-4.999-5.736-7.67c0-14.671,60.534-26.562,135.206-26.562s135.206,11.891,135.206,26.562
	c0,3.375-3.207,6.596-9.043,9.562c0.946,1.706,1.437,3.453,1.437,5.231c0,5.09-4.03,9.935-11.277,14.302
	c2.397,2.497,3.671,5.113,3.671,7.815c0,4.149-3.021,8.106-8.484,11.727c0.186,0.687,0.287,1.387,0.287,2.097
	c0,3.721-2.67,7.274-7.515,10.526c4.094,2.861,6.346,5.968,6.346,9.221c0,1.738-0.651,3.444-1.879,5.086
	c3.489,2.602,5.386,5.409,5.386,8.338c0,2.006-0.896,3.958-2.579,5.823c2.011,1.915,3.084,3.935,3.084,6.023
	c0,2.634-1.706,5.154-4.827,7.492c3.862,2.566,6,5.368,6,8.311c0,3.635-3.262,7.069-9.03,10.09c0.314,0.76,0.478,1.533,0.478,2.315
	c0,3.976-4.108,7.692-11.241,10.858c1.792,1.76,2.752,3.616,2.752,5.536c0,1.983-1.024,3.903-2.934,5.723
	c3.498,2.384,5.422,4.986,5.422,7.701c0,2.57-1.72,5.027-4.854,7.301c1.633,1.633,2.511,3.348,2.511,5.118
	c0,3.557-3.516,6.887-9.653,9.762c0.951,1.183,1.46,2.411,1.46,3.667c0,2.948-2.743,5.714-7.574,8.134
	c1.124,1.192,1.72,2.434,1.72,3.717c0,2.197-1.756,4.29-4.913,6.173c1.851,1.401,2.866,2.911,2.866,4.49
	c0,1.838-1.374,3.589-3.853,5.186c5.9,2.061,9.416,4.649,9.416,7.451c0,1.815-1.465,3.535-4.09,5.077
	c4.799,1.938,7.601,4.267,7.601,6.778c0,2.429-2.638,4.695-7.178,6.596c1.333,1.092,2.056,2.261,2.056,3.471
	c0,3.193-4.995,6.068-12.987,8.097c0.832,0.814,1.278,1.679,1.278,2.566c0,2.174-2.648,4.176-7.124,5.795
	c0.164,0.364,0.25,0.741,0.25,1.119c0,2.857-4.726,5.413-12.178,7.137c-0.264,0.664-0.814,1.301-1.615,1.901
	c1.438,0.964,2.234,2.02,2.234,3.121c0,1.87-2.279,3.594-6.114,4.986c3.189,1.142,5.086,2.557,5.086,4.099
	c0,1.669-2.229,3.198-5.927,4.385c2.179,0.896,3.444,1.97,3.444,3.116c0,0.978-0.905,1.892-2.502,2.698
	c0.391,0.4,0.6,0.823,0.6,1.256c0,0.537-0.323,1.055-0.91,1.538c2.047,0.796,3.248,1.765,3.248,2.807
	c0,0.751-0.619,1.465-1.729,2.102c2.67,0.819,4.294,1.897,4.294,3.08c0,1.014-1.196,1.956-3.23,2.72
	c1.083,0.614,1.688,1.296,1.688,2.02c0,1.21-1.701,2.315-4.499,3.148c1.51,0.678,2.384,1.465,2.384,2.311
	c0,1.128-1.56,2.161-4.121,2.943c1.224,0.628,1.924,1.337,1.924,2.093c0,1.401-2.406,2.652-6.155,3.471
	c0.1,0.196,0.155,0.391,0.155,0.596c0,0.723-0.682,1.401-1.888,1.992c1.16,0.582,1.82,1.251,1.82,1.956
	c0,0.623-0.519,1.219-1.433,1.751c1.515,0.641,2.397,1.406,2.397,2.224c0,0.587-0.455,1.146-1.274,1.651
	c0.796,0.514,1.237,1.083,1.237,1.679c0,0.837-0.869,1.615-2.356,2.265c2.716,0.751,4.403,1.801,4.403,2.97
	c0,1.224-1.856,2.32-4.817,3.08C295.822,446.758,289.635,449.192,287.465,449.706z"/>
<path style="fill:#747474;" d="M388.781,100.096c0,17.223-62.59,31.183-139.805,31.183c-77.21,0-139.805-13.961-139.805-31.183
	c0-9.071,17.35-17.227,45.053-22.932c-16.772,5.809-30.779,12.351-27.703,15.007c0,0,1.319-1.201,8.884-5.2
	C179.158,63.818,388.781,60.843,388.781,100.096z"/>
<path style="fill:#AEAEAE;" d="M248.976,74.19c68.485,0,124.001,9.571,124.001,21.376c0,11.8-55.516,21.371-124.001,21.371
	s-124.001-9.571-124.001-21.371C124.975,83.761,180.491,74.19,248.976,74.19z"/>
<path style="fill:#747474;" d="M356.383,106.251c-21.444,6.387-61.507,10.686-107.407,10.686c-45.895,0-85.967-4.299-107.407-10.686
	c21.439-6.387,61.512-10.686,107.407-10.686C294.876,95.566,334.939,99.864,356.383,106.251z"/>
<g>
	<path style="fill:#DFDFDF;" d="M365.745,100.501c-3.457,1.838-127.595-35.35-224.175-2.643
		c21.439-11.404,61.512-19.079,107.407-19.079C294.876,78.78,366.245,88.601,365.745,100.501z"/>
	<path style="fill:#DFDFDF;" d="M374.615,108.521c18.542-7.092-123.128,36.66-246.079,0c24.56,11.4,70.46,19.074,123.037,19.074
		S350.055,119.921,374.615,108.521z"/>
</g>
<g>
	<path style="fill:#747474;" d="M372.063,128.942c18.51-9.385-122.919,48.529-245.651,0c24.519,15.098,70.337,25.256,122.823,25.256
		C301.718,154.198,347.544,144.04,372.063,128.942z M224.08,312.38c0,0,2.384,6.592,11.996,9.953c9.608,3.366,9.83,3.257,9.83,3.257
		S222.201,326.505,224.08,312.38z M299.302,387.576c-20.566,6.955-37.02,0.682-37.065,0.664
		C267.968,392.552,288.653,393.589,299.302,387.576z M299.075,390.15c-21.016,6.946-37.839,0.678-37.889,0.66
		C267.05,395.122,288.189,396.159,299.075,390.15z M298.31,393.143c-18.783,6.955-33.817,0.687-33.863,0.669
		C269.683,398.12,288.585,399.162,298.31,393.143z M297.942,396.228c-17.687,6.951-31.848,0.687-31.884,0.669
		C270.989,401.204,288.78,402.242,297.942,396.228z M300.344,399.389c-17.687,6.955-31.843,0.682-31.884,0.664
		C273.391,404.366,291.187,405.408,300.344,399.389z M300.708,403.702c-15.944,5.632-28.709,0.55-28.745,0.537
		C276.411,407.732,292.451,408.574,300.708,403.702z M301.163,405.717c-15.949,5.632-28.713,0.55-28.75,0.541
		C276.862,409.747,292.906,410.589,301.163,405.717z M271.962,408.069c15.944,5.632,28.713,0.55,28.745,0.537
		C296.259,412.099,280.219,412.941,271.962,408.069z M269.624,410.316c17.223,5.632,31.015,0.555,31.052,0.541
		C295.872,414.346,278.545,415.188,269.624,410.316z M271.612,413.605c15.157,5.636,27.29,0.555,27.326,0.541
		C294.708,417.635,279.459,418.477,271.612,413.605z M269.47,415.848c16.131,5.632,29.045,0.555,29.082,0.541
		C294.052,419.878,277.826,420.72,269.47,415.848z M268.41,419.182c15.658,5.627,28.186,0.55,28.222,0.537
		C292.265,423.208,276.521,424.049,268.41,419.182z M264.302,426.401c14.53,5.418,26.161,0.168,26.193,0.155
		C286.447,430.104,271.826,431.164,264.302,426.401z M267.113,421.734c15.23,5.418,27.421,0.168,27.458,0.15
		C290.322,425.432,274.997,426.497,267.113,421.734z M264.184,423.745c14.834,5.418,26.707,0.168,26.744,0.155
		C286.788,427.448,271.867,428.503,264.184,423.745z M263.024,428.43c15.644,5.418,28.167,0.168,28.199,0.155
		C286.86,432.133,271.125,433.193,263.024,428.43z M265.093,431.664c14.857,5.022,26.753-0.55,26.785-0.569
		C287.734,434.762,272.79,436.223,265.093,431.664z M271.303,443.501c10.463,5.018,18.837-0.55,18.86-0.569
		C287.252,446.594,276.721,448.059,271.303,443.501z M266.072,434.162c14.193,5.013,25.552-0.555,25.584-0.569
		C287.697,437.255,273.423,438.711,266.072,434.162z M266.731,436.514c13.697,5.018,24.66-0.55,24.692-0.569
		C287.602,439.612,273.823,441.067,266.731,436.514z M269.574,439.43c11.7,5.022,21.071-0.55,21.098-0.564
		C287.411,442.528,275.634,443.983,269.574,439.43z M268.196,441.299c13.583,5.018,24.46-0.555,24.487-0.569
		C288.894,444.393,275.233,445.853,268.196,441.299z M271.303,445.525c10.463,5.022,18.837-0.55,18.86-0.569
		C287.252,448.623,276.721,450.083,271.303,445.525z M271.558,447.113c10.463,5.018,18.842-0.555,18.865-0.569
		C287.506,450.206,276.975,451.666,271.558,447.113z M274.273,450.698c7.092,3.562,12.765-0.391,12.783-0.4
		C285.077,452.895,277.949,453.927,274.273,450.698z M256.177,382.021c13.274,7.219,32.398,4.699,46.2,0.605
		C286.465,390.4,260.035,388.544,256.177,382.021z M246.347,371.131c8.639,12.059,43.429,10.708,52.282,7.529
		C286.205,387.134,247.148,380.652,246.347,371.131z M246.879,367.387c1.01,0.105,31.22,16.34,54.511,4.554
		C299.789,377.358,271.139,383.9,246.879,367.387z M250.673,364.812c0,0,22.677,8.02,39.945,4.053
		c17.268-3.962,23.341-7.401,23.341-7.401s-18.296,11.768-37.024,10.217C258.211,370.135,251.706,365.103,250.673,364.812z
		 M252.452,360.718c0,0,18.11,4.658,36.206,2.425c15.926-1.97,32.812-14.693,34.864-14.834
		C305.157,364.926,276.22,371.622,252.452,360.718z M254.931,354.6c-5.636-4.085,29.291,10.572,78.73-21.285
		C310.552,354.104,279.386,362.401,254.931,354.6z M330.267,321.483c0.45-0.992,0.56-2.538,0.041-1.879
		c-2.547,3.216-26.543,28.227-75.682,25.738C281.365,349.218,312.662,344.537,330.267,321.483z M252.379,334.784
		c-5.563-4.121,28.659,10.231,75.918-24.706C306.703,329.444,277.176,344.26,252.379,334.784z M250.332,319.459
		c-5.559-4.121,31.875,11.459,78.848-19.247C307.581,319.577,275.565,331.395,250.332,319.459z M225.203,300.708
		c-7.779-5.149,52.182,25.333,107.875-11.718c-11.327,10.872-31.82,19.588-54.87,22.095
		C255.158,313.586,235.411,309.242,225.203,300.708z M217.092,286.833c-8.934-5.154,59.91,25.333,123.851-11.723
		c-13.001,10.872-36.538,19.593-62.995,22.099C251.483,299.711,228.815,295.367,217.092,286.833z M206.684,271.862
		c-10.222-5.154,68.544,25.329,141.706-11.723c-14.88,10.872-41.805,19.588-72.084,22.095
		C246.038,284.741,220.095,280.396,206.684,271.862z M343.396,251.233c10.222-6.478-68.544,34.231-141.706,6.673
		c14.88,8.939,41.805,14.161,72.084,12.737C304.042,269.219,329.985,261.509,343.396,251.233z M345.552,236.371
		c10.622-6.864-71.237,36.829-147.274,12.041c15.467,8.379,43.448,12.583,74.918,10.008
		C304.656,255.85,331.618,247.157,345.552,236.371z M351.111,223.334c10.626-6.864-71.233,36.824-147.274,12.041
		c15.462,8.379,43.448,12.578,74.913,10.012C310.215,242.812,337.172,234.119,351.111,223.334z M351.111,207.476
		c10.626-6.86-71.233,36.829-147.274,12.046c15.462,8.379,43.448,12.578,74.913,10.008
		C310.215,226.955,337.172,218.266,351.111,207.476z M209.191,207.649c-10.699-4.817,70.56,23.223,137.88-15.289
		c-13.274,11.127-38.662,20.443-68.121,23.709C249.486,219.335,223.443,215.728,209.191,207.649z M181.979,188.611
		c-13.442-5.704,88.683,27.494,173.29-18.11c-16.686,13.178-48.593,24.21-85.617,28.076
		C232.627,202.449,199.888,198.178,181.979,188.611z M157.892,163.61c-15.317-6.146,101.243,30.442,199.21-12.337
		c-19.397,12.624-56.23,22.581-98.791,25.22C215.746,179.131,178.262,173.768,157.892,163.61z"/>
	<path style="fill:#747474;" d="M166.175,198.828c0,0,3.803,8.634,17.122,11.982c13.31,3.344,13.606,3.171,13.606,3.171
		S164.856,218.211,166.175,198.828z"/>
	<path style="fill:#747474;" d="M259.612,62.881c0.309-0.036,103.686-13.665,129.205,22.358c4.231,5.463,4.026,12.478,3.612,12.332
		c-0.268-0.091-2.37-5.855-3.721-8.193c-25.402-35.864-128.76-26.13-129.06-26.098L259.612,62.881z"/>
</g>
<path style="fill:#DFDFDF;" d="M170.915,106.465c2.607-1.383,78.061,10.472,165.083-1.524
	C320.805,111.114,227.651,122.819,170.915,106.465z"/>
<g>
	<path style="fill:#747474;" d="M385.465,139.518c0,0-0.714,9.735-11.9,19.056c-11.181,9.325-11.514,9.303-11.514,9.303
		S392.939,156.754,385.465,139.518z"/>
	<path style="fill:#747474;" d="M369.975,229.725c0,0-1.151,7.056-9.935,12.824c-8.789,5.773-9.021,5.723-9.021,5.723
		S374.329,243.035,369.975,229.725z"/>
	<path style="fill:#747474;" d="M330.922,361.441c0,0-1.378,4.945-8.147,8.111c-6.764,3.171-6.928,3.107-6.928,3.107
		S333.024,371.508,330.922,361.441z"/>
	<path style="fill:#747474;" d="M369.975,301.536c0,0-1.151,7.051-9.935,12.819c-8.789,5.773-9.021,5.723-9.021,5.723
		S374.329,314.841,369.975,301.536z"/>
</g>
<path style="fill:#7CB142;" d="M90.298,299.548c-0.023,0.719-0.787,1.115-1.019,1.219c1.392-0.582,1.601,0.682,1.601,0.682
	c1.583,0.741-0.541,1.547-0.541,1.547c-0.664,0.059-0.864-0.687-0.864-0.687c-1.729,0.305-1.005,0.978-1.005,0.978
	c1.201,0.068,0.246,0.851,0.246,0.851l-0.719-0.1l-0.946,0.205L87,304.547l0.646,0.096l-0.073,0.509l-0.837,0.118l0.064,0.619
	c0.496,1.46-2.529,1.215-2.529,1.215c-1.51,3.512-4.535,1.206-5.227,0.614c-0.691,0.118-1.406,0.127-2.12,0.018
	c-1.811-0.268-3.33-1.201-4.385-2.525c-1.055-0.086-2.065-0.696-2.065-0.696c-1.196-0.218-0.237-1.779-0.237-1.779
	c-1.46,1.619-2.306-0.396-2.306-0.396c-0.864-1.706,0.887-2.065,0.887-2.065c-0.491-1.042,0.705-1.419,0.705-1.419
	c-1.811-0.914-1.965-2.038-1.874-2.675c-0.741-0.491-1.324-0.955-1.674-1.251c-1.697,0.277-3.462,0.3-5.245,0.036
	c-4.453-0.655-8.243-2.975-10.831-6.232c-2.629-0.227-5.131-1.715-5.131-1.715c-2.957-0.55-0.596-4.417-0.596-4.417
	c-2.475,2.77-4.235,1.265-5.09,0.059c-0.086,1.046-2.588,0.851-2.588,0.851c-1.506,3.512-4.526,1.206-5.222,0.614
	c-0.678,0.109-1.397,0.118-2.12,0.009c-1.797-0.255-3.325-1.206-4.385-2.511c-1.055-0.091-2.065-0.705-2.065-0.705
	c-1.196-0.214-0.237-1.783-0.237-1.783c-1.447,1.629-2.306-0.391-2.306-0.391c-0.864-1.706,0.896-2.047,0.896-2.047
	c-0.487-1.06,0.701-1.442,0.701-1.442c-2.693-1.365-1.729-3.18-1.729-3.18c-0.814-2.079,0.896-3.162,0.896-3.162
	c-0.136-0.205-0.223-0.396-0.264-0.56c-1.651-0.328-3.066-1.219-4.044-2.456c-1.064-0.1-2.083-0.71-2.083-0.71
	c-1.201-0.214-0.241-1.788-0.241-1.788c-1.465,1.642-2.311-0.396-2.311-0.396c-0.883-1.724,0.887-2.074,0.887-2.074
	c-0.487-1.037,0.719-1.442,0.719-1.442c-2.72-1.369-1.747-3.193-1.747-3.193c-0.814-2.097,0.91-3.189,0.91-3.189
	c-0.878-1.256,0.437-1.879,0.437-1.879c-0.032-1.237,1.56-0.728,1.56-0.728c-0.71-3.535,2.238-3.052,2.238-3.052
	c0.951-1.324,1.965-0.055,1.965-0.055c1.124-1.447,2.998,0.437,2.998,0.437c-0.255-1.597,1.847-0.996,1.847-0.996
	c0.473-0.105,0.851-0.023,1.151,0.155c0.045-0.187,0.105-0.3,0.105-0.3c-0.814-2.083,0.896-3.171,0.896-3.171
	c-0.864-1.26,0.459-1.888,0.459-1.888c-0.023-0.532,0.264-0.741,0.596-0.81c-0.405-3.321,2.306-5.045,2.306-5.045
	c-1.82-2.634,0.942-3.944,0.942-3.944c-0.091-2.597,3.266-1.538,3.266-1.538c-1.501-7.41,4.676-6.387,4.676-6.387
	c1.988-2.77,4.112-0.123,4.112-0.123c2.356-3.025,6.291,0.933,6.291,0.933c-0.532-3.348,3.88-2.093,3.88-2.093
	c3.425-0.782,4.476,3.321,4.476,3.321c2.42-1.779,4.103-2.156,5.272-1.865c-0.045-3.475,3.293-2.93,3.293-2.93
	c1.333-1.856,2.752-0.086,2.752-0.086c1.579-2.02,4.208,0.623,4.208,0.623c-0.35-2.234,2.602-1.392,2.602-1.392
	c2.297-0.528,2.989,2.215,2.989,2.215c4.836-3.548,5.29,1.269,5.29,1.269c6.796-1.187,6.159,4.608,6.159,4.608
	c1.66-1.201,2.825,0.869,3.744,3.548c0.6,1.788-0.459,2.93-1.237,3.498c0.855,0.896,1.178,2.129,1.178,2.129
	c6.387-4.695,6.974,1.669,6.974,1.669c8.966-1.574,8.125,6.087,8.125,6.087c2.184-1.597,3.726,1.133,4.94,4.681
	c1.21,3.553-2.584,5.168-2.584,5.168c1.615,2.52-2.043,2.839-2.043,2.839c1.269,2.188-0.955,3.353-1.51,3.603
	c2.566-1.083,2.984,1.274,2.984,1.274c2.92,1.383-1.01,2.884-1.01,2.884c-1.242,0.105-1.61-1.269-1.61-1.269
	c-1.738,0.305-2.147,0.805-2.156,1.206c4.099,0.227,3.653,4.294,3.653,4.294c1.488-1.087,2.547,0.778,3.384,3.212
	c0.823,2.425-1.779,3.535-1.779,3.535c1.11,1.724-1.397,1.947-1.397,1.947c0.878,1.501-0.66,2.297-1.037,2.466
	c1.77-0.751,2.047,0.86,2.047,0.86c1.997,0.955-0.687,1.988-0.687,1.988c-0.855,0.059-1.105-0.878-1.105-0.878
	c-0.637,0.114-1.01,0.268-1.224,0.423c1.251,0.983,1.055,2.784,1.055,2.784c1.174-0.864,2.002,0.605,2.666,2.534
	c0.655,1.911-1.406,2.784-1.406,2.784c0.878,1.365-1.096,1.542-1.096,1.542c0.687,1.178-0.519,1.811-0.819,1.942
	c1.401-0.587,1.615,0.678,1.615,0.678c1.579,0.751-0.537,1.565-0.537,1.565c-0.682,0.059-0.878-0.678-0.878-0.678
	c-1.738,0.3-1.019,0.969-1.019,0.969c1.224,0.077,0.259,0.869,0.259,0.869l-0.728-0.114l-0.964,0.218l-0.032,0.291l0.655,0.114
	l-0.077,0.491l-0.846,0.132l0.068,0.628c0.5,1.456-2.561,1.215-2.561,1.215c-1.51,3.521-4.554,1.215-5.236,0.614
	c-0.701,0.109-1.415,0.127-2.138,0.018c-1.82-0.273-3.348-1.215-4.413-2.534L90.298,299.548z"/>
<path style="fill:#5C4036;" d="M51.081,288.466c1.992-2.106,4.485-5.559,3.175-8.625C52.2,275.01,52.2,275.01,52.2,275.01
	l3.721-0.318l2.852,9.426l9.58-1.11l0.655,2.397l6.187-1.246l3.712-11.072l2.311-0.35l-0.819,7.792l3.139,1.624l6.551-0.983
	l-0.018,2.406l-5.386,2.616l-0.978,0.605l-1.014-0.523l-3.398-1.765l-0.537,1.929l-0.332,1.196l-1.219,0.241l-22.604,7.41
	c-7.274,13.879-16.003,21.221-7.469,43.752c1.66,4.39,6.723,8.343,6.723,8.343l-17.814-4.881l-14.17,3.457l6.328-7.288
	c0,0-1.401-32.83,13.929-44.699l-1.351-13.329l-0.291-0.751l0.3-0.728l2.152-5.3l-3.785-2.666l-0.605-0.428l-0.187-0.714
	l0.951-7.128l1.851,1.901l0.919,3.485l2.42,1.706l3.848-4.08l1.879,0.755l-2.93,7.201l-2.466,6.055l3.835,9.985
	C49.425,289.394,50.226,288.898,51.081,288.466z"/>
<g>
	<path style="fill:#7CB142;" d="M119.639,253.998c0,0,3.298-7.206,9.84-4.517c6.537,2.688,7.024,2.566,7.024,2.566
		s-3.73,3.298-8.921,4.212C122.387,257.178,119.639,253.998,119.639,253.998z M134.009,267.377c0,0-5.645-5.568-10.804-0.732
		c-5.159,4.831-5.659,4.89-5.659,4.89s4.658,1.76,9.84,0.773C132.563,271.326,134.009,267.377,134.009,267.377z M101.488,224.98
		c0,0,3.562-7.083,9.994-4.162c6.437,2.925,6.933,2.82,6.933,2.82s-3.848,3.162-9.066,3.894
		C104.127,228.26,101.488,224.98,101.488,224.98z M140.892,243.768c0,0,0.509-7.915,7.574-7.738
		c7.069,0.177,7.483-0.114,7.483-0.114s-2.306,4.413-6.828,7.124S140.892,243.768,140.892,243.768z M131.098,233.023
		c0,0-6.974-3.771-10.581,2.315c-3.598,6.082-4.062,6.278-4.062,6.278s4.968,0.387,9.662-2.006
		C130.811,237.213,131.098,233.023,131.098,233.023z"/>
	<path style="fill:#7CB142;" d="M450.093,252.343c-0.041,0.405,0.359,0.682,0.487,0.755c-0.741-0.423-0.951,0.273-0.951,0.273
		c-0.942,0.3,0.191,0.905,0.191,0.905c0.368,0.086,0.537-0.328,0.537-0.328c0.951,0.3,0.491,0.623,0.491,0.623
		c-0.678-0.046-0.196,0.459-0.196,0.459h0.409l0.519,0.177l0.005,0.177l-0.368,0.009l0.005,0.287l0.459,0.127l-0.077,0.346
		c-0.382,0.782,1.333,0.86,1.333,0.86c0.596,2.079,2.456,1.001,2.889,0.719c0.378,0.114,0.778,0.173,1.192,0.159
		c1.033-0.018,1.952-0.432,2.638-1.101c0.605,0.027,1.215-0.246,1.215-0.246c0.682-0.036,0.255-0.978,0.255-0.978
		c0.705,1.01,1.319-0.059,1.319-0.059c0.614-0.896-0.346-1.224-0.346-1.224c0.35-0.541-0.296-0.846-0.296-0.846
		c1.083-0.382,1.251-1.001,1.246-1.365c0.45-0.223,0.81-0.446,1.028-0.587c0.933,0.282,1.92,0.419,2.943,0.4
		c2.543-0.05,4.836-1.078,6.523-2.729c1.492,0.064,3.002-0.596,3.002-0.596c1.701-0.096,0.651-2.434,0.651-2.434
		c1.192,1.729,2.288,1.014,2.852,0.396c-0.027,0.596,1.392,0.664,1.392,0.664c0.596,2.074,2.456,0.996,2.884,0.719
		c0.373,0.109,0.782,0.164,1.196,0.155c1.024-0.018,1.952-0.437,2.634-1.096c0.6,0.027,1.21-0.25,1.21-0.25
		c0.687-0.032,0.259-0.983,0.259-0.983c0.701,1.019,1.328-0.05,1.328-0.05c0.605-0.896-0.359-1.219-0.359-1.219
		c0.35-0.555-0.291-0.855-0.291-0.855c1.61-0.578,1.196-1.66,1.196-1.66c0.605-1.11-0.277-1.842-0.277-1.842
		c0.096-0.105,0.155-0.2,0.191-0.291c0.951-0.068,1.811-0.469,2.447-1.092c0.6,0.018,1.215-0.25,1.215-0.25
		c0.696-0.032,0.268-0.987,0.268-0.987c0.701,1.028,1.324-0.055,1.324-0.055c0.619-0.905-0.35-1.228-0.35-1.228
		c0.35-0.55-0.305-0.86-0.305-0.86c1.629-0.578,1.21-1.669,1.21-1.669c0.61-1.119-0.277-1.856-0.277-1.856
		c0.582-0.641-0.114-1.087-0.114-1.087c0.109-0.691-0.823-0.514-0.823-0.514c0.651-1.933-1.037-1.874-1.037-1.874
		c-0.437-0.814-1.096-0.173-1.096-0.173c-0.528-0.892-1.715,0.032-1.715,0.032c0.255-0.878-0.969-0.691-0.969-0.691
		c-0.255-0.096-0.473-0.077-0.655,0c-0.014-0.105-0.036-0.173-0.036-0.173c0.605-1.115-0.277-1.842-0.277-1.842
		c0.573-0.646-0.123-1.092-0.123-1.092c0.05-0.3-0.096-0.441-0.277-0.5c0.469-1.833-0.937-2.993-0.937-2.993
		c1.21-1.351-0.246-2.284-0.246-2.284c0.237-1.451-1.72-1.096-1.72-1.096c1.369-4.053-2.17-3.917-2.17-3.917
		c-0.914-1.701-2.302-0.364-2.302-0.364c-1.105-1.865-3.598,0.073-3.598,0.073c0.541-1.838-2.029-1.451-2.029-1.451
		c-1.865-0.687-2.743,1.542-2.743,1.542c-1.233-1.169-2.156-1.501-2.829-1.424c0.277-1.947-1.638-1.879-1.638-1.879
		c-0.619-1.137-1.538-0.246-1.538-0.246c-0.741-1.246-2.411,0.05-2.411,0.05c0.359-1.228-1.36-0.964-1.36-0.964
		c-1.251-0.459-1.838,1.028-1.838,1.028c-2.456-2.338-3.057,0.332-3.057,0.332c-3.73-1.151-3.789,2.147-3.789,2.147
		c-0.846-0.796-1.647,0.287-2.352,1.724c-0.464,0.96,0.046,1.679,0.446,2.056c-0.55,0.437-0.814,1.105-0.814,1.105
		c-3.248-3.093-4.035,0.441-4.035,0.441c-4.922-1.528-4.995,2.834-4.995,2.834c-1.115-1.051-2.174,0.368-3.112,2.274
		c-0.928,1.911,1.087,3.089,1.087,3.089c-1.092,1.296,0.942,1.738,0.942,1.738c-0.869,1.137,0.296,1.947,0.587,2.129
		c-1.36-0.792-1.76,0.5-1.76,0.5c-1.742,0.573,0.355,1.692,0.355,1.692c0.691,0.146,0.996-0.596,0.996-0.596
		c0.955,0.291,1.146,0.605,1.124,0.828c-2.315-0.164-2.356,2.152-2.356,2.152c-0.755-0.719-1.483,0.255-2.124,1.56
		c-0.637,1.301,0.741,2.111,0.741,2.111c-0.746,0.887,0.646,1.192,0.646,1.192c-0.6,0.778,0.205,1.333,0.405,1.456
		c-0.942-0.546-1.21,0.337-1.21,0.337c-1.192,0.396,0.241,1.169,0.241,1.169c0.478,0.096,0.682-0.414,0.682-0.414
		c0.35,0.105,0.55,0.218,0.655,0.323c-0.769,0.464-0.787,1.483-0.787,1.483c-0.596-0.564-1.169,0.2-1.679,1.233
		c-0.505,1.028,0.591,1.669,0.591,1.669c-0.591,0.701,0.505,0.942,0.505,0.942c-0.473,0.61,0.159,1.051,0.323,1.146
		c-0.746-0.432-0.96,0.268-0.96,0.268c-0.937,0.309,0.196,0.914,0.196,0.914c0.378,0.082,0.537-0.318,0.537-0.318
		c0.955,0.291,0.505,0.619,0.505,0.619c-0.696-0.045-0.209,0.469-0.209,0.469l0.419-0.014l0.523,0.196l-0.005,0.164l-0.373,0.014
		l0.009,0.287l0.464,0.132l-0.082,0.346c-0.387,0.782,1.351,0.869,1.351,0.869c0.591,2.079,2.47,1.005,2.893,0.714
		c0.387,0.114,0.787,0.173,1.196,0.164c1.042-0.023,1.97-0.441,2.661-1.105L450.093,252.343z"/>
</g>
<path style="fill:#5C4036;" d="M472.897,248.926c-0.969-1.324-2.12-3.444-1.169-5.068c1.501-2.566,1.501-2.566,1.501-2.566
	l-2.065-0.441l-2.275,5.081l-5.3-1.306l-0.537,1.296l-3.384-1.137l-1.292-6.482l-1.274-0.359l-0.091,4.431l-1.883,0.687
	l-3.603-1.024l-0.164,1.356l2.839,1.851l0.505,0.414l0.605-0.227l2.033-0.741l0.164,1.119l0.096,0.696l0.673,0.218l12.155,5.782
	c3.093,8.306,7.469,13.051,1.064,25.088c-1.246,2.347-4.367,4.199-4.367,4.199l10.349-1.465l7.706,2.952l-3.034-4.54
	c0,0,3.134-18.328-4.622-26.084l1.71-7.388l0.218-0.4l-0.118-0.428l-0.828-3.13l2.315-1.228l0.368-0.191l0.159-0.391l-0.023-4.067
	l-1.178,0.933l-0.764,1.888l-1.483,0.787l-1.865-2.566l-1.11,0.291l1.133,4.253l0.946,3.571l-2.861,5.331
	C473.756,249.568,473.347,249.231,472.897,248.926z"/>
<path style="fill:#7CB142;" d="M436.878,224.68c0,0-1.337-4.281-5.2-3.239c-3.862,1.042-4.126,0.937-4.126,0.937
	s1.856,2.115,4.704,3.007C435.108,226.268,436.878,224.68,436.878,224.68z M427.852,231.162c0,0,3.566-2.725,6.118,0.359
	c2.552,3.08,2.829,3.148,2.829,3.148s-2.738,0.66-5.577-0.264C428.385,233.482,427.852,231.162,427.852,231.162z M449.137,209.691
	c0,0-1.492-4.231-5.313-3.052c-3.821,1.183-4.09,1.087-4.09,1.087s1.933,2.052,4.813,2.834
	C447.422,211.338,449.137,209.691,449.137,209.691z M425.678,217.42c0,0,0.287-4.481-3.698-4.886c-3.976-0.405-4.19-0.6-4.19-0.6
	s0.978,2.648,3.325,4.49C423.458,218.266,425.678,217.42,425.678,217.42z M431.947,212.084c0,0,4.185-1.615,5.768,2.056
	c1.588,3.671,1.833,3.817,1.833,3.817s-2.811-0.136-5.281-1.82C431.806,214.458,431.947,212.084,431.947,212.084z"/>
<g>
</g>
<g>
</g>
<g>
</g>
<g>
</g>
<g>
</g>
<g>
</g>
<g>
</g>
<g>
</g>
<g>
</g>
<g>
</g>
<g>
</g>
<g>
</g>
<g>
</g>
<g>
</g>
<g>
</g>
</svg>
