<?xml version="1.0" encoding="iso-8859-1"?>
<!-- Generator: Adobe Illustrator 19.0.0, SVG Export Plug-In . SVG Version: 6.00 Build 0)  -->
<svg version="1.1" id="Layer_1" xmlns="http://www.w3.org/2000/svg" xmlns:xlink="http://www.w3.org/1999/xlink" x="0px" y="0px"
	 viewBox="0 0 512 512" style="enable-background:new 0 0 512 512;" xml:space="preserve">
<path style="fill:#B1E9F1;" d="M255.998,0C397.386,0,512,114.614,512,255.998C512,397.386,397.386,512,255.998,512
	C114.614,512,0,397.386,0,255.998C0,114.614,114.614,0,255.998,0z"/>
<path style="fill:#FFFFFF;" d="M193.565,23.9c3.225,0,6.263,0.767,8.949,2.124c2.914-2.851,6.898-4.609,11.302-4.609
	c7.61,0,14.001,5.272,15.705,12.361c3.81,1.142,6.861,4.02,8.255,7.711c0.457-0.055,0.923-0.078,1.393-0.078
	c7.035,0,12.745,5.71,12.745,12.745c0,7.044-5.71,12.745-12.745,12.745c-2.193,0-4.257-0.553-6.057-1.526
	c-1.549,5.299-6.436,9.164-12.238,9.164c-3.54,0-6.743-1.444-9.054-3.778c-2.311,2.334-5.514,3.778-9.054,3.778
	c-3.367,0-6.427-1.306-8.707-3.435c-2.33,2.544-5.678,4.143-9.406,4.143c-3.49,0-6.647-1.393-8.944-3.668
	c-1.055,0.238-2.147,0.361-3.271,0.361c-8.387,0-15.18-6.802-15.18-15.184c0-8.387,6.793-15.184,15.18-15.184
	c0.457,0,0.914,0.023,1.357,0.064C174.872,31.662,183.31,23.9,193.565,23.9z"/>
<g>
	<path style="fill:#AEAEAE;" d="M32.881,130.434c13.243-1.247,57.677-3.814,109.905,10.731l5.08-30.488l-24.143,23.297l-6.633-6.875
		l34.567-33.352l6.624,6.87h4.824l6.624-6.87l24.773,23.905c0.087,0.069,0.164,0.142,0.228,0.224l9.566,9.223l-6.633,6.875
		l-25.143-24.261l7.944,44.731c27.596,11.918,55.791,29.309,81.546,54.571c60.738,59.564-106.026,111.727-243.353,143.055
		C6.637,322.405,0,289.98,0,255.998C0,210.367,11.955,167.536,32.881,130.434z M162.721,85.401l34.558-33.356l6.637,6.87
		l-34.562,33.361L162.721,85.401z M157.902,85.401l-34.558-33.356l-6.633,6.87l34.562,33.361L157.902,85.401z"/>
	<path style="fill:#AEAEAE;" d="M489.657,151.264h-13.001c0,0-154.567,0.005-231.851,77.284
		c-58.691,58.696,150.031,95.095,253.855,109.215C507.309,312.085,512,284.59,512,255.998
		C512,218.685,504.006,183.241,489.657,151.264z"/>
</g>
<path style="fill:#9BCB64;" d="M255.998,212.29c99.211,0,189.002,29.085,253.974,76.078C494.061,414.471,386.422,512,255.998,512
	c-130.42,0-238.059-97.529-253.969-223.633C67.001,241.375,156.792,212.29,255.998,212.29z"/>
<path style="fill:#ADD37F;" d="M255.998,267.19c93.88,0,179.317,26.047,243.28,68.668C465.729,438.133,369.497,512,255.998,512
	c-113.495,0-209.727-73.867-243.28-176.142C76.685,293.237,162.123,267.19,255.998,267.19z"/>
<path style="fill:#9BCB64;" d="M255.998,344.473c80.404,0,154.617,19.104,214.451,51.364C424.749,465.775,345.78,512,255.998,512
	c-89.777,0-168.747-46.225-214.446-116.163C101.385,363.582,175.599,344.473,255.998,344.473z"/>
<path style="fill:#ADD37F;" d="M255.998,405.499c64.895,0,125.747,12.448,178.271,34.211C388.172,484.445,325.31,512,255.998,512
	c-69.308,0-132.17-27.555-178.267-72.291C130.251,417.947,191.107,405.499,255.998,405.499z"/>
<g>
	<path style="fill:#AEAEAE;" d="M294.078,107.821l94.62-17.807l14.106,74.954l-94.615,17.807L294.078,107.821z M319.134,120.991
		l51.012-9.598l7.601,40.41l-51.008,9.598L319.134,120.991z"/>
	<polygon style="fill:#AEAEAE;" points="299.71,108.342 383.636,92.55 411.392,95.223 375.833,51.081 333.213,41.812 
		291.908,66.877 279.798,119.991 	"/>
	<polygon style="fill:#AEAEAE;" points="354.843,123.371 357.867,125.952 350.768,134.253 360.398,139.401 358.52,142.905 
		348.123,137.345 340.458,146.308 337.438,143.722 344.533,135.427 334.903,130.274 336.78,126.77 347.177,132.329 	"/>
</g>
<path style="fill:#FFFFFF;" d="M337.292,63.501c6.19-1.16,12.151,2.91,13.316,9.1c1.165,6.19-2.91,12.151-9.095,13.316
	c-6.19,1.165-12.156-2.91-13.316-9.1C327.032,70.628,331.107,64.671,337.292,63.501z"/>
<polygon style="fill:#4D4D4D;" points="154.983,231.202 148.647,231.202 148.647,253.06 154.983,253.06 "/>
<path style="fill:#606060;" d="M159.925,221.44h-16.221c-1.439,0-2.613,1.174-2.613,2.608v9.616c0,1.434,1.174,2.608,2.613,2.608
	h16.221c1.439,0,2.608-1.174,2.608-2.608v-9.616C162.534,222.614,161.364,221.44,159.925,221.44z"/>
<polygon style="fill:#666666;" points="351.928,182.465 300.779,182.465 249.625,182.465 207.018,298.385 300.779,298.532 
	394.54,298.385 "/>
<polygon style="fill:#64B3F5;" points="347.054,189.449 384.536,291.414 300.793,291.547 217.022,291.414 254.499,189.449 "/>
<path style="fill:#E1F1FB;" d="M268.482,189.449h10.329l38.404,101.083h-10.329L268.482,189.449z M286.974,189.449h40.03
	l38.409,101.083h-40.035L286.974,189.449z"/>
<path style="fill:#445A64;" d="M326.397,227.899h-6.117c-1.681,0,0.169,1.402-0.064,3.056l-4.381,30.849h-30.51
	c-1.681,0-3.061,1.384-3.061,3.056v1.928c0,1.676,1.384,3.056,3.061,3.056h3.097v18.195h25.024v-18.195h8.57
	c1.681,0,3.061-1.375,3.061-3.056v-2.805v-3.312l4.376-29.716C329.7,229.292,328.078,227.899,326.397,227.899z M251.238,255.285
	l-13.088,6.619l-0.402,6.071l15.513-8.035l5.838,13.439c0.936,2.161,3.467,3.157,5.623,2.22l0,0c2.161-0.936,3.157-3.467,2.22-5.623
	l-14.888-34.279c-0.941-2.161-3.472-3.157-5.628-2.22l0,0c-2.156,0.936-3.152,3.472-2.216,5.623L251.238,255.285z"/>
<path style="fill:#36464E;" d="M326.397,227.899h-6.117c-1.681,0,0.169,1.402-0.064,3.056l-4.381,30.849h-1.37l3.052,8.044h4.5
	c1.681,0,3.061-1.38,3.061-3.061v-2.805v-3.312l4.376-29.716C329.7,229.292,328.078,227.899,326.397,227.899z M306.302,261.804
	h-10.329l9.963,26.235h7.505v-7.432L306.302,261.804z"/>
<path style="fill:#FFFF00;" d="M361.339,173.566H237.807c-1.567,0-3.563,1.462-2.851,2.851l5.39,10.456
	c0.713,1.384,1.288,2.846,2.846,2.846h113.353c1.558,0,2.197-1.421,2.851-2.846l4.787-10.456
	C364.838,174.991,362.901,173.566,361.339,173.566z"/>
<path style="fill:#445A64;" d="M308.111,288.039H117.547c-12.539,0-6.016,9.981-6.016,22.525v21.438
	c0,0.891,0.055,1.763,0.155,2.622H81.125v13.458h37.079c4.134,4.152,9.849,6.724,16.135,6.724h137.29h54.571h81.623l-31.803-86.557
	l-48.646,0.48L308.111,288.039z"/>
<g>
	<path style="fill:#36464E;" d="M88.887,350.01h29.318c4.134,2.96,9.849,4.797,16.13,4.797H271.63h54.571h81.623l-5.482-10.644
		H88.887V350.01z"/>
	<path style="fill:#36464E;" d="M85.849,323.537H71.806c-1.672,0-3.038,1.366-3.038,3.038v29.56c0,1.667,1.366,3.033,3.038,3.033
		h14.042c1.672,0,3.038-1.366,3.038-3.033v-29.56C88.887,324.903,87.521,323.537,85.849,323.537z"/>
</g>
<path style="fill:#FFFF00;" d="M226.41,240.877l-104.907,8.552c-20.369,1.658-26.925,21.877-26.925,44.343v9.506
	c0,22.466-1.124,28.82,19.296,28.82h87.493c20.42,0,37.13-18.387,37.13-40.857v-9.506
	C238.497,259.264,246.775,239.219,226.41,240.877z"/>
<path style="fill:#FFD500;" d="M94.944,284.982c-0.251,2.86-0.365,5.806-0.365,8.789v9.506c0,22.466-1.124,28.82,19.296,28.82
	h87.493c20.42,0,37.13-18.387,37.13-40.857v-9.506c0-11.032,1.996-21.479,1.617-29.058l-115.427,7.839
	C107.876,261.658,98.904,271.58,94.944,284.982z"/>
<path style="fill:#424242;" d="M214.441,178.787v5.167v114.934c0,3.083,2.522,5.601,5.601,5.601l0,0
	c3.079,0,5.596-2.517,5.596-5.601v-121.9v-6.414c0-10.452-11.343-16.71-17.249-14.997v11.42c3.6-0.653,6.08,1.923,6.08,3.855
	C214.464,173.497,214.441,176.138,214.441,178.787z"/>
<path style="fill:#202020;" d="M351.819,284.366c-2.124,0.164-4.226,0.429-6.29,0.795l-1.795-3.572
	c-0.544-1.083-1.507-1.887-2.677-1.585l-3.408,0.877c-1.174,0.301-1.631,1.466-1.585,2.677l0.146,4.002
	c-2.015,0.685-3.983,1.466-5.897,2.343l-2.631-3.01c-0.795-0.914-1.923-1.453-2.983-0.868l-3.083,1.695
	c-1.06,0.585-1.211,1.827-0.868,2.988l1.137,3.851c-1.768,1.16-3.476,2.407-5.116,3.732l-3.312-2.266
	c-0.996-0.69-2.225-0.932-3.106-0.1l-2.567,2.407c-0.877,0.827-0.717,2.069-0.096,3.106l2.065,3.454
	c-1.425,1.558-2.773,3.189-4.038,4.883l-3.764-1.375c-1.133-0.416-2.385-0.343-3.033,0.676l-1.887,2.969
	c-0.649,1.019-0.183,2.184,0.676,3.038l2.851,2.823c-0.991,1.859-1.891,3.773-2.695,5.738l-3.979-0.393
	c-1.206-0.119-2.398,0.26-2.773,1.412l-1.087,3.344c-0.375,1.151,0.37,2.161,1.407,2.773l3.467,2.024
	c-0.493,2.037-0.891,4.12-1.179,6.231l-3.961,0.603c-1.197,0.187-2.257,0.85-2.334,2.06l-0.224,3.508
	c-0.078,1.206,0.895,2.005,2.056,2.334l3.874,1.11c0.027,2.129,0.16,4.244,0.397,6.318l-3.686,1.576
	c-1.115,0.475-1.978,1.38-1.75,2.572l0.658,3.453c0.224,1.188,1.361,1.718,2.572,1.75l4.006,0.105
	c0.553,2.056,1.211,4.07,1.964,6.034l-3.17,2.435c-0.964,0.735-1.571,1.827-1.055,2.928l1.494,3.179
	c0.512,1.092,1.75,1.325,2.924,1.06l3.915-0.895c1.046,1.841,2.184,3.627,3.403,5.349l-2.471,3.152
	c-0.745,0.95-1.064,2.161-0.292,3.093l2.238,2.713c0.772,0.932,2.024,0.85,3.097,0.297l3.577-1.846
	c1.466,1.521,3.01,2.969,4.618,4.335l-1.613,3.673c-0.484,1.11-0.489,2.362,0.484,3.074l2.846,2.069
	c0.978,0.708,2.17,0.32,3.074-0.484l2.997-2.672c1.795,1.11,3.65,2.133,5.559,3.061l-0.649,3.942
	c-0.196,1.197,0.11,2.412,1.233,2.855l3.271,1.297c1.124,0.448,2.179-0.228,2.855-1.229l2.234-3.326
	c2.01,0.621,4.061,1.147,6.153,1.571l0.352,3.983c0.105,1.206,0.703,2.307,1.905,2.458l3.49,0.443
	c1.201,0.151,2.056-0.763,2.462-1.9l1.343-3.792c1.042,0.05,2.088,0.078,3.138,0.078c1.073,0,2.138-0.027,3.198-0.082l1.338,3.782
	c0.402,1.142,1.256,2.056,2.453,1.905l3.495-0.434c1.197-0.151,1.795-1.256,1.909-2.458l0.356-3.993
	c2.088-0.425,4.139-0.955,6.149-1.576l2.225,3.316c0.672,1,1.727,1.681,2.855,1.233l3.271-1.288c1.124-0.448,1.43-1.663,1.238-2.855
	l-0.644-3.961c1.905-0.927,3.76-1.951,5.555-3.061l2.988,2.668c0.9,0.804,2.092,1.197,3.07,0.489l2.85-2.065
	c0.978-0.713,0.973-1.964,0.489-3.074l-1.613-3.686c1.608-1.366,3.152-2.814,4.614-4.335l3.568,1.841
	c1.074,0.557,2.325,0.644,3.093-0.288l2.248-2.713c0.767-0.927,0.452-2.142-0.288-3.097l-2.476-3.161
	c1.215-1.722,2.353-3.508,3.399-5.349l3.901,0.895c1.174,0.27,2.407,0.041,2.924-1.051l1.503-3.184
	c0.516-1.096-0.096-2.188-1.051-2.928l-3.175-2.439c0.749-1.969,1.402-3.983,1.96-6.039l3.993-0.1
	c1.211-0.032,2.348-0.557,2.576-1.745l0.662-3.458c0.224-1.188-0.635-2.097-1.745-2.572l-3.696-1.585
	c0.228-2.074,0.361-4.189,0.388-6.318l3.865-1.101c1.165-0.329,2.133-1.124,2.06-2.33l-0.219-3.513
	c-0.073-1.206-1.137-1.873-2.33-2.06l-3.97-0.612c-0.297-2.11-0.69-4.189-1.183-6.226l3.453-2.019
	c1.046-0.608,1.786-1.617,1.416-2.764l-1.083-3.353c-0.375-1.147-1.567-1.53-2.773-1.412l-3.988,0.388
	c-0.809-1.96-1.708-3.878-2.704-5.733l2.851-2.819c0.859-0.845,1.325-2.005,0.681-3.029l-1.882-2.974
	c-0.649-1.019-1.896-1.096-3.038-0.685l-3.773,1.38c-1.265-1.695-2.618-3.321-4.043-4.883l2.065-3.44
	c0.621-1.037,0.786-2.275-0.096-3.106l-2.563-2.417c-0.877-0.827-2.11-0.585-3.106,0.1l-3.321,2.27
	c-1.64-1.325-3.348-2.572-5.121-3.728l1.142-3.842c0.343-1.16,0.192-2.403-0.863-2.988l-3.083-1.699
	c-1.06-0.585-2.188-0.046-2.988,0.863l-2.636,3.015c-1.919-0.872-3.887-1.654-5.902-2.339l0.151-3.993
	c0.05-1.211-0.407-2.375-1.576-2.677l-3.412-0.882c-1.169-0.297-2.129,0.503-2.677,1.585l-1.809,3.577
	c-2.092-0.365-4.221-0.635-6.377-0.795l-0.854-3.915c-0.26-1.183-0.991-2.202-2.202-2.202h-3.517c-1.206,0-1.941,1.019-2.197,2.202
	L351.819,284.366z"/>
<path style="fill:#FFD500;" d="M354.802,312.295c-19.022,0-34.444,15.422-34.444,34.444c0,19.026,15.422,34.444,34.444,34.444
	c19.026,0,34.448-15.417,34.448-34.444C389.25,327.717,373.828,312.295,354.802,312.295z"/>
<path style="fill:#202020;" d="M168.806,312.574c-1.676,0.132-3.33,0.343-4.952,0.626l-1.416-2.809
	c-0.429-0.85-1.183-1.485-2.11-1.247l-2.681,0.69c-0.923,0.233-1.279,1.156-1.247,2.106l0.119,3.152
	c-1.59,0.539-3.138,1.156-4.646,1.846l-2.069-2.371c-0.626-0.717-1.517-1.142-2.353-0.685l-2.426,1.338
	c-0.836,0.457-0.955,1.439-0.685,2.348l0.9,3.033c-1.393,0.914-2.741,1.896-4.029,2.942l-2.608-1.791
	c-0.781-0.539-1.754-0.731-2.449-0.078l-2.015,1.896c-0.694,0.653-0.566,1.631-0.078,2.449l1.622,2.718
	c-1.119,1.224-2.179,2.508-3.175,3.842l-2.965-1.083c-0.895-0.324-1.877-0.27-2.389,0.534l-1.485,2.339
	c-0.512,0.804-0.142,1.718,0.534,2.389l2.243,2.225c-0.781,1.462-1.489,2.974-2.124,4.518l-3.134-0.311
	c-0.946-0.096-1.887,0.206-2.179,1.11l-0.859,2.631c-0.297,0.909,0.292,1.704,1.11,2.184l2.727,1.594
	c-0.388,1.608-0.699,3.243-0.927,4.906l-3.12,0.48c-0.941,0.142-1.777,0.667-1.836,1.617l-0.174,2.764
	c-0.059,0.95,0.703,1.576,1.617,1.841l3.047,0.868c0.027,1.681,0.128,3.339,0.315,4.975l-2.905,1.243
	c-0.873,0.37-1.553,1.087-1.375,2.024l0.516,2.718c0.178,0.936,1.074,1.352,2.024,1.38l3.157,0.082
	c0.439,1.617,0.959,3.202,1.549,4.751l-2.499,1.919c-0.758,0.576-1.233,1.439-0.831,2.302l1.179,2.508
	c0.402,0.859,1.375,1.037,2.302,0.831l3.079-0.703c0.827,1.448,1.722,2.855,2.681,4.207l-1.946,2.48
	c-0.585,0.749-0.841,1.704-0.233,2.439l1.763,2.133c0.608,0.735,1.594,0.672,2.439,0.233l2.819-1.448
	c1.156,1.192,2.371,2.33,3.636,3.408l-1.27,2.892c-0.384,0.877-0.388,1.864,0.379,2.421l2.243,1.631
	c0.767,0.557,1.708,0.247,2.417-0.379l2.366-2.106c1.412,0.877,2.873,1.676,4.372,2.407l-0.507,3.106
	c-0.155,0.941,0.082,1.9,0.968,2.248l2.572,1.019c0.886,0.356,1.718-0.178,2.252-0.968l1.759-2.613
	c1.581,0.493,3.193,0.904,4.842,1.233l0.279,3.134c0.082,0.955,0.553,1.818,1.498,1.941l2.745,0.347
	c0.946,0.119,1.617-0.603,1.941-1.498l1.055-2.983c0.822,0.041,1.645,0.059,2.476,0.059c0.841,0,1.681-0.018,2.512-0.059
	l1.055,2.974c0.315,0.895,0.987,1.617,1.932,1.498l2.745-0.343c0.946-0.119,1.421-0.982,1.507-1.932l0.283-3.147
	c1.645-0.329,3.257-0.745,4.838-1.238l1.754,2.608c0.53,0.795,1.361,1.325,2.243,0.973l2.581-1.014
	c0.882-0.347,1.124-1.306,0.973-2.248l-0.507-3.115c1.498-0.735,2.96-1.539,4.372-2.412l2.353,2.101
	c0.708,0.635,1.645,0.941,2.417,0.384l2.243-1.626c0.772-0.557,0.767-1.544,0.384-2.417l-1.27-2.905
	c1.265-1.078,2.48-2.216,3.636-3.412l2.809,1.448c0.841,0.439,1.827,0.507,2.435-0.228l1.768-2.129
	c0.608-0.735,0.356-1.69-0.228-2.439l-1.951-2.49c0.959-1.361,1.855-2.764,2.677-4.216l3.07,0.708c0.932,0.21,1.9,0.032,2.307-0.827
	l1.183-2.508c0.402-0.859-0.073-1.722-0.827-2.302l-2.503-1.928c0.589-1.549,1.105-3.134,1.544-4.751l3.147-0.078
	c0.95-0.027,1.846-0.439,2.024-1.375l0.525-2.723c0.174-0.932-0.503-1.649-1.375-2.024l-2.914-1.247
	c0.183-1.635,0.288-3.298,0.311-4.975l3.042-0.863c0.918-0.265,1.676-0.886,1.617-1.836l-0.169-2.764
	c-0.059-0.95-0.895-1.475-1.836-1.626l-3.125-0.48c-0.233-1.663-0.544-3.298-0.932-4.906l2.723-1.585
	c0.822-0.475,1.407-1.275,1.115-2.184l-0.854-2.631c-0.297-0.904-1.233-1.206-2.184-1.115l-3.138,0.306
	c-0.64-1.544-1.348-3.052-2.129-4.513l2.238-2.216c0.681-0.672,1.046-1.585,0.539-2.389l-1.48-2.339
	c-0.512-0.804-1.498-0.863-2.389-0.539l-2.974,1.083c-0.996-1.334-2.06-2.613-3.184-3.837l1.626-2.713
	c0.489-0.818,0.621-1.795-0.073-2.449l-2.015-1.896c-0.694-0.653-1.663-0.466-2.449,0.073l-2.618,1.791
	c-1.293-1.042-2.636-2.024-4.029-2.937l0.895-3.024c0.274-0.914,0.155-1.891-0.676-2.348l-2.426-1.343
	c-0.836-0.457-1.727-0.032-2.353,0.681l-2.078,2.375c-1.512-0.69-3.061-1.306-4.646-1.841l0.119-3.143
	c0.037-0.95-0.32-1.873-1.243-2.106l-2.681-0.694c-0.923-0.238-1.681,0.393-2.11,1.243l-1.425,2.819
	c-1.645-0.288-3.321-0.498-5.016-0.626l-0.676-3.083c-0.201-0.932-0.781-1.731-1.731-1.731h-2.773c-0.95,0-1.526,0.804-1.731,1.731
	L168.806,312.574z"/>
<path style="fill:#FFD500;" d="M171.154,334.565c-14.979,0-27.116,12.142-27.116,27.121c0,14.974,12.138,27.116,27.116,27.116
	s27.121-12.142,27.121-27.116C198.275,346.707,186.133,334.565,171.154,334.565z"/>
<path style="fill:#FFFF00;" d="M390.428,264.828h-64.456l-47.828,48.143l7.131,3.088l42.36-41.73l60.496-0.635l36.897,33.178
	c0,0,4.828-4.833,4.513-5.546C429.226,300.615,390.428,264.828,390.428,264.828z"/>
<path style="fill:#FFED58;" d="M257.268,21.626c14.463,0,26.185,11.722,26.185,26.18s-11.722,26.175-26.185,26.175
	c-14.454,0-26.18-11.717-26.18-26.175S242.814,21.626,257.268,21.626z"/>
<path d="M243.723,100.54c0,0,4.171-0.895,7.661-0.228c3.499,0.672,7.14,3.572,11.082,3.796c3.942,0.219,3.12-1.27,3.12-1.27
	s-2.526,0.375-3.198-1.782c-0.662-2.156,2.083-3.869,6.322-6.838c4.244-2.974,5.061-5.952,4.244-7.811c0,0-0.749,1.188-4.244,3.052
	c-3.495,1.859-6.021,5.281-8.775,7.729c-2.75,2.458-2.901,2.604-5.5,2.088C251.832,98.749,246.254,97.931,243.723,100.54z"/>
<g>
</g>
<g>
</g>
<g>
</g>
<g>
</g>
<g>
</g>
<g>
</g>
<g>
</g>
<g>
</g>
<g>
</g>
<g>
</g>
<g>
</g>
<g>
</g>
<g>
</g>
<g>
</g>
<g>
</g>
</svg>
