<?xml version="1.0" encoding="iso-8859-1"?>
<!-- Generator: Adobe Illustrator 19.0.0, SVG Export Plug-In . SVG Version: 6.00 Build 0)  -->
<svg version="1.1" id="Layer_1" xmlns="http://www.w3.org/2000/svg" xmlns:xlink="http://www.w3.org/1999/xlink" x="0px" y="0px"
	 viewBox="0 0 512 512" style="enable-background:new 0 0 512 512;" xml:space="preserve">
<path style="fill:#B1E9F1;" d="M256.005,0C397.384,0,512,114.616,512,256.005C512,397.384,397.384,512,256.005,512
	C114.616,512,0,397.384,0,256.005C0,114.616,114.616,0,256.005,0z"/>
<path style="fill:#FFED58;" d="M184.29,90.929c20.63,0,37.342,16.713,37.342,37.342c0,20.61-16.713,37.333-37.342,37.333
	c-20.61,0-37.333-16.723-37.333-37.333C146.957,107.641,163.679,90.929,184.29,90.929z"/>
<path style="fill:#FFFFFF;" d="M282.427,37.841c3.243,0,6.29,0.772,8.996,2.139c2.921-2.862,6.925-4.64,11.35-4.64
	c7.648,0,14.066,5.304,15.785,12.425c3.819,1.153,6.886,4.044,8.293,7.746c0.459-0.049,0.918-0.068,1.397-0.068
	c7.072,0,12.806,5.734,12.806,12.806c0,7.072-5.734,12.806-12.806,12.806c-2.208,0-4.278-0.557-6.085-1.543
	c-1.553,5.323-6.476,9.211-12.298,9.211c-3.556,0-6.779-1.446-9.094-3.8c-2.325,2.354-5.538,3.8-9.104,3.8
	c-3.38,0-6.457-1.309-8.752-3.448c-2.335,2.559-5.704,4.161-9.445,4.161c-3.507,0-6.681-1.407-8.986-3.682
	c-1.055,0.234-2.159,0.352-3.282,0.352c-8.43,0-15.257-6.828-15.257-15.248c0-8.43,6.828-15.257,15.257-15.257
	c0.459,0,0.918,0.02,1.358,0.059C263.643,45.645,272.122,37.841,282.427,37.841z"/>
<path d="M323.227,138.596c0,0,7.658-1.641,14.066-0.42c6.427,1.231,13.128,6.564,20.366,6.974c7.248,0.41,5.743-2.325,5.743-2.325
	s-4.65,0.684-5.88-3.272c-1.231-3.966,3.829-7.111,11.614-12.571c7.795-5.47,9.289-10.93,7.795-14.359c0,0-1.377,2.188-7.795,5.607
	c-6.427,3.419-11.067,9.709-16.117,14.212c-5.06,4.513-5.333,4.776-10.119,3.829C338.123,135.314,327.877,133.809,323.227,138.596z"
	/>
<path style="fill:#9BCB64;" d="M503.434,190.15c-4.991,0.127-11.174,0.342-18.276,0.664l-3.458,7.668l-3.175-5.402l-0.674-1.153
	l-2.52-4.298l-2.159-3.643l-1.416,6.417l-0.498-0.381l-3.653,6.076l-0.137-0.342l-5.06-12.718l-0.049-0.117L462.321,183
	l-0.147,3.067l-1.25,5.988l-11.018-5.353l-0.059,0.313l-1.67,0.752l-1.582,6.095l-11.028-6.095l-0.723,2.755l-0.254,0.117
	l-1.084,0.449l-0.264,0.107l-11.448,4.464c-20.405,2.237-42.177,5.363-63.247,9.699l-2.237,7.599l-10.598-11.78l-2.237,7.599
	l-3.712,0.85c-9.289,2.315-18.305,4.903-26.862,7.795l-1.719,6.349l-11.008-7.218l-1.661,6.144l1.221,7.121l-13.509-5.148
	l1.221,7.131l-6.427-0.498l-6.955-4.747l-0.088,8.185l-2.93,1.534l-0.488,0.254c-69.019,38.153-115.475,88.653-115.475,88.653
	l285.201,57.933h37.977C499.722,345.664,512,302.265,512,256.005C512,233.236,509.011,211.161,503.434,190.15z"/>
<path style="fill:#ADD37F;" d="M19.458,157.965c3.79,0.781,7.765,1.641,11.848,2.569l1.778,0.41l4.835-3.35l5.294,10.52l1.846-1.28
	l4.825-6.554l3.614,9.758l4.005-7.131l6.261,15.101l4.005-7.131l8.508,2.93l5.89-4.044l2.461,14.075l1.602-1.094l2.882,0.615
	l4.962-4.523l5.157,12.395l4.962-4.513l3.507-0.215l3.79-0.527l-6.32,12.503l6.935-0.957l5.294,3.8l1.104,0.684l0.762,0.479
	l0.342,0.205l0.635,0.4l0.293,0.186l0.527,0.625l0.352,0.459v0.498l5.9-1.016l0.107,0.088l0.938,0.791l0.752,0.625l0.596,0.518
	c5.255,5.333,9.729,11.204,13.177,17.69c3.692,6.925,7.678,13.03,11.927,18.383l12.405,6.505l1.377,0.694l2.256-0.947l-3.018,16.039
	l7.521-3.175l1.065,0.576l0.488,0.264l0.469,0.264l0.469,0.254l0.908,0.498l13.831,7.111
	c76.189,29.46,195.825-38.397,315.882,28.532C488.196,419.684,382.889,512,256.005,512C114.616,512,0,397.384,0,256.005
	C0,221.271,6.925,188.167,19.458,157.965z"/>
<path style="fill:#747474;" d="M65.982,229.339L65.982,229.339c21.87,0,39.755,17.885,39.755,39.745v46.172h-79.5v-46.172
	C26.236,247.224,44.121,229.339,65.982,229.339z"/>
<path style="fill:#BBBBBB;" d="M64.976,237.768h2.012c21.313,0,38.749,17.436,38.749,38.739v38.749h-79.5v-38.749
	C26.236,255.204,43.672,237.768,64.976,237.768z"/>
<path style="fill:#B1E9F1;" d="M57.591,252.547h1.631c17.25,0,31.355,14.105,31.355,31.355v31.355H26.236v-31.355
	C26.236,266.652,40.341,252.547,57.591,252.547z"/>
<g>
	<polygon style="fill:#747474;" points="107.964,331.119 175.205,331.119 175.205,344.472 107.964,344.472 	"/>
	<path style="fill:#747474;" d="M161.491,493.988V344.472h-39.804v129.492C134.269,481.73,147.582,488.46,161.491,493.988z"/>
</g>
<path style="fill:#9F877E;" d="M26.236,315.257h478.858c-1.27,5.353-2.706,10.637-4.298,15.863H26.236V315.257z"/>
<path style="fill:#8B6E62;" d="M26.236,323.188h476.836c-0.713,2.657-1.475,5.304-2.276,7.931H26.236V323.188z"/>
<g>
	<polygon style="fill:#747474;" points="250.965,331.119 318.206,331.119 318.206,344.472 250.965,344.472 	"/>
	<path style="fill:#747474;" d="M304.483,507.399V344.472h-39.804v167.372C278.246,511.385,291.54,509.88,304.483,507.399z"/>
	<polygon style="fill:#747474;" points="394.718,331.119 461.95,331.119 461.95,344.472 394.718,344.472 	"/>
	<path style="fill:#747474;" d="M448.236,425.047v-80.575h-39.804v117.214C422.957,450.902,436.299,438.614,448.236,425.047z"/>
</g>
<path style="fill:#FFFFFF;" d="M120.349,271.682h391.162c-0.987,16.293-3.487,32.175-7.375,47.511H74.001
	c-3.272,0-6.066-1.856-7.355-4.864c-1.28-3.018-0.664-6.31,1.602-8.674l19.233-19.985C96.408,276.4,107.485,271.682,120.349,271.682
	z"/>
<path style="fill:#64B3F5;" d="M510.681,282.134H91.241c8.215-6.925,17.992-10.452,29.108-10.452h391.162
	C511.297,275.189,511.043,278.676,510.681,282.134z"/>
<g>
	<path style="fill:#747474;" d="M66.597,308.146h440.089c-0.42,2.032-0.869,4.054-1.338,6.056H66.597
		C65.777,312.189,65.796,310.04,66.597,308.146z"/>
	<polygon style="fill:#747474;" points="87.363,285.787 124.833,285.787 117.224,296.834 76.736,296.834 	"/>
	<polygon style="fill:#747474;" points="146.4,285.787 128.144,285.787 120.642,296.834 146.019,296.834 	"/>
</g>
<g>
	<path style="fill:#BBBBBB;" d="M167.01,286.041h78.221c0.723,0,1.319,0.596,1.319,1.319v0.01c0,0.723-0.596,1.309-1.319,1.309
		H167.01c-0.723,0-1.309-0.586-1.309-1.309v-0.01C165.701,286.637,166.287,286.041,167.01,286.041z"/>
	<path style="fill:#BBBBBB;" d="M167.01,290.856h78.221c0.723,0,1.319,0.586,1.319,1.319l0,0c0,0.723-0.596,1.319-1.319,1.319
		H167.01c-0.723,0-1.309-0.596-1.309-1.319l0,0C165.701,291.443,166.287,290.856,167.01,290.856z"/>
	<path style="fill:#BBBBBB;" d="M167.01,295.35h78.221c0.723,0,1.319,0.596,1.319,1.319v0.01c0,0.713-0.596,1.309-1.319,1.309
		H167.01c-0.723,0-1.309-0.596-1.309-1.309v-0.01C165.701,295.946,166.287,295.35,167.01,295.35z"/>
</g>
<polygon style="fill:#E5E5E5;" points="270.461,282.134 284.361,282.134 284.361,308.146 270.461,308.146 "/>
<path style="fill:#B9DDF9;" d="M299.296,288.141h20.571v10.911h-20.571V288.141z M325.669,288.141h20.571v10.911h-20.571V288.141z
	 M352.032,288.141h20.571v10.911h-20.571V288.141z M378.396,288.141h20.571v10.911h-20.571V288.141z M404.769,288.141h20.571v10.911
	h-20.571V288.141z M431.132,288.141h20.571v10.911h-20.571V288.141z M457.496,288.141h20.581v10.911h-20.581V288.141z
	 M483.869,288.141h20.571v10.911h-20.571V288.141z"/>
<g>
	<path style="fill:#9BCB64;" d="M467.41,177.755c0.107,0.4-0.254,0.742-0.371,0.84c0.674-0.547,0.996,0.117,0.996,0.117
		c0.987,0.156-0.049,0.938-0.049,0.938c-0.352,0.137-0.586-0.244-0.586-0.244c-0.899,0.449-0.391,0.703-0.391,0.703
		c0.664-0.156,0.264,0.43,0.264,0.43l-0.41,0.059l-0.488,0.264l0.02,0.176l0.371-0.049l0.039,0.293l-0.44,0.195l0.137,0.332
		c0.508,0.723-1.201,1.074-1.201,1.074c-0.264,2.178-2.295,1.387-2.774,1.172c-0.361,0.176-0.752,0.303-1.162,0.352
		c-1.035,0.147-2.032-0.127-2.823-0.684c-0.596,0.117-1.25-0.059-1.25-0.059c-0.694,0.078-0.41-0.938-0.41-0.938
		c-0.547,1.123-1.328,0.156-1.328,0.156c-0.752-0.811,0.156-1.28,0.156-1.28c-0.44-0.498,0.156-0.899,0.156-0.899
		c-1.143-0.215-1.407-0.801-1.465-1.162c-0.479-0.156-0.879-0.322-1.123-0.43c-0.879,0.43-1.856,0.723-2.872,0.86
		c-2.559,0.352-5.021-0.313-6.964-1.69c-1.485,0.293-3.096-0.127-3.096-0.127c-1.719,0.176-1.035-2.335-1.035-2.335
		c-0.918,1.924-2.129,1.377-2.794,0.85c0.117,0.586-1.289,0.879-1.289,0.879c-0.264,2.178-2.295,1.397-2.774,1.182
		c-0.361,0.166-0.752,0.283-1.172,0.342c-1.026,0.147-2.012-0.127-2.813-0.684c-0.596,0.117-1.25-0.059-1.25-0.059
		c-0.684,0.078-0.41-0.938-0.41-0.938c-0.537,1.123-1.338,0.156-1.338,0.156c-0.742-0.811,0.166-1.28,0.166-1.28
		c-0.43-0.498,0.156-0.899,0.156-0.899c-1.7-0.322-1.455-1.475-1.455-1.475c-0.781-1.006-0.02-1.885-0.02-1.885
		c-0.107-0.088-0.186-0.176-0.234-0.264c-0.957,0.088-1.885-0.176-2.618-0.703c-0.606,0.117-1.26-0.059-1.26-0.059
		c-0.694,0.078-0.42-0.947-0.42-0.947c-0.537,1.143-1.338,0.156-1.338,0.156c-0.762-0.811,0.156-1.289,0.156-1.289
		c-0.43-0.488,0.166-0.899,0.166-0.899c-1.719-0.322-1.465-1.485-1.465-1.485c-0.791-1.026-0.02-1.905-0.02-1.905
		c-0.684-0.547-0.059-1.094-0.059-1.094c-0.215-0.684,0.742-0.654,0.742-0.654c-0.957-1.836,0.742-2.041,0.742-2.041
		c0.313-0.879,1.074-0.342,1.074-0.342c0.391-0.977,1.719-0.244,1.719-0.244c-0.391-0.83,0.86-0.84,0.86-0.84
		c0.244-0.137,0.459-0.156,0.654-0.098c0-0.117,0.01-0.186,0.01-0.186c-0.781-1.016-0.01-1.885-0.01-1.885
		c-0.684-0.557-0.059-1.114-0.059-1.114c-0.088-0.293,0.029-0.459,0.205-0.547c-0.762-1.758,0.459-3.145,0.459-3.145
		c-1.426-1.162-0.107-2.315-0.107-2.315c-0.469-1.416,1.543-1.377,1.543-1.377c-2.012-3.829,1.553-4.259,1.553-4.259
		c0.645-1.846,2.247-0.733,2.247-0.733c0.811-2.041,3.614-0.488,3.614-0.488c-0.83-1.758,1.797-1.778,1.797-1.778
		c1.758-0.977,2.999,1.114,2.999,1.114c1.045-1.368,1.915-1.846,2.598-1.875c-0.586-1.905,1.348-2.139,1.348-2.139
		c0.43-1.231,1.494-0.488,1.494-0.488c0.547-1.358,2.422-0.322,2.422-0.322c-0.557-1.182,1.201-1.192,1.201-1.192
		c1.182-0.654,2.002,0.742,2.002,0.742c2.09-2.725,3.116-0.147,3.116-0.147c3.555-1.739,4.122,1.543,4.122,1.543
		c0.733-0.918,1.7,0.029,2.637,1.358c0.615,0.889,0.215,1.69-0.127,2.129c0.625,0.352,0.996,0.977,0.996,0.977
		c2.764-3.604,4.103-0.195,4.103-0.195c4.689-2.305,5.45,2.041,5.45,2.041c0.947-1.221,2.227,0.029,3.468,1.788
		c1.231,1.758-0.596,3.262-0.596,3.262c1.299,1.123-0.664,1.885-0.664,1.885c1.045,1.006,0.01,2.002-0.254,2.227
		c1.241-1.006,1.846,0.225,1.846,0.225c1.827,0.293-0.098,1.748-0.098,1.748c-0.664,0.254-1.094-0.44-1.094-0.44
		c-0.899,0.44-1.045,0.781-0.987,1.006c2.286-0.537,2.696,1.778,2.696,1.778c0.645-0.84,1.524,0.02,2.374,1.221
		c0.84,1.211-0.41,2.237-0.41,2.237c0.889,0.772-0.459,1.299-0.459,1.299c0.723,0.684,0.01,1.358-0.176,1.514
		c0.86-0.694,1.27,0.147,1.27,0.147c1.25,0.205-0.059,1.211-0.059,1.211c-0.469,0.166-0.752-0.313-0.752-0.313
		c-0.332,0.166-0.508,0.313-0.606,0.43c0.85,0.342,1.026,1.367,1.026,1.367c0.508-0.664,1.201,0.01,1.875,0.967
		c0.664,0.947-0.322,1.758-0.322,1.758c0.694,0.606-0.361,1.026-0.361,1.026c0.567,0.537,0.01,1.074-0.137,1.192
		c0.674-0.547,0.996,0.117,0.996,0.117c0.987,0.166-0.049,0.947-0.049,0.947c-0.361,0.147-0.586-0.234-0.586-0.234
		c-0.908,0.449-0.41,0.703-0.41,0.703c0.684-0.156,0.283,0.43,0.283,0.43l-0.42,0.059l-0.498,0.273l0.029,0.166l0.381-0.049
		l0.039,0.293l-0.449,0.205l0.137,0.332c0.518,0.723-1.211,1.074-1.211,1.074c-0.264,2.188-2.315,1.407-2.784,1.182
		c-0.371,0.176-0.762,0.303-1.172,0.352c-1.045,0.137-2.041-0.127-2.833-0.684L467.41,177.755z"/>
	<path style="fill:#4E342E;" d="M447.435,212.147c0,0-0.186-1.045,0.107-4.601l-1.016-11.497c0,0-0.176-4.229,0.371-5.45
		c0,0,8.283-8.039,9.963-8.478c0,0,1.201-10.53,2.715-10.745l-1.504-0.879c0,0-1.348,9.934-2.335,11.458
		c0,0-3.819-14.378-3.223-15.892l-0.557,0.43c0,0,1.797,14.349,1.465,15.345l-2.442,2.52c0,0-0.84,2.54-1.348,1.387
		c0,0-4.669-2.852-2.364-17.856l-1.875-1.221l-1.553,9.885c0,0,1.074-0.01,0.596,2.501c0,0,1.905,5.968,1.612,6.564
		c0,0-0.459,2.833-1.7,2.002l-2.618-6.183c0,0-2.198-8.82-0.713-10.178l-0.567-0.703c0,0-0.987,4.366-0.195,7.57
		c0,0-4.005-4.444-5.245-4.435l0.029,0.801c0,0,0.762-1.573,4.903,4.464c0,0,2.842,8.01,2.94,9.582c0,0-0.332,4.786-0.127,5.695
		c0,0,2.491,12.786-1.621,16.635L447.435,212.147z"/>
	<path style="fill:#9BCB64;" d="M100.716,158.532c0.107,0.4-0.254,0.742-0.361,0.84c0.674-0.547,0.987,0.117,0.987,0.117
		c0.996,0.156-0.049,0.938-0.049,0.938c-0.352,0.137-0.586-0.244-0.586-0.244c-0.899,0.449-0.391,0.703-0.391,0.703
		c0.664-0.156,0.264,0.43,0.264,0.43l-0.41,0.059l-0.488,0.264l0.02,0.176l0.371-0.049l0.039,0.293l-0.44,0.195l0.137,0.332
		c0.508,0.723-1.201,1.074-1.201,1.074c-0.264,2.168-2.295,1.387-2.774,1.172c-0.361,0.176-0.752,0.303-1.162,0.352
		c-1.035,0.147-2.032-0.127-2.823-0.684c-0.596,0.117-1.25-0.059-1.25-0.059c-0.694,0.078-0.41-0.938-0.41-0.938
		c-0.547,1.123-1.328,0.156-1.328,0.156c-0.752-0.811,0.156-1.28,0.156-1.28c-0.44-0.498,0.156-0.899,0.156-0.899
		c-1.143-0.215-1.407-0.801-1.455-1.172c-0.488-0.147-0.889-0.313-1.123-0.42c-0.889,0.43-1.856,0.723-2.882,0.86
		c-2.559,0.352-5.011-0.313-6.964-1.69c-1.485,0.293-3.096-0.127-3.096-0.127c-1.719,0.176-1.035-2.335-1.035-2.335
		c-0.918,1.924-2.129,1.377-2.794,0.85c0.117,0.586-1.289,0.879-1.289,0.879c-0.264,2.178-2.295,1.387-2.774,1.182
		c-0.352,0.166-0.752,0.283-1.172,0.342c-1.026,0.147-2.012-0.137-2.813-0.684c-0.596,0.117-1.241-0.059-1.241-0.059
		c-0.694,0.078-0.42-0.938-0.42-0.938c-0.537,1.123-1.338,0.156-1.338,0.156c-0.742-0.811,0.166-1.28,0.166-1.28
		c-0.43-0.498,0.156-0.899,0.156-0.899c-1.7-0.322-1.455-1.475-1.455-1.475c-0.781-1.006-0.02-1.885-0.02-1.885
		c-0.107-0.088-0.186-0.176-0.234-0.264c-0.957,0.088-1.885-0.176-2.618-0.703c-0.606,0.117-1.26-0.059-1.26-0.059
		c-0.694,0.078-0.42-0.947-0.42-0.947c-0.537,1.143-1.338,0.156-1.338,0.156c-0.752-0.811,0.156-1.289,0.156-1.289
		c-0.43-0.488,0.166-0.899,0.166-0.899c-1.709-0.322-1.465-1.485-1.465-1.485c-0.791-1.026-0.02-1.905-0.02-1.905
		c-0.684-0.547-0.059-1.094-0.059-1.094c-0.215-0.684,0.742-0.654,0.742-0.654c-0.957-1.836,0.742-2.041,0.742-2.041
		c0.313-0.879,1.074-0.342,1.074-0.342c0.391-0.977,1.719-0.244,1.719-0.244c-0.391-0.83,0.86-0.84,0.86-0.84
		c0.244-0.137,0.459-0.156,0.654-0.098c0-0.117,0.01-0.186,0.01-0.186c-0.781-1.016-0.01-1.885-0.01-1.885
		c-0.684-0.557-0.049-1.114-0.049-1.114c-0.098-0.293,0.02-0.459,0.195-0.547c-0.752-1.758,0.459-3.145,0.459-3.145
		c-1.426-1.162-0.107-2.315-0.107-2.315c-0.469-1.416,1.543-1.377,1.543-1.377c-2.012-3.829,1.553-4.259,1.553-4.259
		c0.654-1.846,2.247-0.733,2.247-0.733c0.811-2.041,3.614-0.488,3.614-0.488c-0.83-1.758,1.797-1.778,1.797-1.778
		c1.758-0.977,2.989,1.114,2.989,1.114c1.055-1.367,1.924-1.846,2.608-1.875c-0.576-1.905,1.348-2.139,1.348-2.139
		c0.43-1.231,1.494-0.488,1.494-0.488c0.547-1.358,2.422-0.322,2.422-0.322c-0.557-1.182,1.201-1.192,1.201-1.192
		c1.182-0.654,2.002,0.742,2.002,0.742c2.09-2.725,3.116-0.147,3.116-0.147c3.555-1.739,4.132,1.543,4.132,1.543
		c0.723-0.918,1.69,0.029,2.628,1.358c0.615,0.889,0.215,1.69-0.117,2.129c0.615,0.352,0.987,0.977,0.987,0.977
		c2.764-3.604,4.102-0.195,4.102-0.195c4.689-2.305,5.45,2.041,5.45,2.041c0.947-1.221,2.227,0.029,3.468,1.788
		c1.231,1.758-0.596,3.262-0.596,3.262c1.299,1.123-0.664,1.885-0.664,1.885c1.045,1.006,0.01,2.002-0.254,2.227
		c1.241-1.006,1.846,0.225,1.846,0.225c1.827,0.293-0.098,1.748-0.098,1.748c-0.664,0.254-1.094-0.44-1.094-0.44
		c-0.899,0.44-1.045,0.781-0.987,1.006c2.286-0.537,2.696,1.778,2.696,1.778c0.645-0.84,1.524,0.02,2.374,1.231
		c0.85,1.201-0.41,2.227-0.41,2.227c0.889,0.772-0.459,1.289-0.459,1.289c0.723,0.694,0.01,1.367-0.176,1.524
		c0.86-0.694,1.27,0.147,1.27,0.147c1.25,0.205-0.059,1.211-0.059,1.211c-0.459,0.166-0.752-0.313-0.752-0.313
		c-0.332,0.166-0.508,0.313-0.606,0.43c0.85,0.342,1.026,1.367,1.026,1.367c0.508-0.664,1.201,0.01,1.875,0.967
		c0.664,0.947-0.322,1.758-0.322,1.758c0.694,0.606-0.361,1.026-0.361,1.026c0.567,0.537,0.01,1.074-0.137,1.192
		c0.674-0.547,0.996,0.117,0.996,0.117c0.987,0.166-0.049,0.947-0.049,0.947c-0.361,0.147-0.586-0.234-0.586-0.234
		c-0.908,0.449-0.41,0.703-0.41,0.703c0.694-0.156,0.283,0.43,0.283,0.43l-0.42,0.059l-0.498,0.273l0.029,0.166l0.381-0.049
		l0.039,0.293l-0.449,0.205l0.137,0.332c0.518,0.723-1.211,1.074-1.211,1.074c-0.264,2.188-2.315,1.407-2.784,1.182
		c-0.361,0.176-0.762,0.293-1.172,0.352c-1.045,0.137-2.041-0.127-2.833-0.684L100.716,158.532z"/>
	<path style="fill:#4E342E;" d="M80.741,192.924c0,0-0.186-1.045,0.107-4.601l-1.016-11.497c0,0-0.176-4.229,0.371-5.45
		c0,0,8.283-8.039,9.963-8.478c0,0,1.201-10.53,2.715-10.745l-1.504-0.889c0,0-1.348,9.944-2.325,11.467
		c0,0-3.829-14.378-3.233-15.892l-0.557,0.43c0,0,1.797,14.349,1.465,15.345l-2.452,2.52c0,0-0.83,2.54-1.338,1.387
		c0,0-4.669-2.852-2.354-17.856l-1.885-1.221l-1.553,9.875c0,0,1.074,0,0.596,2.51c0,0,1.905,5.968,1.612,6.554
		c0,0-0.459,2.842-1.7,2.012l-2.618-6.183c0,0-2.198-8.82-0.713-10.178l-0.567-0.713c0,0-0.987,4.376-0.195,7.58
		c0,0-4.005-4.444-5.245-4.435l0.029,0.801c0,0,0.762-1.582,4.903,4.464c0,0,2.842,8.01,2.94,9.582c0,0-0.332,4.786-0.127,5.695
		c0,0,2.491,12.786-1.621,16.635L80.741,192.924z"/>
	<path style="fill:#9BCB64;" d="M420.163,185.335c0.059,0.244-0.156,0.449-0.225,0.508c0.41-0.332,0.596,0.068,0.596,0.068
		c0.596,0.098-0.029,0.567-0.029,0.567c-0.205,0.078-0.352-0.147-0.352-0.147c-0.537,0.264-0.234,0.42-0.234,0.42
		c0.4-0.098,0.156,0.254,0.156,0.254l-0.244,0.039l-0.293,0.156l0.02,0.107l0.215-0.029l0.029,0.176l-0.264,0.117l0.078,0.195
		c0.303,0.44-0.723,0.645-0.723,0.645c-0.156,1.309-1.377,0.84-1.661,0.703c-0.225,0.107-0.459,0.186-0.703,0.215
		c-0.625,0.088-1.221-0.078-1.69-0.41c-0.361,0.068-0.752-0.029-0.752-0.029c-0.41,0.039-0.244-0.567-0.244-0.567
		c-0.332,0.674-0.801,0.088-0.801,0.088c-0.449-0.479,0.088-0.772,0.088-0.772c-0.264-0.293,0.098-0.527,0.098-0.527
		c-0.684-0.137-0.84-0.488-0.879-0.703c-0.283-0.098-0.527-0.195-0.664-0.254c-0.537,0.254-1.123,0.43-1.739,0.518
		c-1.534,0.205-3.008-0.195-4.171-1.026c-0.899,0.176-1.866-0.068-1.866-0.068c-1.026,0.098-0.615-1.407-0.615-1.407
		c-0.557,1.153-1.28,0.83-1.68,0.508c0.078,0.361-0.772,0.537-0.772,0.537c-0.166,1.299-1.387,0.83-1.67,0.703
		c-0.215,0.098-0.449,0.176-0.703,0.205c-0.615,0.088-1.211-0.078-1.68-0.41c-0.361,0.068-0.752-0.029-0.752-0.029
		c-0.42,0.039-0.254-0.567-0.254-0.567c-0.322,0.674-0.801,0.088-0.801,0.088c-0.449-0.479,0.107-0.762,0.107-0.762
		c-0.264-0.303,0.088-0.547,0.088-0.547c-1.026-0.186-0.879-0.879-0.879-0.879c-0.469-0.606-0.01-1.133-0.01-1.133
		c-0.059-0.049-0.107-0.107-0.137-0.156c-0.576,0.049-1.133-0.107-1.573-0.42c-0.361,0.068-0.752-0.039-0.752-0.039
		c-0.42,0.049-0.254-0.567-0.254-0.567c-0.332,0.684-0.801,0.098-0.801,0.098c-0.459-0.488,0.088-0.772,0.088-0.772
		c-0.264-0.303,0.098-0.547,0.098-0.547c-1.026-0.195-0.879-0.889-0.879-0.889c-0.469-0.615-0.01-1.143-0.01-1.143
		c-0.41-0.332-0.039-0.664-0.039-0.664c-0.127-0.4,0.449-0.391,0.449-0.391c-0.576-1.094,0.449-1.221,0.449-1.221
		c0.186-0.527,0.645-0.205,0.645-0.205c0.225-0.586,1.026-0.147,1.026-0.147c-0.234-0.508,0.518-0.508,0.518-0.508
		c0.147-0.078,0.273-0.088,0.391-0.059c0-0.068,0.01-0.107,0.01-0.107c-0.469-0.615-0.01-1.133-0.01-1.133
		c-0.4-0.342-0.029-0.674-0.029-0.674c-0.059-0.166,0.02-0.273,0.117-0.322c-0.449-1.055,0.283-1.885,0.283-1.885
		c-0.86-0.703-0.068-1.397-0.068-1.397c-0.283-0.85,0.928-0.82,0.928-0.82c-1.211-2.305,0.928-2.559,0.928-2.559
		c0.391-1.114,1.348-0.44,1.348-0.44c0.488-1.221,2.168-0.293,2.168-0.293c-0.498-1.055,1.084-1.065,1.084-1.065
		c1.055-0.596,1.797,0.664,1.797,0.664c0.625-0.82,1.153-1.104,1.563-1.123c-0.352-1.143,0.811-1.289,0.811-1.289
		c0.254-0.742,0.899-0.293,0.899-0.293c0.322-0.811,1.446-0.195,1.446-0.195c-0.332-0.703,0.723-0.713,0.723-0.713
		c0.713-0.391,1.211,0.449,1.211,0.449c1.25-1.641,1.866-0.088,1.866-0.088c2.129-1.045,2.481,0.928,2.481,0.928
		c0.43-0.557,1.016,0.01,1.573,0.811c0.371,0.537,0.137,1.016-0.068,1.28c0.371,0.205,0.586,0.586,0.586,0.586
		c1.67-2.168,2.471-0.117,2.471-0.117c2.813-1.387,3.272,1.231,3.272,1.231c0.567-0.742,1.338,0.01,2.081,1.065
		c0.742,1.065-0.361,1.963-0.361,1.963c0.781,0.674-0.4,1.133-0.4,1.133c0.635,0.596,0.01,1.201-0.147,1.338
		c0.742-0.606,1.104,0.127,1.104,0.127c1.104,0.176-0.059,1.055-0.059,1.055c-0.391,0.147-0.654-0.264-0.654-0.264
		c-0.537,0.264-0.625,0.469-0.596,0.606c1.377-0.322,1.621,1.065,1.621,1.065c0.391-0.498,0.918,0.01,1.426,0.733
		c0.508,0.723-0.244,1.338-0.244,1.338c0.537,0.469-0.273,0.781-0.273,0.781c0.43,0.41,0,0.82-0.107,0.908
		c0.518-0.41,0.762,0.098,0.762,0.098c0.752,0.117-0.039,0.723-0.039,0.723c-0.273,0.098-0.449-0.186-0.449-0.186
		c-0.195,0.098-0.303,0.186-0.361,0.254c0.508,0.205,0.615,0.82,0.615,0.82c0.303-0.4,0.723,0.01,1.123,0.576
		s-0.195,1.055-0.195,1.055c0.42,0.371-0.215,0.615-0.215,0.615c0.342,0.322,0,0.654-0.088,0.723
		c0.41-0.332,0.606,0.068,0.606,0.068c0.586,0.098-0.029,0.567-0.029,0.567c-0.215,0.088-0.352-0.137-0.352-0.137
		c-0.547,0.264-0.244,0.42-0.244,0.42c0.41-0.088,0.166,0.254,0.166,0.254l-0.254,0.039l-0.293,0.166l0.02,0.098l0.225-0.029
		l0.02,0.176l-0.264,0.127l0.078,0.195c0.313,0.44-0.723,0.654-0.723,0.654c-0.166,1.299-1.397,0.83-1.67,0.703
		c-0.225,0.098-0.459,0.176-0.713,0.205c-0.625,0.088-1.221-0.078-1.7-0.41L420.163,185.335z"/>
	<path style="fill:#4E342E;" d="M408.168,205.984c0,0-0.107-0.625,0.068-2.764l-0.615-6.896c0,0-0.107-2.54,0.225-3.272
		c0,0,4.972-4.825,5.978-5.099c0,0,0.723-6.32,1.631-6.447l-0.899-0.527c0,0-0.811,5.968-1.397,6.877c0,0-2.295-8.625-1.944-9.533
		l-0.332,0.254c0,0,1.084,8.615,0.879,9.211l-1.465,1.514c0,0-0.508,1.524-0.811,0.83c0,0-2.803-1.709-1.416-10.715l-1.123-0.733
		l-0.938,5.929c0,0,0.645,0,0.361,1.504c0,0,1.143,3.585,0.967,3.936c0,0-0.273,1.709-1.026,1.211l-1.563-3.712
		c0,0-1.328-5.294-0.43-6.115l-0.342-0.43c0,0-0.596,2.628-0.117,4.552c0,0-2.403-2.667-3.155-2.667l0.02,0.488
		c0,0,0.459-0.947,2.94,2.676c0,0,1.719,4.816,1.768,5.753c0,0-0.195,2.872-0.068,3.419c0,0,1.485,7.678-0.977,9.983
		L408.168,205.984z"/>
</g>
<path style="fill:#7CB142;" d="M127.001,375.866l7.463,0.713l4.864-3.253l2.823,5.763l5.636-4.796l2.618,14.574l1.485-1.27
	l4.835-4.337l3.018,8.391l5.226-2.276l0.313,1.143l7.072-1.885l-3.976,14.095l0.42-0.117l1.338,0.83l5.656-1.485l1.494,11.614
	l5.665-1.494l1.26,1.494c0.107,0.195,0.215,0.381,0.322,0.576l0.137,0.322l6.359,1.446l-3.36,5.783l8.185,0.576l-11.018,12.161
	l1.494,0.107l6.349-0.83l-1.084,3.809l6.857,1.485l-8.84,10.92l0.147,0.029l5.997,0.547l-2.579,6.73l6.828,1.778l-5.714,6.466
	l0.264,2.247l5.568,3.341l-0.625,0.557l4.816,5.411l-14.271,2.501l2.52,2.833l5.558,3.858l-1.367,0.947l5.284,6.036l-9.104,0.381
	l-1.358,0.059l-4.102,0.176l-0.723,0.029l-0.742,0.029l0.186,0.205l6.701,2.208l-6.222,6.203
	c-46.895-13.157-88.34-39.335-120.193-74.392l4.601-0.733l-0.4-0.469l-0.068-0.078l-5.187-3.409l5.831-4.181l-4.444-5.109
	l3.145-0.967l-4.044-6.964l6.925,1.133l7.941,1.299l1.026,0.166l-0.244-0.41l0.83-3.116l0.156-0.322l-2.823-5.753l6.945-1.25
	l-4.083-7.179l7.17,1.133l-1.719-7.043l11.008,4.317l-1.231-6.437l7.326,1.504l1.055-5.675l10.862,3.888l1.055-5.675l1.729-0.176
	L127.001,375.866z"/>
<g>
</g>
<g>
</g>
<g>
</g>
<g>
</g>
<g>
</g>
<g>
</g>
<g>
</g>
<g>
</g>
<g>
</g>
<g>
</g>
<g>
</g>
<g>
</g>
<g>
</g>
<g>
</g>
<g>
</g>
</svg>
