<?xml version="1.0" encoding="iso-8859-1"?>
<!-- Generator: Adobe Illustrator 19.0.0, SVG Export Plug-In . SVG Version: 6.00 Build 0)  -->
<svg version="1.1" id="Layer_1" xmlns="http://www.w3.org/2000/svg" xmlns:xlink="http://www.w3.org/1999/xlink" x="0px" y="0px"
	 viewBox="0 0 512 512" style="enable-background:new 0 0 512 512;" xml:space="preserve">
<path style="fill:#F3F3F3;" d="M381.055,76.452c3.81,0,6.898,1.462,6.898,3.262c0,1.804-3.088,3.266-6.898,3.266
	s-6.898-1.462-6.898-3.266C374.157,77.914,377.245,76.452,381.055,76.452z"/>
<path style="fill:#B1E9F1;" d="M255.998,0C397.386,0,512,114.614,512,255.998C512,397.386,397.386,512,255.998,512
	C114.614,512,0,397.386,0,255.998C0,114.614,114.614,0,255.998,0z"/>
<path style="fill:#64B3F5;" d="M0.439,270.858h511.123c-1.174,20.447-4.742,40.25-10.434,59.13h-45.846l-7.939,6.267l-7.039,3.284
	l3.362-15.171l-7.044,3.284l-5.975,3.371l-2.832,4.134l-8.287-9.401l-3.545,5.171l-0.311-0.206l-0.544-0.352l-0.53-0.347
	l-2.129-1.389l-2.142-1.672l-3.878,3.024h-0.041H10.872C5.18,311.108,1.613,291.305,0.439,270.858z"/>
<path style="fill:#7CB142;" d="M9.648,325.849h12.444l3.878-6.925l2.567,4.582l4.417-4.865l3.869,12.562l2.348-2.59l0.621-0.096
	l3.083-5.61l9.177,8.931l3.083-5.61l2.832-0.379h30.337l3.878-3.632l7.757,7.263l3.878-3.632h1.087h316.041l3.878-6.45l7.757,12.9
	l1.818-3.029l2.535-7.825l10.196,12.919l1.603-4.961l3.266-0.617l2.64-7.638l10.018,12.686l0.174-0.503l-0.882-7.528l13.129,7.583
	l-0.877-7.528l7.432-0.009l3.878-6.688l7.757,13.38l3.878-6.692h3.202c-18.19,64.283-60.87,118.273-117.319,151.283
	c-31.241,15.728-65.735,25.933-102.212,29.337c-1.165,0.114-2.325,0.215-3.499,0.315l-2.535,0.196
	c-1.795,0.128-3.6,0.242-5.395,0.352l-1.722,0.078c-2.024,0.096-4.043,0.169-6.085,0.238l-1.032,0.023
	c-2.142,0.037-4.303,0.073-6.468,0.073l-0.333,0.005c-0.745,0-1.503-0.014-2.248-0.032c-1.535-0.009-3.061-0.023-4.586-0.046
	c-1.325-0.041-2.636-0.1-3.961-0.137c-0.959-0.055-1.919-0.064-2.869-0.11c-1.485-0.078-2.951-0.155-4.427-0.256l-2.284-0.146
	c-1.731-0.123-3.463-0.265-5.18-0.407l-1.087-0.1c-35.27-3.239-68.695-12.841-99.128-27.642
	C72.039,446.036,28.162,391.274,9.648,325.849z"/>
<path style="fill:#ADD37F;" d="M18.688,352.148h24.037l3.878-5.454l3.545,4.984l6.007,0.155l3.965-5.267l7.579,10.799l3.965-5.267
	l3.042,0.05h0.576l3.878-4.513l5.276,6.144l18.318-1.631h306.576l3.705-7.304l6.976,14.824l3.705-7.3l4.984-0.936l0.338-0.594
	l3.458,7.816l0.434,1.795l4.436-5.642l0.571-0.128l0.146-0.018l2.91-7.629l1.302,1.8l5.76-4.961l0.082,4.011l0.224,11.005
	l0.005,0.187l0.078-0.069l1.023-7.007l3.595,2.298l2.421-7.222l4.696,6.683l3.796-0.32l3.321-7.633l8.821,14.12l3.33-7.633
	l2.805-0.073l0.132,0.123l4.975,0.393l1.297,9.899l0.128,0.009C448.343,450.783,359.324,512,255.998,512
	C148.624,512,56.709,445.885,18.688,352.148z"/>
<path style="fill:#7CB142;" d="M260.959,376.34c100.645,0,182.236,20.922,182.236,46.727c0,25.805-81.591,46.727-182.236,46.727
	S78.722,448.873,78.722,423.068C78.722,397.262,160.314,376.34,260.959,376.34z"/>
<polygon style="fill:#FFFFFF;" points="230.914,100.229 336.397,90.065 349.402,224.976 243.915,235.14 "/>
<polygon style="fill:#F3F3F3;" points="240.973,109.772 328.348,101.353 337.731,198.686 250.352,207.105 "/>
<polygon style="fill:#FFFFFF;" points="205.744,87.955 306.877,119.607 266.39,248.958 165.261,217.301 "/>
<path style="fill:#FF1644;" d="M259.579,137.45c-3.472-1.087-7.062-0.662-10.045,0.9c-2.942,1.539-5.308,4.184-6.418,7.579
	c1.023-3.422,0.585-6.944-0.955-9.885c-1.562-2.988-4.267-5.381-7.738-6.468c-3.476-1.087-7.062-0.662-10.05,0.9
	c-23.412,12.252,2.942,44.187,5.811,56.869c9.214-8.442,46.335-19.145,38.34-40.743c-0.324-0.877-0.722-1.768-1.197-2.681
	C265.764,140.931,263.055,138.538,259.579,137.45z"/>
<polygon style="fill:#F3F3F3;" points="211.299,100.654 295.069,126.875 265.865,220.197 182.09,193.976 "/>
<g>
	<path style="fill:#0287CF;" d="M124.317,155.988c-6.669,22.736,4.979,40.697,8.108,63.008c3.129,22.315,30.131,19.058,33.452,4.838
		c3.321-14.225-6.724-20.954-0.096-42.063C178.888,123.138,130.982,133.252,124.317,155.988z"/>
	<path style="fill:#0287CF;" d="M227.214,152.571c8.14,16.057-3.591,53.881-2.471,68.243c1.215,14.138-24.385,17.336-28.665,5.756
		c-4.271-11.58-0.055-14.198-5.934-30.584c-8.337-31.671-5.358-42.159,1.608-49.916
		C199.467,137.487,219.078,136.518,227.214,152.571z"/>
</g>
<path style="fill:#81AFFF;" d="M230.731,149.213c8.14,16.057-3.595,53.881-2.467,68.243c1.211,14.138-24.394,17.331-28.665,5.756
	c-4.28-11.58-0.059-14.202-5.939-30.588c-8.332-31.671-5.358-42.155,1.608-49.916C202.985,134.125,222.596,133.161,230.731,149.213z
	 M127.464,153.055c-6.665,22.736,4.984,40.702,8.113,63.013s30.131,19.058,33.452,4.833c3.321-14.221-6.724-20.954-0.096-42.059
	C182.044,120.21,134.134,130.319,127.464,153.055z"/>
<path style="fill:#FFFFFF;" d="M126.866,155.298h44.037c0.265,2.385,0.347,5.007,0.228,7.88h-45.531
	C125.802,160.606,126.208,157.989,126.866,155.298z M189.148,155.298h43.603c0.493,2.417,0.754,5.071,0.841,7.88h-44.978
	C188.558,160.181,188.746,157.587,189.148,155.298z M233.427,171.373c-0.155,2.581-0.407,5.221-0.713,7.88h-42.159
	c-0.553-2.846-0.987-5.463-1.297-7.88H233.427z M231.645,187.448c-0.388,2.668-0.795,5.313-1.188,7.875h-35.878
	c-0.274-0.859-0.58-1.754-0.918-2.7c-0.471-1.791-0.904-3.517-1.302-5.176H231.645z M229.247,203.519
	c-0.393,2.846-0.713,5.5-0.891,7.88h-31.04c-0.123-2.366-0.196-4.801-0.703-7.88H229.247z M228.237,219.594
	c-0.388,3.426-2.471,6.076-5.363,7.88h-20.022c-1.466-1.092-2.604-2.508-3.253-4.262c-0.484-1.311-0.863-2.503-1.156-3.618H228.237z
	 M192.035,147.107c0.932-1.613,2.024-3.047,3.234-4.399c1.233-1.366,2.759-2.535,4.5-3.481h21.402
	c3.193,1.699,6.103,4.276,8.369,7.88H192.035z M125.596,171.373c0.196,2.659,0.571,5.276,1.06,7.88h42.15l0.128-0.411
	c0.585-2.631,1.051-5.112,1.398-7.469H125.596z M128.542,187.448c0.69,2.613,1.439,5.235,2.193,7.875h35.969
	c-0.16-2.38-0.114-4.975,0.274-7.875H128.542z M132.992,203.519c0.667,2.581,1.288,5.203,1.804,7.88h34.699
	c-0.32-2.65-0.946-5.194-1.526-7.88H132.992z M136.327,219.594c0.968,3.316,2.549,5.92,4.509,7.88h24.33
	c1.878-1.772,3.266-3.993,3.865-6.574c0.105-0.443,0.196-0.877,0.274-1.306H136.327z M169.002,147.107
	c-1.306-3.399-3.147-5.989-5.322-7.88h-25.047c-3.298,2.037-6.213,4.737-8.328,7.88H169.002z"/>
<g>
	<path style="fill:#606060;" d="M200.317,198.887c-0.027-0.064-10.059-22.63-4.947-39.533c5.262-17.405,21.79-13.883,24.088-13.307
		c2.622-0.137,20.1-0.429,20.424,16.043c0.32,17.03-17.071,37.267-16.961,37.171c-0.955,0.873-3.7-0.978-2.851-2.083
		c0.05-0.05,16.007-18.647,15.705-34.019c-0.238-12.416-12.613-13.206-16.34-13.17l-5.829,4.586
		c-0.873,1.11-3.773-0.735-2.942-1.973l4.591-3.083c-4.308-0.498-12.905-0.114-15.966,10.027
		c-4.701,15.527,6.076,36.974,6.103,37.038C205.04,199.125,200.988,200.029,200.317,198.887z"/>
	<path style="fill:#606060;" d="M139.533,202.117c-0.027-0.069-10.516-25.39-5.194-42.986c5.482-18.117,22.681-14.454,25.074-13.851
		c2.732-0.142,20.927-0.448,21.26,16.701c0.333,17.724-17.765,38.793-17.656,38.692c-0.991,0.909-3.851-1.014-2.96-2.17
		c0.046-0.055,16.655-19.41,16.345-35.412c-0.251-12.923-13.129-13.75-17.012-13.709l-6.807,5.482
		c-0.909,1.156-3.933-0.763-3.061-2.056l5.518-3.919c-4.486-0.516-13.43-0.114-16.623,10.438
		c-4.888,16.167,5.13,40.446,5.162,40.515C143.215,202.491,140.237,203.304,139.533,202.117z"/>
</g>
<path style="fill:#3E2622;" d="M436.297,94.058l8.136-1.005l-7.167,2.928c-0.014,0.023-0.027,0.119-0.041,0.146
	c-0.283,0.64,1.74,0.046-0.754,0.777c-1.964,0.58-2.974,0.713-4.819,1.334c-1.498,0.502-3.782,1.169-4.861,1.882l7.903-0.758
	c-2.083,1.147-4.518,1.576-6.921,2.535c-1.16,0.466-2.325,0.863-3.453,1.265c-2.549,0.909-4.458,2.051-6.692,3.458
	c-1.265,0.799-2.389,1.064-3.481,1.763c-1.421,0.909-3.983,5.084-4.769,6.893c2.595-2.814,6.564-6.103,10.013-7.834l1-0.434
	c-1.197,1.361-2.471,2.088-3.613,3.44c0.548-0.539,3.248-2.165,4.13-2.695c0.909-0.553,1.179-0.781,2.298-1.389
	c0.539-0.292,0.539-0.343,1.023-0.63l1.562-0.621c-2.275,2.704-6.592,4.81-9.081,8.063c1.503-0.439,2.723-1.448,4.198-2.174
	c3.074-1.512,10.383-4.838,13.476-5.441c-2.732,1.512-7.752,3.974-10.118,6.14c3.326-0.183,6.656-1.416,10.009-1.727
	c3.997-0.37,6.797-0.507,10.493,0.32c-2.161-0.603-13.243,1.576-15.111,2.403c4.025,0.338,17.409-4.787,22.932,1.786
	c-3.709-1.567-6.743-2.75-10.301-1.708c6.98,2.54,14.467,6.373,19.584,11.475c-3.632-3.221-11.726-6.733-16.774-7.962
	c-2.101-0.502-4.897-0.471-6.039-0.726c3.079,1.535,11.758,3.732,14.216,6.048c-0.073-0.091-0.713-0.402-1.558-0.649l0.621,0.868
	c-2.453-0.964-3.198-1.928-6.491-2.709c0.754,1.032,6.843,4.271,7.565,4.522c-4.596-1.535-14.961-6.473-19.469-5.537
	c3.568,1.151,13.494,3.417,15.687,5.495c-3.367-0.914-9.767-2.59-13.229-2.659l5.112,2.718l-7.039-2.083l4.107,2.225
	c-1.654-0.297-3.179-0.863-4.746-1.233c-2.736-0.649-3.175-0.85-4.573-0.585l4.317,1.466l-5.135-0.466l3.819,1.882
	c-0.087,0.018-0.201-0.055-0.279,0.041l-5.628-0.831c-1.526-0.178-4.23-0.164-5.258-0.329l6.985,3.412
	c-2.736-0.329-5.815-1.759-8.282-1.544l5.495,2.385c-2.069-0.164-4.395-1.165-6.436-0.699l2.695,1.069l-3.874,0.059
	c-1.475-0.041-2.901-0.037-4.162,0.16l3.175,1.37c-0.005,0-0.041,0.005-0.046,0.023c10.169,2.581,14.664,3.586,23.43,10.374
	c5.103,3.956,9.689,8.57,13.878,13.453l1.626,2.439c-2.033-1.357-5.642-5.363-7.976-7.405c-1.485-1.297-7.122-5.948-8.78-6.423
	c0.617,0.365,1.183,1.53,1.818,2.289c2.453,2.956,4.125,3.152,6.555,7.866c1.9,3.691,4.417,7.862,4.623,12.407
	c-1.905-3.591-3.088-7.396-6.112-10.511c0.206,1.457,0.516,1.846,0.576,3.371c-0.059-0.078-0.105-0.301-0.155-0.251l-1.663-1.996
	c-0.343-0.206-0.347-0.384-0.539-0.79c-1.745-3.65-5.262-9.849-8.794-12.128c1.348,3.284,4.212,5.4,6.172,12.16
	c-0.763-1.686-4.847-8.583-6.902-9.917c0.95,0.74,3.449,6.418,3.664,8.259c-1.85-2.421-3.326-7.661-8.355-11.448
	c1.535,2.65,4.066,5.157,4.321,8.081c-2.028-2.86-6.656-10.114-11.192-11.63c2.453,0.786,7.985,7.761,8.474,10.338
	c-2.225-2.435-4.061-5.537-7.505-7.592c1.859,3.12,7.021,7.693,8.346,12.156c-2.353-2.983-5.651-7.981-9.1-10.562l2.211,3.079
	c0.082,0.123,0.343,0.589,0.384,0.681c0.288,0.603,0.119,0.128,0.32,0.818c-1.252-0.991-1.393-1.613-2.681-2.586
	c0.192,0.443,0.096,0.288,0.407,0.767c0.279,0.434,0.343,0.484,0.626,0.831l3.179,4.641c1.457,2.732,2.243,3.627,3.23,6.861
	c-0.534-0.64-2.371-3.892-2.691-4.682l-0.416,0.078c-0.018,0-0.11,0.018-0.123,0.018c-1.453,0.247,1.023,0.37-0.274,0.037
	c-0.927-1.877-4.961-6.628-7.597-8.122l5.678,6.907c0.713,0.955,1.421,1.731,1.754,2.864c-2.832-2.398-5.445-6.176-8.634-8.922
	c-2.627-2.257-7.743-6.167-11.384-7.071c4.194,1.434,17.994,15.308,20.451,21.146c-3.239-3.138-11.343-13.691-15.851-15.262
	c2.211,0.635,7.373,7.222,9.086,9.552c0.959,1.306,1.407,2.613,2.563,3.609c3.746,3.221,7.012,6.012,10.228,9.561
	c3.454,3.814,2.741,1.827,6.034,6.77c0.818,1.229,1.503,2.471,2.311,3.746c3.376,5.322,6.724,11.731,8.506,17.765
	c0.608,2.047,1.453,4.066,1.677,6.208c0.046-0.799-0.471-1.654-0.777-2.581c-1.133-3.444-1.06-1.676-1.841-3.399
	c-2.321-5.121-5.564-9.689-9.269-13.837c0.562,0.973,1.169,2.202,1.887,3.367c1.708,2.764,3.81,8.949,4.532,12.151
	c1.01,4.472,2.704,13.019,1.736,18.263c-0.831-3.472-0.763-13.225-3.801-18.839c-0.1,4.34,1.188,10.082-0.05,14.91
	c-0.123-4.97-1.297-19.145-4.107-24.005c-0.493-0.85,0-0.215-0.694-0.936c-0.014,3.12,4.207,15.303,2.047,24.339
	c0.612-7.629-1.585-15.664-3.659-22.795c-0.196-0.667-0.142-0.85-0.471-1.631l-1.014-1.622c0.037,5.578,2.508,10.799,1.302,17.354
	c-0.151-0.566,0,0.411-0.169-0.822c-0.571-4.198-0.544-8.419-1.613-12.526l-0.918-1.978c-0.306,2.837,1.22,7.807,0.53,11.311
	c0.384-0.868-0.265-3.353-0.434-4.596c-0.11-0.781-0.228-1.489-0.37-2.261c-0.187-1.005-0.196-1.658-0.333-2.554
	c-0.356-2.33-1.238-4.436-1.804-6.72c-0.096-0.397-0.164-0.841-0.297-1.206l-0.635-1.206c0.132,5.03,2.905,15.125,1.252,23.243
	c0.767-3.289-0.662-11.201-1.562-14.746c-0.694-2.718-1.338-6.039-2.375-8.625c-0.128,2.302,0.658,6.596,0.233,8.474
	c-0.452-0.023,0.621,0.228-0.142-0.384c-0.873-0.703,0.452-0.521-0.676-0.251c0.096,1.786,0.434,4.481,0.059,6.487
	c-0.516-3.097-0.521-6.391-0.914-9.493c-0.315-2.494-1.169-7.094-1.905-9.127c-0.037,2.298,1.27,7.081,0.448,8.351
	c-0.635,0.982,0.155,6.574-0.553,9.305c-0.183-1.174-0.201-3.394-0.206-4.714c-0.023-4.458-1.444-9.278-2.302-13.38l-0.315,3.874
	c-0.466,4.079,0.411,8.83-0.471,13.348c-0.023-0.091-0.018-0.32-0.055-0.279c-0.041,0.046-0.05-0.21-0.059-0.274
	c-0.886-6.688,0.722-11.905-3.083-20.255c0.128,5.509,2.216,13.563,1.137,19.14c-0.722-5.802-1.133-15.906-3.805-19.638
	c0.05,4.23,1.311,10.118,0.407,14.586c-0.365-3.408-0.548-7.049-1.156-10.507c-0.434-2.453-2.27-8.684-2.289-10.361
	c-0.42,0.384-0.224,0.069-0.53,0.863c-0.448,1.179,0.27,2.206,0.434,3.371c0.26,1.855-0.21,0.324-0.137,1.96
	c0.178,3.965,1.38,9.04,0.64,13.024c-0.63-2.8-0.749-7.085-1.357-10.223c-0.192-1-0.224-2.713-0.886-3.549
	c-0.018-0.023-0.087-0.082-0.11-0.096l-0.26-0.091c-0.79-0.393-1.786-3.394-2.366-4.326c0.123,2.713,0.676,8.456,0.105,11.128
	c-1.672-8.25,0.393-6.519-3.184-15.765c-0.228-0.589-0.786-1.585-0.886-2.01c-0.178,1.32,0.457,4.344,0.786,5.875
	c0.329,1.507,0.434,4.235,0.708,6.181c0.365,2.572,1.051,10.114,0.589,12.649c-0.388-2.896-0.653-5.82-1.151-8.83
	c-0.416-2.54-1.023-6.807-1.873-8.848c-0.265,2.028-0.078,4.883-0.233,7.19c-0.16,2.371-0.352,5.573-0.9,7.843
	c-0.85-5.683,0.621-11.489-1.243-18.693c-0.749,4.582-0.178,10.849-1.279,15.701l-0.251-1.416
	c-0.457-3.586-1.284-17.752-2.96-19.826c-0.151,3.115,0.434,6.944,0.388,10.534c-0.046,3.33-0.132,8.296-1.005,11.612
	c-0.037-0.1-0.046-0.343-0.087-0.301l-0.343-11.411c-0.301-3.942-0.909-7.382-1.498-11.032l-0.078,9.305
	c-0.416-0.228-0.48-0.9-0.566-1.284l-0.672-4.276c-0.306-1.919-0.375-3.604-0.895-5.559c-9.904,37.678-27.943,69.422-46.604,99.147
	c-1.325-3.426-2.581-6.893-3.76-10.392c18.716-27.034,37.248-60.048,43.53-92.591c-2.439,1.434-8.355,4.203-9.716,7.25
	c-1.983,4.449-2.946,8.858-4.582,13.339c0.393-2.458,2.156-8.332,1.836-10.347c-2.965,5.377-3.655,9.949-5.733,15.468l1.704-8.602
	l-2.681,6.318c-0.375-4.093,5.162-13.33,6.647-17.861c-3.956,5.02-5.957,11.932-8.51,18.259c-0.224-3.056,2.421-8.885,3.234-12.256
	c-2.54,4.28-2.768,5.121-4.573,9.246l1.517-6.121c-1.786,1.896-4.422,8.908-5.628,11.959c1.11-4.87,3.23-9.689,4.966-14.166
	l-0.708,0.589c-2.43,2.586-5.911,10.392-7.222,13.535c0.379-0.662,1.494-4.413,2.001-5.678c0.845-2.115,1.804-4.029,2.572-6.135
	c-2.992,2.709-4.509,9.931-6.925,13.485c1.348-4.733,3.065-9.442,5.372-13.764c0.466-0.882,1.412-2.165,1.617-3.243
	c0.338-1.768,0.238-0.434-0.073-1.316c-1.882,3.344-4.02,6.345-6.076,10.338c-1.873,3.636-3.787,7.789-5.331,11.63
	c0.005-0.005,4.879-13.042,5.226-14.234c-1.183,2.248-6.359,11.384-6.272,13.513c1.275-5.491,2.805-8.922,4.865-13.969
	c-3.485,2.444-9.223,17.528-10.406,20.748c0.27-3.732,2.435-8.044,3.517-11.799c-0.37,1.064-3.677,8.867-4.605,9.707
	c1.48-5.112,3.536-9.419,5.235-14.257c-2.316,0.854-5.253,8.721-6.514,11.512c-0.311,0.69-0.557,1.311-0.827,1.969
	c-0.991,2.421-0.027,1.064-1.252,2.165l3.65-10.635c-0.037,0.078-0.105,0.087-0.174,0.219c-0.064,0.132-0.16,0.155-0.206,0.21
	c-1.53,1.836-4.824,9.917-7.469,15.162l-0.119-0.836l4.02-10.932c-1.681,1.124-3.211,3.531-4.568,6.304
	c-0.388-3.513-0.703-7.039-0.95-10.598c0.69-0.703,1.348-1.416,1.937-2.138c-0.699,0.329-1.361,0.694-2.005,1.087l-0.123-1.941
	c2.033-1.576,4.363-3.17,5.98-4.979c-2.005,0.758-3.326,2.512-5.244,3.54c-0.073,0.037-0.201,0.096-0.265,0.123
	c-0.059,0.032-0.174,0.087-0.265,0.123c1.923-2.49,5.569-5.619,7.939-7.346c1.905-1.384,1.169-2.22,4.015-3.933
	c4.545-2.736,9.145-5.623,14.084-7.72l9.493-4.289c-3.467,0.585-7.035,2.06-10.571,2.554c0.703-0.703,0.014-0.21,0.932-0.699
	c0.416-0.224,0.461-0.178,0.941-0.352c0.836-0.311,1.256-0.562,2.01-0.831c3.422-1.22,8.227-3.28,11.781-3.796
	c-3.065-0.128-6.368,1.466-9.132,1.645c1.302-0.868,2.375-1.571,3.344-2.864c-0.836,0.388-2.015,1.078-2.8,1.745l2.243-2.86
	c-1.192,0.228-4.669,2.563-5.738,4.111c-0.005-0.087,0.05-0.297,0.032-0.251l0.123-0.708c0.142-0.612,0.174-0.018,0.219-0.804
	l-3.778,3.746c0.905-2.334,2.855-4.267,4.084-6.235c-1.594,0.854-8.858,6.921-10.319,8.762l1.795-2.832
	c-2.106,1.809-7.039,6.656-8.341,9.292c0.589-0.991,1.128-2.458,1.782-3.604c0.79-1.389,1.759-2.608,2.407-3.965
	c-0.539,0.347-1.279,0.904-1.8,1.348c1.115-2.261,3.093-4.093,4.472-6.025c-4.207,1.75-8.323,6.555-11.142,10.265
	c-1.105,1.457-2.051,3.417-3.216,4.778c0.466-1.782,1.457-3.271,2.156-4.883l0.256-1.699l-5.084,6.021
	c0.863-2.7,4.888-8.191,6.683-10.297c3.006-3.536,5.244-5.258,8.337-7.816c3.659-3.024,5.043-3.686,9.191-5.55
	c1.786-0.795,3.015-1.448,4.911-2.152l3.878-1.265c1.699-0.982-0.333,0.576,0.238-0.256c0.005-0.009,0.037-0.082,0.041-0.091
	l8.191-0.809c-1.827-1.567-4.682-1.645-6.893-2.449c-0.082-0.027-0.174-0.069-0.247-0.101c-0.069-0.032-0.164-0.087-0.228-0.119
	L368.296,130c3.842,0.301,5.642,0.882,9.538,1.992c-5.527-3.6-12.699-4.518-18.565-4.783c2.873-0.064,6.546-0.343,9.707,0.123
	c0.621,0.091,1.238,0.256,1.763,0.333l1.928-0.009c-5.623-2.165-10.516-2.75-15.746-3.074c2.522,0.192,9.145-0.621,11.905,0.393
	c-5.235-2.49-9.62-1.562-14.102-2.462c3.851-0.53,6.409-0.425,10.525-0.11c-3.358-3.207-10.648-2.494-14.412-2.371l6.596-1.051
	c-3.531-1.507-7.547-2.645-11.027-2.343l0.219-0.672l1.754-0.439c-4.637-1.8-8.36-2.608-12.16-3.074l0.201-1.051
	c3.047,0.091,6.103,0.507,10.612,1.334c-2.485-2.024-6.414-2.997-10.15-3.728l0.224-1.032c5.08,0.895,11.059,3.294,15.066,4.701
	c-3.056-2.736-10.265-4.596-14.728-6.245l0.037-0.169l0.461-0.018c3.531,0.301,7.163,2.165,10.534,2.819
	c-2.49-2.015-7.039-3.636-10.539-4.902l0.005-0.018c3.773,1.206,4.765,0.393,13.202,4.143c3.947,1.759,8.816,5.221,12.051,6.464
	c-2.028-1.192-5.683-4.317-8.561-6.112c-2.741-1.713-7.711-3.974-9.927-5.605c3.504,1.133,7.907,3.298,11.059,5.057
	c2.787,1.562,7.46,4.618,9.913,5.669l-12.334-9.305c7.131,2.919,14.517,10.219,20.068,13.375
	c-2.188-2.398-9.246-9.666-12.462-10.735c2.937,0.964,7.19,4.262,9.497,6.144c3.02,2.471,5.125,5.025,7.551,7.204
	c-1.265-1.75-6.756-8.908-8.743-9.872c5.377,2.777,10.461,10.265,14.07,14.792c-0.484-3.577-3.326-7.03-5.605-10.045
	c-0.393-0.521-0.804-1.119-1.165-1.59l-1.032-1.539c-0.037-0.064-0.096-0.178-0.137-0.27l4.609,3.76
	c1.179,0.859,3.17,2.7,4.564,3.198c-0.653-0.365-4.079-4.792-5.358-5.354c2.197,0.608,4.194,2.526,6.089,3.481
	c-0.996-0.936-2.092-2.38-3.358-3.527c-0.63-0.576-1.32-1.179-2.015-1.708c-0.356-0.279-0.699-0.484-1.092-0.813l5.559,2.074
	c-0.717-0.64-1.594-1.932-2.453-2.823l-8.785-8.547l6.66,3.833c-1.686-1.96-4.76-4.746-6.898-6.359l1.361,0.375
	c0.978,0.146,0.343,0.105,0.795,0.032c-1.151-0.809-1.032-1.042-1.937-1.827c-1.992-1.736-4.641-4.006-7.199-4.824
	c0.672-0.032,0.466,0.087,1.019,0.101c1.092,0.027,0.146,0.242,1.105-0.059c-2.417-2.494-5.957-3.705-7.633-5.048
	c4.879-0.502,12.736,5.071,16.815,7.044c-0.525-0.936-1.306-1.558-2.43-2.152c10.091,5.459,8.414,6.861,12.393,9.419
	c-0.1-1.023-1.261-2.864-1.727-3.262c2.101,1.398,3.705,4.107,4.714,6.313l1.663,3.531c0.603,1.594,0.909,2.38,1.928,3.769
	c0.091-2.659-0.676-5.098-1.078-7.227c0.576,1.507,1.617,2.791,2.234,4.623c0.493,1.466,0.996,4.088,1.718,5.24
	c1.38-5.24,1.864-9.392,4.139-14.709l-0.027,1.539l2.686-4.911l-1.517,5.409c0.082-0.059,0.201-0.256,0.201-0.206
	c-0.009,0.786,0.292-0.347,0.352-0.425l1.507-1.8l-0.886,4.787l7.451-10.543l-2.558,4.865c1.823-1.704,4.504-5.189,6.61-6.519
	c1.416-0.891-0.562-0.251,0.489-0.046c0.429,0.078,2.019-2.197,2.366-2.604l-1.708,3.435c1.128-0.909,3.563-3.152,4.454-4.098
	l-3.001,4.235l6.962-5.463c0.516-0.265,0.242-0.132,0.795-0.32c-2.065,2.837-5.477,5.463-7.327,8.716
	c1.074-0.48,1.909-1.27,3.129-2.088l9.479-5.719c0.064-0.027,0.183-0.073,0.279-0.101c-1.782,1.978-4.577,4.07-6.555,5.678
	c2.17-0.425,6.66-2.476,8.255-3.6l0.009,1.069c1.53-0.667,4.586-1.384,6.423-1.571c-0.891,0.745-1.859,0.827-2.604,1.576
	c3.056-0.196,7.528-2.156,10.781-1.055C445.484,90.143,437.334,93.19,436.297,94.058z"/>
<g>
	<path style="fill:#FFFFFF;" d="M270.954,189.148c-6.825-6.345-8.611-11.557-7.725-16.153c3.929-5.203,9.62-12.293,11.576-15.92
		c0.155-0.283,0.311-0.571,0.475-0.863c3.938-3.298,8.963-3.275,20.904,7.821c17.765,16.509,10.9,19.364,4.349,26.413
		C293.973,197.507,279.793,197.366,270.954,189.148z"/>
	<path style="fill:#FFFFFF;" d="M316.375,231.357c-8.839-8.218-10.027-22.347-3.467-29.41c6.551-7.049,8.899-14.102,26.66,2.403
		c12.8,11.895,12.334,16.811,8.647,21.164c-3.367,2.197-9.534,7.894-14.294,12.092C329.22,239.256,323.642,238.113,316.375,231.357z
		"/>
</g>
<g>
	<path style="fill:#6B213C;" d="M298.934,190.235c-16.495,11.457-30.081-4.299-32.694-8.83c-1.147-1.996-4.116-8.232,5.98-20.616
		c7.021-8.615,11.283-5.573,17.304-1.252c4.906,3.499,8.561,7.346,10.872,10.141c2.33,2.777,7.25,9.789,5.788,12.576
		C304.721,185.041,302.524,187.732,298.934,190.235z M313.223,183.342c-0.845-1.215-2.558-4.481-4.495-7.615
		c-1.713-2.773-3.65-5.39-4.769-6.77c-2.723-3.348-10.392-11.069-15.792-15.207c-6.386-4.902-11.512-8.405-12.174-8.15l-4.874,5.162
		c0.027,0.909,0.813,3.39-0.228,5.317c-1.037,1.928-9.794,14.613-8.986,21.041c1.306,10.593,21.205,29.506,41.702,14.403
		c2.809-2.065,4.801-2.951,6.254-2.348c0.653,0.27,1.512,0.813,2.234,1.507l3.933-4.235
		C314.99,185.598,314.155,184.698,313.223,183.342z"/>
	<path style="fill:#6B213C;" d="M320.545,195.598c2.681-1.654,10.022,2.741,12.969,4.856c2.946,2.088,7.058,5.463,10.913,10.105
		c4.742,5.687,8.086,9.716,0.009,17.345c-11.608,10.973-18.044,8.469-20.123,7.473c-4.705-2.27-21.424-14.682-11.196-31.954
		C315.347,199.654,317.868,197.265,320.545,195.598z M315.639,186.092l-3.933,4.23c0.749,0.667,1.348,1.485,1.667,2.12
		c0.708,1.407-0.032,3.458-1.887,6.405c-13.554,21.552,6.756,40.012,17.427,40.547c6.464,0.329,18.469-9.337,20.319-10.511
		c1.85-1.183,4.381-0.571,5.29-0.617l4.787-5.24c0.215-0.676-3.668-5.532-9.013-11.539c-4.532-5.089-12.786-12.165-16.331-14.645
		c-1.448-1.01-4.212-2.75-7.099-4.253c-3.257-1.704-6.647-3.166-7.926-3.929C317.517,187.823,316.566,187.069,315.639,186.092z"/>
</g>
<g>
	<g>
		<path style="fill:#E47B0E;" d="M226.204,225.981c0,2.618-2.124,4.737-4.742,4.737c-2.618,0-4.737-2.12-4.737-4.737v-15.577
			c0-2.618,2.12-4.737,4.737-4.737c2.618,0,4.742,2.12,4.742,4.737V225.981z"/>
		<path style="fill:#E47B0E;" d="M294.594,225.981c0,2.618-2.124,4.737-4.742,4.737c-2.618,0-4.737-2.12-4.737-4.737v-15.577
			c0-2.618,2.12-4.737,4.737-4.737c2.618,0,4.742,2.12,4.742,4.737V225.981z"/>
	</g>
	<path style="fill:#FBD734;" d="M396.838,402.708c0,2.462-0.598,4.787-1.658,6.838c-3.75,2.755-7.583,5.409-11.489,7.953
		c-0.571,0.069-1.156,0.105-1.75,0.105H130.055c-8.227,0-14.897-6.669-14.897-14.897v-165.22c0-8.223,6.669-14.892,14.897-14.892
		h251.886c8.227,0,14.897,6.669,14.897,14.892V402.708z"/>
	<path style="fill:#FFEF76;" d="M377.208,258.108c-4.609-0.534-8.894-2.969-11.726-6.647c-1.855-2.426-2.997-5.153-3.431-8.168
		c-0.018-1.48-0.037-2.96-0.055-4.44v-0.009H149.309c0.333,2.887-0.023,5.692-1.087,8.419c-0.763,1.348-1.521,2.7-2.279,4.056
		c-2.759,3.659-6.907,6.098-11.443,6.738c-1.028,0.142-2.06,0.187-3.093,0.146v124.002c1.087-0.087,2.211-0.119,3.376-0.119
		c9.483,0,16.212,10.689,15.216,19.259c0,0,0,0.005,0,0.009H363.34c-0.114-1.147-0.114-2.28,0.014-3.38
		c0.539-4.614,2.969-8.894,6.647-11.731c3.335-2.563,6.72-3.284,10.589-3.444V258.168
		C379.465,258.259,378.337,258.241,377.208,258.108z"/>
	<g>
		<path style="fill:#F37E16;" d="M138.181,241.891c0,2.056-1.667,3.723-3.728,3.723c-2.056,0-3.723-1.667-3.723-3.723
			c0-2.056,1.667-3.723,3.723-3.723C136.514,238.168,138.181,239.836,138.181,241.891z"/>
		<path style="fill:#F37E16;" d="M138.181,396.952c0,2.056-1.667,3.723-3.728,3.723c-2.056,0-3.723-1.667-3.723-3.723
			c0-2.056,1.667-3.723,3.723-3.723C136.514,393.229,138.181,394.896,138.181,396.952z"/>
		<path style="fill:#F37E16;" d="M380.589,241.891c0,2.056-1.667,3.723-3.723,3.723c-2.06,0-3.728-1.667-3.728-3.723
			c0-2.056,1.667-3.723,3.728-3.723C378.921,238.168,380.589,239.836,380.589,241.891z"/>
		<path style="fill:#F37E16;" d="M380.589,396.952c0,2.056-1.667,3.723-3.723,3.723c-2.06,0-3.728-1.667-3.728-3.723
			c0-2.056,1.667-3.723,3.728-3.723C378.921,393.229,380.589,394.896,380.589,396.952z"/>
	</g>
	<path style="fill:#FFFFFF;" d="M212.454,290.757c-3.732,11.407-15.998,17.624-27.4,13.892c-11.407-3.728-17.624-15.998-13.896-27.4
		c3.732-11.402,16.002-17.624,27.404-13.892C209.965,267.085,216.186,279.355,212.454,290.757z"/>
	<path style="fill:#42A3F3;" d="M208.229,289.377c-2.956,9.022-12.699,13.933-21.767,10.968
		c-9.068-2.969-14.024-12.69-11.073-21.712c2.951-9.027,12.695-13.937,21.767-10.968C206.223,270.629,211.18,280.35,208.229,289.377
		z"/>
	<path style="fill:#64B3F5;" d="M205.867,288.605c-2.54,7.766-10.895,12-18.661,9.461c-7.766-2.54-12-10.895-9.461-18.661
		c2.544-7.766,10.895-12,18.661-9.461C204.172,272.484,208.407,280.839,205.867,288.605z"/>
	<path style="fill:#FFBF06;" d="M199.718,277.678c-2.088-2.357-4.934-3.591-7.917-3.225c-2.841-0.078-5.468,1.448-7.332,3.668
		c-5.377,6.386,1.457,15.545,8.721,15.655c4.006,0.059,7.309-1.969,9.168-5.45C204.195,284.882,202.044,280.3,199.718,277.678z"/>
	<path style="fill:#FFFFFF;" d="M204.414,291.752c-0.338-0.169-0.676-0.352-1.019-0.548c-3.083-1.786-5.943-3.495-9.369-4.55
		c-3.198-0.991-6.505-1.832-9.776-2.544c-1.22-0.27-4.07-0.717-7.218-0.882c-0.347,6.514,3.677,12.713,10.173,14.837
		C193.848,300.235,200.911,297.453,204.414,291.752z"/>
	<g>
		<path style="fill:#9BCB64;" d="M194.748,279.455c-0.283-2.636-1.96-4.751-3.463-6.834c-0.708-0.982-1.366-2.11-2.101-3.179
			c-4.079,0.74-7.748,3.179-9.977,6.806c0.48,0.014,0.955,0.037,1.434,0.096c0.032,0.005,0.059,0.009,0.091,0.014
			c0.882,0.21,1.759,0.461,2.627,0.644c0.667,0.142,1.526,0.32,2.444,0.544c0.434,0.123,0.868,0.238,1.302,0.347
			c2.047,0.589,4.111,1.434,4.966,2.7C192.948,281.904,194.894,280.857,194.748,279.455z M189.303,275.581L189.303,275.581
			c-0.023-0.046-0.055-0.091-0.087-0.137c0.196,0.005,0.393-0.064,0.562-0.16c0.142,0.206,0.283,0.411,0.42,0.621
			C189.902,275.801,189.605,275.691,189.303,275.581z"/>
		<path style="fill:#9BCB64;" d="M205.086,277.486c-1.174,0.379-2.27,0.786-3.047,1.087c-0.379,0.105-0.745,0.238-1.092,0.411
			c-1.996,0.644-1.521,4.034,0.571,4.116c1.791,0.073,3.38,0.069,5.08,0.388C206.52,281.383,206,279.341,205.086,277.486z"/>
		<path style="fill:#9BCB64;" d="M197.736,270.451c-0.27,0.439-0.521,0.886-0.754,1.316c-0.822,1.535,1.457,3.248,2.713,2.056
			c0.53-0.498,1.023-0.895,1.558-1.215C200.207,271.744,199.029,271.013,197.736,270.451z"/>
	</g>
	<polygon style="fill:#FFFFFF;" points="280.57,311.944 230.937,294.909 240.964,265.687 290.601,282.721 	"/>
	<polygon style="fill:#7CB142;" points="237.629,292.022 244.157,273.005 283.585,286.536 277.057,305.557 	"/>
	<g>
		<polygon style="fill:#32681E;" points="273.996,300.875 242.919,290.208 243.874,287.426 274.951,298.088 		"/>
		<polygon style="fill:#32681E;" points="276.984,296.713 243.12,285.092 244.075,282.306 277.938,293.931 		"/>
		<polygon style="fill:#32681E;" points="275.632,291.583 247.337,281.872 248.291,279.09 276.586,288.801 		"/>
	</g>
	<polygon style="fill:#8B6E62;" points="187.608,417.604 172.036,417.604 172.036,221.915 187.608,221.915 	"/>
	<polygon style="fill:#6C4C40;" points="172.036,222.596 172.036,289.628 179.623,298.431 187.608,289.628 187.608,222.596 	"/>
	<polygon style="fill:#FFFFFF;" points="366.487,334.711 314.022,335.702 313.433,304.813 365.902,303.817 	"/>
	<polygon style="fill:#7CB142;" points="319.321,330.7 318.937,310.596 360.621,309.806 361.001,329.91 	"/>
	<g>
		<polygon style="fill:#32681E;" points="356.519,326.562 323.67,327.183 323.611,324.241 356.464,323.615 		"/>
		<polygon style="fill:#32681E;" points="357.899,321.628 322.103,322.309 322.048,319.367 357.844,318.686 		"/>
		<polygon style="fill:#32681E;" points="354.875,317.27 324.963,317.836 324.908,314.895 354.82,314.333 		"/>
	</g>
	<polygon style="fill:#4E342E;" points="189.641,269.99 170.003,269.99 170.003,278.793 189.641,278.793 	"/>
	<polygon style="fill:#8B6E62;" points="339.96,417.604 324.387,417.604 324.387,221.915 339.96,221.915 	"/>
	<polygon style="fill:#6C4C40;" points="324.387,222.596 324.387,289.628 331.975,298.431 339.96,289.628 339.96,222.596 	"/>
	<polygon style="fill:#4E342E;" points="341.993,269.99 322.354,269.99 322.354,278.793 341.993,278.793 	"/>
	<path style="fill:#59381F;" d="M291.73,216.104c-1.699,1.649-4.395,0.818-6.208-1.503c-18.857-20.027-41.223-20.027-60.085,0
		c-1.809,2.321-4.509,3.152-6.208,1.503c-1.704-1.645-1.526-5.546,0.621-8.3c21.776-23.841,49.482-23.841,71.258,0
		C293.255,210.559,293.434,214.46,291.73,216.104z"/>
	<polygon style="fill:#FFFFFF;" points="272.105,375.171 222.902,393.407 212.167,364.436 261.37,346.2 	"/>
	<polygon style="fill:#7CB142;" points="226.255,386.934 219.265,368.077 258.355,353.591 265.344,372.444 	"/>
	<g>
		<polygon style="fill:#32681E;" points="260.013,370.758 229.201,382.178 228.178,379.419 258.99,367.999 		"/>
		<polygon style="fill:#32681E;" points="259.684,365.651 226.118,378.095 225.094,375.331 258.665,362.892 		"/>
		<polygon style="fill:#32681E;" points="255.395,362.536 227.342,372.933 226.319,370.173 254.371,359.776 		"/>
	</g>
</g>
<path style="fill:#6B213C;" d="M73.606,269.149c-50.204-54.813,14.814-101.883,48.993-75.708l18.51,14.17
	c-7.021,11.959-18.099,24.873-30.721,35.873C97.767,254.49,85.707,263.777,73.606,269.149z"/>
<path style="fill:#872E4D;" d="M73.606,269.149c-24.284-26.513-21.607-51.209-8.506-66.69l46.184,40.241l-0.895,0.786
	C97.767,254.49,85.707,263.777,73.606,269.149z"/>
<path style="fill:#6B213C;" d="M207.708,190.23c0,0-35.101,1.791-34.64,57.933c0.461,56.142-91.883,86.927-124.559,74.52
	c0,0,23.384-33.014,25.28-39.103c1.083-3.476,1.9-6.414,2.407-8.291c12.841-5.322,26.664-13.919,39.743-25.321
	c13.723-11.959,24.508-25.161,31.525-37.682C157.609,217.374,206.096,172.132,207.708,190.23z"/>
<path style="fill:#782744;" d="M125.18,310.148c-27.555,13.91-59.938,18.889-76.671,12.535c0,0,23.384-33.014,25.28-39.103
	c1.083-3.476,1.9-6.414,2.407-8.291c12.841-5.322,26.664-13.919,39.743-25.321l0.032-0.023l0.027-0.023l0.027-0.027l0.027-0.023
	l0.032-0.027l0.027-0.023l0.027-0.027l0.032-0.027l0.027-0.023l0.027-0.027l0.032-0.023l0.027-0.027l0.027-0.027l0.032-0.023
	l0.027-0.023l0.027-0.027l0.027-0.027l0.032-0.023l0.027-0.027l0.032-0.023l0.027-0.027l0.027-0.023l0.009-0.009l0.018-0.018
	l0.032-0.023l0.027-0.027l0.027-0.023l0.032-0.027l0.027-0.023l0.027-0.027l0.027-0.023l0.032-0.027l0.027-0.023l0.027-0.027
	l0.027-0.027l0.032-0.023l0.027-0.023l0.027-0.027l0.027-0.027l0.032-0.023l0.027-0.027l0.027-0.023l0.027-0.027l0.032-0.023
	l0.027-0.027l0.014-0.014l0.014-0.014l0.032-0.023l0.027-0.027l0.027-0.023l0.027-0.027l0.032-0.027l0.027-0.023l0.027-0.027
	l0.027-0.023l0.027-0.027l0.032-0.023l0.027-0.027l0.027-0.023l0.027-0.027l0.027-0.023l0.032-0.027l0.027-0.027l0.027-0.023
	l0.027-0.027l0.027-0.023L125.18,310.148z"/>
<g>
	<path style="fill:#FFFFFF;" d="M73.606,269.149c0,0,2.266,6.277,2.59,6.14c12.841-5.322,26.664-13.919,39.743-25.321
		c13.723-11.959,24.508-25.161,31.525-37.682c0,0-4.696-3.463-6.354-4.673c-7.021,11.959-18.099,24.873-30.721,35.873
		C97.767,254.49,85.707,263.777,73.606,269.149z"/>
	<path style="fill:#FFFFFF;" d="M112.472,250.977c0,0-7.181,5.454-6.592,13.777c0.594,8.328-0.32,9.602-0.32,9.602
		s5.632-4.276,7.441-9.077c1.617-4.294-0.621-8.903,0.425-13.083l0.037-0.155l0.11,0.119c1.855,9.292,7.926,11.393,8.287,15.792
		c0.311-1.334,3.924-9.314,0.032-13.96c-3.892-4.641-7.35-3.563-7.35-3.563s-0.439,0.297-0.873,0.891
		C112.997,251.018,112.472,250.977,112.472,250.977z"/>
</g>
<path style="fill:#FFCC00;" d="M112.394,252.352c-2.234,2.494-10.009,10.74-13.604,8.835c-4.221-2.238-9.264-11.26-3.093-12.051
	c4.883-0.626,10.712-1.727,12.937-2.156L112.394,252.352z M113.856,251.169c3.371-0.516,14.362-2.503,14.481-6.455
	c0.146-4.673-5.326-13.453-9.141-8.675c-3.316,4.148-7.716,8.967-8.816,10.164L113.856,251.169z"/>
<path style="fill:#F2AD00;" d="M112.394,252.352c-2.234,2.499-10.009,10.74-13.604,8.835c-1.192-0.635-2.453-1.809-3.504-3.189
	l14.773-8.981L112.394,252.352z M126.665,238.922l-14.997,9.118l2.188,3.129c3.371-0.516,14.362-2.503,14.481-6.455
	C128.387,243.043,127.72,240.836,126.665,238.922z"/>
<path style="fill:#5B2849;" d="M107.977,245.537c1.914-1.229,4.641-0.63,6.085,1.334c1.444,1.96,1.06,4.55-0.859,5.779
	c-1.914,1.229-4.637,0.63-6.08-1.329C105.679,249.351,106.058,246.766,107.977,245.537z"/>
<path style="fill:#FFFFFF;" d="M109.562,247.592c0.717-0.493,1.759-0.215,2.325,0.612c0.566,0.831,0.448,1.9-0.27,2.394
	c-0.713,0.489-1.754,0.215-2.321-0.617C108.726,249.15,108.845,248.081,109.562,247.592z"/>
<path style="fill:#808080;" d="M207.708,190.23c-10.032,31.689-22.32,47.897-34.604,53.931
	C174.306,191.948,207.708,190.23,207.708,190.23z"/>
<path style="fill:#424242;" d="M351.723,416.64c0,0-4.513,15.582-8.127,17.743c-3.609,2.142-10.004,6.126-30.086,5.45
	c-20.095-0.649-24.723-11.183-24.723-11.183l-0.192-16.395L351.723,416.64z"/>
<path style="fill:#FF3C00;" d="M301.377,429.513c4.979,2.001,10.297,3.097,15.742,3.275c12.526,0.42,23.503-4.075,29.62-8.41
	c2.855-2.051,4.545-5.578,5.482-9.589c1.868-8.049,0.758-17.976,0.288-21.182c0.822-1.275,1.827-8.588,0.137-14.038
	c-1.891-6.153-5.244-27.893-2.924-46.878c0,0-15.472,3.741-20.968,3.513c-5.217-0.21-19.693-3.513-19.693-3.513
	c0.005,0,0,31.991-5.317,38.984c-1.932,3.655-9.927,19.145-11.941,26.701l-0.932,3.143c-0.726,2.403-1.613,5.253-2.051,8.3
	C287.842,416.86,289.418,424.781,301.377,429.513z"/>
<path style="fill:#353330;" d="M326.146,336.04c0,0.018-0.566,9.095-1.256,19.003c-0.681,9.876-1.517,20.739-2.001,23.805
	c-2.078,12.727-3.353,14.709-6.459,21.205l4.719,2.275c3.079-6.318,4.902-9.78,6.916-22.653c1.096-7.085,3.303-43.228,3.303-43.31
	L326.146,336.04z"/>
<path style="fill:#FF6E40;" d="M344.391,371.014c-1.567,24.088-10.319,42.516-19.565,42.516c-40.597,0-15.422-20.63-13.86-44.708
	c1.613-24.092-4.175-42.963,19.579-42.511C354.368,326.758,345.967,346.94,344.391,371.014z"/>
<path style="fill:#FFFFFF;" d="M301.377,429.513c4.979,2.001,10.297,3.097,15.742,3.275c12.526,0.42,23.503-4.075,29.62-8.41
	c2.855-2.051,4.545-5.578,5.482-9.589c-5.043-8.478-17.551-14.75-32.393-15.235c-13.051-0.434-24.59,3.723-31.008,10.265
	C287.842,416.86,289.418,424.781,301.377,429.513z"/>
<path style="fill:#FEFEFE;" d="M306.115,385.28c9.913,2.796,14.376,5.578,24.334,9.716c4.737,1.946,6.208,3.047,11.164,5.349
	l2.202-4.769c-4.614-2.11-6.245-3.321-11.352-5.427c-9.588-3.951-14.458-6.953-24.933-9.917L306.115,385.28z"/>
<path style="fill:#FFFFFF;" d="M343.486,379.584c-10.461,2.969-37.6,12.75-42.753,15.134l2.206,4.755
	c4.417-2.06,32.073-12.055,41.963-14.842L343.486,379.584z"/>
<g>
	<path style="fill:#FEFEFE;" d="M308.289,369.644c8.204,2.563,16.276,5.66,24.156,9.173c3.805,1.681,7.446,3.897,11.475,5.911
		l2.339-4.71c-3.773-1.846-7.478-4.12-11.685-5.989c-8.044-3.595-16.308-6.752-24.723-9.378L308.289,369.644z"/>
	<path style="fill:#FEFEFE;" d="M345.391,364.6c-8.643,2.174-18.825,5.865-27.016,8.995c-4.285,1.64-8.122,3.691-11.987,5.368
		l2.097,4.801c4.107-1.791,7.875-3.787,11.763-5.272c8.09-3.115,18.177-6.738,26.427-8.816L345.391,364.6z"/>
	<path style="fill:#FEFEFE;" d="M310.578,354.994c7.898,2.467,15.664,5.432,23.238,8.803c3.659,1.622,7.172,3.755,11.041,5.687
		l2.353-4.691c-3.627-1.804-7.222-3.979-11.265-5.783c-7.734-3.453-15.696-6.496-23.805-9.027L310.578,354.994z"/>
	<path style="fill:#FEFEFE;" d="M344.533,350.855c-8.218,2.092-16.326,4.705-24.252,7.734c-4.143,1.581-7.834,3.577-11.525,5.157
		l2.051,4.815c3.997-1.704,7.62-3.654,11.343-5.071c7.752-2.969,15.664-5.514,23.672-7.56L344.533,350.855z"/>
</g>
<path style="fill:#424242;" d="M362.567,416.28c0,0,4.513,15.573,8.122,17.733c3.613,2.161,10.027,6.14,30.104,5.482
	c20.081-0.662,24.723-11.192,24.723-11.192l0.178-16.404L362.567,416.28z"/>
<path style="fill:#FF3C00;" d="M412.931,429.162c-4.993,1.983-10.297,3.093-15.765,3.271c-12.503,0.416-23.494-4.075-29.62-8.41
	c-2.846-2.033-4.541-5.578-5.482-9.589c-1.868-8.049-0.735-17.971-0.288-21.178c-0.822-1.261-1.8-8.606-0.142-14.038
	c1.9-6.144,5.249-27.898,2.933-46.883c0,0,15.486,3.741,20.968,3.517c5.217-0.215,19.675-3.517,19.675-3.517s0,31.991,5.349,38.984
	c1.919,3.659,9.913,19.145,11.927,26.724l0.918,3.12c0.758,2.403,1.626,5.258,2.065,8.291
	C426.453,416.508,424.872,424.443,412.931,429.162z"/>
<path style="fill:#353330;" d="M382.923,336.008c0,0.082,2.202,36.23,3.321,43.288c2.001,12.891,3.819,16.363,6.893,22.676
	l4.728-2.27c-3.115-6.496-4.385-8.478-6.45-21.228c-0.484-3.047-1.334-13.905-2.015-23.782c-0.69-9.931-1.256-18.985-1.256-19.003
	L382.923,336.008z"/>
<path style="fill:#FF6E40;" d="M369.899,370.671c1.581,24.079,10.297,42.506,19.565,42.506c40.597-0.005,15.427-20.63,13.846-44.708
	c-1.581-24.092,4.189-42.963-19.579-42.511C359.913,326.406,368.305,346.57,369.899,370.671z"/>
<path style="fill:#FFFFFF;" d="M412.931,429.162c-4.993,1.983-10.297,3.093-15.765,3.271c-12.503,0.416-23.494-4.075-29.62-8.41
	c-2.846-2.033-4.541-5.578-5.482-9.589c5.052-8.465,17.569-14.746,32.397-15.235c13.037-0.434,24.595,3.714,31.008,10.255
	C426.453,416.508,424.872,424.443,412.931,429.162z"/>
<path style="fill:#FEFEFE;" d="M406.76,379.876c-10.475,2.965-15.344,5.966-24.937,9.913c-5.103,2.11-6.729,3.303-11.356,5.463
	l2.211,4.751c4.979-2.321,6.427-3.408,11.151-5.363c9.977-4.143,14.454-6.912,24.366-9.716L406.76,379.876z"/>
<path style="fill:#FFFFFF;" d="M369.374,384.275c9.927,2.787,37.564,12.782,42.008,14.86l2.193-4.769
	c-5.171-2.371-32.297-12.169-42.79-15.134L369.374,384.275z"/>
<g>
	<path style="fill:#FEFEFE;" d="M404.439,364.29c-8.428,2.631-16.678,5.811-24.723,9.383c-4.194,1.868-7.912,4.125-11.699,6.016
		l2.339,4.682c4.043-2.015,7.697-4.221,11.484-5.911c7.871-3.499,15.943-6.592,24.161-9.164L404.439,364.29z"/>
	<path style="fill:#FEFEFE;" d="M367.611,369.305c8.255,2.11,18.336,5.738,26.431,8.821c3.883,1.475,7.656,3.508,11.767,5.299
		l2.078-4.819c-3.837-1.663-7.674-3.718-11.973-5.381c-8.172-3.115-18.373-6.788-26.998-8.995L367.611,369.305z"/>
	<path style="fill:#FEFEFE;" d="M402.15,349.631c-8.104,2.526-16.066,5.573-23.805,9.022c-4.043,1.804-7.624,3.983-11.247,5.77
		l2.339,4.705c3.865-1.937,7.378-4.061,11.037-5.687c7.574-3.367,15.34-6.331,23.256-8.816L402.15,349.631z"/>
	<path style="fill:#FEFEFE;" d="M368.465,355.574c8.012,2.033,15.92,4.596,23.677,7.56c3.723,1.416,7.35,3.353,11.329,5.075
		l2.079-4.801c-3.705-1.613-7.396-3.595-11.544-5.171c-7.907-3.033-16.016-5.642-24.252-7.738L368.465,355.574z"/>
</g>
<path style="fill:#606060;" d="M404.521,352.609h-2.631l-0.142,0.904l0.703,0.32l-0.512-0.548l-0.192,0.228l0.703,0.32l-0.512-0.548
	l1.306,1.389v-1.873l-1.306,0.484l1.306,1.389v-1.873v1.873l1.275-1.389l-1.275-0.484v1.873l1.275-1.389l-0.644,0.708l0.854-0.461
	l-0.21-0.247l-0.644,0.708l0.854-0.461l-0.146-0.923l0.146-0.904l-0.731-0.32l0.521,0.566l0.21-0.247l-0.731-0.32l0.521,0.566
	l-1.275-1.389v1.868l1.275-0.48l-1.275-1.389v1.868v-1.868l-1.306,1.389l1.306,0.48v-1.868l-1.306,1.389l0.644-0.69l-0.836,0.461
	l0.192,0.228l0.644-0.69l-0.836,0.461l0.142,0.886H404.521h2.608l-0.612-3.079c-0.42-0.841-1.192-2.22-3.271-2.348
	c-2.083,0.128-2.892,1.512-3.303,2.366l-0.603,3.061l0.603,3.079c0.416,0.859,1.22,2.257,3.303,2.371
	c2.078-0.132,2.869-1.512,3.271-2.353l0.612-3.097H404.521z M309.792,352.965h-2.627l0.594,3.079
	c0.407,0.85,1.224,2.257,3.303,2.371c2.078-0.128,2.869-1.498,3.289-2.357l0.612-3.093l-0.612-3.079
	c-0.42-0.854-1.211-2.225-3.289-2.353c-2.078,0.11-2.896,1.517-3.303,2.371l-0.594,3.061H309.792h2.608l0.146-0.905l-0.745-0.338
	l0.534,0.58l0.21-0.242l-0.745-0.338l0.534,0.58l-1.275-1.389v1.855l1.275-0.466l-1.275-1.389v1.855v-1.855l-1.288,1.389
	l1.288,0.466v-1.855l-1.288,1.389l0.644-0.694l-0.836,0.466l0.192,0.228l0.644-0.694l-0.836,0.466l0.142,0.891l-0.142,0.9
	l0.69,0.329l-0.498-0.553l-0.192,0.224l0.69,0.329l-0.498-0.553l1.288,1.389v-1.873l-1.288,0.484l1.288,1.389v-1.873v1.873
	l1.275-1.389l-1.275-0.484v1.873l1.275-1.389l-0.662,0.708l0.872-0.471l-0.21-0.238l-0.662,0.708l0.872-0.471l-0.146-0.914H309.792z
	 M344.761,353.961h-2.627l0.612,3.079c0.402,0.836,1.188,2.257,3.284,2.371c2.115-0.132,2.887-1.53,3.289-2.385l0.598-3.065
	l-0.598-3.047c-0.402-0.85-1.192-2.252-3.289-2.366c-2.078,0.11-2.883,1.498-3.289,2.357l-0.608,3.056H344.761h2.608l0.146-0.882
	l-0.703-0.343l0.512,0.562l0.192-0.219l-0.703-0.343l0.512,0.562l-1.293-1.38v1.868l1.293-0.489l-1.293-1.38v1.868v-1.868
	l-1.302,1.38l1.302,0.489v-1.868l-1.302,1.38l0.662-0.703l-0.859,0.466l0.196,0.238l0.662-0.703l-0.859,0.466l0.151,0.9
	l-0.151,0.936l0.713,0.306l-0.516-0.548l-0.196,0.242l0.713,0.306l-0.516-0.548l1.302,1.389v-1.868l-1.302,0.48l1.302,1.389v-1.868
	v1.868l1.293-1.389l-1.293-0.48v1.868l1.293-1.389l-0.649,0.694l0.841-0.466l-0.192-0.228l-0.649,0.694l0.841-0.466l-0.146-0.923
	H344.761z M308.499,366.149h-2.608l0.594,3.074c0.402,0.854,1.211,2.257,3.307,2.371c2.079-0.114,2.883-1.512,3.289-2.366
	l0.594-3.079l-0.594-3.061c-0.425-0.854-1.211-2.243-3.289-2.371c-2.097,0.123-2.905,1.517-3.307,2.371l-0.594,3.061H308.499h2.631
	l0.123-0.904l-0.708-0.324l0.516,0.562l0.192-0.238l-0.708-0.324l0.516,0.562l-1.27-1.38v1.868l1.27-0.489l-1.27-1.38v1.868v-1.868
	l-1.306,1.38l1.306,0.489v-1.868l-1.306,1.38l0.658-0.69l-0.854,0.452l0.196,0.238l0.658-0.69l-0.854,0.452l0.146,0.904
	l-0.146,0.918l0.713,0.32l-0.516-0.548l-0.196,0.228l0.713,0.32l-0.516-0.548l1.306,1.37v-1.85l-1.306,0.48l1.306,1.37v-1.85v1.85
	l1.27-1.37l-1.27-0.48v1.85l1.27-1.37l-0.644,0.694l0.854-0.466l-0.21-0.228l-0.644,0.694l0.854-0.466l-0.142-0.918H308.499z
	 M345.094,367.104h-2.622l0.612,3.074c0.42,0.85,1.192,2.238,3.284,2.366c2.097-0.132,2.887-1.526,3.307-2.366l0.598-3.074
	l-0.617-3.07c-0.402-0.854-1.192-2.252-3.289-2.366c-2.092,0.128-2.851,1.517-3.284,2.353l-0.612,3.083H345.094h2.613l0.151-0.895
	l-0.676-0.32l0.493,0.539l0.183-0.219l-0.676-0.32l0.493,0.539l-1.306-1.393v1.873l1.306-0.48l-1.306-1.393v1.873v-1.859
	l-1.288,1.38l1.288,0.48v-1.859l-1.288,1.38l0.644-0.699l-0.836,0.471l0.192,0.228l0.644-0.699l-0.836,0.471l0.146,0.904
	l-0.146,0.914l0.713,0.32l-0.521-0.562l-0.192,0.242l0.713,0.32l-0.521-0.562l1.288,1.384v-1.868l-1.288,0.484l1.288,1.384v-1.868
	v1.868l1.306-1.384l-1.306-0.484v1.868l1.306-1.384l-0.64,0.676l0.822-0.452l-0.183-0.224l-0.64,0.676l0.822-0.452l-0.151-0.895
	H345.094z M305.553,381.365h-2.613l0.598,3.056c0.402,0.859,1.188,2.257,3.284,2.375c2.065-0.119,2.869-1.498,3.289-2.357
	l0.612-3.074l-0.612-3.088c-0.42-0.85-1.188-2.229-3.289-2.362c-2.11,0.123-2.882,1.544-3.289,2.385l-0.594,3.065H305.553h2.627
	l0.142-0.923l-0.708-0.32l0.516,0.544l0.192-0.224l-0.708-0.32l0.516,0.544l-1.306-1.38v1.877l1.306-0.498l-1.306-1.38v1.877v-1.868
	l-1.288,1.389l1.288,0.48v-1.868l-1.288,1.389l0.63-0.699l-0.822,0.471l0.192,0.228l0.63-0.699l-0.822,0.471l0.142,0.909
	l-0.142,0.882l0.708,0.32l-0.498-0.548l-0.21,0.228l0.708,0.32l-0.498-0.548l1.27,1.384v-1.846l-1.27,0.461l1.27,1.384v-1.846v1.864
	l1.293-1.384l-1.293-0.48v1.864l1.293-1.384l-0.662,0.708l0.868-0.466l-0.206-0.242l-0.662,0.708l0.868-0.466l-0.142-0.914H305.553z
	 M344.455,382.105h-2.613l0.598,3.07c0.416,0.841,1.188,2.243,3.284,2.357c2.097-0.114,2.887-1.498,3.289-2.353l0.63-3.074
	l-0.63-3.079c-0.402-0.85-1.192-2.238-3.289-2.357c-2.079,0.119-2.869,1.507-3.271,2.357l-0.612,3.079H344.455h2.627l0.146-0.909
	l-0.726-0.315l0.516,0.548l0.21-0.233l-0.726-0.315l0.516,0.548l-1.293-1.393v1.868l1.293-0.475l-1.293-1.393v1.868v-1.868
	l-1.27,1.393l1.27,0.475v-1.868l-1.27,1.393l0.64-0.699l-0.836,0.466l0.196,0.233l0.64-0.699l-0.836,0.466l0.132,0.909l-0.132,0.895
	l0.694,0.315l-0.516-0.539l-0.178,0.224l0.694,0.315l-0.516-0.539l1.288,1.389v-1.868l-1.288,0.48l1.288,1.389v-1.868v1.868
	l1.311-1.389l-1.311-0.48v1.868l1.311-1.389l-0.649,0.69l0.841-0.466l-0.192-0.224l-0.649,0.69l0.841-0.466l-0.146-0.895H344.455z
	 M342.248,397.605l-2.517-0.745l-0.333,2.27l0.384,2.056l2.188,1.992l0.713-2.508l-0.745,2.508l0.918,0.128
	c1.727-0.078,2.48-0.978,3.079-1.667l1.275-2.576v0.009l0.343-2.27l-0.37-2.033l-2.179-2.019l-0.904-0.119
	c-1.704,0.073-2.48,0.964-3.079,1.658l-1.288,2.572L342.248,397.605l2.512,0.74l0.37-0.809l-0.306-0.233l0.21,0.302l0.096-0.069
	l-0.306-0.233l0.21,0.302l-0.936-1.421v1.676l0.936-0.256l-0.936-1.421v1.676v-1.996l-0.548,1.932l0.548,0.064v-1.996l-0.548,1.932
	l0.484-1.708l-1.695,0.713l1.211,0.987l0.484-1.699l-1.695,0.713h-0.027l-0.128,0.772v0.032l-0.375,0.804h-0.014l1.06,1.096v-1.43
	l-1.06,0.333l1.06,1.096v-1.43v2.01l0.566-1.937l-0.566-0.073v2.01l0.566-1.937h-0.018l-0.48,1.695l1.676-0.722l-1.197-0.973
	l-0.48,1.695l1.676-0.722l-0.018,0.009h0.046l-0.027-0.009l-0.018,0.009h0.046l0.132-0.786L342.248,397.605z M299.267,396.513
	l-2.613-0.251l-0.046,0.809l0.498,2.677c0.356,0.79,1.11,2.047,2.914,2.279l0.037,0.009h0.256c1.983-0.114,2.755-1.32,3.239-2.124
	l0.873-2.924l0.032-0.822l-0.516-2.672c-0.356-0.809-1.115-2.047-2.901-2.289l-0.26,2.613l0.338-2.595l-0.397-0.037
	c-1.987,0.114-2.759,1.361-3.243,2.165l-0.822,2.91L299.267,396.513l2.608,0.228l0.21-0.891l-0.58-0.324l0.42,0.502l0.16-0.178
	l-0.58-0.324l0.42,0.502l-1.206-1.425v1.846l1.206-0.42l-1.206-1.425v1.846v-2.115l-0.279,2.092l0.279,0.023v-2.115l-0.279,2.092
	h0.064h0.032l0.183-1.887l-1.325,1.375l1.142,0.512l0.183-1.887l-1.325,1.375l0.836-0.854l-1.078,0.562l0.242,0.292l0.836-0.854
	l-1.078,0.562l0.16-0.082l-0.174,0.046l0.014,0.037l0.16-0.082l-0.174,0.046l0.082,0.58l-0.018,0.329l-0.228,0.868l0.566,0.324
	l-0.402-0.484l-0.164,0.16l0.566,0.324l-0.402-0.484l1.174,1.398v-1.8l-1.174,0.402l1.174,1.398v-1.8v1.928l0.16-1.928h-0.16v1.928
	l0.16-1.928h0.014l-0.174,1.914l1.352-1.384l-1.179-0.53l-0.174,1.914l1.352-1.384l-0.854,0.873l1.096-0.566l-0.242-0.306
	l-0.854,0.873l1.096-0.566l-0.174,0.096l0.192-0.064l-0.018-0.032l-0.174,0.096l0.192-0.064l-0.078-0.598l0.014-0.324
	L299.267,396.513z M372.046,397.253l-2.512,0.735l0.123,0.79l0.037,0.018l1.672,0.694l-0.498-1.677l-1.174,0.982l1.672,0.694
	l-0.498-1.677l0.74,2.508l-0.672-2.526l0.516,1.919v-2.001l-0.516,0.082l0.516,1.919v-2.001v1.663l0.927-1.407l-0.927-0.256v1.663
	l0.927-1.407l-0.32,0.493l0.439-0.388l-0.119-0.105l-0.32,0.493l0.439-0.388l-0.388-0.822l-0.128-0.804l0.018-0.137l-0.873-0.146
	l0.722,0.457l0.151-0.311l-0.873-0.146l0.722,0.457l-1.626-1.019l0.516,1.823l1.11-0.804l-1.626-1.019l0.516,1.823l-0.548-1.919
	v1.996l0.566-0.078l-0.566-1.919v1.996v-1.654l-0.923,1.421l0.923,0.233v-1.654l-0.923,1.421l0.324-0.502l-0.448,0.402l0.123,0.1
	l0.324-0.502l-0.448,0.402l0.388,0.799L372.046,397.253l2.512-0.726l-1.293-2.599c-0.589-0.703-1.38-1.576-3.074-1.658l-0.904,0.128
	l-2.17,2.019l-0.375,2.033l0.343,2.266l1.284,2.581c0.594,0.708,1.389,1.594,3.074,1.681l0.841-0.114l0.037-0.018h0.027l2.179-2.019
	l0.375-2.047l-0.343-2.266L372.046,397.253z M415.042,396.157l-2.608,0.251l0.014,0.338l-0.064,0.557l1.544,0.667l-0.155-1.507
	l-1.389,0.841l1.544,0.667l-0.155-1.507l0.256,2.599l-0.196-2.613l0.146,1.914v-1.914h-0.146l0.146,1.914v-1.914v1.804l1.179-1.412
	l-1.179-0.393v1.804l1.179-1.412l-0.534,0.653l0.713-0.466l-0.178-0.187l-0.534,0.653l0.713-0.466l-0.233-0.872l-0.009-0.356
	l0.064-0.585l-1.562-0.676l0.128,1.535l1.434-0.859l-1.562-0.676l0.128,1.535h0.027h0.037l-0.224-2.097v2.11l0.224-0.014
	l-0.224-2.097v2.11v-1.814l-1.179,1.412l1.179,0.402v-1.814l-1.179,1.412l0.548-0.658l-0.726,0.466l0.178,0.192l0.548-0.658
	l-0.726,0.466l0.228,0.904v0.009L415.042,396.157l2.613-0.242l-0.854-2.933c-0.466-0.813-1.275-2.028-3.239-2.129l-0.324,0.018
	l0.274,2.595l-0.21-2.613c-1.786,0.206-2.608,1.466-2.951,2.27l-0.503,2.677l0.037,0.841l0.854,2.928
	c0.484,0.804,1.275,2.005,3.239,2.115h0.26l0.014-0.014h0.032c1.759-0.233,2.549-1.453,2.887-2.243l0.516-2.681l-0.032-0.868v0.037
	L415.042,396.157z M408.756,381.009h-2.627l-0.142,0.895l0.69,0.329l-0.503-0.553l-0.187,0.224l0.69,0.329l-0.503-0.553l1.288,1.389
	v-1.873l-1.288,0.484l1.288,1.389v-1.873v1.873l1.293-1.389l-1.293-0.484v1.873l1.293-1.389l-0.644,0.699l0.841-0.457l-0.196-0.242
	l-0.644,0.699l0.841-0.457l-0.146-0.914l0.146-0.909l-0.708-0.32l0.512,0.566l0.196-0.247l-0.708-0.32l0.512,0.566l-1.293-1.402
	v1.873l1.293-0.471l-1.293-1.402v1.873v-1.855l-1.288,1.384l1.288,0.471v-1.855l-1.288,1.384l0.649-0.713l-0.836,0.466l0.187,0.247
	l0.649-0.713l-0.836,0.466l0.142,0.909H408.756h2.613l-0.612-3.083c-0.425-0.854-1.211-2.238-3.294-2.353
	c-2.074,0.114-2.878,1.521-3.289,2.357l-0.608,3.079l0.617,3.07c0.402,0.859,1.188,2.247,3.28,2.375
	c2.101-0.128,2.869-1.517,3.294-2.353l0.612-3.093H408.756z M369.84,381.749h-2.627l-0.128,0.9l0.708,0.343l-0.516-0.566
	l-0.192,0.224l0.708,0.343l-0.516-0.566l1.275,1.37v-1.855l-1.275,0.484l1.275,1.37v-1.855v1.873l1.288-1.389l-1.288-0.484v1.873
	l1.288-1.389l-0.649,0.708l0.836-0.466l-0.187-0.242l-0.649,0.708l0.836-0.466l-0.123-0.918l0.123-0.905l-0.722-0.338l0.534,0.566
	l0.187-0.228l-0.722-0.338l0.534,0.566l-1.288-1.384v1.868l1.288-0.484l-1.288-1.384v1.868v-1.841l-1.275,1.366l1.275,0.475v-1.841
	l-1.275,1.366l0.658-0.722l-0.85,0.484l0.192,0.238l0.658-0.722l-0.85,0.484l0.128,0.905H369.84h2.604l-0.594-3.079
	c-0.397-0.859-1.261-2.257-3.303-2.353c-2.074,0.114-2.882,1.512-3.289,2.366l-0.612,3.065l0.612,3.056
	c0.407,0.859,1.192,2.261,3.289,2.371c2.06-0.091,2.896-1.498,3.303-2.348l0.594-3.079H369.84z M369.191,366.743h-2.627
	l-0.142,0.918l0.722,0.32l-0.534-0.562l-0.187,0.242l0.722,0.32l-0.534-0.562l1.306,1.389v-1.868l-1.306,0.48l1.306,1.389v-1.868
	v1.868l1.275-1.389l-1.275-0.48v1.868l1.275-1.389l-0.64,0.708l0.854-0.466l-0.215-0.242l-0.64,0.708l0.854-0.466l-0.151-0.918
	l0.151-0.918l-0.713-0.324l0.516,0.562l0.196-0.238l-0.713-0.324l0.516,0.562l-1.293-1.375v1.864l1.293-0.489l-1.293-1.375v1.864
	v-1.864l-1.306,1.361l1.306,0.503v-1.864l-1.306,1.361l0.667-0.69l-0.854,0.466l0.187,0.224l0.667-0.69l-0.854,0.466l0.142,0.918
	H369.191h2.613l-0.598-3.065c-0.402-0.85-1.197-2.252-3.289-2.366c-2.092,0.11-2.901,1.517-3.298,2.371l-0.598,3.061l0.598,3.079
	c0.397,0.85,1.22,2.261,3.298,2.371c2.083-0.128,2.883-1.53,3.289-2.371l0.598-3.079H369.191z M405.786,365.806h-2.622l-0.142,0.905
	l0.708,0.324l-0.516-0.544l-0.192,0.219l0.708,0.324l-0.516-0.544l1.306,1.38v-1.873l-1.306,0.493l1.306,1.38v-1.873v1.855
	l1.288-1.361l-1.288-0.493v1.855l1.288-1.361l-0.644,0.685l0.836-0.466l-0.192-0.219l-0.644,0.685l0.836-0.466l-0.151-0.905
	l0.151-0.904l-0.708-0.32l0.516,0.548l0.192-0.228l-0.708-0.32l0.516,0.548l-1.288-1.389v1.878l1.288-0.489l-1.288-1.389v1.878
	v-1.878l-1.306,1.389l1.306,0.489v-1.878l-1.306,1.389l0.662-0.694l-0.854,0.452l0.192,0.242l0.662-0.694l-0.854,0.452l0.142,0.918
	H405.786h2.618l-0.598-3.061c-0.402-0.854-1.197-2.257-3.289-2.366c-2.092,0.11-2.887,1.512-3.284,2.353l-0.612,3.074l0.612,3.065
	c0.397,0.85,1.192,2.261,3.284,2.366c2.092-0.128,2.887-1.53,3.289-2.366l0.598-3.065H405.786z M369.548,353.628h-2.631l-0.142,0.9
	l0.694,0.306l-0.498-0.53l-0.196,0.224l0.694,0.306l-0.498-0.53l1.288,1.366v-1.868l-1.288,0.502l1.288,1.366v-1.868v1.868
	l1.288-1.38l-1.288-0.489v1.868l1.288-1.38l-0.644,0.708l0.836-0.471l-0.192-0.238l-0.644,0.708l0.836-0.471l-0.128-0.9l0.128-0.923
	l-0.708-0.32l0.516,0.562l0.192-0.242l-0.708-0.32l0.516,0.562l-1.288-1.389v1.877l1.288-0.489l-1.288-1.389v1.877v-1.877
	l-1.288,1.389l1.288,0.489v-1.877l-1.288,1.389l0.64-0.694l-0.836,0.452l0.196,0.242l0.64-0.694l-0.836,0.452l0.142,0.923H369.548
	h2.608l-0.612-3.083c-0.397-0.85-1.192-2.234-3.284-2.366c-2.083,0.128-2.887,1.517-3.289,2.371l-0.617,3.079l0.617,3.061
	c0.407,0.85,1.206,2.238,3.289,2.371c2.11-0.132,2.878-1.512,3.284-2.371l0.612-3.061H369.548z"/>
<g>
	<path style="fill:#F3F3F3;" d="M140.292,420.624c11.155-0.087,20.232,4.116,20.273,9.392c0.041,5.272-8.967,9.62-20.123,9.712
		c-11.155,0.087-20.237-4.12-20.278-9.397C120.123,425.059,129.132,420.711,140.292,420.624z"/>
	<path style="fill:#F3F3F3;" d="M209.343,415.649c10.315-4.253,20.305-3.741,22.315,1.133c2.01,4.879-4.723,12.279-15.038,16.532
		c-10.315,4.248-20.305,3.741-22.315-1.137C192.295,427.302,199.029,419.902,209.343,415.649z"/>
</g>
<g>
	<path style="fill:#FFFFFF;" d="M122.869,329.188h35.873v48.07c0,10.182-4.271,16.815-9.863,19.917
		c-3.983,2.211-6.281,6.117-6.281,10.671v20.972c0,0.745-0.608,1.357-1.357,1.357h-0.877c-0.745,0-1.352-0.612-1.352-1.357v-21.114
		c0-4.522-2.266-8.401-6.199-10.625c-5.582-3.157-9.863-9.771-9.945-19.821V329.188z"/>
	<path style="fill:#FFFFFF;" d="M157.577,337.123l33.169-13.672l18.318,44.448c3.878,9.41,2.458,17.167-1.53,22.169
		c-2.841,3.559-3.476,8.049-1.74,12.256l7.99,19.392c0.283,0.69-0.05,1.485-0.735,1.768l-0.809,0.333
		c-0.694,0.288-1.489-0.046-1.772-0.735l-8.049-19.524c-1.722-4.18-5.29-6.902-9.78-7.46c-6.359-0.786-12.836-5.272-16.742-14.531
		L157.577,337.123z"/>
</g>
<g>
	<path style="fill:#EDEDED;" d="M140.803,325.123c9.908,0,17.939,1.823,17.939,4.066c0,2.248-8.031,4.066-17.939,4.066
		c-9.904,0-17.934-1.818-17.934-4.066C122.869,326.945,130.9,325.123,140.803,325.123z"/>
	<path style="fill:#EDEDED;" d="M172.611,326.53c9.159-3.778,17.277-5.153,18.135-3.079c0.854,2.079-5.879,6.82-15.038,10.594
		c-9.159,3.778-17.277,5.153-18.131,3.079C156.723,335.045,163.452,330.303,172.611,326.53z"/>
</g>
<g>
	<path style="fill:#FFA940;" d="M130.114,352.76c7.135,2.503,15.586,1.836,22.484,0v27.025c0,4.573-5.144,8.282-11.484,8.282
		s-11.475-3.709-11.475-8.282c0-0.069,0-0.142,0-0.215L130.114,352.76z"/>
	<path style="fill:#FFA940;" d="M169.254,347.57c7.551-0.407,19.424,8.25,25.097,3.924l9.99,21.077
		c1.745,4.23-1.594,9.616-7.455,12.032s-12.028,0.946-13.773-3.28c-0.027-0.069-0.05-0.137-0.078-0.206L169.254,347.57z"/>
</g>
<path style="fill:#FFFFFF;" d="M180.861,21.425c3.307,0,6.427,0.786,9.191,2.179c2.992-2.928,7.085-4.733,11.603-4.733
	c7.821,0,14.38,5.413,16.135,12.699c3.91,1.174,7.044,4.125,8.478,7.917c0.471-0.055,0.946-0.078,1.43-0.078
	c7.222,0,13.088,5.861,13.088,13.092c0,7.227-5.865,13.088-13.088,13.088c-2.257,0-4.376-0.566-6.222-1.567
	c-1.59,5.441-6.615,9.41-12.571,9.41c-3.632,0-6.921-1.48-9.296-3.878c-2.371,2.398-5.664,3.878-9.301,3.878
	c-3.454,0-6.601-1.343-8.944-3.531c-2.389,2.618-5.829,4.257-9.657,4.257c-3.586,0-6.829-1.43-9.186-3.764
	c-1.083,0.242-2.211,0.365-3.358,0.365c-8.615,0-15.596-6.985-15.596-15.596s6.98-15.596,15.596-15.596
	c0.466,0,0.932,0.023,1.393,0.069C161.661,29.396,170.332,21.425,180.861,21.425z"/>
<path style="fill:#FFFF00;" d="M247.981,11.859c15.673,0,28.377,12.704,28.377,28.377c0,15.669-12.704,28.373-28.377,28.373
	c-15.664,0-28.373-12.704-28.373-28.373C219.608,24.563,232.317,11.859,247.981,11.859z"/>
<path style="fill:#FFFFFF;" d="M289.551,25.01c2.622,0,5.103,0.626,7.295,1.727c2.375-2.321,5.628-3.76,9.214-3.76
	c6.208,0,11.42,4.303,12.809,10.086c3.106,0.932,5.596,3.275,6.733,6.286c0.375-0.041,0.754-0.059,1.137-0.059
	c5.733,0,10.392,4.655,10.392,10.397c0,5.738-4.659,10.392-10.392,10.392c-1.791,0-3.472-0.452-4.943-1.247
	c-1.261,4.321-5.253,7.473-9.981,7.473c-2.887,0-5.495-1.174-7.382-3.079c-1.882,1.905-4.495,3.079-7.387,3.079
	c-2.745,0-5.244-1.064-7.103-2.8c-1.896,2.078-4.628,3.38-7.67,3.38c-2.841,0-5.418-1.137-7.295-2.992
	c-0.854,0.192-1.75,0.292-2.663,0.292c-6.843,0-12.384-5.546-12.384-12.384s5.541-12.384,12.384-12.384
	c0.37,0,0.74,0.018,1.105,0.05C274.298,31.337,281.182,25.01,289.551,25.01z"/>
<g>
	<path d="M93.441,104.551c0,0,5.788-1.243,10.635-0.315c4.86,0.927,9.917,4.956,15.395,5.272c5.477,0.306,4.34-1.759,4.34-1.759
		s-3.513,0.516-4.445-2.48c-0.927-2.992,2.896-5.372,8.78-9.497c5.893-4.134,7.026-8.268,5.893-10.854c0,0-1.037,1.654-5.893,4.239
		c-4.856,2.586-8.364,7.336-12.183,10.74c-3.824,3.412-4.034,3.613-7.647,2.892S96.954,100.933,93.441,104.551z"/>
	<path d="M65.886,136.253c0,0,5.788-1.243,10.635-0.315c4.86,0.932,9.922,4.961,15.399,5.272c5.473,0.306,4.335-1.759,4.335-1.759
		s-3.513,0.521-4.445-2.476c-0.927-2.997,2.896-5.377,8.78-9.502c5.893-4.134,7.026-8.264,5.893-10.849c0,0-1.037,1.654-5.893,4.235
		c-4.851,2.586-8.364,7.336-12.183,10.74c-3.824,3.412-4.034,3.618-7.647,2.896C77.146,133.768,69.399,132.635,65.886,136.253z"/>
	<path d="M138.51,103.002c0,0,5.788-1.243,10.635-0.315c4.86,0.927,9.922,4.956,15.399,5.272c5.473,0.306,4.335-1.759,4.335-1.759
		s-3.513,0.516-4.445-2.476c-0.927-2.997,2.896-5.377,8.78-9.502c5.893-4.134,7.026-8.268,5.893-10.854c0,0-1.037,1.654-5.893,4.239
		c-4.851,2.586-8.364,7.336-12.183,10.74c-3.824,3.412-4.034,3.613-7.647,2.892S142.023,99.384,138.51,103.002z"/>
</g>
<g>
</g>
<g>
</g>
<g>
</g>
<g>
</g>
<g>
</g>
<g>
</g>
<g>
</g>
<g>
</g>
<g>
</g>
<g>
</g>
<g>
</g>
<g>
</g>
<g>
</g>
<g>
</g>
<g>
</g>
</svg>
