<?xml version="1.0" encoding="iso-8859-1"?>
<!-- Generator: Adobe Illustrator 19.0.0, SVG Export Plug-In . SVG Version: 6.00 Build 0)  -->
<svg version="1.1" id="Layer_1" xmlns="http://www.w3.org/2000/svg" xmlns:xlink="http://www.w3.org/1999/xlink" x="0px" y="0px"
	 viewBox="0 0 512 512" style="enable-background:new 0 0 512 512;" xml:space="preserve">
<path style="fill:#B1E3FB;" d="M256.001,0C397.386,0,512,114.614,512,256.001C512,397.386,397.386,512,256.001,512
	C114.614,512,0,397.386,0,256.001C0,114.614,114.614,0,256.001,0z"/>
<path style="fill:#A2DFFB;" d="M148.359,55.117c32.192,0,58.29,26.092,58.29,58.287c0,32.193-26.098,58.288-58.29,58.288
	c-32.191,0-58.286-26.095-58.286-58.288C90.074,81.209,116.169,55.117,148.359,55.117z"/>
<path style="fill:#98DBFB;" d="M148.359,63.783c27.404,0,49.621,22.219,49.621,49.621c0,27.403-22.217,49.619-49.621,49.619
	c-27.403,0-49.62-22.216-49.62-49.619C98.739,86.002,120.956,63.783,148.359,63.783z"/>
<g>
	<path style="fill:#E2F4FD;" d="M472.553,144.486c2.719,0,5.28,0.438,7.545,1.217c1.613-1.077,3.617-1.879,5.855-2.305
		c4.725,9.635,8.869,19.603,12.376,29.87c-0.88,0.158-1.801,0.243-2.754,0.243c-2.984,0-5.682-0.827-7.635-2.165
		c-1.946,1.338-4.645,2.165-7.634,2.165c-2.836,0-5.42-0.749-7.34-1.97c-1.961,1.458-4.785,2.377-7.93,2.377
		c-2.941,0-5.605-0.802-7.541-2.102c-0.886,0.133-1.812,0.203-2.756,0.203c-7.071,0-12.8-3.896-12.8-8.702
		c0-4.813,5.729-8.707,12.8-8.707c0.382,0,0.77,0.013,1.145,0.036C456.791,148.932,463.909,144.486,472.553,144.486z"/>
	<path style="fill:#E2F4FD;" d="M264.695,107.966c3.136,0,6.098,0.508,8.716,1.409c2.836-1.89,6.723-3.056,11.006-3.056
		c7.421,0,13.641,3.49,15.309,8.191c3.708,0.758,6.684,2.661,8.039,5.106c0.447-0.034,0.901-0.048,1.357-0.048
		c6.856,0,12.415,3.779,12.415,8.443c0,4.662-5.56,8.441-12.415,8.441c-2.138,0-4.147-0.364-5.901-1.01
		c-1.51,3.507-6.274,6.071-11.923,6.071c-3.449,0-6.569-0.958-8.82-2.504c-2.249,1.546-5.372,2.504-8.824,2.504
		c-3.277,0-6.262-0.867-8.484-2.28c-2.265,1.691-5.531,2.749-9.163,2.749c-3.397,0-6.473-0.927-8.713-2.428
		c-1.027,0.153-2.094,0.231-3.184,0.231c-8.173,0-14.796-4.502-14.796-10.056c0-5.557,6.622-10.058,14.796-10.058
		c0.444,0,0.884,0.014,1.321,0.041C246.481,113.109,254.703,107.966,264.695,107.966z"/>
</g>
<g>
	<path d="M263.598,36.34c0,0,5.919-1.268,10.868-0.322c4.964,0.952,10.134,5.068,15.728,5.384s4.432-1.795,4.432-1.795
		s-3.587,0.531-4.54-2.529c-0.946-3.06,2.958-5.493,8.97-9.707c6.019-4.222,7.179-8.444,6.019-11.087c0,0-1.06,1.691-6.019,4.33
		c-4.959,2.638-8.544,7.495-12.45,10.971c-3.903,3.487-4.118,3.696-7.811,2.958C275.106,33.803,267.187,32.646,263.598,36.34z"/>
	<path d="M213.949,78.96c0,0,5.915-1.269,10.866-0.32c4.962,0.95,10.134,5.066,15.73,5.384c5.592,0.312,4.428-1.797,4.428-1.797
		s-3.587,0.531-4.538-2.529c-0.948-3.063,2.958-5.493,8.968-9.707c6.019-4.222,7.181-8.444,6.019-11.087c0,0-1.056,1.69-6.019,4.329
		c-4.96,2.642-8.545,7.498-12.446,10.972c-3.908,3.486-4.12,3.696-7.815,2.958C225.454,76.423,217.539,75.265,213.949,78.96z"/>
	<path d="M324.778,63.153c0,0,5.915-1.265,10.866-0.319c4.964,0.949,10.134,5.067,15.73,5.385c5.594,0.312,4.43-1.797,4.43-1.797
		s-3.587,0.531-4.542-2.531c-0.944-3.061,2.96-5.491,8.97-9.706c6.02-4.221,7.181-8.445,6.02-11.084c0,0-1.059,1.688-6.02,4.327
		c-4.958,2.641-8.542,7.497-12.446,10.972c-3.908,3.488-4.118,3.695-7.813,2.957C336.284,60.62,328.368,59.46,324.778,63.153z"/>
</g>
<path style="fill:#7FDDE9;" d="M0.075,261.837h511.849C508.821,400.526,395.435,512,256.001,512
	C116.565,512,3.179,400.526,0.075,261.837z"/>
<path style="fill:#4CCFDF;" d="M9.199,324.189h493.602C472.951,432.47,373.77,512,256.001,512
	C138.23,512,39.049,432.47,9.199,324.189z"/>
<path style="fill:#26C5D9;" d="M34.891,385.077h442.218C432.694,460.997,350.309,512,256.001,512
	C161.691,512,79.306,460.997,34.891,385.077z"/>
<path style="fill:#31BBCB;" d="M81.569,443.354h348.861C384.714,485.935,323.403,512,256.001,512
	C188.597,512,127.286,485.935,81.569,443.354z"/>
<path style="fill:#8CD7FA;" d="M148.359,73.107c22.255,0,40.299,18.041,40.299,40.297c0,22.253-18.043,40.295-40.299,40.295
	c-22.253,0-40.295-18.041-40.295-40.295C108.065,91.149,126.106,73.107,148.359,73.107z"/>
<g>
	<path style="fill:#4EC1F5;" d="M452.121,196.247c-63.343,26.42-68.467,56.581-68.467,56.581s-38.433-16.419-87.197-26.793
		c-0.596-15.25,5.673-36.109,5.673-36.109c-22.571,9.515-39.344,24.005-45.356,29.631c-10.654-1.161-21.434-1.835-32.099-1.815
		C148.08,217.861,63.896,263.95,63.896,263.95s34.571,7.211,51.723,4.804l50.167,0.854c1.777,1.806,21.042-3.048,28.516-0.632
		c7.479,2.418,53.312,9.005,64.483,8.514c11.171-0.483,67.379-11.643,81.259-10.961c13.884,0.678,43.992,4.276,51.351,5.836
		c0,0,4.626,18.738,13.27,35.134c22.503,25.868,50.612,25.708,50.612,25.708c-19.138-24.485-33.755-68.479-33.755-68.479
		C421.065,249.978,452.121,196.247,452.121,196.247z M321.755,289.937c0,0,13.159,10.48,15.532,9.14l-4-10.697L321.755,289.937z
		 M166.473,301.184c0,0-15.178,27.584,17.736,48.168c0,0,2.172-21.743,16.126-39.456L166.473,301.184z"/>
	<path style="fill:#0095A5;" d="M67.926,261.837c-2.614,1.338-4.03,2.113-4.03,2.113s34.571,7.211,51.723,4.804
		c0,0,4.849-3.111,11.105-6.917H67.926z M162.093,261.837c1.646,3.79,3.001,7.068,3.693,7.772
		c1.777,1.806,21.042-3.048,28.516-0.632c7.479,2.418,53.312,9.005,64.483,8.514c11.171-0.483,67.379-11.643,81.259-10.961
		c13.884,0.678,43.992,4.276,51.351,5.836c0,0,4.626,18.738,13.27,35.134c22.503,25.868,50.612,25.708,50.612,25.708
		c-19.138-24.485-33.755-68.479-33.755-68.479c-0.025-0.842,0.052-1.814,0.22-2.892H162.093z M321.755,289.937
		c0,0,13.159,10.48,15.532,9.14l-4-10.697L321.755,289.937z M166.473,301.184c0,0-15.178,27.584,17.736,48.168
		c0,0,2.172-21.743,16.126-39.456L166.473,301.184z"/>
	<path style="fill:#B9DDF9;" d="M97.111,284.376c13.217,6.929,26.331,12.427,39.211,16.729c25.848,8.622,50.76,12.406,73.708,13.184
		c46.401,2.032,85.318-7.829,106.575-17.003c8.026-2.893,13.831-5.409,16.974-6.785l0.452-0.199
		c8.533-3.151,16.176-5.58,22.78-7.438c15.546-4.032,30.044-6.308,30.044-6.308c4.829,13.119,11.071,23.195,17.81,30.944
		c-8.645-16.396-13.268-35.134-13.268-35.134c-7.359-1.56-37.466-5.158-51.351-5.836c-13.881-0.682-70.088,10.475-81.259,10.961
		c-11.171,0.488-57.004-6.096-64.483-8.512c-7.475-2.416-26.739,2.436-28.513,0.63l-50.17-0.854
		c-17.152,2.407-51.723-4.804-51.723-4.804C74.992,271.849,86.086,278.599,97.111,284.376z"/>
	<path style="fill:#1AB3C5;" d="M97.111,284.376c13.217,6.929,26.331,12.427,39.211,16.729c25.848,8.622,50.76,12.406,73.708,13.184
		c46.401,2.032,85.318-7.829,106.575-17.003c8.026-2.893,13.831-5.409,16.974-6.785l0.452-0.199
		c8.533-3.151,16.176-5.58,22.78-7.438c15.546-4.032,30.044-6.308,30.044-6.308c4.829,13.119,11.071,23.195,17.81,30.944
		c-8.645-16.396-13.268-35.134-13.268-35.134c-7.359-1.56-37.466-5.158-51.351-5.836c-13.881-0.682-70.088,10.475-81.259,10.961
		c-11.171,0.488-57.004-6.096-64.483-8.512c-7.475-2.416-26.739,2.436-28.513,0.63c-0.692-0.703-2.048-3.981-3.696-7.772h-35.371
		c-6.256,3.806-11.103,6.917-11.103,6.917c-17.152,2.407-51.723-4.804-51.723-4.804C74.992,271.849,86.086,278.599,97.111,284.376z"
		/>
	<path style="fill:#0095A5;" d="M198.679,269.865c0,0,8.505,67.58,86.265,64.749c0,0-24.299-29.382-33.423-59.13
		C251.522,275.484,226.772,266.074,198.679,269.865z"/>
</g>
<g>
	<path style="fill:#E2F4FD;" d="M393.266,70.801c3.135,0,6.095,0.506,8.716,1.404c2.838-1.885,6.72-3.053,11.006-3.053
		c7.421,0,13.64,3.492,15.308,8.19c3.707,0.759,6.684,2.66,8.038,5.107c0.446-0.035,0.9-0.048,1.356-0.048
		c3.326,0,6.348,0.889,8.576,2.336c1.136,1.262,2.265,2.527,3.377,3.812c0.302,0.731,0.467,1.5,0.467,2.295
		c0,4.662-5.564,8.443-12.419,8.443c-2.135,0-4.146-0.366-5.899-1.014c-1.512,3.509-6.276,6.073-11.922,6.073
		c-3.452,0-6.572-0.958-8.821-2.506c-2.251,1.548-5.373,2.506-8.825,2.506c-3.276,0-6.263-0.867-8.482-2.278
		c-2.268,1.687-5.534,2.747-9.163,2.747c-3.397,0-6.475-0.925-8.714-2.431c-1.027,0.156-2.096,0.237-3.186,0.237
		c-8.173,0-14.793-4.504-14.793-10.058c0-5.555,6.619-10.06,14.793-10.06c0.445,0,0.887,0.016,1.321,0.043
		C375.049,75.941,383.274,70.801,393.266,70.801z"/>
	<path style="fill:#E2F4FD;" d="M76.28,131.324c3.136,0,6.098,0.511,8.717,1.407c2.837-1.888,6.72-3.054,11.006-3.054
		c7.421,0,13.64,3.49,15.308,8.191c3.709,0.758,6.684,2.659,8.04,5.106c0.446-0.034,0.9-0.048,1.356-0.048
		c6.854,0,12.417,3.779,12.417,8.443c0,4.662-5.564,8.441-12.417,8.441c-2.137,0-4.149-0.364-5.901-1.009
		c-1.51,3.506-6.274,6.07-11.922,6.07c-3.45,0-6.57-0.957-8.821-2.504c-2.251,1.547-5.374,2.504-8.823,2.504
		c-3.278,0-6.265-0.869-8.484-2.277c-2.265,1.686-5.532,2.746-9.163,2.746c-3.398,0-6.473-0.925-8.714-2.428
		c-1.027,0.153-2.096,0.234-3.184,0.234c-8.175,0-14.795-4.503-14.795-10.06c0-5.552,6.619-10.056,14.795-10.056
		c0.442,0,0.885,0.014,1.321,0.041C58.063,136.466,66.289,131.324,76.28,131.324z"/>
</g>
<g>
</g>
<g>
</g>
<g>
</g>
<g>
</g>
<g>
</g>
<g>
</g>
<g>
</g>
<g>
</g>
<g>
</g>
<g>
</g>
<g>
</g>
<g>
</g>
<g>
</g>
<g>
</g>
<g>
</g>
</svg>
