<?xml version="1.0" encoding="UTF-8"?>
<svg width="512px" height="512px" viewBox="0 0 512 512" version="1.1" xmlns="http://www.w3.org/2000/svg" xmlns:xlink="http://www.w3.org/1999/xlink">
    <!-- Generator: Sketch 42 (36781) - http://www.bohemiancoding.com/sketch -->
    <title>mountains-1@2x</title>
    <desc>Created with Sketch.</desc>
    <defs></defs>
    <g id="Page-1" stroke="none" stroke-width="1" fill="none" fill-rule="evenodd">
        <g id="mountains-1" fill-rule="nonzero">
            <g id="Group">
                <circle id="Oval" fill="#95C4F8" cx="256" cy="256" r="256"></circle>
                <path d="M21.502,153.291 C13.832,170.777 8.074,189.28 4.461,208.549 C4.131,217.864 4,226.723 4,234.001 C4,257.423 7.421,280.085 13.705,301.639 C60.33,303.997 134.133,304.001 134.133,304.001 L174.666,242.001 L148,241.333 C98.017,241.333 63.857,171.386 21.502,153.291 Z" id="Shape" fill="#7E7E92"></path>
                <path d="M439.467,205.333 C412,205.333 400.667,241.6 364,241.6 L376,326 C376,326 470,333.88 478,335.94 C482.53,337.107 492.826,333.766 500.911,330.648 C508.101,307.027 512,281.972 512,256 C512,254.174 511.9,252.374 511.862,250.557 C510.377,249.372 455.12,205.333 439.467,205.333 Z" id="Shape" fill="#7E7E92"></path>
                <path d="M338.667,460 L474.744,389.049 C490.417,363.336 501.629,334.625 507.441,304 L507.441,304 C507.441,304 453.5,305.5 432.001,296 C405.565,284.319 345.647,201.656 308.171,152.032 C301.203,143.268 294.441,135.131 288.001,128 C276.888,115.694 244.434,112 240.001,112 C236.16,112 205.063,148.584 182.365,176.003 C148.147,217.787 107.86,268.14 88,288 L54.725,356 L338.667,460 Z" id="Shape" fill="#6E6E84"></path>
                <path d="M480.667,319.321 C441.334,319.321 402.287,325.2 356,286 C338,270.756 320.202,256.098 305,274.5 C295.5,286 277.902,324 256,308 C234.098,292 224.873,242.55 204,242 C187,241.552 173,266.342 160.478,252.667 C152.234,243.664 76.5,296.5 76.5,296.5 C76.5,296.5 154,365.312 165,364.656 C176,364 240.902,373.912 240.902,373.912 C240.902,373.912 263.925,401.029 275.749,396.667 C287.573,392.305 316.465,401.402 333.028,394.061 C349.591,386.721 428.589,354 430.294,350 C431.999,346 480.667,319.321 480.667,319.321 Z" id="Shape" fill="#5F5F74"></path>
                <path d="M175.75,304.001 C163.046,298.2 165.809,283.101 151.75,278.5 C138,274 136.25,270.75 128.5,264 C120.75,257.25 110.22,266.316 103.25,252.5 C99.214,244.499 82,241 74.75,234 C67.5,227 54.558,229.316 49,227 C37,222 41.75,214.75 27.5,216.25 C17.532,217.299 12.235,209.304 4.779,206.768 C2.573,218.086 1.098,229.664 0.437,241.462 L63,275.5 C63,275.5 124,295.25 128.5,297 C133,298.75 201.784,328.466 199.752,325.74 C196.125,320.875 185.875,308.625 175.75,304.001 Z" id="Shape" fill="#36B294"></path>
                <path d="M230.691,359.286 C226.959,357.425 218.269,352.734 210.667,342.667 C203.065,332.6 203,326 194,321.5 C183.881,316.44 184,316 172,310 C160,304 160,300 152.75,291.5 C144.796,282.175 132.451,282.687 120.451,277.354 C108.451,272.021 103.372,262.543 96,259 C88.628,255.457 84,259.333 77.333,255.934 C68.298,251.327 67.769,238.249 56.494,239.582 C45.219,240.915 42.412,244.896 34.666,238 C21.749,226.5 15.749,233.75 1.384,229.33 C0.477,238.097 0,246.993 0,256 C0,277.609 2.707,298.582 7.748,318.626 C19.141,320.849 31.623,323.217 44.057,326 C82.78,334.667 184.667,366.667 220.667,372.667 C256.667,378.667 234.424,361.147 230.691,359.286 Z" id="Shape" fill="#00A07D"></path>
                <path d="M0.955,277.354 C7.113,351.849 45.116,417.289 101.378,460 L193.787,460 L320,384 C215.033,384 156.522,277.795 0.955,277.354 Z" id="Shape" fill="#52C883"></path>
                <path d="M256,512 C380.97,512 484.963,422.431 507.44,304.001 C412.781,304.029 296.992,422.482 192,408 C134,400 119,383.967 44.057,399.604 C90.103,467.431 167.842,512 256,512 Z" id="Shape" fill="#34BE71"></path>
                <g transform="translate(205.000000, 380.000000)" id="Shape">
                    <path d="M16.022,65.779 C14.685,65.779 13.603,64.697 13.603,63.362 L13.603,37.327 C13.603,35.992 14.685,34.91 16.022,34.91 C17.359,34.91 18.441,35.992 18.441,37.327 L18.441,63.362 C18.441,64.697 17.359,65.779 16.022,65.779 Z" fill="#674447"></path>
                    <path d="M31.257,35.109 C31.257,43.523 24.436,50.344 16.022,50.344 C7.608,50.344 0.787,43.523 0.787,35.109 C0.787,26.695 7.608,0.83 16.022,0.83 C24.436,0.83 31.257,26.695 31.257,35.109 Z" fill="#00A07D"></path>
                    <path d="M16.021,0.83 C13.909,0.83 11.898,2.463 10.069,5.037 L10.069,5.037 C17.77,5.037 24.013,28.71 24.013,36.411 C24.013,43.11 19.285,48.695 12.987,50.038 C13.968,50.236 14.981,50.344 16.02,50.344 C24.434,50.344 31.255,43.523 31.255,35.109 C31.257,26.695 24.436,0.83 16.021,0.83 Z" fill="#36B294"></path>
                </g>
                <g transform="translate(396.000000, 284.000000)" id="Shape">
                    <path d="M21.67,89.912 C19.825,89.912 18.33,88.418 18.33,86.575 L18.33,50.63 C18.33,48.787 19.824,47.293 21.67,47.293 C23.515,47.293 25.01,48.787 25.01,50.63 L25.01,86.575 C25.01,88.418 23.516,89.912 21.67,89.912 Z" fill="#674447"></path>
                    <path d="M42.704,47.568 C42.704,59.185 33.287,68.602 21.669,68.602 C10.051,68.602 0.635,59.185 0.635,47.568 C0.635,35.951 10.052,0.24 21.669,0.24 C33.286,0.24 42.704,35.951 42.704,47.568 Z" fill="#00A07D"></path>
                    <path d="M21.669,0.24 C18.753,0.24 15.976,2.494 13.451,6.049 L13.452,6.049 C24.085,6.049 32.704,38.733 32.704,49.366 C32.704,58.615 26.177,66.326 17.481,68.18 C18.835,68.454 20.234,68.602 21.669,68.602 C33.286,68.602 42.704,59.185 42.704,47.568 C42.704,35.951 33.286,0.24 21.669,0.24 Z" fill="#36B294"></path>
                </g>
                <g transform="translate(450.000000, 288.000000)" id="Shape">
                    <path d="M21.837,90.596 C19.992,90.596 18.497,89.102 18.497,87.259 L18.497,51.314 C18.497,49.471 19.991,47.977 21.837,47.977 C23.683,47.977 25.177,49.471 25.177,51.314 L25.177,87.259 C25.177,89.101 23.682,90.596 21.837,90.596 Z" fill="#674447"></path>
                    <path d="M42.87,48.251 C42.87,59.868 33.453,69.285 21.835,69.285 C10.217,69.285 0.801,59.868 0.801,48.251 C0.801,36.634 10.218,0.923 21.835,0.923 C33.452,0.923 42.87,36.634 42.87,48.251 Z" fill="#00A07D"></path>
                    <path d="M21.836,0.924 C18.92,0.924 16.143,3.178 13.618,6.733 L13.619,6.733 C24.252,6.733 32.871,39.417 32.871,50.05 C32.871,59.299 26.344,67.01 17.648,68.864 C19.002,69.138 20.401,69.286 21.836,69.286 C33.453,69.286 42.871,59.869 42.871,48.252 C42.871,36.634 33.453,0.924 21.836,0.924 Z" fill="#36B294"></path>
                </g>
                <g transform="translate(271.000000, 334.000000)" id="Shape">
                    <path d="M21.213,90.264 C19.368,90.264 17.873,88.77 17.873,86.927 L17.873,50.982 C17.873,49.139 19.367,47.645 21.213,47.645 C23.059,47.645 24.553,49.139 24.553,50.982 L24.553,86.927 C24.553,88.77 23.058,90.264 21.213,90.264 Z" fill="#674447"></path>
                    <path d="M42.247,47.92 C42.247,59.537 32.83,68.955 21.213,68.955 C9.596,68.955 0.178,59.538 0.178,47.92 C0.178,36.302 9.595,0.592 21.213,0.592 C32.831,0.592 42.247,36.303 42.247,47.92 Z" fill="#00A07D"></path>
                    <path d="M21.212,0.592 C18.296,0.592 15.519,2.846 12.994,6.401 L12.995,6.401 C23.628,6.401 32.247,39.085 32.247,49.718 C32.247,58.967 25.72,66.678 17.024,68.532 C18.378,68.805 19.777,68.954 21.212,68.954 C32.829,68.954 42.247,59.537 42.247,47.92 C42.247,36.303 32.829,0.592 21.212,0.592 Z" fill="#36B294"></path>
                </g>
                <g transform="translate(228.000000, 356.000000)" id="Shape">
                    <path d="M20.215,84.113 C18.497,84.113 17.105,82.722 17.105,81.006 L17.105,47.537 C17.105,45.821 18.496,44.43 20.215,44.43 C21.934,44.43 23.325,45.821 23.325,47.537 L23.325,81.006 C23.325,82.721 21.934,84.113 20.215,84.113 Z" fill="#674447"></path>
                    <path d="M39.8,44.685 C39.8,55.502 31.031,64.271 20.214,64.271 C9.397,64.271 0.628,55.502 0.628,44.685 C0.628,33.868 9.397,0.617 20.214,0.617 C31.031,0.617 39.8,33.868 39.8,44.685 Z" fill="#00A07D"></path>
                    <path d="M20.214,0.617 C17.499,0.617 14.913,2.716 12.562,6.026 L12.563,6.026 C22.463,6.026 30.489,36.459 30.489,46.359 C30.489,54.971 24.411,62.151 16.315,63.877 C17.576,64.132 18.879,64.27 20.215,64.27 C31.032,64.27 39.801,55.501 39.801,44.684 C39.8,33.868 31.031,0.617 20.214,0.617 Z" fill="#36B294"></path>
                </g>
                <path d="M485.73,368.878 C344,342 313.99,452.245 91.811,452.272 C136.264,489.504 193.478,512 256,512 C356.857,512 444.021,453.644 485.73,368.878 Z" id="Shape" fill="#44A67D"></path>
                <path d="M308.17,152.032 C301.202,143.268 294.44,135.131 288,128 C276.887,115.694 244.433,112 240,112 C236.159,112 205.062,148.584 182.364,176.003 C173.663,186.628 164.57,197.806 155.52,208.898 C159.433,214.358 167.004,222.048 178.214,220.955 C200.275,218.803 204.579,192.976 221.259,195.127 C243.981,198.059 240.532,264 264.305,264 C287.442,264 271.397,213.99 298.741,203.736 C318.883,196.183 326.309,217.838 360.251,220.651 C341.686,196.917 323.138,171.852 308.17,152.032 Z" id="Shape" fill="#C3E1F5"></path>
                <path d="M317.75,164.765 C314.439,160.355 311.215,156.063 308.171,152.032 C301.203,143.268 294.441,135.131 288.001,128 C276.888,115.694 244.434,112 240.001,112 C237.324,112 221.406,129.775 204.321,149.827 C223.001,135 233.193,141.101 236.667,158.445 C244.69,198.5 253.334,230.666 263.334,205.333 C273.334,180 268.939,165.492 298.272,168.5 C309.85,169.687 312.235,166.297 317.75,164.765 Z" id="Shape" fill="#EDF5FB"></path>
                <path d="M480.665,227.286 C464.789,216.203 447.243,205.333 439.467,205.333 C422.077,205.333 411.14,219.856 396.16,230.523 L396.171,230.53 C421,226.333 422.813,258.335 434.313,258.335 C447.77,258.335 448.137,241.172 461.333,247 C487,258.335 467.667,231.834 480.665,227.286 Z" id="Shape" fill="#C3E1F5"></path>
                <path d="M465.063,216.949 C454.432,210.324 444.714,205.333 439.466,205.333 C427.579,205.333 418.699,212.141 409.49,219.842 C422.591,225.554 432.984,242.199 449.072,231.499 C459.734,224.408 461.669,220.085 465.063,216.949 Z" id="Shape" fill="#EDF5FB"></path>
                <g transform="translate(362.000000, 277.000000)" id="Shape">
                    <path d="M27.139,111.929 C24.843,111.929 22.983,110.07 22.983,107.777 L22.983,63.052 C22.983,60.759 24.842,58.9 27.139,58.9 C29.436,58.9 31.295,60.759 31.295,63.052 L31.295,107.777 C31.294,110.07 29.435,111.929 27.139,111.929 Z" fill="#674447"></path>
                    <path d="M53.31,59.242 C53.31,73.697 41.592,85.414 27.138,85.414 C12.684,85.414 0.966,73.696 0.966,59.242 C0.966,44.788 12.684,0.354 27.138,0.354 C41.592,0.354 53.31,44.787 53.31,59.242 Z" fill="#00A07D"></path>
                    <path d="M27.138,0.354 C23.509,0.354 20.054,3.159 16.913,7.582 L16.914,7.582 C30.144,7.582 40.868,48.25 40.868,61.48 C40.868,72.988 32.746,82.583 21.927,84.89 C23.612,85.23 25.353,85.415 27.138,85.415 C41.593,85.415 53.311,73.697 53.311,59.243 C53.31,44.787 41.592,0.354 27.138,0.354 Z" fill="#36B294"></path>
                </g>
                <g transform="translate(421.000000, 277.000000)" id="Shape">
                    <path d="M25.273,105.474 C23.104,105.474 21.347,103.717 21.347,101.551 L21.347,59.294 C21.347,57.127 23.104,55.371 25.273,55.371 C27.442,55.371 29.199,57.128 29.199,59.294 L29.199,101.551 C29.2,103.717 27.443,105.474 25.273,105.474 Z" fill="#674447"></path>
                    <path d="M50.001,55.693 C50.001,69.35 38.93,80.421 25.273,80.421 C11.616,80.421 0.545,69.35 0.545,55.693 C0.545,42.036 11.616,0.054 25.273,0.054 C38.929,0.054 50.001,42.036 50.001,55.693 Z" fill="#00A07D"></path>
                    <path d="M25.272,0.054 C21.844,0.054 18.579,2.704 15.611,6.883 L15.612,6.883 C28.112,6.883 38.245,45.307 38.245,57.807 C38.245,68.68 30.572,77.745 20.349,79.925 C21.941,80.247 23.586,80.421 25.273,80.421 C38.93,80.421 50.002,69.35 50.002,55.693 C50.001,42.036 38.929,0.054 25.272,0.054 Z" fill="#36B294"></path>
                </g>
                <g transform="translate(335.000000, 301.000000)" id="Shape">
                    <path d="M22.062,92.673 C20.168,92.673 18.634,91.139 18.634,89.247 L18.634,52.348 C18.634,50.456 20.168,48.922 22.062,48.922 C23.956,48.922 25.49,50.456 25.49,52.348 L25.49,89.247 C25.49,91.139 23.956,92.673 22.062,92.673 Z" fill="#674447"></path>
                    <path d="M43.654,49.205 C43.654,61.13 33.987,70.798 22.061,70.798 C10.136,70.798 0.468,61.131 0.468,49.205 C0.468,37.279 10.135,0.621 22.061,0.621 C33.986,0.621 43.654,37.28 43.654,49.205 Z" fill="#00A07D"></path>
                    <path d="M22.061,0.621 C19.067,0.621 16.217,2.935 13.625,6.584 L13.626,6.584 C24.541,6.584 33.389,40.136 33.389,51.051 C33.389,60.545 26.688,68.461 17.762,70.365 C19.152,70.646 20.588,70.798 22.061,70.798 C33.986,70.798 43.654,61.131 43.654,49.205 C43.654,37.28 33.986,0.621 22.061,0.621 Z" fill="#36B294"></path>
                </g>
                <g transform="translate(297.000000, 301.000000)" id="Shape">
                    <path d="M30.975,131.458 C28.282,131.458 26.102,129.278 26.102,126.589 L26.102,74.143 C26.102,71.454 28.282,69.274 30.975,69.274 C33.668,69.274 35.848,71.454 35.848,74.143 L35.848,126.589 C35.848,129.278 33.667,131.458 30.975,131.458 Z" fill="#674447"></path>
                    <path d="M61.664,69.675 C61.664,86.625 47.923,100.366 30.973,100.366 C14.023,100.366 0.282,86.625 0.282,69.675 C0.282,52.725 14.023,0.621 30.973,0.621 C47.924,0.621 61.664,52.725 61.664,69.675 Z" fill="#00A07D"></path>
                    <path d="M30.974,0.621 C26.719,0.621 22.668,3.91 18.984,9.096 L18.985,9.096 C34.499,9.096 47.075,56.784 47.075,72.298 C47.075,85.793 37.551,97.044 24.864,99.749 C26.84,100.148 28.881,100.365 30.975,100.365 C47.925,100.365 61.666,86.624 61.666,69.675 C61.664,52.725 47.923,0.621 30.974,0.621 Z" fill="#36B294"></path>
                </g>
                <path d="M256,512 C323.364,512 384.603,485.944 430.294,443.401 C402.5,448 360.251,401 316.293,418.146 C296.707,425.786 234.398,478.642 180.101,500.476 C204.091,507.919 229.562,512 256,512 Z" id="Shape" fill="#5F5F74"></path>
                <path d="M316.293,418.146 C296.707,425.786 234.398,478.642 180.101,500.476 C181.93,501.043 183.823,501.455 185.669,501.982 C240.563,489 305.198,431 326.667,430.344 C332.795,430.157 372.334,459.999 394.595,471.171 C407.307,462.957 419.263,453.672 430.295,443.4 C402.5,448 360.251,401 316.293,418.146 Z" id="Shape" fill="#6E6E84"></path>
            </g>
        </g>
    </g>
</svg>