<?xml version="1.0" encoding="utf-8"?>
<!-- Generator: Adobe Illustrator 16.0.0, SVG Export Plug-In . SVG Version: 6.00 Build 0)  -->
<!DOCTYPE svg PUBLIC "-//W3C//DTD SVG 1.1//EN" "http://www.w3.org/Graphics/SVG/1.1/DTD/svg11.dtd">
<svg version="1.1" id="Calque_1" xmlns="http://www.w3.org/2000/svg" xmlns:xlink="http://www.w3.org/1999/xlink" x="0px" y="0px"
	 width="600px" height="600px" viewBox="0 0 600 600" enable-background="new 0 0 600 600" xml:space="preserve">
<g>
	<path fill="#52A4FF" d="M429.992,180.837c-19.818-61.079-76.768-103.506-142.786-103.506c-78.306,0-142.77,60.194-149.598,136.729
		c-35.851,12.521-61.652,46.65-61.652,86.716c0,39.965,25.015,73.732,60.629,86.43l36.243-42.335h-4.759h-1.812
		c-23.897-0.83-42.585-20.161-42.585-44.095c0-0.097,0-0.129,0-0.19c0-0.032,0-0.075,0-0.11c0-0.14,0.036-0.283,0.036-0.419
		c0.028-0.987,0.058-1.979,0.136-2.963c1.739-22.917,20.87-41.014,44.225-41.014c1.517,0,3.041,0.064,4.48,0.251
		c0.486,0.032,1.459,0.186,1.975,0.186c6.385,0,11.53-5.167,11.53-11.552c0-0.723-0.071-1.409-0.2-2.101
		c-0.78-5.038-1.188-10.142-1.188-15.338c0-56.487,46.014-102.497,102.54-102.497c41.706,0,78.127,24.832,94.024,61.619
		c-17.285,6.312-32.564,16.959-44.461,30.983c-7.594,9.391-6.977,23.2,1.727,31.903c9.332,9.333,24.463,9.333,33.744,0
		c0.344-0.391,0.695-0.784,1.002-1.191c10.965-12.805,27.076-20.474,44.576-20.474c32.277,0,58.545,26.206,58.545,58.488
		c0,32.264-26.268,58.513-58.545,58.513h-29.266l-40.918,47.717h70.184c58.58,0,106.225-47.631,106.225-106.229
		C524.043,231.875,482.84,186.885,429.992,180.837z"/>
	<polygon fill="#52A4FF" points="263.696,344.871 267.625,333.777 303.783,231.628 245.251,299.896 165.744,392.588
		246.791,392.588 224.497,455.635 200.763,522.669 265.951,446.71 353.383,344.871 	"/>
</g>
</svg>
