<?xml version="1.0" encoding="utf-8"?>
<!-- Generator: Adobe Illustrator 16.0.0, SVG Export Plug-In . SVG Version: 6.00 Build 0)  -->
<!DOCTYPE svg PUBLIC "-//W3C//DTD SVG 1.1//EN" "http://www.w3.org/Graphics/SVG/1.1/DTD/svg11.dtd">
<svg version="1.1" id="Calque_1" xmlns="http://www.w3.org/2000/svg" xmlns:xlink="http://www.w3.org/1999/xlink" x="0px" y="0px"
	 width="600px" height="600px" viewBox="0 0 600 600" enable-background="new 0 0 600 600" xml:space="preserve">
<g>
	<path fill="#FFFFFF" d="M429.941,154.538C410.137,93.409,353.26,51.039,287.156,51.039c-78.299,0-142.728,60.178-149.57,136.729
		c-35.878,12.525-61.629,46.658-61.629,86.702c0,49.842,38.877,90.079,88.59,91.783v0.035H417.76
		c58.617,0,106.283-47.673,106.283-106.219C524.043,205.59,482.84,160.594,429.941,154.538z M417.76,318.587H168.09h-1.889
		c-23.877-0.83-42.55-20.183-42.55-44.116c0-0.079,0-0.114,0-0.172c0-0.043,0-0.079,0-0.129c0-0.122,0.036-0.271,0.036-0.415
		c0-0.987,0.071-1.961,0.136-2.949c1.761-22.96,20.835-41.031,44.267-41.031c1.461,0,2.978,0.078,4.438,0.207
		c0.501,0.101,1.475,0.215,1.961,0.215c6.385,0,11.523-5.167,11.523-11.552c0-0.687-0.086-1.417-0.215-2.075
		c-0.709-5.031-1.123-10.163-1.123-15.331c0-56.526,45.963-102.489,102.482-102.489c41.748,0,78.156,24.807,94.023,61.594
		c-17.228,6.284-32.579,16.977-44.46,30.969c-7.565,9.362-6.936,23.204,1.746,31.936c9.34,9.297,24.441,9.297,33.725,0
		c0.394-0.408,0.708-0.795,1.045-1.188c10.929-12.818,27.104-20.533,44.524-20.533c32.278,0,58.538,26.267,58.538,58.545
		C476.298,292.32,450.038,318.587,417.76,318.587z"/>
	<path fill="#FFFFFF" d="M204.807,389.958c0.93,0-29.48,37.683-29.48,56.728c0,19.038,13.197,34.469,29.48,34.469
		c16.275,0,29.459-15.431,29.459-34.469C234.266,427.641,203.883,389.958,204.807,389.958z"/>
	<path fill="#FFFFFF" d="M299.768,389.958c0.923,0-29.488,37.683-29.488,56.728c0,19.038,13.198,34.469,29.488,34.469
		c16.268,0,29.444-15.431,29.444-34.469C329.212,427.641,298.837,389.958,299.768,389.958z"/>
	<path fill="#FFFFFF" d="M231.23,524.369c0,13.584,9.426,24.592,21.049,24.592s21.035-11.008,21.035-24.592
		c0-13.613-21.693-40.51-21.035-40.51S231.23,510.756,231.23,524.369z"/>
	<path fill="#FFFFFF" d="M326.191,524.369c0,13.584,9.419,24.592,21.042,24.592s21.027-11.008,21.027-24.592
		c0-13.613-21.687-40.51-21.027-40.51C347.892,483.859,326.191,510.756,326.191,524.369z"/>
	<path fill="#FFFFFF" d="M365.24,446.686c0,19.038,13.198,34.469,29.48,34.469c16.269,0,29.451-15.431,29.451-34.469
		c0-19.045-30.374-56.728-29.451-56.728C395.645,389.958,365.24,427.641,365.24,446.686z"/>
</g>
</svg>
