<?xml version="1.0" encoding="utf-8"?>
<!-- Generator: Adobe Illustrator 16.0.0, SVG Export Plug-In . SVG Version: 6.00 Build 0)  -->
<!DOCTYPE svg PUBLIC "-//W3C//DTD SVG 1.1//EN" "http://www.w3.org/Graphics/SVG/1.1/DTD/svg11.dtd">
<svg version="1.1" id="Calque_1" xmlns="http://www.w3.org/2000/svg" xmlns:xlink="http://www.w3.org/1999/xlink" x="0px" y="0px"
	 width="600px" height="600px" viewBox="0 0 600 600" enable-background="new 0 0 600 600" xml:space="preserve">
<g>
	<path fill="#FFFFFF" d="M380.818,328.016c-19.811-61.146-76.754-103.513-142.799-103.513c-78.271,0-142.741,60.195-149.598,136.733
		c-35.843,12.524-61.623,46.649-61.623,86.712c0,49.846,38.92,90.065,88.619,91.772v0.043h253.206
		c58.588,0,106.254-47.67,106.254-106.233C474.877,379.05,433.682,334.057,380.818,328.016z M368.623,492.047H118.911h-1.818
		c-23.891-0.827-42.6-20.162-42.6-44.099c0-0.093,0-0.125,0-0.189c0-0.032,0-0.079,0-0.107c0-0.14,0.029-0.279,0.029-0.423
		c0.028-0.987,0.071-1.975,0.157-2.956c1.718-22.956,20.856-41.021,44.231-41.021c1.518,0,3.034,0.061,4.48,0.218
		c0.472,0.064,1.445,0.223,1.946,0.223c6.398,0,11.552-5.196,11.552-11.588c0-0.687-0.086-1.402-0.215-2.064
		c-0.773-5.043-1.174-10.142-1.174-15.342c0-56.517,46.006-102.493,102.519-102.493c41.741,0,78.157,24.828,94.03,61.619
		c-17.248,6.276-32.564,16.955-44.459,30.979c-7.572,9.365-6.985,23.168,1.732,31.906c9.333,9.297,24.463,9.297,33.739,0
		c0.357-0.394,0.688-0.783,1.016-1.191c10.979-12.804,27.068-20.537,44.547-20.537c32.307,0,58.545,26.27,58.545,58.549
		C427.168,465.794,400.93,492.047,368.623,492.047z"/>
	<path fill="#FFFFFF" d="M503.162,95.821L473.26,77.312l-36.043,58.224c10.836,4.616,20.912,10.911,29.846,18.598L503.162,95.821z"
		/>
	<path fill="#FFFFFF" d="M503.707,214.469c1.373,5.808,2.275,11.63,2.705,17.409l66.789-15.721l-8.059-34.218l-66.775,15.717
		C500.557,203.027,502.346,208.628,503.707,214.469z"/>
	<path fill="#FFFFFF" d="M366.303,129.398c5.955-1.424,11.924-2.297,17.879-2.737l-15.645-66.425l-34.24,8.048l15.617,66.282
		C355.152,132.483,360.621,130.73,366.303,129.398z"/>
	<path fill="#FFFFFF" d="M479.387,314.736l58.244,36.043l18.508-29.885l-58.316-36.1
		C493.242,295.655,487.029,305.771,479.387,314.736z"/>
	<path fill="#FFFFFF" d="M380.389,189.293c28.299-6.667,56.771,10.947,63.441,39.265c6.656,28.306-10.965,56.749-39.264,63.422
		c-2.406,0.565-4.803,0.892-7.193,1.117c1.854,4.298,3.578,8.674,5.045,13.19c12.254,1.402,23.842,4.974,34.477,10.195
		c32.4-18.995,50.193-57.564,41.146-95.984c-11.107-47.187-58.518-76.523-105.697-65.423c-30.16,7.096-52.963,29.054-62.639,56.28
		c11.279,3.965,21.943,9.236,31.834,15.659C346.422,208.868,360.857,193.888,380.389,189.293z"/>
	<path fill="#FFFFFF" d="M305.969,166.064l-57.772-35.771l-18.522,29.885l57.715,35.739
		C291.999,185.07,298.283,174.986,305.969,166.064z"/>
</g>
</svg>
