<?xml version="1.0" encoding="utf-8"?>
<!-- Generator: Adobe Illustrator 16.0.0, SVG Export Plug-In . SVG Version: 6.00 Build 0)  -->
<!DOCTYPE svg PUBLIC "-//W3C//DTD SVG 1.1//EN" "http://www.w3.org/Graphics/SVG/1.1/DTD/svg11.dtd">
<svg version="1.1" id="Calque_1" xmlns="http://www.w3.org/2000/svg" xmlns:xlink="http://www.w3.org/1999/xlink" x="0px" y="0px"
	 width="600px" height="600px" viewBox="0 0 600 600" enable-background="new 0 0 600 600" xml:space="preserve">
<path fill="#FFFFFF" d="M429.973,245.878c-19.782-61.144-76.738-103.506-142.784-103.506c-78.277,0-142.749,60.195-149.605,136.73
	c-35.836,12.521-61.63,46.65-61.63,86.715c0,49.85,38.913,90.059,88.619,91.77v0.043h253.22
	c58.581,0,106.255-47.666,106.255-106.234C524.047,296.916,482.843,251.926,429.973,245.878z M417.792,409.912H168.065h-1.818
	c-23.891-0.83-42.6-20.162-42.6-44.096c0-0.092,0-0.129,0-0.193c0-0.027,0-0.07,0-0.107c0-0.135,0.036-0.279,0.036-0.422
	c0.036-0.988,0.079-1.975,0.179-2.963c1.718-22.945,20.813-41.01,44.203-41.01c1.503,0,3.034,0.064,4.494,0.215
	c0.451,0.07,1.432,0.221,1.939,0.221c6.406,0,11.573-5.195,11.573-11.584c0-0.689-0.114-1.41-0.258-2.068
	c-0.744-5.039-1.152-10.141-1.152-15.337c0-56.519,46.014-102.497,102.526-102.497c41.719,0,78.142,24.832,94.037,61.619
	c-17.284,6.277-32.594,16.959-44.481,30.983c-7.594,9.358-6.964,23.167,1.739,31.905c9.333,9.297,24.456,9.297,33.725,0
	c0.372-0.393,0.716-0.787,1.03-1.195c10.958-12.803,27.083-20.537,44.554-20.537c32.278,0,58.552,26.271,58.552,58.548
	C476.344,383.66,450.07,409.912,417.792,409.912z"/>
</svg>
