<?xml version="1.0" encoding="utf-8"?>
<!-- Generator: Adobe Illustrator 16.0.0, SVG Export Plug-In . SVG Version: 6.00 Build 0)  -->
<!DOCTYPE svg PUBLIC "-//W3C//DTD SVG 1.1//EN" "http://www.w3.org/Graphics/SVG/1.1/DTD/svg11.dtd">
<svg version="1.1" id="Calque_1" xmlns="http://www.w3.org/2000/svg" xmlns:xlink="http://www.w3.org/1999/xlink" x="0px" y="0px"
	 width="600px" height="600px" viewBox="0 0 600 600" enable-background="new 0 0 600 600" xml:space="preserve">
<g>
	<path fill="#FFFFFF" d="M429.941,161.824C410.137,100.695,353.26,58.325,287.157,58.325c-78.299,0-142.728,60.177-149.569,136.729
		c-35.879,12.525-61.631,46.657-61.631,86.702c0,49.842,38.878,90.079,88.591,91.782v0.036H417.76
		c58.617,0,106.283-47.674,106.283-106.219C524.043,212.876,482.84,167.879,429.941,161.824z M417.76,325.873H168.09h-1.89
		c-23.876-0.83-42.549-20.184-42.549-44.116c0-0.079,0-0.115,0-0.172c0-0.043,0-0.079,0-0.129c0-0.122,0.036-0.272,0.036-0.415
		c0-0.988,0.071-1.961,0.136-2.949c1.761-22.96,20.834-41.031,44.267-41.031c1.46,0,2.978,0.078,4.438,0.207
		c0.501,0.101,1.475,0.215,1.961,0.215c6.385,0,11.523-5.167,11.523-11.552c0-0.687-0.086-1.417-0.215-2.075
		c-0.709-5.031-1.124-10.163-1.124-15.331c0-56.526,45.964-102.49,102.483-102.49c41.748,0,78.156,24.807,94.023,61.595
		c-17.227,6.284-32.578,16.977-44.459,30.969c-7.566,9.361-6.936,23.203,1.746,31.936c9.34,9.297,24.441,9.297,33.725,0
		c0.393-0.408,0.707-0.795,1.045-1.188c10.928-12.818,27.104-20.534,44.523-20.534c32.279,0,58.539,26.268,58.539,58.546
		C476.299,299.606,450.039,325.873,417.76,325.873z"/>
	<path fill="#FFFFFF" d="M186.169,405.353c-19.481,0-35.271,15.782-35.271,35.278c0,19.467,15.789,35.248,35.271,35.248
		c19.468,0,35.234-15.781,35.234-35.248C221.404,421.135,205.637,405.353,186.169,405.353z"/>
	<path fill="#FFFFFF" d="M242.381,495.261c-12.84,0-23.21,10.356-23.21,23.211c0,12.84,10.37,23.203,23.21,23.203
		s23.218-10.363,23.218-23.203C265.599,505.617,255.221,495.261,242.381,495.261z"/>
	<path fill="#FFFFFF" d="M353.848,495.261c-12.869,0-23.232,10.356-23.232,23.211c0,12.84,10.363,23.203,23.232,23.203
		c12.832,0,23.195-10.363,23.195-23.203C377.043,505.617,366.68,495.261,353.848,495.261z"/>
	<path fill="#FFFFFF" d="M299.925,405.353c-19.468,0-35.271,15.782-35.271,35.278c0,19.467,15.803,35.248,35.271,35.248
		c19.497,0,35.278-15.781,35.278-35.248C335.203,421.135,319.422,405.353,299.925,405.353z"/>
	<path fill="#FFFFFF" d="M413.688,405.353c-19.467,0-35.248,15.782-35.248,35.278c0,19.467,15.781,35.248,35.248,35.248
		c19.488,0,35.264-15.781,35.264-35.248C448.951,421.135,433.176,405.353,413.688,405.353z"/>
</g>
</svg>
