<?xml version="1.0" encoding="utf-8"?>
<!-- Generator: Adobe Illustrator 16.0.0, SVG Export Plug-In . SVG Version: 6.00 Build 0)  -->
<!DOCTYPE svg PUBLIC "-//W3C//DTD SVG 1.1//EN" "http://www.w3.org/Graphics/SVG/1.1/DTD/svg11.dtd">
<svg version="1.1" id="Calque_1" xmlns="http://www.w3.org/2000/svg" xmlns:xlink="http://www.w3.org/1999/xlink" x="0px" y="0px"
	 width="600px" height="600px" viewBox="0 0 600 600" enable-background="new 0 0 600 600" xml:space="preserve">
<g>
	<path fill="#FFFFFF" d="M230.189,204.531l-49.646-49.66l-25.688,25.687l49.581,49.581
		C211.638,220.327,220.355,211.685,230.189,204.531z"/>
	<path fill="#FFFFFF" d="M395.05,230.658l50.079-50.1l-25.688-25.687l-50.035,50.018
		C379.223,212.125,387.864,220.825,395.05,230.658z"/>
	<path fill="#FFFFFF" d="M318.154,183.411v-70.494h-36.323v70.354c5.798-0.862,11.681-1.334,17.726-1.334
		C305.88,181.937,312.109,182.455,318.154,183.411z"/>
	<path fill="#FFFFFF" d="M181.488,300.011c0-6.17,0.466-12.246,1.389-18.162h-69.961v36.318h69.961
		C181.954,312.25,181.488,306.176,181.488,300.011z"/>
	<path fill="#FFFFFF" d="M369.406,395.098l50.035,50.031l25.688-25.672l-50.079-50.129
		C387.864,379.189,379.223,387.896,369.406,395.098z"/>
	<path fill="#FFFFFF" d="M204.438,369.889l-49.581,49.568l25.688,25.672l49.659-49.656
		C220.355,388.338,211.638,379.695,204.438,369.889z"/>
	<path fill="#FFFFFF" d="M416.214,281.85c0.916,5.916,1.396,11.992,1.396,18.162c0,6.165-0.479,12.239-1.396,18.157h70.87V281.85
		H416.214z"/>
	<path fill="#FFFFFF" d="M299.557,209.194c-50.097,0-90.832,40.731-90.832,90.817c0,50.061,40.735,90.799,90.832,90.799
		c50.063,0,90.795-40.738,90.795-90.799C390.352,249.925,349.62,209.194,299.557,209.194z M299.557,354.486
		c-30.061,0-54.509-24.416-54.509-54.475c0-30.06,24.448-54.484,54.509-54.484c30.023,0,54.476,24.424,54.476,54.484
		C354.032,330.07,329.58,354.486,299.557,354.486z"/>
	<path fill="#FFFFFF" d="M281.831,416.732v70.352h36.323v-70.48c-6.045,0.945-12.274,1.475-18.598,1.475
		C293.512,418.078,287.629,417.609,281.831,416.732z"/>
</g>
</svg>
