<?xml version="1.0" encoding="UTF-8"?>
<svg width="22px" height="23px" viewBox="0 0 22 23" version="1.1" xmlns="http://www.w3.org/2000/svg" xmlns:xlink="http://www.w3.org/1999/xlink">
    <!-- Generator: Sketch 42 (36781) - http://www.bohemiancoding.com/sketch -->
    <title>Fill 1</title>
    <desc>Created with Sketch.</desc>
    <defs></defs>
    <g id="Page-1" stroke="none" stroke-width="1" fill="none" fill-rule="evenodd">
        <g id="Auvergne-Webcam-Home" transform="translate(-334.000000, -36.000000)" fill="#FFFFFF">
            <g id="Header">
                <path d="M353.905176,50.3729193 C352.677856,55.2017581 347.751806,58.1324957 342.923491,56.9056997 C338.094914,55.6783797 335.164701,50.7520679 336.391497,45.923491 C337.618293,41.0951762 342.545391,38.1660108 347.373181,39.3912346 C349.452341,39.9197369 351.238558,41.1433886 352.476883,42.8667199 L350.64193,42.8840135 C350.38567,42.8861097 350.179982,43.0957288 350.182602,43.3517262 C350.185222,43.6061515 350.391435,43.8107921 350.646122,43.8107921 L353.439821,43.7851138 C353.477291,43.7832796 353.503493,43.7806594 353.529171,43.7754189 C353.574501,43.7641519 353.592057,43.7583873 353.609613,43.7515747 C353.655467,43.7311369 353.670402,43.722228 353.6856,43.7130572 C353.728047,43.6847586 353.744031,43.6706093 353.759228,43.656198 C353.792505,43.6239691 353.810585,43.6019591 353.825782,43.5786389 C353.845696,43.5450999 353.855915,43.5257101 353.865086,43.5057963 C353.880545,43.4630864 353.885262,43.4523434 353.888144,43.4405523 L354.606876,40.7396097 C354.672906,40.4925212 354.525386,40.238358 354.278036,40.17259 C354.030161,40.1062979 353.776784,40.2540794 353.711278,40.501168 L353.288633,42.0890329 C351.902003,40.2200163 349.931845,38.8944373 347.647258,38.3137923 C342.223625,36.9355464 336.691514,40.2268289 335.313792,45.649414 C333.935546,51.0725231 337.226829,56.6054203 342.649414,57.9831421 C343.485008,58.1956435 344.321913,58.2967847 345.147026,58.2967847 C349.67742,58.2967847 353.817136,55.2342491 354.98288,50.6475203 C355.058081,50.3495991 354.878595,50.0466995 354.580673,49.9714986 C354.282752,49.8947256 353.980901,50.0755221 353.905176,50.3729193 Z" id="Fill-1" transform="translate(345.000000, 48.148392) rotate(-60.000000) translate(-345.000000, -48.148392) "></path>
            </g>
        </g>
    </g>
</svg>