<?xml version="1.0" encoding="UTF-8"?>
<svg width="26px" height="26px" viewBox="0 0 26 26" version="1.1" xmlns="http://www.w3.org/2000/svg" xmlns:xlink="http://www.w3.org/1999/xlink">
    <!-- Generator: Sketch 41 (35326) - http://www.bohemiancoding.com/sketch -->
    <title>Page 1</title>
    <desc>Created with Sketch.</desc>
    <defs></defs>
    <g id="Page-1" stroke="none" stroke-width="1" fill="none" fill-rule="evenodd" stroke-linecap="round" stroke-linejoin="round">
        <g id="DRIFE-Home-V3" transform="translate(-376.000000, -39.000000)" stroke-width="1.5" stroke="#FFFFFF">
            <g id="NAV-BAR">
                <path d="M388.786271,57.8149307 C385.693022,57.8149307 383.185069,55.3073351 383.185069,52.2137291 C383.185069,49.1204803 385.693022,46.6128847 388.786271,46.6128847 C391.87952,46.6128847 394.387472,49.1204803 394.387472,52.2137291 C394.387472,55.3073351 391.87952,57.8149307 388.786271,57.8149307 L388.786271,57.8149307 Z M399.835833,49.6372121 L397.858896,49.6372121 C397.657489,48.9272862 397.376089,48.2516423 397.023269,47.6202796 L398.42098,46.2225682 C398.708808,45.9350982 398.708808,45.4687183 398.42098,45.1812482 L395.818395,42.5786625 C395.530925,42.2911925 395.064902,42.2911925 394.777432,42.5786625 L393.379006,43.976731 C392.748358,43.6242678 392.072357,43.3428685 391.362431,43.141461 L391.362431,41.1648814 C391.362431,40.7581381 391.033179,40.4285296 390.626436,40.4285296 L386.945034,40.4285296 C386.538291,40.4285296 386.20904,40.7581381 386.20904,41.1648814 L386.20904,43.1421752 C385.499471,43.3428685 384.823827,43.6242678 384.192821,43.976731 L382.79511,42.5786625 C382.507997,42.2911925 382.041617,42.2911925 381.754147,42.5786625 L379.151561,45.1816053 C378.864091,45.4694325 378.864091,45.9350982 379.151561,46.2229253 L380.549273,47.6206367 C380.196095,48.2516423 379.914696,48.9280004 379.714003,49.6379263 L377.736352,49.6379263 C377.329608,49.6379263 377,49.9671777 377,50.373921 L377,54.0556799 C377,54.4620661 377.329608,54.7920317 377.736352,54.7920317 L379.714003,54.7920317 C379.914696,55.5016005 380.196095,56.1772444 380.548916,56.8086071 L379.15049,58.2066756 C378.86302,58.4941456 378.86302,58.9601684 379.15049,59.2469242 L381.753433,61.8498671 C382.040903,62.1373371 382.506926,62.1373371 382.794396,61.8498671 L384.192821,60.4517986 C384.82347,60.8042618 385.499114,61.0860182 386.20904,61.2874257 L386.20904,63.2643624 C386.20904,63.6703915 386.538291,64.0003571 386.945034,64.0003571 L390.626436,64.0003571 C391.033179,64.0003571 391.362431,63.6703915 391.362431,63.2643624 L391.362431,61.2877828 C392.073071,61.0860182 392.748715,60.8046189 393.380078,60.4517986 L394.778146,61.84951 C395.065616,62.1373371 395.531639,62.1373371 395.818752,61.84951 L398.421695,59.2469242 C398.709522,58.9598113 398.709522,58.4937885 398.421695,58.2063185 L397.023269,56.8075358 C397.375732,56.1772444 397.657131,55.5016005 397.858539,54.7920317 L399.835476,54.7920317 C400.241862,54.7920317 400.57147,54.4620661 400.57147,54.0556799 L400.57147,50.373921 C400.572185,49.9661064 400.241862,49.6372121 399.835833,49.6372121 L399.835833,49.6372121 Z" id="Page-1"></path>
            </g>
        </g>
    </g>
</svg>