<?xml version="1.0" encoding="iso-8859-1"?>
<!-- Generator: Adobe Illustrator 16.0.0, SVG Export Plug-In . SVG Version: 6.00 Build 0)  -->
<!DOCTYPE svg PUBLIC "-//W3C//DTD SVG 1.1//EN" "http://www.w3.org/Graphics/SVG/1.1/DTD/svg11.dtd">
<svg xmlns="http://www.w3.org/2000/svg" xmlns:xlink="http://www.w3.org/1999/xlink" version="1.1" id="Capa_1" x="0px" y="0px" width="512px" height="512px" viewBox="0 0 398.805 398.805" style="enable-background:new 0 0 398.805 398.805;" xml:space="preserve">
<g>
	<g>
		<path d="M295.225,142.697c-9.9-44.668-19.801-89.336-29.707-134.003c-16.718,0-33.435,0-50.15,0    c2.389,44.668,4.781,89.336,7.172,134.003H295.225z" fill="#FFFFFF"/>
		<path d="M226.354,214.003c3.145,58.703,6.286,117.404,9.426,176.107c38.094,0,76.188,0,114.281,0    c-13.014-58.702-26.021-117.404-39.029-176.107H226.354z" fill="#FFFFFF"/>
		<path d="M183.435,8.694c-16.716,0-33.434,0-50.149,0c-9.902,44.667-19.798,89.335-29.698,134.003h72.682    C178.656,98.029,181.043,53.361,183.435,8.694z" fill="#FFFFFF"/>
		<path d="M48.742,390.11c38.096,0,76.188,0,114.281,0c3.152-58.702,6.293-117.404,9.43-176.107H87.785    C74.775,272.706,61.763,331.409,48.742,390.11z" fill="#FFFFFF"/>
		<path d="M394.176,161.212H4.628c-2.556,0-4.628,2.072-4.628,4.628v25.02c0,2.556,2.072,4.628,4.628,4.628h25.048v37.476    c0,2.556,2.071,4.629,4.627,4.629h24.996c2.117,0,3.964-1.438,4.484-3.488l9.818-38.615h251.602l9.816,38.615    c0.52,2.052,2.369,3.488,4.486,3.488h24.992c2.559,0,4.629-2.073,4.629-4.629v-37.476h25.049c2.557,0,4.629-2.072,4.629-4.628    v-25.02C398.805,163.284,396.732,161.212,394.176,161.212z" fill="#FFFFFF"/>
	</g>
</g>
<g>
</g>
<g>
</g>
<g>
</g>
<g>
</g>
<g>
</g>
<g>
</g>
<g>
</g>
<g>
</g>
<g>
</g>
<g>
</g>
<g>
</g>
<g>
</g>
<g>
</g>
<g>
</g>
<g>
</g>
</svg>
