<?xml version="1.0" encoding="iso-8859-1"?>
<!-- Generator: Adobe Illustrator 19.0.0, SVG Export Plug-In . SVG Version: 6.00 Build 0)  -->
<svg xmlns="http://www.w3.org/2000/svg" xmlns:xlink="http://www.w3.org/1999/xlink" version="1.1" id="Layer_1" x="0px" y="0px" viewBox="0 0 512 512" style="enable-background:new 0 0 512 512;" xml:space="preserve" width="512px" height="512px">
<g>
	<g>
		<g>
			<path d="M51.2,375.468c-4.71,0-8.533,3.823-8.533,8.533v17.067c0,4.71,3.823,8.533,8.533,8.533c4.71,0,8.533-3.823,8.533-8.533     v-17.067C59.733,379.291,55.91,375.468,51.2,375.468z" fill="#FFFFFF"/>
			<path d="M51.2,426.668c-4.71,0-8.533,3.823-8.533,8.533v17.067c0,4.71,3.823,8.533,8.533,8.533c4.71,0,8.533-3.823,8.533-8.533     v-17.067C59.733,430.491,55.91,426.668,51.2,426.668z" fill="#FFFFFF"/>
			<path d="M51.2,324.268c-4.71,0-8.533,3.823-8.533,8.533v17.067c0,4.71,3.823,8.533,8.533,8.533c4.71,0,8.533-3.823,8.533-8.533     v-17.067C59.733,328.091,55.91,324.268,51.2,324.268z" fill="#FFFFFF"/>
			<path d="M85.333,375.468c-4.71,0-8.533,3.823-8.533,8.533v17.067c0,4.71,3.823,8.533,8.533,8.533s8.533-3.823,8.533-8.533     v-17.067C93.867,379.291,90.044,375.468,85.333,375.468z" fill="#FFFFFF"/>
			<path d="M85.333,324.268c-4.71,0-8.533,3.823-8.533,8.533v17.067c0,4.71,3.823,8.533,8.533,8.533s8.533-3.823,8.533-8.533     v-17.067C93.867,328.091,90.044,324.268,85.333,324.268z" fill="#FFFFFF"/>
			<path d="M85.333,426.668c-4.71,0-8.533,3.823-8.533,8.533v17.067c0,4.71,3.823,8.533,8.533,8.533s8.533-3.823,8.533-8.533     v-17.067C93.867,430.491,90.044,426.668,85.333,426.668z" fill="#FFFFFF"/>
			<path d="M494.933,93.867h-17.067v-25.6c0-4.71-3.823-8.533-8.533-8.533h-51.2c-4.71,0-8.533,3.823-8.533,8.533v25.6h-17.067     c-4.71,0-8.533,3.823-8.533,8.533v136.533h-8.533v-25.6c0-4.71-3.823-8.533-8.533-8.533H358.4v-8.533     c0-4.71-3.823-8.533-8.533-8.533s-8.533,3.823-8.533,8.533v8.533H332.8c-4.71,0-8.533,3.823-8.533,8.533v25.6h-25.6V68.267     c0-4.71-3.823-8.533-8.533-8.533h-25.6v-51.2C264.533,3.823,260.71,0,256,0H153.6c-4.71,0-8.533,3.823-8.533,8.533v51.2h-25.6     c-4.71,0-8.533,3.823-8.533,8.533v221.867H93.867v-25.6c0-4.71-3.823-8.533-8.533-8.533h-51.2c-4.71,0-8.533,3.823-8.533,8.533     v25.6h-8.533c-4.71,0-8.533,3.823-8.533,8.533v204.8c0,4.71,3.823,8.533,8.533,8.533h102.4h68.267h204.8h102.4     c4.71,0,8.533-3.823,8.533-8.533V102.4C503.467,97.69,499.644,93.867,494.933,93.867z M247.467,102.4     c0-4.71,3.823-8.533,8.533-8.533c4.71,0,8.533,3.823,8.533,8.533v136.533h-17.067V102.4z M213.333,42.667     c0-4.71,3.823-8.533,8.533-8.533c4.71,0,8.533,3.823,8.533,8.533v25.6c0,4.71-3.823,8.533-8.533,8.533     c-4.71,0-8.533-3.823-8.533-8.533V42.667z M213.333,102.4c0-4.71,3.823-8.533,8.533-8.533c4.71,0,8.533,3.823,8.533,8.533     v136.533h-17.067V102.4z M179.2,42.667c0-4.71,3.823-8.533,8.533-8.533s8.533,3.823,8.533,8.533v25.6     c0,4.71-3.823,8.533-8.533,8.533s-8.533-3.823-8.533-8.533V42.667z M145.067,102.4c0-4.71,3.823-8.533,8.533-8.533     c4.71,0,8.533,3.823,8.533,8.533v187.733h-17.067V102.4z M179.2,477.867h-25.6c-4.71,0-8.533-3.823-8.533-8.533     s3.823-8.533,8.533-8.533h25.6V477.867z M179.2,443.733h-25.6c-4.71,0-8.533-3.823-8.533-8.533s3.823-8.533,8.533-8.533h25.6     V443.733z M179.2,409.6h-25.6c-4.71,0-8.533-3.823-8.533-8.533c0-4.71,3.823-8.533,8.533-8.533h25.6V409.6z M179.2,375.467h-25.6     c-4.71,0-8.533-3.823-8.533-8.533s3.823-8.533,8.533-8.533h25.6V375.467z M179.2,324.267h-59.733     c-4.71,0-8.533,3.823-8.533,8.533v162.133H25.6V307.2h8.533h51.2h34.133H153.6h25.6V324.267z M179.2,247.467V102.4     c0-4.71,3.823-8.533,8.533-8.533s8.533,3.823,8.533,8.533v136.533h-8.533C183.023,238.933,179.2,242.756,179.2,247.467z      M384,494.933h-17.067V281.6c0-4.71-3.823-8.533-8.533-8.533s-8.533,3.823-8.533,8.533v213.333H332.8V281.6     c0-4.71-3.823-8.533-8.533-8.533s-8.533,3.823-8.533,8.533v213.333h-17.067V281.6c0-4.71-3.823-8.533-8.533-8.533     s-8.533,3.823-8.533,8.533v213.333h-17.067V281.6c0-4.71-3.823-8.533-8.533-8.533c-4.71,0-8.533,3.823-8.533,8.533v213.333H230.4     V281.6c0-4.71-3.823-8.533-8.533-8.533c-4.71,0-8.533,3.823-8.533,8.533v213.333h-17.067v-25.6V435.2v-34.133v-34.133V332.8     v-34.133V256h25.6H256h34.133H332.8h34.133H384V494.933z M435.2,462.464c0,4.71-3.823,8.533-8.533,8.533     s-8.533-3.823-8.533-8.533v-17.067c0-4.71,3.823-8.533,8.533-8.533s8.533,3.823,8.533,8.533V462.464z M435.2,411.264     c0,4.71-3.823,8.533-8.533,8.533s-8.533-3.823-8.533-8.533v-17.067c0-4.71,3.823-8.533,8.533-8.533s8.533,3.823,8.533,8.533     V411.264z M435.2,360.064c0,4.71-3.823,8.533-8.533,8.533s-8.533-3.823-8.533-8.533v-17.067c0-4.71,3.823-8.533,8.533-8.533     s8.533,3.823,8.533,8.533V360.064z M435.2,308.864c0,4.71-3.823,8.533-8.533,8.533s-8.533-3.823-8.533-8.533v-17.067     c0-4.71,3.823-8.533,8.533-8.533s8.533,3.823,8.533,8.533V308.864z M435.2,257.664c0,4.71-3.823,8.533-8.533,8.533     s-8.533-3.823-8.533-8.533v-17.067c0-4.71,3.823-8.533,8.533-8.533s8.533,3.823,8.533,8.533V257.664z M435.2,206.464     c0,4.71-3.823,8.533-8.533,8.533s-8.533-3.823-8.533-8.533v-17.067c0-4.71,3.823-8.533,8.533-8.533s8.533,3.823,8.533,8.533     V206.464z M435.2,155.264c0,4.71-3.823,8.533-8.533,8.533s-8.533-3.823-8.533-8.533v-17.067c0-4.71,3.823-8.533,8.533-8.533     s8.533,3.823,8.533,8.533V155.264z M469.333,462.464c0,4.71-3.823,8.533-8.533,8.533c-4.71,0-8.533-3.823-8.533-8.533v-17.067     c0-4.71,3.823-8.533,8.533-8.533c4.71,0,8.533,3.823,8.533,8.533V462.464z M469.333,411.264c0,4.71-3.823,8.533-8.533,8.533     c-4.71,0-8.533-3.823-8.533-8.533v-17.067c0-4.71,3.823-8.533,8.533-8.533c4.71,0,8.533,3.823,8.533,8.533V411.264z      M469.333,360.064c0,4.71-3.823,8.533-8.533,8.533c-4.71,0-8.533-3.823-8.533-8.533v-17.067c0-4.71,3.823-8.533,8.533-8.533     c4.71,0,8.533,3.823,8.533,8.533V360.064z M469.333,308.864c0,4.71-3.823,8.533-8.533,8.533c-4.71,0-8.533-3.823-8.533-8.533     v-17.067c0-4.71,3.823-8.533,8.533-8.533c4.71,0,8.533,3.823,8.533,8.533V308.864z M469.333,257.664     c0,4.71-3.823,8.533-8.533,8.533c-4.71,0-8.533-3.823-8.533-8.533v-17.067c0-4.71,3.823-8.533,8.533-8.533     c4.71,0,8.533,3.823,8.533,8.533V257.664z M469.333,206.464c0,4.71-3.823,8.533-8.533,8.533c-4.71,0-8.533-3.823-8.533-8.533     v-17.067c0-4.71,3.823-8.533,8.533-8.533c4.71,0,8.533,3.823,8.533,8.533V206.464z M469.333,155.264     c0,4.71-3.823,8.533-8.533,8.533c-4.71,0-8.533-3.823-8.533-8.533v-17.067c0-4.71,3.823-8.533,8.533-8.533     c4.71,0,8.533,3.823,8.533,8.533V155.264z" fill="#FFFFFF"/>
		</g>
	</g>
</g>
<g>
</g>
<g>
</g>
<g>
</g>
<g>
</g>
<g>
</g>
<g>
</g>
<g>
</g>
<g>
</g>
<g>
</g>
<g>
</g>
<g>
</g>
<g>
</g>
<g>
</g>
<g>
</g>
<g>
</g>
</svg>
