<?xml version="1.0" encoding="UTF-8"?>
<svg width="301px" height="267px" viewBox="0 0 301 267" version="1.1" xmlns="http://www.w3.org/2000/svg" xmlns:xlink="http://www.w3.org/1999/xlink">
    <!-- Generator: Sketch 48.2 (47327) - http://www.bohemiancoding.com/sketch -->
    <title>map-icon-1</title>
    <desc>Created with Sketch.</desc>
    <defs></defs>
    <g id="Page-1" stroke="none" stroke-width="1" fill="none" fill-rule="evenodd">
        <g id="map-icon-1" transform="translate(2.000000, 2.000000)" fill-rule="nonzero" stroke="#FFFFFF" stroke-width="3">
            <path d="M141.914,168.802 C143.797,170.458 146.148,171.288 148.501,171.288 C150.854,171.288 153.206,170.458 155.088,168.802 C157.473,166.701 213.479,116.781 213.479,65.009 C213.479,29.167 184.331,0.007 148.502,0.007 C112.672,0.007 83.523,29.167 83.523,65.009 C83.521,116.781 139.529,166.701 141.914,168.802 Z M148.501,48.025 C157.803,48.025 165.346,55.627 165.346,65.009 C165.346,74.39 157.803,81.993 148.501,81.993 C139.196,81.993 131.654,74.389 131.654,65.009 C131.654,55.627 139.196,48.025 148.501,48.025 Z" id="Shape"></path>
            <path d="M273.357,168.773 L265.83,142.396 C264.608,138.115 260.697,135.164 256.247,135.164 L202.528,135.164 C200.586,138.051 198.537,140.949 196.37,143.863 C181.313,164.093 166.006,177.777 164.309,179.273 C159.939,183.121 154.326,185.24 148.501,185.24 C142.68,185.24 137.067,183.123 132.691,179.271 C130.996,177.777 115.687,164.091 100.631,143.863 C98.464,140.949 96.415,138.05 94.473,135.164 L40.753,135.164 C36.303,135.164 32.392,138.115 31.17,142.396 L22.199,173.832 L222.728,210.562 L273.357,168.773 Z" id="Shape"></path>
            <path d="M296.617,250.291 L277.387,182.895 L181.975,262.993 L287.035,262.993 C290.162,262.993 293.107,261.526 294.99,259.03 C296.873,256.533 297.474,253.297 296.617,250.291 Z" id="Shape"></path>
            <path d="M48.793,192.888 L18.353,187.312 L0.383,250.291 C-0.474,253.297 0.127,256.533 2.011,259.029 C3.894,261.525 6.839,262.992 9.966,262.992 L48.793,262.992 L48.793,192.888 Z" id="Shape"></path>
            <polygon id="Shape" points="62.746 195.445 62.746 262.992 160.273 262.992 208.857 222.207"></polygon>
        </g>
    </g>
</svg>