<?xml version="1.0" encoding="iso-8859-1"?>
<!-- Generator: Adobe Illustrator 19.0.0, SVG Export Plug-In . SVG Version: 6.00 Build 0)  -->
<svg xmlns="http://www.w3.org/2000/svg" xmlns:xlink="http://www.w3.org/1999/xlink" version="1.1" id="Layer_1" x="0px" y="0px" viewBox="0 0 512 512" style="enable-background:new 0 0 512 512;" xml:space="preserve" width="512px" height="512px">
<g>
	<g>
		<path d="M350.337,71.411c-32.1,0-59.958,18.102-73.965,44.645c1.679,2.32-0.889-1.581,33.344,51.558    c12.185-11.579,28.418-18.185,45.7-18.185c22.685,0.001,43.562,11.387,55.846,30.456l11.195,17.378    c7.282-12.402,11.475-26.836,11.475-42.257C433.932,108.838,396.506,71.411,350.337,71.411z" fill="#FFFFFF"/>
	</g>
</g>
<g>
	<g>
		<path d="M506.707,389.383l-123.37-191.509c-6.114-9.492-16.632-15.228-27.923-15.228c-11.291,0-21.809,5.734-27.924,15.227    l-18.898,29.331l-58.099-90.187c-5.887-9.139-15.874-14.819-26.738-15.207c-0.396-0.014-0.794-0.021-1.188-0.021    c-10.426,0-20.279,4.902-26.567,13.281L6.649,387.436c-6.608,8.808-8.491,20.442-4.743,31.022    c4.708,13.29,17.271,22.13,31.312,22.13h445.564c12.198,0,23.36-6.675,29.162-17.314    C513.776,412.582,513.279,399.583,506.707,389.383z M367.378,293.02l-40.423,29.922l-83.034-73.657l-32.393,9.47l-47.137-26.212    l58.177-77.536l86.021,133.529l46.823-72.673l52.92,82.147L367.378,293.02z" fill="#FFFFFF"/>
	</g>
</g>
<g>
</g>
<g>
</g>
<g>
</g>
<g>
</g>
<g>
</g>
<g>
</g>
<g>
</g>
<g>
</g>
<g>
</g>
<g>
</g>
<g>
</g>
<g>
</g>
<g>
</g>
<g>
</g>
<g>
</g>
</svg>
