<svg xmlns="http://www.w3.org/2000/svg" viewBox="0 0 240.3 64.77"><defs><style>.cls-1,.cls-2,.cls-3,.cls-4{fill:#fff;}.cls-2{opacity:0.4;}.cls-3{opacity:0.6;}.cls-4{opacity:0.8;}</style></defs><title>Fichier 1</title><g id="Calque_2" data-name="Calque 2"><g id="Calque_1-2" data-name="Calque 1"><circle class="cls-1" cx="133.08" cy="3.54" r="3.54"/><path class="cls-1" d="M23.17,14.52q4.53,4.6,4.53,13.24T23.17,41a12.61,12.61,0,0,1-9.32,3.56A12.6,12.6,0,0,1,4.53,41Q0,36.4,0,27.76T4.53,14.52A12.6,12.6,0,0,1,13.85,11,12.61,12.61,0,0,1,23.17,14.52ZM6.47,27.79q0,11.91,7.38,11.91t7.38-11.91a25.11,25.11,0,0,0-.61-5.89,9.44,9.44,0,0,0-2.33-4.34,5.83,5.83,0,0,0-4.43-1.81,5.83,5.83,0,0,0-4.43,1.81A9.42,9.42,0,0,0,7.09,21.9,25,25,0,0,0,6.47,27.79Z"/><path class="cls-1" d="M48.39,11a9.09,9.09,0,0,1,8.12,4.47q2.85,4.46,2.85,12.3T55.7,39.93a11,11,0,0,1-8.64,4.37A14.61,14.61,0,0,1,39.42,42V53.62a5.16,5.16,0,0,1-.71,3.07,3.16,3.16,0,0,1-2.65.94H33.73l-.45-.39V11.93l.45-.39h1.94q3.11,0,3.62,3.37A12.22,12.22,0,0,1,48.39,11Zm-1.46,5.31q-4.53,0-7.51,4.47V36.66a11.72,11.72,0,0,0,6.67,2.53,5.74,5.74,0,0,0,5-3q1.91-3,1.91-8.71T51.3,19A5,5,0,0,0,46.93,16.27Z"/><path class="cls-1" d="M89.72,29.73H70.49a13.43,13.43,0,0,0,1.94,7.12q1.75,2.53,5.83,2.53a20,20,0,0,0,9-2.53,6.94,6.94,0,0,1,2,4.08,20.62,20.62,0,0,1-12.14,3.63q-7,0-10-4.66T64,27.76q0-7.48,3.46-12.14A11.4,11.4,0,0,1,77.19,11q6.25,0,9.61,3.92a14.71,14.71,0,0,1,3.37,9.94A27.18,27.18,0,0,1,89.72,29.73ZM82.44,18a5.59,5.59,0,0,0-5-2.43,5.79,5.79,0,0,0-5,2.49,13.13,13.13,0,0,0-1.94,7H84.09V24.3A10.89,10.89,0,0,0,82.44,18Z"/><path class="cls-1" d="M121.31,21.71V37a13.08,13.08,0,0,0,1,5.76,5.84,5.84,0,0,1-3.88,1.36q-3.37,0-3.37-4V23.32a10.21,10.21,0,0,0-.87-5A3.32,3.32,0,0,0,111,16.92a10.35,10.35,0,0,0-4.6,1.17,14,14,0,0,0-4.11,3V43.72a14.21,14.21,0,0,1-3.08.26,16.15,16.15,0,0,1-3.2-.26V11.93l.45-.39h2.33q3.3,0,3.5,4.08a15.29,15.29,0,0,1,10.42-4.4q4.34,0,6.44,2.91A12.64,12.64,0,0,1,121.31,21.71Z"/><path class="cls-1" d="M137.17,17.11V43.72a18.86,18.86,0,0,1-6.21,0v-24a4.09,4.09,0,0,0-.62-2.52,2.62,2.62,0,0,0-2.17-.78h-.71a8.59,8.59,0,0,1-.26-2.2,10.2,10.2,0,0,1,.26-2.33,31.56,31.56,0,0,1,3.88-.26h.84a4.7,4.7,0,0,1,3.66,1.46A5.79,5.79,0,0,1,137.17,17.11Z"/><path class="cls-1" d="M145.91,33.81V18.47a12.84,12.84,0,0,0-1-5.76,5.33,5.33,0,0,1,3.63-1.29,3.48,3.48,0,0,1,2.88,1,5,5,0,0,1,.75,3V32.19a10.09,10.09,0,0,0,.91,5,3.37,3.37,0,0,0,3.14,1.49,10.15,10.15,0,0,0,4.56-1.16,14.53,14.53,0,0,0,4.14-3.11V11.8a18.71,18.71,0,0,1,6.21,0V34.72q0,4.66,1.81,6.28a5,5,0,0,1-2.4,3.17,6.39,6.39,0,0,1-5.11-4.73,15.18,15.18,0,0,1-11,4.86A7.34,7.34,0,0,1,148,41.39,12.63,12.63,0,0,1,145.91,33.81Z"/><path class="cls-2" d="M180.28,41.1v2.62a16.15,16.15,0,0,0,3.21.26,14.21,14.21,0,0,0,3.07-.26V39Z"/><path class="cls-1" d="M186.56,35.82V21.06q3.62-4.14,7.31-4.14a3.37,3.37,0,0,1,3,1.49,9.38,9.38,0,0,1,1,4.92V32l6.21-2.09v-8.8A14,14,0,0,1,207.63,18l.1-.06a7.51,7.51,0,0,1,3.72-1,3.37,3.37,0,0,1,3,1.49,9.38,9.38,0,0,1,1,4.92v2.79L221.66,24V22.29l.05-1c0-.08,0-.16,0-.25q3.54-4.15,7.33-4.15a3.4,3.4,0,0,1,3,1.46,5.38,5.38,0,0,1,.72,1.9L239,18.2a10.47,10.47,0,0,0-1.8-4.14A7.14,7.14,0,0,0,231,11.22q-5.23,0-10.34,4.78a9.8,9.8,0,0,0-1.1-1.93,6.68,6.68,0,0,0-3.68-2.53l-.15,0a8.25,8.25,0,0,0-.87-.17l-.27,0a10.51,10.51,0,0,0-1.1-.07h-.21c-.37,0-.75,0-1.12.06l-.5.08c-.25,0-.5.07-.74.13A17.06,17.06,0,0,0,203.13,16a7.28,7.28,0,0,0-7.19-4.79q-5.12,0-9.39,4.4-.19-4.08-3.5-4.08h-2.33l-.45.45V37.93Z"/><path class="cls-3" d="M197.89,35.18v8.54a18.86,18.86,0,0,0,6.21,0V33.09Z"/><path class="cls-4" d="M215.44,29.28V43.72a18.86,18.86,0,0,0,6.21,0V27.19Z"/><path class="cls-1" d="M239.26,21.32s0,0,0,0L233,23.36v16.8q0,4,3.3,4a5.78,5.78,0,0,0,3.95-1.36,12.83,12.83,0,0,1-1-5.76Z"/><path class="cls-1" d="M152.94,61a.94.94,0,0,1-.49.53,1.38,1.38,0,0,1-.89-1.1,3.45,3.45,0,0,1-2.43,1.17,2,2,0,0,1-1.62-.66,2.28,2.28,0,0,1-.58-1.55,2.2,2.2,0,0,1,.76-1.83,3.26,3.26,0,0,1,2.09-.61,9.49,9.49,0,0,1,1.73.15v-.81q0-1.61-1.42-1.6a6.22,6.22,0,0,0-2.5.64,1,1,0,0,1-.27-.37,1.09,1.09,0,0,1-.11-.46,7.3,7.3,0,0,1,3-.72q2.33,0,2.34,2.53v3.14A2.11,2.11,0,0,0,152.94,61ZM148,59.24a1.59,1.59,0,0,0,.33,1.06,1.12,1.12,0,0,0,.91.39,2.46,2.46,0,0,0,1.19-.34,3.37,3.37,0,0,0,1.08-1V57.87a12.24,12.24,0,0,0-1.7-.12,2,2,0,0,0-1.33.41A1.36,1.36,0,0,0,148,59.24Z"/><path class="cls-1" d="M157.21,61.53a2.16,2.16,0,0,1-1.92-1,5.27,5.27,0,0,1-.67-2.89,4.27,4.27,0,0,1,.86-2.86,2.6,2.6,0,0,1,2-1,3.09,3.09,0,0,1,2.1.82,1.29,1.29,0,0,1,.76-.75,1,1,0,0,1,.49.54,2.41,2.41,0,0,0-.43,1.68v4.86a4.72,4.72,0,0,1-.69,2.93,2.6,2.6,0,0,1-2.17.95,6.58,6.58,0,0,1-2.63-.52,1.41,1.41,0,0,1,.31-.82,4.33,4.33,0,0,0,1.89.49,3.35,3.35,0,0,0,1.31-.2,1.4,1.4,0,0,0,.65-.56,3.69,3.69,0,0,0,.35-1.74V60.5A3.08,3.08,0,0,1,157.21,61.53Zm2.25-2.11v-4a2.81,2.81,0,0,0-1.8-.78,1.69,1.69,0,0,0-1.43.76,3.81,3.81,0,0,0-.55,2.25,4.18,4.18,0,0,0,.47,2.22,1.34,1.34,0,0,0,1.14.72,2.37,2.37,0,0,0,1.24-.34A3.16,3.16,0,0,0,159.46,59.43Z"/><path class="cls-1" d="M168.53,58h-4.79q.08,2.67,2,2.67A4.53,4.53,0,0,0,168,60a1.15,1.15,0,0,1,.4.73,4.7,4.7,0,0,1-2.76.85,2.69,2.69,0,0,1-1.77-.56,2.92,2.92,0,0,1-1-1.41,6.54,6.54,0,0,1-.27-2,4.58,4.58,0,0,1,.82-2.82,2.62,2.62,0,0,1,2.22-1.09,2.66,2.66,0,0,1,2.17.92,3.56,3.56,0,0,1,.76,2.34A7.83,7.83,0,0,1,168.53,58Zm-1.46-2.76a1.55,1.55,0,0,0-1.37-.67,1.63,1.63,0,0,0-1.41.71,3.46,3.46,0,0,0-.55,1.9h3.79V57A3,3,0,0,0,167.06,55.23Z"/><path class="cls-1" d="M176.53,56.16V60a3.6,3.6,0,0,0,.15,1.27.9.9,0,0,1-.66.23c-.36,0-.54-.23-.54-.69v-4.3a2.81,2.81,0,0,0-.24-1.37,1,1,0,0,0-.88-.4,3,3,0,0,0-1.33.34,3.43,3.43,0,0,0-1.13.88v5.45a3,3,0,0,1-1,0V54l.09-.09h.4a.49.49,0,0,1,.44.17,1.09,1.09,0,0,1,.11.55v.3a3.8,3.8,0,0,1,1.23-.81,3.71,3.71,0,0,1,1.44-.3,1.7,1.7,0,0,1,1.49.66A2.88,2.88,0,0,1,176.53,56.16Z"/><path class="cls-1" d="M183.29,56.53v-.32a2.17,2.17,0,0,0-.12-.6,1.47,1.47,0,0,0-.51-.7,1.66,1.66,0,0,0-2.42.5,4.25,4.25,0,0,0-.53,2.3,3.9,3.9,0,0,0,.52,2.22,1.63,1.63,0,0,0,1.42.75,3.5,3.5,0,0,0,2-.85,1.09,1.09,0,0,1,.52.67,3.79,3.79,0,0,1-2.66,1.1,2.44,2.44,0,0,1-2.21-1.13,5.27,5.27,0,0,1-.73-2.9,4.12,4.12,0,0,1,.89-2.79,2.76,2.76,0,0,1,2.17-1,3.14,3.14,0,0,1,1.23.23,2.17,2.17,0,0,1,1.4,1.93c0,.44-.19.66-.56.66A2.74,2.74,0,0,1,183.29,56.53Z"/><path class="cls-1" d="M191.69,58h-4.79q.08,2.67,2,2.67a4.53,4.53,0,0,0,2.23-.66,1.13,1.13,0,0,1,.4.73,4.7,4.7,0,0,1-2.76.85A2.7,2.7,0,0,1,187,61a2.93,2.93,0,0,1-1-1.41,6.48,6.48,0,0,1-.27-2,4.58,4.58,0,0,1,.82-2.82,2.63,2.63,0,0,1,2.22-1.09,2.66,2.66,0,0,1,2.17.92,3.55,3.55,0,0,1,.76,2.34A8.21,8.21,0,0,1,191.69,58Zm-1.47-2.76a1.54,1.54,0,0,0-1.37-.67,1.63,1.63,0,0,0-1.41.71,3.46,3.46,0,0,0-.55,1.9h3.79V57A3,3,0,0,0,190.22,55.23Z"/><path class="cls-1" d="M201.56,56.51a2.88,2.88,0,0,0-.24-1.36.83.83,0,0,0-.79-.41,2.22,2.22,0,0,0-1.12.34,3.44,3.44,0,0,0-1,.9v5.44a2.62,2.62,0,0,1-.52,0,2.59,2.59,0,0,1-.52,0V54l.09-.11h.4a.49.49,0,0,1,.44.17,1.06,1.06,0,0,1,.11.55v.3a2.88,2.88,0,0,1,2.23-1.11A1.73,1.73,0,0,1,202.39,55a3.6,3.6,0,0,1,2.47-1.17,1.65,1.65,0,0,1,1.43.66,2.8,2.8,0,0,1,.48,1.69V60a3.57,3.57,0,0,0,.17,1.27,1,1,0,0,1-.66.23c-.36,0-.53-.23-.53-.69V56.5a2.82,2.82,0,0,0-.24-1.35.84.84,0,0,0-.79-.4,2.3,2.3,0,0,0-1.12.32,3.27,3.27,0,0,0-1,.92v5.44a2.49,2.49,0,0,1-.52,0,2.27,2.27,0,0,1-.5,0Z"/><path class="cls-1" d="M215.18,57.67a4.25,4.25,0,0,1-1.07,3.11,3.09,3.09,0,0,1-4.17,0,5.07,5.07,0,0,1,0-6.23,3.09,3.09,0,0,1,4.17,0A4.26,4.26,0,0,1,215.18,57.67ZM212,54.56a1.66,1.66,0,0,0-1.57.91,4.55,4.55,0,0,0-.5,2.21,4.46,4.46,0,0,0,.5,2.2,1.83,1.83,0,0,0,2.8.42,3.59,3.59,0,0,0,.84-2.62,4.56,4.56,0,0,0-.5-2.21A1.67,1.67,0,0,0,212,54.56Z"/><path class="cls-1" d="M220.59,53.81a2.14,2.14,0,0,1,1.9,1,5.2,5.2,0,0,1,.67,2.86,4,4,0,0,1-.93,2.82,3,3,0,0,1-2.23,1,7.68,7.68,0,0,1-2.64-.49V50.28l.09-.09h.38a.49.49,0,0,1,.44.17,1.05,1.05,0,0,1,.11.55v3.88A3,3,0,0,1,220.59,53.81Zm1.54,3.82a4,4,0,0,0-.48-2.19,1.36,1.36,0,0,0-1.12-.71,2.4,2.4,0,0,0-1.2.31,3,3,0,0,0-.94.82v4.56a4.29,4.29,0,0,0,1.62.29,1.84,1.84,0,0,0,1.51-.8A3.7,3.7,0,0,0,222.12,57.63Z"/><path class="cls-1" d="M226.49,54.92v6.49a3,3,0,0,1-1,0v-6a.9.9,0,0,0-.14-.58.64.64,0,0,0-.49-.15h-.14a1.61,1.61,0,0,1,0-.37,2,2,0,0,1,0-.4,5.53,5.53,0,0,1,.73-.06h.12a.9.9,0,0,1,.7.28A1.09,1.09,0,0,1,226.49,54.92Zm-1.39-2.49a1.23,1.23,0,0,1-.11-.56,1,1,0,0,1,.11-.53,1.07,1.07,0,0,1,.65-.15,1,1,0,0,1,.63.15,1,1,0,0,1,.11.53,1.23,1.23,0,0,1-.11.56.9.9,0,0,1-.62.15A1.11,1.11,0,0,1,225.1,52.44Z"/><path class="cls-1" d="M230.76,60.6h.66a1.28,1.28,0,0,1,.09.47,1.88,1.88,0,0,1,0,.3,7.17,7.17,0,0,1-1.11.09,1.22,1.22,0,0,1-.87-.32,1.15,1.15,0,0,1-.34-.89v-10l.09-.09h.38a.49.49,0,0,1,.44.17,1.07,1.07,0,0,1,.11.55V60C230.2,60.39,230.39,60.6,230.76,60.6Z"/><path class="cls-1" d="M238.82,58H234q.08,2.67,2,2.67a4.53,4.53,0,0,0,2.23-.66,1.15,1.15,0,0,1,.4.73,4.7,4.7,0,0,1-2.76.85,2.69,2.69,0,0,1-1.77-.56,2.92,2.92,0,0,1-1-1.41,6.54,6.54,0,0,1-.27-2,4.58,4.58,0,0,1,.82-2.82A2.62,2.62,0,0,1,236,53.75a2.66,2.66,0,0,1,2.17.92,3.56,3.56,0,0,1,.76,2.34A7.81,7.81,0,0,1,238.82,58Zm-1.46-2.76a1.55,1.55,0,0,0-1.37-.67,1.63,1.63,0,0,0-1.41.71,3.46,3.46,0,0,0-.55,1.9h3.79V57A3,3,0,0,0,237.36,55.23Z"/></g></g></svg>