<?xml version="1.0" encoding="UTF-8"?>
<svg width="16px" height="20px" viewBox="0 0 16 20" version="1.1" xmlns="http://www.w3.org/2000/svg" xmlns:xlink="http://www.w3.org/1999/xlink">
    <!-- Generator: Sketch 42 (36781) - http://www.bohemiancoding.com/sketch -->
    <title>Fill 1</title>
    <desc>Created with Sketch.</desc>
    <defs></defs>
    <g id="Page-1" stroke="none" stroke-width="1" fill="none" fill-rule="evenodd">
        <g id="Auvergne-Webcam-Detail" transform="translate(-336.000000, -89.000000)" fill="#52A4FF">
            <g id="Content" transform="translate(0.000000, 89.000000)">
                <path d="M349.559725,15.2543446 C348.83616,15.2543446 348.19039,15.5785296 347.755254,16.0886441 L340.564893,11.0778632 C340.680828,10.7976686 340.746055,10.4912532 340.746055,10.169452 C340.746055,9.84808414 340.680828,9.5412353 340.564893,9.2616908 L347.950719,4.11373809 C348.373936,4.50466698 348.937793,4.74585537 349.559725,4.74585537 C350.870333,4.74585537 351.932386,3.68380299 351.932386,2.37319438 C351.932386,1.06215238 350.870333,0.0001 349.559725,0.0001 C348.248683,0.0001 347.18663,1.06215238 347.18663,2.37319438 C347.18663,2.6945622 347.251858,3.00141104 347.367576,3.28117224 L339.981967,8.42825815 C339.55875,8.03797936 338.994893,7.79679097 338.372744,7.79679097 C337.062352,7.79679097 336.0003,8.85884335 336.0003,10.169452 C336.0003,11.4798439 337.062352,12.5425463 338.372744,12.5425463 C338.994893,12.5425463 339.55875,12.301358 339.981967,11.9104291 L347.274394,16.9935881 C347.218919,17.1953369 347.18663,17.4074873 347.18663,17.6270056 C347.18663,18.9380476 348.248683,20.0001 349.559725,20.0001 C350.870333,20.0001 351.932386,18.9380476 351.932386,17.6270056 C351.932386,16.316397 350.870333,15.2543446 349.559725,15.2543446" id="Fill-1"></path>
            </g>
        </g>
    </g>
</svg>