<?xml version="1.0" encoding="UTF-8"?>
<svg width="100px" height="100px" viewBox="0 0 100 100" version="1.1" xmlns="http://www.w3.org/2000/svg" xmlns:xlink="http://www.w3.org/1999/xlink">
    <!-- Generator: Sketch 42 (36781) - http://www.bohemiancoding.com/sketch -->
    <title>Icone</title>
    <desc>Created with Sketch.</desc>
    <defs></defs>
    <g id="Page-1" stroke="none" stroke-width="1" fill="none" fill-rule="evenodd">
        <g id="Auvergne-Webcam-No-Connexion" transform="translate(-139.000000, -184.000000)">
            <g id="Content" transform="translate(122.000000, 184.000000)">
                <g id="Icone" transform="translate(17.000000, 0.000000)">
                    <circle id="Oval" fill="#52A4FF" cx="50" cy="50" r="50"></circle>
                    <g id="Page-1" transform="translate(24.000000, 33.000000)" stroke="#FFFFFF" fill="#FFFFFF">
                        <path d="M45.7004379,6.06156923 C41.4421621,3.0489891 34.9533172,0.0446878205 26.1836448,0.0446878205 C17.3710241,0.0446878205 10.8830931,3.0489891 6.62481724,6.06156923 C2.35923103,9.07230962 0.294972414,12.075691 0.23192069,12.1649186 C0.0354551724,12.4519186 -0.0440448276,12.8161878 0.0235758621,13.1611397 C0.0829724138,13.5024122 0.286748276,13.812409 0.571851724,14.012941 C0.859696552,14.2116333 1.2115069,14.2889026 1.55692069,14.2272712 C1.90598966,14.1601205 2.2048,13.9651077 2.4040069,13.6716686 L2.47345517,13.5787615 C2.87004138,13.0332776 4.99186897,10.2975788 8.8955931,7.71825833 C12.8075414,5.13985769 18.4831103,2.70679679 26.1324724,2.70403718 C34.3483862,2.70679679 40.2651966,5.47193141 44.1844552,8.23614615 C46.1436276,9.61779359 47.5901621,10.9966814 48.5414207,12.0214186 C49.0175069,12.5347071 49.3720586,12.9569282 49.5986793,13.2476077 L49.8481448,13.5787615 L49.9175931,13.6679891 C50.3297138,14.2751045 51.1512138,14.4287231 51.7506621,14.012941 C52.3528517,13.5989987 52.5045414,12.7711141 52.0933345,12.1649186 C52.0266276,12.075691 49.9660241,9.07230962 45.7004379,6.06156923 Z" id="Fill-1"></path>
                        <path d="M45.0891103,19.28675 C41.9785586,15.4076506 36.358731,10.5084135 26.0054552,10.5396891 L25.9524552,10.5396891 C16.0359724,10.5176122 10.2215069,15.1565256 7.21238621,19.2260385 C6.77376552,19.8129167 6.89073103,20.6463205 7.47190345,21.0832596 C8.05490345,21.5247981 8.87914483,21.4061346 9.3195931,20.8210962 C12.005231,17.2657917 16.8666103,13.2183558 25.9524552,13.195359 L26.0054552,13.195359 C35.5180414,13.2275545 40.1317828,17.4350481 43.045869,20.965516 C43.5073345,21.5330769 44.3370586,21.6195449 44.900869,21.1540897 C45.4665069,20.6904744 45.5487483,19.8543109 45.0891103,19.28675" id="Fill-4"></path>
                        <path d="M17.1014552,27.0463285 L17.1243,27.0150529 C17.2851276,26.8099215 18.2363862,25.6481234 19.8163345,24.5755529 C21.3981103,23.4974631 23.5701966,22.5067612 26.262231,22.5067612 C29.1251448,22.5067612 31.3484034,23.6437228 32.896369,24.8082804 C33.6676103,25.392399 34.2533517,25.9765176 34.6435414,26.4079375 L35.0785069,26.921226 L35.1790241,27.0527676 L35.1982138,27.0812837 C35.6139897,27.6782804 36.4373172,27.8254599 37.0312828,27.4078381 C37.6298172,26.985617 37.7769379,26.1586522 37.3611621,25.5588958 C37.3026793,25.4825465 36.3368,24.0935401 34.4818,22.6888958 C32.6295414,21.2842516 29.8415586,19.8510913 26.262231,19.8510913 C22.6856448,19.8510913 19.8656793,21.2594151 17.9640759,22.6346234 C16.0606448,24.0171907 15.0472483,25.3795208 14.9887655,25.4540304 C14.5547138,26.0372292 14.6725931,26.8715529 15.2555931,27.3112516 C15.8395069,27.7527901 16.6664897,27.6304471 17.1014552,27.0463285" id="Fill-6"></path>
                        <path d="M28.9612103,31.8855901 C28.9612103,33.4392535 27.7029172,34.6948785 26.1640897,34.6948785 C24.6197793,34.6948785 23.3642276,33.4392535 23.3642276,31.8855901 C23.3642276,30.3245676 24.6197793,29.0634234 26.1640897,29.0634234 C27.7029172,29.0634234 28.9612103,30.3245676 28.9612103,31.8855901" id="Fill-8"></path>
                    </g>
                    <path d="M29.5,68.5 L70.0030863,27.9969137" id="Line" stroke="#52A4FF" stroke-width="7" stroke-linecap="round" stroke-linejoin="round"></path>
                    <path d="M29.5,68.5 L70.0030863,27.9969137" id="Line" stroke="#FFFFFF" stroke-width="3" stroke-linecap="round" stroke-linejoin="round"></path>
                </g>
            </g>
        </g>
    </g>
</svg>